<?xml version="1.0" encoding="UTF-8" standalone="no"?>
<!-- Created with Inkscape (http://www.inkscape.org/) -->

<svg
   width="280"
   height="280"
   viewBox="0 0 74.083331 74.083331"
   version="1.1"
   id="svg1"
   sodipodi:docname="chopper-coordinates.svg"
   inkscape:version="1.3 (0e150ed6c4, 2023-07-21)"
   xmlns:inkscape="http://www.inkscape.org/namespaces/inkscape"
   xmlns:sodipodi="http://sodipodi.sourceforge.net/DTD/sodipodi-0.dtd"
   xmlns="http://www.w3.org/2000/svg"
   xmlns:svg="http://www.w3.org/2000/svg">
  <sodipodi:namedview
     id="namedview1"
     pagecolor="#ffffff"
     bordercolor="#000000"
     borderopacity="0.25"
     inkscape:showpageshadow="2"
     inkscape:pageopacity="0.0"
     inkscape:pagecheckerboard="0"
     inkscape:deskcolor="#d1d1d1"
     inkscape:document-units="mm"
     inkscape:zoom="2.9298244"
     inkscape:cx="94.032939"
     inkscape:cy="108.19761"
     inkscape:window-width="2560"
     inkscape:window-height="1406"
     inkscape:window-x="0"
     inkscape:window-y="0"
     inkscape:window-maximized="1"
     inkscape:current-layer="layer1" />
  <defs
     id="defs1" />
  <g
     inkscape:label="Layer 1"
     inkscape:groupmode="layer"
     id="layer1"
     transform="translate(-14.679766,-23.346282)">
    <text
       xml:space="preserve"
       style="font-size:6.35px;font-family:Arial;-inkscape-font-specification:Arial;fill:none;stroke:#666666;stroke-width:0.7;stroke-dasharray:none;stroke-dashoffset:0;stroke-opacity:1"
       x="53.697269"
       y="44.837452"
       id="text26"><tspan
         sodipodi:role="line"
         id="tspan26"
         style="stroke-width:0.7"
         x="53.697269"
         y="44.837452" /></text>
    <text
       xml:space="preserve"
       style="font-style:normal;font-variant:normal;font-weight:normal;font-stretch:normal;font-size:4.9389px;font-family:'DejaVu Sans';-inkscape-font-specification:'DejaVu Sans';fill:#999999;fill-opacity:1;stroke:none;stroke-width:0.7;stroke-dasharray:none;stroke-dashoffset:0;stroke-opacity:1"
       x="18.542364"
       y="8.3143692"
       id="text39"><tspan
         sodipodi:role="line"
         id="tspan39"
         style="fill:#999999;fill-opacity:1;stroke:none;stroke-width:0.7"
         x="18.542364"
         y="8.3143692" /></text>
    <path
       id="path18"
       style="fill:#ececec;stroke:none;stroke-width:0.7"
       d="M 55.071974,32.210314 A 30.78174,30.78174 0 0 0 30.205275,44.975943 l 16.294096,11.804964 a 10.611768,10.611768 0 0 0 -2.039152,6.21099 10.611768,10.611768 0 0 0 1.536857,5.46685 L 28.749033,78.849844 A 30.78174,30.78174 0 0 0 55.071974,93.773998 30.78174,30.78174 0 0 0 85.854075,62.991897 30.78174,30.78174 0 0 0 55.071974,32.210314 Z" />
    <path
       style="fill:#808080;stroke:#808080;stroke-width:0.7;stroke-dasharray:2.1, 2.1;stroke-dashoffset:0"
       d="M 55.072869,62.99227 46.499371,56.780907"
       id="path14" />
    <path
       style="fill:#808080;stroke:#808080;stroke-width:0.7;stroke-dasharray:2.1, 2.1;stroke-dashoffset:0"
       d="m 55.072869,62.99227 -9.075793,5.466477"
       id="path15" />
    <path
       id="path23"
       style="fill:none;stroke:#4d4d4d;stroke-width:0.7;stroke-dasharray:none;stroke-dashoffset:0;stroke-opacity:1"
       d="m 51.840473,54.558784 a 9.031724,9.031724 0 0 1 3.232397,-0.598241 9.031724,9.031724 0 0 1 6.715899,2.992789" />
    <path
       id="path38"
       style="fill:none;stroke:#4d4d4d;stroke-width:0.7;stroke-dasharray:none;stroke-dashoffset:0;stroke-opacity:1"
       d="M 36.802369,49.754513 A 22.562122,22.562122 0 0 1 55.07287,40.430145 22.562122,22.562122 0 0 1 71.850202,47.906827" />
    <path
       style="fill:none;stroke:#0065ac;stroke-width:0.7;stroke-dasharray:2.1, 2.1;stroke-dashoffset:0;stroke-opacity:1"
       d="M 55.072869,62.99227 77.961817,42.41082"
       id="path16" />
    <path
       id="path26"
       style="fill:none;stroke:#4d4d4d;stroke-width:0.7;stroke-dasharray:none;stroke-dashoffset:0;stroke-opacity:1"
       d="m 43.743033,54.783446 a 13.991067,13.991067 0 0 1 6.322508,-4.855504" />
    <path
       style="fill:none;stroke:#c83737;stroke-width:0.7;stroke-dasharray:2.1, 2.1;stroke-dashoffset:0"
       d="M 55.072869,62.99227 44.06689,34.280095"
       id="path17" />
    <path
       id="path12"
       style="fill:none;stroke:#808080;stroke-width:0.7"
       d="M 55.071974,32.210314 A 30.78174,30.78174 0 0 0 30.205275,44.975943 l 16.294096,11.804964 a 10.611768,10.611768 0 0 0 -2.039152,6.21099 10.611768,10.611768 0 0 0 1.536857,5.46685 L 28.749033,78.849844 A 30.78174,30.78174 0 0 0 55.071974,93.773998 30.78174,30.78174 0 0 0 85.854075,62.991897 30.78174,30.78174 0 0 0 55.071974,32.210314 Z" />
    <circle
       style="fill:#808080;stroke:none;stroke-width:0.699999"
       id="path13"
       cx="55.072868"
       cy="62.992271"
       r="1.0005811" />
    <g
       inkscape:label=""
       transform="matrix(1.5603979,0,0,1.5603979,56.650419,48.200561)"
       id="g28"
       style="fill:#4d4d4d;stroke-width:0.640862">
      <g
         fill="#000000"
         fill-opacity="1"
         id="g3"
         transform="matrix(0.352778,0,0,0.352778,-0.851914,-0.70194)"
         style="fill:#4d4d4d;stroke-width:0.640862">
        <g
           id="use2"
           transform="translate(2.809,8.6459999)"
           style="fill:#4d4d4d;stroke-width:0.640862">
          <path
             d="M 4.140625,-6.515625 3.984375,-6.65625 c 0,0 -0.375,0.46875 -0.8125,0.46875 -0.234375,0 -0.484375,-0.140625 -0.65625,-0.25 C 2.25,-6.59375 2.078125,-6.65625 1.90625,-6.65625 c -0.375,0 -0.578125,0.21875 -1.078125,0.78125 l 0.15625,0.140625 c 0,0 0.375,-0.46875 0.8125,-0.46875 0.234375,0 0.484375,0.140625 0.65625,0.234375 0.265625,0.171875 0.453125,0.234375 0.625,0.234375 0.375,0 0.5625,-0.21875 1.0625,-0.78125 z m 0,0"
             id="path4"
             style="fill:#4d4d4d;stroke-width:0.640862" />
        </g>
      </g>
      <g
         fill="#000000"
         fill-opacity="1"
         id="g4"
         transform="matrix(0.352778,0,0,0.352778,-0.851914,-0.70194)"
         style="fill:#4d4d4d;stroke-width:0.640862">
        <g
           id="use3"
           transform="translate(1.993,11.275)"
           style="fill:#4d4d4d;stroke-width:0.640862">
          <path
             d="m 4.53125,-4.984375 c 0,-0.65625 -0.171875,-2.046875 -1.1875,-2.046875 -1.390625,0 -2.921875,2.8125 -2.921875,5.09375 0,0.9375 0.28125,2.046875 1.1875,2.046875 1.40625,0 2.921875,-2.859375 2.921875,-5.09375 z M 1.46875,-3.625 C 1.640625,-4.25 1.84375,-5.046875 2.25,-5.765625 2.515625,-6.25 2.875,-6.8125 3.328125,-6.8125 c 0.484375,0 0.546875,0.640625 0.546875,1.203125 0,0.5 -0.078125,1 -0.3125,1.984375 z m 2,0.328125 C 3.359375,-2.84375 3.15625,-2 2.765625,-1.28125 c -0.34375,0.6875 -0.71875,1.171875 -1.15625,1.171875 -0.328125,0 -0.53125,-0.296875 -0.53125,-1.21875 0,-0.421875 0.0625,-1 0.3125,-1.96875 z m 0,0"
             id="path5"
             style="fill:#4d4d4d;stroke-width:0.640862" />
        </g>
      </g>
    </g>
    <g
       inkscape:label=""
       transform="matrix(1.5044617,0,0,1.5044617,52.996502,35.722408)"
       id="g29"
       style="fill:#4d4d4d;stroke-width:0.66469">
      <g
         fill="#000000"
         fill-opacity="1"
         id="g2"
         transform="matrix(0.352778,0,0,0.352778,-0.851914,-0.663134)"
         style="fill:#4d4d4d;stroke-width:0.66469">
        <g
           id="use1"
           transform="translate(1.993,8.9110003)"
           style="fill:#4d4d4d;stroke-width:0.66469">
          <path
             d="m 4.53125,-4.984375 c 0,-0.65625 -0.171875,-2.046875 -1.1875,-2.046875 -1.390625,0 -2.921875,2.8125 -2.921875,5.09375 0,0.9375 0.28125,2.046875 1.1875,2.046875 1.40625,0 2.921875,-2.859375 2.921875,-5.09375 z M 1.46875,-3.625 C 1.640625,-4.25 1.84375,-5.046875 2.25,-5.765625 2.515625,-6.25 2.875,-6.8125 3.328125,-6.8125 c 0.484375,0 0.546875,0.640625 0.546875,1.203125 0,0.5 -0.078125,1 -0.3125,1.984375 z m 2,0.328125 C 3.359375,-2.84375 3.15625,-2 2.765625,-1.28125 c -0.34375,0.6875 -0.71875,1.171875 -1.15625,1.171875 -0.328125,0 -0.53125,-0.296875 -0.53125,-1.21875 0,-0.421875 0.0625,-1 0.3125,-1.96875 z m 0,0"
             id="path2"
             style="fill:#4d4d4d;stroke-width:0.66469" />
        </g>
      </g>
    </g>
    <g
       inkscape:label=""
       transform="matrix(1.5849511,0,0,1.5849511,40.016163,46.279786)"
       id="g37"
       style="fill:#4d4d4d;fill-opacity:1;stroke-width:0.630934">
      <g
         fill="#000000"
         fill-opacity="1"
         id="g36"
         transform="matrix(0.352778,0,0,0.352778,-0.868451,-0.70194)"
         style="fill:#4d4d4d;fill-opacity:1;stroke-width:0.630934">
        <g
           id="g35"
           transform="translate(1.993,11.275)"
           style="fill:#4d4d4d;fill-opacity:1;stroke-width:0.630934">
          <path
             d="m 4.40625,-6.953125 c -0.0625,-0.140625 -0.09375,-0.1875 -0.265625,-0.1875 -0.15625,0 -0.1875,0.046875 -0.25,0.1875 l -3.375,6.75 C 0.46875,-0.109375 0.46875,-0.09375 0.46875,-0.078125 0.46875,0 0.53125,0 0.6875,0 h 6.921875 c 0.15625,0 0.21875,0 0.21875,-0.078125 0,-0.015625 0,-0.03125 -0.046875,-0.125 z m -0.578125,0.8125 2.6875,5.390625 h -5.375 z m 0,0"
             id="path6"
             style="fill:#4d4d4d;fill-opacity:1;stroke-width:0.630934" />
        </g>
      </g>
      <g
         fill="#000000"
         fill-opacity="1"
         id="g5"
         transform="matrix(0.352778,0,0,0.352778,-0.868451,-0.70194)"
         style="fill:#4d4d4d;fill-opacity:1;stroke-width:0.630934">
        <g
           id="use4"
           transform="translate(11.111,8.6459999)"
           style="fill:#4d4d4d;fill-opacity:1;stroke-width:0.630934">
          <path
             d="M 4.140625,-6.515625 3.984375,-6.65625 c 0,0 -0.375,0.46875 -0.8125,0.46875 -0.234375,0 -0.484375,-0.140625 -0.65625,-0.25 C 2.25,-6.59375 2.078125,-6.65625 1.90625,-6.65625 c -0.375,0 -0.578125,0.21875 -1.078125,0.78125 l 0.15625,0.140625 c 0,0 0.375,-0.46875 0.8125,-0.46875 0.234375,0 0.484375,0.140625 0.65625,0.234375 0.265625,0.171875 0.453125,0.234375 0.625,0.234375 0.375,0 0.5625,-0.21875 1.0625,-0.78125 z m 0,0"
             id="path7"
             style="fill:#4d4d4d;fill-opacity:1;stroke-width:0.630934" />
        </g>
      </g>
      <g
         fill="#000000"
         fill-opacity="1"
         id="g6"
         transform="matrix(0.352778,0,0,0.352778,-0.868451,-0.70194)"
         style="fill:#4d4d4d;fill-opacity:1;stroke-width:0.630934">
        <g
           id="use5"
           transform="translate(10.295,11.275)"
           style="fill:#4d4d4d;fill-opacity:1;stroke-width:0.630934">
          <path
             d="m 4.53125,-4.984375 c 0,-0.65625 -0.171875,-2.046875 -1.1875,-2.046875 -1.390625,0 -2.921875,2.8125 -2.921875,5.09375 0,0.9375 0.28125,2.046875 1.1875,2.046875 1.40625,0 2.921875,-2.859375 2.921875,-5.09375 z M 1.46875,-3.625 C 1.640625,-4.25 1.84375,-5.046875 2.25,-5.765625 2.515625,-6.25 2.875,-6.8125 3.328125,-6.8125 c 0.484375,0 0.546875,0.640625 0.546875,1.203125 0,0.5 -0.078125,1 -0.3125,1.984375 z m 2,0.328125 C 3.359375,-2.84375 3.15625,-2 2.765625,-1.28125 c -0.34375,0.6875 -0.71875,1.171875 -1.15625,1.171875 -0.328125,0 -0.53125,-0.296875 -0.53125,-1.21875 0,-0.421875 0.0625,-1 0.3125,-1.96875 z m 0,0"
             id="path8"
             style="fill:#4d4d4d;fill-opacity:1;stroke-width:0.630934" />
        </g>
      </g>
    </g>
    <path
       style="font-size:4.9389px;font-family:Arial;-inkscape-font-specification:Arial;fill:#0065ac;stroke-width:0.7"
       d="m 78.829289,37.643511 v 3.0217 H 78.37109 v -3.0217 h -1.167201 v -0.376206 h 2.792601 v 0.376206 z m 4.610926,1.287779 q 0,0.525723 -0.204984,0.921221 -0.204984,0.393086 -0.581189,0.602893 -0.376205,0.209807 -0.868166,0.209807 h -1.270898 v -3.397906 h 1.123792 q 0.863343,0 1.331188,0.434083 0.470257,0.431672 0.470257,1.229902 z m -0.463022,0 q 0,-0.631832 -0.347267,-0.962217 -0.344854,-0.332797 -1.000802,-0.332797 h -0.653536 v 2.659964 h 0.757234 q 0.373793,0 0.655947,-0.163987 0.284566,-0.163987 0.436495,-0.472668 0.151929,-0.308681 0.151929,-0.728295 z m 2.609321,-1.338422 q -0.564308,0 -0.877812,0.364147 -0.313505,0.361736 -0.313505,0.993568 0,0.624597 0.325563,1.005625 0.327974,0.378617 0.885047,0.378617 0.713825,0 1.073149,-0.70659 l 0.376206,0.188102 q -0.209807,0.438906 -0.590836,0.668006 -0.378616,0.229099 -0.880223,0.229099 -0.513665,0 -0.889871,-0.212218 -0.373793,-0.21463 -0.571542,-0.610128 -0.195338,-0.397909 -0.195338,-0.940513 0,-0.8127 0.438907,-1.27331 0.438906,-0.460611 1.215432,-0.460611 0.542604,0 0.906751,0.212219 0.364148,0.212218 0.535369,0.62942 l -0.436494,0.144694 Q 86.46915,37.906372 86.206288,37.74962 85.945838,37.592868 85.586514,37.592868 Z"
       id="text40"
       aria-label="TDC" />
    <path
       style="font-size:4.9389px;font-family:Arial;-inkscape-font-specification:Arial;fill:#c83737;stroke-width:0.7"
       d="m 31.180642,29.593306 q 0,1.36495 -0.959806,1.36495 -0.296623,0 -0.494372,-0.106109 -0.195338,-0.108521 -0.318328,-0.347266 h -0.0048 q 0,0.07476 -0.0096,0.229099 -0.0096,0.151929 -0.01447,0.176045 h -0.419613 q 0.01447,-0.130225 0.01447,-0.537781 v -3.040993 h 0.434083 v 1.020095 q 0,0.156753 -0.0096,0.368971 h 0.0096 q 0.120579,-0.250803 0.318328,-0.359324 0.20016,-0.108521 0.494372,-0.108521 0.494372,0 0.725883,0.332797 0.233923,0.332797 0.233923,1.008037 z m -0.455787,0.01447 q 0,-0.547427 -0.144695,-0.783761 -0.144694,-0.236334 -0.470256,-0.236334 -0.366559,0 -0.535369,0.250803 -0.166399,0.250804 -0.166399,0.795819 0,0.513665 0.163987,0.759645 0.163987,0.243569 0.532958,0.243569 0.327974,0 0.472668,-0.241157 0.147106,-0.243569 0.147106,-0.788584 z m 1.328776,0.08923 q 0,0.448552 0.185691,0.692121 0.185691,0.243569 0.542604,0.243569 0.282154,0 0.450964,-0.113344 0.171222,-0.113344 0.231511,-0.286977 l 0.381028,0.108521 q -0.233922,0.617362 -1.063503,0.617362 -0.578777,0 -0.882635,-0.344855 -0.301447,-0.344855 -0.301447,-1.024918 0,-0.646301 0.301447,-0.991156 0.303858,-0.344855 0.865754,-0.344855 1.15032,0 1.15032,1.386654 v 0.05788 z m 1.413181,-0.332797 q -0.03617,-0.412379 -0.209806,-0.600482 -0.173633,-0.190514 -0.499196,-0.190514 -0.315916,0 -0.501607,0.212218 -0.183279,0.209807 -0.197749,0.578778 z m 1.666397,1.594049 q -0.393086,0 -0.590835,-0.207395 -0.197749,-0.207395 -0.197749,-0.569131 0,-0.405144 0.265273,-0.622186 0.267684,-0.217041 0.860931,-0.231511 l 0.586012,-0.0096 v -0.142283 q 0,-0.318327 -0.135048,-0.455787 -0.135048,-0.13746 -0.424437,-0.13746 -0.2918,0 -0.424436,0.09887 -0.132637,0.09887 -0.159164,0.315916 l -0.453376,-0.041 q 0.110933,-0.704179 1.046623,-0.704179 0.49196,0 0.740352,0.226688 0.248392,0.224276 0.248392,0.651124 v 1.123793 q 0,0.192926 0.05064,0.2918 0.05064,0.09646 0.192926,0.09646 0.0627,0 0.142283,-0.01688 v 0.270096 q -0.163987,0.03858 -0.335209,0.03858 -0.241157,0 -0.352089,-0.125401 -0.108521,-0.127814 -0.12299,-0.39791 h -0.01447 q -0.166398,0.299035 -0.388263,0.424437 -0.219453,0.12299 -0.535369,0.12299 z m 0.09887,-0.325562 q 0.238746,0 0.424437,-0.108521 0.185691,-0.108521 0.2918,-0.296623 0.108521,-0.190515 0.108521,-0.390675 v -0.21463 l -0.47508,0.0096 q -0.306269,0.0048 -0.465433,0.0627 -0.156752,0.05788 -0.241157,0.178457 -0.08441,0.120578 -0.08441,0.315916 0,0.212218 0.113344,0.327973 0.115755,0.115756 0.327973,0.115756 z m 3.501604,0.277331 v -1.654339 q 0,-0.378617 -0.103698,-0.523311 -0.103697,-0.144694 -0.373793,-0.144694 -0.277331,0 -0.438907,0.212218 -0.161575,0.212218 -0.161575,0.59807 v 1.512056 h -0.431671 v -2.052248 q 0,-0.455788 -0.01447,-0.557074 h 0.409968 q 0.0024,0.01206 0.0048,0.06511 0.0024,0.05305 0.0048,0.12299 0.0048,0.06752 0.0096,0.258038 h 0.0072 q 0.139871,-0.27733 0.320739,-0.385851 0.180868,-0.108521 0.441318,-0.108521 0.296623,0 0.467845,0.118167 0.173633,0.118167 0.241157,0.376205 h 0.0072 q 0.135048,-0.262861 0.325562,-0.378617 0.192926,-0.115755 0.465433,-0.115755 0.395498,0 0.573955,0.21463 0.180867,0.21463 0.180867,0.704179 v 1.738744 H 40.24092 v -1.654339 q 0,-0.378617 -0.103698,-0.523311 -0.103698,-0.144694 -0.373794,-0.144694 -0.284565,0 -0.443729,0.212218 -0.156752,0.209807 -0.156752,0.59807 v 1.512056 z m 6.173624,-1.316719 q 0,1.36495 -0.959806,1.36495 -0.602893,0 -0.810288,-0.453375 h -0.01206 q 0.0096,0.01929 0.0096,0.409967 v 1.020095 h -0.434083 v -3.101282 q 0,-0.402733 -0.01447,-0.532958 h 0.419614 q 0.0024,0.0096 0.0072,0.06994 0.0048,0.05788 0.0096,0.180868 0.0072,0.12299 0.0072,0.16881 h 0.0096 q 0.115755,-0.241157 0.306269,-0.35209 0.190515,-0.113343 0.501607,-0.113343 0.482315,0 0.721061,0.32315 0.238745,0.323151 0.238745,1.015272 z m -0.455787,0.0096 q 0,-0.545015 -0.147106,-0.778937 -0.147106,-0.233923 -0.467845,-0.233923 -0.258038,0 -0.405144,0.108521 -0.144694,0.108521 -0.221865,0.340032 -0.07476,0.229099 -0.07476,0.598069 0,0.513665 0.163987,0.757234 0.163986,0.243569 0.532957,0.243569 0.323151,0 0.470257,-0.236334 0.149517,-0.238746 0.149517,-0.798231 z m 3.202568,0 q 0,0.684887 -0.301447,1.020096 -0.301446,0.335208 -0.875401,0.335208 -0.571542,0 -0.863343,-0.347266 -0.2918,-0.349678 -0.2918,-1.008038 0,-1.35048 1.169613,-1.35048 0.59807,0 0.880224,0.330385 0.282154,0.327974 0.282154,1.020095 z m -0.455788,0 q 0,-0.540192 -0.161575,-0.783761 -0.159164,-0.24598 -0.53778,-0.24598 -0.381029,0 -0.552251,0.250804 -0.16881,0.248392 -0.16881,0.778937 0,0.516077 0.166399,0.776527 0.16881,0.258038 0.528134,0.258038 0.390675,0 0.557073,-0.250804 0.16881,-0.250803 0.16881,-0.783761 z m 2.954178,0.586013 q 0,0.36897 -0.279742,0.569131 -0.277331,0.20016 -0.778938,0.20016 -0.487138,0 -0.752411,-0.159164 -0.262861,-0.161575 -0.342443,-0.501607 l 0.38344,-0.07476 q 0.05547,0.209806 0.229099,0.308681 0.173634,0.09646 0.482315,0.09646 0.330385,0 0.482314,-0.101286 0.154341,-0.101286 0.154341,-0.303858 0,-0.154341 -0.106109,-0.250804 -0.10611,-0.09646 -0.342444,-0.159164 l -0.311092,-0.08199 q -0.373794,-0.09646 -0.532958,-0.188103 -0.156752,-0.09405 -0.24598,-0.226688 -0.08923,-0.132636 -0.08923,-0.325562 0,-0.356913 0.253215,-0.542604 0.255626,-0.188102 0.742764,-0.188102 0.431671,0 0.684886,0.151929 0.255627,0.151929 0.323151,0.487137 l -0.390675,0.04823 q -0.03617,-0.173633 -0.195337,-0.265273 -0.156752,-0.09405 -0.422025,-0.09405 -0.294212,0 -0.434083,0.08923 -0.139871,0.08923 -0.139871,0.270096 0,0.110932 0.05788,0.183279 0.05788,0.07235 0.171222,0.12299 0.113344,0.05064 0.477491,0.139872 0.344855,0.08682 0.496784,0.161575 0.151929,0.07235 0.238746,0.161575 0.08923,0.08923 0.13746,0.207396 0.04823,0.115755 0.04823,0.265273 z m 0.508842,-2.442923 v -0.414791 h 0.434083 v 0.414791 z m 0,3.163983 v -2.609322 h 0.434083 v 2.609322 z m 2.102891,-0.01929 q -0.21463,0.05788 -0.438907,0.05788 -0.520899,0 -0.520899,-0.590835 v -1.741156 h -0.301447 v -0.315916 h 0.318328 l 0.127813,-0.5836 h 0.289389 v 0.5836 h 0.482314 v 0.315916 h -0.482314 v 1.647104 q 0,0.188103 0.06029,0.265273 0.0627,0.07476 0.21463,0.07476 0.08682,0 0.250804,-0.03376 z m 0.366559,-3.14469 v -0.414791 h 0.434083 v 0.414791 z m 0,3.163983 v -2.609322 h 0.434083 v 2.609322 z m 3.306265,-1.307073 q 0,0.684887 -0.301446,1.020096 -0.301447,0.335208 -0.875401,0.335208 -0.571543,0 -0.863343,-0.347266 -0.2918,-0.349678 -0.2918,-1.008038 0,-1.35048 1.169612,-1.35048 0.59807,0 0.880224,0.330385 0.282154,0.327974 0.282154,1.020095 z m -0.455787,0 q 0,-0.540192 -0.161575,-0.783761 -0.159164,-0.24598 -0.537781,-0.24598 -0.381028,0 -0.55225,0.250804 -0.16881,0.248392 -0.16881,0.778937 0,0.516077 0.166398,0.776527 0.16881,0.258038 0.528135,0.258038 0.390674,0 0.557073,-0.250804 0.16881,-0.250803 0.16881,-0.783761 z m 2.652729,1.307073 v -1.654339 q 0,-0.258038 -0.05064,-0.400321 -0.05064,-0.142283 -0.161575,-0.204984 -0.110933,-0.0627 -0.325563,-0.0627 -0.313504,0 -0.494372,0.214629 -0.180868,0.21463 -0.180868,0.595659 v 1.512056 h -0.434083 v -2.052248 q 0,-0.455788 -0.01447,-0.557074 h 0.409967 q 0.0024,0.01206 0.0048,0.06511 0.0024,0.05305 0.0048,0.12299 0.0048,0.06752 0.0096,0.258038 h 0.0072 q 0.149518,-0.270096 0.344855,-0.381028 0.197749,-0.113344 0.489549,-0.113344 0.42926,0 0.627009,0.21463 0.200161,0.212218 0.200161,0.704179 v 1.738744 z"
       id="text41"
       aria-label="beam position" />
    <path
       style="font-size:4.9389px;font-family:Arial;-inkscape-font-specification:Arial;fill:#808080;stroke-width:0.7"
       d="m 19.198533,44.86385 q 0,1.36495 -0.959806,1.36495 -0.296623,0 -0.494372,-0.106109 -0.195338,-0.108521 -0.318328,-0.347266 h -0.0048 q 0,0.07476 -0.0096,0.229099 -0.0096,0.151929 -0.01447,0.176045 h -0.419613 q 0.01447,-0.130225 0.01447,-0.537781 v -3.040993 h 0.434083 v 1.020096 q 0,0.156752 -0.0096,0.36897 h 0.0096 q 0.120579,-0.250803 0.318328,-0.359324 0.20016,-0.108521 0.494372,-0.108521 0.494372,0 0.725883,0.332797 0.233923,0.332797 0.233923,1.008037 z m -0.455787,0.01447 q 0,-0.547427 -0.144695,-0.783761 -0.144694,-0.236334 -0.470256,-0.236334 -0.366559,0 -0.535369,0.250803 -0.166399,0.250804 -0.166399,0.795819 0,0.513665 0.163987,0.759645 0.163987,0.243569 0.532958,0.243569 0.327973,0 0.472668,-0.241157 0.147106,-0.243569 0.147106,-0.788584 z m 1.328776,0.08923 q 0,0.448552 0.185691,0.692121 0.185691,0.243569 0.542604,0.243569 0.282154,0 0.450964,-0.113344 0.171222,-0.113344 0.231511,-0.286977 l 0.381028,0.108521 q -0.233922,0.617362 -1.063503,0.617362 -0.578777,0 -0.882636,-0.344855 -0.301446,-0.344855 -0.301446,-1.024918 0,-0.646301 0.301446,-0.991156 0.303859,-0.344855 0.865755,-0.344855 1.15032,0 1.15032,1.386654 v 0.05788 z m 1.413181,-0.332797 q -0.03617,-0.412379 -0.209806,-0.600482 -0.173634,-0.190514 -0.499196,-0.190514 -0.315916,0 -0.501607,0.212219 -0.183279,0.209806 -0.197749,0.578777 z m 1.989548,2.570736 q -0.426849,0 -0.680064,-0.16881 -0.253215,-0.166399 -0.325562,-0.47508 l 0.436495,-0.0627 q 0.04341,0.180868 0.190514,0.277331 0.149517,0.09887 0.390674,0.09887 0.648713,0 0.648713,-0.759646 v -0.419613 h -0.0048 q -0.12299,0.250803 -0.33762,0.378617 -0.21463,0.125401 -0.501607,0.125401 -0.479903,0 -0.706591,-0.318327 -0.224276,-0.318328 -0.224276,-1.000803 0,-0.692121 0.241157,-1.020095 0.243569,-0.330385 0.737942,-0.330385 0.27733,0 0.479902,0.127813 0.204984,0.125402 0.315916,0.359324 h 0.0048 q 0,-0.07235 0.0096,-0.250803 0.0096,-0.178456 0.01929,-0.195337 h 0.412379 q -0.01447,0.130224 -0.01447,0.540192 v 1.99437 q 0,1.099677 -1.092442,1.099677 z m 0.66077,-2.329579 q 0,-0.318327 -0.08682,-0.547427 -0.08682,-0.231511 -0.245981,-0.352089 -0.156752,-0.122991 -0.356912,-0.122991 -0.332797,0 -0.484726,0.241158 -0.151929,0.241157 -0.151929,0.781349 0,0.535369 0.142282,0.769292 0.142283,0.233922 0.487138,0.233922 0.204984,0 0.364147,-0.120578 0.159164,-0.120579 0.245981,-0.344855 0.08682,-0.226688 0.08682,-0.537781 z m 1.094855,-1.859322 v -0.414791 h 0.434083 v 0.414791 z m 0,3.163983 v -2.609321 h 0.434083 v 2.609321 z m 2.756427,0 V 44.52623 q 0,-0.258038 -0.05064,-0.400321 -0.05064,-0.142283 -0.161576,-0.204984 -0.110932,-0.0627 -0.325562,-0.0627 -0.313504,0 -0.494372,0.21463 -0.180868,0.214629 -0.180868,0.595658 v 1.512056 h -0.434083 v -2.052248 q 0,-0.455787 -0.01447,-0.557073 h 0.409968 q 0.0024,0.01206 0.0048,0.06511 0.0024,0.05305 0.0048,0.12299 0.0048,0.06752 0.0096,0.258038 h 0.0072 q 0.149517,-0.270096 0.344855,-0.381028 0.197749,-0.113344 0.489549,-0.113344 0.42926,0 0.627009,0.21463 0.20016,0.212218 0.20016,0.704179 v 1.738744 z"
       id="text42"
       aria-label="begin" />
    <path
       style="font-size:4.9389px;font-family:Arial;-inkscape-font-specification:Arial;fill:#808080;stroke-width:0.7"
       d="m 20.052387,78.923538 q 0,0.448552 0.185691,0.692121 0.185691,0.243569 0.542604,0.243569 0.282154,0 0.450964,-0.113344 0.171222,-0.113344 0.231511,-0.286977 l 0.381028,0.10852 q -0.233922,0.617363 -1.063503,0.617363 -0.578777,0 -0.882636,-0.344855 Q 19.5966,79.49508 19.5966,78.815017 q 0,-0.646301 0.301446,-0.991156 0.303859,-0.344855 0.865755,-0.344855 1.15032,0 1.15032,1.386654 v 0.05788 z m 1.413181,-0.332797 q -0.03617,-0.412379 -0.209806,-0.600482 -0.173634,-0.190514 -0.499196,-0.190514 -0.315916,0 -0.501607,0.212218 -0.183279,0.209807 -0.197749,0.578778 z m 2.657553,1.545818 V 78.48222 q 0,-0.258038 -0.05064,-0.400321 -0.05064,-0.142283 -0.161575,-0.204984 -0.110933,-0.0627 -0.325562,-0.0627 -0.313505,0 -0.494373,0.21463 -0.180868,0.21463 -0.180868,0.595659 v 1.512056 h -0.434083 v -2.052248 q 0,-0.455788 -0.01447,-0.557074 h 0.409967 q 0.0024,0.01206 0.0048,0.06511 0.0024,0.05305 0.0048,0.12299 0.0048,0.06752 0.0096,0.258038 h 0.0072 q 0.149518,-0.270096 0.344855,-0.381028 0.197749,-0.113344 0.489549,-0.113344 0.42926,0 0.627009,0.21463 0.200161,0.212218 0.200161,0.704179 v 1.738744 z m 2.737135,-0.419614 q -0.120579,0.250803 -0.320739,0.359324 -0.197749,0.108521 -0.491961,0.108521 -0.494372,0 -0.728295,-0.332797 -0.231511,-0.332797 -0.231511,-1.008037 0,-1.36495 0.959806,-1.36495 0.296623,0 0.494372,0.108521 0.197749,0.10852 0.318328,0.344854 h 0.0048 l -0.0048,-0.2918 v -1.082796 h 0.434083 v 3.040993 q 0,0.407556 0.01447,0.537781 h -0.41479 q -0.0072,-0.03859 -0.01688,-0.178457 -0.0072,-0.139871 -0.0072,-0.241157 z m -1.316719,-0.887459 q 0,0.547427 0.144695,0.783761 0.144694,0.236334 0.470256,0.236334 0.368971,0 0.535369,-0.255626 0.166399,-0.255627 0.166399,-0.793408 0,-0.518488 -0.166399,-0.759645 -0.166398,-0.241157 -0.530546,-0.241157 -0.327974,0 -0.475079,0.243569 -0.144695,0.241157 -0.144695,0.786172 z"
       id="text43"
       aria-label="end" />
  </g>
</svg>
