<?xml version="1.0" encoding="UTF-8" standalone="no"?>
<!DOCTYPE svg PUBLIC "-//W3C//DTD SVG 1.1//EN"
 "http://www.w3.org/Graphics/SVG/1.1/DTD/svg11.dtd">
<!-- Generated by graphviz version 7.1.0 (20230122.1345)
 -->
<!-- Pages: 1 -->
<svg width="948pt" height="620pt"
 viewBox="0.00 0.00 948.34 620.00" xmlns="http://www.w3.org/2000/svg" xmlns:xlink="http://www.w3.org/1999/xlink">
<g id="graph0" class="graph" transform="scale(1 1) rotate(0) translate(4 616)">
<polygon fill="white" stroke="none" points="-4,4 -4,-616 944.34,-616 944.34,4 -4,4"/>
<!-- Choppers -->
<g id="node1" class="node">
<title>Choppers</title>
<polygon fill="none" stroke="red" stroke-dasharray="5,2" points="540,-612 455,-612 455,-576 540,-576 540,-612"/>
<text text-anchor="middle" x="497.5" y="-590.3" font-family="Times,serif" font-size="14.00" fill="red">Choppers</text>
</g>
<!-- frame_at_detector_FrameAtDetector -->
<g id="node7" class="node">
<title>frame_at_detector_FrameAtDetector</title>
<ellipse fill="none" stroke="black" cx="346.5" cy="-522" rx="94.78" ry="18"/>
<text text-anchor="middle" x="346.5" y="-518.3" font-family="Times,serif" font-size="14.00">frame_at_detector</text>
</g>
<!-- Choppers&#45;&gt;frame_at_detector_FrameAtDetector -->
<g id="edge7" class="edge">
<title>Choppers&#45;&gt;frame_at_detector_FrameAtDetector</title>
<path fill="none" stroke="black" d="M459.79,-575.52C439.14,-565.95 413.42,-554.02 391.7,-543.96"/>
<polygon fill="black" stroke="black" points="393.32,-540.85 382.78,-539.82 390.38,-547.2 393.32,-540.85"/>
</g>
<!-- offset_from_wrapped_DeltaFromWrapped -->
<g id="node2" class="node">
<title>offset_from_wrapped_DeltaFromWrapped</title>
<ellipse fill="none" stroke="black" cx="697.5" cy="-234" rx="107.78" ry="18"/>
<text text-anchor="middle" x="697.5" y="-230.3" font-family="Times,serif" font-size="14.00">offset_from_wrapped</text>
</g>
<!-- DeltaFromWrapped -->
<g id="node6" class="node">
<title>DeltaFromWrapped</title>
<polygon fill="none" stroke="black" points="895,-180 738,-180 738,-144 895,-144 895,-180"/>
<text text-anchor="middle" x="816.5" y="-158.3" font-family="Times,serif" font-size="14.00">DeltaFromWrapped</text>
</g>
<!-- offset_from_wrapped_DeltaFromWrapped&#45;&gt;DeltaFromWrapped -->
<g id="edge4" class="edge">
<title>offset_from_wrapped_DeltaFromWrapped&#45;&gt;DeltaFromWrapped</title>
<path fill="none" stroke="black" d="M726,-216.23C741.41,-207.17 760.66,-195.85 777.44,-185.98"/>
<polygon fill="black" stroke="black" points="778.84,-189.22 785.68,-181.13 775.29,-183.18 778.84,-189.22"/>
</g>
<!-- FrameWrappedTimeOffset -->
<g id="node3" class="node">
<title>FrameWrappedTimeOffset</title>
<polygon fill="none" stroke="black" points="694,-324 489,-324 489,-288 694,-288 694,-324"/>
<text text-anchor="middle" x="591.5" y="-302.3" font-family="Times,serif" font-size="14.00">FrameWrappedTimeOffset</text>
</g>
<!-- FrameWrappedTimeOffset&#45;&gt;offset_from_wrapped_DeltaFromWrapped -->
<g id="edge1" class="edge">
<title>FrameWrappedTimeOffset&#45;&gt;offset_from_wrapped_DeltaFromWrapped</title>
<path fill="none" stroke="black" d="M617.97,-287.52C631.56,-278.55 648.27,-267.51 662.86,-257.87"/>
<polygon fill="black" stroke="black" points="664.41,-261.04 670.83,-252.61 660.56,-255.2 664.41,-261.04"/>
</g>
<!-- FrameBounds -->
<g id="node4" class="node">
<title>FrameBounds</title>
<polygon fill="none" stroke="black" points="444.5,-324 328.5,-324 328.5,-288 444.5,-288 444.5,-324"/>
<text text-anchor="middle" x="386.5" y="-302.3" font-family="Times,serif" font-size="14.00">FrameBounds</text>
</g>
<!-- FrameBounds&#45;&gt;offset_from_wrapped_DeltaFromWrapped -->
<g id="edge2" class="edge">
<title>FrameBounds&#45;&gt;offset_from_wrapped_DeltaFromWrapped</title>
<path fill="none" stroke="black" d="M445,-291.83C495.7,-280.42 569.31,-263.85 623.98,-251.55"/>
<polygon fill="black" stroke="black" points="624.53,-255.01 633.52,-249.4 623,-248.18 624.53,-255.01"/>
</g>
<!-- FramePeriod -->
<g id="node5" class="node">
<title>FramePeriod</title>
<polygon fill="none" stroke="black" points="835,-324 726,-324 726,-288 835,-288 835,-324"/>
<text text-anchor="middle" x="780.5" y="-302.3" font-family="Times,serif" font-size="14.00">FramePeriod</text>
</g>
<!-- FramePeriod&#45;&gt;offset_from_wrapped_DeltaFromWrapped -->
<g id="edge3" class="edge">
<title>FramePeriod&#45;&gt;offset_from_wrapped_DeltaFromWrapped</title>
<path fill="none" stroke="black" d="M759.98,-287.7C749.83,-279.14 737.41,-268.66 726.32,-259.3"/>
<polygon fill="black" stroke="black" points="728.84,-256.85 718.94,-253.08 724.33,-262.2 728.84,-256.85"/>
</g>
<!-- unwrap_data_UnwrappedData -->
<g id="node21" class="node">
<title>unwrap_data_UnwrappedData</title>
<ellipse fill="none" stroke="black" cx="869.5" cy="-90" rx="70.69" ry="18"/>
<text text-anchor="middle" x="869.5" y="-86.3" font-family="Times,serif" font-size="14.00">unwrap_data</text>
</g>
<!-- DeltaFromWrapped&#45;&gt;unwrap_data_UnwrappedData -->
<g id="edge21" class="edge">
<title>DeltaFromWrapped&#45;&gt;unwrap_data_UnwrappedData</title>
<path fill="none" stroke="black" d="M829.6,-143.7C835.63,-135.73 842.92,-126.1 849.61,-117.26"/>
<polygon fill="black" stroke="black" points="852.39,-119.4 855.64,-109.31 846.81,-115.17 852.39,-119.4"/>
</g>
<!-- FrameAtDetector -->
<g id="node11" class="node">
<title>FrameAtDetector</title>
<polygon fill="none" stroke="black" points="417,-468 276,-468 276,-432 417,-432 417,-468"/>
<text text-anchor="middle" x="346.5" y="-446.3" font-family="Times,serif" font-size="14.00">FrameAtDetector</text>
</g>
<!-- frame_at_detector_FrameAtDetector&#45;&gt;FrameAtDetector -->
<g id="edge9" class="edge">
<title>frame_at_detector_FrameAtDetector&#45;&gt;FrameAtDetector</title>
<path fill="none" stroke="black" d="M346.5,-503.7C346.5,-496.41 346.5,-487.73 346.5,-479.54"/>
<polygon fill="black" stroke="black" points="350,-479.62 346.5,-469.62 343,-479.62 350,-479.62"/>
</g>
<!-- SourceWavelengthRange -->
<g id="node8" class="node">
<title>SourceWavelengthRange</title>
<polygon fill="none" stroke="red" stroke-dasharray="5,2" points="195,-612 0,-612 0,-576 195,-576 195,-612"/>
<text text-anchor="middle" x="97.5" y="-590.3" font-family="Times,serif" font-size="14.00" fill="red">SourceWavelengthRange</text>
</g>
<!-- SourceWavelengthRange&#45;&gt;frame_at_detector_FrameAtDetector -->
<g id="edge5" class="edge">
<title>SourceWavelengthRange&#45;&gt;frame_at_detector_FrameAtDetector</title>
<path fill="none" stroke="black" d="M159.69,-575.52C197.71,-564.83 246.18,-551.2 284.22,-540.51"/>
<polygon fill="black" stroke="black" points="285.02,-543.92 293.7,-537.84 283.12,-537.18 285.02,-543.92"/>
</g>
<!-- SourceTimeRange -->
<g id="node9" class="node">
<title>SourceTimeRange</title>
<polygon fill="none" stroke="red" stroke-dasharray="5,2" points="359.5,-612 213.5,-612 213.5,-576 359.5,-576 359.5,-612"/>
<text text-anchor="middle" x="286.5" y="-590.3" font-family="Times,serif" font-size="14.00" fill="red">SourceTimeRange</text>
</g>
<!-- SourceTimeRange&#45;&gt;frame_at_detector_FrameAtDetector -->
<g id="edge6" class="edge">
<title>SourceTimeRange&#45;&gt;frame_at_detector_FrameAtDetector</title>
<path fill="none" stroke="black" d="M301.33,-575.7C308.31,-567.56 316.77,-557.69 324.47,-548.7"/>
<polygon fill="black" stroke="black" points="327,-551.12 330.85,-541.25 321.69,-546.57 327,-551.12"/>
</g>
<!-- Ltotal -->
<g id="node10" class="node">
<title>Ltotal</title>
<polygon fill="none" stroke="red" stroke-dasharray="5,2" points="437,-612 378,-612 378,-576 437,-576 437,-612"/>
<text text-anchor="middle" x="407.5" y="-590.3" font-family="Times,serif" font-size="14.00" fill="red">Ltotal</text>
</g>
<!-- Ltotal&#45;&gt;frame_at_detector_FrameAtDetector -->
<g id="edge8" class="edge">
<title>Ltotal&#45;&gt;frame_at_detector_FrameAtDetector</title>
<path fill="none" stroke="black" d="M392.42,-575.7C385.33,-567.56 376.73,-557.69 368.9,-548.7"/>
<polygon fill="black" stroke="black" points="371.61,-546.49 362.4,-541.25 366.33,-551.08 371.61,-546.49"/>
</g>
<!-- frame_bounds_FrameBounds -->
<g id="node12" class="node">
<title>frame_bounds_FrameBounds</title>
<ellipse fill="none" stroke="black" cx="346.5" cy="-378" rx="76.09" ry="18"/>
<text text-anchor="middle" x="346.5" y="-374.3" font-family="Times,serif" font-size="14.00">frame_bounds</text>
</g>
<!-- FrameAtDetector&#45;&gt;frame_bounds_FrameBounds -->
<g id="edge10" class="edge">
<title>FrameAtDetector&#45;&gt;frame_bounds_FrameBounds</title>
<path fill="none" stroke="black" d="M346.5,-431.7C346.5,-424.41 346.5,-415.73 346.5,-407.54"/>
<polygon fill="black" stroke="black" points="350,-407.62 346.5,-397.62 343,-407.62 350,-407.62"/>
</g>
<!-- frame_bounds_FrameBounds&#45;&gt;FrameBounds -->
<g id="edge11" class="edge">
<title>frame_bounds_FrameBounds&#45;&gt;FrameBounds</title>
<path fill="none" stroke="black" d="M356.39,-359.7C360.84,-351.9 366.21,-342.51 371.17,-333.83"/>
<polygon fill="black" stroke="black" points="374.05,-335.84 375.98,-325.42 367.97,-332.36 374.05,-335.84"/>
</g>
<!-- frame_period_FramePeriod -->
<g id="node13" class="node">
<title>frame_period_FramePeriod</title>
<ellipse fill="none" stroke="black" cx="807.5" cy="-378" rx="72.29" ry="18"/>
<text text-anchor="middle" x="807.5" y="-374.3" font-family="Times,serif" font-size="14.00">frame_period</text>
</g>
<!-- frame_period_FramePeriod&#45;&gt;FramePeriod -->
<g id="edge14" class="edge">
<title>frame_period_FramePeriod&#45;&gt;FramePeriod</title>
<path fill="none" stroke="black" d="M800.83,-359.7C797.92,-352.15 794.43,-343.12 791.18,-334.68"/>
<polygon fill="black" stroke="black" points="794.51,-333.59 787.64,-325.52 787.98,-336.11 794.51,-333.59"/>
</g>
<!-- PulsePeriod -->
<g id="node14" class="node">
<title>PulsePeriod</title>
<polygon fill="none" stroke="red" stroke-dasharray="5,2" points="791,-468 690,-468 690,-432 791,-432 791,-468"/>
<text text-anchor="middle" x="740.5" y="-446.3" font-family="Times,serif" font-size="14.00" fill="red">PulsePeriod</text>
</g>
<!-- PulsePeriod&#45;&gt;frame_period_FramePeriod -->
<g id="edge12" class="edge">
<title>PulsePeriod&#45;&gt;frame_period_FramePeriod</title>
<path fill="none" stroke="black" d="M757.06,-431.7C765.13,-423.27 774.98,-412.97 783.83,-403.73"/>
<polygon fill="black" stroke="black" points="786.16,-406.36 790.54,-396.72 781.1,-401.52 786.16,-406.36"/>
</g>
<!-- PulseStride -->
<g id="node15" class="node">
<title>PulseStride</title>
<polygon fill="none" stroke="black" points="909.5,-468 809.5,-468 809.5,-432 909.5,-432 909.5,-468"/>
<text text-anchor="middle" x="859.5" y="-446.3" font-family="Times,serif" font-size="14.00">PulseStride</text>
</g>
<!-- PulseStride&#45;&gt;frame_period_FramePeriod -->
<g id="edge13" class="edge">
<title>PulseStride&#45;&gt;frame_period_FramePeriod</title>
<path fill="none" stroke="black" d="M846.65,-431.7C840.73,-423.73 833.57,-414.1 827.01,-405.26"/>
<polygon fill="black" stroke="black" points="829.88,-403.26 821.11,-397.32 824.26,-407.43 829.88,-403.26"/>
</g>
<!-- frame_wrapped_time_offset_FrameWrappedTimeOffset -->
<g id="node16" class="node">
<title>frame_wrapped_time_offset_FrameWrappedTimeOffset</title>
<ellipse fill="none" stroke="black" cx="578.5" cy="-378" rx="138.38" ry="18"/>
<text text-anchor="middle" x="578.5" y="-374.3" font-family="Times,serif" font-size="14.00">frame_wrapped_time_offset</text>
</g>
<!-- frame_wrapped_time_offset_FrameWrappedTimeOffset&#45;&gt;FrameWrappedTimeOffset -->
<g id="edge16" class="edge">
<title>frame_wrapped_time_offset_FrameWrappedTimeOffset&#45;&gt;FrameWrappedTimeOffset</title>
<path fill="none" stroke="black" d="M581.71,-359.7C583.08,-352.32 584.72,-343.52 586.25,-335.25"/>
<polygon fill="black" stroke="black" points="589.66,-336.06 588.05,-325.59 582.78,-334.79 589.66,-336.06"/>
</g>
<!-- PulseWrappedTimeOffset -->
<g id="node17" class="node">
<title>PulseWrappedTimeOffset</title>
<polygon fill="none" stroke="black" points="672,-468 475,-468 475,-432 672,-432 672,-468"/>
<text text-anchor="middle" x="573.5" y="-446.3" font-family="Times,serif" font-size="14.00">PulseWrappedTimeOffset</text>
</g>
<!-- PulseWrappedTimeOffset&#45;&gt;frame_wrapped_time_offset_FrameWrappedTimeOffset -->
<g id="edge15" class="edge">
<title>PulseWrappedTimeOffset&#45;&gt;frame_wrapped_time_offset_FrameWrappedTimeOffset</title>
<path fill="none" stroke="black" d="M574.74,-431.7C575.26,-424.41 575.88,-415.73 576.46,-407.54"/>
<polygon fill="black" stroke="black" points="579.95,-407.84 577.17,-397.61 572.97,-407.34 579.95,-407.84"/>
</g>
<!-- provide_none_PulseStride -->
<g id="node18" class="node">
<title>provide_none_PulseStride</title>
<ellipse fill="none" stroke="black" cx="836.5" cy="-522" rx="72.59" ry="18"/>
<text text-anchor="middle" x="836.5" y="-518.3" font-family="Times,serif" font-size="14.00">provide_none</text>
</g>
<!-- provide_none_PulseStride&#45;&gt;PulseStride -->
<g id="edge17" class="edge">
<title>provide_none_PulseStride&#45;&gt;PulseStride</title>
<path fill="none" stroke="black" d="M842.19,-503.7C844.64,-496.24 847.57,-487.32 850.31,-478.97"/>
<polygon fill="black" stroke="black" points="853.61,-480.14 853.41,-469.54 846.96,-477.95 853.61,-480.14"/>
</g>
<!-- pulse_wrapped_time_offset_PulseWrappedTimeOffset -->
<g id="node19" class="node">
<title>pulse_wrapped_time_offset_PulseWrappedTimeOffset</title>
<ellipse fill="none" stroke="black" cx="604.5" cy="-522" rx="135.68" ry="18"/>
<text text-anchor="middle" x="604.5" y="-518.3" font-family="Times,serif" font-size="14.00">pulse_wrapped_time_offset</text>
</g>
<!-- pulse_wrapped_time_offset_PulseWrappedTimeOffset&#45;&gt;PulseWrappedTimeOffset -->
<g id="edge19" class="edge">
<title>pulse_wrapped_time_offset_PulseWrappedTimeOffset&#45;&gt;PulseWrappedTimeOffset</title>
<path fill="none" stroke="black" d="M596.84,-503.7C593.46,-496.07 589.41,-486.92 585.63,-478.4"/>
<polygon fill="black" stroke="black" points="588.94,-477.21 581.69,-469.49 582.54,-480.05 588.94,-477.21"/>
</g>
<!-- RawData -->
<g id="node20" class="node">
<title>RawData</title>
<polygon fill="none" stroke="red" stroke-dasharray="5,2" points="771,-612 690,-612 690,-576 771,-576 771,-612"/>
<text text-anchor="middle" x="730.5" y="-590.3" font-family="Times,serif" font-size="14.00" fill="red">RawData</text>
</g>
<!-- RawData&#45;&gt;pulse_wrapped_time_offset_PulseWrappedTimeOffset -->
<g id="edge18" class="edge">
<title>RawData&#45;&gt;pulse_wrapped_time_offset_PulseWrappedTimeOffset</title>
<path fill="none" stroke="black" d="M699.03,-575.52C682.7,-566.44 662.56,-555.26 645.08,-545.54"/>
<polygon fill="black" stroke="black" points="646.9,-542.55 636.46,-540.75 643.5,-548.67 646.9,-542.55"/>
</g>
<!-- RawData&#45;&gt;unwrap_data_UnwrappedData -->
<g id="edge20" class="edge">
<title>RawData&#45;&gt;unwrap_data_UnwrappedData</title>
<path fill="none" stroke="black" d="M771.15,-593.1C814.01,-590.91 880.46,-580.57 918.5,-540 946.16,-510.49 937.5,-491.45 937.5,-451 937.5,-451 937.5,-451 937.5,-233 937.5,-188.99 910.6,-144.17 890.64,-116.96"/>
<polygon fill="black" stroke="black" points="893.67,-115.17 884.84,-109.31 888.09,-119.39 893.67,-115.17"/>
</g>
<!-- UnwrappedData -->
<g id="node22" class="node">
<title>UnwrappedData</title>
<polygon fill="none" stroke="black" points="936.5,-36 802.5,-36 802.5,0 936.5,0 936.5,-36"/>
<text text-anchor="middle" x="869.5" y="-14.3" font-family="Times,serif" font-size="14.00">UnwrappedData</text>
</g>
<!-- unwrap_data_UnwrappedData&#45;&gt;UnwrappedData -->
<g id="edge22" class="edge">
<title>unwrap_data_UnwrappedData&#45;&gt;UnwrappedData</title>
<path fill="none" stroke="black" d="M869.5,-71.7C869.5,-64.41 869.5,-55.73 869.5,-47.54"/>
<polygon fill="black" stroke="black" points="873,-47.62 869.5,-37.62 866,-47.62 873,-47.62"/>
</g>
</g>
</svg>
