<?xml version="1.0" encoding="UTF-8" standalone="no"?>
<!DOCTYPE svg PUBLIC "-//W3C//DTD SVG 1.1//EN"
 "http://www.w3.org/Graphics/SVG/1.1/DTD/svg11.dtd">
<!-- Generated by graphviz version 7.1.0 (20230122.1345)
 -->
<!-- Pages: 1 -->
<svg width="394pt" height="188pt"
 viewBox="0.00 0.00 393.50 188.00" xmlns="http://www.w3.org/2000/svg" xmlns:xlink="http://www.w3.org/1999/xlink">
<g id="graph0" class="graph" transform="scale(1 1) rotate(0) translate(4 184)">
<polygon fill="white" stroke="none" points="-4,4 -4,-184 389.5,-184 389.5,4 -4,4"/>
<!-- Ltotal -->
<g id="node1" class="node">
<title>Ltotal</title>
<polygon fill="none" stroke="red" stroke-dasharray="5,2" points="59,-180 0,-180 0,-144 59,-144 59,-180"/>
<text text-anchor="middle" x="29.5" y="-158.3" font-family="Times,serif" font-size="14.00" fill="red">Ltotal</text>
</g>
<!-- to_time_of_flight_TofData -->
<g id="node3" class="node">
<title>to_time_of_flight_TofData</title>
<ellipse fill="none" stroke="black" cx="155.5" cy="-90" rx="87.18" ry="18"/>
<text text-anchor="middle" x="155.5" y="-86.3" font-family="Times,serif" font-size="14.00">to_time_of_flight</text>
</g>
<!-- Ltotal&#45;&gt;to_time_of_flight_TofData -->
<g id="edge3" class="edge">
<title>Ltotal&#45;&gt;to_time_of_flight_TofData</title>
<path fill="none" stroke="black" d="M59.36,-144.41C76.43,-134.93 98.04,-122.92 116.44,-112.7"/>
<polygon fill="black" stroke="black" points="117.92,-115.88 124.97,-107.96 114.52,-109.76 117.92,-115.88"/>
</g>
<!-- TimeOfFlightOrigin -->
<g id="node2" class="node">
<title>TimeOfFlightOrigin</title>
<polygon fill="none" stroke="red" stroke-dasharray="5,2" points="233.5,-180 77.5,-180 77.5,-144 233.5,-144 233.5,-180"/>
<text text-anchor="middle" x="155.5" y="-158.3" font-family="Times,serif" font-size="14.00" fill="red">TimeOfFlightOrigin</text>
</g>
<!-- TimeOfFlightOrigin&#45;&gt;to_time_of_flight_TofData -->
<g id="edge2" class="edge">
<title>TimeOfFlightOrigin&#45;&gt;to_time_of_flight_TofData</title>
<path fill="none" stroke="black" d="M155.5,-143.7C155.5,-136.41 155.5,-127.73 155.5,-119.54"/>
<polygon fill="black" stroke="black" points="159,-119.62 155.5,-109.62 152,-119.62 159,-119.62"/>
</g>
<!-- TofData -->
<g id="node5" class="node">
<title>TofData</title>
<polygon fill="none" stroke="black" points="191.5,-36 119.5,-36 119.5,0 191.5,0 191.5,-36"/>
<text text-anchor="middle" x="155.5" y="-14.3" font-family="Times,serif" font-size="14.00">TofData</text>
</g>
<!-- to_time_of_flight_TofData&#45;&gt;TofData -->
<g id="edge4" class="edge">
<title>to_time_of_flight_TofData&#45;&gt;TofData</title>
<path fill="none" stroke="black" d="M155.5,-71.7C155.5,-64.41 155.5,-55.73 155.5,-47.54"/>
<polygon fill="black" stroke="black" points="159,-47.62 155.5,-37.62 152,-47.62 159,-47.62"/>
</g>
<!-- UnwrappedData -->
<g id="node4" class="node">
<title>UnwrappedData</title>
<polygon fill="none" stroke="red" stroke-dasharray="5,2" points="385.5,-180 251.5,-180 251.5,-144 385.5,-144 385.5,-180"/>
<text text-anchor="middle" x="318.5" y="-158.3" font-family="Times,serif" font-size="14.00" fill="red">UnwrappedData</text>
</g>
<!-- UnwrappedData&#45;&gt;to_time_of_flight_TofData -->
<g id="edge1" class="edge">
<title>UnwrappedData&#45;&gt;to_time_of_flight_TofData</title>
<path fill="none" stroke="black" d="M277.79,-143.52C254.97,-133.72 226.41,-121.45 202.63,-111.24"/>
<polygon fill="black" stroke="black" points="204.04,-108.04 193.47,-107.31 201.28,-114.47 204.04,-108.04"/>
</g>
</g>
</svg>
