<?xml version="1.0" encoding="UTF-8" standalone="no"?>
<!DOCTYPE svg PUBLIC "-//W3C//DTD SVG 1.1//EN"
 "http://www.w3.org/Graphics/SVG/1.1/DTD/svg11.dtd">
<!-- Generated by graphviz version 7.1.0 (20230122.1345)
 -->
<!-- Pages: 1 -->
<svg width="1170pt" height="764pt"
 viewBox="0.00 0.00 1169.84 764.00" xmlns="http://www.w3.org/2000/svg" xmlns:xlink="http://www.w3.org/1999/xlink">
<g id="graph0" class="graph" transform="scale(1 1) rotate(0) translate(4 760)">
<polygon fill="white" stroke="none" points="-4,4 -4,-760 1165.84,-760 1165.84,4 -4,4"/>
<g id="clust10" class="cluster">
<title>cluster_PulseStride</title>
<polygon fill="#f0f0ff" stroke="#f0f0ff" points="466.84,-568 466.84,-620 582.84,-620 582.84,-568 466.84,-568"/>
</g>
<!-- Choppers -->
<g id="node1" class="node">
<title>Choppers</title>
<polygon fill="none" stroke="red" stroke-dasharray="5,2" points="678.34,-612 593.34,-612 593.34,-576 678.34,-576 678.34,-612"/>
<text text-anchor="middle" x="635.84" y="-590.3" font-family="Times,serif" font-size="14.00" fill="red">Choppers</text>
</g>
<!-- frame_at_detector_FrameAtDetector -->
<g id="node7" class="node">
<title>frame_at_detector_FrameAtDetector</title>
<ellipse fill="none" stroke="black" cx="793.84" cy="-522" rx="94.78" ry="18"/>
<text text-anchor="middle" x="793.84" y="-518.3" font-family="Times,serif" font-size="14.00">frame_at_detector</text>
</g>
<!-- Choppers&#45;&gt;frame_at_detector_FrameAtDetector -->
<g id="edge7" class="edge">
<title>Choppers&#45;&gt;frame_at_detector_FrameAtDetector</title>
<path fill="none" stroke="black" d="M671.54,-575.57C676.98,-572.99 682.54,-570.39 687.84,-568 706.33,-559.64 726.82,-550.83 744.82,-543.25"/>
<polygon fill="black" stroke="black" points="746.12,-546.5 753.98,-539.4 743.41,-540.04 746.12,-546.5"/>
</g>
<!-- offset_from_wrapped_DeltaFromWrapped -->
<g id="node2" class="node">
<title>offset_from_wrapped_DeltaFromWrapped</title>
<ellipse fill="none" stroke="black" cx="687.84" cy="-234" rx="107.78" ry="18"/>
<text text-anchor="middle" x="687.84" y="-230.3" font-family="Times,serif" font-size="14.00">offset_from_wrapped</text>
</g>
<!-- DeltaFromWrapped -->
<g id="node6" class="node">
<title>DeltaFromWrapped</title>
<polygon fill="none" stroke="black" points="1003.34,-180 846.34,-180 846.34,-144 1003.34,-144 1003.34,-180"/>
<text text-anchor="middle" x="924.84" y="-158.3" font-family="Times,serif" font-size="14.00">DeltaFromWrapped</text>
</g>
<!-- offset_from_wrapped_DeltaFromWrapped&#45;&gt;DeltaFromWrapped -->
<g id="edge4" class="edge">
<title>offset_from_wrapped_DeltaFromWrapped&#45;&gt;DeltaFromWrapped</title>
<path fill="none" stroke="black" d="M739.26,-217.81C773.21,-207.78 818.12,-194.52 855.25,-183.55"/>
<polygon fill="black" stroke="black" points="855.95,-187 864.55,-180.81 853.97,-180.28 855.95,-187"/>
</g>
<!-- FrameWrappedTimeOffset -->
<g id="node3" class="node">
<title>FrameWrappedTimeOffset</title>
<polygon fill="none" stroke="black" points="496.34,-324 291.34,-324 291.34,-288 496.34,-288 496.34,-324"/>
<text text-anchor="middle" x="393.84" y="-302.3" font-family="Times,serif" font-size="14.00">FrameWrappedTimeOffset</text>
</g>
<!-- FrameWrappedTimeOffset&#45;&gt;offset_from_wrapped_DeltaFromWrapped -->
<g id="edge1" class="edge">
<title>FrameWrappedTimeOffset&#45;&gt;offset_from_wrapped_DeltaFromWrapped</title>
<path fill="none" stroke="black" d="M467.27,-287.52C512.99,-276.63 571.51,-262.7 616.78,-251.92"/>
<polygon fill="black" stroke="black" points="617.3,-255.39 626.22,-249.67 615.68,-248.58 617.3,-255.39"/>
</g>
<!-- FrameBounds -->
<g id="node4" class="node">
<title>FrameBounds</title>
<polygon fill="none" stroke="black" points="812.84,-324 696.84,-324 696.84,-288 812.84,-288 812.84,-324"/>
<text text-anchor="middle" x="754.84" y="-302.3" font-family="Times,serif" font-size="14.00">FrameBounds</text>
</g>
<!-- FrameBounds&#45;&gt;offset_from_wrapped_DeltaFromWrapped -->
<g id="edge2" class="edge">
<title>FrameBounds&#45;&gt;offset_from_wrapped_DeltaFromWrapped</title>
<path fill="none" stroke="black" d="M738.28,-287.7C730.41,-279.47 720.84,-269.48 712.17,-260.42"/>
<polygon fill="black" stroke="black" points="714.7,-258 705.26,-253.2 709.64,-262.84 714.7,-258"/>
</g>
<!-- FramePeriod -->
<g id="node5" class="node">
<title>FramePeriod</title>
<polygon fill="none" stroke="black" points="629.34,-468 520.34,-468 520.34,-432 629.34,-432 629.34,-468"/>
<text text-anchor="middle" x="574.84" y="-446.3" font-family="Times,serif" font-size="14.00">FramePeriod</text>
</g>
<!-- FramePeriod&#45;&gt;offset_from_wrapped_DeltaFromWrapped -->
<g id="edge3" class="edge">
<title>FramePeriod&#45;&gt;offset_from_wrapped_DeltaFromWrapped</title>
<path fill="none" stroke="black" d="M583.89,-431.85C603.44,-394.83 649.72,-307.18 673.38,-262.39"/>
<polygon fill="black" stroke="black" points="676.46,-264.05 678.03,-253.57 670.27,-260.78 676.46,-264.05"/>
</g>
<!-- unwrap_data_UnwrappedData -->
<g id="node25" class="node">
<title>unwrap_data_UnwrappedData</title>
<ellipse fill="none" stroke="black" cx="977.84" cy="-90" rx="70.69" ry="18"/>
<text text-anchor="middle" x="977.84" y="-86.3" font-family="Times,serif" font-size="14.00">unwrap_data</text>
</g>
<!-- DeltaFromWrapped&#45;&gt;unwrap_data_UnwrappedData -->
<g id="edge28" class="edge">
<title>DeltaFromWrapped&#45;&gt;unwrap_data_UnwrappedData</title>
<path fill="none" stroke="black" d="M937.94,-143.7C943.97,-135.73 951.26,-126.1 957.95,-117.26"/>
<polygon fill="black" stroke="black" points="960.73,-119.4 963.97,-109.31 955.15,-115.17 960.73,-119.4"/>
</g>
<!-- FrameAtDetector -->
<g id="node11" class="node">
<title>FrameAtDetector</title>
<polygon fill="none" stroke="black" points="844.34,-468 703.34,-468 703.34,-432 844.34,-432 844.34,-468"/>
<text text-anchor="middle" x="773.84" y="-446.3" font-family="Times,serif" font-size="14.00">FrameAtDetector</text>
</g>
<!-- frame_at_detector_FrameAtDetector&#45;&gt;FrameAtDetector -->
<g id="edge9" class="edge">
<title>frame_at_detector_FrameAtDetector&#45;&gt;FrameAtDetector</title>
<path fill="none" stroke="black" d="M788.89,-503.7C786.76,-496.24 784.22,-487.32 781.83,-478.97"/>
<polygon fill="black" stroke="black" points="785.25,-478.21 779.14,-469.56 778.52,-480.14 785.25,-478.21"/>
</g>
<!-- SourceWavelengthRange -->
<g id="node8" class="node">
<title>SourceWavelengthRange</title>
<polygon fill="none" stroke="red" stroke-dasharray="5,2" points="891.34,-612 696.34,-612 696.34,-576 891.34,-576 891.34,-612"/>
<text text-anchor="middle" x="793.84" y="-590.3" font-family="Times,serif" font-size="14.00" fill="red">SourceWavelengthRange</text>
</g>
<!-- SourceWavelengthRange&#45;&gt;frame_at_detector_FrameAtDetector -->
<g id="edge5" class="edge">
<title>SourceWavelengthRange&#45;&gt;frame_at_detector_FrameAtDetector</title>
<path fill="none" stroke="black" d="M793.84,-575.7C793.84,-568.41 793.84,-559.73 793.84,-551.54"/>
<polygon fill="black" stroke="black" points="797.34,-551.62 793.84,-541.62 790.34,-551.62 797.34,-551.62"/>
</g>
<!-- SourceTimeRange -->
<g id="node9" class="node">
<title>SourceTimeRange</title>
<polygon fill="none" stroke="red" stroke-dasharray="5,2" points="1055.84,-612 909.84,-612 909.84,-576 1055.84,-576 1055.84,-612"/>
<text text-anchor="middle" x="982.84" y="-590.3" font-family="Times,serif" font-size="14.00" fill="red">SourceTimeRange</text>
</g>
<!-- SourceTimeRange&#45;&gt;frame_at_detector_FrameAtDetector -->
<g id="edge6" class="edge">
<title>SourceTimeRange&#45;&gt;frame_at_detector_FrameAtDetector</title>
<path fill="none" stroke="black" d="M935.63,-575.52C908.61,-565.51 874.63,-552.92 846.71,-542.58"/>
<polygon fill="black" stroke="black" points="847.95,-539.31 837.36,-539.12 845.52,-545.87 847.95,-539.31"/>
</g>
<!-- Ltotal -->
<g id="node10" class="node">
<title>Ltotal</title>
<polygon fill="none" stroke="red" stroke-dasharray="5,2" points="1133.34,-612 1074.34,-612 1074.34,-576 1133.34,-576 1133.34,-612"/>
<text text-anchor="middle" x="1103.84" y="-590.3" font-family="Times,serif" font-size="14.00" fill="red">Ltotal</text>
</g>
<!-- Ltotal&#45;&gt;frame_at_detector_FrameAtDetector -->
<g id="edge8" class="edge">
<title>Ltotal&#45;&gt;frame_at_detector_FrameAtDetector</title>
<path fill="none" stroke="black" d="M1079.89,-575.53C1075.09,-572.65 1069.94,-569.96 1064.84,-568 1010.41,-547.06 946.15,-535.86 893.87,-529.87"/>
<polygon fill="black" stroke="black" points="894.38,-526.4 884.06,-528.79 893.62,-533.36 894.38,-526.4"/>
</g>
<!-- frame_bounds_FrameBounds -->
<g id="node12" class="node">
<title>frame_bounds_FrameBounds</title>
<ellipse fill="none" stroke="black" cx="763.84" cy="-378" rx="76.09" ry="18"/>
<text text-anchor="middle" x="763.84" y="-374.3" font-family="Times,serif" font-size="14.00">frame_bounds</text>
</g>
<!-- FrameAtDetector&#45;&gt;frame_bounds_FrameBounds -->
<g id="edge10" class="edge">
<title>FrameAtDetector&#45;&gt;frame_bounds_FrameBounds</title>
<path fill="none" stroke="black" d="M771.37,-431.7C770.31,-424.32 769.06,-415.52 767.87,-407.25"/>
<polygon fill="black" stroke="black" points="771.37,-407.01 766.5,-397.6 764.44,-408 771.37,-407.01"/>
</g>
<!-- frame_bounds_FrameBounds&#45;&gt;FrameBounds -->
<g id="edge11" class="edge">
<title>frame_bounds_FrameBounds&#45;&gt;FrameBounds</title>
<path fill="none" stroke="black" d="M761.61,-359.7C760.67,-352.32 759.53,-343.52 758.47,-335.25"/>
<polygon fill="black" stroke="black" points="761.98,-335.08 757.23,-325.61 755.03,-335.97 761.98,-335.08"/>
</g>
<!-- frame_period_FramePeriod -->
<g id="node13" class="node">
<title>frame_period_FramePeriod</title>
<ellipse fill="none" stroke="black" cx="529.84" cy="-522" rx="72.29" ry="18"/>
<text text-anchor="middle" x="529.84" y="-518.3" font-family="Times,serif" font-size="14.00">frame_period</text>
</g>
<!-- frame_period_FramePeriod&#45;&gt;FramePeriod -->
<g id="edge14" class="edge">
<title>frame_period_FramePeriod&#45;&gt;FramePeriod</title>
<path fill="none" stroke="black" d="M540.73,-504.05C545.8,-496.18 551.94,-486.62 557.61,-477.79"/>
<polygon fill="black" stroke="black" points="560.45,-479.85 562.91,-469.55 554.56,-476.07 560.45,-479.85"/>
</g>
<!-- PulsePeriod -->
<g id="node14" class="node">
<title>PulsePeriod</title>
<polygon fill="none" stroke="red" stroke-dasharray="5,2" points="456.34,-612 355.34,-612 355.34,-576 456.34,-576 456.34,-612"/>
<text text-anchor="middle" x="405.84" y="-590.3" font-family="Times,serif" font-size="14.00" fill="red">PulsePeriod</text>
</g>
<!-- PulsePeriod&#45;&gt;frame_period_FramePeriod -->
<g id="edge12" class="edge">
<title>PulsePeriod&#45;&gt;frame_period_FramePeriod</title>
<path fill="none" stroke="black" d="M436.81,-575.52C453.48,-566.11 474.18,-554.42 491.82,-544.46"/>
<polygon fill="black" stroke="black" points="493.5,-547.54 500.48,-539.57 490.05,-541.44 493.5,-547.54"/>
</g>
<!-- pulse_offset_PulseOffset -->
<g id="node19" class="node">
<title>pulse_offset_PulseOffset</title>
<ellipse fill="none" stroke="black" cx="373.84" cy="-522" rx="65.79" ry="18"/>
<text text-anchor="middle" x="373.84" y="-518.3" font-family="Times,serif" font-size="14.00">pulse_offset</text>
</g>
<!-- PulsePeriod&#45;&gt;pulse_offset_PulseOffset -->
<g id="edge18" class="edge">
<title>PulsePeriod&#45;&gt;pulse_offset_PulseOffset</title>
<path fill="none" stroke="black" d="M397.93,-575.7C394.44,-568.07 390.26,-558.92 386.36,-550.4"/>
<polygon fill="black" stroke="black" points="389.63,-549.12 382.29,-541.48 383.26,-552.03 389.63,-549.12"/>
</g>
<!-- PulseStride -->
<g id="node15" class="node">
<title>PulseStride</title>
<polygon fill="none" stroke="red" stroke-dasharray="5,2" points="574.84,-612 474.84,-612 474.84,-576 574.84,-576 574.84,-612"/>
<text text-anchor="middle" x="524.84" y="-590.3" font-family="Times,serif" font-size="14.00" fill="red">PulseStride</text>
</g>
<!-- PulseStride&#45;&gt;frame_period_FramePeriod -->
<g id="edge13" class="edge">
<title>PulseStride&#45;&gt;frame_period_FramePeriod</title>
<path fill="none" stroke="black" d="M526.07,-575.7C526.59,-568.41 527.21,-559.73 527.8,-551.54"/>
<polygon fill="black" stroke="black" points="531.29,-551.84 528.51,-541.61 524.3,-551.34 531.29,-551.84"/>
</g>
<!-- PulseStride&#45;&gt;pulse_offset_PulseOffset -->
<g id="edge19" class="edge">
<title>PulseStride&#45;&gt;pulse_offset_PulseOffset</title>
<path fill="none" stroke="black" d="M487.12,-575.52C465.56,-565.52 438.45,-552.95 416.15,-542.62"/>
<polygon fill="black" stroke="black" points="417.88,-539.56 407.34,-538.53 414.94,-545.91 417.88,-539.56"/>
</g>
<!-- frame_wrapped_time_offset_pulse_skipping_FrameWrappedTimeOffset -->
<g id="node16" class="node">
<title>frame_wrapped_time_offset_pulse_skipping_FrameWrappedTimeOffset</title>
<ellipse fill="none" stroke="black" cx="373.84" cy="-378" rx="211.76" ry="18"/>
<text text-anchor="middle" x="373.84" y="-374.3" font-family="Times,serif" font-size="14.00">frame_wrapped_time_offset_pulse_skipping</text>
</g>
<!-- frame_wrapped_time_offset_pulse_skipping_FrameWrappedTimeOffset&#45;&gt;FrameWrappedTimeOffset -->
<g id="edge17" class="edge">
<title>frame_wrapped_time_offset_pulse_skipping_FrameWrappedTimeOffset&#45;&gt;FrameWrappedTimeOffset</title>
<path fill="none" stroke="black" d="M378.78,-359.7C380.91,-352.24 383.46,-343.32 385.85,-334.97"/>
<polygon fill="black" stroke="black" points="389.15,-336.14 388.54,-325.56 382.42,-334.21 389.15,-336.14"/>
</g>
<!-- PulseWrappedTimeOffset -->
<g id="node17" class="node">
<title>PulseWrappedTimeOffset</title>
<polygon fill="none" stroke="black" points="234.34,-612 37.34,-612 37.34,-576 234.34,-576 234.34,-612"/>
<text text-anchor="middle" x="135.84" y="-590.3" font-family="Times,serif" font-size="14.00">PulseWrappedTimeOffset</text>
</g>
<!-- PulseWrappedTimeOffset&#45;&gt;frame_wrapped_time_offset_pulse_skipping_FrameWrappedTimeOffset -->
<g id="edge15" class="edge">
<title>PulseWrappedTimeOffset&#45;&gt;frame_wrapped_time_offset_pulse_skipping_FrameWrappedTimeOffset</title>
<path fill="none" stroke="black" d="M154.91,-575.85C196.86,-538.13 297.29,-447.83 346.17,-403.88"/>
<polygon fill="black" stroke="black" points="348.45,-406.53 353.55,-397.24 343.77,-401.33 348.45,-406.53"/>
</g>
<!-- PulseOffset -->
<g id="node18" class="node">
<title>PulseOffset</title>
<polygon fill="none" stroke="black" points="422.84,-468 324.84,-468 324.84,-432 422.84,-432 422.84,-468"/>
<text text-anchor="middle" x="373.84" y="-446.3" font-family="Times,serif" font-size="14.00">PulseOffset</text>
</g>
<!-- PulseOffset&#45;&gt;frame_wrapped_time_offset_pulse_skipping_FrameWrappedTimeOffset -->
<g id="edge16" class="edge">
<title>PulseOffset&#45;&gt;frame_wrapped_time_offset_pulse_skipping_FrameWrappedTimeOffset</title>
<path fill="none" stroke="black" d="M373.84,-431.7C373.84,-424.41 373.84,-415.73 373.84,-407.54"/>
<polygon fill="black" stroke="black" points="377.34,-407.62 373.84,-397.62 370.34,-407.62 377.34,-407.62"/>
</g>
<!-- pulse_offset_PulseOffset&#45;&gt;PulseOffset -->
<g id="edge21" class="edge">
<title>pulse_offset_PulseOffset&#45;&gt;PulseOffset</title>
<path fill="none" stroke="black" d="M373.84,-503.7C373.84,-496.41 373.84,-487.73 373.84,-479.54"/>
<polygon fill="black" stroke="black" points="377.34,-479.62 373.84,-469.62 370.34,-479.62 377.34,-479.62"/>
</g>
<!-- TimeZero -->
<g id="node20" class="node">
<title>TimeZero</title>
<polygon fill="none" stroke="black" points="337.34,-612 252.34,-612 252.34,-576 337.34,-576 337.34,-612"/>
<text text-anchor="middle" x="294.84" y="-590.3" font-family="Times,serif" font-size="14.00">TimeZero</text>
</g>
<!-- TimeZero&#45;&gt;pulse_offset_PulseOffset -->
<g id="edge20" class="edge">
<title>TimeZero&#45;&gt;pulse_offset_PulseOffset</title>
<path fill="none" stroke="black" d="M314.37,-575.7C324.08,-567.09 335.97,-556.55 346.56,-547.17"/>
<polygon fill="black" stroke="black" points="348.78,-549.88 353.95,-540.63 344.14,-544.64 348.78,-549.88"/>
</g>
<!-- provide_none_PulseStride -->
<g id="node21" class="node">
<title>provide_none_PulseStride</title>
<ellipse fill="none" stroke="black" cx="524.84" cy="-666" rx="72.59" ry="18"/>
<text text-anchor="middle" x="524.84" y="-662.3" font-family="Times,serif" font-size="14.00">provide_none</text>
</g>
<!-- provide_none_PulseStride&#45;&gt;PulseStride -->
<g id="edge22" class="edge">
<title>provide_none_PulseStride&#45;&gt;PulseStride</title>
<path fill="none" stroke="black" d="M524.84,-647.7C524.84,-640.41 524.84,-631.73 524.84,-623.54"/>
<polygon fill="black" stroke="black" points="528.34,-623.62 524.84,-613.62 521.34,-623.62 528.34,-623.62"/>
</g>
<!-- pulse_wrapped_time_offset_PulseWrappedTimeOffset -->
<g id="node22" class="node">
<title>pulse_wrapped_time_offset_PulseWrappedTimeOffset</title>
<ellipse fill="none" stroke="black" cx="135.84" cy="-666" rx="135.68" ry="18"/>
<text text-anchor="middle" x="135.84" y="-662.3" font-family="Times,serif" font-size="14.00">pulse_wrapped_time_offset</text>
</g>
<!-- pulse_wrapped_time_offset_PulseWrappedTimeOffset&#45;&gt;PulseWrappedTimeOffset -->
<g id="edge24" class="edge">
<title>pulse_wrapped_time_offset_PulseWrappedTimeOffset&#45;&gt;PulseWrappedTimeOffset</title>
<path fill="none" stroke="black" d="M135.84,-647.7C135.84,-640.41 135.84,-631.73 135.84,-623.54"/>
<polygon fill="black" stroke="black" points="139.34,-623.62 135.84,-613.62 132.34,-623.62 139.34,-623.62"/>
</g>
<!-- RawData -->
<g id="node23" class="node">
<title>RawData</title>
<polygon fill="none" stroke="red" stroke-dasharray="5,2" points="386.34,-756 305.34,-756 305.34,-720 386.34,-720 386.34,-756"/>
<text text-anchor="middle" x="345.84" y="-734.3" font-family="Times,serif" font-size="14.00" fill="red">RawData</text>
</g>
<!-- RawData&#45;&gt;pulse_wrapped_time_offset_PulseWrappedTimeOffset -->
<g id="edge23" class="edge">
<title>RawData&#45;&gt;pulse_wrapped_time_offset_PulseWrappedTimeOffset</title>
<path fill="none" stroke="black" d="M304.85,-723.34C273.59,-712.92 230.08,-698.42 195.04,-686.73"/>
<polygon fill="black" stroke="black" points="196.49,-683.53 185.9,-683.69 194.28,-690.17 196.49,-683.53"/>
</g>
<!-- time_zero_TimeZero -->
<g id="node24" class="node">
<title>time_zero_TimeZero</title>
<ellipse fill="none" stroke="black" cx="345.84" cy="-666" rx="55.79" ry="18"/>
<text text-anchor="middle" x="345.84" y="-662.3" font-family="Times,serif" font-size="14.00">time_zero</text>
</g>
<!-- RawData&#45;&gt;time_zero_TimeZero -->
<g id="edge25" class="edge">
<title>RawData&#45;&gt;time_zero_TimeZero</title>
<path fill="none" stroke="black" d="M345.84,-719.7C345.84,-712.41 345.84,-703.73 345.84,-695.54"/>
<polygon fill="black" stroke="black" points="349.34,-695.62 345.84,-685.62 342.34,-695.62 349.34,-695.62"/>
</g>
<!-- RawData&#45;&gt;unwrap_data_UnwrappedData -->
<g id="edge27" class="edge">
<title>RawData&#45;&gt;unwrap_data_UnwrappedData</title>
<path fill="none" stroke="black" d="M386.6,-735.05C530.36,-727.57 1012.17,-697.15 1142.84,-620 1154.86,-612.9 1161.84,-608.96 1161.84,-595 1161.84,-595 1161.84,-595 1161.84,-233 1161.84,-167.56 1087.98,-128.04 1033.86,-107.87"/>
<polygon fill="black" stroke="black" points="1035.34,-104.68 1024.75,-104.6 1032.98,-111.27 1035.34,-104.68"/>
</g>
<!-- time_zero_TimeZero&#45;&gt;TimeZero -->
<g id="edge26" class="edge">
<title>time_zero_TimeZero&#45;&gt;TimeZero</title>
<path fill="none" stroke="black" d="M333.49,-648.05C327.69,-640.09 320.64,-630.41 314.15,-621.51"/>
<polygon fill="black" stroke="black" points="317.03,-619.52 308.32,-613.5 311.38,-623.64 317.03,-619.52"/>
</g>
<!-- UnwrappedData -->
<g id="node26" class="node">
<title>UnwrappedData</title>
<polygon fill="none" stroke="black" points="1044.84,-36 910.84,-36 910.84,0 1044.84,0 1044.84,-36"/>
<text text-anchor="middle" x="977.84" y="-14.3" font-family="Times,serif" font-size="14.00">UnwrappedData</text>
</g>
<!-- unwrap_data_UnwrappedData&#45;&gt;UnwrappedData -->
<g id="edge29" class="edge">
<title>unwrap_data_UnwrappedData&#45;&gt;UnwrappedData</title>
<path fill="none" stroke="black" d="M977.84,-71.7C977.84,-64.41 977.84,-55.73 977.84,-47.54"/>
<polygon fill="black" stroke="black" points="981.34,-47.62 977.84,-37.62 974.34,-47.62 981.34,-47.62"/>
</g>
</g>
</svg>
