<?xml version="1.0" encoding="UTF-8" standalone="no"?>
<!DOCTYPE svg PUBLIC "-//W3C//DTD SVG 1.1//EN"
 "http://www.w3.org/Graphics/SVG/1.1/DTD/svg11.dtd">
<!-- Generated by graphviz version 7.1.0 (20230122.1345)
 -->
<!-- Pages: 1 -->
<svg width="735pt" height="548pt"
 viewBox="0.00 0.00 735.00 548.00" xmlns="http://www.w3.org/2000/svg" xmlns:xlink="http://www.w3.org/1999/xlink">
<g id="graph0" class="graph" transform="scale(1 1) rotate(0) translate(4 544)">
<polygon fill="white" stroke="none" points="-4,4 -4,-544 731,-544 731,4 -4,4"/>
<!-- Choppers -->
<g id="node1" class="node">
<title>Choppers</title>
<polygon fill="none" stroke="red" stroke-dasharray="5,2" points="437,-468 352,-468 352,-432 437,-432 437,-468"/>
<text text-anchor="middle" x="394.5" y="-446.3" font-family="Times,serif" font-size="14.00" fill="red">Choppers</text>
</g>
<!-- frame_at_detector_FrameAtDetector -->
<g id="node2" class="node">
<title>frame_at_detector_FrameAtDetector</title>
<ellipse fill="none" stroke="black" cx="456.5" cy="-378" rx="94.78" ry="18"/>
<text text-anchor="middle" x="456.5" y="-374.3" font-family="Times,serif" font-size="14.00">frame_at_detector</text>
</g>
<!-- Choppers&#45;&gt;frame_at_detector_FrameAtDetector -->
<g id="edge3" class="edge">
<title>Choppers&#45;&gt;frame_at_detector_FrameAtDetector</title>
<path fill="none" stroke="black" d="M409.83,-431.7C417.03,-423.56 425.78,-413.69 433.74,-404.7"/>
<polygon fill="black" stroke="black" points="436.34,-407.04 440.35,-397.24 431.1,-402.4 436.34,-407.04"/>
</g>
<!-- source_chopper_SourceChopper -->
<g id="node7" class="node">
<title>source_chopper_SourceChopper</title>
<ellipse fill="none" stroke="black" cx="260.5" cy="-378" rx="83.39" ry="18"/>
<text text-anchor="middle" x="260.5" y="-374.3" font-family="Times,serif" font-size="14.00">source_chopper</text>
</g>
<!-- Choppers&#45;&gt;source_chopper_SourceChopper -->
<g id="edge6" class="edge">
<title>Choppers&#45;&gt;source_chopper_SourceChopper</title>
<path fill="none" stroke="black" d="M361.03,-431.52C342.9,-422.04 320.34,-410.26 301.2,-400.26"/>
<polygon fill="black" stroke="black" points="303.08,-397.29 292.59,-395.76 299.83,-403.5 303.08,-397.29"/>
</g>
<!-- FrameAtDetector -->
<g id="node6" class="node">
<title>FrameAtDetector</title>
<polygon fill="none" stroke="black" points="516,-324 375,-324 375,-288 516,-288 516,-324"/>
<text text-anchor="middle" x="445.5" y="-302.3" font-family="Times,serif" font-size="14.00">FrameAtDetector</text>
</g>
<!-- frame_at_detector_FrameAtDetector&#45;&gt;FrameAtDetector -->
<g id="edge5" class="edge">
<title>frame_at_detector_FrameAtDetector&#45;&gt;FrameAtDetector</title>
<path fill="none" stroke="black" d="M453.78,-359.7C452.62,-352.32 451.24,-343.52 449.94,-335.25"/>
<polygon fill="black" stroke="black" points="453.43,-334.93 448.42,-325.6 446.52,-336.02 453.43,-334.93"/>
</g>
<!-- SourceWavelengthRange -->
<g id="node3" class="node">
<title>SourceWavelengthRange</title>
<polygon fill="none" stroke="red" stroke-dasharray="5,2" points="727,-468 532,-468 532,-432 727,-432 727,-468"/>
<text text-anchor="middle" x="629.5" y="-446.3" font-family="Times,serif" font-size="14.00" fill="red">SourceWavelengthRange</text>
</g>
<!-- SourceWavelengthRange&#45;&gt;frame_at_detector_FrameAtDetector -->
<g id="edge1" class="edge">
<title>SourceWavelengthRange&#45;&gt;frame_at_detector_FrameAtDetector</title>
<path fill="none" stroke="black" d="M586.29,-431.52C561.95,-421.67 531.44,-409.32 506.12,-399.08"/>
<polygon fill="black" stroke="black" points="507.6,-395.9 497.02,-395.4 504.98,-402.39 507.6,-395.9"/>
</g>
<!-- SourceTimeRange -->
<g id="node4" class="node">
<title>SourceTimeRange</title>
<polygon fill="none" stroke="red" stroke-dasharray="5,2" points="333.5,-468 187.5,-468 187.5,-432 333.5,-432 333.5,-468"/>
<text text-anchor="middle" x="260.5" y="-446.3" font-family="Times,serif" font-size="14.00" fill="red">SourceTimeRange</text>
</g>
<!-- SourceTimeRange&#45;&gt;frame_at_detector_FrameAtDetector -->
<g id="edge2" class="edge">
<title>SourceTimeRange&#45;&gt;frame_at_detector_FrameAtDetector</title>
<path fill="none" stroke="black" d="M309.45,-431.52C337.71,-421.43 373.29,-408.72 402.37,-398.33"/>
<polygon fill="black" stroke="black" points="403.5,-401.64 411.74,-394.98 401.15,-395.05 403.5,-401.64"/>
</g>
<!-- SourceTimeRange&#45;&gt;source_chopper_SourceChopper -->
<g id="edge7" class="edge">
<title>SourceTimeRange&#45;&gt;source_chopper_SourceChopper</title>
<path fill="none" stroke="black" d="M260.5,-431.7C260.5,-424.41 260.5,-415.73 260.5,-407.54"/>
<polygon fill="black" stroke="black" points="264,-407.62 260.5,-397.62 257,-407.62 264,-407.62"/>
</g>
<!-- Ltotal -->
<g id="node5" class="node">
<title>Ltotal</title>
<polygon fill="none" stroke="red" stroke-dasharray="5,2" points="514,-468 455,-468 455,-432 514,-432 514,-468"/>
<text text-anchor="middle" x="484.5" y="-446.3" font-family="Times,serif" font-size="14.00" fill="red">Ltotal</text>
</g>
<!-- Ltotal&#45;&gt;frame_at_detector_FrameAtDetector -->
<g id="edge4" class="edge">
<title>Ltotal&#45;&gt;frame_at_detector_FrameAtDetector</title>
<path fill="none" stroke="black" d="M477.58,-431.7C474.56,-424.15 470.95,-415.12 467.57,-406.68"/>
<polygon fill="black" stroke="black" points="470.87,-405.49 463.9,-397.51 464.37,-408.09 470.87,-405.49"/>
</g>
<!-- subframe_bounds_SubframeBounds -->
<g id="node11" class="node">
<title>subframe_bounds_SubframeBounds</title>
<ellipse fill="none" stroke="black" cx="426.5" cy="-234" rx="92.88" ry="18"/>
<text text-anchor="middle" x="426.5" y="-230.3" font-family="Times,serif" font-size="14.00">subframe_bounds</text>
</g>
<!-- FrameAtDetector&#45;&gt;subframe_bounds_SubframeBounds -->
<g id="edge11" class="edge">
<title>FrameAtDetector&#45;&gt;subframe_bounds_SubframeBounds</title>
<path fill="none" stroke="black" d="M440.8,-287.7C438.78,-280.24 436.36,-271.32 434.09,-262.97"/>
<polygon fill="black" stroke="black" points="437.54,-262.3 431.54,-253.57 430.78,-264.13 437.54,-262.3"/>
</g>
<!-- SourceChopper -->
<g id="node9" class="node">
<title>SourceChopper</title>
<polygon fill="none" stroke="black" points="346,-324 219,-324 219,-288 346,-288 346,-324"/>
<text text-anchor="middle" x="282.5" y="-302.3" font-family="Times,serif" font-size="14.00">SourceChopper</text>
</g>
<!-- source_chopper_SourceChopper&#45;&gt;SourceChopper -->
<g id="edge9" class="edge">
<title>source_chopper_SourceChopper&#45;&gt;SourceChopper</title>
<path fill="none" stroke="black" d="M265.94,-359.7C268.28,-352.24 271.08,-343.32 273.71,-334.97"/>
<polygon fill="black" stroke="black" points="277.01,-336.14 276.67,-325.55 270.33,-334.04 277.01,-336.14"/>
</g>
<!-- SourceChopperName -->
<g id="node8" class="node">
<title>SourceChopperName</title>
<polygon fill="none" stroke="black" points="169,-468 0,-468 0,-432 169,-432 169,-468"/>
<text text-anchor="middle" x="84.5" y="-446.3" font-family="Times,serif" font-size="14.00">SourceChopperName</text>
</g>
<!-- SourceChopperName&#45;&gt;source_chopper_SourceChopper -->
<g id="edge8" class="edge">
<title>SourceChopperName&#45;&gt;source_chopper_SourceChopper</title>
<path fill="none" stroke="black" d="M128.46,-431.52C153.69,-421.48 185.44,-408.85 211.48,-398.5"/>
<polygon fill="black" stroke="black" points="212.48,-401.87 220.48,-394.92 209.89,-395.36 212.48,-401.87"/>
</g>
<!-- time_of_flight_origin_wfm_from_chopper_TimeOfFlightOrigin -->
<g id="node13" class="node">
<title>time_of_flight_origin_wfm_from_chopper_TimeOfFlightOrigin</title>
<ellipse fill="none" stroke="black" cx="346.5" cy="-90" rx="198.47" ry="18"/>
<text text-anchor="middle" x="346.5" y="-86.3" font-family="Times,serif" font-size="14.00">time_of_flight_origin_wfm_from_chopper</text>
</g>
<!-- SourceChopper&#45;&gt;time_of_flight_origin_wfm_from_chopper_TimeOfFlightOrigin -->
<g id="edge13" class="edge">
<title>SourceChopper&#45;&gt;time_of_flight_origin_wfm_from_chopper_TimeOfFlightOrigin</title>
<path fill="none" stroke="black" d="M286.83,-287.96C294.43,-258.45 310.94,-195.99 327.5,-144 330.12,-135.77 333.2,-126.91 336.1,-118.83"/>
<polygon fill="black" stroke="black" points="339.36,-120.1 339.51,-109.5 332.79,-117.69 339.36,-120.1"/>
</g>
<!-- provide_none_SourceChopperName -->
<g id="node10" class="node">
<title>provide_none_SourceChopperName</title>
<ellipse fill="none" stroke="black" cx="84.5" cy="-522" rx="72.59" ry="18"/>
<text text-anchor="middle" x="84.5" y="-518.3" font-family="Times,serif" font-size="14.00">provide_none</text>
</g>
<!-- provide_none_SourceChopperName&#45;&gt;SourceChopperName -->
<g id="edge10" class="edge">
<title>provide_none_SourceChopperName&#45;&gt;SourceChopperName</title>
<path fill="none" stroke="black" d="M84.5,-503.7C84.5,-496.41 84.5,-487.73 84.5,-479.54"/>
<polygon fill="black" stroke="black" points="88,-479.62 84.5,-469.62 81,-479.62 88,-479.62"/>
</g>
<!-- SubframeBounds -->
<g id="node12" class="node">
<title>SubframeBounds</title>
<polygon fill="none" stroke="black" points="476.5,-180 336.5,-180 336.5,-144 476.5,-144 476.5,-180"/>
<text text-anchor="middle" x="406.5" y="-158.3" font-family="Times,serif" font-size="14.00">SubframeBounds</text>
</g>
<!-- subframe_bounds_SubframeBounds&#45;&gt;SubframeBounds -->
<g id="edge12" class="edge">
<title>subframe_bounds_SubframeBounds&#45;&gt;SubframeBounds</title>
<path fill="none" stroke="black" d="M421.56,-215.7C419.42,-208.24 416.88,-199.32 414.49,-190.97"/>
<polygon fill="black" stroke="black" points="417.92,-190.21 411.8,-181.56 411.18,-192.14 417.92,-190.21"/>
</g>
<!-- SubframeBounds&#45;&gt;time_of_flight_origin_wfm_from_chopper_TimeOfFlightOrigin -->
<g id="edge14" class="edge">
<title>SubframeBounds&#45;&gt;time_of_flight_origin_wfm_from_chopper_TimeOfFlightOrigin</title>
<path fill="none" stroke="black" d="M391.67,-143.7C384.69,-135.56 376.23,-125.69 368.53,-116.7"/>
<polygon fill="black" stroke="black" points="371.31,-114.57 362.15,-109.25 366,-119.12 371.31,-114.57"/>
</g>
<!-- TimeOfFlightOrigin -->
<g id="node14" class="node">
<title>TimeOfFlightOrigin</title>
<polygon fill="none" stroke="black" points="424.5,-36 268.5,-36 268.5,0 424.5,0 424.5,-36"/>
<text text-anchor="middle" x="346.5" y="-14.3" font-family="Times,serif" font-size="14.00">TimeOfFlightOrigin</text>
</g>
<!-- time_of_flight_origin_wfm_from_chopper_TimeOfFlightOrigin&#45;&gt;TimeOfFlightOrigin -->
<g id="edge15" class="edge">
<title>time_of_flight_origin_wfm_from_chopper_TimeOfFlightOrigin&#45;&gt;TimeOfFlightOrigin</title>
<path fill="none" stroke="black" d="M346.5,-71.7C346.5,-64.41 346.5,-55.73 346.5,-47.54"/>
<polygon fill="black" stroke="black" points="350,-47.62 346.5,-37.62 343,-47.62 350,-47.62"/>
</g>
</g>
</svg>
