<?xml version="1.0" encoding="UTF-8" standalone="no"?>
<!-- Created with Inkscape (http://www.inkscape.org/) -->

<svg
   width="836.41687"
   height="312.01157"
   viewBox="0 0 221.30196 82.55306"
   version="1.1"
   id="svg5"
   xml:space="preserve"
   xmlns="http://www.w3.org/2000/svg"
   xmlns:svg="http://www.w3.org/2000/svg"><defs
     id="defs2" /><rect
     style="fill:#14181e;fill-opacity:1;stroke-width:0.999992"
     id="rect2"
     width="221.30194"
     height="82.553055"
     x="0"
     y="0" /><g
     id="g1"
     transform="translate(-7.1382369,-155.8691)"><g
       id="path118"
       transform="translate(-693.79418,-194.87262)"
       style="fill:#767f86;fill-opacity:1"><path
         style="color:#000000;fill:#767f86;fill-opacity:1;stroke-dashoffset:8.50394;-inkscape-stroke:none"
         d="m 873.88477,352.41016 v 75.15625 h 0.5 v -75.15625 z"
         id="path156" /><g
         id="g155"
         style="fill:#767f86;fill-opacity:1"><path
           style="color:#000000;fill:#767f86;fill-opacity:1;-inkscape-stroke:none"
           d="m 874.13477,351.93164 -1.67774,1.67578 0.35352,0.35352 1.32226,-1.32422 1.32422,1.32422 0.35352,-0.35352 z"
           id="path155" /></g></g><g
       id="path120"
       transform="translate(-693.79418,-194.87262)"
       style="fill:#767f86;fill-opacity:1"><path
         style="color:#000000;fill:#767f86;fill-opacity:1;stroke-dashoffset:8.50394;-inkscape-stroke:none"
         d="m 846.59961,399.80664 v 0.5 h 75.15625 v -0.5 z"
         id="path158" /><g
         id="g157"
         style="fill:#767f86;fill-opacity:1"><path
           style="color:#000000;fill:#767f86;fill-opacity:1;-inkscape-stroke:none"
           d="m 920.55664,398.38086 -0.35352,0.35351 1.32422,1.32422 -1.32422,1.32227 0.35352,0.35351 1.67773,-1.67773 z"
           id="path157" /></g></g><path
       id="path121"
       style="fill:none;fill-opacity:1;stroke:#889096;stroke-width:0.499999;stroke-dasharray:none;stroke-dashoffset:8.50394;stroke-opacity:1"
       d="m 207.70841,223.60024 a 32.987728,32.987728 0 0 1 -27.36874,14.57192 32.987728,32.987728 0 0 1 -32.98773,-32.98773 32.987728,32.987728 0 0 1 32.98773,-32.98773 32.987728,32.987728 0 0 1 32.98773,32.98773 v 0 a 32.987728,32.987728 0 0 1 -2.83938,13.38906" /><path
       style="fill:none;fill-opacity:1;stroke:#8dd3c7;stroke-width:1;stroke-dasharray:none;stroke-dashoffset:8.50394;stroke-opacity:1"
       d="m 180.33965,205.18444 13.00647,-30.31538"
       id="path122" /><rect
       style="fill:#b9b9b9;fill-opacity:1;stroke-width:0.999995"
       id="rect122"
       width="3"
       height="3"
       x="178.83968"
       y="203.68442" /><circle
       style="fill:#b9b9b9;fill-opacity:1;stroke:none;stroke-width:0.4;stroke-dasharray:none;stroke-dashoffset:0;stroke-opacity:1"
       id="circle121"
       cx="193.34615"
       cy="174.86905"
       r="1.3" /><text
       xml:space="preserve"
       style="font-style:normal;font-variant:normal;font-weight:normal;font-stretch:normal;font-size:4.23333px;line-height:9.8652px;font-family:Arial;-inkscape-font-specification:'Arial, Normal';font-variant-ligatures:normal;font-variant-caps:normal;font-variant-numeric:normal;font-variant-east-asian:normal;fill:#767f86;fill-opacity:1;stroke:none;stroke-width:0.4;stroke-dasharray:none;stroke-dashoffset:0;stroke-opacity:1"
       x="225.98286"
       y="210.59531"
       id="text122"><tspan
         id="tspan122"
         style="font-style:normal;font-variant:normal;font-weight:normal;font-stretch:normal;font-size:4.23333px;font-family:Arial;-inkscape-font-specification:'Arial, Normal';font-variant-ligatures:normal;font-variant-caps:normal;font-variant-numeric:normal;font-variant-east-asian:normal;fill:#767f86;fill-opacity:1;stroke:none;stroke-width:0.4"
         x="225.98286"
         y="210.59531">x</tspan></text><text
       xml:space="preserve"
       style="font-style:normal;font-variant:normal;font-weight:normal;font-stretch:normal;font-size:4.23333px;line-height:9.8652px;font-family:Arial;-inkscape-font-specification:'Arial, Normal';font-variant-ligatures:normal;font-variant-caps:normal;font-variant-numeric:normal;font-variant-east-asian:normal;fill:#767f86;fill-opacity:1;stroke:none;stroke-width:0.4;stroke-dasharray:none;stroke-dashoffset:0;stroke-opacity:1"
       x="175.09602"
       y="160.72574"
       id="text123"><tspan
         id="tspan123"
         style="font-style:normal;font-variant:normal;font-weight:normal;font-stretch:normal;font-size:4.23333px;font-family:Arial;-inkscape-font-specification:'Arial, Normal';font-variant-ligatures:normal;font-variant-caps:normal;font-variant-numeric:normal;font-variant-east-asian:normal;fill:#767f86;fill-opacity:1;stroke:none;stroke-width:0.4"
         x="175.09602"
         y="160.72574">y</tspan></text><path
       style="font-size:4.23333px;line-height:6.5768px;font-family:'Noto Sans';-inkscape-font-specification:'Noto Sans';fill:#ced6dd;fill-opacity:1;stroke-width:0.794"
       d="m 193.59491,198.42988 v -0.98213 q -0.33443,-0.0296 -0.58843,-0.17357 -0.254,-0.14817 -0.3937,-0.39793 -0.1397,-0.254 -0.1397,-0.5969 0,-0.51647 0.2921,-0.82127 0.2921,-0.3048 0.82973,-0.34713 v -0.9144 h 0.36407 v 0.9144 q 0.33866,0.0296 0.58843,0.1778 0.254,0.14816 0.3937,0.39793 0.1397,0.24977 0.1397,0.59267 0,0.51223 -0.30057,0.81703 -0.29633,0.3048 -0.82126,0.35137 v 0.98213 z m 0,-1.27847 v -1.7399 q -0.38947,0.0381 -0.56303,0.25824 -0.16934,0.22013 -0.16934,0.6096 0,0.38946 0.17357,0.61383 0.17357,0.22013 0.5588,0.25823 z m 0.36407,0 q 0.381,-0.0423 0.5588,-0.26246 0.1778,-0.22437 0.1778,-0.6096 0,-0.78317 -0.7366,-0.8636 z"
       id="text124"
       aria-label="φ" /><g
       id="path124"
       transform="translate(-693.79418,-194.87262)"
       style="fill:#ced6dd;fill-opacity:1"><path
         style="color:#000000;fill:#ced6dd;fill-opacity:1;stroke-dashoffset:8.50394;-inkscape-stroke:none"
         d="m 883.57031,381.45508 -0.21679,0.45117 c 7.35085,3.54913 11.23913,9.32526 11.57226,17.55664 l 0.5,-0.0195 c -0.33917,-8.38046 -4.3742,-14.37618 -11.85547,-17.98828 z"
         id="path152" /><g
         id="g151"
         style="fill:#ced6dd;fill-opacity:1"><path
           style="color:#000000;fill:#ced6dd;fill-opacity:1;-inkscape-stroke:none"
           d="m 885.26953,380.69141 -2.23828,0.78125 0.78125,2.23828 0.4707,-0.16407 -0.61523,-1.76757 1.76562,-0.61524 z"
           id="path151" /></g></g><text
       xml:space="preserve"
       style="font-style:normal;font-variant:normal;font-weight:normal;font-stretch:normal;font-size:4.23333px;line-height:9.86518px;font-family:Arial;-inkscape-font-specification:'Arial, Normal';font-variant-ligatures:normal;font-variant-caps:normal;font-variant-numeric:normal;font-variant-east-asian:normal;fill:#ced6dd;fill-opacity:1;stroke:none;stroke-width:0.499999;stroke-dasharray:none;stroke-dashoffset:8.50394;stroke-opacity:1"
       x="182.95033"
       y="188.17603"
       id="text125"><tspan
         id="tspan125"
         style="font-style:normal;font-variant:normal;font-weight:normal;font-stretch:normal;font-size:4.23333px;line-height:9.86518px;font-family:Arial;-inkscape-font-specification:'Arial, Normal';font-variant-ligatures:normal;font-variant-caps:normal;font-variant-numeric:normal;font-variant-east-asian:normal;fill:#ced6dd;fill-opacity:1;stroke:none;stroke-width:0.5"
         x="182.95033"
         y="188.17603">p</tspan></text><text
       xml:space="preserve"
       style="font-style:normal;font-variant:normal;font-weight:normal;font-stretch:normal;font-size:4.23333px;line-height:9.8652px;font-family:Arial;-inkscape-font-specification:'Arial, Normal';font-variant-ligatures:normal;font-variant-caps:normal;font-variant-numeric:normal;font-variant-east-asian:normal;fill:#ced6dd;fill-opacity:1;stroke:none;stroke-width:0.4;stroke-dasharray:none;stroke-dashoffset:0;stroke-opacity:1"
       x="210.58888"
       y="164.39105"
       id="text126"><tspan
         style="font-style:normal;font-variant:normal;font-weight:normal;font-stretch:normal;font-size:4.23333px;font-family:Arial;-inkscape-font-specification:'Arial, Normal';font-variant-ligatures:normal;font-variant-caps:normal;font-variant-numeric:normal;font-variant-east-asian:normal;fill:#ced6dd;fill-opacity:1;stroke-width:0.4"
         x="210.58888"
         y="164.39105"
         id="tspan126">position</tspan></text><text
       xml:space="preserve"
       style="font-style:normal;font-variant:normal;font-weight:normal;font-stretch:normal;font-size:4.23333px;line-height:9.8652px;font-family:Arial;-inkscape-font-specification:'Arial, Normal';font-variant-ligatures:normal;font-variant-caps:normal;font-variant-numeric:normal;font-variant-east-asian:normal;fill:#767f86;fill-opacity:1;stroke:none;stroke-width:0.4;stroke-dasharray:none;stroke-dashoffset:0;stroke-opacity:1"
       x="192.03822"
       y="164.39105"
       id="text127"><tspan
         style="font-style:normal;font-variant:normal;font-weight:normal;font-stretch:normal;font-size:4.23333px;font-family:Arial;-inkscape-font-specification:'Arial, Normal';font-variant-ligatures:normal;font-variant-caps:normal;font-variant-numeric:normal;font-variant-east-asian:normal;fill:#767f86;fill-opacity:1;stroke-width:0.4"
         x="192.03822"
         y="164.39105"
         id="tspan127">(detector)</tspan></text><g
       id="path127"
       transform="translate(-693.79418,-194.87262)"
       style="fill:#ced6dd;fill-opacity:1"><path
         style="color:#000000;fill:#ced6dd;fill-opacity:1;stroke-dashoffset:8.50394;-inkscape-stroke:none"
         d="m 903.80859,360.61523 -14.65625,7.75391 0.23438,0.44141 14.65625,-7.75196 z"
         id="path154" /><g
         id="g153"
         style="fill:#ced6dd;fill-opacity:1"><path
           style="color:#000000;fill:#ced6dd;fill-opacity:1;-inkscape-stroke:none"
           d="m 889.54492,366.54687 -0.69726,2.26758 2.26562,0.69727 0.14649,-0.47656 -1.78711,-0.55079 0.55078,-1.78906 z"
           id="path153" /></g></g><text
       xml:space="preserve"
       style="font-style:normal;font-variant:normal;font-weight:normal;font-stretch:normal;font-size:4.23333px;line-height:9.8652px;font-family:Arial;-inkscape-font-specification:'Arial, Normal';font-variant-ligatures:normal;font-variant-caps:normal;font-variant-numeric:normal;font-variant-east-asian:normal;fill:#ced6dd;fill-opacity:1;stroke:none;stroke-width:0.4;stroke-dasharray:none;stroke-dashoffset:0;stroke-opacity:1"
       x="187.24605"
       y="222.16479"
       id="text128"><tspan
         style="font-style:normal;font-variant:normal;font-weight:normal;font-stretch:normal;font-size:4.23333px;font-family:Arial;-inkscape-font-specification:'Arial, Normal';font-variant-ligatures:normal;font-variant-caps:normal;font-variant-numeric:normal;font-variant-east-asian:normal;fill:#ced6dd;fill-opacity:1;stroke-width:0.4"
         x="187.24605"
         y="222.16479"
         id="tspan128">sample_position</tspan></text><g
       id="path128"
       transform="translate(-693.79418,-194.87262)"
       style="fill:#ced6dd;fill-opacity:1"><path
         style="color:#000000;fill:#ced6dd;fill-opacity:1;stroke-dashoffset:8.50394;-inkscape-stroke:none"
         d="m 876.66797,401.66211 -0.26563,0.42383 c 0,0 4.6925,2.94063 9.4668,5.88281 2.38715,1.47109 4.79568,2.94257 6.64844,4.04687 0.92638,0.55216 1.71394,1.01208 2.29297,1.33594 0.28951,0.16193 0.52549,0.28948 0.70507,0.37891 0.0898,0.0447 0.16625,0.0812 0.23047,0.10742 0.0642,0.0262 0.0922,0.0508 0.20703,0.0508 v -0.5 c 0.0744,0 0.0253,0.005 -0.0195,-0.0137 -0.0448,-0.0183 -0.11205,-0.0503 -0.19531,-0.0918 -0.16652,-0.0829 -0.3979,-0.20739 -0.68359,-0.36718 -0.5714,-0.3196 -1.35694,-0.77916 -2.28125,-1.33008 -1.84863,-1.10184 -4.25455,-2.57254 -6.64063,-4.04297 -4.77215,-2.94086 -9.46484,-5.88086 -9.46484,-5.88086 z"
         id="path150" /><g
         id="g149"
         style="fill:#ced6dd;fill-opacity:1"><path
           style="color:#000000;fill:#ced6dd;fill-opacity:1;-inkscape-stroke:none"
           d="m 878.44141,401.08984 -2.31055,0.5293 0.5293,2.31055 0.48828,-0.11133 -0.41992,-1.82422 1.82421,-0.41797 z"
           id="path149" /></g></g><g
       id="g137"
       transform="translate(-333.75019,141.26735)"
       style="fill:#feffb3;fill-opacity:1"><path
         style="color:#000000;fill:#feffb3;fill-opacity:1;-inkscape-stroke:none"
         d="m 513.58984,23.285156 v 30.816406 h 1 V 23.285156 Z"
         id="path133" /><g
         id="g136"
         style="fill:#feffb3;fill-opacity:1"><g
           id="g135"
           style="fill:#feffb3;fill-opacity:1"><path
             style="color:#000000;fill:#feffb3;fill-opacity:1;fill-rule:evenodd;-inkscape-stroke:none"
             d="m 514.09052,56.121906 -1.75,-3.0275 h 3.5 z"
             id="path134" /><path
             style="color:#000000;fill:#feffb3;fill-opacity:1;fill-rule:evenodd;-inkscape-stroke:none"
             d="m 511.93555,52.861328 2.15429,3.726563 2.1543,-3.726563 z m 0.80859,0.466797 h 2.69336 l -1.34766,2.328125 z"
             id="path135" /></g></g></g><text
       xml:space="preserve"
       style="font-style:normal;font-variant:normal;font-weight:normal;font-stretch:normal;font-size:4.23333px;line-height:9.8652px;font-family:Arial;-inkscape-font-specification:'Arial, Normal';font-variant-ligatures:normal;font-variant-caps:normal;font-variant-numeric:normal;font-variant-east-asian:normal;fill:#feffb3;fill-opacity:1;stroke:none;stroke-width:0.4;stroke-dasharray:none;stroke-dashoffset:0;stroke-opacity:1"
       x="164.41255"
       y="182.84561"
       id="text137"><tspan
         id="tspan137"
         style="font-style:normal;font-variant:normal;font-weight:normal;font-stretch:normal;font-size:4.23333px;font-family:Arial;-inkscape-font-specification:'Arial, Normal';font-variant-ligatures:normal;font-variant-caps:normal;font-variant-numeric:normal;font-variant-east-asian:normal;fill:#feffb3;fill-opacity:1;stroke:none;stroke-width:0.4"
         x="164.41255"
         y="182.84561">gravity</tspan></text></g><g
     id="g3"
     transform="translate(-2.1670806,-157.90751)"><path
       id="path112"
       style="fill:none;fill-opacity:1;stroke:#666666;stroke-width:0.499999;stroke-dasharray:none;stroke-dashoffset:8.50394;stroke-opacity:1"
       d="M 40.72243,228.08666 69.12692,199.76385" /><path
       id="path108"
       style="fill:none;fill-opacity:1;stroke:#889096;stroke-width:0.5;stroke-dasharray:1.5, 1.5;stroke-dashoffset:2.25;stroke-opacity:1"
       d="m 74.38586,203.63696 -12.78113,3.58588" /><path
       id="path109"
       style="fill:none;fill-opacity:1;stroke:#889096;stroke-width:0.5;stroke-dasharray:1.5, 1.5;stroke-dashoffset:2.25;stroke-opacity:1"
       d="m 107.16741,177.74779 v 16.69196 l -27.0893,7.60019" /><path
       id="path68"
       style="fill:none;fill-opacity:1;stroke:#8dd3c7;stroke-width:0.499999;stroke-dasharray:none;stroke-dashoffset:8.50394;stroke-opacity:1"
       d="m 95.4823,207.22317 0.83608,-3.1827 3.22574,0.007" /><path
       style="fill:none;fill-opacity:1;stroke:#8dd3c7;stroke-width:0.499999;stroke-dasharray:1.5, 1.5;stroke-dashoffset:0;stroke-opacity:1"
       d="M 107.16741,177.74779 98.6283,207.2058"
       id="path70" /><text
       xml:space="preserve"
       style="font-style:normal;font-variant:normal;font-weight:normal;font-stretch:normal;font-size:4.23333px;line-height:9.8652px;font-family:Arial;-inkscape-font-specification:'Arial, Normal';font-variant-ligatures:normal;font-variant-caps:normal;font-variant-numeric:normal;font-variant-east-asian:normal;fill:#ced6dd;fill-opacity:1;stroke:none;stroke-width:0.4;stroke-dasharray:none;stroke-dashoffset:0;stroke-opacity:1"
       x="108.12775"
       y="160.97502"
       id="text70"><tspan
         style="font-style:normal;font-variant:normal;font-weight:normal;font-stretch:normal;font-size:4.23333px;font-family:Arial;-inkscape-font-specification:'Arial, Normal';font-variant-ligatures:normal;font-variant-caps:normal;font-variant-numeric:normal;font-variant-east-asian:normal;fill:#ced6dd;fill-opacity:1;stroke-width:0.4"
         x="108.12775"
         y="160.97502"
         id="tspan70">position</tspan></text><text
       xml:space="preserve"
       style="font-style:normal;font-variant:normal;font-weight:normal;font-stretch:normal;font-size:4.23333px;line-height:9.8652px;font-family:Arial;-inkscape-font-specification:'Arial, Normal';font-variant-ligatures:normal;font-variant-caps:normal;font-variant-numeric:normal;font-variant-east-asian:normal;fill:#767f86;fill-opacity:1;stroke:none;stroke-width:0.4;stroke-dasharray:none;stroke-dashoffset:0;stroke-opacity:1"
       x="89.577087"
       y="160.97502"
       id="text71"><tspan
         style="font-style:normal;font-variant:normal;font-weight:normal;font-stretch:normal;font-size:4.23333px;font-family:Arial;-inkscape-font-specification:'Arial, Normal';font-variant-ligatures:normal;font-variant-caps:normal;font-variant-numeric:normal;font-variant-east-asian:normal;fill:#767f86;fill-opacity:1;stroke-width:0.4"
         x="89.577087"
         y="160.97502"
         id="tspan71">(detector)</tspan></text><text
       xml:space="preserve"
       style="font-style:normal;font-variant:normal;font-weight:normal;font-stretch:normal;font-size:4.23333px;line-height:9.8652px;font-family:Arial;-inkscape-font-specification:'Arial, Normal';font-variant-ligatures:normal;font-variant-caps:normal;font-variant-numeric:normal;font-variant-east-asian:normal;fill:#ced6dd;fill-opacity:1;stroke:none;stroke-width:0.4;stroke-dasharray:none;stroke-dashoffset:0;stroke-opacity:1"
       x="77.418701"
       y="227.17464"
       id="text72"><tspan
         style="font-style:normal;font-variant:normal;font-weight:normal;font-stretch:normal;font-size:4.23333px;font-family:Arial;-inkscape-font-specification:'Arial, Normal';font-variant-ligatures:normal;font-variant-caps:normal;font-variant-numeric:normal;font-variant-east-asian:normal;fill:#ced6dd;fill-opacity:1;stroke-width:0.4"
         x="77.418701"
         y="227.17464"
         id="tspan72">sample_position</tspan></text><text
       xml:space="preserve"
       style="font-style:normal;font-variant:normal;font-weight:normal;font-stretch:normal;font-size:4.23333px;line-height:9.8652px;font-family:Arial;-inkscape-font-specification:'Arial, Normal';font-variant-ligatures:normal;font-variant-caps:normal;font-variant-numeric:normal;font-variant-east-asian:normal;fill:#ced6dd;fill-opacity:1;stroke:none;stroke-width:0.4;stroke-dasharray:none;stroke-dashoffset:0;stroke-opacity:1"
       x="2.0492585"
       y="227.17464"
       id="text73"><tspan
         style="font-style:normal;font-variant:normal;font-weight:normal;font-stretch:normal;font-size:4.23333px;font-family:Arial;-inkscape-font-specification:'Arial, Normal';font-variant-ligatures:normal;font-variant-caps:normal;font-variant-numeric:normal;font-variant-east-asian:normal;fill:#ced6dd;fill-opacity:1;stroke-width:0.4"
         x="2.0492585"
         y="227.17464"
         id="tspan73">source_position</tspan></text><g
       id="g75"
       transform="matrix(0.87455132,0,0,1,-383.58308,144.01874)"
       style="fill:#767f86;fill-opacity:1;stroke-width:1.06933"><path
         style="color:#000000;fill:#767f86;fill-opacity:1;stroke-width:1.06933;-inkscape-stroke:none"
         d="m 473.08008,62.955078 v 0.5 h 101.86328 v -0.5 z"
         id="path73" /><g
         id="g74"
         style="fill:#767f86;fill-opacity:1;stroke-width:1.06933"><path
           style="color:#000000;fill:#767f86;fill-opacity:1;stroke-width:1.06933;-inkscape-stroke:none"
           d="m 573.74414,61.527344 -0.35352,0.353515 1.32422,1.322266 -1.32422,1.324219 0.35352,0.353515 1.67773,-1.675781 z"
           id="path74" /></g></g><g
       id="g77"
       transform="translate(-452.48609,144.01874)"
       style="fill:#767f86;fill-opacity:1"><path
         style="color:#000000;fill:#767f86;fill-opacity:1;-inkscape-stroke:none"
         d="m 513.83984,15.556641 v 75.15625 h 0.5 v -75.15625 z"
         id="path75" /><g
         id="g76"
         style="fill:#767f86;fill-opacity:1"><path
           style="color:#000000;fill:#767f86;fill-opacity:1;-inkscape-stroke:none"
           d="m 514.08984,15.078125 -1.67578,1.677734 0.35352,0.353516 1.32226,-1.324219 1.32422,1.324219 0.35352,-0.353516 z"
           id="path76" /></g></g><text
       xml:space="preserve"
       style="font-style:normal;font-variant:normal;font-weight:normal;font-stretch:normal;font-size:4.23333px;line-height:9.8652px;font-family:Arial;-inkscape-font-specification:'Arial, Normal';font-variant-ligatures:normal;font-variant-caps:normal;font-variant-numeric:normal;font-variant-east-asian:normal;fill:#767f86;fill-opacity:1;stroke:none;stroke-width:0.4;stroke-dasharray:none;stroke-dashoffset:0;stroke-opacity:1"
       x="117.28351"
       y="212.63371"
       id="text79"><tspan
         id="tspan79"
         style="font-style:normal;font-variant:normal;font-weight:normal;font-stretch:normal;font-size:4.23333px;font-family:Arial;-inkscape-font-specification:'Arial, Normal';font-variant-ligatures:normal;font-variant-caps:normal;font-variant-numeric:normal;font-variant-east-asian:normal;fill:#767f86;fill-opacity:1;stroke:none;stroke-width:0.4"
         x="117.28351"
         y="212.63371">z</tspan></text><text
       xml:space="preserve"
       style="font-style:normal;font-variant:normal;font-weight:normal;font-stretch:normal;font-size:4.23333px;line-height:9.8652px;font-family:Arial;-inkscape-font-specification:'Arial, Normal';font-variant-ligatures:normal;font-variant-caps:normal;font-variant-numeric:normal;font-variant-east-asian:normal;fill:#767f86;fill-opacity:1;stroke:none;stroke-width:0.4;stroke-dasharray:none;stroke-dashoffset:0;stroke-opacity:1"
       x="93.327332"
       y="169.11555"
       id="text80"><tspan
         id="tspan80"
         style="font-style:normal;font-variant:normal;font-weight:normal;font-stretch:normal;font-size:4.23333px;font-family:Arial;-inkscape-font-specification:'Arial, Normal';font-variant-ligatures:normal;font-variant-caps:normal;font-variant-numeric:normal;font-variant-east-asian:normal;fill:#767f86;fill-opacity:1;stroke:none;stroke-width:0.4"
         x="93.327332"
         y="169.11555">x</tspan></text><text
       xml:space="preserve"
       style="font-style:normal;font-variant:normal;font-weight:normal;font-stretch:normal;font-size:4.23333px;line-height:9.8652px;font-family:Arial;-inkscape-font-specification:'Arial, Normal';font-variant-ligatures:normal;font-variant-caps:normal;font-variant-numeric:normal;font-variant-east-asian:normal;fill:#767f86;fill-opacity:1;stroke:none;stroke-width:0.4;stroke-dasharray:none;stroke-dashoffset:0;stroke-opacity:1"
       x="55.715214"
       y="162.76414"
       id="text81"><tspan
         id="tspan81"
         style="font-style:normal;font-variant:normal;font-weight:normal;font-stretch:normal;font-size:4.23333px;font-family:Arial;-inkscape-font-specification:'Arial, Normal';font-variant-ligatures:normal;font-variant-caps:normal;font-variant-numeric:normal;font-variant-east-asian:normal;fill:#767f86;fill-opacity:1;stroke:none;stroke-width:0.4"
         x="55.715214"
         y="162.76414">y</tspan></text><g
       id="g85"
       transform="translate(-453.02025,144.01874)"
       style="fill:#8dd3c7;fill-opacity:1"><path
         style="color:#000000;fill:#8dd3c7;fill-opacity:1;-inkscape-stroke:none"
         d="m 460.17969,62.705078 v 1 h 50.45898 v -1 z"
         id="path81" /><g
         id="g84"
         style="fill:#8dd3c7;fill-opacity:1"><g
           id="g83"
           style="fill:#8dd3c7;fill-opacity:1"><path
             style="color:#000000;fill:#8dd3c7;fill-opacity:1;fill-rule:evenodd;-inkscape-stroke:none"
             d="m 512.65841,63.204146 -3.0275,1.75 v -3.5 z"
             id="path82" /><path
             style="color:#000000;fill:#8dd3c7;fill-opacity:1;fill-rule:evenodd;-inkscape-stroke:none"
             d="m 509.39844,61.048828 v 4.310547 l 3.72656,-2.154297 z m 0.46484,0.808594 2.32813,1.345703 -2.32813,1.347656 z"
             id="path83-9" /></g></g></g><circle
       style="fill:#b9b9b9;fill-opacity:1;stroke:none;stroke-width:0.4;stroke-dasharray:none;stroke-dashoffset:0;stroke-opacity:1"
       id="circle85"
       cx="107.16742"
       cy="177.74779"
       r="1.3" /><g
       id="g89"
       transform="rotate(-32.843578,505.17747,811.39648)"
       style="fill:#8dd3c7;fill-opacity:1"><path
         style="color:#000000;fill:#8dd3c7;fill-opacity:1;-inkscape-stroke:none"
         d="m 460.17969,62.705078 v 1 h 50.45898 v -1 z"
         id="path85" /><g
         id="g88"
         style="fill:#8dd3c7;fill-opacity:1"><g
           id="g87"
           style="fill:#8dd3c7;fill-opacity:1"><path
             style="color:#000000;fill:#8dd3c7;fill-opacity:1;fill-rule:evenodd;-inkscape-stroke:none"
             d="m 512.65841,63.204146 -3.0275,1.75 v -3.5 z"
             id="path86" /><path
             style="color:#000000;fill:#8dd3c7;fill-opacity:1;fill-rule:evenodd;-inkscape-stroke:none"
             d="m 509.39844,61.048828 v 4.310547 l 3.72656,-2.154297 z m 0.46484,0.808594 2.32813,1.345703 -2.32813,1.347656 z"
             id="path87" /></g></g></g><rect
       style="fill:#b9b9b9;fill-opacity:1;stroke-width:0.999995"
       id="rect89"
       width="3"
       height="3"
       x="60.10474"
       y="205.72282" /><path
       style="fill:#b9b9b9;fill-opacity:1;stroke:none;stroke-width:1"
       id="path89"
       d="m 4.6080263,209.43347 -6e-6,-4.41919 3.827137,2.2096 z" /><path
       id="path90"
       style="fill:none;fill-opacity:1;stroke:#889096;stroke-width:0.5;stroke-dasharray:none;stroke-dashoffset:0;stroke-opacity:1"
       d="m 104.59261,195.01642 v -2.96492 l 2.69983,-0.76095" /><path
       d="m 75.09353,204.25443 v -0.26251 q 0.10541,-0.24185 0.25631,-0.42582 0.15296,-0.18603 0.32039,-0.33486 0.16744,-0.15089 0.33073,-0.27905 0.16537,-0.12816 0.29766,-0.25632 0.13229,-0.12815 0.21291,-0.26871 0.0827,-0.14056 0.0827,-0.31833 0,-0.23978 -0.14056,-0.37207 -0.14056,-0.13229 -0.39068,-0.13229 -0.23771,0 -0.39274,0.13022 -0.15296,0.12816 -0.17983,0.36174 l -0.38034,-0.0351 q 0.0413,-0.34933 0.29559,-0.55604 0.25632,-0.20671 0.65732,-0.20671 0.44029,0 0.67593,0.20878 0.23771,0.2067 0.23771,0.58911 0,0.1695 -0.0786,0.33693 -0.0765,0.16743 -0.22944,0.33486 -0.15296,0.16743 -0.58498,0.51883 -0.23771,0.1943 -0.37827,0.3514 -0.14056,0.15503 -0.20257,0.29972 h 1.51929 v 0.31626 z m 4.27673,-1.51515 q 0,0.78755 -0.24804,1.17202 -0.24805,0.38447 -0.71934,0.38447 -0.46302,0 -0.70693,-0.39274 -0.24185,-0.3948 -0.24185,-1.16375 0,-1.55029 0.96118,-1.55029 0.49403,0 0.72347,0.38241 0.23151,0.38033 0.23151,1.16788 z m -0.97151,1.28158 q 0.29559,0 0.43201,-0.28112 0.13643,-0.28319 0.14676,-0.87643 h -1.13068 q 0.0103,0.5705 0.14263,0.86402 0.13436,0.29353 0.40928,0.29353 z m 0.0227,-2.56522 q -0.29352,0 -0.42788,0.27699 -0.13435,0.27491 -0.14676,0.85989 h 1.13068 q -0.0103,-0.58498 -0.14056,-0.85989 -0.12815,-0.27699 -0.41548,-0.27699 z"
       id="text90"
       style="font-size:4.23333px;line-height:9.8652px;font-family:Arial;-inkscape-font-specification:'Arial, Normal';fill:#ced6dd;fill-opacity:1;stroke-width:0.794"
       aria-label="2θ" /><g
       id="path91"
       style="fill:#ced6dd;fill-opacity:1"
       transform="translate(-633.40112,-192.83422)"><path
         style="color:#000000;fill:#ced6dd;fill-opacity:1;stroke-dashoffset:8.50394;-inkscape-stroke:none"
         d="m 714.9375,388.54102 -0.38672,0.3164 c 2.69641,3.27812 3.88257,7.11377 4.12305,10.45508 l 0.49804,-0.0352 c -0.24695,-3.4313 -1.46218,-7.36607 -4.23437,-10.73632 z"
         id="path144" /><g
         id="g143"
         style="fill:#ced6dd;fill-opacity:1"><path
           style="color:#000000;fill:#ced6dd;fill-opacity:1;-inkscape-stroke:none"
           d="m 714.43945,388.33008 -0.22851,2.35937 0.49609,0.0488 0.18164,-1.86328 1.86328,0.18164 0.0488,-0.49805 z"
           id="path143" /></g></g><g
       id="g96"
       transform="translate(-452.48512,143.30575)"
       style="fill:#feffb3;fill-opacity:1"><path
         style="color:#000000;fill:#feffb3;fill-opacity:1;-inkscape-stroke:none"
         d="m 513.58984,23.285156 v 30.816406 h 1 V 23.285156 Z"
         id="path92" /><g
         id="g95"
         style="fill:#feffb3;fill-opacity:1"><g
           id="g94"
           style="fill:#feffb3;fill-opacity:1"><path
             style="color:#000000;fill:#feffb3;fill-opacity:1;fill-rule:evenodd;-inkscape-stroke:none"
             d="m 514.09052,56.121906 -1.75,-3.0275 h 3.5 z"
             id="path93" /><path
             style="color:#000000;fill:#feffb3;fill-opacity:1;fill-rule:evenodd;-inkscape-stroke:none"
             d="m 511.93555,52.861328 2.15429,3.726563 2.1543,-3.726563 z m 0.80859,0.466797 h 2.69336 l -1.34766,2.328125 z"
             id="path94" /></g></g></g><text
       xml:space="preserve"
       style="font-style:normal;font-variant:normal;font-weight:normal;font-stretch:normal;font-size:4.23333px;line-height:9.8652px;font-family:Arial;-inkscape-font-specification:'Arial, Normal';font-variant-ligatures:normal;font-variant-caps:normal;font-variant-numeric:normal;font-variant-east-asian:normal;fill:#feffb3;fill-opacity:1;stroke:none;stroke-width:0.4;stroke-dasharray:none;stroke-dashoffset:0;stroke-opacity:1"
       x="39.814213"
       y="184.88402"
       id="text96"><tspan
         id="tspan96"
         style="font-style:normal;font-variant:normal;font-weight:normal;font-stretch:normal;font-size:4.23333px;font-family:Arial;-inkscape-font-specification:'Arial, Normal';font-variant-ligatures:normal;font-variant-caps:normal;font-variant-numeric:normal;font-variant-east-asian:normal;fill:#feffb3;fill-opacity:1;stroke:none;stroke-width:0.4;stroke-opacity:1"
         x="39.814213"
         y="184.88402">gravity</tspan></text><text
       xml:space="preserve"
       style="font-style:normal;font-variant:normal;font-weight:normal;font-stretch:normal;font-size:4.23333px;font-family:Arial;-inkscape-font-specification:'Arial, Normal';font-variant-ligatures:normal;font-variant-caps:normal;font-variant-numeric:normal;font-variant-east-asian:normal;fill:#ced6dd;fill-opacity:1;stroke:none;stroke-width:0.793999;stroke-dasharray:none;stroke-dashoffset:0;stroke-opacity:1"
       x="20.38163"
       y="204.48155"
       id="text97"
       transform="rotate(0.16507466)"><tspan
         id="tspan97"
         style="font-style:normal;font-variant:normal;font-weight:normal;font-stretch:normal;font-size:4.23333px;font-family:Arial;-inkscape-font-specification:'Arial, Normal';font-variant-ligatures:normal;font-variant-caps:normal;font-variant-numeric:normal;font-variant-east-asian:normal;fill:#ced6dd;fill-opacity:1;stroke:none;stroke-width:0.794"
         x="20.38163"
         y="204.48155">incident_beam</tspan></text><text
       xml:space="preserve"
       style="font-style:normal;font-variant:normal;font-weight:normal;font-stretch:normal;font-size:4.23333px;font-family:Arial;-inkscape-font-specification:'Arial, Normal';font-variant-ligatures:normal;font-variant-caps:normal;font-variant-numeric:normal;font-variant-east-asian:normal;fill:#ced6dd;fill-opacity:1;stroke:none;stroke-width:0.793999;stroke-dasharray:none;stroke-dashoffset:0;stroke-opacity:1"
       x="-52.139896"
       y="205.19965"
       id="text98"
       transform="rotate(-33.457532)"><tspan
         id="tspan98"
         style="font-style:normal;font-variant:normal;font-weight:normal;font-stretch:normal;font-size:4.23333px;font-family:Arial;-inkscape-font-specification:'Arial, Normal';font-variant-ligatures:normal;font-variant-caps:normal;font-variant-numeric:normal;font-variant-east-asian:normal;fill:#ced6dd;fill-opacity:1;stroke:none;stroke-width:0.794"
         x="-52.139896"
         y="205.19965">scattered_beam</tspan></text><g
       id="path98"
       style="fill:#ced6dd;fill-opacity:1"
       transform="translate(-633.40112,-192.83422)"><path
         style="color:#000000;fill:#ced6dd;fill-opacity:1;stroke-dashoffset:8.50394;-inkscape-stroke:none"
         d="m 640.65234,402.91797 -0.41406,0.28125 8.98242,13.15625 0.41211,-0.2832 z"
         id="path140" /><g
         id="g139"
         style="fill:#ced6dd;fill-opacity:1"><path
           style="color:#000000;fill:#ced6dd;fill-opacity:1;-inkscape-stroke:none"
           d="m 640.17578,402.66406 -0.43945,2.33008 0.49023,0.0918 0.34766,-1.83789 1.83789,0.3457 0.0937,-0.49023 z"
           id="path139" /></g></g><g
       id="path99"
       style="fill:#ced6dd;fill-opacity:1"
       transform="translate(-633.40112,-192.83422)"><path
         style="color:#000000;fill:#ced6dd;fill-opacity:1;stroke-dashoffset:8.50394;-inkscape-stroke:none"
         d="m 698.12109,401.80664 -0.21875,0.44922 c 0,0 6.28329,3.07699 12.64844,6.1543 3.18258,1.53865 6.38516,3.07788 8.83399,4.23242 1.22441,0.57726 2.25978,1.05874 3.01171,1.39648 0.37597,0.16888 0.68191,0.30052 0.90625,0.39258 0.11218,0.046 0.20357,0.0816 0.27735,0.10742 0.0738,0.0258 0.0937,0.0508 0.21289,0.0508 v -0.5 c 0.0787,0 0.0105,-7.2e-4 -0.0488,-0.0215 -0.0593,-0.0208 -0.14446,-0.0535 -0.25195,-0.0977 -0.21499,-0.0882 -0.51735,-0.221 -0.89063,-0.38867 -0.74656,-0.33533 -1.78093,-0.81599 -3.0039,-1.39258 -2.44594,-1.15317 -5.64825,-2.69022 -8.83008,-4.22851 -6.36366,-3.07658 -12.64649,-6.1543 -12.64649,-6.1543 z"
         id="path142" /><g
         id="g141"
         style="fill:#ced6dd;fill-opacity:1"><path
           style="color:#000000;fill:#ced6dd;fill-opacity:1;-inkscape-stroke:none"
           d="m 699.82617,401.05273 -2.24414,0.76758 0.76758,2.24414 0.47461,-0.16211 -0.60742,-1.77148 1.77148,-0.60547 z"
           id="path141" /></g></g><g
       id="path100"
       style="fill:#ced6dd;fill-opacity:1"
       transform="translate(-633.40112,-192.83422)"><path
         style="color:#000000;fill:#ced6dd;fill-opacity:1;stroke-dashoffset:8.50394;-inkscape-stroke:none"
         d="m 741.08203,355.90039 -0.0488,11.79883 0.5,0.002 0.0488,-11.79883 z"
         id="path146" /><g
         id="g145"
         style="fill:#ced6dd;fill-opacity:1"><path
           style="color:#000000;fill:#ced6dd;fill-opacity:1;-inkscape-stroke:none"
           d="m 739.9668,366.14258 -0.35547,0.35156 1.66992,1.68359 1.68359,-1.66992 -0.35156,-0.35547 -1.32812,1.31836 z"
           id="path145" /></g></g><text
       xml:space="preserve"
       style="font-style:normal;font-variant:normal;font-weight:normal;font-stretch:normal;font-size:4.23333px;line-height:9.86518px;font-family:Arial;-inkscape-font-specification:'Arial, Normal';font-variant-ligatures:normal;font-variant-caps:normal;font-variant-numeric:normal;font-variant-east-asian:normal;fill:#ced6dd;fill-opacity:1;stroke:none;stroke-width:0.499999;stroke-dasharray:none;stroke-dashoffset:8.50394;stroke-opacity:1"
       x="102.35333"
       y="200.38402"
       id="text100"><tspan
         id="tspan100"
         style="font-style:normal;font-variant:normal;font-weight:normal;font-stretch:normal;font-size:4.23333px;line-height:9.86518px;font-family:Arial;-inkscape-font-specification:'Arial, Normal';font-variant-ligatures:normal;font-variant-caps:normal;font-variant-numeric:normal;font-variant-east-asian:normal;fill:#ced6dd;fill-opacity:1;stroke:none;stroke-width:0.5"
         x="102.35333"
         y="200.38402">p</tspan></text><g
       id="path110"
       style="fill:#767f86;fill-opacity:1"
       transform="translate(-633.40112,-192.83422)"><path
         style="color:#000000;fill:#767f86;fill-opacity:1;stroke-dashoffset:8.50394;-inkscape-stroke:none"
         d="m 732.83594,362.02539 -21.27344,21.21094 0.35352,0.35351 21.27148,-21.21093 z"
         id="path148" /><g
         id="g147"
         style="fill:#767f86;fill-opacity:1"><path
           style="color:#000000;fill:#767f86;fill-opacity:1;-inkscape-stroke:none"
           d="m 730.97852,361.86133 v 0.5 l 1.87109,0.002 -0.002,1.87109 0.5,0.002 0.002,-2.3711 z"
           id="path147" /></g></g></g></svg>
