<?xml version="1.0" encoding="utf-8" standalone="no"?>
<!DOCTYPE svg PUBLIC "-//W3C//DTD SVG 1.1//EN"
  "http://www.w3.org/Graphics/SVG/1.1/DTD/svg11.dtd">
<svg xmlns:xlink="http://www.w3.org/1999/xlink" width="792pt" height="360pt" viewBox="0 0 792 360" xmlns="http://www.w3.org/2000/svg" version="1.1">
 <metadata>
  <rdf:RDF xmlns:dc="http://purl.org/dc/elements/1.1/" xmlns:cc="http://creativecommons.org/ns#" xmlns:rdf="http://www.w3.org/1999/02/22-rdf-syntax-ns#">
   <cc:Work>
    <dc:type rdf:resource="http://purl.org/dc/dcmitype/StillImage"/>
    <dc:date>2023-12-21T10:19:09.715862</dc:date>
    <dc:format>image/svg+xml</dc:format>
    <dc:creator>
     <cc:Agent>
      <dc:title>Matplotlib v3.8.2, https://matplotlib.org/</dc:title>
     </cc:Agent>
    </dc:creator>
   </cc:Work>
  </rdf:RDF>
 </metadata>
 <defs>
  <style type="text/css">*{stroke-linejoin: round; stroke-linecap: butt}</style>
 </defs>
 <g id="figure_1">
  <g id="patch_1">
   <path d="M 0 360 
L 792 360 
L 792 0 
L 0 0 
z
" style="fill: #14181e"/>
  </g>
  <g id="axes_1">
   <g id="patch_2">
    <path d="M 66.99464 312.51196 
L 392.04 312.51196 
L 392.04 22.13034 
L 66.99464 22.13034 
z
" style="fill: #14181e"/>
   </g>
   <g id="patch_3">
    <path d="M 121.701291 263.639378 
L 281.428741 263.639378 
L 281.428741 120.945707 
L 121.701291 120.945707 
z
" clip-path="url(#pfa868ea477)" style="fill: #808080; fill-opacity: 0.25098"/>
   </g>
   <g id="matplotlib.axis_1">
    <g id="xtick_1">
     <g id="line2d_1">
      <defs>
       <path id="m294f355ef8" d="M 0 0 
L 0 5 
" style="stroke: #ffffff; stroke-width: 0.8"/>
      </defs>
      <g>
       <use xlink:href="#m294f355ef8" x="121.701291" y="312.51196" style="fill: #ffffff; stroke: #ffffff; stroke-width: 0.8"/>
      </g>
     </g>
     <g id="text_1">
      <!-- 0 -->
      <g style="fill: #ffffff" transform="translate(117.120291 331.95371) scale(0.144 -0.144)">
       <defs>
        <path id="DejaVuSans-30" d="M 2034 4250 
Q 1547 4250 1301 3770 
Q 1056 3291 1056 2328 
Q 1056 1369 1301 889 
Q 1547 409 2034 409 
Q 2525 409 2770 889 
Q 3016 1369 3016 2328 
Q 3016 3291 2770 3770 
Q 2525 4250 2034 4250 
z
M 2034 4750 
Q 2819 4750 3233 4129 
Q 3647 3509 3647 2328 
Q 3647 1150 3233 529 
Q 2819 -91 2034 -91 
Q 1250 -91 836 529 
Q 422 1150 422 2328 
Q 422 3509 836 4129 
Q 1250 4750 2034 4750 
z
" transform="scale(0.015625)"/>
       </defs>
       <use xlink:href="#DejaVuSans-30"/>
      </g>
     </g>
    </g>
    <g id="xtick_2">
     <g id="line2d_2">
      <g>
       <use xlink:href="#m294f355ef8" x="185.254824" y="312.51196" style="fill: #ffffff; stroke: #ffffff; stroke-width: 0.8"/>
      </g>
     </g>
     <g id="text_2">
      <!-- $\tilde{\theta}$ -->
      <g style="fill: #ffffff" transform="translate(180.790824 333.28121) scale(0.144 -0.144)">
       <defs>
        <path id="DejaVuSans-303" d="M -1621 4281 
L -1799 4453 
Q -1867 4516 -1919 4545 
Q -1971 4575 -2011 4575 
Q -2130 4575 -2186 4461 
Q -2242 4347 -2249 4091 
L -2639 4091 
Q -2633 4513 -2473 4742 
Q -2314 4972 -2030 4972 
Q -1911 4972 -1811 4928 
Q -1711 4884 -1596 4781 
L -1417 4609 
Q -1349 4547 -1297 4517 
Q -1246 4488 -1205 4488 
Q -1086 4488 -1030 4602 
Q -974 4716 -967 4972 
L -577 4972 
Q -583 4550 -742 4320 
Q -902 4091 -1186 4091 
Q -1305 4091 -1405 4134 
Q -1505 4178 -1621 4281 
z
" transform="scale(0.015625)"/>
        <path id="DejaVuSans-Oblique-3b8" d="M 2913 2219 
L 925 2219 
Q 791 1284 928 888 
Q 1100 400 1566 400 
Q 2034 400 2391 891 
Q 2703 1322 2913 2219 
z
M 3009 2750 
Q 3094 3638 2984 3950 
Q 2813 4444 2353 4444 
Q 1875 4444 1525 3956 
Q 1250 3563 1034 2750 
L 3009 2750 
z
M 2444 4913 
Q 3194 4913 3494 4250 
Q 3794 3591 3566 2422 
Q 3341 1256 2781 594 
Q 2225 -72 1475 -72 
Q 722 -72 425 594 
Q 128 1256 353 2422 
Q 581 3591 1134 4250 
Q 1691 4913 2444 4913 
z
" transform="scale(0.015625)"/>
       </defs>
       <use xlink:href="#DejaVuSans-303" transform="translate(63.529785 26.3125)"/>
       <use xlink:href="#DejaVuSans-Oblique-3b8" transform="translate(0 0.96875)"/>
      </g>
     </g>
    </g>
    <g id="xtick_3">
     <g id="line2d_3">
      <g>
       <use xlink:href="#m294f355ef8" x="281.428741" y="312.51196" style="fill: #ffffff; stroke: #ffffff; stroke-width: 0.8"/>
      </g>
     </g>
     <g id="text_3">
      <!-- $2\pi$ -->
      <g style="fill: #ffffff" transform="translate(272.500741 331.95371) scale(0.144 -0.144)">
       <defs>
        <path id="DejaVuSans-32" d="M 1228 531 
L 3431 531 
L 3431 0 
L 469 0 
L 469 531 
Q 828 903 1448 1529 
Q 2069 2156 2228 2338 
Q 2531 2678 2651 2914 
Q 2772 3150 2772 3378 
Q 2772 3750 2511 3984 
Q 2250 4219 1831 4219 
Q 1534 4219 1204 4116 
Q 875 4013 500 3803 
L 500 4441 
Q 881 4594 1212 4672 
Q 1544 4750 1819 4750 
Q 2544 4750 2975 4387 
Q 3406 4025 3406 3419 
Q 3406 3131 3298 2873 
Q 3191 2616 2906 2266 
Q 2828 2175 2409 1742 
Q 1991 1309 1228 531 
z
" transform="scale(0.015625)"/>
        <path id="DejaVuSans-Oblique-3c0" d="M 584 3500 
L 3938 3500 
L 3825 2925 
L 3384 2925 
L 2966 775 
Q 2922 550 2981 450 
Q 3038 353 3209 353 
Q 3256 353 3325 363 
Q 3397 369 3419 372 
L 3338 -44 
Q 3222 -84 3103 -103 
Q 2981 -122 2866 -122 
Q 2491 -122 2388 81 
Q 2284 288 2391 838 
L 2797 2925 
L 1506 2925 
L 938 0 
L 350 0 
L 919 2925 
L 472 2925 
L 584 3500 
z
" transform="scale(0.015625)"/>
       </defs>
       <use xlink:href="#DejaVuSans-32" transform="translate(0 0.78125)"/>
       <use xlink:href="#DejaVuSans-Oblique-3c0" transform="translate(63.623047 0.78125)"/>
      </g>
     </g>
    </g>
    <g id="xtick_4">
     <g id="line2d_4">
      <g>
       <use xlink:href="#m294f355ef8" x="344.982274" y="312.51196" style="fill: #ffffff; stroke: #ffffff; stroke-width: 0.8"/>
      </g>
     </g>
     <g id="text_4">
      <!-- $2\pi + \tilde{\theta}$ -->
      <g style="fill: #ffffff" transform="translate(322.806274 333.28121) scale(0.144 -0.144)">
       <defs>
        <path id="DejaVuSans-2b" d="M 2944 4013 
L 2944 2272 
L 4684 2272 
L 4684 1741 
L 2944 1741 
L 2944 0 
L 2419 0 
L 2419 1741 
L 678 1741 
L 678 2272 
L 2419 2272 
L 2419 4013 
L 2944 4013 
z
" transform="scale(0.015625)"/>
       </defs>
       <use xlink:href="#DejaVuSans-32" transform="translate(0 0.96875)"/>
       <use xlink:href="#DejaVuSans-Oblique-3c0" transform="translate(63.623047 0.96875)"/>
       <use xlink:href="#DejaVuSans-2b" transform="translate(143.310547 0.96875)"/>
       <use xlink:href="#DejaVuSans-303" transform="translate(310.111816 26.3125)"/>
       <use xlink:href="#DejaVuSans-Oblique-3b8" transform="translate(246.582031 0.96875)"/>
      </g>
     </g>
    </g>
    <g id="text_5">
     <!-- $\theta$ [rad] -->
     <g style="fill: #c3d6dd" transform="translate(200.40052 353.40606) scale(0.1728 -0.1728)">
      <defs>
       <path id="DejaVuSans-20" transform="scale(0.015625)"/>
       <path id="DejaVuSans-5b" d="M 550 4863 
L 1875 4863 
L 1875 4416 
L 1125 4416 
L 1125 -397 
L 1875 -397 
L 1875 -844 
L 550 -844 
L 550 4863 
z
" transform="scale(0.015625)"/>
       <path id="DejaVuSans-72" d="M 2631 2963 
Q 2534 3019 2420 3045 
Q 2306 3072 2169 3072 
Q 1681 3072 1420 2755 
Q 1159 2438 1159 1844 
L 1159 0 
L 581 0 
L 581 3500 
L 1159 3500 
L 1159 2956 
Q 1341 3275 1631 3429 
Q 1922 3584 2338 3584 
Q 2397 3584 2469 3576 
Q 2541 3569 2628 3553 
L 2631 2963 
z
" transform="scale(0.015625)"/>
       <path id="DejaVuSans-61" d="M 2194 1759 
Q 1497 1759 1228 1600 
Q 959 1441 959 1056 
Q 959 750 1161 570 
Q 1363 391 1709 391 
Q 2188 391 2477 730 
Q 2766 1069 2766 1631 
L 2766 1759 
L 2194 1759 
z
M 3341 1997 
L 3341 0 
L 2766 0 
L 2766 531 
Q 2569 213 2275 61 
Q 1981 -91 1556 -91 
Q 1019 -91 701 211 
Q 384 513 384 1019 
Q 384 1609 779 1909 
Q 1175 2209 1959 2209 
L 2766 2209 
L 2766 2266 
Q 2766 2663 2505 2880 
Q 2244 3097 1772 3097 
Q 1472 3097 1187 3025 
Q 903 2953 641 2809 
L 641 3341 
Q 956 3463 1253 3523 
Q 1550 3584 1831 3584 
Q 2591 3584 2966 3190 
Q 3341 2797 3341 1997 
z
" transform="scale(0.015625)"/>
       <path id="DejaVuSans-64" d="M 2906 2969 
L 2906 4863 
L 3481 4863 
L 3481 0 
L 2906 0 
L 2906 525 
Q 2725 213 2448 61 
Q 2172 -91 1784 -91 
Q 1150 -91 751 415 
Q 353 922 353 1747 
Q 353 2572 751 3078 
Q 1150 3584 1784 3584 
Q 2172 3584 2448 3432 
Q 2725 3281 2906 2969 
z
M 947 1747 
Q 947 1113 1208 752 
Q 1469 391 1925 391 
Q 2381 391 2643 752 
Q 2906 1113 2906 1747 
Q 2906 2381 2643 2742 
Q 2381 3103 1925 3103 
Q 1469 3103 1208 2742 
Q 947 2381 947 1747 
z
" transform="scale(0.015625)"/>
       <path id="DejaVuSans-5d" d="M 1947 4863 
L 1947 -844 
L 622 -844 
L 622 -397 
L 1369 -397 
L 1369 4416 
L 622 4416 
L 622 4863 
L 1947 4863 
z
" transform="scale(0.015625)"/>
      </defs>
      <use xlink:href="#DejaVuSans-Oblique-3b8" transform="translate(0 0.234375)"/>
      <use xlink:href="#DejaVuSans-20" transform="translate(61.181641 0.234375)"/>
      <use xlink:href="#DejaVuSans-5b" transform="translate(92.96875 0.234375)"/>
      <use xlink:href="#DejaVuSans-72" transform="translate(131.982422 0.234375)"/>
      <use xlink:href="#DejaVuSans-61" transform="translate(173.095703 0.234375)"/>
      <use xlink:href="#DejaVuSans-64" transform="translate(234.375 0.234375)"/>
      <use xlink:href="#DejaVuSans-5d" transform="translate(297.851562 0.234375)"/>
     </g>
    </g>
   </g>
   <g id="matplotlib.axis_2">
    <g id="ytick_1">
     <g id="line2d_5">
      <defs>
       <path id="m2334522b2e" d="M 0 0 
L -5 0 
" style="stroke: #ffffff; stroke-width: 0.8"/>
      </defs>
      <g>
       <use xlink:href="#m2334522b2e" x="66.99464" y="263.639378" style="fill: #ffffff; stroke: #ffffff; stroke-width: 0.8"/>
      </g>
     </g>
     <g id="text_6">
      <!-- $-\frac{\tilde{\theta}}{|\omega|}$ -->
      <g style="fill: #ffffff" transform="translate(29.26264 272.063378) scale(0.144 -0.144)">
       <defs>
        <path id="DejaVuSans-2212" d="M 678 2272 
L 4684 2272 
L 4684 1741 
L 678 1741 
L 678 2272 
z
" transform="scale(0.015625)"/>
        <path id="DejaVuSans-7c" d="M 1344 4891 
L 1344 -1509 
L 813 -1509 
L 813 4891 
L 1344 4891 
z
" transform="scale(0.015625)"/>
        <path id="DejaVuSans-Oblique-3c9" d="M 1369 -91 
Q 72 -91 434 1766 
Q 575 2500 1256 3500 
L 1875 3500 
Q 1231 2500 1088 1750 
Q 819 397 1519 397 
Q 2166 397 2478 2078 
L 3009 2078 
Q 2669 388 3316 397 
Q 4013 403 4275 1750 
Q 4419 2500 4169 3500 
L 4788 3500 
Q 5075 2500 4934 1766 
Q 4578 -94 3278 -91 
Q 2428 -88 2503 844 
Q 2194 -91 1369 -91 
z
" transform="scale(0.015625)"/>
       </defs>
       <use xlink:href="#DejaVuSans-2212" transform="translate(0 0.29375)"/>
       <use xlink:href="#DejaVuSans-303" transform="translate(159.4021 62.629688) scale(0.7)"/>
       <use xlink:href="#DejaVuSans-Oblique-3b8" transform="translate(114.789062 44.878125) scale(0.7)"/>
       <use xlink:href="#DejaVuSans-7c" transform="translate(83.789062 -40.654687) scale(0.7)"/>
       <use xlink:href="#DejaVuSans-Oblique-3c9" transform="translate(107.373047 -40.654687) scale(0.7)"/>
       <use xlink:href="#DejaVuSans-7c" transform="translate(165.991211 -40.654687) scale(0.7)"/>
       <path d="M 83.789062 19.090625 
L 83.789062 25.340625 
L 189.575195 25.340625 
L 189.575195 19.090625 
L 83.789062 19.090625 
z
"/>
      </g>
     </g>
    </g>
    <g id="ytick_2">
     <g id="line2d_6">
      <g>
       <use xlink:href="#m2334522b2e" x="66.99464" y="206.86337" style="fill: #ffffff; stroke: #ffffff; stroke-width: 0.8"/>
      </g>
     </g>
     <g id="text_7">
      <!-- 0 -->
      <g style="fill: #ffffff" transform="translate(49.33264 212.334245) scale(0.144 -0.144)">
       <use xlink:href="#DejaVuSans-30"/>
      </g>
     </g>
    </g>
    <g id="ytick_3">
     <g id="line2d_7">
      <g>
       <use xlink:href="#m2334522b2e" x="66.99464" y="120.945707" style="fill: #ffffff; stroke: #ffffff; stroke-width: 0.8"/>
      </g>
     </g>
     <g id="text_8">
      <!-- $\frac{2\pi - \tilde{\theta}}{|\omega|}$ -->
      <g style="fill: #ffffff" transform="translate(25.66264 129.441707) scale(0.144 -0.144)">
       <use xlink:href="#DejaVuSans-32" transform="translate(0 45.878125) scale(0.7)"/>
       <use xlink:href="#DejaVuSans-Oblique-3c0" transform="translate(44.536133 45.878125) scale(0.7)"/>
       <use xlink:href="#DejaVuSans-2212" transform="translate(100.317383 45.878125) scale(0.7)"/>
       <use xlink:href="#DejaVuSans-303" transform="translate(217.220459 63.629688) scale(0.7)"/>
       <use xlink:href="#DejaVuSans-Oblique-3b8" transform="translate(172.607422 45.878125) scale(0.7)"/>
       <use xlink:href="#DejaVuSans-7c" transform="translate(55 -40.201562) scale(0.7)"/>
       <use xlink:href="#DejaVuSans-Oblique-3c9" transform="translate(78.583984 -40.201562) scale(0.7)"/>
       <use xlink:href="#DejaVuSans-7c" transform="translate(137.202148 -40.201562) scale(0.7)"/>
       <path d="M 0 19.54375 
L 0 25.79375 
L 215.43457 25.79375 
L 215.43457 19.54375 
L 0 19.54375 
z
"/>
      </g>
     </g>
    </g>
    <g id="ytick_4">
     <g id="line2d_8">
      <g>
       <use xlink:href="#m2334522b2e" x="66.99464" y="64.169699" style="fill: #ffffff; stroke: #ffffff; stroke-width: 0.8"/>
      </g>
     </g>
     <g id="text_9">
      <!-- $\frac{2\pi}{|\omega|}$ -->
      <g style="fill: #ffffff" transform="translate(41.35864 71.225699) scale(0.144 -0.144)">
       <use xlink:href="#DejaVuSans-32" transform="translate(10 46.046875) scale(0.7)"/>
       <use xlink:href="#DejaVuSans-Oblique-3c0" transform="translate(54.536133 46.046875) scale(0.7)"/>
       <use xlink:href="#DejaVuSans-7c" transform="translate(0 -40.032813) scale(0.7)"/>
       <use xlink:href="#DejaVuSans-Oblique-3c9" transform="translate(23.583984 -40.032813) scale(0.7)"/>
       <use xlink:href="#DejaVuSans-7c" transform="translate(82.202148 -40.032813) scale(0.7)"/>
       <path d="M 0 19.7125 
L 0 25.9625 
L 105.786133 25.9625 
L 105.786133 19.7125 
L 0 19.7125 
z
"/>
      </g>
     </g>
    </g>
    <g id="text_10">
     <!-- $\Delta t_g(\theta)$ -->
     <g style="fill: #c3d6dd" transform="translate(16.30584 192.72275) rotate(-90) scale(0.1728 -0.1728)">
      <defs>
       <path id="DejaVuSans-394" d="M 2188 4044 
L 906 525 
L 3472 525 
L 2188 4044 
z
M 50 0 
L 1831 4666 
L 2547 4666 
L 4325 0 
L 50 0 
z
" transform="scale(0.015625)"/>
       <path id="DejaVuSans-Oblique-74" d="M 2706 3500 
L 2619 3053 
L 1472 3053 
L 1100 1153 
Q 1081 1047 1072 975 
Q 1063 903 1063 863 
Q 1063 663 1183 572 
Q 1303 481 1569 481 
L 2150 481 
L 2053 0 
L 1503 0 
Q 991 0 739 200 
Q 488 400 488 806 
Q 488 878 497 964 
Q 506 1050 525 1153 
L 897 3053 
L 409 3053 
L 500 3500 
L 978 3500 
L 1172 4494 
L 1747 4494 
L 1556 3500 
L 2706 3500 
z
" transform="scale(0.015625)"/>
       <path id="DejaVuSans-Oblique-67" d="M 3816 3500 
L 3219 434 
Q 3047 -456 2561 -893 
Q 2075 -1331 1253 -1331 
Q 950 -1331 690 -1286 
Q 431 -1241 206 -1147 
L 313 -588 
Q 525 -725 762 -790 
Q 1000 -856 1269 -856 
Q 1816 -856 2167 -557 
Q 2519 -259 2631 300 
L 2681 563 
Q 2441 288 2122 144 
Q 1803 0 1434 0 
Q 903 0 598 351 
Q 294 703 294 1319 
Q 294 1803 478 2267 
Q 663 2731 997 3091 
Q 1219 3328 1514 3456 
Q 1809 3584 2131 3584 
Q 2484 3584 2746 3420 
Q 3009 3256 3138 2956 
L 3238 3500 
L 3816 3500 
z
M 2950 2216 
Q 2950 2641 2750 2872 
Q 2550 3103 2181 3103 
Q 1953 3103 1747 3012 
Q 1541 2922 1394 2759 
Q 1156 2491 1023 2127 
Q 891 1763 891 1375 
Q 891 944 1092 712 
Q 1294 481 1672 481 
Q 2219 481 2584 976 
Q 2950 1472 2950 2216 
z
" transform="scale(0.015625)"/>
       <path id="DejaVuSans-28" d="M 1984 4856 
Q 1566 4138 1362 3434 
Q 1159 2731 1159 2009 
Q 1159 1288 1364 580 
Q 1569 -128 1984 -844 
L 1484 -844 
Q 1016 -109 783 600 
Q 550 1309 550 2009 
Q 550 2706 781 3412 
Q 1013 4119 1484 4856 
L 1984 4856 
z
" transform="scale(0.015625)"/>
       <path id="DejaVuSans-29" d="M 513 4856 
L 1013 4856 
Q 1481 4119 1714 3412 
Q 1947 2706 1947 2009 
Q 1947 1309 1714 600 
Q 1481 -109 1013 -844 
L 513 -844 
Q 928 -128 1133 580 
Q 1338 1288 1338 2009 
Q 1338 2731 1133 3434 
Q 928 4138 513 4856 
z
" transform="scale(0.015625)"/>
      </defs>
      <use xlink:href="#DejaVuSans-394" transform="translate(0 0.234375)"/>
      <use xlink:href="#DejaVuSans-Oblique-74" transform="translate(68.408203 0.234375)"/>
      <use xlink:href="#DejaVuSans-Oblique-67" transform="translate(107.617188 -16.171875) scale(0.7)"/>
      <use xlink:href="#DejaVuSans-28" transform="translate(154.785156 0.234375)"/>
      <use xlink:href="#DejaVuSans-Oblique-3b8" transform="translate(193.798828 0.234375)"/>
      <use xlink:href="#DejaVuSans-29" transform="translate(254.980469 0.234375)"/>
     </g>
    </g>
   </g>
   <g id="line2d_9">
    <path d="M 121.701291 312.51196 
L 121.701291 22.13034 
" clip-path="url(#pfa868ea477)" style="fill: none; stroke-dasharray: 1.5,2.475; stroke-dashoffset: 0; stroke: #cccccc; stroke-width: 1.5"/>
   </g>
   <g id="line2d_10">
    <path d="M 185.254824 312.51196 
L 185.254824 22.13034 
" clip-path="url(#pfa868ea477)" style="fill: none; stroke-dasharray: 1.5,2.475; stroke-dashoffset: 0; stroke: #808080; stroke-width: 1.5"/>
   </g>
   <g id="line2d_11">
    <path d="M 281.428741 312.51196 
L 281.428741 22.13034 
" clip-path="url(#pfa868ea477)" style="fill: none; stroke-dasharray: 1.5,2.475; stroke-dashoffset: 0; stroke: #808080; stroke-width: 1.5"/>
   </g>
   <g id="line2d_12">
    <path d="M 344.982274 312.51196 
L 344.982274 22.13034 
" clip-path="url(#pfa868ea477)" style="fill: none; stroke-dasharray: 1.5,2.475; stroke-dashoffset: 0; stroke: #808080; stroke-width: 1.5"/>
   </g>
   <g id="line2d_13">
    <path d="M 66.99464 263.639378 
L 392.04 263.639378 
" clip-path="url(#pfa868ea477)" style="fill: none; stroke-dasharray: 1.5,2.475; stroke-dashoffset: 0; stroke: #808080; stroke-width: 1.5"/>
   </g>
   <g id="line2d_14">
    <path d="M 66.99464 206.86337 
L 392.04 206.86337 
" clip-path="url(#pfa868ea477)" style="fill: none; stroke-dasharray: 1.5,2.475; stroke-dashoffset: 0; stroke: #cccccc; stroke-width: 1.5"/>
   </g>
   <g id="line2d_15">
    <path d="M 66.99464 120.945707 
L 392.04 120.945707 
" clip-path="url(#pfa868ea477)" style="fill: none; stroke-dasharray: 1.5,2.475; stroke-dashoffset: 0; stroke: #808080; stroke-width: 1.5"/>
   </g>
   <g id="line2d_16">
    <path d="M 66.99464 64.169699 
L 392.04 64.169699 
" clip-path="url(#pfa868ea477)" style="fill: none; stroke-dasharray: 1.5,2.475; stroke-dashoffset: 0; stroke: #808080; stroke-width: 1.5"/>
   </g>
   <g id="line2d_17">
    <path d="M 81.769429 299.312795 
L 377.265211 35.329505 
" clip-path="url(#pfa868ea477)" style="fill: none; stroke: #8dd3c7; stroke-width: 2; stroke-linecap: square"/>
   </g>
   <g id="line2d_18">
    <path d="M 81.769429 156.619125 
L 84.754235 153.952627 
L 87.739041 151.286129 
L 90.723847 148.619631 
L 93.708653 145.953133 
L 96.693458 143.286635 
L 99.678264 140.620137 
L 102.66307 137.953639 
L 105.647876 135.287142 
L 108.632682 132.620644 
L 111.617488 129.954146 
L 114.602294 127.287648 
L 117.5871 124.62115 
L 120.571905 121.954652 
L 123.556711 119.288154 
L 126.541517 116.621656 
L 129.526323 113.955158 
L 132.511129 111.288661 
L 135.495935 108.622163 
L 138.480741 105.955665 
L 141.465547 103.289167 
L 144.450353 100.622669 
L 147.435158 97.956171 
L 150.419964 95.289673 
L 153.40477 92.623175 
L 156.389576 89.956677 
L 159.374382 87.29018 
L 162.359188 84.623682 
L 165.343994 81.957184 
L 168.3288 79.290686 
L 171.313605 76.624188 
L 174.298411 73.95769 
L 177.283217 71.291192 
L 180.268023 68.624694 
L 183.252829 65.958197 
L 186.237635 205.985369 
L 189.222441 203.318871 
L 192.207247 200.652374 
L 195.192052 197.985876 
L 198.176858 195.319378 
L 201.161664 192.65288 
L 204.14647 189.986382 
L 207.131276 187.319884 
L 210.116082 184.653386 
L 213.100888 181.986888 
L 216.085694 179.32039 
L 219.070499 176.653893 
L 222.055305 173.987395 
L 225.040111 171.320897 
L 228.024917 168.654399 
L 231.009723 165.987901 
L 233.994529 163.321403 
L 236.979335 160.654905 
L 239.964141 157.988407 
L 242.948946 155.32191 
L 245.933752 152.655412 
L 248.918558 149.988914 
L 251.903364 147.322416 
L 254.88817 144.655918 
L 257.872976 141.98942 
L 260.857782 139.322922 
L 263.842588 136.656424 
L 266.827393 133.989926 
L 269.812199 131.323429 
L 272.797005 128.656931 
L 275.781811 125.990433 
L 278.766617 123.323935 
L 281.751423 120.657437 
L 284.736229 117.990939 
L 287.721035 115.324441 
L 290.70584 112.657943 
L 293.690646 109.991445 
L 296.675452 107.324948 
L 299.660258 104.65845 
L 302.645064 101.991952 
L 305.62987 99.325454 
L 308.614676 96.658956 
L 311.599482 93.992458 
L 314.584287 91.32596 
L 317.569093 88.659462 
L 320.553899 85.992964 
L 323.538705 83.326467 
L 326.523511 80.659969 
L 329.508317 77.993471 
L 332.493123 75.326973 
L 335.477929 72.660475 
L 338.462735 69.993977 
L 341.44754 67.327479 
L 344.432346 64.660981 
L 347.417152 204.688154 
L 350.401958 202.021656 
L 353.386764 199.355158 
L 356.37157 196.688661 
L 359.356376 194.022163 
L 362.341182 191.355665 
L 365.325987 188.689167 
L 368.310793 186.022669 
L 371.295599 183.356171 
L 374.280405 180.689673 
L 377.265211 178.023175 
" clip-path="url(#pfa868ea477)" style="fill: none; stroke: #feffb3; stroke-width: 2; stroke-linecap: square"/>
   </g>
   <g id="patch_4">
    <path d="M 66.99464 312.51196 
L 66.99464 22.13034 
" style="fill: none; stroke: #c3d6dd; stroke-width: 0.8; stroke-linejoin: miter; stroke-linecap: square"/>
   </g>
   <g id="patch_5">
    <path d="M 392.04 312.51196 
L 392.04 22.13034 
" style="fill: none; stroke: #c3d6dd; stroke-width: 0.8; stroke-linejoin: miter; stroke-linecap: square"/>
   </g>
   <g id="patch_6">
    <path d="M 66.99464 312.51196 
L 392.04 312.51196 
" style="fill: none; stroke: #c3d6dd; stroke-width: 0.8; stroke-linejoin: miter; stroke-linecap: square"/>
   </g>
   <g id="patch_7">
    <path d="M 66.99464 22.13034 
L 392.04 22.13034 
" style="fill: none; stroke: #c3d6dd; stroke-width: 0.8; stroke-linejoin: miter; stroke-linecap: square"/>
   </g>
   <g id="text_11">
    <!-- Clockwise -->
    <g style="fill: #c3d6dd" transform="translate(186.76012 16.13034) scale(0.1728 -0.1728)">
     <defs>
      <path id="DejaVuSans-43" d="M 4122 4306 
L 4122 3641 
Q 3803 3938 3442 4084 
Q 3081 4231 2675 4231 
Q 1875 4231 1450 3742 
Q 1025 3253 1025 2328 
Q 1025 1406 1450 917 
Q 1875 428 2675 428 
Q 3081 428 3442 575 
Q 3803 722 4122 1019 
L 4122 359 
Q 3791 134 3420 21 
Q 3050 -91 2638 -91 
Q 1578 -91 968 557 
Q 359 1206 359 2328 
Q 359 3453 968 4101 
Q 1578 4750 2638 4750 
Q 3056 4750 3426 4639 
Q 3797 4528 4122 4306 
z
" transform="scale(0.015625)"/>
      <path id="DejaVuSans-6c" d="M 603 4863 
L 1178 4863 
L 1178 0 
L 603 0 
L 603 4863 
z
" transform="scale(0.015625)"/>
      <path id="DejaVuSans-6f" d="M 1959 3097 
Q 1497 3097 1228 2736 
Q 959 2375 959 1747 
Q 959 1119 1226 758 
Q 1494 397 1959 397 
Q 2419 397 2687 759 
Q 2956 1122 2956 1747 
Q 2956 2369 2687 2733 
Q 2419 3097 1959 3097 
z
M 1959 3584 
Q 2709 3584 3137 3096 
Q 3566 2609 3566 1747 
Q 3566 888 3137 398 
Q 2709 -91 1959 -91 
Q 1206 -91 779 398 
Q 353 888 353 1747 
Q 353 2609 779 3096 
Q 1206 3584 1959 3584 
z
" transform="scale(0.015625)"/>
      <path id="DejaVuSans-63" d="M 3122 3366 
L 3122 2828 
Q 2878 2963 2633 3030 
Q 2388 3097 2138 3097 
Q 1578 3097 1268 2742 
Q 959 2388 959 1747 
Q 959 1106 1268 751 
Q 1578 397 2138 397 
Q 2388 397 2633 464 
Q 2878 531 3122 666 
L 3122 134 
Q 2881 22 2623 -34 
Q 2366 -91 2075 -91 
Q 1284 -91 818 406 
Q 353 903 353 1747 
Q 353 2603 823 3093 
Q 1294 3584 2113 3584 
Q 2378 3584 2631 3529 
Q 2884 3475 3122 3366 
z
" transform="scale(0.015625)"/>
      <path id="DejaVuSans-6b" d="M 581 4863 
L 1159 4863 
L 1159 1991 
L 2875 3500 
L 3609 3500 
L 1753 1863 
L 3688 0 
L 2938 0 
L 1159 1709 
L 1159 0 
L 581 0 
L 581 4863 
z
" transform="scale(0.015625)"/>
      <path id="DejaVuSans-77" d="M 269 3500 
L 844 3500 
L 1563 769 
L 2278 3500 
L 2956 3500 
L 3675 769 
L 4391 3500 
L 4966 3500 
L 4050 0 
L 3372 0 
L 2619 2869 
L 1863 0 
L 1184 0 
L 269 3500 
z
" transform="scale(0.015625)"/>
      <path id="DejaVuSans-69" d="M 603 3500 
L 1178 3500 
L 1178 0 
L 603 0 
L 603 3500 
z
M 603 4863 
L 1178 4863 
L 1178 4134 
L 603 4134 
L 603 4863 
z
" transform="scale(0.015625)"/>
      <path id="DejaVuSans-73" d="M 2834 3397 
L 2834 2853 
Q 2591 2978 2328 3040 
Q 2066 3103 1784 3103 
Q 1356 3103 1142 2972 
Q 928 2841 928 2578 
Q 928 2378 1081 2264 
Q 1234 2150 1697 2047 
L 1894 2003 
Q 2506 1872 2764 1633 
Q 3022 1394 3022 966 
Q 3022 478 2636 193 
Q 2250 -91 1575 -91 
Q 1294 -91 989 -36 
Q 684 19 347 128 
L 347 722 
Q 666 556 975 473 
Q 1284 391 1588 391 
Q 1994 391 2212 530 
Q 2431 669 2431 922 
Q 2431 1156 2273 1281 
Q 2116 1406 1581 1522 
L 1381 1569 
Q 847 1681 609 1914 
Q 372 2147 372 2553 
Q 372 3047 722 3315 
Q 1072 3584 1716 3584 
Q 2034 3584 2315 3537 
Q 2597 3491 2834 3397 
z
" transform="scale(0.015625)"/>
      <path id="DejaVuSans-65" d="M 3597 1894 
L 3597 1613 
L 953 1613 
Q 991 1019 1311 708 
Q 1631 397 2203 397 
Q 2534 397 2845 478 
Q 3156 559 3463 722 
L 3463 178 
Q 3153 47 2828 -22 
Q 2503 -91 2169 -91 
Q 1331 -91 842 396 
Q 353 884 353 1716 
Q 353 2575 817 3079 
Q 1281 3584 2069 3584 
Q 2775 3584 3186 3129 
Q 3597 2675 3597 1894 
z
M 3022 2063 
Q 3016 2534 2758 2815 
Q 2500 3097 2075 3097 
Q 1594 3097 1305 2825 
Q 1016 2553 972 2059 
L 3022 2063 
z
" transform="scale(0.015625)"/>
     </defs>
     <use xlink:href="#DejaVuSans-43"/>
     <use xlink:href="#DejaVuSans-6c" x="69.824219"/>
     <use xlink:href="#DejaVuSans-6f" x="97.607422"/>
     <use xlink:href="#DejaVuSans-63" x="158.789062"/>
     <use xlink:href="#DejaVuSans-6b" x="213.769531"/>
     <use xlink:href="#DejaVuSans-77" x="271.679688"/>
     <use xlink:href="#DejaVuSans-69" x="353.466797"/>
     <use xlink:href="#DejaVuSans-73" x="381.25"/>
     <use xlink:href="#DejaVuSans-65" x="433.349609"/>
    </g>
   </g>
  </g>
  <g id="axes_2">
   <g id="patch_8">
    <path d="M 463.9544 312.51196 
L 788.99976 312.51196 
L 788.99976 22.13034 
L 463.9544 22.13034 
z
" style="fill: #14181e"/>
   </g>
   <g id="patch_9">
    <path d="M 518.661051 213.696593 
L 678.388501 213.696593 
L 678.388501 71.002922 
L 518.661051 71.002922 
z
" clip-path="url(#p4eb567a5b0)" style="fill: #808080; fill-opacity: 0.25098"/>
   </g>
   <g id="matplotlib.axis_3">
    <g id="xtick_5">
     <g id="line2d_19">
      <g>
       <use xlink:href="#m294f355ef8" x="518.661051" y="312.51196" style="fill: #ffffff; stroke: #ffffff; stroke-width: 0.8"/>
      </g>
     </g>
     <g id="text_12">
      <!-- 0 -->
      <g style="fill: #ffffff" transform="translate(514.080051 331.95371) scale(0.144 -0.144)">
       <use xlink:href="#DejaVuSans-30"/>
      </g>
     </g>
    </g>
    <g id="xtick_6">
     <g id="line2d_20">
      <g>
       <use xlink:href="#m294f355ef8" x="582.214584" y="312.51196" style="fill: #ffffff; stroke: #ffffff; stroke-width: 0.8"/>
      </g>
     </g>
     <g id="text_13">
      <!-- $\tilde{\theta}$ -->
      <g style="fill: #ffffff" transform="translate(577.750584 333.28121) scale(0.144 -0.144)">
       <use xlink:href="#DejaVuSans-303" transform="translate(63.529785 26.3125)"/>
       <use xlink:href="#DejaVuSans-Oblique-3b8" transform="translate(0 0.96875)"/>
      </g>
     </g>
    </g>
    <g id="xtick_7">
     <g id="line2d_21">
      <g>
       <use xlink:href="#m294f355ef8" x="678.388501" y="312.51196" style="fill: #ffffff; stroke: #ffffff; stroke-width: 0.8"/>
      </g>
     </g>
     <g id="text_14">
      <!-- $2\pi$ -->
      <g style="fill: #ffffff" transform="translate(669.460501 331.95371) scale(0.144 -0.144)">
       <use xlink:href="#DejaVuSans-32" transform="translate(0 0.78125)"/>
       <use xlink:href="#DejaVuSans-Oblique-3c0" transform="translate(63.623047 0.78125)"/>
      </g>
     </g>
    </g>
    <g id="xtick_8">
     <g id="line2d_22">
      <g>
       <use xlink:href="#m294f355ef8" x="741.942034" y="312.51196" style="fill: #ffffff; stroke: #ffffff; stroke-width: 0.8"/>
      </g>
     </g>
     <g id="text_15">
      <!-- $2\pi+\tilde{\theta}$ -->
      <g style="fill: #ffffff" transform="translate(719.766034 333.28121) scale(0.144 -0.144)">
       <use xlink:href="#DejaVuSans-32" transform="translate(0 0.96875)"/>
       <use xlink:href="#DejaVuSans-Oblique-3c0" transform="translate(63.623047 0.96875)"/>
       <use xlink:href="#DejaVuSans-2b" transform="translate(143.310547 0.96875)"/>
       <use xlink:href="#DejaVuSans-303" transform="translate(310.111816 26.3125)"/>
       <use xlink:href="#DejaVuSans-Oblique-3b8" transform="translate(246.582031 0.96875)"/>
      </g>
     </g>
    </g>
    <g id="text_16">
     <!-- $\theta$ [rad] -->
     <g style="fill: #c3d6dd" transform="translate(597.36028 353.40606) scale(0.1728 -0.1728)">
      <use xlink:href="#DejaVuSans-Oblique-3b8" transform="translate(0 0.234375)"/>
      <use xlink:href="#DejaVuSans-20" transform="translate(61.181641 0.234375)"/>
      <use xlink:href="#DejaVuSans-5b" transform="translate(92.96875 0.234375)"/>
      <use xlink:href="#DejaVuSans-72" transform="translate(131.982422 0.234375)"/>
      <use xlink:href="#DejaVuSans-61" transform="translate(173.095703 0.234375)"/>
      <use xlink:href="#DejaVuSans-64" transform="translate(234.375 0.234375)"/>
      <use xlink:href="#DejaVuSans-5d" transform="translate(297.851562 0.234375)"/>
     </g>
    </g>
   </g>
   <g id="matplotlib.axis_4">
    <g id="ytick_5">
     <g id="line2d_23">
      <g>
       <use xlink:href="#m2334522b2e" x="463.9544" y="270.472601" style="fill: #ffffff; stroke: #ffffff; stroke-width: 0.8"/>
      </g>
     </g>
     <g id="text_17">
      <!-- 0 -->
      <g style="fill: #ffffff" transform="translate(446.2924 275.943476) scale(0.144 -0.144)">
       <use xlink:href="#DejaVuSans-30"/>
      </g>
     </g>
    </g>
    <g id="ytick_6">
     <g id="line2d_24">
      <g>
       <use xlink:href="#m2334522b2e" x="463.9544" y="213.696593" style="fill: #ffffff; stroke: #ffffff; stroke-width: 0.8"/>
      </g>
     </g>
     <g id="text_18">
      <!-- $\frac{\tilde{\theta}}{\omega}$ -->
      <g style="fill: #ffffff" transform="translate(445.0864 222.120593) scale(0.144 -0.144)">
       <use xlink:href="#DejaVuSans-303" transform="translate(52.613037 62.629688) scale(0.7)"/>
       <use xlink:href="#DejaVuSans-Oblique-3b8" transform="translate(8 44.878125) scale(0.7)"/>
       <use xlink:href="#DejaVuSans-Oblique-3c9" transform="translate(0 -25.440625) scale(0.7)"/>
       <path d="M 0 19.090625 
L 0 25.340625 
L 58.618164 25.340625 
L 58.618164 19.090625 
L 0 19.090625 
z
"/>
      </g>
     </g>
    </g>
    <g id="ytick_7">
     <g id="line2d_25">
      <g>
       <use xlink:href="#m2334522b2e" x="463.9544" y="127.77893" style="fill: #ffffff; stroke: #ffffff; stroke-width: 0.8"/>
      </g>
     </g>
     <g id="text_19">
      <!-- $\frac{2\pi}{\omega}$ -->
      <g style="fill: #ffffff" transform="translate(441.0544 134.83493) scale(0.144 -0.144)">
       <use xlink:href="#DejaVuSans-32" transform="translate(0 46.046875) scale(0.7)"/>
       <use xlink:href="#DejaVuSans-Oblique-3c0" transform="translate(44.536133 46.046875) scale(0.7)"/>
       <use xlink:href="#DejaVuSans-Oblique-3c9" transform="translate(14 -24.81875) scale(0.7)"/>
       <path d="M 0 19.7125 
L 0 25.9625 
L 86.679688 25.9625 
L 86.679688 19.7125 
L 0 19.7125 
z
"/>
      </g>
     </g>
    </g>
    <g id="ytick_8">
     <g id="line2d_26">
      <g>
       <use xlink:href="#m2334522b2e" x="463.9544" y="71.002922" style="fill: #ffffff; stroke: #ffffff; stroke-width: 0.8"/>
      </g>
     </g>
     <g id="text_20">
      <!-- $\frac{2\pi+\tilde{\theta}}{\omega}$ -->
      <g style="fill: #ffffff" transform="translate(422.6224 79.498922) scale(0.144 -0.144)">
       <use xlink:href="#DejaVuSans-32" transform="translate(0 45.878125) scale(0.7)"/>
       <use xlink:href="#DejaVuSans-Oblique-3c0" transform="translate(44.536133 45.878125) scale(0.7)"/>
       <use xlink:href="#DejaVuSans-2b" transform="translate(100.317383 45.878125) scale(0.7)"/>
       <use xlink:href="#DejaVuSans-303" transform="translate(217.220459 63.629688) scale(0.7)"/>
       <use xlink:href="#DejaVuSans-Oblique-3b8" transform="translate(172.607422 45.878125) scale(0.7)"/>
       <use xlink:href="#DejaVuSans-Oblique-3c9" transform="translate(78 -24.9875) scale(0.7)"/>
       <path d="M 0 19.54375 
L 0 25.79375 
L 215.43457 25.79375 
L 215.43457 19.54375 
L 0 19.54375 
z
"/>
      </g>
     </g>
    </g>
    <g id="text_21">
     <!-- $\Delta t_g(\theta)$ [s] -->
     <g style="fill: #c3d6dd" transform="translate(413.2656 206.71955) rotate(-90) scale(0.1728 -0.1728)">
      <use xlink:href="#DejaVuSans-394" transform="translate(0 0.234375)"/>
      <use xlink:href="#DejaVuSans-Oblique-74" transform="translate(68.408203 0.234375)"/>
      <use xlink:href="#DejaVuSans-Oblique-67" transform="translate(107.617188 -16.171875) scale(0.7)"/>
      <use xlink:href="#DejaVuSans-28" transform="translate(154.785156 0.234375)"/>
      <use xlink:href="#DejaVuSans-Oblique-3b8" transform="translate(193.798828 0.234375)"/>
      <use xlink:href="#DejaVuSans-29" transform="translate(254.980469 0.234375)"/>
      <use xlink:href="#DejaVuSans-20" transform="translate(293.994141 0.234375)"/>
      <use xlink:href="#DejaVuSans-5b" transform="translate(325.78125 0.234375)"/>
      <use xlink:href="#DejaVuSans-73" transform="translate(364.794922 0.234375)"/>
      <use xlink:href="#DejaVuSans-5d" transform="translate(416.894531 0.234375)"/>
     </g>
    </g>
   </g>
   <g id="line2d_27">
    <path d="M 518.661051 312.51196 
L 518.661051 22.13034 
" clip-path="url(#p4eb567a5b0)" style="fill: none; stroke-dasharray: 1.5,2.475; stroke-dashoffset: 0; stroke: #cccccc; stroke-width: 1.5"/>
   </g>
   <g id="line2d_28">
    <path d="M 582.214584 312.51196 
L 582.214584 22.13034 
" clip-path="url(#p4eb567a5b0)" style="fill: none; stroke-dasharray: 1.5,2.475; stroke-dashoffset: 0; stroke: #808080; stroke-width: 1.5"/>
   </g>
   <g id="line2d_29">
    <path d="M 678.388501 312.51196 
L 678.388501 22.13034 
" clip-path="url(#p4eb567a5b0)" style="fill: none; stroke-dasharray: 1.5,2.475; stroke-dashoffset: 0; stroke: #808080; stroke-width: 1.5"/>
   </g>
   <g id="line2d_30">
    <path d="M 741.942034 312.51196 
L 741.942034 22.13034 
" clip-path="url(#p4eb567a5b0)" style="fill: none; stroke-dasharray: 1.5,2.475; stroke-dashoffset: 0; stroke: #808080; stroke-width: 1.5"/>
   </g>
   <g id="line2d_31">
    <path d="M 463.9544 270.472601 
L 788.99976 270.472601 
" clip-path="url(#p4eb567a5b0)" style="fill: none; stroke-dasharray: 1.5,2.475; stroke-dashoffset: 0; stroke: #cccccc; stroke-width: 1.5"/>
   </g>
   <g id="line2d_32">
    <path d="M 463.9544 213.696593 
L 788.99976 213.696593 
" clip-path="url(#p4eb567a5b0)" style="fill: none; stroke-dasharray: 1.5,2.475; stroke-dashoffset: 0; stroke: #808080; stroke-width: 1.5"/>
   </g>
   <g id="line2d_33">
    <path d="M 463.9544 127.77893 
L 788.99976 127.77893 
" clip-path="url(#p4eb567a5b0)" style="fill: none; stroke-dasharray: 1.5,2.475; stroke-dashoffset: 0; stroke: #808080; stroke-width: 1.5"/>
   </g>
   <g id="line2d_34">
    <path d="M 463.9544 71.002922 
L 788.99976 71.002922 
" clip-path="url(#p4eb567a5b0)" style="fill: none; stroke-dasharray: 1.5,2.475; stroke-dashoffset: 0; stroke: #808080; stroke-width: 1.5"/>
   </g>
   <g id="line2d_35">
    <path d="M 478.729189 35.329505 
L 774.224971 299.312795 
" clip-path="url(#p4eb567a5b0)" style="fill: none; stroke: #8dd3c7; stroke-width: 2; stroke-linecap: square"/>
   </g>
   <g id="line2d_36">
    <path d="M 478.729189 178.023175 
L 481.713995 180.689673 
L 484.698801 183.356171 
L 487.683607 186.022669 
L 490.668413 188.689167 
L 493.653218 191.355665 
L 496.638024 194.022163 
L 499.62283 196.688661 
L 502.607636 199.355158 
L 505.592442 202.021656 
L 508.577248 204.688154 
L 511.562054 207.354652 
L 514.54686 210.02115 
L 517.531665 212.687648 
L 520.516471 215.354146 
L 523.501277 218.020644 
L 526.486083 220.687142 
L 529.470889 223.353639 
L 532.455695 226.020137 
L 535.440501 228.686635 
L 538.425307 231.353133 
L 541.410113 234.019631 
L 544.394918 236.686129 
L 547.379724 239.352627 
L 550.36453 242.019125 
L 553.349336 244.685623 
L 556.334142 247.35212 
L 559.318948 250.018618 
L 562.303754 252.685116 
L 565.28856 255.351614 
L 568.273365 258.018112 
L 571.258171 260.68461 
L 574.242977 263.351108 
L 577.227783 266.017606 
L 580.212589 268.684103 
L 583.197395 128.656931 
L 586.182201 131.323429 
L 589.167007 133.989926 
L 592.151812 136.656424 
L 595.136618 139.322922 
L 598.121424 141.98942 
L 601.10623 144.655918 
L 604.091036 147.322416 
L 607.075842 149.988914 
L 610.060648 152.655412 
L 613.045454 155.32191 
L 616.030259 157.988407 
L 619.015065 160.654905 
L 621.999871 163.321403 
L 624.984677 165.987901 
L 627.969483 168.654399 
L 630.954289 171.320897 
L 633.939095 173.987395 
L 636.923901 176.653893 
L 639.908706 179.32039 
L 642.893512 181.986888 
L 645.878318 184.653386 
L 648.863124 187.319884 
L 651.84793 189.986382 
L 654.832736 192.65288 
L 657.817542 195.319378 
L 660.802348 197.985876 
L 663.787153 200.652374 
L 666.771959 203.318871 
L 669.756765 205.985369 
L 672.741571 208.651867 
L 675.726377 211.318365 
L 678.711183 213.984863 
L 681.695989 216.651361 
L 684.680795 219.317859 
L 687.6656 221.984357 
L 690.650406 224.650855 
L 693.635212 227.317352 
L 696.620018 229.98385 
L 699.604824 232.650348 
L 702.58963 235.316846 
L 705.574436 237.983344 
L 708.559242 240.649842 
L 711.544047 243.31634 
L 714.528853 245.982838 
L 717.513659 248.649336 
L 720.498465 251.315833 
L 723.483271 253.982331 
L 726.468077 256.648829 
L 729.452883 259.315327 
L 732.437689 261.981825 
L 735.422495 264.648323 
L 738.4073 267.314821 
L 741.392106 269.981319 
L 744.376912 129.954146 
L 747.361718 132.620644 
L 750.346524 135.287142 
L 753.33133 137.953639 
L 756.316136 140.620137 
L 759.300942 143.286635 
L 762.285747 145.953133 
L 765.270553 148.619631 
L 768.255359 151.286129 
L 771.240165 153.952627 
L 774.224971 156.619125 
" clip-path="url(#p4eb567a5b0)" style="fill: none; stroke: #feffb3; stroke-width: 2; stroke-linecap: square"/>
   </g>
   <g id="patch_10">
    <path d="M 463.9544 312.51196 
L 463.9544 22.13034 
" style="fill: none; stroke: #c3d6dd; stroke-width: 0.8; stroke-linejoin: miter; stroke-linecap: square"/>
   </g>
   <g id="patch_11">
    <path d="M 788.99976 312.51196 
L 788.99976 22.13034 
" style="fill: none; stroke: #c3d6dd; stroke-width: 0.8; stroke-linejoin: miter; stroke-linecap: square"/>
   </g>
   <g id="patch_12">
    <path d="M 463.9544 312.51196 
L 788.99976 312.51196 
" style="fill: none; stroke: #c3d6dd; stroke-width: 0.8; stroke-linejoin: miter; stroke-linecap: square"/>
   </g>
   <g id="patch_13">
    <path d="M 463.9544 22.13034 
L 788.99976 22.13034 
" style="fill: none; stroke: #c3d6dd; stroke-width: 0.8; stroke-linejoin: miter; stroke-linecap: square"/>
   </g>
   <g id="text_22">
    <!-- Anticlockwise -->
    <g style="fill: #c3d6dd" transform="translate(567.82903 16.13034) scale(0.1728 -0.1728)">
     <defs>
      <path id="DejaVuSans-41" d="M 2188 4044 
L 1331 1722 
L 3047 1722 
L 2188 4044 
z
M 1831 4666 
L 2547 4666 
L 4325 0 
L 3669 0 
L 3244 1197 
L 1141 1197 
L 716 0 
L 50 0 
L 1831 4666 
z
" transform="scale(0.015625)"/>
      <path id="DejaVuSans-6e" d="M 3513 2113 
L 3513 0 
L 2938 0 
L 2938 2094 
Q 2938 2591 2744 2837 
Q 2550 3084 2163 3084 
Q 1697 3084 1428 2787 
Q 1159 2491 1159 1978 
L 1159 0 
L 581 0 
L 581 3500 
L 1159 3500 
L 1159 2956 
Q 1366 3272 1645 3428 
Q 1925 3584 2291 3584 
Q 2894 3584 3203 3211 
Q 3513 2838 3513 2113 
z
" transform="scale(0.015625)"/>
      <path id="DejaVuSans-74" d="M 1172 4494 
L 1172 3500 
L 2356 3500 
L 2356 3053 
L 1172 3053 
L 1172 1153 
Q 1172 725 1289 603 
Q 1406 481 1766 481 
L 2356 481 
L 2356 0 
L 1766 0 
Q 1100 0 847 248 
Q 594 497 594 1153 
L 594 3053 
L 172 3053 
L 172 3500 
L 594 3500 
L 594 4494 
L 1172 4494 
z
" transform="scale(0.015625)"/>
     </defs>
     <use xlink:href="#DejaVuSans-41"/>
     <use xlink:href="#DejaVuSans-6e" x="68.408203"/>
     <use xlink:href="#DejaVuSans-74" x="131.787109"/>
     <use xlink:href="#DejaVuSans-69" x="170.996094"/>
     <use xlink:href="#DejaVuSans-63" x="198.779297"/>
     <use xlink:href="#DejaVuSans-6c" x="253.759766"/>
     <use xlink:href="#DejaVuSans-6f" x="281.542969"/>
     <use xlink:href="#DejaVuSans-63" x="342.724609"/>
     <use xlink:href="#DejaVuSans-6b" x="397.705078"/>
     <use xlink:href="#DejaVuSans-77" x="455.615234"/>
     <use xlink:href="#DejaVuSans-69" x="537.402344"/>
     <use xlink:href="#DejaVuSans-73" x="565.185547"/>
     <use xlink:href="#DejaVuSans-65" x="617.285156"/>
    </g>
   </g>
  </g>
 </g>
 <defs>
  <clipPath id="pfa868ea477">
   <rect x="66.99464" y="22.13034" width="325.04536" height="290.38162"/>
  </clipPath>
  <clipPath id="p4eb567a5b0">
   <rect x="463.9544" y="22.13034" width="325.04536" height="290.38162"/>
  </clipPath>
 </defs>
</svg>
