<?xml version="1.0" encoding="UTF-8" standalone="no"?>
<!-- Created with Inkscape (http://www.inkscape.org/) -->

<svg
   width="146.95078mm"
   height="45.629086mm"
   viewBox="0 0 146.95078 45.629086"
   version="1.1"
   id="svg8"
   sodipodi:docname="logo.svg"
   inkscape:version="1.3.1 (91b66b0783, 2023-11-16, custom)"
   xmlns:inkscape="http://www.inkscape.org/namespaces/inkscape"
   xmlns:sodipodi="http://sodipodi.sourceforge.net/DTD/sodipodi-0.dtd"
   xmlns="http://www.w3.org/2000/svg"
   xmlns:svg="http://www.w3.org/2000/svg"
   xmlns:rdf="http://www.w3.org/1999/02/22-rdf-syntax-ns#"
   xmlns:cc="http://creativecommons.org/ns#"
   xmlns:dc="http://purl.org/dc/elements/1.1/">
  <sodipodi:namedview
     id="namedview1"
     pagecolor="#ffffff"
     bordercolor="#000000"
     borderopacity="0.25"
     inkscape:showpageshadow="2"
     inkscape:pageopacity="0.0"
     inkscape:pagecheckerboard="0"
     inkscape:deskcolor="#d1d1d1"
     inkscape:document-units="mm"
     inkscape:zoom="1.0327157"
     inkscape:cx="229.97616"
     inkscape:cy="107.48359"
     inkscape:window-width="2560"
     inkscape:window-height="1406"
     inkscape:window-x="0"
     inkscape:window-y="0"
     inkscape:window-maximized="1"
     inkscape:current-layer="svg8" />
  <defs
     id="defs2" />
  <metadata
     id="metadata5">
    <rdf:RDF>
      <cc:Work
         rdf:about="">
        <dc:format>image/svg+xml</dc:format>
        <dc:type
           rdf:resource="http://purl.org/dc/dcmitype/StillImage" />
      </cc:Work>
    </rdf:RDF>
  </metadata>
  <g
     id="layer1"
     transform="translate(-25.582031,-19.09881)">
    <path
       id="path968"
       style="fill:#0065ac;fill-opacity:1;fill-rule:evenodd;stroke:none;stroke-width:0.0700042px;stroke-linecap:butt;stroke-linejoin:miter;stroke-opacity:1"
       d="m 43.508533,19.221628 -6.011207,3.470806 a 0.91643846,0.91643846 0.0011682 0 1 -0.916517,-1.8e-5 l -1.68115,-0.97077 a 0.9162711,0.9162711 179.99664 0 0 -0.916475,5.4e-5 l -2.745665,1.585897 a 0.91674198,0.91674198 119.99463 0 0 -0.458222,0.793836 v 1.939712 a 0.9167438,0.9167438 119.99458 0 1 -0.458222,0.793837 l -4.280822,2.472614 a 0.9167438,0.9167438 119.99458 0 0 -0.458222,0.793837 v 18.0569 2.115234 a 0.91692071,0.91692071 60.010206 0 0 0.458177,0.793914 l 0.915677,0.5291 a 2286.8691,2286.8691 30.007154 0 0 0.916477,0.529282 l 1.979885,1.142805 a 0.3055521,0.3055521 149.99695 0 0 0.4583,-0.264632 l 0,-1.402603 a 0.91721489,0.91721489 60.018162 0 0 -0.458104,-0.794041 l -1.681448,-0.972206 a 0.91721489,0.91721489 60.018162 0 1 -0.458104,-0.794041 v -17.70729 a 0.91688301,0.91688301 119.99081 0 1 0.458187,-0.793897 l 3.214485,-1.857259 a 0.91613021,0.91613021 179.99282 0 1 0.91644,-1.15e-4 l 1.68115,0.97077 a 0.91651552,0.91651552 0.00325425 0 0 0.916536,5.2e-5 l 2.747497,-1.586109 a 0.91649747,0.91649747 120.00125 0 0 0.458283,-0.79373 v -1.939712 a 0.91690648,0.91690648 119.99018 0 1 0.458181,-0.793907 l 4.944966,-2.857239 a 0.916451,0.916451 179.98286 0 1 0.91652,-2.74e-4 l 1.682931,0.971068 a 0.91673323,0.91673323 179.9905 0 0 0.916591,-1.52e-4 l 1.214356,-0.701233 a 0.30550399,0.30550399 89.994781 0 0 -4.8e-5,-0.529153 l -3.813869,-2.201399 a 0.91662478,0.91662478 179.99612 0 0 -0.916564,6.2e-5 z m -8.609052,4.961266 0.617053,0.356869 a 0.91733263,0.91733263 60.021345 0 1 0.458075,0.794092 v 0.70729 a 0.91733263,0.91733263 119.97865 0 1 -0.458075,0.794092 l -0.617053,0.356869 a 0.91496847,0.91496847 0 0 1 -0.91615,0 l -0.617053,-0.356869 a 0.91733263,0.91733263 60.021345 0 1 -0.458075,-0.794092 v -0.70729 a 0.91733263,0.91733263 119.97865 0 1 0.458075,-0.794092 l 0.617053,-0.356869 a 0.91496847,0.91496847 0 0 1 0.91615,0 z m 17.27115,0.03871 -17.470168,10.086081 a 0.91652881,0.91652881 120.0004 0 0 -0.458275,0.793744 v 5.939712 a 0.91721471,0.91721471 119.98184 0 1 -0.458104,0.794041 l -1.681449,0.972206 a 0.91721471,0.91721471 119.98184 0 0 -0.458104,0.794041 l 0,3.172134 a 0.91721471,0.91721471 60.018157 0 0 0.458104,0.794041 l 1.681449,0.972206 a 0.91721471,0.91721471 60.018157 0 1 0.458104,0.794041 v 5.939712 a 0.91692071,0.91692071 60.010206 0 0 0.458177,0.793914 l 0.915677,0.5291 a 2863.0058,2863.0058 30.009822 0 0 0.916452,0.529324 l 6.976028,4.027487 a 0.91689642,0.91689642 0.00878088 0 0 0.916631,1.4e-4 l 0.149694,-0.08636 a 0.91620508,0.91620508 120.00916 0 0 0.458356,-0.793604 l 0,-18.939712 A 0.91676162,0.91676162 119.9941 0 1 45.49142,40.54001 l 5.612863,-3.242129 A 0.30544185,0.30544185 29.994098 0 1 51.5625,37.56237 v 18.941666 a 0.30548758,0.30548758 29.997812 0 0 0.458252,0.264549 l 1.214355,-0.701233 a 0.91662439,0.91662439 119.99781 0 0 0.458252,-0.793785 V 35.103386 a 0.91765905,0.91765905 60.030168 0 0 -0.457993,-0.794233 l -0.15042,-0.08706 a 0.91537068,0.91537068 0.02855605 0 0 -0.91625,-4.57e-4 l -8.808095,5.086017 a 0.91660309,0.91660309 119.99839 0 0 -0.458257,0.793776 V 57.81263 a 0.30544185,0.30544185 150.0059 0 1 -0.458217,0.264489 L 36.831264,54.83499 a 0.91676162,0.91676162 60.005902 0 1 -0.458217,-0.793845 v -4.70729 a 0.91721489,0.91721489 119.98184 0 1 0.458104,-0.794041 l 1.681448,-0.972206 a 0.91721489,0.91721489 119.98184 0 0 0.458104,-0.794041 v -3.172134 a 0.91721489,0.91721489 60.018162 0 0 -0.458104,-0.794041 l -1.681448,-0.972206 a 0.91721489,0.91721489 60.018162 0 1 -0.458104,-0.794041 v -4.70729 a 0.9166131,0.9166131 119.99812 0 1 0.458254,-0.79378 L 54.301512,25.452113 a 0.30556457,0.30556457 90.0003 0 0 2e-6,-0.529231 l -1.214356,-0.701233 a 0.9164777,0.9164777 0.00258113 0 0 -0.916527,-4.1e-5 z m 6.062419,3.49986 -1.2161,0.701595 a 0.30552722,0.30552722 90.019381 0 0 -1.79e-4,0.529184 l 2.747708,1.587694 a 0.91692071,0.91692071 60.010206 0 1 0.458177,0.793914 v 5.70729 a 0.91721489,0.91721489 119.98184 0 1 -0.458104,0.794041 l -1.681448,0.972206 A 0.91721489,0.91721489 119.98184 0 0 57.625,39.601433 v 3.172134 a 0.91721489,0.91721489 60.018162 0 0 0.458104,0.794041 l 1.681448,0.972206 a 0.91721489,0.91721489 60.018162 0 1 0.458104,0.794041 l 0,3.70729 a 0.91721489,0.91721489 119.98184 0 1 -0.458104,0.794041 l -1.681448,0.972206 A 0.91721489,0.91721489 119.98184 0 0 57.625,51.601433 v 1.402603 a 0.30548884,0.30548884 29.997914 0 0 0.458253,0.26455 l 3.81201,-2.201235 a 0.91662061,0.91662061 119.99791 0 0 0.458253,-0.793784 v -4.939712 a 0.91721489,0.91721489 119.98184 0 1 0.458104,-0.794041 l 1.681448,-0.972206 a 0.91721489,0.91721489 119.98184 0 0 0.458104,-0.794041 V 39.601433 A 0.91721489,0.91721489 60.018162 0 0 64.493068,38.807392 L 62.81162,37.835186 a 0.91721489,0.91721489 60.018162 0 1 -0.458104,-0.794041 l 0,-6.939712 A 0.91674185,0.91674185 60.005367 0 0 61.895294,29.307597 L 59.149628,27.7217 a 0.91668426,0.91668426 0.01454155 0 0 -0.916578,-2.32e-4 z m 3.512134,11.961426 0.617053,0.356869 a 0.91733263,0.91733263 60.021345 0 1 0.458075,0.794092 l 0,0.70729 a 0.91733263,0.91733263 119.97865 0 1 -0.458075,0.794092 l -0.617053,0.356869 a 0.91438545,0.91438545 0.0158301 0 1 -0.916003,-2.53e-4 L 60.213787,42.33549 a 0.91791847,0.91791847 60.037176 0 1 -0.457928,-0.794345 v -0.70729 a 0.91791847,0.91791847 119.96282 0 1 0.457928,-0.794345 l 0.615394,-0.356363 a 0.91438545,0.91438545 179.98417 0 1 0.916003,-2.53e-4 z m -25.980468,4 0.617053,0.356869 a 0.91733263,0.91733263 60.021345 0 1 0.458075,0.794092 v 0.70729 a 0.91733263,0.91733263 119.97865 0 1 -0.458075,0.794092 l -0.617053,0.356869 a 0.91496847,0.91496847 180 0 1 -0.91615,0 l -0.617053,-0.356869 a 0.91733263,0.91733263 60.021345 0 1 -0.458075,-0.794092 v -0.70729 a 0.91733263,0.91733263 119.97865 0 1 0.458075,-0.794092 l 0.617053,-0.356869 a 0.91496847,0.91496847 0 0 1 0.91615,0 z" />
    <g
       aria-label="scipp"
       id="text897"
       style="font-size:41.0089px;line-height:19.2229px;font-family:Lato;-inkscape-font-specification:Lato;letter-spacing:0px;word-spacing:0px;fill:#0065ac;stroke-width:0.264583px">
      <path
         d="m 96.605021,33.760453 q -0.205044,0.328071 -0.430593,0.471602 -0.225549,0.123027 -0.574125,0.123027 -0.36908,0 -0.799674,-0.205045 -0.410089,-0.205044 -0.963709,-0.451098 -0.55362,-0.266557 -1.271276,-0.471602 -0.697151,-0.205044 -1.66086,-0.205044 -1.496825,0 -2.358012,0.635637 -0.840682,0.635638 -0.840682,1.660861 0,0.676647 0.430593,1.148249 0.451098,0.451098 1.168754,0.799674 0.73816,0.348575 1.66086,0.635638 0.922701,0.266557 1.865905,0.594629 0.963709,0.328071 1.88641,0.758664 0.9227,0.410089 1.640356,1.066232 0.73816,0.635638 1.168753,1.537833 0.451098,0.902196 0.451098,2.173472 0,1.517329 -0.55362,2.80911 -0.533116,1.271276 -1.599347,2.21448 -1.066231,0.922701 -2.645074,1.455816 -1.558338,0.512611 -3.608783,0.512611 -1.086736,0 -2.132463,-0.205044 -1.025223,-0.18454 -1.988932,-0.533116 -0.943204,-0.348575 -1.763382,-0.820178 -0.799674,-0.471602 -1.414807,-1.025222 l 1.168753,-1.927418 q 0.225549,-0.348576 0.533116,-0.533116 0.307567,-0.18454 0.779169,-0.18454 0.471602,0 0.881691,0.266558 0.430594,0.266557 0.984214,0.574124 0.55362,0.307567 1.29178,0.574125 0.758665,0.266558 1.906914,0.266558 0.902196,0 1.537834,-0.205045 0.656142,-0.225549 1.066231,-0.574124 0.430594,-0.348576 0.615134,-0.799674 0.205044,-0.471602 0.205044,-0.963709 0,-0.73816 -0.451098,-1.209763 -0.430593,-0.471602 -1.168753,-0.820178 -0.717656,-0.348575 -1.660861,-0.615133 -0.9227,-0.287062 -1.906914,-0.615134 -0.963709,-0.328071 -1.906913,-0.758664 -0.922701,-0.451098 -1.660861,-1.127745 -0.717656,-0.676647 -1.168753,-1.66086 -0.430594,-0.984214 -0.430594,-2.378517 0,-1.29178 0.512611,-2.460534 0.512612,-1.168753 1.496825,-2.02994 1.004718,-0.881691 2.481039,-1.394303 1.496824,-0.533115 3.444747,-0.533115 2.173472,0 3.957359,0.717655 1.783887,0.717656 2.973145,1.88641 z"
         style="font-weight:bold;-inkscape-font-specification:'Lato Bold'"
         id="path876" />
      <path
         d="m 116.86337,34.109028 q -0.22555,0.287063 -0.45109,0.451098 -0.20505,0.164036 -0.61514,0.164036 -0.38958,0 -0.75866,-0.225549 -0.36908,-0.246053 -0.88169,-0.533116 -0.51262,-0.307567 -1.23027,-0.533115 -0.69715,-0.246054 -1.74288,-0.246054 -1.33279,0 -2.33751,0.492107 -1.00471,0.471602 -1.68136,1.373798 -0.65614,0.902196 -0.98422,2.193976 -0.32807,1.271276 -0.32807,2.891128 0,1.681365 0.34858,2.993649 0.36908,1.312285 1.04573,2.214481 0.67664,0.881691 1.64035,1.353294 0.96371,0.451097 2.17347,0.451097 1.20977,0 1.94793,-0.287062 0.75866,-0.307567 1.27127,-0.656142 0.51261,-0.36908 0.88169,-0.656143 0.38959,-0.307566 0.86119,-0.307566 0.61513,0 0.9227,0.471602 l 1.45582,1.8454 q -0.84069,0.984214 -1.8249,1.660861 -0.98421,0.656142 -2.05044,1.066231 -1.04573,0.389585 -2.17348,0.55362 -1.10724,0.164036 -2.21448,0.164036 -1.94792,0 -3.67029,-0.717656 -1.72238,-0.73816 -3.01416,-2.132462 -1.29178,-1.394303 -2.05044,-3.403739 -0.73816,-2.029941 -0.73816,-4.613501 0,-2.317003 0.65614,-4.28543 0.67665,-1.988932 1.96843,-3.424244 1.29178,-1.455815 3.19869,-2.275993 1.90692,-0.820178 4.38795,-0.820178 2.35802,0 4.1214,0.758664 1.78389,0.758665 3.19869,2.173472 z"
         style="font-weight:bold;-inkscape-font-specification:'Lato Bold'"
         id="path878" />
      <path
         d="m 126.80797,29.659563 v 21.037565 h -5.08511 V 29.659563 Z m 0.69715,-6.130831 q 0,0.656143 -0.26656,1.230267 -0.26656,0.574125 -0.71765,1.004718 -0.4306,0.430594 -1.02523,0.697152 -0.59463,0.246053 -1.27127,0.246053 -0.65615,0 -1.25077,-0.246053 -0.57413,-0.266558 -1.00472,-0.697152 -0.4306,-0.430593 -0.69715,-1.004718 -0.24606,-0.574124 -0.24606,-1.230267 0,-0.676647 0.24606,-1.271276 0.26655,-0.594629 0.69715,-1.025222 0.43059,-0.430594 1.00472,-0.676647 0.59462,-0.266558 1.25077,-0.266558 0.67664,0 1.27127,0.266558 0.59463,0.246053 1.02523,0.676647 0.45109,0.430593 0.71765,1.025222 0.26656,0.594629 0.26656,1.271276 z"
         style="font-weight:bold;-inkscape-font-specification:'Lato Bold'"
         id="path880" />
      <path
         d="M 132.83626,57.914695 V 30.295201 h 1.08674 q 0.51261,0 0.59463,0.512611 l 0.18454,3.157685 q 1.35329,-1.8454 3.17819,-2.932136 1.82489,-1.086736 4.08038,-1.086736 3.75232,0 5.84377,2.604065 2.11196,2.604065 2.11196,7.812196 0,2.234985 -0.59463,4.182907 -0.57412,1.927419 -1.72237,3.36273 -1.12775,1.414807 -2.78861,2.234985 -1.64035,0.820178 -3.79332,0.820178 -2.07095,0 -3.58828,-0.758665 -1.51733,-0.758664 -2.62457,-2.234985 v 9.944659 z m 8.57086,-26.389227 q -2.02994,0 -3.67029,1.045727 -1.64036,1.045727 -2.93214,2.911632 v 10.764836 q 1.16875,1.763382 2.58356,2.481038 1.41481,0.697151 3.26021,0.697151 1.80439,0 3.15768,-0.656142 1.3533,-0.656142 2.25549,-1.8454 0.9227,-1.209763 1.3738,-2.870623 0.4716,-1.681365 0.4716,-3.690801 0,-4.551988 -1.68136,-6.684451 -1.68137,-2.152967 -4.81855,-2.152967 z"
         style="font-weight:300;-inkscape-font-specification:'Lato Light'"
         id="path882" />
      <path
         d="M 155.4526,57.914695 V 30.295201 h 1.08674 q 0.51261,0 0.59463,0.512611 l 0.18454,3.157685 q 1.35329,-1.8454 3.17819,-2.932136 1.82489,-1.086736 4.08038,-1.086736 3.75232,0 5.84377,2.604065 2.11196,2.604065 2.11196,7.812196 0,2.234985 -0.59463,4.182907 -0.57412,1.927419 -1.72237,3.36273 -1.12775,1.414807 -2.78861,2.234985 -1.64035,0.820178 -3.79332,0.820178 -2.07095,0 -3.58828,-0.758665 -1.51733,-0.758664 -2.62457,-2.234985 v 9.944659 z m 8.57086,-26.389227 q -2.02994,0 -3.67029,1.045727 -1.64036,1.045727 -2.93214,2.911632 v 10.764836 q 1.16875,1.763382 2.58356,2.481038 1.41481,0.697151 3.26021,0.697151 1.80439,0 3.15768,-0.656142 1.3533,-0.656142 2.25549,-1.8454 0.9227,-1.209763 1.3738,-2.870623 0.4716,-1.681365 0.4716,-3.690801 0,-4.551988 -1.68136,-6.684451 -1.68137,-2.152967 -4.81855,-2.152967 z"
         style="font-weight:300;-inkscape-font-specification:'Lato Light'"
         id="path884" />
    </g>
    <g
       aria-label="neutron"
       id="text5266"
       style="font-size:13.1605px;line-height:10.5754px;font-family:Lato;-inkscape-font-specification:Lato;letter-spacing:0px;word-spacing:0px;fill:#0065ac;stroke-width:0.264583px">
      <path
         d="m 82.934781,64.622612 v -6.665793 h 0.704087 q 0.250049,0 0.309271,0.243469 l 0.09212,0.723828 q 0.434296,-0.480359 0.973877,-0.77647 0.53958,-0.296111 1.243667,-0.296111 0.546161,0 0.960716,0.184247 0.421136,0.177667 0.697507,0.513259 0.282951,0.329013 0.427716,0.796211 0.144766,0.467197 0.144766,1.033099 v 4.244261 h -1.177865 v -4.244261 q 0,-0.756729 -0.348753,-1.171285 -0.342173,-0.421136 -1.04626,-0.421136 -0.52642,0 -0.980457,0.25005 -0.447457,0.250049 -0.822531,0.677766 v 4.908866 z"
         id="path924" />
      <path
         d="m 93.009126,57.851535 q 0.598802,0 1.105482,0.203988 0.513259,0.197407 0.881753,0.579062 0.375074,0.375074 0.585642,0.934395 0.210568,0.552741 0.210568,1.263408 0,0.276371 -0.05922,0.368494 -0.05922,0.09212 -0.223728,0.09212 h -4.45483 q 0.01316,0.631704 0.171087,1.098901 0.157926,0.467198 0.434296,0.78305 0.276371,0.309272 0.658025,0.467198 0.381655,0.151346 0.855433,0.151346 0.440877,0 0.756729,-0.0987 0.322432,-0.105284 0.552741,-0.223729 0.230308,-0.118444 0.381654,-0.217148 0.157926,-0.105284 0.26979,-0.105284 0.144766,0 0.223729,0.111864 l 0.329012,0.427717 q -0.217148,0.26321 -0.519839,0.460617 -0.302692,0.190827 -0.651445,0.315852 -0.342173,0.125025 -0.710667,0.184247 -0.368494,0.0658 -0.730408,0.0658 -0.690926,0 -1.276568,-0.230308 -0.579062,-0.236889 -1.006779,-0.684346 -0.421136,-0.454037 -0.658024,-1.118643 -0.236889,-0.664605 -0.236889,-1.526618 0,-0.697506 0.210568,-1.302889 0.217148,-0.605383 0.618543,-1.04626 0.401395,-0.447457 0.980457,-0.697506 0.579062,-0.25663 1.30289,-0.25663 z m 0.02632,0.862013 q -0.848853,0 -1.335791,0.493518 -0.486939,0.486939 -0.605383,1.355532 h 3.645458 q 0,-0.407976 -0.118444,-0.743568 -0.111864,-0.342173 -0.335593,-0.585643 -0.217148,-0.250049 -0.533,-0.381654 -0.315852,-0.138185 -0.717247,-0.138185 z"
         id="path926" />
      <path
         d="m 98.332547,57.956819 v 4.250841 q 0,0.756729 0.342173,1.171285 0.348753,0.414556 1.05942,0.414556 0.51326,0 0.9673,-0.24347 0.45403,-0.243469 0.83569,-0.677765 v -4.915447 h 1.17128 v 6.665793 h -0.6975 q -0.25005,0 -0.31586,-0.243469 l -0.0921,-0.717247 q -0.4343,0.480358 -0.97388,0.776469 -0.53958,0.289531 -1.237083,0.289531 -0.546161,0 -0.967297,-0.177667 -0.414555,-0.184247 -0.697506,-0.513259 -0.282951,-0.329013 -0.427716,-0.79621 -0.138186,-0.467198 -0.138186,-1.0331 v -4.250841 z"
         id="path928" />
      <path
         d="m 106.61049,64.727896 q -0.78963,0 -1.21735,-0.440877 -0.42114,-0.440876 -0.42114,-1.269988 v -4.079755 h -0.80279 q -0.10528,0 -0.17766,-0.05922 -0.0724,-0.0658 -0.0724,-0.197408 v -0.467197 l 1.09233,-0.138186 0.26979,-2.059618 q 0.0197,-0.0987 0.0855,-0.157926 0.0724,-0.0658 0.18425,-0.0658 h 0.59222 v 2.296507 h 1.92801 v 0.848852 h -1.92801 v 4.000792 q 0,0.421136 0.20399,0.625124 0.20398,0.203988 0.52642,0.203988 0.18424,0 0.31585,-0.04606 0.13818,-0.05264 0.23689,-0.111864 0.0987,-0.05922 0.1645,-0.105284 0.0724,-0.05264 0.12503,-0.05264 0.0921,0 0.1645,0.111864 l 0.34218,0.559321 q -0.30269,0.282951 -0.73041,0.447457 -0.42772,0.157926 -0.88175,0.157926 z"
         id="path930" />
      <path
         d="m 109.28206,64.622612 v -6.665793 h 0.67119 q 0.19082,0 0.26321,0.07238 0.0724,0.07238 0.0987,0.250049 l 0.0724,1.013359 q 0.31586,-0.684346 0.77647,-1.066001 0.4672,-0.388235 1.13181,-0.388235 0.21056,0 0.40139,0.04606 0.19741,0.04606 0.34875,0.144766 l -0.0855,0.875173 q -0.0395,0.164506 -0.19741,0.164506 -0.0921,0 -0.26979,-0.03948 -0.17766,-0.03948 -0.40139,-0.03948 -0.31585,0 -0.5659,0.0987 -0.25005,0.09212 -0.44746,0.27637 -0.19083,0.177667 -0.34217,0.440877 -0.15135,0.26321 -0.27637,0.605383 v 4.21136 z"
         id="path932" />
      <path
         d="m 116.61244,57.851535 q 0.7304,0 1.31605,0.243469 0.58564,0.243469 1.00019,0.690926 0.41456,0.447457 0.63171,1.085742 0.22373,0.631704 0.22373,1.414753 0,0.78963 -0.22373,1.421334 -0.21715,0.631704 -0.63171,1.079161 -0.41455,0.447457 -1.00019,0.690927 -0.58565,0.236888 -1.31605,0.236888 -0.73699,0 -1.32921,-0.236888 -0.58565,-0.24347 -1.0002,-0.690927 -0.41456,-0.447457 -0.63829,-1.079161 -0.21714,-0.631704 -0.21714,-1.421334 0,-0.783049 0.21714,-1.414753 0.22373,-0.638285 0.63829,-1.085742 0.41455,-0.447457 1.0002,-0.690926 0.59222,-0.243469 1.32921,-0.243469 z m 0,5.948546 q 0.98703,0 1.47397,-0.658025 0.48694,-0.664605 0.48694,-1.84905 0,-1.191026 -0.48694,-1.855631 -0.48694,-0.664605 -1.47397,-0.664605 -0.5001,0 -0.87518,0.171086 -0.36849,0.171087 -0.61854,0.493519 -0.24347,0.322432 -0.36849,0.79621 -0.11845,0.467198 -0.11845,1.059421 0,1.184445 0.48694,1.84905 0.49352,0.658025 1.49372,0.658025 z"
         id="path934" />
      <path
         d="m 121.26466,64.622612 v -6.665793 h 0.70409 q 0.25005,0 0.30927,0.243469 l 0.0921,0.723828 q 0.43429,-0.480359 0.97387,-0.77647 0.53958,-0.296111 1.24367,-0.296111 0.54616,0 0.96072,0.184247 0.42113,0.177667 0.6975,0.513259 0.28295,0.329013 0.42772,0.796211 0.14477,0.467197 0.14477,1.033099 v 4.244261 h -1.17787 v -4.244261 q 0,-0.756729 -0.34875,-1.171285 -0.34218,-0.421136 -1.04626,-0.421136 -0.52642,0 -0.98046,0.25005 -0.44746,0.250049 -0.82253,0.677766 v 4.908866 z"
         id="path936" />
    </g>
  </g>
</svg>
