<?xml version="1.0" encoding="utf-8" standalone="no"?>
<!DOCTYPE svg PUBLIC "-//W3C//DTD SVG 1.1//EN"
  "http://www.w3.org/Graphics/SVG/1.1/DTD/svg11.dtd">
<svg xmlns:xlink="http://www.w3.org/1999/xlink" width="397.997107pt" height="266.51625pt" viewBox="0 0 397.997107 266.51625" xmlns="http://www.w3.org/2000/svg" version="1.1">
 <metadata>
  <rdf:RDF xmlns:dc="http://purl.org/dc/elements/1.1/" xmlns:cc="http://creativecommons.org/ns#" xmlns:rdf="http://www.w3.org/1999/02/22-rdf-syntax-ns#">
   <cc:Work>
    <dc:type rdf:resource="http://purl.org/dc/dcmitype/StillImage"/>
    <dc:date>2025-12-02T06:59:19.458279</dc:date>
    <dc:format>image/svg+xml</dc:format>
    <dc:creator>
     <cc:Agent>
      <dc:title>Matplotlib v3.9.4, https://matplotlib.org/</dc:title>
     </cc:Agent>
    </dc:creator>
   </cc:Work>
  </rdf:RDF>
 </metadata>
 <defs>
  <style type="text/css">*{stroke-linejoin: round; stroke-linecap: butt}</style>
 </defs>
 <g id="figure_1">
  <g id="patch_1">
   <path d="M 0 266.51625 
L 397.997107 266.51625 
L 397.997107 0 
L 0 0 
z
" style="fill: #ffffff"/>
  </g>
  <g id="axes_1">
   <g id="patch_2">
    <path d="M 40.603125 228.96 
L 375.403125 228.96 
L 375.403125 7.2 
L 40.603125 7.2 
z
" style="fill: #ffffff"/>
   </g>
   <g id="matplotlib.axis_1">
    <g id="xtick_1">
     <g id="line2d_1">
      <defs>
       <path id="me81ba11447" d="M 0 0 
L 0 3.5 
" style="stroke: #000000; stroke-width: 0.8"/>
      </defs>
      <g>
       <use xlink:href="#me81ba11447" x="55.474512" y="228.96" style="stroke: #000000; stroke-width: 0.8"/>
      </g>
     </g>
     <g id="text_1">
      <!-- 0 -->
      <g transform="translate(52.293262 243.558437) scale(0.1 -0.1)">
       <defs>
        <path id="DejaVuSans-30" d="M 2034 4250 
Q 1547 4250 1301 3770 
Q 1056 3291 1056 2328 
Q 1056 1369 1301 889 
Q 1547 409 2034 409 
Q 2525 409 2770 889 
Q 3016 1369 3016 2328 
Q 3016 3291 2770 3770 
Q 2525 4250 2034 4250 
z
M 2034 4750 
Q 2819 4750 3233 4129 
Q 3647 3509 3647 2328 
Q 3647 1150 3233 529 
Q 2819 -91 2034 -91 
Q 1250 -91 836 529 
Q 422 1150 422 2328 
Q 422 3509 836 4129 
Q 1250 4750 2034 4750 
z
" transform="scale(0.015625)"/>
       </defs>
       <use xlink:href="#DejaVuSans-30"/>
      </g>
     </g>
    </g>
    <g id="xtick_2">
     <g id="line2d_2">
      <g>
       <use xlink:href="#me81ba11447" x="101.105418" y="228.96" style="stroke: #000000; stroke-width: 0.8"/>
      </g>
     </g>
     <g id="text_2">
      <!-- 2500 -->
      <g transform="translate(88.380418 243.558437) scale(0.1 -0.1)">
       <defs>
        <path id="DejaVuSans-32" d="M 1228 531 
L 3431 531 
L 3431 0 
L 469 0 
L 469 531 
Q 828 903 1448 1529 
Q 2069 2156 2228 2338 
Q 2531 2678 2651 2914 
Q 2772 3150 2772 3378 
Q 2772 3750 2511 3984 
Q 2250 4219 1831 4219 
Q 1534 4219 1204 4116 
Q 875 4013 500 3803 
L 500 4441 
Q 881 4594 1212 4672 
Q 1544 4750 1819 4750 
Q 2544 4750 2975 4387 
Q 3406 4025 3406 3419 
Q 3406 3131 3298 2873 
Q 3191 2616 2906 2266 
Q 2828 2175 2409 1742 
Q 1991 1309 1228 531 
z
" transform="scale(0.015625)"/>
        <path id="DejaVuSans-35" d="M 691 4666 
L 3169 4666 
L 3169 4134 
L 1269 4134 
L 1269 2991 
Q 1406 3038 1543 3061 
Q 1681 3084 1819 3084 
Q 2600 3084 3056 2656 
Q 3513 2228 3513 1497 
Q 3513 744 3044 326 
Q 2575 -91 1722 -91 
Q 1428 -91 1123 -41 
Q 819 9 494 109 
L 494 744 
Q 775 591 1075 516 
Q 1375 441 1709 441 
Q 2250 441 2565 725 
Q 2881 1009 2881 1497 
Q 2881 1984 2565 2268 
Q 2250 2553 1709 2553 
Q 1456 2553 1204 2497 
Q 953 2441 691 2322 
L 691 4666 
z
" transform="scale(0.015625)"/>
       </defs>
       <use xlink:href="#DejaVuSans-32"/>
       <use xlink:href="#DejaVuSans-35" x="63.623047"/>
       <use xlink:href="#DejaVuSans-30" x="127.246094"/>
       <use xlink:href="#DejaVuSans-30" x="190.869141"/>
      </g>
     </g>
    </g>
    <g id="xtick_3">
     <g id="line2d_3">
      <g>
       <use xlink:href="#me81ba11447" x="146.736325" y="228.96" style="stroke: #000000; stroke-width: 0.8"/>
      </g>
     </g>
     <g id="text_3">
      <!-- 5000 -->
      <g transform="translate(134.011325 243.558437) scale(0.1 -0.1)">
       <use xlink:href="#DejaVuSans-35"/>
       <use xlink:href="#DejaVuSans-30" x="63.623047"/>
       <use xlink:href="#DejaVuSans-30" x="127.246094"/>
       <use xlink:href="#DejaVuSans-30" x="190.869141"/>
      </g>
     </g>
    </g>
    <g id="xtick_4">
     <g id="line2d_4">
      <g>
       <use xlink:href="#me81ba11447" x="192.367231" y="228.96" style="stroke: #000000; stroke-width: 0.8"/>
      </g>
     </g>
     <g id="text_4">
      <!-- 7500 -->
      <g transform="translate(179.642231 243.558437) scale(0.1 -0.1)">
       <defs>
        <path id="DejaVuSans-37" d="M 525 4666 
L 3525 4666 
L 3525 4397 
L 1831 0 
L 1172 0 
L 2766 4134 
L 525 4134 
L 525 4666 
z
" transform="scale(0.015625)"/>
       </defs>
       <use xlink:href="#DejaVuSans-37"/>
       <use xlink:href="#DejaVuSans-35" x="63.623047"/>
       <use xlink:href="#DejaVuSans-30" x="127.246094"/>
       <use xlink:href="#DejaVuSans-30" x="190.869141"/>
      </g>
     </g>
    </g>
    <g id="xtick_5">
     <g id="line2d_5">
      <g>
       <use xlink:href="#me81ba11447" x="237.998138" y="228.96" style="stroke: #000000; stroke-width: 0.8"/>
      </g>
     </g>
     <g id="text_5">
      <!-- 10000 -->
      <g transform="translate(222.091888 243.558437) scale(0.1 -0.1)">
       <defs>
        <path id="DejaVuSans-31" d="M 794 531 
L 1825 531 
L 1825 4091 
L 703 3866 
L 703 4441 
L 1819 4666 
L 2450 4666 
L 2450 531 
L 3481 531 
L 3481 0 
L 794 0 
L 794 531 
z
" transform="scale(0.015625)"/>
       </defs>
       <use xlink:href="#DejaVuSans-31"/>
       <use xlink:href="#DejaVuSans-30" x="63.623047"/>
       <use xlink:href="#DejaVuSans-30" x="127.246094"/>
       <use xlink:href="#DejaVuSans-30" x="190.869141"/>
       <use xlink:href="#DejaVuSans-30" x="254.492188"/>
      </g>
     </g>
    </g>
    <g id="xtick_6">
     <g id="line2d_6">
      <g>
       <use xlink:href="#me81ba11447" x="283.629044" y="228.96" style="stroke: #000000; stroke-width: 0.8"/>
      </g>
     </g>
     <g id="text_6">
      <!-- 12500 -->
      <g transform="translate(267.722794 243.558437) scale(0.1 -0.1)">
       <use xlink:href="#DejaVuSans-31"/>
       <use xlink:href="#DejaVuSans-32" x="63.623047"/>
       <use xlink:href="#DejaVuSans-35" x="127.246094"/>
       <use xlink:href="#DejaVuSans-30" x="190.869141"/>
       <use xlink:href="#DejaVuSans-30" x="254.492188"/>
      </g>
     </g>
    </g>
    <g id="xtick_7">
     <g id="line2d_7">
      <g>
       <use xlink:href="#me81ba11447" x="329.259951" y="228.96" style="stroke: #000000; stroke-width: 0.8"/>
      </g>
     </g>
     <g id="text_7">
      <!-- 15000 -->
      <g transform="translate(313.353701 243.558437) scale(0.1 -0.1)">
       <use xlink:href="#DejaVuSans-31"/>
       <use xlink:href="#DejaVuSans-35" x="63.623047"/>
       <use xlink:href="#DejaVuSans-30" x="127.246094"/>
       <use xlink:href="#DejaVuSans-30" x="190.869141"/>
       <use xlink:href="#DejaVuSans-30" x="254.492188"/>
      </g>
     </g>
    </g>
    <g id="xtick_8">
     <g id="line2d_8">
      <g>
       <use xlink:href="#me81ba11447" x="374.890857" y="228.96" style="stroke: #000000; stroke-width: 0.8"/>
      </g>
     </g>
     <g id="text_8">
      <!-- 17500 -->
      <g transform="translate(358.984607 243.558437) scale(0.1 -0.1)">
       <use xlink:href="#DejaVuSans-31"/>
       <use xlink:href="#DejaVuSans-37" x="63.623047"/>
       <use xlink:href="#DejaVuSans-35" x="127.246094"/>
       <use xlink:href="#DejaVuSans-30" x="190.869141"/>
       <use xlink:href="#DejaVuSans-30" x="254.492188"/>
      </g>
     </g>
    </g>
    <g id="text_9">
     <!-- tof [µs] -->
     <g transform="translate(189.946875 257.236562) scale(0.1 -0.1)">
      <defs>
       <path id="DejaVuSans-74" d="M 1172 4494 
L 1172 3500 
L 2356 3500 
L 2356 3053 
L 1172 3053 
L 1172 1153 
Q 1172 725 1289 603 
Q 1406 481 1766 481 
L 2356 481 
L 2356 0 
L 1766 0 
Q 1100 0 847 248 
Q 594 497 594 1153 
L 594 3053 
L 172 3053 
L 172 3500 
L 594 3500 
L 594 4494 
L 1172 4494 
z
" transform="scale(0.015625)"/>
       <path id="DejaVuSans-6f" d="M 1959 3097 
Q 1497 3097 1228 2736 
Q 959 2375 959 1747 
Q 959 1119 1226 758 
Q 1494 397 1959 397 
Q 2419 397 2687 759 
Q 2956 1122 2956 1747 
Q 2956 2369 2687 2733 
Q 2419 3097 1959 3097 
z
M 1959 3584 
Q 2709 3584 3137 3096 
Q 3566 2609 3566 1747 
Q 3566 888 3137 398 
Q 2709 -91 1959 -91 
Q 1206 -91 779 398 
Q 353 888 353 1747 
Q 353 2609 779 3096 
Q 1206 3584 1959 3584 
z
" transform="scale(0.015625)"/>
       <path id="DejaVuSans-66" d="M 2375 4863 
L 2375 4384 
L 1825 4384 
Q 1516 4384 1395 4259 
Q 1275 4134 1275 3809 
L 1275 3500 
L 2222 3500 
L 2222 3053 
L 1275 3053 
L 1275 0 
L 697 0 
L 697 3053 
L 147 3053 
L 147 3500 
L 697 3500 
L 697 3744 
Q 697 4328 969 4595 
Q 1241 4863 1831 4863 
L 2375 4863 
z
" transform="scale(0.015625)"/>
       <path id="DejaVuSans-20" transform="scale(0.015625)"/>
       <path id="DejaVuSans-5b" d="M 550 4863 
L 1875 4863 
L 1875 4416 
L 1125 4416 
L 1125 -397 
L 1875 -397 
L 1875 -844 
L 550 -844 
L 550 4863 
z
" transform="scale(0.015625)"/>
       <path id="DejaVuSans-b5" d="M 544 -1331 
L 544 3500 
L 1119 3500 
L 1119 1325 
Q 1119 872 1334 640 
Q 1550 409 1972 409 
Q 2434 409 2667 671 
Q 2900 934 2900 1459 
L 2900 3500 
L 3475 3500 
L 3475 806 
Q 3475 619 3529 530 
Q 3584 441 3700 441 
Q 3728 441 3778 458 
Q 3828 475 3916 513 
L 3916 50 
Q 3788 -22 3673 -56 
Q 3559 -91 3450 -91 
Q 3234 -91 3106 31 
Q 2978 153 2931 403 
Q 2775 156 2548 32 
Q 2322 -91 2016 -91 
Q 1697 -91 1473 31 
Q 1250 153 1119 397 
L 1119 -1331 
L 544 -1331 
z
" transform="scale(0.015625)"/>
       <path id="DejaVuSans-73" d="M 2834 3397 
L 2834 2853 
Q 2591 2978 2328 3040 
Q 2066 3103 1784 3103 
Q 1356 3103 1142 2972 
Q 928 2841 928 2578 
Q 928 2378 1081 2264 
Q 1234 2150 1697 2047 
L 1894 2003 
Q 2506 1872 2764 1633 
Q 3022 1394 3022 966 
Q 3022 478 2636 193 
Q 2250 -91 1575 -91 
Q 1294 -91 989 -36 
Q 684 19 347 128 
L 347 722 
Q 666 556 975 473 
Q 1284 391 1588 391 
Q 1994 391 2212 530 
Q 2431 669 2431 922 
Q 2431 1156 2273 1281 
Q 2116 1406 1581 1522 
L 1381 1569 
Q 847 1681 609 1914 
Q 372 2147 372 2553 
Q 372 3047 722 3315 
Q 1072 3584 1716 3584 
Q 2034 3584 2315 3537 
Q 2597 3491 2834 3397 
z
" transform="scale(0.015625)"/>
       <path id="DejaVuSans-5d" d="M 1947 4863 
L 1947 -844 
L 622 -844 
L 622 -397 
L 1369 -397 
L 1369 4416 
L 622 4416 
L 622 4863 
L 1947 4863 
z
" transform="scale(0.015625)"/>
      </defs>
      <use xlink:href="#DejaVuSans-74"/>
      <use xlink:href="#DejaVuSans-6f" x="39.208984"/>
      <use xlink:href="#DejaVuSans-66" x="100.390625"/>
      <use xlink:href="#DejaVuSans-20" x="135.595703"/>
      <use xlink:href="#DejaVuSans-5b" x="167.382812"/>
      <use xlink:href="#DejaVuSans-b5" x="206.396484"/>
      <use xlink:href="#DejaVuSans-73" x="270.019531"/>
      <use xlink:href="#DejaVuSans-5d" x="322.119141"/>
     </g>
    </g>
   </g>
   <g id="matplotlib.axis_2">
    <g id="ytick_1">
     <g id="line2d_9">
      <defs>
       <path id="mc74e0e9199" d="M 0 0 
L -3.5 0 
" style="stroke: #000000; stroke-width: 0.8"/>
      </defs>
      <g>
       <use xlink:href="#mc74e0e9199" x="40.603125" y="218.88" style="stroke: #000000; stroke-width: 0.8"/>
      </g>
     </g>
     <g id="text_10">
      <!-- 0 -->
      <g transform="translate(27.240625 222.679219) scale(0.1 -0.1)">
       <use xlink:href="#DejaVuSans-30"/>
      </g>
     </g>
    </g>
    <g id="ytick_2">
     <g id="line2d_10">
      <g>
       <use xlink:href="#mc74e0e9199" x="40.603125" y="178.56" style="stroke: #000000; stroke-width: 0.8"/>
      </g>
     </g>
     <g id="text_11">
      <!-- 5 -->
      <g transform="translate(27.240625 182.359219) scale(0.1 -0.1)">
       <use xlink:href="#DejaVuSans-35"/>
      </g>
     </g>
    </g>
    <g id="ytick_3">
     <g id="line2d_11">
      <g>
       <use xlink:href="#mc74e0e9199" x="40.603125" y="138.24" style="stroke: #000000; stroke-width: 0.8"/>
      </g>
     </g>
     <g id="text_12">
      <!-- 10 -->
      <g transform="translate(20.878125 142.039219) scale(0.1 -0.1)">
       <use xlink:href="#DejaVuSans-31"/>
       <use xlink:href="#DejaVuSans-30" x="63.623047"/>
      </g>
     </g>
    </g>
    <g id="ytick_4">
     <g id="line2d_12">
      <g>
       <use xlink:href="#mc74e0e9199" x="40.603125" y="97.92" style="stroke: #000000; stroke-width: 0.8"/>
      </g>
     </g>
     <g id="text_13">
      <!-- 15 -->
      <g transform="translate(20.878125 101.719219) scale(0.1 -0.1)">
       <use xlink:href="#DejaVuSans-31"/>
       <use xlink:href="#DejaVuSans-35" x="63.623047"/>
      </g>
     </g>
    </g>
    <g id="ytick_5">
     <g id="line2d_13">
      <g>
       <use xlink:href="#mc74e0e9199" x="40.603125" y="57.6" style="stroke: #000000; stroke-width: 0.8"/>
      </g>
     </g>
     <g id="text_14">
      <!-- 20 -->
      <g transform="translate(20.878125 61.399219) scale(0.1 -0.1)">
       <use xlink:href="#DejaVuSans-32"/>
       <use xlink:href="#DejaVuSans-30" x="63.623047"/>
      </g>
     </g>
    </g>
    <g id="ytick_6">
     <g id="line2d_14">
      <g>
       <use xlink:href="#mc74e0e9199" x="40.603125" y="17.28" style="stroke: #000000; stroke-width: 0.8"/>
      </g>
     </g>
     <g id="text_15">
      <!-- 25 -->
      <g transform="translate(20.878125 21.079219) scale(0.1 -0.1)">
       <use xlink:href="#DejaVuSans-32"/>
       <use xlink:href="#DejaVuSans-35" x="63.623047"/>
      </g>
     </g>
    </g>
    <g id="text_16">
     <!-- [counts] -->
     <g transform="translate(14.798438 138.6925) rotate(-90) scale(0.1 -0.1)">
      <defs>
       <path id="DejaVuSans-63" d="M 3122 3366 
L 3122 2828 
Q 2878 2963 2633 3030 
Q 2388 3097 2138 3097 
Q 1578 3097 1268 2742 
Q 959 2388 959 1747 
Q 959 1106 1268 751 
Q 1578 397 2138 397 
Q 2388 397 2633 464 
Q 2878 531 3122 666 
L 3122 134 
Q 2881 22 2623 -34 
Q 2366 -91 2075 -91 
Q 1284 -91 818 406 
Q 353 903 353 1747 
Q 353 2603 823 3093 
Q 1294 3584 2113 3584 
Q 2378 3584 2631 3529 
Q 2884 3475 3122 3366 
z
" transform="scale(0.015625)"/>
       <path id="DejaVuSans-75" d="M 544 1381 
L 544 3500 
L 1119 3500 
L 1119 1403 
Q 1119 906 1312 657 
Q 1506 409 1894 409 
Q 2359 409 2629 706 
Q 2900 1003 2900 1516 
L 2900 3500 
L 3475 3500 
L 3475 0 
L 2900 0 
L 2900 538 
Q 2691 219 2414 64 
Q 2138 -91 1772 -91 
Q 1169 -91 856 284 
Q 544 659 544 1381 
z
M 1991 3584 
L 1991 3584 
z
" transform="scale(0.015625)"/>
       <path id="DejaVuSans-6e" d="M 3513 2113 
L 3513 0 
L 2938 0 
L 2938 2094 
Q 2938 2591 2744 2837 
Q 2550 3084 2163 3084 
Q 1697 3084 1428 2787 
Q 1159 2491 1159 1978 
L 1159 0 
L 581 0 
L 581 3500 
L 1159 3500 
L 1159 2956 
Q 1366 3272 1645 3428 
Q 1925 3584 2291 3584 
Q 2894 3584 3203 3211 
Q 3513 2838 3513 2113 
z
" transform="scale(0.015625)"/>
      </defs>
      <use xlink:href="#DejaVuSans-5b"/>
      <use xlink:href="#DejaVuSans-63" x="39.013672"/>
      <use xlink:href="#DejaVuSans-6f" x="93.994141"/>
      <use xlink:href="#DejaVuSans-75" x="155.175781"/>
      <use xlink:href="#DejaVuSans-6e" x="218.554688"/>
      <use xlink:href="#DejaVuSans-74" x="281.933594"/>
      <use xlink:href="#DejaVuSans-73" x="321.142578"/>
      <use xlink:href="#DejaVuSans-5d" x="373.242188"/>
     </g>
    </g>
   </g>
   <g id="line2d_15">
    <path d="M 55.821307 218.88 
L 58.864943 218.88 
L 58.864943 210.816 
L 61.90858 210.816 
L 61.90858 218.88 
L 67.995852 218.88 
L 67.995852 202.752 
L 77.126761 202.752 
L 77.126761 178.56 
L 80.170398 178.56 
L 80.170398 210.816 
L 83.214034 210.816 
L 83.214034 194.688 
L 86.25767 194.688 
L 86.25767 202.752 
L 89.301307 202.752 
L 89.301307 194.688 
L 92.344943 194.688 
L 92.344943 210.816 
L 95.38858 210.816 
L 95.38858 202.752 
L 98.432216 202.752 
L 98.432216 194.688 
L 101.475852 194.688 
L 101.475852 186.624 
L 104.519489 186.624 
L 104.519489 178.56 
L 110.606761 178.56 
L 110.606761 170.496 
L 116.694034 170.496 
L 116.694034 194.688 
L 122.781307 194.688 
L 122.781307 146.304 
L 125.824943 146.304 
L 125.824943 132.129869 
L 128.86858 132.129869 
L 128.86858 70.740376 
L 131.912216 70.740376 
L 131.912216 157.250992 
L 134.955852 157.250992 
L 134.955852 166.995516 
L 137.999489 166.995516 
L 137.999489 152.082297 
L 141.043125 152.082297 
L 141.043125 184.511504 
L 144.086761 184.511504 
L 144.086761 127.850291 
L 147.130398 127.850291 
L 147.130398 130.176 
L 150.174034 130.176 
L 150.174034 146.304 
L 153.21767 146.304 
L 153.21767 162.432 
L 156.261307 162.432 
L 156.261307 178.56 
L 159.304943 178.56 
L 159.304943 162.432 
L 162.34858 162.432 
L 162.34858 194.688 
L 165.392216 194.688 
L 165.392216 154.368 
L 168.435852 154.368 
L 168.435852 146.304 
L 174.523125 146.304 
L 174.523125 122.112 
L 177.566761 122.112 
L 177.566761 130.176 
L 180.610398 130.176 
L 180.610398 178.56 
L 183.654034 178.56 
L 183.654034 97.92 
L 186.69767 97.92 
L 186.69767 186.624 
L 189.741307 186.624 
L 189.741307 146.304 
L 192.784943 146.304 
L 192.784943 130.176 
L 195.82858 130.176 
L 195.82858 162.432 
L 198.872216 162.432 
L 198.872216 186.624 
L 201.915852 186.624 
L 201.915852 138.24 
L 208.003125 138.24 
L 208.003125 122.112 
L 211.046761 122.112 
L 211.046761 162.432 
L 214.090398 162.432 
L 214.090398 154.368 
L 217.134034 154.368 
L 217.134034 138.24 
L 220.17767 138.24 
L 220.17767 105.984 
L 223.221307 105.984 
L 223.221307 138.24 
L 226.264943 138.24 
L 226.264943 146.304 
L 229.30858 146.304 
L 229.30858 138.24 
L 232.352216 138.24 
L 232.352216 130.176 
L 238.439489 130.176 
L 238.439489 122.112 
L 241.483125 122.112 
L 241.483125 17.28 
L 244.526761 17.28 
L 244.526761 81.792 
L 247.570398 81.792 
L 247.570398 89.856 
L 250.614034 89.856 
L 250.614034 162.432 
L 253.65767 162.432 
L 253.65767 146.304 
L 256.701307 146.304 
L 256.701307 170.496 
L 259.744943 170.496 
L 259.744943 154.368 
L 262.78858 154.368 
L 262.78858 97.92 
L 265.832216 97.92 
L 265.832216 162.432 
L 268.875852 162.432 
L 268.875852 97.92 
L 271.919489 97.92 
L 271.919489 146.304 
L 274.963125 146.304 
L 274.963125 170.496 
L 278.006761 170.496 
L 278.006761 154.368 
L 281.050398 154.368 
L 281.050398 170.496 
L 284.094034 170.496 
L 284.094034 178.56 
L 287.13767 178.56 
L 287.13767 170.496 
L 290.181307 170.496 
L 290.181307 122.112 
L 293.224943 122.112 
L 293.224943 146.304 
L 296.26858 146.304 
L 296.26858 154.368 
L 299.312216 154.368 
L 299.312216 162.432 
L 302.355852 162.432 
L 302.355852 170.496 
L 305.399489 170.496 
L 305.399489 105.984 
L 308.443125 105.984 
L 308.443125 122.112 
L 311.486761 122.112 
L 311.486761 114.048 
L 314.530398 114.048 
L 314.530398 178.56 
L 317.574034 178.56 
L 317.574034 170.496 
L 320.61767 170.496 
L 320.61767 186.624 
L 323.661307 186.624 
L 323.661307 130.176 
L 326.704943 130.176 
L 326.704943 154.368 
L 329.74858 154.368 
L 329.74858 178.56 
L 335.835852 178.56 
L 335.835852 154.368 
L 338.879489 154.368 
L 338.879489 186.624 
L 341.923125 186.624 
L 341.923125 202.752 
L 348.010398 202.752 
L 348.010398 178.56 
L 351.054034 178.56 
L 351.054034 122.112 
L 354.09767 122.112 
L 354.09767 210.816 
L 357.141307 210.816 
L 357.141307 202.752 
L 360.184943 202.752 
L 360.184943 202.752 
" clip-path="url(#p821315c917)" style="fill: none; stroke: #1f77b4; stroke-width: 1.5; stroke-linecap: square"/>
   </g>
   <g id="line2d_16">
    <path d="M 55.821307 218.88 
L 58.864943 218.88 
L 58.864943 210.816 
L 61.90858 210.816 
L 61.90858 218.88 
L 67.995852 218.88 
L 67.995852 202.752 
L 77.126761 202.752 
L 77.126761 178.56 
L 80.170398 178.56 
L 80.170398 210.816 
L 83.214034 210.816 
L 83.214034 194.688 
L 86.25767 194.688 
L 86.25767 202.752 
L 89.301307 202.752 
L 89.301307 194.688 
L 92.344943 194.688 
L 92.344943 210.816 
L 95.38858 210.816 
L 95.38858 202.752 
L 98.432216 202.752 
L 98.432216 194.688 
L 101.475852 194.688 
L 101.475852 186.624 
L 104.519489 186.624 
L 104.519489 178.56 
L 110.606761 178.56 
L 110.606761 170.496 
L 116.694034 170.496 
L 116.694034 194.688 
L 122.781307 194.688 
L 122.781307 146.304 
L 125.824943 146.304 
L 125.824943 194.688 
L 128.86858 194.688 
L 128.86858 218.88 
L 144.086761 218.88 
L 144.086761 210.816 
L 147.130398 210.816 
L 147.130398 130.176 
L 150.174034 130.176 
L 150.174034 146.304 
L 153.21767 146.304 
L 153.21767 162.432 
L 156.261307 162.432 
L 156.261307 178.56 
L 159.304943 178.56 
L 159.304943 162.432 
L 162.34858 162.432 
L 162.34858 194.688 
L 165.392216 194.688 
L 165.392216 154.368 
L 168.435852 154.368 
L 168.435852 146.304 
L 174.523125 146.304 
L 174.523125 122.112 
L 177.566761 122.112 
L 177.566761 130.176 
L 180.610398 130.176 
L 180.610398 178.56 
L 183.654034 178.56 
L 183.654034 97.92 
L 186.69767 97.92 
L 186.69767 186.624 
L 189.741307 186.624 
L 189.741307 146.304 
L 192.784943 146.304 
L 192.784943 130.176 
L 195.82858 130.176 
L 195.82858 162.432 
L 198.872216 162.432 
L 198.872216 186.624 
L 201.915852 186.624 
L 201.915852 138.24 
L 208.003125 138.24 
L 208.003125 122.112 
L 211.046761 122.112 
L 211.046761 162.432 
L 214.090398 162.432 
L 214.090398 154.368 
L 217.134034 154.368 
L 217.134034 138.24 
L 220.17767 138.24 
L 220.17767 105.984 
L 223.221307 105.984 
L 223.221307 138.24 
L 226.264943 138.24 
L 226.264943 146.304 
L 229.30858 146.304 
L 229.30858 138.24 
L 232.352216 138.24 
L 232.352216 130.176 
L 238.439489 130.176 
L 238.439489 122.112 
L 241.483125 122.112 
L 241.483125 17.28 
L 244.526761 17.28 
L 244.526761 81.792 
L 247.570398 81.792 
L 247.570398 89.856 
L 250.614034 89.856 
L 250.614034 162.432 
L 253.65767 162.432 
L 253.65767 146.304 
L 256.701307 146.304 
L 256.701307 170.496 
L 259.744943 170.496 
L 259.744943 154.368 
L 262.78858 154.368 
L 262.78858 97.92 
L 265.832216 97.92 
L 265.832216 162.432 
L 268.875852 162.432 
L 268.875852 97.92 
L 271.919489 97.92 
L 271.919489 146.304 
L 274.963125 146.304 
L 274.963125 170.496 
L 278.006761 170.496 
L 278.006761 154.368 
L 281.050398 154.368 
L 281.050398 170.496 
L 284.094034 170.496 
L 284.094034 178.56 
L 287.13767 178.56 
L 287.13767 170.496 
L 290.181307 170.496 
L 290.181307 122.112 
L 293.224943 122.112 
L 293.224943 146.304 
L 296.26858 146.304 
L 296.26858 154.368 
L 299.312216 154.368 
L 299.312216 162.432 
L 302.355852 162.432 
L 302.355852 170.496 
L 305.399489 170.496 
L 305.399489 105.984 
L 308.443125 105.984 
L 308.443125 122.112 
L 311.486761 122.112 
L 311.486761 114.048 
L 314.530398 114.048 
L 314.530398 178.56 
L 317.574034 178.56 
L 317.574034 170.496 
L 320.61767 170.496 
L 320.61767 186.624 
L 323.661307 186.624 
L 323.661307 130.176 
L 326.704943 130.176 
L 326.704943 154.368 
L 329.74858 154.368 
L 329.74858 178.56 
L 335.835852 178.56 
L 335.835852 154.368 
L 338.879489 154.368 
L 338.879489 186.624 
L 341.923125 186.624 
L 341.923125 202.752 
L 348.010398 202.752 
L 348.010398 178.56 
L 351.054034 178.56 
L 351.054034 122.112 
L 354.09767 122.112 
L 354.09767 210.816 
L 357.141307 210.816 
L 357.141307 202.752 
L 360.184943 202.752 
L 360.184943 202.752 
" clip-path="url(#p821315c917)" style="fill: none; stroke: #ff7f0e; stroke-width: 1.5; stroke-linecap: square"/>
   </g>
   <g id="patch_3">
    <path d="M 40.603125 228.96 
L 40.603125 7.2 
" style="fill: none; stroke: #000000; stroke-width: 0.8; stroke-linejoin: miter; stroke-linecap: square"/>
   </g>
   <g id="patch_4">
    <path d="M 375.403125 228.96 
L 375.403125 7.2 
" style="fill: none; stroke: #000000; stroke-width: 0.8; stroke-linejoin: miter; stroke-linecap: square"/>
   </g>
   <g id="patch_5">
    <path d="M 40.603125 228.96 
L 375.403125 228.96 
" style="fill: none; stroke: #000000; stroke-width: 0.8; stroke-linejoin: miter; stroke-linecap: square"/>
   </g>
   <g id="patch_6">
    <path d="M 40.603125 7.2 
L 375.403125 7.2 
" style="fill: none; stroke: #000000; stroke-width: 0.8; stroke-linejoin: miter; stroke-linecap: square"/>
   </g>
   <g id="legend_1">
    <g id="patch_7">
     <path d="M 268.171875 44.834375 
L 368.403125 44.834375 
Q 370.403125 44.834375 370.403125 42.834375 
L 370.403125 14.2 
Q 370.403125 12.2 368.403125 12.2 
L 268.171875 12.2 
Q 266.171875 12.2 266.171875 14.2 
L 266.171875 42.834375 
Q 266.171875 44.834375 268.171875 44.834375 
z
" style="fill: #ffffff; opacity: 0.8; stroke: #cccccc; stroke-linejoin: miter"/>
    </g>
    <g id="line2d_17">
     <path d="M 270.171875 20.298437 
L 270.171875 20.298437 
L 280.171875 20.298437 
L 280.171875 20.298437 
L 290.171875 20.298437 
" style="fill: none; stroke: #1f77b4; stroke-width: 1.5; stroke-linecap: square"/>
    </g>
    <g id="text_17">
     <!-- original -->
     <g transform="translate(298.171875 23.798437) scale(0.1 -0.1)">
      <defs>
       <path id="DejaVuSans-72" d="M 2631 2963 
Q 2534 3019 2420 3045 
Q 2306 3072 2169 3072 
Q 1681 3072 1420 2755 
Q 1159 2438 1159 1844 
L 1159 0 
L 581 0 
L 581 3500 
L 1159 3500 
L 1159 2956 
Q 1341 3275 1631 3429 
Q 1922 3584 2338 3584 
Q 2397 3584 2469 3576 
Q 2541 3569 2628 3553 
L 2631 2963 
z
" transform="scale(0.015625)"/>
       <path id="DejaVuSans-69" d="M 603 3500 
L 1178 3500 
L 1178 0 
L 603 0 
L 603 3500 
z
M 603 4863 
L 1178 4863 
L 1178 4134 
L 603 4134 
L 603 4863 
z
" transform="scale(0.015625)"/>
       <path id="DejaVuSans-67" d="M 2906 1791 
Q 2906 2416 2648 2759 
Q 2391 3103 1925 3103 
Q 1463 3103 1205 2759 
Q 947 2416 947 1791 
Q 947 1169 1205 825 
Q 1463 481 1925 481 
Q 2391 481 2648 825 
Q 2906 1169 2906 1791 
z
M 3481 434 
Q 3481 -459 3084 -895 
Q 2688 -1331 1869 -1331 
Q 1566 -1331 1297 -1286 
Q 1028 -1241 775 -1147 
L 775 -588 
Q 1028 -725 1275 -790 
Q 1522 -856 1778 -856 
Q 2344 -856 2625 -561 
Q 2906 -266 2906 331 
L 2906 616 
Q 2728 306 2450 153 
Q 2172 0 1784 0 
Q 1141 0 747 490 
Q 353 981 353 1791 
Q 353 2603 747 3093 
Q 1141 3584 1784 3584 
Q 2172 3584 2450 3431 
Q 2728 3278 2906 2969 
L 2906 3500 
L 3481 3500 
L 3481 434 
z
" transform="scale(0.015625)"/>
       <path id="DejaVuSans-61" d="M 2194 1759 
Q 1497 1759 1228 1600 
Q 959 1441 959 1056 
Q 959 750 1161 570 
Q 1363 391 1709 391 
Q 2188 391 2477 730 
Q 2766 1069 2766 1631 
L 2766 1759 
L 2194 1759 
z
M 3341 1997 
L 3341 0 
L 2766 0 
L 2766 531 
Q 2569 213 2275 61 
Q 1981 -91 1556 -91 
Q 1019 -91 701 211 
Q 384 513 384 1019 
Q 384 1609 779 1909 
Q 1175 2209 1959 2209 
L 2766 2209 
L 2766 2266 
Q 2766 2663 2505 2880 
Q 2244 3097 1772 3097 
Q 1472 3097 1187 3025 
Q 903 2953 641 2809 
L 641 3341 
Q 956 3463 1253 3523 
Q 1550 3584 1831 3584 
Q 2591 3584 2966 3190 
Q 3341 2797 3341 1997 
z
" transform="scale(0.015625)"/>
       <path id="DejaVuSans-6c" d="M 603 4863 
L 1178 4863 
L 1178 0 
L 603 0 
L 603 4863 
z
" transform="scale(0.015625)"/>
      </defs>
      <use xlink:href="#DejaVuSans-6f"/>
      <use xlink:href="#DejaVuSans-72" x="61.181641"/>
      <use xlink:href="#DejaVuSans-69" x="102.294922"/>
      <use xlink:href="#DejaVuSans-67" x="130.078125"/>
      <use xlink:href="#DejaVuSans-69" x="193.554688"/>
      <use xlink:href="#DejaVuSans-6e" x="221.337891"/>
      <use xlink:href="#DejaVuSans-61" x="284.716797"/>
      <use xlink:href="#DejaVuSans-6c" x="345.996094"/>
     </g>
    </g>
    <g id="line2d_18">
     <path d="M 270.171875 34.976562 
L 270.171875 34.976562 
L 280.171875 34.976562 
L 280.171875 34.976562 
L 290.171875 34.976562 
" style="fill: none; stroke: #ff7f0e; stroke-width: 1.5; stroke-linecap: square"/>
    </g>
    <g id="text_18">
     <!-- prompt_mask -->
     <g transform="translate(298.171875 38.476562) scale(0.1 -0.1)">
      <defs>
       <path id="DejaVuSans-70" d="M 1159 525 
L 1159 -1331 
L 581 -1331 
L 581 3500 
L 1159 3500 
L 1159 2969 
Q 1341 3281 1617 3432 
Q 1894 3584 2278 3584 
Q 2916 3584 3314 3078 
Q 3713 2572 3713 1747 
Q 3713 922 3314 415 
Q 2916 -91 2278 -91 
Q 1894 -91 1617 61 
Q 1341 213 1159 525 
z
M 3116 1747 
Q 3116 2381 2855 2742 
Q 2594 3103 2138 3103 
Q 1681 3103 1420 2742 
Q 1159 2381 1159 1747 
Q 1159 1113 1420 752 
Q 1681 391 2138 391 
Q 2594 391 2855 752 
Q 3116 1113 3116 1747 
z
" transform="scale(0.015625)"/>
       <path id="DejaVuSans-6d" d="M 3328 2828 
Q 3544 3216 3844 3400 
Q 4144 3584 4550 3584 
Q 5097 3584 5394 3201 
Q 5691 2819 5691 2113 
L 5691 0 
L 5113 0 
L 5113 2094 
Q 5113 2597 4934 2840 
Q 4756 3084 4391 3084 
Q 3944 3084 3684 2787 
Q 3425 2491 3425 1978 
L 3425 0 
L 2847 0 
L 2847 2094 
Q 2847 2600 2669 2842 
Q 2491 3084 2119 3084 
Q 1678 3084 1418 2786 
Q 1159 2488 1159 1978 
L 1159 0 
L 581 0 
L 581 3500 
L 1159 3500 
L 1159 2956 
Q 1356 3278 1631 3431 
Q 1906 3584 2284 3584 
Q 2666 3584 2933 3390 
Q 3200 3197 3328 2828 
z
" transform="scale(0.015625)"/>
       <path id="DejaVuSans-5f" d="M 3263 -1063 
L 3263 -1509 
L -63 -1509 
L -63 -1063 
L 3263 -1063 
z
" transform="scale(0.015625)"/>
       <path id="DejaVuSans-6b" d="M 581 4863 
L 1159 4863 
L 1159 1991 
L 2875 3500 
L 3609 3500 
L 1753 1863 
L 3688 0 
L 2938 0 
L 1159 1709 
L 1159 0 
L 581 0 
L 581 4863 
z
" transform="scale(0.015625)"/>
      </defs>
      <use xlink:href="#DejaVuSans-70"/>
      <use xlink:href="#DejaVuSans-72" x="63.476562"/>
      <use xlink:href="#DejaVuSans-6f" x="102.339844"/>
      <use xlink:href="#DejaVuSans-6d" x="163.521484"/>
      <use xlink:href="#DejaVuSans-70" x="260.933594"/>
      <use xlink:href="#DejaVuSans-74" x="324.410156"/>
      <use xlink:href="#DejaVuSans-5f" x="363.619141"/>
      <use xlink:href="#DejaVuSans-6d" x="413.619141"/>
      <use xlink:href="#DejaVuSans-61" x="511.03125"/>
      <use xlink:href="#DejaVuSans-73" x="572.310547"/>
      <use xlink:href="#DejaVuSans-6b" x="624.410156"/>
     </g>
    </g>
   </g>
  </g>
 </g>
 <defs>
  <clipPath id="p821315c917">
   <rect x="40.603125" y="7.2" width="334.8" height="221.76"/>
  </clipPath>
 </defs>
</svg>
