<?xml version="1.0" encoding="utf-8" standalone="no"?>
<!DOCTYPE svg PUBLIC "-//W3C//DTD SVG 1.1//EN"
  "http://www.w3.org/Graphics/SVG/1.1/DTD/svg11.dtd">
<svg xmlns:xlink="http://www.w3.org/1999/xlink" width="422.714287pt" height="279.674687pt" viewBox="0 0 422.714287 279.674687" xmlns="http://www.w3.org/2000/svg" version="1.1">
 <metadata>
  <rdf:RDF xmlns:dc="http://purl.org/dc/elements/1.1/" xmlns:cc="http://creativecommons.org/ns#" xmlns:rdf="http://www.w3.org/1999/02/22-rdf-syntax-ns#">
   <cc:Work>
    <dc:type rdf:resource="http://purl.org/dc/dcmitype/StillImage"/>
    <dc:date>2024-06-24T07:51:07.689144</dc:date>
    <dc:format>image/svg+xml</dc:format>
    <dc:creator>
     <cc:Agent>
      <dc:title>Matplotlib v3.8.2, https://matplotlib.org/</dc:title>
     </cc:Agent>
    </dc:creator>
   </cc:Work>
  </rdf:RDF>
 </metadata>
 <defs>
  <style type="text/css">*{stroke-linejoin: round; stroke-linecap: butt}</style>
 </defs>
 <g id="figure_1">
  <g id="patch_1">
   <path d="M 0 279.674687 
L 422.714287 279.674687 
L 422.714287 0 
L 0 0 
z
" style="fill: #ffffff"/>
  </g>
  <g id="axes_1">
   <g id="patch_2">
    <path d="M 43.78125 242.118437 
L 413.219432 242.118437 
L 413.219432 17.798437 
L 43.78125 17.798437 
z
" style="fill: #ffffff"/>
   </g>
   <g id="matplotlib.axis_1">
    <g id="xtick_1">
     <g id="line2d_1">
      <defs>
       <path id="mf2ac3ffd49" d="M 0 0 
L 0 3.5 
" style="stroke: #000000; stroke-width: 0.8"/>
      </defs>
      <g>
       <use xlink:href="#mf2ac3ffd49" x="60.557101" y="242.118437" style="stroke: #000000; stroke-width: 0.8"/>
      </g>
     </g>
     <g id="text_1">
      <!-- 0 -->
      <g transform="translate(57.375851 256.716875) scale(0.1 -0.1)">
       <defs>
        <path id="DejaVuSans-30" d="M 2034 4250 
Q 1547 4250 1301 3770 
Q 1056 3291 1056 2328 
Q 1056 1369 1301 889 
Q 1547 409 2034 409 
Q 2525 409 2770 889 
Q 3016 1369 3016 2328 
Q 3016 3291 2770 3770 
Q 2525 4250 2034 4250 
z
M 2034 4750 
Q 2819 4750 3233 4129 
Q 3647 3509 3647 2328 
Q 3647 1150 3233 529 
Q 2819 -91 2034 -91 
Q 1250 -91 836 529 
Q 422 1150 422 2328 
Q 422 3509 836 4129 
Q 1250 4750 2034 4750 
z
" transform="scale(0.015625)"/>
       </defs>
       <use xlink:href="#DejaVuSans-30"/>
      </g>
     </g>
    </g>
    <g id="xtick_2">
     <g id="line2d_2">
      <g>
       <use xlink:href="#mf2ac3ffd49" x="127.731038" y="242.118437" style="stroke: #000000; stroke-width: 0.8"/>
      </g>
     </g>
     <g id="text_2">
      <!-- 20000 -->
      <g transform="translate(111.824788 256.716875) scale(0.1 -0.1)">
       <defs>
        <path id="DejaVuSans-32" d="M 1228 531 
L 3431 531 
L 3431 0 
L 469 0 
L 469 531 
Q 828 903 1448 1529 
Q 2069 2156 2228 2338 
Q 2531 2678 2651 2914 
Q 2772 3150 2772 3378 
Q 2772 3750 2511 3984 
Q 2250 4219 1831 4219 
Q 1534 4219 1204 4116 
Q 875 4013 500 3803 
L 500 4441 
Q 881 4594 1212 4672 
Q 1544 4750 1819 4750 
Q 2544 4750 2975 4387 
Q 3406 4025 3406 3419 
Q 3406 3131 3298 2873 
Q 3191 2616 2906 2266 
Q 2828 2175 2409 1742 
Q 1991 1309 1228 531 
z
" transform="scale(0.015625)"/>
       </defs>
       <use xlink:href="#DejaVuSans-32"/>
       <use xlink:href="#DejaVuSans-30" x="63.623047"/>
       <use xlink:href="#DejaVuSans-30" x="127.246094"/>
       <use xlink:href="#DejaVuSans-30" x="190.869141"/>
       <use xlink:href="#DejaVuSans-30" x="254.492188"/>
      </g>
     </g>
    </g>
    <g id="xtick_3">
     <g id="line2d_3">
      <g>
       <use xlink:href="#mf2ac3ffd49" x="194.904976" y="242.118437" style="stroke: #000000; stroke-width: 0.8"/>
      </g>
     </g>
     <g id="text_3">
      <!-- 40000 -->
      <g transform="translate(178.998726 256.716875) scale(0.1 -0.1)">
       <defs>
        <path id="DejaVuSans-34" d="M 2419 4116 
L 825 1625 
L 2419 1625 
L 2419 4116 
z
M 2253 4666 
L 3047 4666 
L 3047 1625 
L 3713 1625 
L 3713 1100 
L 3047 1100 
L 3047 0 
L 2419 0 
L 2419 1100 
L 313 1100 
L 313 1709 
L 2253 4666 
z
" transform="scale(0.015625)"/>
       </defs>
       <use xlink:href="#DejaVuSans-34"/>
       <use xlink:href="#DejaVuSans-30" x="63.623047"/>
       <use xlink:href="#DejaVuSans-30" x="127.246094"/>
       <use xlink:href="#DejaVuSans-30" x="190.869141"/>
       <use xlink:href="#DejaVuSans-30" x="254.492188"/>
      </g>
     </g>
    </g>
    <g id="xtick_4">
     <g id="line2d_4">
      <g>
       <use xlink:href="#mf2ac3ffd49" x="262.078913" y="242.118437" style="stroke: #000000; stroke-width: 0.8"/>
      </g>
     </g>
     <g id="text_4">
      <!-- 60000 -->
      <g transform="translate(246.172663 256.716875) scale(0.1 -0.1)">
       <defs>
        <path id="DejaVuSans-36" d="M 2113 2584 
Q 1688 2584 1439 2293 
Q 1191 2003 1191 1497 
Q 1191 994 1439 701 
Q 1688 409 2113 409 
Q 2538 409 2786 701 
Q 3034 994 3034 1497 
Q 3034 2003 2786 2293 
Q 2538 2584 2113 2584 
z
M 3366 4563 
L 3366 3988 
Q 3128 4100 2886 4159 
Q 2644 4219 2406 4219 
Q 1781 4219 1451 3797 
Q 1122 3375 1075 2522 
Q 1259 2794 1537 2939 
Q 1816 3084 2150 3084 
Q 2853 3084 3261 2657 
Q 3669 2231 3669 1497 
Q 3669 778 3244 343 
Q 2819 -91 2113 -91 
Q 1303 -91 875 529 
Q 447 1150 447 2328 
Q 447 3434 972 4092 
Q 1497 4750 2381 4750 
Q 2619 4750 2861 4703 
Q 3103 4656 3366 4563 
z
" transform="scale(0.015625)"/>
       </defs>
       <use xlink:href="#DejaVuSans-36"/>
       <use xlink:href="#DejaVuSans-30" x="63.623047"/>
       <use xlink:href="#DejaVuSans-30" x="127.246094"/>
       <use xlink:href="#DejaVuSans-30" x="190.869141"/>
       <use xlink:href="#DejaVuSans-30" x="254.492188"/>
      </g>
     </g>
    </g>
    <g id="xtick_5">
     <g id="line2d_5">
      <g>
       <use xlink:href="#mf2ac3ffd49" x="329.25285" y="242.118437" style="stroke: #000000; stroke-width: 0.8"/>
      </g>
     </g>
     <g id="text_5">
      <!-- 80000 -->
      <g transform="translate(313.3466 256.716875) scale(0.1 -0.1)">
       <defs>
        <path id="DejaVuSans-38" d="M 2034 2216 
Q 1584 2216 1326 1975 
Q 1069 1734 1069 1313 
Q 1069 891 1326 650 
Q 1584 409 2034 409 
Q 2484 409 2743 651 
Q 3003 894 3003 1313 
Q 3003 1734 2745 1975 
Q 2488 2216 2034 2216 
z
M 1403 2484 
Q 997 2584 770 2862 
Q 544 3141 544 3541 
Q 544 4100 942 4425 
Q 1341 4750 2034 4750 
Q 2731 4750 3128 4425 
Q 3525 4100 3525 3541 
Q 3525 3141 3298 2862 
Q 3072 2584 2669 2484 
Q 3125 2378 3379 2068 
Q 3634 1759 3634 1313 
Q 3634 634 3220 271 
Q 2806 -91 2034 -91 
Q 1263 -91 848 271 
Q 434 634 434 1313 
Q 434 1759 690 2068 
Q 947 2378 1403 2484 
z
M 1172 3481 
Q 1172 3119 1398 2916 
Q 1625 2713 2034 2713 
Q 2441 2713 2670 2916 
Q 2900 3119 2900 3481 
Q 2900 3844 2670 4047 
Q 2441 4250 2034 4250 
Q 1625 4250 1398 4047 
Q 1172 3844 1172 3481 
z
" transform="scale(0.015625)"/>
       </defs>
       <use xlink:href="#DejaVuSans-38"/>
       <use xlink:href="#DejaVuSans-30" x="63.623047"/>
       <use xlink:href="#DejaVuSans-30" x="127.246094"/>
       <use xlink:href="#DejaVuSans-30" x="190.869141"/>
       <use xlink:href="#DejaVuSans-30" x="254.492188"/>
      </g>
     </g>
    </g>
    <g id="xtick_6">
     <g id="line2d_6">
      <g>
       <use xlink:href="#mf2ac3ffd49" x="396.426787" y="242.118437" style="stroke: #000000; stroke-width: 0.8"/>
      </g>
     </g>
     <g id="text_6">
      <!-- 100000 -->
      <g transform="translate(377.339287 256.716875) scale(0.1 -0.1)">
       <defs>
        <path id="DejaVuSans-31" d="M 794 531 
L 1825 531 
L 1825 4091 
L 703 3866 
L 703 4441 
L 1819 4666 
L 2450 4666 
L 2450 531 
L 3481 531 
L 3481 0 
L 794 0 
L 794 531 
z
" transform="scale(0.015625)"/>
       </defs>
       <use xlink:href="#DejaVuSans-31"/>
       <use xlink:href="#DejaVuSans-30" x="63.623047"/>
       <use xlink:href="#DejaVuSans-30" x="127.246094"/>
       <use xlink:href="#DejaVuSans-30" x="190.869141"/>
       <use xlink:href="#DejaVuSans-30" x="254.492188"/>
       <use xlink:href="#DejaVuSans-30" x="318.115234"/>
      </g>
     </g>
    </g>
    <g id="text_7">
     <!-- tof [µs] -->
     <g transform="translate(210.444091 270.395) scale(0.1 -0.1)">
      <defs>
       <path id="DejaVuSans-74" d="M 1172 4494 
L 1172 3500 
L 2356 3500 
L 2356 3053 
L 1172 3053 
L 1172 1153 
Q 1172 725 1289 603 
Q 1406 481 1766 481 
L 2356 481 
L 2356 0 
L 1766 0 
Q 1100 0 847 248 
Q 594 497 594 1153 
L 594 3053 
L 172 3053 
L 172 3500 
L 594 3500 
L 594 4494 
L 1172 4494 
z
" transform="scale(0.015625)"/>
       <path id="DejaVuSans-6f" d="M 1959 3097 
Q 1497 3097 1228 2736 
Q 959 2375 959 1747 
Q 959 1119 1226 758 
Q 1494 397 1959 397 
Q 2419 397 2687 759 
Q 2956 1122 2956 1747 
Q 2956 2369 2687 2733 
Q 2419 3097 1959 3097 
z
M 1959 3584 
Q 2709 3584 3137 3096 
Q 3566 2609 3566 1747 
Q 3566 888 3137 398 
Q 2709 -91 1959 -91 
Q 1206 -91 779 398 
Q 353 888 353 1747 
Q 353 2609 779 3096 
Q 1206 3584 1959 3584 
z
" transform="scale(0.015625)"/>
       <path id="DejaVuSans-66" d="M 2375 4863 
L 2375 4384 
L 1825 4384 
Q 1516 4384 1395 4259 
Q 1275 4134 1275 3809 
L 1275 3500 
L 2222 3500 
L 2222 3053 
L 1275 3053 
L 1275 0 
L 697 0 
L 697 3053 
L 147 3053 
L 147 3500 
L 697 3500 
L 697 3744 
Q 697 4328 969 4595 
Q 1241 4863 1831 4863 
L 2375 4863 
z
" transform="scale(0.015625)"/>
       <path id="DejaVuSans-20" transform="scale(0.015625)"/>
       <path id="DejaVuSans-5b" d="M 550 4863 
L 1875 4863 
L 1875 4416 
L 1125 4416 
L 1125 -397 
L 1875 -397 
L 1875 -844 
L 550 -844 
L 550 4863 
z
" transform="scale(0.015625)"/>
       <path id="DejaVuSans-b5" d="M 544 -1331 
L 544 3500 
L 1119 3500 
L 1119 1325 
Q 1119 872 1334 640 
Q 1550 409 1972 409 
Q 2434 409 2667 671 
Q 2900 934 2900 1459 
L 2900 3500 
L 3475 3500 
L 3475 806 
Q 3475 619 3529 530 
Q 3584 441 3700 441 
Q 3728 441 3778 458 
Q 3828 475 3916 513 
L 3916 50 
Q 3788 -22 3673 -56 
Q 3559 -91 3450 -91 
Q 3234 -91 3106 31 
Q 2978 153 2931 403 
Q 2775 156 2548 32 
Q 2322 -91 2016 -91 
Q 1697 -91 1473 31 
Q 1250 153 1119 397 
L 1119 -1331 
L 544 -1331 
z
" transform="scale(0.015625)"/>
       <path id="DejaVuSans-73" d="M 2834 3397 
L 2834 2853 
Q 2591 2978 2328 3040 
Q 2066 3103 1784 3103 
Q 1356 3103 1142 2972 
Q 928 2841 928 2578 
Q 928 2378 1081 2264 
Q 1234 2150 1697 2047 
L 1894 2003 
Q 2506 1872 2764 1633 
Q 3022 1394 3022 966 
Q 3022 478 2636 193 
Q 2250 -91 1575 -91 
Q 1294 -91 989 -36 
Q 684 19 347 128 
L 347 722 
Q 666 556 975 473 
Q 1284 391 1588 391 
Q 1994 391 2212 530 
Q 2431 669 2431 922 
Q 2431 1156 2273 1281 
Q 2116 1406 1581 1522 
L 1381 1569 
Q 847 1681 609 1914 
Q 372 2147 372 2553 
Q 372 3047 722 3315 
Q 1072 3584 1716 3584 
Q 2034 3584 2315 3537 
Q 2597 3491 2834 3397 
z
" transform="scale(0.015625)"/>
       <path id="DejaVuSans-5d" d="M 1947 4863 
L 1947 -844 
L 622 -844 
L 622 -397 
L 1369 -397 
L 1369 4416 
L 622 4416 
L 622 4863 
L 1947 4863 
z
" transform="scale(0.015625)"/>
      </defs>
      <use xlink:href="#DejaVuSans-74"/>
      <use xlink:href="#DejaVuSans-6f" x="39.208984"/>
      <use xlink:href="#DejaVuSans-66" x="100.390625"/>
      <use xlink:href="#DejaVuSans-20" x="135.595703"/>
      <use xlink:href="#DejaVuSans-5b" x="167.382812"/>
      <use xlink:href="#DejaVuSans-b5" x="206.396484"/>
      <use xlink:href="#DejaVuSans-73" x="270.019531"/>
      <use xlink:href="#DejaVuSans-5d" x="322.119141"/>
     </g>
    </g>
   </g>
   <g id="matplotlib.axis_2">
    <g id="ytick_1">
     <g id="line2d_7">
      <defs>
       <path id="m67b4300f30" d="M 0 0 
L -3.5 0 
" style="stroke: #000000; stroke-width: 0.8"/>
      </defs>
      <g>
       <use xlink:href="#m67b4300f30" x="43.78125" y="231.937425" style="stroke: #000000; stroke-width: 0.8"/>
      </g>
     </g>
     <g id="text_8">
      <!-- 0.0 -->
      <g transform="translate(20.878125 235.736644) scale(0.1 -0.1)">
       <defs>
        <path id="DejaVuSans-2e" d="M 684 794 
L 1344 794 
L 1344 0 
L 684 0 
L 684 794 
z
" transform="scale(0.015625)"/>
       </defs>
       <use xlink:href="#DejaVuSans-30"/>
       <use xlink:href="#DejaVuSans-2e" x="63.623047"/>
       <use xlink:href="#DejaVuSans-30" x="95.410156"/>
      </g>
     </g>
    </g>
    <g id="ytick_2">
     <g id="line2d_8">
      <g>
       <use xlink:href="#m67b4300f30" x="43.78125" y="191.92869" style="stroke: #000000; stroke-width: 0.8"/>
      </g>
     </g>
     <g id="text_9">
      <!-- 0.2 -->
      <g transform="translate(20.878125 195.727908) scale(0.1 -0.1)">
       <use xlink:href="#DejaVuSans-30"/>
       <use xlink:href="#DejaVuSans-2e" x="63.623047"/>
       <use xlink:href="#DejaVuSans-32" x="95.410156"/>
      </g>
     </g>
    </g>
    <g id="ytick_3">
     <g id="line2d_9">
      <g>
       <use xlink:href="#m67b4300f30" x="43.78125" y="151.919954" style="stroke: #000000; stroke-width: 0.8"/>
      </g>
     </g>
     <g id="text_10">
      <!-- 0.4 -->
      <g transform="translate(20.878125 155.719173) scale(0.1 -0.1)">
       <use xlink:href="#DejaVuSans-30"/>
       <use xlink:href="#DejaVuSans-2e" x="63.623047"/>
       <use xlink:href="#DejaVuSans-34" x="95.410156"/>
      </g>
     </g>
    </g>
    <g id="ytick_4">
     <g id="line2d_10">
      <g>
       <use xlink:href="#m67b4300f30" x="43.78125" y="111.911219" style="stroke: #000000; stroke-width: 0.8"/>
      </g>
     </g>
     <g id="text_11">
      <!-- 0.6 -->
      <g transform="translate(20.878125 115.710438) scale(0.1 -0.1)">
       <use xlink:href="#DejaVuSans-30"/>
       <use xlink:href="#DejaVuSans-2e" x="63.623047"/>
       <use xlink:href="#DejaVuSans-36" x="95.410156"/>
      </g>
     </g>
    </g>
    <g id="ytick_5">
     <g id="line2d_11">
      <g>
       <use xlink:href="#m67b4300f30" x="43.78125" y="71.902484" style="stroke: #000000; stroke-width: 0.8"/>
      </g>
     </g>
     <g id="text_12">
      <!-- 0.8 -->
      <g transform="translate(20.878125 75.701703) scale(0.1 -0.1)">
       <use xlink:href="#DejaVuSans-30"/>
       <use xlink:href="#DejaVuSans-2e" x="63.623047"/>
       <use xlink:href="#DejaVuSans-38" x="95.410156"/>
      </g>
     </g>
    </g>
    <g id="ytick_6">
     <g id="line2d_12">
      <g>
       <use xlink:href="#m67b4300f30" x="43.78125" y="31.893749" style="stroke: #000000; stroke-width: 0.8"/>
      </g>
     </g>
     <g id="text_13">
      <!-- 1.0 -->
      <g transform="translate(20.878125 35.692967) scale(0.1 -0.1)">
       <use xlink:href="#DejaVuSans-31"/>
       <use xlink:href="#DejaVuSans-2e" x="63.623047"/>
       <use xlink:href="#DejaVuSans-30" x="95.410156"/>
      </g>
     </g>
    </g>
    <g id="text_14">
     <!-- [counts] -->
     <g transform="translate(14.798438 150.570937) rotate(-90) scale(0.1 -0.1)">
      <defs>
       <path id="DejaVuSans-63" d="M 3122 3366 
L 3122 2828 
Q 2878 2963 2633 3030 
Q 2388 3097 2138 3097 
Q 1578 3097 1268 2742 
Q 959 2388 959 1747 
Q 959 1106 1268 751 
Q 1578 397 2138 397 
Q 2388 397 2633 464 
Q 2878 531 3122 666 
L 3122 134 
Q 2881 22 2623 -34 
Q 2366 -91 2075 -91 
Q 1284 -91 818 406 
Q 353 903 353 1747 
Q 353 2603 823 3093 
Q 1294 3584 2113 3584 
Q 2378 3584 2631 3529 
Q 2884 3475 3122 3366 
z
" transform="scale(0.015625)"/>
       <path id="DejaVuSans-75" d="M 544 1381 
L 544 3500 
L 1119 3500 
L 1119 1403 
Q 1119 906 1312 657 
Q 1506 409 1894 409 
Q 2359 409 2629 706 
Q 2900 1003 2900 1516 
L 2900 3500 
L 3475 3500 
L 3475 0 
L 2900 0 
L 2900 538 
Q 2691 219 2414 64 
Q 2138 -91 1772 -91 
Q 1169 -91 856 284 
Q 544 659 544 1381 
z
M 1991 3584 
L 1991 3584 
z
" transform="scale(0.015625)"/>
       <path id="DejaVuSans-6e" d="M 3513 2113 
L 3513 0 
L 2938 0 
L 2938 2094 
Q 2938 2591 2744 2837 
Q 2550 3084 2163 3084 
Q 1697 3084 1428 2787 
Q 1159 2491 1159 1978 
L 1159 0 
L 581 0 
L 581 3500 
L 1159 3500 
L 1159 2956 
Q 1366 3272 1645 3428 
Q 1925 3584 2291 3584 
Q 2894 3584 3203 3211 
Q 3513 2838 3513 2113 
z
" transform="scale(0.015625)"/>
      </defs>
      <use xlink:href="#DejaVuSans-5b"/>
      <use xlink:href="#DejaVuSans-63" x="39.013672"/>
      <use xlink:href="#DejaVuSans-6f" x="93.994141"/>
      <use xlink:href="#DejaVuSans-75" x="155.175781"/>
      <use xlink:href="#DejaVuSans-6e" x="218.554688"/>
      <use xlink:href="#DejaVuSans-74" x="281.933594"/>
      <use xlink:href="#DejaVuSans-73" x="321.142578"/>
      <use xlink:href="#DejaVuSans-5d" x="373.242188"/>
     </g>
    </g>
    <g id="text_15">
     <!-- 1e6 -->
     <g transform="translate(43.78125 14.798437) scale(0.1 -0.1)">
      <defs>
       <path id="DejaVuSans-65" d="M 3597 1894 
L 3597 1613 
L 953 1613 
Q 991 1019 1311 708 
Q 1631 397 2203 397 
Q 2534 397 2845 478 
Q 3156 559 3463 722 
L 3463 178 
Q 3153 47 2828 -22 
Q 2503 -91 2169 -91 
Q 1331 -91 842 396 
Q 353 884 353 1716 
Q 353 2575 817 3079 
Q 1281 3584 2069 3584 
Q 2775 3584 3186 3129 
Q 3597 2675 3597 1894 
z
M 3022 2063 
Q 3016 2534 2758 2815 
Q 2500 3097 2075 3097 
Q 1594 3097 1305 2825 
Q 1016 2553 972 2059 
L 3022 2063 
z
" transform="scale(0.015625)"/>
      </defs>
      <use xlink:href="#DejaVuSans-31"/>
      <use xlink:href="#DejaVuSans-65" x="63.623047"/>
      <use xlink:href="#DejaVuSans-36" x="125.146484"/>
     </g>
    </g>
   </g>
   <g id="patch_3">
    <path d="M 43.78125 242.118437 
L 43.78125 17.798438 
" style="fill: none; stroke: #000000; stroke-width: 0.8; stroke-linejoin: miter; stroke-linecap: square"/>
   </g>
   <g id="patch_4">
    <path d="M 413.219432 242.118437 
L 413.219432 17.798438 
" style="fill: none; stroke: #000000; stroke-width: 0.8; stroke-linejoin: miter; stroke-linecap: square"/>
   </g>
   <g id="patch_5">
    <path d="M 43.78125 242.118437 
L 413.219432 242.118437 
" style="fill: none; stroke: #000000; stroke-width: 0.8; stroke-linejoin: miter; stroke-linecap: square"/>
   </g>
   <g id="patch_6">
    <path d="M 43.78125 17.798437 
L 413.219432 17.798437 
" style="fill: none; stroke: #000000; stroke-width: 0.8; stroke-linejoin: miter; stroke-linecap: square"/>
   </g>
   <g id="legend_1">
    <g id="patch_7">
     <path d="M 331.995994 40.476562 
L 406.219432 40.476562 
Q 408.219432 40.476562 408.219432 38.476562 
L 408.219432 24.798437 
Q 408.219432 22.798437 406.219432 22.798437 
L 331.995994 22.798437 
Q 329.995994 22.798437 329.995994 24.798437 
L 329.995994 38.476562 
Q 329.995994 40.476562 331.995994 40.476562 
z
" style="fill: #ffffff; opacity: 0.8; stroke: #cccccc; stroke-linejoin: miter"/>
    </g>
    <g id="line2d_13">
     <path d="M 333.995994 30.896875 
L 333.995994 30.896875 
L 343.995994 30.896875 
L 343.995994 30.896875 
L 353.995994 30.896875 
" style="fill: none; stroke: #1f77b4; stroke-width: 1.5; stroke-linecap: square"/>
    </g>
    <g id="text_16">
     <!-- detector -->
     <g transform="translate(361.995994 34.396875) scale(0.1 -0.1)">
      <defs>
       <path id="DejaVuSans-64" d="M 2906 2969 
L 2906 4863 
L 3481 4863 
L 3481 0 
L 2906 0 
L 2906 525 
Q 2725 213 2448 61 
Q 2172 -91 1784 -91 
Q 1150 -91 751 415 
Q 353 922 353 1747 
Q 353 2572 751 3078 
Q 1150 3584 1784 3584 
Q 2172 3584 2448 3432 
Q 2725 3281 2906 2969 
z
M 947 1747 
Q 947 1113 1208 752 
Q 1469 391 1925 391 
Q 2381 391 2643 752 
Q 2906 1113 2906 1747 
Q 2906 2381 2643 2742 
Q 2381 3103 1925 3103 
Q 1469 3103 1208 2742 
Q 947 2381 947 1747 
z
" transform="scale(0.015625)"/>
       <path id="DejaVuSans-72" d="M 2631 2963 
Q 2534 3019 2420 3045 
Q 2306 3072 2169 3072 
Q 1681 3072 1420 2755 
Q 1159 2438 1159 1844 
L 1159 0 
L 581 0 
L 581 3500 
L 1159 3500 
L 1159 2956 
Q 1341 3275 1631 3429 
Q 1922 3584 2338 3584 
Q 2397 3584 2469 3576 
Q 2541 3569 2628 3553 
L 2631 2963 
z
" transform="scale(0.015625)"/>
      </defs>
      <use xlink:href="#DejaVuSans-64"/>
      <use xlink:href="#DejaVuSans-65" x="63.476562"/>
      <use xlink:href="#DejaVuSans-74" x="125"/>
      <use xlink:href="#DejaVuSans-65" x="164.208984"/>
      <use xlink:href="#DejaVuSans-63" x="225.732422"/>
      <use xlink:href="#DejaVuSans-74" x="280.712891"/>
      <use xlink:href="#DejaVuSans-6f" x="319.921875"/>
      <use xlink:href="#DejaVuSans-72" x="381.103516"/>
     </g>
    </g>
   </g>
   <g id="line2d_14">
    <path d="M 60.573895 229.518435 
L 62.253159 229.518435 
L 62.253159 229.839979 
L 63.932424 229.839979 
L 63.932424 231.185374 
L 65.611688 231.185374 
L 65.611688 231.722745 
L 67.290952 231.722745 
L 67.290952 231.846194 
L 79.045804 231.850737 
L 79.045804 230.99515 
L 80.725068 230.99515 
L 80.725068 229.358551 
L 82.404333 229.358551 
L 82.404333 227.285065 
L 84.083597 227.285065 
L 84.083597 224.959107 
L 85.762862 224.959107 
L 85.762862 221.976119 
L 87.442126 221.976119 
L 87.442126 219.631747 
L 89.12139 219.631747 
L 89.12139 218.891744 
L 90.800655 218.891744 
L 90.800655 217.250189 
L 92.479919 217.250189 
L 92.479919 215.099519 
L 94.159184 215.099519 
L 94.159184 213.750035 
L 95.838448 213.750035 
L 95.838448 211.59082 
L 97.517713 211.59082 
L 97.517713 209.671689 
L 99.196977 209.671689 
L 99.196977 207.590778 
L 100.876242 207.590778 
L 100.876242 203.612176 
L 102.555506 203.612176 
L 102.555506 199.935347 
L 104.234771 199.935347 
L 104.234771 196.006504 
L 105.914035 196.006504 
L 105.914035 190.914768 
L 107.5933 190.914768 
L 107.5933 184.168001 
L 109.272564 184.168001 
L 109.272564 176.223724 
L 110.951829 176.223724 
L 110.951829 168.373781 
L 112.631093 168.373781 
L 112.631093 155.759711 
L 114.310357 155.759711 
L 114.310357 139.981513 
L 115.989622 139.981513 
L 115.989622 122.382969 
L 117.668886 122.382969 
L 117.668886 102.921635 
L 119.348151 102.921635 
L 119.348151 87.94955 
L 121.027415 87.94955 
L 121.027415 67.895453 
L 122.70668 67.895453 
L 122.70668 46.961627 
L 124.385944 46.961627 
L 124.385944 38.222966 
L 126.065209 38.222966 
L 126.065209 33.63979 
L 127.744473 33.63979 
L 127.744473 31.749382 
L 129.423738 31.749382 
L 129.423738 31.55909 
L 131.103002 31.55909 
L 131.103002 34.594021 
L 132.782267 34.594021 
L 132.782267 30.476851 
L 134.461531 30.476851 
L 134.461531 28.196685 
L 136.140795 28.196685 
L 136.140795 29.184998 
L 137.82006 29.184998 
L 137.82006 31.543061 
L 139.499324 31.543061 
L 139.499324 34.18462 
L 141.178589 34.18462 
L 141.178589 37.754694 
L 142.857853 37.754694 
L 142.857853 41.299169 
L 144.537118 41.299169 
L 144.537118 45.181831 
L 146.216382 45.181831 
L 146.216382 49.349647 
L 147.895647 49.349647 
L 147.895647 53.967946 
L 149.574911 53.967946 
L 149.574911 58.777934 
L 151.254176 58.777934 
L 151.254176 64.431535 
L 152.93344 64.431535 
L 152.93344 69.247216 
L 154.612705 69.247216 
L 154.612705 74.741641 
L 156.291969 74.741641 
L 156.291969 76.894931 
L 157.971233 76.894931 
L 157.971233 77.746405 
L 159.650498 77.746405 
L 159.650498 80.828371 
L 161.329762 80.828371 
L 161.329762 84.443722 
L 163.009027 84.443722 
L 163.009027 81.93793 
L 164.688291 81.93793 
L 164.688291 82.719537 
L 166.367556 82.719537 
L 166.367556 85.082231 
L 168.04682 85.082231 
L 168.04682 87.445211 
L 169.726085 87.445211 
L 169.726085 90.580576 
L 171.405349 90.580576 
L 171.405349 90.359406 
L 173.084614 90.359406 
L 173.084614 92.069807 
L 174.763878 92.069807 
L 174.763878 93.983813 
L 176.443143 93.983813 
L 176.443143 96.255819 
L 178.122407 96.255819 
L 178.122407 96.803534 
L 179.801671 96.803534 
L 179.801671 97.155376 
L 181.480936 97.155376 
L 181.480936 99.779319 
L 183.1602 99.779319 
L 183.1602 103.355691 
L 184.839465 103.355691 
L 184.839465 106.786065 
L 186.518729 106.786065 
L 186.518729 110.036477 
L 188.197994 110.036477 
L 188.197994 113.311782 
L 189.877258 113.311782 
L 189.877258 116.255611 
L 191.556523 116.255611 
L 191.556523 119.305411 
L 193.235787 119.305411 
L 193.235787 122.837051 
L 194.915052 122.837051 
L 194.915052 125.683106 
L 196.594316 125.683106 
L 196.594316 128.718406 
L 198.273581 128.718406 
L 198.273581 131.587179 
L 199.952845 131.587179 
L 199.952845 134.545288 
L 201.63211 134.545288 
L 201.63211 137.356293 
L 203.311374 137.356293 
L 203.311374 139.961312 
L 204.990638 139.961312 
L 204.990638 142.607493 
L 206.669903 142.607493 
L 206.669903 145.156702 
L 208.349167 145.156702 
L 208.349167 148.062222 
L 210.028432 148.062222 
L 210.028432 150.09533 
L 211.707696 150.09533 
L 211.707696 152.618915 
L 213.386961 152.618915 
L 213.386961 154.876352 
L 215.066225 154.876352 
L 215.066225 157.230718 
L 216.74549 157.230718 
L 216.74549 159.374848 
L 218.424754 159.374848 
L 218.424754 161.421927 
L 220.104019 161.421927 
L 220.104019 163.508625 
L 221.783283 163.508625 
L 221.783283 165.712469 
L 223.462548 165.712469 
L 223.462548 167.549135 
L 225.141812 167.549135 
L 225.141812 169.476183 
L 226.821076 169.476183 
L 226.821076 171.722225 
L 228.500341 171.722225 
L 228.500341 173.349527 
L 230.179605 173.349527 
L 230.179605 175.003805 
L 231.85887 175.003805 
L 231.85887 176.771405 
L 233.538134 176.771405 
L 233.538134 178.541132 
L 235.217399 178.541132 
L 235.217399 180.240676 
L 236.896663 180.240676 
L 236.896663 181.621109 
L 238.575928 181.621109 
L 238.575928 183.256507 
L 240.255192 183.256507 
L 240.255192 184.67138 
L 241.934457 184.67138 
L 241.934457 186.023766 
L 243.613721 186.023766 
L 243.613721 187.549081 
L 245.292986 187.549081 
L 245.292986 188.86628 
L 246.97225 188.86628 
L 246.97225 190.123938 
L 248.651514 190.123938 
L 248.651514 191.483351 
L 250.330779 191.483351 
L 250.330779 192.649866 
L 252.010043 192.649866 
L 252.010043 193.875709 
L 253.689308 193.875709 
L 253.689308 194.94262 
L 255.368572 194.94262 
L 255.368572 196.020084 
L 257.047837 196.020084 
L 257.047837 197.146683 
L 258.727101 197.146683 
L 258.727101 198.318507 
L 260.406366 198.318507 
L 260.406366 199.094678 
L 262.08563 199.094678 
L 262.08563 200.187812 
L 263.764895 200.187812 
L 263.764895 201.208092 
L 265.444159 201.208092 
L 265.444159 202.1127 
L 267.123424 202.1127 
L 267.123424 203.025183 
L 268.802688 203.025183 
L 268.802688 203.678173 
L 270.481952 203.678173 
L 270.481952 204.53901 
L 272.161217 204.53901 
L 272.161217 205.401055 
L 273.840481 205.401055 
L 273.840481 206.312246 
L 275.519746 206.312246 
L 275.519746 206.888247 
L 277.19901 206.888247 
L 277.19901 207.632357 
L 278.878275 207.632357 
L 278.878275 208.312029 
L 280.557539 208.312029 
L 280.557539 208.945192 
L 282.236804 208.945192 
L 282.236804 209.567846 
L 283.916068 209.567846 
L 283.916068 210.425528 
L 285.595333 210.425528 
L 285.595333 210.955863 
L 287.274597 210.955863 
L 287.274597 211.511605 
L 288.953862 211.511605 
L 288.953862 212.077922 
L 290.633126 212.077922 
L 290.633126 212.570899 
L 292.31239 212.570899 
L 292.31239 213.134899 
L 293.991655 213.134899 
L 293.991655 213.591188 
L 295.670919 213.591188 
L 295.670919 214.253986 
L 297.350184 214.253986 
L 297.350184 214.659185 
L 299.029448 214.659185 
L 299.029448 215.167964 
L 300.708713 215.167964 
L 300.708713 215.531656 
L 302.387977 215.531656 
L 302.387977 216.025248 
L 304.067242 216.025248 
L 304.067242 216.380018 
L 305.746506 216.380018 
L 305.746506 216.853447 
L 307.425771 216.853447 
L 307.425771 217.256017 
L 309.105035 217.256017 
L 309.105035 217.736049 
L 310.7843 217.736049 
L 310.7843 218.081336 
L 312.463564 218.081336 
L 312.463564 218.469291 
L 314.142829 218.469291 
L 314.142829 218.798286 
L 315.822093 218.798286 
L 315.822093 219.257326 
L 317.501357 219.257326 
L 317.501357 219.546543 
L 319.180622 219.546543 
L 319.180622 219.901886 
L 320.859886 219.901886 
L 320.859886 220.169529 
L 322.539151 220.169529 
L 322.539151 220.544506 
L 324.218415 220.544506 
L 324.218415 220.756064 
L 325.89768 220.756064 
L 325.89768 221.12239 
L 327.576944 221.12239 
L 327.576944 221.370293 
L 329.256209 221.370293 
L 329.256209 221.565863 
L 330.935473 221.565863 
L 330.935473 221.946187 
L 332.614738 221.946187 
L 332.614738 222.212776 
L 334.294002 222.212776 
L 334.294002 222.456071 
L 335.973267 222.456071 
L 335.973267 222.699671 
L 337.652531 222.699671 
L 337.652531 222.997678 
L 339.331795 222.997678 
L 339.331795 223.187202 
L 341.01106 223.187202 
L 341.01106 223.397022 
L 342.690324 223.397022 
L 342.690324 223.634431 
L 344.369589 223.634431 
L 344.369589 223.881081 
L 346.048853 223.881081 
L 346.048853 223.99934 
L 347.728118 223.99934 
L 347.728118 224.359095 
L 349.407382 224.359095 
L 349.407382 224.495132 
L 351.086647 224.495132 
L 351.086647 224.673746 
L 352.765911 224.673746 
L 352.765911 224.817747 
L 354.445176 224.817747 
L 354.445176 225.036279 
L 356.12444 225.036279 
L 356.12444 225.254053 
L 357.803705 225.254053 
L 357.803705 225.473015 
L 361.162233 225.576029 
L 361.162233 225.758207 
L 362.841498 225.758207 
L 362.841498 225.924298 
L 364.520762 225.924298 
L 364.520762 226.062948 
L 366.200027 226.062948 
L 366.200027 226.2353 
L 369.558556 226.344479 
L 369.558556 226.477542 
L 371.23782 226.477542 
L 371.23782 226.618597 
L 372.917085 226.618597 
L 372.917085 226.763719 
L 374.596349 226.763719 
L 374.596349 226.915299 
L 376.275614 226.915299 
L 376.275614 227.06544 
L 377.954878 227.06544 
L 377.954878 227.196745 
L 379.634143 227.196745 
L 379.634143 227.322152 
L 382.992671 227.382682 
L 382.992671 227.549468 
L 384.671936 227.549468 
L 384.671936 227.709354 
L 386.3512 227.709354 
L 386.3512 227.84287 
L 388.030465 227.84287 
L 388.030465 227.989197 
L 389.709729 227.989197 
L 389.709729 228.302746 
L 391.388994 228.302746 
L 391.388994 228.641702 
L 393.068258 228.641702 
L 393.068258 229.223873 
L 394.747523 229.223873 
L 394.747523 229.971049 
L 396.426787 229.971049 
L 396.426787 229.971049 
" clip-path="url(#pafb8002b73)" style="fill: none; stroke: #1f77b4; stroke-width: 1.5; stroke-linecap: square"/>
   </g>
   <g id="LineCollection_1">
    <path d="M 61.413527 229.540433 
L 61.413527 229.496437 
" clip-path="url(#pafb8002b73)" style="fill: none; stroke: #1f77b4; stroke-width: 1.5"/>
    <path d="M 63.092791 229.860463 
L 63.092791 229.819495 
" clip-path="url(#pafb8002b73)" style="fill: none; stroke: #1f77b4; stroke-width: 1.5"/>
    <path d="M 64.772056 231.19764 
L 64.772056 231.173109 
" clip-path="url(#pafb8002b73)" style="fill: none; stroke: #1f77b4; stroke-width: 1.5"/>
    <path d="M 66.45132 231.729298 
L 66.45132 231.716191 
" clip-path="url(#pafb8002b73)" style="fill: none; stroke: #1f77b4; stroke-width: 1.5"/>
    <path d="M 68.130585 231.850466 
L 68.130585 231.841922 
" clip-path="url(#pafb8002b73)" style="fill: none; stroke: #1f77b4; stroke-width: 1.5"/>
    <path d="M 69.809849 231.893279 
L 69.809849 231.887132 
" clip-path="url(#pafb8002b73)" style="fill: none; stroke: #1f77b4; stroke-width: 1.5"/>
    <path d="M 71.489114 231.911405 
L 71.489114 231.906637 
" clip-path="url(#pafb8002b73)" style="fill: none; stroke: #1f77b4; stroke-width: 1.5"/>
    <path d="M 73.168378 231.91542 
L 73.168378 231.911019 
" clip-path="url(#pafb8002b73)" style="fill: none; stroke: #1f77b4; stroke-width: 1.5"/>
    <path d="M 74.847643 231.922074 
L 74.847643 231.918363 
" clip-path="url(#pafb8002b73)" style="fill: none; stroke: #1f77b4; stroke-width: 1.5"/>
    <path d="M 76.526907 231.919802 
L 76.526907 231.915841 
" clip-path="url(#pafb8002b73)" style="fill: none; stroke: #1f77b4; stroke-width: 1.5"/>
    <path d="M 78.206171 231.854902 
L 78.206171 231.846573 
" clip-path="url(#pafb8002b73)" style="fill: none; stroke: #1f77b4; stroke-width: 1.5"/>
    <path d="M 79.885436 231.008879 
L 79.885436 230.98142 
" clip-path="url(#pafb8002b73)" style="fill: none; stroke: #1f77b4; stroke-width: 1.5"/>
    <path d="M 81.5647 229.381264 
L 81.5647 229.335838 
" clip-path="url(#pafb8002b73)" style="fill: none; stroke: #1f77b4; stroke-width: 1.5"/>
    <path d="M 83.243965 227.315572 
L 83.243965 227.254558 
" clip-path="url(#pafb8002b73)" style="fill: none; stroke: #1f77b4; stroke-width: 1.5"/>
    <path d="M 84.923229 224.996469 
L 84.923229 224.921744 
" clip-path="url(#pafb8002b73)" style="fill: none; stroke: #1f77b4; stroke-width: 1.5"/>
    <path d="M 86.602494 222.020758 
L 86.602494 221.931479 
" clip-path="url(#pafb8002b73)" style="fill: none; stroke: #1f77b4; stroke-width: 1.5"/>
    <path d="M 88.281758 219.681362 
L 88.281758 219.582132 
" clip-path="url(#pafb8002b73)" style="fill: none; stroke: #1f77b4; stroke-width: 1.5"/>
    <path d="M 89.961023 218.94283 
L 89.961023 218.840659 
" clip-path="url(#pafb8002b73)" style="fill: none; stroke: #1f77b4; stroke-width: 1.5"/>
    <path d="M 91.640287 217.304393 
L 91.640287 217.195985 
" clip-path="url(#pafb8002b73)" style="fill: none; stroke: #1f77b4; stroke-width: 1.5"/>
    <path d="M 93.319552 215.157556 
L 93.319552 215.041482 
" clip-path="url(#pafb8002b73)" style="fill: none; stroke: #1f77b4; stroke-width: 1.5"/>
    <path d="M 94.998816 213.810354 
L 94.998816 213.689717 
" clip-path="url(#pafb8002b73)" style="fill: none; stroke: #1f77b4; stroke-width: 1.5"/>
    <path d="M 96.678081 211.654618 
L 96.678081 211.527022 
" clip-path="url(#pafb8002b73)" style="fill: none; stroke: #1f77b4; stroke-width: 1.5"/>
    <path d="M 98.357345 209.738428 
L 98.357345 209.60495 
" clip-path="url(#pafb8002b73)" style="fill: none; stroke: #1f77b4; stroke-width: 1.5"/>
    <path d="M 100.03661 207.660567 
L 100.03661 207.52099 
" clip-path="url(#pafb8002b73)" style="fill: none; stroke: #1f77b4; stroke-width: 1.5"/>
    <path d="M 101.715874 203.68745 
L 101.715874 203.536901 
" clip-path="url(#pafb8002b73)" style="fill: none; stroke: #1f77b4; stroke-width: 1.5"/>
    <path d="M 103.395138 200.015358 
L 103.395138 199.855336 
" clip-path="url(#pafb8002b73)" style="fill: none; stroke: #1f77b4; stroke-width: 1.5"/>
    <path d="M 105.074403 196.091285 
L 105.074403 195.921724 
" clip-path="url(#pafb8002b73)" style="fill: none; stroke: #1f77b4; stroke-width: 1.5"/>
    <path d="M 106.753667 191.005357 
L 106.753667 190.82418 
" clip-path="url(#pafb8002b73)" style="fill: none; stroke: #1f77b4; stroke-width: 1.5"/>
    <path d="M 108.432932 184.265755 
L 108.432932 184.070246 
" clip-path="url(#pafb8002b73)" style="fill: none; stroke: #1f77b4; stroke-width: 1.5"/>
    <path d="M 110.112196 176.329295 
L 110.112196 176.118154 
" clip-path="url(#pafb8002b73)" style="fill: none; stroke: #1f77b4; stroke-width: 1.5"/>
    <path d="M 111.791461 168.486544 
L 111.791461 168.261018 
" clip-path="url(#pafb8002b73)" style="fill: none; stroke: #1f77b4; stroke-width: 1.5"/>
    <path d="M 113.470725 155.883157 
L 113.470725 155.636265 
" clip-path="url(#pafb8002b73)" style="fill: none; stroke: #1f77b4; stroke-width: 1.5"/>
    <path d="M 115.14999 140.117141 
L 115.14999 139.845884 
" clip-path="url(#pafb8002b73)" style="fill: none; stroke: #1f77b4; stroke-width: 1.5"/>
    <path d="M 116.829254 122.531008 
L 116.829254 122.234929 
" clip-path="url(#pafb8002b73)" style="fill: none; stroke: #1f77b4; stroke-width: 1.5"/>
    <path d="M 118.508519 103.082286 
L 118.508519 102.760984 
" clip-path="url(#pafb8002b73)" style="fill: none; stroke: #1f77b4; stroke-width: 1.5"/>
    <path d="M 120.187783 88.119267 
L 120.187783 87.779833 
" clip-path="url(#pafb8002b73)" style="fill: none; stroke: #1f77b4; stroke-width: 1.5"/>
    <path d="M 121.867048 68.076603 
L 121.867048 67.714302 
" clip-path="url(#pafb8002b73)" style="fill: none; stroke: #1f77b4; stroke-width: 1.5"/>
    <path d="M 123.546312 47.153989 
L 123.546312 46.769264 
" clip-path="url(#pafb8002b73)" style="fill: none; stroke: #1f77b4; stroke-width: 1.5"/>
    <path d="M 125.225576 38.419819 
L 125.225576 38.026112 
" clip-path="url(#pafb8002b73)" style="fill: none; stroke: #1f77b4; stroke-width: 1.5"/>
    <path d="M 126.904841 33.838959 
L 126.904841 33.440622 
" clip-path="url(#pafb8002b73)" style="fill: none; stroke: #1f77b4; stroke-width: 1.5"/>
    <path d="M 128.584105 31.949498 
L 128.584105 31.549266 
" clip-path="url(#pafb8002b73)" style="fill: none; stroke: #1f77b4; stroke-width: 1.5"/>
    <path d="M 130.26337 31.759301 
L 130.26337 31.358879 
" clip-path="url(#pafb8002b73)" style="fill: none; stroke: #1f77b4; stroke-width: 1.5"/>
    <path d="M 131.942634 34.79271 
L 131.942634 34.395332 
" clip-path="url(#pafb8002b73)" style="fill: none; stroke: #1f77b4; stroke-width: 1.5"/>
    <path d="M 133.621899 30.677601 
L 133.621899 30.2761 
" clip-path="url(#pafb8002b73)" style="fill: none; stroke: #1f77b4; stroke-width: 1.5"/>
    <path d="M 135.301163 28.398569 
L 135.301163 27.994801 
" clip-path="url(#pafb8002b73)" style="fill: none; stroke: #1f77b4; stroke-width: 1.5"/>
    <path d="M 136.980428 29.386392 
L 136.980428 28.983605 
" clip-path="url(#pafb8002b73)" style="fill: none; stroke: #1f77b4; stroke-width: 1.5"/>
    <path d="M 138.659692 31.743279 
L 138.659692 31.342842 
" clip-path="url(#pafb8002b73)" style="fill: none; stroke: #1f77b4; stroke-width: 1.5"/>
    <path d="M 140.338957 34.383515 
L 140.338957 33.985725 
" clip-path="url(#pafb8002b73)" style="fill: none; stroke: #1f77b4; stroke-width: 1.5"/>
    <path d="M 142.018221 37.951785 
L 142.018221 37.557602 
" clip-path="url(#pafb8002b73)" style="fill: none; stroke: #1f77b4; stroke-width: 1.5"/>
    <path d="M 143.697486 41.494454 
L 143.697486 41.103885 
" clip-path="url(#pafb8002b73)" style="fill: none; stroke: #1f77b4; stroke-width: 1.5"/>
    <path d="M 145.37675 45.375116 
L 145.37675 44.988545 
" clip-path="url(#pafb8002b73)" style="fill: none; stroke: #1f77b4; stroke-width: 1.5"/>
    <path d="M 147.056014 49.540763 
L 147.056014 49.15853 
" clip-path="url(#pafb8002b73)" style="fill: none; stroke: #1f77b4; stroke-width: 1.5"/>
    <path d="M 148.735279 54.15663 
L 148.735279 53.779262 
" clip-path="url(#pafb8002b73)" style="fill: none; stroke: #1f77b4; stroke-width: 1.5"/>
    <path d="M 150.414543 58.964051 
L 150.414543 58.591817 
" clip-path="url(#pafb8002b73)" style="fill: none; stroke: #1f77b4; stroke-width: 1.5"/>
    <path d="M 152.093808 64.614588 
L 152.093808 64.248482 
" clip-path="url(#pafb8002b73)" style="fill: none; stroke: #1f77b4; stroke-width: 1.5"/>
    <path d="M 153.773072 69.427619 
L 153.773072 69.066814 
" clip-path="url(#pafb8002b73)" style="fill: none; stroke: #1f77b4; stroke-width: 1.5"/>
    <path d="M 155.452337 74.918971 
L 155.452337 74.564311 
" clip-path="url(#pafb8002b73)" style="fill: none; stroke: #1f77b4; stroke-width: 1.5"/>
    <path d="M 157.131601 77.071043 
L 157.131601 76.71882 
" clip-path="url(#pafb8002b73)" style="fill: none; stroke: #1f77b4; stroke-width: 1.5"/>
    <path d="M 158.810866 77.922032 
L 158.810866 77.570777 
" clip-path="url(#pafb8002b73)" style="fill: none; stroke: #1f77b4; stroke-width: 1.5"/>
    <path d="M 160.49013 81.002234 
L 160.49013 80.654507 
" clip-path="url(#pafb8002b73)" style="fill: none; stroke: #1f77b4; stroke-width: 1.5"/>
    <path d="M 162.169395 84.615493 
L 162.169395 84.271952 
" clip-path="url(#pafb8002b73)" style="fill: none; stroke: #1f77b4; stroke-width: 1.5"/>
    <path d="M 163.848659 82.111154 
L 163.848659 81.764706 
" clip-path="url(#pafb8002b73)" style="fill: none; stroke: #1f77b4; stroke-width: 1.5"/>
    <path d="M 165.527924 82.892309 
L 165.527924 82.546765 
" clip-path="url(#pafb8002b73)" style="fill: none; stroke: #1f77b4; stroke-width: 1.5"/>
    <path d="M 167.207188 85.253629 
L 167.207188 84.910832 
" clip-path="url(#pafb8002b73)" style="fill: none; stroke: #1f77b4; stroke-width: 1.5"/>
    <path d="M 168.886452 87.615225 
L 168.886452 87.275197 
" clip-path="url(#pafb8002b73)" style="fill: none; stroke: #1f77b4; stroke-width: 1.5"/>
    <path d="M 170.565717 90.748735 
L 170.565717 90.412416 
" clip-path="url(#pafb8002b73)" style="fill: none; stroke: #1f77b4; stroke-width: 1.5"/>
    <path d="M 172.244981 90.527697 
L 172.244981 90.191116 
" clip-path="url(#pafb8002b73)" style="fill: none; stroke: #1f77b4; stroke-width: 1.5"/>
    <path d="M 173.924246 92.237078 
L 173.924246 91.902536 
" clip-path="url(#pafb8002b73)" style="fill: none; stroke: #1f77b4; stroke-width: 1.5"/>
    <path d="M 175.60351 94.149936 
L 175.60351 93.81769 
" clip-path="url(#pafb8002b73)" style="fill: none; stroke: #1f77b4; stroke-width: 1.5"/>
    <path d="M 177.282775 96.420568 
L 177.282775 96.09107 
" clip-path="url(#pafb8002b73)" style="fill: none; stroke: #1f77b4; stroke-width: 1.5"/>
    <path d="M 178.962039 96.967951 
L 178.962039 96.639118 
" clip-path="url(#pafb8002b73)" style="fill: none; stroke: #1f77b4; stroke-width: 1.5"/>
    <path d="M 180.641304 97.319578 
L 180.641304 96.991174 
" clip-path="url(#pafb8002b73)" style="fill: none; stroke: #1f77b4; stroke-width: 1.5"/>
    <path d="M 182.320568 99.941915 
L 182.320568 99.616723 
" clip-path="url(#pafb8002b73)" style="fill: none; stroke: #1f77b4; stroke-width: 1.5"/>
    <path d="M 183.999833 103.516071 
L 183.999833 103.19531 
" clip-path="url(#pafb8002b73)" style="fill: none; stroke: #1f77b4; stroke-width: 1.5"/>
    <path d="M 185.679097 106.944291 
L 185.679097 106.627838 
" clip-path="url(#pafb8002b73)" style="fill: none; stroke: #1f77b4; stroke-width: 1.5"/>
    <path d="M 187.358362 110.192636 
L 187.358362 109.880319 
" clip-path="url(#pafb8002b73)" style="fill: none; stroke: #1f77b4; stroke-width: 1.5"/>
    <path d="M 189.037626 113.465829 
L 189.037626 113.157736 
" clip-path="url(#pafb8002b73)" style="fill: none; stroke: #1f77b4; stroke-width: 1.5"/>
    <path d="M 190.71689 116.407734 
L 190.71689 116.103488 
" clip-path="url(#pafb8002b73)" style="fill: none; stroke: #1f77b4; stroke-width: 1.5"/>
    <path d="M 192.396155 119.455515 
L 192.396155 119.155307 
" clip-path="url(#pafb8002b73)" style="fill: none; stroke: #1f77b4; stroke-width: 1.5"/>
    <path d="M 194.075419 122.984783 
L 194.075419 122.689318 
" clip-path="url(#pafb8002b73)" style="fill: none; stroke: #1f77b4; stroke-width: 1.5"/>
    <path d="M 195.754684 125.828898 
L 195.754684 125.537313 
" clip-path="url(#pafb8002b73)" style="fill: none; stroke: #1f77b4; stroke-width: 1.5"/>
    <path d="M 197.433948 128.862101 
L 197.433948 128.574711 
" clip-path="url(#pafb8002b73)" style="fill: none; stroke: #1f77b4; stroke-width: 1.5"/>
    <path d="M 199.113213 131.728864 
L 199.113213 131.445495 
" clip-path="url(#pafb8002b73)" style="fill: none; stroke: #1f77b4; stroke-width: 1.5"/>
    <path d="M 200.792477 134.684868 
L 200.792477 134.405708 
" clip-path="url(#pafb8002b73)" style="fill: none; stroke: #1f77b4; stroke-width: 1.5"/>
    <path d="M 202.471742 137.493844 
L 202.471742 137.218741 
" clip-path="url(#pafb8002b73)" style="fill: none; stroke: #1f77b4; stroke-width: 1.5"/>
    <path d="M 204.151006 140.096955 
L 204.151006 139.825668 
" clip-path="url(#pafb8002b73)" style="fill: none; stroke: #1f77b4; stroke-width: 1.5"/>
    <path d="M 205.830271 142.741172 
L 205.830271 142.473815 
" clip-path="url(#pafb8002b73)" style="fill: none; stroke: #1f77b4; stroke-width: 1.5"/>
    <path d="M 207.509535 145.288459 
L 207.509535 145.024944 
" clip-path="url(#pafb8002b73)" style="fill: none; stroke: #1f77b4; stroke-width: 1.5"/>
    <path d="M 209.1888 148.191755 
L 209.1888 147.93269 
" clip-path="url(#pafb8002b73)" style="fill: none; stroke: #1f77b4; stroke-width: 1.5"/>
    <path d="M 210.868064 150.223283 
L 210.868064 149.967377 
" clip-path="url(#pafb8002b73)" style="fill: none; stroke: #1f77b4; stroke-width: 1.5"/>
    <path d="M 212.547329 152.74488 
L 212.547329 152.49295 
" clip-path="url(#pafb8002b73)" style="fill: none; stroke: #1f77b4; stroke-width: 1.5"/>
    <path d="M 214.226593 155.000512 
L 214.226593 154.752193 
" clip-path="url(#pafb8002b73)" style="fill: none; stroke: #1f77b4; stroke-width: 1.5"/>
    <path d="M 215.905857 157.352967 
L 215.905857 157.10847 
" clip-path="url(#pafb8002b73)" style="fill: none; stroke: #1f77b4; stroke-width: 1.5"/>
    <path d="M 217.585122 159.495329 
L 217.585122 159.254367 
" clip-path="url(#pafb8002b73)" style="fill: none; stroke: #1f77b4; stroke-width: 1.5"/>
    <path d="M 219.264386 161.540697 
L 219.264386 161.303158 
" clip-path="url(#pafb8002b73)" style="fill: none; stroke: #1f77b4; stroke-width: 1.5"/>
    <path d="M 220.943651 163.625623 
L 220.943651 163.391626 
" clip-path="url(#pafb8002b73)" style="fill: none; stroke: #1f77b4; stroke-width: 1.5"/>
    <path d="M 222.622915 165.827568 
L 222.622915 165.597369 
" clip-path="url(#pafb8002b73)" style="fill: none; stroke: #1f77b4; stroke-width: 1.5"/>
    <path d="M 224.30218 167.662627 
L 224.30218 167.435643 
" clip-path="url(#pafb8002b73)" style="fill: none; stroke: #1f77b4; stroke-width: 1.5"/>
    <path d="M 225.981444 169.587964 
L 225.981444 169.364402 
" clip-path="url(#pafb8002b73)" style="fill: none; stroke: #1f77b4; stroke-width: 1.5"/>
    <path d="M 227.660709 171.831978 
L 227.660709 171.612472 
" clip-path="url(#pafb8002b73)" style="fill: none; stroke: #1f77b4; stroke-width: 1.5"/>
    <path d="M 229.339973 173.457787 
L 229.339973 173.241267 
" clip-path="url(#pafb8002b73)" style="fill: none; stroke: #1f77b4; stroke-width: 1.5"/>
    <path d="M 231.019238 175.110525 
L 231.019238 174.897085 
" clip-path="url(#pafb8002b73)" style="fill: none; stroke: #1f77b4; stroke-width: 1.5"/>
    <path d="M 232.698502 176.876456 
L 232.698502 176.666355 
" clip-path="url(#pafb8002b73)" style="fill: none; stroke: #1f77b4; stroke-width: 1.5"/>
    <path d="M 234.377767 178.644483 
L 234.377767 178.43778 
" clip-path="url(#pafb8002b73)" style="fill: none; stroke: #1f77b4; stroke-width: 1.5"/>
    <path d="M 236.057031 180.34237 
L 236.057031 180.138983 
" clip-path="url(#pafb8002b73)" style="fill: none; stroke: #1f77b4; stroke-width: 1.5"/>
    <path d="M 237.736295 181.721436 
L 237.736295 181.520783 
" clip-path="url(#pafb8002b73)" style="fill: none; stroke: #1f77b4; stroke-width: 1.5"/>
    <path d="M 239.41556 183.35519 
L 239.41556 183.157824 
" clip-path="url(#pafb8002b73)" style="fill: none; stroke: #1f77b4; stroke-width: 1.5"/>
    <path d="M 241.094824 184.768618 
L 241.094824 184.574141 
" clip-path="url(#pafb8002b73)" style="fill: none; stroke: #1f77b4; stroke-width: 1.5"/>
    <path d="M 242.774089 186.119603 
L 242.774089 185.927929 
" clip-path="url(#pafb8002b73)" style="fill: none; stroke: #1f77b4; stroke-width: 1.5"/>
    <path d="M 244.453353 187.643313 
L 244.453353 187.454849 
" clip-path="url(#pafb8002b73)" style="fill: none; stroke: #1f77b4; stroke-width: 1.5"/>
    <path d="M 246.132618 188.959103 
L 246.132618 188.773457 
" clip-path="url(#pafb8002b73)" style="fill: none; stroke: #1f77b4; stroke-width: 1.5"/>
    <path d="M 247.811882 190.215396 
L 247.811882 190.03248 
" clip-path="url(#pafb8002b73)" style="fill: none; stroke: #1f77b4; stroke-width: 1.5"/>
    <path d="M 249.491147 191.573309 
L 249.491147 191.393392 
" clip-path="url(#pafb8002b73)" style="fill: none; stroke: #1f77b4; stroke-width: 1.5"/>
    <path d="M 251.170411 192.738518 
L 251.170411 192.561213 
" clip-path="url(#pafb8002b73)" style="fill: none; stroke: #1f77b4; stroke-width: 1.5"/>
    <path d="M 252.849676 193.962967 
L 252.849676 193.788451 
" clip-path="url(#pafb8002b73)" style="fill: none; stroke: #1f77b4; stroke-width: 1.5"/>
    <path d="M 254.52894 195.028646 
L 254.52894 194.856593 
" clip-path="url(#pafb8002b73)" style="fill: none; stroke: #1f77b4; stroke-width: 1.5"/>
    <path d="M 256.208205 196.104848 
L 256.208205 195.935319 
" clip-path="url(#pafb8002b73)" style="fill: none; stroke: #1f77b4; stroke-width: 1.5"/>
    <path d="M 257.887469 197.230108 
L 257.887469 197.063259 
" clip-path="url(#pafb8002b73)" style="fill: none; stroke: #1f77b4; stroke-width: 1.5"/>
    <path d="M 259.566733 198.400514 
L 259.566733 198.236499 
" clip-path="url(#pafb8002b73)" style="fill: none; stroke: #1f77b4; stroke-width: 1.5"/>
    <path d="M 261.245998 199.175733 
L 261.245998 199.013622 
" clip-path="url(#pafb8002b73)" style="fill: none; stroke: #1f77b4; stroke-width: 1.5"/>
    <path d="M 262.925262 200.267507 
L 262.925262 200.108117 
" clip-path="url(#pafb8002b73)" style="fill: none; stroke: #1f77b4; stroke-width: 1.5"/>
    <path d="M 264.604527 201.286496 
L 264.604527 201.129688 
" clip-path="url(#pafb8002b73)" style="fill: none; stroke: #1f77b4; stroke-width: 1.5"/>
    <path d="M 266.283791 202.189942 
L 266.283791 202.035459 
" clip-path="url(#pafb8002b73)" style="fill: none; stroke: #1f77b4; stroke-width: 1.5"/>
    <path d="M 267.963056 203.101233 
L 267.963056 202.949132 
" clip-path="url(#pafb8002b73)" style="fill: none; stroke: #1f77b4; stroke-width: 1.5"/>
    <path d="M 269.64232 203.75336 
L 269.64232 203.602986 
" clip-path="url(#pafb8002b73)" style="fill: none; stroke: #1f77b4; stroke-width: 1.5"/>
    <path d="M 271.321585 204.613043 
L 271.321585 204.464977 
" clip-path="url(#pafb8002b73)" style="fill: none; stroke: #1f77b4; stroke-width: 1.5"/>
    <path d="M 273.000849 205.473914 
L 273.000849 205.328196 
" clip-path="url(#pafb8002b73)" style="fill: none; stroke: #1f77b4; stroke-width: 1.5"/>
    <path d="M 274.680114 206.383844 
L 274.680114 206.240649 
" clip-path="url(#pafb8002b73)" style="fill: none; stroke: #1f77b4; stroke-width: 1.5"/>
    <path d="M 276.359378 206.959035 
L 276.359378 206.817459 
" clip-path="url(#pafb8002b73)" style="fill: none; stroke: #1f77b4; stroke-width: 1.5"/>
    <path d="M 278.038643 207.702085 
L 278.038643 207.562628 
" clip-path="url(#pafb8002b73)" style="fill: none; stroke: #1f77b4; stroke-width: 1.5"/>
    <path d="M 279.717907 208.380776 
L 279.717907 208.243283 
" clip-path="url(#pafb8002b73)" style="fill: none; stroke: #1f77b4; stroke-width: 1.5"/>
    <path d="M 281.397171 209.013011 
L 281.397171 208.877373 
" clip-path="url(#pafb8002b73)" style="fill: none; stroke: #1f77b4; stroke-width: 1.5"/>
    <path d="M 283.076436 209.63474 
L 283.076436 209.500951 
" clip-path="url(#pafb8002b73)" style="fill: none; stroke: #1f77b4; stroke-width: 1.5"/>
    <path d="M 284.7557 210.491128 
L 284.7557 210.359928 
" clip-path="url(#pafb8002b73)" style="fill: none; stroke: #1f77b4; stroke-width: 1.5"/>
    <path d="M 286.434965 211.020649 
L 286.434965 210.891077 
" clip-path="url(#pafb8002b73)" style="fill: none; stroke: #1f77b4; stroke-width: 1.5"/>
    <path d="M 288.114229 211.575528 
L 288.114229 211.447683 
" clip-path="url(#pafb8002b73)" style="fill: none; stroke: #1f77b4; stroke-width: 1.5"/>
    <path d="M 289.793494 212.140952 
L 289.793494 212.014892 
" clip-path="url(#pafb8002b73)" style="fill: none; stroke: #1f77b4; stroke-width: 1.5"/>
    <path d="M 291.472758 212.633141 
L 291.472758 212.508656 
" clip-path="url(#pafb8002b73)" style="fill: none; stroke: #1f77b4; stroke-width: 1.5"/>
    <path d="M 293.152023 213.196228 
L 293.152023 213.073569 
" clip-path="url(#pafb8002b73)" style="fill: none; stroke: #1f77b4; stroke-width: 1.5"/>
    <path d="M 294.831287 213.651769 
L 294.831287 213.530607 
" clip-path="url(#pafb8002b73)" style="fill: none; stroke: #1f77b4; stroke-width: 1.5"/>
    <path d="M 296.510552 214.313462 
L 296.510552 214.194509 
" clip-path="url(#pafb8002b73)" style="fill: none; stroke: #1f77b4; stroke-width: 1.5"/>
    <path d="M 298.189816 214.717976 
L 298.189816 214.600394 
" clip-path="url(#pafb8002b73)" style="fill: none; stroke: #1f77b4; stroke-width: 1.5"/>
    <path d="M 299.869081 215.225883 
L 299.869081 215.110045 
" clip-path="url(#pafb8002b73)" style="fill: none; stroke: #1f77b4; stroke-width: 1.5"/>
    <path d="M 301.548345 215.588943 
L 301.548345 215.474368 
" clip-path="url(#pafb8002b73)" style="fill: none; stroke: #1f77b4; stroke-width: 1.5"/>
    <path d="M 303.22761 216.081667 
L 303.22761 215.968829 
" clip-path="url(#pafb8002b73)" style="fill: none; stroke: #1f77b4; stroke-width: 1.5"/>
    <path d="M 304.906874 216.435804 
L 304.906874 216.324231 
" clip-path="url(#pafb8002b73)" style="fill: none; stroke: #1f77b4; stroke-width: 1.5"/>
    <path d="M 306.586138 216.908379 
L 306.586138 216.798516 
" clip-path="url(#pafb8002b73)" style="fill: none; stroke: #1f77b4; stroke-width: 1.5"/>
    <path d="M 308.265403 217.310211 
L 308.265403 217.201824 
" clip-path="url(#pafb8002b73)" style="fill: none; stroke: #1f77b4; stroke-width: 1.5"/>
    <path d="M 309.944667 217.789349 
L 309.944667 217.682749 
" clip-path="url(#pafb8002b73)" style="fill: none; stroke: #1f77b4; stroke-width: 1.5"/>
    <path d="M 311.623932 218.133984 
L 311.623932 218.028688 
" clip-path="url(#pafb8002b73)" style="fill: none; stroke: #1f77b4; stroke-width: 1.5"/>
    <path d="M 313.303196 218.521197 
L 313.303196 218.417385 
" clip-path="url(#pafb8002b73)" style="fill: none; stroke: #1f77b4; stroke-width: 1.5"/>
    <path d="M 314.982461 218.849554 
L 314.982461 218.747018 
" clip-path="url(#pafb8002b73)" style="fill: none; stroke: #1f77b4; stroke-width: 1.5"/>
    <path d="M 316.661725 219.307691 
L 316.661725 219.206962 
" clip-path="url(#pafb8002b73)" style="fill: none; stroke: #1f77b4; stroke-width: 1.5"/>
    <path d="M 318.34099 219.59633 
L 318.34099 219.496757 
" clip-path="url(#pafb8002b73)" style="fill: none; stroke: #1f77b4; stroke-width: 1.5"/>
    <path d="M 320.020254 219.950953 
L 320.020254 219.852818 
" clip-path="url(#pafb8002b73)" style="fill: none; stroke: #1f77b4; stroke-width: 1.5"/>
    <path d="M 321.699519 220.218048 
L 321.699519 220.12101 
" clip-path="url(#pafb8002b73)" style="fill: none; stroke: #1f77b4; stroke-width: 1.5"/>
    <path d="M 323.378783 220.592245 
L 323.378783 220.496766 
" clip-path="url(#pafb8002b73)" style="fill: none; stroke: #1f77b4; stroke-width: 1.5"/>
    <path d="M 325.058048 220.803358 
L 325.058048 220.70877 
" clip-path="url(#pafb8002b73)" style="fill: none; stroke: #1f77b4; stroke-width: 1.5"/>
    <path d="M 326.737312 221.168903 
L 326.737312 221.075876 
" clip-path="url(#pafb8002b73)" style="fill: none; stroke: #1f77b4; stroke-width: 1.5"/>
    <path d="M 328.416576 221.41627 
L 328.416576 221.324316 
" clip-path="url(#pafb8002b73)" style="fill: none; stroke: #1f77b4; stroke-width: 1.5"/>
    <path d="M 330.095841 221.611413 
L 330.095841 221.520313 
" clip-path="url(#pafb8002b73)" style="fill: none; stroke: #1f77b4; stroke-width: 1.5"/>
    <path d="M 331.775105 221.990894 
L 331.775105 221.901481 
" clip-path="url(#pafb8002b73)" style="fill: none; stroke: #1f77b4; stroke-width: 1.5"/>
    <path d="M 333.45437 222.256882 
L 333.45437 222.16867 
" clip-path="url(#pafb8002b73)" style="fill: none; stroke: #1f77b4; stroke-width: 1.5"/>
    <path d="M 335.133634 222.499622 
L 335.133634 222.41252 
" clip-path="url(#pafb8002b73)" style="fill: none; stroke: #1f77b4; stroke-width: 1.5"/>
    <path d="M 336.812899 222.742659 
L 336.812899 222.656683 
" clip-path="url(#pafb8002b73)" style="fill: none; stroke: #1f77b4; stroke-width: 1.5"/>
    <path d="M 338.492163 223.039967 
L 338.492163 222.955389 
" clip-path="url(#pafb8002b73)" style="fill: none; stroke: #1f77b4; stroke-width: 1.5"/>
    <path d="M 340.171428 223.22904 
L 340.171428 223.145364 
" clip-path="url(#pafb8002b73)" style="fill: none; stroke: #1f77b4; stroke-width: 1.5"/>
    <path d="M 341.850692 223.438356 
L 341.850692 223.355689 
" clip-path="url(#pafb8002b73)" style="fill: none; stroke: #1f77b4; stroke-width: 1.5"/>
    <path d="M 343.529957 223.675186 
L 343.529957 223.593676 
" clip-path="url(#pafb8002b73)" style="fill: none; stroke: #1f77b4; stroke-width: 1.5"/>
    <path d="M 345.209221 223.921226 
L 345.209221 223.840936 
" clip-path="url(#pafb8002b73)" style="fill: none; stroke: #1f77b4; stroke-width: 1.5"/>
    <path d="M 346.888486 224.039189 
L 346.888486 223.959491 
" clip-path="url(#pafb8002b73)" style="fill: none; stroke: #1f77b4; stroke-width: 1.5"/>
    <path d="M 348.56775 224.398031 
L 348.56775 224.32016 
" clip-path="url(#pafb8002b73)" style="fill: none; stroke: #1f77b4; stroke-width: 1.5"/>
    <path d="M 350.247014 224.533717 
L 350.247014 224.456548 
" clip-path="url(#pafb8002b73)" style="fill: none; stroke: #1f77b4; stroke-width: 1.5"/>
    <path d="M 351.926279 224.711865 
L 351.926279 224.635627 
" clip-path="url(#pafb8002b73)" style="fill: none; stroke: #1f77b4; stroke-width: 1.5"/>
    <path d="M 353.605543 224.855487 
L 353.605543 224.780008 
" clip-path="url(#pafb8002b73)" style="fill: none; stroke: #1f77b4; stroke-width: 1.5"/>
    <path d="M 355.284808 225.073434 
L 355.284808 224.999124 
" clip-path="url(#pafb8002b73)" style="fill: none; stroke: #1f77b4; stroke-width: 1.5"/>
    <path d="M 356.964072 225.290618 
L 356.964072 225.217489 
" clip-path="url(#pafb8002b73)" style="fill: none; stroke: #1f77b4; stroke-width: 1.5"/>
    <path d="M 358.643337 225.508976 
L 358.643337 225.437054 
" clip-path="url(#pafb8002b73)" style="fill: none; stroke: #1f77b4; stroke-width: 1.5"/>
    <path d="M 360.322601 225.611702 
L 360.322601 225.540356 
" clip-path="url(#pafb8002b73)" style="fill: none; stroke: #1f77b4; stroke-width: 1.5"/>
    <path d="M 362.001866 225.793365 
L 362.001866 225.723049 
" clip-path="url(#pafb8002b73)" style="fill: none; stroke: #1f77b4; stroke-width: 1.5"/>
    <path d="M 363.68113 225.958981 
L 363.68113 225.889615 
" clip-path="url(#pafb8002b73)" style="fill: none; stroke: #1f77b4; stroke-width: 1.5"/>
    <path d="M 365.360395 226.097229 
L 365.360395 226.028668 
" clip-path="url(#pafb8002b73)" style="fill: none; stroke: #1f77b4; stroke-width: 1.5"/>
    <path d="M 367.039659 226.269074 
L 367.039659 226.201527 
" clip-path="url(#pafb8002b73)" style="fill: none; stroke: #1f77b4; stroke-width: 1.5"/>
    <path d="M 368.718924 226.377928 
L 368.718924 226.31103 
" clip-path="url(#pafb8002b73)" style="fill: none; stroke: #1f77b4; stroke-width: 1.5"/>
    <path d="M 370.398188 226.510591 
L 370.398188 226.444493 
" clip-path="url(#pafb8002b73)" style="fill: none; stroke: #1f77b4; stroke-width: 1.5"/>
    <path d="M 372.077452 226.651216 
L 372.077452 226.585978 
" clip-path="url(#pafb8002b73)" style="fill: none; stroke: #1f77b4; stroke-width: 1.5"/>
    <path d="M 373.756717 226.79589 
L 373.756717 226.731548 
" clip-path="url(#pafb8002b73)" style="fill: none; stroke: #1f77b4; stroke-width: 1.5"/>
    <path d="M 375.435981 226.946995 
L 375.435981 226.883603 
" clip-path="url(#pafb8002b73)" style="fill: none; stroke: #1f77b4; stroke-width: 1.5"/>
    <path d="M 377.115246 227.096659 
L 377.115246 227.034221 
" clip-path="url(#pafb8002b73)" style="fill: none; stroke: #1f77b4; stroke-width: 1.5"/>
    <path d="M 378.79451 227.22754 
L 378.79451 227.16595 
" clip-path="url(#pafb8002b73)" style="fill: none; stroke: #1f77b4; stroke-width: 1.5"/>
    <path d="M 380.473775 227.352537 
L 380.473775 227.291767 
" clip-path="url(#pafb8002b73)" style="fill: none; stroke: #1f77b4; stroke-width: 1.5"/>
    <path d="M 382.153039 227.412868 
L 382.153039 227.352497 
" clip-path="url(#pafb8002b73)" style="fill: none; stroke: #1f77b4; stroke-width: 1.5"/>
    <path d="M 383.832304 227.579095 
L 383.832304 227.51984 
" clip-path="url(#pafb8002b73)" style="fill: none; stroke: #1f77b4; stroke-width: 1.5"/>
    <path d="M 385.511568 227.738436 
L 385.511568 227.680271 
" clip-path="url(#pafb8002b73)" style="fill: none; stroke: #1f77b4; stroke-width: 1.5"/>
    <path d="M 387.190833 227.87149 
L 387.190833 227.81425 
" clip-path="url(#pafb8002b73)" style="fill: none; stroke: #1f77b4; stroke-width: 1.5"/>
    <path d="M 388.870097 228.0173 
L 388.870097 227.961093 
" clip-path="url(#pafb8002b73)" style="fill: none; stroke: #1f77b4; stroke-width: 1.5"/>
    <path d="M 390.549362 228.329711 
L 390.549362 228.275781 
" clip-path="url(#pafb8002b73)" style="fill: none; stroke: #1f77b4; stroke-width: 1.5"/>
    <path d="M 392.228626 228.667379 
L 392.228626 228.616025 
" clip-path="url(#pafb8002b73)" style="fill: none; stroke: #1f77b4; stroke-width: 1.5"/>
    <path d="M 393.90789 229.247172 
L 393.90789 229.200575 
" clip-path="url(#pafb8002b73)" style="fill: none; stroke: #1f77b4; stroke-width: 1.5"/>
    <path d="M 395.587155 229.990882 
L 395.587155 229.951216 
" clip-path="url(#pafb8002b73)" style="fill: none; stroke: #1f77b4; stroke-width: 1.5"/>
   </g>
  </g>
 </g>
 <defs>
  <clipPath id="pafb8002b73">
   <rect x="43.78125" y="17.798437" width="369.438182" height="224.32"/>
  </clipPath>
 </defs>
</svg>
