<?xml version="1.0" encoding="utf-8" standalone="no"?>
<!DOCTYPE svg PUBLIC "-//W3C//DTD SVG 1.1//EN"
  "http://www.w3.org/Graphics/SVG/1.1/DTD/svg11.dtd">
<svg xmlns:xlink="http://www.w3.org/1999/xlink" width="424.34375pt" height="279.99625pt" viewBox="0 0 424.34375 279.99625" xmlns="http://www.w3.org/2000/svg" version="1.1">
 <metadata>
  <rdf:RDF xmlns:dc="http://purl.org/dc/elements/1.1/" xmlns:cc="http://creativecommons.org/ns#" xmlns:rdf="http://www.w3.org/1999/02/22-rdf-syntax-ns#">
   <cc:Work>
    <dc:type rdf:resource="http://purl.org/dc/dcmitype/StillImage"/>
    <dc:date>2024-03-25T13:30:12.686986</dc:date>
    <dc:format>image/svg+xml</dc:format>
    <dc:creator>
     <cc:Agent>
      <dc:title>Matplotlib v3.8.2, https://matplotlib.org/</dc:title>
     </cc:Agent>
    </dc:creator>
   </cc:Work>
  </rdf:RDF>
 </metadata>
 <defs>
  <style type="text/css">*{stroke-linejoin: round; stroke-linecap: butt}</style>
 </defs>
 <g id="figure_1">
  <g id="patch_1">
   <path d="M 0 279.99625 
L 424.34375 279.99625 
L 424.34375 0 
L 0 0 
z
" style="fill: #ffffff"/>
  </g>
  <g id="axes_1">
   <g id="patch_2">
    <path d="M 50.14375 242.44 
L 417.14375 242.44 
L 417.14375 7.2 
L 50.14375 7.2 
z
" style="fill: #ffffff"/>
   </g>
   <g id="matplotlib.axis_1">
    <g id="xtick_1">
     <g id="line2d_1">
      <defs>
       <path id="m0b661a0f86" d="M 0 0 
L 0 3.5 
" style="stroke: #000000; stroke-width: 0.8"/>
      </defs>
      <g>
       <use xlink:href="#m0b661a0f86" x="66.825568" y="242.44" style="stroke: #000000; stroke-width: 0.8"/>
      </g>
     </g>
     <g id="text_1">
      <!-- 2000 -->
      <g transform="translate(54.100568 257.038437) scale(0.1 -0.1)">
       <defs>
        <path id="DejaVuSans-32" d="M 1228 531 
L 3431 531 
L 3431 0 
L 469 0 
L 469 531 
Q 828 903 1448 1529 
Q 2069 2156 2228 2338 
Q 2531 2678 2651 2914 
Q 2772 3150 2772 3378 
Q 2772 3750 2511 3984 
Q 2250 4219 1831 4219 
Q 1534 4219 1204 4116 
Q 875 4013 500 3803 
L 500 4441 
Q 881 4594 1212 4672 
Q 1544 4750 1819 4750 
Q 2544 4750 2975 4387 
Q 3406 4025 3406 3419 
Q 3406 3131 3298 2873 
Q 3191 2616 2906 2266 
Q 2828 2175 2409 1742 
Q 1991 1309 1228 531 
z
" transform="scale(0.015625)"/>
        <path id="DejaVuSans-30" d="M 2034 4250 
Q 1547 4250 1301 3770 
Q 1056 3291 1056 2328 
Q 1056 1369 1301 889 
Q 1547 409 2034 409 
Q 2525 409 2770 889 
Q 3016 1369 3016 2328 
Q 3016 3291 2770 3770 
Q 2525 4250 2034 4250 
z
M 2034 4750 
Q 2819 4750 3233 4129 
Q 3647 3509 3647 2328 
Q 3647 1150 3233 529 
Q 2819 -91 2034 -91 
Q 1250 -91 836 529 
Q 422 1150 422 2328 
Q 422 3509 836 4129 
Q 1250 4750 2034 4750 
z
" transform="scale(0.015625)"/>
       </defs>
       <use xlink:href="#DejaVuSans-32"/>
       <use xlink:href="#DejaVuSans-30" x="63.623047"/>
       <use xlink:href="#DejaVuSans-30" x="127.246094"/>
       <use xlink:href="#DejaVuSans-30" x="190.869141"/>
      </g>
     </g>
    </g>
    <g id="xtick_2">
     <g id="line2d_2">
      <g>
       <use xlink:href="#m0b661a0f86" x="118.15424" y="242.44" style="stroke: #000000; stroke-width: 0.8"/>
      </g>
     </g>
     <g id="text_2">
      <!-- 4000 -->
      <g transform="translate(105.42924 257.038437) scale(0.1 -0.1)">
       <defs>
        <path id="DejaVuSans-34" d="M 2419 4116 
L 825 1625 
L 2419 1625 
L 2419 4116 
z
M 2253 4666 
L 3047 4666 
L 3047 1625 
L 3713 1625 
L 3713 1100 
L 3047 1100 
L 3047 0 
L 2419 0 
L 2419 1100 
L 313 1100 
L 313 1709 
L 2253 4666 
z
" transform="scale(0.015625)"/>
       </defs>
       <use xlink:href="#DejaVuSans-34"/>
       <use xlink:href="#DejaVuSans-30" x="63.623047"/>
       <use xlink:href="#DejaVuSans-30" x="127.246094"/>
       <use xlink:href="#DejaVuSans-30" x="190.869141"/>
      </g>
     </g>
    </g>
    <g id="xtick_3">
     <g id="line2d_3">
      <g>
       <use xlink:href="#m0b661a0f86" x="169.482911" y="242.44" style="stroke: #000000; stroke-width: 0.8"/>
      </g>
     </g>
     <g id="text_3">
      <!-- 6000 -->
      <g transform="translate(156.757911 257.038437) scale(0.1 -0.1)">
       <defs>
        <path id="DejaVuSans-36" d="M 2113 2584 
Q 1688 2584 1439 2293 
Q 1191 2003 1191 1497 
Q 1191 994 1439 701 
Q 1688 409 2113 409 
Q 2538 409 2786 701 
Q 3034 994 3034 1497 
Q 3034 2003 2786 2293 
Q 2538 2584 2113 2584 
z
M 3366 4563 
L 3366 3988 
Q 3128 4100 2886 4159 
Q 2644 4219 2406 4219 
Q 1781 4219 1451 3797 
Q 1122 3375 1075 2522 
Q 1259 2794 1537 2939 
Q 1816 3084 2150 3084 
Q 2853 3084 3261 2657 
Q 3669 2231 3669 1497 
Q 3669 778 3244 343 
Q 2819 -91 2113 -91 
Q 1303 -91 875 529 
Q 447 1150 447 2328 
Q 447 3434 972 4092 
Q 1497 4750 2381 4750 
Q 2619 4750 2861 4703 
Q 3103 4656 3366 4563 
z
" transform="scale(0.015625)"/>
       </defs>
       <use xlink:href="#DejaVuSans-36"/>
       <use xlink:href="#DejaVuSans-30" x="63.623047"/>
       <use xlink:href="#DejaVuSans-30" x="127.246094"/>
       <use xlink:href="#DejaVuSans-30" x="190.869141"/>
      </g>
     </g>
    </g>
    <g id="xtick_4">
     <g id="line2d_4">
      <g>
       <use xlink:href="#m0b661a0f86" x="220.811582" y="242.44" style="stroke: #000000; stroke-width: 0.8"/>
      </g>
     </g>
     <g id="text_4">
      <!-- 8000 -->
      <g transform="translate(208.086582 257.038437) scale(0.1 -0.1)">
       <defs>
        <path id="DejaVuSans-38" d="M 2034 2216 
Q 1584 2216 1326 1975 
Q 1069 1734 1069 1313 
Q 1069 891 1326 650 
Q 1584 409 2034 409 
Q 2484 409 2743 651 
Q 3003 894 3003 1313 
Q 3003 1734 2745 1975 
Q 2488 2216 2034 2216 
z
M 1403 2484 
Q 997 2584 770 2862 
Q 544 3141 544 3541 
Q 544 4100 942 4425 
Q 1341 4750 2034 4750 
Q 2731 4750 3128 4425 
Q 3525 4100 3525 3541 
Q 3525 3141 3298 2862 
Q 3072 2584 2669 2484 
Q 3125 2378 3379 2068 
Q 3634 1759 3634 1313 
Q 3634 634 3220 271 
Q 2806 -91 2034 -91 
Q 1263 -91 848 271 
Q 434 634 434 1313 
Q 434 1759 690 2068 
Q 947 2378 1403 2484 
z
M 1172 3481 
Q 1172 3119 1398 2916 
Q 1625 2713 2034 2713 
Q 2441 2713 2670 2916 
Q 2900 3119 2900 3481 
Q 2900 3844 2670 4047 
Q 2441 4250 2034 4250 
Q 1625 4250 1398 4047 
Q 1172 3844 1172 3481 
z
" transform="scale(0.015625)"/>
       </defs>
       <use xlink:href="#DejaVuSans-38"/>
       <use xlink:href="#DejaVuSans-30" x="63.623047"/>
       <use xlink:href="#DejaVuSans-30" x="127.246094"/>
       <use xlink:href="#DejaVuSans-30" x="190.869141"/>
      </g>
     </g>
    </g>
    <g id="xtick_5">
     <g id="line2d_5">
      <g>
       <use xlink:href="#m0b661a0f86" x="272.140253" y="242.44" style="stroke: #000000; stroke-width: 0.8"/>
      </g>
     </g>
     <g id="text_5">
      <!-- 10000 -->
      <g transform="translate(256.234003 257.038437) scale(0.1 -0.1)">
       <defs>
        <path id="DejaVuSans-31" d="M 794 531 
L 1825 531 
L 1825 4091 
L 703 3866 
L 703 4441 
L 1819 4666 
L 2450 4666 
L 2450 531 
L 3481 531 
L 3481 0 
L 794 0 
L 794 531 
z
" transform="scale(0.015625)"/>
       </defs>
       <use xlink:href="#DejaVuSans-31"/>
       <use xlink:href="#DejaVuSans-30" x="63.623047"/>
       <use xlink:href="#DejaVuSans-30" x="127.246094"/>
       <use xlink:href="#DejaVuSans-30" x="190.869141"/>
       <use xlink:href="#DejaVuSans-30" x="254.492188"/>
      </g>
     </g>
    </g>
    <g id="xtick_6">
     <g id="line2d_6">
      <g>
       <use xlink:href="#m0b661a0f86" x="323.468925" y="242.44" style="stroke: #000000; stroke-width: 0.8"/>
      </g>
     </g>
     <g id="text_6">
      <!-- 12000 -->
      <g transform="translate(307.562675 257.038437) scale(0.1 -0.1)">
       <use xlink:href="#DejaVuSans-31"/>
       <use xlink:href="#DejaVuSans-32" x="63.623047"/>
       <use xlink:href="#DejaVuSans-30" x="127.246094"/>
       <use xlink:href="#DejaVuSans-30" x="190.869141"/>
       <use xlink:href="#DejaVuSans-30" x="254.492188"/>
      </g>
     </g>
    </g>
    <g id="xtick_7">
     <g id="line2d_7">
      <g>
       <use xlink:href="#m0b661a0f86" x="374.797596" y="242.44" style="stroke: #000000; stroke-width: 0.8"/>
      </g>
     </g>
     <g id="text_7">
      <!-- 14000 -->
      <g transform="translate(358.891346 257.038437) scale(0.1 -0.1)">
       <use xlink:href="#DejaVuSans-31"/>
       <use xlink:href="#DejaVuSans-34" x="63.623047"/>
       <use xlink:href="#DejaVuSans-30" x="127.246094"/>
       <use xlink:href="#DejaVuSans-30" x="190.869141"/>
       <use xlink:href="#DejaVuSans-30" x="254.492188"/>
      </g>
     </g>
    </g>
    <g id="text_8">
     <!-- tof [µs] -->
     <g transform="translate(215.5875 270.716562) scale(0.1 -0.1)">
      <defs>
       <path id="DejaVuSans-74" d="M 1172 4494 
L 1172 3500 
L 2356 3500 
L 2356 3053 
L 1172 3053 
L 1172 1153 
Q 1172 725 1289 603 
Q 1406 481 1766 481 
L 2356 481 
L 2356 0 
L 1766 0 
Q 1100 0 847 248 
Q 594 497 594 1153 
L 594 3053 
L 172 3053 
L 172 3500 
L 594 3500 
L 594 4494 
L 1172 4494 
z
" transform="scale(0.015625)"/>
       <path id="DejaVuSans-6f" d="M 1959 3097 
Q 1497 3097 1228 2736 
Q 959 2375 959 1747 
Q 959 1119 1226 758 
Q 1494 397 1959 397 
Q 2419 397 2687 759 
Q 2956 1122 2956 1747 
Q 2956 2369 2687 2733 
Q 2419 3097 1959 3097 
z
M 1959 3584 
Q 2709 3584 3137 3096 
Q 3566 2609 3566 1747 
Q 3566 888 3137 398 
Q 2709 -91 1959 -91 
Q 1206 -91 779 398 
Q 353 888 353 1747 
Q 353 2609 779 3096 
Q 1206 3584 1959 3584 
z
" transform="scale(0.015625)"/>
       <path id="DejaVuSans-66" d="M 2375 4863 
L 2375 4384 
L 1825 4384 
Q 1516 4384 1395 4259 
Q 1275 4134 1275 3809 
L 1275 3500 
L 2222 3500 
L 2222 3053 
L 1275 3053 
L 1275 0 
L 697 0 
L 697 3053 
L 147 3053 
L 147 3500 
L 697 3500 
L 697 3744 
Q 697 4328 969 4595 
Q 1241 4863 1831 4863 
L 2375 4863 
z
" transform="scale(0.015625)"/>
       <path id="DejaVuSans-20" transform="scale(0.015625)"/>
       <path id="DejaVuSans-5b" d="M 550 4863 
L 1875 4863 
L 1875 4416 
L 1125 4416 
L 1125 -397 
L 1875 -397 
L 1875 -844 
L 550 -844 
L 550 4863 
z
" transform="scale(0.015625)"/>
       <path id="DejaVuSans-b5" d="M 544 -1331 
L 544 3500 
L 1119 3500 
L 1119 1325 
Q 1119 872 1334 640 
Q 1550 409 1972 409 
Q 2434 409 2667 671 
Q 2900 934 2900 1459 
L 2900 3500 
L 3475 3500 
L 3475 806 
Q 3475 619 3529 530 
Q 3584 441 3700 441 
Q 3728 441 3778 458 
Q 3828 475 3916 513 
L 3916 50 
Q 3788 -22 3673 -56 
Q 3559 -91 3450 -91 
Q 3234 -91 3106 31 
Q 2978 153 2931 403 
Q 2775 156 2548 32 
Q 2322 -91 2016 -91 
Q 1697 -91 1473 31 
Q 1250 153 1119 397 
L 1119 -1331 
L 544 -1331 
z
" transform="scale(0.015625)"/>
       <path id="DejaVuSans-73" d="M 2834 3397 
L 2834 2853 
Q 2591 2978 2328 3040 
Q 2066 3103 1784 3103 
Q 1356 3103 1142 2972 
Q 928 2841 928 2578 
Q 928 2378 1081 2264 
Q 1234 2150 1697 2047 
L 1894 2003 
Q 2506 1872 2764 1633 
Q 3022 1394 3022 966 
Q 3022 478 2636 193 
Q 2250 -91 1575 -91 
Q 1294 -91 989 -36 
Q 684 19 347 128 
L 347 722 
Q 666 556 975 473 
Q 1284 391 1588 391 
Q 1994 391 2212 530 
Q 2431 669 2431 922 
Q 2431 1156 2273 1281 
Q 2116 1406 1581 1522 
L 1381 1569 
Q 847 1681 609 1914 
Q 372 2147 372 2553 
Q 372 3047 722 3315 
Q 1072 3584 1716 3584 
Q 2034 3584 2315 3537 
Q 2597 3491 2834 3397 
z
" transform="scale(0.015625)"/>
       <path id="DejaVuSans-5d" d="M 1947 4863 
L 1947 -844 
L 622 -844 
L 622 -397 
L 1369 -397 
L 1369 4416 
L 622 4416 
L 622 4863 
L 1947 4863 
z
" transform="scale(0.015625)"/>
      </defs>
      <use xlink:href="#DejaVuSans-74"/>
      <use xlink:href="#DejaVuSans-6f" x="39.208984"/>
      <use xlink:href="#DejaVuSans-66" x="100.390625"/>
      <use xlink:href="#DejaVuSans-20" x="135.595703"/>
      <use xlink:href="#DejaVuSans-5b" x="167.382812"/>
      <use xlink:href="#DejaVuSans-b5" x="206.396484"/>
      <use xlink:href="#DejaVuSans-73" x="270.019531"/>
      <use xlink:href="#DejaVuSans-5d" x="322.119141"/>
     </g>
    </g>
   </g>
   <g id="matplotlib.axis_2">
    <g id="ytick_1">
     <g id="line2d_8">
      <defs>
       <path id="m84a9269340" d="M 0 0 
L -3.5 0 
" style="stroke: #000000; stroke-width: 0.8"/>
      </defs>
      <g>
       <use xlink:href="#m84a9269340" x="50.14375" y="231.747273" style="stroke: #000000; stroke-width: 0.8"/>
      </g>
     </g>
     <g id="text_9">
      <!-- 0.0 -->
      <g transform="translate(27.240625 235.546491) scale(0.1 -0.1)">
       <defs>
        <path id="DejaVuSans-2e" d="M 684 794 
L 1344 794 
L 1344 0 
L 684 0 
L 684 794 
z
" transform="scale(0.015625)"/>
       </defs>
       <use xlink:href="#DejaVuSans-30"/>
       <use xlink:href="#DejaVuSans-2e" x="63.623047"/>
       <use xlink:href="#DejaVuSans-30" x="95.410156"/>
      </g>
     </g>
    </g>
    <g id="ytick_2">
     <g id="line2d_9">
      <g>
       <use xlink:href="#m84a9269340" x="50.14375" y="201.612751" style="stroke: #000000; stroke-width: 0.8"/>
      </g>
     </g>
     <g id="text_10">
      <!-- 2.5 -->
      <g transform="translate(27.240625 205.41197) scale(0.1 -0.1)">
       <defs>
        <path id="DejaVuSans-35" d="M 691 4666 
L 3169 4666 
L 3169 4134 
L 1269 4134 
L 1269 2991 
Q 1406 3038 1543 3061 
Q 1681 3084 1819 3084 
Q 2600 3084 3056 2656 
Q 3513 2228 3513 1497 
Q 3513 744 3044 326 
Q 2575 -91 1722 -91 
Q 1428 -91 1123 -41 
Q 819 9 494 109 
L 494 744 
Q 775 591 1075 516 
Q 1375 441 1709 441 
Q 2250 441 2565 725 
Q 2881 1009 2881 1497 
Q 2881 1984 2565 2268 
Q 2250 2553 1709 2553 
Q 1456 2553 1204 2497 
Q 953 2441 691 2322 
L 691 4666 
z
" transform="scale(0.015625)"/>
       </defs>
       <use xlink:href="#DejaVuSans-32"/>
       <use xlink:href="#DejaVuSans-2e" x="63.623047"/>
       <use xlink:href="#DejaVuSans-35" x="95.410156"/>
      </g>
     </g>
    </g>
    <g id="ytick_3">
     <g id="line2d_10">
      <g>
       <use xlink:href="#m84a9269340" x="50.14375" y="171.478229" style="stroke: #000000; stroke-width: 0.8"/>
      </g>
     </g>
     <g id="text_11">
      <!-- 5.0 -->
      <g transform="translate(27.240625 175.277448) scale(0.1 -0.1)">
       <use xlink:href="#DejaVuSans-35"/>
       <use xlink:href="#DejaVuSans-2e" x="63.623047"/>
       <use xlink:href="#DejaVuSans-30" x="95.410156"/>
      </g>
     </g>
    </g>
    <g id="ytick_4">
     <g id="line2d_11">
      <g>
       <use xlink:href="#m84a9269340" x="50.14375" y="141.343707" style="stroke: #000000; stroke-width: 0.8"/>
      </g>
     </g>
     <g id="text_12">
      <!-- 7.5 -->
      <g transform="translate(27.240625 145.142926) scale(0.1 -0.1)">
       <defs>
        <path id="DejaVuSans-37" d="M 525 4666 
L 3525 4666 
L 3525 4397 
L 1831 0 
L 1172 0 
L 2766 4134 
L 525 4134 
L 525 4666 
z
" transform="scale(0.015625)"/>
       </defs>
       <use xlink:href="#DejaVuSans-37"/>
       <use xlink:href="#DejaVuSans-2e" x="63.623047"/>
       <use xlink:href="#DejaVuSans-35" x="95.410156"/>
      </g>
     </g>
    </g>
    <g id="ytick_5">
     <g id="line2d_12">
      <g>
       <use xlink:href="#m84a9269340" x="50.14375" y="111.209186" style="stroke: #000000; stroke-width: 0.8"/>
      </g>
     </g>
     <g id="text_13">
      <!-- 10.0 -->
      <g transform="translate(20.878125 115.008404) scale(0.1 -0.1)">
       <use xlink:href="#DejaVuSans-31"/>
       <use xlink:href="#DejaVuSans-30" x="63.623047"/>
       <use xlink:href="#DejaVuSans-2e" x="127.246094"/>
       <use xlink:href="#DejaVuSans-30" x="159.033203"/>
      </g>
     </g>
    </g>
    <g id="ytick_6">
     <g id="line2d_13">
      <g>
       <use xlink:href="#m84a9269340" x="50.14375" y="81.074664" style="stroke: #000000; stroke-width: 0.8"/>
      </g>
     </g>
     <g id="text_14">
      <!-- 12.5 -->
      <g transform="translate(20.878125 84.873883) scale(0.1 -0.1)">
       <use xlink:href="#DejaVuSans-31"/>
       <use xlink:href="#DejaVuSans-32" x="63.623047"/>
       <use xlink:href="#DejaVuSans-2e" x="127.246094"/>
       <use xlink:href="#DejaVuSans-35" x="159.033203"/>
      </g>
     </g>
    </g>
    <g id="ytick_7">
     <g id="line2d_14">
      <g>
       <use xlink:href="#m84a9269340" x="50.14375" y="50.940142" style="stroke: #000000; stroke-width: 0.8"/>
      </g>
     </g>
     <g id="text_15">
      <!-- 15.0 -->
      <g transform="translate(20.878125 54.739361) scale(0.1 -0.1)">
       <use xlink:href="#DejaVuSans-31"/>
       <use xlink:href="#DejaVuSans-35" x="63.623047"/>
       <use xlink:href="#DejaVuSans-2e" x="127.246094"/>
       <use xlink:href="#DejaVuSans-30" x="159.033203"/>
      </g>
     </g>
    </g>
    <g id="ytick_8">
     <g id="line2d_15">
      <g>
       <use xlink:href="#m84a9269340" x="50.14375" y="20.80562" style="stroke: #000000; stroke-width: 0.8"/>
      </g>
     </g>
     <g id="text_16">
      <!-- 17.5 -->
      <g transform="translate(20.878125 24.604839) scale(0.1 -0.1)">
       <use xlink:href="#DejaVuSans-31"/>
       <use xlink:href="#DejaVuSans-37" x="63.623047"/>
       <use xlink:href="#DejaVuSans-2e" x="127.246094"/>
       <use xlink:href="#DejaVuSans-35" x="159.033203"/>
      </g>
     </g>
    </g>
    <g id="text_17">
     <!-- [counts] -->
     <g transform="translate(14.798438 145.4325) rotate(-90) scale(0.1 -0.1)">
      <defs>
       <path id="DejaVuSans-63" d="M 3122 3366 
L 3122 2828 
Q 2878 2963 2633 3030 
Q 2388 3097 2138 3097 
Q 1578 3097 1268 2742 
Q 959 2388 959 1747 
Q 959 1106 1268 751 
Q 1578 397 2138 397 
Q 2388 397 2633 464 
Q 2878 531 3122 666 
L 3122 134 
Q 2881 22 2623 -34 
Q 2366 -91 2075 -91 
Q 1284 -91 818 406 
Q 353 903 353 1747 
Q 353 2603 823 3093 
Q 1294 3584 2113 3584 
Q 2378 3584 2631 3529 
Q 2884 3475 3122 3366 
z
" transform="scale(0.015625)"/>
       <path id="DejaVuSans-75" d="M 544 1381 
L 544 3500 
L 1119 3500 
L 1119 1403 
Q 1119 906 1312 657 
Q 1506 409 1894 409 
Q 2359 409 2629 706 
Q 2900 1003 2900 1516 
L 2900 3500 
L 3475 3500 
L 3475 0 
L 2900 0 
L 2900 538 
Q 2691 219 2414 64 
Q 2138 -91 1772 -91 
Q 1169 -91 856 284 
Q 544 659 544 1381 
z
M 1991 3584 
L 1991 3584 
z
" transform="scale(0.015625)"/>
       <path id="DejaVuSans-6e" d="M 3513 2113 
L 3513 0 
L 2938 0 
L 2938 2094 
Q 2938 2591 2744 2837 
Q 2550 3084 2163 3084 
Q 1697 3084 1428 2787 
Q 1159 2491 1159 1978 
L 1159 0 
L 581 0 
L 581 3500 
L 1159 3500 
L 1159 2956 
Q 1366 3272 1645 3428 
Q 1925 3584 2291 3584 
Q 2894 3584 3203 3211 
Q 3513 2838 3513 2113 
z
" transform="scale(0.015625)"/>
      </defs>
      <use xlink:href="#DejaVuSans-5b"/>
      <use xlink:href="#DejaVuSans-63" x="39.013672"/>
      <use xlink:href="#DejaVuSans-6f" x="93.994141"/>
      <use xlink:href="#DejaVuSans-75" x="155.175781"/>
      <use xlink:href="#DejaVuSans-6e" x="218.554688"/>
      <use xlink:href="#DejaVuSans-74" x="281.933594"/>
      <use xlink:href="#DejaVuSans-73" x="321.142578"/>
      <use xlink:href="#DejaVuSans-5d" x="373.242188"/>
     </g>
    </g>
   </g>
   <g id="patch_3">
    <path d="M 50.14375 242.44 
L 50.14375 7.2 
" style="fill: none; stroke: #000000; stroke-width: 0.8; stroke-linejoin: miter; stroke-linecap: square"/>
   </g>
   <g id="patch_4">
    <path d="M 417.14375 242.44 
L 417.14375 7.2 
" style="fill: none; stroke: #000000; stroke-width: 0.8; stroke-linejoin: miter; stroke-linecap: square"/>
   </g>
   <g id="patch_5">
    <path d="M 50.14375 242.44 
L 417.14375 242.44 
" style="fill: none; stroke: #000000; stroke-width: 0.8; stroke-linejoin: miter; stroke-linecap: square"/>
   </g>
   <g id="patch_6">
    <path d="M 50.14375 7.2 
L 417.14375 7.2 
" style="fill: none; stroke: #000000; stroke-width: 0.8; stroke-linejoin: miter; stroke-linecap: square"/>
   </g>
   <g id="legend_1">
    <g id="patch_7">
     <path d="M 344.451563 29.878125 
L 410.14375 29.878125 
Q 412.14375 29.878125 412.14375 27.878125 
L 412.14375 14.2 
Q 412.14375 12.2 410.14375 12.2 
L 344.451563 12.2 
Q 342.451563 12.2 342.451563 14.2 
L 342.451563 27.878125 
Q 342.451563 29.878125 344.451563 29.878125 
z
" style="fill: #ffffff; opacity: 0.8; stroke: #cccccc; stroke-linejoin: miter"/>
    </g>
    <g id="line2d_16">
     <path d="M 346.451563 20.298437 
L 346.451563 20.298437 
L 356.451563 20.298437 
L 356.451563 20.298437 
L 366.451563 20.298437 
" style="fill: none; stroke: #1f77b4; stroke-width: 1.5; stroke-linecap: square"/>
    </g>
    <g id="text_18">
     <!-- events -->
     <g transform="translate(374.451563 23.798437) scale(0.1 -0.1)">
      <defs>
       <path id="DejaVuSans-65" d="M 3597 1894 
L 3597 1613 
L 953 1613 
Q 991 1019 1311 708 
Q 1631 397 2203 397 
Q 2534 397 2845 478 
Q 3156 559 3463 722 
L 3463 178 
Q 3153 47 2828 -22 
Q 2503 -91 2169 -91 
Q 1331 -91 842 396 
Q 353 884 353 1716 
Q 353 2575 817 3079 
Q 1281 3584 2069 3584 
Q 2775 3584 3186 3129 
Q 3597 2675 3597 1894 
z
M 3022 2063 
Q 3016 2534 2758 2815 
Q 2500 3097 2075 3097 
Q 1594 3097 1305 2825 
Q 1016 2553 972 2059 
L 3022 2063 
z
" transform="scale(0.015625)"/>
       <path id="DejaVuSans-76" d="M 191 3500 
L 800 3500 
L 1894 563 
L 2988 3500 
L 3597 3500 
L 2284 0 
L 1503 0 
L 191 3500 
z
" transform="scale(0.015625)"/>
      </defs>
      <use xlink:href="#DejaVuSans-65"/>
      <use xlink:href="#DejaVuSans-76" x="61.523438"/>
      <use xlink:href="#DejaVuSans-65" x="120.703125"/>
      <use xlink:href="#DejaVuSans-6e" x="182.226562"/>
      <use xlink:href="#DejaVuSans-74" x="245.605469"/>
      <use xlink:href="#DejaVuSans-73" x="284.814453"/>
     </g>
    </g>
   </g>
   <g id="line2d_17">
    <path d="M 66.825568 207.639655 
L 68.49375 207.639655 
L 68.49375 231.747273 
L 73.498295 231.747273 
L 73.498295 207.639655 
L 75.166477 207.639655 
L 75.166477 219.693464 
L 76.834659 219.693464 
L 76.834659 207.639655 
L 78.502841 207.639655 
L 78.502841 231.747273 
L 80.171023 231.747273 
L 80.171023 219.693464 
L 83.507386 219.693464 
L 83.507386 195.585847 
L 85.175568 195.585847 
L 85.175568 207.639655 
L 86.84375 207.639655 
L 86.84375 219.693464 
L 88.511932 219.693464 
L 88.511932 195.585847 
L 90.180114 195.585847 
L 90.180114 219.693464 
L 91.848295 219.693464 
L 91.848295 207.639655 
L 95.184659 207.639655 
L 95.184659 183.532038 
L 96.852841 183.532038 
L 96.852841 219.693464 
L 100.189205 219.693464 
L 100.189205 171.478229 
L 101.857386 171.478229 
L 101.857386 219.693464 
L 103.525568 219.693464 
L 103.525568 231.747273 
L 105.19375 231.747273 
L 105.19375 207.639655 
L 106.861932 207.639655 
L 106.861932 231.747273 
L 108.530114 231.747273 
L 108.530114 207.639655 
L 110.198295 207.639655 
L 110.198295 231.747273 
L 111.866477 231.747273 
L 111.866477 183.532038 
L 113.534659 183.532038 
L 113.534659 159.424421 
L 115.202841 159.424421 
L 115.202841 231.747273 
L 116.871023 231.747273 
L 116.871023 159.688298 
L 118.539205 159.688298 
L 118.539205 148.638452 
L 120.207386 148.638452 
L 120.207386 130.837135 
L 121.875568 130.837135 
L 121.875568 148.773339 
L 123.54375 148.773339 
L 123.54375 139.626207 
L 125.211932 139.626207 
L 125.211932 231.747273 
L 128.548295 231.747273 
L 128.548295 199.743661 
L 130.216477 199.743661 
L 130.216477 171.522527 
L 131.884659 171.522527 
L 131.884659 160.145039 
L 133.552841 160.145039 
L 133.552841 218.17553 
L 135.221023 218.17553 
L 135.221023 218.66727 
L 136.889205 218.66727 
L 136.889205 206.049657 
L 138.557386 206.049657 
L 138.557386 219.151969 
L 140.225568 219.151969 
L 140.225568 169.540178 
L 141.89375 169.540178 
L 141.89375 169.939891 
L 143.561932 169.939891 
L 143.561932 207.639655 
L 145.230114 207.639655 
L 145.230114 195.585847 
L 146.898295 195.585847 
L 146.898295 159.424421 
L 148.566477 159.424421 
L 148.566477 171.478229 
L 151.902841 171.478229 
L 151.902841 207.639655 
L 153.571023 207.639655 
L 153.571023 195.585847 
L 155.239205 195.585847 
L 155.239205 207.639655 
L 156.907386 207.639655 
L 156.907386 219.693464 
L 158.575568 219.693464 
L 158.575568 207.639655 
L 160.24375 207.639655 
L 160.24375 195.585847 
L 161.911932 195.585847 
L 161.911932 183.532038 
L 163.580114 183.532038 
L 163.580114 207.639655 
L 165.248295 207.639655 
L 165.248295 219.693464 
L 168.584659 219.693464 
L 168.584659 207.639655 
L 170.252841 207.639655 
L 170.252841 183.532038 
L 171.921023 183.532038 
L 171.921023 195.585847 
L 173.589205 195.585847 
L 173.589205 231.747273 
L 175.257386 231.747273 
L 175.257386 159.424421 
L 176.925568 159.424421 
L 176.925568 195.585847 
L 178.59375 195.585847 
L 178.59375 207.639655 
L 180.261932 207.639655 
L 180.261932 183.532038 
L 181.930114 183.532038 
L 181.930114 171.478229 
L 183.598295 171.478229 
L 183.598295 195.585847 
L 185.266477 195.585847 
L 185.266477 147.370612 
L 186.934659 147.370612 
L 186.934659 183.532038 
L 188.602841 183.532038 
L 188.602841 171.478229 
L 190.271023 171.478229 
L 190.271023 195.585847 
L 191.939205 195.585847 
L 191.939205 219.693464 
L 195.275568 219.693464 
L 195.275568 147.370612 
L 198.611932 147.370612 
L 198.611932 195.585847 
L 200.280114 195.585847 
L 200.280114 207.639655 
L 201.948295 207.639655 
L 201.948295 219.693464 
L 203.616477 219.693464 
L 203.616477 195.585847 
L 205.284659 195.585847 
L 205.284659 171.478229 
L 206.952841 171.478229 
L 206.952841 207.639655 
L 210.289205 207.639655 
L 210.289205 195.585847 
L 211.957386 195.585847 
L 211.957386 147.370612 
L 213.625568 147.370612 
L 213.625568 207.639655 
L 215.29375 207.639655 
L 215.29375 195.585847 
L 216.961932 195.585847 
L 216.961932 219.693464 
L 218.630114 219.693464 
L 218.630114 183.532038 
L 220.298295 183.532038 
L 220.298295 207.639655 
L 223.634659 207.639655 
L 223.634659 159.424421 
L 225.302841 159.424421 
L 225.302841 171.478229 
L 226.971023 171.478229 
L 226.971023 195.585847 
L 228.639205 195.585847 
L 228.639205 207.639655 
L 230.307386 207.639655 
L 230.307386 171.478229 
L 233.64375 171.478229 
L 233.64375 183.532038 
L 235.311932 183.532038 
L 235.311932 219.693464 
L 236.980114 219.693464 
L 236.980114 183.532038 
L 240.316477 183.532038 
L 240.316477 219.693464 
L 241.984659 219.693464 
L 241.984659 147.370612 
L 243.652841 147.370612 
L 243.652841 195.585847 
L 246.989205 195.585847 
L 246.989205 123.262994 
L 248.657386 123.262994 
L 248.657386 195.585847 
L 250.325568 195.585847 
L 250.325568 183.532038 
L 251.99375 183.532038 
L 251.99375 159.424421 
L 253.661932 159.424421 
L 253.661932 207.639655 
L 255.330114 207.639655 
L 255.330114 171.478229 
L 256.998295 171.478229 
L 256.998295 195.585847 
L 258.666477 195.585847 
L 258.666477 171.478229 
L 260.334659 171.478229 
L 260.334659 195.585847 
L 262.002841 195.585847 
L 262.002841 207.639655 
L 263.671023 207.639655 
L 263.671023 183.532038 
L 265.339205 183.532038 
L 265.339205 195.585847 
L 267.007386 195.585847 
L 267.007386 171.478229 
L 268.675568 171.478229 
L 268.675568 207.639655 
L 270.34375 207.639655 
L 270.34375 147.370612 
L 272.011932 147.370612 
L 272.011932 195.585847 
L 273.680114 195.585847 
L 273.680114 147.370612 
L 275.348295 147.370612 
L 275.348295 183.532038 
L 277.016477 183.532038 
L 277.016477 62.993951 
L 278.684659 62.993951 
L 278.684659 147.370612 
L 280.352841 147.370612 
L 280.352841 171.478229 
L 282.021023 171.478229 
L 282.021023 111.209186 
L 283.689205 111.209186 
L 283.689205 171.478229 
L 285.357386 171.478229 
L 285.357386 147.370612 
L 287.025568 147.370612 
L 287.025568 159.424421 
L 288.69375 159.424421 
L 288.69375 171.478229 
L 290.361932 171.478229 
L 290.361932 207.639655 
L 292.030114 207.639655 
L 292.030114 183.532038 
L 293.698295 183.532038 
L 293.698295 219.693464 
L 295.366477 219.693464 
L 295.366477 195.585847 
L 297.034659 195.585847 
L 297.034659 159.424421 
L 298.702841 159.424421 
L 298.702841 195.585847 
L 300.371023 195.585847 
L 300.371023 219.693464 
L 302.039205 219.693464 
L 302.039205 183.532038 
L 303.707386 183.532038 
L 303.707386 219.693464 
L 305.375568 219.693464 
L 305.375568 183.532038 
L 307.04375 183.532038 
L 307.04375 171.478229 
L 308.711932 171.478229 
L 308.711932 147.370612 
L 310.380114 147.370612 
L 310.380114 183.532038 
L 313.716477 183.532038 
L 313.716477 207.639655 
L 315.384659 207.639655 
L 315.384659 171.478229 
L 317.052841 171.478229 
L 317.052841 135.316803 
L 318.721023 135.316803 
L 318.721023 183.532038 
L 322.057386 183.532038 
L 322.057386 195.585847 
L 323.725568 195.585847 
L 323.725568 219.693464 
L 325.39375 219.693464 
L 325.39375 207.639655 
L 327.061932 207.639655 
L 327.061932 171.478229 
L 328.730114 171.478229 
L 328.730114 219.693464 
L 330.398295 219.693464 
L 330.398295 207.639655 
L 332.066477 207.639655 
L 332.066477 183.532038 
L 333.734659 183.532038 
L 333.734659 195.585847 
L 335.402841 195.585847 
L 335.402841 207.639655 
L 337.071023 207.639655 
L 337.071023 195.585847 
L 338.739205 195.585847 
L 338.739205 219.693464 
L 340.407386 219.693464 
L 340.407386 207.639655 
L 342.075568 207.639655 
L 342.075568 183.532038 
L 343.74375 183.532038 
L 343.74375 219.693464 
L 345.411932 219.693464 
L 345.411932 183.532038 
L 347.080114 183.532038 
L 347.080114 159.424421 
L 348.748295 159.424421 
L 348.748295 171.478229 
L 350.416477 171.478229 
L 350.416477 219.693464 
L 352.084659 219.693464 
L 352.084659 183.532038 
L 355.421023 183.532038 
L 355.421023 195.585847 
L 357.089205 195.585847 
L 357.089205 207.639655 
L 360.425568 207.639655 
L 360.425568 195.585847 
L 367.098295 195.585847 
L 367.098295 171.478229 
L 368.766477 171.478229 
L 368.766477 183.532038 
L 370.434659 183.532038 
L 370.434659 171.478229 
L 373.771023 171.478229 
L 373.771023 159.424421 
L 375.439205 159.424421 
L 375.439205 195.585847 
L 377.107386 195.585847 
L 377.107386 147.370612 
L 378.775568 147.370612 
L 378.775568 183.532038 
L 380.44375 183.532038 
L 380.44375 219.693464 
L 382.111932 219.693464 
L 382.111932 195.585847 
L 383.780114 195.585847 
L 383.780114 231.747273 
L 385.448295 231.747273 
L 385.448295 195.585847 
L 387.116477 195.585847 
L 387.116477 183.532038 
L 388.784659 183.532038 
L 388.784659 231.747273 
L 390.452841 231.747273 
L 390.452841 219.693464 
L 392.121023 219.693464 
L 392.121023 183.532038 
L 393.789205 183.532038 
L 393.789205 147.370612 
L 395.457386 147.370612 
L 395.457386 195.585847 
L 400.461932 195.585847 
L 400.461932 195.585847 
" clip-path="url(#pf2ad31f5ea)" style="fill: none; stroke: #1f77b4; stroke-width: 1.5; stroke-linecap: square"/>
   </g>
   <g id="LineCollection_1">
    <path d="M 67.659659 224.686315 
L 67.659659 190.592996 
" clip-path="url(#pf2ad31f5ea)" style="fill: none; stroke: #1f77b4; stroke-width: 1.5"/>
    <path d="M 69.327841 231.747273 
L 69.327841 231.747273 
" clip-path="url(#pf2ad31f5ea)" style="fill: none; stroke: #1f77b4; stroke-width: 1.5"/>
    <path d="M 70.996023 231.747273 
L 70.996023 231.747273 
" clip-path="url(#pf2ad31f5ea)" style="fill: none; stroke: #1f77b4; stroke-width: 1.5"/>
    <path d="M 72.664205 231.747273 
L 72.664205 231.747273 
" clip-path="url(#pf2ad31f5ea)" style="fill: none; stroke: #1f77b4; stroke-width: 1.5"/>
    <path d="M 74.332386 224.686315 
L 74.332386 190.592996 
" clip-path="url(#pf2ad31f5ea)" style="fill: none; stroke: #1f77b4; stroke-width: 1.5"/>
    <path d="M 76.000568 231.747273 
L 76.000568 207.639655 
" clip-path="url(#pf2ad31f5ea)" style="fill: none; stroke: #1f77b4; stroke-width: 1.5"/>
    <path d="M 77.66875 224.686315 
L 77.66875 190.592996 
" clip-path="url(#pf2ad31f5ea)" style="fill: none; stroke: #1f77b4; stroke-width: 1.5"/>
    <path d="M 79.336932 231.747273 
L 79.336932 231.747273 
" clip-path="url(#pf2ad31f5ea)" style="fill: none; stroke: #1f77b4; stroke-width: 1.5"/>
    <path d="M 81.005114 231.747273 
L 81.005114 207.639655 
" clip-path="url(#pf2ad31f5ea)" style="fill: none; stroke: #1f77b4; stroke-width: 1.5"/>
    <path d="M 82.673295 231.747273 
L 82.673295 207.639655 
" clip-path="url(#pf2ad31f5ea)" style="fill: none; stroke: #1f77b4; stroke-width: 1.5"/>
    <path d="M 84.341477 216.463655 
L 84.341477 174.708038 
" clip-path="url(#pf2ad31f5ea)" style="fill: none; stroke: #1f77b4; stroke-width: 1.5"/>
    <path d="M 86.009659 224.686315 
L 86.009659 190.592996 
" clip-path="url(#pf2ad31f5ea)" style="fill: none; stroke: #1f77b4; stroke-width: 1.5"/>
    <path d="M 87.677841 231.747273 
L 87.677841 207.639655 
" clip-path="url(#pf2ad31f5ea)" style="fill: none; stroke: #1f77b4; stroke-width: 1.5"/>
    <path d="M 89.346023 216.463655 
L 89.346023 174.708038 
" clip-path="url(#pf2ad31f5ea)" style="fill: none; stroke: #1f77b4; stroke-width: 1.5"/>
    <path d="M 91.014205 231.747273 
L 91.014205 207.639655 
" clip-path="url(#pf2ad31f5ea)" style="fill: none; stroke: #1f77b4; stroke-width: 1.5"/>
    <path d="M 92.682386 224.686315 
L 92.682386 190.592996 
" clip-path="url(#pf2ad31f5ea)" style="fill: none; stroke: #1f77b4; stroke-width: 1.5"/>
    <path d="M 94.350568 224.686315 
L 94.350568 190.592996 
" clip-path="url(#pf2ad31f5ea)" style="fill: none; stroke: #1f77b4; stroke-width: 1.5"/>
    <path d="M 96.01875 207.639655 
L 96.01875 159.424421 
" clip-path="url(#pf2ad31f5ea)" style="fill: none; stroke: #1f77b4; stroke-width: 1.5"/>
    <path d="M 97.686932 231.747273 
L 97.686932 207.639655 
" clip-path="url(#pf2ad31f5ea)" style="fill: none; stroke: #1f77b4; stroke-width: 1.5"/>
    <path d="M 99.355114 231.747273 
L 99.355114 207.639655 
" clip-path="url(#pf2ad31f5ea)" style="fill: none; stroke: #1f77b4; stroke-width: 1.5"/>
    <path d="M 101.023295 198.431365 
L 101.023295 144.525093 
" clip-path="url(#pf2ad31f5ea)" style="fill: none; stroke: #1f77b4; stroke-width: 1.5"/>
    <path d="M 102.691477 231.747273 
L 102.691477 207.639655 
" clip-path="url(#pf2ad31f5ea)" style="fill: none; stroke: #1f77b4; stroke-width: 1.5"/>
    <path d="M 104.359659 231.747273 
L 104.359659 231.747273 
" clip-path="url(#pf2ad31f5ea)" style="fill: none; stroke: #1f77b4; stroke-width: 1.5"/>
    <path d="M 106.027841 224.686315 
L 106.027841 190.592996 
" clip-path="url(#pf2ad31f5ea)" style="fill: none; stroke: #1f77b4; stroke-width: 1.5"/>
    <path d="M 107.696023 231.747273 
L 107.696023 231.747273 
" clip-path="url(#pf2ad31f5ea)" style="fill: none; stroke: #1f77b4; stroke-width: 1.5"/>
    <path d="M 109.364205 224.686315 
L 109.364205 190.592996 
" clip-path="url(#pf2ad31f5ea)" style="fill: none; stroke: #1f77b4; stroke-width: 1.5"/>
    <path d="M 111.032386 231.747273 
L 111.032386 231.747273 
" clip-path="url(#pf2ad31f5ea)" style="fill: none; stroke: #1f77b4; stroke-width: 1.5"/>
    <path d="M 112.700568 207.639655 
L 112.700568 159.424421 
" clip-path="url(#pf2ad31f5ea)" style="fill: none; stroke: #1f77b4; stroke-width: 1.5"/>
    <path d="M 114.36875 188.950102 
L 114.36875 129.898739 
" clip-path="url(#pf2ad31f5ea)" style="fill: none; stroke: #1f77b4; stroke-width: 1.5"/>
    <path d="M 116.036932 231.747273 
L 116.036932 231.747273 
" clip-path="url(#pf2ad31f5ea)" style="fill: none; stroke: #1f77b4; stroke-width: 1.5"/>
    <path d="M 117.705114 210.579571 
L 117.705114 108.797024 
" clip-path="url(#pf2ad31f5ea)" style="fill: none; stroke: #1f77b4; stroke-width: 1.5"/>
    <path d="M 119.373295 207.677458 
L 119.373295 89.599446 
" clip-path="url(#pf2ad31f5ea)" style="fill: none; stroke: #1f77b4; stroke-width: 1.5"/>
    <path d="M 121.041477 189.116139 
L 121.041477 72.55813 
" clip-path="url(#pf2ad31f5ea)" style="fill: none; stroke: #1f77b4; stroke-width: 1.5"/>
    <path d="M 122.709659 196.733916 
L 122.709659 100.812762 
" clip-path="url(#pf2ad31f5ea)" style="fill: none; stroke: #1f77b4; stroke-width: 1.5"/>
    <path d="M 124.377841 185.740556 
L 124.377841 93.511859 
" clip-path="url(#pf2ad31f5ea)" style="fill: none; stroke: #1f77b4; stroke-width: 1.5"/>
    <path d="M 126.046023 231.747273 
L 126.046023 231.747273 
" clip-path="url(#pf2ad31f5ea)" style="fill: none; stroke: #1f77b4; stroke-width: 1.5"/>
    <path d="M 127.714205 231.747273 
L 127.714205 231.747273 
" clip-path="url(#pf2ad31f5ea)" style="fill: none; stroke: #1f77b4; stroke-width: 1.5"/>
    <path d="M 129.382386 222.373633 
L 129.382386 177.113689 
" clip-path="url(#pf2ad31f5ea)" style="fill: none; stroke: #1f77b4; stroke-width: 1.5"/>
    <path d="M 131.050568 201.640521 
L 131.050568 141.404533 
" clip-path="url(#pf2ad31f5ea)" style="fill: none; stroke: #1f77b4; stroke-width: 1.5"/>
    <path d="M 132.71875 192.168291 
L 132.71875 128.121787 
" clip-path="url(#pf2ad31f5ea)" style="fill: none; stroke: #1f77b4; stroke-width: 1.5"/>
    <path d="M 134.386932 231.747273 
L 134.386932 204.603787 
" clip-path="url(#pf2ad31f5ea)" style="fill: none; stroke: #1f77b4; stroke-width: 1.5"/>
    <path d="M 136.055114 231.747273 
L 136.055114 205.587268 
" clip-path="url(#pf2ad31f5ea)" style="fill: none; stroke: #1f77b4; stroke-width: 1.5"/>
    <path d="M 137.723295 224.220765 
L 137.723295 187.878548 
" clip-path="url(#pf2ad31f5ea)" style="fill: none; stroke: #1f77b4; stroke-width: 1.5"/>
    <path d="M 139.391477 231.747273 
L 139.391477 206.556664 
" clip-path="url(#pf2ad31f5ea)" style="fill: none; stroke: #1f77b4; stroke-width: 1.5"/>
    <path d="M 141.059659 197.360094 
L 141.059659 141.720263 
" clip-path="url(#pf2ad31f5ea)" style="fill: none; stroke: #1f77b4; stroke-width: 1.5"/>
    <path d="M 142.727841 197.58103 
L 142.727841 142.298752 
" clip-path="url(#pf2ad31f5ea)" style="fill: none; stroke: #1f77b4; stroke-width: 1.5"/>
    <path d="M 144.396023 224.686315 
L 144.396023 190.592996 
" clip-path="url(#pf2ad31f5ea)" style="fill: none; stroke: #1f77b4; stroke-width: 1.5"/>
    <path d="M 146.064205 216.463655 
L 146.064205 174.708038 
" clip-path="url(#pf2ad31f5ea)" style="fill: none; stroke: #1f77b4; stroke-width: 1.5"/>
    <path d="M 147.732386 188.950102 
L 147.732386 129.898739 
" clip-path="url(#pf2ad31f5ea)" style="fill: none; stroke: #1f77b4; stroke-width: 1.5"/>
    <path d="M 149.400568 198.431365 
L 149.400568 144.525093 
" clip-path="url(#pf2ad31f5ea)" style="fill: none; stroke: #1f77b4; stroke-width: 1.5"/>
    <path d="M 151.06875 198.431365 
L 151.06875 144.525093 
" clip-path="url(#pf2ad31f5ea)" style="fill: none; stroke: #1f77b4; stroke-width: 1.5"/>
    <path d="M 152.736932 224.686315 
L 152.736932 190.592996 
" clip-path="url(#pf2ad31f5ea)" style="fill: none; stroke: #1f77b4; stroke-width: 1.5"/>
    <path d="M 154.405114 216.463655 
L 154.405114 174.708038 
" clip-path="url(#pf2ad31f5ea)" style="fill: none; stroke: #1f77b4; stroke-width: 1.5"/>
    <path d="M 156.073295 224.686315 
L 156.073295 190.592996 
" clip-path="url(#pf2ad31f5ea)" style="fill: none; stroke: #1f77b4; stroke-width: 1.5"/>
    <path d="M 157.741477 231.747273 
L 157.741477 207.639655 
" clip-path="url(#pf2ad31f5ea)" style="fill: none; stroke: #1f77b4; stroke-width: 1.5"/>
    <path d="M 159.409659 224.686315 
L 159.409659 190.592996 
" clip-path="url(#pf2ad31f5ea)" style="fill: none; stroke: #1f77b4; stroke-width: 1.5"/>
    <path d="M 161.077841 216.463655 
L 161.077841 174.708038 
" clip-path="url(#pf2ad31f5ea)" style="fill: none; stroke: #1f77b4; stroke-width: 1.5"/>
    <path d="M 162.746023 207.639655 
L 162.746023 159.424421 
" clip-path="url(#pf2ad31f5ea)" style="fill: none; stroke: #1f77b4; stroke-width: 1.5"/>
    <path d="M 164.414205 224.686315 
L 164.414205 190.592996 
" clip-path="url(#pf2ad31f5ea)" style="fill: none; stroke: #1f77b4; stroke-width: 1.5"/>
    <path d="M 166.082386 231.747273 
L 166.082386 207.639655 
" clip-path="url(#pf2ad31f5ea)" style="fill: none; stroke: #1f77b4; stroke-width: 1.5"/>
    <path d="M 167.750568 231.747273 
L 167.750568 207.639655 
" clip-path="url(#pf2ad31f5ea)" style="fill: none; stroke: #1f77b4; stroke-width: 1.5"/>
    <path d="M 169.41875 224.686315 
L 169.41875 190.592996 
" clip-path="url(#pf2ad31f5ea)" style="fill: none; stroke: #1f77b4; stroke-width: 1.5"/>
    <path d="M 171.086932 207.639655 
L 171.086932 159.424421 
" clip-path="url(#pf2ad31f5ea)" style="fill: none; stroke: #1f77b4; stroke-width: 1.5"/>
    <path d="M 172.755114 216.463655 
L 172.755114 174.708038 
" clip-path="url(#pf2ad31f5ea)" style="fill: none; stroke: #1f77b4; stroke-width: 1.5"/>
    <path d="M 174.423295 231.747273 
L 174.423295 231.747273 
" clip-path="url(#pf2ad31f5ea)" style="fill: none; stroke: #1f77b4; stroke-width: 1.5"/>
    <path d="M 176.091477 188.950102 
L 176.091477 129.898739 
" clip-path="url(#pf2ad31f5ea)" style="fill: none; stroke: #1f77b4; stroke-width: 1.5"/>
    <path d="M 177.759659 216.463655 
L 177.759659 174.708038 
" clip-path="url(#pf2ad31f5ea)" style="fill: none; stroke: #1f77b4; stroke-width: 1.5"/>
    <path d="M 179.427841 224.686315 
L 179.427841 190.592996 
" clip-path="url(#pf2ad31f5ea)" style="fill: none; stroke: #1f77b4; stroke-width: 1.5"/>
    <path d="M 181.096023 207.639655 
L 181.096023 159.424421 
" clip-path="url(#pf2ad31f5ea)" style="fill: none; stroke: #1f77b4; stroke-width: 1.5"/>
    <path d="M 182.764205 198.431365 
L 182.764205 144.525093 
" clip-path="url(#pf2ad31f5ea)" style="fill: none; stroke: #1f77b4; stroke-width: 1.5"/>
    <path d="M 184.432386 216.463655 
L 184.432386 174.708038 
" clip-path="url(#pf2ad31f5ea)" style="fill: none; stroke: #1f77b4; stroke-width: 1.5"/>
    <path d="M 186.100568 179.261991 
L 186.100568 115.479233 
" clip-path="url(#pf2ad31f5ea)" style="fill: none; stroke: #1f77b4; stroke-width: 1.5"/>
    <path d="M 187.76875 207.639655 
L 187.76875 159.424421 
" clip-path="url(#pf2ad31f5ea)" style="fill: none; stroke: #1f77b4; stroke-width: 1.5"/>
    <path d="M 189.436932 198.431365 
L 189.436932 144.525093 
" clip-path="url(#pf2ad31f5ea)" style="fill: none; stroke: #1f77b4; stroke-width: 1.5"/>
    <path d="M 191.105114 216.463655 
L 191.105114 174.708038 
" clip-path="url(#pf2ad31f5ea)" style="fill: none; stroke: #1f77b4; stroke-width: 1.5"/>
    <path d="M 192.773295 231.747273 
L 192.773295 207.639655 
" clip-path="url(#pf2ad31f5ea)" style="fill: none; stroke: #1f77b4; stroke-width: 1.5"/>
    <path d="M 194.441477 231.747273 
L 194.441477 207.639655 
" clip-path="url(#pf2ad31f5ea)" style="fill: none; stroke: #1f77b4; stroke-width: 1.5"/>
    <path d="M 196.109659 179.261991 
L 196.109659 115.479233 
" clip-path="url(#pf2ad31f5ea)" style="fill: none; stroke: #1f77b4; stroke-width: 1.5"/>
    <path d="M 197.777841 179.261991 
L 197.777841 115.479233 
" clip-path="url(#pf2ad31f5ea)" style="fill: none; stroke: #1f77b4; stroke-width: 1.5"/>
    <path d="M 199.446023 216.463655 
L 199.446023 174.708038 
" clip-path="url(#pf2ad31f5ea)" style="fill: none; stroke: #1f77b4; stroke-width: 1.5"/>
    <path d="M 201.114205 224.686315 
L 201.114205 190.592996 
" clip-path="url(#pf2ad31f5ea)" style="fill: none; stroke: #1f77b4; stroke-width: 1.5"/>
    <path d="M 202.782386 231.747273 
L 202.782386 207.639655 
" clip-path="url(#pf2ad31f5ea)" style="fill: none; stroke: #1f77b4; stroke-width: 1.5"/>
    <path d="M 204.450568 216.463655 
L 204.450568 174.708038 
" clip-path="url(#pf2ad31f5ea)" style="fill: none; stroke: #1f77b4; stroke-width: 1.5"/>
    <path d="M 206.11875 198.431365 
L 206.11875 144.525093 
" clip-path="url(#pf2ad31f5ea)" style="fill: none; stroke: #1f77b4; stroke-width: 1.5"/>
    <path d="M 207.786932 224.686315 
L 207.786932 190.592996 
" clip-path="url(#pf2ad31f5ea)" style="fill: none; stroke: #1f77b4; stroke-width: 1.5"/>
    <path d="M 209.455114 224.686315 
L 209.455114 190.592996 
" clip-path="url(#pf2ad31f5ea)" style="fill: none; stroke: #1f77b4; stroke-width: 1.5"/>
    <path d="M 211.123295 216.463655 
L 211.123295 174.708038 
" clip-path="url(#pf2ad31f5ea)" style="fill: none; stroke: #1f77b4; stroke-width: 1.5"/>
    <path d="M 212.791477 179.261991 
L 212.791477 115.479233 
" clip-path="url(#pf2ad31f5ea)" style="fill: none; stroke: #1f77b4; stroke-width: 1.5"/>
    <path d="M 214.459659 224.686315 
L 214.459659 190.592996 
" clip-path="url(#pf2ad31f5ea)" style="fill: none; stroke: #1f77b4; stroke-width: 1.5"/>
    <path d="M 216.127841 216.463655 
L 216.127841 174.708038 
" clip-path="url(#pf2ad31f5ea)" style="fill: none; stroke: #1f77b4; stroke-width: 1.5"/>
    <path d="M 217.796023 231.747273 
L 217.796023 207.639655 
" clip-path="url(#pf2ad31f5ea)" style="fill: none; stroke: #1f77b4; stroke-width: 1.5"/>
    <path d="M 219.464205 207.639655 
L 219.464205 159.424421 
" clip-path="url(#pf2ad31f5ea)" style="fill: none; stroke: #1f77b4; stroke-width: 1.5"/>
    <path d="M 221.132386 224.686315 
L 221.132386 190.592996 
" clip-path="url(#pf2ad31f5ea)" style="fill: none; stroke: #1f77b4; stroke-width: 1.5"/>
    <path d="M 222.800568 224.686315 
L 222.800568 190.592996 
" clip-path="url(#pf2ad31f5ea)" style="fill: none; stroke: #1f77b4; stroke-width: 1.5"/>
    <path d="M 224.46875 188.950102 
L 224.46875 129.898739 
" clip-path="url(#pf2ad31f5ea)" style="fill: none; stroke: #1f77b4; stroke-width: 1.5"/>
    <path d="M 226.136932 198.431365 
L 226.136932 144.525093 
" clip-path="url(#pf2ad31f5ea)" style="fill: none; stroke: #1f77b4; stroke-width: 1.5"/>
    <path d="M 227.805114 216.463655 
L 227.805114 174.708038 
" clip-path="url(#pf2ad31f5ea)" style="fill: none; stroke: #1f77b4; stroke-width: 1.5"/>
    <path d="M 229.473295 224.686315 
L 229.473295 190.592996 
" clip-path="url(#pf2ad31f5ea)" style="fill: none; stroke: #1f77b4; stroke-width: 1.5"/>
    <path d="M 231.141477 198.431365 
L 231.141477 144.525093 
" clip-path="url(#pf2ad31f5ea)" style="fill: none; stroke: #1f77b4; stroke-width: 1.5"/>
    <path d="M 232.809659 198.431365 
L 232.809659 144.525093 
" clip-path="url(#pf2ad31f5ea)" style="fill: none; stroke: #1f77b4; stroke-width: 1.5"/>
    <path d="M 234.477841 207.639655 
L 234.477841 159.424421 
" clip-path="url(#pf2ad31f5ea)" style="fill: none; stroke: #1f77b4; stroke-width: 1.5"/>
    <path d="M 236.146023 231.747273 
L 236.146023 207.639655 
" clip-path="url(#pf2ad31f5ea)" style="fill: none; stroke: #1f77b4; stroke-width: 1.5"/>
    <path d="M 237.814205 207.639655 
L 237.814205 159.424421 
" clip-path="url(#pf2ad31f5ea)" style="fill: none; stroke: #1f77b4; stroke-width: 1.5"/>
    <path d="M 239.482386 207.639655 
L 239.482386 159.424421 
" clip-path="url(#pf2ad31f5ea)" style="fill: none; stroke: #1f77b4; stroke-width: 1.5"/>
    <path d="M 241.150568 231.747273 
L 241.150568 207.639655 
" clip-path="url(#pf2ad31f5ea)" style="fill: none; stroke: #1f77b4; stroke-width: 1.5"/>
    <path d="M 242.81875 179.261991 
L 242.81875 115.479233 
" clip-path="url(#pf2ad31f5ea)" style="fill: none; stroke: #1f77b4; stroke-width: 1.5"/>
    <path d="M 244.486932 216.463655 
L 244.486932 174.708038 
" clip-path="url(#pf2ad31f5ea)" style="fill: none; stroke: #1f77b4; stroke-width: 1.5"/>
    <path d="M 246.155114 216.463655 
L 246.155114 174.708038 
" clip-path="url(#pf2ad31f5ea)" style="fill: none; stroke: #1f77b4; stroke-width: 1.5"/>
    <path d="M 247.823295 159.424421 
L 247.823295 87.101568 
" clip-path="url(#pf2ad31f5ea)" style="fill: none; stroke: #1f77b4; stroke-width: 1.5"/>
    <path d="M 249.491477 216.463655 
L 249.491477 174.708038 
" clip-path="url(#pf2ad31f5ea)" style="fill: none; stroke: #1f77b4; stroke-width: 1.5"/>
    <path d="M 251.159659 207.639655 
L 251.159659 159.424421 
" clip-path="url(#pf2ad31f5ea)" style="fill: none; stroke: #1f77b4; stroke-width: 1.5"/>
    <path d="M 252.827841 188.950102 
L 252.827841 129.898739 
" clip-path="url(#pf2ad31f5ea)" style="fill: none; stroke: #1f77b4; stroke-width: 1.5"/>
    <path d="M 254.496023 224.686315 
L 254.496023 190.592996 
" clip-path="url(#pf2ad31f5ea)" style="fill: none; stroke: #1f77b4; stroke-width: 1.5"/>
    <path d="M 256.164205 198.431365 
L 256.164205 144.525093 
" clip-path="url(#pf2ad31f5ea)" style="fill: none; stroke: #1f77b4; stroke-width: 1.5"/>
    <path d="M 257.832386 216.463655 
L 257.832386 174.708038 
" clip-path="url(#pf2ad31f5ea)" style="fill: none; stroke: #1f77b4; stroke-width: 1.5"/>
    <path d="M 259.500568 198.431365 
L 259.500568 144.525093 
" clip-path="url(#pf2ad31f5ea)" style="fill: none; stroke: #1f77b4; stroke-width: 1.5"/>
    <path d="M 261.16875 216.463655 
L 261.16875 174.708038 
" clip-path="url(#pf2ad31f5ea)" style="fill: none; stroke: #1f77b4; stroke-width: 1.5"/>
    <path d="M 262.836932 224.686315 
L 262.836932 190.592996 
" clip-path="url(#pf2ad31f5ea)" style="fill: none; stroke: #1f77b4; stroke-width: 1.5"/>
    <path d="M 264.505114 207.639655 
L 264.505114 159.424421 
" clip-path="url(#pf2ad31f5ea)" style="fill: none; stroke: #1f77b4; stroke-width: 1.5"/>
    <path d="M 266.173295 216.463655 
L 266.173295 174.708038 
" clip-path="url(#pf2ad31f5ea)" style="fill: none; stroke: #1f77b4; stroke-width: 1.5"/>
    <path d="M 267.841477 198.431365 
L 267.841477 144.525093 
" clip-path="url(#pf2ad31f5ea)" style="fill: none; stroke: #1f77b4; stroke-width: 1.5"/>
    <path d="M 269.509659 224.686315 
L 269.509659 190.592996 
" clip-path="url(#pf2ad31f5ea)" style="fill: none; stroke: #1f77b4; stroke-width: 1.5"/>
    <path d="M 271.177841 179.261991 
L 271.177841 115.479233 
" clip-path="url(#pf2ad31f5ea)" style="fill: none; stroke: #1f77b4; stroke-width: 1.5"/>
    <path d="M 272.846023 216.463655 
L 272.846023 174.708038 
" clip-path="url(#pf2ad31f5ea)" style="fill: none; stroke: #1f77b4; stroke-width: 1.5"/>
    <path d="M 274.514205 179.261991 
L 274.514205 115.479233 
" clip-path="url(#pf2ad31f5ea)" style="fill: none; stroke: #1f77b4; stroke-width: 1.5"/>
    <path d="M 276.182386 207.639655 
L 276.182386 159.424421 
" clip-path="url(#pf2ad31f5ea)" style="fill: none; stroke: #1f77b4; stroke-width: 1.5"/>
    <path d="M 277.850568 108.095175 
L 277.850568 17.892727 
" clip-path="url(#pf2ad31f5ea)" style="fill: none; stroke: #1f77b4; stroke-width: 1.5"/>
    <path d="M 279.51875 179.261991 
L 279.51875 115.479233 
" clip-path="url(#pf2ad31f5ea)" style="fill: none; stroke: #1f77b4; stroke-width: 1.5"/>
    <path d="M 281.186932 198.431365 
L 281.186932 144.525093 
" clip-path="url(#pf2ad31f5ea)" style="fill: none; stroke: #1f77b4; stroke-width: 1.5"/>
    <path d="M 282.855114 149.326676 
L 282.855114 73.091695 
" clip-path="url(#pf2ad31f5ea)" style="fill: none; stroke: #1f77b4; stroke-width: 1.5"/>
    <path d="M 284.523295 198.431365 
L 284.523295 144.525093 
" clip-path="url(#pf2ad31f5ea)" style="fill: none; stroke: #1f77b4; stroke-width: 1.5"/>
    <path d="M 286.191477 179.261991 
L 286.191477 115.479233 
" clip-path="url(#pf2ad31f5ea)" style="fill: none; stroke: #1f77b4; stroke-width: 1.5"/>
    <path d="M 287.859659 188.950102 
L 287.859659 129.898739 
" clip-path="url(#pf2ad31f5ea)" style="fill: none; stroke: #1f77b4; stroke-width: 1.5"/>
    <path d="M 289.527841 198.431365 
L 289.527841 144.525093 
" clip-path="url(#pf2ad31f5ea)" style="fill: none; stroke: #1f77b4; stroke-width: 1.5"/>
    <path d="M 291.196023 224.686315 
L 291.196023 190.592996 
" clip-path="url(#pf2ad31f5ea)" style="fill: none; stroke: #1f77b4; stroke-width: 1.5"/>
    <path d="M 292.864205 207.639655 
L 292.864205 159.424421 
" clip-path="url(#pf2ad31f5ea)" style="fill: none; stroke: #1f77b4; stroke-width: 1.5"/>
    <path d="M 294.532386 231.747273 
L 294.532386 207.639655 
" clip-path="url(#pf2ad31f5ea)" style="fill: none; stroke: #1f77b4; stroke-width: 1.5"/>
    <path d="M 296.200568 216.463655 
L 296.200568 174.708038 
" clip-path="url(#pf2ad31f5ea)" style="fill: none; stroke: #1f77b4; stroke-width: 1.5"/>
    <path d="M 297.86875 188.950102 
L 297.86875 129.898739 
" clip-path="url(#pf2ad31f5ea)" style="fill: none; stroke: #1f77b4; stroke-width: 1.5"/>
    <path d="M 299.536932 216.463655 
L 299.536932 174.708038 
" clip-path="url(#pf2ad31f5ea)" style="fill: none; stroke: #1f77b4; stroke-width: 1.5"/>
    <path d="M 301.205114 231.747273 
L 301.205114 207.639655 
" clip-path="url(#pf2ad31f5ea)" style="fill: none; stroke: #1f77b4; stroke-width: 1.5"/>
    <path d="M 302.873295 207.639655 
L 302.873295 159.424421 
" clip-path="url(#pf2ad31f5ea)" style="fill: none; stroke: #1f77b4; stroke-width: 1.5"/>
    <path d="M 304.541477 231.747273 
L 304.541477 207.639655 
" clip-path="url(#pf2ad31f5ea)" style="fill: none; stroke: #1f77b4; stroke-width: 1.5"/>
    <path d="M 306.209659 207.639655 
L 306.209659 159.424421 
" clip-path="url(#pf2ad31f5ea)" style="fill: none; stroke: #1f77b4; stroke-width: 1.5"/>
    <path d="M 307.877841 198.431365 
L 307.877841 144.525093 
" clip-path="url(#pf2ad31f5ea)" style="fill: none; stroke: #1f77b4; stroke-width: 1.5"/>
    <path d="M 309.546023 179.261991 
L 309.546023 115.479233 
" clip-path="url(#pf2ad31f5ea)" style="fill: none; stroke: #1f77b4; stroke-width: 1.5"/>
    <path d="M 311.214205 207.639655 
L 311.214205 159.424421 
" clip-path="url(#pf2ad31f5ea)" style="fill: none; stroke: #1f77b4; stroke-width: 1.5"/>
    <path d="M 312.882386 207.639655 
L 312.882386 159.424421 
" clip-path="url(#pf2ad31f5ea)" style="fill: none; stroke: #1f77b4; stroke-width: 1.5"/>
    <path d="M 314.550568 224.686315 
L 314.550568 190.592996 
" clip-path="url(#pf2ad31f5ea)" style="fill: none; stroke: #1f77b4; stroke-width: 1.5"/>
    <path d="M 316.21875 198.431365 
L 316.21875 144.525093 
" clip-path="url(#pf2ad31f5ea)" style="fill: none; stroke: #1f77b4; stroke-width: 1.5"/>
    <path d="M 317.886932 169.410122 
L 317.886932 101.223484 
" clip-path="url(#pf2ad31f5ea)" style="fill: none; stroke: #1f77b4; stroke-width: 1.5"/>
    <path d="M 319.555114 207.639655 
L 319.555114 159.424421 
" clip-path="url(#pf2ad31f5ea)" style="fill: none; stroke: #1f77b4; stroke-width: 1.5"/>
    <path d="M 321.223295 207.639655 
L 321.223295 159.424421 
" clip-path="url(#pf2ad31f5ea)" style="fill: none; stroke: #1f77b4; stroke-width: 1.5"/>
    <path d="M 322.891477 216.463655 
L 322.891477 174.708038 
" clip-path="url(#pf2ad31f5ea)" style="fill: none; stroke: #1f77b4; stroke-width: 1.5"/>
    <path d="M 324.559659 231.747273 
L 324.559659 207.639655 
" clip-path="url(#pf2ad31f5ea)" style="fill: none; stroke: #1f77b4; stroke-width: 1.5"/>
    <path d="M 326.227841 224.686315 
L 326.227841 190.592996 
" clip-path="url(#pf2ad31f5ea)" style="fill: none; stroke: #1f77b4; stroke-width: 1.5"/>
    <path d="M 327.896023 198.431365 
L 327.896023 144.525093 
" clip-path="url(#pf2ad31f5ea)" style="fill: none; stroke: #1f77b4; stroke-width: 1.5"/>
    <path d="M 329.564205 231.747273 
L 329.564205 207.639655 
" clip-path="url(#pf2ad31f5ea)" style="fill: none; stroke: #1f77b4; stroke-width: 1.5"/>
    <path d="M 331.232386 224.686315 
L 331.232386 190.592996 
" clip-path="url(#pf2ad31f5ea)" style="fill: none; stroke: #1f77b4; stroke-width: 1.5"/>
    <path d="M 332.900568 207.639655 
L 332.900568 159.424421 
" clip-path="url(#pf2ad31f5ea)" style="fill: none; stroke: #1f77b4; stroke-width: 1.5"/>
    <path d="M 334.56875 216.463655 
L 334.56875 174.708038 
" clip-path="url(#pf2ad31f5ea)" style="fill: none; stroke: #1f77b4; stroke-width: 1.5"/>
    <path d="M 336.236932 224.686315 
L 336.236932 190.592996 
" clip-path="url(#pf2ad31f5ea)" style="fill: none; stroke: #1f77b4; stroke-width: 1.5"/>
    <path d="M 337.905114 216.463655 
L 337.905114 174.708038 
" clip-path="url(#pf2ad31f5ea)" style="fill: none; stroke: #1f77b4; stroke-width: 1.5"/>
    <path d="M 339.573295 231.747273 
L 339.573295 207.639655 
" clip-path="url(#pf2ad31f5ea)" style="fill: none; stroke: #1f77b4; stroke-width: 1.5"/>
    <path d="M 341.241477 224.686315 
L 341.241477 190.592996 
" clip-path="url(#pf2ad31f5ea)" style="fill: none; stroke: #1f77b4; stroke-width: 1.5"/>
    <path d="M 342.909659 207.639655 
L 342.909659 159.424421 
" clip-path="url(#pf2ad31f5ea)" style="fill: none; stroke: #1f77b4; stroke-width: 1.5"/>
    <path d="M 344.577841 231.747273 
L 344.577841 207.639655 
" clip-path="url(#pf2ad31f5ea)" style="fill: none; stroke: #1f77b4; stroke-width: 1.5"/>
    <path d="M 346.246023 207.639655 
L 346.246023 159.424421 
" clip-path="url(#pf2ad31f5ea)" style="fill: none; stroke: #1f77b4; stroke-width: 1.5"/>
    <path d="M 347.914205 188.950102 
L 347.914205 129.898739 
" clip-path="url(#pf2ad31f5ea)" style="fill: none; stroke: #1f77b4; stroke-width: 1.5"/>
    <path d="M 349.582386 198.431365 
L 349.582386 144.525093 
" clip-path="url(#pf2ad31f5ea)" style="fill: none; stroke: #1f77b4; stroke-width: 1.5"/>
    <path d="M 351.250568 231.747273 
L 351.250568 207.639655 
" clip-path="url(#pf2ad31f5ea)" style="fill: none; stroke: #1f77b4; stroke-width: 1.5"/>
    <path d="M 352.91875 207.639655 
L 352.91875 159.424421 
" clip-path="url(#pf2ad31f5ea)" style="fill: none; stroke: #1f77b4; stroke-width: 1.5"/>
    <path d="M 354.586932 207.639655 
L 354.586932 159.424421 
" clip-path="url(#pf2ad31f5ea)" style="fill: none; stroke: #1f77b4; stroke-width: 1.5"/>
    <path d="M 356.255114 216.463655 
L 356.255114 174.708038 
" clip-path="url(#pf2ad31f5ea)" style="fill: none; stroke: #1f77b4; stroke-width: 1.5"/>
    <path d="M 357.923295 224.686315 
L 357.923295 190.592996 
" clip-path="url(#pf2ad31f5ea)" style="fill: none; stroke: #1f77b4; stroke-width: 1.5"/>
    <path d="M 359.591477 224.686315 
L 359.591477 190.592996 
" clip-path="url(#pf2ad31f5ea)" style="fill: none; stroke: #1f77b4; stroke-width: 1.5"/>
    <path d="M 361.259659 216.463655 
L 361.259659 174.708038 
" clip-path="url(#pf2ad31f5ea)" style="fill: none; stroke: #1f77b4; stroke-width: 1.5"/>
    <path d="M 362.927841 216.463655 
L 362.927841 174.708038 
" clip-path="url(#pf2ad31f5ea)" style="fill: none; stroke: #1f77b4; stroke-width: 1.5"/>
    <path d="M 364.596023 216.463655 
L 364.596023 174.708038 
" clip-path="url(#pf2ad31f5ea)" style="fill: none; stroke: #1f77b4; stroke-width: 1.5"/>
    <path d="M 366.264205 216.463655 
L 366.264205 174.708038 
" clip-path="url(#pf2ad31f5ea)" style="fill: none; stroke: #1f77b4; stroke-width: 1.5"/>
    <path d="M 367.932386 198.431365 
L 367.932386 144.525093 
" clip-path="url(#pf2ad31f5ea)" style="fill: none; stroke: #1f77b4; stroke-width: 1.5"/>
    <path d="M 369.600568 207.639655 
L 369.600568 159.424421 
" clip-path="url(#pf2ad31f5ea)" style="fill: none; stroke: #1f77b4; stroke-width: 1.5"/>
    <path d="M 371.26875 198.431365 
L 371.26875 144.525093 
" clip-path="url(#pf2ad31f5ea)" style="fill: none; stroke: #1f77b4; stroke-width: 1.5"/>
    <path d="M 372.936932 198.431365 
L 372.936932 144.525093 
" clip-path="url(#pf2ad31f5ea)" style="fill: none; stroke: #1f77b4; stroke-width: 1.5"/>
    <path d="M 374.605114 188.950102 
L 374.605114 129.898739 
" clip-path="url(#pf2ad31f5ea)" style="fill: none; stroke: #1f77b4; stroke-width: 1.5"/>
    <path d="M 376.273295 216.463655 
L 376.273295 174.708038 
" clip-path="url(#pf2ad31f5ea)" style="fill: none; stroke: #1f77b4; stroke-width: 1.5"/>
    <path d="M 377.941477 179.261991 
L 377.941477 115.479233 
" clip-path="url(#pf2ad31f5ea)" style="fill: none; stroke: #1f77b4; stroke-width: 1.5"/>
    <path d="M 379.609659 207.639655 
L 379.609659 159.424421 
" clip-path="url(#pf2ad31f5ea)" style="fill: none; stroke: #1f77b4; stroke-width: 1.5"/>
    <path d="M 381.277841 231.747273 
L 381.277841 207.639655 
" clip-path="url(#pf2ad31f5ea)" style="fill: none; stroke: #1f77b4; stroke-width: 1.5"/>
    <path d="M 382.946023 216.463655 
L 382.946023 174.708038 
" clip-path="url(#pf2ad31f5ea)" style="fill: none; stroke: #1f77b4; stroke-width: 1.5"/>
    <path d="M 384.614205 231.747273 
L 384.614205 231.747273 
" clip-path="url(#pf2ad31f5ea)" style="fill: none; stroke: #1f77b4; stroke-width: 1.5"/>
    <path d="M 386.282386 216.463655 
L 386.282386 174.708038 
" clip-path="url(#pf2ad31f5ea)" style="fill: none; stroke: #1f77b4; stroke-width: 1.5"/>
    <path d="M 387.950568 207.639655 
L 387.950568 159.424421 
" clip-path="url(#pf2ad31f5ea)" style="fill: none; stroke: #1f77b4; stroke-width: 1.5"/>
    <path d="M 389.61875 231.747273 
L 389.61875 231.747273 
" clip-path="url(#pf2ad31f5ea)" style="fill: none; stroke: #1f77b4; stroke-width: 1.5"/>
    <path d="M 391.286932 231.747273 
L 391.286932 207.639655 
" clip-path="url(#pf2ad31f5ea)" style="fill: none; stroke: #1f77b4; stroke-width: 1.5"/>
    <path d="M 392.955114 207.639655 
L 392.955114 159.424421 
" clip-path="url(#pf2ad31f5ea)" style="fill: none; stroke: #1f77b4; stroke-width: 1.5"/>
    <path d="M 394.623295 179.261991 
L 394.623295 115.479233 
" clip-path="url(#pf2ad31f5ea)" style="fill: none; stroke: #1f77b4; stroke-width: 1.5"/>
    <path d="M 396.291477 216.463655 
L 396.291477 174.708038 
" clip-path="url(#pf2ad31f5ea)" style="fill: none; stroke: #1f77b4; stroke-width: 1.5"/>
    <path d="M 397.959659 216.463655 
L 397.959659 174.708038 
" clip-path="url(#pf2ad31f5ea)" style="fill: none; stroke: #1f77b4; stroke-width: 1.5"/>
    <path d="M 399.627841 216.463655 
L 399.627841 174.708038 
" clip-path="url(#pf2ad31f5ea)" style="fill: none; stroke: #1f77b4; stroke-width: 1.5"/>
   </g>
  </g>
 </g>
 <defs>
  <clipPath id="pf2ad31f5ea">
   <rect x="50.14375" y="7.2" width="367" height="235.24"/>
  </clipPath>
 </defs>
</svg>
