<?xml version="1.0" encoding="utf-8" standalone="no"?>
<!DOCTYPE svg PUBLIC "-//W3C//DTD SVG 1.1//EN"
  "http://www.w3.org/Graphics/SVG/1.1/DTD/svg11.dtd">
<svg xmlns:xlink="http://www.w3.org/1999/xlink" width="392.14375pt" height="266.51625pt" viewBox="0 0 392.14375 266.51625" xmlns="http://www.w3.org/2000/svg" version="1.1">
 <metadata>
  <rdf:RDF xmlns:dc="http://purl.org/dc/elements/1.1/" xmlns:cc="http://creativecommons.org/ns#" xmlns:rdf="http://www.w3.org/1999/02/22-rdf-syntax-ns#">
   <cc:Work>
    <dc:type rdf:resource="http://purl.org/dc/dcmitype/StillImage"/>
    <dc:date>2025-12-02T06:59:19.058670</dc:date>
    <dc:format>image/svg+xml</dc:format>
    <dc:creator>
     <cc:Agent>
      <dc:title>Matplotlib v3.9.4, https://matplotlib.org/</dc:title>
     </cc:Agent>
    </dc:creator>
   </cc:Work>
  </rdf:RDF>
 </metadata>
 <defs>
  <style type="text/css">*{stroke-linejoin: round; stroke-linecap: butt}</style>
 </defs>
 <g id="figure_1">
  <g id="patch_1">
   <path d="M 0 266.51625 
L 392.14375 266.51625 
L 392.14375 0 
L 0 0 
z
" style="fill: #ffffff"/>
  </g>
  <g id="axes_1">
   <g id="patch_2">
    <path d="M 50.14375 228.96 
L 384.94375 228.96 
L 384.94375 7.2 
L 50.14375 7.2 
z
" style="fill: #ffffff"/>
   </g>
   <g id="matplotlib.axis_1">
    <g id="xtick_1">
     <g id="line2d_1">
      <defs>
       <path id="m14ef9f528a" d="M 0 0 
L 0 3.5 
" style="stroke: #000000; stroke-width: 0.8"/>
      </defs>
      <g>
       <use xlink:href="#m14ef9f528a" x="65.361932" y="228.96" style="stroke: #000000; stroke-width: 0.8"/>
      </g>
     </g>
     <g id="text_1">
      <!-- 2000 -->
      <g transform="translate(52.636932 243.558437) scale(0.1 -0.1)">
       <defs>
        <path id="DejaVuSans-32" d="M 1228 531 
L 3431 531 
L 3431 0 
L 469 0 
L 469 531 
Q 828 903 1448 1529 
Q 2069 2156 2228 2338 
Q 2531 2678 2651 2914 
Q 2772 3150 2772 3378 
Q 2772 3750 2511 3984 
Q 2250 4219 1831 4219 
Q 1534 4219 1204 4116 
Q 875 4013 500 3803 
L 500 4441 
Q 881 4594 1212 4672 
Q 1544 4750 1819 4750 
Q 2544 4750 2975 4387 
Q 3406 4025 3406 3419 
Q 3406 3131 3298 2873 
Q 3191 2616 2906 2266 
Q 2828 2175 2409 1742 
Q 1991 1309 1228 531 
z
" transform="scale(0.015625)"/>
        <path id="DejaVuSans-30" d="M 2034 4250 
Q 1547 4250 1301 3770 
Q 1056 3291 1056 2328 
Q 1056 1369 1301 889 
Q 1547 409 2034 409 
Q 2525 409 2770 889 
Q 3016 1369 3016 2328 
Q 3016 3291 2770 3770 
Q 2525 4250 2034 4250 
z
M 2034 4750 
Q 2819 4750 3233 4129 
Q 3647 3509 3647 2328 
Q 3647 1150 3233 529 
Q 2819 -91 2034 -91 
Q 1250 -91 836 529 
Q 422 1150 422 2328 
Q 422 3509 836 4129 
Q 1250 4750 2034 4750 
z
" transform="scale(0.015625)"/>
       </defs>
       <use xlink:href="#DejaVuSans-32"/>
       <use xlink:href="#DejaVuSans-30" x="63.623047"/>
       <use xlink:href="#DejaVuSans-30" x="127.246094"/>
       <use xlink:href="#DejaVuSans-30" x="190.869141"/>
      </g>
     </g>
    </g>
    <g id="xtick_2">
     <g id="line2d_2">
      <g>
       <use xlink:href="#m14ef9f528a" x="112.187107" y="228.96" style="stroke: #000000; stroke-width: 0.8"/>
      </g>
     </g>
     <g id="text_2">
      <!-- 4000 -->
      <g transform="translate(99.462107 243.558437) scale(0.1 -0.1)">
       <defs>
        <path id="DejaVuSans-34" d="M 2419 4116 
L 825 1625 
L 2419 1625 
L 2419 4116 
z
M 2253 4666 
L 3047 4666 
L 3047 1625 
L 3713 1625 
L 3713 1100 
L 3047 1100 
L 3047 0 
L 2419 0 
L 2419 1100 
L 313 1100 
L 313 1709 
L 2253 4666 
z
" transform="scale(0.015625)"/>
       </defs>
       <use xlink:href="#DejaVuSans-34"/>
       <use xlink:href="#DejaVuSans-30" x="63.623047"/>
       <use xlink:href="#DejaVuSans-30" x="127.246094"/>
       <use xlink:href="#DejaVuSans-30" x="190.869141"/>
      </g>
     </g>
    </g>
    <g id="xtick_3">
     <g id="line2d_3">
      <g>
       <use xlink:href="#m14ef9f528a" x="159.012281" y="228.96" style="stroke: #000000; stroke-width: 0.8"/>
      </g>
     </g>
     <g id="text_3">
      <!-- 6000 -->
      <g transform="translate(146.287281 243.558437) scale(0.1 -0.1)">
       <defs>
        <path id="DejaVuSans-36" d="M 2113 2584 
Q 1688 2584 1439 2293 
Q 1191 2003 1191 1497 
Q 1191 994 1439 701 
Q 1688 409 2113 409 
Q 2538 409 2786 701 
Q 3034 994 3034 1497 
Q 3034 2003 2786 2293 
Q 2538 2584 2113 2584 
z
M 3366 4563 
L 3366 3988 
Q 3128 4100 2886 4159 
Q 2644 4219 2406 4219 
Q 1781 4219 1451 3797 
Q 1122 3375 1075 2522 
Q 1259 2794 1537 2939 
Q 1816 3084 2150 3084 
Q 2853 3084 3261 2657 
Q 3669 2231 3669 1497 
Q 3669 778 3244 343 
Q 2819 -91 2113 -91 
Q 1303 -91 875 529 
Q 447 1150 447 2328 
Q 447 3434 972 4092 
Q 1497 4750 2381 4750 
Q 2619 4750 2861 4703 
Q 3103 4656 3366 4563 
z
" transform="scale(0.015625)"/>
       </defs>
       <use xlink:href="#DejaVuSans-36"/>
       <use xlink:href="#DejaVuSans-30" x="63.623047"/>
       <use xlink:href="#DejaVuSans-30" x="127.246094"/>
       <use xlink:href="#DejaVuSans-30" x="190.869141"/>
      </g>
     </g>
    </g>
    <g id="xtick_4">
     <g id="line2d_4">
      <g>
       <use xlink:href="#m14ef9f528a" x="205.837456" y="228.96" style="stroke: #000000; stroke-width: 0.8"/>
      </g>
     </g>
     <g id="text_4">
      <!-- 8000 -->
      <g transform="translate(193.112456 243.558437) scale(0.1 -0.1)">
       <defs>
        <path id="DejaVuSans-38" d="M 2034 2216 
Q 1584 2216 1326 1975 
Q 1069 1734 1069 1313 
Q 1069 891 1326 650 
Q 1584 409 2034 409 
Q 2484 409 2743 651 
Q 3003 894 3003 1313 
Q 3003 1734 2745 1975 
Q 2488 2216 2034 2216 
z
M 1403 2484 
Q 997 2584 770 2862 
Q 544 3141 544 3541 
Q 544 4100 942 4425 
Q 1341 4750 2034 4750 
Q 2731 4750 3128 4425 
Q 3525 4100 3525 3541 
Q 3525 3141 3298 2862 
Q 3072 2584 2669 2484 
Q 3125 2378 3379 2068 
Q 3634 1759 3634 1313 
Q 3634 634 3220 271 
Q 2806 -91 2034 -91 
Q 1263 -91 848 271 
Q 434 634 434 1313 
Q 434 1759 690 2068 
Q 947 2378 1403 2484 
z
M 1172 3481 
Q 1172 3119 1398 2916 
Q 1625 2713 2034 2713 
Q 2441 2713 2670 2916 
Q 2900 3119 2900 3481 
Q 2900 3844 2670 4047 
Q 2441 4250 2034 4250 
Q 1625 4250 1398 4047 
Q 1172 3844 1172 3481 
z
" transform="scale(0.015625)"/>
       </defs>
       <use xlink:href="#DejaVuSans-38"/>
       <use xlink:href="#DejaVuSans-30" x="63.623047"/>
       <use xlink:href="#DejaVuSans-30" x="127.246094"/>
       <use xlink:href="#DejaVuSans-30" x="190.869141"/>
      </g>
     </g>
    </g>
    <g id="xtick_5">
     <g id="line2d_5">
      <g>
       <use xlink:href="#m14ef9f528a" x="252.662631" y="228.96" style="stroke: #000000; stroke-width: 0.8"/>
      </g>
     </g>
     <g id="text_5">
      <!-- 10000 -->
      <g transform="translate(236.756381 243.558437) scale(0.1 -0.1)">
       <defs>
        <path id="DejaVuSans-31" d="M 794 531 
L 1825 531 
L 1825 4091 
L 703 3866 
L 703 4441 
L 1819 4666 
L 2450 4666 
L 2450 531 
L 3481 531 
L 3481 0 
L 794 0 
L 794 531 
z
" transform="scale(0.015625)"/>
       </defs>
       <use xlink:href="#DejaVuSans-31"/>
       <use xlink:href="#DejaVuSans-30" x="63.623047"/>
       <use xlink:href="#DejaVuSans-30" x="127.246094"/>
       <use xlink:href="#DejaVuSans-30" x="190.869141"/>
       <use xlink:href="#DejaVuSans-30" x="254.492188"/>
      </g>
     </g>
    </g>
    <g id="xtick_6">
     <g id="line2d_6">
      <g>
       <use xlink:href="#m14ef9f528a" x="299.487806" y="228.96" style="stroke: #000000; stroke-width: 0.8"/>
      </g>
     </g>
     <g id="text_6">
      <!-- 12000 -->
      <g transform="translate(283.581556 243.558437) scale(0.1 -0.1)">
       <use xlink:href="#DejaVuSans-31"/>
       <use xlink:href="#DejaVuSans-32" x="63.623047"/>
       <use xlink:href="#DejaVuSans-30" x="127.246094"/>
       <use xlink:href="#DejaVuSans-30" x="190.869141"/>
       <use xlink:href="#DejaVuSans-30" x="254.492188"/>
      </g>
     </g>
    </g>
    <g id="xtick_7">
     <g id="line2d_7">
      <g>
       <use xlink:href="#m14ef9f528a" x="346.312981" y="228.96" style="stroke: #000000; stroke-width: 0.8"/>
      </g>
     </g>
     <g id="text_7">
      <!-- 14000 -->
      <g transform="translate(330.406731 243.558437) scale(0.1 -0.1)">
       <use xlink:href="#DejaVuSans-31"/>
       <use xlink:href="#DejaVuSans-34" x="63.623047"/>
       <use xlink:href="#DejaVuSans-30" x="127.246094"/>
       <use xlink:href="#DejaVuSans-30" x="190.869141"/>
       <use xlink:href="#DejaVuSans-30" x="254.492188"/>
      </g>
     </g>
    </g>
    <g id="text_8">
     <!-- tof [µs] -->
     <g transform="translate(199.4875 257.236562) scale(0.1 -0.1)">
      <defs>
       <path id="DejaVuSans-74" d="M 1172 4494 
L 1172 3500 
L 2356 3500 
L 2356 3053 
L 1172 3053 
L 1172 1153 
Q 1172 725 1289 603 
Q 1406 481 1766 481 
L 2356 481 
L 2356 0 
L 1766 0 
Q 1100 0 847 248 
Q 594 497 594 1153 
L 594 3053 
L 172 3053 
L 172 3500 
L 594 3500 
L 594 4494 
L 1172 4494 
z
" transform="scale(0.015625)"/>
       <path id="DejaVuSans-6f" d="M 1959 3097 
Q 1497 3097 1228 2736 
Q 959 2375 959 1747 
Q 959 1119 1226 758 
Q 1494 397 1959 397 
Q 2419 397 2687 759 
Q 2956 1122 2956 1747 
Q 2956 2369 2687 2733 
Q 2419 3097 1959 3097 
z
M 1959 3584 
Q 2709 3584 3137 3096 
Q 3566 2609 3566 1747 
Q 3566 888 3137 398 
Q 2709 -91 1959 -91 
Q 1206 -91 779 398 
Q 353 888 353 1747 
Q 353 2609 779 3096 
Q 1206 3584 1959 3584 
z
" transform="scale(0.015625)"/>
       <path id="DejaVuSans-66" d="M 2375 4863 
L 2375 4384 
L 1825 4384 
Q 1516 4384 1395 4259 
Q 1275 4134 1275 3809 
L 1275 3500 
L 2222 3500 
L 2222 3053 
L 1275 3053 
L 1275 0 
L 697 0 
L 697 3053 
L 147 3053 
L 147 3500 
L 697 3500 
L 697 3744 
Q 697 4328 969 4595 
Q 1241 4863 1831 4863 
L 2375 4863 
z
" transform="scale(0.015625)"/>
       <path id="DejaVuSans-20" transform="scale(0.015625)"/>
       <path id="DejaVuSans-5b" d="M 550 4863 
L 1875 4863 
L 1875 4416 
L 1125 4416 
L 1125 -397 
L 1875 -397 
L 1875 -844 
L 550 -844 
L 550 4863 
z
" transform="scale(0.015625)"/>
       <path id="DejaVuSans-b5" d="M 544 -1331 
L 544 3500 
L 1119 3500 
L 1119 1325 
Q 1119 872 1334 640 
Q 1550 409 1972 409 
Q 2434 409 2667 671 
Q 2900 934 2900 1459 
L 2900 3500 
L 3475 3500 
L 3475 806 
Q 3475 619 3529 530 
Q 3584 441 3700 441 
Q 3728 441 3778 458 
Q 3828 475 3916 513 
L 3916 50 
Q 3788 -22 3673 -56 
Q 3559 -91 3450 -91 
Q 3234 -91 3106 31 
Q 2978 153 2931 403 
Q 2775 156 2548 32 
Q 2322 -91 2016 -91 
Q 1697 -91 1473 31 
Q 1250 153 1119 397 
L 1119 -1331 
L 544 -1331 
z
" transform="scale(0.015625)"/>
       <path id="DejaVuSans-73" d="M 2834 3397 
L 2834 2853 
Q 2591 2978 2328 3040 
Q 2066 3103 1784 3103 
Q 1356 3103 1142 2972 
Q 928 2841 928 2578 
Q 928 2378 1081 2264 
Q 1234 2150 1697 2047 
L 1894 2003 
Q 2506 1872 2764 1633 
Q 3022 1394 3022 966 
Q 3022 478 2636 193 
Q 2250 -91 1575 -91 
Q 1294 -91 989 -36 
Q 684 19 347 128 
L 347 722 
Q 666 556 975 473 
Q 1284 391 1588 391 
Q 1994 391 2212 530 
Q 2431 669 2431 922 
Q 2431 1156 2273 1281 
Q 2116 1406 1581 1522 
L 1381 1569 
Q 847 1681 609 1914 
Q 372 2147 372 2553 
Q 372 3047 722 3315 
Q 1072 3584 1716 3584 
Q 2034 3584 2315 3537 
Q 2597 3491 2834 3397 
z
" transform="scale(0.015625)"/>
       <path id="DejaVuSans-5d" d="M 1947 4863 
L 1947 -844 
L 622 -844 
L 622 -397 
L 1369 -397 
L 1369 4416 
L 622 4416 
L 622 4863 
L 1947 4863 
z
" transform="scale(0.015625)"/>
      </defs>
      <use xlink:href="#DejaVuSans-74"/>
      <use xlink:href="#DejaVuSans-6f" x="39.208984"/>
      <use xlink:href="#DejaVuSans-66" x="100.390625"/>
      <use xlink:href="#DejaVuSans-20" x="135.595703"/>
      <use xlink:href="#DejaVuSans-5b" x="167.382812"/>
      <use xlink:href="#DejaVuSans-b5" x="206.396484"/>
      <use xlink:href="#DejaVuSans-73" x="270.019531"/>
      <use xlink:href="#DejaVuSans-5d" x="322.119141"/>
     </g>
    </g>
   </g>
   <g id="matplotlib.axis_2">
    <g id="ytick_1">
     <g id="line2d_8">
      <defs>
       <path id="m6ae207e9f1" d="M 0 0 
L -3.5 0 
" style="stroke: #000000; stroke-width: 0.8"/>
      </defs>
      <g>
       <use xlink:href="#m6ae207e9f1" x="50.14375" y="218.88" style="stroke: #000000; stroke-width: 0.8"/>
      </g>
     </g>
     <g id="text_9">
      <!-- 0.0 -->
      <g transform="translate(27.240625 222.679219) scale(0.1 -0.1)">
       <defs>
        <path id="DejaVuSans-2e" d="M 684 794 
L 1344 794 
L 1344 0 
L 684 0 
L 684 794 
z
" transform="scale(0.015625)"/>
       </defs>
       <use xlink:href="#DejaVuSans-30"/>
       <use xlink:href="#DejaVuSans-2e" x="63.623047"/>
       <use xlink:href="#DejaVuSans-30" x="95.410156"/>
      </g>
     </g>
    </g>
    <g id="ytick_2">
     <g id="line2d_9">
      <g>
       <use xlink:href="#m6ae207e9f1" x="50.14375" y="190.472282" style="stroke: #000000; stroke-width: 0.8"/>
      </g>
     </g>
     <g id="text_10">
      <!-- 2.5 -->
      <g transform="translate(27.240625 194.271501) scale(0.1 -0.1)">
       <defs>
        <path id="DejaVuSans-35" d="M 691 4666 
L 3169 4666 
L 3169 4134 
L 1269 4134 
L 1269 2991 
Q 1406 3038 1543 3061 
Q 1681 3084 1819 3084 
Q 2600 3084 3056 2656 
Q 3513 2228 3513 1497 
Q 3513 744 3044 326 
Q 2575 -91 1722 -91 
Q 1428 -91 1123 -41 
Q 819 9 494 109 
L 494 744 
Q 775 591 1075 516 
Q 1375 441 1709 441 
Q 2250 441 2565 725 
Q 2881 1009 2881 1497 
Q 2881 1984 2565 2268 
Q 2250 2553 1709 2553 
Q 1456 2553 1204 2497 
Q 953 2441 691 2322 
L 691 4666 
z
" transform="scale(0.015625)"/>
       </defs>
       <use xlink:href="#DejaVuSans-32"/>
       <use xlink:href="#DejaVuSans-2e" x="63.623047"/>
       <use xlink:href="#DejaVuSans-35" x="95.410156"/>
      </g>
     </g>
    </g>
    <g id="ytick_3">
     <g id="line2d_10">
      <g>
       <use xlink:href="#m6ae207e9f1" x="50.14375" y="162.064564" style="stroke: #000000; stroke-width: 0.8"/>
      </g>
     </g>
     <g id="text_11">
      <!-- 5.0 -->
      <g transform="translate(27.240625 165.863783) scale(0.1 -0.1)">
       <use xlink:href="#DejaVuSans-35"/>
       <use xlink:href="#DejaVuSans-2e" x="63.623047"/>
       <use xlink:href="#DejaVuSans-30" x="95.410156"/>
      </g>
     </g>
    </g>
    <g id="ytick_4">
     <g id="line2d_11">
      <g>
       <use xlink:href="#m6ae207e9f1" x="50.14375" y="133.656846" style="stroke: #000000; stroke-width: 0.8"/>
      </g>
     </g>
     <g id="text_12">
      <!-- 7.5 -->
      <g transform="translate(27.240625 137.456065) scale(0.1 -0.1)">
       <defs>
        <path id="DejaVuSans-37" d="M 525 4666 
L 3525 4666 
L 3525 4397 
L 1831 0 
L 1172 0 
L 2766 4134 
L 525 4134 
L 525 4666 
z
" transform="scale(0.015625)"/>
       </defs>
       <use xlink:href="#DejaVuSans-37"/>
       <use xlink:href="#DejaVuSans-2e" x="63.623047"/>
       <use xlink:href="#DejaVuSans-35" x="95.410156"/>
      </g>
     </g>
    </g>
    <g id="ytick_5">
     <g id="line2d_12">
      <g>
       <use xlink:href="#m6ae207e9f1" x="50.14375" y="105.249128" style="stroke: #000000; stroke-width: 0.8"/>
      </g>
     </g>
     <g id="text_13">
      <!-- 10.0 -->
      <g transform="translate(20.878125 109.048347) scale(0.1 -0.1)">
       <use xlink:href="#DejaVuSans-31"/>
       <use xlink:href="#DejaVuSans-30" x="63.623047"/>
       <use xlink:href="#DejaVuSans-2e" x="127.246094"/>
       <use xlink:href="#DejaVuSans-30" x="159.033203"/>
      </g>
     </g>
    </g>
    <g id="ytick_6">
     <g id="line2d_13">
      <g>
       <use xlink:href="#m6ae207e9f1" x="50.14375" y="76.84141" style="stroke: #000000; stroke-width: 0.8"/>
      </g>
     </g>
     <g id="text_14">
      <!-- 12.5 -->
      <g transform="translate(20.878125 80.640629) scale(0.1 -0.1)">
       <use xlink:href="#DejaVuSans-31"/>
       <use xlink:href="#DejaVuSans-32" x="63.623047"/>
       <use xlink:href="#DejaVuSans-2e" x="127.246094"/>
       <use xlink:href="#DejaVuSans-35" x="159.033203"/>
      </g>
     </g>
    </g>
    <g id="ytick_7">
     <g id="line2d_14">
      <g>
       <use xlink:href="#m6ae207e9f1" x="50.14375" y="48.433692" style="stroke: #000000; stroke-width: 0.8"/>
      </g>
     </g>
     <g id="text_15">
      <!-- 15.0 -->
      <g transform="translate(20.878125 52.232911) scale(0.1 -0.1)">
       <use xlink:href="#DejaVuSans-31"/>
       <use xlink:href="#DejaVuSans-35" x="63.623047"/>
       <use xlink:href="#DejaVuSans-2e" x="127.246094"/>
       <use xlink:href="#DejaVuSans-30" x="159.033203"/>
      </g>
     </g>
    </g>
    <g id="ytick_8">
     <g id="line2d_15">
      <g>
       <use xlink:href="#m6ae207e9f1" x="50.14375" y="20.025975" style="stroke: #000000; stroke-width: 0.8"/>
      </g>
     </g>
     <g id="text_16">
      <!-- 17.5 -->
      <g transform="translate(20.878125 23.825193) scale(0.1 -0.1)">
       <use xlink:href="#DejaVuSans-31"/>
       <use xlink:href="#DejaVuSans-37" x="63.623047"/>
       <use xlink:href="#DejaVuSans-2e" x="127.246094"/>
       <use xlink:href="#DejaVuSans-35" x="159.033203"/>
      </g>
     </g>
    </g>
    <g id="text_17">
     <!-- [counts] -->
     <g transform="translate(14.798438 138.6925) rotate(-90) scale(0.1 -0.1)">
      <defs>
       <path id="DejaVuSans-63" d="M 3122 3366 
L 3122 2828 
Q 2878 2963 2633 3030 
Q 2388 3097 2138 3097 
Q 1578 3097 1268 2742 
Q 959 2388 959 1747 
Q 959 1106 1268 751 
Q 1578 397 2138 397 
Q 2388 397 2633 464 
Q 2878 531 3122 666 
L 3122 134 
Q 2881 22 2623 -34 
Q 2366 -91 2075 -91 
Q 1284 -91 818 406 
Q 353 903 353 1747 
Q 353 2603 823 3093 
Q 1294 3584 2113 3584 
Q 2378 3584 2631 3529 
Q 2884 3475 3122 3366 
z
" transform="scale(0.015625)"/>
       <path id="DejaVuSans-75" d="M 544 1381 
L 544 3500 
L 1119 3500 
L 1119 1403 
Q 1119 906 1312 657 
Q 1506 409 1894 409 
Q 2359 409 2629 706 
Q 2900 1003 2900 1516 
L 2900 3500 
L 3475 3500 
L 3475 0 
L 2900 0 
L 2900 538 
Q 2691 219 2414 64 
Q 2138 -91 1772 -91 
Q 1169 -91 856 284 
Q 544 659 544 1381 
z
M 1991 3584 
L 1991 3584 
z
" transform="scale(0.015625)"/>
       <path id="DejaVuSans-6e" d="M 3513 2113 
L 3513 0 
L 2938 0 
L 2938 2094 
Q 2938 2591 2744 2837 
Q 2550 3084 2163 3084 
Q 1697 3084 1428 2787 
Q 1159 2491 1159 1978 
L 1159 0 
L 581 0 
L 581 3500 
L 1159 3500 
L 1159 2956 
Q 1366 3272 1645 3428 
Q 1925 3584 2291 3584 
Q 2894 3584 3203 3211 
Q 3513 2838 3513 2113 
z
" transform="scale(0.015625)"/>
      </defs>
      <use xlink:href="#DejaVuSans-5b"/>
      <use xlink:href="#DejaVuSans-63" x="39.013672"/>
      <use xlink:href="#DejaVuSans-6f" x="93.994141"/>
      <use xlink:href="#DejaVuSans-75" x="155.175781"/>
      <use xlink:href="#DejaVuSans-6e" x="218.554688"/>
      <use xlink:href="#DejaVuSans-74" x="281.933594"/>
      <use xlink:href="#DejaVuSans-73" x="321.142578"/>
      <use xlink:href="#DejaVuSans-5d" x="373.242188"/>
     </g>
    </g>
   </g>
   <g id="line2d_16">
    <path d="M 65.361932 196.153826 
L 66.88375 196.153826 
L 66.88375 218.88 
L 71.449205 218.88 
L 71.449205 196.153826 
L 72.971023 196.153826 
L 72.971023 207.516913 
L 74.492841 207.516913 
L 74.492841 196.153826 
L 76.014659 196.153826 
L 76.014659 218.88 
L 77.536477 218.88 
L 77.536477 207.516913 
L 80.580114 207.516913 
L 80.580114 184.790738 
L 82.101932 184.790738 
L 82.101932 196.153826 
L 83.62375 196.153826 
L 83.62375 207.516913 
L 85.145568 207.516913 
L 85.145568 184.790738 
L 86.667386 184.790738 
L 86.667386 207.516913 
L 88.189205 207.516913 
L 88.189205 196.153826 
L 91.232841 196.153826 
L 91.232841 173.427651 
L 92.754659 173.427651 
L 92.754659 207.516913 
L 95.798295 207.516913 
L 95.798295 162.064564 
L 97.320114 162.064564 
L 97.320114 207.516913 
L 98.841932 207.516913 
L 98.841932 218.88 
L 100.36375 218.88 
L 100.36375 196.153826 
L 101.885568 196.153826 
L 101.885568 218.88 
L 103.407386 218.88 
L 103.407386 196.153826 
L 104.929205 196.153826 
L 104.929205 218.88 
L 106.451023 218.88 
L 106.451023 173.427651 
L 107.972841 173.427651 
L 107.972841 150.701477 
L 109.494659 150.701477 
L 109.494659 218.88 
L 111.016477 218.88 
L 111.016477 150.950233 
L 112.538295 150.950233 
L 112.538295 140.533579 
L 114.060114 140.533579 
L 114.060114 123.752333 
L 115.581932 123.752333 
L 115.581932 140.660736 
L 117.10375 140.660736 
L 117.10375 132.037764 
L 118.625568 132.037764 
L 118.625568 218.88 
L 121.669205 218.88 
L 121.669205 188.710297 
L 123.191023 188.710297 
L 123.191023 162.106323 
L 124.712841 162.106323 
L 124.712841 151.380802 
L 126.234659 151.380802 
L 126.234659 206.085961 
L 127.756477 206.085961 
L 127.756477 206.549523 
L 129.278295 206.549523 
L 129.278295 194.654939 
L 130.800114 194.654939 
L 130.800114 207.006447 
L 132.321932 207.006447 
L 132.321932 160.23757 
L 133.84375 160.23757 
L 133.84375 160.614377 
L 135.365568 160.614377 
L 135.365568 196.153826 
L 136.887386 196.153826 
L 136.887386 184.790738 
L 138.409205 184.790738 
L 138.409205 150.701477 
L 139.931023 150.701477 
L 139.931023 162.064564 
L 142.974659 162.064564 
L 142.974659 196.153826 
L 144.496477 196.153826 
L 144.496477 184.790738 
L 146.018295 184.790738 
L 146.018295 196.153826 
L 147.540114 196.153826 
L 147.540114 207.516913 
L 149.061932 207.516913 
L 149.061932 196.153826 
L 150.58375 196.153826 
L 150.58375 184.790738 
L 152.105568 184.790738 
L 152.105568 173.427651 
L 153.627386 173.427651 
L 153.627386 196.153826 
L 155.149205 196.153826 
L 155.149205 207.516913 
L 158.192841 207.516913 
L 158.192841 196.153826 
L 159.714659 196.153826 
L 159.714659 173.427651 
L 161.236477 173.427651 
L 161.236477 184.790738 
L 162.758295 184.790738 
L 162.758295 218.88 
L 164.280114 218.88 
L 164.280114 150.701477 
L 165.801932 150.701477 
L 165.801932 184.790738 
L 167.32375 184.790738 
L 167.32375 196.153826 
L 168.845568 196.153826 
L 168.845568 173.427651 
L 170.367386 173.427651 
L 170.367386 162.064564 
L 171.889205 162.064564 
L 171.889205 184.790738 
L 173.411023 184.790738 
L 173.411023 139.33839 
L 174.932841 139.33839 
L 174.932841 173.427651 
L 176.454659 173.427651 
L 176.454659 162.064564 
L 177.976477 162.064564 
L 177.976477 184.790738 
L 179.498295 184.790738 
L 179.498295 207.516913 
L 182.541932 207.516913 
L 182.541932 139.33839 
L 185.585568 139.33839 
L 185.585568 184.790738 
L 187.107386 184.790738 
L 187.107386 196.153826 
L 188.629205 196.153826 
L 188.629205 207.516913 
L 190.151023 207.516913 
L 190.151023 184.790738 
L 191.672841 184.790738 
L 191.672841 162.064564 
L 193.194659 162.064564 
L 193.194659 196.153826 
L 196.238295 196.153826 
L 196.238295 184.790738 
L 197.760114 184.790738 
L 197.760114 139.33839 
L 199.281932 139.33839 
L 199.281932 196.153826 
L 200.80375 196.153826 
L 200.80375 184.790738 
L 202.325568 184.790738 
L 202.325568 207.516913 
L 203.847386 207.516913 
L 203.847386 173.427651 
L 205.369205 173.427651 
L 205.369205 196.153826 
L 208.412841 196.153826 
L 208.412841 150.701477 
L 209.934659 150.701477 
L 209.934659 162.064564 
L 211.456477 162.064564 
L 211.456477 184.790738 
L 212.978295 184.790738 
L 212.978295 196.153826 
L 214.500114 196.153826 
L 214.500114 162.064564 
L 217.54375 162.064564 
L 217.54375 173.427651 
L 219.065568 173.427651 
L 219.065568 207.516913 
L 220.587386 207.516913 
L 220.587386 173.427651 
L 223.631023 173.427651 
L 223.631023 207.516913 
L 225.152841 207.516913 
L 225.152841 139.33839 
L 226.674659 139.33839 
L 226.674659 184.790738 
L 229.718295 184.790738 
L 229.718295 116.612215 
L 231.240114 116.612215 
L 231.240114 184.790738 
L 232.761932 184.790738 
L 232.761932 173.427651 
L 234.28375 173.427651 
L 234.28375 150.701477 
L 235.805568 150.701477 
L 235.805568 196.153826 
L 237.327386 196.153826 
L 237.327386 162.064564 
L 238.849205 162.064564 
L 238.849205 184.790738 
L 240.371023 184.790738 
L 240.371023 162.064564 
L 241.892841 162.064564 
L 241.892841 184.790738 
L 243.414659 184.790738 
L 243.414659 196.153826 
L 244.936477 196.153826 
L 244.936477 173.427651 
L 246.458295 173.427651 
L 246.458295 184.790738 
L 247.980114 184.790738 
L 247.980114 162.064564 
L 249.501932 162.064564 
L 249.501932 196.153826 
L 251.02375 196.153826 
L 251.02375 139.33839 
L 252.545568 139.33839 
L 252.545568 184.790738 
L 254.067386 184.790738 
L 254.067386 139.33839 
L 255.589205 139.33839 
L 255.589205 173.427651 
L 257.111023 173.427651 
L 257.111023 59.79678 
L 258.632841 59.79678 
L 258.632841 139.33839 
L 260.154659 139.33839 
L 260.154659 162.064564 
L 261.676477 162.064564 
L 261.676477 105.249128 
L 263.198295 105.249128 
L 263.198295 162.064564 
L 264.720114 162.064564 
L 264.720114 139.33839 
L 266.241932 139.33839 
L 266.241932 150.701477 
L 267.76375 150.701477 
L 267.76375 162.064564 
L 269.285568 162.064564 
L 269.285568 196.153826 
L 270.807386 196.153826 
L 270.807386 173.427651 
L 272.329205 173.427651 
L 272.329205 207.516913 
L 273.851023 207.516913 
L 273.851023 184.790738 
L 275.372841 184.790738 
L 275.372841 150.701477 
L 276.894659 150.701477 
L 276.894659 184.790738 
L 278.416477 184.790738 
L 278.416477 207.516913 
L 279.938295 207.516913 
L 279.938295 173.427651 
L 281.460114 173.427651 
L 281.460114 207.516913 
L 282.981932 207.516913 
L 282.981932 173.427651 
L 284.50375 173.427651 
L 284.50375 162.064564 
L 286.025568 162.064564 
L 286.025568 139.33839 
L 287.547386 139.33839 
L 287.547386 173.427651 
L 290.591023 173.427651 
L 290.591023 196.153826 
L 292.112841 196.153826 
L 292.112841 162.064564 
L 293.634659 162.064564 
L 293.634659 127.975303 
L 295.156477 127.975303 
L 295.156477 173.427651 
L 298.200114 173.427651 
L 298.200114 184.790738 
L 299.721932 184.790738 
L 299.721932 207.516913 
L 301.24375 207.516913 
L 301.24375 196.153826 
L 302.765568 196.153826 
L 302.765568 162.064564 
L 304.287386 162.064564 
L 304.287386 207.516913 
L 305.809205 207.516913 
L 305.809205 196.153826 
L 307.331023 196.153826 
L 307.331023 173.427651 
L 308.852841 173.427651 
L 308.852841 184.790738 
L 310.374659 184.790738 
L 310.374659 196.153826 
L 311.896477 196.153826 
L 311.896477 184.790738 
L 313.418295 184.790738 
L 313.418295 207.516913 
L 314.940114 207.516913 
L 314.940114 196.153826 
L 316.461932 196.153826 
L 316.461932 173.427651 
L 317.98375 173.427651 
L 317.98375 207.516913 
L 319.505568 207.516913 
L 319.505568 173.427651 
L 321.027386 173.427651 
L 321.027386 150.701477 
L 322.549205 150.701477 
L 322.549205 162.064564 
L 324.071023 162.064564 
L 324.071023 207.516913 
L 325.592841 207.516913 
L 325.592841 173.427651 
L 328.636477 173.427651 
L 328.636477 184.790738 
L 330.158295 184.790738 
L 330.158295 196.153826 
L 333.201932 196.153826 
L 333.201932 184.790738 
L 339.289205 184.790738 
L 339.289205 162.064564 
L 340.811023 162.064564 
L 340.811023 173.427651 
L 342.332841 173.427651 
L 342.332841 162.064564 
L 345.376477 162.064564 
L 345.376477 150.701477 
L 346.898295 150.701477 
L 346.898295 184.790738 
L 348.420114 184.790738 
L 348.420114 139.33839 
L 349.941932 139.33839 
L 349.941932 173.427651 
L 351.46375 173.427651 
L 351.46375 207.516913 
L 352.985568 207.516913 
L 352.985568 184.790738 
L 354.507386 184.790738 
L 354.507386 218.88 
L 356.029205 218.88 
L 356.029205 184.790738 
L 357.551023 184.790738 
L 357.551023 173.427651 
L 359.072841 173.427651 
L 359.072841 218.88 
L 360.594659 218.88 
L 360.594659 207.516913 
L 362.116477 207.516913 
L 362.116477 173.427651 
L 363.638295 173.427651 
L 363.638295 139.33839 
L 365.160114 139.33839 
L 365.160114 184.790738 
L 369.725568 184.790738 
L 369.725568 184.790738 
" clip-path="url(#pb0d7cf4a55)" style="fill: none; stroke: #1f77b4; stroke-width: 1.5; stroke-linecap: square"/>
   </g>
   <g id="LineCollection_1">
    <path d="M 66.122841 212.223657 
L 66.122841 180.083994 
" clip-path="url(#pb0d7cf4a55)" style="fill: none; stroke: #1f77b4; stroke-width: 1.5"/>
    <path d="M 67.644659 218.88 
L 67.644659 218.88 
" clip-path="url(#pb0d7cf4a55)" style="fill: none; stroke: #1f77b4; stroke-width: 1.5"/>
    <path d="M 69.166477 218.88 
L 69.166477 218.88 
" clip-path="url(#pb0d7cf4a55)" style="fill: none; stroke: #1f77b4; stroke-width: 1.5"/>
    <path d="M 70.688295 218.88 
L 70.688295 218.88 
" clip-path="url(#pb0d7cf4a55)" style="fill: none; stroke: #1f77b4; stroke-width: 1.5"/>
    <path d="M 72.210114 212.223657 
L 72.210114 180.083994 
" clip-path="url(#pb0d7cf4a55)" style="fill: none; stroke: #1f77b4; stroke-width: 1.5"/>
    <path d="M 73.731932 218.88 
L 73.731932 196.153826 
" clip-path="url(#pb0d7cf4a55)" style="fill: none; stroke: #1f77b4; stroke-width: 1.5"/>
    <path d="M 75.25375 212.223657 
L 75.25375 180.083994 
" clip-path="url(#pb0d7cf4a55)" style="fill: none; stroke: #1f77b4; stroke-width: 1.5"/>
    <path d="M 76.775568 218.88 
L 76.775568 218.88 
" clip-path="url(#pb0d7cf4a55)" style="fill: none; stroke: #1f77b4; stroke-width: 1.5"/>
    <path d="M 78.297386 218.88 
L 78.297386 196.153826 
" clip-path="url(#pb0d7cf4a55)" style="fill: none; stroke: #1f77b4; stroke-width: 1.5"/>
    <path d="M 79.819205 218.88 
L 79.819205 196.153826 
" clip-path="url(#pb0d7cf4a55)" style="fill: none; stroke: #1f77b4; stroke-width: 1.5"/>
    <path d="M 81.341023 204.472182 
L 81.341023 165.109295 
" clip-path="url(#pb0d7cf4a55)" style="fill: none; stroke: #1f77b4; stroke-width: 1.5"/>
    <path d="M 82.862841 212.223657 
L 82.862841 180.083994 
" clip-path="url(#pb0d7cf4a55)" style="fill: none; stroke: #1f77b4; stroke-width: 1.5"/>
    <path d="M 84.384659 218.88 
L 84.384659 196.153826 
" clip-path="url(#pb0d7cf4a55)" style="fill: none; stroke: #1f77b4; stroke-width: 1.5"/>
    <path d="M 85.906477 204.472182 
L 85.906477 165.109295 
" clip-path="url(#pb0d7cf4a55)" style="fill: none; stroke: #1f77b4; stroke-width: 1.5"/>
    <path d="M 87.428295 218.88 
L 87.428295 196.153826 
" clip-path="url(#pb0d7cf4a55)" style="fill: none; stroke: #1f77b4; stroke-width: 1.5"/>
    <path d="M 88.950114 212.223657 
L 88.950114 180.083994 
" clip-path="url(#pb0d7cf4a55)" style="fill: none; stroke: #1f77b4; stroke-width: 1.5"/>
    <path d="M 90.471932 212.223657 
L 90.471932 180.083994 
" clip-path="url(#pb0d7cf4a55)" style="fill: none; stroke: #1f77b4; stroke-width: 1.5"/>
    <path d="M 91.99375 196.153826 
L 91.99375 150.701477 
" clip-path="url(#pb0d7cf4a55)" style="fill: none; stroke: #1f77b4; stroke-width: 1.5"/>
    <path d="M 93.515568 218.88 
L 93.515568 196.153826 
" clip-path="url(#pb0d7cf4a55)" style="fill: none; stroke: #1f77b4; stroke-width: 1.5"/>
    <path d="M 95.037386 218.88 
L 95.037386 196.153826 
" clip-path="url(#pb0d7cf4a55)" style="fill: none; stroke: #1f77b4; stroke-width: 1.5"/>
    <path d="M 96.559205 187.4732 
L 96.559205 136.655928 
" clip-path="url(#pb0d7cf4a55)" style="fill: none; stroke: #1f77b4; stroke-width: 1.5"/>
    <path d="M 98.081023 218.88 
L 98.081023 196.153826 
" clip-path="url(#pb0d7cf4a55)" style="fill: none; stroke: #1f77b4; stroke-width: 1.5"/>
    <path d="M 99.602841 218.88 
L 99.602841 218.88 
" clip-path="url(#pb0d7cf4a55)" style="fill: none; stroke: #1f77b4; stroke-width: 1.5"/>
    <path d="M 101.124659 212.223657 
L 101.124659 180.083994 
" clip-path="url(#pb0d7cf4a55)" style="fill: none; stroke: #1f77b4; stroke-width: 1.5"/>
    <path d="M 102.646477 218.88 
L 102.646477 218.88 
" clip-path="url(#pb0d7cf4a55)" style="fill: none; stroke: #1f77b4; stroke-width: 1.5"/>
    <path d="M 104.168295 212.223657 
L 104.168295 180.083994 
" clip-path="url(#pb0d7cf4a55)" style="fill: none; stroke: #1f77b4; stroke-width: 1.5"/>
    <path d="M 105.690114 218.88 
L 105.690114 218.88 
" clip-path="url(#pb0d7cf4a55)" style="fill: none; stroke: #1f77b4; stroke-width: 1.5"/>
    <path d="M 107.211932 196.153826 
L 107.211932 150.701477 
" clip-path="url(#pb0d7cf4a55)" style="fill: none; stroke: #1f77b4; stroke-width: 1.5"/>
    <path d="M 108.73375 178.535243 
L 108.73375 122.86771 
" clip-path="url(#pb0d7cf4a55)" style="fill: none; stroke: #1f77b4; stroke-width: 1.5"/>
    <path d="M 110.255568 218.88 
L 110.255568 218.88 
" clip-path="url(#pb0d7cf4a55)" style="fill: none; stroke: #1f77b4; stroke-width: 1.5"/>
    <path d="M 111.777386 198.925275 
L 111.777386 102.975191 
" clip-path="url(#pb0d7cf4a55)" style="fill: none; stroke: #1f77b4; stroke-width: 1.5"/>
    <path d="M 113.299205 196.189462 
L 113.299205 84.877695 
" clip-path="url(#pb0d7cf4a55)" style="fill: none; stroke: #1f77b4; stroke-width: 1.5"/>
    <path d="M 114.821023 178.691766 
L 114.821023 68.812901 
" clip-path="url(#pb0d7cf4a55)" style="fill: none; stroke: #1f77b4; stroke-width: 1.5"/>
    <path d="M 116.342841 185.87302 
L 116.342841 95.448453 
" clip-path="url(#pb0d7cf4a55)" style="fill: none; stroke: #1f77b4; stroke-width: 1.5"/>
    <path d="M 117.864659 175.509614 
L 117.864659 88.565915 
" clip-path="url(#pb0d7cf4a55)" style="fill: none; stroke: #1f77b4; stroke-width: 1.5"/>
    <path d="M 119.386477 218.88 
L 119.386477 218.88 
" clip-path="url(#pb0d7cf4a55)" style="fill: none; stroke: #1f77b4; stroke-width: 1.5"/>
    <path d="M 120.908295 218.88 
L 120.908295 218.88 
" clip-path="url(#pb0d7cf4a55)" style="fill: none; stroke: #1f77b4; stroke-width: 1.5"/>
    <path d="M 122.430114 210.043499 
L 122.430114 167.377094 
" clip-path="url(#pb0d7cf4a55)" style="fill: none; stroke: #1f77b4; stroke-width: 1.5"/>
    <path d="M 123.951932 190.498461 
L 123.951932 133.714186 
" clip-path="url(#pb0d7cf4a55)" style="fill: none; stroke: #1f77b4; stroke-width: 1.5"/>
    <path d="M 125.47375 181.569019 
L 125.47375 121.192584 
" clip-path="url(#pb0d7cf4a55)" style="fill: none; stroke: #1f77b4; stroke-width: 1.5"/>
    <path d="M 126.995568 218.88 
L 126.995568 193.291922 
" clip-path="url(#pb0d7cf4a55)" style="fill: none; stroke: #1f77b4; stroke-width: 1.5"/>
    <path d="M 128.517386 218.88 
L 128.517386 194.219047 
" clip-path="url(#pb0d7cf4a55)" style="fill: none; stroke: #1f77b4; stroke-width: 1.5"/>
    <path d="M 130.039205 211.784785 
L 130.039205 177.525092 
" clip-path="url(#pb0d7cf4a55)" style="fill: none; stroke: #1f77b4; stroke-width: 1.5"/>
    <path d="M 131.561023 218.88 
L 131.561023 195.132893 
" clip-path="url(#pb0d7cf4a55)" style="fill: none; stroke: #1f77b4; stroke-width: 1.5"/>
    <path d="M 133.082841 186.463316 
L 133.082841 134.011823 
" clip-path="url(#pb0d7cf4a55)" style="fill: none; stroke: #1f77b4; stroke-width: 1.5"/>
    <path d="M 134.604659 186.671591 
L 134.604659 134.557163 
" clip-path="url(#pb0d7cf4a55)" style="fill: none; stroke: #1f77b4; stroke-width: 1.5"/>
    <path d="M 136.126477 212.223657 
L 136.126477 180.083994 
" clip-path="url(#pb0d7cf4a55)" style="fill: none; stroke: #1f77b4; stroke-width: 1.5"/>
    <path d="M 137.648295 204.472182 
L 137.648295 165.109295 
" clip-path="url(#pb0d7cf4a55)" style="fill: none; stroke: #1f77b4; stroke-width: 1.5"/>
    <path d="M 139.170114 178.535243 
L 139.170114 122.86771 
" clip-path="url(#pb0d7cf4a55)" style="fill: none; stroke: #1f77b4; stroke-width: 1.5"/>
    <path d="M 140.691932 187.4732 
L 140.691932 136.655928 
" clip-path="url(#pb0d7cf4a55)" style="fill: none; stroke: #1f77b4; stroke-width: 1.5"/>
    <path d="M 142.21375 187.4732 
L 142.21375 136.655928 
" clip-path="url(#pb0d7cf4a55)" style="fill: none; stroke: #1f77b4; stroke-width: 1.5"/>
    <path d="M 143.735568 212.223657 
L 143.735568 180.083994 
" clip-path="url(#pb0d7cf4a55)" style="fill: none; stroke: #1f77b4; stroke-width: 1.5"/>
    <path d="M 145.257386 204.472182 
L 145.257386 165.109295 
" clip-path="url(#pb0d7cf4a55)" style="fill: none; stroke: #1f77b4; stroke-width: 1.5"/>
    <path d="M 146.779205 212.223657 
L 146.779205 180.083994 
" clip-path="url(#pb0d7cf4a55)" style="fill: none; stroke: #1f77b4; stroke-width: 1.5"/>
    <path d="M 148.301023 218.88 
L 148.301023 196.153826 
" clip-path="url(#pb0d7cf4a55)" style="fill: none; stroke: #1f77b4; stroke-width: 1.5"/>
    <path d="M 149.822841 212.223657 
L 149.822841 180.083994 
" clip-path="url(#pb0d7cf4a55)" style="fill: none; stroke: #1f77b4; stroke-width: 1.5"/>
    <path d="M 151.344659 204.472182 
L 151.344659 165.109295 
" clip-path="url(#pb0d7cf4a55)" style="fill: none; stroke: #1f77b4; stroke-width: 1.5"/>
    <path d="M 152.866477 196.153826 
L 152.866477 150.701477 
" clip-path="url(#pb0d7cf4a55)" style="fill: none; stroke: #1f77b4; stroke-width: 1.5"/>
    <path d="M 154.388295 212.223657 
L 154.388295 180.083994 
" clip-path="url(#pb0d7cf4a55)" style="fill: none; stroke: #1f77b4; stroke-width: 1.5"/>
    <path d="M 155.910114 218.88 
L 155.910114 196.153826 
" clip-path="url(#pb0d7cf4a55)" style="fill: none; stroke: #1f77b4; stroke-width: 1.5"/>
    <path d="M 157.431932 218.88 
L 157.431932 196.153826 
" clip-path="url(#pb0d7cf4a55)" style="fill: none; stroke: #1f77b4; stroke-width: 1.5"/>
    <path d="M 158.95375 212.223657 
L 158.95375 180.083994 
" clip-path="url(#pb0d7cf4a55)" style="fill: none; stroke: #1f77b4; stroke-width: 1.5"/>
    <path d="M 160.475568 196.153826 
L 160.475568 150.701477 
" clip-path="url(#pb0d7cf4a55)" style="fill: none; stroke: #1f77b4; stroke-width: 1.5"/>
    <path d="M 161.997386 204.472182 
L 161.997386 165.109295 
" clip-path="url(#pb0d7cf4a55)" style="fill: none; stroke: #1f77b4; stroke-width: 1.5"/>
    <path d="M 163.519205 218.88 
L 163.519205 218.88 
" clip-path="url(#pb0d7cf4a55)" style="fill: none; stroke: #1f77b4; stroke-width: 1.5"/>
    <path d="M 165.041023 178.535243 
L 165.041023 122.86771 
" clip-path="url(#pb0d7cf4a55)" style="fill: none; stroke: #1f77b4; stroke-width: 1.5"/>
    <path d="M 166.562841 204.472182 
L 166.562841 165.109295 
" clip-path="url(#pb0d7cf4a55)" style="fill: none; stroke: #1f77b4; stroke-width: 1.5"/>
    <path d="M 168.084659 212.223657 
L 168.084659 180.083994 
" clip-path="url(#pb0d7cf4a55)" style="fill: none; stroke: #1f77b4; stroke-width: 1.5"/>
    <path d="M 169.606477 196.153826 
L 169.606477 150.701477 
" clip-path="url(#pb0d7cf4a55)" style="fill: none; stroke: #1f77b4; stroke-width: 1.5"/>
    <path d="M 171.128295 187.4732 
L 171.128295 136.655928 
" clip-path="url(#pb0d7cf4a55)" style="fill: none; stroke: #1f77b4; stroke-width: 1.5"/>
    <path d="M 172.650114 204.472182 
L 172.650114 165.109295 
" clip-path="url(#pb0d7cf4a55)" style="fill: none; stroke: #1f77b4; stroke-width: 1.5"/>
    <path d="M 174.171932 169.402292 
L 174.171932 109.274488 
" clip-path="url(#pb0d7cf4a55)" style="fill: none; stroke: #1f77b4; stroke-width: 1.5"/>
    <path d="M 175.69375 196.153826 
L 175.69375 150.701477 
" clip-path="url(#pb0d7cf4a55)" style="fill: none; stroke: #1f77b4; stroke-width: 1.5"/>
    <path d="M 177.215568 187.4732 
L 177.215568 136.655928 
" clip-path="url(#pb0d7cf4a55)" style="fill: none; stroke: #1f77b4; stroke-width: 1.5"/>
    <path d="M 178.737386 204.472182 
L 178.737386 165.109295 
" clip-path="url(#pb0d7cf4a55)" style="fill: none; stroke: #1f77b4; stroke-width: 1.5"/>
    <path d="M 180.259205 218.88 
L 180.259205 196.153826 
" clip-path="url(#pb0d7cf4a55)" style="fill: none; stroke: #1f77b4; stroke-width: 1.5"/>
    <path d="M 181.781023 218.88 
L 181.781023 196.153826 
" clip-path="url(#pb0d7cf4a55)" style="fill: none; stroke: #1f77b4; stroke-width: 1.5"/>
    <path d="M 183.302841 169.402292 
L 183.302841 109.274488 
" clip-path="url(#pb0d7cf4a55)" style="fill: none; stroke: #1f77b4; stroke-width: 1.5"/>
    <path d="M 184.824659 169.402292 
L 184.824659 109.274488 
" clip-path="url(#pb0d7cf4a55)" style="fill: none; stroke: #1f77b4; stroke-width: 1.5"/>
    <path d="M 186.346477 204.472182 
L 186.346477 165.109295 
" clip-path="url(#pb0d7cf4a55)" style="fill: none; stroke: #1f77b4; stroke-width: 1.5"/>
    <path d="M 187.868295 212.223657 
L 187.868295 180.083994 
" clip-path="url(#pb0d7cf4a55)" style="fill: none; stroke: #1f77b4; stroke-width: 1.5"/>
    <path d="M 189.390114 218.88 
L 189.390114 196.153826 
" clip-path="url(#pb0d7cf4a55)" style="fill: none; stroke: #1f77b4; stroke-width: 1.5"/>
    <path d="M 190.911932 204.472182 
L 190.911932 165.109295 
" clip-path="url(#pb0d7cf4a55)" style="fill: none; stroke: #1f77b4; stroke-width: 1.5"/>
    <path d="M 192.43375 187.4732 
L 192.43375 136.655928 
" clip-path="url(#pb0d7cf4a55)" style="fill: none; stroke: #1f77b4; stroke-width: 1.5"/>
    <path d="M 193.955568 212.223657 
L 193.955568 180.083994 
" clip-path="url(#pb0d7cf4a55)" style="fill: none; stroke: #1f77b4; stroke-width: 1.5"/>
    <path d="M 195.477386 212.223657 
L 195.477386 180.083994 
" clip-path="url(#pb0d7cf4a55)" style="fill: none; stroke: #1f77b4; stroke-width: 1.5"/>
    <path d="M 196.999205 204.472182 
L 196.999205 165.109295 
" clip-path="url(#pb0d7cf4a55)" style="fill: none; stroke: #1f77b4; stroke-width: 1.5"/>
    <path d="M 198.521023 169.402292 
L 198.521023 109.274488 
" clip-path="url(#pb0d7cf4a55)" style="fill: none; stroke: #1f77b4; stroke-width: 1.5"/>
    <path d="M 200.042841 212.223657 
L 200.042841 180.083994 
" clip-path="url(#pb0d7cf4a55)" style="fill: none; stroke: #1f77b4; stroke-width: 1.5"/>
    <path d="M 201.564659 204.472182 
L 201.564659 165.109295 
" clip-path="url(#pb0d7cf4a55)" style="fill: none; stroke: #1f77b4; stroke-width: 1.5"/>
    <path d="M 203.086477 218.88 
L 203.086477 196.153826 
" clip-path="url(#pb0d7cf4a55)" style="fill: none; stroke: #1f77b4; stroke-width: 1.5"/>
    <path d="M 204.608295 196.153826 
L 204.608295 150.701477 
" clip-path="url(#pb0d7cf4a55)" style="fill: none; stroke: #1f77b4; stroke-width: 1.5"/>
    <path d="M 206.130114 212.223657 
L 206.130114 180.083994 
" clip-path="url(#pb0d7cf4a55)" style="fill: none; stroke: #1f77b4; stroke-width: 1.5"/>
    <path d="M 207.651932 212.223657 
L 207.651932 180.083994 
" clip-path="url(#pb0d7cf4a55)" style="fill: none; stroke: #1f77b4; stroke-width: 1.5"/>
    <path d="M 209.17375 178.535243 
L 209.17375 122.86771 
" clip-path="url(#pb0d7cf4a55)" style="fill: none; stroke: #1f77b4; stroke-width: 1.5"/>
    <path d="M 210.695568 187.4732 
L 210.695568 136.655928 
" clip-path="url(#pb0d7cf4a55)" style="fill: none; stroke: #1f77b4; stroke-width: 1.5"/>
    <path d="M 212.217386 204.472182 
L 212.217386 165.109295 
" clip-path="url(#pb0d7cf4a55)" style="fill: none; stroke: #1f77b4; stroke-width: 1.5"/>
    <path d="M 213.739205 212.223657 
L 213.739205 180.083994 
" clip-path="url(#pb0d7cf4a55)" style="fill: none; stroke: #1f77b4; stroke-width: 1.5"/>
    <path d="M 215.261023 187.4732 
L 215.261023 136.655928 
" clip-path="url(#pb0d7cf4a55)" style="fill: none; stroke: #1f77b4; stroke-width: 1.5"/>
    <path d="M 216.782841 187.4732 
L 216.782841 136.655928 
" clip-path="url(#pb0d7cf4a55)" style="fill: none; stroke: #1f77b4; stroke-width: 1.5"/>
    <path d="M 218.304659 196.153826 
L 218.304659 150.701477 
" clip-path="url(#pb0d7cf4a55)" style="fill: none; stroke: #1f77b4; stroke-width: 1.5"/>
    <path d="M 219.826477 218.88 
L 219.826477 196.153826 
" clip-path="url(#pb0d7cf4a55)" style="fill: none; stroke: #1f77b4; stroke-width: 1.5"/>
    <path d="M 221.348295 196.153826 
L 221.348295 150.701477 
" clip-path="url(#pb0d7cf4a55)" style="fill: none; stroke: #1f77b4; stroke-width: 1.5"/>
    <path d="M 222.870114 196.153826 
L 222.870114 150.701477 
" clip-path="url(#pb0d7cf4a55)" style="fill: none; stroke: #1f77b4; stroke-width: 1.5"/>
    <path d="M 224.391932 218.88 
L 224.391932 196.153826 
" clip-path="url(#pb0d7cf4a55)" style="fill: none; stroke: #1f77b4; stroke-width: 1.5"/>
    <path d="M 225.91375 169.402292 
L 225.91375 109.274488 
" clip-path="url(#pb0d7cf4a55)" style="fill: none; stroke: #1f77b4; stroke-width: 1.5"/>
    <path d="M 227.435568 204.472182 
L 227.435568 165.109295 
" clip-path="url(#pb0d7cf4a55)" style="fill: none; stroke: #1f77b4; stroke-width: 1.5"/>
    <path d="M 228.957386 204.472182 
L 228.957386 165.109295 
" clip-path="url(#pb0d7cf4a55)" style="fill: none; stroke: #1f77b4; stroke-width: 1.5"/>
    <path d="M 230.479205 150.701477 
L 230.479205 82.522954 
" clip-path="url(#pb0d7cf4a55)" style="fill: none; stroke: #1f77b4; stroke-width: 1.5"/>
    <path d="M 232.001023 204.472182 
L 232.001023 165.109295 
" clip-path="url(#pb0d7cf4a55)" style="fill: none; stroke: #1f77b4; stroke-width: 1.5"/>
    <path d="M 233.522841 196.153826 
L 233.522841 150.701477 
" clip-path="url(#pb0d7cf4a55)" style="fill: none; stroke: #1f77b4; stroke-width: 1.5"/>
    <path d="M 235.044659 178.535243 
L 235.044659 122.86771 
" clip-path="url(#pb0d7cf4a55)" style="fill: none; stroke: #1f77b4; stroke-width: 1.5"/>
    <path d="M 236.566477 212.223657 
L 236.566477 180.083994 
" clip-path="url(#pb0d7cf4a55)" style="fill: none; stroke: #1f77b4; stroke-width: 1.5"/>
    <path d="M 238.088295 187.4732 
L 238.088295 136.655928 
" clip-path="url(#pb0d7cf4a55)" style="fill: none; stroke: #1f77b4; stroke-width: 1.5"/>
    <path d="M 239.610114 204.472182 
L 239.610114 165.109295 
" clip-path="url(#pb0d7cf4a55)" style="fill: none; stroke: #1f77b4; stroke-width: 1.5"/>
    <path d="M 241.131932 187.4732 
L 241.131932 136.655928 
" clip-path="url(#pb0d7cf4a55)" style="fill: none; stroke: #1f77b4; stroke-width: 1.5"/>
    <path d="M 242.65375 204.472182 
L 242.65375 165.109295 
" clip-path="url(#pb0d7cf4a55)" style="fill: none; stroke: #1f77b4; stroke-width: 1.5"/>
    <path d="M 244.175568 212.223657 
L 244.175568 180.083994 
" clip-path="url(#pb0d7cf4a55)" style="fill: none; stroke: #1f77b4; stroke-width: 1.5"/>
    <path d="M 245.697386 196.153826 
L 245.697386 150.701477 
" clip-path="url(#pb0d7cf4a55)" style="fill: none; stroke: #1f77b4; stroke-width: 1.5"/>
    <path d="M 247.219205 204.472182 
L 247.219205 165.109295 
" clip-path="url(#pb0d7cf4a55)" style="fill: none; stroke: #1f77b4; stroke-width: 1.5"/>
    <path d="M 248.741023 187.4732 
L 248.741023 136.655928 
" clip-path="url(#pb0d7cf4a55)" style="fill: none; stroke: #1f77b4; stroke-width: 1.5"/>
    <path d="M 250.262841 212.223657 
L 250.262841 180.083994 
" clip-path="url(#pb0d7cf4a55)" style="fill: none; stroke: #1f77b4; stroke-width: 1.5"/>
    <path d="M 251.784659 169.402292 
L 251.784659 109.274488 
" clip-path="url(#pb0d7cf4a55)" style="fill: none; stroke: #1f77b4; stroke-width: 1.5"/>
    <path d="M 253.306477 204.472182 
L 253.306477 165.109295 
" clip-path="url(#pb0d7cf4a55)" style="fill: none; stroke: #1f77b4; stroke-width: 1.5"/>
    <path d="M 254.828295 169.402292 
L 254.828295 109.274488 
" clip-path="url(#pb0d7cf4a55)" style="fill: none; stroke: #1f77b4; stroke-width: 1.5"/>
    <path d="M 256.350114 196.153826 
L 256.350114 150.701477 
" clip-path="url(#pb0d7cf4a55)" style="fill: none; stroke: #1f77b4; stroke-width: 1.5"/>
    <path d="M 257.871932 102.31356 
L 257.871932 17.279999 
" clip-path="url(#pb0d7cf4a55)" style="fill: none; stroke: #1f77b4; stroke-width: 1.5"/>
    <path d="M 259.39375 169.402292 
L 259.39375 109.274488 
" clip-path="url(#pb0d7cf4a55)" style="fill: none; stroke: #1f77b4; stroke-width: 1.5"/>
    <path d="M 260.915568 187.4732 
L 260.915568 136.655928 
" clip-path="url(#pb0d7cf4a55)" style="fill: none; stroke: #1f77b4; stroke-width: 1.5"/>
    <path d="M 262.437386 141.182365 
L 262.437386 69.315891 
" clip-path="url(#pb0d7cf4a55)" style="fill: none; stroke: #1f77b4; stroke-width: 1.5"/>
    <path d="M 263.959205 187.4732 
L 263.959205 136.655928 
" clip-path="url(#pb0d7cf4a55)" style="fill: none; stroke: #1f77b4; stroke-width: 1.5"/>
    <path d="M 265.481023 169.402292 
L 265.481023 109.274488 
" clip-path="url(#pb0d7cf4a55)" style="fill: none; stroke: #1f77b4; stroke-width: 1.5"/>
    <path d="M 267.002841 178.535243 
L 267.002841 122.86771 
" clip-path="url(#pb0d7cf4a55)" style="fill: none; stroke: #1f77b4; stroke-width: 1.5"/>
    <path d="M 268.524659 187.4732 
L 268.524659 136.655928 
" clip-path="url(#pb0d7cf4a55)" style="fill: none; stroke: #1f77b4; stroke-width: 1.5"/>
    <path d="M 270.046477 212.223657 
L 270.046477 180.083994 
" clip-path="url(#pb0d7cf4a55)" style="fill: none; stroke: #1f77b4; stroke-width: 1.5"/>
    <path d="M 271.568295 196.153826 
L 271.568295 150.701477 
" clip-path="url(#pb0d7cf4a55)" style="fill: none; stroke: #1f77b4; stroke-width: 1.5"/>
    <path d="M 273.090114 218.88 
L 273.090114 196.153826 
" clip-path="url(#pb0d7cf4a55)" style="fill: none; stroke: #1f77b4; stroke-width: 1.5"/>
    <path d="M 274.611932 204.472182 
L 274.611932 165.109295 
" clip-path="url(#pb0d7cf4a55)" style="fill: none; stroke: #1f77b4; stroke-width: 1.5"/>
    <path d="M 276.13375 178.535243 
L 276.13375 122.86771 
" clip-path="url(#pb0d7cf4a55)" style="fill: none; stroke: #1f77b4; stroke-width: 1.5"/>
    <path d="M 277.655568 204.472182 
L 277.655568 165.109295 
" clip-path="url(#pb0d7cf4a55)" style="fill: none; stroke: #1f77b4; stroke-width: 1.5"/>
    <path d="M 279.177386 218.88 
L 279.177386 196.153826 
" clip-path="url(#pb0d7cf4a55)" style="fill: none; stroke: #1f77b4; stroke-width: 1.5"/>
    <path d="M 280.699205 196.153826 
L 280.699205 150.701477 
" clip-path="url(#pb0d7cf4a55)" style="fill: none; stroke: #1f77b4; stroke-width: 1.5"/>
    <path d="M 282.221023 218.88 
L 282.221023 196.153826 
" clip-path="url(#pb0d7cf4a55)" style="fill: none; stroke: #1f77b4; stroke-width: 1.5"/>
    <path d="M 283.742841 196.153826 
L 283.742841 150.701477 
" clip-path="url(#pb0d7cf4a55)" style="fill: none; stroke: #1f77b4; stroke-width: 1.5"/>
    <path d="M 285.264659 187.4732 
L 285.264659 136.655928 
" clip-path="url(#pb0d7cf4a55)" style="fill: none; stroke: #1f77b4; stroke-width: 1.5"/>
    <path d="M 286.786477 169.402292 
L 286.786477 109.274488 
" clip-path="url(#pb0d7cf4a55)" style="fill: none; stroke: #1f77b4; stroke-width: 1.5"/>
    <path d="M 288.308295 196.153826 
L 288.308295 150.701477 
" clip-path="url(#pb0d7cf4a55)" style="fill: none; stroke: #1f77b4; stroke-width: 1.5"/>
    <path d="M 289.830114 196.153826 
L 289.830114 150.701477 
" clip-path="url(#pb0d7cf4a55)" style="fill: none; stroke: #1f77b4; stroke-width: 1.5"/>
    <path d="M 291.351932 212.223657 
L 291.351932 180.083994 
" clip-path="url(#pb0d7cf4a55)" style="fill: none; stroke: #1f77b4; stroke-width: 1.5"/>
    <path d="M 292.87375 187.4732 
L 292.87375 136.655928 
" clip-path="url(#pb0d7cf4a55)" style="fill: none; stroke: #1f77b4; stroke-width: 1.5"/>
    <path d="M 294.395568 160.114966 
L 294.395568 95.835639 
" clip-path="url(#pb0d7cf4a55)" style="fill: none; stroke: #1f77b4; stroke-width: 1.5"/>
    <path d="M 295.917386 196.153826 
L 295.917386 150.701477 
" clip-path="url(#pb0d7cf4a55)" style="fill: none; stroke: #1f77b4; stroke-width: 1.5"/>
    <path d="M 297.439205 196.153826 
L 297.439205 150.701477 
" clip-path="url(#pb0d7cf4a55)" style="fill: none; stroke: #1f77b4; stroke-width: 1.5"/>
    <path d="M 298.961023 204.472182 
L 298.961023 165.109295 
" clip-path="url(#pb0d7cf4a55)" style="fill: none; stroke: #1f77b4; stroke-width: 1.5"/>
    <path d="M 300.482841 218.88 
L 300.482841 196.153826 
" clip-path="url(#pb0d7cf4a55)" style="fill: none; stroke: #1f77b4; stroke-width: 1.5"/>
    <path d="M 302.004659 212.223657 
L 302.004659 180.083994 
" clip-path="url(#pb0d7cf4a55)" style="fill: none; stroke: #1f77b4; stroke-width: 1.5"/>
    <path d="M 303.526477 187.4732 
L 303.526477 136.655928 
" clip-path="url(#pb0d7cf4a55)" style="fill: none; stroke: #1f77b4; stroke-width: 1.5"/>
    <path d="M 305.048295 218.88 
L 305.048295 196.153826 
" clip-path="url(#pb0d7cf4a55)" style="fill: none; stroke: #1f77b4; stroke-width: 1.5"/>
    <path d="M 306.570114 212.223657 
L 306.570114 180.083994 
" clip-path="url(#pb0d7cf4a55)" style="fill: none; stroke: #1f77b4; stroke-width: 1.5"/>
    <path d="M 308.091932 196.153826 
L 308.091932 150.701477 
" clip-path="url(#pb0d7cf4a55)" style="fill: none; stroke: #1f77b4; stroke-width: 1.5"/>
    <path d="M 309.61375 204.472182 
L 309.61375 165.109295 
" clip-path="url(#pb0d7cf4a55)" style="fill: none; stroke: #1f77b4; stroke-width: 1.5"/>
    <path d="M 311.135568 212.223657 
L 311.135568 180.083994 
" clip-path="url(#pb0d7cf4a55)" style="fill: none; stroke: #1f77b4; stroke-width: 1.5"/>
    <path d="M 312.657386 204.472182 
L 312.657386 165.109295 
" clip-path="url(#pb0d7cf4a55)" style="fill: none; stroke: #1f77b4; stroke-width: 1.5"/>
    <path d="M 314.179205 218.88 
L 314.179205 196.153826 
" clip-path="url(#pb0d7cf4a55)" style="fill: none; stroke: #1f77b4; stroke-width: 1.5"/>
    <path d="M 315.701023 212.223657 
L 315.701023 180.083994 
" clip-path="url(#pb0d7cf4a55)" style="fill: none; stroke: #1f77b4; stroke-width: 1.5"/>
    <path d="M 317.222841 196.153826 
L 317.222841 150.701477 
" clip-path="url(#pb0d7cf4a55)" style="fill: none; stroke: #1f77b4; stroke-width: 1.5"/>
    <path d="M 318.744659 218.88 
L 318.744659 196.153826 
" clip-path="url(#pb0d7cf4a55)" style="fill: none; stroke: #1f77b4; stroke-width: 1.5"/>
    <path d="M 320.266477 196.153826 
L 320.266477 150.701477 
" clip-path="url(#pb0d7cf4a55)" style="fill: none; stroke: #1f77b4; stroke-width: 1.5"/>
    <path d="M 321.788295 178.535243 
L 321.788295 122.86771 
" clip-path="url(#pb0d7cf4a55)" style="fill: none; stroke: #1f77b4; stroke-width: 1.5"/>
    <path d="M 323.310114 187.4732 
L 323.310114 136.655928 
" clip-path="url(#pb0d7cf4a55)" style="fill: none; stroke: #1f77b4; stroke-width: 1.5"/>
    <path d="M 324.831932 218.88 
L 324.831932 196.153826 
" clip-path="url(#pb0d7cf4a55)" style="fill: none; stroke: #1f77b4; stroke-width: 1.5"/>
    <path d="M 326.35375 196.153826 
L 326.35375 150.701477 
" clip-path="url(#pb0d7cf4a55)" style="fill: none; stroke: #1f77b4; stroke-width: 1.5"/>
    <path d="M 327.875568 196.153826 
L 327.875568 150.701477 
" clip-path="url(#pb0d7cf4a55)" style="fill: none; stroke: #1f77b4; stroke-width: 1.5"/>
    <path d="M 329.397386 204.472182 
L 329.397386 165.109295 
" clip-path="url(#pb0d7cf4a55)" style="fill: none; stroke: #1f77b4; stroke-width: 1.5"/>
    <path d="M 330.919205 212.223657 
L 330.919205 180.083994 
" clip-path="url(#pb0d7cf4a55)" style="fill: none; stroke: #1f77b4; stroke-width: 1.5"/>
    <path d="M 332.441023 212.223657 
L 332.441023 180.083994 
" clip-path="url(#pb0d7cf4a55)" style="fill: none; stroke: #1f77b4; stroke-width: 1.5"/>
    <path d="M 333.962841 204.472182 
L 333.962841 165.109295 
" clip-path="url(#pb0d7cf4a55)" style="fill: none; stroke: #1f77b4; stroke-width: 1.5"/>
    <path d="M 335.484659 204.472182 
L 335.484659 165.109295 
" clip-path="url(#pb0d7cf4a55)" style="fill: none; stroke: #1f77b4; stroke-width: 1.5"/>
    <path d="M 337.006477 204.472182 
L 337.006477 165.109295 
" clip-path="url(#pb0d7cf4a55)" style="fill: none; stroke: #1f77b4; stroke-width: 1.5"/>
    <path d="M 338.528295 204.472182 
L 338.528295 165.109295 
" clip-path="url(#pb0d7cf4a55)" style="fill: none; stroke: #1f77b4; stroke-width: 1.5"/>
    <path d="M 340.050114 187.4732 
L 340.050114 136.655928 
" clip-path="url(#pb0d7cf4a55)" style="fill: none; stroke: #1f77b4; stroke-width: 1.5"/>
    <path d="M 341.571932 196.153826 
L 341.571932 150.701477 
" clip-path="url(#pb0d7cf4a55)" style="fill: none; stroke: #1f77b4; stroke-width: 1.5"/>
    <path d="M 343.09375 187.4732 
L 343.09375 136.655928 
" clip-path="url(#pb0d7cf4a55)" style="fill: none; stroke: #1f77b4; stroke-width: 1.5"/>
    <path d="M 344.615568 187.4732 
L 344.615568 136.655928 
" clip-path="url(#pb0d7cf4a55)" style="fill: none; stroke: #1f77b4; stroke-width: 1.5"/>
    <path d="M 346.137386 178.535243 
L 346.137386 122.86771 
" clip-path="url(#pb0d7cf4a55)" style="fill: none; stroke: #1f77b4; stroke-width: 1.5"/>
    <path d="M 347.659205 204.472182 
L 347.659205 165.109295 
" clip-path="url(#pb0d7cf4a55)" style="fill: none; stroke: #1f77b4; stroke-width: 1.5"/>
    <path d="M 349.181023 169.402292 
L 349.181023 109.274488 
" clip-path="url(#pb0d7cf4a55)" style="fill: none; stroke: #1f77b4; stroke-width: 1.5"/>
    <path d="M 350.702841 196.153826 
L 350.702841 150.701477 
" clip-path="url(#pb0d7cf4a55)" style="fill: none; stroke: #1f77b4; stroke-width: 1.5"/>
    <path d="M 352.224659 218.88 
L 352.224659 196.153826 
" clip-path="url(#pb0d7cf4a55)" style="fill: none; stroke: #1f77b4; stroke-width: 1.5"/>
    <path d="M 353.746477 204.472182 
L 353.746477 165.109295 
" clip-path="url(#pb0d7cf4a55)" style="fill: none; stroke: #1f77b4; stroke-width: 1.5"/>
    <path d="M 355.268295 218.88 
L 355.268295 218.88 
" clip-path="url(#pb0d7cf4a55)" style="fill: none; stroke: #1f77b4; stroke-width: 1.5"/>
    <path d="M 356.790114 204.472182 
L 356.790114 165.109295 
" clip-path="url(#pb0d7cf4a55)" style="fill: none; stroke: #1f77b4; stroke-width: 1.5"/>
    <path d="M 358.311932 196.153826 
L 358.311932 150.701477 
" clip-path="url(#pb0d7cf4a55)" style="fill: none; stroke: #1f77b4; stroke-width: 1.5"/>
    <path d="M 359.83375 218.88 
L 359.83375 218.88 
" clip-path="url(#pb0d7cf4a55)" style="fill: none; stroke: #1f77b4; stroke-width: 1.5"/>
    <path d="M 361.355568 218.88 
L 361.355568 196.153826 
" clip-path="url(#pb0d7cf4a55)" style="fill: none; stroke: #1f77b4; stroke-width: 1.5"/>
    <path d="M 362.877386 196.153826 
L 362.877386 150.701477 
" clip-path="url(#pb0d7cf4a55)" style="fill: none; stroke: #1f77b4; stroke-width: 1.5"/>
    <path d="M 364.399205 169.402292 
L 364.399205 109.274488 
" clip-path="url(#pb0d7cf4a55)" style="fill: none; stroke: #1f77b4; stroke-width: 1.5"/>
    <path d="M 365.921023 204.472182 
L 365.921023 165.109295 
" clip-path="url(#pb0d7cf4a55)" style="fill: none; stroke: #1f77b4; stroke-width: 1.5"/>
    <path d="M 367.442841 204.472182 
L 367.442841 165.109295 
" clip-path="url(#pb0d7cf4a55)" style="fill: none; stroke: #1f77b4; stroke-width: 1.5"/>
    <path d="M 368.964659 204.472182 
L 368.964659 165.109295 
" clip-path="url(#pb0d7cf4a55)" style="fill: none; stroke: #1f77b4; stroke-width: 1.5"/>
   </g>
   <g id="patch_3">
    <path d="M 50.14375 228.96 
L 50.14375 7.2 
" style="fill: none; stroke: #000000; stroke-width: 0.8; stroke-linejoin: miter; stroke-linecap: square"/>
   </g>
   <g id="patch_4">
    <path d="M 384.94375 228.96 
L 384.94375 7.2 
" style="fill: none; stroke: #000000; stroke-width: 0.8; stroke-linejoin: miter; stroke-linecap: square"/>
   </g>
   <g id="patch_5">
    <path d="M 50.14375 228.96 
L 384.94375 228.96 
" style="fill: none; stroke: #000000; stroke-width: 0.8; stroke-linejoin: miter; stroke-linecap: square"/>
   </g>
   <g id="patch_6">
    <path d="M 50.14375 7.2 
L 384.94375 7.2 
" style="fill: none; stroke: #000000; stroke-width: 0.8; stroke-linejoin: miter; stroke-linecap: square"/>
   </g>
  </g>
 </g>
 <defs>
  <clipPath id="pb0d7cf4a55">
   <rect x="50.14375" y="7.2" width="334.8" height="221.76"/>
  </clipPath>
 </defs>
</svg>
