<?xml version="1.0" encoding="utf-8" standalone="no"?>
<!DOCTYPE svg PUBLIC "-//W3C//DTD SVG 1.1//EN"
  "http://www.w3.org/Graphics/SVG/1.1/DTD/svg11.dtd">
<svg xmlns:xlink="http://www.w3.org/1999/xlink" width="422.541872pt" height="279.99625pt" viewBox="0 0 422.541872 279.99625" xmlns="http://www.w3.org/2000/svg" version="1.1">
 <metadata>
  <rdf:RDF xmlns:dc="http://purl.org/dc/elements/1.1/" xmlns:cc="http://creativecommons.org/ns#" xmlns:rdf="http://www.w3.org/1999/02/22-rdf-syntax-ns#">
   <cc:Work>
    <dc:type rdf:resource="http://purl.org/dc/dcmitype/StillImage"/>
    <dc:date>2024-08-07T08:00:09.488169</dc:date>
    <dc:format>image/svg+xml</dc:format>
    <dc:creator>
     <cc:Agent>
      <dc:title>Matplotlib v3.8.2, https://matplotlib.org/</dc:title>
     </cc:Agent>
    </dc:creator>
   </cc:Work>
  </rdf:RDF>
 </metadata>
 <defs>
  <style type="text/css">*{stroke-linejoin: round; stroke-linecap: butt}</style>
 </defs>
 <g id="figure_1">
  <g id="patch_1">
   <path d="M 0 279.99625 
L 422.541872 279.99625 
L 422.541872 0 
L 0 0 
z
" style="fill: #ffffff"/>
  </g>
  <g id="axes_1">
   <g id="patch_2">
    <path d="M 40.603125 242.44 
L 413.198308 242.44 
L 413.198308 7.2 
L 40.603125 7.2 
z
" style="fill: #ffffff"/>
   </g>
   <g id="matplotlib.axis_1">
    <g id="xtick_1">
     <g id="line2d_1">
      <defs>
       <path id="m8c975fac91" d="M 0 0 
L 0 3.5 
" style="stroke: #000000; stroke-width: 0.8"/>
      </defs>
      <g>
       <use xlink:href="#m8c975fac91" x="57.514542" y="242.44" style="stroke: #000000; stroke-width: 0.8"/>
      </g>
     </g>
     <g id="text_1">
      <!-- 0 -->
      <g transform="translate(54.333292 257.038437) scale(0.1 -0.1)">
       <defs>
        <path id="DejaVuSans-30" d="M 2034 4250 
Q 1547 4250 1301 3770 
Q 1056 3291 1056 2328 
Q 1056 1369 1301 889 
Q 1547 409 2034 409 
Q 2525 409 2770 889 
Q 3016 1369 3016 2328 
Q 3016 3291 2770 3770 
Q 2525 4250 2034 4250 
z
M 2034 4750 
Q 2819 4750 3233 4129 
Q 3647 3509 3647 2328 
Q 3647 1150 3233 529 
Q 2819 -91 2034 -91 
Q 1250 -91 836 529 
Q 422 1150 422 2328 
Q 422 3509 836 4129 
Q 1250 4750 2034 4750 
z
" transform="scale(0.015625)"/>
       </defs>
       <use xlink:href="#DejaVuSans-30"/>
      </g>
     </g>
    </g>
    <g id="xtick_2">
     <g id="line2d_2">
      <g>
       <use xlink:href="#m8c975fac91" x="125.262508" y="242.44" style="stroke: #000000; stroke-width: 0.8"/>
      </g>
     </g>
     <g id="text_2">
      <!-- 20000 -->
      <g transform="translate(109.356258 257.038437) scale(0.1 -0.1)">
       <defs>
        <path id="DejaVuSans-32" d="M 1228 531 
L 3431 531 
L 3431 0 
L 469 0 
L 469 531 
Q 828 903 1448 1529 
Q 2069 2156 2228 2338 
Q 2531 2678 2651 2914 
Q 2772 3150 2772 3378 
Q 2772 3750 2511 3984 
Q 2250 4219 1831 4219 
Q 1534 4219 1204 4116 
Q 875 4013 500 3803 
L 500 4441 
Q 881 4594 1212 4672 
Q 1544 4750 1819 4750 
Q 2544 4750 2975 4387 
Q 3406 4025 3406 3419 
Q 3406 3131 3298 2873 
Q 3191 2616 2906 2266 
Q 2828 2175 2409 1742 
Q 1991 1309 1228 531 
z
" transform="scale(0.015625)"/>
       </defs>
       <use xlink:href="#DejaVuSans-32"/>
       <use xlink:href="#DejaVuSans-30" x="63.623047"/>
       <use xlink:href="#DejaVuSans-30" x="127.246094"/>
       <use xlink:href="#DejaVuSans-30" x="190.869141"/>
       <use xlink:href="#DejaVuSans-30" x="254.492188"/>
      </g>
     </g>
    </g>
    <g id="xtick_3">
     <g id="line2d_3">
      <g>
       <use xlink:href="#m8c975fac91" x="193.010474" y="242.44" style="stroke: #000000; stroke-width: 0.8"/>
      </g>
     </g>
     <g id="text_3">
      <!-- 40000 -->
      <g transform="translate(177.104224 257.038437) scale(0.1 -0.1)">
       <defs>
        <path id="DejaVuSans-34" d="M 2419 4116 
L 825 1625 
L 2419 1625 
L 2419 4116 
z
M 2253 4666 
L 3047 4666 
L 3047 1625 
L 3713 1625 
L 3713 1100 
L 3047 1100 
L 3047 0 
L 2419 0 
L 2419 1100 
L 313 1100 
L 313 1709 
L 2253 4666 
z
" transform="scale(0.015625)"/>
       </defs>
       <use xlink:href="#DejaVuSans-34"/>
       <use xlink:href="#DejaVuSans-30" x="63.623047"/>
       <use xlink:href="#DejaVuSans-30" x="127.246094"/>
       <use xlink:href="#DejaVuSans-30" x="190.869141"/>
       <use xlink:href="#DejaVuSans-30" x="254.492188"/>
      </g>
     </g>
    </g>
    <g id="xtick_4">
     <g id="line2d_4">
      <g>
       <use xlink:href="#m8c975fac91" x="260.75844" y="242.44" style="stroke: #000000; stroke-width: 0.8"/>
      </g>
     </g>
     <g id="text_4">
      <!-- 60000 -->
      <g transform="translate(244.85219 257.038437) scale(0.1 -0.1)">
       <defs>
        <path id="DejaVuSans-36" d="M 2113 2584 
Q 1688 2584 1439 2293 
Q 1191 2003 1191 1497 
Q 1191 994 1439 701 
Q 1688 409 2113 409 
Q 2538 409 2786 701 
Q 3034 994 3034 1497 
Q 3034 2003 2786 2293 
Q 2538 2584 2113 2584 
z
M 3366 4563 
L 3366 3988 
Q 3128 4100 2886 4159 
Q 2644 4219 2406 4219 
Q 1781 4219 1451 3797 
Q 1122 3375 1075 2522 
Q 1259 2794 1537 2939 
Q 1816 3084 2150 3084 
Q 2853 3084 3261 2657 
Q 3669 2231 3669 1497 
Q 3669 778 3244 343 
Q 2819 -91 2113 -91 
Q 1303 -91 875 529 
Q 447 1150 447 2328 
Q 447 3434 972 4092 
Q 1497 4750 2381 4750 
Q 2619 4750 2861 4703 
Q 3103 4656 3366 4563 
z
" transform="scale(0.015625)"/>
       </defs>
       <use xlink:href="#DejaVuSans-36"/>
       <use xlink:href="#DejaVuSans-30" x="63.623047"/>
       <use xlink:href="#DejaVuSans-30" x="127.246094"/>
       <use xlink:href="#DejaVuSans-30" x="190.869141"/>
       <use xlink:href="#DejaVuSans-30" x="254.492188"/>
      </g>
     </g>
    </g>
    <g id="xtick_5">
     <g id="line2d_5">
      <g>
       <use xlink:href="#m8c975fac91" x="328.506406" y="242.44" style="stroke: #000000; stroke-width: 0.8"/>
      </g>
     </g>
     <g id="text_5">
      <!-- 80000 -->
      <g transform="translate(312.600156 257.038437) scale(0.1 -0.1)">
       <defs>
        <path id="DejaVuSans-38" d="M 2034 2216 
Q 1584 2216 1326 1975 
Q 1069 1734 1069 1313 
Q 1069 891 1326 650 
Q 1584 409 2034 409 
Q 2484 409 2743 651 
Q 3003 894 3003 1313 
Q 3003 1734 2745 1975 
Q 2488 2216 2034 2216 
z
M 1403 2484 
Q 997 2584 770 2862 
Q 544 3141 544 3541 
Q 544 4100 942 4425 
Q 1341 4750 2034 4750 
Q 2731 4750 3128 4425 
Q 3525 4100 3525 3541 
Q 3525 3141 3298 2862 
Q 3072 2584 2669 2484 
Q 3125 2378 3379 2068 
Q 3634 1759 3634 1313 
Q 3634 634 3220 271 
Q 2806 -91 2034 -91 
Q 1263 -91 848 271 
Q 434 634 434 1313 
Q 434 1759 690 2068 
Q 947 2378 1403 2484 
z
M 1172 3481 
Q 1172 3119 1398 2916 
Q 1625 2713 2034 2713 
Q 2441 2713 2670 2916 
Q 2900 3119 2900 3481 
Q 2900 3844 2670 4047 
Q 2441 4250 2034 4250 
Q 1625 4250 1398 4047 
Q 1172 3844 1172 3481 
z
" transform="scale(0.015625)"/>
       </defs>
       <use xlink:href="#DejaVuSans-38"/>
       <use xlink:href="#DejaVuSans-30" x="63.623047"/>
       <use xlink:href="#DejaVuSans-30" x="127.246094"/>
       <use xlink:href="#DejaVuSans-30" x="190.869141"/>
       <use xlink:href="#DejaVuSans-30" x="254.492188"/>
      </g>
     </g>
    </g>
    <g id="xtick_6">
     <g id="line2d_6">
      <g>
       <use xlink:href="#m8c975fac91" x="396.254372" y="242.44" style="stroke: #000000; stroke-width: 0.8"/>
      </g>
     </g>
     <g id="text_6">
      <!-- 100000 -->
      <g transform="translate(377.166872 257.038437) scale(0.1 -0.1)">
       <defs>
        <path id="DejaVuSans-31" d="M 794 531 
L 1825 531 
L 1825 4091 
L 703 3866 
L 703 4441 
L 1819 4666 
L 2450 4666 
L 2450 531 
L 3481 531 
L 3481 0 
L 794 0 
L 794 531 
z
" transform="scale(0.015625)"/>
       </defs>
       <use xlink:href="#DejaVuSans-31"/>
       <use xlink:href="#DejaVuSans-30" x="63.623047"/>
       <use xlink:href="#DejaVuSans-30" x="127.246094"/>
       <use xlink:href="#DejaVuSans-30" x="190.869141"/>
       <use xlink:href="#DejaVuSans-30" x="254.492188"/>
       <use xlink:href="#DejaVuSans-30" x="318.115234"/>
      </g>
     </g>
    </g>
    <g id="text_7">
     <!-- tof [µs] -->
     <g transform="translate(208.844466 270.716562) scale(0.1 -0.1)">
      <defs>
       <path id="DejaVuSans-74" d="M 1172 4494 
L 1172 3500 
L 2356 3500 
L 2356 3053 
L 1172 3053 
L 1172 1153 
Q 1172 725 1289 603 
Q 1406 481 1766 481 
L 2356 481 
L 2356 0 
L 1766 0 
Q 1100 0 847 248 
Q 594 497 594 1153 
L 594 3053 
L 172 3053 
L 172 3500 
L 594 3500 
L 594 4494 
L 1172 4494 
z
" transform="scale(0.015625)"/>
       <path id="DejaVuSans-6f" d="M 1959 3097 
Q 1497 3097 1228 2736 
Q 959 2375 959 1747 
Q 959 1119 1226 758 
Q 1494 397 1959 397 
Q 2419 397 2687 759 
Q 2956 1122 2956 1747 
Q 2956 2369 2687 2733 
Q 2419 3097 1959 3097 
z
M 1959 3584 
Q 2709 3584 3137 3096 
Q 3566 2609 3566 1747 
Q 3566 888 3137 398 
Q 2709 -91 1959 -91 
Q 1206 -91 779 398 
Q 353 888 353 1747 
Q 353 2609 779 3096 
Q 1206 3584 1959 3584 
z
" transform="scale(0.015625)"/>
       <path id="DejaVuSans-66" d="M 2375 4863 
L 2375 4384 
L 1825 4384 
Q 1516 4384 1395 4259 
Q 1275 4134 1275 3809 
L 1275 3500 
L 2222 3500 
L 2222 3053 
L 1275 3053 
L 1275 0 
L 697 0 
L 697 3053 
L 147 3053 
L 147 3500 
L 697 3500 
L 697 3744 
Q 697 4328 969 4595 
Q 1241 4863 1831 4863 
L 2375 4863 
z
" transform="scale(0.015625)"/>
       <path id="DejaVuSans-20" transform="scale(0.015625)"/>
       <path id="DejaVuSans-5b" d="M 550 4863 
L 1875 4863 
L 1875 4416 
L 1125 4416 
L 1125 -397 
L 1875 -397 
L 1875 -844 
L 550 -844 
L 550 4863 
z
" transform="scale(0.015625)"/>
       <path id="DejaVuSans-b5" d="M 544 -1331 
L 544 3500 
L 1119 3500 
L 1119 1325 
Q 1119 872 1334 640 
Q 1550 409 1972 409 
Q 2434 409 2667 671 
Q 2900 934 2900 1459 
L 2900 3500 
L 3475 3500 
L 3475 806 
Q 3475 619 3529 530 
Q 3584 441 3700 441 
Q 3728 441 3778 458 
Q 3828 475 3916 513 
L 3916 50 
Q 3788 -22 3673 -56 
Q 3559 -91 3450 -91 
Q 3234 -91 3106 31 
Q 2978 153 2931 403 
Q 2775 156 2548 32 
Q 2322 -91 2016 -91 
Q 1697 -91 1473 31 
Q 1250 153 1119 397 
L 1119 -1331 
L 544 -1331 
z
" transform="scale(0.015625)"/>
       <path id="DejaVuSans-73" d="M 2834 3397 
L 2834 2853 
Q 2591 2978 2328 3040 
Q 2066 3103 1784 3103 
Q 1356 3103 1142 2972 
Q 928 2841 928 2578 
Q 928 2378 1081 2264 
Q 1234 2150 1697 2047 
L 1894 2003 
Q 2506 1872 2764 1633 
Q 3022 1394 3022 966 
Q 3022 478 2636 193 
Q 2250 -91 1575 -91 
Q 1294 -91 989 -36 
Q 684 19 347 128 
L 347 722 
Q 666 556 975 473 
Q 1284 391 1588 391 
Q 1994 391 2212 530 
Q 2431 669 2431 922 
Q 2431 1156 2273 1281 
Q 2116 1406 1581 1522 
L 1381 1569 
Q 847 1681 609 1914 
Q 372 2147 372 2553 
Q 372 3047 722 3315 
Q 1072 3584 1716 3584 
Q 2034 3584 2315 3537 
Q 2597 3491 2834 3397 
z
" transform="scale(0.015625)"/>
       <path id="DejaVuSans-5d" d="M 1947 4863 
L 1947 -844 
L 622 -844 
L 622 -397 
L 1369 -397 
L 1369 4416 
L 622 4416 
L 622 4863 
L 1947 4863 
z
" transform="scale(0.015625)"/>
      </defs>
      <use xlink:href="#DejaVuSans-74"/>
      <use xlink:href="#DejaVuSans-6f" x="39.208984"/>
      <use xlink:href="#DejaVuSans-66" x="100.390625"/>
      <use xlink:href="#DejaVuSans-20" x="135.595703"/>
      <use xlink:href="#DejaVuSans-5b" x="167.382812"/>
      <use xlink:href="#DejaVuSans-b5" x="206.396484"/>
      <use xlink:href="#DejaVuSans-73" x="270.019531"/>
      <use xlink:href="#DejaVuSans-5d" x="322.119141"/>
     </g>
    </g>
   </g>
   <g id="matplotlib.axis_2">
    <g id="ytick_1">
     <g id="line2d_7">
      <defs>
       <path id="mbace5c2ce9" d="M 0 0 
L -3.5 0 
" style="stroke: #000000; stroke-width: 0.8"/>
      </defs>
      <g>
       <use xlink:href="#mbace5c2ce9" x="40.603125" y="230.697697" style="stroke: #000000; stroke-width: 0.8"/>
      </g>
     </g>
     <g id="text_8">
      <!-- 0 -->
      <g transform="translate(27.240625 234.496915) scale(0.1 -0.1)">
       <use xlink:href="#DejaVuSans-30"/>
      </g>
     </g>
    </g>
    <g id="ytick_2">
     <g id="line2d_8">
      <g>
       <use xlink:href="#mbace5c2ce9" x="40.603125" y="178.553862" style="stroke: #000000; stroke-width: 0.8"/>
      </g>
     </g>
     <g id="text_9">
      <!-- 10 -->
      <g transform="translate(20.878125 182.353081) scale(0.1 -0.1)">
       <use xlink:href="#DejaVuSans-31"/>
       <use xlink:href="#DejaVuSans-30" x="63.623047"/>
      </g>
     </g>
    </g>
    <g id="ytick_3">
     <g id="line2d_9">
      <g>
       <use xlink:href="#mbace5c2ce9" x="40.603125" y="126.410028" style="stroke: #000000; stroke-width: 0.8"/>
      </g>
     </g>
     <g id="text_10">
      <!-- 20 -->
      <g transform="translate(20.878125 130.209247) scale(0.1 -0.1)">
       <use xlink:href="#DejaVuSans-32"/>
       <use xlink:href="#DejaVuSans-30" x="63.623047"/>
      </g>
     </g>
    </g>
    <g id="ytick_4">
     <g id="line2d_10">
      <g>
       <use xlink:href="#mbace5c2ce9" x="40.603125" y="74.266194" style="stroke: #000000; stroke-width: 0.8"/>
      </g>
     </g>
     <g id="text_11">
      <!-- 30 -->
      <g transform="translate(20.878125 78.065413) scale(0.1 -0.1)">
       <defs>
        <path id="DejaVuSans-33" d="M 2597 2516 
Q 3050 2419 3304 2112 
Q 3559 1806 3559 1356 
Q 3559 666 3084 287 
Q 2609 -91 1734 -91 
Q 1441 -91 1130 -33 
Q 819 25 488 141 
L 488 750 
Q 750 597 1062 519 
Q 1375 441 1716 441 
Q 2309 441 2620 675 
Q 2931 909 2931 1356 
Q 2931 1769 2642 2001 
Q 2353 2234 1838 2234 
L 1294 2234 
L 1294 2753 
L 1863 2753 
Q 2328 2753 2575 2939 
Q 2822 3125 2822 3475 
Q 2822 3834 2567 4026 
Q 2313 4219 1838 4219 
Q 1578 4219 1281 4162 
Q 984 4106 628 3988 
L 628 4550 
Q 988 4650 1302 4700 
Q 1616 4750 1894 4750 
Q 2613 4750 3031 4423 
Q 3450 4097 3450 3541 
Q 3450 3153 3228 2886 
Q 3006 2619 2597 2516 
z
" transform="scale(0.015625)"/>
       </defs>
       <use xlink:href="#DejaVuSans-33"/>
       <use xlink:href="#DejaVuSans-30" x="63.623047"/>
      </g>
     </g>
    </g>
    <g id="ytick_5">
     <g id="line2d_11">
      <g>
       <use xlink:href="#mbace5c2ce9" x="40.603125" y="22.12236" style="stroke: #000000; stroke-width: 0.8"/>
      </g>
     </g>
     <g id="text_12">
      <!-- 40 -->
      <g transform="translate(20.878125 25.921579) scale(0.1 -0.1)">
       <use xlink:href="#DejaVuSans-34"/>
       <use xlink:href="#DejaVuSans-30" x="63.623047"/>
      </g>
     </g>
    </g>
    <g id="text_13">
     <!-- [counts] -->
     <g transform="translate(14.798438 145.4325) rotate(-90) scale(0.1 -0.1)">
      <defs>
       <path id="DejaVuSans-63" d="M 3122 3366 
L 3122 2828 
Q 2878 2963 2633 3030 
Q 2388 3097 2138 3097 
Q 1578 3097 1268 2742 
Q 959 2388 959 1747 
Q 959 1106 1268 751 
Q 1578 397 2138 397 
Q 2388 397 2633 464 
Q 2878 531 3122 666 
L 3122 134 
Q 2881 22 2623 -34 
Q 2366 -91 2075 -91 
Q 1284 -91 818 406 
Q 353 903 353 1747 
Q 353 2603 823 3093 
Q 1294 3584 2113 3584 
Q 2378 3584 2631 3529 
Q 2884 3475 3122 3366 
z
" transform="scale(0.015625)"/>
       <path id="DejaVuSans-75" d="M 544 1381 
L 544 3500 
L 1119 3500 
L 1119 1403 
Q 1119 906 1312 657 
Q 1506 409 1894 409 
Q 2359 409 2629 706 
Q 2900 1003 2900 1516 
L 2900 3500 
L 3475 3500 
L 3475 0 
L 2900 0 
L 2900 538 
Q 2691 219 2414 64 
Q 2138 -91 1772 -91 
Q 1169 -91 856 284 
Q 544 659 544 1381 
z
M 1991 3584 
L 1991 3584 
z
" transform="scale(0.015625)"/>
       <path id="DejaVuSans-6e" d="M 3513 2113 
L 3513 0 
L 2938 0 
L 2938 2094 
Q 2938 2591 2744 2837 
Q 2550 3084 2163 3084 
Q 1697 3084 1428 2787 
Q 1159 2491 1159 1978 
L 1159 0 
L 581 0 
L 581 3500 
L 1159 3500 
L 1159 2956 
Q 1366 3272 1645 3428 
Q 1925 3584 2291 3584 
Q 2894 3584 3203 3211 
Q 3513 2838 3513 2113 
z
" transform="scale(0.015625)"/>
      </defs>
      <use xlink:href="#DejaVuSans-5b"/>
      <use xlink:href="#DejaVuSans-63" x="39.013672"/>
      <use xlink:href="#DejaVuSans-6f" x="93.994141"/>
      <use xlink:href="#DejaVuSans-75" x="155.175781"/>
      <use xlink:href="#DejaVuSans-6e" x="218.554688"/>
      <use xlink:href="#DejaVuSans-74" x="281.933594"/>
      <use xlink:href="#DejaVuSans-73" x="321.142578"/>
      <use xlink:href="#DejaVuSans-5d" x="373.242188"/>
     </g>
    </g>
   </g>
   <g id="patch_3">
    <path d="M 40.603125 242.44 
L 40.603125 7.2 
" style="fill: none; stroke: #000000; stroke-width: 0.8; stroke-linejoin: miter; stroke-linecap: square"/>
   </g>
   <g id="patch_4">
    <path d="M 413.198308 242.44 
L 413.198308 7.2 
" style="fill: none; stroke: #000000; stroke-width: 0.8; stroke-linejoin: miter; stroke-linecap: square"/>
   </g>
   <g id="patch_5">
    <path d="M 40.603125 242.44 
L 413.198308 242.44 
" style="fill: none; stroke: #000000; stroke-width: 0.8; stroke-linejoin: miter; stroke-linecap: square"/>
   </g>
   <g id="patch_6">
    <path d="M 40.603125 7.2 
L 413.198308 7.2 
" style="fill: none; stroke: #000000; stroke-width: 0.8; stroke-linejoin: miter; stroke-linecap: square"/>
   </g>
   <g id="legend_1">
    <g id="patch_7">
     <path d="M 331.97487 29.878125 
L 406.198308 29.878125 
Q 408.198308 29.878125 408.198308 27.878125 
L 408.198308 14.2 
Q 408.198308 12.2 406.198308 12.2 
L 331.97487 12.2 
Q 329.97487 12.2 329.97487 14.2 
L 329.97487 27.878125 
Q 329.97487 29.878125 331.97487 29.878125 
z
" style="fill: #ffffff; opacity: 0.8; stroke: #cccccc; stroke-linejoin: miter"/>
    </g>
    <g id="line2d_12">
     <path d="M 333.97487 20.298437 
L 333.97487 20.298437 
L 343.97487 20.298437 
L 343.97487 20.298437 
L 353.97487 20.298437 
" style="fill: none; stroke: #1f77b4; stroke-width: 1.5; stroke-linecap: square"/>
    </g>
    <g id="text_14">
     <!-- detector -->
     <g transform="translate(361.97487 23.798437) scale(0.1 -0.1)">
      <defs>
       <path id="DejaVuSans-64" d="M 2906 2969 
L 2906 4863 
L 3481 4863 
L 3481 0 
L 2906 0 
L 2906 525 
Q 2725 213 2448 61 
Q 2172 -91 1784 -91 
Q 1150 -91 751 415 
Q 353 922 353 1747 
Q 353 2572 751 3078 
Q 1150 3584 1784 3584 
Q 2172 3584 2448 3432 
Q 2725 3281 2906 2969 
z
M 947 1747 
Q 947 1113 1208 752 
Q 1469 391 1925 391 
Q 2381 391 2643 752 
Q 2906 1113 2906 1747 
Q 2906 2381 2643 2742 
Q 2381 3103 1925 3103 
Q 1469 3103 1208 2742 
Q 947 2381 947 1747 
z
" transform="scale(0.015625)"/>
       <path id="DejaVuSans-65" d="M 3597 1894 
L 3597 1613 
L 953 1613 
Q 991 1019 1311 708 
Q 1631 397 2203 397 
Q 2534 397 2845 478 
Q 3156 559 3463 722 
L 3463 178 
Q 3153 47 2828 -22 
Q 2503 -91 2169 -91 
Q 1331 -91 842 396 
Q 353 884 353 1716 
Q 353 2575 817 3079 
Q 1281 3584 2069 3584 
Q 2775 3584 3186 3129 
Q 3597 2675 3597 1894 
z
M 3022 2063 
Q 3016 2534 2758 2815 
Q 2500 3097 2075 3097 
Q 1594 3097 1305 2825 
Q 1016 2553 972 2059 
L 3022 2063 
z
" transform="scale(0.015625)"/>
       <path id="DejaVuSans-72" d="M 2631 2963 
Q 2534 3019 2420 3045 
Q 2306 3072 2169 3072 
Q 1681 3072 1420 2755 
Q 1159 2438 1159 1844 
L 1159 0 
L 581 0 
L 581 3500 
L 1159 3500 
L 1159 2956 
Q 1341 3275 1631 3429 
Q 1922 3584 2338 3584 
Q 2397 3584 2469 3576 
Q 2541 3569 2628 3553 
L 2631 2963 
z
" transform="scale(0.015625)"/>
      </defs>
      <use xlink:href="#DejaVuSans-64"/>
      <use xlink:href="#DejaVuSans-65" x="63.476562"/>
      <use xlink:href="#DejaVuSans-74" x="125"/>
      <use xlink:href="#DejaVuSans-65" x="164.208984"/>
      <use xlink:href="#DejaVuSans-63" x="225.732422"/>
      <use xlink:href="#DejaVuSans-74" x="280.712891"/>
      <use xlink:href="#DejaVuSans-6f" x="319.921875"/>
      <use xlink:href="#DejaVuSans-72" x="381.103516"/>
     </g>
    </g>
   </g>
   <g id="line2d_13">
    <path d="M 57.53927 230.697697 
L 59.232884 230.697697 
L 59.232884 225.483313 
L 62.620113 225.483313 
L 62.620113 230.697697 
L 79.556258 230.697697 
L 79.556258 225.483313 
L 81.249872 225.483313 
L 81.249872 230.697697 
L 86.330716 230.697697 
L 86.330716 225.483313 
L 88.02433 225.483313 
L 88.02433 220.26893 
L 89.717945 220.26893 
L 89.717945 230.697697 
L 93.105173 230.697697 
L 93.105173 220.297609 
L 94.798788 220.297609 
L 94.798788 230.669017 
L 98.186017 230.697697 
L 98.186017 225.515903 
L 99.879631 225.515903 
L 99.879631 220.23634 
L 104.960475 220.341931 
L 104.960475 209.767162 
L 106.654089 209.767162 
L 106.654089 199.450504 
L 110.041318 199.4127 
L 110.041318 194.198316 
L 111.734933 194.198316 
L 111.734933 199.369681 
L 113.428547 199.369681 
L 113.428547 183.901213 
L 115.122162 183.901213 
L 115.122162 173.434642 
L 116.815776 173.434642 
L 116.815776 167.990825 
L 118.50939 167.990825 
L 118.50939 162.913319 
L 121.896619 162.863783 
L 121.896619 147.421386 
L 123.590234 147.421386 
L 123.590234 131.629626 
L 125.283848 131.629626 
L 125.283848 157.541201 
L 126.977463 157.541201 
L 126.977463 121.525455 
L 128.671077 121.525455 
L 128.671077 152.210797 
L 130.364692 152.210797 
L 130.364692 116.098585 
L 132.058306 116.098585 
L 132.058306 131.453641 
L 133.751921 131.453641 
L 133.751921 85.116022 
L 135.445535 85.116022 
L 135.445535 146.971646 
L 137.13915 146.971646 
L 137.13915 48.698769 
L 138.832764 48.698769 
L 138.832764 115.67622 
L 140.526378 115.67622 
L 140.526378 141.865461 
L 142.219993 141.865461 
L 142.219993 126.413939 
L 143.913607 126.413939 
L 143.913607 178.489986 
L 145.607222 178.489986 
L 145.607222 147.270169 
L 147.300836 147.270169 
L 147.300836 147.410958 
L 148.994451 147.410958 
L 148.994451 173.1296 
L 150.688065 173.1296 
L 150.688065 157.916637 
L 152.38168 157.916637 
L 152.38168 115.986476 
L 154.075294 115.986476 
L 154.075294 141.831567 
L 155.768909 141.831567 
L 155.768909 162.912016 
L 157.462523 162.912016 
L 157.462523 136.918315 
L 159.156138 136.918315 
L 159.156138 100.658796 
L 160.849752 100.658796 
L 160.849752 142.061 
L 162.543367 142.061 
L 162.543367 126.253597 
L 164.236981 126.253597 
L 164.236981 116.236766 
L 165.930595 116.236766 
L 165.930595 151.897934 
L 167.62421 151.897934 
L 167.62421 126.840215 
L 169.317824 126.840215 
L 169.317824 89.828522 
L 171.011439 89.828522 
L 171.011439 126.415243 
L 172.705053 126.415243 
L 172.705053 173.254745 
L 174.398668 173.254745 
L 174.398668 131.445819 
L 176.092282 131.445819 
L 176.092282 136.932654 
L 177.785897 136.932654 
L 177.785897 116.359304 
L 179.479511 116.359304 
L 179.479511 146.989896 
L 181.173126 146.989896 
L 181.173126 173.053992 
L 182.86674 173.053992 
L 182.86674 142.346488 
L 184.560355 142.346488 
L 184.560355 178.359627 
L 186.253969 178.359627 
L 186.253969 168.327153 
L 187.947584 168.327153 
L 187.947584 141.853728 
L 189.641198 141.853728 
L 189.641198 199.515684 
L 191.334812 199.515684 
L 191.334812 188.776661 
L 193.028427 188.776661 
L 193.028427 168.441869 
L 194.722041 168.441869 
L 194.722041 194.307818 
L 196.415656 194.307818 
L 196.415656 188.771447 
L 198.10927 188.771447 
L 198.10927 152.484553 
L 199.802885 152.484553 
L 199.802885 147.380975 
L 201.496499 147.380975 
L 201.496499 162.914623 
L 203.190114 162.914623 
L 203.190114 167.788768 
L 204.883728 167.788768 
L 204.883728 184.112395 
L 206.577343 184.112395 
L 206.577343 178.441753 
L 208.270957 178.441753 
L 208.270957 173.576734 
L 209.964572 173.576734 
L 209.964572 199.060729 
L 211.658186 199.060729 
L 211.658186 188.983933 
L 213.351801 188.983933 
L 213.351801 199.291465 
L 215.045415 199.291465 
L 215.045415 142.298255 
L 216.739029 142.298255 
L 216.739029 199.290162 
L 218.432644 199.290162 
L 218.432644 173.465928 
L 220.126258 173.465928 
L 220.126258 173.342086 
L 221.819873 173.342086 
L 221.819873 194.19962 
L 223.513487 194.19962 
L 223.513487 179.072694 
L 225.207102 179.072694 
L 225.207102 198.897779 
L 226.900716 198.897779 
L 226.900716 173.473749 
L 228.594331 173.473749 
L 228.594331 204.363757 
L 230.287945 204.363757 
L 230.287945 178.823707 
L 231.98156 178.823707 
L 231.98156 188.715392 
L 233.675174 188.715392 
L 233.675174 184.043305 
L 235.368789 184.043305 
L 235.368789 199.138945 
L 237.062403 199.138945 
L 237.062403 194.198316 
L 238.756018 194.198316 
L 238.756018 183.910338 
L 240.449632 183.910338 
L 240.449632 193.915436 
L 242.143246 193.915436 
L 242.143246 199.841583 
L 243.836861 199.841583 
L 243.836861 178.702472 
L 245.530475 178.702472 
L 245.530475 188.549835 
L 247.22409 188.549835 
L 247.22409 178.702472 
L 248.917704 178.702472 
L 248.917704 199.116783 
L 250.611319 199.116783 
L 250.611319 199.861137 
L 252.304933 199.861137 
L 252.304933 214.90724 
L 253.998548 214.90724 
L 253.998548 209.690249 
L 255.692162 209.690249 
L 255.692162 204.473259 
L 257.385777 204.473259 
L 257.385777 215.054546 
L 259.079391 215.054546 
L 259.079391 194.666307 
L 260.773006 194.666307 
L 260.773006 204.156485 
L 262.46662 204.156485 
L 262.46662 209.999202 
L 264.160235 209.999202 
L 264.160235 194.358659 
L 265.853849 194.358659 
L 265.853849 209.681124 
L 267.547463 209.681124 
L 267.547463 225.321667 
L 269.241078 225.321667 
L 269.241078 199.575649 
L 270.934692 199.575649 
L 270.934692 225.31906 
L 272.628307 225.31906 
L 272.628307 199.745117 
L 274.321921 199.745117 
L 274.321921 209.674606 
L 276.015536 209.674606 
L 276.015536 225.315149 
L 277.70915 225.315149 
L 277.70915 220.26893 
L 279.402765 220.26893 
L 279.402765 194.369087 
L 281.096379 194.369087 
L 281.096379 230.525622 
L 282.789994 230.525622 
L 282.789994 194.371695 
L 284.483608 194.371695 
L 284.483608 225.484617 
L 286.177223 225.484617 
L 286.177223 209.664178 
L 287.870837 209.664178 
L 287.870837 210.197348 
L 289.564452 210.197348 
L 289.564452 204.44849 
L 291.258066 204.44849 
L 291.258066 204.627083 
L 292.95168 204.627083 
L 292.95168 209.841467 
L 294.645295 209.841467 
L 294.645295 220.086426 
L 296.338909 220.086426 
L 296.338909 230.697697 
L 298.032524 230.697697 
L 298.032524 225.483313 
L 299.726138 225.483313 
L 299.726138 220.456648 
L 301.419753 220.456648 
L 301.419753 225.295595 
L 303.113367 225.295595 
L 303.113367 204.816105 
L 304.806982 204.816105 
L 304.806982 230.507372 
L 306.500596 230.507372 
L 306.500596 209.840163 
L 308.194211 209.840163 
L 308.194211 220.26893 
L 309.887825 220.26893 
L 309.887825 230.697697 
L 311.58144 230.697697 
L 311.58144 225.483313 
L 313.275054 225.483313 
L 313.275054 220.467076 
L 314.968669 220.467076 
L 314.968669 230.49955 
L 316.662283 230.49955 
L 316.662283 225.483313 
L 318.355897 225.483313 
L 318.355897 230.697697 
L 320.049512 230.697697 
L 320.049512 215.461268 
L 321.743126 215.461268 
L 321.743126 230.290975 
L 323.436741 230.290975 
L 323.436741 225.483313 
L 326.82397 225.483313 
L 326.82397 230.697697 
L 328.517584 230.697697 
L 328.517584 225.693192 
L 330.211199 225.693192 
L 330.211199 225.273434 
L 331.904813 225.273434 
L 331.904813 225.695799 
L 333.598428 225.695799 
L 333.598428 225.270827 
L 335.292042 225.270827 
L 335.292042 225.698407 
L 336.985657 225.698407 
L 336.985657 220.053836 
L 338.679271 220.053836 
L 338.679271 210.275564 
L 340.372885 210.275564 
L 340.372885 225.047912 
L 342.0665 225.047912 
L 342.0665 220.26893 
L 343.760114 220.26893 
L 343.760114 215.054546 
L 345.453729 215.054546 
L 345.453729 230.697697 
L 348.840958 230.697697 
L 348.840958 225.483313 
L 352.228187 225.483313 
L 352.228187 230.697697 
L 362.389874 230.697697 
L 362.389874 225.719264 
L 364.083488 225.719264 
L 364.083488 230.461746 
L 365.777102 230.461746 
L 365.777102 225.483313 
L 367.470717 225.483313 
L 367.470717 230.697697 
L 377.632404 230.697697 
L 377.632404 220.26893 
L 379.326018 220.26893 
L 379.326018 230.697697 
L 382.713247 230.697697 
L 382.713247 225.483313 
L 384.406862 225.483313 
L 384.406862 220.26893 
L 386.100476 220.26893 
L 386.100476 215.054546 
L 387.794091 215.054546 
L 387.794091 220.26893 
L 389.487705 220.26893 
L 389.487705 230.697697 
L 391.181319 230.697697 
L 391.181319 215.054546 
L 392.874934 215.054546 
L 392.874934 230.697697 
L 396.262163 230.697697 
L 396.262163 230.697697 
" clip-path="url(#p5f35d8b02e)" style="fill: none; stroke: #1f77b4; stroke-width: 1.5; stroke-linecap: square"/>
   </g>
   <g id="LineCollection_1">
    <path d="M 58.386077 230.697697 
L 58.386077 230.697697 
" clip-path="url(#p5f35d8b02e)" style="fill: none; stroke: #1f77b4; stroke-width: 1.5"/>
    <path d="M 60.079691 230.697697 
L 60.079691 220.26893 
" clip-path="url(#p5f35d8b02e)" style="fill: none; stroke: #1f77b4; stroke-width: 1.5"/>
    <path d="M 61.773306 230.697697 
L 61.773306 220.26893 
" clip-path="url(#p5f35d8b02e)" style="fill: none; stroke: #1f77b4; stroke-width: 1.5"/>
    <path d="M 63.46692 230.697697 
L 63.46692 230.697697 
" clip-path="url(#p5f35d8b02e)" style="fill: none; stroke: #1f77b4; stroke-width: 1.5"/>
    <path d="M 65.160535 230.697697 
L 65.160535 230.697697 
" clip-path="url(#p5f35d8b02e)" style="fill: none; stroke: #1f77b4; stroke-width: 1.5"/>
    <path d="M 66.854149 230.697697 
L 66.854149 230.697697 
" clip-path="url(#p5f35d8b02e)" style="fill: none; stroke: #1f77b4; stroke-width: 1.5"/>
    <path d="M 68.547764 230.697697 
L 68.547764 230.697697 
" clip-path="url(#p5f35d8b02e)" style="fill: none; stroke: #1f77b4; stroke-width: 1.5"/>
    <path d="M 70.241378 230.697697 
L 70.241378 230.697697 
" clip-path="url(#p5f35d8b02e)" style="fill: none; stroke: #1f77b4; stroke-width: 1.5"/>
    <path d="M 71.934993 230.697697 
L 71.934993 230.697697 
" clip-path="url(#p5f35d8b02e)" style="fill: none; stroke: #1f77b4; stroke-width: 1.5"/>
    <path d="M 73.628607 230.697697 
L 73.628607 230.697697 
" clip-path="url(#p5f35d8b02e)" style="fill: none; stroke: #1f77b4; stroke-width: 1.5"/>
    <path d="M 75.322222 230.697697 
L 75.322222 230.697697 
" clip-path="url(#p5f35d8b02e)" style="fill: none; stroke: #1f77b4; stroke-width: 1.5"/>
    <path d="M 77.015836 230.697697 
L 77.015836 230.697697 
" clip-path="url(#p5f35d8b02e)" style="fill: none; stroke: #1f77b4; stroke-width: 1.5"/>
    <path d="M 78.70945 230.697697 
L 78.70945 230.697697 
" clip-path="url(#p5f35d8b02e)" style="fill: none; stroke: #1f77b4; stroke-width: 1.5"/>
    <path d="M 80.403065 230.697697 
L 80.403065 220.26893 
" clip-path="url(#p5f35d8b02e)" style="fill: none; stroke: #1f77b4; stroke-width: 1.5"/>
    <path d="M 82.096679 230.697697 
L 82.096679 230.697697 
" clip-path="url(#p5f35d8b02e)" style="fill: none; stroke: #1f77b4; stroke-width: 1.5"/>
    <path d="M 83.790294 230.697697 
L 83.790294 230.697697 
" clip-path="url(#p5f35d8b02e)" style="fill: none; stroke: #1f77b4; stroke-width: 1.5"/>
    <path d="M 85.483908 230.697697 
L 85.483908 230.697697 
" clip-path="url(#p5f35d8b02e)" style="fill: none; stroke: #1f77b4; stroke-width: 1.5"/>
    <path d="M 87.177523 230.697697 
L 87.177523 220.26893 
" clip-path="url(#p5f35d8b02e)" style="fill: none; stroke: #1f77b4; stroke-width: 1.5"/>
    <path d="M 88.871137 227.643182 
L 88.871137 212.894678 
" clip-path="url(#p5f35d8b02e)" style="fill: none; stroke: #1f77b4; stroke-width: 1.5"/>
    <path d="M 90.564752 230.697697 
L 90.564752 230.697697 
" clip-path="url(#p5f35d8b02e)" style="fill: none; stroke: #1f77b4; stroke-width: 1.5"/>
    <path d="M 92.258366 230.697697 
L 92.258366 230.697697 
" clip-path="url(#p5f35d8b02e)" style="fill: none; stroke: #1f77b4; stroke-width: 1.5"/>
    <path d="M 93.951981 227.661714 
L 93.951981 212.933504 
" clip-path="url(#p5f35d8b02e)" style="fill: none; stroke: #1f77b4; stroke-width: 1.5"/>
    <path d="M 95.645595 231.055727 
L 95.645595 230.282308 
" clip-path="url(#p5f35d8b02e)" style="fill: none; stroke: #1f77b4; stroke-width: 1.5"/>
    <path d="M 97.33921 230.697697 
L 97.33921 230.697697 
" clip-path="url(#p5f35d8b02e)" style="fill: none; stroke: #1f77b4; stroke-width: 1.5"/>
    <path d="M 99.032824 230.713966 
L 99.032824 220.31784 
" clip-path="url(#p5f35d8b02e)" style="fill: none; stroke: #1f77b4; stroke-width: 1.5"/>
    <path d="M 100.726439 227.622105 
L 100.726439 212.850575 
" clip-path="url(#p5f35d8b02e)" style="fill: none; stroke: #1f77b4; stroke-width: 1.5"/>
    <path d="M 102.420053 227.643182 
L 102.420053 212.894678 
" clip-path="url(#p5f35d8b02e)" style="fill: none; stroke: #1f77b4; stroke-width: 1.5"/>
    <path d="M 104.113667 227.690328 
L 104.113667 212.993535 
" clip-path="url(#p5f35d8b02e)" style="fill: none; stroke: #1f77b4; stroke-width: 1.5"/>
    <path d="M 105.807282 220.214163 
L 105.807282 199.32016 
" clip-path="url(#p5f35d8b02e)" style="fill: none; stroke: #1f77b4; stroke-width: 1.5"/>
    <path d="M 107.500896 212.215097 
L 107.500896 186.685911 
" clip-path="url(#p5f35d8b02e)" style="fill: none; stroke: #1f77b4; stroke-width: 1.5"/>
    <path d="M 109.194511 212.185012 
L 109.194511 186.640387 
" clip-path="url(#p5f35d8b02e)" style="fill: none; stroke: #1f77b4; stroke-width: 1.5"/>
    <path d="M 110.888125 207.994032 
L 110.888125 180.402601 
" clip-path="url(#p5f35d8b02e)" style="fill: none; stroke: #1f77b4; stroke-width: 1.5"/>
    <path d="M 112.58174 212.150772 
L 112.58174 186.58859 
" clip-path="url(#p5f35d8b02e)" style="fill: none; stroke: #1f77b4; stroke-width: 1.5"/>
    <path d="M 114.275354 199.522186 
L 114.275354 168.280239 
" clip-path="url(#p5f35d8b02e)" style="fill: none; stroke: #1f77b4; stroke-width: 1.5"/>
    <path d="M 115.968969 190.714443 
L 115.968969 156.154841 
" clip-path="url(#p5f35d8b02e)" style="fill: none; stroke: #1f77b4; stroke-width: 1.5"/>
    <path d="M 117.662583 186.073349 
L 117.662583 149.908301 
" clip-path="url(#p5f35d8b02e)" style="fill: none; stroke: #1f77b4; stroke-width: 1.5"/>
    <path d="M 119.356198 181.713685 
L 119.356198 144.112954 
" clip-path="url(#p5f35d8b02e)" style="fill: none; stroke: #1f77b4; stroke-width: 1.5"/>
    <path d="M 121.049812 181.671016 
L 121.049812 144.056549 
" clip-path="url(#p5f35d8b02e)" style="fill: none; stroke: #1f77b4; stroke-width: 1.5"/>
    <path d="M 122.743427 168.259683 
L 122.743427 126.58309 
" clip-path="url(#p5f35d8b02e)" style="fill: none; stroke: #1f77b4; stroke-width: 1.5"/>
    <path d="M 124.437041 154.357998 
L 124.437041 108.901254 
" clip-path="url(#p5f35d8b02e)" style="fill: none; stroke: #1f77b4; stroke-width: 1.5"/>
    <path d="M 126.130656 177.072356 
L 126.130656 138.010046 
" clip-path="url(#p5f35d8b02e)" style="fill: none; stroke: #1f77b4; stroke-width: 1.5"/>
    <path d="M 127.82427 145.384749 
L 127.82427 97.66616 
" clip-path="url(#p5f35d8b02e)" style="fill: none; stroke: #1f77b4; stroke-width: 1.5"/>
    <path d="M 129.517884 172.440992 
L 129.517884 131.980603 
" clip-path="url(#p5f35d8b02e)" style="fill: none; stroke: #1f77b4; stroke-width: 1.5"/>
    <path d="M 131.211499 140.543701 
L 131.211499 91.653469 
" clip-path="url(#p5f35d8b02e)" style="fill: none; stroke: #1f77b4; stroke-width: 1.5"/>
    <path d="M 132.905113 154.202191 
L 132.905113 108.70509 
" clip-path="url(#p5f35d8b02e)" style="fill: none; stroke: #1f77b4; stroke-width: 1.5"/>
    <path d="M 134.598728 112.668131 
L 134.598728 57.563914 
" clip-path="url(#p5f35d8b02e)" style="fill: none; stroke: #1f77b4; stroke-width: 1.5"/>
    <path d="M 136.292342 167.866136 
L 136.292342 126.077155 
" clip-path="url(#p5f35d8b02e)" style="fill: none; stroke: #1f77b4; stroke-width: 1.5"/>
    <path d="M 137.985957 79.50481 
L 137.985957 17.892727 
" clip-path="url(#p5f35d8b02e)" style="fill: none; stroke: #1f77b4; stroke-width: 1.5"/>
    <path d="M 139.679571 140.166342 
L 139.679571 91.186098 
" clip-path="url(#p5f35d8b02e)" style="fill: none; stroke: #1f77b4; stroke-width: 1.5"/>
    <path d="M 141.373186 163.387666 
L 141.373186 120.343255 
" clip-path="url(#p5f35d8b02e)" style="fill: none; stroke: #1f77b4; stroke-width: 1.5"/>
    <path d="M 143.0668 149.732933 
L 143.0668 103.094945 
" clip-path="url(#p5f35d8b02e)" style="fill: none; stroke: #1f77b4; stroke-width: 1.5"/>
    <path d="M 144.760415 194.989411 
L 144.760415 161.990561 
" clip-path="url(#p5f35d8b02e)" style="fill: none; stroke: #1f77b4; stroke-width: 1.5"/>
    <path d="M 146.454029 168.127377 
L 146.454029 126.412961 
" clip-path="url(#p5f35d8b02e)" style="fill: none; stroke: #1f77b4; stroke-width: 1.5"/>
    <path d="M 148.147644 168.250559 
L 148.147644 126.571356 
" clip-path="url(#p5f35d8b02e)" style="fill: none; stroke: #1f77b4; stroke-width: 1.5"/>
    <path d="M 149.841258 190.455365 
L 149.841258 155.803835 
" clip-path="url(#p5f35d8b02e)" style="fill: none; stroke: #1f77b4; stroke-width: 1.5"/>
    <path d="M 151.534873 177.397611 
L 151.534873 138.435662 
" clip-path="url(#p5f35d8b02e)" style="fill: none; stroke: #1f77b4; stroke-width: 1.5"/>
    <path d="M 153.228487 140.443546 
L 153.228487 91.529406 
" clip-path="url(#p5f35d8b02e)" style="fill: none; stroke: #1f77b4; stroke-width: 1.5"/>
    <path d="M 154.922101 163.357878 
L 154.922101 120.305256 
" clip-path="url(#p5f35d8b02e)" style="fill: none; stroke: #1f77b4; stroke-width: 1.5"/>
    <path d="M 156.615716 181.712562 
L 156.615716 144.11147 
" clip-path="url(#p5f35d8b02e)" style="fill: none; stroke: #1f77b4; stroke-width: 1.5"/>
    <path d="M 158.30933 159.031696 
L 158.30933 114.804933 
" clip-path="url(#p5f35d8b02e)" style="fill: none; stroke: #1f77b4; stroke-width: 1.5"/>
    <path d="M 160.002945 126.698625 
L 160.002945 74.618967 
" clip-path="url(#p5f35d8b02e)" style="fill: none; stroke: #1f77b4; stroke-width: 1.5"/>
    <path d="M 161.696559 163.559505 
L 161.696559 120.562495 
" clip-path="url(#p5f35d8b02e)" style="fill: none; stroke: #1f77b4; stroke-width: 1.5"/>
    <path d="M 163.390174 149.590511 
L 163.390174 102.916682 
" clip-path="url(#p5f35d8b02e)" style="fill: none; stroke: #1f77b4; stroke-width: 1.5"/>
    <path d="M 165.083788 140.66714 
L 165.083788 91.806392 
" clip-path="url(#p5f35d8b02e)" style="fill: none; stroke: #1f77b4; stroke-width: 1.5"/>
    <path d="M 166.777403 172.16841 
L 166.777403 131.627459 
" clip-path="url(#p5f35d8b02e)" style="fill: none; stroke: #1f77b4; stroke-width: 1.5"/>
    <path d="M 168.471017 150.1115 
L 168.471017 103.568929 
" clip-path="url(#p5f35d8b02e)" style="fill: none; stroke: #1f77b4; stroke-width: 1.5"/>
    <path d="M 170.164632 116.931029 
L 170.164632 62.726014 
" clip-path="url(#p5f35d8b02e)" style="fill: none; stroke: #1f77b4; stroke-width: 1.5"/>
    <path d="M 171.858246 149.734091 
L 171.858246 103.096394 
" clip-path="url(#p5f35d8b02e)" style="fill: none; stroke: #1f77b4; stroke-width: 1.5"/>
    <path d="M 173.551861 190.561668 
L 173.551861 155.947823 
" clip-path="url(#p5f35d8b02e)" style="fill: none; stroke: #1f77b4; stroke-width: 1.5"/>
    <path d="M 175.245475 154.195266 
L 175.245475 108.696372 
" clip-path="url(#p5f35d8b02e)" style="fill: none; stroke: #1f77b4; stroke-width: 1.5"/>
    <path d="M 176.93909 159.044345 
L 176.93909 114.820963 
" clip-path="url(#p5f35d8b02e)" style="fill: none; stroke: #1f77b4; stroke-width: 1.5"/>
    <path d="M 178.632704 140.776598 
L 178.632704 91.942011 
" clip-path="url(#p5f35d8b02e)" style="fill: none; stroke: #1f77b4; stroke-width: 1.5"/>
    <path d="M 180.326318 167.882109 
L 180.326318 126.097683 
" clip-path="url(#p5f35d8b02e)" style="fill: none; stroke: #1f77b4; stroke-width: 1.5"/>
    <path d="M 182.019933 190.39113 
L 182.019933 155.716853 
" clip-path="url(#p5f35d8b02e)" style="fill: none; stroke: #1f77b4; stroke-width: 1.5"/>
    <path d="M 183.713547 163.810343 
L 183.713547 120.882632 
" clip-path="url(#p5f35d8b02e)" style="fill: none; stroke: #1f77b4; stroke-width: 1.5"/>
    <path d="M 185.407162 194.879638 
L 185.407162 161.839616 
" clip-path="url(#p5f35d8b02e)" style="fill: none; stroke: #1f77b4; stroke-width: 1.5"/>
    <path d="M 187.100776 186.361119 
L 187.100776 150.293187 
" clip-path="url(#p5f35d8b02e)" style="fill: none; stroke: #1f77b4; stroke-width: 1.5"/>
    <path d="M 188.794391 163.377355 
L 188.794391 120.330102 
" clip-path="url(#p5f35d8b02e)" style="fill: none; stroke: #1f77b4; stroke-width: 1.5"/>
    <path d="M 190.488005 212.266957 
L 190.488005 186.764411 
" clip-path="url(#p5f35d8b02e)" style="fill: none; stroke: #1f77b4; stroke-width: 1.5"/>
    <path d="M 192.18162 203.56153 
L 192.18162 173.991792 
" clip-path="url(#p5f35d8b02e)" style="fill: none; stroke: #1f77b4; stroke-width: 1.5"/>
    <path d="M 193.875234 186.459243 
L 193.875234 150.424496 
" clip-path="url(#p5f35d8b02e)" style="fill: none; stroke: #1f77b4; stroke-width: 1.5"/>
    <path d="M 195.568849 208.082824 
L 195.568849 180.532813 
" clip-path="url(#p5f35d8b02e)" style="fill: none; stroke: #1f77b4; stroke-width: 1.5"/>
    <path d="M 197.262463 203.557235 
L 197.262463 173.985658 
" clip-path="url(#p5f35d8b02e)" style="fill: none; stroke: #1f77b4; stroke-width: 1.5"/>
    <path d="M 198.956078 172.679436 
L 198.956078 132.289669 
" clip-path="url(#p5f35d8b02e)" style="fill: none; stroke: #1f77b4; stroke-width: 1.5"/>
    <path d="M 200.649692 168.224327 
L 200.649692 126.537623 
" clip-path="url(#p5f35d8b02e)" style="fill: none; stroke: #1f77b4; stroke-width: 1.5"/>
    <path d="M 202.343307 181.714807 
L 202.343307 144.114439 
" clip-path="url(#p5f35d8b02e)" style="fill: none; stroke: #1f77b4; stroke-width: 1.5"/>
    <path d="M 204.036921 185.900402 
L 204.036921 149.677134 
" clip-path="url(#p5f35d8b02e)" style="fill: none; stroke: #1f77b4; stroke-width: 1.5"/>
    <path d="M 205.730535 199.698082 
L 205.730535 168.526709 
" clip-path="url(#p5f35d8b02e)" style="fill: none; stroke: #1f77b4; stroke-width: 1.5"/>
    <path d="M 207.42415 194.948798 
L 207.42415 161.934709 
" clip-path="url(#p5f35d8b02e)" style="fill: none; stroke: #1f77b4; stroke-width: 1.5"/>
    <path d="M 209.117764 190.835082 
L 209.117764 156.318385 
" clip-path="url(#p5f35d8b02e)" style="fill: none; stroke: #1f77b4; stroke-width: 1.5"/>
    <path d="M 210.811379 211.904688 
L 210.811379 186.21677 
" clip-path="url(#p5f35d8b02e)" style="fill: none; stroke: #1f77b4; stroke-width: 1.5"/>
    <path d="M 212.504993 203.732206 
L 212.504993 174.23566 
" clip-path="url(#p5f35d8b02e)" style="fill: none; stroke: #1f77b4; stroke-width: 1.5"/>
    <path d="M 214.198608 212.088501 
L 214.198608 186.494429 
" clip-path="url(#p5f35d8b02e)" style="fill: none; stroke: #1f77b4; stroke-width: 1.5"/>
    <path d="M 215.892222 163.767968 
L 215.892222 120.828541 
" clip-path="url(#p5f35d8b02e)" style="fill: none; stroke: #1f77b4; stroke-width: 1.5"/>
    <path d="M 217.585837 212.087463 
L 217.585837 186.49286 
" clip-path="url(#p5f35d8b02e)" style="fill: none; stroke: #1f77b4; stroke-width: 1.5"/>
    <path d="M 219.279451 190.741008 
L 219.279451 156.190848 
" clip-path="url(#p5f35d8b02e)" style="fill: none; stroke: #1f77b4; stroke-width: 1.5"/>
    <path d="M 220.973066 190.635846 
L 220.973066 156.048326 
" clip-path="url(#p5f35d8b02e)" style="fill: none; stroke: #1f77b4; stroke-width: 1.5"/>
    <path d="M 222.66668 207.995089 
L 222.66668 180.404151 
" clip-path="url(#p5f35d8b02e)" style="fill: none; stroke: #1f77b4; stroke-width: 1.5"/>
    <path d="M 224.360295 195.479782 
L 224.360295 162.665605 
" clip-path="url(#p5f35d8b02e)" style="fill: none; stroke: #1f77b4; stroke-width: 1.5"/>
    <path d="M 226.053909 211.774773 
L 226.053909 186.020786 
" clip-path="url(#p5f35d8b02e)" style="fill: none; stroke: #1f77b4; stroke-width: 1.5"/>
    <path d="M 227.747523 190.747649 
L 227.747523 156.19985 
" clip-path="url(#p5f35d8b02e)" style="fill: none; stroke: #1f77b4; stroke-width: 1.5"/>
    <path d="M 229.441138 216.081916 
L 229.441138 192.645597 
" clip-path="url(#p5f35d8b02e)" style="fill: none; stroke: #1f77b4; stroke-width: 1.5"/>
    <path d="M 231.134752 195.270314 
L 231.134752 162.3771 
" clip-path="url(#p5f35d8b02e)" style="fill: none; stroke: #1f77b4; stroke-width: 1.5"/>
    <path d="M 232.828367 203.511062 
L 232.828367 173.919723 
" clip-path="url(#p5f35d8b02e)" style="fill: none; stroke: #1f77b4; stroke-width: 1.5"/>
    <path d="M 234.521981 199.640544 
L 234.521981 168.446065 
" clip-path="url(#p5f35d8b02e)" style="fill: none; stroke: #1f77b4; stroke-width: 1.5"/>
    <path d="M 236.215596 211.967017 
L 236.215596 186.310873 
" clip-path="url(#p5f35d8b02e)" style="fill: none; stroke: #1f77b4; stroke-width: 1.5"/>
    <path d="M 237.90921 207.994032 
L 237.90921 180.402601 
" clip-path="url(#p5f35d8b02e)" style="fill: none; stroke: #1f77b4; stroke-width: 1.5"/>
    <path d="M 239.602825 199.529788 
L 239.602825 168.290888 
" clip-path="url(#p5f35d8b02e)" style="fill: none; stroke: #1f77b4; stroke-width: 1.5"/>
    <path d="M 241.296439 207.764509 
L 241.296439 180.066363 
" clip-path="url(#p5f35d8b02e)" style="fill: none; stroke: #1f77b4; stroke-width: 1.5"/>
    <path d="M 242.990054 212.526046 
L 242.990054 187.157119 
" clip-path="url(#p5f35d8b02e)" style="fill: none; stroke: #1f77b4; stroke-width: 1.5"/>
    <path d="M 244.683668 195.168287 
L 244.683668 162.236658 
" clip-path="url(#p5f35d8b02e)" style="fill: none; stroke: #1f77b4; stroke-width: 1.5"/>
    <path d="M 246.377283 203.374649 
L 246.377283 173.725022 
" clip-path="url(#p5f35d8b02e)" style="fill: none; stroke: #1f77b4; stroke-width: 1.5"/>
    <path d="M 248.070897 195.168287 
L 248.070897 162.236658 
" clip-path="url(#p5f35d8b02e)" style="fill: none; stroke: #1f77b4; stroke-width: 1.5"/>
    <path d="M 249.764512 211.949359 
L 249.764512 186.284208 
" clip-path="url(#p5f35d8b02e)" style="fill: none; stroke: #1f77b4; stroke-width: 1.5"/>
    <path d="M 251.458126 212.54158 
L 251.458126 187.180693 
" clip-path="url(#p5f35d8b02e)" style="fill: none; stroke: #1f77b4; stroke-width: 1.5"/>
    <path d="M 253.15174 223.981241 
L 253.15174 205.833239 
" clip-path="url(#p5f35d8b02e)" style="fill: none; stroke: #1f77b4; stroke-width: 1.5"/>
    <path d="M 254.845355 220.156428 
L 254.845355 199.224071 
" clip-path="url(#p5f35d8b02e)" style="fill: none; stroke: #1f77b4; stroke-width: 1.5"/>
    <path d="M 256.538969 216.16703 
L 256.538969 192.779488 
" clip-path="url(#p5f35d8b02e)" style="fill: none; stroke: #1f77b4; stroke-width: 1.5"/>
    <path d="M 258.232584 224.086123 
L 258.232584 206.022969 
" clip-path="url(#p5f35d8b02e)" style="fill: none; stroke: #1f77b4; stroke-width: 1.5"/>
    <path d="M 259.926198 208.373294 
L 259.926198 180.959321 
" clip-path="url(#p5f35d8b02e)" style="fill: none; stroke: #1f77b4; stroke-width: 1.5"/>
    <path d="M 261.619813 215.92067 
L 261.619813 192.3923 
" clip-path="url(#p5f35d8b02e)" style="fill: none; stroke: #1f77b4; stroke-width: 1.5"/>
    <path d="M 263.313427 220.388133 
L 263.313427 199.610271 
" clip-path="url(#p5f35d8b02e)" style="fill: none; stroke: #1f77b4; stroke-width: 1.5"/>
    <path d="M 265.007042 208.124038 
L 265.007042 180.593279 
" clip-path="url(#p5f35d8b02e)" style="fill: none; stroke: #1f77b4; stroke-width: 1.5"/>
    <path d="M 266.700656 220.149575 
L 266.700656 199.212673 
" clip-path="url(#p5f35d8b02e)" style="fill: none; stroke: #1f77b4; stroke-width: 1.5"/>
    <path d="M 268.394271 230.616257 
L 268.394271 220.027078 
" clip-path="url(#p5f35d8b02e)" style="fill: none; stroke: #1f77b4; stroke-width: 1.5"/>
    <path d="M 270.087885 212.314656 
L 270.087885 186.836643 
" clip-path="url(#p5f35d8b02e)" style="fill: none; stroke: #1f77b4; stroke-width: 1.5"/>
    <path d="M 271.7815 230.614933 
L 271.7815 220.023187 
" clip-path="url(#p5f35d8b02e)" style="fill: none; stroke: #1f77b4; stroke-width: 1.5"/>
    <path d="M 273.475114 212.449392 
L 273.475114 187.040841 
" clip-path="url(#p5f35d8b02e)" style="fill: none; stroke: #1f77b4; stroke-width: 1.5"/>
    <path d="M 275.168729 220.14468 
L 275.168729 199.204532 
" clip-path="url(#p5f35d8b02e)" style="fill: none; stroke: #1f77b4; stroke-width: 1.5"/>
    <path d="M 276.862343 230.612947 
L 276.862343 220.017351 
" clip-path="url(#p5f35d8b02e)" style="fill: none; stroke: #1f77b4; stroke-width: 1.5"/>
    <path d="M 278.555957 227.643182 
L 278.555957 212.894678 
" clip-path="url(#p5f35d8b02e)" style="fill: none; stroke: #1f77b4; stroke-width: 1.5"/>
    <path d="M 280.249572 208.132492 
L 280.249572 180.605683 
" clip-path="url(#p5f35d8b02e)" style="fill: none; stroke: #1f77b4; stroke-width: 1.5"/>
    <path d="M 281.943186 231.472862 
L 281.943186 229.578382 
" clip-path="url(#p5f35d8b02e)" style="fill: none; stroke: #1f77b4; stroke-width: 1.5"/>
    <path d="M 283.636801 208.134605 
L 283.636801 180.608784 
" clip-path="url(#p5f35d8b02e)" style="fill: none; stroke: #1f77b4; stroke-width: 1.5"/>
    <path d="M 285.330415 230.698348 
L 285.330415 220.270885 
" clip-path="url(#p5f35d8b02e)" style="fill: none; stroke: #1f77b4; stroke-width: 1.5"/>
    <path d="M 287.02403 220.136848 
L 287.02403 199.191507 
" clip-path="url(#p5f35d8b02e)" style="fill: none; stroke: #1f77b4; stroke-width: 1.5"/>
    <path d="M 288.717644 220.536433 
L 288.717644 199.858263 
" clip-path="url(#p5f35d8b02e)" style="fill: none; stroke: #1f77b4; stroke-width: 1.5"/>
    <path d="M 290.411259 216.147782 
L 290.411259 192.749199 
" clip-path="url(#p5f35d8b02e)" style="fill: none; stroke: #1f77b4; stroke-width: 1.5"/>
    <path d="M 292.104873 216.286507 
L 292.104873 192.967659 
" clip-path="url(#p5f35d8b02e)" style="fill: none; stroke: #1f77b4; stroke-width: 1.5"/>
    <path d="M 293.798488 220.269907 
L 293.798488 199.413026 
" clip-path="url(#p5f35d8b02e)" style="fill: none; stroke: #1f77b4; stroke-width: 1.5"/>
    <path d="M 295.492102 227.524923 
L 295.492102 212.64793 
" clip-path="url(#p5f35d8b02e)" style="fill: none; stroke: #1f77b4; stroke-width: 1.5"/>
    <path d="M 297.185717 230.697697 
L 297.185717 230.697697 
" clip-path="url(#p5f35d8b02e)" style="fill: none; stroke: #1f77b4; stroke-width: 1.5"/>
    <path d="M 298.879331 230.697697 
L 298.879331 220.26893 
" clip-path="url(#p5f35d8b02e)" style="fill: none; stroke: #1f77b4; stroke-width: 1.5"/>
    <path d="M 300.572946 227.76423 
L 300.572946 213.149065 
" clip-path="url(#p5f35d8b02e)" style="fill: none; stroke: #1f77b4; stroke-width: 1.5"/>
    <path d="M 302.26656 230.603008 
L 302.26656 219.988183 
" clip-path="url(#p5f35d8b02e)" style="fill: none; stroke: #1f77b4; stroke-width: 1.5"/>
    <path d="M 303.960174 216.433184 
L 303.960174 193.199025 
" clip-path="url(#p5f35d8b02e)" style="fill: none; stroke: #1f77b4; stroke-width: 1.5"/>
    <path d="M 305.653789 231.503578 
L 305.653789 229.511165 
" clip-path="url(#p5f35d8b02e)" style="fill: none; stroke: #1f77b4; stroke-width: 1.5"/>
    <path d="M 307.347403 220.26893 
L 307.347403 199.411396 
" clip-path="url(#p5f35d8b02e)" style="fill: none; stroke: #1f77b4; stroke-width: 1.5"/>
    <path d="M 309.041018 227.643182 
L 309.041018 212.894678 
" clip-path="url(#p5f35d8b02e)" style="fill: none; stroke: #1f77b4; stroke-width: 1.5"/>
    <path d="M 310.734632 230.697697 
L 310.734632 230.697697 
" clip-path="url(#p5f35d8b02e)" style="fill: none; stroke: #1f77b4; stroke-width: 1.5"/>
    <path d="M 312.428247 230.697697 
L 312.428247 220.26893 
" clip-path="url(#p5f35d8b02e)" style="fill: none; stroke: #1f77b4; stroke-width: 1.5"/>
    <path d="M 314.121861 227.770937 
L 314.121861 213.163216 
" clip-path="url(#p5f35d8b02e)" style="fill: none; stroke: #1f77b4; stroke-width: 1.5"/>
    <path d="M 315.815476 231.51602 
L 315.815476 229.48308 
" clip-path="url(#p5f35d8b02e)" style="fill: none; stroke: #1f77b4; stroke-width: 1.5"/>
    <path d="M 317.50909 230.697697 
L 317.50909 220.26893 
" clip-path="url(#p5f35d8b02e)" style="fill: none; stroke: #1f77b4; stroke-width: 1.5"/>
    <path d="M 319.202705 230.697697 
L 319.202705 230.697697 
" clip-path="url(#p5f35d8b02e)" style="fill: none; stroke: #1f77b4; stroke-width: 1.5"/>
    <path d="M 320.896319 224.374662 
L 320.896319 206.547875 
" clip-path="url(#p5f35d8b02e)" style="fill: none; stroke: #1f77b4; stroke-width: 1.5"/>
    <path d="M 322.589934 231.747273 
L 322.589934 228.834677 
" clip-path="url(#p5f35d8b02e)" style="fill: none; stroke: #1f77b4; stroke-width: 1.5"/>
    <path d="M 324.283548 230.697697 
L 324.283548 220.26893 
" clip-path="url(#p5f35d8b02e)" style="fill: none; stroke: #1f77b4; stroke-width: 1.5"/>
    <path d="M 325.977163 230.697697 
L 325.977163 220.26893 
" clip-path="url(#p5f35d8b02e)" style="fill: none; stroke: #1f77b4; stroke-width: 1.5"/>
    <path d="M 327.670777 230.697697 
L 327.670777 230.697697 
" clip-path="url(#p5f35d8b02e)" style="fill: none; stroke: #1f77b4; stroke-width: 1.5"/>
    <path d="M 329.364391 230.801558 
L 329.364391 220.584826 
" clip-path="url(#p5f35d8b02e)" style="fill: none; stroke: #1f77b4; stroke-width: 1.5"/>
    <path d="M 331.058006 230.591722 
L 331.058006 219.955147 
" clip-path="url(#p5f35d8b02e)" style="fill: none; stroke: #1f77b4; stroke-width: 1.5"/>
    <path d="M 332.75162 230.802835 
L 332.75162 220.588764 
" clip-path="url(#p5f35d8b02e)" style="fill: none; stroke: #1f77b4; stroke-width: 1.5"/>
    <path d="M 334.445235 230.590393 
L 334.445235 219.951261 
" clip-path="url(#p5f35d8b02e)" style="fill: none; stroke: #1f77b4; stroke-width: 1.5"/>
    <path d="M 336.138849 230.804111 
L 336.138849 220.592702 
" clip-path="url(#p5f35d8b02e)" style="fill: none; stroke: #1f77b4; stroke-width: 1.5"/>
    <path d="M 337.832464 227.503747 
L 337.832464 212.603926 
" clip-path="url(#p5f35d8b02e)" style="fill: none; stroke: #1f77b4; stroke-width: 1.5"/>
    <path d="M 339.526078 220.594906 
L 339.526078 199.956221 
" clip-path="url(#p5f35d8b02e)" style="fill: none; stroke: #1f77b4; stroke-width: 1.5"/>
    <path d="M 341.219693 230.475632 
L 341.219693 219.620192 
" clip-path="url(#p5f35d8b02e)" style="fill: none; stroke: #1f77b4; stroke-width: 1.5"/>
    <path d="M 342.913307 227.643182 
L 342.913307 212.894678 
" clip-path="url(#p5f35d8b02e)" style="fill: none; stroke: #1f77b4; stroke-width: 1.5"/>
    <path d="M 344.606922 224.086123 
L 344.606922 206.022969 
" clip-path="url(#p5f35d8b02e)" style="fill: none; stroke: #1f77b4; stroke-width: 1.5"/>
    <path d="M 346.300536 230.697697 
L 346.300536 230.697697 
" clip-path="url(#p5f35d8b02e)" style="fill: none; stroke: #1f77b4; stroke-width: 1.5"/>
    <path d="M 347.994151 230.697697 
L 347.994151 230.697697 
" clip-path="url(#p5f35d8b02e)" style="fill: none; stroke: #1f77b4; stroke-width: 1.5"/>
    <path d="M 349.687765 230.697697 
L 349.687765 220.26893 
" clip-path="url(#p5f35d8b02e)" style="fill: none; stroke: #1f77b4; stroke-width: 1.5"/>
    <path d="M 351.38138 230.697697 
L 351.38138 220.26893 
" clip-path="url(#p5f35d8b02e)" style="fill: none; stroke: #1f77b4; stroke-width: 1.5"/>
    <path d="M 353.074994 230.697697 
L 353.074994 230.697697 
" clip-path="url(#p5f35d8b02e)" style="fill: none; stroke: #1f77b4; stroke-width: 1.5"/>
    <path d="M 354.768608 230.697697 
L 354.768608 230.697697 
" clip-path="url(#p5f35d8b02e)" style="fill: none; stroke: #1f77b4; stroke-width: 1.5"/>
    <path d="M 356.462223 230.697697 
L 356.462223 230.697697 
" clip-path="url(#p5f35d8b02e)" style="fill: none; stroke: #1f77b4; stroke-width: 1.5"/>
    <path d="M 358.155837 230.697697 
L 358.155837 230.697697 
" clip-path="url(#p5f35d8b02e)" style="fill: none; stroke: #1f77b4; stroke-width: 1.5"/>
    <path d="M 359.849452 230.697697 
L 359.849452 230.697697 
" clip-path="url(#p5f35d8b02e)" style="fill: none; stroke: #1f77b4; stroke-width: 1.5"/>
    <path d="M 361.543066 230.697697 
L 361.543066 230.697697 
" clip-path="url(#p5f35d8b02e)" style="fill: none; stroke: #1f77b4; stroke-width: 1.5"/>
    <path d="M 363.236681 230.814306 
L 363.236681 220.624222 
" clip-path="url(#p5f35d8b02e)" style="fill: none; stroke: #1f77b4; stroke-width: 1.5"/>
    <path d="M 364.930295 231.570952 
L 364.930295 229.35254 
" clip-path="url(#p5f35d8b02e)" style="fill: none; stroke: #1f77b4; stroke-width: 1.5"/>
    <path d="M 366.62391 230.697697 
L 366.62391 220.26893 
" clip-path="url(#p5f35d8b02e)" style="fill: none; stroke: #1f77b4; stroke-width: 1.5"/>
    <path d="M 368.317524 230.697697 
L 368.317524 230.697697 
" clip-path="url(#p5f35d8b02e)" style="fill: none; stroke: #1f77b4; stroke-width: 1.5"/>
    <path d="M 370.011139 230.697697 
L 370.011139 230.697697 
" clip-path="url(#p5f35d8b02e)" style="fill: none; stroke: #1f77b4; stroke-width: 1.5"/>
    <path d="M 371.704753 230.697697 
L 371.704753 230.697697 
" clip-path="url(#p5f35d8b02e)" style="fill: none; stroke: #1f77b4; stroke-width: 1.5"/>
    <path d="M 373.398368 230.697697 
L 373.398368 230.697697 
" clip-path="url(#p5f35d8b02e)" style="fill: none; stroke: #1f77b4; stroke-width: 1.5"/>
    <path d="M 375.091982 230.697697 
L 375.091982 230.697697 
" clip-path="url(#p5f35d8b02e)" style="fill: none; stroke: #1f77b4; stroke-width: 1.5"/>
    <path d="M 376.785597 230.697697 
L 376.785597 230.697697 
" clip-path="url(#p5f35d8b02e)" style="fill: none; stroke: #1f77b4; stroke-width: 1.5"/>
    <path d="M 378.479211 227.643182 
L 378.479211 212.894678 
" clip-path="url(#p5f35d8b02e)" style="fill: none; stroke: #1f77b4; stroke-width: 1.5"/>
    <path d="M 380.172825 230.697697 
L 380.172825 230.697697 
" clip-path="url(#p5f35d8b02e)" style="fill: none; stroke: #1f77b4; stroke-width: 1.5"/>
    <path d="M 381.86644 230.697697 
L 381.86644 230.697697 
" clip-path="url(#p5f35d8b02e)" style="fill: none; stroke: #1f77b4; stroke-width: 1.5"/>
    <path d="M 383.560054 230.697697 
L 383.560054 220.26893 
" clip-path="url(#p5f35d8b02e)" style="fill: none; stroke: #1f77b4; stroke-width: 1.5"/>
    <path d="M 385.253669 227.643182 
L 385.253669 212.894678 
" clip-path="url(#p5f35d8b02e)" style="fill: none; stroke: #1f77b4; stroke-width: 1.5"/>
    <path d="M 386.947283 224.086123 
L 386.947283 206.022969 
" clip-path="url(#p5f35d8b02e)" style="fill: none; stroke: #1f77b4; stroke-width: 1.5"/>
    <path d="M 388.640898 227.643182 
L 388.640898 212.894678 
" clip-path="url(#p5f35d8b02e)" style="fill: none; stroke: #1f77b4; stroke-width: 1.5"/>
    <path d="M 390.334512 230.697697 
L 390.334512 230.697697 
" clip-path="url(#p5f35d8b02e)" style="fill: none; stroke: #1f77b4; stroke-width: 1.5"/>
    <path d="M 392.028127 224.086123 
L 392.028127 206.022969 
" clip-path="url(#p5f35d8b02e)" style="fill: none; stroke: #1f77b4; stroke-width: 1.5"/>
    <path d="M 393.721741 230.697697 
L 393.721741 230.697697 
" clip-path="url(#p5f35d8b02e)" style="fill: none; stroke: #1f77b4; stroke-width: 1.5"/>
    <path d="M 395.415356 230.697697 
L 395.415356 230.697697 
" clip-path="url(#p5f35d8b02e)" style="fill: none; stroke: #1f77b4; stroke-width: 1.5"/>
   </g>
  </g>
 </g>
 <defs>
  <clipPath id="p5f35d8b02e">
   <rect x="40.603125" y="7.2" width="372.595183" height="235.24"/>
  </clipPath>
 </defs>
</svg>
