<?xml version="1.0" encoding="utf-8" standalone="no"?>
<!DOCTYPE svg PUBLIC "-//W3C//DTD SVG 1.1//EN"
  "http://www.w3.org/Graphics/SVG/1.1/DTD/svg11.dtd">
<svg xmlns:xlink="http://www.w3.org/1999/xlink" width="389.650568pt" height="277.114688pt" viewBox="0 0 389.650568 277.114688" xmlns="http://www.w3.org/2000/svg" version="1.1">
 <metadata>
  <rdf:RDF xmlns:dc="http://purl.org/dc/elements/1.1/" xmlns:cc="http://creativecommons.org/ns#" xmlns:rdf="http://www.w3.org/1999/02/22-rdf-syntax-ns#">
   <cc:Work>
    <dc:type rdf:resource="http://purl.org/dc/dcmitype/StillImage"/>
    <dc:date>2025-12-02T06:59:00.729486</dc:date>
    <dc:format>image/svg+xml</dc:format>
    <dc:creator>
     <cc:Agent>
      <dc:title>Matplotlib v3.9.4, https://matplotlib.org/</dc:title>
     </cc:Agent>
    </dc:creator>
   </cc:Work>
  </rdf:RDF>
 </metadata>
 <defs>
  <style type="text/css">*{stroke-linejoin: round; stroke-linecap: butt}</style>
 </defs>
 <g id="figure_1">
  <g id="patch_1">
   <path d="M 0 277.114688 
L 389.650568 277.114688 
L 389.650568 0 
L 0 0 
z
" style="fill: #ffffff"/>
  </g>
  <g id="axes_1">
   <g id="patch_2">
    <path d="M 43.78125 239.558437 
L 378.58125 239.558437 
L 378.58125 17.798437 
L 43.78125 17.798437 
z
" style="fill: #ffffff"/>
   </g>
   <g id="matplotlib.axis_1">
    <g id="xtick_1">
     <g id="line2d_1">
      <defs>
       <path id="mc456678f94" d="M 0 0 
L 0 3.5 
" style="stroke: #000000; stroke-width: 0.8"/>
      </defs>
      <g>
       <use xlink:href="#mc456678f94" x="58.984213" y="239.558437" style="stroke: #000000; stroke-width: 0.8"/>
      </g>
     </g>
     <g id="text_1">
      <!-- 0 -->
      <g transform="translate(55.802963 254.156875) scale(0.1 -0.1)">
       <defs>
        <path id="DejaVuSans-30" d="M 2034 4250 
Q 1547 4250 1301 3770 
Q 1056 3291 1056 2328 
Q 1056 1369 1301 889 
Q 1547 409 2034 409 
Q 2525 409 2770 889 
Q 3016 1369 3016 2328 
Q 3016 3291 2770 3770 
Q 2525 4250 2034 4250 
z
M 2034 4750 
Q 2819 4750 3233 4129 
Q 3647 3509 3647 2328 
Q 3647 1150 3233 529 
Q 2819 -91 2034 -91 
Q 1250 -91 836 529 
Q 422 1150 422 2328 
Q 422 3509 836 4129 
Q 1250 4750 2034 4750 
z
" transform="scale(0.015625)"/>
       </defs>
       <use xlink:href="#DejaVuSans-30"/>
      </g>
     </g>
    </g>
    <g id="xtick_2">
     <g id="line2d_2">
      <g>
       <use xlink:href="#mc456678f94" x="119.859984" y="239.558437" style="stroke: #000000; stroke-width: 0.8"/>
      </g>
     </g>
     <g id="text_2">
      <!-- 20000 -->
      <g transform="translate(103.953734 254.156875) scale(0.1 -0.1)">
       <defs>
        <path id="DejaVuSans-32" d="M 1228 531 
L 3431 531 
L 3431 0 
L 469 0 
L 469 531 
Q 828 903 1448 1529 
Q 2069 2156 2228 2338 
Q 2531 2678 2651 2914 
Q 2772 3150 2772 3378 
Q 2772 3750 2511 3984 
Q 2250 4219 1831 4219 
Q 1534 4219 1204 4116 
Q 875 4013 500 3803 
L 500 4441 
Q 881 4594 1212 4672 
Q 1544 4750 1819 4750 
Q 2544 4750 2975 4387 
Q 3406 4025 3406 3419 
Q 3406 3131 3298 2873 
Q 3191 2616 2906 2266 
Q 2828 2175 2409 1742 
Q 1991 1309 1228 531 
z
" transform="scale(0.015625)"/>
       </defs>
       <use xlink:href="#DejaVuSans-32"/>
       <use xlink:href="#DejaVuSans-30" x="63.623047"/>
       <use xlink:href="#DejaVuSans-30" x="127.246094"/>
       <use xlink:href="#DejaVuSans-30" x="190.869141"/>
       <use xlink:href="#DejaVuSans-30" x="254.492188"/>
      </g>
     </g>
    </g>
    <g id="xtick_3">
     <g id="line2d_3">
      <g>
       <use xlink:href="#mc456678f94" x="180.735755" y="239.558437" style="stroke: #000000; stroke-width: 0.8"/>
      </g>
     </g>
     <g id="text_3">
      <!-- 40000 -->
      <g transform="translate(164.829505 254.156875) scale(0.1 -0.1)">
       <defs>
        <path id="DejaVuSans-34" d="M 2419 4116 
L 825 1625 
L 2419 1625 
L 2419 4116 
z
M 2253 4666 
L 3047 4666 
L 3047 1625 
L 3713 1625 
L 3713 1100 
L 3047 1100 
L 3047 0 
L 2419 0 
L 2419 1100 
L 313 1100 
L 313 1709 
L 2253 4666 
z
" transform="scale(0.015625)"/>
       </defs>
       <use xlink:href="#DejaVuSans-34"/>
       <use xlink:href="#DejaVuSans-30" x="63.623047"/>
       <use xlink:href="#DejaVuSans-30" x="127.246094"/>
       <use xlink:href="#DejaVuSans-30" x="190.869141"/>
       <use xlink:href="#DejaVuSans-30" x="254.492188"/>
      </g>
     </g>
    </g>
    <g id="xtick_4">
     <g id="line2d_4">
      <g>
       <use xlink:href="#mc456678f94" x="241.611526" y="239.558437" style="stroke: #000000; stroke-width: 0.8"/>
      </g>
     </g>
     <g id="text_4">
      <!-- 60000 -->
      <g transform="translate(225.705276 254.156875) scale(0.1 -0.1)">
       <defs>
        <path id="DejaVuSans-36" d="M 2113 2584 
Q 1688 2584 1439 2293 
Q 1191 2003 1191 1497 
Q 1191 994 1439 701 
Q 1688 409 2113 409 
Q 2538 409 2786 701 
Q 3034 994 3034 1497 
Q 3034 2003 2786 2293 
Q 2538 2584 2113 2584 
z
M 3366 4563 
L 3366 3988 
Q 3128 4100 2886 4159 
Q 2644 4219 2406 4219 
Q 1781 4219 1451 3797 
Q 1122 3375 1075 2522 
Q 1259 2794 1537 2939 
Q 1816 3084 2150 3084 
Q 2853 3084 3261 2657 
Q 3669 2231 3669 1497 
Q 3669 778 3244 343 
Q 2819 -91 2113 -91 
Q 1303 -91 875 529 
Q 447 1150 447 2328 
Q 447 3434 972 4092 
Q 1497 4750 2381 4750 
Q 2619 4750 2861 4703 
Q 3103 4656 3366 4563 
z
" transform="scale(0.015625)"/>
       </defs>
       <use xlink:href="#DejaVuSans-36"/>
       <use xlink:href="#DejaVuSans-30" x="63.623047"/>
       <use xlink:href="#DejaVuSans-30" x="127.246094"/>
       <use xlink:href="#DejaVuSans-30" x="190.869141"/>
       <use xlink:href="#DejaVuSans-30" x="254.492188"/>
      </g>
     </g>
    </g>
    <g id="xtick_5">
     <g id="line2d_5">
      <g>
       <use xlink:href="#mc456678f94" x="302.487297" y="239.558437" style="stroke: #000000; stroke-width: 0.8"/>
      </g>
     </g>
     <g id="text_5">
      <!-- 80000 -->
      <g transform="translate(286.581047 254.156875) scale(0.1 -0.1)">
       <defs>
        <path id="DejaVuSans-38" d="M 2034 2216 
Q 1584 2216 1326 1975 
Q 1069 1734 1069 1313 
Q 1069 891 1326 650 
Q 1584 409 2034 409 
Q 2484 409 2743 651 
Q 3003 894 3003 1313 
Q 3003 1734 2745 1975 
Q 2488 2216 2034 2216 
z
M 1403 2484 
Q 997 2584 770 2862 
Q 544 3141 544 3541 
Q 544 4100 942 4425 
Q 1341 4750 2034 4750 
Q 2731 4750 3128 4425 
Q 3525 4100 3525 3541 
Q 3525 3141 3298 2862 
Q 3072 2584 2669 2484 
Q 3125 2378 3379 2068 
Q 3634 1759 3634 1313 
Q 3634 634 3220 271 
Q 2806 -91 2034 -91 
Q 1263 -91 848 271 
Q 434 634 434 1313 
Q 434 1759 690 2068 
Q 947 2378 1403 2484 
z
M 1172 3481 
Q 1172 3119 1398 2916 
Q 1625 2713 2034 2713 
Q 2441 2713 2670 2916 
Q 2900 3119 2900 3481 
Q 2900 3844 2670 4047 
Q 2441 4250 2034 4250 
Q 1625 4250 1398 4047 
Q 1172 3844 1172 3481 
z
" transform="scale(0.015625)"/>
       </defs>
       <use xlink:href="#DejaVuSans-38"/>
       <use xlink:href="#DejaVuSans-30" x="63.623047"/>
       <use xlink:href="#DejaVuSans-30" x="127.246094"/>
       <use xlink:href="#DejaVuSans-30" x="190.869141"/>
       <use xlink:href="#DejaVuSans-30" x="254.492188"/>
      </g>
     </g>
    </g>
    <g id="xtick_6">
     <g id="line2d_6">
      <g>
       <use xlink:href="#mc456678f94" x="363.363068" y="239.558437" style="stroke: #000000; stroke-width: 0.8"/>
      </g>
     </g>
     <g id="text_6">
      <!-- 100000 -->
      <g transform="translate(344.275568 254.156875) scale(0.1 -0.1)">
       <defs>
        <path id="DejaVuSans-31" d="M 794 531 
L 1825 531 
L 1825 4091 
L 703 3866 
L 703 4441 
L 1819 4666 
L 2450 4666 
L 2450 531 
L 3481 531 
L 3481 0 
L 794 0 
L 794 531 
z
" transform="scale(0.015625)"/>
       </defs>
       <use xlink:href="#DejaVuSans-31"/>
       <use xlink:href="#DejaVuSans-30" x="63.623047"/>
       <use xlink:href="#DejaVuSans-30" x="127.246094"/>
       <use xlink:href="#DejaVuSans-30" x="190.869141"/>
       <use xlink:href="#DejaVuSans-30" x="254.492188"/>
       <use xlink:href="#DejaVuSans-30" x="318.115234"/>
      </g>
     </g>
    </g>
    <g id="text_7">
     <!-- tof [µs] -->
     <g transform="translate(193.125 267.835) scale(0.1 -0.1)">
      <defs>
       <path id="DejaVuSans-74" d="M 1172 4494 
L 1172 3500 
L 2356 3500 
L 2356 3053 
L 1172 3053 
L 1172 1153 
Q 1172 725 1289 603 
Q 1406 481 1766 481 
L 2356 481 
L 2356 0 
L 1766 0 
Q 1100 0 847 248 
Q 594 497 594 1153 
L 594 3053 
L 172 3053 
L 172 3500 
L 594 3500 
L 594 4494 
L 1172 4494 
z
" transform="scale(0.015625)"/>
       <path id="DejaVuSans-6f" d="M 1959 3097 
Q 1497 3097 1228 2736 
Q 959 2375 959 1747 
Q 959 1119 1226 758 
Q 1494 397 1959 397 
Q 2419 397 2687 759 
Q 2956 1122 2956 1747 
Q 2956 2369 2687 2733 
Q 2419 3097 1959 3097 
z
M 1959 3584 
Q 2709 3584 3137 3096 
Q 3566 2609 3566 1747 
Q 3566 888 3137 398 
Q 2709 -91 1959 -91 
Q 1206 -91 779 398 
Q 353 888 353 1747 
Q 353 2609 779 3096 
Q 1206 3584 1959 3584 
z
" transform="scale(0.015625)"/>
       <path id="DejaVuSans-66" d="M 2375 4863 
L 2375 4384 
L 1825 4384 
Q 1516 4384 1395 4259 
Q 1275 4134 1275 3809 
L 1275 3500 
L 2222 3500 
L 2222 3053 
L 1275 3053 
L 1275 0 
L 697 0 
L 697 3053 
L 147 3053 
L 147 3500 
L 697 3500 
L 697 3744 
Q 697 4328 969 4595 
Q 1241 4863 1831 4863 
L 2375 4863 
z
" transform="scale(0.015625)"/>
       <path id="DejaVuSans-20" transform="scale(0.015625)"/>
       <path id="DejaVuSans-5b" d="M 550 4863 
L 1875 4863 
L 1875 4416 
L 1125 4416 
L 1125 -397 
L 1875 -397 
L 1875 -844 
L 550 -844 
L 550 4863 
z
" transform="scale(0.015625)"/>
       <path id="DejaVuSans-b5" d="M 544 -1331 
L 544 3500 
L 1119 3500 
L 1119 1325 
Q 1119 872 1334 640 
Q 1550 409 1972 409 
Q 2434 409 2667 671 
Q 2900 934 2900 1459 
L 2900 3500 
L 3475 3500 
L 3475 806 
Q 3475 619 3529 530 
Q 3584 441 3700 441 
Q 3728 441 3778 458 
Q 3828 475 3916 513 
L 3916 50 
Q 3788 -22 3673 -56 
Q 3559 -91 3450 -91 
Q 3234 -91 3106 31 
Q 2978 153 2931 403 
Q 2775 156 2548 32 
Q 2322 -91 2016 -91 
Q 1697 -91 1473 31 
Q 1250 153 1119 397 
L 1119 -1331 
L 544 -1331 
z
" transform="scale(0.015625)"/>
       <path id="DejaVuSans-73" d="M 2834 3397 
L 2834 2853 
Q 2591 2978 2328 3040 
Q 2066 3103 1784 3103 
Q 1356 3103 1142 2972 
Q 928 2841 928 2578 
Q 928 2378 1081 2264 
Q 1234 2150 1697 2047 
L 1894 2003 
Q 2506 1872 2764 1633 
Q 3022 1394 3022 966 
Q 3022 478 2636 193 
Q 2250 -91 1575 -91 
Q 1294 -91 989 -36 
Q 684 19 347 128 
L 347 722 
Q 666 556 975 473 
Q 1284 391 1588 391 
Q 1994 391 2212 530 
Q 2431 669 2431 922 
Q 2431 1156 2273 1281 
Q 2116 1406 1581 1522 
L 1381 1569 
Q 847 1681 609 1914 
Q 372 2147 372 2553 
Q 372 3047 722 3315 
Q 1072 3584 1716 3584 
Q 2034 3584 2315 3537 
Q 2597 3491 2834 3397 
z
" transform="scale(0.015625)"/>
       <path id="DejaVuSans-5d" d="M 1947 4863 
L 1947 -844 
L 622 -844 
L 622 -397 
L 1369 -397 
L 1369 4416 
L 622 4416 
L 622 4863 
L 1947 4863 
z
" transform="scale(0.015625)"/>
      </defs>
      <use xlink:href="#DejaVuSans-74"/>
      <use xlink:href="#DejaVuSans-6f" x="39.208984"/>
      <use xlink:href="#DejaVuSans-66" x="100.390625"/>
      <use xlink:href="#DejaVuSans-20" x="135.595703"/>
      <use xlink:href="#DejaVuSans-5b" x="167.382812"/>
      <use xlink:href="#DejaVuSans-b5" x="206.396484"/>
      <use xlink:href="#DejaVuSans-73" x="270.019531"/>
      <use xlink:href="#DejaVuSans-5d" x="322.119141"/>
     </g>
    </g>
   </g>
   <g id="matplotlib.axis_2">
    <g id="ytick_1">
     <g id="line2d_7">
      <defs>
       <path id="mf4fcca759f" d="M 0 0 
L -3.5 0 
" style="stroke: #000000; stroke-width: 0.8"/>
      </defs>
      <g>
       <use xlink:href="#mf4fcca759f" x="43.78125" y="229.493613" style="stroke: #000000; stroke-width: 0.8"/>
      </g>
     </g>
     <g id="text_8">
      <!-- 0.0 -->
      <g transform="translate(20.878125 233.292832) scale(0.1 -0.1)">
       <defs>
        <path id="DejaVuSans-2e" d="M 684 794 
L 1344 794 
L 1344 0 
L 684 0 
L 684 794 
z
" transform="scale(0.015625)"/>
       </defs>
       <use xlink:href="#DejaVuSans-30"/>
       <use xlink:href="#DejaVuSans-2e" x="63.623047"/>
       <use xlink:href="#DejaVuSans-30" x="95.410156"/>
      </g>
     </g>
    </g>
    <g id="ytick_2">
     <g id="line2d_8">
      <g>
       <use xlink:href="#mf4fcca759f" x="43.78125" y="189.941469" style="stroke: #000000; stroke-width: 0.8"/>
      </g>
     </g>
     <g id="text_9">
      <!-- 0.2 -->
      <g transform="translate(20.878125 193.740687) scale(0.1 -0.1)">
       <use xlink:href="#DejaVuSans-30"/>
       <use xlink:href="#DejaVuSans-2e" x="63.623047"/>
       <use xlink:href="#DejaVuSans-32" x="95.410156"/>
      </g>
     </g>
    </g>
    <g id="ytick_3">
     <g id="line2d_9">
      <g>
       <use xlink:href="#mf4fcca759f" x="43.78125" y="150.389324" style="stroke: #000000; stroke-width: 0.8"/>
      </g>
     </g>
     <g id="text_10">
      <!-- 0.4 -->
      <g transform="translate(20.878125 154.188542) scale(0.1 -0.1)">
       <use xlink:href="#DejaVuSans-30"/>
       <use xlink:href="#DejaVuSans-2e" x="63.623047"/>
       <use xlink:href="#DejaVuSans-34" x="95.410156"/>
      </g>
     </g>
    </g>
    <g id="ytick_4">
     <g id="line2d_10">
      <g>
       <use xlink:href="#mf4fcca759f" x="43.78125" y="110.837179" style="stroke: #000000; stroke-width: 0.8"/>
      </g>
     </g>
     <g id="text_11">
      <!-- 0.6 -->
      <g transform="translate(20.878125 114.636398) scale(0.1 -0.1)">
       <use xlink:href="#DejaVuSans-30"/>
       <use xlink:href="#DejaVuSans-2e" x="63.623047"/>
       <use xlink:href="#DejaVuSans-36" x="95.410156"/>
      </g>
     </g>
    </g>
    <g id="ytick_5">
     <g id="line2d_11">
      <g>
       <use xlink:href="#mf4fcca759f" x="43.78125" y="71.285034" style="stroke: #000000; stroke-width: 0.8"/>
      </g>
     </g>
     <g id="text_12">
      <!-- 0.8 -->
      <g transform="translate(20.878125 75.084253) scale(0.1 -0.1)">
       <use xlink:href="#DejaVuSans-30"/>
       <use xlink:href="#DejaVuSans-2e" x="63.623047"/>
       <use xlink:href="#DejaVuSans-38" x="95.410156"/>
      </g>
     </g>
    </g>
    <g id="ytick_6">
     <g id="line2d_12">
      <g>
       <use xlink:href="#mf4fcca759f" x="43.78125" y="31.732889" style="stroke: #000000; stroke-width: 0.8"/>
      </g>
     </g>
     <g id="text_13">
      <!-- 1.0 -->
      <g transform="translate(20.878125 35.532108) scale(0.1 -0.1)">
       <use xlink:href="#DejaVuSans-31"/>
       <use xlink:href="#DejaVuSans-2e" x="63.623047"/>
       <use xlink:href="#DejaVuSans-30" x="95.410156"/>
      </g>
     </g>
    </g>
    <g id="text_14">
     <!-- detector [counts] -->
     <g transform="translate(14.798438 171.991719) rotate(-90) scale(0.1 -0.1)">
      <defs>
       <path id="DejaVuSans-64" d="M 2906 2969 
L 2906 4863 
L 3481 4863 
L 3481 0 
L 2906 0 
L 2906 525 
Q 2725 213 2448 61 
Q 2172 -91 1784 -91 
Q 1150 -91 751 415 
Q 353 922 353 1747 
Q 353 2572 751 3078 
Q 1150 3584 1784 3584 
Q 2172 3584 2448 3432 
Q 2725 3281 2906 2969 
z
M 947 1747 
Q 947 1113 1208 752 
Q 1469 391 1925 391 
Q 2381 391 2643 752 
Q 2906 1113 2906 1747 
Q 2906 2381 2643 2742 
Q 2381 3103 1925 3103 
Q 1469 3103 1208 2742 
Q 947 2381 947 1747 
z
" transform="scale(0.015625)"/>
       <path id="DejaVuSans-65" d="M 3597 1894 
L 3597 1613 
L 953 1613 
Q 991 1019 1311 708 
Q 1631 397 2203 397 
Q 2534 397 2845 478 
Q 3156 559 3463 722 
L 3463 178 
Q 3153 47 2828 -22 
Q 2503 -91 2169 -91 
Q 1331 -91 842 396 
Q 353 884 353 1716 
Q 353 2575 817 3079 
Q 1281 3584 2069 3584 
Q 2775 3584 3186 3129 
Q 3597 2675 3597 1894 
z
M 3022 2063 
Q 3016 2534 2758 2815 
Q 2500 3097 2075 3097 
Q 1594 3097 1305 2825 
Q 1016 2553 972 2059 
L 3022 2063 
z
" transform="scale(0.015625)"/>
       <path id="DejaVuSans-63" d="M 3122 3366 
L 3122 2828 
Q 2878 2963 2633 3030 
Q 2388 3097 2138 3097 
Q 1578 3097 1268 2742 
Q 959 2388 959 1747 
Q 959 1106 1268 751 
Q 1578 397 2138 397 
Q 2388 397 2633 464 
Q 2878 531 3122 666 
L 3122 134 
Q 2881 22 2623 -34 
Q 2366 -91 2075 -91 
Q 1284 -91 818 406 
Q 353 903 353 1747 
Q 353 2603 823 3093 
Q 1294 3584 2113 3584 
Q 2378 3584 2631 3529 
Q 2884 3475 3122 3366 
z
" transform="scale(0.015625)"/>
       <path id="DejaVuSans-72" d="M 2631 2963 
Q 2534 3019 2420 3045 
Q 2306 3072 2169 3072 
Q 1681 3072 1420 2755 
Q 1159 2438 1159 1844 
L 1159 0 
L 581 0 
L 581 3500 
L 1159 3500 
L 1159 2956 
Q 1341 3275 1631 3429 
Q 1922 3584 2338 3584 
Q 2397 3584 2469 3576 
Q 2541 3569 2628 3553 
L 2631 2963 
z
" transform="scale(0.015625)"/>
       <path id="DejaVuSans-75" d="M 544 1381 
L 544 3500 
L 1119 3500 
L 1119 1403 
Q 1119 906 1312 657 
Q 1506 409 1894 409 
Q 2359 409 2629 706 
Q 2900 1003 2900 1516 
L 2900 3500 
L 3475 3500 
L 3475 0 
L 2900 0 
L 2900 538 
Q 2691 219 2414 64 
Q 2138 -91 1772 -91 
Q 1169 -91 856 284 
Q 544 659 544 1381 
z
M 1991 3584 
L 1991 3584 
z
" transform="scale(0.015625)"/>
       <path id="DejaVuSans-6e" d="M 3513 2113 
L 3513 0 
L 2938 0 
L 2938 2094 
Q 2938 2591 2744 2837 
Q 2550 3084 2163 3084 
Q 1697 3084 1428 2787 
Q 1159 2491 1159 1978 
L 1159 0 
L 581 0 
L 581 3500 
L 1159 3500 
L 1159 2956 
Q 1366 3272 1645 3428 
Q 1925 3584 2291 3584 
Q 2894 3584 3203 3211 
Q 3513 2838 3513 2113 
z
" transform="scale(0.015625)"/>
      </defs>
      <use xlink:href="#DejaVuSans-64"/>
      <use xlink:href="#DejaVuSans-65" x="63.476562"/>
      <use xlink:href="#DejaVuSans-74" x="125"/>
      <use xlink:href="#DejaVuSans-65" x="164.208984"/>
      <use xlink:href="#DejaVuSans-63" x="225.732422"/>
      <use xlink:href="#DejaVuSans-74" x="280.712891"/>
      <use xlink:href="#DejaVuSans-6f" x="319.921875"/>
      <use xlink:href="#DejaVuSans-72" x="381.103516"/>
      <use xlink:href="#DejaVuSans-20" x="422.216797"/>
      <use xlink:href="#DejaVuSans-5b" x="454.003906"/>
      <use xlink:href="#DejaVuSans-63" x="493.017578"/>
      <use xlink:href="#DejaVuSans-6f" x="547.998047"/>
      <use xlink:href="#DejaVuSans-75" x="609.179688"/>
      <use xlink:href="#DejaVuSans-6e" x="672.558594"/>
      <use xlink:href="#DejaVuSans-74" x="735.9375"/>
      <use xlink:href="#DejaVuSans-73" x="775.146484"/>
      <use xlink:href="#DejaVuSans-5d" x="827.246094"/>
     </g>
    </g>
    <g id="text_15">
     <!-- 1e6 -->
     <g transform="translate(43.78125 14.798437) scale(0.1 -0.1)">
      <use xlink:href="#DejaVuSans-31"/>
      <use xlink:href="#DejaVuSans-65" x="63.623047"/>
      <use xlink:href="#DejaVuSans-36" x="125.146484"/>
     </g>
    </g>
   </g>
   <g id="line2d_13">
    <path d="M 58.999432 227.10223 
L 60.52125 227.10223 
L 60.52125 227.420104 
L 62.043068 227.420104 
L 62.043068 228.750145 
L 63.564886 228.750145 
L 63.564886 229.281383 
L 65.086705 229.281383 
L 65.086705 229.403423 
L 75.739432 229.407915 
L 75.739432 228.562092 
L 77.26125 228.562092 
L 77.26125 226.94417 
L 78.783068 226.94417 
L 78.783068 224.894347 
L 80.304886 224.894347 
L 80.304886 222.594934 
L 81.826705 222.594934 
L 81.826705 219.645988 
L 83.348523 219.645988 
L 83.348523 217.328371 
L 84.870341 217.328371 
L 84.870341 216.596814 
L 86.392159 216.596814 
L 86.392159 214.973992 
L 87.913977 214.973992 
L 87.913977 212.847866 
L 89.435795 212.847866 
L 89.435795 211.513783 
L 90.957614 211.513783 
L 90.957614 209.379209 
L 92.479432 209.379209 
L 92.479432 207.48198 
L 94.00125 207.48198 
L 94.00125 205.424817 
L 95.523068 205.424817 
L 95.523068 201.491619 
L 97.044886 201.491619 
L 97.044886 197.856752 
L 98.566705 197.856752 
L 98.566705 193.972746 
L 100.088523 193.972746 
L 100.088523 188.939118 
L 101.610341 188.939118 
L 101.610341 182.269347 
L 103.132159 182.269347 
L 103.132159 174.415733 
L 104.653977 174.415733 
L 104.653977 166.655375 
L 106.175795 166.655375 
L 106.175795 154.18526 
L 107.697614 154.18526 
L 107.697614 138.587127 
L 109.219432 138.587127 
L 109.219432 121.189422 
L 110.74125 121.189422 
L 110.74125 101.950186 
L 112.263068 101.950186 
L 112.263068 87.148967 
L 113.784886 87.148967 
L 113.784886 67.323732 
L 115.306705 67.323732 
L 115.306705 46.628808 
L 116.828523 46.628808 
L 116.828523 37.989876 
L 118.350341 37.989876 
L 118.350341 33.459004 
L 119.872159 33.459004 
L 119.872159 31.59017 
L 121.393977 31.59017 
L 121.393977 31.40205 
L 122.915795 31.40205 
L 122.915795 34.402345 
L 124.437614 34.402345 
L 124.437614 30.332161 
L 125.959432 30.332161 
L 125.959432 28.078017 
L 127.48125 28.078017 
L 127.48125 29.055052 
L 129.003068 29.055052 
L 129.003068 31.386203 
L 130.524886 31.386203 
L 130.524886 33.997616 
L 132.046705 33.997616 
L 132.046705 37.526948 
L 133.568523 37.526948 
L 133.568523 41.030973 
L 135.090341 41.030973 
L 135.090341 44.869324 
L 136.612159 44.869324 
L 136.612159 48.989576 
L 138.133977 48.989576 
L 138.133977 53.555169 
L 139.655795 53.555169 
L 139.655795 58.310265 
L 141.177614 58.310265 
L 141.177614 63.899346 
L 142.699432 63.899346 
L 142.699432 68.660069 
L 144.22125 68.660069 
L 144.22125 74.09179 
L 145.743068 74.09179 
L 145.743068 76.220506 
L 147.264886 76.220506 
L 147.264886 77.062262 
L 148.786705 77.062262 
L 148.786705 80.109056 
L 150.308523 80.109056 
L 150.308523 83.683148 
L 151.830341 83.683148 
L 151.830341 81.205953 
L 153.352159 81.205953 
L 153.352159 81.97864 
L 154.873977 81.97864 
L 154.873977 84.31437 
L 156.395795 84.31437 
L 156.395795 86.650383 
L 157.917614 86.650383 
L 157.917614 89.749966 
L 159.439432 89.749966 
L 159.439432 89.531321 
L 160.96125 89.531321 
L 160.96125 91.222202 
L 162.483068 91.222202 
L 162.483068 93.114365 
L 164.004886 93.114365 
L 164.004886 95.360442 
L 165.526705 95.360442 
L 165.526705 95.901907 
L 167.048523 95.901907 
L 167.048523 96.249734 
L 168.570341 96.249734 
L 168.570341 98.843731 
L 170.092159 98.843731 
L 170.092159 102.379288 
L 171.613977 102.379288 
L 171.613977 105.770514 
L 173.135795 105.770514 
L 173.135795 108.983832 
L 174.657614 108.983832 
L 174.657614 112.221758 
L 176.179432 112.221758 
L 176.179432 115.131992 
L 177.70125 115.131992 
L 177.70125 118.146986 
L 179.223068 118.146986 
L 179.223068 121.638322 
L 180.744886 121.638322 
L 180.744886 124.451897 
L 182.266705 124.451897 
L 182.266705 127.452558 
L 183.788523 127.452558 
L 183.788523 130.288592 
L 185.310341 130.288592 
L 185.310341 133.212942 
L 186.832159 133.212942 
L 186.832159 135.991866 
L 188.353977 135.991866 
L 188.353977 138.567156 
L 189.875795 138.567156 
L 189.875795 141.183139 
L 191.397614 141.183139 
L 191.397614 143.703255 
L 192.919432 143.703255 
L 192.919432 146.575617 
L 194.44125 146.575617 
L 194.44125 148.585522 
L 195.963068 148.585522 
L 195.963068 151.080307 
L 197.484886 151.080307 
L 197.484886 153.311982 
L 199.006705 153.311982 
L 199.006705 155.63948 
L 200.528523 155.63948 
L 200.528523 157.75914 
L 202.050341 157.75914 
L 202.050341 159.782858 
L 203.572159 159.782858 
L 203.572159 161.845741 
L 205.093977 161.845741 
L 205.093977 164.024434 
L 206.615795 164.024434 
L 206.615795 165.84014 
L 208.137614 165.84014 
L 208.137614 167.745196 
L 209.659432 167.745196 
L 209.659432 169.965606 
L 211.18125 169.965606 
L 211.18125 171.574336 
L 212.703068 171.574336 
L 212.703068 173.209735 
L 214.224886 173.209735 
L 214.224886 174.957163 
L 215.746705 174.957163 
L 215.746705 176.706693 
L 217.268523 176.706693 
L 217.268523 178.386842 
L 218.790341 178.386842 
L 218.790341 179.751521 
L 220.312159 179.751521 
L 220.312159 181.368255 
L 221.833977 181.368255 
L 221.833977 182.766981 
L 223.355795 182.766981 
L 223.355795 184.103933 
L 224.877614 184.103933 
L 224.877614 185.611841 
L 226.399432 185.611841 
L 226.399432 186.914008 
L 227.92125 186.914008 
L 227.92125 188.157313 
L 229.443068 188.157313 
L 229.443068 189.501212 
L 230.964886 189.501212 
L 230.964886 190.654414 
L 232.486705 190.654414 
L 232.486705 191.866268 
L 234.008523 191.866268 
L 234.008523 192.921003 
L 235.530341 192.921003 
L 235.530341 193.98617 
L 237.052159 193.98617 
L 237.052159 195.099913 
L 238.573977 195.099913 
L 238.573977 196.258363 
L 240.095795 196.258363 
L 240.095795 197.025676 
L 241.617614 197.025676 
L 241.617614 198.106336 
L 243.139432 198.106336 
L 243.139432 199.114972 
L 244.66125 199.114972 
L 244.66125 200.009257 
L 246.183068 200.009257 
L 246.183068 200.911325 
L 247.704886 200.911325 
L 247.704886 201.556864 
L 249.226705 201.556864 
L 249.226705 202.407876 
L 250.748523 202.407876 
L 250.748523 203.260083 
L 252.270341 203.260083 
L 252.270341 204.160876 
L 253.792159 204.160876 
L 253.792159 204.730303 
L 255.313977 204.730303 
L 255.313977 205.465921 
L 256.835795 205.465921 
L 256.835795 206.137837 
L 258.357614 206.137837 
L 258.357614 206.763774 
L 259.879432 206.763774 
L 259.879432 207.379322 
L 261.40125 207.379322 
L 261.40125 208.227216 
L 262.923068 208.227216 
L 262.923068 208.751499 
L 264.444886 208.751499 
L 264.444886 209.300899 
L 265.966705 209.300899 
L 265.966705 209.860752 
L 267.488523 209.860752 
L 267.488523 210.348103 
L 269.010341 210.348103 
L 269.010341 210.905667 
L 270.532159 210.905667 
L 270.532159 211.356749 
L 272.053977 211.356749 
L 272.053977 212.011982 
L 273.575795 212.011982 
L 273.575795 212.412558 
L 275.097614 212.412558 
L 275.097614 212.91553 
L 276.619432 212.91553 
L 276.619432 213.275071 
L 278.14125 213.275071 
L 278.14125 213.76303 
L 279.663068 213.76303 
L 279.663068 214.113751 
L 281.184886 214.113751 
L 281.184886 214.581778 
L 282.706705 214.581778 
L 282.706705 214.979754 
L 284.228523 214.979754 
L 284.228523 215.454307 
L 285.750341 215.454307 
L 285.750341 215.795654 
L 287.272159 215.795654 
L 287.272159 216.179182 
L 288.793977 216.179182 
L 288.793977 216.504422 
L 290.315795 216.504422 
L 290.315795 216.958223 
L 291.837614 216.958223 
L 291.837614 217.24414 
L 293.359432 217.24414 
L 293.359432 217.595427 
L 294.88125 217.595427 
L 294.88125 217.860016 
L 296.403068 217.860016 
L 296.403068 218.230713 
L 297.924886 218.230713 
L 297.924886 218.439857 
L 299.446705 218.439857 
L 299.446705 218.802002 
L 300.968523 218.802002 
L 300.968523 219.047076 
L 302.490341 219.047076 
L 302.490341 219.240415 
L 304.012159 219.240415 
L 304.012159 219.616399 
L 305.533977 219.616399 
L 305.533977 219.879945 
L 307.055795 219.879945 
L 307.055795 220.120463 
L 308.577614 220.120463 
L 308.577614 220.361283 
L 310.099432 220.361283 
L 310.099432 220.655889 
L 311.62125 220.655889 
L 311.62125 220.84325 
L 313.143068 220.84325 
L 313.143068 221.050676 
L 314.664886 221.050676 
L 314.664886 221.285376 
L 316.186705 221.285376 
L 316.186705 221.52921 
L 317.708523 221.52921 
L 317.708523 221.64612 
L 319.230341 221.64612 
L 319.230341 222.00177 
L 320.752159 222.00177 
L 320.752159 222.136254 
L 322.273977 222.136254 
L 322.273977 222.312829 
L 323.795795 222.312829 
L 323.795795 222.455187 
L 325.317614 222.455187 
L 325.317614 222.671225 
L 326.839432 222.671225 
L 326.839432 222.886514 
L 328.36125 222.886514 
L 328.36125 223.102977 
L 331.404886 223.204816 
L 331.404886 223.384914 
L 332.926705 223.384914 
L 332.926705 223.54911 
L 334.448523 223.54911 
L 334.448523 223.686178 
L 335.970341 223.686178 
L 335.970341 223.856563 
L 339.013977 223.964496 
L 339.013977 224.09604 
L 340.535795 224.09604 
L 340.535795 224.235486 
L 342.057614 224.235486 
L 342.057614 224.378951 
L 343.579432 224.378951 
L 343.579432 224.528801 
L 345.10125 224.528801 
L 345.10125 224.677229 
L 346.623068 224.677229 
L 346.623068 224.807036 
L 348.144886 224.807036 
L 348.144886 224.931011 
L 351.188523 224.990851 
L 351.188523 225.155733 
L 352.710341 225.155733 
L 352.710341 225.313794 
L 354.232159 225.313794 
L 354.232159 225.445786 
L 355.753977 225.445786 
L 355.753977 225.590443 
L 357.275795 225.590443 
L 357.275795 225.900414 
L 358.797614 225.900414 
L 358.797614 226.235502 
L 360.319432 226.235502 
L 360.319432 226.81103 
L 361.84125 226.81103 
L 361.84125 227.549678 
L 363.363068 227.549678 
L 363.363068 227.549678 
" clip-path="url(#p1483a4376a)" style="fill: none; stroke: #1f77b4; stroke-width: 1.5; stroke-linecap: square"/>
   </g>
   <g id="LineCollection_1">
    <path d="M 59.760341 227.123976 
L 59.760341 227.080483 
" clip-path="url(#p1483a4376a)" style="fill: none; stroke: #1f77b4; stroke-width: 1.5"/>
    <path d="M 61.282159 227.440354 
L 61.282159 227.399854 
" clip-path="url(#p1483a4376a)" style="fill: none; stroke: #1f77b4; stroke-width: 1.5"/>
    <path d="M 62.803977 228.762271 
L 62.803977 228.73802 
" clip-path="url(#p1483a4376a)" style="fill: none; stroke: #1f77b4; stroke-width: 1.5"/>
    <path d="M 64.325795 229.287862 
L 64.325795 229.274905 
" clip-path="url(#p1483a4376a)" style="fill: none; stroke: #1f77b4; stroke-width: 1.5"/>
    <path d="M 65.847614 229.407647 
L 65.847614 229.3992 
" clip-path="url(#p1483a4376a)" style="fill: none; stroke: #1f77b4; stroke-width: 1.5"/>
    <path d="M 67.369432 229.449971 
L 67.369432 229.443894 
" clip-path="url(#p1483a4376a)" style="fill: none; stroke: #1f77b4; stroke-width: 1.5"/>
    <path d="M 68.89125 229.46789 
L 68.89125 229.463177 
" clip-path="url(#p1483a4376a)" style="fill: none; stroke: #1f77b4; stroke-width: 1.5"/>
    <path d="M 70.413068 229.471859 
L 70.413068 229.467509 
" clip-path="url(#p1483a4376a)" style="fill: none; stroke: #1f77b4; stroke-width: 1.5"/>
    <path d="M 71.934886 229.478438 
L 71.934886 229.474769 
" clip-path="url(#p1483a4376a)" style="fill: none; stroke: #1f77b4; stroke-width: 1.5"/>
    <path d="M 73.456705 229.476192 
L 73.456705 229.472276 
" clip-path="url(#p1483a4376a)" style="fill: none; stroke: #1f77b4; stroke-width: 1.5"/>
    <path d="M 74.978523 229.412032 
L 74.978523 229.403798 
" clip-path="url(#p1483a4376a)" style="fill: none; stroke: #1f77b4; stroke-width: 1.5"/>
    <path d="M 76.500341 228.575664 
L 76.500341 228.548519 
" clip-path="url(#p1483a4376a)" style="fill: none; stroke: #1f77b4; stroke-width: 1.5"/>
    <path d="M 78.022159 226.966624 
L 78.022159 226.921716 
" clip-path="url(#p1483a4376a)" style="fill: none; stroke: #1f77b4; stroke-width: 1.5"/>
    <path d="M 79.543977 224.924506 
L 79.543977 224.864189 
" clip-path="url(#p1483a4376a)" style="fill: none; stroke: #1f77b4; stroke-width: 1.5"/>
    <path d="M 81.065795 222.63187 
L 81.065795 222.557997 
" clip-path="url(#p1483a4376a)" style="fill: none; stroke: #1f77b4; stroke-width: 1.5"/>
    <path d="M 82.587614 219.690118 
L 82.587614 219.601858 
" clip-path="url(#p1483a4376a)" style="fill: none; stroke: #1f77b4; stroke-width: 1.5"/>
    <path d="M 84.109432 217.37742 
L 84.109432 217.279322 
" clip-path="url(#p1483a4376a)" style="fill: none; stroke: #1f77b4; stroke-width: 1.5"/>
    <path d="M 85.63125 216.647316 
L 85.63125 216.546311 
" clip-path="url(#p1483a4376a)" style="fill: none; stroke: #1f77b4; stroke-width: 1.5"/>
    <path d="M 87.153068 215.027578 
L 87.153068 214.920407 
" clip-path="url(#p1483a4376a)" style="fill: none; stroke: #1f77b4; stroke-width: 1.5"/>
    <path d="M 88.674886 212.905241 
L 88.674886 212.790491 
" clip-path="url(#p1483a4376a)" style="fill: none; stroke: #1f77b4; stroke-width: 1.5"/>
    <path d="M 90.196705 211.573413 
L 90.196705 211.454154 
" clip-path="url(#p1483a4376a)" style="fill: none; stroke: #1f77b4; stroke-width: 1.5"/>
    <path d="M 91.718523 209.442279 
L 91.718523 209.316139 
" clip-path="url(#p1483a4376a)" style="fill: none; stroke: #1f77b4; stroke-width: 1.5"/>
    <path d="M 93.240341 207.547957 
L 93.240341 207.416002 
" clip-path="url(#p1483a4376a)" style="fill: none; stroke: #1f77b4; stroke-width: 1.5"/>
    <path d="M 94.762159 205.493809 
L 94.762159 205.355826 
" clip-path="url(#p1483a4376a)" style="fill: none; stroke: #1f77b4; stroke-width: 1.5"/>
    <path d="M 96.283977 201.566035 
L 96.283977 201.417204 
" clip-path="url(#p1483a4376a)" style="fill: none; stroke: #1f77b4; stroke-width: 1.5"/>
    <path d="M 97.805795 197.93585 
L 97.805795 197.777653 
" clip-path="url(#p1483a4376a)" style="fill: none; stroke: #1f77b4; stroke-width: 1.5"/>
    <path d="M 99.327614 194.056559 
L 99.327614 193.888933 
" clip-path="url(#p1483a4376a)" style="fill: none; stroke: #1f77b4; stroke-width: 1.5"/>
    <path d="M 100.849432 189.028673 
L 100.849432 188.849563 
" clip-path="url(#p1483a4376a)" style="fill: none; stroke: #1f77b4; stroke-width: 1.5"/>
    <path d="M 102.37125 182.365986 
L 102.37125 182.172708 
" clip-path="url(#p1483a4376a)" style="fill: none; stroke: #1f77b4; stroke-width: 1.5"/>
    <path d="M 103.893068 174.520098 
L 103.893068 174.311367 
" clip-path="url(#p1483a4376a)" style="fill: none; stroke: #1f77b4; stroke-width: 1.5"/>
    <path d="M 105.414886 166.766851 
L 105.414886 166.543899 
" clip-path="url(#p1483a4376a)" style="fill: none; stroke: #1f77b4; stroke-width: 1.5"/>
    <path d="M 106.936705 154.307297 
L 106.936705 154.063223 
" clip-path="url(#p1483a4376a)" style="fill: none; stroke: #1f77b4; stroke-width: 1.5"/>
    <path d="M 108.458523 138.721208 
L 108.458523 138.453045 
" clip-path="url(#p1483a4376a)" style="fill: none; stroke: #1f77b4; stroke-width: 1.5"/>
    <path d="M 109.980341 121.335772 
L 109.980341 121.043072 
" clip-path="url(#p1483a4376a)" style="fill: none; stroke: #1f77b4; stroke-width: 1.5"/>
    <path d="M 111.502159 102.109004 
L 111.502159 101.791368 
" clip-path="url(#p1483a4376a)" style="fill: none; stroke: #1f77b4; stroke-width: 1.5"/>
    <path d="M 113.023977 87.316747 
L 113.023977 86.981186 
" clip-path="url(#p1483a4376a)" style="fill: none; stroke: #1f77b4; stroke-width: 1.5"/>
    <path d="M 114.545795 67.502815 
L 114.545795 67.144649 
" clip-path="url(#p1483a4376a)" style="fill: none; stroke: #1f77b4; stroke-width: 1.5"/>
    <path d="M 116.067614 46.818975 
L 116.067614 46.438642 
" clip-path="url(#p1483a4376a)" style="fill: none; stroke: #1f77b4; stroke-width: 1.5"/>
    <path d="M 117.589432 38.184483 
L 117.589432 37.795268 
" clip-path="url(#p1483a4376a)" style="fill: none; stroke: #1f77b4; stroke-width: 1.5"/>
    <path d="M 119.11125 33.6559 
L 119.11125 33.262109 
" clip-path="url(#p1483a4376a)" style="fill: none; stroke: #1f77b4; stroke-width: 1.5"/>
    <path d="M 120.633068 31.788002 
L 120.633068 31.392338 
" clip-path="url(#p1483a4376a)" style="fill: none; stroke: #1f77b4; stroke-width: 1.5"/>
    <path d="M 122.154886 31.599976 
L 122.154886 31.204124 
" clip-path="url(#p1483a4376a)" style="fill: none; stroke: #1f77b4; stroke-width: 1.5"/>
    <path d="M 123.676705 34.598766 
L 123.676705 34.205923 
" clip-path="url(#p1483a4376a)" style="fill: none; stroke: #1f77b4; stroke-width: 1.5"/>
    <path d="M 125.198523 30.530621 
L 125.198523 30.133701 
" clip-path="url(#p1483a4376a)" style="fill: none; stroke: #1f77b4; stroke-width: 1.5"/>
    <path d="M 126.720341 28.277597 
L 126.720341 27.878437 
" clip-path="url(#p1483a4376a)" style="fill: none; stroke: #1f77b4; stroke-width: 1.5"/>
    <path d="M 128.242159 29.254147 
L 128.242159 28.855957 
" clip-path="url(#p1483a4376a)" style="fill: none; stroke: #1f77b4; stroke-width: 1.5"/>
    <path d="M 129.763977 31.584137 
L 129.763977 31.188269 
" clip-path="url(#p1483a4376a)" style="fill: none; stroke: #1f77b4; stroke-width: 1.5"/>
    <path d="M 131.285795 34.194241 
L 131.285795 33.800991 
" clip-path="url(#p1483a4376a)" style="fill: none; stroke: #1f77b4; stroke-width: 1.5"/>
    <path d="M 132.807614 37.72179 
L 132.807614 37.332105 
" clip-path="url(#p1483a4376a)" style="fill: none; stroke: #1f77b4; stroke-width: 1.5"/>
    <path d="M 134.329432 41.224028 
L 134.329432 40.837917 
" clip-path="url(#p1483a4376a)" style="fill: none; stroke: #1f77b4; stroke-width: 1.5"/>
    <path d="M 135.85125 45.060404 
L 135.85125 44.678244 
" clip-path="url(#p1483a4376a)" style="fill: none; stroke: #1f77b4; stroke-width: 1.5"/>
    <path d="M 137.373068 49.178511 
L 137.373068 48.800641 
" clip-path="url(#p1483a4376a)" style="fill: none; stroke: #1f77b4; stroke-width: 1.5"/>
    <path d="M 138.894886 53.7417 
L 138.894886 53.368639 
" clip-path="url(#p1483a4376a)" style="fill: none; stroke: #1f77b4; stroke-width: 1.5"/>
    <path d="M 140.416705 58.494258 
L 140.416705 58.126272 
" clip-path="url(#p1483a4376a)" style="fill: none; stroke: #1f77b4; stroke-width: 1.5"/>
    <path d="M 141.938523 64.08031 
L 141.938523 63.718381 
" clip-path="url(#p1483a4376a)" style="fill: none; stroke: #1f77b4; stroke-width: 1.5"/>
    <path d="M 143.460341 68.838413 
L 143.460341 68.481725 
" clip-path="url(#p1483a4376a)" style="fill: none; stroke: #1f77b4; stroke-width: 1.5"/>
    <path d="M 144.982159 74.267096 
L 144.982159 73.916483 
" clip-path="url(#p1483a4376a)" style="fill: none; stroke: #1f77b4; stroke-width: 1.5"/>
    <path d="M 146.503977 76.394608 
L 146.503977 76.046404 
" clip-path="url(#p1483a4376a)" style="fill: none; stroke: #1f77b4; stroke-width: 1.5"/>
    <path d="M 148.025795 77.235885 
L 148.025795 76.888639 
" clip-path="url(#p1483a4376a)" style="fill: none; stroke: #1f77b4; stroke-width: 1.5"/>
    <path d="M 149.547614 80.280935 
L 149.547614 79.937177 
" clip-path="url(#p1483a4376a)" style="fill: none; stroke: #1f77b4; stroke-width: 1.5"/>
    <path d="M 151.069432 83.852959 
L 151.069432 83.513338 
" clip-path="url(#p1483a4376a)" style="fill: none; stroke: #1f77b4; stroke-width: 1.5"/>
    <path d="M 152.59125 81.3772 
L 152.59125 81.034706 
" clip-path="url(#p1483a4376a)" style="fill: none; stroke: #1f77b4; stroke-width: 1.5"/>
    <path d="M 154.113068 82.14944 
L 154.113068 81.80784 
" clip-path="url(#p1483a4376a)" style="fill: none; stroke: #1f77b4; stroke-width: 1.5"/>
    <path d="M 155.634886 84.483813 
L 155.634886 84.144928 
" clip-path="url(#p1483a4376a)" style="fill: none; stroke: #1f77b4; stroke-width: 1.5"/>
    <path d="M 157.156705 86.818457 
L 157.156705 86.48231 
" clip-path="url(#p1483a4376a)" style="fill: none; stroke: #1f77b4; stroke-width: 1.5"/>
    <path d="M 158.678523 89.916207 
L 158.678523 89.583726 
" clip-path="url(#p1483a4376a)" style="fill: none; stroke: #1f77b4; stroke-width: 1.5"/>
    <path d="M 160.200341 89.697691 
L 160.200341 89.364951 
" clip-path="url(#p1483a4376a)" style="fill: none; stroke: #1f77b4; stroke-width: 1.5"/>
    <path d="M 161.722159 91.387564 
L 161.722159 91.05684 
" clip-path="url(#p1483a4376a)" style="fill: none; stroke: #1f77b4; stroke-width: 1.5"/>
    <path d="M 163.243977 93.278592 
L 163.243977 92.950138 
" clip-path="url(#p1483a4376a)" style="fill: none; stroke: #1f77b4; stroke-width: 1.5"/>
    <path d="M 164.765795 95.523311 
L 164.765795 95.197573 
" clip-path="url(#p1483a4376a)" style="fill: none; stroke: #1f77b4; stroke-width: 1.5"/>
    <path d="M 166.287614 96.064447 
L 166.287614 95.739367 
" clip-path="url(#p1483a4376a)" style="fill: none; stroke: #1f77b4; stroke-width: 1.5"/>
    <path d="M 167.809432 96.412062 
L 167.809432 96.087406 
" clip-path="url(#p1483a4376a)" style="fill: none; stroke: #1f77b4; stroke-width: 1.5"/>
    <path d="M 169.33125 99.004472 
L 169.33125 98.682991 
" clip-path="url(#p1483a4376a)" style="fill: none; stroke: #1f77b4; stroke-width: 1.5"/>
    <path d="M 170.853068 102.537839 
L 170.853068 102.220738 
" clip-path="url(#p1483a4376a)" style="fill: none; stroke: #1f77b4; stroke-width: 1.5"/>
    <path d="M 172.374886 105.926935 
L 172.374886 105.614093 
" clip-path="url(#p1483a4376a)" style="fill: none; stroke: #1f77b4; stroke-width: 1.5"/>
    <path d="M 173.896705 109.138209 
L 173.896705 108.829456 
" clip-path="url(#p1483a4376a)" style="fill: none; stroke: #1f77b4; stroke-width: 1.5"/>
    <path d="M 175.418523 112.374047 
L 175.418523 112.06947 
" clip-path="url(#p1483a4376a)" style="fill: none; stroke: #1f77b4; stroke-width: 1.5"/>
    <path d="M 176.940341 115.282378 
L 176.940341 114.981605 
" clip-path="url(#p1483a4376a)" style="fill: none; stroke: #1f77b4; stroke-width: 1.5"/>
    <path d="M 178.462159 118.295378 
L 178.462159 117.998595 
" clip-path="url(#p1483a4376a)" style="fill: none; stroke: #1f77b4; stroke-width: 1.5"/>
    <path d="M 179.983977 121.784368 
L 179.983977 121.492275 
" clip-path="url(#p1483a4376a)" style="fill: none; stroke: #1f77b4; stroke-width: 1.5"/>
    <path d="M 181.505795 124.596026 
L 181.505795 124.307768 
" clip-path="url(#p1483a4376a)" style="fill: none; stroke: #1f77b4; stroke-width: 1.5"/>
    <path d="M 183.027614 127.594613 
L 183.027614 127.310503 
" clip-path="url(#p1483a4376a)" style="fill: none; stroke: #1f77b4; stroke-width: 1.5"/>
    <path d="M 184.549432 130.428659 
L 184.549432 130.148524 
" clip-path="url(#p1483a4376a)" style="fill: none; stroke: #1f77b4; stroke-width: 1.5"/>
    <path d="M 186.07125 133.350929 
L 186.07125 133.074954 
" clip-path="url(#p1483a4376a)" style="fill: none; stroke: #1f77b4; stroke-width: 1.5"/>
    <path d="M 187.593068 136.127848 
L 187.593068 135.855885 
" clip-path="url(#p1483a4376a)" style="fill: none; stroke: #1f77b4; stroke-width: 1.5"/>
    <path d="M 189.114886 138.701252 
L 189.114886 138.43306 
" clip-path="url(#p1483a4376a)" style="fill: none; stroke: #1f77b4; stroke-width: 1.5"/>
    <path d="M 190.636705 141.315292 
L 190.636705 141.050986 
" clip-path="url(#p1483a4376a)" style="fill: none; stroke: #1f77b4; stroke-width: 1.5"/>
    <path d="M 192.158523 143.833508 
L 192.158523 143.573001 
" clip-path="url(#p1483a4376a)" style="fill: none; stroke: #1f77b4; stroke-width: 1.5"/>
    <path d="M 193.680341 146.703671 
L 193.680341 146.447563 
" clip-path="url(#p1483a4376a)" style="fill: none; stroke: #1f77b4; stroke-width: 1.5"/>
    <path d="M 195.202159 148.712015 
L 195.202159 148.45903 
" clip-path="url(#p1483a4376a)" style="fill: none; stroke: #1f77b4; stroke-width: 1.5"/>
    <path d="M 196.723977 151.204835 
L 196.723977 150.95578 
" clip-path="url(#p1483a4376a)" style="fill: none; stroke: #1f77b4; stroke-width: 1.5"/>
    <path d="M 198.245795 153.434725 
L 198.245795 153.18924 
" clip-path="url(#p1483a4376a)" style="fill: none; stroke: #1f77b4; stroke-width: 1.5"/>
    <path d="M 199.767614 155.760333 
L 199.767614 155.518627 
" clip-path="url(#p1483a4376a)" style="fill: none; stroke: #1f77b4; stroke-width: 1.5"/>
    <path d="M 201.289432 157.878246 
L 201.289432 157.640034 
" clip-path="url(#p1483a4376a)" style="fill: none; stroke: #1f77b4; stroke-width: 1.5"/>
    <path d="M 202.81125 159.900272 
L 202.81125 159.665444 
" clip-path="url(#p1483a4376a)" style="fill: none; stroke: #1f77b4; stroke-width: 1.5"/>
    <path d="M 204.333068 161.961405 
L 204.333068 161.730077 
" clip-path="url(#p1483a4376a)" style="fill: none; stroke: #1f77b4; stroke-width: 1.5"/>
    <path d="M 205.854886 164.13822 
L 205.854886 163.910648 
" clip-path="url(#p1483a4376a)" style="fill: none; stroke: #1f77b4; stroke-width: 1.5"/>
    <path d="M 207.376705 165.952337 
L 207.376705 165.727943 
" clip-path="url(#p1483a4376a)" style="fill: none; stroke: #1f77b4; stroke-width: 1.5"/>
    <path d="M 208.898523 167.855701 
L 208.898523 167.63469 
" clip-path="url(#p1483a4376a)" style="fill: none; stroke: #1f77b4; stroke-width: 1.5"/>
    <path d="M 210.420341 170.074106 
L 210.420341 169.857105 
" clip-path="url(#p1483a4376a)" style="fill: none; stroke: #1f77b4; stroke-width: 1.5"/>
    <path d="M 211.942159 171.68136 
L 211.942159 171.467312 
" clip-path="url(#p1483a4376a)" style="fill: none; stroke: #1f77b4; stroke-width: 1.5"/>
    <path d="M 213.463977 173.315238 
L 213.463977 173.104233 
" clip-path="url(#p1483a4376a)" style="fill: none; stroke: #1f77b4; stroke-width: 1.5"/>
    <path d="M 214.985795 175.061015 
L 214.985795 174.853311 
" clip-path="url(#p1483a4376a)" style="fill: none; stroke: #1f77b4; stroke-width: 1.5"/>
    <path d="M 216.507614 176.808865 
L 216.507614 176.604521 
" clip-path="url(#p1483a4376a)" style="fill: none; stroke: #1f77b4; stroke-width: 1.5"/>
    <path d="M 218.029432 178.487375 
L 218.029432 178.286309 
" clip-path="url(#p1483a4376a)" style="fill: none; stroke: #1f77b4; stroke-width: 1.5"/>
    <path d="M 219.55125 179.850703 
L 219.55125 179.652339 
" clip-path="url(#p1483a4376a)" style="fill: none; stroke: #1f77b4; stroke-width: 1.5"/>
    <path d="M 221.073068 181.465812 
L 221.073068 181.270698 
" clip-path="url(#p1483a4376a)" style="fill: none; stroke: #1f77b4; stroke-width: 1.5"/>
    <path d="M 222.594886 182.863109 
L 222.594886 182.670852 
" clip-path="url(#p1483a4376a)" style="fill: none; stroke: #1f77b4; stroke-width: 1.5"/>
    <path d="M 224.116705 184.198677 
L 224.116705 184.00919 
" clip-path="url(#p1483a4376a)" style="fill: none; stroke: #1f77b4; stroke-width: 1.5"/>
    <path d="M 225.638523 185.704998 
L 225.638523 185.518685 
" clip-path="url(#p1483a4376a)" style="fill: none; stroke: #1f77b4; stroke-width: 1.5"/>
    <path d="M 227.160341 187.005772 
L 227.160341 186.822244 
" clip-path="url(#p1483a4376a)" style="fill: none; stroke: #1f77b4; stroke-width: 1.5"/>
    <path d="M 228.682159 188.247727 
L 228.682159 188.066899 
" clip-path="url(#p1483a4376a)" style="fill: none; stroke: #1f77b4; stroke-width: 1.5"/>
    <path d="M 230.203977 189.590144 
L 230.203977 189.41228 
" clip-path="url(#p1483a4376a)" style="fill: none; stroke: #1f77b4; stroke-width: 1.5"/>
    <path d="M 231.725795 190.742055 
L 231.725795 190.566774 
" clip-path="url(#p1483a4376a)" style="fill: none; stroke: #1f77b4; stroke-width: 1.5"/>
    <path d="M 233.247614 191.95253 
L 233.247614 191.780005 
" clip-path="url(#p1483a4376a)" style="fill: none; stroke: #1f77b4; stroke-width: 1.5"/>
    <path d="M 234.769432 193.006047 
L 234.769432 192.835958 
" clip-path="url(#p1483a4376a)" style="fill: none; stroke: #1f77b4; stroke-width: 1.5"/>
    <path d="M 236.29125 194.069968 
L 236.29125 193.902373 
" clip-path="url(#p1483a4376a)" style="fill: none; stroke: #1f77b4; stroke-width: 1.5"/>
    <path d="M 237.813068 195.182385 
L 237.813068 195.01744 
" clip-path="url(#p1483a4376a)" style="fill: none; stroke: #1f77b4; stroke-width: 1.5"/>
    <path d="M 239.334886 196.339435 
L 239.334886 196.177292 
" clip-path="url(#p1483a4376a)" style="fill: none; stroke: #1f77b4; stroke-width: 1.5"/>
    <path d="M 240.856705 197.105807 
L 240.856705 196.945546 
" clip-path="url(#p1483a4376a)" style="fill: none; stroke: #1f77b4; stroke-width: 1.5"/>
    <path d="M 242.378523 198.185121 
L 242.378523 198.02755 
" clip-path="url(#p1483a4376a)" style="fill: none; stroke: #1f77b4; stroke-width: 1.5"/>
    <path d="M 243.900341 199.192481 
L 243.900341 199.037463 
" clip-path="url(#p1483a4376a)" style="fill: none; stroke: #1f77b4; stroke-width: 1.5"/>
    <path d="M 245.422159 200.085617 
L 245.422159 199.932897 
" clip-path="url(#p1483a4376a)" style="fill: none; stroke: #1f77b4; stroke-width: 1.5"/>
    <path d="M 246.943977 200.986508 
L 246.943977 200.836142 
" clip-path="url(#p1483a4376a)" style="fill: none; stroke: #1f77b4; stroke-width: 1.5"/>
    <path d="M 248.465795 201.631193 
L 248.465795 201.482535 
" clip-path="url(#p1483a4376a)" style="fill: none; stroke: #1f77b4; stroke-width: 1.5"/>
    <path d="M 249.987614 202.481064 
L 249.987614 202.334688 
" clip-path="url(#p1483a4376a)" style="fill: none; stroke: #1f77b4; stroke-width: 1.5"/>
    <path d="M 251.509432 203.332111 
L 251.509432 203.188056 
" clip-path="url(#p1483a4376a)" style="fill: none; stroke: #1f77b4; stroke-width: 1.5"/>
    <path d="M 253.03125 204.231656 
L 253.03125 204.090096 
" clip-path="url(#p1483a4376a)" style="fill: none; stroke: #1f77b4; stroke-width: 1.5"/>
    <path d="M 254.553068 204.800283 
L 254.553068 204.660323 
" clip-path="url(#p1483a4376a)" style="fill: none; stroke: #1f77b4; stroke-width: 1.5"/>
    <path d="M 256.074886 205.534854 
L 256.074886 205.396988 
" clip-path="url(#p1483a4376a)" style="fill: none; stroke: #1f77b4; stroke-width: 1.5"/>
    <path d="M 257.596705 206.205799 
L 257.596705 206.069875 
" clip-path="url(#p1483a4376a)" style="fill: none; stroke: #1f77b4; stroke-width: 1.5"/>
    <path d="M 259.118523 206.830819 
L 259.118523 206.696729 
" clip-path="url(#p1483a4376a)" style="fill: none; stroke: #1f77b4; stroke-width: 1.5"/>
    <path d="M 260.640341 207.445453 
L 260.640341 207.31319 
" clip-path="url(#p1483a4376a)" style="fill: none; stroke: #1f77b4; stroke-width: 1.5"/>
    <path d="M 262.162159 208.292067 
L 262.162159 208.162365 
" clip-path="url(#p1483a4376a)" style="fill: none; stroke: #1f77b4; stroke-width: 1.5"/>
    <path d="M 263.683977 208.815545 
L 263.683977 208.687452 
" clip-path="url(#p1483a4376a)" style="fill: none; stroke: #1f77b4; stroke-width: 1.5"/>
    <path d="M 265.205795 209.364092 
L 265.205795 209.237706 
" clip-path="url(#p1483a4376a)" style="fill: none; stroke: #1f77b4; stroke-width: 1.5"/>
    <path d="M 266.727614 209.923063 
L 266.727614 209.798442 
" clip-path="url(#p1483a4376a)" style="fill: none; stroke: #1f77b4; stroke-width: 1.5"/>
    <path d="M 268.249432 210.409635 
L 268.249432 210.286571 
" clip-path="url(#p1483a4376a)" style="fill: none; stroke: #1f77b4; stroke-width: 1.5"/>
    <path d="M 269.77125 210.966296 
L 269.77125 210.845037 
" clip-path="url(#p1483a4376a)" style="fill: none; stroke: #1f77b4; stroke-width: 1.5"/>
    <path d="M 271.293068 211.416638 
L 271.293068 211.296859 
" clip-path="url(#p1483a4376a)" style="fill: none; stroke: #1f77b4; stroke-width: 1.5"/>
    <path d="M 272.814886 212.07078 
L 272.814886 211.953185 
" clip-path="url(#p1483a4376a)" style="fill: none; stroke: #1f77b4; stroke-width: 1.5"/>
    <path d="M 274.336705 212.470678 
L 274.336705 212.354437 
" clip-path="url(#p1483a4376a)" style="fill: none; stroke: #1f77b4; stroke-width: 1.5"/>
    <path d="M 275.858523 212.972788 
L 275.858523 212.858272 
" clip-path="url(#p1483a4376a)" style="fill: none; stroke: #1f77b4; stroke-width: 1.5"/>
    <path d="M 277.380341 213.331705 
L 277.380341 213.218437 
" clip-path="url(#p1483a4376a)" style="fill: none; stroke: #1f77b4; stroke-width: 1.5"/>
    <path d="M 278.902159 213.818806 
L 278.902159 213.707255 
" clip-path="url(#p1483a4376a)" style="fill: none; stroke: #1f77b4; stroke-width: 1.5"/>
    <path d="M 280.423977 214.168901 
L 280.423977 214.058601 
" clip-path="url(#p1483a4376a)" style="fill: none; stroke: #1f77b4; stroke-width: 1.5"/>
    <path d="M 281.945795 214.636083 
L 281.945795 214.527474 
" clip-path="url(#p1483a4376a)" style="fill: none; stroke: #1f77b4; stroke-width: 1.5"/>
    <path d="M 283.467614 215.033329 
L 283.467614 214.926179 
" clip-path="url(#p1483a4376a)" style="fill: none; stroke: #1f77b4; stroke-width: 1.5"/>
    <path d="M 284.989432 215.506999 
L 284.989432 215.401616 
" clip-path="url(#p1483a4376a)" style="fill: none; stroke: #1f77b4; stroke-width: 1.5"/>
    <path d="M 286.51125 215.847701 
L 286.51125 215.743606 
" clip-path="url(#p1483a4376a)" style="fill: none; stroke: #1f77b4; stroke-width: 1.5"/>
    <path d="M 288.033068 216.230495 
L 288.033068 216.127868 
" clip-path="url(#p1483a4376a)" style="fill: none; stroke: #1f77b4; stroke-width: 1.5"/>
    <path d="M 289.554886 216.555105 
L 289.554886 216.453739 
" clip-path="url(#p1483a4376a)" style="fill: none; stroke: #1f77b4; stroke-width: 1.5"/>
    <path d="M 291.076705 217.008013 
L 291.076705 216.908434 
" clip-path="url(#p1483a4376a)" style="fill: none; stroke: #1f77b4; stroke-width: 1.5"/>
    <path d="M 292.598523 217.293358 
L 292.598523 217.194921 
" clip-path="url(#p1483a4376a)" style="fill: none; stroke: #1f77b4; stroke-width: 1.5"/>
    <path d="M 294.120341 217.643934 
L 294.120341 217.546919 
" clip-path="url(#p1483a4376a)" style="fill: none; stroke: #1f77b4; stroke-width: 1.5"/>
    <path d="M 295.642159 217.907981 
L 295.642159 217.81205 
" clip-path="url(#p1483a4376a)" style="fill: none; stroke: #1f77b4; stroke-width: 1.5"/>
    <path d="M 297.163977 218.277908 
L 297.163977 218.183518 
" clip-path="url(#p1483a4376a)" style="fill: none; stroke: #1f77b4; stroke-width: 1.5"/>
    <path d="M 298.685795 218.486612 
L 298.685795 218.393102 
" clip-path="url(#p1483a4376a)" style="fill: none; stroke: #1f77b4; stroke-width: 1.5"/>
    <path d="M 300.207614 218.847985 
L 300.207614 218.75602 
" clip-path="url(#p1483a4376a)" style="fill: none; stroke: #1f77b4; stroke-width: 1.5"/>
    <path d="M 301.729432 219.092529 
L 301.729432 219.001624 
" clip-path="url(#p1483a4376a)" style="fill: none; stroke: #1f77b4; stroke-width: 1.5"/>
    <path d="M 303.25125 219.285444 
L 303.25125 219.195385 
" clip-path="url(#p1483a4376a)" style="fill: none; stroke: #1f77b4; stroke-width: 1.5"/>
    <path d="M 304.773068 219.660595 
L 304.773068 219.572202 
" clip-path="url(#p1483a4376a)" style="fill: none; stroke: #1f77b4; stroke-width: 1.5"/>
    <path d="M 306.294886 219.923547 
L 306.294886 219.836342 
" clip-path="url(#p1483a4376a)" style="fill: none; stroke: #1f77b4; stroke-width: 1.5"/>
    <path d="M 307.816705 220.163517 
L 307.816705 220.077409 
" clip-path="url(#p1483a4376a)" style="fill: none; stroke: #1f77b4; stroke-width: 1.5"/>
    <path d="M 309.338523 220.40378 
L 309.338523 220.318786 
" clip-path="url(#p1483a4376a)" style="fill: none; stroke: #1f77b4; stroke-width: 1.5"/>
    <path d="M 310.860341 220.697695 
L 310.860341 220.614083 
" clip-path="url(#p1483a4376a)" style="fill: none; stroke: #1f77b4; stroke-width: 1.5"/>
    <path d="M 312.382159 220.884611 
L 312.382159 220.801889 
" clip-path="url(#p1483a4376a)" style="fill: none; stroke: #1f77b4; stroke-width: 1.5"/>
    <path d="M 313.903977 221.091538 
L 313.903977 221.009814 
" clip-path="url(#p1483a4376a)" style="fill: none; stroke: #1f77b4; stroke-width: 1.5"/>
    <path d="M 315.425795 221.325665 
L 315.425795 221.245086 
" clip-path="url(#p1483a4376a)" style="fill: none; stroke: #1f77b4; stroke-width: 1.5"/>
    <path d="M 316.947614 221.568897 
L 316.947614 221.489524 
" clip-path="url(#p1483a4376a)" style="fill: none; stroke: #1f77b4; stroke-width: 1.5"/>
    <path d="M 318.469432 221.685514 
L 318.469432 221.606725 
" clip-path="url(#p1483a4376a)" style="fill: none; stroke: #1f77b4; stroke-width: 1.5"/>
    <path d="M 319.99125 222.040261 
L 319.99125 221.963278 
" clip-path="url(#p1483a4376a)" style="fill: none; stroke: #1f77b4; stroke-width: 1.5"/>
    <path d="M 321.513068 222.174399 
L 321.513068 222.09811 
" clip-path="url(#p1483a4376a)" style="fill: none; stroke: #1f77b4; stroke-width: 1.5"/>
    <path d="M 323.034886 222.350513 
L 323.034886 222.275145 
" clip-path="url(#p1483a4376a)" style="fill: none; stroke: #1f77b4; stroke-width: 1.5"/>
    <path d="M 324.556705 222.492496 
L 324.556705 222.417879 
" clip-path="url(#p1483a4376a)" style="fill: none; stroke: #1f77b4; stroke-width: 1.5"/>
    <path d="M 326.078523 222.707957 
L 326.078523 222.634494 
" clip-path="url(#p1483a4376a)" style="fill: none; stroke: #1f77b4; stroke-width: 1.5"/>
    <path d="M 327.600341 222.922661 
L 327.600341 222.850367 
" clip-path="url(#p1483a4376a)" style="fill: none; stroke: #1f77b4; stroke-width: 1.5"/>
    <path d="M 329.122159 223.138527 
L 329.122159 223.067427 
" clip-path="url(#p1483a4376a)" style="fill: none; stroke: #1f77b4; stroke-width: 1.5"/>
    <path d="M 330.643977 223.240081 
L 330.643977 223.16955 
" clip-path="url(#p1483a4376a)" style="fill: none; stroke: #1f77b4; stroke-width: 1.5"/>
    <path d="M 332.165795 223.419671 
L 332.165795 223.350157 
" clip-path="url(#p1483a4376a)" style="fill: none; stroke: #1f77b4; stroke-width: 1.5"/>
    <path d="M 333.687614 223.583397 
L 333.687614 223.514823 
" clip-path="url(#p1483a4376a)" style="fill: none; stroke: #1f77b4; stroke-width: 1.5"/>
    <path d="M 335.209432 223.720067 
L 335.209432 223.652289 
" clip-path="url(#p1483a4376a)" style="fill: none; stroke: #1f77b4; stroke-width: 1.5"/>
    <path d="M 336.73125 223.889952 
L 336.73125 223.823175 
" clip-path="url(#p1483a4376a)" style="fill: none; stroke: #1f77b4; stroke-width: 1.5"/>
    <path d="M 338.253068 223.997563 
L 338.253068 223.931429 
" clip-path="url(#p1483a4376a)" style="fill: none; stroke: #1f77b4; stroke-width: 1.5"/>
    <path d="M 339.774886 224.128711 
L 339.774886 224.063368 
" clip-path="url(#p1483a4376a)" style="fill: none; stroke: #1f77b4; stroke-width: 1.5"/>
    <path d="M 341.296705 224.267732 
L 341.296705 224.203239 
" clip-path="url(#p1483a4376a)" style="fill: none; stroke: #1f77b4; stroke-width: 1.5"/>
    <path d="M 342.818523 224.410755 
L 342.818523 224.347147 
" clip-path="url(#p1483a4376a)" style="fill: none; stroke: #1f77b4; stroke-width: 1.5"/>
    <path d="M 344.340341 224.560135 
L 344.340341 224.497467 
" clip-path="url(#p1483a4376a)" style="fill: none; stroke: #1f77b4; stroke-width: 1.5"/>
    <path d="M 345.862159 224.708091 
L 345.862159 224.646367 
" clip-path="url(#p1483a4376a)" style="fill: none; stroke: #1f77b4; stroke-width: 1.5"/>
    <path d="M 347.383977 224.837479 
L 347.383977 224.776592 
" clip-path="url(#p1483a4376a)" style="fill: none; stroke: #1f77b4; stroke-width: 1.5"/>
    <path d="M 348.905795 224.96105 
L 348.905795 224.900973 
" clip-path="url(#p1483a4376a)" style="fill: none; stroke: #1f77b4; stroke-width: 1.5"/>
    <path d="M 350.427614 225.020692 
L 350.427614 224.96101 
" clip-path="url(#p1483a4376a)" style="fill: none; stroke: #1f77b4; stroke-width: 1.5"/>
    <path d="M 351.949432 225.185022 
L 351.949432 225.126444 
" clip-path="url(#p1483a4376a)" style="fill: none; stroke: #1f77b4; stroke-width: 1.5"/>
    <path d="M 353.47125 225.342545 
L 353.47125 225.285043 
" clip-path="url(#p1483a4376a)" style="fill: none; stroke: #1f77b4; stroke-width: 1.5"/>
    <path d="M 354.993068 225.47408 
L 354.993068 225.417493 
" clip-path="url(#p1483a4376a)" style="fill: none; stroke: #1f77b4; stroke-width: 1.5"/>
    <path d="M 356.514886 225.618226 
L 356.514886 225.56266 
" clip-path="url(#p1483a4376a)" style="fill: none; stroke: #1f77b4; stroke-width: 1.5"/>
    <path d="M 358.036705 225.927071 
L 358.036705 225.873757 
" clip-path="url(#p1483a4376a)" style="fill: none; stroke: #1f77b4; stroke-width: 1.5"/>
    <path d="M 359.558523 226.260886 
L 359.558523 226.210119 
" clip-path="url(#p1483a4376a)" style="fill: none; stroke: #1f77b4; stroke-width: 1.5"/>
    <path d="M 361.080341 226.834062 
L 361.080341 226.787997 
" clip-path="url(#p1483a4376a)" style="fill: none; stroke: #1f77b4; stroke-width: 1.5"/>
    <path d="M 362.602159 227.569285 
L 362.602159 227.530071 
" clip-path="url(#p1483a4376a)" style="fill: none; stroke: #1f77b4; stroke-width: 1.5"/>
   </g>
   <g id="patch_3">
    <path d="M 43.78125 239.558437 
L 43.78125 17.798438 
" style="fill: none; stroke: #000000; stroke-width: 0.8; stroke-linejoin: miter; stroke-linecap: square"/>
   </g>
   <g id="patch_4">
    <path d="M 378.58125 239.558437 
L 378.58125 17.798438 
" style="fill: none; stroke: #000000; stroke-width: 0.8; stroke-linejoin: miter; stroke-linecap: square"/>
   </g>
   <g id="patch_5">
    <path d="M 43.78125 239.558437 
L 378.58125 239.558437 
" style="fill: none; stroke: #000000; stroke-width: 0.8; stroke-linejoin: miter; stroke-linecap: square"/>
   </g>
   <g id="patch_6">
    <path d="M 43.78125 17.798437 
L 378.58125 17.798437 
" style="fill: none; stroke: #000000; stroke-width: 0.8; stroke-linejoin: miter; stroke-linecap: square"/>
   </g>
  </g>
 </g>
 <defs>
  <clipPath id="p1483a4376a">
   <rect x="43.78125" y="17.798437" width="334.8" height="221.76"/>
  </clipPath>
 </defs>
</svg>
