<?xml version="1.0" encoding="utf-8" standalone="no"?>
<!DOCTYPE svg PUBLIC "-//W3C//DTD SVG 1.1//EN"
  "http://www.w3.org/Graphics/SVG/1.1/DTD/svg11.dtd">
<svg xmlns:xlink="http://www.w3.org/1999/xlink" width="386.465442pt" height="266.51625pt" viewBox="0 0 386.465442 266.51625" xmlns="http://www.w3.org/2000/svg" version="1.1">
 <metadata>
  <rdf:RDF xmlns:dc="http://purl.org/dc/elements/1.1/" xmlns:cc="http://creativecommons.org/ns#" xmlns:rdf="http://www.w3.org/1999/02/22-rdf-syntax-ns#">
   <cc:Work>
    <dc:type rdf:resource="http://purl.org/dc/dcmitype/StillImage"/>
    <dc:date>2025-12-02T06:59:03.590751</dc:date>
    <dc:format>image/svg+xml</dc:format>
    <dc:creator>
     <cc:Agent>
      <dc:title>Matplotlib v3.9.4, https://matplotlib.org/</dc:title>
     </cc:Agent>
    </dc:creator>
   </cc:Work>
  </rdf:RDF>
 </metadata>
 <defs>
  <style type="text/css">*{stroke-linejoin: round; stroke-linecap: butt}</style>
 </defs>
 <g id="figure_1">
  <g id="patch_1">
   <path d="M 0 266.51625 
L 386.465442 266.51625 
L 386.465442 0 
L 0 0 
z
" style="fill: #ffffff"/>
  </g>
  <g id="axes_1">
   <g id="patch_2">
    <path d="M 40.603125 228.96 
L 375.403125 228.96 
L 375.403125 7.2 
L 40.603125 7.2 
z
" style="fill: #ffffff"/>
   </g>
   <g id="matplotlib.axis_1">
    <g id="xtick_1">
     <g id="line2d_1">
      <defs>
       <path id="maa65b622c8" d="M 0 0 
L 0 3.5 
" style="stroke: #000000; stroke-width: 0.8"/>
      </defs>
      <g>
       <use xlink:href="#maa65b622c8" x="55.799087" y="228.96" style="stroke: #000000; stroke-width: 0.8"/>
      </g>
     </g>
     <g id="text_1">
      <!-- 0 -->
      <g transform="translate(52.617837 243.558437) scale(0.1 -0.1)">
       <defs>
        <path id="DejaVuSans-30" d="M 2034 4250 
Q 1547 4250 1301 3770 
Q 1056 3291 1056 2328 
Q 1056 1369 1301 889 
Q 1547 409 2034 409 
Q 2525 409 2770 889 
Q 3016 1369 3016 2328 
Q 3016 3291 2770 3770 
Q 2525 4250 2034 4250 
z
M 2034 4750 
Q 2819 4750 3233 4129 
Q 3647 3509 3647 2328 
Q 3647 1150 3233 529 
Q 2819 -91 2034 -91 
Q 1250 -91 836 529 
Q 422 1150 422 2328 
Q 422 3509 836 4129 
Q 1250 4750 2034 4750 
z
" transform="scale(0.015625)"/>
       </defs>
       <use xlink:href="#DejaVuSans-30"/>
      </g>
     </g>
    </g>
    <g id="xtick_2">
     <g id="line2d_2">
      <g>
       <use xlink:href="#maa65b622c8" x="116.674858" y="228.96" style="stroke: #000000; stroke-width: 0.8"/>
      </g>
     </g>
     <g id="text_2">
      <!-- 20000 -->
      <g transform="translate(100.768608 243.558437) scale(0.1 -0.1)">
       <defs>
        <path id="DejaVuSans-32" d="M 1228 531 
L 3431 531 
L 3431 0 
L 469 0 
L 469 531 
Q 828 903 1448 1529 
Q 2069 2156 2228 2338 
Q 2531 2678 2651 2914 
Q 2772 3150 2772 3378 
Q 2772 3750 2511 3984 
Q 2250 4219 1831 4219 
Q 1534 4219 1204 4116 
Q 875 4013 500 3803 
L 500 4441 
Q 881 4594 1212 4672 
Q 1544 4750 1819 4750 
Q 2544 4750 2975 4387 
Q 3406 4025 3406 3419 
Q 3406 3131 3298 2873 
Q 3191 2616 2906 2266 
Q 2828 2175 2409 1742 
Q 1991 1309 1228 531 
z
" transform="scale(0.015625)"/>
       </defs>
       <use xlink:href="#DejaVuSans-32"/>
       <use xlink:href="#DejaVuSans-30" x="63.623047"/>
       <use xlink:href="#DejaVuSans-30" x="127.246094"/>
       <use xlink:href="#DejaVuSans-30" x="190.869141"/>
       <use xlink:href="#DejaVuSans-30" x="254.492188"/>
      </g>
     </g>
    </g>
    <g id="xtick_3">
     <g id="line2d_3">
      <g>
       <use xlink:href="#maa65b622c8" x="177.550629" y="228.96" style="stroke: #000000; stroke-width: 0.8"/>
      </g>
     </g>
     <g id="text_3">
      <!-- 40000 -->
      <g transform="translate(161.644379 243.558437) scale(0.1 -0.1)">
       <defs>
        <path id="DejaVuSans-34" d="M 2419 4116 
L 825 1625 
L 2419 1625 
L 2419 4116 
z
M 2253 4666 
L 3047 4666 
L 3047 1625 
L 3713 1625 
L 3713 1100 
L 3047 1100 
L 3047 0 
L 2419 0 
L 2419 1100 
L 313 1100 
L 313 1709 
L 2253 4666 
z
" transform="scale(0.015625)"/>
       </defs>
       <use xlink:href="#DejaVuSans-34"/>
       <use xlink:href="#DejaVuSans-30" x="63.623047"/>
       <use xlink:href="#DejaVuSans-30" x="127.246094"/>
       <use xlink:href="#DejaVuSans-30" x="190.869141"/>
       <use xlink:href="#DejaVuSans-30" x="254.492188"/>
      </g>
     </g>
    </g>
    <g id="xtick_4">
     <g id="line2d_4">
      <g>
       <use xlink:href="#maa65b622c8" x="238.4264" y="228.96" style="stroke: #000000; stroke-width: 0.8"/>
      </g>
     </g>
     <g id="text_4">
      <!-- 60000 -->
      <g transform="translate(222.52015 243.558437) scale(0.1 -0.1)">
       <defs>
        <path id="DejaVuSans-36" d="M 2113 2584 
Q 1688 2584 1439 2293 
Q 1191 2003 1191 1497 
Q 1191 994 1439 701 
Q 1688 409 2113 409 
Q 2538 409 2786 701 
Q 3034 994 3034 1497 
Q 3034 2003 2786 2293 
Q 2538 2584 2113 2584 
z
M 3366 4563 
L 3366 3988 
Q 3128 4100 2886 4159 
Q 2644 4219 2406 4219 
Q 1781 4219 1451 3797 
Q 1122 3375 1075 2522 
Q 1259 2794 1537 2939 
Q 1816 3084 2150 3084 
Q 2853 3084 3261 2657 
Q 3669 2231 3669 1497 
Q 3669 778 3244 343 
Q 2819 -91 2113 -91 
Q 1303 -91 875 529 
Q 447 1150 447 2328 
Q 447 3434 972 4092 
Q 1497 4750 2381 4750 
Q 2619 4750 2861 4703 
Q 3103 4656 3366 4563 
z
" transform="scale(0.015625)"/>
       </defs>
       <use xlink:href="#DejaVuSans-36"/>
       <use xlink:href="#DejaVuSans-30" x="63.623047"/>
       <use xlink:href="#DejaVuSans-30" x="127.246094"/>
       <use xlink:href="#DejaVuSans-30" x="190.869141"/>
       <use xlink:href="#DejaVuSans-30" x="254.492188"/>
      </g>
     </g>
    </g>
    <g id="xtick_5">
     <g id="line2d_5">
      <g>
       <use xlink:href="#maa65b622c8" x="299.302171" y="228.96" style="stroke: #000000; stroke-width: 0.8"/>
      </g>
     </g>
     <g id="text_5">
      <!-- 80000 -->
      <g transform="translate(283.395921 243.558437) scale(0.1 -0.1)">
       <defs>
        <path id="DejaVuSans-38" d="M 2034 2216 
Q 1584 2216 1326 1975 
Q 1069 1734 1069 1313 
Q 1069 891 1326 650 
Q 1584 409 2034 409 
Q 2484 409 2743 651 
Q 3003 894 3003 1313 
Q 3003 1734 2745 1975 
Q 2488 2216 2034 2216 
z
M 1403 2484 
Q 997 2584 770 2862 
Q 544 3141 544 3541 
Q 544 4100 942 4425 
Q 1341 4750 2034 4750 
Q 2731 4750 3128 4425 
Q 3525 4100 3525 3541 
Q 3525 3141 3298 2862 
Q 3072 2584 2669 2484 
Q 3125 2378 3379 2068 
Q 3634 1759 3634 1313 
Q 3634 634 3220 271 
Q 2806 -91 2034 -91 
Q 1263 -91 848 271 
Q 434 634 434 1313 
Q 434 1759 690 2068 
Q 947 2378 1403 2484 
z
M 1172 3481 
Q 1172 3119 1398 2916 
Q 1625 2713 2034 2713 
Q 2441 2713 2670 2916 
Q 2900 3119 2900 3481 
Q 2900 3844 2670 4047 
Q 2441 4250 2034 4250 
Q 1625 4250 1398 4047 
Q 1172 3844 1172 3481 
z
" transform="scale(0.015625)"/>
       </defs>
       <use xlink:href="#DejaVuSans-38"/>
       <use xlink:href="#DejaVuSans-30" x="63.623047"/>
       <use xlink:href="#DejaVuSans-30" x="127.246094"/>
       <use xlink:href="#DejaVuSans-30" x="190.869141"/>
       <use xlink:href="#DejaVuSans-30" x="254.492188"/>
      </g>
     </g>
    </g>
    <g id="xtick_6">
     <g id="line2d_6">
      <g>
       <use xlink:href="#maa65b622c8" x="360.177942" y="228.96" style="stroke: #000000; stroke-width: 0.8"/>
      </g>
     </g>
     <g id="text_6">
      <!-- 100000 -->
      <g transform="translate(341.090442 243.558437) scale(0.1 -0.1)">
       <defs>
        <path id="DejaVuSans-31" d="M 794 531 
L 1825 531 
L 1825 4091 
L 703 3866 
L 703 4441 
L 1819 4666 
L 2450 4666 
L 2450 531 
L 3481 531 
L 3481 0 
L 794 0 
L 794 531 
z
" transform="scale(0.015625)"/>
       </defs>
       <use xlink:href="#DejaVuSans-31"/>
       <use xlink:href="#DejaVuSans-30" x="63.623047"/>
       <use xlink:href="#DejaVuSans-30" x="127.246094"/>
       <use xlink:href="#DejaVuSans-30" x="190.869141"/>
       <use xlink:href="#DejaVuSans-30" x="254.492188"/>
       <use xlink:href="#DejaVuSans-30" x="318.115234"/>
      </g>
     </g>
    </g>
    <g id="text_7">
     <!-- tof [µs] -->
     <g transform="translate(189.946875 257.236562) scale(0.1 -0.1)">
      <defs>
       <path id="DejaVuSans-74" d="M 1172 4494 
L 1172 3500 
L 2356 3500 
L 2356 3053 
L 1172 3053 
L 1172 1153 
Q 1172 725 1289 603 
Q 1406 481 1766 481 
L 2356 481 
L 2356 0 
L 1766 0 
Q 1100 0 847 248 
Q 594 497 594 1153 
L 594 3053 
L 172 3053 
L 172 3500 
L 594 3500 
L 594 4494 
L 1172 4494 
z
" transform="scale(0.015625)"/>
       <path id="DejaVuSans-6f" d="M 1959 3097 
Q 1497 3097 1228 2736 
Q 959 2375 959 1747 
Q 959 1119 1226 758 
Q 1494 397 1959 397 
Q 2419 397 2687 759 
Q 2956 1122 2956 1747 
Q 2956 2369 2687 2733 
Q 2419 3097 1959 3097 
z
M 1959 3584 
Q 2709 3584 3137 3096 
Q 3566 2609 3566 1747 
Q 3566 888 3137 398 
Q 2709 -91 1959 -91 
Q 1206 -91 779 398 
Q 353 888 353 1747 
Q 353 2609 779 3096 
Q 1206 3584 1959 3584 
z
" transform="scale(0.015625)"/>
       <path id="DejaVuSans-66" d="M 2375 4863 
L 2375 4384 
L 1825 4384 
Q 1516 4384 1395 4259 
Q 1275 4134 1275 3809 
L 1275 3500 
L 2222 3500 
L 2222 3053 
L 1275 3053 
L 1275 0 
L 697 0 
L 697 3053 
L 147 3053 
L 147 3500 
L 697 3500 
L 697 3744 
Q 697 4328 969 4595 
Q 1241 4863 1831 4863 
L 2375 4863 
z
" transform="scale(0.015625)"/>
       <path id="DejaVuSans-20" transform="scale(0.015625)"/>
       <path id="DejaVuSans-5b" d="M 550 4863 
L 1875 4863 
L 1875 4416 
L 1125 4416 
L 1125 -397 
L 1875 -397 
L 1875 -844 
L 550 -844 
L 550 4863 
z
" transform="scale(0.015625)"/>
       <path id="DejaVuSans-b5" d="M 544 -1331 
L 544 3500 
L 1119 3500 
L 1119 1325 
Q 1119 872 1334 640 
Q 1550 409 1972 409 
Q 2434 409 2667 671 
Q 2900 934 2900 1459 
L 2900 3500 
L 3475 3500 
L 3475 806 
Q 3475 619 3529 530 
Q 3584 441 3700 441 
Q 3728 441 3778 458 
Q 3828 475 3916 513 
L 3916 50 
Q 3788 -22 3673 -56 
Q 3559 -91 3450 -91 
Q 3234 -91 3106 31 
Q 2978 153 2931 403 
Q 2775 156 2548 32 
Q 2322 -91 2016 -91 
Q 1697 -91 1473 31 
Q 1250 153 1119 397 
L 1119 -1331 
L 544 -1331 
z
" transform="scale(0.015625)"/>
       <path id="DejaVuSans-73" d="M 2834 3397 
L 2834 2853 
Q 2591 2978 2328 3040 
Q 2066 3103 1784 3103 
Q 1356 3103 1142 2972 
Q 928 2841 928 2578 
Q 928 2378 1081 2264 
Q 1234 2150 1697 2047 
L 1894 2003 
Q 2506 1872 2764 1633 
Q 3022 1394 3022 966 
Q 3022 478 2636 193 
Q 2250 -91 1575 -91 
Q 1294 -91 989 -36 
Q 684 19 347 128 
L 347 722 
Q 666 556 975 473 
Q 1284 391 1588 391 
Q 1994 391 2212 530 
Q 2431 669 2431 922 
Q 2431 1156 2273 1281 
Q 2116 1406 1581 1522 
L 1381 1569 
Q 847 1681 609 1914 
Q 372 2147 372 2553 
Q 372 3047 722 3315 
Q 1072 3584 1716 3584 
Q 2034 3584 2315 3537 
Q 2597 3491 2834 3397 
z
" transform="scale(0.015625)"/>
       <path id="DejaVuSans-5d" d="M 1947 4863 
L 1947 -844 
L 622 -844 
L 622 -397 
L 1369 -397 
L 1369 4416 
L 622 4416 
L 622 4863 
L 1947 4863 
z
" transform="scale(0.015625)"/>
      </defs>
      <use xlink:href="#DejaVuSans-74"/>
      <use xlink:href="#DejaVuSans-6f" x="39.208984"/>
      <use xlink:href="#DejaVuSans-66" x="100.390625"/>
      <use xlink:href="#DejaVuSans-20" x="135.595703"/>
      <use xlink:href="#DejaVuSans-5b" x="167.382812"/>
      <use xlink:href="#DejaVuSans-b5" x="206.396484"/>
      <use xlink:href="#DejaVuSans-73" x="270.019531"/>
      <use xlink:href="#DejaVuSans-5d" x="322.119141"/>
     </g>
    </g>
   </g>
   <g id="matplotlib.axis_2">
    <g id="ytick_1">
     <g id="line2d_7">
      <defs>
       <path id="m20932760f4" d="M 0 0 
L -3.5 0 
" style="stroke: #000000; stroke-width: 0.8"/>
      </defs>
      <g>
       <use xlink:href="#m20932760f4" x="40.603125" y="217.890568" style="stroke: #000000; stroke-width: 0.8"/>
      </g>
     </g>
     <g id="text_8">
      <!-- 0 -->
      <g transform="translate(27.240625 221.689787) scale(0.1 -0.1)">
       <use xlink:href="#DejaVuSans-30"/>
      </g>
     </g>
    </g>
    <g id="ytick_2">
     <g id="line2d_8">
      <g>
       <use xlink:href="#m20932760f4" x="40.603125" y="168.734741" style="stroke: #000000; stroke-width: 0.8"/>
      </g>
     </g>
     <g id="text_9">
      <!-- 10 -->
      <g transform="translate(20.878125 172.53396) scale(0.1 -0.1)">
       <use xlink:href="#DejaVuSans-31"/>
       <use xlink:href="#DejaVuSans-30" x="63.623047"/>
      </g>
     </g>
    </g>
    <g id="ytick_3">
     <g id="line2d_9">
      <g>
       <use xlink:href="#m20932760f4" x="40.603125" y="119.578915" style="stroke: #000000; stroke-width: 0.8"/>
      </g>
     </g>
     <g id="text_10">
      <!-- 20 -->
      <g transform="translate(20.878125 123.378133) scale(0.1 -0.1)">
       <use xlink:href="#DejaVuSans-32"/>
       <use xlink:href="#DejaVuSans-30" x="63.623047"/>
      </g>
     </g>
    </g>
    <g id="ytick_4">
     <g id="line2d_10">
      <g>
       <use xlink:href="#m20932760f4" x="40.603125" y="70.423088" style="stroke: #000000; stroke-width: 0.8"/>
      </g>
     </g>
     <g id="text_11">
      <!-- 30 -->
      <g transform="translate(20.878125 74.222307) scale(0.1 -0.1)">
       <defs>
        <path id="DejaVuSans-33" d="M 2597 2516 
Q 3050 2419 3304 2112 
Q 3559 1806 3559 1356 
Q 3559 666 3084 287 
Q 2609 -91 1734 -91 
Q 1441 -91 1130 -33 
Q 819 25 488 141 
L 488 750 
Q 750 597 1062 519 
Q 1375 441 1716 441 
Q 2309 441 2620 675 
Q 2931 909 2931 1356 
Q 2931 1769 2642 2001 
Q 2353 2234 1838 2234 
L 1294 2234 
L 1294 2753 
L 1863 2753 
Q 2328 2753 2575 2939 
Q 2822 3125 2822 3475 
Q 2822 3834 2567 4026 
Q 2313 4219 1838 4219 
Q 1578 4219 1281 4162 
Q 984 4106 628 3988 
L 628 4550 
Q 988 4650 1302 4700 
Q 1616 4750 1894 4750 
Q 2613 4750 3031 4423 
Q 3450 4097 3450 3541 
Q 3450 3153 3228 2886 
Q 3006 2619 2597 2516 
z
" transform="scale(0.015625)"/>
       </defs>
       <use xlink:href="#DejaVuSans-33"/>
       <use xlink:href="#DejaVuSans-30" x="63.623047"/>
      </g>
     </g>
    </g>
    <g id="ytick_5">
     <g id="line2d_11">
      <g>
       <use xlink:href="#m20932760f4" x="40.603125" y="21.267261" style="stroke: #000000; stroke-width: 0.8"/>
      </g>
     </g>
     <g id="text_12">
      <!-- 40 -->
      <g transform="translate(20.878125 25.06648) scale(0.1 -0.1)">
       <use xlink:href="#DejaVuSans-34"/>
       <use xlink:href="#DejaVuSans-30" x="63.623047"/>
      </g>
     </g>
    </g>
    <g id="text_13">
     <!-- detector [counts] -->
     <g transform="translate(14.798438 161.393281) rotate(-90) scale(0.1 -0.1)">
      <defs>
       <path id="DejaVuSans-64" d="M 2906 2969 
L 2906 4863 
L 3481 4863 
L 3481 0 
L 2906 0 
L 2906 525 
Q 2725 213 2448 61 
Q 2172 -91 1784 -91 
Q 1150 -91 751 415 
Q 353 922 353 1747 
Q 353 2572 751 3078 
Q 1150 3584 1784 3584 
Q 2172 3584 2448 3432 
Q 2725 3281 2906 2969 
z
M 947 1747 
Q 947 1113 1208 752 
Q 1469 391 1925 391 
Q 2381 391 2643 752 
Q 2906 1113 2906 1747 
Q 2906 2381 2643 2742 
Q 2381 3103 1925 3103 
Q 1469 3103 1208 2742 
Q 947 2381 947 1747 
z
" transform="scale(0.015625)"/>
       <path id="DejaVuSans-65" d="M 3597 1894 
L 3597 1613 
L 953 1613 
Q 991 1019 1311 708 
Q 1631 397 2203 397 
Q 2534 397 2845 478 
Q 3156 559 3463 722 
L 3463 178 
Q 3153 47 2828 -22 
Q 2503 -91 2169 -91 
Q 1331 -91 842 396 
Q 353 884 353 1716 
Q 353 2575 817 3079 
Q 1281 3584 2069 3584 
Q 2775 3584 3186 3129 
Q 3597 2675 3597 1894 
z
M 3022 2063 
Q 3016 2534 2758 2815 
Q 2500 3097 2075 3097 
Q 1594 3097 1305 2825 
Q 1016 2553 972 2059 
L 3022 2063 
z
" transform="scale(0.015625)"/>
       <path id="DejaVuSans-63" d="M 3122 3366 
L 3122 2828 
Q 2878 2963 2633 3030 
Q 2388 3097 2138 3097 
Q 1578 3097 1268 2742 
Q 959 2388 959 1747 
Q 959 1106 1268 751 
Q 1578 397 2138 397 
Q 2388 397 2633 464 
Q 2878 531 3122 666 
L 3122 134 
Q 2881 22 2623 -34 
Q 2366 -91 2075 -91 
Q 1284 -91 818 406 
Q 353 903 353 1747 
Q 353 2603 823 3093 
Q 1294 3584 2113 3584 
Q 2378 3584 2631 3529 
Q 2884 3475 3122 3366 
z
" transform="scale(0.015625)"/>
       <path id="DejaVuSans-72" d="M 2631 2963 
Q 2534 3019 2420 3045 
Q 2306 3072 2169 3072 
Q 1681 3072 1420 2755 
Q 1159 2438 1159 1844 
L 1159 0 
L 581 0 
L 581 3500 
L 1159 3500 
L 1159 2956 
Q 1341 3275 1631 3429 
Q 1922 3584 2338 3584 
Q 2397 3584 2469 3576 
Q 2541 3569 2628 3553 
L 2631 2963 
z
" transform="scale(0.015625)"/>
       <path id="DejaVuSans-75" d="M 544 1381 
L 544 3500 
L 1119 3500 
L 1119 1403 
Q 1119 906 1312 657 
Q 1506 409 1894 409 
Q 2359 409 2629 706 
Q 2900 1003 2900 1516 
L 2900 3500 
L 3475 3500 
L 3475 0 
L 2900 0 
L 2900 538 
Q 2691 219 2414 64 
Q 2138 -91 1772 -91 
Q 1169 -91 856 284 
Q 544 659 544 1381 
z
M 1991 3584 
L 1991 3584 
z
" transform="scale(0.015625)"/>
       <path id="DejaVuSans-6e" d="M 3513 2113 
L 3513 0 
L 2938 0 
L 2938 2094 
Q 2938 2591 2744 2837 
Q 2550 3084 2163 3084 
Q 1697 3084 1428 2787 
Q 1159 2491 1159 1978 
L 1159 0 
L 581 0 
L 581 3500 
L 1159 3500 
L 1159 2956 
Q 1366 3272 1645 3428 
Q 1925 3584 2291 3584 
Q 2894 3584 3203 3211 
Q 3513 2838 3513 2113 
z
" transform="scale(0.015625)"/>
      </defs>
      <use xlink:href="#DejaVuSans-64"/>
      <use xlink:href="#DejaVuSans-65" x="63.476562"/>
      <use xlink:href="#DejaVuSans-74" x="125"/>
      <use xlink:href="#DejaVuSans-65" x="164.208984"/>
      <use xlink:href="#DejaVuSans-63" x="225.732422"/>
      <use xlink:href="#DejaVuSans-74" x="280.712891"/>
      <use xlink:href="#DejaVuSans-6f" x="319.921875"/>
      <use xlink:href="#DejaVuSans-72" x="381.103516"/>
      <use xlink:href="#DejaVuSans-20" x="422.216797"/>
      <use xlink:href="#DejaVuSans-5b" x="454.003906"/>
      <use xlink:href="#DejaVuSans-63" x="493.017578"/>
      <use xlink:href="#DejaVuSans-6f" x="547.998047"/>
      <use xlink:href="#DejaVuSans-75" x="609.179688"/>
      <use xlink:href="#DejaVuSans-6e" x="672.558594"/>
      <use xlink:href="#DejaVuSans-74" x="735.9375"/>
      <use xlink:href="#DejaVuSans-73" x="775.146484"/>
      <use xlink:href="#DejaVuSans-5d" x="827.246094"/>
     </g>
    </g>
   </g>
   <g id="line2d_12">
    <path d="M 55.821307 217.890568 
L 57.343125 217.890568 
L 57.343125 212.974985 
L 60.386761 212.974985 
L 60.386761 217.890568 
L 75.604943 217.890568 
L 75.604943 212.974985 
L 77.126761 212.974985 
L 77.126761 217.890568 
L 81.692216 217.890568 
L 81.692216 212.974985 
L 83.214034 212.974985 
L 83.214034 208.059403 
L 84.735852 208.059403 
L 84.735852 217.890568 
L 87.779489 217.890568 
L 87.779489 208.086438 
L 89.301307 208.086438 
L 89.301307 217.863532 
L 92.344943 217.890568 
L 92.344943 213.005708 
L 93.866761 213.005708 
L 93.866761 208.02868 
L 98.432216 208.128221 
L 98.432216 198.159419 
L 99.954034 198.159419 
L 99.954034 188.433939 
L 102.99767 188.398301 
L 102.99767 183.482718 
L 104.519489 183.482718 
L 104.519489 188.357747 
L 106.041307 188.357747 
L 106.041307 173.775671 
L 107.563125 173.775671 
L 107.563125 163.908868 
L 109.084943 163.908868 
L 109.084943 158.777 
L 110.606761 158.777 
L 110.606761 153.990451 
L 113.650398 153.943753 
L 113.650398 139.386255 
L 115.172216 139.386255 
L 115.172216 124.499413 
L 116.694034 124.499413 
L 116.694034 148.926172 
L 118.215852 148.926172 
L 118.215852 114.974243 
L 119.73767 114.974243 
L 119.73767 143.901218 
L 121.259489 143.901218 
L 121.259489 109.85835 
L 122.781307 109.85835 
L 122.781307 124.333512 
L 124.303125 124.333512 
L 124.303125 80.651187 
L 125.824943 80.651187 
L 125.824943 138.962286 
L 127.346761 138.962286 
L 127.346761 46.320757 
L 128.86858 46.320757 
L 128.86858 109.460188 
L 130.390398 109.460188 
L 130.390398 134.148702 
L 131.912216 134.148702 
L 131.912216 119.582601 
L 133.434034 119.582601 
L 133.434034 168.674525 
L 134.955852 168.674525 
L 134.955852 139.243703 
L 136.47767 139.243703 
L 136.47767 139.376424 
L 137.999489 139.376424 
L 137.999489 163.621306 
L 139.521307 163.621306 
L 139.521307 149.280094 
L 141.043125 149.280094 
L 141.043125 109.752665 
L 142.564943 109.752665 
L 142.564943 134.11675 
L 144.086761 134.11675 
L 144.086761 153.989222 
L 145.60858 153.989222 
L 145.60858 129.485043 
L 147.130398 129.485043 
L 147.130398 95.30331 
L 148.652216 95.30331 
L 148.652216 134.333036 
L 150.174034 134.333036 
L 150.174034 119.431447 
L 151.695852 119.431447 
L 151.695852 109.988613 
L 153.21767 109.988613 
L 153.21767 143.606283 
L 154.739489 143.606283 
L 154.739489 119.98445 
L 156.261307 119.98445 
L 156.261307 85.093644 
L 157.783125 85.093644 
L 157.783125 119.58383 
L 159.304943 119.58383 
L 159.304943 163.73928 
L 160.826761 163.73928 
L 160.826761 124.326139 
L 162.34858 124.326139 
L 162.34858 129.49856 
L 163.870398 129.49856 
L 163.870398 110.104129 
L 165.392216 110.104129 
L 165.392216 138.979491 
L 166.914034 138.979491 
L 166.914034 163.55003 
L 168.435852 163.55003 
L 168.435852 134.602164 
L 169.95767 134.602164 
L 169.95767 168.551636 
L 171.479489 168.551636 
L 171.479489 159.094055 
L 173.001307 159.094055 
L 173.001307 134.137642 
L 174.523125 134.137642 
L 174.523125 188.495384 
L 176.044943 188.495384 
L 176.044943 178.371741 
L 177.566761 178.371741 
L 177.566761 159.202198 
L 179.08858 159.202198 
L 179.08858 183.585945 
L 180.610398 183.585945 
L 180.610398 178.366826 
L 182.132216 178.366826 
L 182.132216 144.159286 
L 183.654034 144.159286 
L 183.654034 139.348159 
L 185.175852 139.348159 
L 185.175852 153.99168 
L 186.69767 153.99168 
L 186.69767 158.586521 
L 188.219489 158.586521 
L 188.219489 173.974752 
L 189.741307 173.974752 
L 189.741307 168.629056 
L 191.263125 168.629056 
L 191.263125 164.042818 
L 192.784943 164.042818 
L 192.784943 188.066499 
L 194.306761 188.066499 
L 194.306761 178.567136 
L 195.82858 178.567136 
L 195.82858 188.284014 
L 197.350398 188.284014 
L 197.350398 134.556695 
L 198.872216 134.556695 
L 198.872216 188.282785 
L 200.394034 188.282785 
L 200.394034 163.938362 
L 201.915852 163.938362 
L 201.915852 163.821616 
L 203.43767 163.821616 
L 203.43767 183.483947 
L 204.959489 183.483947 
L 204.959489 169.223842 
L 206.481307 169.223842 
L 206.481307 187.912887 
L 208.003125 187.912887 
L 208.003125 163.945735 
L 209.524943 163.945735 
L 209.524943 193.065647 
L 211.046761 193.065647 
L 211.046761 168.989123 
L 212.56858 168.989123 
L 212.56858 178.313983 
L 214.090398 178.313983 
L 214.090398 173.909621 
L 215.612216 173.909621 
L 215.612216 188.140233 
L 217.134034 188.140233 
L 217.134034 183.482718 
L 218.655852 183.482718 
L 218.655852 173.784274 
L 220.17767 173.784274 
L 220.17767 183.216048 
L 221.699489 183.216048 
L 221.699489 188.802608 
L 223.221307 188.802608 
L 223.221307 168.874835 
L 224.743125 168.874835 
L 224.743125 178.157913 
L 226.264943 178.157913 
L 226.264943 168.874835 
L 227.786761 168.874835 
L 227.786761 188.119342 
L 229.30858 188.119342 
L 229.30858 188.821041 
L 230.830398 188.821041 
L 230.830398 203.004955 
L 232.352216 203.004955 
L 232.352216 198.086914 
L 233.874034 198.086914 
L 233.874034 193.168874 
L 235.395852 193.168874 
L 235.395852 203.14382 
L 236.91767 203.14382 
L 236.91767 183.923892 
L 238.439489 183.923892 
L 238.439489 192.870252 
L 239.961307 192.870252 
L 239.961307 198.378163 
L 241.483125 198.378163 
L 241.483125 183.633872 
L 243.004943 183.633872 
L 243.004943 198.078312 
L 244.526761 198.078312 
L 244.526761 212.822602 
L 246.04858 212.822602 
L 246.04858 188.551913 
L 247.570398 188.551913 
L 247.570398 212.820144 
L 249.092216 212.820144 
L 249.092216 188.711669 
L 250.614034 188.711669 
L 250.614034 198.072168 
L 252.135852 198.072168 
L 252.135852 212.816458 
L 253.65767 212.816458 
L 253.65767 208.059403 
L 255.179489 208.059403 
L 255.179489 183.643704 
L 256.701307 183.643704 
L 256.701307 217.728354 
L 258.223125 217.728354 
L 258.223125 183.646161 
L 259.744943 183.646161 
L 259.744943 212.976214 
L 261.266761 212.976214 
L 261.266761 198.062336 
L 262.78858 198.062336 
L 262.78858 198.564955 
L 264.310398 198.564955 
L 264.310398 193.145525 
L 265.832216 193.145525 
L 265.832216 193.313884 
L 267.354034 193.313884 
L 267.354034 198.229466 
L 268.875852 198.229466 
L 268.875852 207.887357 
L 270.39767 207.887357 
L 270.39767 217.890568 
L 271.919489 217.890568 
L 271.919489 212.974985 
L 273.441307 212.974985 
L 273.441307 208.236364 
L 274.963125 208.236364 
L 274.963125 212.798024 
L 276.484943 212.798024 
L 276.484943 193.492073 
L 278.006761 193.492073 
L 278.006761 217.711149 
L 279.52858 217.711149 
L 279.52858 198.228237 
L 281.050398 198.228237 
L 281.050398 208.059403 
L 282.572216 208.059403 
L 282.572216 217.890568 
L 284.094034 217.890568 
L 284.094034 212.974985 
L 285.615852 212.974985 
L 285.615852 208.246195 
L 287.13767 208.246195 
L 287.13767 217.703776 
L 288.659489 217.703776 
L 288.659489 212.974985 
L 290.181307 212.974985 
L 290.181307 217.890568 
L 291.703125 217.890568 
L 291.703125 203.527235 
L 293.224943 203.527235 
L 293.224943 217.507152 
L 294.746761 217.507152 
L 294.746761 212.974985 
L 297.790398 212.974985 
L 297.790398 217.890568 
L 299.312216 217.890568 
L 299.312216 213.172837 
L 300.834034 213.172837 
L 300.834034 212.777133 
L 302.355852 212.777133 
L 302.355852 213.175295 
L 303.87767 213.175295 
L 303.87767 212.774675 
L 305.399489 212.774675 
L 305.399489 213.177753 
L 306.921307 213.177753 
L 306.921307 207.856635 
L 308.443125 207.856635 
L 308.443125 198.638688 
L 309.964943 198.638688 
L 309.964943 212.564534 
L 311.486761 212.564534 
L 311.486761 208.059403 
L 313.00858 208.059403 
L 313.00858 203.14382 
L 314.530398 203.14382 
L 314.530398 217.890568 
L 317.574034 217.890568 
L 317.574034 212.974985 
L 320.61767 212.974985 
L 320.61767 217.890568 
L 329.74858 217.890568 
L 329.74858 213.197415 
L 331.270398 213.197415 
L 331.270398 217.668138 
L 332.792216 217.668138 
L 332.792216 212.974985 
L 334.314034 212.974985 
L 334.314034 217.890568 
L 343.444943 217.890568 
L 343.444943 208.059403 
L 344.966761 208.059403 
L 344.966761 217.890568 
L 348.010398 217.890568 
L 348.010398 212.974985 
L 349.532216 212.974985 
L 349.532216 208.059403 
L 351.054034 208.059403 
L 351.054034 203.14382 
L 352.575852 203.14382 
L 352.575852 208.059403 
L 354.09767 208.059403 
L 354.09767 217.890568 
L 355.619489 217.890568 
L 355.619489 203.14382 
L 357.141307 203.14382 
L 357.141307 217.890568 
L 360.184943 217.890568 
L 360.184943 217.890568 
" clip-path="url(#p47797073b8)" style="fill: none; stroke: #1f77b4; stroke-width: 1.5; stroke-linecap: square"/>
   </g>
   <g id="LineCollection_1">
    <path d="M 56.582216 217.890568 
L 56.582216 217.890568 
" clip-path="url(#p47797073b8)" style="fill: none; stroke: #1f77b4; stroke-width: 1.5"/>
    <path d="M 58.104034 217.890568 
L 58.104034 208.059403 
" clip-path="url(#p47797073b8)" style="fill: none; stroke: #1f77b4; stroke-width: 1.5"/>
    <path d="M 59.625852 217.890568 
L 59.625852 208.059403 
" clip-path="url(#p47797073b8)" style="fill: none; stroke: #1f77b4; stroke-width: 1.5"/>
    <path d="M 61.14767 217.890568 
L 61.14767 217.890568 
" clip-path="url(#p47797073b8)" style="fill: none; stroke: #1f77b4; stroke-width: 1.5"/>
    <path d="M 62.669489 217.890568 
L 62.669489 217.890568 
" clip-path="url(#p47797073b8)" style="fill: none; stroke: #1f77b4; stroke-width: 1.5"/>
    <path d="M 64.191307 217.890568 
L 64.191307 217.890568 
" clip-path="url(#p47797073b8)" style="fill: none; stroke: #1f77b4; stroke-width: 1.5"/>
    <path d="M 65.713125 217.890568 
L 65.713125 217.890568 
" clip-path="url(#p47797073b8)" style="fill: none; stroke: #1f77b4; stroke-width: 1.5"/>
    <path d="M 67.234943 217.890568 
L 67.234943 217.890568 
" clip-path="url(#p47797073b8)" style="fill: none; stroke: #1f77b4; stroke-width: 1.5"/>
    <path d="M 68.756761 217.890568 
L 68.756761 217.890568 
" clip-path="url(#p47797073b8)" style="fill: none; stroke: #1f77b4; stroke-width: 1.5"/>
    <path d="M 70.27858 217.890568 
L 70.27858 217.890568 
" clip-path="url(#p47797073b8)" style="fill: none; stroke: #1f77b4; stroke-width: 1.5"/>
    <path d="M 71.800398 217.890568 
L 71.800398 217.890568 
" clip-path="url(#p47797073b8)" style="fill: none; stroke: #1f77b4; stroke-width: 1.5"/>
    <path d="M 73.322216 217.890568 
L 73.322216 217.890568 
" clip-path="url(#p47797073b8)" style="fill: none; stroke: #1f77b4; stroke-width: 1.5"/>
    <path d="M 74.844034 217.890568 
L 74.844034 217.890568 
" clip-path="url(#p47797073b8)" style="fill: none; stroke: #1f77b4; stroke-width: 1.5"/>
    <path d="M 76.365852 217.890568 
L 76.365852 208.059403 
" clip-path="url(#p47797073b8)" style="fill: none; stroke: #1f77b4; stroke-width: 1.5"/>
    <path d="M 77.88767 217.890568 
L 77.88767 217.890568 
" clip-path="url(#p47797073b8)" style="fill: none; stroke: #1f77b4; stroke-width: 1.5"/>
    <path d="M 79.409489 217.890568 
L 79.409489 217.890568 
" clip-path="url(#p47797073b8)" style="fill: none; stroke: #1f77b4; stroke-width: 1.5"/>
    <path d="M 80.931307 217.890568 
L 80.931307 217.890568 
" clip-path="url(#p47797073b8)" style="fill: none; stroke: #1f77b4; stroke-width: 1.5"/>
    <path d="M 82.453125 217.890568 
L 82.453125 208.059403 
" clip-path="url(#p47797073b8)" style="fill: none; stroke: #1f77b4; stroke-width: 1.5"/>
    <path d="M 83.974943 215.011086 
L 83.974943 201.107719 
" clip-path="url(#p47797073b8)" style="fill: none; stroke: #1f77b4; stroke-width: 1.5"/>
    <path d="M 85.496761 217.890568 
L 85.496761 217.890568 
" clip-path="url(#p47797073b8)" style="fill: none; stroke: #1f77b4; stroke-width: 1.5"/>
    <path d="M 87.01858 217.890568 
L 87.01858 217.890568 
" clip-path="url(#p47797073b8)" style="fill: none; stroke: #1f77b4; stroke-width: 1.5"/>
    <path d="M 88.540398 215.028557 
L 88.540398 201.14432 
" clip-path="url(#p47797073b8)" style="fill: none; stroke: #1f77b4; stroke-width: 1.5"/>
    <path d="M 90.062216 218.228082 
L 90.062216 217.498983 
" clip-path="url(#p47797073b8)" style="fill: none; stroke: #1f77b4; stroke-width: 1.5"/>
    <path d="M 91.584034 217.890568 
L 91.584034 217.890568 
" clip-path="url(#p47797073b8)" style="fill: none; stroke: #1f77b4; stroke-width: 1.5"/>
    <path d="M 93.105852 217.905905 
L 93.105852 208.10551 
" clip-path="url(#p47797073b8)" style="fill: none; stroke: #1f77b4; stroke-width: 1.5"/>
    <path d="M 94.62767 214.991217 
L 94.62767 201.066143 
" clip-path="url(#p47797073b8)" style="fill: none; stroke: #1f77b4; stroke-width: 1.5"/>
    <path d="M 96.149489 215.011086 
L 96.149489 201.107719 
" clip-path="url(#p47797073b8)" style="fill: none; stroke: #1f77b4; stroke-width: 1.5"/>
    <path d="M 97.671307 215.055531 
L 97.671307 201.200911 
" clip-path="url(#p47797073b8)" style="fill: none; stroke: #1f77b4; stroke-width: 1.5"/>
    <path d="M 99.193125 208.007774 
L 99.193125 188.311064 
" clip-path="url(#p47797073b8)" style="fill: none; stroke: #1f77b4; stroke-width: 1.5"/>
    <path d="M 100.714943 200.46708 
L 100.714943 176.400797 
" clip-path="url(#p47797073b8)" style="fill: none; stroke: #1f77b4; stroke-width: 1.5"/>
    <path d="M 102.236761 200.438719 
L 102.236761 176.357882 
" clip-path="url(#p47797073b8)" style="fill: none; stroke: #1f77b4; stroke-width: 1.5"/>
    <path d="M 103.75858 196.487895 
L 103.75858 170.477541 
" clip-path="url(#p47797073b8)" style="fill: none; stroke: #1f77b4; stroke-width: 1.5"/>
    <path d="M 105.280398 200.406441 
L 105.280398 176.309054 
" clip-path="url(#p47797073b8)" style="fill: none; stroke: #1f77b4; stroke-width: 1.5"/>
    <path d="M 106.802216 188.501513 
L 106.802216 159.049829 
" clip-path="url(#p47797073b8)" style="fill: none; stroke: #1f77b4; stroke-width: 1.5"/>
    <path d="M 108.324034 180.198482 
L 108.324034 147.619255 
" clip-path="url(#p47797073b8)" style="fill: none; stroke: #1f77b4; stroke-width: 1.5"/>
    <path d="M 109.845852 175.823337 
L 109.845852 141.730662 
" clip-path="url(#p47797073b8)" style="fill: none; stroke: #1f77b4; stroke-width: 1.5"/>
    <path d="M 111.36767 171.713496 
L 111.36767 136.267407 
" clip-path="url(#p47797073b8)" style="fill: none; stroke: #1f77b4; stroke-width: 1.5"/>
    <path d="M 112.889489 171.673272 
L 112.889489 136.214234 
" clip-path="url(#p47797073b8)" style="fill: none; stroke: #1f77b4; stroke-width: 1.5"/>
    <path d="M 114.411307 159.030451 
L 114.411307 119.742059 
" clip-path="url(#p47797073b8)" style="fill: none; stroke: #1f77b4; stroke-width: 1.5"/>
    <path d="M 115.933125 145.925377 
L 115.933125 103.073449 
" clip-path="url(#p47797073b8)" style="fill: none; stroke: #1f77b4; stroke-width: 1.5"/>
    <path d="M 117.454943 167.33813 
L 117.454943 130.514214 
" clip-path="url(#p47797073b8)" style="fill: none; stroke: #1f77b4; stroke-width: 1.5"/>
    <path d="M 118.976761 137.466324 
L 118.976761 92.482162 
" clip-path="url(#p47797073b8)" style="fill: none; stroke: #1f77b4; stroke-width: 1.5"/>
    <path d="M 120.49858 162.972158 
L 120.49858 124.830277 
" clip-path="url(#p47797073b8)" style="fill: none; stroke: #1f77b4; stroke-width: 1.5"/>
    <path d="M 122.020398 132.902683 
L 122.020398 86.814017 
" clip-path="url(#p47797073b8)" style="fill: none; stroke: #1f77b4; stroke-width: 1.5"/>
    <path d="M 123.542216 145.778498 
L 123.542216 102.888526 
" clip-path="url(#p47797073b8)" style="fill: none; stroke: #1f77b4; stroke-width: 1.5"/>
    <path d="M 125.064034 106.624471 
L 125.064034 54.677902 
" clip-path="url(#p47797073b8)" style="fill: none; stroke: #1f77b4; stroke-width: 1.5"/>
    <path d="M 126.585852 158.659456 
L 126.585852 119.265116 
" clip-path="url(#p47797073b8)" style="fill: none; stroke: #1f77b4; stroke-width: 1.5"/>
    <path d="M 128.10767 75.361515 
L 128.10767 17.28 
" clip-path="url(#p47797073b8)" style="fill: none; stroke: #1f77b4; stroke-width: 1.5"/>
    <path d="M 129.629489 132.546948 
L 129.629489 86.373428 
" clip-path="url(#p47797073b8)" style="fill: none; stroke: #1f77b4; stroke-width: 1.5"/>
    <path d="M 131.151307 154.437617 
L 131.151307 113.859787 
" clip-path="url(#p47797073b8)" style="fill: none; stroke: #1f77b4; stroke-width: 1.5"/>
    <path d="M 132.673125 141.565343 
L 132.673125 97.59986 
" clip-path="url(#p47797073b8)" style="fill: none; stroke: #1f77b4; stroke-width: 1.5"/>
    <path d="M 134.194943 184.228481 
L 134.194943 153.12057 
" clip-path="url(#p47797073b8)" style="fill: none; stroke: #1f77b4; stroke-width: 1.5"/>
    <path d="M 135.716761 158.905727 
L 135.716761 119.58168 
" clip-path="url(#p47797073b8)" style="fill: none; stroke: #1f77b4; stroke-width: 1.5"/>
    <path d="M 137.23858 159.02185 
L 137.23858 119.730998 
" clip-path="url(#p47797073b8)" style="fill: none; stroke: #1f77b4; stroke-width: 1.5"/>
    <path d="M 138.760398 179.95425 
L 138.760398 147.288363 
" clip-path="url(#p47797073b8)" style="fill: none; stroke: #1f77b4; stroke-width: 1.5"/>
    <path d="M 140.282216 167.644746 
L 140.282216 130.915442 
" clip-path="url(#p47797073b8)" style="fill: none; stroke: #1f77b4; stroke-width: 1.5"/>
    <path d="M 141.804034 132.808267 
L 141.804034 86.697063 
" clip-path="url(#p47797073b8)" style="fill: none; stroke: #1f77b4; stroke-width: 1.5"/>
    <path d="M 143.325852 154.409535 
L 143.325852 113.823965 
" clip-path="url(#p47797073b8)" style="fill: none; stroke: #1f77b4; stroke-width: 1.5"/>
    <path d="M 144.84767 171.712437 
L 144.84767 136.266007 
" clip-path="url(#p47797073b8)" style="fill: none; stroke: #1f77b4; stroke-width: 1.5"/>
    <path d="M 146.369489 150.331257 
L 146.369489 108.638828 
" clip-path="url(#p47797073b8)" style="fill: none; stroke: #1f77b4; stroke-width: 1.5"/>
    <path d="M 147.891307 119.850974 
L 147.891307 70.755646 
" clip-path="url(#p47797073b8)" style="fill: none; stroke: #1f77b4; stroke-width: 1.5"/>
    <path d="M 149.413125 154.599608 
L 149.413125 114.066464 
" clip-path="url(#p47797073b8)" style="fill: none; stroke: #1f77b4; stroke-width: 1.5"/>
    <path d="M 150.934943 141.431082 
L 150.934943 97.431812 
" clip-path="url(#p47797073b8)" style="fill: none; stroke: #1f77b4; stroke-width: 1.5"/>
    <path d="M 152.456761 133.019049 
L 152.456761 86.958177 
" clip-path="url(#p47797073b8)" style="fill: none; stroke: #1f77b4; stroke-width: 1.5"/>
    <path d="M 153.97858 162.715195 
L 153.97858 124.49737 
" clip-path="url(#p47797073b8)" style="fill: none; stroke: #1f77b4; stroke-width: 1.5"/>
    <path d="M 155.500398 141.922217 
L 155.500398 98.046683 
" clip-path="url(#p47797073b8)" style="fill: none; stroke: #1f77b4; stroke-width: 1.5"/>
    <path d="M 157.022216 110.643092 
L 157.022216 59.544197 
" clip-path="url(#p47797073b8)" style="fill: none; stroke: #1f77b4; stroke-width: 1.5"/>
    <path d="M 158.544034 141.566435 
L 158.544034 97.601226 
" clip-path="url(#p47797073b8)" style="fill: none; stroke: #1f77b4; stroke-width: 1.5"/>
    <path d="M 160.065852 180.054461 
L 160.065852 147.424099 
" clip-path="url(#p47797073b8)" style="fill: none; stroke: #1f77b4; stroke-width: 1.5"/>
    <path d="M 161.58767 145.77197 
L 161.58767 102.880307 
" clip-path="url(#p47797073b8)" style="fill: none; stroke: #1f77b4; stroke-width: 1.5"/>
    <path d="M 163.109489 150.343181 
L 163.109489 108.65394 
" clip-path="url(#p47797073b8)" style="fill: none; stroke: #1f77b4; stroke-width: 1.5"/>
    <path d="M 164.631307 133.122234 
L 164.631307 87.086024 
" clip-path="url(#p47797073b8)" style="fill: none; stroke: #1f77b4; stroke-width: 1.5"/>
    <path d="M 166.153125 158.674513 
L 166.153125 119.284468 
" clip-path="url(#p47797073b8)" style="fill: none; stroke: #1f77b4; stroke-width: 1.5"/>
    <path d="M 167.674943 179.893696 
L 167.674943 147.206365 
" clip-path="url(#p47797073b8)" style="fill: none; stroke: #1f77b4; stroke-width: 1.5"/>
    <path d="M 169.196761 154.836072 
L 169.196761 114.368256 
" clip-path="url(#p47797073b8)" style="fill: none; stroke: #1f77b4; stroke-width: 1.5"/>
    <path d="M 170.71858 184.124998 
L 170.71858 152.978274 
" clip-path="url(#p47797073b8)" style="fill: none; stroke: #1f77b4; stroke-width: 1.5"/>
    <path d="M 172.240398 176.094617 
L 172.240398 142.093492 
" clip-path="url(#p47797073b8)" style="fill: none; stroke: #1f77b4; stroke-width: 1.5"/>
    <path d="M 173.762216 154.427896 
L 173.762216 113.847387 
" clip-path="url(#p47797073b8)" style="fill: none; stroke: #1f77b4; stroke-width: 1.5"/>
    <path d="M 175.284034 200.515968 
L 175.284034 176.474799 
" clip-path="url(#p47797073b8)" style="fill: none; stroke: #1f77b4; stroke-width: 1.5"/>
    <path d="M 176.805852 192.30939 
L 176.805852 164.434092 
" clip-path="url(#p47797073b8)" style="fill: none; stroke: #1f77b4; stroke-width: 1.5"/>
    <path d="M 178.32767 176.187118 
L 178.32767 142.217277 
" clip-path="url(#p47797073b8)" style="fill: none; stroke: #1f77b4; stroke-width: 1.5"/>
    <path d="M 179.849489 196.571599 
L 179.849489 170.600291 
" clip-path="url(#p47797073b8)" style="fill: none; stroke: #1f77b4; stroke-width: 1.5"/>
    <path d="M 181.371307 192.305341 
L 181.371307 164.42831 
" clip-path="url(#p47797073b8)" style="fill: none; stroke: #1f77b4; stroke-width: 1.5"/>
    <path d="M 182.893125 163.196938 
L 182.893125 125.121633 
" clip-path="url(#p47797073b8)" style="fill: none; stroke: #1f77b4; stroke-width: 1.5"/>
    <path d="M 184.414943 158.997121 
L 184.414943 119.699197 
" clip-path="url(#p47797073b8)" style="fill: none; stroke: #1f77b4; stroke-width: 1.5"/>
    <path d="M 185.936761 171.714554 
L 185.936761 136.268806 
" clip-path="url(#p47797073b8)" style="fill: none; stroke: #1f77b4; stroke-width: 1.5"/>
    <path d="M 187.45858 175.6603 
L 187.45858 141.512741 
" clip-path="url(#p47797073b8)" style="fill: none; stroke: #1f77b4; stroke-width: 1.5"/>
    <path d="M 188.980398 188.667329 
L 188.980398 159.282175 
" clip-path="url(#p47797073b8)" style="fill: none; stroke: #1f77b4; stroke-width: 1.5"/>
    <path d="M 190.502216 184.190195 
L 190.502216 153.067918 
" clip-path="url(#p47797073b8)" style="fill: none; stroke: #1f77b4; stroke-width: 1.5"/>
    <path d="M 192.024034 180.312208 
L 192.024034 147.773427 
" clip-path="url(#p47797073b8)" style="fill: none; stroke: #1f77b4; stroke-width: 1.5"/>
    <path d="M 193.545852 200.174458 
L 193.545852 175.95854 
" clip-path="url(#p47797073b8)" style="fill: none; stroke: #1f77b4; stroke-width: 1.5"/>
    <path d="M 195.06767 192.470286 
L 195.06767 164.663985 
" clip-path="url(#p47797073b8)" style="fill: none; stroke: #1f77b4; stroke-width: 1.5"/>
    <path d="M 196.589489 200.347739 
L 196.589489 176.220288 
" clip-path="url(#p47797073b8)" style="fill: none; stroke: #1f77b4; stroke-width: 1.5"/>
    <path d="M 198.111307 154.796125 
L 198.111307 114.317265 
" clip-path="url(#p47797073b8)" style="fill: none; stroke: #1f77b4; stroke-width: 1.5"/>
    <path d="M 199.633125 200.34676 
L 199.633125 176.218809 
" clip-path="url(#p47797073b8)" style="fill: none; stroke: #1f77b4; stroke-width: 1.5"/>
    <path d="M 201.154943 180.223524 
L 201.154943 147.653199 
" clip-path="url(#p47797073b8)" style="fill: none; stroke: #1f77b4; stroke-width: 1.5"/>
    <path d="M 202.676761 180.124389 
L 202.676761 147.518844 
" clip-path="url(#p47797073b8)" style="fill: none; stroke: #1f77b4; stroke-width: 1.5"/>
    <path d="M 204.19858 196.488892 
L 204.19858 170.479002 
" clip-path="url(#p47797073b8)" style="fill: none; stroke: #1f77b4; stroke-width: 1.5"/>
    <path d="M 205.720398 184.690752 
L 205.720398 153.756931 
" clip-path="url(#p47797073b8)" style="fill: none; stroke: #1f77b4; stroke-width: 1.5"/>
    <path d="M 207.242216 200.051988 
L 207.242216 175.773786 
" clip-path="url(#p47797073b8)" style="fill: none; stroke: #1f77b4; stroke-width: 1.5"/>
    <path d="M 208.764034 180.229785 
L 208.764034 147.661685 
" clip-path="url(#p47797073b8)" style="fill: none; stroke: #1f77b4; stroke-width: 1.5"/>
    <path d="M 210.285852 204.112318 
L 210.285852 182.018975 
" clip-path="url(#p47797073b8)" style="fill: none; stroke: #1f77b4; stroke-width: 1.5"/>
    <path d="M 211.80767 184.493287 
L 211.80767 153.484959 
" clip-path="url(#p47797073b8)" style="fill: none; stroke: #1f77b4; stroke-width: 1.5"/>
    <path d="M 213.329489 192.261813 
L 213.329489 164.366153 
" clip-path="url(#p47797073b8)" style="fill: none; stroke: #1f77b4; stroke-width: 1.5"/>
    <path d="M 214.851307 188.613089 
L 214.851307 159.206153 
" clip-path="url(#p47797073b8)" style="fill: none; stroke: #1f77b4; stroke-width: 1.5"/>
    <path d="M 216.373125 200.233215 
L 216.373125 176.04725 
" clip-path="url(#p47797073b8)" style="fill: none; stroke: #1f77b4; stroke-width: 1.5"/>
    <path d="M 217.894943 196.487895 
L 217.894943 170.477541 
" clip-path="url(#p47797073b8)" style="fill: none; stroke: #1f77b4; stroke-width: 1.5"/>
    <path d="M 219.416761 188.50868 
L 219.416761 159.059867 
" clip-path="url(#p47797073b8)" style="fill: none; stroke: #1f77b4; stroke-width: 1.5"/>
    <path d="M 220.93858 196.271524 
L 220.93858 170.160571 
" clip-path="url(#p47797073b8)" style="fill: none; stroke: #1f77b4; stroke-width: 1.5"/>
    <path d="M 222.460398 200.760211 
L 222.460398 176.845004 
" clip-path="url(#p47797073b8)" style="fill: none; stroke: #1f77b4; stroke-width: 1.5"/>
    <path d="M 223.982216 184.397106 
L 223.982216 153.352565 
" clip-path="url(#p47797073b8)" style="fill: none; stroke: #1f77b4; stroke-width: 1.5"/>
    <path d="M 225.504034 192.133218 
L 225.504034 164.182608 
" clip-path="url(#p47797073b8)" style="fill: none; stroke: #1f77b4; stroke-width: 1.5"/>
    <path d="M 227.025852 184.397106 
L 227.025852 153.352565 
" clip-path="url(#p47797073b8)" style="fill: none; stroke: #1f77b4; stroke-width: 1.5"/>
    <path d="M 228.54767 200.216569 
L 228.54767 176.022114 
" clip-path="url(#p47797073b8)" style="fill: none; stroke: #1f77b4; stroke-width: 1.5"/>
    <path d="M 230.069489 200.774855 
L 230.069489 176.867227 
" clip-path="url(#p47797073b8)" style="fill: none; stroke: #1f77b4; stroke-width: 1.5"/>
    <path d="M 231.591307 211.558987 
L 231.591307 194.450923 
" clip-path="url(#p47797073b8)" style="fill: none; stroke: #1f77b4; stroke-width: 1.5"/>
    <path d="M 233.113125 207.953347 
L 233.113125 188.220481 
" clip-path="url(#p47797073b8)" style="fill: none; stroke: #1f77b4; stroke-width: 1.5"/>
    <path d="M 234.634943 204.192554 
L 234.634943 182.145193 
" clip-path="url(#p47797073b8)" style="fill: none; stroke: #1f77b4; stroke-width: 1.5"/>
    <path d="M 236.156761 211.657859 
L 236.156761 194.629781 
" clip-path="url(#p47797073b8)" style="fill: none; stroke: #1f77b4; stroke-width: 1.5"/>
    <path d="M 237.67858 196.845424 
L 237.67858 171.002359 
" clip-path="url(#p47797073b8)" style="fill: none; stroke: #1f77b4; stroke-width: 1.5"/>
    <path d="M 239.200398 203.960312 
L 239.200398 181.780192 
" clip-path="url(#p47797073b8)" style="fill: none; stroke: #1f77b4; stroke-width: 1.5"/>
    <path d="M 240.722216 208.171775 
L 240.722216 188.58455 
" clip-path="url(#p47797073b8)" style="fill: none; stroke: #1f77b4; stroke-width: 1.5"/>
    <path d="M 242.244034 196.610452 
L 242.244034 170.657293 
" clip-path="url(#p47797073b8)" style="fill: none; stroke: #1f77b4; stroke-width: 1.5"/>
    <path d="M 243.765852 207.946887 
L 243.765852 188.209737 
" clip-path="url(#p47797073b8)" style="fill: none; stroke: #1f77b4; stroke-width: 1.5"/>
    <path d="M 245.28767 217.813795 
L 245.28767 207.83141 
" clip-path="url(#p47797073b8)" style="fill: none; stroke: #1f77b4; stroke-width: 1.5"/>
    <path d="M 246.809489 200.560934 
L 246.809489 176.542892 
" clip-path="url(#p47797073b8)" style="fill: none; stroke: #1f77b4; stroke-width: 1.5"/>
    <path d="M 248.331307 217.812547 
L 248.331307 207.827742 
" clip-path="url(#p47797073b8)" style="fill: none; stroke: #1f77b4; stroke-width: 1.5"/>
    <path d="M 249.853125 200.687949 
L 249.853125 176.735389 
" clip-path="url(#p47797073b8)" style="fill: none; stroke: #1f77b4; stroke-width: 1.5"/>
    <path d="M 251.374943 207.942273 
L 251.374943 188.202062 
" clip-path="url(#p47797073b8)" style="fill: none; stroke: #1f77b4; stroke-width: 1.5"/>
    <path d="M 252.896761 217.810675 
L 252.896761 207.82224 
" clip-path="url(#p47797073b8)" style="fill: none; stroke: #1f77b4; stroke-width: 1.5"/>
    <path d="M 254.41858 215.011086 
L 254.41858 201.107719 
" clip-path="url(#p47797073b8)" style="fill: none; stroke: #1f77b4; stroke-width: 1.5"/>
    <path d="M 255.940398 196.618421 
L 255.940398 170.668986 
" clip-path="url(#p47797073b8)" style="fill: none; stroke: #1f77b4; stroke-width: 1.5"/>
    <path d="M 257.462216 218.621314 
L 257.462216 216.835394 
" clip-path="url(#p47797073b8)" style="fill: none; stroke: #1f77b4; stroke-width: 1.5"/>
    <path d="M 258.984034 196.620413 
L 258.984034 170.671909 
" clip-path="url(#p47797073b8)" style="fill: none; stroke: #1f77b4; stroke-width: 1.5"/>
    <path d="M 260.505852 217.891182 
L 260.505852 208.061246 
" clip-path="url(#p47797073b8)" style="fill: none; stroke: #1f77b4; stroke-width: 1.5"/>
    <path d="M 262.02767 207.93489 
L 262.02767 188.189783 
" clip-path="url(#p47797073b8)" style="fill: none; stroke: #1f77b4; stroke-width: 1.5"/>
    <path d="M 263.549489 208.311577 
L 263.549489 188.818332 
" clip-path="url(#p47797073b8)" style="fill: none; stroke: #1f77b4; stroke-width: 1.5"/>
    <path d="M 265.071307 204.17441 
L 265.071307 182.11664 
" clip-path="url(#p47797073b8)" style="fill: none; stroke: #1f77b4; stroke-width: 1.5"/>
    <path d="M 266.593125 204.305186 
L 266.593125 182.322581 
" clip-path="url(#p47797073b8)" style="fill: none; stroke: #1f77b4; stroke-width: 1.5"/>
    <path d="M 268.114943 208.060324 
L 268.114943 188.398608 
" clip-path="url(#p47797073b8)" style="fill: none; stroke: #1f77b4; stroke-width: 1.5"/>
    <path d="M 269.636761 214.899604 
L 269.636761 200.87511 
" clip-path="url(#p47797073b8)" style="fill: none; stroke: #1f77b4; stroke-width: 1.5"/>
    <path d="M 271.15858 217.890568 
L 271.15858 217.890568 
" clip-path="url(#p47797073b8)" style="fill: none; stroke: #1f77b4; stroke-width: 1.5"/>
    <path d="M 272.680398 217.890568 
L 272.680398 208.059403 
" clip-path="url(#p47797073b8)" style="fill: none; stroke: #1f77b4; stroke-width: 1.5"/>
    <path d="M 274.202216 215.125198 
L 274.202216 201.347529 
" clip-path="url(#p47797073b8)" style="fill: none; stroke: #1f77b4; stroke-width: 1.5"/>
    <path d="M 275.724034 217.801305 
L 275.724034 207.794743 
" clip-path="url(#p47797073b8)" style="fill: none; stroke: #1f77b4; stroke-width: 1.5"/>
    <path d="M 277.245852 204.443458 
L 277.245852 182.540689 
" clip-path="url(#p47797073b8)" style="fill: none; stroke: #1f77b4; stroke-width: 1.5"/>
    <path d="M 278.76767 218.65027 
L 278.76767 216.772028 
" clip-path="url(#p47797073b8)" style="fill: none; stroke: #1f77b4; stroke-width: 1.5"/>
    <path d="M 280.289489 208.059403 
L 280.289489 188.397072 
" clip-path="url(#p47797073b8)" style="fill: none; stroke: #1f77b4; stroke-width: 1.5"/>
    <path d="M 281.811307 215.011086 
L 281.811307 201.107719 
" clip-path="url(#p47797073b8)" style="fill: none; stroke: #1f77b4; stroke-width: 1.5"/>
    <path d="M 283.333125 217.890568 
L 283.333125 217.890568 
" clip-path="url(#p47797073b8)" style="fill: none; stroke: #1f77b4; stroke-width: 1.5"/>
    <path d="M 284.854943 217.890568 
L 284.854943 208.059403 
" clip-path="url(#p47797073b8)" style="fill: none; stroke: #1f77b4; stroke-width: 1.5"/>
    <path d="M 286.376761 215.131521 
L 286.376761 201.360869 
" clip-path="url(#p47797073b8)" style="fill: none; stroke: #1f77b4; stroke-width: 1.5"/>
    <path d="M 287.89858 218.661999 
L 287.89858 216.745552 
" clip-path="url(#p47797073b8)" style="fill: none; stroke: #1f77b4; stroke-width: 1.5"/>
    <path d="M 289.420398 217.890568 
L 289.420398 208.059403 
" clip-path="url(#p47797073b8)" style="fill: none; stroke: #1f77b4; stroke-width: 1.5"/>
    <path d="M 290.942216 217.890568 
L 290.942216 217.890568 
" clip-path="url(#p47797073b8)" style="fill: none; stroke: #1f77b4; stroke-width: 1.5"/>
    <path d="M 292.464034 211.929863 
L 292.464034 195.124608 
" clip-path="url(#p47797073b8)" style="fill: none; stroke: #1f77b4; stroke-width: 1.5"/>
    <path d="M 293.985852 218.88 
L 293.985852 216.134305 
" clip-path="url(#p47797073b8)" style="fill: none; stroke: #1f77b4; stroke-width: 1.5"/>
    <path d="M 295.50767 217.890568 
L 295.50767 208.059403 
" clip-path="url(#p47797073b8)" style="fill: none; stroke: #1f77b4; stroke-width: 1.5"/>
    <path d="M 297.029489 217.890568 
L 297.029489 208.059403 
" clip-path="url(#p47797073b8)" style="fill: none; stroke: #1f77b4; stroke-width: 1.5"/>
    <path d="M 298.551307 217.890568 
L 298.551307 217.890568 
" clip-path="url(#p47797073b8)" style="fill: none; stroke: #1f77b4; stroke-width: 1.5"/>
    <path d="M 300.073125 217.988478 
L 300.073125 208.357197 
" clip-path="url(#p47797073b8)" style="fill: none; stroke: #1f77b4; stroke-width: 1.5"/>
    <path d="M 301.594943 217.790666 
L 301.594943 207.7636 
" clip-path="url(#p47797073b8)" style="fill: none; stroke: #1f77b4; stroke-width: 1.5"/>
    <path d="M 303.116761 217.989681 
L 303.116761 208.360909 
" clip-path="url(#p47797073b8)" style="fill: none; stroke: #1f77b4; stroke-width: 1.5"/>
    <path d="M 304.63858 217.789413 
L 304.63858 207.759938 
" clip-path="url(#p47797073b8)" style="fill: none; stroke: #1f77b4; stroke-width: 1.5"/>
    <path d="M 306.160398 217.990884 
L 306.160398 208.364622 
" clip-path="url(#p47797073b8)" style="fill: none; stroke: #1f77b4; stroke-width: 1.5"/>
    <path d="M 307.682216 214.879642 
L 307.682216 200.833628 
" clip-path="url(#p47797073b8)" style="fill: none; stroke: #1f77b4; stroke-width: 1.5"/>
    <path d="M 309.204034 208.3667 
L 309.204034 188.910677 
" clip-path="url(#p47797073b8)" style="fill: none; stroke: #1f77b4; stroke-width: 1.5"/>
    <path d="M 310.725852 217.681228 
L 310.725852 207.44784 
" clip-path="url(#p47797073b8)" style="fill: none; stroke: #1f77b4; stroke-width: 1.5"/>
    <path d="M 312.24767 215.011086 
L 312.24767 201.107719 
" clip-path="url(#p47797073b8)" style="fill: none; stroke: #1f77b4; stroke-width: 1.5"/>
    <path d="M 313.769489 211.657859 
L 313.769489 194.629781 
" clip-path="url(#p47797073b8)" style="fill: none; stroke: #1f77b4; stroke-width: 1.5"/>
    <path d="M 315.291307 217.890568 
L 315.291307 217.890568 
" clip-path="url(#p47797073b8)" style="fill: none; stroke: #1f77b4; stroke-width: 1.5"/>
    <path d="M 316.813125 217.890568 
L 316.813125 217.890568 
" clip-path="url(#p47797073b8)" style="fill: none; stroke: #1f77b4; stroke-width: 1.5"/>
    <path d="M 318.334943 217.890568 
L 318.334943 208.059403 
" clip-path="url(#p47797073b8)" style="fill: none; stroke: #1f77b4; stroke-width: 1.5"/>
    <path d="M 319.856761 217.890568 
L 319.856761 208.059403 
" clip-path="url(#p47797073b8)" style="fill: none; stroke: #1f77b4; stroke-width: 1.5"/>
    <path d="M 321.37858 217.890568 
L 321.37858 217.890568 
" clip-path="url(#p47797073b8)" style="fill: none; stroke: #1f77b4; stroke-width: 1.5"/>
    <path d="M 322.900398 217.890568 
L 322.900398 217.890568 
" clip-path="url(#p47797073b8)" style="fill: none; stroke: #1f77b4; stroke-width: 1.5"/>
    <path d="M 324.422216 217.890568 
L 324.422216 217.890568 
" clip-path="url(#p47797073b8)" style="fill: none; stroke: #1f77b4; stroke-width: 1.5"/>
    <path d="M 325.944034 217.890568 
L 325.944034 217.890568 
" clip-path="url(#p47797073b8)" style="fill: none; stroke: #1f77b4; stroke-width: 1.5"/>
    <path d="M 327.465852 217.890568 
L 327.465852 217.890568 
" clip-path="url(#p47797073b8)" style="fill: none; stroke: #1f77b4; stroke-width: 1.5"/>
    <path d="M 328.98767 217.890568 
L 328.98767 217.890568 
" clip-path="url(#p47797073b8)" style="fill: none; stroke: #1f77b4; stroke-width: 1.5"/>
    <path d="M 330.509489 218.000496 
L 330.509489 208.394335 
" clip-path="url(#p47797073b8)" style="fill: none; stroke: #1f77b4; stroke-width: 1.5"/>
    <path d="M 332.031307 218.713783 
L 332.031307 216.622493 
" clip-path="url(#p47797073b8)" style="fill: none; stroke: #1f77b4; stroke-width: 1.5"/>
    <path d="M 333.553125 217.890568 
L 333.553125 208.059403 
" clip-path="url(#p47797073b8)" style="fill: none; stroke: #1f77b4; stroke-width: 1.5"/>
    <path d="M 335.074943 217.890568 
L 335.074943 217.890568 
" clip-path="url(#p47797073b8)" style="fill: none; stroke: #1f77b4; stroke-width: 1.5"/>
    <path d="M 336.596761 217.890568 
L 336.596761 217.890568 
" clip-path="url(#p47797073b8)" style="fill: none; stroke: #1f77b4; stroke-width: 1.5"/>
    <path d="M 338.11858 217.890568 
L 338.11858 217.890568 
" clip-path="url(#p47797073b8)" style="fill: none; stroke: #1f77b4; stroke-width: 1.5"/>
    <path d="M 339.640398 217.890568 
L 339.640398 217.890568 
" clip-path="url(#p47797073b8)" style="fill: none; stroke: #1f77b4; stroke-width: 1.5"/>
    <path d="M 341.162216 217.890568 
L 341.162216 217.890568 
" clip-path="url(#p47797073b8)" style="fill: none; stroke: #1f77b4; stroke-width: 1.5"/>
    <path d="M 342.684034 217.890568 
L 342.684034 217.890568 
" clip-path="url(#p47797073b8)" style="fill: none; stroke: #1f77b4; stroke-width: 1.5"/>
    <path d="M 344.205852 215.011086 
L 344.205852 201.107719 
" clip-path="url(#p47797073b8)" style="fill: none; stroke: #1f77b4; stroke-width: 1.5"/>
    <path d="M 345.72767 217.890568 
L 345.72767 217.890568 
" clip-path="url(#p47797073b8)" style="fill: none; stroke: #1f77b4; stroke-width: 1.5"/>
    <path d="M 347.249489 217.890568 
L 347.249489 217.890568 
" clip-path="url(#p47797073b8)" style="fill: none; stroke: #1f77b4; stroke-width: 1.5"/>
    <path d="M 348.771307 217.890568 
L 348.771307 208.059403 
" clip-path="url(#p47797073b8)" style="fill: none; stroke: #1f77b4; stroke-width: 1.5"/>
    <path d="M 350.293125 215.011086 
L 350.293125 201.107719 
" clip-path="url(#p47797073b8)" style="fill: none; stroke: #1f77b4; stroke-width: 1.5"/>
    <path d="M 351.814943 211.657859 
L 351.814943 194.629781 
" clip-path="url(#p47797073b8)" style="fill: none; stroke: #1f77b4; stroke-width: 1.5"/>
    <path d="M 353.336761 215.011086 
L 353.336761 201.107719 
" clip-path="url(#p47797073b8)" style="fill: none; stroke: #1f77b4; stroke-width: 1.5"/>
    <path d="M 354.85858 217.890568 
L 354.85858 217.890568 
" clip-path="url(#p47797073b8)" style="fill: none; stroke: #1f77b4; stroke-width: 1.5"/>
    <path d="M 356.380398 211.657859 
L 356.380398 194.629781 
" clip-path="url(#p47797073b8)" style="fill: none; stroke: #1f77b4; stroke-width: 1.5"/>
    <path d="M 357.902216 217.890568 
L 357.902216 217.890568 
" clip-path="url(#p47797073b8)" style="fill: none; stroke: #1f77b4; stroke-width: 1.5"/>
    <path d="M 359.424034 217.890568 
L 359.424034 217.890568 
" clip-path="url(#p47797073b8)" style="fill: none; stroke: #1f77b4; stroke-width: 1.5"/>
   </g>
   <g id="patch_3">
    <path d="M 40.603125 228.96 
L 40.603125 7.2 
" style="fill: none; stroke: #000000; stroke-width: 0.8; stroke-linejoin: miter; stroke-linecap: square"/>
   </g>
   <g id="patch_4">
    <path d="M 375.403125 228.96 
L 375.403125 7.2 
" style="fill: none; stroke: #000000; stroke-width: 0.8; stroke-linejoin: miter; stroke-linecap: square"/>
   </g>
   <g id="patch_5">
    <path d="M 40.603125 228.96 
L 375.403125 228.96 
" style="fill: none; stroke: #000000; stroke-width: 0.8; stroke-linejoin: miter; stroke-linecap: square"/>
   </g>
   <g id="patch_6">
    <path d="M 40.603125 7.2 
L 375.403125 7.2 
" style="fill: none; stroke: #000000; stroke-width: 0.8; stroke-linejoin: miter; stroke-linecap: square"/>
   </g>
  </g>
 </g>
 <defs>
  <clipPath id="p47797073b8">
   <rect x="40.603125" y="7.2" width="334.8" height="221.76"/>
  </clipPath>
 </defs>
</svg>
