<?xml version="1.0" encoding="UTF-8" standalone="no"?>
<!DOCTYPE svg PUBLIC "-//W3C//DTD SVG 1.1//EN"
 "http://www.w3.org/Graphics/SVG/1.1/DTD/svg11.dtd">
<!-- Generated by graphviz version 14.0.4 (20251117.0720)
 -->
<!-- Pages: 1 -->
<svg width="375pt" height="217pt"
 viewBox="0.00 0.00 375.00 217.00" xmlns="http://www.w3.org/2000/svg" xmlns:xlink="http://www.w3.org/1999/xlink">
<g id="graph0" class="graph" transform="scale(1 1) rotate(0) translate(4 213)">
<polygon fill="white" stroke="none" points="-4,4 -4,-213 371,-213 371,4 -4,4"/>
<!-- source_position -->
<g id="node1" class="node">
<title>source_position</title>
<polygon fill="none" stroke="black" points="127,-209 0,-209 0,-183.75 127,-183.75 127,-209"/>
<text xml:space="preserve" text-anchor="middle" x="63.5" y="-191.7" font-family="Times,serif" font-size="14.00">source_position</text>
</g>
<!-- incident_beam -->
<g id="node2" class="node">
<title>incident_beam</title>
<polygon fill="none" stroke="black" points="186.25,-147.75 66.75,-147.75 66.75,-122.5 186.25,-122.5 186.25,-147.75"/>
<text xml:space="preserve" text-anchor="middle" x="126.5" y="-130.45" font-family="Times,serif" font-size="14.00">incident_beam</text>
</g>
<!-- source_position&#45;&gt;incident_beam -->
<g id="edge1" class="edge">
<title>source_position&#45;&gt;incident_beam</title>
<path fill="none" stroke="black" d="M76.25,-183.38C84.62,-175.51 95.76,-165.03 105.43,-155.94"/>
<polygon fill="black" stroke="black" points="107.78,-158.53 112.67,-149.13 102.99,-153.44 107.78,-158.53"/>
</g>
<!-- L1 -->
<g id="node6" class="node">
<title>L1</title>
<polygon fill="none" stroke="black" points="136.5,-86.5 82.5,-86.5 82.5,-61.25 136.5,-61.25 136.5,-86.5"/>
<text xml:space="preserve" text-anchor="middle" x="109.5" y="-69.2" font-family="Times,serif" font-size="14.00">L1</text>
</g>
<!-- incident_beam&#45;&gt;L1 -->
<g id="edge5" class="edge">
<title>incident_beam&#45;&gt;L1</title>
<path fill="none" stroke="black" d="M123.06,-122.13C121.06,-115.15 118.46,-106.1 116.08,-97.8"/>
<polygon fill="black" stroke="black" points="119.47,-96.95 113.35,-88.3 112.75,-98.88 119.47,-96.95"/>
</g>
<!-- two_theta -->
<g id="node8" class="node">
<title>two_theta</title>
<polygon fill="none" stroke="black" points="240.75,-86.5 154.25,-86.5 154.25,-61.25 240.75,-61.25 240.75,-86.5"/>
<text xml:space="preserve" text-anchor="middle" x="197.5" y="-69.2" font-family="Times,serif" font-size="14.00">two_theta</text>
</g>
<!-- incident_beam&#45;&gt;two_theta -->
<g id="edge7" class="edge">
<title>incident_beam&#45;&gt;two_theta</title>
<path fill="none" stroke="black" d="M140.87,-122.13C150.49,-114.1 163.37,-103.35 174.42,-94.14"/>
<polygon fill="black" stroke="black" points="176.56,-96.91 181.99,-87.82 172.07,-91.54 176.56,-96.91"/>
</g>
<!-- sample_position -->
<g id="node3" class="node">
<title>sample_position</title>
<polygon fill="none" stroke="black" points="275.88,-209 145.12,-209 145.12,-183.75 275.88,-183.75 275.88,-209"/>
<text xml:space="preserve" text-anchor="middle" x="210.5" y="-191.7" font-family="Times,serif" font-size="14.00">sample_position</text>
</g>
<!-- sample_position&#45;&gt;incident_beam -->
<g id="edge2" class="edge">
<title>sample_position&#45;&gt;incident_beam</title>
<path fill="none" stroke="black" d="M193.5,-183.38C181.77,-175.11 165.96,-163.96 152.64,-154.56"/>
<polygon fill="black" stroke="black" points="154.9,-151.87 144.71,-148.97 150.86,-157.59 154.9,-151.87"/>
</g>
<!-- scattered_beam -->
<g id="node5" class="node">
<title>scattered_beam</title>
<polygon fill="none" stroke="black" points="335.12,-147.75 205.88,-147.75 205.88,-122.5 335.12,-122.5 335.12,-147.75"/>
<text xml:space="preserve" text-anchor="middle" x="270.5" y="-130.45" font-family="Times,serif" font-size="14.00">scattered_beam</text>
</g>
<!-- sample_position&#45;&gt;scattered_beam -->
<g id="edge4" class="edge">
<title>sample_position&#45;&gt;scattered_beam</title>
<path fill="none" stroke="black" d="M222.64,-183.38C230.61,-175.51 241.23,-165.03 250.43,-155.94"/>
<polygon fill="black" stroke="black" points="252.64,-158.68 257.3,-149.16 247.72,-153.7 252.64,-158.68"/>
</g>
<!-- position -->
<g id="node4" class="node">
<title>position</title>
<polygon fill="none" stroke="black" points="367,-209 294,-209 294,-183.75 367,-183.75 367,-209"/>
<text xml:space="preserve" text-anchor="middle" x="330.5" y="-191.7" font-family="Times,serif" font-size="14.00">position</text>
</g>
<!-- position&#45;&gt;scattered_beam -->
<g id="edge3" class="edge">
<title>position&#45;&gt;scattered_beam</title>
<path fill="none" stroke="black" d="M318.36,-183.38C310.39,-175.51 299.77,-165.03 290.57,-155.94"/>
<polygon fill="black" stroke="black" points="293.28,-153.7 283.7,-149.16 288.36,-158.68 293.28,-153.7"/>
</g>
<!-- L2 -->
<g id="node7" class="node">
<title>L2</title>
<polygon fill="none" stroke="black" points="312.5,-86.5 258.5,-86.5 258.5,-61.25 312.5,-61.25 312.5,-86.5"/>
<text xml:space="preserve" text-anchor="middle" x="285.5" y="-69.2" font-family="Times,serif" font-size="14.00">L2</text>
</g>
<!-- scattered_beam&#45;&gt;L2 -->
<g id="edge6" class="edge">
<title>scattered_beam&#45;&gt;L2</title>
<path fill="none" stroke="black" d="M273.54,-122.13C275.3,-115.15 277.59,-106.1 279.7,-97.8"/>
<polygon fill="black" stroke="black" points="283.04,-98.87 282.1,-88.31 276.25,-97.15 283.04,-98.87"/>
</g>
<!-- scattered_beam&#45;&gt;two_theta -->
<g id="edge8" class="edge">
<title>scattered_beam&#45;&gt;two_theta</title>
<path fill="none" stroke="black" d="M255.73,-122.13C245.73,-114.02 232.32,-103.14 220.89,-93.86"/>
<polygon fill="black" stroke="black" points="223.4,-91.39 213.43,-87.8 218.98,-96.82 223.4,-91.39"/>
</g>
<!-- Ltotal -->
<g id="node9" class="node">
<title>Ltotal</title>
<polygon fill="none" stroke="black" points="226.5,-25.25 168.5,-25.25 168.5,0 226.5,0 226.5,-25.25"/>
<text xml:space="preserve" text-anchor="middle" x="197.5" y="-7.95" font-family="Times,serif" font-size="14.00">Ltotal</text>
</g>
<!-- L1&#45;&gt;Ltotal -->
<g id="edge9" class="edge">
<title>L1&#45;&gt;Ltotal</title>
<path fill="none" stroke="black" d="M127.31,-60.88C139.71,-52.53 156.48,-41.24 170.52,-31.79"/>
<polygon fill="black" stroke="black" points="172.12,-34.93 178.46,-26.44 168.21,-29.12 172.12,-34.93"/>
</g>
<!-- L2&#45;&gt;Ltotal -->
<g id="edge10" class="edge">
<title>L2&#45;&gt;Ltotal</title>
<path fill="none" stroke="black" d="M267.69,-60.88C255.29,-52.53 238.52,-41.24 224.48,-31.79"/>
<polygon fill="black" stroke="black" points="226.79,-29.12 216.54,-26.44 222.88,-34.93 226.79,-29.12"/>
</g>
</g>
</svg>
