<?xml version="1.0" encoding="utf-8" standalone="no"?>
<!DOCTYPE svg PUBLIC "-//W3C//DTD SVG 1.1//EN"
  "http://www.w3.org/Graphics/SVG/1.1/DTD/svg11.dtd">
<svg xmlns:xlink="http://www.w3.org/1999/xlink" width="382.88125pt" height="266.51625pt" viewBox="0 0 382.88125 266.51625" xmlns="http://www.w3.org/2000/svg" version="1.1">
 <metadata>
  <rdf:RDF xmlns:dc="http://purl.org/dc/elements/1.1/" xmlns:cc="http://creativecommons.org/ns#" xmlns:rdf="http://www.w3.org/1999/02/22-rdf-syntax-ns#">
   <cc:Work>
    <dc:type rdf:resource="http://purl.org/dc/dcmitype/StillImage"/>
    <dc:date>2025-12-02T06:59:58.929852</dc:date>
    <dc:format>image/svg+xml</dc:format>
    <dc:creator>
     <cc:Agent>
      <dc:title>Matplotlib v3.9.4, https://matplotlib.org/</dc:title>
     </cc:Agent>
    </dc:creator>
   </cc:Work>
  </rdf:RDF>
 </metadata>
 <defs>
  <style type="text/css">*{stroke-linejoin: round; stroke-linecap: butt}</style>
 </defs>
 <g id="figure_1">
  <g id="patch_1">
   <path d="M 0 266.51625 
L 382.88125 266.51625 
L 382.88125 0 
L 0 0 
z
" style="fill: #ffffff"/>
  </g>
  <g id="axes_1">
   <g id="patch_2">
    <path d="M 40.88125 228.96 
L 375.68125 228.96 
L 375.68125 7.2 
L 40.88125 7.2 
z
" style="fill: #ffffff"/>
   </g>
   <g id="matplotlib.axis_1">
    <g id="xtick_1">
     <g id="line2d_1">
      <defs>
       <path id="m7cf07ed5b8" d="M 0 0 
L 0 3.5 
" style="stroke: #000000; stroke-width: 0.8"/>
      </defs>
      <g>
       <use xlink:href="#m7cf07ed5b8" x="47.356514" y="228.96" style="stroke: #000000; stroke-width: 0.8"/>
      </g>
     </g>
     <g id="text_1">
      <!-- 08:11:00 -->
      <g transform="translate(24.900264 243.558437) scale(0.1 -0.1)">
       <defs>
        <path id="DejaVuSans-30" d="M 2034 4250 
Q 1547 4250 1301 3770 
Q 1056 3291 1056 2328 
Q 1056 1369 1301 889 
Q 1547 409 2034 409 
Q 2525 409 2770 889 
Q 3016 1369 3016 2328 
Q 3016 3291 2770 3770 
Q 2525 4250 2034 4250 
z
M 2034 4750 
Q 2819 4750 3233 4129 
Q 3647 3509 3647 2328 
Q 3647 1150 3233 529 
Q 2819 -91 2034 -91 
Q 1250 -91 836 529 
Q 422 1150 422 2328 
Q 422 3509 836 4129 
Q 1250 4750 2034 4750 
z
" transform="scale(0.015625)"/>
        <path id="DejaVuSans-38" d="M 2034 2216 
Q 1584 2216 1326 1975 
Q 1069 1734 1069 1313 
Q 1069 891 1326 650 
Q 1584 409 2034 409 
Q 2484 409 2743 651 
Q 3003 894 3003 1313 
Q 3003 1734 2745 1975 
Q 2488 2216 2034 2216 
z
M 1403 2484 
Q 997 2584 770 2862 
Q 544 3141 544 3541 
Q 544 4100 942 4425 
Q 1341 4750 2034 4750 
Q 2731 4750 3128 4425 
Q 3525 4100 3525 3541 
Q 3525 3141 3298 2862 
Q 3072 2584 2669 2484 
Q 3125 2378 3379 2068 
Q 3634 1759 3634 1313 
Q 3634 634 3220 271 
Q 2806 -91 2034 -91 
Q 1263 -91 848 271 
Q 434 634 434 1313 
Q 434 1759 690 2068 
Q 947 2378 1403 2484 
z
M 1172 3481 
Q 1172 3119 1398 2916 
Q 1625 2713 2034 2713 
Q 2441 2713 2670 2916 
Q 2900 3119 2900 3481 
Q 2900 3844 2670 4047 
Q 2441 4250 2034 4250 
Q 1625 4250 1398 4047 
Q 1172 3844 1172 3481 
z
" transform="scale(0.015625)"/>
        <path id="DejaVuSans-3a" d="M 750 794 
L 1409 794 
L 1409 0 
L 750 0 
L 750 794 
z
M 750 3309 
L 1409 3309 
L 1409 2516 
L 750 2516 
L 750 3309 
z
" transform="scale(0.015625)"/>
        <path id="DejaVuSans-31" d="M 794 531 
L 1825 531 
L 1825 4091 
L 703 3866 
L 703 4441 
L 1819 4666 
L 2450 4666 
L 2450 531 
L 3481 531 
L 3481 0 
L 794 0 
L 794 531 
z
" transform="scale(0.015625)"/>
       </defs>
       <use xlink:href="#DejaVuSans-30"/>
       <use xlink:href="#DejaVuSans-38" x="63.623047"/>
       <use xlink:href="#DejaVuSans-3a" x="127.246094"/>
       <use xlink:href="#DejaVuSans-31" x="160.9375"/>
       <use xlink:href="#DejaVuSans-31" x="224.560547"/>
       <use xlink:href="#DejaVuSans-3a" x="288.183594"/>
       <use xlink:href="#DejaVuSans-30" x="321.875"/>
       <use xlink:href="#DejaVuSans-30" x="385.498047"/>
      </g>
     </g>
    </g>
    <g id="xtick_2">
     <g id="line2d_2">
      <g>
       <use xlink:href="#m7cf07ed5b8" x="89.621207" y="228.96" style="stroke: #000000; stroke-width: 0.8"/>
      </g>
     </g>
     <g id="text_2">
      <!-- 08:11:30 -->
      <g transform="translate(67.164957 243.558437) scale(0.1 -0.1)">
       <defs>
        <path id="DejaVuSans-33" d="M 2597 2516 
Q 3050 2419 3304 2112 
Q 3559 1806 3559 1356 
Q 3559 666 3084 287 
Q 2609 -91 1734 -91 
Q 1441 -91 1130 -33 
Q 819 25 488 141 
L 488 750 
Q 750 597 1062 519 
Q 1375 441 1716 441 
Q 2309 441 2620 675 
Q 2931 909 2931 1356 
Q 2931 1769 2642 2001 
Q 2353 2234 1838 2234 
L 1294 2234 
L 1294 2753 
L 1863 2753 
Q 2328 2753 2575 2939 
Q 2822 3125 2822 3475 
Q 2822 3834 2567 4026 
Q 2313 4219 1838 4219 
Q 1578 4219 1281 4162 
Q 984 4106 628 3988 
L 628 4550 
Q 988 4650 1302 4700 
Q 1616 4750 1894 4750 
Q 2613 4750 3031 4423 
Q 3450 4097 3450 3541 
Q 3450 3153 3228 2886 
Q 3006 2619 2597 2516 
z
" transform="scale(0.015625)"/>
       </defs>
       <use xlink:href="#DejaVuSans-30"/>
       <use xlink:href="#DejaVuSans-38" x="63.623047"/>
       <use xlink:href="#DejaVuSans-3a" x="127.246094"/>
       <use xlink:href="#DejaVuSans-31" x="160.9375"/>
       <use xlink:href="#DejaVuSans-31" x="224.560547"/>
       <use xlink:href="#DejaVuSans-3a" x="288.183594"/>
       <use xlink:href="#DejaVuSans-33" x="321.875"/>
       <use xlink:href="#DejaVuSans-30" x="385.498047"/>
      </g>
     </g>
    </g>
    <g id="xtick_3">
     <g id="line2d_3">
      <g>
       <use xlink:href="#m7cf07ed5b8" x="131.8859" y="228.96" style="stroke: #000000; stroke-width: 0.8"/>
      </g>
     </g>
     <g id="text_3">
      <!-- 08:12:00 -->
      <g transform="translate(109.42965 243.558437) scale(0.1 -0.1)">
       <defs>
        <path id="DejaVuSans-32" d="M 1228 531 
L 3431 531 
L 3431 0 
L 469 0 
L 469 531 
Q 828 903 1448 1529 
Q 2069 2156 2228 2338 
Q 2531 2678 2651 2914 
Q 2772 3150 2772 3378 
Q 2772 3750 2511 3984 
Q 2250 4219 1831 4219 
Q 1534 4219 1204 4116 
Q 875 4013 500 3803 
L 500 4441 
Q 881 4594 1212 4672 
Q 1544 4750 1819 4750 
Q 2544 4750 2975 4387 
Q 3406 4025 3406 3419 
Q 3406 3131 3298 2873 
Q 3191 2616 2906 2266 
Q 2828 2175 2409 1742 
Q 1991 1309 1228 531 
z
" transform="scale(0.015625)"/>
       </defs>
       <use xlink:href="#DejaVuSans-30"/>
       <use xlink:href="#DejaVuSans-38" x="63.623047"/>
       <use xlink:href="#DejaVuSans-3a" x="127.246094"/>
       <use xlink:href="#DejaVuSans-31" x="160.9375"/>
       <use xlink:href="#DejaVuSans-32" x="224.560547"/>
       <use xlink:href="#DejaVuSans-3a" x="288.183594"/>
       <use xlink:href="#DejaVuSans-30" x="321.875"/>
       <use xlink:href="#DejaVuSans-30" x="385.498047"/>
      </g>
     </g>
    </g>
    <g id="xtick_4">
     <g id="line2d_4">
      <g>
       <use xlink:href="#m7cf07ed5b8" x="174.150594" y="228.96" style="stroke: #000000; stroke-width: 0.8"/>
      </g>
     </g>
     <g id="text_4">
      <!-- 08:12:30 -->
      <g transform="translate(151.694344 243.558437) scale(0.1 -0.1)">
       <use xlink:href="#DejaVuSans-30"/>
       <use xlink:href="#DejaVuSans-38" x="63.623047"/>
       <use xlink:href="#DejaVuSans-3a" x="127.246094"/>
       <use xlink:href="#DejaVuSans-31" x="160.9375"/>
       <use xlink:href="#DejaVuSans-32" x="224.560547"/>
       <use xlink:href="#DejaVuSans-3a" x="288.183594"/>
       <use xlink:href="#DejaVuSans-33" x="321.875"/>
       <use xlink:href="#DejaVuSans-30" x="385.498047"/>
      </g>
     </g>
    </g>
    <g id="xtick_5">
     <g id="line2d_5">
      <g>
       <use xlink:href="#m7cf07ed5b8" x="216.415287" y="228.96" style="stroke: #000000; stroke-width: 0.8"/>
      </g>
     </g>
     <g id="text_5">
      <!-- 08:13:00 -->
      <g transform="translate(193.959037 243.558437) scale(0.1 -0.1)">
       <use xlink:href="#DejaVuSans-30"/>
       <use xlink:href="#DejaVuSans-38" x="63.623047"/>
       <use xlink:href="#DejaVuSans-3a" x="127.246094"/>
       <use xlink:href="#DejaVuSans-31" x="160.9375"/>
       <use xlink:href="#DejaVuSans-33" x="224.560547"/>
       <use xlink:href="#DejaVuSans-3a" x="288.183594"/>
       <use xlink:href="#DejaVuSans-30" x="321.875"/>
       <use xlink:href="#DejaVuSans-30" x="385.498047"/>
      </g>
     </g>
    </g>
    <g id="xtick_6">
     <g id="line2d_6">
      <g>
       <use xlink:href="#m7cf07ed5b8" x="258.679979" y="228.96" style="stroke: #000000; stroke-width: 0.8"/>
      </g>
     </g>
     <g id="text_6">
      <!-- 08:13:30 -->
      <g transform="translate(236.223729 243.558437) scale(0.1 -0.1)">
       <use xlink:href="#DejaVuSans-30"/>
       <use xlink:href="#DejaVuSans-38" x="63.623047"/>
       <use xlink:href="#DejaVuSans-3a" x="127.246094"/>
       <use xlink:href="#DejaVuSans-31" x="160.9375"/>
       <use xlink:href="#DejaVuSans-33" x="224.560547"/>
       <use xlink:href="#DejaVuSans-3a" x="288.183594"/>
       <use xlink:href="#DejaVuSans-33" x="321.875"/>
       <use xlink:href="#DejaVuSans-30" x="385.498047"/>
      </g>
     </g>
    </g>
    <g id="xtick_7">
     <g id="line2d_7">
      <g>
       <use xlink:href="#m7cf07ed5b8" x="300.944673" y="228.96" style="stroke: #000000; stroke-width: 0.8"/>
      </g>
     </g>
     <g id="text_7">
      <!-- 08:14:00 -->
      <g transform="translate(278.488423 243.558437) scale(0.1 -0.1)">
       <defs>
        <path id="DejaVuSans-34" d="M 2419 4116 
L 825 1625 
L 2419 1625 
L 2419 4116 
z
M 2253 4666 
L 3047 4666 
L 3047 1625 
L 3713 1625 
L 3713 1100 
L 3047 1100 
L 3047 0 
L 2419 0 
L 2419 1100 
L 313 1100 
L 313 1709 
L 2253 4666 
z
" transform="scale(0.015625)"/>
       </defs>
       <use xlink:href="#DejaVuSans-30"/>
       <use xlink:href="#DejaVuSans-38" x="63.623047"/>
       <use xlink:href="#DejaVuSans-3a" x="127.246094"/>
       <use xlink:href="#DejaVuSans-31" x="160.9375"/>
       <use xlink:href="#DejaVuSans-34" x="224.560547"/>
       <use xlink:href="#DejaVuSans-3a" x="288.183594"/>
       <use xlink:href="#DejaVuSans-30" x="321.875"/>
       <use xlink:href="#DejaVuSans-30" x="385.498047"/>
      </g>
     </g>
    </g>
    <g id="xtick_8">
     <g id="line2d_8">
      <g>
       <use xlink:href="#m7cf07ed5b8" x="343.209365" y="228.96" style="stroke: #000000; stroke-width: 0.8"/>
      </g>
     </g>
     <g id="text_8">
      <!-- 08:14:30 -->
      <g transform="translate(320.753115 243.558437) scale(0.1 -0.1)">
       <use xlink:href="#DejaVuSans-30"/>
       <use xlink:href="#DejaVuSans-38" x="63.623047"/>
       <use xlink:href="#DejaVuSans-3a" x="127.246094"/>
       <use xlink:href="#DejaVuSans-31" x="160.9375"/>
       <use xlink:href="#DejaVuSans-34" x="224.560547"/>
       <use xlink:href="#DejaVuSans-3a" x="288.183594"/>
       <use xlink:href="#DejaVuSans-33" x="321.875"/>
       <use xlink:href="#DejaVuSans-30" x="385.498047"/>
      </g>
     </g>
    </g>
    <g id="text_9">
     <!-- time [datetime] -->
     <g transform="translate(168.923438 257.236562) scale(0.1 -0.1)">
      <defs>
       <path id="DejaVuSans-74" d="M 1172 4494 
L 1172 3500 
L 2356 3500 
L 2356 3053 
L 1172 3053 
L 1172 1153 
Q 1172 725 1289 603 
Q 1406 481 1766 481 
L 2356 481 
L 2356 0 
L 1766 0 
Q 1100 0 847 248 
Q 594 497 594 1153 
L 594 3053 
L 172 3053 
L 172 3500 
L 594 3500 
L 594 4494 
L 1172 4494 
z
" transform="scale(0.015625)"/>
       <path id="DejaVuSans-69" d="M 603 3500 
L 1178 3500 
L 1178 0 
L 603 0 
L 603 3500 
z
M 603 4863 
L 1178 4863 
L 1178 4134 
L 603 4134 
L 603 4863 
z
" transform="scale(0.015625)"/>
       <path id="DejaVuSans-6d" d="M 3328 2828 
Q 3544 3216 3844 3400 
Q 4144 3584 4550 3584 
Q 5097 3584 5394 3201 
Q 5691 2819 5691 2113 
L 5691 0 
L 5113 0 
L 5113 2094 
Q 5113 2597 4934 2840 
Q 4756 3084 4391 3084 
Q 3944 3084 3684 2787 
Q 3425 2491 3425 1978 
L 3425 0 
L 2847 0 
L 2847 2094 
Q 2847 2600 2669 2842 
Q 2491 3084 2119 3084 
Q 1678 3084 1418 2786 
Q 1159 2488 1159 1978 
L 1159 0 
L 581 0 
L 581 3500 
L 1159 3500 
L 1159 2956 
Q 1356 3278 1631 3431 
Q 1906 3584 2284 3584 
Q 2666 3584 2933 3390 
Q 3200 3197 3328 2828 
z
" transform="scale(0.015625)"/>
       <path id="DejaVuSans-65" d="M 3597 1894 
L 3597 1613 
L 953 1613 
Q 991 1019 1311 708 
Q 1631 397 2203 397 
Q 2534 397 2845 478 
Q 3156 559 3463 722 
L 3463 178 
Q 3153 47 2828 -22 
Q 2503 -91 2169 -91 
Q 1331 -91 842 396 
Q 353 884 353 1716 
Q 353 2575 817 3079 
Q 1281 3584 2069 3584 
Q 2775 3584 3186 3129 
Q 3597 2675 3597 1894 
z
M 3022 2063 
Q 3016 2534 2758 2815 
Q 2500 3097 2075 3097 
Q 1594 3097 1305 2825 
Q 1016 2553 972 2059 
L 3022 2063 
z
" transform="scale(0.015625)"/>
       <path id="DejaVuSans-20" transform="scale(0.015625)"/>
       <path id="DejaVuSans-5b" d="M 550 4863 
L 1875 4863 
L 1875 4416 
L 1125 4416 
L 1125 -397 
L 1875 -397 
L 1875 -844 
L 550 -844 
L 550 4863 
z
" transform="scale(0.015625)"/>
       <path id="DejaVuSans-64" d="M 2906 2969 
L 2906 4863 
L 3481 4863 
L 3481 0 
L 2906 0 
L 2906 525 
Q 2725 213 2448 61 
Q 2172 -91 1784 -91 
Q 1150 -91 751 415 
Q 353 922 353 1747 
Q 353 2572 751 3078 
Q 1150 3584 1784 3584 
Q 2172 3584 2448 3432 
Q 2725 3281 2906 2969 
z
M 947 1747 
Q 947 1113 1208 752 
Q 1469 391 1925 391 
Q 2381 391 2643 752 
Q 2906 1113 2906 1747 
Q 2906 2381 2643 2742 
Q 2381 3103 1925 3103 
Q 1469 3103 1208 2742 
Q 947 2381 947 1747 
z
" transform="scale(0.015625)"/>
       <path id="DejaVuSans-61" d="M 2194 1759 
Q 1497 1759 1228 1600 
Q 959 1441 959 1056 
Q 959 750 1161 570 
Q 1363 391 1709 391 
Q 2188 391 2477 730 
Q 2766 1069 2766 1631 
L 2766 1759 
L 2194 1759 
z
M 3341 1997 
L 3341 0 
L 2766 0 
L 2766 531 
Q 2569 213 2275 61 
Q 1981 -91 1556 -91 
Q 1019 -91 701 211 
Q 384 513 384 1019 
Q 384 1609 779 1909 
Q 1175 2209 1959 2209 
L 2766 2209 
L 2766 2266 
Q 2766 2663 2505 2880 
Q 2244 3097 1772 3097 
Q 1472 3097 1187 3025 
Q 903 2953 641 2809 
L 641 3341 
Q 956 3463 1253 3523 
Q 1550 3584 1831 3584 
Q 2591 3584 2966 3190 
Q 3341 2797 3341 1997 
z
" transform="scale(0.015625)"/>
       <path id="DejaVuSans-5d" d="M 1947 4863 
L 1947 -844 
L 622 -844 
L 622 -397 
L 1369 -397 
L 1369 4416 
L 622 4416 
L 622 4863 
L 1947 4863 
z
" transform="scale(0.015625)"/>
      </defs>
      <use xlink:href="#DejaVuSans-74"/>
      <use xlink:href="#DejaVuSans-69" x="39.208984"/>
      <use xlink:href="#DejaVuSans-6d" x="66.992188"/>
      <use xlink:href="#DejaVuSans-65" x="164.404297"/>
      <use xlink:href="#DejaVuSans-20" x="225.927734"/>
      <use xlink:href="#DejaVuSans-5b" x="257.714844"/>
      <use xlink:href="#DejaVuSans-64" x="296.728516"/>
      <use xlink:href="#DejaVuSans-61" x="360.205078"/>
      <use xlink:href="#DejaVuSans-74" x="421.484375"/>
      <use xlink:href="#DejaVuSans-65" x="460.693359"/>
      <use xlink:href="#DejaVuSans-74" x="522.216797"/>
      <use xlink:href="#DejaVuSans-69" x="561.425781"/>
      <use xlink:href="#DejaVuSans-6d" x="589.208984"/>
      <use xlink:href="#DejaVuSans-65" x="686.621094"/>
      <use xlink:href="#DejaVuSans-5d" x="748.144531"/>
     </g>
    </g>
   </g>
   <g id="matplotlib.axis_2">
    <g id="ytick_1">
     <g id="line2d_9">
      <defs>
       <path id="m6c45cf1457" d="M 0 0 
L -3.5 0 
" style="stroke: #000000; stroke-width: 0.8"/>
      </defs>
      <g>
       <use xlink:href="#m6c45cf1457" x="40.88125" y="218.879993" style="stroke: #000000; stroke-width: 0.8"/>
      </g>
     </g>
     <g id="text_10">
      <!-- 0 -->
      <g transform="translate(27.51875 222.679212) scale(0.1 -0.1)">
       <use xlink:href="#DejaVuSans-30"/>
      </g>
     </g>
    </g>
    <g id="ytick_2">
     <g id="line2d_10">
      <g>
       <use xlink:href="#m6c45cf1457" x="40.88125" y="190.240217" style="stroke: #000000; stroke-width: 0.8"/>
      </g>
     </g>
     <g id="text_11">
      <!-- 2 -->
      <g transform="translate(27.51875 194.039435) scale(0.1 -0.1)">
       <use xlink:href="#DejaVuSans-32"/>
      </g>
     </g>
    </g>
    <g id="ytick_3">
     <g id="line2d_11">
      <g>
       <use xlink:href="#m6c45cf1457" x="40.88125" y="161.60044" style="stroke: #000000; stroke-width: 0.8"/>
      </g>
     </g>
     <g id="text_12">
      <!-- 4 -->
      <g transform="translate(27.51875 165.399659) scale(0.1 -0.1)">
       <use xlink:href="#DejaVuSans-34"/>
      </g>
     </g>
    </g>
    <g id="ytick_4">
     <g id="line2d_12">
      <g>
       <use xlink:href="#m6c45cf1457" x="40.88125" y="132.960664" style="stroke: #000000; stroke-width: 0.8"/>
      </g>
     </g>
     <g id="text_13">
      <!-- 6 -->
      <g transform="translate(27.51875 136.759883) scale(0.1 -0.1)">
       <defs>
        <path id="DejaVuSans-36" d="M 2113 2584 
Q 1688 2584 1439 2293 
Q 1191 2003 1191 1497 
Q 1191 994 1439 701 
Q 1688 409 2113 409 
Q 2538 409 2786 701 
Q 3034 994 3034 1497 
Q 3034 2003 2786 2293 
Q 2538 2584 2113 2584 
z
M 3366 4563 
L 3366 3988 
Q 3128 4100 2886 4159 
Q 2644 4219 2406 4219 
Q 1781 4219 1451 3797 
Q 1122 3375 1075 2522 
Q 1259 2794 1537 2939 
Q 1816 3084 2150 3084 
Q 2853 3084 3261 2657 
Q 3669 2231 3669 1497 
Q 3669 778 3244 343 
Q 2819 -91 2113 -91 
Q 1303 -91 875 529 
Q 447 1150 447 2328 
Q 447 3434 972 4092 
Q 1497 4750 2381 4750 
Q 2619 4750 2861 4703 
Q 3103 4656 3366 4563 
z
" transform="scale(0.015625)"/>
       </defs>
       <use xlink:href="#DejaVuSans-36"/>
      </g>
     </g>
    </g>
    <g id="ytick_5">
     <g id="line2d_13">
      <g>
       <use xlink:href="#m6c45cf1457" x="40.88125" y="104.320888" style="stroke: #000000; stroke-width: 0.8"/>
      </g>
     </g>
     <g id="text_14">
      <!-- 8 -->
      <g transform="translate(27.51875 108.120106) scale(0.1 -0.1)">
       <use xlink:href="#DejaVuSans-38"/>
      </g>
     </g>
    </g>
    <g id="ytick_6">
     <g id="line2d_14">
      <g>
       <use xlink:href="#m6c45cf1457" x="40.88125" y="75.681111" style="stroke: #000000; stroke-width: 0.8"/>
      </g>
     </g>
     <g id="text_15">
      <!-- 10 -->
      <g transform="translate(21.15625 79.48033) scale(0.1 -0.1)">
       <use xlink:href="#DejaVuSans-31"/>
       <use xlink:href="#DejaVuSans-30" x="63.623047"/>
      </g>
     </g>
    </g>
    <g id="ytick_7">
     <g id="line2d_15">
      <g>
       <use xlink:href="#m6c45cf1457" x="40.88125" y="47.041335" style="stroke: #000000; stroke-width: 0.8"/>
      </g>
     </g>
     <g id="text_16">
      <!-- 12 -->
      <g transform="translate(21.15625 50.840554) scale(0.1 -0.1)">
       <use xlink:href="#DejaVuSans-31"/>
       <use xlink:href="#DejaVuSans-32" x="63.623047"/>
      </g>
     </g>
    </g>
    <g id="ytick_8">
     <g id="line2d_16">
      <g>
       <use xlink:href="#m6c45cf1457" x="40.88125" y="18.401559" style="stroke: #000000; stroke-width: 0.8"/>
      </g>
     </g>
     <g id="text_17">
      <!-- 14 -->
      <g transform="translate(21.15625 22.200778) scale(0.1 -0.1)">
       <use xlink:href="#DejaVuSans-31"/>
       <use xlink:href="#DejaVuSans-34" x="63.623047"/>
      </g>
     </g>
    </g>
    <g id="text_18">
     <!-- rotation_speed [Hz] -->
     <g transform="translate(14.798438 167.165156) rotate(-90) scale(0.1 -0.1)">
      <defs>
       <path id="DejaVuSans-72" d="M 2631 2963 
Q 2534 3019 2420 3045 
Q 2306 3072 2169 3072 
Q 1681 3072 1420 2755 
Q 1159 2438 1159 1844 
L 1159 0 
L 581 0 
L 581 3500 
L 1159 3500 
L 1159 2956 
Q 1341 3275 1631 3429 
Q 1922 3584 2338 3584 
Q 2397 3584 2469 3576 
Q 2541 3569 2628 3553 
L 2631 2963 
z
" transform="scale(0.015625)"/>
       <path id="DejaVuSans-6f" d="M 1959 3097 
Q 1497 3097 1228 2736 
Q 959 2375 959 1747 
Q 959 1119 1226 758 
Q 1494 397 1959 397 
Q 2419 397 2687 759 
Q 2956 1122 2956 1747 
Q 2956 2369 2687 2733 
Q 2419 3097 1959 3097 
z
M 1959 3584 
Q 2709 3584 3137 3096 
Q 3566 2609 3566 1747 
Q 3566 888 3137 398 
Q 2709 -91 1959 -91 
Q 1206 -91 779 398 
Q 353 888 353 1747 
Q 353 2609 779 3096 
Q 1206 3584 1959 3584 
z
" transform="scale(0.015625)"/>
       <path id="DejaVuSans-6e" d="M 3513 2113 
L 3513 0 
L 2938 0 
L 2938 2094 
Q 2938 2591 2744 2837 
Q 2550 3084 2163 3084 
Q 1697 3084 1428 2787 
Q 1159 2491 1159 1978 
L 1159 0 
L 581 0 
L 581 3500 
L 1159 3500 
L 1159 2956 
Q 1366 3272 1645 3428 
Q 1925 3584 2291 3584 
Q 2894 3584 3203 3211 
Q 3513 2838 3513 2113 
z
" transform="scale(0.015625)"/>
       <path id="DejaVuSans-5f" d="M 3263 -1063 
L 3263 -1509 
L -63 -1509 
L -63 -1063 
L 3263 -1063 
z
" transform="scale(0.015625)"/>
       <path id="DejaVuSans-73" d="M 2834 3397 
L 2834 2853 
Q 2591 2978 2328 3040 
Q 2066 3103 1784 3103 
Q 1356 3103 1142 2972 
Q 928 2841 928 2578 
Q 928 2378 1081 2264 
Q 1234 2150 1697 2047 
L 1894 2003 
Q 2506 1872 2764 1633 
Q 3022 1394 3022 966 
Q 3022 478 2636 193 
Q 2250 -91 1575 -91 
Q 1294 -91 989 -36 
Q 684 19 347 128 
L 347 722 
Q 666 556 975 473 
Q 1284 391 1588 391 
Q 1994 391 2212 530 
Q 2431 669 2431 922 
Q 2431 1156 2273 1281 
Q 2116 1406 1581 1522 
L 1381 1569 
Q 847 1681 609 1914 
Q 372 2147 372 2553 
Q 372 3047 722 3315 
Q 1072 3584 1716 3584 
Q 2034 3584 2315 3537 
Q 2597 3491 2834 3397 
z
" transform="scale(0.015625)"/>
       <path id="DejaVuSans-70" d="M 1159 525 
L 1159 -1331 
L 581 -1331 
L 581 3500 
L 1159 3500 
L 1159 2969 
Q 1341 3281 1617 3432 
Q 1894 3584 2278 3584 
Q 2916 3584 3314 3078 
Q 3713 2572 3713 1747 
Q 3713 922 3314 415 
Q 2916 -91 2278 -91 
Q 1894 -91 1617 61 
Q 1341 213 1159 525 
z
M 3116 1747 
Q 3116 2381 2855 2742 
Q 2594 3103 2138 3103 
Q 1681 3103 1420 2742 
Q 1159 2381 1159 1747 
Q 1159 1113 1420 752 
Q 1681 391 2138 391 
Q 2594 391 2855 752 
Q 3116 1113 3116 1747 
z
" transform="scale(0.015625)"/>
       <path id="DejaVuSans-48" d="M 628 4666 
L 1259 4666 
L 1259 2753 
L 3553 2753 
L 3553 4666 
L 4184 4666 
L 4184 0 
L 3553 0 
L 3553 2222 
L 1259 2222 
L 1259 0 
L 628 0 
L 628 4666 
z
" transform="scale(0.015625)"/>
       <path id="DejaVuSans-7a" d="M 353 3500 
L 3084 3500 
L 3084 2975 
L 922 459 
L 3084 459 
L 3084 0 
L 275 0 
L 275 525 
L 2438 3041 
L 353 3041 
L 353 3500 
z
" transform="scale(0.015625)"/>
      </defs>
      <use xlink:href="#DejaVuSans-72"/>
      <use xlink:href="#DejaVuSans-6f" x="38.863281"/>
      <use xlink:href="#DejaVuSans-74" x="100.044922"/>
      <use xlink:href="#DejaVuSans-61" x="139.253906"/>
      <use xlink:href="#DejaVuSans-74" x="200.533203"/>
      <use xlink:href="#DejaVuSans-69" x="239.742188"/>
      <use xlink:href="#DejaVuSans-6f" x="267.525391"/>
      <use xlink:href="#DejaVuSans-6e" x="328.707031"/>
      <use xlink:href="#DejaVuSans-5f" x="392.085938"/>
      <use xlink:href="#DejaVuSans-73" x="442.085938"/>
      <use xlink:href="#DejaVuSans-70" x="494.185547"/>
      <use xlink:href="#DejaVuSans-65" x="557.662109"/>
      <use xlink:href="#DejaVuSans-65" x="619.185547"/>
      <use xlink:href="#DejaVuSans-64" x="680.708984"/>
      <use xlink:href="#DejaVuSans-20" x="744.185547"/>
      <use xlink:href="#DejaVuSans-5b" x="775.972656"/>
      <use xlink:href="#DejaVuSans-48" x="814.986328"/>
      <use xlink:href="#DejaVuSans-7a" x="890.181641"/>
      <use xlink:href="#DejaVuSans-5d" x="942.671875"/>
     </g>
    </g>
   </g>
   <g id="line2d_17">
    <defs>
     <path id="m7d3bd91e6c" d="M 0 1 
C 0.265203 1 0.51958 0.894634 0.707107 0.707107 
C 0.894634 0.51958 1 0.265203 1 0 
C 1 -0.265203 0.894634 -0.51958 0.707107 -0.707107 
C 0.51958 -0.894634 0.265203 -1 0 -1 
C -0.265203 -1 -0.51958 -0.894634 -0.707107 -0.707107 
C -0.894634 -0.51958 -1 -0.265203 -1 0 
C -1 0.265203 -0.894634 0.51958 -0.707107 0.707107 
C -0.51958 0.894634 -0.265203 1 0 1 
z
" style="stroke: #1f77b4"/>
    </defs>
    <g clip-path="url(#p4910f46eb8)">
     <use xlink:href="#m7d3bd91e6c" x="56.099432" y="218.879809" style="fill: #1f77b4; stroke: #1f77b4"/>
     <use xlink:href="#m7d3bd91e6c" x="57.799787" y="213.739752" style="fill: #1f77b4; stroke: #1f77b4"/>
     <use xlink:href="#m7d3bd91e6c" x="59.500143" y="208.600218" style="fill: #1f77b4; stroke: #1f77b4"/>
     <use xlink:href="#m7d3bd91e6c" x="61.200498" y="203.458711" style="fill: #1f77b4; stroke: #1f77b4"/>
     <use xlink:href="#m7d3bd91e6c" x="62.900854" y="198.317816" style="fill: #1f77b4; stroke: #1f77b4"/>
     <use xlink:href="#m7d3bd91e6c" x="64.601209" y="193.177609" style="fill: #1f77b4; stroke: #1f77b4"/>
     <use xlink:href="#m7d3bd91e6c" x="66.301565" y="188.037049" style="fill: #1f77b4; stroke: #1f77b4"/>
     <use xlink:href="#m7d3bd91e6c" x="68.00192" y="182.896693" style="fill: #1f77b4; stroke: #1f77b4"/>
     <use xlink:href="#m7d3bd91e6c" x="69.702276" y="177.755118" style="fill: #1f77b4; stroke: #1f77b4"/>
     <use xlink:href="#m7d3bd91e6c" x="71.402631" y="172.615123" style="fill: #1f77b4; stroke: #1f77b4"/>
     <use xlink:href="#m7d3bd91e6c" x="73.102987" y="167.474188" style="fill: #1f77b4; stroke: #1f77b4"/>
     <use xlink:href="#m7d3bd91e6c" x="74.803342" y="162.33493" style="fill: #1f77b4; stroke: #1f77b4"/>
     <use xlink:href="#m7d3bd91e6c" x="76.503698" y="157.194223" style="fill: #1f77b4; stroke: #1f77b4"/>
     <use xlink:href="#m7d3bd91e6c" x="78.204053" y="152.053891" style="fill: #1f77b4; stroke: #1f77b4"/>
     <use xlink:href="#m7d3bd91e6c" x="79.904409" y="146.913645" style="fill: #1f77b4; stroke: #1f77b4"/>
     <use xlink:href="#m7d3bd91e6c" x="81.604764" y="141.773015" style="fill: #1f77b4; stroke: #1f77b4"/>
     <use xlink:href="#m7d3bd91e6c" x="83.30512" y="136.632533" style="fill: #1f77b4; stroke: #1f77b4"/>
     <use xlink:href="#m7d3bd91e6c" x="85.005476" y="131.491985" style="fill: #1f77b4; stroke: #1f77b4"/>
     <use xlink:href="#m7d3bd91e6c" x="86.705831" y="126.352704" style="fill: #1f77b4; stroke: #1f77b4"/>
     <use xlink:href="#m7d3bd91e6c" x="88.406187" y="121.210865" style="fill: #1f77b4; stroke: #1f77b4"/>
     <use xlink:href="#m7d3bd91e6c" x="90.106542" y="116.070218" style="fill: #1f77b4; stroke: #1f77b4"/>
     <use xlink:href="#m7d3bd91e6c" x="91.806898" y="110.930498" style="fill: #1f77b4; stroke: #1f77b4"/>
     <use xlink:href="#m7d3bd91e6c" x="93.507252" y="105.788773" style="fill: #1f77b4; stroke: #1f77b4"/>
     <use xlink:href="#m7d3bd91e6c" x="95.207608" y="100.649341" style="fill: #1f77b4; stroke: #1f77b4"/>
     <use xlink:href="#m7d3bd91e6c" x="96.907964" y="95.508682" style="fill: #1f77b4; stroke: #1f77b4"/>
     <use xlink:href="#m7d3bd91e6c" x="98.608319" y="90.368669" style="fill: #1f77b4; stroke: #1f77b4"/>
     <use xlink:href="#m7d3bd91e6c" x="100.308674" y="85.228511" style="fill: #1f77b4; stroke: #1f77b4"/>
     <use xlink:href="#m7d3bd91e6c" x="102.00903" y="80.087443" style="fill: #1f77b4; stroke: #1f77b4"/>
     <use xlink:href="#m7d3bd91e6c" x="103.709386" y="74.946465" style="fill: #1f77b4; stroke: #1f77b4"/>
     <use xlink:href="#m7d3bd91e6c" x="105.409741" y="69.806164" style="fill: #1f77b4; stroke: #1f77b4"/>
     <use xlink:href="#m7d3bd91e6c" x="107.110097" y="64.665402" style="fill: #1f77b4; stroke: #1f77b4"/>
     <use xlink:href="#m7d3bd91e6c" x="108.810452" y="59.525633" style="fill: #1f77b4; stroke: #1f77b4"/>
     <use xlink:href="#m7d3bd91e6c" x="110.510808" y="54.38485" style="fill: #1f77b4; stroke: #1f77b4"/>
     <use xlink:href="#m7d3bd91e6c" x="112.211163" y="49.243961" style="fill: #1f77b4; stroke: #1f77b4"/>
     <use xlink:href="#m7d3bd91e6c" x="113.911519" y="44.10437" style="fill: #1f77b4; stroke: #1f77b4"/>
     <use xlink:href="#m7d3bd91e6c" x="115.611875" y="38.963775" style="fill: #1f77b4; stroke: #1f77b4"/>
     <use xlink:href="#m7d3bd91e6c" x="117.31223" y="33.822178" style="fill: #1f77b4; stroke: #1f77b4"/>
     <use xlink:href="#m7d3bd91e6c" x="119.012585" y="28.68261" style="fill: #1f77b4; stroke: #1f77b4"/>
     <use xlink:href="#m7d3bd91e6c" x="120.712941" y="23.542789" style="fill: #1f77b4; stroke: #1f77b4"/>
     <use xlink:href="#m7d3bd91e6c" x="122.413297" y="18.401054" style="fill: #1f77b4; stroke: #1f77b4"/>
     <use xlink:href="#m7d3bd91e6c" x="124.113652" y="17.28" style="fill: #1f77b4; stroke: #1f77b4"/>
     <use xlink:href="#m7d3bd91e6c" x="125.814007" y="17.336543" style="fill: #1f77b4; stroke: #1f77b4"/>
     <use xlink:href="#m7d3bd91e6c" x="127.514363" y="17.873206" style="fill: #1f77b4; stroke: #1f77b4"/>
     <use xlink:href="#m7d3bd91e6c" x="129.214719" y="18.410406" style="fill: #1f77b4; stroke: #1f77b4"/>
     <use xlink:href="#m7d3bd91e6c" x="130.915074" y="18.701105" style="fill: #1f77b4; stroke: #1f77b4"/>
     <use xlink:href="#m7d3bd91e6c" x="132.61543" y="18.733638" style="fill: #1f77b4; stroke: #1f77b4"/>
     <use xlink:href="#m7d3bd91e6c" x="134.315785" y="18.614039" style="fill: #1f77b4; stroke: #1f77b4"/>
     <use xlink:href="#m7d3bd91e6c" x="136.016141" y="18.46355" style="fill: #1f77b4; stroke: #1f77b4"/>
     <use xlink:href="#m7d3bd91e6c" x="137.716496" y="18.357705" style="fill: #1f77b4; stroke: #1f77b4"/>
     <use xlink:href="#m7d3bd91e6c" x="139.416852" y="18.315798" style="fill: #1f77b4; stroke: #1f77b4"/>
     <use xlink:href="#m7d3bd91e6c" x="141.117207" y="18.323277" style="fill: #1f77b4; stroke: #1f77b4"/>
     <use xlink:href="#m7d3bd91e6c" x="142.817563" y="18.354146" style="fill: #1f77b4; stroke: #1f77b4"/>
     <use xlink:href="#m7d3bd91e6c" x="144.517918" y="18.386823" style="fill: #1f77b4; stroke: #1f77b4"/>
     <use xlink:href="#m7d3bd91e6c" x="146.218273" y="18.409088" style="fill: #1f77b4; stroke: #1f77b4"/>
     <use xlink:href="#m7d3bd91e6c" x="147.918629" y="18.419993" style="fill: #1f77b4; stroke: #1f77b4"/>
     <use xlink:href="#m7d3bd91e6c" x="149.618985" y="18.419712" style="fill: #1f77b4; stroke: #1f77b4"/>
     <use xlink:href="#m7d3bd91e6c" x="151.31934" y="18.414563" style="fill: #1f77b4; stroke: #1f77b4"/>
     <use xlink:href="#m7d3bd91e6c" x="153.019696" y="18.408133" style="fill: #1f77b4; stroke: #1f77b4"/>
     <use xlink:href="#m7d3bd91e6c" x="154.720051" y="18.403012" style="fill: #1f77b4; stroke: #1f77b4"/>
     <use xlink:href="#m7d3bd91e6c" x="156.420407" y="18.400408" style="fill: #1f77b4; stroke: #1f77b4"/>
     <use xlink:href="#m7d3bd91e6c" x="158.120762" y="18.39852" style="fill: #1f77b4; stroke: #1f77b4"/>
     <use xlink:href="#m7d3bd91e6c" x="159.821118" y="18.399029" style="fill: #1f77b4; stroke: #1f77b4"/>
     <use xlink:href="#m7d3bd91e6c" x="161.521473" y="18.398173" style="fill: #1f77b4; stroke: #1f77b4"/>
     <use xlink:href="#m7d3bd91e6c" x="163.221828" y="18.400705" style="fill: #1f77b4; stroke: #1f77b4"/>
     <use xlink:href="#m7d3bd91e6c" x="164.922184" y="18.400032" style="fill: #1f77b4; stroke: #1f77b4"/>
     <use xlink:href="#m7d3bd91e6c" x="166.62254" y="18.401247" style="fill: #1f77b4; stroke: #1f77b4"/>
     <use xlink:href="#m7d3bd91e6c" x="168.322896" y="18.400997" style="fill: #1f77b4; stroke: #1f77b4"/>
     <use xlink:href="#m7d3bd91e6c" x="170.023251" y="18.402581" style="fill: #1f77b4; stroke: #1f77b4"/>
     <use xlink:href="#m7d3bd91e6c" x="171.723606" y="18.401222" style="fill: #1f77b4; stroke: #1f77b4"/>
     <use xlink:href="#m7d3bd91e6c" x="173.423962" y="18.401453" style="fill: #1f77b4; stroke: #1f77b4"/>
     <use xlink:href="#m7d3bd91e6c" x="175.124318" y="18.401975" style="fill: #1f77b4; stroke: #1f77b4"/>
     <use xlink:href="#m7d3bd91e6c" x="176.824673" y="18.402504" style="fill: #1f77b4; stroke: #1f77b4"/>
     <use xlink:href="#m7d3bd91e6c" x="178.525028" y="18.401586" style="fill: #1f77b4; stroke: #1f77b4"/>
     <use xlink:href="#m7d3bd91e6c" x="180.225384" y="18.4012" style="fill: #1f77b4; stroke: #1f77b4"/>
     <use xlink:href="#m7d3bd91e6c" x="181.925739" y="18.401361" style="fill: #1f77b4; stroke: #1f77b4"/>
     <use xlink:href="#m7d3bd91e6c" x="183.626095" y="18.402212" style="fill: #1f77b4; stroke: #1f77b4"/>
     <use xlink:href="#m7d3bd91e6c" x="185.32645" y="18.401184" style="fill: #1f77b4; stroke: #1f77b4"/>
     <use xlink:href="#m7d3bd91e6c" x="187.026806" y="18.402635" style="fill: #1f77b4; stroke: #1f77b4"/>
     <use xlink:href="#m7d3bd91e6c" x="188.727161" y="18.401617" style="fill: #1f77b4; stroke: #1f77b4"/>
     <use xlink:href="#m7d3bd91e6c" x="190.427516" y="18.401048" style="fill: #1f77b4; stroke: #1f77b4"/>
     <use xlink:href="#m7d3bd91e6c" x="192.127872" y="18.40176" style="fill: #1f77b4; stroke: #1f77b4"/>
     <use xlink:href="#m7d3bd91e6c" x="193.828228" y="18.401467" style="fill: #1f77b4; stroke: #1f77b4"/>
     <use xlink:href="#m7d3bd91e6c" x="195.528584" y="18.401342" style="fill: #1f77b4; stroke: #1f77b4"/>
     <use xlink:href="#m7d3bd91e6c" x="197.228939" y="18.402552" style="fill: #1f77b4; stroke: #1f77b4"/>
     <use xlink:href="#m7d3bd91e6c" x="198.929295" y="18.401411" style="fill: #1f77b4; stroke: #1f77b4"/>
     <use xlink:href="#m7d3bd91e6c" x="200.62965" y="18.400995" style="fill: #1f77b4; stroke: #1f77b4"/>
     <use xlink:href="#m7d3bd91e6c" x="202.330006" y="18.400911" style="fill: #1f77b4; stroke: #1f77b4"/>
     <use xlink:href="#m7d3bd91e6c" x="204.030361" y="18.402102" style="fill: #1f77b4; stroke: #1f77b4"/>
     <use xlink:href="#m7d3bd91e6c" x="205.730717" y="18.401804" style="fill: #1f77b4; stroke: #1f77b4"/>
     <use xlink:href="#m7d3bd91e6c" x="207.431072" y="18.401193" style="fill: #1f77b4; stroke: #1f77b4"/>
     <use xlink:href="#m7d3bd91e6c" x="209.131428" y="18.401335" style="fill: #1f77b4; stroke: #1f77b4"/>
     <use xlink:href="#m7d3bd91e6c" x="210.831783" y="18.399823" style="fill: #1f77b4; stroke: #1f77b4"/>
     <use xlink:href="#m7d3bd91e6c" x="212.532139" y="18.40141" style="fill: #1f77b4; stroke: #1f77b4"/>
     <use xlink:href="#m7d3bd91e6c" x="214.232494" y="18.401305" style="fill: #1f77b4; stroke: #1f77b4"/>
     <use xlink:href="#m7d3bd91e6c" x="215.932849" y="18.401509" style="fill: #1f77b4; stroke: #1f77b4"/>
     <use xlink:href="#m7d3bd91e6c" x="217.633205" y="18.400546" style="fill: #1f77b4; stroke: #1f77b4"/>
     <use xlink:href="#m7d3bd91e6c" x="219.333561" y="18.401724" style="fill: #1f77b4; stroke: #1f77b4"/>
     <use xlink:href="#m7d3bd91e6c" x="221.033916" y="18.401216" style="fill: #1f77b4; stroke: #1f77b4"/>
     <use xlink:href="#m7d3bd91e6c" x="222.734272" y="18.402025" style="fill: #1f77b4; stroke: #1f77b4"/>
     <use xlink:href="#m7d3bd91e6c" x="224.434627" y="18.401607" style="fill: #1f77b4; stroke: #1f77b4"/>
     <use xlink:href="#m7d3bd91e6c" x="226.134983" y="18.400212" style="fill: #1f77b4; stroke: #1f77b4"/>
     <use xlink:href="#m7d3bd91e6c" x="227.835339" y="18.401992" style="fill: #1f77b4; stroke: #1f77b4"/>
     <use xlink:href="#m7d3bd91e6c" x="229.535694" y="18.400864" style="fill: #1f77b4; stroke: #1f77b4"/>
     <use xlink:href="#m7d3bd91e6c" x="231.236049" y="18.401704" style="fill: #1f77b4; stroke: #1f77b4"/>
     <use xlink:href="#m7d3bd91e6c" x="232.936405" y="18.401837" style="fill: #1f77b4; stroke: #1f77b4"/>
     <use xlink:href="#m7d3bd91e6c" x="234.636761" y="18.401029" style="fill: #1f77b4; stroke: #1f77b4"/>
     <use xlink:href="#m7d3bd91e6c" x="236.337116" y="18.402679" style="fill: #1f77b4; stroke: #1f77b4"/>
     <use xlink:href="#m7d3bd91e6c" x="238.037471" y="18.401929" style="fill: #1f77b4; stroke: #1f77b4"/>
     <use xlink:href="#m7d3bd91e6c" x="239.737827" y="18.401476" style="fill: #1f77b4; stroke: #1f77b4"/>
     <use xlink:href="#m7d3bd91e6c" x="241.438182" y="18.400651" style="fill: #1f77b4; stroke: #1f77b4"/>
     <use xlink:href="#m7d3bd91e6c" x="243.138538" y="18.401656" style="fill: #1f77b4; stroke: #1f77b4"/>
     <use xlink:href="#m7d3bd91e6c" x="244.838893" y="18.401377" style="fill: #1f77b4; stroke: #1f77b4"/>
     <use xlink:href="#m7d3bd91e6c" x="246.539249" y="18.401599" style="fill: #1f77b4; stroke: #1f77b4"/>
     <use xlink:href="#m7d3bd91e6c" x="248.239604" y="18.401356" style="fill: #1f77b4; stroke: #1f77b4"/>
     <use xlink:href="#m7d3bd91e6c" x="249.93996" y="18.401536" style="fill: #1f77b4; stroke: #1f77b4"/>
     <use xlink:href="#m7d3bd91e6c" x="251.640316" y="18.401855" style="fill: #1f77b4; stroke: #1f77b4"/>
     <use xlink:href="#m7d3bd91e6c" x="253.340671" y="18.402325" style="fill: #1f77b4; stroke: #1f77b4"/>
     <use xlink:href="#m7d3bd91e6c" x="255.041026" y="18.404661" style="fill: #1f77b4; stroke: #1f77b4"/>
     <use xlink:href="#m7d3bd91e6c" x="256.741382" y="18.409715" style="fill: #1f77b4; stroke: #1f77b4"/>
     <use xlink:href="#m7d3bd91e6c" x="258.441738" y="18.436094" style="fill: #1f77b4; stroke: #1f77b4"/>
     <use xlink:href="#m7d3bd91e6c" x="260.142093" y="18.53103" style="fill: #1f77b4; stroke: #1f77b4"/>
     <use xlink:href="#m7d3bd91e6c" x="261.842449" y="18.860286" style="fill: #1f77b4; stroke: #1f77b4"/>
     <use xlink:href="#m7d3bd91e6c" x="263.542804" y="19.737616" style="fill: #1f77b4; stroke: #1f77b4"/>
     <use xlink:href="#m7d3bd91e6c" x="265.24316" y="21.034494" style="fill: #1f77b4; stroke: #1f77b4"/>
     <use xlink:href="#m7d3bd91e6c" x="266.943515" y="21.913681" style="fill: #1f77b4; stroke: #1f77b4"/>
     <use xlink:href="#m7d3bd91e6c" x="268.64387" y="22.242556" style="fill: #1f77b4; stroke: #1f77b4"/>
     <use xlink:href="#m7d3bd91e6c" x="270.344226" y="22.337912" style="fill: #1f77b4; stroke: #1f77b4"/>
     <use xlink:href="#m7d3bd91e6c" x="272.044582" y="22.363723" style="fill: #1f77b4; stroke: #1f77b4"/>
     <use xlink:href="#m7d3bd91e6c" x="273.744937" y="22.369507" style="fill: #1f77b4; stroke: #1f77b4"/>
     <use xlink:href="#m7d3bd91e6c" x="275.445292" y="22.371071" style="fill: #1f77b4; stroke: #1f77b4"/>
     <use xlink:href="#m7d3bd91e6c" x="277.145648" y="22.371073" style="fill: #1f77b4; stroke: #1f77b4"/>
     <use xlink:href="#m7d3bd91e6c" x="278.846004" y="22.372261" style="fill: #1f77b4; stroke: #1f77b4"/>
     <use xlink:href="#m7d3bd91e6c" x="280.546359" y="22.371985" style="fill: #1f77b4; stroke: #1f77b4"/>
     <use xlink:href="#m7d3bd91e6c" x="282.246715" y="22.371189" style="fill: #1f77b4; stroke: #1f77b4"/>
     <use xlink:href="#m7d3bd91e6c" x="283.94707" y="22.370815" style="fill: #1f77b4; stroke: #1f77b4"/>
     <use xlink:href="#m7d3bd91e6c" x="285.647425" y="22.371224" style="fill: #1f77b4; stroke: #1f77b4"/>
     <use xlink:href="#m7d3bd91e6c" x="287.347781" y="22.371227" style="fill: #1f77b4; stroke: #1f77b4"/>
     <use xlink:href="#m7d3bd91e6c" x="289.048136" y="22.371496" style="fill: #1f77b4; stroke: #1f77b4"/>
     <use xlink:href="#m7d3bd91e6c" x="290.748492" y="22.371335" style="fill: #1f77b4; stroke: #1f77b4"/>
     <use xlink:href="#m7d3bd91e6c" x="292.448847" y="22.372196" style="fill: #1f77b4; stroke: #1f77b4"/>
     <use xlink:href="#m7d3bd91e6c" x="294.149203" y="22.372076" style="fill: #1f77b4; stroke: #1f77b4"/>
     <use xlink:href="#m7d3bd91e6c" x="295.849558" y="27.410311" style="fill: #1f77b4; stroke: #1f77b4"/>
     <use xlink:href="#m7d3bd91e6c" x="297.549914" y="32.449799" style="fill: #1f77b4; stroke: #1f77b4"/>
     <use xlink:href="#m7d3bd91e6c" x="299.25027" y="37.487893" style="fill: #1f77b4; stroke: #1f77b4"/>
     <use xlink:href="#m7d3bd91e6c" x="300.950625" y="42.52643" style="fill: #1f77b4; stroke: #1f77b4"/>
     <use xlink:href="#m7d3bd91e6c" x="302.65098" y="47.563516" style="fill: #1f77b4; stroke: #1f77b4"/>
     <use xlink:href="#m7d3bd91e6c" x="304.351336" y="52.603237" style="fill: #1f77b4; stroke: #1f77b4"/>
     <use xlink:href="#m7d3bd91e6c" x="306.051692" y="57.643126" style="fill: #1f77b4; stroke: #1f77b4"/>
     <use xlink:href="#m7d3bd91e6c" x="307.752047" y="62.680285" style="fill: #1f77b4; stroke: #1f77b4"/>
     <use xlink:href="#m7d3bd91e6c" x="309.452403" y="67.719585" style="fill: #1f77b4; stroke: #1f77b4"/>
     <use xlink:href="#m7d3bd91e6c" x="311.152758" y="72.757411" style="fill: #1f77b4; stroke: #1f77b4"/>
     <use xlink:href="#m7d3bd91e6c" x="312.853114" y="77.798302" style="fill: #1f77b4; stroke: #1f77b4"/>
     <use xlink:href="#m7d3bd91e6c" x="314.553469" y="82.835171" style="fill: #1f77b4; stroke: #1f77b4"/>
     <use xlink:href="#m7d3bd91e6c" x="316.253825" y="87.875347" style="fill: #1f77b4; stroke: #1f77b4"/>
     <use xlink:href="#m7d3bd91e6c" x="317.95418" y="92.913951" style="fill: #1f77b4; stroke: #1f77b4"/>
     <use xlink:href="#m7d3bd91e6c" x="319.654536" y="97.952556" style="fill: #1f77b4; stroke: #1f77b4"/>
     <use xlink:href="#m7d3bd91e6c" x="321.354891" y="102.991007" style="fill: #1f77b4; stroke: #1f77b4"/>
     <use xlink:href="#m7d3bd91e6c" x="323.055247" y="108.029564" style="fill: #1f77b4; stroke: #1f77b4"/>
     <use xlink:href="#m7d3bd91e6c" x="324.755602" y="113.068358" style="fill: #1f77b4; stroke: #1f77b4"/>
     <use xlink:href="#m7d3bd91e6c" x="326.455958" y="118.106776" style="fill: #1f77b4; stroke: #1f77b4"/>
     <use xlink:href="#m7d3bd91e6c" x="328.156313" y="123.145311" style="fill: #1f77b4; stroke: #1f77b4"/>
     <use xlink:href="#m7d3bd91e6c" x="329.856668" y="128.184173" style="fill: #1f77b4; stroke: #1f77b4"/>
     <use xlink:href="#m7d3bd91e6c" x="331.557025" y="133.222187" style="fill: #1f77b4; stroke: #1f77b4"/>
     <use xlink:href="#m7d3bd91e6c" x="333.25738" y="138.261148" style="fill: #1f77b4; stroke: #1f77b4"/>
     <use xlink:href="#m7d3bd91e6c" x="334.957735" y="143.300607" style="fill: #1f77b4; stroke: #1f77b4"/>
     <use xlink:href="#m7d3bd91e6c" x="336.658091" y="148.339018" style="fill: #1f77b4; stroke: #1f77b4"/>
     <use xlink:href="#m7d3bd91e6c" x="338.358446" y="153.376923" style="fill: #1f77b4; stroke: #1f77b4"/>
     <use xlink:href="#m7d3bd91e6c" x="340.058802" y="158.415831" style="fill: #1f77b4; stroke: #1f77b4"/>
     <use xlink:href="#m7d3bd91e6c" x="341.759157" y="163.45323" style="fill: #1f77b4; stroke: #1f77b4"/>
     <use xlink:href="#m7d3bd91e6c" x="343.459513" y="168.492873" style="fill: #1f77b4; stroke: #1f77b4"/>
     <use xlink:href="#m7d3bd91e6c" x="345.159868" y="173.532442" style="fill: #1f77b4; stroke: #1f77b4"/>
     <use xlink:href="#m7d3bd91e6c" x="346.860224" y="178.571834" style="fill: #1f77b4; stroke: #1f77b4"/>
     <use xlink:href="#m7d3bd91e6c" x="348.560579" y="183.609114" style="fill: #1f77b4; stroke: #1f77b4"/>
     <use xlink:href="#m7d3bd91e6c" x="350.260935" y="188.647287" style="fill: #1f77b4; stroke: #1f77b4"/>
     <use xlink:href="#m7d3bd91e6c" x="351.96129" y="193.685815" style="fill: #1f77b4; stroke: #1f77b4"/>
     <use xlink:href="#m7d3bd91e6c" x="353.661646" y="198.725101" style="fill: #1f77b4; stroke: #1f77b4"/>
     <use xlink:href="#m7d3bd91e6c" x="355.362001" y="203.765443" style="fill: #1f77b4; stroke: #1f77b4"/>
     <use xlink:href="#m7d3bd91e6c" x="357.062357" y="208.802855" style="fill: #1f77b4; stroke: #1f77b4"/>
     <use xlink:href="#m7d3bd91e6c" x="358.762712" y="213.840789" style="fill: #1f77b4; stroke: #1f77b4"/>
     <use xlink:href="#m7d3bd91e6c" x="360.463068" y="218.88" style="fill: #1f77b4; stroke: #1f77b4"/>
    </g>
   </g>
   <g id="patch_3">
    <path d="M 40.88125 228.96 
L 40.88125 7.2 
" style="fill: none; stroke: #000000; stroke-width: 0.8; stroke-linejoin: miter; stroke-linecap: square"/>
   </g>
   <g id="patch_4">
    <path d="M 375.68125 228.96 
L 375.68125 7.2 
" style="fill: none; stroke: #000000; stroke-width: 0.8; stroke-linejoin: miter; stroke-linecap: square"/>
   </g>
   <g id="patch_5">
    <path d="M 40.88125 228.96 
L 375.68125 228.96 
" style="fill: none; stroke: #000000; stroke-width: 0.8; stroke-linejoin: miter; stroke-linecap: square"/>
   </g>
   <g id="patch_6">
    <path d="M 40.88125 7.2 
L 375.68125 7.2 
" style="fill: none; stroke: #000000; stroke-width: 0.8; stroke-linejoin: miter; stroke-linecap: square"/>
   </g>
  </g>
 </g>
 <defs>
  <clipPath id="p4910f46eb8">
   <rect x="40.88125" y="7.2" width="334.8" height="221.76"/>
  </clipPath>
 </defs>
</svg>
