<?xml version="1.0" encoding="utf-8" standalone="no"?>
<!DOCTYPE svg PUBLIC "-//W3C//DTD SVG 1.1//EN"
  "http://www.w3.org/Graphics/SVG/1.1/DTD/svg11.dtd">
<svg xmlns:xlink="http://www.w3.org/1999/xlink" width="872.39952pt" height="296.39952pt" viewBox="0 0 872.39952 296.39952" xmlns="http://www.w3.org/2000/svg" version="1.1">
 <metadata>
  <rdf:RDF xmlns:dc="http://purl.org/dc/elements/1.1/" xmlns:cc="http://creativecommons.org/ns#" xmlns:rdf="http://www.w3.org/1999/02/22-rdf-syntax-ns#">
   <cc:Work>
    <dc:type rdf:resource="http://purl.org/dc/dcmitype/StillImage"/>
    <dc:date>2024-11-13T15:30:58.299349</dc:date>
    <dc:format>image/svg+xml</dc:format>
    <dc:creator>
     <cc:Agent>
      <dc:title>Matplotlib v3.9.2, https://matplotlib.org/</dc:title>
     </cc:Agent>
    </dc:creator>
   </cc:Work>
  </rdf:RDF>
 </metadata>
 <defs>
  <style type="text/css">*{stroke-linejoin: round; stroke-linecap: butt}</style>
 </defs>
 <g id="figure_1">
  <g id="patch_1">
   <path d="M 0 296.39952 
L 872.39952 296.39952 
L 872.39952 0 
L 0 0 
z
" style="fill: #ffffff"/>
  </g>
  <g id="axes_1">
   <g id="patch_2">
    <path d="M 46.965625 257.158895 
L 431.87976 257.158895 
L 431.87976 22.318125 
L 46.965625 22.318125 
z
" style="fill: #ffffff"/>
   </g>
   <g id="matplotlib.axis_1">
    <g id="xtick_1">
     <g id="line2d_1">
      <defs>
       <path id="me246e176aa" d="M 0 0 
L 0 3.5 
" style="stroke: #000000; stroke-width: 0.8"/>
      </defs>
      <g>
       <use xlink:href="#me246e176aa" x="82.878666" y="257.158895" style="stroke: #000000; stroke-width: 0.8"/>
      </g>
     </g>
     <g id="text_1">
      <!-- 1.0 -->
      <g transform="translate(74.927104 271.757332) scale(0.1 -0.1)">
       <defs>
        <path id="DejaVuSans-31" d="M 794 531 
L 1825 531 
L 1825 4091 
L 703 3866 
L 703 4441 
L 1819 4666 
L 2450 4666 
L 2450 531 
L 3481 531 
L 3481 0 
L 794 0 
L 794 531 
z
" transform="scale(0.015625)"/>
        <path id="DejaVuSans-2e" d="M 684 794 
L 1344 794 
L 1344 0 
L 684 0 
L 684 794 
z
" transform="scale(0.015625)"/>
        <path id="DejaVuSans-30" d="M 2034 4250 
Q 1547 4250 1301 3770 
Q 1056 3291 1056 2328 
Q 1056 1369 1301 889 
Q 1547 409 2034 409 
Q 2525 409 2770 889 
Q 3016 1369 3016 2328 
Q 3016 3291 2770 3770 
Q 2525 4250 2034 4250 
z
M 2034 4750 
Q 2819 4750 3233 4129 
Q 3647 3509 3647 2328 
Q 3647 1150 3233 529 
Q 2819 -91 2034 -91 
Q 1250 -91 836 529 
Q 422 1150 422 2328 
Q 422 3509 836 4129 
Q 1250 4750 2034 4750 
z
" transform="scale(0.015625)"/>
       </defs>
       <use xlink:href="#DejaVuSans-31"/>
       <use xlink:href="#DejaVuSans-2e" x="63.623047"/>
       <use xlink:href="#DejaVuSans-30" x="95.410156"/>
      </g>
     </g>
    </g>
    <g id="xtick_2">
     <g id="line2d_2">
      <g>
       <use xlink:href="#me246e176aa" x="128.921027" y="257.158895" style="stroke: #000000; stroke-width: 0.8"/>
      </g>
     </g>
     <g id="text_2">
      <!-- 1.5 -->
      <g transform="translate(120.969464 271.757332) scale(0.1 -0.1)">
       <defs>
        <path id="DejaVuSans-35" d="M 691 4666 
L 3169 4666 
L 3169 4134 
L 1269 4134 
L 1269 2991 
Q 1406 3038 1543 3061 
Q 1681 3084 1819 3084 
Q 2600 3084 3056 2656 
Q 3513 2228 3513 1497 
Q 3513 744 3044 326 
Q 2575 -91 1722 -91 
Q 1428 -91 1123 -41 
Q 819 9 494 109 
L 494 744 
Q 775 591 1075 516 
Q 1375 441 1709 441 
Q 2250 441 2565 725 
Q 2881 1009 2881 1497 
Q 2881 1984 2565 2268 
Q 2250 2553 1709 2553 
Q 1456 2553 1204 2497 
Q 953 2441 691 2322 
L 691 4666 
z
" transform="scale(0.015625)"/>
       </defs>
       <use xlink:href="#DejaVuSans-31"/>
       <use xlink:href="#DejaVuSans-2e" x="63.623047"/>
       <use xlink:href="#DejaVuSans-35" x="95.410156"/>
      </g>
     </g>
    </g>
    <g id="xtick_3">
     <g id="line2d_3">
      <g>
       <use xlink:href="#me246e176aa" x="174.963388" y="257.158895" style="stroke: #000000; stroke-width: 0.8"/>
      </g>
     </g>
     <g id="text_3">
      <!-- 2.0 -->
      <g transform="translate(167.011825 271.757332) scale(0.1 -0.1)">
       <defs>
        <path id="DejaVuSans-32" d="M 1228 531 
L 3431 531 
L 3431 0 
L 469 0 
L 469 531 
Q 828 903 1448 1529 
Q 2069 2156 2228 2338 
Q 2531 2678 2651 2914 
Q 2772 3150 2772 3378 
Q 2772 3750 2511 3984 
Q 2250 4219 1831 4219 
Q 1534 4219 1204 4116 
Q 875 4013 500 3803 
L 500 4441 
Q 881 4594 1212 4672 
Q 1544 4750 1819 4750 
Q 2544 4750 2975 4387 
Q 3406 4025 3406 3419 
Q 3406 3131 3298 2873 
Q 3191 2616 2906 2266 
Q 2828 2175 2409 1742 
Q 1991 1309 1228 531 
z
" transform="scale(0.015625)"/>
       </defs>
       <use xlink:href="#DejaVuSans-32"/>
       <use xlink:href="#DejaVuSans-2e" x="63.623047"/>
       <use xlink:href="#DejaVuSans-30" x="95.410156"/>
      </g>
     </g>
    </g>
    <g id="xtick_4">
     <g id="line2d_4">
      <g>
       <use xlink:href="#me246e176aa" x="221.005748" y="257.158895" style="stroke: #000000; stroke-width: 0.8"/>
      </g>
     </g>
     <g id="text_4">
      <!-- 2.5 -->
      <g transform="translate(213.054186 271.757332) scale(0.1 -0.1)">
       <use xlink:href="#DejaVuSans-32"/>
       <use xlink:href="#DejaVuSans-2e" x="63.623047"/>
       <use xlink:href="#DejaVuSans-35" x="95.410156"/>
      </g>
     </g>
    </g>
    <g id="xtick_5">
     <g id="line2d_5">
      <g>
       <use xlink:href="#me246e176aa" x="267.048109" y="257.158895" style="stroke: #000000; stroke-width: 0.8"/>
      </g>
     </g>
     <g id="text_5">
      <!-- 3.0 -->
      <g transform="translate(259.096546 271.757332) scale(0.1 -0.1)">
       <defs>
        <path id="DejaVuSans-33" d="M 2597 2516 
Q 3050 2419 3304 2112 
Q 3559 1806 3559 1356 
Q 3559 666 3084 287 
Q 2609 -91 1734 -91 
Q 1441 -91 1130 -33 
Q 819 25 488 141 
L 488 750 
Q 750 597 1062 519 
Q 1375 441 1716 441 
Q 2309 441 2620 675 
Q 2931 909 2931 1356 
Q 2931 1769 2642 2001 
Q 2353 2234 1838 2234 
L 1294 2234 
L 1294 2753 
L 1863 2753 
Q 2328 2753 2575 2939 
Q 2822 3125 2822 3475 
Q 2822 3834 2567 4026 
Q 2313 4219 1838 4219 
Q 1578 4219 1281 4162 
Q 984 4106 628 3988 
L 628 4550 
Q 988 4650 1302 4700 
Q 1616 4750 1894 4750 
Q 2613 4750 3031 4423 
Q 3450 4097 3450 3541 
Q 3450 3153 3228 2886 
Q 3006 2619 2597 2516 
z
" transform="scale(0.015625)"/>
       </defs>
       <use xlink:href="#DejaVuSans-33"/>
       <use xlink:href="#DejaVuSans-2e" x="63.623047"/>
       <use xlink:href="#DejaVuSans-30" x="95.410156"/>
      </g>
     </g>
    </g>
    <g id="xtick_6">
     <g id="line2d_6">
      <g>
       <use xlink:href="#me246e176aa" x="313.09047" y="257.158895" style="stroke: #000000; stroke-width: 0.8"/>
      </g>
     </g>
     <g id="text_6">
      <!-- 3.5 -->
      <g transform="translate(305.138907 271.757332) scale(0.1 -0.1)">
       <use xlink:href="#DejaVuSans-33"/>
       <use xlink:href="#DejaVuSans-2e" x="63.623047"/>
       <use xlink:href="#DejaVuSans-35" x="95.410156"/>
      </g>
     </g>
    </g>
    <g id="xtick_7">
     <g id="line2d_7">
      <g>
       <use xlink:href="#me246e176aa" x="359.13283" y="257.158895" style="stroke: #000000; stroke-width: 0.8"/>
      </g>
     </g>
     <g id="text_7">
      <!-- 4.0 -->
      <g transform="translate(351.181268 271.757332) scale(0.1 -0.1)">
       <defs>
        <path id="DejaVuSans-34" d="M 2419 4116 
L 825 1625 
L 2419 1625 
L 2419 4116 
z
M 2253 4666 
L 3047 4666 
L 3047 1625 
L 3713 1625 
L 3713 1100 
L 3047 1100 
L 3047 0 
L 2419 0 
L 2419 1100 
L 313 1100 
L 313 1709 
L 2253 4666 
z
" transform="scale(0.015625)"/>
       </defs>
       <use xlink:href="#DejaVuSans-34"/>
       <use xlink:href="#DejaVuSans-2e" x="63.623047"/>
       <use xlink:href="#DejaVuSans-30" x="95.410156"/>
      </g>
     </g>
    </g>
    <g id="xtick_8">
     <g id="line2d_8">
      <g>
       <use xlink:href="#me246e176aa" x="405.175191" y="257.158895" style="stroke: #000000; stroke-width: 0.8"/>
      </g>
     </g>
     <g id="text_8">
      <!-- 4.5 -->
      <g transform="translate(397.223628 271.757332) scale(0.1 -0.1)">
       <use xlink:href="#DejaVuSans-34"/>
       <use xlink:href="#DejaVuSans-2e" x="63.623047"/>
       <use xlink:href="#DejaVuSans-35" x="95.410156"/>
      </g>
     </g>
    </g>
    <g id="text_9">
     <!-- wavelength [Å] -->
     <g transform="translate(201.385193 287.119832) scale(0.1 -0.1)">
      <defs>
       <path id="DejaVuSans-77" d="M 269 3500 
L 844 3500 
L 1563 769 
L 2278 3500 
L 2956 3500 
L 3675 769 
L 4391 3500 
L 4966 3500 
L 4050 0 
L 3372 0 
L 2619 2869 
L 1863 0 
L 1184 0 
L 269 3500 
z
" transform="scale(0.015625)"/>
       <path id="DejaVuSans-61" d="M 2194 1759 
Q 1497 1759 1228 1600 
Q 959 1441 959 1056 
Q 959 750 1161 570 
Q 1363 391 1709 391 
Q 2188 391 2477 730 
Q 2766 1069 2766 1631 
L 2766 1759 
L 2194 1759 
z
M 3341 1997 
L 3341 0 
L 2766 0 
L 2766 531 
Q 2569 213 2275 61 
Q 1981 -91 1556 -91 
Q 1019 -91 701 211 
Q 384 513 384 1019 
Q 384 1609 779 1909 
Q 1175 2209 1959 2209 
L 2766 2209 
L 2766 2266 
Q 2766 2663 2505 2880 
Q 2244 3097 1772 3097 
Q 1472 3097 1187 3025 
Q 903 2953 641 2809 
L 641 3341 
Q 956 3463 1253 3523 
Q 1550 3584 1831 3584 
Q 2591 3584 2966 3190 
Q 3341 2797 3341 1997 
z
" transform="scale(0.015625)"/>
       <path id="DejaVuSans-76" d="M 191 3500 
L 800 3500 
L 1894 563 
L 2988 3500 
L 3597 3500 
L 2284 0 
L 1503 0 
L 191 3500 
z
" transform="scale(0.015625)"/>
       <path id="DejaVuSans-65" d="M 3597 1894 
L 3597 1613 
L 953 1613 
Q 991 1019 1311 708 
Q 1631 397 2203 397 
Q 2534 397 2845 478 
Q 3156 559 3463 722 
L 3463 178 
Q 3153 47 2828 -22 
Q 2503 -91 2169 -91 
Q 1331 -91 842 396 
Q 353 884 353 1716 
Q 353 2575 817 3079 
Q 1281 3584 2069 3584 
Q 2775 3584 3186 3129 
Q 3597 2675 3597 1894 
z
M 3022 2063 
Q 3016 2534 2758 2815 
Q 2500 3097 2075 3097 
Q 1594 3097 1305 2825 
Q 1016 2553 972 2059 
L 3022 2063 
z
" transform="scale(0.015625)"/>
       <path id="DejaVuSans-6c" d="M 603 4863 
L 1178 4863 
L 1178 0 
L 603 0 
L 603 4863 
z
" transform="scale(0.015625)"/>
       <path id="DejaVuSans-6e" d="M 3513 2113 
L 3513 0 
L 2938 0 
L 2938 2094 
Q 2938 2591 2744 2837 
Q 2550 3084 2163 3084 
Q 1697 3084 1428 2787 
Q 1159 2491 1159 1978 
L 1159 0 
L 581 0 
L 581 3500 
L 1159 3500 
L 1159 2956 
Q 1366 3272 1645 3428 
Q 1925 3584 2291 3584 
Q 2894 3584 3203 3211 
Q 3513 2838 3513 2113 
z
" transform="scale(0.015625)"/>
       <path id="DejaVuSans-67" d="M 2906 1791 
Q 2906 2416 2648 2759 
Q 2391 3103 1925 3103 
Q 1463 3103 1205 2759 
Q 947 2416 947 1791 
Q 947 1169 1205 825 
Q 1463 481 1925 481 
Q 2391 481 2648 825 
Q 2906 1169 2906 1791 
z
M 3481 434 
Q 3481 -459 3084 -895 
Q 2688 -1331 1869 -1331 
Q 1566 -1331 1297 -1286 
Q 1028 -1241 775 -1147 
L 775 -588 
Q 1028 -725 1275 -790 
Q 1522 -856 1778 -856 
Q 2344 -856 2625 -561 
Q 2906 -266 2906 331 
L 2906 616 
Q 2728 306 2450 153 
Q 2172 0 1784 0 
Q 1141 0 747 490 
Q 353 981 353 1791 
Q 353 2603 747 3093 
Q 1141 3584 1784 3584 
Q 2172 3584 2450 3431 
Q 2728 3278 2906 2969 
L 2906 3500 
L 3481 3500 
L 3481 434 
z
" transform="scale(0.015625)"/>
       <path id="DejaVuSans-74" d="M 1172 4494 
L 1172 3500 
L 2356 3500 
L 2356 3053 
L 1172 3053 
L 1172 1153 
Q 1172 725 1289 603 
Q 1406 481 1766 481 
L 2356 481 
L 2356 0 
L 1766 0 
Q 1100 0 847 248 
Q 594 497 594 1153 
L 594 3053 
L 172 3053 
L 172 3500 
L 594 3500 
L 594 4494 
L 1172 4494 
z
" transform="scale(0.015625)"/>
       <path id="DejaVuSans-68" d="M 3513 2113 
L 3513 0 
L 2938 0 
L 2938 2094 
Q 2938 2591 2744 2837 
Q 2550 3084 2163 3084 
Q 1697 3084 1428 2787 
Q 1159 2491 1159 1978 
L 1159 0 
L 581 0 
L 581 4863 
L 1159 4863 
L 1159 2956 
Q 1366 3272 1645 3428 
Q 1925 3584 2291 3584 
Q 2894 3584 3203 3211 
Q 3513 2838 3513 2113 
z
" transform="scale(0.015625)"/>
       <path id="DejaVuSans-20" transform="scale(0.015625)"/>
       <path id="DejaVuSans-5b" d="M 550 4863 
L 1875 4863 
L 1875 4416 
L 1125 4416 
L 1125 -397 
L 1875 -397 
L 1875 -844 
L 550 -844 
L 550 4863 
z
" transform="scale(0.015625)"/>
       <path id="DejaVuSans-c5" d="M 2663 5081 
Q 2663 5278 2523 5417 
Q 2384 5556 2188 5556 
Q 1988 5556 1852 5420 
Q 1716 5284 1716 5081 
Q 1716 4884 1853 4746 
Q 1991 4609 2188 4609 
Q 2384 4609 2523 4746 
Q 2663 4884 2663 5081 
z
M 2188 4044 
L 1338 1722 
L 3041 1722 
L 2188 4044 
z
M 1716 4366 
Q 1525 4494 1428 4673 
Q 1331 4853 1331 5081 
Q 1331 5441 1579 5691 
Q 1828 5941 2188 5941 
Q 2544 5941 2795 5689 
Q 3047 5438 3047 5081 
Q 3047 4863 2948 4678 
Q 2850 4494 2663 4366 
L 4325 0 
L 3669 0 
L 3244 1197 
L 1141 1197 
L 716 0 
L 50 0 
L 1716 4366 
z
" transform="scale(0.015625)"/>
       <path id="DejaVuSans-5d" d="M 1947 4863 
L 1947 -844 
L 622 -844 
L 622 -397 
L 1369 -397 
L 1369 4416 
L 622 4416 
L 622 4863 
L 1947 4863 
z
" transform="scale(0.015625)"/>
      </defs>
      <use xlink:href="#DejaVuSans-77"/>
      <use xlink:href="#DejaVuSans-61" x="81.787109"/>
      <use xlink:href="#DejaVuSans-76" x="143.066406"/>
      <use xlink:href="#DejaVuSans-65" x="202.246094"/>
      <use xlink:href="#DejaVuSans-6c" x="263.769531"/>
      <use xlink:href="#DejaVuSans-65" x="291.552734"/>
      <use xlink:href="#DejaVuSans-6e" x="353.076172"/>
      <use xlink:href="#DejaVuSans-67" x="416.455078"/>
      <use xlink:href="#DejaVuSans-74" x="479.931641"/>
      <use xlink:href="#DejaVuSans-68" x="519.140625"/>
      <use xlink:href="#DejaVuSans-20" x="582.519531"/>
      <use xlink:href="#DejaVuSans-5b" x="614.306641"/>
      <use xlink:href="#DejaVuSans-c5" x="653.320312"/>
      <use xlink:href="#DejaVuSans-5d" x="721.728516"/>
     </g>
    </g>
   </g>
   <g id="matplotlib.axis_2">
    <g id="ytick_1">
     <g id="line2d_9">
      <defs>
       <path id="m627f55c8f0" d="M 0 0 
L -3.5 0 
" style="stroke: #000000; stroke-width: 0.8"/>
      </defs>
      <g>
       <use xlink:href="#m627f55c8f0" x="46.965625" y="246.484315" style="stroke: #000000; stroke-width: 0.8"/>
      </g>
     </g>
     <g id="text_10">
      <!-- 0 -->
      <g transform="translate(33.603125 250.283533) scale(0.1 -0.1)">
       <use xlink:href="#DejaVuSans-30"/>
      </g>
     </g>
    </g>
    <g id="ytick_2">
     <g id="line2d_10">
      <g>
       <use xlink:href="#m627f55c8f0" x="46.965625" y="220.094746" style="stroke: #000000; stroke-width: 0.8"/>
      </g>
     </g>
     <g id="text_11">
      <!-- 100 -->
      <g transform="translate(20.878125 223.893965) scale(0.1 -0.1)">
       <use xlink:href="#DejaVuSans-31"/>
       <use xlink:href="#DejaVuSans-30" x="63.623047"/>
       <use xlink:href="#DejaVuSans-30" x="127.246094"/>
      </g>
     </g>
    </g>
    <g id="ytick_3">
     <g id="line2d_11">
      <g>
       <use xlink:href="#m627f55c8f0" x="46.965625" y="193.705178" style="stroke: #000000; stroke-width: 0.8"/>
      </g>
     </g>
     <g id="text_12">
      <!-- 200 -->
      <g transform="translate(20.878125 197.504396) scale(0.1 -0.1)">
       <use xlink:href="#DejaVuSans-32"/>
       <use xlink:href="#DejaVuSans-30" x="63.623047"/>
       <use xlink:href="#DejaVuSans-30" x="127.246094"/>
      </g>
     </g>
    </g>
    <g id="ytick_4">
     <g id="line2d_12">
      <g>
       <use xlink:href="#m627f55c8f0" x="46.965625" y="167.315609" style="stroke: #000000; stroke-width: 0.8"/>
      </g>
     </g>
     <g id="text_13">
      <!-- 300 -->
      <g transform="translate(20.878125 171.114828) scale(0.1 -0.1)">
       <use xlink:href="#DejaVuSans-33"/>
       <use xlink:href="#DejaVuSans-30" x="63.623047"/>
       <use xlink:href="#DejaVuSans-30" x="127.246094"/>
      </g>
     </g>
    </g>
    <g id="ytick_5">
     <g id="line2d_13">
      <g>
       <use xlink:href="#m627f55c8f0" x="46.965625" y="140.926041" style="stroke: #000000; stroke-width: 0.8"/>
      </g>
     </g>
     <g id="text_14">
      <!-- 400 -->
      <g transform="translate(20.878125 144.725259) scale(0.1 -0.1)">
       <use xlink:href="#DejaVuSans-34"/>
       <use xlink:href="#DejaVuSans-30" x="63.623047"/>
       <use xlink:href="#DejaVuSans-30" x="127.246094"/>
      </g>
     </g>
    </g>
    <g id="ytick_6">
     <g id="line2d_14">
      <g>
       <use xlink:href="#m627f55c8f0" x="46.965625" y="114.536472" style="stroke: #000000; stroke-width: 0.8"/>
      </g>
     </g>
     <g id="text_15">
      <!-- 500 -->
      <g transform="translate(20.878125 118.335691) scale(0.1 -0.1)">
       <use xlink:href="#DejaVuSans-35"/>
       <use xlink:href="#DejaVuSans-30" x="63.623047"/>
       <use xlink:href="#DejaVuSans-30" x="127.246094"/>
      </g>
     </g>
    </g>
    <g id="ytick_7">
     <g id="line2d_15">
      <g>
       <use xlink:href="#m627f55c8f0" x="46.965625" y="88.146904" style="stroke: #000000; stroke-width: 0.8"/>
      </g>
     </g>
     <g id="text_16">
      <!-- 600 -->
      <g transform="translate(20.878125 91.946122) scale(0.1 -0.1)">
       <defs>
        <path id="DejaVuSans-36" d="M 2113 2584 
Q 1688 2584 1439 2293 
Q 1191 2003 1191 1497 
Q 1191 994 1439 701 
Q 1688 409 2113 409 
Q 2538 409 2786 701 
Q 3034 994 3034 1497 
Q 3034 2003 2786 2293 
Q 2538 2584 2113 2584 
z
M 3366 4563 
L 3366 3988 
Q 3128 4100 2886 4159 
Q 2644 4219 2406 4219 
Q 1781 4219 1451 3797 
Q 1122 3375 1075 2522 
Q 1259 2794 1537 2939 
Q 1816 3084 2150 3084 
Q 2853 3084 3261 2657 
Q 3669 2231 3669 1497 
Q 3669 778 3244 343 
Q 2819 -91 2113 -91 
Q 1303 -91 875 529 
Q 447 1150 447 2328 
Q 447 3434 972 4092 
Q 1497 4750 2381 4750 
Q 2619 4750 2861 4703 
Q 3103 4656 3366 4563 
z
" transform="scale(0.015625)"/>
       </defs>
       <use xlink:href="#DejaVuSans-36"/>
       <use xlink:href="#DejaVuSans-30" x="63.623047"/>
       <use xlink:href="#DejaVuSans-30" x="127.246094"/>
      </g>
     </g>
    </g>
    <g id="ytick_8">
     <g id="line2d_16">
      <g>
       <use xlink:href="#m627f55c8f0" x="46.965625" y="61.757335" style="stroke: #000000; stroke-width: 0.8"/>
      </g>
     </g>
     <g id="text_17">
      <!-- 700 -->
      <g transform="translate(20.878125 65.556554) scale(0.1 -0.1)">
       <defs>
        <path id="DejaVuSans-37" d="M 525 4666 
L 3525 4666 
L 3525 4397 
L 1831 0 
L 1172 0 
L 2766 4134 
L 525 4134 
L 525 4666 
z
" transform="scale(0.015625)"/>
       </defs>
       <use xlink:href="#DejaVuSans-37"/>
       <use xlink:href="#DejaVuSans-30" x="63.623047"/>
       <use xlink:href="#DejaVuSans-30" x="127.246094"/>
      </g>
     </g>
    </g>
    <g id="ytick_9">
     <g id="line2d_17">
      <g>
       <use xlink:href="#m627f55c8f0" x="46.965625" y="35.367767" style="stroke: #000000; stroke-width: 0.8"/>
      </g>
     </g>
     <g id="text_18">
      <!-- 800 -->
      <g transform="translate(20.878125 39.166985) scale(0.1 -0.1)">
       <defs>
        <path id="DejaVuSans-38" d="M 2034 2216 
Q 1584 2216 1326 1975 
Q 1069 1734 1069 1313 
Q 1069 891 1326 650 
Q 1584 409 2034 409 
Q 2484 409 2743 651 
Q 3003 894 3003 1313 
Q 3003 1734 2745 1975 
Q 2488 2216 2034 2216 
z
M 1403 2484 
Q 997 2584 770 2862 
Q 544 3141 544 3541 
Q 544 4100 942 4425 
Q 1341 4750 2034 4750 
Q 2731 4750 3128 4425 
Q 3525 4100 3525 3541 
Q 3525 3141 3298 2862 
Q 3072 2584 2669 2484 
Q 3125 2378 3379 2068 
Q 3634 1759 3634 1313 
Q 3634 634 3220 271 
Q 2806 -91 2034 -91 
Q 1263 -91 848 271 
Q 434 634 434 1313 
Q 434 1759 690 2068 
Q 947 2378 1403 2484 
z
M 1172 3481 
Q 1172 3119 1398 2916 
Q 1625 2713 2034 2713 
Q 2441 2713 2670 2916 
Q 2900 3119 2900 3481 
Q 2900 3844 2670 4047 
Q 2441 4250 2034 4250 
Q 1625 4250 1398 4047 
Q 1172 3844 1172 3481 
z
" transform="scale(0.015625)"/>
       </defs>
       <use xlink:href="#DejaVuSans-38"/>
       <use xlink:href="#DejaVuSans-30" x="63.623047"/>
       <use xlink:href="#DejaVuSans-30" x="127.246094"/>
      </g>
     </g>
    </g>
    <g id="text_19">
     <!-- [counts] -->
     <g transform="translate(14.798437 160.35101) rotate(-90) scale(0.1 -0.1)">
      <defs>
       <path id="DejaVuSans-63" d="M 3122 3366 
L 3122 2828 
Q 2878 2963 2633 3030 
Q 2388 3097 2138 3097 
Q 1578 3097 1268 2742 
Q 959 2388 959 1747 
Q 959 1106 1268 751 
Q 1578 397 2138 397 
Q 2388 397 2633 464 
Q 2878 531 3122 666 
L 3122 134 
Q 2881 22 2623 -34 
Q 2366 -91 2075 -91 
Q 1284 -91 818 406 
Q 353 903 353 1747 
Q 353 2603 823 3093 
Q 1294 3584 2113 3584 
Q 2378 3584 2631 3529 
Q 2884 3475 3122 3366 
z
" transform="scale(0.015625)"/>
       <path id="DejaVuSans-6f" d="M 1959 3097 
Q 1497 3097 1228 2736 
Q 959 2375 959 1747 
Q 959 1119 1226 758 
Q 1494 397 1959 397 
Q 2419 397 2687 759 
Q 2956 1122 2956 1747 
Q 2956 2369 2687 2733 
Q 2419 3097 1959 3097 
z
M 1959 3584 
Q 2709 3584 3137 3096 
Q 3566 2609 3566 1747 
Q 3566 888 3137 398 
Q 2709 -91 1959 -91 
Q 1206 -91 779 398 
Q 353 888 353 1747 
Q 353 2609 779 3096 
Q 1206 3584 1959 3584 
z
" transform="scale(0.015625)"/>
       <path id="DejaVuSans-75" d="M 544 1381 
L 544 3500 
L 1119 3500 
L 1119 1403 
Q 1119 906 1312 657 
Q 1506 409 1894 409 
Q 2359 409 2629 706 
Q 2900 1003 2900 1516 
L 2900 3500 
L 3475 3500 
L 3475 0 
L 2900 0 
L 2900 538 
Q 2691 219 2414 64 
Q 2138 -91 1772 -91 
Q 1169 -91 856 284 
Q 544 659 544 1381 
z
M 1991 3584 
L 1991 3584 
z
" transform="scale(0.015625)"/>
       <path id="DejaVuSans-73" d="M 2834 3397 
L 2834 2853 
Q 2591 2978 2328 3040 
Q 2066 3103 1784 3103 
Q 1356 3103 1142 2972 
Q 928 2841 928 2578 
Q 928 2378 1081 2264 
Q 1234 2150 1697 2047 
L 1894 2003 
Q 2506 1872 2764 1633 
Q 3022 1394 3022 966 
Q 3022 478 2636 193 
Q 2250 -91 1575 -91 
Q 1294 -91 989 -36 
Q 684 19 347 128 
L 347 722 
Q 666 556 975 473 
Q 1284 391 1588 391 
Q 1994 391 2212 530 
Q 2431 669 2431 922 
Q 2431 1156 2273 1281 
Q 2116 1406 1581 1522 
L 1381 1569 
Q 847 1681 609 1914 
Q 372 2147 372 2553 
Q 372 3047 722 3315 
Q 1072 3584 1716 3584 
Q 2034 3584 2315 3537 
Q 2597 3491 2834 3397 
z
" transform="scale(0.015625)"/>
      </defs>
      <use xlink:href="#DejaVuSans-5b"/>
      <use xlink:href="#DejaVuSans-63" x="39.013672"/>
      <use xlink:href="#DejaVuSans-6f" x="93.994141"/>
      <use xlink:href="#DejaVuSans-75" x="155.175781"/>
      <use xlink:href="#DejaVuSans-6e" x="218.554688"/>
      <use xlink:href="#DejaVuSans-74" x="281.933594"/>
      <use xlink:href="#DejaVuSans-73" x="321.142578"/>
      <use xlink:href="#DejaVuSans-5d" x="373.242188"/>
     </g>
    </g>
   </g>
   <g id="patch_3">
    <path d="M 46.965625 257.158895 
L 46.965625 22.318125 
" style="fill: none; stroke: #000000; stroke-width: 0.8; stroke-linejoin: miter; stroke-linecap: square"/>
   </g>
   <g id="patch_4">
    <path d="M 431.87976 257.158895 
L 431.87976 22.318125 
" style="fill: none; stroke: #000000; stroke-width: 0.8; stroke-linejoin: miter; stroke-linecap: square"/>
   </g>
   <g id="patch_5">
    <path d="M 46.965625 257.158895 
L 431.87976 257.158895 
" style="fill: none; stroke: #000000; stroke-width: 0.8; stroke-linejoin: miter; stroke-linecap: square"/>
   </g>
   <g id="patch_6">
    <path d="M 46.965625 22.318125 
L 431.87976 22.318125 
" style="fill: none; stroke: #000000; stroke-width: 0.8; stroke-linejoin: miter; stroke-linecap: square"/>
   </g>
   <g id="text_20">
    <!-- Pixel 1 -->
    <g transform="translate(219.82613 16.318125) scale(0.12 -0.12)">
     <defs>
      <path id="DejaVuSans-50" d="M 1259 4147 
L 1259 2394 
L 2053 2394 
Q 2494 2394 2734 2622 
Q 2975 2850 2975 3272 
Q 2975 3691 2734 3919 
Q 2494 4147 2053 4147 
L 1259 4147 
z
M 628 4666 
L 2053 4666 
Q 2838 4666 3239 4311 
Q 3641 3956 3641 3272 
Q 3641 2581 3239 2228 
Q 2838 1875 2053 1875 
L 1259 1875 
L 1259 0 
L 628 0 
L 628 4666 
z
" transform="scale(0.015625)"/>
      <path id="DejaVuSans-69" d="M 603 3500 
L 1178 3500 
L 1178 0 
L 603 0 
L 603 3500 
z
M 603 4863 
L 1178 4863 
L 1178 4134 
L 603 4134 
L 603 4863 
z
" transform="scale(0.015625)"/>
      <path id="DejaVuSans-78" d="M 3513 3500 
L 2247 1797 
L 3578 0 
L 2900 0 
L 1881 1375 
L 863 0 
L 184 0 
L 1544 1831 
L 300 3500 
L 978 3500 
L 1906 2253 
L 2834 3500 
L 3513 3500 
z
" transform="scale(0.015625)"/>
     </defs>
     <use xlink:href="#DejaVuSans-50"/>
     <use xlink:href="#DejaVuSans-69" x="58.052734"/>
     <use xlink:href="#DejaVuSans-78" x="85.835938"/>
     <use xlink:href="#DejaVuSans-65" x="141.890625"/>
     <use xlink:href="#DejaVuSans-6c" x="203.414062"/>
     <use xlink:href="#DejaVuSans-20" x="231.197266"/>
     <use xlink:href="#DejaVuSans-31" x="262.984375"/>
    </g>
   </g>
   <g id="legend_1">
    <g id="patch_7">
     <path d="M 327.876635 59.9525 
L 424.87976 59.9525 
Q 426.87976 59.9525 426.87976 57.9525 
L 426.87976 29.318125 
Q 426.87976 27.318125 424.87976 27.318125 
L 327.876635 27.318125 
Q 325.876635 27.318125 325.876635 29.318125 
L 325.876635 57.9525 
Q 325.876635 59.9525 327.876635 59.9525 
z
" style="fill: #ffffff; opacity: 0.8; stroke: #cccccc; stroke-linejoin: miter"/>
    </g>
    <g id="line2d_18">
     <path d="M 329.876635 35.416562 
L 329.876635 35.416562 
L 339.876635 35.416562 
L 339.876635 35.416562 
L 349.876635 35.416562 
" style="fill: none; stroke: #1f77b4; stroke-width: 1.5; stroke-linecap: square"/>
    </g>
    <g id="text_21">
     <!-- wfm -->
     <g transform="translate(357.876635 38.916562) scale(0.1 -0.1)">
      <defs>
       <path id="DejaVuSans-66" d="M 2375 4863 
L 2375 4384 
L 1825 4384 
Q 1516 4384 1395 4259 
Q 1275 4134 1275 3809 
L 1275 3500 
L 2222 3500 
L 2222 3053 
L 1275 3053 
L 1275 0 
L 697 0 
L 697 3053 
L 147 3053 
L 147 3500 
L 697 3500 
L 697 3744 
Q 697 4328 969 4595 
Q 1241 4863 1831 4863 
L 2375 4863 
z
" transform="scale(0.015625)"/>
       <path id="DejaVuSans-6d" d="M 3328 2828 
Q 3544 3216 3844 3400 
Q 4144 3584 4550 3584 
Q 5097 3584 5394 3201 
Q 5691 2819 5691 2113 
L 5691 0 
L 5113 0 
L 5113 2094 
Q 5113 2597 4934 2840 
Q 4756 3084 4391 3084 
Q 3944 3084 3684 2787 
Q 3425 2491 3425 1978 
L 3425 0 
L 2847 0 
L 2847 2094 
Q 2847 2600 2669 2842 
Q 2491 3084 2119 3084 
Q 1678 3084 1418 2786 
Q 1159 2488 1159 1978 
L 1159 0 
L 581 0 
L 581 3500 
L 1159 3500 
L 1159 2956 
Q 1356 3278 1631 3431 
Q 1906 3584 2284 3584 
Q 2666 3584 2933 3390 
Q 3200 3197 3328 2828 
z
" transform="scale(0.015625)"/>
      </defs>
      <use xlink:href="#DejaVuSans-77"/>
      <use xlink:href="#DejaVuSans-66" x="81.787109"/>
      <use xlink:href="#DejaVuSans-6d" x="116.992188"/>
     </g>
    </g>
    <g id="line2d_19">
     <path d="M 329.876635 50.094687 
L 329.876635 50.094687 
L 339.876635 50.094687 
L 339.876635 50.094687 
L 349.876635 50.094687 
" style="fill: none; stroke: #ff7f0e; stroke-width: 1.5; stroke-linecap: square"/>
    </g>
    <g id="text_22">
     <!-- ground_truth -->
     <g transform="translate(357.876635 53.594687) scale(0.1 -0.1)">
      <defs>
       <path id="DejaVuSans-72" d="M 2631 2963 
Q 2534 3019 2420 3045 
Q 2306 3072 2169 3072 
Q 1681 3072 1420 2755 
Q 1159 2438 1159 1844 
L 1159 0 
L 581 0 
L 581 3500 
L 1159 3500 
L 1159 2956 
Q 1341 3275 1631 3429 
Q 1922 3584 2338 3584 
Q 2397 3584 2469 3576 
Q 2541 3569 2628 3553 
L 2631 2963 
z
" transform="scale(0.015625)"/>
       <path id="DejaVuSans-64" d="M 2906 2969 
L 2906 4863 
L 3481 4863 
L 3481 0 
L 2906 0 
L 2906 525 
Q 2725 213 2448 61 
Q 2172 -91 1784 -91 
Q 1150 -91 751 415 
Q 353 922 353 1747 
Q 353 2572 751 3078 
Q 1150 3584 1784 3584 
Q 2172 3584 2448 3432 
Q 2725 3281 2906 2969 
z
M 947 1747 
Q 947 1113 1208 752 
Q 1469 391 1925 391 
Q 2381 391 2643 752 
Q 2906 1113 2906 1747 
Q 2906 2381 2643 2742 
Q 2381 3103 1925 3103 
Q 1469 3103 1208 2742 
Q 947 2381 947 1747 
z
" transform="scale(0.015625)"/>
       <path id="DejaVuSans-5f" d="M 3263 -1063 
L 3263 -1509 
L -63 -1509 
L -63 -1063 
L 3263 -1063 
z
" transform="scale(0.015625)"/>
      </defs>
      <use xlink:href="#DejaVuSans-67"/>
      <use xlink:href="#DejaVuSans-72" x="63.476562"/>
      <use xlink:href="#DejaVuSans-6f" x="102.339844"/>
      <use xlink:href="#DejaVuSans-75" x="163.521484"/>
      <use xlink:href="#DejaVuSans-6e" x="226.900391"/>
      <use xlink:href="#DejaVuSans-64" x="290.279297"/>
      <use xlink:href="#DejaVuSans-5f" x="353.755859"/>
      <use xlink:href="#DejaVuSans-74" x="403.755859"/>
      <use xlink:href="#DejaVuSans-72" x="442.964844"/>
      <use xlink:href="#DejaVuSans-75" x="484.078125"/>
      <use xlink:href="#DejaVuSans-74" x="547.457031"/>
      <use xlink:href="#DejaVuSans-68" x="586.666016"/>
     </g>
    </g>
   </g>
   <g id="line2d_20">
    <path d="M 64.461722 246.484315 
L 74.95938 246.484315 
L 74.95938 243.845358 
L 76.70899 243.845358 
L 76.70899 233.28953 
L 78.4586 233.28953 
L 78.4586 230.386678 
L 80.208209 230.386678 
L 80.208209 218.775268 
L 81.957819 218.775268 
L 81.957819 208.21944 
L 83.707429 208.21944 
L 83.707429 197.399717 
L 85.457039 197.399717 
L 85.457039 190.274534 
L 87.206648 190.274534 
L 87.206648 183.413246 
L 88.956258 183.413246 
L 88.956258 177.343645 
L 90.705868 177.343645 
L 90.705868 160.982113 
L 92.455477 160.982113 
L 92.455477 154.912512 
L 94.205087 154.912512 
L 94.205087 157.815364 
L 95.954697 157.815364 
L 95.954697 132.481379 
L 97.704306 132.481379 
L 97.704306 141.717728 
L 99.453916 141.717728 
L 99.453916 127.995152 
L 101.203526 127.995152 
L 101.203526 111.369724 
L 102.953136 111.369724 
L 102.953136 108.466871 
L 104.702745 108.466871 
L 104.702745 87.355217 
L 106.452355 87.355217 
L 106.452355 103.980645 
L 108.201965 103.980645 
L 108.201965 88.410799 
L 109.951574 88.410799 
L 109.951574 84.980155 
L 111.701184 84.980155 
L 111.701184 65.451875 
L 113.450794 65.451875 
L 113.450794 70.729788 
L 115.200403 70.729788 
L 115.200403 69.674206 
L 116.950013 69.674206 
L 116.950013 65.451875 
L 118.699623 65.451875 
L 118.699623 52.25709 
L 120.449233 52.25709 
L 120.449233 53.576569 
L 122.198842 53.576569 
L 122.198842 44.34022 
L 123.948452 44.34022 
L 123.948452 51.729299 
L 125.698062 51.729299 
L 125.698062 43.812429 
L 127.447671 43.812429 
L 127.447671 37.478932 
L 129.197281 37.478932 
L 129.197281 39.590098 
L 130.946891 39.590098 
L 130.946891 50.937612 
L 132.696501 50.937612 
L 132.696501 41.437367 
L 134.44611 41.437367 
L 134.44611 45.395803 
L 136.19572 45.395803 
L 136.19572 55.687734 
L 137.94533 55.687734 
L 137.94533 52.784882 
L 139.694939 52.784882 
L 139.694939 63.076814 
L 141.444549 63.076814 
L 141.444549 50.145925 
L 143.194159 50.145925 
L 143.194159 57.535004 
L 144.943768 57.535004 
L 144.943768 80.757824 
L 146.693378 80.757824 
L 146.693378 81.549511 
L 148.442988 81.549511 
L 148.442988 76.799389 
L 150.192598 76.799389 
L 150.192598 67.035249 
L 151.942207 67.035249 
L 151.942207 66.507457 
L 153.691817 66.507457 
L 153.691817 84.980155 
L 155.441427 84.980155 
L 155.441427 78.118868 
L 157.191036 78.118868 
L 157.191036 76.535493 
L 158.940646 76.535493 
L 158.940646 81.285616 
L 160.690256 81.285616 
L 160.690256 80.493929 
L 162.439866 80.493929 
L 162.439866 82.341199 
L 164.189475 82.341199 
L 164.189475 83.660677 
L 165.939085 83.660677 
L 165.939085 91.049756 
L 167.688695 91.049756 
L 167.688695 76.799389 
L 169.438304 76.799389 
L 169.438304 100.286105 
L 171.187914 100.286105 
L 171.187914 81.549511 
L 172.937524 81.549511 
L 172.937524 93.424817 
L 174.687133 93.424817 
L 174.687133 92.63313 
L 176.436743 92.63313 
L 176.436743 83.396781 
L 178.186353 83.396781 
L 178.186353 89.730278 
L 179.935963 89.730278 
L 179.935963 76.535493 
L 181.685572 76.535493 
L 181.685572 89.202486 
L 183.435182 89.202486 
L 183.435182 93.160922 
L 185.184792 93.160922 
L 185.184792 95.008191 
L 186.934401 95.008191 
L 186.934401 97.383253 
L 188.684011 97.383253 
L 188.684011 91.841443 
L 190.433621 91.841443 
L 190.433621 101.341688 
L 192.18323 101.341688 
L 192.18323 98.17494 
L 193.93284 98.17494 
L 193.93284 105.300123 
L 195.68245 105.300123 
L 195.68245 100.813896 
L 197.43206 100.813896 
L 197.43206 107.93908 
L 199.181669 107.93908 
L 199.181669 112.953098 
L 200.931279 112.953098 
L 200.931279 131.1619 
L 202.680889 131.1619 
L 202.680889 121.133864 
L 204.430498 121.133864 
L 204.430498 132.217483 
L 206.180108 132.217483 
L 206.180108 133.536961 
L 207.929718 133.536961 
L 207.929718 145.940059 
L 209.679328 145.940059 
L 209.679328 150.954077 
L 211.428937 150.954077 
L 211.428937 164.148861 
L 213.178547 164.148861 
L 213.178547 161.509904 
L 214.928157 161.509904 
L 214.928157 169.954566 
L 216.677766 169.954566 
L 216.677766 184.204933 
L 218.427376 184.204933 
L 218.427376 187.107785 
L 220.176986 187.107785 
L 220.176986 195.288552 
L 221.926595 195.288552 
L 221.926595 204.261005 
L 223.676205 204.261005 
L 223.676205 213.76125 
L 225.425815 213.76125 
L 225.425815 218.247476 
L 227.175425 218.247476 
L 227.175425 223.789286 
L 228.925034 223.789286 
L 228.925034 225.636555 
L 230.674644 225.636555 
L 230.674644 232.497843 
L 232.424254 232.497843 
L 232.424254 236.456279 
L 234.173863 236.456279 
L 234.173863 238.83134 
L 235.923473 238.83134 
L 235.923473 244.109253 
L 237.673083 244.109253 
L 237.673083 243.581462 
L 239.422693 243.581462 
L 239.422693 235.400696 
L 241.172302 235.400696 
L 241.172302 233.025635 
L 242.921912 233.025635 
L 242.921912 222.997599 
L 244.671522 222.997599 
L 244.671522 218.247476 
L 246.421131 218.247476 
L 246.421131 207.955545 
L 248.170741 207.955545 
L 248.170741 203.997109 
L 249.920351 203.997109 
L 249.920351 197.135821 
L 251.66996 197.135821 
L 251.66996 194.232969 
L 253.41957 194.232969 
L 253.41957 187.635577 
L 255.16918 187.635577 
L 255.16918 179.454811 
L 256.91879 179.454811 
L 256.91879 171.010149 
L 258.668399 171.010149 
L 258.668399 165.996131 
L 260.418009 165.996131 
L 260.418009 164.148861 
L 262.167619 164.148861 
L 262.167619 157.815364 
L 263.917228 157.815364 
L 263.917228 157.023677 
L 265.666838 157.023677 
L 265.666838 150.954077 
L 267.416448 150.954077 
L 267.416448 149.370702 
L 269.166057 149.370702 
L 269.166057 143.301102 
L 270.915667 143.301102 
L 270.915667 138.023188 
L 272.665277 138.023188 
L 272.665277 130.634109 
L 274.414887 130.634109 
L 274.414887 128.786839 
L 276.164496 128.786839 
L 276.164496 126.411778 
L 277.914106 126.411778 
L 277.914106 121.925551 
L 279.663716 121.925551 
L 279.663716 119.286594 
L 281.413325 119.286594 
L 281.413325 112.953098 
L 283.162935 112.953098 
L 283.162935 115.855951 
L 284.912545 115.855951 
L 284.912545 115.592055 
L 286.662155 115.592055 
L 286.662155 120.869969 
L 288.411764 120.869969 
L 288.411764 104.508436 
L 290.161374 104.508436 
L 290.161374 101.605584 
L 291.910984 101.605584 
L 291.910984 102.397271 
L 293.660593 102.397271 
L 293.660593 113.480889 
L 295.410203 113.480889 
L 295.410203 103.188958 
L 297.159813 103.188958 
L 297.159813 117.175429 
L 298.909422 117.175429 
L 298.909422 97.119357 
L 300.659032 97.119357 
L 300.659032 108.466871 
L 302.408642 108.466871 
L 302.408642 119.022699 
L 304.158252 119.022699 
L 304.158252 117.70322 
L 305.907861 117.70322 
L 305.907861 123.24503 
L 307.657471 123.24503 
L 307.657471 125.092299 
L 309.407081 125.092299 
L 309.407081 130.634109 
L 311.15669 130.634109 
L 311.15669 126.675674 
L 312.9063 126.675674 
L 312.9063 139.606562 
L 314.65591 139.606562 
L 314.65591 131.953587 
L 316.405519 131.953587 
L 316.405519 138.550979 
L 318.155129 138.550979 
L 318.155129 132.217483 
L 319.904739 132.217483 
L 319.904739 129.842422 
L 321.654349 129.842422 
L 321.654349 141.717728 
L 323.403958 141.717728 
L 323.403958 141.453832 
L 326.903178 141.453832 
L 326.903178 154.120825 
L 328.652787 154.120825 
L 328.652787 148.579015 
L 330.402397 148.579015 
L 330.402397 155.968095 
L 332.152007 155.968095 
L 332.152007 153.856929 
L 333.901617 153.856929 
L 333.901617 150.16239 
L 335.651226 150.16239 
L 335.651226 150.690181 
L 337.400836 150.690181 
L 337.400836 158.870947 
L 339.150446 158.870947 
L 339.150446 161.509904 
L 340.900055 161.509904 
L 340.900055 163.621069 
L 342.649665 163.621069 
L 342.649665 157.815364 
L 344.399275 157.815364 
L 344.399275 162.037695 
L 346.148884 162.037695 
L 346.148884 165.204444 
L 347.898494 165.204444 
L 347.898494 161.7738 
L 349.648104 161.7738 
L 349.648104 170.218462 
L 351.397714 170.218462 
L 351.397714 166.523922 
L 353.147323 166.523922 
L 353.147323 176.815854 
L 354.896933 176.815854 
L 354.896933 171.801836 
L 356.646543 171.801836 
L 356.646543 176.288062 
L 358.396152 176.288062 
L 358.396152 182.357663 
L 360.145762 182.357663 
L 360.145762 183.14935 
L 361.895372 183.14935 
L 361.895372 184.99662 
L 363.644982 184.99662 
L 363.644982 185.788307 
L 365.394591 185.788307 
L 365.394591 192.913491 
L 367.144201 192.913491 
L 367.144201 199.510883 
L 368.893811 199.510883 
L 368.893811 190.010638 
L 370.64342 190.010638 
L 370.64342 200.566465 
L 372.39303 200.566465 
L 372.39303 207.691649 
L 374.14264 207.691649 
L 374.14264 212.177876 
L 375.892249 212.177876 
L 375.892249 212.441771 
L 377.641859 212.441771 
L 377.641859 215.344624 
L 379.391469 215.344624 
L 379.391469 218.247476 
L 381.141079 218.247476 
L 381.141079 222.205912 
L 382.890688 222.205912 
L 382.890688 223.789286 
L 384.640298 223.789286 
L 384.640298 224.317077 
L 386.389908 224.317077 
L 386.389908 228.539408 
L 388.139517 228.539408 
L 388.139517 229.331095 
L 389.889127 229.331095 
L 389.889127 236.456279 
L 391.638737 236.456279 
L 391.638737 238.039653 
L 393.388347 238.039653 
L 393.388347 238.567444 
L 395.137956 238.567444 
L 395.137956 239.886922 
L 396.887566 239.886922 
L 396.887566 241.206401 
L 398.637176 241.206401 
L 398.637176 241.998088 
L 400.386785 241.998088 
L 400.386785 243.845358 
L 402.136395 243.845358 
L 402.136395 244.90094 
L 403.886005 244.90094 
L 403.886005 245.956523 
L 407.385224 245.956523 
L 407.385224 246.484315 
L 414.383663 246.484315 
L 414.383663 246.484315 
" clip-path="url(#p63501784c9)" style="fill: none; stroke: #1f77b4; stroke-width: 1.5; stroke-linecap: square"/>
   </g>
   <g id="line2d_21">
    <path d="M 64.461722 246.484315 
L 73.209771 246.484315 
L 73.209771 244.90094 
L 74.95938 244.90094 
L 74.95938 236.192383 
L 76.70899 236.192383 
L 76.70899 230.122782 
L 78.4586 230.122782 
L 78.4586 224.580973 
L 80.208209 224.580973 
L 80.208209 211.386188 
L 81.957819 211.386188 
L 81.957819 204.524901 
L 83.707429 204.524901 
L 83.707429 187.371681 
L 85.457039 187.371681 
L 85.457039 190.538429 
L 87.206648 190.538429 
L 87.206648 182.093767 
L 88.956258 182.093767 
L 88.956258 170.482357 
L 90.705868 170.482357 
L 90.705868 158.607051 
L 92.455477 158.607051 
L 92.455477 155.440303 
L 94.205087 155.440303 
L 94.205087 154.384721 
L 95.954697 154.384721 
L 95.954697 137.495397 
L 97.704306 137.495397 
L 97.704306 137.231501 
L 99.453916 137.231501 
L 99.453916 124.564508 
L 101.203526 124.564508 
L 101.203526 111.369724 
L 102.953136 111.369724 
L 102.953136 103.188958 
L 104.702745 103.188958 
L 104.702745 96.591566 
L 106.452355 96.591566 
L 106.452355 107.411289 
L 108.201965 107.411289 
L 108.201965 89.994173 
L 109.951574 89.994173 
L 109.951574 82.077303 
L 111.701184 82.077303 
L 111.701184 71.785371 
L 113.450794 71.785371 
L 113.450794 72.840954 
L 115.200403 72.840954 
L 115.200403 74.424328 
L 116.950013 74.424328 
L 116.950013 71.785371 
L 118.699623 71.785371 
L 118.699623 52.520986 
L 120.449233 52.520986 
L 120.449233 54.896047 
L 123.948452 54.896047 
L 123.948452 56.743317 
L 125.698062 56.743317 
L 125.698062 46.715281 
L 127.447671 46.715281 
L 127.447671 39.326202 
L 129.197281 39.326202 
L 129.197281 49.618134 
L 130.946891 49.618134 
L 130.946891 51.993195 
L 132.696501 51.993195 
L 132.696501 32.992705 
L 134.44611 32.992705 
L 134.44611 55.423839 
L 136.19572 55.423839 
L 136.19572 51.465403 
L 137.94533 51.465403 
L 137.94533 52.25709 
L 139.694939 52.25709 
L 139.694939 51.201508 
L 141.444549 51.201508 
L 141.444549 63.604605 
L 143.194159 63.604605 
L 143.194159 57.535004 
L 144.943768 57.535004 
L 144.943768 77.591076 
L 146.693378 77.591076 
L 146.693378 76.007702 
L 148.442988 76.007702 
L 148.442988 75.743806 
L 150.192598 75.743806 
L 150.192598 74.160432 
L 151.942207 74.160432 
L 151.942207 70.729788 
L 153.691817 70.729788 
L 153.691817 80.493929 
L 155.441427 80.493929 
L 155.441427 79.702242 
L 157.191036 79.702242 
L 157.191036 74.424328 
L 158.940646 74.424328 
L 158.940646 84.980155 
L 160.690256 84.980155 
L 160.690256 74.160432 
L 162.439866 74.160432 
L 162.439866 84.71626 
L 164.189475 84.71626 
L 164.189475 88.410799 
L 165.939085 88.410799 
L 165.939085 91.577548 
L 167.688695 91.577548 
L 167.688695 74.424328 
L 169.438304 74.424328 
L 169.438304 89.994173 
L 171.187914 89.994173 
L 171.187914 88.938591 
L 172.937524 88.938591 
L 172.937524 95.799878 
L 174.687133 95.799878 
L 174.687133 85.771842 
L 176.436743 85.771842 
L 176.436743 88.938591 
L 178.186353 88.938591 
L 178.186353 80.230033 
L 179.935963 80.230033 
L 179.935963 84.980155 
L 181.685572 84.980155 
L 181.685572 87.883008 
L 183.435182 87.883008 
L 183.435182 92.369235 
L 185.184792 92.369235 
L 185.184792 94.216504 
L 186.934401 94.216504 
L 186.934401 89.202486 
L 188.684011 89.202486 
L 188.684011 99.230522 
L 190.433621 99.230522 
L 190.433621 96.591566 
L 192.18323 96.591566 
L 192.18323 93.424817 
L 193.93284 93.424817 
L 193.93284 111.369724 
L 195.68245 111.369724 
L 195.68245 98.438835 
L 197.43206 98.438835 
L 197.43206 106.09181 
L 199.181669 106.09181 
L 199.181669 117.175429 
L 200.931279 117.175429 
L 200.931279 120.869969 
L 202.680889 120.869969 
L 202.680889 120.078281 
L 204.430498 120.078281 
L 204.430498 131.425796 
L 206.180108 131.425796 
L 206.180108 127.995152 
L 207.929718 127.995152 
L 207.929718 143.301102 
L 209.679328 143.301102 
L 209.679328 152.273555 
L 211.428937 152.273555 
L 211.428937 159.398739 
L 213.178547 159.398739 
L 213.178547 162.565487 
L 214.928157 162.565487 
L 214.928157 176.024167 
L 216.677766 176.024167 
L 216.677766 181.038185 
L 218.427376 181.038185 
L 218.427376 190.538429 
L 220.176986 190.538429 
L 220.176986 198.983091 
L 221.926595 198.983091 
L 221.926595 208.483336 
L 223.676205 208.483336 
L 223.676205 217.455789 
L 225.425815 217.455789 
L 225.425815 216.136311 
L 227.175425 216.136311 
L 227.175425 224.053181 
L 228.925034 224.053181 
L 228.925034 229.858886 
L 230.674644 229.858886 
L 230.674644 236.98407 
L 232.424254 236.98407 
L 232.424254 238.83134 
L 234.173863 238.83134 
L 234.173863 241.470297 
L 235.923473 241.470297 
L 235.923473 244.109253 
L 237.673083 244.109253 
L 237.673083 236.98407 
L 239.422693 236.98407 
L 239.422693 235.400696 
L 241.172302 235.400696 
L 241.172302 225.636555 
L 242.921912 225.636555 
L 242.921912 220.358642 
L 244.671522 220.358642 
L 244.671522 212.969563 
L 246.421131 212.969563 
L 246.421131 208.747232 
L 248.170741 208.747232 
L 248.170741 196.60803 
L 249.920351 196.60803 
L 249.920351 197.135821 
L 251.66996 197.135821 
L 251.66996 190.010638 
L 253.41957 190.010638 
L 253.41957 186.052203 
L 255.16918 186.052203 
L 255.16918 177.871436 
L 256.91879 177.871436 
L 256.91879 171.274044 
L 258.668399 171.274044 
L 258.668399 166.787818 
L 260.418009 166.787818 
L 260.418009 162.565487 
L 262.167619 162.565487 
L 262.167619 157.815364 
L 263.917228 157.815364 
L 263.917228 165.732235 
L 265.666838 165.732235 
L 265.666838 144.092789 
L 267.416448 144.092789 
L 267.416448 154.384721 
L 269.166057 154.384721 
L 269.166057 138.287084 
L 270.915667 138.287084 
L 270.915667 141.189936 
L 272.665277 141.189936 
L 272.665277 133.800857 
L 274.414887 133.800857 
L 274.414887 133.00917 
L 276.164496 133.00917 
L 276.164496 129.31463 
L 277.914106 129.31463 
L 277.914106 126.147882 
L 279.663716 126.147882 
L 279.663716 121.39776 
L 281.413325 121.39776 
L 281.413325 113.216994 
L 283.162935 113.216994 
L 283.162935 120.078281 
L 284.912545 120.078281 
L 284.912545 117.439325 
L 286.662155 117.439325 
L 286.662155 127.731256 
L 288.411764 127.731256 
L 288.411764 110.578037 
L 290.161374 110.578037 
L 290.161374 97.911044 
L 291.910984 97.911044 
L 291.910984 108.994663 
L 293.660593 108.994663 
L 293.660593 110.841933 
L 295.410203 110.841933 
L 295.410203 103.716749 
L 297.159813 103.716749 
L 297.159813 104.24454 
L 298.909422 104.24454 
L 298.909422 101.605584 
L 300.659032 101.605584 
L 300.659032 110.050245 
L 302.408642 110.050245 
L 302.408642 120.869969 
L 304.158252 120.869969 
L 304.158252 115.592055 
L 305.907861 115.592055 
L 305.907861 123.508925 
L 307.657471 123.508925 
L 307.657471 130.898005 
L 311.15669 130.898005 
L 311.15669 129.31463 
L 312.9063 129.31463 
L 312.9063 129.050735 
L 314.65591 129.050735 
L 314.65591 138.023188 
L 316.405519 138.023188 
L 316.405519 130.370213 
L 318.155129 130.370213 
L 318.155129 142.509415 
L 319.904739 142.509415 
L 319.904739 135.912023 
L 321.654349 135.912023 
L 321.654349 129.31463 
L 323.403958 129.31463 
L 323.403958 143.564997 
L 325.153568 143.564997 
L 325.153568 150.426285 
L 326.903178 150.426285 
L 326.903178 144.092789 
L 328.652787 144.092789 
L 328.652787 149.634598 
L 330.402397 149.634598 
L 330.402397 153.856929 
L 332.152007 153.856929 
L 332.152007 154.384721 
L 333.901617 154.384721 
L 333.901617 151.745764 
L 335.651226 151.745764 
L 335.651226 150.690181 
L 337.400836 150.690181 
L 337.400836 159.398739 
L 339.150446 159.398739 
L 339.150446 159.662634 
L 340.900055 159.662634 
L 340.900055 159.92653 
L 342.649665 159.92653 
L 342.649665 160.982113 
L 344.399275 160.982113 
L 344.399275 164.412757 
L 346.148884 164.412757 
L 346.148884 161.7738 
L 347.898494 161.7738 
L 347.898494 169.162879 
L 349.648104 169.162879 
L 349.648104 167.579505 
L 351.397714 167.579505 
L 351.397714 165.996131 
L 353.147323 165.996131 
L 353.147323 171.801836 
L 354.896933 171.801836 
L 354.896933 175.23248 
L 356.646543 175.23248 
L 356.646543 178.135332 
L 358.396152 178.135332 
L 358.396152 179.454811 
L 360.145762 179.454811 
L 360.145762 184.99662 
L 361.895372 184.99662 
L 361.895372 181.038185 
L 363.644982 181.038185 
L 363.644982 188.427264 
L 365.394591 188.427264 
L 365.394591 192.121803 
L 367.144201 192.121803 
L 367.144201 191.594012 
L 368.893811 191.594012 
L 368.893811 198.719196 
L 370.64342 198.719196 
L 370.64342 198.191404 
L 372.39303 198.191404 
L 372.39303 206.899962 
L 374.14264 206.899962 
L 374.14264 210.594501 
L 375.892249 210.594501 
L 375.892249 209.275023 
L 377.641859 209.275023 
L 377.641859 214.025145 
L 379.391469 214.025145 
L 379.391469 219.039163 
L 381.141079 219.039163 
L 381.141079 225.636555 
L 382.890688 225.636555 
L 382.890688 222.205912 
L 384.640298 222.205912 
L 384.640298 223.52539 
L 386.389908 223.52539 
L 386.389908 229.067199 
L 388.139517 229.067199 
L 388.139517 233.817322 
L 389.889127 233.817322 
L 389.889127 236.98407 
L 391.638737 236.98407 
L 391.638737 236.192383 
L 393.388347 236.192383 
L 393.388347 239.886922 
L 395.137956 239.886922 
L 395.137956 241.206401 
L 396.887566 241.206401 
L 396.887566 241.734192 
L 398.637176 241.734192 
L 398.637176 243.317566 
L 400.386785 243.317566 
L 400.386785 243.845358 
L 402.136395 243.845358 
L 402.136395 246.220419 
L 403.886005 246.220419 
L 403.886005 245.692627 
L 405.635614 245.692627 
L 405.635614 246.484315 
L 414.383663 246.484315 
L 414.383663 246.484315 
" clip-path="url(#p63501784c9)" style="fill: none; stroke: #ff7f0e; stroke-width: 1.5; stroke-linecap: square"/>
   </g>
  </g>
  <g id="axes_2">
   <g id="patch_8">
    <path d="M 480.285385 257.158895 
L 865.19952 257.158895 
L 865.19952 22.318125 
L 480.285385 22.318125 
z
" style="fill: #ffffff"/>
   </g>
   <g id="matplotlib.axis_3">
    <g id="xtick_9">
     <g id="line2d_22">
      <g>
       <use xlink:href="#me246e176aa" x="516.198426" y="257.158895" style="stroke: #000000; stroke-width: 0.8"/>
      </g>
     </g>
     <g id="text_23">
      <!-- 1.0 -->
      <g transform="translate(508.246864 271.757332) scale(0.1 -0.1)">
       <use xlink:href="#DejaVuSans-31"/>
       <use xlink:href="#DejaVuSans-2e" x="63.623047"/>
       <use xlink:href="#DejaVuSans-30" x="95.410156"/>
      </g>
     </g>
    </g>
    <g id="xtick_10">
     <g id="line2d_23">
      <g>
       <use xlink:href="#me246e176aa" x="562.240787" y="257.158895" style="stroke: #000000; stroke-width: 0.8"/>
      </g>
     </g>
     <g id="text_24">
      <!-- 1.5 -->
      <g transform="translate(554.289224 271.757332) scale(0.1 -0.1)">
       <use xlink:href="#DejaVuSans-31"/>
       <use xlink:href="#DejaVuSans-2e" x="63.623047"/>
       <use xlink:href="#DejaVuSans-35" x="95.410156"/>
      </g>
     </g>
    </g>
    <g id="xtick_11">
     <g id="line2d_24">
      <g>
       <use xlink:href="#me246e176aa" x="608.283148" y="257.158895" style="stroke: #000000; stroke-width: 0.8"/>
      </g>
     </g>
     <g id="text_25">
      <!-- 2.0 -->
      <g transform="translate(600.331585 271.757332) scale(0.1 -0.1)">
       <use xlink:href="#DejaVuSans-32"/>
       <use xlink:href="#DejaVuSans-2e" x="63.623047"/>
       <use xlink:href="#DejaVuSans-30" x="95.410156"/>
      </g>
     </g>
    </g>
    <g id="xtick_12">
     <g id="line2d_25">
      <g>
       <use xlink:href="#me246e176aa" x="654.325508" y="257.158895" style="stroke: #000000; stroke-width: 0.8"/>
      </g>
     </g>
     <g id="text_26">
      <!-- 2.5 -->
      <g transform="translate(646.373946 271.757332) scale(0.1 -0.1)">
       <use xlink:href="#DejaVuSans-32"/>
       <use xlink:href="#DejaVuSans-2e" x="63.623047"/>
       <use xlink:href="#DejaVuSans-35" x="95.410156"/>
      </g>
     </g>
    </g>
    <g id="xtick_13">
     <g id="line2d_26">
      <g>
       <use xlink:href="#me246e176aa" x="700.367869" y="257.158895" style="stroke: #000000; stroke-width: 0.8"/>
      </g>
     </g>
     <g id="text_27">
      <!-- 3.0 -->
      <g transform="translate(692.416306 271.757332) scale(0.1 -0.1)">
       <use xlink:href="#DejaVuSans-33"/>
       <use xlink:href="#DejaVuSans-2e" x="63.623047"/>
       <use xlink:href="#DejaVuSans-30" x="95.410156"/>
      </g>
     </g>
    </g>
    <g id="xtick_14">
     <g id="line2d_27">
      <g>
       <use xlink:href="#me246e176aa" x="746.41023" y="257.158895" style="stroke: #000000; stroke-width: 0.8"/>
      </g>
     </g>
     <g id="text_28">
      <!-- 3.5 -->
      <g transform="translate(738.458667 271.757332) scale(0.1 -0.1)">
       <use xlink:href="#DejaVuSans-33"/>
       <use xlink:href="#DejaVuSans-2e" x="63.623047"/>
       <use xlink:href="#DejaVuSans-35" x="95.410156"/>
      </g>
     </g>
    </g>
    <g id="xtick_15">
     <g id="line2d_28">
      <g>
       <use xlink:href="#me246e176aa" x="792.45259" y="257.158895" style="stroke: #000000; stroke-width: 0.8"/>
      </g>
     </g>
     <g id="text_29">
      <!-- 4.0 -->
      <g transform="translate(784.501028 271.757332) scale(0.1 -0.1)">
       <use xlink:href="#DejaVuSans-34"/>
       <use xlink:href="#DejaVuSans-2e" x="63.623047"/>
       <use xlink:href="#DejaVuSans-30" x="95.410156"/>
      </g>
     </g>
    </g>
    <g id="xtick_16">
     <g id="line2d_29">
      <g>
       <use xlink:href="#me246e176aa" x="838.494951" y="257.158895" style="stroke: #000000; stroke-width: 0.8"/>
      </g>
     </g>
     <g id="text_30">
      <!-- 4.5 -->
      <g transform="translate(830.543388 271.757332) scale(0.1 -0.1)">
       <use xlink:href="#DejaVuSans-34"/>
       <use xlink:href="#DejaVuSans-2e" x="63.623047"/>
       <use xlink:href="#DejaVuSans-35" x="95.410156"/>
      </g>
     </g>
    </g>
    <g id="text_31">
     <!-- wavelength [Å] -->
     <g transform="translate(634.704952 287.119832) scale(0.1 -0.1)">
      <use xlink:href="#DejaVuSans-77"/>
      <use xlink:href="#DejaVuSans-61" x="81.787109"/>
      <use xlink:href="#DejaVuSans-76" x="143.066406"/>
      <use xlink:href="#DejaVuSans-65" x="202.246094"/>
      <use xlink:href="#DejaVuSans-6c" x="263.769531"/>
      <use xlink:href="#DejaVuSans-65" x="291.552734"/>
      <use xlink:href="#DejaVuSans-6e" x="353.076172"/>
      <use xlink:href="#DejaVuSans-67" x="416.455078"/>
      <use xlink:href="#DejaVuSans-74" x="479.931641"/>
      <use xlink:href="#DejaVuSans-68" x="519.140625"/>
      <use xlink:href="#DejaVuSans-20" x="582.519531"/>
      <use xlink:href="#DejaVuSans-5b" x="614.306641"/>
      <use xlink:href="#DejaVuSans-c5" x="653.320312"/>
      <use xlink:href="#DejaVuSans-5d" x="721.728516"/>
     </g>
    </g>
   </g>
   <g id="matplotlib.axis_4">
    <g id="ytick_10">
     <g id="line2d_30">
      <g>
       <use xlink:href="#m627f55c8f0" x="480.285385" y="246.484315" style="stroke: #000000; stroke-width: 0.8"/>
      </g>
     </g>
     <g id="text_32">
      <!-- 0 -->
      <g transform="translate(466.922885 250.283533) scale(0.1 -0.1)">
       <use xlink:href="#DejaVuSans-30"/>
      </g>
     </g>
    </g>
    <g id="ytick_11">
     <g id="line2d_31">
      <g>
       <use xlink:href="#m627f55c8f0" x="480.285385" y="220.094746" style="stroke: #000000; stroke-width: 0.8"/>
      </g>
     </g>
     <g id="text_33">
      <!-- 100 -->
      <g transform="translate(454.197885 223.893965) scale(0.1 -0.1)">
       <use xlink:href="#DejaVuSans-31"/>
       <use xlink:href="#DejaVuSans-30" x="63.623047"/>
       <use xlink:href="#DejaVuSans-30" x="127.246094"/>
      </g>
     </g>
    </g>
    <g id="ytick_12">
     <g id="line2d_32">
      <g>
       <use xlink:href="#m627f55c8f0" x="480.285385" y="193.705178" style="stroke: #000000; stroke-width: 0.8"/>
      </g>
     </g>
     <g id="text_34">
      <!-- 200 -->
      <g transform="translate(454.197885 197.504396) scale(0.1 -0.1)">
       <use xlink:href="#DejaVuSans-32"/>
       <use xlink:href="#DejaVuSans-30" x="63.623047"/>
       <use xlink:href="#DejaVuSans-30" x="127.246094"/>
      </g>
     </g>
    </g>
    <g id="ytick_13">
     <g id="line2d_33">
      <g>
       <use xlink:href="#m627f55c8f0" x="480.285385" y="167.315609" style="stroke: #000000; stroke-width: 0.8"/>
      </g>
     </g>
     <g id="text_35">
      <!-- 300 -->
      <g transform="translate(454.197885 171.114828) scale(0.1 -0.1)">
       <use xlink:href="#DejaVuSans-33"/>
       <use xlink:href="#DejaVuSans-30" x="63.623047"/>
       <use xlink:href="#DejaVuSans-30" x="127.246094"/>
      </g>
     </g>
    </g>
    <g id="ytick_14">
     <g id="line2d_34">
      <g>
       <use xlink:href="#m627f55c8f0" x="480.285385" y="140.926041" style="stroke: #000000; stroke-width: 0.8"/>
      </g>
     </g>
     <g id="text_36">
      <!-- 400 -->
      <g transform="translate(454.197885 144.725259) scale(0.1 -0.1)">
       <use xlink:href="#DejaVuSans-34"/>
       <use xlink:href="#DejaVuSans-30" x="63.623047"/>
       <use xlink:href="#DejaVuSans-30" x="127.246094"/>
      </g>
     </g>
    </g>
    <g id="ytick_15">
     <g id="line2d_35">
      <g>
       <use xlink:href="#m627f55c8f0" x="480.285385" y="114.536472" style="stroke: #000000; stroke-width: 0.8"/>
      </g>
     </g>
     <g id="text_37">
      <!-- 500 -->
      <g transform="translate(454.197885 118.335691) scale(0.1 -0.1)">
       <use xlink:href="#DejaVuSans-35"/>
       <use xlink:href="#DejaVuSans-30" x="63.623047"/>
       <use xlink:href="#DejaVuSans-30" x="127.246094"/>
      </g>
     </g>
    </g>
    <g id="ytick_16">
     <g id="line2d_36">
      <g>
       <use xlink:href="#m627f55c8f0" x="480.285385" y="88.146904" style="stroke: #000000; stroke-width: 0.8"/>
      </g>
     </g>
     <g id="text_38">
      <!-- 600 -->
      <g transform="translate(454.197885 91.946122) scale(0.1 -0.1)">
       <use xlink:href="#DejaVuSans-36"/>
       <use xlink:href="#DejaVuSans-30" x="63.623047"/>
       <use xlink:href="#DejaVuSans-30" x="127.246094"/>
      </g>
     </g>
    </g>
    <g id="ytick_17">
     <g id="line2d_37">
      <g>
       <use xlink:href="#m627f55c8f0" x="480.285385" y="61.757335" style="stroke: #000000; stroke-width: 0.8"/>
      </g>
     </g>
     <g id="text_39">
      <!-- 700 -->
      <g transform="translate(454.197885 65.556554) scale(0.1 -0.1)">
       <use xlink:href="#DejaVuSans-37"/>
       <use xlink:href="#DejaVuSans-30" x="63.623047"/>
       <use xlink:href="#DejaVuSans-30" x="127.246094"/>
      </g>
     </g>
    </g>
    <g id="ytick_18">
     <g id="line2d_38">
      <g>
       <use xlink:href="#m627f55c8f0" x="480.285385" y="35.367767" style="stroke: #000000; stroke-width: 0.8"/>
      </g>
     </g>
     <g id="text_40">
      <!-- 800 -->
      <g transform="translate(454.197885 39.166985) scale(0.1 -0.1)">
       <use xlink:href="#DejaVuSans-38"/>
       <use xlink:href="#DejaVuSans-30" x="63.623047"/>
       <use xlink:href="#DejaVuSans-30" x="127.246094"/>
      </g>
     </g>
    </g>
    <g id="text_41">
     <!-- [counts] -->
     <g transform="translate(448.118198 160.35101) rotate(-90) scale(0.1 -0.1)">
      <use xlink:href="#DejaVuSans-5b"/>
      <use xlink:href="#DejaVuSans-63" x="39.013672"/>
      <use xlink:href="#DejaVuSans-6f" x="93.994141"/>
      <use xlink:href="#DejaVuSans-75" x="155.175781"/>
      <use xlink:href="#DejaVuSans-6e" x="218.554688"/>
      <use xlink:href="#DejaVuSans-74" x="281.933594"/>
      <use xlink:href="#DejaVuSans-73" x="321.142578"/>
      <use xlink:href="#DejaVuSans-5d" x="373.242188"/>
     </g>
    </g>
   </g>
   <g id="patch_9">
    <path d="M 480.285385 257.158895 
L 480.285385 22.318125 
" style="fill: none; stroke: #000000; stroke-width: 0.8; stroke-linejoin: miter; stroke-linecap: square"/>
   </g>
   <g id="patch_10">
    <path d="M 865.19952 257.158895 
L 865.19952 22.318125 
" style="fill: none; stroke: #000000; stroke-width: 0.8; stroke-linejoin: miter; stroke-linecap: square"/>
   </g>
   <g id="patch_11">
    <path d="M 480.285385 257.158895 
L 865.19952 257.158895 
" style="fill: none; stroke: #000000; stroke-width: 0.8; stroke-linejoin: miter; stroke-linecap: square"/>
   </g>
   <g id="patch_12">
    <path d="M 480.285385 22.318125 
L 865.19952 22.318125 
" style="fill: none; stroke: #000000; stroke-width: 0.8; stroke-linejoin: miter; stroke-linecap: square"/>
   </g>
   <g id="text_42">
    <!-- Pixel 2 -->
    <g transform="translate(653.14589 16.318125) scale(0.12 -0.12)">
     <use xlink:href="#DejaVuSans-50"/>
     <use xlink:href="#DejaVuSans-69" x="58.052734"/>
     <use xlink:href="#DejaVuSans-78" x="85.835938"/>
     <use xlink:href="#DejaVuSans-65" x="141.890625"/>
     <use xlink:href="#DejaVuSans-6c" x="203.414062"/>
     <use xlink:href="#DejaVuSans-20" x="231.197266"/>
     <use xlink:href="#DejaVuSans-32" x="262.984375"/>
    </g>
   </g>
   <g id="legend_2">
    <g id="patch_13">
     <path d="M 761.196395 59.9525 
L 858.19952 59.9525 
Q 860.19952 59.9525 860.19952 57.9525 
L 860.19952 29.318125 
Q 860.19952 27.318125 858.19952 27.318125 
L 761.196395 27.318125 
Q 759.196395 27.318125 759.196395 29.318125 
L 759.196395 57.9525 
Q 759.196395 59.9525 761.196395 59.9525 
z
" style="fill: #ffffff; opacity: 0.8; stroke: #cccccc; stroke-linejoin: miter"/>
    </g>
    <g id="line2d_39">
     <path d="M 763.196395 35.416562 
L 763.196395 35.416562 
L 773.196395 35.416562 
L 773.196395 35.416562 
L 783.196395 35.416562 
" style="fill: none; stroke: #1f77b4; stroke-width: 1.5; stroke-linecap: square"/>
    </g>
    <g id="text_43">
     <!-- wfm -->
     <g transform="translate(791.196395 38.916562) scale(0.1 -0.1)">
      <use xlink:href="#DejaVuSans-77"/>
      <use xlink:href="#DejaVuSans-66" x="81.787109"/>
      <use xlink:href="#DejaVuSans-6d" x="116.992188"/>
     </g>
    </g>
    <g id="line2d_40">
     <path d="M 763.196395 50.094687 
L 763.196395 50.094687 
L 773.196395 50.094687 
L 773.196395 50.094687 
L 783.196395 50.094687 
" style="fill: none; stroke: #ff7f0e; stroke-width: 1.5; stroke-linecap: square"/>
    </g>
    <g id="text_44">
     <!-- ground_truth -->
     <g transform="translate(791.196395 53.594687) scale(0.1 -0.1)">
      <use xlink:href="#DejaVuSans-67"/>
      <use xlink:href="#DejaVuSans-72" x="63.476562"/>
      <use xlink:href="#DejaVuSans-6f" x="102.339844"/>
      <use xlink:href="#DejaVuSans-75" x="163.521484"/>
      <use xlink:href="#DejaVuSans-6e" x="226.900391"/>
      <use xlink:href="#DejaVuSans-64" x="290.279297"/>
      <use xlink:href="#DejaVuSans-5f" x="353.755859"/>
      <use xlink:href="#DejaVuSans-74" x="403.755859"/>
      <use xlink:href="#DejaVuSans-72" x="442.964844"/>
      <use xlink:href="#DejaVuSans-75" x="484.078125"/>
      <use xlink:href="#DejaVuSans-74" x="547.457031"/>
      <use xlink:href="#DejaVuSans-68" x="586.666016"/>
     </g>
    </g>
   </g>
   <g id="line2d_41">
    <path d="M 497.781482 246.484315 
L 508.27914 246.484315 
L 508.27914 243.845358 
L 510.02875 243.845358 
L 510.02875 233.553426 
L 511.77836 233.553426 
L 511.77836 230.386678 
L 513.527969 230.386678 
L 513.527969 219.039163 
L 515.277579 219.039163 
L 515.277579 209.275023 
L 517.027189 209.275023 
L 517.027189 197.663613 
L 518.776799 197.663613 
L 518.776799 188.427264 
L 520.526408 188.427264 
L 520.526408 184.468829 
L 522.276018 184.468829 
L 522.276018 177.343645 
L 524.025628 177.343645 
L 524.025628 160.454321 
L 525.775237 160.454321 
L 525.775237 155.176408 
L 527.524847 155.176408 
L 527.524847 157.815364 
L 529.274457 157.815364 
L 529.274457 133.536961 
L 531.024066 133.536961 
L 531.024066 140.398249 
L 532.773676 140.398249 
L 532.773676 129.31463 
L 534.523286 129.31463 
L 534.523286 111.897515 
L 536.272896 111.897515 
L 536.272896 107.147393 
L 538.022505 107.147393 
L 538.022505 86.827425 
L 539.772115 86.827425 
L 539.772115 104.508436 
L 541.521725 104.508436 
L 541.521725 87.355217 
L 543.271334 87.355217 
L 543.271334 86.563529 
L 545.020944 86.563529 
L 545.020944 64.660188 
L 546.770554 64.660188 
L 546.770554 70.465893 
L 548.520163 70.465893 
L 548.520163 70.993684 
L 550.269773 70.993684 
L 550.269773 64.132396 
L 552.019383 64.132396 
L 552.019383 52.784882 
L 553.768993 52.784882 
L 553.768993 52.520986 
L 555.518602 52.520986 
L 555.518602 44.076324 
L 557.268212 44.076324 
L 557.268212 52.25709 
L 559.017822 52.25709 
L 559.017822 44.604116 
L 560.767431 44.604116 
L 560.767431 36.951141 
L 562.517041 36.951141 
L 562.517041 39.590098 
L 564.266651 39.590098 
L 564.266651 49.882029 
L 566.016261 49.882029 
L 566.016261 42.49295 
L 567.76587 42.49295 
L 567.76587 44.868011 
L 569.51548 44.868011 
L 569.51548 55.95163 
L 571.26509 55.95163 
L 571.26509 53.048778 
L 573.014699 53.048778 
L 573.014699 62.549022 
L 574.764309 62.549022 
L 574.764309 49.882029 
L 576.513919 49.882029 
L 576.513919 57.007213 
L 578.263528 57.007213 
L 578.263528 82.341199 
L 580.013138 82.341199 
L 580.013138 80.757824 
L 581.762748 80.757824 
L 581.762748 76.799389 
L 583.512358 76.799389 
L 583.512358 67.56304 
L 585.261967 67.56304 
L 585.261967 66.507457 
L 587.011577 66.507457 
L 587.011577 84.188468 
L 588.761187 84.188468 
L 588.761187 78.382763 
L 590.510796 78.382763 
L 590.510796 77.591076 
L 592.260406 77.591076 
L 592.260406 79.966137 
L 594.010016 79.966137 
L 594.010016 80.230033 
L 595.759626 80.230033 
L 595.759626 82.605094 
L 597.509235 82.605094 
L 597.509235 83.132886 
L 599.258845 83.132886 
L 599.258845 91.577548 
L 601.008455 91.577548 
L 601.008455 77.591076 
L 602.758064 77.591076 
L 602.758064 100.022209 
L 604.507674 100.022209 
L 604.507674 81.285616 
L 606.257284 81.285616 
L 606.257284 93.952609 
L 608.006893 93.952609 
L 608.006893 92.63313 
L 609.756503 92.63313 
L 609.756503 82.605094 
L 611.506113 82.605094 
L 611.506113 89.202486 
L 613.255723 89.202486 
L 613.255723 77.327181 
L 615.005332 77.327181 
L 615.005332 88.938591 
L 616.754942 88.938591 
L 616.754942 94.216504 
L 618.504552 94.216504 
L 618.504552 94.4804 
L 620.254161 94.4804 
L 620.254161 97.647148 
L 622.003771 97.647148 
L 622.003771 91.577548 
L 623.753381 91.577548 
L 623.753381 101.341688 
L 625.50299 101.341688 
L 625.50299 97.911044 
L 627.2526 97.911044 
L 627.2526 106.355706 
L 629.00221 106.355706 
L 629.00221 100.286105 
L 630.75182 100.286105 
L 630.75182 107.147393 
L 632.501429 107.147393 
L 632.501429 114.008681 
L 634.251039 114.008681 
L 634.251039 130.898005 
L 636.000649 130.898005 
L 636.000649 121.39776 
L 637.750258 121.39776 
L 637.750258 132.217483 
L 641.249478 132.217483 
L 641.249478 147.259537 
L 642.999088 147.259537 
L 642.999088 151.745764 
L 644.748697 151.745764 
L 644.748697 162.829382 
L 646.498307 162.829382 
L 646.498307 161.7738 
L 648.247917 161.7738 
L 648.247917 170.218462 
L 649.997526 170.218462 
L 649.997526 183.677142 
L 651.747136 183.677142 
L 651.747136 187.899472 
L 653.496746 187.899472 
L 653.496746 194.76076 
L 655.246355 194.76076 
L 655.246355 204.524901 
L 656.995965 204.524901 
L 656.995965 213.233458 
L 658.745575 213.233458 
L 658.745575 218.775268 
L 660.495185 218.775268 
L 660.495185 223.52539 
L 662.244794 223.52539 
L 662.244794 225.108764 
L 663.994404 225.108764 
L 663.994404 232.497843 
L 665.744014 232.497843 
L 665.744014 236.720174 
L 667.493623 236.720174 
L 667.493623 238.83134 
L 669.243233 238.83134 
L 669.243233 243.845358 
L 670.992843 243.845358 
L 670.992843 243.581462 
L 672.742453 243.581462 
L 672.742453 235.400696 
L 674.492062 235.400696 
L 674.492062 233.025635 
L 676.241672 233.025635 
L 676.241672 223.52539 
L 677.991282 223.52539 
L 677.991282 218.247476 
L 679.740891 218.247476 
L 679.740891 207.955545 
L 681.490501 207.955545 
L 681.490501 204.524901 
L 683.240111 204.524901 
L 683.240111 196.871926 
L 684.98972 196.871926 
L 684.98972 193.969073 
L 686.73933 193.969073 
L 686.73933 187.635577 
L 688.48894 187.635577 
L 688.48894 179.454811 
L 690.23855 179.454811 
L 690.23855 171.010149 
L 691.988159 171.010149 
L 691.988159 166.260026 
L 693.737769 166.260026 
L 693.737769 164.148861 
L 695.487379 164.148861 
L 695.487379 157.287573 
L 697.236988 157.287573 
L 697.236988 157.551469 
L 698.986598 157.551469 
L 698.986598 150.954077 
L 700.736208 150.954077 
L 700.736208 149.370702 
L 702.485817 149.370702 
L 702.485817 143.301102 
L 704.235427 143.301102 
L 704.235427 139.078771 
L 705.985037 139.078771 
L 705.985037 129.578526 
L 707.734647 129.578526 
L 707.734647 128.259048 
L 709.484256 128.259048 
L 709.484256 126.147882 
L 711.233866 126.147882 
L 711.233866 122.453343 
L 712.983476 122.453343 
L 712.983476 120.078281 
L 714.733085 120.078281 
L 714.733085 112.953098 
L 716.482695 112.953098 
L 716.482695 115.592055 
L 718.232305 115.592055 
L 718.232305 114.272576 
L 719.981915 114.272576 
L 719.981915 121.661656 
L 721.731524 121.661656 
L 721.731524 104.772332 
L 723.481134 104.772332 
L 723.481134 101.077792 
L 725.230744 101.077792 
L 725.230744 102.133375 
L 726.980353 102.133375 
L 726.980353 113.216994 
L 728.729963 113.216994 
L 728.729963 103.980645 
L 730.479573 103.980645 
L 730.479573 116.911533 
L 732.229182 116.911533 
L 732.229182 97.383253 
L 733.978792 97.383253 
L 733.978792 107.93908 
L 735.728402 107.93908 
L 735.728402 119.286594 
L 737.478012 119.286594 
L 737.478012 117.439325 
L 739.227621 117.439325 
L 739.227621 122.981134 
L 740.977231 122.981134 
L 740.977231 124.564508 
L 742.726841 124.564508 
L 742.726841 133.00917 
L 744.47645 133.00917 
L 744.47645 125.092299 
L 746.22606 125.092299 
L 746.22606 139.606562 
L 747.97567 139.606562 
L 747.97567 132.217483 
L 749.725279 132.217483 
L 749.725279 138.814875 
L 751.474889 138.814875 
L 751.474889 131.953587 
L 753.224499 131.953587 
L 753.224499 130.370213 
L 754.974109 130.370213 
L 754.974109 140.926041 
L 756.723718 140.926041 
L 756.723718 141.717728 
L 758.473328 141.717728 
L 758.473328 141.453832 
L 760.222938 141.453832 
L 760.222938 153.593033 
L 761.972547 153.593033 
L 761.972547 148.842911 
L 763.722157 148.842911 
L 763.722157 156.495886 
L 765.471767 156.495886 
L 765.471767 153.065242 
L 767.221377 153.065242 
L 767.221377 150.426285 
L 768.970986 150.426285 
L 768.970986 150.954077 
L 770.720596 150.954077 
L 770.720596 158.07926 
L 772.470206 158.07926 
L 772.470206 162.037695 
L 774.219815 162.037695 
L 774.219815 163.884965 
L 775.969425 163.884965 
L 775.969425 157.551469 
L 777.719035 157.551469 
L 777.719035 162.301591 
L 779.468644 162.301591 
L 779.468644 164.412757 
L 781.218254 164.412757 
L 781.218254 161.7738 
L 782.967864 161.7738 
L 782.967864 170.746253 
L 784.717474 170.746253 
L 784.717474 166.787818 
L 786.467083 166.787818 
L 786.467083 177.079749 
L 788.216693 177.079749 
L 788.216693 171.274044 
L 789.966303 171.274044 
L 789.966303 176.024167 
L 791.715912 176.024167 
L 791.715912 182.621559 
L 793.465522 182.621559 
L 793.465522 183.14935 
L 795.215132 183.14935 
L 795.215132 184.99662 
L 796.964742 184.99662 
L 796.964742 186.052203 
L 798.714351 186.052203 
L 798.714351 192.913491 
L 800.463961 192.913491 
L 800.463961 199.774778 
L 802.213571 199.774778 
L 802.213571 189.482847 
L 803.96318 189.482847 
L 803.96318 200.830361 
L 805.71279 200.830361 
L 805.71279 207.427753 
L 807.4624 207.427753 
L 807.4624 212.177876 
L 809.212009 212.177876 
L 809.212009 212.705667 
L 810.961619 212.705667 
L 810.961619 215.080728 
L 812.711229 215.080728 
L 812.711229 219.039163 
L 814.460839 219.039163 
L 814.460839 221.67812 
L 816.210448 221.67812 
L 816.210448 224.053181 
L 817.960058 224.053181 
L 817.960058 224.317077 
L 819.709668 224.317077 
L 819.709668 228.011617 
L 821.459277 228.011617 
L 821.459277 229.594991 
L 823.208887 229.594991 
L 823.208887 236.720174 
L 824.958497 236.720174 
L 824.958497 237.775757 
L 826.708106 237.775757 
L 826.708106 238.303548 
L 828.457716 238.303548 
L 828.457716 239.886922 
L 830.207326 239.886922 
L 830.207326 241.206401 
L 831.956936 241.206401 
L 831.956936 241.998088 
L 833.706545 241.998088 
L 833.706545 244.109253 
L 835.456155 244.109253 
L 835.456155 244.637045 
L 837.205765 244.637045 
L 837.205765 245.956523 
L 840.704984 245.956523 
L 840.704984 246.484315 
L 847.703423 246.484315 
L 847.703423 246.484315 
" clip-path="url(#pd81956c38f)" style="fill: none; stroke: #1f77b4; stroke-width: 1.5; stroke-linecap: square"/>
   </g>
   <g id="line2d_42">
    <path d="M 497.781482 246.484315 
L 506.529531 246.484315 
L 506.529531 244.90094 
L 508.27914 244.90094 
L 508.27914 236.192383 
L 510.02875 236.192383 
L 510.02875 230.122782 
L 511.77836 230.122782 
L 511.77836 224.580973 
L 513.527969 224.580973 
L 513.527969 211.386188 
L 515.277579 211.386188 
L 515.277579 204.524901 
L 517.027189 204.524901 
L 517.027189 187.371681 
L 518.776799 187.371681 
L 518.776799 190.538429 
L 520.526408 190.538429 
L 520.526408 182.093767 
L 522.276018 182.093767 
L 522.276018 170.482357 
L 524.025628 170.482357 
L 524.025628 158.607051 
L 525.775237 158.607051 
L 525.775237 155.440303 
L 527.524847 155.440303 
L 527.524847 154.384721 
L 529.274457 154.384721 
L 529.274457 137.495397 
L 531.024066 137.495397 
L 531.024066 137.231501 
L 532.773676 137.231501 
L 532.773676 124.564508 
L 534.523286 124.564508 
L 534.523286 111.369724 
L 536.272896 111.369724 
L 536.272896 103.188958 
L 538.022505 103.188958 
L 538.022505 96.591566 
L 539.772115 96.591566 
L 539.772115 107.411289 
L 541.521725 107.411289 
L 541.521725 89.994173 
L 543.271334 89.994173 
L 543.271334 82.077303 
L 545.020944 82.077303 
L 545.020944 71.785371 
L 546.770554 71.785371 
L 546.770554 72.840954 
L 548.520163 72.840954 
L 548.520163 74.424328 
L 550.269773 74.424328 
L 550.269773 71.785371 
L 552.019383 71.785371 
L 552.019383 52.520986 
L 553.768993 52.520986 
L 553.768993 54.896047 
L 557.268212 54.896047 
L 557.268212 56.743317 
L 559.017822 56.743317 
L 559.017822 46.715281 
L 560.767431 46.715281 
L 560.767431 39.326202 
L 562.517041 39.326202 
L 562.517041 49.618134 
L 564.266651 49.618134 
L 564.266651 51.993195 
L 566.016261 51.993195 
L 566.016261 32.992705 
L 567.76587 32.992705 
L 567.76587 55.423839 
L 569.51548 55.423839 
L 569.51548 51.465403 
L 571.26509 51.465403 
L 571.26509 52.25709 
L 573.014699 52.25709 
L 573.014699 51.201508 
L 574.764309 51.201508 
L 574.764309 63.604605 
L 576.513919 63.604605 
L 576.513919 57.535004 
L 578.263528 57.535004 
L 578.263528 77.591076 
L 580.013138 77.591076 
L 580.013138 76.007702 
L 581.762748 76.007702 
L 581.762748 75.743806 
L 583.512358 75.743806 
L 583.512358 74.160432 
L 585.261967 74.160432 
L 585.261967 70.729788 
L 587.011577 70.729788 
L 587.011577 80.493929 
L 588.761187 80.493929 
L 588.761187 79.702242 
L 590.510796 79.702242 
L 590.510796 74.424328 
L 592.260406 74.424328 
L 592.260406 84.980155 
L 594.010016 84.980155 
L 594.010016 74.160432 
L 595.759626 74.160432 
L 595.759626 84.71626 
L 597.509235 84.71626 
L 597.509235 88.410799 
L 599.258845 88.410799 
L 599.258845 91.577548 
L 601.008455 91.577548 
L 601.008455 74.424328 
L 602.758064 74.424328 
L 602.758064 89.994173 
L 604.507674 89.994173 
L 604.507674 88.938591 
L 606.257284 88.938591 
L 606.257284 95.799878 
L 608.006893 95.799878 
L 608.006893 85.771842 
L 609.756503 85.771842 
L 609.756503 88.938591 
L 611.506113 88.938591 
L 611.506113 80.230033 
L 613.255723 80.230033 
L 613.255723 84.980155 
L 615.005332 84.980155 
L 615.005332 87.883008 
L 616.754942 87.883008 
L 616.754942 92.369235 
L 618.504552 92.369235 
L 618.504552 94.216504 
L 620.254161 94.216504 
L 620.254161 89.202486 
L 622.003771 89.202486 
L 622.003771 99.230522 
L 623.753381 99.230522 
L 623.753381 96.591566 
L 625.50299 96.591566 
L 625.50299 93.424817 
L 627.2526 93.424817 
L 627.2526 111.369724 
L 629.00221 111.369724 
L 629.00221 98.438835 
L 630.75182 98.438835 
L 630.75182 106.09181 
L 632.501429 106.09181 
L 632.501429 117.175429 
L 634.251039 117.175429 
L 634.251039 120.869969 
L 636.000649 120.869969 
L 636.000649 120.078281 
L 637.750258 120.078281 
L 637.750258 131.425796 
L 639.499868 131.425796 
L 639.499868 127.995152 
L 641.249478 127.995152 
L 641.249478 143.301102 
L 642.999088 143.301102 
L 642.999088 152.273555 
L 644.748697 152.273555 
L 644.748697 159.398739 
L 646.498307 159.398739 
L 646.498307 162.565487 
L 648.247917 162.565487 
L 648.247917 176.024167 
L 649.997526 176.024167 
L 649.997526 181.038185 
L 651.747136 181.038185 
L 651.747136 190.538429 
L 653.496746 190.538429 
L 653.496746 198.983091 
L 655.246355 198.983091 
L 655.246355 208.483336 
L 656.995965 208.483336 
L 656.995965 217.455789 
L 658.745575 217.455789 
L 658.745575 216.136311 
L 660.495185 216.136311 
L 660.495185 224.053181 
L 662.244794 224.053181 
L 662.244794 229.858886 
L 663.994404 229.858886 
L 663.994404 236.98407 
L 665.744014 236.98407 
L 665.744014 238.83134 
L 667.493623 238.83134 
L 667.493623 241.470297 
L 669.243233 241.470297 
L 669.243233 244.109253 
L 670.992843 244.109253 
L 670.992843 236.98407 
L 672.742453 236.98407 
L 672.742453 235.400696 
L 674.492062 235.400696 
L 674.492062 225.636555 
L 676.241672 225.636555 
L 676.241672 220.358642 
L 677.991282 220.358642 
L 677.991282 212.969563 
L 679.740891 212.969563 
L 679.740891 208.747232 
L 681.490501 208.747232 
L 681.490501 196.60803 
L 683.240111 196.60803 
L 683.240111 197.135821 
L 684.98972 197.135821 
L 684.98972 190.010638 
L 686.73933 190.010638 
L 686.73933 186.052203 
L 688.48894 186.052203 
L 688.48894 177.871436 
L 690.23855 177.871436 
L 690.23855 171.274044 
L 691.988159 171.274044 
L 691.988159 166.787818 
L 693.737769 166.787818 
L 693.737769 162.565487 
L 695.487379 162.565487 
L 695.487379 157.815364 
L 697.236988 157.815364 
L 697.236988 165.732235 
L 698.986598 165.732235 
L 698.986598 144.092789 
L 700.736208 144.092789 
L 700.736208 154.384721 
L 702.485817 154.384721 
L 702.485817 138.287084 
L 704.235427 138.287084 
L 704.235427 141.189936 
L 705.985037 141.189936 
L 705.985037 133.800857 
L 707.734647 133.800857 
L 707.734647 133.00917 
L 709.484256 133.00917 
L 709.484256 129.31463 
L 711.233866 129.31463 
L 711.233866 126.147882 
L 712.983476 126.147882 
L 712.983476 121.39776 
L 714.733085 121.39776 
L 714.733085 113.216994 
L 716.482695 113.216994 
L 716.482695 120.078281 
L 718.232305 120.078281 
L 718.232305 117.439325 
L 719.981915 117.439325 
L 719.981915 127.731256 
L 721.731524 127.731256 
L 721.731524 110.578037 
L 723.481134 110.578037 
L 723.481134 97.911044 
L 725.230744 97.911044 
L 725.230744 108.994663 
L 726.980353 108.994663 
L 726.980353 110.841933 
L 728.729963 110.841933 
L 728.729963 103.716749 
L 730.479573 103.716749 
L 730.479573 104.24454 
L 732.229182 104.24454 
L 732.229182 101.605584 
L 733.978792 101.605584 
L 733.978792 110.050245 
L 735.728402 110.050245 
L 735.728402 120.869969 
L 737.478012 120.869969 
L 737.478012 115.592055 
L 739.227621 115.592055 
L 739.227621 123.508925 
L 740.977231 123.508925 
L 740.977231 130.898005 
L 744.47645 130.898005 
L 744.47645 129.31463 
L 746.22606 129.31463 
L 746.22606 129.050735 
L 747.97567 129.050735 
L 747.97567 138.023188 
L 749.725279 138.023188 
L 749.725279 130.370213 
L 751.474889 130.370213 
L 751.474889 142.509415 
L 753.224499 142.509415 
L 753.224499 135.912023 
L 754.974109 135.912023 
L 754.974109 129.31463 
L 756.723718 129.31463 
L 756.723718 143.564997 
L 758.473328 143.564997 
L 758.473328 150.426285 
L 760.222938 150.426285 
L 760.222938 144.092789 
L 761.972547 144.092789 
L 761.972547 149.634598 
L 763.722157 149.634598 
L 763.722157 153.856929 
L 765.471767 153.856929 
L 765.471767 154.384721 
L 767.221377 154.384721 
L 767.221377 151.745764 
L 768.970986 151.745764 
L 768.970986 150.690181 
L 770.720596 150.690181 
L 770.720596 159.398739 
L 772.470206 159.398739 
L 772.470206 159.662634 
L 774.219815 159.662634 
L 774.219815 159.92653 
L 775.969425 159.92653 
L 775.969425 160.982113 
L 777.719035 160.982113 
L 777.719035 164.412757 
L 779.468644 164.412757 
L 779.468644 161.7738 
L 781.218254 161.7738 
L 781.218254 169.162879 
L 782.967864 169.162879 
L 782.967864 167.579505 
L 784.717474 167.579505 
L 784.717474 165.996131 
L 786.467083 165.996131 
L 786.467083 171.801836 
L 788.216693 171.801836 
L 788.216693 175.23248 
L 789.966303 175.23248 
L 789.966303 178.135332 
L 791.715912 178.135332 
L 791.715912 179.454811 
L 793.465522 179.454811 
L 793.465522 184.99662 
L 795.215132 184.99662 
L 795.215132 181.038185 
L 796.964742 181.038185 
L 796.964742 188.427264 
L 798.714351 188.427264 
L 798.714351 192.121803 
L 800.463961 192.121803 
L 800.463961 191.594012 
L 802.213571 191.594012 
L 802.213571 198.719196 
L 803.96318 198.719196 
L 803.96318 198.191404 
L 805.71279 198.191404 
L 805.71279 206.899962 
L 807.4624 206.899962 
L 807.4624 210.594501 
L 809.212009 210.594501 
L 809.212009 209.275023 
L 810.961619 209.275023 
L 810.961619 214.025145 
L 812.711229 214.025145 
L 812.711229 219.039163 
L 814.460839 219.039163 
L 814.460839 225.636555 
L 816.210448 225.636555 
L 816.210448 222.205912 
L 817.960058 222.205912 
L 817.960058 223.52539 
L 819.709668 223.52539 
L 819.709668 229.067199 
L 821.459277 229.067199 
L 821.459277 233.817322 
L 823.208887 233.817322 
L 823.208887 236.98407 
L 824.958497 236.98407 
L 824.958497 236.192383 
L 826.708106 236.192383 
L 826.708106 239.886922 
L 828.457716 239.886922 
L 828.457716 241.206401 
L 830.207326 241.206401 
L 830.207326 241.734192 
L 831.956936 241.734192 
L 831.956936 243.317566 
L 833.706545 243.317566 
L 833.706545 243.845358 
L 835.456155 243.845358 
L 835.456155 246.220419 
L 837.205765 246.220419 
L 837.205765 245.692627 
L 838.955374 245.692627 
L 838.955374 246.484315 
L 847.703423 246.484315 
L 847.703423 246.484315 
" clip-path="url(#pd81956c38f)" style="fill: none; stroke: #ff7f0e; stroke-width: 1.5; stroke-linecap: square"/>
   </g>
  </g>
 </g>
 <defs>
  <clipPath id="p63501784c9">
   <rect x="46.965625" y="22.318125" width="384.914135" height="234.84077"/>
  </clipPath>
  <clipPath id="pd81956c38f">
   <rect x="480.285385" y="22.318125" width="384.914135" height="234.84077"/>
  </clipPath>
 </defs>
</svg>
