<?xml version="1.0" encoding="UTF-8" standalone="no"?>
<!DOCTYPE svg PUBLIC "-//W3C//DTD SVG 1.1//EN"
 "http://www.w3.org/Graphics/SVG/1.1/DTD/svg11.dtd">
<!-- Generated by graphviz version 7.1.0 (20230122.1345)
 -->
<!-- Pages: 1 -->
<svg width="1212pt" height="620pt"
 viewBox="0.00 0.00 1212.05 620.00" xmlns="http://www.w3.org/2000/svg" xmlns:xlink="http://www.w3.org/1999/xlink">
<g id="graph0" class="graph" transform="scale(1 1) rotate(0) translate(4 616)">
<polygon fill="white" stroke="none" points="-4,4 -4,-616 1208.05,-616 1208.05,4 -4,4"/>
<!-- Choppers -->
<g id="node1" class="node">
<title>Choppers</title>
<polygon fill="none" stroke="red" stroke-dasharray="5,2" points="540,-612 455,-612 455,-576 540,-576 540,-612"/>
<text text-anchor="middle" x="497.5" y="-590.3" font-family="Times,serif" font-size="14.00" fill="red">Choppers</text>
</g>
<!-- scippneutron.tof.unwrap.frame_at_detector_FrameAtDetector -->
<g id="node7" class="node">
<title>scippneutron.tof.unwrap.frame_at_detector_FrameAtDetector</title>
<ellipse fill="none" stroke="black" cx="346.5" cy="-522" rx="94.78" ry="18"/>
<text text-anchor="middle" x="346.5" y="-518.3" font-family="Times,serif" font-size="14.00">frame_at_detector</text>
</g>
<!-- Choppers&#45;&gt;scippneutron.tof.unwrap.frame_at_detector_FrameAtDetector -->
<g id="edge7" class="edge">
<title>Choppers&#45;&gt;scippneutron.tof.unwrap.frame_at_detector_FrameAtDetector</title>
<path fill="none" stroke="black" d="M459.79,-575.52C439.14,-565.95 413.42,-554.02 391.7,-543.96"/>
<polygon fill="black" stroke="black" points="393.32,-540.85 382.78,-539.82 390.38,-547.2 393.32,-540.85"/>
</g>
<!-- scippneutron.tof.unwrap.offset_from_wrapped_DeltaFromWrapped -->
<g id="node2" class="node">
<title>scippneutron.tof.unwrap.offset_from_wrapped_DeltaFromWrapped</title>
<ellipse fill="none" stroke="black" cx="703.5" cy="-234" rx="107.78" ry="18"/>
<text text-anchor="middle" x="703.5" y="-230.3" font-family="Times,serif" font-size="14.00">offset_from_wrapped</text>
</g>
<!-- DeltaFromWrapped -->
<g id="node6" class="node">
<title>DeltaFromWrapped</title>
<polygon fill="none" stroke="black" points="1047,-180 890,-180 890,-144 1047,-144 1047,-180"/>
<text text-anchor="middle" x="968.5" y="-158.3" font-family="Times,serif" font-size="14.00">DeltaFromWrapped</text>
</g>
<!-- scippneutron.tof.unwrap.offset_from_wrapped_DeltaFromWrapped&#45;&gt;DeltaFromWrapped -->
<g id="edge4" class="edge">
<title>scippneutron.tof.unwrap.offset_from_wrapped_DeltaFromWrapped&#45;&gt;DeltaFromWrapped</title>
<path fill="none" stroke="black" d="M759.38,-218.24C797.71,-208.11 849.08,-194.54 891.31,-183.39"/>
<polygon fill="black" stroke="black" points="892.16,-186.78 900.94,-180.85 890.37,-180.02 892.16,-186.78"/>
</g>
<!-- FrameWrappedTimeOffset -->
<g id="node3" class="node">
<title>FrameWrappedTimeOffset</title>
<polygon fill="none" stroke="black" points="718,-324 513,-324 513,-288 718,-288 718,-324"/>
<text text-anchor="middle" x="615.5" y="-302.3" font-family="Times,serif" font-size="14.00">FrameWrappedTimeOffset</text>
</g>
<!-- FrameWrappedTimeOffset&#45;&gt;scippneutron.tof.unwrap.offset_from_wrapped_DeltaFromWrapped -->
<g id="edge1" class="edge">
<title>FrameWrappedTimeOffset&#45;&gt;scippneutron.tof.unwrap.offset_from_wrapped_DeltaFromWrapped</title>
<path fill="none" stroke="black" d="M637.25,-287.7C648.12,-279.05 661.45,-268.45 673.29,-259.03"/>
<polygon fill="black" stroke="black" points="675.17,-262.01 680.81,-253.05 670.81,-256.53 675.17,-262.01"/>
</g>
<!-- FrameBounds -->
<g id="node4" class="node">
<title>FrameBounds</title>
<polygon fill="none" stroke="black" points="468.5,-324 352.5,-324 352.5,-288 468.5,-288 468.5,-324"/>
<text text-anchor="middle" x="410.5" y="-302.3" font-family="Times,serif" font-size="14.00">FrameBounds</text>
</g>
<!-- FrameBounds&#45;&gt;scippneutron.tof.unwrap.offset_from_wrapped_DeltaFromWrapped -->
<g id="edge2" class="edge">
<title>FrameBounds&#45;&gt;scippneutron.tof.unwrap.offset_from_wrapped_DeltaFromWrapped</title>
<path fill="none" stroke="black" d="M468.74,-291.09C515.75,-279.85 582.09,-264 632.27,-252.02"/>
<polygon fill="black" stroke="black" points="632.97,-255.45 641.89,-249.72 631.35,-248.64 632.97,-255.45"/>
</g>
<!-- FramePeriod -->
<g id="node5" class="node">
<title>FramePeriod</title>
<polygon fill="none" stroke="black" points="860,-324 751,-324 751,-288 860,-288 860,-324"/>
<text text-anchor="middle" x="805.5" y="-302.3" font-family="Times,serif" font-size="14.00">FramePeriod</text>
</g>
<!-- FramePeriod&#45;&gt;scippneutron.tof.unwrap.offset_from_wrapped_DeltaFromWrapped -->
<g id="edge3" class="edge">
<title>FramePeriod&#45;&gt;scippneutron.tof.unwrap.offset_from_wrapped_DeltaFromWrapped</title>
<path fill="none" stroke="black" d="M780.02,-287.52C767.08,-278.63 751.18,-267.72 737.23,-258.15"/>
<polygon fill="black" stroke="black" points="739.42,-255.41 729.2,-252.63 735.46,-261.18 739.42,-255.41"/>
</g>
<!-- scippneutron.tof.unwrap.unwrap_data_UnwrappedData -->
<g id="node21" class="node">
<title>scippneutron.tof.unwrap.unwrap_data_UnwrappedData</title>
<ellipse fill="none" stroke="black" cx="1021.5" cy="-90" rx="70.69" ry="18"/>
<text text-anchor="middle" x="1021.5" y="-86.3" font-family="Times,serif" font-size="14.00">unwrap_data</text>
</g>
<!-- DeltaFromWrapped&#45;&gt;scippneutron.tof.unwrap.unwrap_data_UnwrappedData -->
<g id="edge21" class="edge">
<title>DeltaFromWrapped&#45;&gt;scippneutron.tof.unwrap.unwrap_data_UnwrappedData</title>
<path fill="none" stroke="black" d="M981.6,-143.7C987.63,-135.73 994.92,-126.1 1001.61,-117.26"/>
<polygon fill="black" stroke="black" points="1004.39,-119.4 1007.64,-109.31 998.81,-115.17 1004.39,-119.4"/>
</g>
<!-- FrameAtDetector -->
<g id="node11" class="node">
<title>FrameAtDetector</title>
<polygon fill="none" stroke="black" points="419,-468 278,-468 278,-432 419,-432 419,-468"/>
<text text-anchor="middle" x="348.5" y="-446.3" font-family="Times,serif" font-size="14.00">FrameAtDetector</text>
</g>
<!-- scippneutron.tof.unwrap.frame_at_detector_FrameAtDetector&#45;&gt;FrameAtDetector -->
<g id="edge9" class="edge">
<title>scippneutron.tof.unwrap.frame_at_detector_FrameAtDetector&#45;&gt;FrameAtDetector</title>
<path fill="none" stroke="black" d="M346.99,-503.7C347.2,-496.41 347.45,-487.73 347.68,-479.54"/>
<polygon fill="black" stroke="black" points="351.18,-479.71 347.97,-469.62 344.18,-479.51 351.18,-479.71"/>
</g>
<!-- SourceWavelengthRange -->
<g id="node8" class="node">
<title>SourceWavelengthRange</title>
<polygon fill="none" stroke="red" stroke-dasharray="5,2" points="195,-612 0,-612 0,-576 195,-576 195,-612"/>
<text text-anchor="middle" x="97.5" y="-590.3" font-family="Times,serif" font-size="14.00" fill="red">SourceWavelengthRange</text>
</g>
<!-- SourceWavelengthRange&#45;&gt;scippneutron.tof.unwrap.frame_at_detector_FrameAtDetector -->
<g id="edge5" class="edge">
<title>SourceWavelengthRange&#45;&gt;scippneutron.tof.unwrap.frame_at_detector_FrameAtDetector</title>
<path fill="none" stroke="black" d="M159.69,-575.52C197.71,-564.83 246.18,-551.2 284.22,-540.51"/>
<polygon fill="black" stroke="black" points="285.02,-543.92 293.7,-537.84 283.12,-537.18 285.02,-543.92"/>
</g>
<!-- SourceTimeRange -->
<g id="node9" class="node">
<title>SourceTimeRange</title>
<polygon fill="none" stroke="red" stroke-dasharray="5,2" points="359.5,-612 213.5,-612 213.5,-576 359.5,-576 359.5,-612"/>
<text text-anchor="middle" x="286.5" y="-590.3" font-family="Times,serif" font-size="14.00" fill="red">SourceTimeRange</text>
</g>
<!-- SourceTimeRange&#45;&gt;scippneutron.tof.unwrap.frame_at_detector_FrameAtDetector -->
<g id="edge6" class="edge">
<title>SourceTimeRange&#45;&gt;scippneutron.tof.unwrap.frame_at_detector_FrameAtDetector</title>
<path fill="none" stroke="black" d="M301.33,-575.7C308.31,-567.56 316.77,-557.69 324.47,-548.7"/>
<polygon fill="black" stroke="black" points="327,-551.12 330.85,-541.25 321.69,-546.57 327,-551.12"/>
</g>
<!-- Ltotal -->
<g id="node10" class="node">
<title>Ltotal</title>
<polygon fill="none" stroke="red" stroke-dasharray="5,2" points="437,-612 378,-612 378,-576 437,-576 437,-612"/>
<text text-anchor="middle" x="407.5" y="-590.3" font-family="Times,serif" font-size="14.00" fill="red">Ltotal</text>
</g>
<!-- Ltotal&#45;&gt;scippneutron.tof.unwrap.frame_at_detector_FrameAtDetector -->
<g id="edge8" class="edge">
<title>Ltotal&#45;&gt;scippneutron.tof.unwrap.frame_at_detector_FrameAtDetector</title>
<path fill="none" stroke="black" d="M392.42,-575.7C385.33,-567.56 376.73,-557.69 368.9,-548.7"/>
<polygon fill="black" stroke="black" points="371.61,-546.49 362.4,-541.25 366.33,-551.08 371.61,-546.49"/>
</g>
<!-- scippneutron.tof.unwrap.frame_bounds_FrameBounds -->
<g id="node12" class="node">
<title>scippneutron.tof.unwrap.frame_bounds_FrameBounds</title>
<ellipse fill="none" stroke="black" cx="365.5" cy="-378" rx="76.09" ry="18"/>
<text text-anchor="middle" x="365.5" y="-374.3" font-family="Times,serif" font-size="14.00">frame_bounds</text>
</g>
<!-- FrameAtDetector&#45;&gt;scippneutron.tof.unwrap.frame_bounds_FrameBounds -->
<g id="edge10" class="edge">
<title>FrameAtDetector&#45;&gt;scippneutron.tof.unwrap.frame_bounds_FrameBounds</title>
<path fill="none" stroke="black" d="M352.7,-431.7C354.49,-424.32 356.63,-415.52 358.64,-407.25"/>
<polygon fill="black" stroke="black" points="362.03,-408.12 360.99,-397.58 355.23,-406.47 362.03,-408.12"/>
</g>
<!-- scippneutron.tof.unwrap.frame_bounds_FrameBounds&#45;&gt;FrameBounds -->
<g id="edge11" class="edge">
<title>scippneutron.tof.unwrap.frame_bounds_FrameBounds&#45;&gt;FrameBounds</title>
<path fill="none" stroke="black" d="M376.62,-359.7C381.69,-351.81 387.8,-342.3 393.43,-333.55"/>
<polygon fill="black" stroke="black" points="396.22,-335.68 398.69,-325.38 390.33,-331.9 396.22,-335.68"/>
</g>
<!-- scippneutron.tof.unwrap.frame_period_FramePeriod -->
<g id="node13" class="node">
<title>scippneutron.tof.unwrap.frame_period_FramePeriod</title>
<ellipse fill="none" stroke="black" cx="832.5" cy="-378" rx="72.29" ry="18"/>
<text text-anchor="middle" x="832.5" y="-374.3" font-family="Times,serif" font-size="14.00">frame_period</text>
</g>
<!-- scippneutron.tof.unwrap.frame_period_FramePeriod&#45;&gt;FramePeriod -->
<g id="edge14" class="edge">
<title>scippneutron.tof.unwrap.frame_period_FramePeriod&#45;&gt;FramePeriod</title>
<path fill="none" stroke="black" d="M825.83,-359.7C822.92,-352.15 819.43,-343.12 816.18,-334.68"/>
<polygon fill="black" stroke="black" points="819.51,-333.59 812.64,-325.52 812.98,-336.11 819.51,-333.59"/>
</g>
<!-- PulsePeriod -->
<g id="node14" class="node">
<title>PulsePeriod</title>
<polygon fill="none" stroke="red" stroke-dasharray="5,2" points="883,-468 782,-468 782,-432 883,-432 883,-468"/>
<text text-anchor="middle" x="832.5" y="-446.3" font-family="Times,serif" font-size="14.00" fill="red">PulsePeriod</text>
</g>
<!-- PulsePeriod&#45;&gt;scippneutron.tof.unwrap.frame_period_FramePeriod -->
<g id="edge12" class="edge">
<title>PulsePeriod&#45;&gt;scippneutron.tof.unwrap.frame_period_FramePeriod</title>
<path fill="none" stroke="black" d="M832.5,-431.7C832.5,-424.41 832.5,-415.73 832.5,-407.54"/>
<polygon fill="black" stroke="black" points="836,-407.62 832.5,-397.62 829,-407.62 836,-407.62"/>
</g>
<!-- PulseStride -->
<g id="node15" class="node">
<title>PulseStride</title>
<polygon fill="none" stroke="black" points="1002.5,-468 902.5,-468 902.5,-432 1002.5,-432 1002.5,-468"/>
<text text-anchor="middle" x="952.5" y="-446.3" font-family="Times,serif" font-size="14.00">PulseStride</text>
</g>
<!-- PulseStride&#45;&gt;scippneutron.tof.unwrap.frame_period_FramePeriod -->
<g id="edge13" class="edge">
<title>PulseStride&#45;&gt;scippneutron.tof.unwrap.frame_period_FramePeriod</title>
<path fill="none" stroke="black" d="M922.53,-431.52C906.51,-422.17 886.65,-410.59 869.66,-400.68"/>
<polygon fill="black" stroke="black" points="871.75,-397.84 861.34,-395.83 868.22,-403.89 871.75,-397.84"/>
</g>
<!-- scippneutron.tof.unwrap.frame_wrapped_time_offset_FrameWrappedTimeOffset -->
<g id="node16" class="node">
<title>scippneutron.tof.unwrap.frame_wrapped_time_offset_FrameWrappedTimeOffset</title>
<ellipse fill="none" stroke="black" cx="601.5" cy="-378" rx="138.38" ry="18"/>
<text text-anchor="middle" x="601.5" y="-374.3" font-family="Times,serif" font-size="14.00">frame_wrapped_time_offset</text>
</g>
<!-- scippneutron.tof.unwrap.frame_wrapped_time_offset_FrameWrappedTimeOffset&#45;&gt;FrameWrappedTimeOffset -->
<g id="edge16" class="edge">
<title>scippneutron.tof.unwrap.frame_wrapped_time_offset_FrameWrappedTimeOffset&#45;&gt;FrameWrappedTimeOffset</title>
<path fill="none" stroke="black" d="M604.96,-359.7C606.44,-352.32 608.2,-343.52 609.85,-335.25"/>
<polygon fill="black" stroke="black" points="613.25,-336.08 611.78,-325.59 606.39,-334.71 613.25,-336.08"/>
</g>
<!-- PulseWrappedTimeOffset -->
<g id="node17" class="node">
<title>PulseWrappedTimeOffset</title>
<polygon fill="none" stroke="black" points="697,-468 500,-468 500,-432 697,-432 697,-468"/>
<text text-anchor="middle" x="598.5" y="-446.3" font-family="Times,serif" font-size="14.00">PulseWrappedTimeOffset</text>
</g>
<!-- PulseWrappedTimeOffset&#45;&gt;scippneutron.tof.unwrap.frame_wrapped_time_offset_FrameWrappedTimeOffset -->
<g id="edge15" class="edge">
<title>PulseWrappedTimeOffset&#45;&gt;scippneutron.tof.unwrap.frame_wrapped_time_offset_FrameWrappedTimeOffset</title>
<path fill="none" stroke="black" d="M599.24,-431.7C599.55,-424.41 599.93,-415.73 600.28,-407.54"/>
<polygon fill="black" stroke="black" points="603.77,-407.76 600.7,-397.62 596.78,-407.46 603.77,-407.76"/>
</g>
<!-- sciline.provide_none_PulseStride -->
<g id="node18" class="node">
<title>sciline.provide_none_PulseStride</title>
<ellipse fill="none" stroke="black" cx="961.5" cy="-522" rx="211.76" ry="18"/>
<text text-anchor="middle" x="961.5" y="-518.3" font-family="Times,serif" font-size="14.00">Provider.provide_none.&lt;locals&gt;.&lt;lambda&gt;</text>
</g>
<!-- sciline.provide_none_PulseStride&#45;&gt;PulseStride -->
<g id="edge17" class="edge">
<title>sciline.provide_none_PulseStride&#45;&gt;PulseStride</title>
<path fill="none" stroke="black" d="M959.28,-503.7C958.33,-496.32 957.2,-487.52 956.13,-479.25"/>
<polygon fill="black" stroke="black" points="959.64,-479.08 954.89,-469.61 952.7,-479.97 959.64,-479.08"/>
</g>
<!-- scippneutron.tof.unwrap.pulse_wrapped_time_offset_PulseWrappedTimeOffset -->
<g id="node19" class="node">
<title>scippneutron.tof.unwrap.pulse_wrapped_time_offset_PulseWrappedTimeOffset</title>
<ellipse fill="none" stroke="black" cx="595.5" cy="-522" rx="135.68" ry="18"/>
<text text-anchor="middle" x="595.5" y="-518.3" font-family="Times,serif" font-size="14.00">pulse_wrapped_time_offset</text>
</g>
<!-- scippneutron.tof.unwrap.pulse_wrapped_time_offset_PulseWrappedTimeOffset&#45;&gt;PulseWrappedTimeOffset -->
<g id="edge19" class="edge">
<title>scippneutron.tof.unwrap.pulse_wrapped_time_offset_PulseWrappedTimeOffset&#45;&gt;PulseWrappedTimeOffset</title>
<path fill="none" stroke="black" d="M596.24,-503.7C596.55,-496.41 596.93,-487.73 597.28,-479.54"/>
<polygon fill="black" stroke="black" points="600.77,-479.76 597.7,-469.62 593.78,-479.46 600.77,-479.76"/>
</g>
<!-- RawData -->
<g id="node20" class="node">
<title>RawData</title>
<polygon fill="none" stroke="red" stroke-dasharray="5,2" points="910,-612 829,-612 829,-576 910,-576 910,-612"/>
<text text-anchor="middle" x="869.5" y="-590.3" font-family="Times,serif" font-size="14.00" fill="red">RawData</text>
</g>
<!-- RawData&#45;&gt;scippneutron.tof.unwrap.pulse_wrapped_time_offset_PulseWrappedTimeOffset -->
<g id="edge18" class="edge">
<title>RawData&#45;&gt;scippneutron.tof.unwrap.pulse_wrapped_time_offset_PulseWrappedTimeOffset</title>
<path fill="none" stroke="black" d="M828.78,-582.6C786.28,-571.74 718.78,-554.5 667.3,-541.34"/>
<polygon fill="black" stroke="black" points="668.27,-537.98 657.71,-538.89 666.54,-544.76 668.27,-537.98"/>
</g>
<!-- RawData&#45;&gt;scippneutron.tof.unwrap.unwrap_data_UnwrappedData -->
<g id="edge20" class="edge">
<title>RawData&#45;&gt;scippneutron.tof.unwrap.unwrap_data_UnwrappedData</title>
<path fill="none" stroke="black" d="M910.36,-591.62C986.11,-588.21 1144.15,-576.75 1182.5,-540 1211.7,-512.02 1201.5,-491.45 1201.5,-451 1201.5,-451 1201.5,-451 1201.5,-233 1201.5,-168.58 1129.55,-128.86 1076.63,-108.35"/>
<polygon fill="black" stroke="black" points="1078.01,-105.13 1067.41,-104.91 1075.56,-111.69 1078.01,-105.13"/>
</g>
<!-- UnwrappedData -->
<g id="node22" class="node">
<title>UnwrappedData</title>
<polygon fill="none" stroke="black" points="1088.5,-36 954.5,-36 954.5,0 1088.5,0 1088.5,-36"/>
<text text-anchor="middle" x="1021.5" y="-14.3" font-family="Times,serif" font-size="14.00">UnwrappedData</text>
</g>
<!-- scippneutron.tof.unwrap.unwrap_data_UnwrappedData&#45;&gt;UnwrappedData -->
<g id="edge22" class="edge">
<title>scippneutron.tof.unwrap.unwrap_data_UnwrappedData&#45;&gt;UnwrappedData</title>
<path fill="none" stroke="black" d="M1021.5,-71.7C1021.5,-64.41 1021.5,-55.73 1021.5,-47.54"/>
<polygon fill="black" stroke="black" points="1025,-47.62 1021.5,-37.62 1018,-47.62 1025,-47.62"/>
</g>
</g>
</svg>
