<?xml version="1.0" encoding="UTF-8" standalone="no"?>
<!DOCTYPE svg PUBLIC "-//W3C//DTD SVG 1.1//EN"
 "http://www.w3.org/Graphics/SVG/1.1/DTD/svg11.dtd">
<!-- Generated by graphviz version 14.0.4 (20251117.0720)
 -->
<!-- Pages: 1 -->
<svg width="850pt" height="340pt"
 viewBox="0.00 0.00 850.00 340.00" xmlns="http://www.w3.org/2000/svg" xmlns:xlink="http://www.w3.org/1999/xlink">
<g id="graph0" class="graph" transform="scale(1 1) rotate(0) translate(4 335.5)">
<polygon fill="white" stroke="none" points="-4,4 -4,-335.5 846.25,-335.5 846.25,4 -4,4"/>
<!-- tof -->
<g id="node1" class="node">
<title>tof</title>
<polygon fill="none" stroke="black" points="498.25,-331.5 444.25,-331.5 444.25,-306.25 498.25,-306.25 498.25,-331.5"/>
<text xml:space="preserve" text-anchor="middle" x="471.25" y="-314.2" font-family="Times,serif" font-size="14.00">tof</text>
</g>
<!-- dspacing -->
<g id="node2" class="node">
<title>dspacing</title>
<polygon fill="none" stroke="black" points="117.12,-270.25 37.38,-270.25 37.38,-245 117.12,-245 117.12,-270.25"/>
<text xml:space="preserve" text-anchor="middle" x="77.25" y="-252.95" font-family="Times,serif" font-size="14.00">dspacing</text>
</g>
<!-- tof&#45;&gt;dspacing -->
<g id="edge1" class="edge">
<title>tof&#45;&gt;dspacing</title>
<path fill="none" stroke="black" d="M443.82,-314.99C386.95,-308.82 251.85,-293.18 128.68,-270.58"/>
<polygon fill="black" stroke="black" points="129.52,-267.17 119.05,-268.79 128.24,-274.06 129.52,-267.17"/>
</g>
<!-- energy -->
<g id="node5" class="node">
<title>energy</title>
<polygon fill="none" stroke="black" points="348,-270.25 282.5,-270.25 282.5,-245 348,-245 348,-270.25"/>
<text xml:space="preserve" text-anchor="middle" x="315.25" y="-252.95" font-family="Times,serif" font-size="14.00">energy</text>
</g>
<!-- tof&#45;&gt;energy -->
<g id="edge4" class="edge">
<title>tof&#45;&gt;energy</title>
<path fill="none" stroke="black" d="M444.08,-307.55C420.19,-298.48 385.03,-285.13 357.47,-274.66"/>
<polygon fill="black" stroke="black" points="358.95,-271.48 348.36,-271.2 356.47,-278.02 358.95,-271.48"/>
</g>
<!-- wavelength -->
<g id="node15" class="node">
<title>wavelength</title>
<polygon fill="none" stroke="black" points="602.5,-270.25 504,-270.25 504,-245 602.5,-245 602.5,-270.25"/>
<text xml:space="preserve" text-anchor="middle" x="553.25" y="-252.95" font-family="Times,serif" font-size="14.00">wavelength</text>
</g>
<!-- tof&#45;&gt;wavelength -->
<g id="edge28" class="edge">
<title>tof&#45;&gt;wavelength</title>
<path fill="none" stroke="black" d="M487.84,-305.88C499.18,-297.69 514.43,-286.67 527.36,-277.34"/>
<polygon fill="black" stroke="black" points="529.4,-280.18 535.45,-271.48 525.3,-274.5 529.4,-280.18"/>
</g>
<!-- time_at_sample -->
<g id="node23" class="node">
<title>time_at_sample</title>
<polygon fill="none" stroke="black" points="792.75,-209 665.75,-209 665.75,-183.75 792.75,-183.75 792.75,-209"/>
<text xml:space="preserve" text-anchor="middle" x="729.25" y="-191.7" font-family="Times,serif" font-size="14.00">time_at_sample</text>
</g>
<!-- tof&#45;&gt;time_at_sample -->
<g id="edge31" class="edge">
<title>tof&#45;&gt;time_at_sample</title>
<path fill="none" stroke="black" d="M498.53,-310.58C527.28,-302.44 573.51,-288.04 611.25,-270.25 644.6,-254.53 680.27,-231.54 703.55,-215.6"/>
<polygon fill="black" stroke="black" points="705.26,-218.68 711.49,-210.11 701.27,-212.93 705.26,-218.68"/>
</g>
<!-- Ltotal -->
<g id="node3" class="node">
<title>Ltotal</title>
<polygon fill="none" stroke="black" points="344.25,-331.5 286.25,-331.5 286.25,-306.25 344.25,-306.25 344.25,-331.5"/>
<text xml:space="preserve" text-anchor="middle" x="315.25" y="-314.2" font-family="Times,serif" font-size="14.00">Ltotal</text>
</g>
<!-- Ltotal&#45;&gt;dspacing -->
<g id="edge2" class="edge">
<title>Ltotal&#45;&gt;dspacing</title>
<path fill="none" stroke="black" d="M286.07,-310.61C246.88,-300.85 176.63,-283.37 128.52,-271.39"/>
<polygon fill="black" stroke="black" points="129.42,-268.01 118.87,-268.99 127.73,-274.8 129.42,-268.01"/>
</g>
<!-- Ltotal&#45;&gt;energy -->
<g id="edge5" class="edge">
<title>Ltotal&#45;&gt;energy</title>
<path fill="none" stroke="black" d="M315.25,-305.88C315.25,-298.98 315.25,-290.06 315.25,-281.84"/>
<polygon fill="black" stroke="black" points="318.75,-282.11 315.25,-272.11 311.75,-282.11 318.75,-282.11"/>
</g>
<!-- Ltotal&#45;&gt;wavelength -->
<g id="edge29" class="edge">
<title>Ltotal&#45;&gt;wavelength</title>
<path fill="none" stroke="black" d="M344.43,-310.61C381.44,-301.4 446.14,-285.29 493.74,-273.44"/>
<polygon fill="black" stroke="black" points="494.51,-276.86 503.37,-271.04 492.82,-270.06 494.51,-276.86"/>
</g>
<!-- two_theta -->
<g id="node4" class="node">
<title>two_theta</title>
<polygon fill="none" stroke="black" points="86.5,-331.5 0,-331.5 0,-306.25 86.5,-306.25 86.5,-331.5"/>
<text xml:space="preserve" text-anchor="middle" x="43.25" y="-314.2" font-family="Times,serif" font-size="14.00">two_theta</text>
</g>
<!-- two_theta&#45;&gt;dspacing -->
<g id="edge3" class="edge">
<title>two_theta&#45;&gt;dspacing</title>
<path fill="none" stroke="black" d="M50.13,-305.88C54.32,-298.58 59.81,-289.02 64.75,-280.41"/>
<polygon fill="black" stroke="black" points="67.69,-282.33 69.63,-271.91 61.61,-278.84 67.69,-282.33"/>
</g>
<!-- Q -->
<g id="node16" class="node">
<title>Q</title>
<polygon fill="none" stroke="black" points="137.25,-209 83.25,-209 83.25,-183.75 137.25,-183.75 137.25,-209"/>
<text xml:space="preserve" text-anchor="middle" x="110.25" y="-191.7" font-family="Times,serif" font-size="14.00">Q</text>
</g>
<!-- two_theta&#45;&gt;Q -->
<g id="edge15" class="edge">
<title>two_theta&#45;&gt;Q</title>
<path fill="none" stroke="black" d="M36.03,-305.97C27.87,-290.84 17.1,-264.37 28.25,-245 37.82,-228.38 55.66,-217.02 72.26,-209.58"/>
<polygon fill="black" stroke="black" points="73.55,-212.84 81.49,-205.82 70.91,-206.35 73.55,-212.84"/>
</g>
<!-- Q_vec -->
<g id="node6" class="node">
<title>Q_vec</title>
<polygon fill="none" stroke="black" points="416.25,-147.75 358.25,-147.75 358.25,-122.5 416.25,-122.5 416.25,-147.75"/>
<text xml:space="preserve" text-anchor="middle" x="387.25" y="-130.45" font-family="Times,serif" font-size="14.00">Q_vec</text>
</g>
<!-- hkl_vec -->
<g id="node7" class="node">
<title>hkl_vec</title>
<polygon fill="none" stroke="black" points="545.5,-86.5 477,-86.5 477,-61.25 545.5,-61.25 545.5,-86.5"/>
<text xml:space="preserve" text-anchor="middle" x="511.25" y="-69.2" font-family="Times,serif" font-size="14.00">hkl_vec</text>
</g>
<!-- Q_vec&#45;&gt;hkl_vec -->
<g id="edge6" class="edge">
<title>Q_vec&#45;&gt;hkl_vec</title>
<path fill="none" stroke="black" d="M412.34,-122.13C430.66,-113.38 455.74,-101.4 476.06,-91.69"/>
<polygon fill="black" stroke="black" points="477.31,-94.97 484.83,-87.5 474.3,-88.65 477.31,-94.97"/>
</g>
<!-- h -->
<g id="node10" class="node">
<title>h</title>
<polygon fill="none" stroke="black" points="466.25,-25.25 412.25,-25.25 412.25,0 466.25,0 466.25,-25.25"/>
<text xml:space="preserve" text-anchor="middle" x="439.25" y="-7.95" font-family="Times,serif" font-size="14.00">h</text>
</g>
<!-- hkl_vec&#45;&gt;h -->
<g id="edge9" class="edge">
<title>hkl_vec&#45;&gt;h</title>
<path fill="none" stroke="black" d="M496.68,-60.88C486.92,-52.85 473.86,-42.1 462.66,-32.89"/>
<polygon fill="black" stroke="black" points="464.91,-30.21 454.97,-26.56 460.46,-35.62 464.91,-30.21"/>
</g>
<!-- k -->
<g id="node11" class="node">
<title>k</title>
<polygon fill="none" stroke="black" points="538.25,-25.25 484.25,-25.25 484.25,0 538.25,0 538.25,-25.25"/>
<text xml:space="preserve" text-anchor="middle" x="511.25" y="-7.95" font-family="Times,serif" font-size="14.00">k</text>
</g>
<!-- hkl_vec&#45;&gt;k -->
<g id="edge10" class="edge">
<title>hkl_vec&#45;&gt;k</title>
<path fill="none" stroke="black" d="M511.25,-60.88C511.25,-53.98 511.25,-45.06 511.25,-36.84"/>
<polygon fill="black" stroke="black" points="514.75,-37.11 511.25,-27.11 507.75,-37.11 514.75,-37.11"/>
</g>
<!-- l -->
<g id="node12" class="node">
<title>l</title>
<polygon fill="none" stroke="black" points="610.25,-25.25 556.25,-25.25 556.25,0 610.25,0 610.25,-25.25"/>
<text xml:space="preserve" text-anchor="middle" x="583.25" y="-7.95" font-family="Times,serif" font-size="14.00">l</text>
</g>
<!-- hkl_vec&#45;&gt;l -->
<g id="edge11" class="edge">
<title>hkl_vec&#45;&gt;l</title>
<path fill="none" stroke="black" d="M525.82,-60.88C535.58,-52.85 548.64,-42.1 559.84,-32.89"/>
<polygon fill="black" stroke="black" points="562.04,-35.62 567.53,-26.56 557.59,-30.21 562.04,-35.62"/>
</g>
<!-- ub_matrix -->
<g id="node8" class="node">
<title>ub_matrix</title>
<polygon fill="none" stroke="black" points="555.25,-147.75 467.25,-147.75 467.25,-122.5 555.25,-122.5 555.25,-147.75"/>
<text xml:space="preserve" text-anchor="middle" x="511.25" y="-130.45" font-family="Times,serif" font-size="14.00">ub_matrix</text>
</g>
<!-- ub_matrix&#45;&gt;hkl_vec -->
<g id="edge7" class="edge">
<title>ub_matrix&#45;&gt;hkl_vec</title>
<path fill="none" stroke="black" d="M511.25,-122.13C511.25,-115.23 511.25,-106.31 511.25,-98.09"/>
<polygon fill="black" stroke="black" points="514.75,-98.36 511.25,-88.36 507.75,-98.36 514.75,-98.36"/>
</g>
<!-- sample_rotation -->
<g id="node9" class="node">
<title>sample_rotation</title>
<polygon fill="none" stroke="black" points="703.62,-147.75 572.88,-147.75 572.88,-122.5 703.62,-122.5 703.62,-147.75"/>
<text xml:space="preserve" text-anchor="middle" x="638.25" y="-130.45" font-family="Times,serif" font-size="14.00">sample_rotation</text>
</g>
<!-- sample_rotation&#45;&gt;hkl_vec -->
<g id="edge8" class="edge">
<title>sample_rotation&#45;&gt;hkl_vec</title>
<path fill="none" stroke="black" d="M612.55,-122.13C593.79,-113.38 568.1,-101.4 547.29,-91.69"/>
<polygon fill="black" stroke="black" points="548.83,-88.54 538.28,-87.49 545.87,-94.89 548.83,-88.54"/>
</g>
<!-- u_matrix -->
<g id="node13" class="node">
<title>u_matrix</title>
<polygon fill="none" stroke="black" points="647.75,-209 568.75,-209 568.75,-183.75 647.75,-183.75 647.75,-209"/>
<text xml:space="preserve" text-anchor="middle" x="608.25" y="-191.7" font-family="Times,serif" font-size="14.00">u_matrix</text>
</g>
<!-- u_matrix&#45;&gt;ub_matrix -->
<g id="edge12" class="edge">
<title>u_matrix&#45;&gt;ub_matrix</title>
<path fill="none" stroke="black" d="M588.62,-183.38C574.82,-174.95 556.1,-163.52 540.54,-154.02"/>
<polygon fill="black" stroke="black" points="542.5,-151.11 532.14,-148.89 538.85,-157.09 542.5,-151.11"/>
</g>
<!-- b_matrix -->
<g id="node14" class="node">
<title>b_matrix</title>
<polygon fill="none" stroke="black" points="550.75,-209 471.75,-209 471.75,-183.75 550.75,-183.75 550.75,-209"/>
<text xml:space="preserve" text-anchor="middle" x="511.25" y="-191.7" font-family="Times,serif" font-size="14.00">b_matrix</text>
</g>
<!-- b_matrix&#45;&gt;ub_matrix -->
<g id="edge13" class="edge">
<title>b_matrix&#45;&gt;ub_matrix</title>
<path fill="none" stroke="black" d="M511.25,-183.38C511.25,-176.48 511.25,-167.56 511.25,-159.34"/>
<polygon fill="black" stroke="black" points="514.75,-159.61 511.25,-149.61 507.75,-159.61 514.75,-159.61"/>
</g>
<!-- wavelength&#45;&gt;Q -->
<g id="edge14" class="edge">
<title>wavelength&#45;&gt;Q</title>
<path fill="none" stroke="black" d="M503.62,-246.42C500.79,-245.92 497.99,-245.44 495.25,-245 368.92,-224.56 218.03,-208.22 148.63,-201.16"/>
<polygon fill="black" stroke="black" points="149.23,-197.71 138.93,-200.18 148.53,-204.67 149.23,-197.71"/>
</g>
<!-- Qx -->
<g id="node17" class="node">
<title>Qx</title>
<polygon fill="none" stroke="black" points="309.25,-209 255.25,-209 255.25,-183.75 309.25,-183.75 309.25,-209"/>
<text xml:space="preserve" text-anchor="middle" x="282.25" y="-191.7" font-family="Times,serif" font-size="14.00">Qx</text>
</g>
<!-- wavelength&#45;&gt;Qx -->
<g id="edge19" class="edge">
<title>wavelength&#45;&gt;Qx</title>
<path fill="none" stroke="black" d="M503.76,-246.67C445.67,-234.97 353.75,-216.43 320.74,-209.16"/>
<polygon fill="black" stroke="black" points="321.68,-205.79 311.15,-206.93 320.09,-212.61 321.68,-205.79"/>
</g>
<!-- Qy -->
<g id="node18" class="node">
<title>Qy</title>
<polygon fill="none" stroke="black" points="381.25,-209 327.25,-209 327.25,-183.75 381.25,-183.75 381.25,-209"/>
<text xml:space="preserve" text-anchor="middle" x="354.25" y="-191.7" font-family="Times,serif" font-size="14.00">Qy</text>
</g>
<!-- wavelength&#45;&gt;Qy -->
<g id="edge22" class="edge">
<title>wavelength&#45;&gt;Qy</title>
<path fill="none" stroke="black" d="M510.6,-244.52C480.1,-235.78 437.82,-223.51 392.66,-209.69"/>
<polygon fill="black" stroke="black" points="393.78,-206.38 383.19,-206.78 391.72,-213.07 393.78,-206.38"/>
</g>
<!-- Qz -->
<g id="node19" class="node">
<title>Qz</title>
<polygon fill="none" stroke="black" points="453.25,-209 399.25,-209 399.25,-183.75 453.25,-183.75 453.25,-209"/>
<text xml:space="preserve" text-anchor="middle" x="426.25" y="-191.7" font-family="Times,serif" font-size="14.00">Qz</text>
</g>
<!-- wavelength&#45;&gt;Qz -->
<g id="edge25" class="edge">
<title>wavelength&#45;&gt;Qz</title>
<path fill="none" stroke="black" d="M527.55,-244.63C508.79,-235.88 483.1,-223.9 462.29,-214.19"/>
<polygon fill="black" stroke="black" points="463.83,-211.04 453.28,-209.99 460.87,-217.39 463.83,-211.04"/>
</g>
<!-- wavelength&#45;&gt;time_at_sample -->
<g id="edge33" class="edge">
<title>wavelength&#45;&gt;time_at_sample</title>
<path fill="none" stroke="black" d="M588.87,-244.63C615.85,-235.55 653.17,-222.99 682.55,-213.1"/>
<polygon fill="black" stroke="black" points="683.59,-216.44 691.95,-209.93 681.36,-209.81 683.59,-216.44"/>
</g>
<!-- Qx&#45;&gt;Q_vec -->
<g id="edge16" class="edge">
<title>Qx&#45;&gt;Q_vec</title>
<path fill="none" stroke="black" d="M303.5,-183.38C318.58,-174.87 339.08,-163.3 356.02,-153.74"/>
<polygon fill="black" stroke="black" points="357.73,-156.8 364.72,-148.84 354.29,-150.71 357.73,-156.8"/>
</g>
<!-- Qy&#45;&gt;Q_vec -->
<g id="edge17" class="edge">
<title>Qy&#45;&gt;Q_vec</title>
<path fill="none" stroke="black" d="M360.93,-183.38C365,-176.08 370.32,-166.52 375.12,-157.91"/>
<polygon fill="black" stroke="black" points="378.04,-159.86 379.85,-149.42 371.92,-156.45 378.04,-159.86"/>
</g>
<!-- Qz&#45;&gt;Q_vec -->
<g id="edge18" class="edge">
<title>Qz&#45;&gt;Q_vec</title>
<path fill="none" stroke="black" d="M418.36,-183.38C413.49,-176 407.12,-166.31 401.4,-157.63"/>
<polygon fill="black" stroke="black" points="404.38,-155.79 395.96,-149.36 398.54,-159.64 404.38,-155.79"/>
</g>
<!-- incident_beam -->
<g id="node20" class="node">
<title>incident_beam</title>
<polygon fill="none" stroke="black" points="486,-270.25 366.5,-270.25 366.5,-245 486,-245 486,-270.25"/>
<text xml:space="preserve" text-anchor="middle" x="426.25" y="-252.95" font-family="Times,serif" font-size="14.00">incident_beam</text>
</g>
<!-- incident_beam&#45;&gt;Qx -->
<g id="edge20" class="edge">
<title>incident_beam&#45;&gt;Qx</title>
<path fill="none" stroke="black" d="M397.11,-244.63C374.87,-235.49 344.06,-222.81 319.95,-212.89"/>
<polygon fill="black" stroke="black" points="321.38,-209.69 310.8,-209.12 318.71,-216.16 321.38,-209.69"/>
</g>
<!-- incident_beam&#45;&gt;Qy -->
<g id="edge23" class="edge">
<title>incident_beam&#45;&gt;Qy</title>
<path fill="none" stroke="black" d="M411.68,-244.63C401.92,-236.6 388.86,-225.85 377.66,-216.64"/>
<polygon fill="black" stroke="black" points="379.91,-213.96 369.97,-210.31 375.46,-219.37 379.91,-213.96"/>
</g>
<!-- incident_beam&#45;&gt;Qz -->
<g id="edge26" class="edge">
<title>incident_beam&#45;&gt;Qz</title>
<path fill="none" stroke="black" d="M426.25,-244.63C426.25,-237.73 426.25,-228.81 426.25,-220.59"/>
<polygon fill="black" stroke="black" points="429.75,-220.86 426.25,-210.86 422.75,-220.86 429.75,-220.86"/>
</g>
<!-- scattered_beam -->
<g id="node21" class="node">
<title>scattered_beam</title>
<polygon fill="none" stroke="black" points="264.88,-270.25 135.62,-270.25 135.62,-245 264.88,-245 264.88,-270.25"/>
<text xml:space="preserve" text-anchor="middle" x="200.25" y="-252.95" font-family="Times,serif" font-size="14.00">scattered_beam</text>
</g>
<!-- scattered_beam&#45;&gt;Qx -->
<g id="edge21" class="edge">
<title>scattered_beam&#45;&gt;Qx</title>
<path fill="none" stroke="black" d="M216.84,-244.63C228.18,-236.44 243.43,-225.42 256.36,-216.09"/>
<polygon fill="black" stroke="black" points="258.4,-218.93 264.45,-210.23 254.3,-213.25 258.4,-218.93"/>
</g>
<!-- scattered_beam&#45;&gt;Qy -->
<g id="edge24" class="edge">
<title>scattered_beam&#45;&gt;Qy</title>
<path fill="none" stroke="black" d="M231.41,-244.63C255.95,-235.2 290.24,-222 316.36,-211.95"/>
<polygon fill="black" stroke="black" points="317.51,-215.26 325.59,-208.4 315,-208.73 317.51,-215.26"/>
</g>
<!-- scattered_beam&#45;&gt;Qz -->
<g id="edge27" class="edge">
<title>scattered_beam&#45;&gt;Qz</title>
<path fill="none" stroke="black" d="M252.51,-244.52C288.28,-236.01 337,-223.98 387.9,-209.56"/>
<polygon fill="black" stroke="black" points="388.68,-212.98 397.34,-206.87 386.76,-206.25 388.68,-212.98"/>
</g>
<!-- pulse_time -->
<g id="node22" class="node">
<title>pulse_time</title>
<polygon fill="none" stroke="black" points="769.88,-270.25 676.62,-270.25 676.62,-245 769.88,-245 769.88,-270.25"/>
<text xml:space="preserve" text-anchor="middle" x="723.25" y="-252.95" font-family="Times,serif" font-size="14.00">pulse_time</text>
</g>
<!-- pulse_time&#45;&gt;time_at_sample -->
<g id="edge30" class="edge">
<title>pulse_time&#45;&gt;time_at_sample</title>
<path fill="none" stroke="black" d="M724.46,-244.63C725.16,-237.73 726.07,-228.81 726.9,-220.59"/>
<polygon fill="black" stroke="black" points="730.36,-221.15 727.89,-210.85 723.4,-220.45 730.36,-221.15"/>
</g>
<!-- L2 -->
<g id="node24" class="node">
<title>L2</title>
<polygon fill="none" stroke="black" points="842.25,-270.25 788.25,-270.25 788.25,-245 842.25,-245 842.25,-270.25"/>
<text xml:space="preserve" text-anchor="middle" x="815.25" y="-252.95" font-family="Times,serif" font-size="14.00">L2</text>
</g>
<!-- L2&#45;&gt;time_at_sample -->
<g id="edge32" class="edge">
<title>L2&#45;&gt;time_at_sample</title>
<path fill="none" stroke="black" d="M797.85,-244.63C785.84,-236.36 769.65,-225.21 756.01,-215.81"/>
<polygon fill="black" stroke="black" points="758.09,-213 747.87,-210.21 754.12,-218.76 758.09,-213"/>
</g>
</g>
</svg>
