<?xml version="1.0" encoding="utf-8" standalone="no"?>
<!DOCTYPE svg PUBLIC "-//W3C//DTD SVG 1.1//EN"
  "http://www.w3.org/Graphics/SVG/1.1/DTD/svg11.dtd">
<svg xmlns:xlink="http://www.w3.org/1999/xlink" width="395.328125pt" height="268.200625pt" viewBox="0 0 395.328125 268.200625" xmlns="http://www.w3.org/2000/svg" version="1.1">
 <metadata>
  <rdf:RDF xmlns:dc="http://purl.org/dc/elements/1.1/" xmlns:cc="http://creativecommons.org/ns#" xmlns:rdf="http://www.w3.org/1999/02/22-rdf-syntax-ns#">
   <cc:Work>
    <dc:type rdf:resource="http://purl.org/dc/dcmitype/StillImage"/>
    <dc:date>2024-12-12T12:32:17.075443</dc:date>
    <dc:format>image/svg+xml</dc:format>
    <dc:creator>
     <cc:Agent>
      <dc:title>Matplotlib v3.7.3, https://matplotlib.org/</dc:title>
     </cc:Agent>
    </dc:creator>
   </cc:Work>
  </rdf:RDF>
 </metadata>
 <defs>
  <style type="text/css">*{stroke-linejoin: round; stroke-linecap: butt}</style>
 </defs>
 <g id="figure_1">
  <g id="patch_1">
   <path d="M 0 268.200625 
L 395.328125 268.200625 
L 395.328125 0 
L 0 0 
z
" style="fill: #ffffff"/>
  </g>
  <g id="axes_1">
   <g id="patch_2">
    <path d="M 53.328125 228.96 
L 388.128125 228.96 
L 388.128125 7.2 
L 53.328125 7.2 
z
" style="fill: #ffffff"/>
   </g>
   <g id="matplotlib.axis_1">
    <g id="xtick_1">
     <g id="line2d_1">
      <defs>
       <path id="m02a8d8336c" d="M 0 0 
L 0 3.5 
" style="stroke: #000000; stroke-width: 0.8"/>
      </defs>
      <g>
       <use xlink:href="#m02a8d8336c" x="68.546307" y="228.96" style="stroke: #000000; stroke-width: 0.8"/>
      </g>
     </g>
     <g id="text_1">
      <!-- 2 -->
      <g transform="translate(65.365057 243.558437) scale(0.1 -0.1)">
       <defs>
        <path id="DejaVuSans-32" d="M 1228 531 
L 3431 531 
L 3431 0 
L 469 0 
L 469 531 
Q 828 903 1448 1529 
Q 2069 2156 2228 2338 
Q 2531 2678 2651 2914 
Q 2772 3150 2772 3378 
Q 2772 3750 2511 3984 
Q 2250 4219 1831 4219 
Q 1534 4219 1204 4116 
Q 875 4013 500 3803 
L 500 4441 
Q 881 4594 1212 4672 
Q 1544 4750 1819 4750 
Q 2544 4750 2975 4387 
Q 3406 4025 3406 3419 
Q 3406 3131 3298 2873 
Q 3191 2616 2906 2266 
Q 2828 2175 2409 1742 
Q 1991 1309 1228 531 
z
" transform="scale(0.015625)"/>
       </defs>
       <use xlink:href="#DejaVuSans-32"/>
      </g>
     </g>
    </g>
    <g id="xtick_2">
     <g id="line2d_2">
      <g>
       <use xlink:href="#m02a8d8336c" x="106.591761" y="228.96" style="stroke: #000000; stroke-width: 0.8"/>
      </g>
     </g>
     <g id="text_2">
      <!-- 3 -->
      <g transform="translate(103.410511 243.558437) scale(0.1 -0.1)">
       <defs>
        <path id="DejaVuSans-33" d="M 2597 2516 
Q 3050 2419 3304 2112 
Q 3559 1806 3559 1356 
Q 3559 666 3084 287 
Q 2609 -91 1734 -91 
Q 1441 -91 1130 -33 
Q 819 25 488 141 
L 488 750 
Q 750 597 1062 519 
Q 1375 441 1716 441 
Q 2309 441 2620 675 
Q 2931 909 2931 1356 
Q 2931 1769 2642 2001 
Q 2353 2234 1838 2234 
L 1294 2234 
L 1294 2753 
L 1863 2753 
Q 2328 2753 2575 2939 
Q 2822 3125 2822 3475 
Q 2822 3834 2567 4026 
Q 2313 4219 1838 4219 
Q 1578 4219 1281 4162 
Q 984 4106 628 3988 
L 628 4550 
Q 988 4650 1302 4700 
Q 1616 4750 1894 4750 
Q 2613 4750 3031 4423 
Q 3450 4097 3450 3541 
Q 3450 3153 3228 2886 
Q 3006 2619 2597 2516 
z
" transform="scale(0.015625)"/>
       </defs>
       <use xlink:href="#DejaVuSans-33"/>
      </g>
     </g>
    </g>
    <g id="xtick_3">
     <g id="line2d_3">
      <g>
       <use xlink:href="#m02a8d8336c" x="144.637216" y="228.96" style="stroke: #000000; stroke-width: 0.8"/>
      </g>
     </g>
     <g id="text_3">
      <!-- 4 -->
      <g transform="translate(141.455966 243.558437) scale(0.1 -0.1)">
       <defs>
        <path id="DejaVuSans-34" d="M 2419 4116 
L 825 1625 
L 2419 1625 
L 2419 4116 
z
M 2253 4666 
L 3047 4666 
L 3047 1625 
L 3713 1625 
L 3713 1100 
L 3047 1100 
L 3047 0 
L 2419 0 
L 2419 1100 
L 313 1100 
L 313 1709 
L 2253 4666 
z
" transform="scale(0.015625)"/>
       </defs>
       <use xlink:href="#DejaVuSans-34"/>
      </g>
     </g>
    </g>
    <g id="xtick_4">
     <g id="line2d_4">
      <g>
       <use xlink:href="#m02a8d8336c" x="182.68267" y="228.96" style="stroke: #000000; stroke-width: 0.8"/>
      </g>
     </g>
     <g id="text_4">
      <!-- 5 -->
      <g transform="translate(179.50142 243.558437) scale(0.1 -0.1)">
       <defs>
        <path id="DejaVuSans-35" d="M 691 4666 
L 3169 4666 
L 3169 4134 
L 1269 4134 
L 1269 2991 
Q 1406 3038 1543 3061 
Q 1681 3084 1819 3084 
Q 2600 3084 3056 2656 
Q 3513 2228 3513 1497 
Q 3513 744 3044 326 
Q 2575 -91 1722 -91 
Q 1428 -91 1123 -41 
Q 819 9 494 109 
L 494 744 
Q 775 591 1075 516 
Q 1375 441 1709 441 
Q 2250 441 2565 725 
Q 2881 1009 2881 1497 
Q 2881 1984 2565 2268 
Q 2250 2553 1709 2553 
Q 1456 2553 1204 2497 
Q 953 2441 691 2322 
L 691 4666 
z
" transform="scale(0.015625)"/>
       </defs>
       <use xlink:href="#DejaVuSans-35"/>
      </g>
     </g>
    </g>
    <g id="xtick_5">
     <g id="line2d_5">
      <g>
       <use xlink:href="#m02a8d8336c" x="220.728125" y="228.96" style="stroke: #000000; stroke-width: 0.8"/>
      </g>
     </g>
     <g id="text_5">
      <!-- 6 -->
      <g transform="translate(217.546875 243.558437) scale(0.1 -0.1)">
       <defs>
        <path id="DejaVuSans-36" d="M 2113 2584 
Q 1688 2584 1439 2293 
Q 1191 2003 1191 1497 
Q 1191 994 1439 701 
Q 1688 409 2113 409 
Q 2538 409 2786 701 
Q 3034 994 3034 1497 
Q 3034 2003 2786 2293 
Q 2538 2584 2113 2584 
z
M 3366 4563 
L 3366 3988 
Q 3128 4100 2886 4159 
Q 2644 4219 2406 4219 
Q 1781 4219 1451 3797 
Q 1122 3375 1075 2522 
Q 1259 2794 1537 2939 
Q 1816 3084 2150 3084 
Q 2853 3084 3261 2657 
Q 3669 2231 3669 1497 
Q 3669 778 3244 343 
Q 2819 -91 2113 -91 
Q 1303 -91 875 529 
Q 447 1150 447 2328 
Q 447 3434 972 4092 
Q 1497 4750 2381 4750 
Q 2619 4750 2861 4703 
Q 3103 4656 3366 4563 
z
" transform="scale(0.015625)"/>
       </defs>
       <use xlink:href="#DejaVuSans-36"/>
      </g>
     </g>
    </g>
    <g id="xtick_6">
     <g id="line2d_6">
      <g>
       <use xlink:href="#m02a8d8336c" x="258.77358" y="228.96" style="stroke: #000000; stroke-width: 0.8"/>
      </g>
     </g>
     <g id="text_6">
      <!-- 7 -->
      <g transform="translate(255.59233 243.558437) scale(0.1 -0.1)">
       <defs>
        <path id="DejaVuSans-37" d="M 525 4666 
L 3525 4666 
L 3525 4397 
L 1831 0 
L 1172 0 
L 2766 4134 
L 525 4134 
L 525 4666 
z
" transform="scale(0.015625)"/>
       </defs>
       <use xlink:href="#DejaVuSans-37"/>
      </g>
     </g>
    </g>
    <g id="xtick_7">
     <g id="line2d_7">
      <g>
       <use xlink:href="#m02a8d8336c" x="296.819034" y="228.96" style="stroke: #000000; stroke-width: 0.8"/>
      </g>
     </g>
     <g id="text_7">
      <!-- 8 -->
      <g transform="translate(293.637784 243.558437) scale(0.1 -0.1)">
       <defs>
        <path id="DejaVuSans-38" d="M 2034 2216 
Q 1584 2216 1326 1975 
Q 1069 1734 1069 1313 
Q 1069 891 1326 650 
Q 1584 409 2034 409 
Q 2484 409 2743 651 
Q 3003 894 3003 1313 
Q 3003 1734 2745 1975 
Q 2488 2216 2034 2216 
z
M 1403 2484 
Q 997 2584 770 2862 
Q 544 3141 544 3541 
Q 544 4100 942 4425 
Q 1341 4750 2034 4750 
Q 2731 4750 3128 4425 
Q 3525 4100 3525 3541 
Q 3525 3141 3298 2862 
Q 3072 2584 2669 2484 
Q 3125 2378 3379 2068 
Q 3634 1759 3634 1313 
Q 3634 634 3220 271 
Q 2806 -91 2034 -91 
Q 1263 -91 848 271 
Q 434 634 434 1313 
Q 434 1759 690 2068 
Q 947 2378 1403 2484 
z
M 1172 3481 
Q 1172 3119 1398 2916 
Q 1625 2713 2034 2713 
Q 2441 2713 2670 2916 
Q 2900 3119 2900 3481 
Q 2900 3844 2670 4047 
Q 2441 4250 2034 4250 
Q 1625 4250 1398 4047 
Q 1172 3844 1172 3481 
z
" transform="scale(0.015625)"/>
       </defs>
       <use xlink:href="#DejaVuSans-38"/>
      </g>
     </g>
    </g>
    <g id="xtick_8">
     <g id="line2d_8">
      <g>
       <use xlink:href="#m02a8d8336c" x="334.864489" y="228.96" style="stroke: #000000; stroke-width: 0.8"/>
      </g>
     </g>
     <g id="text_8">
      <!-- 9 -->
      <g transform="translate(331.683239 243.558437) scale(0.1 -0.1)">
       <defs>
        <path id="DejaVuSans-39" d="M 703 97 
L 703 672 
Q 941 559 1184 500 
Q 1428 441 1663 441 
Q 2288 441 2617 861 
Q 2947 1281 2994 2138 
Q 2813 1869 2534 1725 
Q 2256 1581 1919 1581 
Q 1219 1581 811 2004 
Q 403 2428 403 3163 
Q 403 3881 828 4315 
Q 1253 4750 1959 4750 
Q 2769 4750 3195 4129 
Q 3622 3509 3622 2328 
Q 3622 1225 3098 567 
Q 2575 -91 1691 -91 
Q 1453 -91 1209 -44 
Q 966 3 703 97 
z
M 1959 2075 
Q 2384 2075 2632 2365 
Q 2881 2656 2881 3163 
Q 2881 3666 2632 3958 
Q 2384 4250 1959 4250 
Q 1534 4250 1286 3958 
Q 1038 3666 1038 3163 
Q 1038 2656 1286 2365 
Q 1534 2075 1959 2075 
z
" transform="scale(0.015625)"/>
       </defs>
       <use xlink:href="#DejaVuSans-39"/>
      </g>
     </g>
    </g>
    <g id="xtick_9">
     <g id="line2d_9">
      <g>
       <use xlink:href="#m02a8d8336c" x="372.909943" y="228.96" style="stroke: #000000; stroke-width: 0.8"/>
      </g>
     </g>
     <g id="text_9">
      <!-- 10 -->
      <g transform="translate(366.547443 243.558437) scale(0.1 -0.1)">
       <defs>
        <path id="DejaVuSans-31" d="M 794 531 
L 1825 531 
L 1825 4091 
L 703 3866 
L 703 4441 
L 1819 4666 
L 2450 4666 
L 2450 531 
L 3481 531 
L 3481 0 
L 794 0 
L 794 531 
z
" transform="scale(0.015625)"/>
        <path id="DejaVuSans-30" d="M 2034 4250 
Q 1547 4250 1301 3770 
Q 1056 3291 1056 2328 
Q 1056 1369 1301 889 
Q 1547 409 2034 409 
Q 2525 409 2770 889 
Q 3016 1369 3016 2328 
Q 3016 3291 2770 3770 
Q 2525 4250 2034 4250 
z
M 2034 4750 
Q 2819 4750 3233 4129 
Q 3647 3509 3647 2328 
Q 3647 1150 3233 529 
Q 2819 -91 2034 -91 
Q 1250 -91 836 529 
Q 422 1150 422 2328 
Q 422 3509 836 4129 
Q 1250 4750 2034 4750 
z
" transform="scale(0.015625)"/>
       </defs>
       <use xlink:href="#DejaVuSans-31"/>
       <use xlink:href="#DejaVuSans-30" x="63.623047"/>
      </g>
     </g>
    </g>
    <g id="text_10">
     <!-- wavelength [Å] -->
     <g transform="translate(182.690625 258.920937) scale(0.1 -0.1)">
      <defs>
       <path id="DejaVuSans-77" d="M 269 3500 
L 844 3500 
L 1563 769 
L 2278 3500 
L 2956 3500 
L 3675 769 
L 4391 3500 
L 4966 3500 
L 4050 0 
L 3372 0 
L 2619 2869 
L 1863 0 
L 1184 0 
L 269 3500 
z
" transform="scale(0.015625)"/>
       <path id="DejaVuSans-61" d="M 2194 1759 
Q 1497 1759 1228 1600 
Q 959 1441 959 1056 
Q 959 750 1161 570 
Q 1363 391 1709 391 
Q 2188 391 2477 730 
Q 2766 1069 2766 1631 
L 2766 1759 
L 2194 1759 
z
M 3341 1997 
L 3341 0 
L 2766 0 
L 2766 531 
Q 2569 213 2275 61 
Q 1981 -91 1556 -91 
Q 1019 -91 701 211 
Q 384 513 384 1019 
Q 384 1609 779 1909 
Q 1175 2209 1959 2209 
L 2766 2209 
L 2766 2266 
Q 2766 2663 2505 2880 
Q 2244 3097 1772 3097 
Q 1472 3097 1187 3025 
Q 903 2953 641 2809 
L 641 3341 
Q 956 3463 1253 3523 
Q 1550 3584 1831 3584 
Q 2591 3584 2966 3190 
Q 3341 2797 3341 1997 
z
" transform="scale(0.015625)"/>
       <path id="DejaVuSans-76" d="M 191 3500 
L 800 3500 
L 1894 563 
L 2988 3500 
L 3597 3500 
L 2284 0 
L 1503 0 
L 191 3500 
z
" transform="scale(0.015625)"/>
       <path id="DejaVuSans-65" d="M 3597 1894 
L 3597 1613 
L 953 1613 
Q 991 1019 1311 708 
Q 1631 397 2203 397 
Q 2534 397 2845 478 
Q 3156 559 3463 722 
L 3463 178 
Q 3153 47 2828 -22 
Q 2503 -91 2169 -91 
Q 1331 -91 842 396 
Q 353 884 353 1716 
Q 353 2575 817 3079 
Q 1281 3584 2069 3584 
Q 2775 3584 3186 3129 
Q 3597 2675 3597 1894 
z
M 3022 2063 
Q 3016 2534 2758 2815 
Q 2500 3097 2075 3097 
Q 1594 3097 1305 2825 
Q 1016 2553 972 2059 
L 3022 2063 
z
" transform="scale(0.015625)"/>
       <path id="DejaVuSans-6c" d="M 603 4863 
L 1178 4863 
L 1178 0 
L 603 0 
L 603 4863 
z
" transform="scale(0.015625)"/>
       <path id="DejaVuSans-6e" d="M 3513 2113 
L 3513 0 
L 2938 0 
L 2938 2094 
Q 2938 2591 2744 2837 
Q 2550 3084 2163 3084 
Q 1697 3084 1428 2787 
Q 1159 2491 1159 1978 
L 1159 0 
L 581 0 
L 581 3500 
L 1159 3500 
L 1159 2956 
Q 1366 3272 1645 3428 
Q 1925 3584 2291 3584 
Q 2894 3584 3203 3211 
Q 3513 2838 3513 2113 
z
" transform="scale(0.015625)"/>
       <path id="DejaVuSans-67" d="M 2906 1791 
Q 2906 2416 2648 2759 
Q 2391 3103 1925 3103 
Q 1463 3103 1205 2759 
Q 947 2416 947 1791 
Q 947 1169 1205 825 
Q 1463 481 1925 481 
Q 2391 481 2648 825 
Q 2906 1169 2906 1791 
z
M 3481 434 
Q 3481 -459 3084 -895 
Q 2688 -1331 1869 -1331 
Q 1566 -1331 1297 -1286 
Q 1028 -1241 775 -1147 
L 775 -588 
Q 1028 -725 1275 -790 
Q 1522 -856 1778 -856 
Q 2344 -856 2625 -561 
Q 2906 -266 2906 331 
L 2906 616 
Q 2728 306 2450 153 
Q 2172 0 1784 0 
Q 1141 0 747 490 
Q 353 981 353 1791 
Q 353 2603 747 3093 
Q 1141 3584 1784 3584 
Q 2172 3584 2450 3431 
Q 2728 3278 2906 2969 
L 2906 3500 
L 3481 3500 
L 3481 434 
z
" transform="scale(0.015625)"/>
       <path id="DejaVuSans-74" d="M 1172 4494 
L 1172 3500 
L 2356 3500 
L 2356 3053 
L 1172 3053 
L 1172 1153 
Q 1172 725 1289 603 
Q 1406 481 1766 481 
L 2356 481 
L 2356 0 
L 1766 0 
Q 1100 0 847 248 
Q 594 497 594 1153 
L 594 3053 
L 172 3053 
L 172 3500 
L 594 3500 
L 594 4494 
L 1172 4494 
z
" transform="scale(0.015625)"/>
       <path id="DejaVuSans-68" d="M 3513 2113 
L 3513 0 
L 2938 0 
L 2938 2094 
Q 2938 2591 2744 2837 
Q 2550 3084 2163 3084 
Q 1697 3084 1428 2787 
Q 1159 2491 1159 1978 
L 1159 0 
L 581 0 
L 581 4863 
L 1159 4863 
L 1159 2956 
Q 1366 3272 1645 3428 
Q 1925 3584 2291 3584 
Q 2894 3584 3203 3211 
Q 3513 2838 3513 2113 
z
" transform="scale(0.015625)"/>
       <path id="DejaVuSans-20" transform="scale(0.015625)"/>
       <path id="DejaVuSans-5b" d="M 550 4863 
L 1875 4863 
L 1875 4416 
L 1125 4416 
L 1125 -397 
L 1875 -397 
L 1875 -844 
L 550 -844 
L 550 4863 
z
" transform="scale(0.015625)"/>
       <path id="DejaVuSans-c5" d="M 2663 5081 
Q 2663 5278 2523 5417 
Q 2384 5556 2188 5556 
Q 1988 5556 1852 5420 
Q 1716 5284 1716 5081 
Q 1716 4884 1853 4746 
Q 1991 4609 2188 4609 
Q 2384 4609 2523 4746 
Q 2663 4884 2663 5081 
z
M 2188 4044 
L 1338 1722 
L 3041 1722 
L 2188 4044 
z
M 1716 4366 
Q 1525 4494 1428 4673 
Q 1331 4853 1331 5081 
Q 1331 5441 1579 5691 
Q 1828 5941 2188 5941 
Q 2544 5941 2795 5689 
Q 3047 5438 3047 5081 
Q 3047 4863 2948 4678 
Q 2850 4494 2663 4366 
L 4325 0 
L 3669 0 
L 3244 1197 
L 1141 1197 
L 716 0 
L 50 0 
L 1716 4366 
z
" transform="scale(0.015625)"/>
       <path id="DejaVuSans-5d" d="M 1947 4863 
L 1947 -844 
L 622 -844 
L 622 -397 
L 1369 -397 
L 1369 4416 
L 622 4416 
L 622 4863 
L 1947 4863 
z
" transform="scale(0.015625)"/>
      </defs>
      <use xlink:href="#DejaVuSans-77"/>
      <use xlink:href="#DejaVuSans-61" x="81.787109"/>
      <use xlink:href="#DejaVuSans-76" x="143.066406"/>
      <use xlink:href="#DejaVuSans-65" x="202.246094"/>
      <use xlink:href="#DejaVuSans-6c" x="263.769531"/>
      <use xlink:href="#DejaVuSans-65" x="291.552734"/>
      <use xlink:href="#DejaVuSans-6e" x="353.076172"/>
      <use xlink:href="#DejaVuSans-67" x="416.455078"/>
      <use xlink:href="#DejaVuSans-74" x="479.931641"/>
      <use xlink:href="#DejaVuSans-68" x="519.140625"/>
      <use xlink:href="#DejaVuSans-20" x="582.519531"/>
      <use xlink:href="#DejaVuSans-5b" x="614.306641"/>
      <use xlink:href="#DejaVuSans-c5" x="653.320312"/>
      <use xlink:href="#DejaVuSans-5d" x="721.728516"/>
     </g>
    </g>
   </g>
   <g id="matplotlib.axis_2">
    <g id="ytick_1">
     <g id="line2d_10">
      <defs>
       <path id="mf309f1ffdd" d="M 0 0 
L -3.5 0 
" style="stroke: #000000; stroke-width: 0.8"/>
      </defs>
      <g>
       <use xlink:href="#mf309f1ffdd" x="53.328125" y="218.88" style="stroke: #000000; stroke-width: 0.8"/>
      </g>
     </g>
     <g id="text_11">
      <!-- 0 -->
      <g transform="translate(39.965625 222.679219) scale(0.1 -0.1)">
       <use xlink:href="#DejaVuSans-30"/>
      </g>
     </g>
    </g>
    <g id="ytick_2">
     <g id="line2d_11">
      <g>
       <use xlink:href="#mf309f1ffdd" x="53.328125" y="180.683714" style="stroke: #000000; stroke-width: 0.8"/>
      </g>
     </g>
     <g id="text_12">
      <!-- 500 -->
      <g transform="translate(27.240625 184.482932) scale(0.1 -0.1)">
       <use xlink:href="#DejaVuSans-35"/>
       <use xlink:href="#DejaVuSans-30" x="63.623047"/>
       <use xlink:href="#DejaVuSans-30" x="127.246094"/>
      </g>
     </g>
    </g>
    <g id="ytick_3">
     <g id="line2d_12">
      <g>
       <use xlink:href="#mf309f1ffdd" x="53.328125" y="142.487427" style="stroke: #000000; stroke-width: 0.8"/>
      </g>
     </g>
     <g id="text_13">
      <!-- 1000 -->
      <g transform="translate(20.878125 146.286646) scale(0.1 -0.1)">
       <use xlink:href="#DejaVuSans-31"/>
       <use xlink:href="#DejaVuSans-30" x="63.623047"/>
       <use xlink:href="#DejaVuSans-30" x="127.246094"/>
       <use xlink:href="#DejaVuSans-30" x="190.869141"/>
      </g>
     </g>
    </g>
    <g id="ytick_4">
     <g id="line2d_13">
      <g>
       <use xlink:href="#mf309f1ffdd" x="53.328125" y="104.291141" style="stroke: #000000; stroke-width: 0.8"/>
      </g>
     </g>
     <g id="text_14">
      <!-- 1500 -->
      <g transform="translate(20.878125 108.090359) scale(0.1 -0.1)">
       <use xlink:href="#DejaVuSans-31"/>
       <use xlink:href="#DejaVuSans-35" x="63.623047"/>
       <use xlink:href="#DejaVuSans-30" x="127.246094"/>
       <use xlink:href="#DejaVuSans-30" x="190.869141"/>
      </g>
     </g>
    </g>
    <g id="ytick_5">
     <g id="line2d_14">
      <g>
       <use xlink:href="#mf309f1ffdd" x="53.328125" y="66.094854" style="stroke: #000000; stroke-width: 0.8"/>
      </g>
     </g>
     <g id="text_15">
      <!-- 2000 -->
      <g transform="translate(20.878125 69.894073) scale(0.1 -0.1)">
       <use xlink:href="#DejaVuSans-32"/>
       <use xlink:href="#DejaVuSans-30" x="63.623047"/>
       <use xlink:href="#DejaVuSans-30" x="127.246094"/>
       <use xlink:href="#DejaVuSans-30" x="190.869141"/>
      </g>
     </g>
    </g>
    <g id="ytick_6">
     <g id="line2d_15">
      <g>
       <use xlink:href="#mf309f1ffdd" x="53.328125" y="27.898568" style="stroke: #000000; stroke-width: 0.8"/>
      </g>
     </g>
     <g id="text_16">
      <!-- 2500 -->
      <g transform="translate(20.878125 31.697786) scale(0.1 -0.1)">
       <use xlink:href="#DejaVuSans-32"/>
       <use xlink:href="#DejaVuSans-35" x="63.623047"/>
       <use xlink:href="#DejaVuSans-30" x="127.246094"/>
       <use xlink:href="#DejaVuSans-30" x="190.869141"/>
      </g>
     </g>
    </g>
    <g id="text_17">
     <!-- [counts] -->
     <g transform="translate(14.798438 138.6925) rotate(-90) scale(0.1 -0.1)">
      <defs>
       <path id="DejaVuSans-63" d="M 3122 3366 
L 3122 2828 
Q 2878 2963 2633 3030 
Q 2388 3097 2138 3097 
Q 1578 3097 1268 2742 
Q 959 2388 959 1747 
Q 959 1106 1268 751 
Q 1578 397 2138 397 
Q 2388 397 2633 464 
Q 2878 531 3122 666 
L 3122 134 
Q 2881 22 2623 -34 
Q 2366 -91 2075 -91 
Q 1284 -91 818 406 
Q 353 903 353 1747 
Q 353 2603 823 3093 
Q 1294 3584 2113 3584 
Q 2378 3584 2631 3529 
Q 2884 3475 3122 3366 
z
" transform="scale(0.015625)"/>
       <path id="DejaVuSans-6f" d="M 1959 3097 
Q 1497 3097 1228 2736 
Q 959 2375 959 1747 
Q 959 1119 1226 758 
Q 1494 397 1959 397 
Q 2419 397 2687 759 
Q 2956 1122 2956 1747 
Q 2956 2369 2687 2733 
Q 2419 3097 1959 3097 
z
M 1959 3584 
Q 2709 3584 3137 3096 
Q 3566 2609 3566 1747 
Q 3566 888 3137 398 
Q 2709 -91 1959 -91 
Q 1206 -91 779 398 
Q 353 888 353 1747 
Q 353 2609 779 3096 
Q 1206 3584 1959 3584 
z
" transform="scale(0.015625)"/>
       <path id="DejaVuSans-75" d="M 544 1381 
L 544 3500 
L 1119 3500 
L 1119 1403 
Q 1119 906 1312 657 
Q 1506 409 1894 409 
Q 2359 409 2629 706 
Q 2900 1003 2900 1516 
L 2900 3500 
L 3475 3500 
L 3475 0 
L 2900 0 
L 2900 538 
Q 2691 219 2414 64 
Q 2138 -91 1772 -91 
Q 1169 -91 856 284 
Q 544 659 544 1381 
z
M 1991 3584 
L 1991 3584 
z
" transform="scale(0.015625)"/>
       <path id="DejaVuSans-73" d="M 2834 3397 
L 2834 2853 
Q 2591 2978 2328 3040 
Q 2066 3103 1784 3103 
Q 1356 3103 1142 2972 
Q 928 2841 928 2578 
Q 928 2378 1081 2264 
Q 1234 2150 1697 2047 
L 1894 2003 
Q 2506 1872 2764 1633 
Q 3022 1394 3022 966 
Q 3022 478 2636 193 
Q 2250 -91 1575 -91 
Q 1294 -91 989 -36 
Q 684 19 347 128 
L 347 722 
Q 666 556 975 473 
Q 1284 391 1588 391 
Q 1994 391 2212 530 
Q 2431 669 2431 922 
Q 2431 1156 2273 1281 
Q 2116 1406 1581 1522 
L 1381 1569 
Q 847 1681 609 1914 
Q 372 2147 372 2553 
Q 372 3047 722 3315 
Q 1072 3584 1716 3584 
Q 2034 3584 2315 3537 
Q 2597 3491 2834 3397 
z
" transform="scale(0.015625)"/>
      </defs>
      <use xlink:href="#DejaVuSans-5b"/>
      <use xlink:href="#DejaVuSans-63" x="39.013672"/>
      <use xlink:href="#DejaVuSans-6f" x="93.994141"/>
      <use xlink:href="#DejaVuSans-75" x="155.175781"/>
      <use xlink:href="#DejaVuSans-6e" x="218.554688"/>
      <use xlink:href="#DejaVuSans-74" x="281.933594"/>
      <use xlink:href="#DejaVuSans-73" x="321.142578"/>
      <use xlink:href="#DejaVuSans-5d" x="373.242188"/>
     </g>
    </g>
   </g>
   <g id="patch_3">
    <path d="M 53.328125 228.96 
L 53.328125 7.2 
" style="fill: none; stroke: #000000; stroke-width: 0.8; stroke-linejoin: miter; stroke-linecap: square"/>
   </g>
   <g id="patch_4">
    <path d="M 388.128125 228.96 
L 388.128125 7.2 
" style="fill: none; stroke: #000000; stroke-width: 0.8; stroke-linejoin: miter; stroke-linecap: square"/>
   </g>
   <g id="patch_5">
    <path d="M 53.328125 228.96 
L 388.128125 228.96 
" style="fill: none; stroke: #000000; stroke-width: 0.8; stroke-linejoin: miter; stroke-linecap: square"/>
   </g>
   <g id="patch_6">
    <path d="M 53.328125 7.2 
L 388.128125 7.2 
" style="fill: none; stroke: #000000; stroke-width: 0.8; stroke-linejoin: miter; stroke-linecap: square"/>
   </g>
   <g id="legend_1">
    <g id="patch_7">
     <path d="M 284.125 44.834375 
L 381.128125 44.834375 
Q 383.128125 44.834375 383.128125 42.834375 
L 383.128125 14.2 
Q 383.128125 12.2 381.128125 12.2 
L 284.125 12.2 
Q 282.125 12.2 282.125 14.2 
L 282.125 42.834375 
Q 282.125 44.834375 284.125 44.834375 
z
" style="fill: #ffffff; opacity: 0.8; stroke: #cccccc; stroke-linejoin: miter"/>
    </g>
    <g id="line2d_16">
     <path d="M 286.125 20.298437 
L 286.125 20.298437 
L 296.125 20.298437 
L 296.125 20.298437 
L 306.125 20.298437 
" style="fill: none; stroke: #1f77b4; stroke-width: 1.5; stroke-linecap: square"/>
    </g>
    <g id="text_18">
     <!-- wfm -->
     <g transform="translate(314.125 23.798437) scale(0.1 -0.1)">
      <defs>
       <path id="DejaVuSans-66" d="M 2375 4863 
L 2375 4384 
L 1825 4384 
Q 1516 4384 1395 4259 
Q 1275 4134 1275 3809 
L 1275 3500 
L 2222 3500 
L 2222 3053 
L 1275 3053 
L 1275 0 
L 697 0 
L 697 3053 
L 147 3053 
L 147 3500 
L 697 3500 
L 697 3744 
Q 697 4328 969 4595 
Q 1241 4863 1831 4863 
L 2375 4863 
z
" transform="scale(0.015625)"/>
       <path id="DejaVuSans-6d" d="M 3328 2828 
Q 3544 3216 3844 3400 
Q 4144 3584 4550 3584 
Q 5097 3584 5394 3201 
Q 5691 2819 5691 2113 
L 5691 0 
L 5113 0 
L 5113 2094 
Q 5113 2597 4934 2840 
Q 4756 3084 4391 3084 
Q 3944 3084 3684 2787 
Q 3425 2491 3425 1978 
L 3425 0 
L 2847 0 
L 2847 2094 
Q 2847 2600 2669 2842 
Q 2491 3084 2119 3084 
Q 1678 3084 1418 2786 
Q 1159 2488 1159 1978 
L 1159 0 
L 581 0 
L 581 3500 
L 1159 3500 
L 1159 2956 
Q 1356 3278 1631 3431 
Q 1906 3584 2284 3584 
Q 2666 3584 2933 3390 
Q 3200 3197 3328 2828 
z
" transform="scale(0.015625)"/>
      </defs>
      <use xlink:href="#DejaVuSans-77"/>
      <use xlink:href="#DejaVuSans-66" x="81.787109"/>
      <use xlink:href="#DejaVuSans-6d" x="116.992188"/>
     </g>
    </g>
    <g id="line2d_17">
     <path d="M 286.125 34.976562 
L 286.125 34.976562 
L 296.125 34.976562 
L 296.125 34.976562 
L 306.125 34.976562 
" style="fill: none; stroke: #ff7f0e; stroke-width: 1.5; stroke-linecap: square"/>
    </g>
    <g id="text_19">
     <!-- ground_truth -->
     <g transform="translate(314.125 38.476562) scale(0.1 -0.1)">
      <defs>
       <path id="DejaVuSans-72" d="M 2631 2963 
Q 2534 3019 2420 3045 
Q 2306 3072 2169 3072 
Q 1681 3072 1420 2755 
Q 1159 2438 1159 1844 
L 1159 0 
L 581 0 
L 581 3500 
L 1159 3500 
L 1159 2956 
Q 1341 3275 1631 3429 
Q 1922 3584 2338 3584 
Q 2397 3584 2469 3576 
Q 2541 3569 2628 3553 
L 2631 2963 
z
" transform="scale(0.015625)"/>
       <path id="DejaVuSans-64" d="M 2906 2969 
L 2906 4863 
L 3481 4863 
L 3481 0 
L 2906 0 
L 2906 525 
Q 2725 213 2448 61 
Q 2172 -91 1784 -91 
Q 1150 -91 751 415 
Q 353 922 353 1747 
Q 353 2572 751 3078 
Q 1150 3584 1784 3584 
Q 2172 3584 2448 3432 
Q 2725 3281 2906 2969 
z
M 947 1747 
Q 947 1113 1208 752 
Q 1469 391 1925 391 
Q 2381 391 2643 752 
Q 2906 1113 2906 1747 
Q 2906 2381 2643 2742 
Q 2381 3103 1925 3103 
Q 1469 3103 1208 2742 
Q 947 2381 947 1747 
z
" transform="scale(0.015625)"/>
       <path id="DejaVuSans-5f" d="M 3263 -1063 
L 3263 -1509 
L -63 -1509 
L -63 -1063 
L 3263 -1063 
z
" transform="scale(0.015625)"/>
      </defs>
      <use xlink:href="#DejaVuSans-67"/>
      <use xlink:href="#DejaVuSans-72" x="63.476562"/>
      <use xlink:href="#DejaVuSans-6f" x="102.339844"/>
      <use xlink:href="#DejaVuSans-75" x="163.521484"/>
      <use xlink:href="#DejaVuSans-6e" x="226.900391"/>
      <use xlink:href="#DejaVuSans-64" x="290.279297"/>
      <use xlink:href="#DejaVuSans-5f" x="353.755859"/>
      <use xlink:href="#DejaVuSans-74" x="403.755859"/>
      <use xlink:href="#DejaVuSans-72" x="442.964844"/>
      <use xlink:href="#DejaVuSans-75" x="484.078125"/>
      <use xlink:href="#DejaVuSans-74" x="547.457031"/>
      <use xlink:href="#DejaVuSans-68" x="586.666016"/>
     </g>
    </g>
   </g>
   <g id="line2d_18">
    <path d="M 68.546307 218.88 
L 69.560852 218.88 
L 69.560852 188.170186 
L 70.575398 188.170186 
L 70.575398 138.667798 
L 71.589943 138.667798 
L 71.589943 108.41634 
L 72.604489 108.41634 
L 72.604489 97.186631 
L 73.619034 97.186631 
L 73.619034 96.804668 
L 74.63358 96.804668 
L 74.63358 92.832255 
L 75.648125 92.832255 
L 75.648125 87.790345 
L 76.66267 87.790345 
L 76.66267 81.755332 
L 77.677216 81.755332 
L 77.677216 78.699629 
L 78.691761 78.699629 
L 78.691761 74.498037 
L 79.706307 74.498037 
L 79.706307 66.935172 
L 80.720852 66.935172 
L 80.720852 65.101751 
L 81.735398 65.101751 
L 81.735398 54.712361 
L 82.749943 54.712361 
L 82.749943 58.073634 
L 83.764489 58.073634 
L 83.764489 52.420584 
L 84.779034 52.420584 
L 84.779034 45.010504 
L 85.79358 45.010504 
L 85.79358 43.024297 
L 86.808125 43.024297 
L 86.808125 33.857188 
L 87.82267 33.857188 
L 87.82267 24.842865 
L 88.837216 24.842865 
L 88.837216 32.864085 
L 89.851761 32.864085 
L 89.851761 20.794058 
L 90.866307 20.794058 
L 90.866307 18.425889 
L 91.880852 18.425889 
L 91.880852 29.961167 
L 92.895398 29.961167 
L 92.895398 30.495915 
L 93.909943 30.495915 
L 93.909943 28.738886 
L 94.924489 28.738886 
L 94.924489 29.350027 
L 95.939034 29.350027 
L 95.939034 28.356923 
L 96.95358 28.356923 
L 96.95358 31.947374 
L 97.968125 31.947374 
L 97.968125 42.795119 
L 98.98267 42.795119 
L 98.98267 43.024297 
L 99.997216 43.024297 
L 99.997216 38.66992 
L 101.011761 38.66992 
L 101.011761 40.808912 
L 102.026307 40.808912 
L 102.026307 52.649761 
L 103.040852 52.649761 
L 103.040852 52.191406 
L 104.055398 52.191406 
L 104.055398 63.344721 
L 105.069943 63.344721 
L 105.069943 60.900159 
L 106.084489 60.900159 
L 106.084489 85.651353 
L 107.099034 85.651353 
L 107.099034 91.151618 
L 108.11358 91.151618 
L 108.11358 97.339416 
L 109.128125 97.339416 
L 109.128125 110.020584 
L 110.14267 110.020584 
L 110.14267 113.076286 
L 111.157216 113.076286 
L 111.157216 130.11183 
L 112.171761 130.11183 
L 112.171761 130.875756 
L 113.186307 130.875756 
L 113.186307 141.647109 
L 114.200852 141.647109 
L 114.200852 153.56435 
L 115.215398 153.56435 
L 115.215398 158.30069 
L 116.229943 158.30069 
L 116.229943 165.405199 
L 117.244489 165.405199 
L 117.244489 164.106525 
L 118.259034 164.106525 
L 118.259034 177.32244 
L 119.27358 177.32244 
L 119.27358 191.302281 
L 120.288125 191.302281 
L 120.288125 195.274695 
L 121.30267 195.274695 
L 121.30267 178.391936 
L 122.317216 178.391936 
L 122.317216 149.744721 
L 123.331761 149.744721 
L 123.331761 114.986101 
L 124.346307 114.986101 
L 124.346307 91.075225 
L 125.360852 91.075225 
L 125.360852 86.109708 
L 126.375398 86.109708 
L 126.375398 91.075225 
L 128.404489 91.075225 
L 128.404489 92.908647 
L 129.419034 92.908647 
L 129.419034 89.394589 
L 130.43358 89.394589 
L 130.43358 97.797772 
L 131.448125 97.797772 
L 131.448125 100.471512 
L 132.46267 100.471512 
L 132.46267 98.714483 
L 133.477216 98.714483 
L 133.477216 102.839682 
L 134.491761 102.839682 
L 134.491761 104.902281 
L 135.506307 104.902281 
L 135.506307 101.464615 
L 136.520852 101.464615 
L 136.520852 103.68 
L 137.535398 103.68 
L 137.535398 104.138355 
L 138.549943 104.138355 
L 138.549943 109.485836 
L 139.564489 109.485836 
L 139.564489 111.166472 
L 140.579034 111.166472 
L 140.579034 107.041273 
L 141.59358 107.041273 
L 141.59358 111.854005 
L 142.608125 111.854005 
L 142.608125 113.534642 
L 143.62267 113.534642 
L 143.62267 115.826419 
L 144.637216 115.826419 
L 144.637216 116.284775 
L 145.651761 116.284775 
L 145.651761 117.125093 
L 146.666307 117.125093 
L 146.666307 118.576552 
L 147.680852 118.576552 
L 147.680852 121.326684 
L 148.695398 121.326684 
L 148.695398 124.15321 
L 149.709943 124.15321 
L 149.709943 125.604668 
L 150.724489 125.604668 
L 150.724489 125.146313 
L 151.739034 125.146313 
L 151.739034 128.278408 
L 152.75358 128.278408 
L 152.75358 125.986631 
L 153.768125 125.986631 
L 153.768125 131.716074 
L 154.78267 131.716074 
L 154.78267 129.271512 
L 155.797216 129.271512 
L 155.797216 130.722971 
L 156.811761 130.722971 
L 156.811761 130.875756 
L 157.826307 130.875756 
L 157.826307 131.563289 
L 158.840852 131.563289 
L 158.840852 135.077347 
L 159.855398 135.077347 
L 159.855398 136.681592 
L 160.869943 136.681592 
L 160.869943 137.445517 
L 161.884489 137.445517 
L 161.884489 137.063554 
L 162.899034 137.063554 
L 162.899034 139.966472 
L 163.91358 139.966472 
L 163.91358 149.209973 
L 164.928125 149.209973 
L 164.928125 146.077878 
L 165.94267 146.077878 
L 165.94267 146.765411 
L 166.957216 146.765411 
L 166.957216 148.904403 
L 167.971761 148.904403 
L 167.971761 159.752149 
L 168.986307 159.752149 
L 168.986307 160.210504 
L 170.000852 160.210504 
L 170.000852 161.432785 
L 171.015398 161.432785 
L 171.015398 150.661432 
L 172.029943 150.661432 
L 172.029943 139.584509 
L 173.044489 139.584509 
L 173.044489 133.091141 
L 174.059034 133.091141 
L 174.059034 124.076817 
L 175.07358 124.076817 
L 175.07358 129.80626 
L 176.088125 129.80626 
L 176.088125 127.74366 
L 177.10267 127.74366 
L 177.10267 137.751088 
L 178.117216 137.751088 
L 178.117216 140.959576 
L 179.131761 140.959576 
L 179.131761 149.057188 
L 180.146307 149.057188 
L 180.146307 148.904403 
L 181.160852 148.904403 
L 181.160852 155.015809 
L 182.175398 155.015809 
L 182.175398 157.154801 
L 183.189943 157.154801 
L 183.189943 158.759045 
L 184.204489 158.759045 
L 184.204489 164.106525 
L 185.219034 164.106525 
L 185.219034 161.203607 
L 186.23358 161.203607 
L 186.23358 163.571777 
L 187.248125 163.571777 
L 187.248125 162.196711 
L 188.26267 162.196711 
L 188.26267 161.203607 
L 189.277216 161.203607 
L 189.277216 164.870451 
L 190.291761 164.870451 
L 190.291761 162.349496 
L 191.306307 162.349496 
L 191.306307 164.412095 
L 192.320852 164.412095 
L 192.320852 164.182918 
L 193.335398 164.182918 
L 193.335398 164.641273 
L 194.349943 164.641273 
L 194.349943 167.467798 
L 195.364489 167.467798 
L 195.364489 165.787162 
L 196.379034 165.787162 
L 196.379034 168.537294 
L 197.39358 168.537294 
L 197.39358 170.752679 
L 198.408125 170.752679 
L 198.408125 168.155332 
L 199.42267 168.155332 
L 199.42267 172.509708 
L 200.437216 172.509708 
L 200.437216 179.537825 
L 201.451761 179.537825 
L 201.451761 177.169655 
L 202.466307 177.169655 
L 202.466307 180.454536 
L 203.480852 180.454536 
L 203.480852 177.475225 
L 204.495398 177.475225 
L 204.495398 181.905995 
L 205.509943 181.905995 
L 205.509943 182.746313 
L 206.524489 182.746313 
L 206.524489 188.704934 
L 207.539034 188.704934 
L 207.539034 192.44817 
L 208.55358 192.44817 
L 208.55358 189.239682 
L 209.568125 189.239682 
L 209.568125 193.364881 
L 210.58267 193.364881 
L 210.58267 192.295385 
L 211.597216 192.295385 
L 211.597216 190.309178 
L 212.611761 190.309178 
L 212.611761 192.982918 
L 213.626307 192.982918 
L 213.626307 196.573369 
L 214.640852 196.573369 
L 214.640852 196.115013 
L 215.655398 196.115013 
L 215.655398 195.73305 
L 216.669943 195.73305 
L 216.669943 192.524562 
L 217.684489 192.524562 
L 217.684489 190.003607 
L 218.699034 190.003607 
L 218.699034 183.204668 
L 219.71358 183.204668 
L 219.71358 181.371247 
L 220.728125 181.371247 
L 220.728125 182.135172 
L 221.74267 182.135172 
L 221.74267 184.044987 
L 222.757216 184.044987 
L 222.757216 187.40626 
L 223.771761 187.40626 
L 223.771761 188.246578 
L 224.786307 188.246578 
L 224.786307 192.142599 
L 225.800852 192.142599 
L 225.800852 195.809443 
L 226.815398 195.809443 
L 226.815398 196.344191 
L 227.829943 196.344191 
L 227.829943 194.969125 
L 228.844489 194.969125 
L 228.844489 198.788753 
L 229.859034 198.788753 
L 229.859034 198.10122 
L 230.87358 198.10122 
L 230.87358 199.552679 
L 231.888125 199.552679 
L 231.888125 201.615279 
L 232.90267 201.615279 
L 232.90267 200.392997 
L 234.931761 200.392997 
L 234.931761 201.844456 
L 235.946307 201.844456 
L 235.946307 202.608382 
L 236.960852 202.608382 
L 236.960852 201.386101 
L 237.975398 201.386101 
L 237.975398 204.670981 
L 238.989943 204.670981 
L 238.989943 204.823767 
L 240.004489 204.823767 
L 240.004489 205.664085 
L 241.019034 205.664085 
L 241.019034 204.594589 
L 242.03358 204.594589 
L 242.03358 207.344721 
L 243.048125 207.344721 
L 243.048125 206.886366 
L 244.06267 206.886366 
L 244.06267 207.344721 
L 245.077216 207.344721 
L 245.077216 207.879469 
L 247.106307 207.955862 
L 247.106307 209.178143 
L 248.120852 209.178143 
L 248.120852 210.171247 
L 249.135398 210.171247 
L 249.135398 210.55321 
L 251.164489 210.55321 
L 251.164489 211.546313 
L 252.179034 211.546313 
L 252.179034 212.463024 
L 253.19358 212.463024 
L 253.19358 213.150557 
L 255.22267 213.22695 
L 255.22267 213.914483 
L 256.237216 213.914483 
L 256.237216 213.761698 
L 257.251761 213.761698 
L 257.251761 214.220053 
L 258.266307 214.220053 
L 258.266307 211.546313 
L 259.280852 211.546313 
L 259.280852 208.49061 
L 260.295398 208.49061 
L 260.295398 206.809973 
L 261.309943 206.809973 
L 261.309943 206.12244 
L 262.324489 206.12244 
L 262.324489 204.059841 
L 263.339034 204.059841 
L 263.339034 203.14313 
L 264.35358 203.14313 
L 264.35358 205.740477 
L 265.368125 205.740477 
L 265.368125 205.129337 
L 266.38267 205.129337 
L 266.38267 205.282122 
L 267.397216 205.282122 
L 267.397216 207.039151 
L 268.411761 207.039151 
L 268.411761 206.046048 
L 269.426307 206.046048 
L 269.426307 209.789284 
L 270.440852 209.789284 
L 270.440852 209.407321 
L 271.455398 209.407321 
L 271.455398 209.942069 
L 272.469943 209.942069 
L 272.469943 207.497507 
L 273.484489 207.497507 
L 273.484489 210.171247 
L 274.499034 210.171247 
L 274.499034 211.16435 
L 275.51358 211.16435 
L 275.51358 209.865676 
L 276.528125 209.865676 
L 276.528125 210.247639 
L 277.54267 210.247639 
L 277.54267 211.546313 
L 278.557216 211.546313 
L 278.557216 213.53252 
L 279.571761 213.53252 
L 279.571761 212.310239 
L 281.600852 212.310239 
L 281.600852 212.921379 
L 282.615398 212.921379 
L 282.615398 213.456127 
L 283.629943 213.456127 
L 283.629943 212.997772 
L 284.644489 212.997772 
L 284.644489 213.379735 
L 285.659034 213.379735 
L 285.659034 213.990875 
L 286.67358 213.990875 
L 286.67358 214.831194 
L 287.688125 214.831194 
L 287.688125 213.53252 
L 288.70267 213.53252 
L 288.70267 215.824297 
L 289.717216 215.824297 
L 289.717216 214.372838 
L 290.731761 214.372838 
L 290.731761 215.824297 
L 291.746307 215.824297 
L 291.746307 216.51183 
L 292.760852 216.51183 
L 292.760852 215.90069 
L 293.775398 215.90069 
L 293.775398 216.359045 
L 294.789943 216.359045 
L 294.789943 216.817401 
L 295.804489 216.817401 
L 295.804489 217.122971 
L 297.83358 217.199363 
L 297.83358 217.275756 
L 298.848125 217.275756 
L 298.848125 216.893793 
L 299.86267 216.893793 
L 299.86267 215.060371 
L 300.877216 215.060371 
L 300.877216 213.379735 
L 301.891761 213.379735 
L 301.891761 212.157454 
L 302.906307 212.157454 
L 302.906307 210.094854 
L 303.920852 210.094854 
L 303.920852 206.962759 
L 304.935398 206.962759 
L 304.935398 205.740477 
L 305.949943 205.740477 
L 305.949943 202.83756 
L 306.964489 202.83756 
L 306.964489 201.997241 
L 307.979034 201.997241 
L 307.979034 202.913952 
L 308.99358 202.913952 
L 308.99358 201.844456 
L 310.008125 201.844456 
L 310.008125 203.525093 
L 311.02267 203.525093 
L 311.02267 203.754271 
L 312.037216 203.754271 
L 312.037216 203.907056 
L 313.051761 203.907056 
L 313.051761 204.441804 
L 314.066307 204.441804 
L 314.066307 203.601485 
L 315.080852 203.601485 
L 315.080852 204.212626 
L 316.095398 204.212626 
L 316.095398 204.594589 
L 317.109943 204.594589 
L 317.109943 204.365411 
L 318.124489 204.365411 
L 318.124489 207.115544 
L 319.139034 207.115544 
L 319.139034 205.205729 
L 320.15358 205.205729 
L 320.15358 203.295915 
L 321.168125 203.295915 
L 321.168125 205.587692 
L 322.18267 205.587692 
L 322.18267 205.129337 
L 323.197216 205.129337 
L 323.197216 204.594589 
L 324.211761 204.594589 
L 324.211761 205.664085 
L 325.226307 205.664085 
L 325.226307 206.886366 
L 326.240852 206.886366 
L 326.240852 207.115544 
L 327.255398 207.115544 
L 327.255398 205.052944 
L 328.269943 205.052944 
L 328.269943 208.872573 
L 329.284489 208.872573 
L 329.284489 208.18504 
L 330.299034 208.18504 
L 330.299034 207.039151 
L 331.31358 207.039151 
L 331.31358 208.567003 
L 332.328125 208.567003 
L 332.328125 206.351618 
L 333.34267 206.351618 
L 333.34267 208.032255 
L 335.371761 208.032255 
L 335.371761 210.094854 
L 336.386307 210.094854 
L 336.386307 209.407321 
L 337.400852 209.407321 
L 337.400852 210.782387 
L 338.415398 210.782387 
L 338.415398 208.414218 
L 339.429943 208.414218 
L 339.429943 211.011565 
L 340.444489 211.011565 
L 340.444489 212.386631 
L 341.459034 212.386631 
L 341.459034 211.928276 
L 342.47358 211.928276 
L 342.47358 211.46992 
L 343.488125 211.46992 
L 343.488125 213.22695 
L 344.50267 213.22695 
L 344.50267 212.539416 
L 345.517216 212.539416 
L 345.517216 213.379735 
L 346.531761 213.379735 
L 346.531761 214.220053 
L 348.560852 214.296446 
L 348.560852 214.907586 
L 349.575398 214.907586 
L 349.575398 215.442334 
L 350.589943 215.442334 
L 350.589943 216.282653 
L 351.604489 216.282653 
L 351.604489 217.504934 
L 352.619034 217.504934 
L 352.619034 218.57443 
L 353.63358 218.57443 
L 353.63358 218.88 
L 372.909943 218.88 
L 372.909943 218.88 
" clip-path="url(#p4347f17ae4)" style="fill: none; stroke: #1f77b4; stroke-width: 1.5; stroke-linecap: square"/>
   </g>
   <g id="line2d_19">
    <path d="M 68.546307 211.393528 
L 69.560852 211.393528 
L 69.560852 180.989284 
L 70.575398 180.989284 
L 70.575398 156.008912 
L 71.589943 156.008912 
L 71.589943 127.056127 
L 72.604489 127.056127 
L 72.604489 105.742599 
L 73.619034 105.742599 
L 73.619034 92.755862 
L 74.63358 92.755862 
L 74.63358 91.304403 
L 75.648125 91.304403 
L 75.648125 88.783448 
L 76.66267 88.783448 
L 76.66267 81.678939 
L 77.677216 81.678939 
L 77.677216 74.650822 
L 78.691761 74.650822 
L 78.691761 67.546313 
L 79.706307 67.546313 
L 79.706307 73.046578 
L 80.720852 73.046578 
L 80.720852 59.677878 
L 81.735398 59.677878 
L 81.735398 55.476286 
L 82.749943 55.476286 
L 82.749943 52.955332 
L 83.764489 52.955332 
L 83.764489 42.107586 
L 84.779034 42.107586 
L 84.779034 48.830133 
L 85.79358 48.830133 
L 85.79358 37.676817 
L 86.808125 37.676817 
L 86.808125 30.03756 
L 87.82267 30.03756 
L 87.82267 25.454005 
L 88.837216 25.454005 
L 88.837216 23.849761 
L 89.851761 23.849761 
L 89.851761 17.814748 
L 90.866307 17.814748 
L 90.866307 17.28 
L 91.880852 17.28 
L 91.880852 21.863554 
L 92.895398 21.863554 
L 92.895398 31.794589 
L 93.909943 31.794589 
L 93.909943 26.370716 
L 94.924489 26.370716 
L 94.924489 19.495385 
L 95.939034 19.495385 
L 95.939034 29.502812 
L 96.95358 29.502812 
L 96.95358 29.655597 
L 97.968125 29.655597 
L 97.968125 32.864085 
L 98.98267 32.864085 
L 98.98267 40.961698 
L 99.997216 40.961698 
L 99.997216 35.99618 
L 101.011761 35.99618 
L 101.011761 46.232785 
L 102.026307 46.232785 
L 102.026307 52.191406 
L 103.040852 52.191406 
L 103.040852 63.573899 
L 104.055398 63.573899 
L 104.055398 64.032255 
L 105.069943 64.032255 
L 105.069943 72.053475 
L 106.084489 72.053475 
L 106.084489 91.991936 
L 107.099034 91.991936 
L 107.099034 93.978143 
L 108.11358 93.978143 
L 108.11358 108.492732 
L 109.128125 108.492732 
L 109.128125 111.09008 
L 110.14267 111.09008 
L 110.14267 123.389284 
L 111.157216 123.389284 
L 111.157216 125.986631 
L 112.171761 125.986631 
L 112.171761 137.21634 
L 113.186307 137.21634 
L 113.186307 143.022175 
L 114.200852 143.022175 
L 114.200852 153.56435 
L 115.215398 153.56435 
L 115.215398 161.127215 
L 116.229943 161.127215 
L 116.229943 162.884244 
L 117.244489 162.884244 
L 117.244489 167.773369 
L 118.259034 167.773369 
L 118.259034 175.489019 
L 119.27358 175.489019 
L 119.27358 184.274164 
L 120.288125 184.274164 
L 120.288125 173.808382 
L 121.30267 173.808382 
L 121.30267 157.460371 
L 122.317216 157.460371 
L 122.317216 145.23756 
L 123.331761 145.23756 
L 123.331761 124.535172 
L 124.346307 124.535172 
L 124.346307 113.992997 
L 125.360852 113.992997 
L 125.360852 104.214748 
L 126.375398 104.214748 
L 126.375398 89.318196 
L 127.389943 89.318196 
L 127.389943 92.373899 
L 128.404489 92.373899 
L 128.404489 89.165411 
L 129.419034 89.165411 
L 129.419034 93.825358 
L 130.43358 93.825358 
L 130.43358 95.735172 
L 131.448125 95.735172 
L 131.448125 101.00626 
L 132.46267 101.00626 
L 132.46267 96.881061 
L 133.477216 96.881061 
L 133.477216 102.152149 
L 134.491761 102.152149 
L 134.491761 95.735172 
L 135.506307 95.735172 
L 135.506307 105.589814 
L 136.520852 105.589814 
L 136.520852 107.041273 
L 137.535398 107.041273 
L 137.535398 102.610504 
L 138.549943 102.610504 
L 138.549943 107.576021 
L 139.564489 107.576021 
L 139.564489 104.749496 
L 140.579034 104.749496 
L 140.579034 107.041273 
L 141.59358 107.041273 
L 141.59358 113.840212 
L 142.608125 113.840212 
L 142.608125 106.888488 
L 143.62267 106.888488 
L 143.62267 110.555332 
L 144.637216 110.555332 
L 144.637216 117.277878 
L 145.651761 117.277878 
L 145.651761 116.055597 
L 146.666307 116.055597 
L 146.666307 117.125093 
L 147.680852 117.125093 
L 147.680852 121.403077 
L 148.695398 121.403077 
L 148.695398 122.472573 
L 149.709943 122.472573 
L 149.709943 129.50069 
L 150.724489 129.50069 
L 150.724489 122.930928 
L 151.739034 122.930928 
L 151.739034 127.972838 
L 152.75358 127.972838 
L 152.75358 128.736764 
L 153.768125 128.736764 
L 153.768125 130.646578 
L 154.78267 130.646578 
L 154.78267 127.972838 
L 155.797216 127.972838 
L 155.797216 131.257719 
L 156.811761 131.257719 
L 156.811761 129.271512 
L 157.826307 129.271512 
L 157.826307 132.327215 
L 158.840852 132.327215 
L 158.840852 138.515013 
L 159.855398 138.515013 
L 159.855398 136.757984 
L 160.869943 136.757984 
L 160.869943 138.744191 
L 161.884489 138.744191 
L 161.884489 135.15374 
L 162.899034 135.15374 
L 162.899034 144.091671 
L 163.91358 144.091671 
L 163.91358 145.772308 
L 164.928125 145.772308 
L 164.928125 143.938886 
L 165.94267 143.938886 
L 165.94267 149.362759 
L 166.957216 149.362759 
L 166.957216 156.390875 
L 167.971761 156.390875 
L 167.971761 155.856127 
L 168.986307 155.856127 
L 168.986307 157.078408 
L 170.000852 157.078408 
L 170.000852 152.112891 
L 171.015398 152.112891 
L 171.015398 150.508647 
L 172.029943 150.508647 
L 172.029943 146.001485 
L 173.044489 146.001485 
L 173.044489 140.424828 
L 174.059034 140.424828 
L 174.059034 136.223236 
L 175.07358 136.223236 
L 175.07358 137.674695 
L 176.088125 137.674695 
L 176.088125 135.382918 
L 177.10267 135.382918 
L 177.10267 134.389814 
L 178.117216 134.389814 
L 178.117216 140.042865 
L 179.131761 140.042865 
L 179.131761 143.633316 
L 180.146307 143.633316 
L 180.146307 151.19618 
L 181.160852 151.19618 
L 181.160852 154.557454 
L 182.175398 154.557454 
L 182.175398 153.105995 
L 183.189943 153.105995 
L 183.189943 152.036499 
L 184.204489 152.036499 
L 184.204489 158.529867 
L 185.219034 158.529867 
L 185.219034 159.217401 
L 186.23358 159.217401 
L 186.23358 159.522971 
L 187.248125 159.522971 
L 187.248125 160.821645 
L 188.26267 160.821645 
L 188.26267 158.759045 
L 189.277216 158.759045 
L 189.277216 162.731459 
L 190.291761 162.731459 
L 190.291761 161.58557 
L 191.306307 161.58557 
L 191.306307 159.293793 
L 192.320852 159.293793 
L 192.320852 165.252414 
L 193.335398 165.252414 
L 193.335398 165.939947 
L 194.349943 165.939947 
L 194.349943 166.092732 
L 195.364489 166.092732 
L 195.364489 167.696976 
L 196.379034 167.696976 
L 196.379034 169.912361 
L 197.39358 169.912361 
L 197.39358 171.898568 
L 198.408125 171.898568 
L 198.408125 174.6487 
L 200.437216 174.572308 
L 200.437216 177.933581 
L 201.451761 177.933581 
L 201.451761 176.558515 
L 202.466307 176.558515 
L 202.466307 181.75321 
L 203.480852 181.75321 
L 203.480852 180.225358 
L 204.495398 180.225358 
L 204.495398 186.795119 
L 205.509943 186.795119 
L 205.509943 185.878408 
L 206.524489 185.878408 
L 206.524489 188.399363 
L 207.539034 188.399363 
L 207.539034 190.767533 
L 208.55358 190.767533 
L 208.55358 191.149496 
L 209.568125 191.149496 
L 209.568125 192.371777 
L 210.58267 192.371777 
L 210.58267 190.691141 
L 211.597216 190.691141 
L 211.597216 192.982918 
L 213.626307 192.906525 
L 213.626307 191.760637 
L 214.640852 191.760637 
L 214.640852 193.976021 
L 215.655398 193.976021 
L 215.655398 193.517666 
L 216.669943 193.517666 
L 216.669943 190.156393 
L 217.684489 190.156393 
L 217.684489 189.545252 
L 218.699034 189.545252 
L 218.699034 186.795119 
L 219.71358 186.795119 
L 219.71358 187.635438 
L 220.728125 187.635438 
L 220.728125 187.253475 
L 221.74267 187.253475 
L 221.74267 186.947905 
L 222.757216 186.947905 
L 222.757216 188.857719 
L 223.771761 188.857719 
L 223.771761 188.246578 
L 224.786307 188.246578 
L 224.786307 189.698037 
L 225.800852 189.698037 
L 225.800852 193.746844 
L 226.815398 193.746844 
L 226.815398 197.184509 
L 227.829943 197.184509 
L 227.829943 194.357984 
L 228.844489 194.357984 
L 228.844489 195.656658 
L 229.859034 195.656658 
L 229.859034 198.177613 
L 230.87358 198.177613 
L 230.87358 199.170716 
L 231.888125 199.170716 
L 231.888125 199.934642 
L 232.90267 199.934642 
L 232.90267 201.538886 
L 233.917216 201.538886 
L 233.917216 201.309708 
L 234.931761 201.309708 
L 234.931761 200.545782 
L 235.946307 200.545782 
L 235.946307 201.691671 
L 236.960852 201.691671 
L 236.960852 202.073634 
L 237.975398 202.073634 
L 237.975398 204.289019 
L 240.004489 204.289019 
L 240.004489 205.740477 
L 241.019034 205.740477 
L 241.019034 205.434907 
L 242.03358 205.434907 
L 242.03358 206.198833 
L 243.048125 206.198833 
L 243.048125 207.497507 
L 244.06267 207.497507 
L 244.06267 208.108647 
L 245.077216 208.108647 
L 245.077216 208.261432 
L 246.091761 208.261432 
L 246.091761 207.421114 
L 247.106307 207.421114 
L 247.106307 208.872573 
L 248.120852 208.872573 
L 248.120852 210.018462 
L 249.135398 210.018462 
L 249.135398 210.324032 
L 250.149943 210.324032 
L 250.149943 211.087958 
L 251.164489 211.087958 
L 251.164489 211.393528 
L 252.179034 211.393528 
L 252.179034 212.692202 
L 253.19358 212.692202 
L 253.19358 213.22695 
L 254.208125 213.22695 
L 254.208125 213.074164 
L 256.237216 212.997772 
L 256.237216 212.233846 
L 257.251761 212.233846 
L 257.251761 212.081061 
L 258.266307 212.081061 
L 258.266307 209.560106 
L 260.295398 209.483714 
L 260.295398 208.872573 
L 261.309943 208.872573 
L 261.309943 206.962759 
L 262.324489 206.962759 
L 262.324489 208.032255 
L 263.339034 208.032255 
L 263.339034 204.670981 
L 264.35358 204.670981 
L 264.35358 204.900159 
L 265.368125 204.900159 
L 265.368125 206.351618 
L 266.38267 206.351618 
L 266.38267 205.129337 
L 267.397216 205.129337 
L 267.397216 206.12244 
L 268.411761 206.12244 
L 268.411761 207.344721 
L 269.426307 207.344721 
L 269.426307 207.726684 
L 270.440852 207.726684 
L 270.440852 208.18504 
L 271.455398 208.18504 
L 271.455398 210.324032 
L 272.469943 210.324032 
L 272.469943 209.483714 
L 273.484489 209.483714 
L 273.484489 210.247639 
L 274.499034 210.247639 
L 274.499034 208.567003 
L 275.51358 208.567003 
L 275.51358 211.393528 
L 276.528125 211.393528 
L 276.528125 210.324032 
L 277.54267 210.324032 
L 277.54267 211.546313 
L 278.557216 211.546313 
L 278.557216 212.463024 
L 279.571761 212.463024 
L 279.571761 212.692202 
L 280.586307 212.692202 
L 280.586307 212.463024 
L 282.615398 212.386631 
L 282.615398 213.761698 
L 283.629943 213.761698 
L 283.629943 212.539416 
L 284.644489 212.539416 
L 284.644489 214.754801 
L 285.659034 214.754801 
L 285.659034 213.685305 
L 286.67358 213.685305 
L 286.67358 213.074164 
L 287.688125 213.074164 
L 287.688125 214.754801 
L 288.70267 214.754801 
L 288.70267 214.907586 
L 289.717216 214.907586 
L 289.717216 215.824297 
L 290.731761 215.824297 
L 290.731761 215.213156 
L 291.746307 215.213156 
L 291.746307 215.977082 
L 292.760852 215.977082 
L 292.760852 216.129867 
L 293.775398 216.129867 
L 293.775398 216.359045 
L 294.789943 216.359045 
L 294.789943 216.893793 
L 295.804489 216.893793 
L 295.804489 216.588223 
L 296.819034 216.588223 
L 296.819034 216.359045 
L 297.83358 216.359045 
L 297.83358 216.053475 
L 298.848125 216.053475 
L 298.848125 215.136764 
L 299.86267 215.136764 
L 299.86267 214.449231 
L 300.877216 214.449231 
L 300.877216 212.921379 
L 301.891761 212.921379 
L 301.891761 211.46992 
L 302.906307 211.46992 
L 302.906307 209.101751 
L 303.920852 209.101751 
L 303.920852 208.261432 
L 304.935398 208.261432 
L 304.935398 207.115544 
L 305.949943 207.115544 
L 305.949943 206.351618 
L 306.964489 206.351618 
L 306.964489 205.434907 
L 307.979034 205.434907 
L 307.979034 205.052944 
L 308.99358 205.052944 
L 308.99358 204.212626 
L 310.008125 204.212626 
L 310.008125 204.059841 
L 311.02267 204.059841 
L 311.02267 202.913952 
L 312.037216 202.913952 
L 312.037216 203.066737 
L 313.051761 203.066737 
L 313.051761 202.83756 
L 314.066307 202.83756 
L 314.066307 202.379204 
L 315.080852 202.379204 
L 315.080852 203.525093 
L 316.095398 203.525093 
L 316.095398 205.205729 
L 317.109943 205.205729 
L 317.109943 203.295915 
L 318.124489 203.295915 
L 318.124489 204.976552 
L 319.139034 204.976552 
L 319.139034 203.677878 
L 320.15358 203.677878 
L 320.15358 203.219523 
L 321.168125 203.219523 
L 321.168125 206.428011 
L 322.18267 206.428011 
L 322.18267 205.434907 
L 323.197216 205.434907 
L 323.197216 203.983448 
L 324.211761 203.983448 
L 324.211761 206.12244 
L 326.240852 206.046048 
L 326.240852 207.421114 
L 327.255398 207.421114 
L 327.255398 207.726684 
L 329.284489 207.726684 
L 329.284489 206.198833 
L 331.31358 206.198833 
L 331.31358 207.955862 
L 332.328125 207.955862 
L 332.328125 208.337825 
L 333.34267 208.337825 
L 333.34267 209.025358 
L 334.357216 209.025358 
L 334.357216 209.636499 
L 335.371761 209.636499 
L 335.371761 209.330928 
L 336.386307 209.330928 
L 336.386307 209.942069 
L 338.415398 209.942069 
L 338.415398 209.789284 
L 339.429943 209.789284 
L 339.429943 211.087958 
L 340.444489 211.087958 
L 340.444489 209.942069 
L 341.459034 209.942069 
L 341.459034 210.55321 
L 342.47358 210.55321 
L 342.47358 211.546313 
L 343.488125 211.546313 
L 343.488125 212.004668 
L 344.50267 212.004668 
L 344.50267 213.53252 
L 345.517216 213.53252 
L 345.517216 212.692202 
L 346.531761 212.692202 
L 346.531761 214.14366 
L 347.546307 214.14366 
L 347.546307 214.754801 
L 348.560852 214.754801 
L 348.560852 215.977082 
L 349.575398 215.977082 
L 349.575398 215.595119 
L 350.589943 215.595119 
L 350.589943 216.970186 
L 351.604489 216.970186 
L 351.604489 218.039682 
L 352.619034 218.039682 
L 352.619034 218.803607 
L 372.909943 218.88 
L 372.909943 218.88 
" clip-path="url(#p4347f17ae4)" style="fill: none; stroke: #ff7f0e; stroke-width: 1.5; stroke-linecap: square"/>
   </g>
  </g>
 </g>
 <defs>
  <clipPath id="p4347f17ae4">
   <rect x="53.328125" y="7.2" width="334.8" height="221.76"/>
  </clipPath>
 </defs>
</svg>
