<?xml version="1.0" encoding="UTF-8" standalone="no"?>
<!DOCTYPE svg PUBLIC "-//W3C//DTD SVG 1.1//EN"
 "http://www.w3.org/Graphics/SVG/1.1/DTD/svg11.dtd">
<!-- Generated by graphviz version 7.1.0 (20230122.1345)
 -->
<!-- Pages: 1 -->
<svg width="720pt" height="503pt"
 viewBox="0.00 0.00 720.00 503.00" xmlns="http://www.w3.org/2000/svg" xmlns:xlink="http://www.w3.org/1999/xlink">
<g id="graph0" class="graph" transform="scale(1 1) rotate(0) translate(4 499)">
<polygon fill="white" stroke="none" points="-4,4 -4,-499 716,-499 716,4 -4,4"/>
<!-- source_position -->
<g id="node1" class="node">
<title>source_position</title>
<polygon fill="none" stroke="black" points="161,-495 33,-495 33,-472 161,-472 161,-495"/>
<text text-anchor="middle" x="97" y="-479.8" font-family="Times,serif" font-size="14.00">source_position</text>
</g>
<!-- incident_beam -->
<g id="node2" class="node">
<title>incident_beam</title>
<polygon fill="none" stroke="black" points="198,-436 78,-436 78,-413 198,-413 198,-436"/>
<text text-anchor="middle" x="138" y="-420.8" font-family="Times,serif" font-size="14.00">incident_beam</text>
</g>
<!-- source_position&#45;&gt;incident_beam -->
<g id="edge1" class="edge">
<title>source_position&#45;&gt;incident_beam</title>
<path fill="none" stroke="black" d="M104.91,-471.51C110.18,-464.18 117.27,-454.32 123.54,-445.61"/>
<polygon fill="black" stroke="black" points="126.24,-447.85 129.24,-437.69 120.55,-443.76 126.24,-447.85"/>
</g>
<!-- L1 -->
<g id="node6" class="node">
<title>L1</title>
<polygon fill="none" stroke="black" points="220,-377 166,-377 166,-354 220,-354 220,-377"/>
<text text-anchor="middle" x="193" y="-361.8" font-family="Times,serif" font-size="14.00">L1</text>
</g>
<!-- incident_beam&#45;&gt;L1 -->
<g id="edge5" class="edge">
<title>incident_beam&#45;&gt;L1</title>
<path fill="none" stroke="black" d="M148.6,-412.51C155.99,-404.86 166.02,-394.46 174.68,-385.49"/>
<polygon fill="black" stroke="black" points="176.95,-388.17 181.38,-378.55 171.91,-383.31 176.95,-388.17"/>
</g>
<!-- two_theta -->
<g id="node8" class="node">
<title>two_theta</title>
<polygon fill="none" stroke="black" points="192.5,-318 105.5,-318 105.5,-295 192.5,-295 192.5,-318"/>
<text text-anchor="middle" x="149" y="-302.8" font-family="Times,serif" font-size="14.00">two_theta</text>
</g>
<!-- incident_beam&#45;&gt;two_theta -->
<g id="edge7" class="edge">
<title>incident_beam&#45;&gt;two_theta</title>
<path fill="none" stroke="black" d="M139.02,-412.79C140.81,-393.89 144.57,-354.24 146.93,-329.36"/>
<polygon fill="black" stroke="black" points="150.38,-329.97 147.84,-319.69 143.42,-329.31 150.38,-329.97"/>
</g>
<!-- Qx -->
<g id="node24" class="node">
<title>Qx</title>
<polygon fill="none" stroke="black" points="128,-200 74,-200 74,-177 128,-177 128,-200"/>
<text text-anchor="middle" x="101" y="-184.8" font-family="Times,serif" font-size="14.00">Qx</text>
</g>
<!-- incident_beam&#45;&gt;Qx -->
<g id="edge30" class="edge">
<title>incident_beam&#45;&gt;Qx</title>
<path fill="none" stroke="black" d="M133,-412.64C124.49,-393.77 107.12,-353.53 97,-318 89.69,-292.35 88.45,-285.56 86,-259 85.06,-248.82 84.41,-246.1 86,-236 87.31,-227.65 89.88,-218.76 92.52,-211.01"/>
<polygon fill="black" stroke="black" points="95.75,-212.36 95.91,-201.77 89.18,-209.95 95.75,-212.36"/>
</g>
<!-- Qy -->
<g id="node25" class="node">
<title>Qy</title>
<polygon fill="none" stroke="black" points="274,-200 220,-200 220,-177 274,-177 274,-200"/>
<text text-anchor="middle" x="247" y="-184.8" font-family="Times,serif" font-size="14.00">Qy</text>
</g>
<!-- incident_beam&#45;&gt;Qy -->
<g id="edge33" class="edge">
<title>incident_beam&#45;&gt;Qy</title>
<path fill="none" stroke="black" d="M170.34,-412.55C246.88,-386.57 433.11,-323.02 438,-318 457.22,-298.26 452.73,-286.21 457,-259 458.59,-248.9 463.45,-243.93 457,-236 409.28,-177.39 363.72,-215.46 285.23,-200.15"/>
<polygon fill="black" stroke="black" points="286.46,-196.84 275.93,-198.08 284.93,-203.67 286.46,-196.84"/>
</g>
<!-- Qz -->
<g id="node26" class="node">
<title>Qz</title>
<polygon fill="none" stroke="black" points="54,-200 0,-200 0,-177 54,-177 54,-200"/>
<text text-anchor="middle" x="27" y="-184.8" font-family="Times,serif" font-size="14.00">Qz</text>
</g>
<!-- incident_beam&#45;&gt;Qz -->
<g id="edge36" class="edge">
<title>incident_beam&#45;&gt;Qz</title>
<path fill="none" stroke="black" d="M114.91,-412.6C84.31,-396.7 31.68,-363.97 10,-318 -6.47,-283.07 6.78,-237.23 17.3,-210.8"/>
<polygon fill="black" stroke="black" points="20.42,-212.41 21.1,-201.83 13.98,-209.68 20.42,-212.41"/>
</g>
<!-- sample_position -->
<g id="node3" class="node">
<title>sample_position</title>
<polygon fill="none" stroke="black" points="310.5,-495 179.5,-495 179.5,-472 310.5,-472 310.5,-495"/>
<text text-anchor="middle" x="245" y="-479.8" font-family="Times,serif" font-size="14.00">sample_position</text>
</g>
<!-- sample_position&#45;&gt;incident_beam -->
<g id="edge2" class="edge">
<title>sample_position&#45;&gt;incident_beam</title>
<path fill="none" stroke="black" d="M224.37,-471.51C208.53,-463.07 186.42,-451.29 168.53,-441.76"/>
<polygon fill="black" stroke="black" points="170.37,-438.78 159.9,-437.17 167.08,-444.96 170.37,-438.78"/>
</g>
<!-- scattered_beam -->
<g id="node5" class="node">
<title>scattered_beam</title>
<polygon fill="none" stroke="black" points="389,-436 259,-436 259,-413 389,-413 389,-436"/>
<text text-anchor="middle" x="324" y="-420.8" font-family="Times,serif" font-size="14.00">scattered_beam</text>
</g>
<!-- sample_position&#45;&gt;scattered_beam -->
<g id="edge4" class="edge">
<title>sample_position&#45;&gt;scattered_beam</title>
<path fill="none" stroke="black" d="M260.23,-471.51C271.38,-463.47 286.74,-452.39 299.59,-443.11"/>
<polygon fill="black" stroke="black" points="301.53,-446.03 307.59,-437.34 297.43,-440.35 301.53,-446.03"/>
</g>
<!-- position -->
<g id="node4" class="node">
<title>position</title>
<polygon fill="none" stroke="black" points="403,-495 329,-495 329,-472 403,-472 403,-495"/>
<text text-anchor="middle" x="366" y="-479.8" font-family="Times,serif" font-size="14.00">position</text>
</g>
<!-- position&#45;&gt;scattered_beam -->
<g id="edge3" class="edge">
<title>position&#45;&gt;scattered_beam</title>
<path fill="none" stroke="black" d="M357.9,-471.51C352.5,-464.18 345.23,-454.32 338.82,-445.61"/>
<polygon fill="black" stroke="black" points="341.72,-443.65 332.97,-437.67 336.09,-447.8 341.72,-443.65"/>
</g>
<!-- L2 -->
<g id="node7" class="node">
<title>L2</title>
<polygon fill="none" stroke="black" points="406,-377 352,-377 352,-354 406,-354 406,-377"/>
<text text-anchor="middle" x="379" y="-361.8" font-family="Times,serif" font-size="14.00">L2</text>
</g>
<!-- scattered_beam&#45;&gt;L2 -->
<g id="edge6" class="edge">
<title>scattered_beam&#45;&gt;L2</title>
<path fill="none" stroke="black" d="M334.6,-412.51C341.99,-404.86 352.02,-394.46 360.68,-385.49"/>
<polygon fill="black" stroke="black" points="362.95,-388.17 367.38,-378.55 357.91,-383.31 362.95,-388.17"/>
</g>
<!-- scattered_beam&#45;&gt;two_theta -->
<g id="edge8" class="edge">
<title>scattered_beam&#45;&gt;two_theta</title>
<path fill="none" stroke="black" d="M310.16,-412.67C291.95,-398.57 258.76,-373.46 229,-354 212.83,-343.43 194.2,-332.53 178.99,-323.94"/>
<polygon fill="black" stroke="black" points="180.83,-320.96 170.4,-319.14 177.42,-327.07 180.83,-320.96"/>
</g>
<!-- scattered_beam&#45;&gt;Qx -->
<g id="edge31" class="edge">
<title>scattered_beam&#45;&gt;Qx</title>
<path fill="none" stroke="black" d="M314.66,-412.7C294.82,-389.99 246.63,-336 202,-295 183.14,-277.67 175.14,-277.08 157,-259 141.48,-243.54 126.03,-223.96 115.29,-209.52"/>
<polygon fill="black" stroke="black" points="118.3,-207.7 109.57,-201.69 112.64,-211.83 118.3,-207.7"/>
</g>
<!-- scattered_beam&#45;&gt;Qy -->
<g id="edge34" class="edge">
<title>scattered_beam&#45;&gt;Qy</title>
<path fill="none" stroke="black" d="M354.03,-412.53C424.93,-385.05 592.07,-310.17 528,-236 494,-196.63 353.39,-210.01 285.44,-199.92"/>
<polygon fill="black" stroke="black" points="286.37,-196.53 275.91,-198.19 285.12,-203.42 286.37,-196.53"/>
</g>
<!-- scattered_beam&#45;&gt;Qz -->
<g id="edge37" class="edge">
<title>scattered_beam&#45;&gt;Qz</title>
<path fill="none" stroke="black" d="M258.75,-413.29C226.59,-406.33 188.13,-395 157,-377 90.84,-338.74 50.56,-251.64 34.73,-211.05"/>
<polygon fill="black" stroke="black" points="38.09,-210.03 31.29,-201.9 31.53,-212.5 38.09,-210.03"/>
</g>
<!-- Ltotal -->
<g id="node9" class="node">
<title>Ltotal</title>
<polygon fill="none" stroke="black" points="343.5,-318 284.5,-318 284.5,-295 343.5,-295 343.5,-318"/>
<text text-anchor="middle" x="314" y="-302.8" font-family="Times,serif" font-size="14.00">Ltotal</text>
</g>
<!-- L1&#45;&gt;Ltotal -->
<g id="edge9" class="edge">
<title>L1&#45;&gt;Ltotal</title>
<path fill="none" stroke="black" d="M216.33,-353.51C234.58,-344.91 260.19,-332.85 280.6,-323.23"/>
<polygon fill="black" stroke="black" points="281.82,-326.53 289.37,-319.1 278.83,-320.2 281.82,-326.53"/>
</g>
<!-- L2&#45;&gt;Ltotal -->
<g id="edge10" class="edge">
<title>L2&#45;&gt;Ltotal</title>
<path fill="none" stroke="black" d="M366.47,-353.51C357.57,-345.7 345.4,-335.03 335.02,-325.94"/>
<polygon fill="black" stroke="black" points="337.46,-323.42 327.63,-319.45 332.84,-328.68 337.46,-323.42"/>
</g>
<!-- time_at_sample -->
<g id="node28" class="node">
<title>time_at_sample</title>
<polygon fill="none" stroke="black" points="616,-200 488,-200 488,-177 616,-177 616,-200"/>
<text text-anchor="middle" x="552" y="-184.8" font-family="Times,serif" font-size="14.00">time_at_sample</text>
</g>
<!-- L2&#45;&gt;time_at_sample -->
<g id="edge42" class="edge">
<title>L2&#45;&gt;time_at_sample</title>
<path fill="none" stroke="black" d="M406.39,-360.06C433.18,-354.44 473.67,-342.4 500,-318 530.91,-289.36 543.86,-239.79 548.96,-211.31"/>
<polygon fill="black" stroke="black" points="552.38,-212.11 550.5,-201.69 545.47,-211.01 552.38,-212.11"/>
</g>
<!-- dspacing -->
<g id="node11" class="node">
<title>dspacing</title>
<polygon fill="none" stroke="black" points="246,-259 166,-259 166,-236 246,-236 246,-259"/>
<text text-anchor="middle" x="206" y="-243.8" font-family="Times,serif" font-size="14.00">dspacing</text>
</g>
<!-- two_theta&#45;&gt;dspacing -->
<g id="edge13" class="edge">
<title>two_theta&#45;&gt;dspacing</title>
<path fill="none" stroke="black" d="M159.99,-294.51C167.64,-286.86 178.04,-276.46 187.01,-267.49"/>
<polygon fill="black" stroke="black" points="189.38,-270.07 193.97,-260.53 184.43,-265.12 189.38,-270.07"/>
</g>
<!-- Q -->
<g id="node23" class="node">
<title>Q</title>
<polygon fill="none" stroke="black" points="201,-200 147,-200 147,-177 201,-177 201,-200"/>
<text text-anchor="middle" x="174" y="-184.8" font-family="Times,serif" font-size="14.00">Q</text>
</g>
<!-- two_theta&#45;&gt;Q -->
<g id="edge25" class="edge">
<title>two_theta&#45;&gt;Q</title>
<path fill="none" stroke="black" d="M149.46,-294.53C150.23,-280.71 152.19,-256.33 157,-236 158.97,-227.67 161.98,-218.78 164.93,-211.03"/>
<polygon fill="black" stroke="black" points="168.17,-212.35 168.64,-201.77 161.67,-209.75 168.17,-212.35"/>
</g>
<!-- Ltotal&#45;&gt;dspacing -->
<g id="edge12" class="edge">
<title>Ltotal&#45;&gt;dspacing</title>
<path fill="none" stroke="black" d="M293.18,-294.51C277.19,-286.07 254.87,-274.29 236.82,-264.76"/>
<polygon fill="black" stroke="black" points="238.58,-261.74 228.1,-260.16 235.31,-267.93 238.58,-261.74"/>
</g>
<!-- energy -->
<g id="node12" class="node">
<title>energy</title>
<polygon fill="none" stroke="black" points="448,-259 382,-259 382,-236 448,-236 448,-259"/>
<text text-anchor="middle" x="415" y="-243.8" font-family="Times,serif" font-size="14.00">energy</text>
</g>
<!-- Ltotal&#45;&gt;energy -->
<g id="edge15" class="edge">
<title>Ltotal&#45;&gt;energy</title>
<path fill="none" stroke="black" d="M333.47,-294.51C348.28,-286.15 368.91,-274.51 385.71,-265.03"/>
<polygon fill="black" stroke="black" points="387.28,-268.16 394.27,-260.2 383.84,-262.07 387.28,-268.16"/>
</g>
<!-- wavelength -->
<g id="node22" class="node">
<title>wavelength</title>
<polygon fill="none" stroke="black" points="363.5,-259 264.5,-259 264.5,-236 363.5,-236 363.5,-259"/>
<text text-anchor="middle" x="314" y="-243.8" font-family="Times,serif" font-size="14.00">wavelength</text>
</g>
<!-- Ltotal&#45;&gt;wavelength -->
<g id="edge39" class="edge">
<title>Ltotal&#45;&gt;wavelength</title>
<path fill="none" stroke="black" d="M314,-294.51C314,-287.81 314,-278.99 314,-270.88"/>
<polygon fill="black" stroke="black" points="317.5,-270.97 314,-260.97 310.5,-270.97 317.5,-270.97"/>
</g>
<!-- tof -->
<g id="node10" class="node">
<title>tof</title>
<polygon fill="none" stroke="black" points="429,-318 375,-318 375,-295 429,-295 429,-318"/>
<text text-anchor="middle" x="402" y="-302.8" font-family="Times,serif" font-size="14.00">tof</text>
</g>
<!-- tof&#45;&gt;dspacing -->
<g id="edge11" class="edge">
<title>tof&#45;&gt;dspacing</title>
<path fill="none" stroke="black" d="M374.75,-297.57C343.73,-288.55 292.46,-273.64 254.56,-262.62"/>
<polygon fill="black" stroke="black" points="255.79,-259.34 245.22,-259.9 253.84,-266.06 255.79,-259.34"/>
</g>
<!-- tof&#45;&gt;energy -->
<g id="edge14" class="edge">
<title>tof&#45;&gt;energy</title>
<path fill="none" stroke="black" d="M404.51,-294.51C406.05,-287.73 408.09,-278.79 409.96,-270.59"/>
<polygon fill="black" stroke="black" points="413.35,-271.46 412.16,-260.93 406.53,-269.9 413.35,-271.46"/>
</g>
<!-- tof&#45;&gt;wavelength -->
<g id="edge38" class="edge">
<title>tof&#45;&gt;wavelength</title>
<path fill="none" stroke="black" d="M385.03,-294.51C372.37,-286.31 354.84,-274.95 340.35,-265.57"/>
<polygon fill="black" stroke="black" points="342.48,-262.78 332.19,-260.28 338.68,-268.65 342.48,-262.78"/>
</g>
<!-- tof&#45;&gt;time_at_sample -->
<g id="edge41" class="edge">
<title>tof&#45;&gt;time_at_sample</title>
<path fill="none" stroke="black" d="M416.11,-294.59C442.02,-274.55 497.4,-231.73 528.87,-207.38"/>
<polygon fill="black" stroke="black" points="530.85,-210.28 536.62,-201.39 526.57,-204.74 530.85,-210.28"/>
</g>
<!-- Q_vec -->
<g id="node13" class="node">
<title>Q_vec</title>
<polygon fill="none" stroke="black" points="199.5,-141 140.5,-141 140.5,-118 199.5,-118 199.5,-141"/>
<text text-anchor="middle" x="170" y="-125.8" font-family="Times,serif" font-size="14.00">Q_vec</text>
</g>
<!-- hkl_vec -->
<g id="node14" class="node">
<title>hkl_vec</title>
<polygon fill="none" stroke="black" points="366.5,-82 297.5,-82 297.5,-59 366.5,-59 366.5,-82"/>
<text text-anchor="middle" x="332" y="-66.8" font-family="Times,serif" font-size="14.00">hkl_vec</text>
</g>
<!-- Q_vec&#45;&gt;hkl_vec -->
<g id="edge16" class="edge">
<title>Q_vec&#45;&gt;hkl_vec</title>
<path fill="none" stroke="black" d="M199.71,-118.05C225.03,-109.14 261.71,-96.23 290.03,-86.27"/>
<polygon fill="black" stroke="black" points="291.12,-89.59 299.39,-82.97 288.8,-82.99 291.12,-89.59"/>
</g>
<!-- h -->
<g id="node17" class="node">
<title>h</title>
<polygon fill="none" stroke="black" points="287,-23 233,-23 233,0 287,0 287,-23"/>
<text text-anchor="middle" x="260" y="-7.8" font-family="Times,serif" font-size="14.00">h</text>
</g>
<!-- hkl_vec&#45;&gt;h -->
<g id="edge19" class="edge">
<title>hkl_vec&#45;&gt;h</title>
<path fill="none" stroke="black" d="M318.12,-58.51C308.06,-50.55 294.23,-39.6 282.59,-30.39"/>
<polygon fill="black" stroke="black" points="285.04,-27.86 275.03,-24.4 280.69,-33.35 285.04,-27.86"/>
</g>
<!-- k -->
<g id="node18" class="node">
<title>k</title>
<polygon fill="none" stroke="black" points="359,-23 305,-23 305,0 359,0 359,-23"/>
<text text-anchor="middle" x="332" y="-7.8" font-family="Times,serif" font-size="14.00">k</text>
</g>
<!-- hkl_vec&#45;&gt;k -->
<g id="edge20" class="edge">
<title>hkl_vec&#45;&gt;k</title>
<path fill="none" stroke="black" d="M332,-58.51C332,-51.81 332,-42.99 332,-34.88"/>
<polygon fill="black" stroke="black" points="335.5,-34.97 332,-24.97 328.5,-34.97 335.5,-34.97"/>
</g>
<!-- l -->
<g id="node19" class="node">
<title>l</title>
<polygon fill="none" stroke="black" points="431,-23 377,-23 377,0 431,0 431,-23"/>
<text text-anchor="middle" x="404" y="-7.8" font-family="Times,serif" font-size="14.00">l</text>
</g>
<!-- hkl_vec&#45;&gt;l -->
<g id="edge21" class="edge">
<title>hkl_vec&#45;&gt;l</title>
<path fill="none" stroke="black" d="M345.88,-58.51C355.94,-50.55 369.77,-39.6 381.41,-30.39"/>
<polygon fill="black" stroke="black" points="383.31,-33.35 388.97,-24.4 378.96,-27.86 383.31,-33.35"/>
</g>
<!-- ub_matrix -->
<g id="node15" class="node">
<title>ub_matrix</title>
<polygon fill="none" stroke="black" points="376.5,-141 287.5,-141 287.5,-118 376.5,-118 376.5,-141"/>
<text text-anchor="middle" x="332" y="-125.8" font-family="Times,serif" font-size="14.00">ub_matrix</text>
</g>
<!-- ub_matrix&#45;&gt;hkl_vec -->
<g id="edge17" class="edge">
<title>ub_matrix&#45;&gt;hkl_vec</title>
<path fill="none" stroke="black" d="M332,-117.51C332,-110.81 332,-101.99 332,-93.88"/>
<polygon fill="black" stroke="black" points="335.5,-93.97 332,-83.97 328.5,-93.97 335.5,-93.97"/>
</g>
<!-- sample_rotation -->
<g id="node16" class="node">
<title>sample_rotation</title>
<polygon fill="none" stroke="black" points="525.5,-141 394.5,-141 394.5,-118 525.5,-118 525.5,-141"/>
<text text-anchor="middle" x="460" y="-125.8" font-family="Times,serif" font-size="14.00">sample_rotation</text>
</g>
<!-- sample_rotation&#45;&gt;hkl_vec -->
<g id="edge18" class="edge">
<title>sample_rotation&#45;&gt;hkl_vec</title>
<path fill="none" stroke="black" d="M435.32,-117.51C415.93,-108.88 388.68,-96.74 367.03,-87.1"/>
<polygon fill="black" stroke="black" points="368.55,-83.94 357.99,-83.07 365.7,-90.34 368.55,-83.94"/>
</g>
<!-- u_matrix -->
<g id="node20" class="node">
<title>u_matrix</title>
<polygon fill="none" stroke="black" points="372,-200 292,-200 292,-177 372,-177 372,-200"/>
<text text-anchor="middle" x="332" y="-184.8" font-family="Times,serif" font-size="14.00">u_matrix</text>
</g>
<!-- u_matrix&#45;&gt;ub_matrix -->
<g id="edge22" class="edge">
<title>u_matrix&#45;&gt;ub_matrix</title>
<path fill="none" stroke="black" d="M332,-176.51C332,-169.81 332,-160.99 332,-152.88"/>
<polygon fill="black" stroke="black" points="335.5,-152.97 332,-142.97 328.5,-152.97 335.5,-152.97"/>
</g>
<!-- b_matrix -->
<g id="node21" class="node">
<title>b_matrix</title>
<polygon fill="none" stroke="black" points="470,-200 390,-200 390,-177 470,-177 470,-200"/>
<text text-anchor="middle" x="430" y="-184.8" font-family="Times,serif" font-size="14.00">b_matrix</text>
</g>
<!-- b_matrix&#45;&gt;ub_matrix -->
<g id="edge23" class="edge">
<title>b_matrix&#45;&gt;ub_matrix</title>
<path fill="none" stroke="black" d="M411.1,-176.51C396.73,-168.15 376.72,-156.51 360.42,-147.03"/>
<polygon fill="black" stroke="black" points="362.55,-144.22 352.15,-142.22 359.03,-150.27 362.55,-144.22"/>
</g>
<!-- wavelength&#45;&gt;Q -->
<g id="edge24" class="edge">
<title>wavelength&#45;&gt;Q</title>
<path fill="none" stroke="black" d="M287.01,-235.51C265.51,-226.76 235.17,-214.41 211.35,-204.71"/>
<polygon fill="black" stroke="black" points="212.89,-201.56 202.31,-201.03 210.25,-208.04 212.89,-201.56"/>
</g>
<!-- wavelength&#45;&gt;Qx -->
<g id="edge29" class="edge">
<title>wavelength&#45;&gt;Qx</title>
<path fill="none" stroke="black" d="M271.62,-235.53C238.31,-226.86 190.45,-214.29 139.4,-200.35"/>
<polygon fill="black" stroke="black" points="140.49,-197.02 129.92,-197.75 138.64,-203.77 140.49,-197.02"/>
</g>
<!-- wavelength&#45;&gt;Qy -->
<g id="edge32" class="edge">
<title>wavelength&#45;&gt;Qy</title>
<path fill="none" stroke="black" d="M301.08,-235.51C291.81,-227.62 279.11,-216.82 268.35,-207.66"/>
<polygon fill="black" stroke="black" points="270.92,-205.25 261.03,-201.44 266.38,-210.58 270.92,-205.25"/>
</g>
<!-- wavelength&#45;&gt;Qz -->
<g id="edge35" class="edge">
<title>wavelength&#45;&gt;Qz</title>
<path fill="none" stroke="black" d="M264.05,-237.41C203.68,-226.39 106.11,-208.46 65.56,-199.84"/>
<polygon fill="black" stroke="black" points="66.33,-196.43 55.8,-197.68 64.81,-203.26 66.33,-196.43"/>
</g>
<!-- wavelength&#45;&gt;time_at_sample -->
<g id="edge43" class="edge">
<title>wavelength&#45;&gt;time_at_sample</title>
<path fill="none" stroke="black" d="M359.89,-235.51C398.49,-226.26 453.86,-213 495.24,-203.09"/>
<polygon fill="black" stroke="black" points="495.87,-206.54 504.78,-200.81 494.24,-199.73 495.87,-206.54"/>
</g>
<!-- Qx&#45;&gt;Q_vec -->
<g id="edge26" class="edge">
<title>Qx&#45;&gt;Q_vec</title>
<path fill="none" stroke="black" d="M114.3,-176.51C123.85,-168.62 136.93,-157.82 148.02,-148.66"/>
<polygon fill="black" stroke="black" points="150.09,-151.49 155.57,-142.42 145.63,-146.09 150.09,-151.49"/>
</g>
<!-- Qy&#45;&gt;Q_vec -->
<g id="edge27" class="edge">
<title>Qy&#45;&gt;Q_vec</title>
<path fill="none" stroke="black" d="M232.15,-176.51C221.29,-168.47 206.32,-157.39 193.79,-148.11"/>
<polygon fill="black" stroke="black" points="196.14,-145.49 186.02,-142.36 191.97,-151.12 196.14,-145.49"/>
</g>
<!-- Qz&#45;&gt;Q_vec -->
<g id="edge28" class="edge">
<title>Qz&#45;&gt;Q_vec</title>
<path fill="none" stroke="black" d="M54.23,-176.64C76.4,-167.81 107.92,-155.24 132.48,-145.46"/>
<polygon fill="black" stroke="black" points="133.47,-148.83 141.46,-141.88 130.88,-142.33 133.47,-148.83"/>
</g>
<!-- pulse_time -->
<g id="node27" class="node">
<title>pulse_time</title>
<polygon fill="none" stroke="black" points="712,-259 618,-259 618,-236 712,-236 712,-259"/>
<text text-anchor="middle" x="665" y="-243.8" font-family="Times,serif" font-size="14.00">pulse_time</text>
</g>
<!-- pulse_time&#45;&gt;time_at_sample -->
<g id="edge40" class="edge">
<title>pulse_time&#45;&gt;time_at_sample</title>
<path fill="none" stroke="black" d="M643.21,-235.51C626.41,-227.03 602.91,-215.18 583.98,-205.63"/>
<polygon fill="black" stroke="black" points="585.58,-202.52 575.07,-201.14 582.42,-208.77 585.58,-202.52"/>
</g>
</g>
</svg>
