<?xml version="1.0" encoding="UTF-8" standalone="no"?>
<!DOCTYPE svg PUBLIC "-//W3C//DTD SVG 1.1//EN"
 "http://www.w3.org/Graphics/SVG/1.1/DTD/svg11.dtd">
<!-- Generated by graphviz version 11.0.0 (20240519.1550)
 -->
<!-- Pages: 1 -->
<svg width="588pt" height="332pt"
 viewBox="0.00 0.00 588.19 332.00" xmlns="http://www.w3.org/2000/svg" xmlns:xlink="http://www.w3.org/1999/xlink">
<g id="graph0" class="graph" transform="scale(1 1) rotate(0) translate(4 328)">
<polygon fill="white" stroke="none" points="-4,4 -4,-328 584.19,-328 584.19,4 -4,4"/>
<!-- Choppers -->
<g id="node1" class="node">
<title>Choppers</title>
<polygon fill="none" stroke="red" stroke-dasharray="5,2" points="96.07,-324 11.82,-324 11.82,-288 96.07,-288 96.07,-324"/>
<text text-anchor="middle" x="53.94" y="-301.32" font-family="Times,serif" font-size="14.00" fill="red">Choppers</text>
</g>
<!-- scippneutron.tof.unwrap.source_chopper_SourceChopper -->
<g id="node2" class="node">
<title>scippneutron.tof.unwrap.source_chopper_SourceChopper</title>
<ellipse fill="none" stroke="black" cx="186.94" cy="-234" rx="89.61" ry="18"/>
<text text-anchor="middle" x="186.94" y="-229.32" font-family="Times,serif" font-size="14.00">source_chopper</text>
</g>
<!-- Choppers&#45;&gt;scippneutron.tof.unwrap.source_chopper_SourceChopper -->
<g id="edge1" class="edge">
<title>Choppers&#45;&gt;scippneutron.tof.unwrap.source_chopper_SourceChopper</title>
<path fill="none" stroke="black" d="M87.16,-287.52C104.95,-278.15 127.02,-266.54 145.88,-256.62"/>
<polygon fill="black" stroke="black" points="147.41,-259.76 154.63,-252.01 144.15,-253.57 147.41,-259.76"/>
</g>
<!-- SourceChopper -->
<g id="node5" class="node">
<title>SourceChopper</title>
<polygon fill="none" stroke="black" points="250.07,-180 123.82,-180 123.82,-144 250.07,-144 250.07,-180"/>
<text text-anchor="middle" x="186.94" y="-157.32" font-family="Times,serif" font-size="14.00">SourceChopper</text>
</g>
<!-- scippneutron.tof.unwrap.source_chopper_SourceChopper&#45;&gt;SourceChopper -->
<g id="edge4" class="edge">
<title>scippneutron.tof.unwrap.source_chopper_SourceChopper&#45;&gt;SourceChopper</title>
<path fill="none" stroke="black" d="M186.94,-215.7C186.94,-208.41 186.94,-199.73 186.94,-191.54"/>
<polygon fill="black" stroke="black" points="190.44,-191.62 186.94,-181.62 183.44,-191.62 190.44,-191.62"/>
</g>
<!-- SourceTimeRange -->
<g id="node3" class="node">
<title>SourceTimeRange</title>
<polygon fill="none" stroke="red" stroke-dasharray="5,2" points="259.82,-324 114.07,-324 114.07,-288 259.82,-288 259.82,-324"/>
<text text-anchor="middle" x="186.94" y="-301.32" font-family="Times,serif" font-size="14.00" fill="red">SourceTimeRange</text>
</g>
<!-- SourceTimeRange&#45;&gt;scippneutron.tof.unwrap.source_chopper_SourceChopper -->
<g id="edge2" class="edge">
<title>SourceTimeRange&#45;&gt;scippneutron.tof.unwrap.source_chopper_SourceChopper</title>
<path fill="none" stroke="black" d="M186.94,-287.7C186.94,-280.41 186.94,-271.73 186.94,-263.54"/>
<polygon fill="black" stroke="black" points="190.44,-263.62 186.94,-253.62 183.44,-263.62 190.44,-263.62"/>
</g>
<!-- Union[SourceChopperName, NoneType] -->
<g id="node4" class="node">
<title>Union[SourceChopperName, NoneType]</title>
<polygon fill="none" stroke="red" stroke-dasharray="5,2" points="580.19,-324 277.69,-324 277.69,-288 580.19,-288 580.19,-324"/>
<text text-anchor="middle" x="428.94" y="-301.32" font-family="Times,serif" font-size="14.00" fill="red">Union[SourceChopperName, NoneType]</text>
</g>
<!-- Union[SourceChopperName, NoneType]&#45;&gt;scippneutron.tof.unwrap.source_chopper_SourceChopper -->
<g id="edge3" class="edge">
<title>Union[SourceChopperName, NoneType]&#45;&gt;scippneutron.tof.unwrap.source_chopper_SourceChopper</title>
<path fill="none" stroke="black" d="M368.5,-287.52C331.42,-276.79 284.12,-263.11 247.1,-252.4"/>
<polygon fill="black" stroke="black" points="248.48,-249.16 237.91,-249.74 246.54,-255.88 248.48,-249.16"/>
</g>
<!-- scippneutron.tof.unwrap.time_of_flight_origin_from_chopper_TimeOfFlightOrigin -->
<g id="node6" class="node">
<title>scippneutron.tof.unwrap.time_of_flight_origin_from_chopper_TimeOfFlightOrigin</title>
<ellipse fill="none" stroke="black" cx="186.94" cy="-90" rx="186.94" ry="18"/>
<text text-anchor="middle" x="186.94" y="-85.33" font-family="Times,serif" font-size="14.00">time_of_flight_origin_from_chopper</text>
</g>
<!-- SourceChopper&#45;&gt;scippneutron.tof.unwrap.time_of_flight_origin_from_chopper_TimeOfFlightOrigin -->
<g id="edge5" class="edge">
<title>SourceChopper&#45;&gt;scippneutron.tof.unwrap.time_of_flight_origin_from_chopper_TimeOfFlightOrigin</title>
<path fill="none" stroke="black" d="M186.94,-143.7C186.94,-136.41 186.94,-127.73 186.94,-119.54"/>
<polygon fill="black" stroke="black" points="190.44,-119.62 186.94,-109.62 183.44,-119.62 190.44,-119.62"/>
</g>
<!-- TimeOfFlightOrigin -->
<g id="node7" class="node">
<title>TimeOfFlightOrigin</title>
<polygon fill="none" stroke="black" points="264.69,-36 109.19,-36 109.19,0 264.69,0 264.69,-36"/>
<text text-anchor="middle" x="186.94" y="-13.32" font-family="Times,serif" font-size="14.00">TimeOfFlightOrigin</text>
</g>
<!-- scippneutron.tof.unwrap.time_of_flight_origin_from_chopper_TimeOfFlightOrigin&#45;&gt;TimeOfFlightOrigin -->
<g id="edge6" class="edge">
<title>scippneutron.tof.unwrap.time_of_flight_origin_from_chopper_TimeOfFlightOrigin&#45;&gt;TimeOfFlightOrigin</title>
<path fill="none" stroke="black" d="M186.94,-71.7C186.94,-64.41 186.94,-55.73 186.94,-47.54"/>
<polygon fill="black" stroke="black" points="190.44,-47.62 186.94,-37.62 183.44,-47.62 190.44,-47.62"/>
</g>
</g>
</svg>
