<?xml version="1.0" encoding="utf-8" standalone="no"?>
<!DOCTYPE svg PUBLIC "-//W3C//DTD SVG 1.1//EN"
  "http://www.w3.org/Graphics/SVG/1.1/DTD/svg11.dtd">
<svg xmlns:xlink="http://www.w3.org/1999/xlink" width="395.328125pt" height="268.200625pt" viewBox="0 0 395.328125 268.200625" xmlns="http://www.w3.org/2000/svg" version="1.1">
 <metadata>
  <rdf:RDF xmlns:dc="http://purl.org/dc/elements/1.1/" xmlns:cc="http://creativecommons.org/ns#" xmlns:rdf="http://www.w3.org/1999/02/22-rdf-syntax-ns#">
   <cc:Work>
    <dc:type rdf:resource="http://purl.org/dc/dcmitype/StillImage"/>
    <dc:date>2024-12-12T12:31:02.589557</dc:date>
    <dc:format>image/svg+xml</dc:format>
    <dc:creator>
     <cc:Agent>
      <dc:title>Matplotlib v3.7.3, https://matplotlib.org/</dc:title>
     </cc:Agent>
    </dc:creator>
   </cc:Work>
  </rdf:RDF>
 </metadata>
 <defs>
  <style type="text/css">*{stroke-linejoin: round; stroke-linecap: butt}</style>
 </defs>
 <g id="figure_1">
  <g id="patch_1">
   <path d="M 0 268.200625 
L 395.328125 268.200625 
L 395.328125 0 
L 0 0 
z
" style="fill: #ffffff"/>
  </g>
  <g id="axes_1">
   <g id="patch_2">
    <path d="M 53.328125 228.96 
L 388.128125 228.96 
L 388.128125 7.2 
L 53.328125 7.2 
z
" style="fill: #ffffff"/>
   </g>
   <g id="matplotlib.axis_1">
    <g id="xtick_1">
     <g id="line2d_1">
      <defs>
       <path id="mf9ed1eac58" d="M 0 0 
L 0 3.5 
" style="stroke: #000000; stroke-width: 0.8"/>
      </defs>
      <g>
       <use xlink:href="#mf9ed1eac58" x="68.546307" y="228.96" style="stroke: #000000; stroke-width: 0.8"/>
      </g>
     </g>
     <g id="text_1">
      <!-- 1 -->
      <g transform="translate(65.365057 243.558437) scale(0.1 -0.1)">
       <defs>
        <path id="DejaVuSans-31" d="M 794 531 
L 1825 531 
L 1825 4091 
L 703 3866 
L 703 4441 
L 1819 4666 
L 2450 4666 
L 2450 531 
L 3481 531 
L 3481 0 
L 794 0 
L 794 531 
z
" transform="scale(0.015625)"/>
       </defs>
       <use xlink:href="#DejaVuSans-31"/>
      </g>
     </g>
    </g>
    <g id="xtick_2">
     <g id="line2d_2">
      <g>
       <use xlink:href="#mf9ed1eac58" x="112.026826" y="228.96" style="stroke: #000000; stroke-width: 0.8"/>
      </g>
     </g>
     <g id="text_2">
      <!-- 2 -->
      <g transform="translate(108.845576 243.558437) scale(0.1 -0.1)">
       <defs>
        <path id="DejaVuSans-32" d="M 1228 531 
L 3431 531 
L 3431 0 
L 469 0 
L 469 531 
Q 828 903 1448 1529 
Q 2069 2156 2228 2338 
Q 2531 2678 2651 2914 
Q 2772 3150 2772 3378 
Q 2772 3750 2511 3984 
Q 2250 4219 1831 4219 
Q 1534 4219 1204 4116 
Q 875 4013 500 3803 
L 500 4441 
Q 881 4594 1212 4672 
Q 1544 4750 1819 4750 
Q 2544 4750 2975 4387 
Q 3406 4025 3406 3419 
Q 3406 3131 3298 2873 
Q 3191 2616 2906 2266 
Q 2828 2175 2409 1742 
Q 1991 1309 1228 531 
z
" transform="scale(0.015625)"/>
       </defs>
       <use xlink:href="#DejaVuSans-32"/>
      </g>
     </g>
    </g>
    <g id="xtick_3">
     <g id="line2d_3">
      <g>
       <use xlink:href="#mf9ed1eac58" x="155.507346" y="228.96" style="stroke: #000000; stroke-width: 0.8"/>
      </g>
     </g>
     <g id="text_3">
      <!-- 3 -->
      <g transform="translate(152.326096 243.558437) scale(0.1 -0.1)">
       <defs>
        <path id="DejaVuSans-33" d="M 2597 2516 
Q 3050 2419 3304 2112 
Q 3559 1806 3559 1356 
Q 3559 666 3084 287 
Q 2609 -91 1734 -91 
Q 1441 -91 1130 -33 
Q 819 25 488 141 
L 488 750 
Q 750 597 1062 519 
Q 1375 441 1716 441 
Q 2309 441 2620 675 
Q 2931 909 2931 1356 
Q 2931 1769 2642 2001 
Q 2353 2234 1838 2234 
L 1294 2234 
L 1294 2753 
L 1863 2753 
Q 2328 2753 2575 2939 
Q 2822 3125 2822 3475 
Q 2822 3834 2567 4026 
Q 2313 4219 1838 4219 
Q 1578 4219 1281 4162 
Q 984 4106 628 3988 
L 628 4550 
Q 988 4650 1302 4700 
Q 1616 4750 1894 4750 
Q 2613 4750 3031 4423 
Q 3450 4097 3450 3541 
Q 3450 3153 3228 2886 
Q 3006 2619 2597 2516 
z
" transform="scale(0.015625)"/>
       </defs>
       <use xlink:href="#DejaVuSans-33"/>
      </g>
     </g>
    </g>
    <g id="xtick_4">
     <g id="line2d_4">
      <g>
       <use xlink:href="#mf9ed1eac58" x="198.987865" y="228.96" style="stroke: #000000; stroke-width: 0.8"/>
      </g>
     </g>
     <g id="text_4">
      <!-- 4 -->
      <g transform="translate(195.806615 243.558437) scale(0.1 -0.1)">
       <defs>
        <path id="DejaVuSans-34" d="M 2419 4116 
L 825 1625 
L 2419 1625 
L 2419 4116 
z
M 2253 4666 
L 3047 4666 
L 3047 1625 
L 3713 1625 
L 3713 1100 
L 3047 1100 
L 3047 0 
L 2419 0 
L 2419 1100 
L 313 1100 
L 313 1709 
L 2253 4666 
z
" transform="scale(0.015625)"/>
       </defs>
       <use xlink:href="#DejaVuSans-34"/>
      </g>
     </g>
    </g>
    <g id="xtick_5">
     <g id="line2d_5">
      <g>
       <use xlink:href="#mf9ed1eac58" x="242.468385" y="228.96" style="stroke: #000000; stroke-width: 0.8"/>
      </g>
     </g>
     <g id="text_5">
      <!-- 5 -->
      <g transform="translate(239.287135 243.558437) scale(0.1 -0.1)">
       <defs>
        <path id="DejaVuSans-35" d="M 691 4666 
L 3169 4666 
L 3169 4134 
L 1269 4134 
L 1269 2991 
Q 1406 3038 1543 3061 
Q 1681 3084 1819 3084 
Q 2600 3084 3056 2656 
Q 3513 2228 3513 1497 
Q 3513 744 3044 326 
Q 2575 -91 1722 -91 
Q 1428 -91 1123 -41 
Q 819 9 494 109 
L 494 744 
Q 775 591 1075 516 
Q 1375 441 1709 441 
Q 2250 441 2565 725 
Q 2881 1009 2881 1497 
Q 2881 1984 2565 2268 
Q 2250 2553 1709 2553 
Q 1456 2553 1204 2497 
Q 953 2441 691 2322 
L 691 4666 
z
" transform="scale(0.015625)"/>
       </defs>
       <use xlink:href="#DejaVuSans-35"/>
      </g>
     </g>
    </g>
    <g id="xtick_6">
     <g id="line2d_6">
      <g>
       <use xlink:href="#mf9ed1eac58" x="285.948904" y="228.96" style="stroke: #000000; stroke-width: 0.8"/>
      </g>
     </g>
     <g id="text_6">
      <!-- 6 -->
      <g transform="translate(282.767654 243.558437) scale(0.1 -0.1)">
       <defs>
        <path id="DejaVuSans-36" d="M 2113 2584 
Q 1688 2584 1439 2293 
Q 1191 2003 1191 1497 
Q 1191 994 1439 701 
Q 1688 409 2113 409 
Q 2538 409 2786 701 
Q 3034 994 3034 1497 
Q 3034 2003 2786 2293 
Q 2538 2584 2113 2584 
z
M 3366 4563 
L 3366 3988 
Q 3128 4100 2886 4159 
Q 2644 4219 2406 4219 
Q 1781 4219 1451 3797 
Q 1122 3375 1075 2522 
Q 1259 2794 1537 2939 
Q 1816 3084 2150 3084 
Q 2853 3084 3261 2657 
Q 3669 2231 3669 1497 
Q 3669 778 3244 343 
Q 2819 -91 2113 -91 
Q 1303 -91 875 529 
Q 447 1150 447 2328 
Q 447 3434 972 4092 
Q 1497 4750 2381 4750 
Q 2619 4750 2861 4703 
Q 3103 4656 3366 4563 
z
" transform="scale(0.015625)"/>
       </defs>
       <use xlink:href="#DejaVuSans-36"/>
      </g>
     </g>
    </g>
    <g id="xtick_7">
     <g id="line2d_7">
      <g>
       <use xlink:href="#mf9ed1eac58" x="329.429424" y="228.96" style="stroke: #000000; stroke-width: 0.8"/>
      </g>
     </g>
     <g id="text_7">
      <!-- 7 -->
      <g transform="translate(326.248174 243.558437) scale(0.1 -0.1)">
       <defs>
        <path id="DejaVuSans-37" d="M 525 4666 
L 3525 4666 
L 3525 4397 
L 1831 0 
L 1172 0 
L 2766 4134 
L 525 4134 
L 525 4666 
z
" transform="scale(0.015625)"/>
       </defs>
       <use xlink:href="#DejaVuSans-37"/>
      </g>
     </g>
    </g>
    <g id="xtick_8">
     <g id="line2d_8">
      <g>
       <use xlink:href="#mf9ed1eac58" x="372.909943" y="228.96" style="stroke: #000000; stroke-width: 0.8"/>
      </g>
     </g>
     <g id="text_8">
      <!-- 8 -->
      <g transform="translate(369.728693 243.558437) scale(0.1 -0.1)">
       <defs>
        <path id="DejaVuSans-38" d="M 2034 2216 
Q 1584 2216 1326 1975 
Q 1069 1734 1069 1313 
Q 1069 891 1326 650 
Q 1584 409 2034 409 
Q 2484 409 2743 651 
Q 3003 894 3003 1313 
Q 3003 1734 2745 1975 
Q 2488 2216 2034 2216 
z
M 1403 2484 
Q 997 2584 770 2862 
Q 544 3141 544 3541 
Q 544 4100 942 4425 
Q 1341 4750 2034 4750 
Q 2731 4750 3128 4425 
Q 3525 4100 3525 3541 
Q 3525 3141 3298 2862 
Q 3072 2584 2669 2484 
Q 3125 2378 3379 2068 
Q 3634 1759 3634 1313 
Q 3634 634 3220 271 
Q 2806 -91 2034 -91 
Q 1263 -91 848 271 
Q 434 634 434 1313 
Q 434 1759 690 2068 
Q 947 2378 1403 2484 
z
M 1172 3481 
Q 1172 3119 1398 2916 
Q 1625 2713 2034 2713 
Q 2441 2713 2670 2916 
Q 2900 3119 2900 3481 
Q 2900 3844 2670 4047 
Q 2441 4250 2034 4250 
Q 1625 4250 1398 4047 
Q 1172 3844 1172 3481 
z
" transform="scale(0.015625)"/>
       </defs>
       <use xlink:href="#DejaVuSans-38"/>
      </g>
     </g>
    </g>
    <g id="text_9">
     <!-- wavelength [Å] -->
     <g transform="translate(182.690625 258.920937) scale(0.1 -0.1)">
      <defs>
       <path id="DejaVuSans-77" d="M 269 3500 
L 844 3500 
L 1563 769 
L 2278 3500 
L 2956 3500 
L 3675 769 
L 4391 3500 
L 4966 3500 
L 4050 0 
L 3372 0 
L 2619 2869 
L 1863 0 
L 1184 0 
L 269 3500 
z
" transform="scale(0.015625)"/>
       <path id="DejaVuSans-61" d="M 2194 1759 
Q 1497 1759 1228 1600 
Q 959 1441 959 1056 
Q 959 750 1161 570 
Q 1363 391 1709 391 
Q 2188 391 2477 730 
Q 2766 1069 2766 1631 
L 2766 1759 
L 2194 1759 
z
M 3341 1997 
L 3341 0 
L 2766 0 
L 2766 531 
Q 2569 213 2275 61 
Q 1981 -91 1556 -91 
Q 1019 -91 701 211 
Q 384 513 384 1019 
Q 384 1609 779 1909 
Q 1175 2209 1959 2209 
L 2766 2209 
L 2766 2266 
Q 2766 2663 2505 2880 
Q 2244 3097 1772 3097 
Q 1472 3097 1187 3025 
Q 903 2953 641 2809 
L 641 3341 
Q 956 3463 1253 3523 
Q 1550 3584 1831 3584 
Q 2591 3584 2966 3190 
Q 3341 2797 3341 1997 
z
" transform="scale(0.015625)"/>
       <path id="DejaVuSans-76" d="M 191 3500 
L 800 3500 
L 1894 563 
L 2988 3500 
L 3597 3500 
L 2284 0 
L 1503 0 
L 191 3500 
z
" transform="scale(0.015625)"/>
       <path id="DejaVuSans-65" d="M 3597 1894 
L 3597 1613 
L 953 1613 
Q 991 1019 1311 708 
Q 1631 397 2203 397 
Q 2534 397 2845 478 
Q 3156 559 3463 722 
L 3463 178 
Q 3153 47 2828 -22 
Q 2503 -91 2169 -91 
Q 1331 -91 842 396 
Q 353 884 353 1716 
Q 353 2575 817 3079 
Q 1281 3584 2069 3584 
Q 2775 3584 3186 3129 
Q 3597 2675 3597 1894 
z
M 3022 2063 
Q 3016 2534 2758 2815 
Q 2500 3097 2075 3097 
Q 1594 3097 1305 2825 
Q 1016 2553 972 2059 
L 3022 2063 
z
" transform="scale(0.015625)"/>
       <path id="DejaVuSans-6c" d="M 603 4863 
L 1178 4863 
L 1178 0 
L 603 0 
L 603 4863 
z
" transform="scale(0.015625)"/>
       <path id="DejaVuSans-6e" d="M 3513 2113 
L 3513 0 
L 2938 0 
L 2938 2094 
Q 2938 2591 2744 2837 
Q 2550 3084 2163 3084 
Q 1697 3084 1428 2787 
Q 1159 2491 1159 1978 
L 1159 0 
L 581 0 
L 581 3500 
L 1159 3500 
L 1159 2956 
Q 1366 3272 1645 3428 
Q 1925 3584 2291 3584 
Q 2894 3584 3203 3211 
Q 3513 2838 3513 2113 
z
" transform="scale(0.015625)"/>
       <path id="DejaVuSans-67" d="M 2906 1791 
Q 2906 2416 2648 2759 
Q 2391 3103 1925 3103 
Q 1463 3103 1205 2759 
Q 947 2416 947 1791 
Q 947 1169 1205 825 
Q 1463 481 1925 481 
Q 2391 481 2648 825 
Q 2906 1169 2906 1791 
z
M 3481 434 
Q 3481 -459 3084 -895 
Q 2688 -1331 1869 -1331 
Q 1566 -1331 1297 -1286 
Q 1028 -1241 775 -1147 
L 775 -588 
Q 1028 -725 1275 -790 
Q 1522 -856 1778 -856 
Q 2344 -856 2625 -561 
Q 2906 -266 2906 331 
L 2906 616 
Q 2728 306 2450 153 
Q 2172 0 1784 0 
Q 1141 0 747 490 
Q 353 981 353 1791 
Q 353 2603 747 3093 
Q 1141 3584 1784 3584 
Q 2172 3584 2450 3431 
Q 2728 3278 2906 2969 
L 2906 3500 
L 3481 3500 
L 3481 434 
z
" transform="scale(0.015625)"/>
       <path id="DejaVuSans-74" d="M 1172 4494 
L 1172 3500 
L 2356 3500 
L 2356 3053 
L 1172 3053 
L 1172 1153 
Q 1172 725 1289 603 
Q 1406 481 1766 481 
L 2356 481 
L 2356 0 
L 1766 0 
Q 1100 0 847 248 
Q 594 497 594 1153 
L 594 3053 
L 172 3053 
L 172 3500 
L 594 3500 
L 594 4494 
L 1172 4494 
z
" transform="scale(0.015625)"/>
       <path id="DejaVuSans-68" d="M 3513 2113 
L 3513 0 
L 2938 0 
L 2938 2094 
Q 2938 2591 2744 2837 
Q 2550 3084 2163 3084 
Q 1697 3084 1428 2787 
Q 1159 2491 1159 1978 
L 1159 0 
L 581 0 
L 581 4863 
L 1159 4863 
L 1159 2956 
Q 1366 3272 1645 3428 
Q 1925 3584 2291 3584 
Q 2894 3584 3203 3211 
Q 3513 2838 3513 2113 
z
" transform="scale(0.015625)"/>
       <path id="DejaVuSans-20" transform="scale(0.015625)"/>
       <path id="DejaVuSans-5b" d="M 550 4863 
L 1875 4863 
L 1875 4416 
L 1125 4416 
L 1125 -397 
L 1875 -397 
L 1875 -844 
L 550 -844 
L 550 4863 
z
" transform="scale(0.015625)"/>
       <path id="DejaVuSans-c5" d="M 2663 5081 
Q 2663 5278 2523 5417 
Q 2384 5556 2188 5556 
Q 1988 5556 1852 5420 
Q 1716 5284 1716 5081 
Q 1716 4884 1853 4746 
Q 1991 4609 2188 4609 
Q 2384 4609 2523 4746 
Q 2663 4884 2663 5081 
z
M 2188 4044 
L 1338 1722 
L 3041 1722 
L 2188 4044 
z
M 1716 4366 
Q 1525 4494 1428 4673 
Q 1331 4853 1331 5081 
Q 1331 5441 1579 5691 
Q 1828 5941 2188 5941 
Q 2544 5941 2795 5689 
Q 3047 5438 3047 5081 
Q 3047 4863 2948 4678 
Q 2850 4494 2663 4366 
L 4325 0 
L 3669 0 
L 3244 1197 
L 1141 1197 
L 716 0 
L 50 0 
L 1716 4366 
z
" transform="scale(0.015625)"/>
       <path id="DejaVuSans-5d" d="M 1947 4863 
L 1947 -844 
L 622 -844 
L 622 -397 
L 1369 -397 
L 1369 4416 
L 622 4416 
L 622 4863 
L 1947 4863 
z
" transform="scale(0.015625)"/>
      </defs>
      <use xlink:href="#DejaVuSans-77"/>
      <use xlink:href="#DejaVuSans-61" x="81.787109"/>
      <use xlink:href="#DejaVuSans-76" x="143.066406"/>
      <use xlink:href="#DejaVuSans-65" x="202.246094"/>
      <use xlink:href="#DejaVuSans-6c" x="263.769531"/>
      <use xlink:href="#DejaVuSans-65" x="291.552734"/>
      <use xlink:href="#DejaVuSans-6e" x="353.076172"/>
      <use xlink:href="#DejaVuSans-67" x="416.455078"/>
      <use xlink:href="#DejaVuSans-74" x="479.931641"/>
      <use xlink:href="#DejaVuSans-68" x="519.140625"/>
      <use xlink:href="#DejaVuSans-20" x="582.519531"/>
      <use xlink:href="#DejaVuSans-5b" x="614.306641"/>
      <use xlink:href="#DejaVuSans-c5" x="653.320312"/>
      <use xlink:href="#DejaVuSans-5d" x="721.728516"/>
     </g>
    </g>
   </g>
   <g id="matplotlib.axis_2">
    <g id="ytick_1">
     <g id="line2d_9">
      <defs>
       <path id="m1e7c9e897c" d="M 0 0 
L -3.5 0 
" style="stroke: #000000; stroke-width: 0.8"/>
      </defs>
      <g>
       <use xlink:href="#m1e7c9e897c" x="53.328125" y="218.88" style="stroke: #000000; stroke-width: 0.8"/>
      </g>
     </g>
     <g id="text_10">
      <!-- 0 -->
      <g transform="translate(39.965625 222.679219) scale(0.1 -0.1)">
       <defs>
        <path id="DejaVuSans-30" d="M 2034 4250 
Q 1547 4250 1301 3770 
Q 1056 3291 1056 2328 
Q 1056 1369 1301 889 
Q 1547 409 2034 409 
Q 2525 409 2770 889 
Q 3016 1369 3016 2328 
Q 3016 3291 2770 3770 
Q 2525 4250 2034 4250 
z
M 2034 4750 
Q 2819 4750 3233 4129 
Q 3647 3509 3647 2328 
Q 3647 1150 3233 529 
Q 2819 -91 2034 -91 
Q 1250 -91 836 529 
Q 422 1150 422 2328 
Q 422 3509 836 4129 
Q 1250 4750 2034 4750 
z
" transform="scale(0.015625)"/>
       </defs>
       <use xlink:href="#DejaVuSans-30"/>
      </g>
     </g>
    </g>
    <g id="ytick_2">
     <g id="line2d_10">
      <g>
       <use xlink:href="#m1e7c9e897c" x="53.328125" y="170.788397" style="stroke: #000000; stroke-width: 0.8"/>
      </g>
     </g>
     <g id="text_11">
      <!-- 500 -->
      <g transform="translate(27.240625 174.587616) scale(0.1 -0.1)">
       <use xlink:href="#DejaVuSans-35"/>
       <use xlink:href="#DejaVuSans-30" x="63.623047"/>
       <use xlink:href="#DejaVuSans-30" x="127.246094"/>
      </g>
     </g>
    </g>
    <g id="ytick_3">
     <g id="line2d_11">
      <g>
       <use xlink:href="#m1e7c9e897c" x="53.328125" y="122.696794" style="stroke: #000000; stroke-width: 0.8"/>
      </g>
     </g>
     <g id="text_12">
      <!-- 1000 -->
      <g transform="translate(20.878125 126.496013) scale(0.1 -0.1)">
       <use xlink:href="#DejaVuSans-31"/>
       <use xlink:href="#DejaVuSans-30" x="63.623047"/>
       <use xlink:href="#DejaVuSans-30" x="127.246094"/>
       <use xlink:href="#DejaVuSans-30" x="190.869141"/>
      </g>
     </g>
    </g>
    <g id="ytick_4">
     <g id="line2d_12">
      <g>
       <use xlink:href="#m1e7c9e897c" x="53.328125" y="74.605191" style="stroke: #000000; stroke-width: 0.8"/>
      </g>
     </g>
     <g id="text_13">
      <!-- 1500 -->
      <g transform="translate(20.878125 78.40441) scale(0.1 -0.1)">
       <use xlink:href="#DejaVuSans-31"/>
       <use xlink:href="#DejaVuSans-35" x="63.623047"/>
       <use xlink:href="#DejaVuSans-30" x="127.246094"/>
       <use xlink:href="#DejaVuSans-30" x="190.869141"/>
      </g>
     </g>
    </g>
    <g id="ytick_5">
     <g id="line2d_13">
      <g>
       <use xlink:href="#m1e7c9e897c" x="53.328125" y="26.513588" style="stroke: #000000; stroke-width: 0.8"/>
      </g>
     </g>
     <g id="text_14">
      <!-- 2000 -->
      <g transform="translate(20.878125 30.312807) scale(0.1 -0.1)">
       <use xlink:href="#DejaVuSans-32"/>
       <use xlink:href="#DejaVuSans-30" x="63.623047"/>
       <use xlink:href="#DejaVuSans-30" x="127.246094"/>
       <use xlink:href="#DejaVuSans-30" x="190.869141"/>
      </g>
     </g>
    </g>
    <g id="text_15">
     <!-- [counts] -->
     <g transform="translate(14.798438 138.6925) rotate(-90) scale(0.1 -0.1)">
      <defs>
       <path id="DejaVuSans-63" d="M 3122 3366 
L 3122 2828 
Q 2878 2963 2633 3030 
Q 2388 3097 2138 3097 
Q 1578 3097 1268 2742 
Q 959 2388 959 1747 
Q 959 1106 1268 751 
Q 1578 397 2138 397 
Q 2388 397 2633 464 
Q 2878 531 3122 666 
L 3122 134 
Q 2881 22 2623 -34 
Q 2366 -91 2075 -91 
Q 1284 -91 818 406 
Q 353 903 353 1747 
Q 353 2603 823 3093 
Q 1294 3584 2113 3584 
Q 2378 3584 2631 3529 
Q 2884 3475 3122 3366 
z
" transform="scale(0.015625)"/>
       <path id="DejaVuSans-6f" d="M 1959 3097 
Q 1497 3097 1228 2736 
Q 959 2375 959 1747 
Q 959 1119 1226 758 
Q 1494 397 1959 397 
Q 2419 397 2687 759 
Q 2956 1122 2956 1747 
Q 2956 2369 2687 2733 
Q 2419 3097 1959 3097 
z
M 1959 3584 
Q 2709 3584 3137 3096 
Q 3566 2609 3566 1747 
Q 3566 888 3137 398 
Q 2709 -91 1959 -91 
Q 1206 -91 779 398 
Q 353 888 353 1747 
Q 353 2609 779 3096 
Q 1206 3584 1959 3584 
z
" transform="scale(0.015625)"/>
       <path id="DejaVuSans-75" d="M 544 1381 
L 544 3500 
L 1119 3500 
L 1119 1403 
Q 1119 906 1312 657 
Q 1506 409 1894 409 
Q 2359 409 2629 706 
Q 2900 1003 2900 1516 
L 2900 3500 
L 3475 3500 
L 3475 0 
L 2900 0 
L 2900 538 
Q 2691 219 2414 64 
Q 2138 -91 1772 -91 
Q 1169 -91 856 284 
Q 544 659 544 1381 
z
M 1991 3584 
L 1991 3584 
z
" transform="scale(0.015625)"/>
       <path id="DejaVuSans-73" d="M 2834 3397 
L 2834 2853 
Q 2591 2978 2328 3040 
Q 2066 3103 1784 3103 
Q 1356 3103 1142 2972 
Q 928 2841 928 2578 
Q 928 2378 1081 2264 
Q 1234 2150 1697 2047 
L 1894 2003 
Q 2506 1872 2764 1633 
Q 3022 1394 3022 966 
Q 3022 478 2636 193 
Q 2250 -91 1575 -91 
Q 1294 -91 989 -36 
Q 684 19 347 128 
L 347 722 
Q 666 556 975 473 
Q 1284 391 1588 391 
Q 1994 391 2212 530 
Q 2431 669 2431 922 
Q 2431 1156 2273 1281 
Q 2116 1406 1581 1522 
L 1381 1569 
Q 847 1681 609 1914 
Q 372 2147 372 2553 
Q 372 3047 722 3315 
Q 1072 3584 1716 3584 
Q 2034 3584 2315 3537 
Q 2597 3491 2834 3397 
z
" transform="scale(0.015625)"/>
      </defs>
      <use xlink:href="#DejaVuSans-5b"/>
      <use xlink:href="#DejaVuSans-63" x="39.013672"/>
      <use xlink:href="#DejaVuSans-6f" x="93.994141"/>
      <use xlink:href="#DejaVuSans-75" x="155.175781"/>
      <use xlink:href="#DejaVuSans-6e" x="218.554688"/>
      <use xlink:href="#DejaVuSans-74" x="281.933594"/>
      <use xlink:href="#DejaVuSans-73" x="321.142578"/>
      <use xlink:href="#DejaVuSans-5d" x="373.242188"/>
     </g>
    </g>
   </g>
   <g id="patch_3">
    <path d="M 53.328125 228.96 
L 53.328125 7.2 
" style="fill: none; stroke: #000000; stroke-width: 0.8; stroke-linejoin: miter; stroke-linecap: square"/>
   </g>
   <g id="patch_4">
    <path d="M 388.128125 228.96 
L 388.128125 7.2 
" style="fill: none; stroke: #000000; stroke-width: 0.8; stroke-linejoin: miter; stroke-linecap: square"/>
   </g>
   <g id="patch_5">
    <path d="M 53.328125 228.96 
L 388.128125 228.96 
" style="fill: none; stroke: #000000; stroke-width: 0.8; stroke-linejoin: miter; stroke-linecap: square"/>
   </g>
   <g id="patch_6">
    <path d="M 53.328125 7.2 
L 388.128125 7.2 
" style="fill: none; stroke: #000000; stroke-width: 0.8; stroke-linejoin: miter; stroke-linecap: square"/>
   </g>
   <g id="legend_1">
    <g id="patch_7">
     <path d="M 306.904688 59.234375 
L 381.128125 59.234375 
Q 383.128125 59.234375 383.128125 57.234375 
L 383.128125 14.2 
Q 383.128125 12.2 381.128125 12.2 
L 306.904688 12.2 
Q 304.904688 12.2 304.904688 14.2 
L 304.904688 57.234375 
Q 304.904688 59.234375 306.904688 59.234375 
z
" style="fill: #ffffff; opacity: 0.8; stroke: #cccccc; stroke-linejoin: miter"/>
    </g>
    <g id="line2d_14">
     <path d="M 308.904688 20.298438 
L 308.904688 20.298438 
L 318.904688 20.298438 
L 318.904688 20.298438 
L 328.904688 20.298438 
" style="fill: none; stroke: #1f77b4; stroke-width: 1.5; stroke-linecap: square"/>
    </g>
    <g id="text_16">
     <!-- monitor -->
     <g transform="translate(336.904688 23.798438) scale(0.1 -0.1)">
      <defs>
       <path id="DejaVuSans-6d" d="M 3328 2828 
Q 3544 3216 3844 3400 
Q 4144 3584 4550 3584 
Q 5097 3584 5394 3201 
Q 5691 2819 5691 2113 
L 5691 0 
L 5113 0 
L 5113 2094 
Q 5113 2597 4934 2840 
Q 4756 3084 4391 3084 
Q 3944 3084 3684 2787 
Q 3425 2491 3425 1978 
L 3425 0 
L 2847 0 
L 2847 2094 
Q 2847 2600 2669 2842 
Q 2491 3084 2119 3084 
Q 1678 3084 1418 2786 
Q 1159 2488 1159 1978 
L 1159 0 
L 581 0 
L 581 3500 
L 1159 3500 
L 1159 2956 
Q 1356 3278 1631 3431 
Q 1906 3584 2284 3584 
Q 2666 3584 2933 3390 
Q 3200 3197 3328 2828 
z
" transform="scale(0.015625)"/>
       <path id="DejaVuSans-69" d="M 603 3500 
L 1178 3500 
L 1178 0 
L 603 0 
L 603 3500 
z
M 603 4863 
L 1178 4863 
L 1178 4134 
L 603 4134 
L 603 4863 
z
" transform="scale(0.015625)"/>
       <path id="DejaVuSans-72" d="M 2631 2963 
Q 2534 3019 2420 3045 
Q 2306 3072 2169 3072 
Q 1681 3072 1420 2755 
Q 1159 2438 1159 1844 
L 1159 0 
L 581 0 
L 581 3500 
L 1159 3500 
L 1159 2956 
Q 1341 3275 1631 3429 
Q 1922 3584 2338 3584 
Q 2397 3584 2469 3576 
Q 2541 3569 2628 3553 
L 2631 2963 
z
" transform="scale(0.015625)"/>
      </defs>
      <use xlink:href="#DejaVuSans-6d"/>
      <use xlink:href="#DejaVuSans-6f" x="97.412109"/>
      <use xlink:href="#DejaVuSans-6e" x="158.59375"/>
      <use xlink:href="#DejaVuSans-69" x="221.972656"/>
      <use xlink:href="#DejaVuSans-74" x="249.755859"/>
      <use xlink:href="#DejaVuSans-6f" x="288.964844"/>
      <use xlink:href="#DejaVuSans-72" x="350.146484"/>
     </g>
    </g>
    <g id="line2d_15">
     <path d="M 308.904688 34.976562 
L 308.904688 34.976562 
L 318.904688 34.976562 
L 318.904688 34.976562 
L 328.904688 34.976562 
" style="fill: none; stroke: #ff7f0e; stroke-width: 1.5; stroke-linecap: square"/>
    </g>
    <g id="text_17">
     <!-- detector -->
     <g transform="translate(336.904688 38.476562) scale(0.1 -0.1)">
      <defs>
       <path id="DejaVuSans-64" d="M 2906 2969 
L 2906 4863 
L 3481 4863 
L 3481 0 
L 2906 0 
L 2906 525 
Q 2725 213 2448 61 
Q 2172 -91 1784 -91 
Q 1150 -91 751 415 
Q 353 922 353 1747 
Q 353 2572 751 3078 
Q 1150 3584 1784 3584 
Q 2172 3584 2448 3432 
Q 2725 3281 2906 2969 
z
M 947 1747 
Q 947 1113 1208 752 
Q 1469 391 1925 391 
Q 2381 391 2643 752 
Q 2906 1113 2906 1747 
Q 2906 2381 2643 2742 
Q 2381 3103 1925 3103 
Q 1469 3103 1208 2742 
Q 947 2381 947 1747 
z
" transform="scale(0.015625)"/>
      </defs>
      <use xlink:href="#DejaVuSans-64"/>
      <use xlink:href="#DejaVuSans-65" x="63.476562"/>
      <use xlink:href="#DejaVuSans-74" x="125"/>
      <use xlink:href="#DejaVuSans-65" x="164.208984"/>
      <use xlink:href="#DejaVuSans-63" x="225.732422"/>
      <use xlink:href="#DejaVuSans-74" x="280.712891"/>
      <use xlink:href="#DejaVuSans-6f" x="319.921875"/>
      <use xlink:href="#DejaVuSans-72" x="381.103516"/>
     </g>
    </g>
    <g id="line2d_16">
     <path d="M 308.904688 49.654688 
L 308.904688 49.654688 
L 318.904688 49.654688 
L 318.904688 49.654688 
L 328.904688 49.654688 
" style="fill: none; stroke: #2ca02c; stroke-width: 1.5; stroke-linecap: square"/>
    </g>
    <g id="text_18">
     <!-- true -->
     <g transform="translate(336.904688 53.154688) scale(0.1 -0.1)">
      <use xlink:href="#DejaVuSans-74"/>
      <use xlink:href="#DejaVuSans-72" x="39.208984"/>
      <use xlink:href="#DejaVuSans-75" x="80.322266"/>
      <use xlink:href="#DejaVuSans-65" x="143.701172"/>
     </g>
    </g>
   </g>
   <g id="line2d_17">
    <path d="M 68.546307 218.88 
L 73.87267 218.88 
L 73.87267 218.59145 
L 74.63358 218.59145 
L 74.63358 218.783817 
L 81.481761 218.88 
L 81.481761 218.302901 
L 82.24267 218.302901 
L 82.24267 218.687634 
L 83.764489 218.687634 
L 83.764489 218.495267 
L 86.047216 218.399084 
L 86.047216 218.206718 
L 86.808125 218.206718 
L 86.808125 218.014351 
L 87.569034 218.014351 
L 87.569034 217.629618 
L 88.329943 217.629618 
L 88.329943 218.110534 
L 89.090852 218.110534 
L 89.090852 217.918168 
L 89.851761 217.918168 
L 89.851761 218.302901 
L 90.61267 218.302901 
L 90.61267 218.110534 
L 91.37358 218.110534 
L 91.37358 217.341069 
L 93.656307 217.244885 
L 93.656307 217.052519 
L 94.417216 217.052519 
L 94.417216 217.341069 
L 95.178125 217.341069 
L 95.178125 217.052519 
L 95.939034 217.052519 
L 95.939034 216.18687 
L 97.460852 216.18687 
L 97.460852 217.148702 
L 98.221761 217.148702 
L 98.221761 216.18687 
L 98.98267 216.18687 
L 98.98267 215.321221 
L 99.74358 215.321221 
L 99.74358 215.032672 
L 100.504489 215.032672 
L 100.504489 213.78229 
L 101.265398 213.78229 
L 101.265398 214.167023 
L 102.026307 214.167023 
L 102.026307 213.589924 
L 102.787216 213.589924 
L 102.787216 211.08916 
L 103.548125 211.08916 
L 103.548125 211.66626 
L 104.309034 211.66626 
L 104.309034 210.415878 
L 105.069943 210.415878 
L 105.069943 208.588397 
L 105.830852 208.588397 
L 105.830852 205.99145 
L 106.591761 205.99145 
L 106.591761 204.548702 
L 107.35267 204.548702 
L 107.35267 205.414351 
L 108.11358 205.414351 
L 108.11358 202.240305 
L 108.874489 202.240305 
L 108.874489 200.028092 
L 109.635398 200.028092 
L 109.635398 200.220458 
L 110.396307 200.220458 
L 110.396307 190.890687 
L 111.157216 190.890687 
L 111.157216 190.698321 
L 111.918125 190.698321 
L 111.918125 190.121221 
L 112.679034 190.121221 
L 112.679034 182.907481 
L 113.439943 182.907481 
L 113.439943 181.560916 
L 114.200852 181.560916 
L 114.200852 181.08 
L 114.961761 181.08 
L 114.961761 174.443359 
L 115.72267 174.443359 
L 115.72267 170.211298 
L 116.48358 170.211298 
L 116.48358 170.018931 
L 117.244489 170.018931 
L 117.244489 164.440305 
L 118.005398 164.440305 
L 118.005398 159.823511 
L 118.766307 159.823511 
L 118.766307 157.226565 
L 119.527216 157.226565 
L 119.527216 154.918168 
L 120.288125 154.918168 
L 120.288125 145.299847 
L 121.049034 145.299847 
L 121.049034 142.318168 
L 121.809943 142.318168 
L 121.809943 142.702901 
L 122.570852 142.702901 
L 122.570852 137.124275 
L 123.331761 137.124275 
L 123.331761 128.179237 
L 124.09267 128.179237 
L 124.09267 123.947176 
L 124.85358 123.947176 
L 124.85358 121.638779 
L 125.614489 121.638779 
L 125.614489 112.886107 
L 126.375398 112.886107 
L 126.375398 113.174656 
L 127.136307 113.174656 
L 127.136307 100.09374 
L 127.897216 100.09374 
L 127.897216 95.188397 
L 128.658125 95.188397 
L 128.658125 96.631145 
L 129.419034 96.631145 
L 129.419034 86.435725 
L 130.179943 86.435725 
L 130.179943 82.203664 
L 130.940852 82.203664 
L 130.940852 74.220458 
L 131.701761 74.220458 
L 131.701761 64.98687 
L 132.46267 64.98687 
L 132.46267 68.545649 
L 133.22358 68.545649 
L 133.22358 61.235725 
L 133.984489 61.235725 
L 133.984489 62.389924 
L 134.745398 62.389924 
L 134.745398 58.061679 
L 135.506307 58.061679 
L 135.506307 47.770076 
L 136.267216 47.770076 
L 136.267216 46.904427 
L 137.028125 46.904427 
L 137.028125 42.19145 
L 137.789034 42.19145 
L 137.789034 44.115115 
L 138.549943 44.115115 
L 138.549943 47.096794 
L 139.310852 47.096794 
L 139.310852 41.902901 
L 140.071761 41.902901 
L 140.071761 44.692214 
L 140.83267 44.692214 
L 140.83267 39.979237 
L 141.59358 39.979237 
L 141.59358 44.596031 
L 142.354489 44.596031 
L 142.354489 37.286107 
L 143.115398 37.286107 
L 143.115398 38.536489 
L 143.876307 38.536489 
L 143.876307 39.402137 
L 144.637216 39.402137 
L 144.637216 35.362443 
L 145.398125 35.362443 
L 145.398125 31.418931 
L 146.159034 31.418931 
L 146.159034 28.918168 
L 146.919943 28.918168 
L 146.919943 35.458626 
L 147.680852 35.458626 
L 147.680852 30.16855 
L 148.441761 30.16855 
L 148.441761 40.363969 
L 149.20267 40.363969 
L 149.20267 24.78229 
L 149.96358 24.78229 
L 149.96358 24.205191 
L 150.724489 24.205191 
L 150.724489 39.498321 
L 151.485398 39.498321 
L 151.485398 31.899847 
L 152.246307 31.899847 
L 152.246307 31.515115 
L 153.007216 31.515115 
L 153.007216 30.745649 
L 153.768125 30.745649 
L 153.768125 34.015878 
L 154.529034 34.015878 
L 154.529034 17.28 
L 155.289943 17.28 
L 155.289943 37.38229 
L 156.050852 37.38229 
L 156.050852 38.921221 
L 156.811761 38.921221 
L 156.811761 33.727328 
L 157.57267 33.727328 
L 157.57267 32.765496 
L 158.33358 32.765496 
L 158.33358 36.612824 
L 159.094489 36.612824 
L 159.094489 45.076947 
L 159.855398 45.076947 
L 159.855398 36.805191 
L 160.616307 36.805191 
L 160.616307 35.843359 
L 161.377216 35.843359 
L 161.377216 32.476947 
L 162.138125 32.476947 
L 162.138125 37.478473 
L 162.899034 37.478473 
L 162.899034 37.767023 
L 163.659943 37.767023 
L 163.659943 41.037252 
L 164.420852 41.037252 
L 164.420852 43.538015 
L 165.181761 43.538015 
L 165.181761 53.733435 
L 165.94267 53.733435 
L 165.94267 54.887634 
L 166.70358 54.887634 
L 166.70358 57.580763 
L 167.464489 57.580763 
L 167.464489 52.771603 
L 168.225398 52.771603 
L 168.225398 52.579237 
L 168.986307 52.579237 
L 168.986307 60.850992 
L 169.747216 60.850992 
L 169.747216 60.370076 
L 170.508125 60.370076 
L 170.508125 61.139542 
L 171.269034 61.139542 
L 171.269034 66.525802 
L 172.029943 66.525802 
L 172.029943 63.159389 
L 172.790852 63.159389 
L 172.790852 66.814351 
L 173.551761 66.814351 
L 173.551761 78.548702 
L 174.31267 78.548702 
L 174.31267 80.664733 
L 175.07358 80.664733 
L 175.07358 72.585344 
L 175.834489 72.585344 
L 175.834489 77.490687 
L 176.595398 77.490687 
L 176.595398 79.895267 
L 177.356307 79.895267 
L 177.356307 82.396031 
L 178.117216 82.396031 
L 178.117216 83.165496 
L 178.878125 83.165496 
L 178.878125 85.08916 
L 179.639034 85.08916 
L 179.639034 87.012824 
L 180.399943 87.012824 
L 180.399943 93.072366 
L 181.160852 93.072366 
L 181.160852 89.225038 
L 181.921761 89.225038 
L 181.921761 92.976183 
L 182.68267 92.976183 
L 182.68267 94.996031 
L 183.44358 94.996031 
L 183.44358 95.765496 
L 184.204489 95.765496 
L 184.204489 102.690687 
L 184.965398 102.690687 
L 184.965398 102.979237 
L 185.726307 102.979237 
L 185.726307 101.825038 
L 186.487216 101.825038 
L 186.487216 99.901374 
L 187.248125 99.901374 
L 187.248125 105.672366 
L 188.009034 105.672366 
L 188.009034 104.999084 
L 188.769943 104.999084 
L 188.769943 106.441832 
L 189.530852 106.441832 
L 189.530852 110.770076 
L 190.291761 110.770076 
L 190.291761 109.231145 
L 191.05267 109.231145 
L 191.05267 111.539542 
L 191.81358 111.539542 
L 191.81358 107.596031 
L 192.574489 107.596031 
L 192.574489 104.710534 
L 193.335398 104.710534 
L 193.335398 112.69374 
L 194.096307 112.69374 
L 194.096307 118.464733 
L 194.857216 118.464733 
L 194.857216 121.446412 
L 195.618125 121.446412 
L 195.618125 121.061679 
L 196.379034 121.061679 
L 196.379034 122.792977 
L 197.139943 122.792977 
L 197.139943 118.753282 
L 197.900852 118.753282 
L 197.900852 123.562443 
L 198.661761 123.562443 
L 198.661761 122.408244 
L 199.42267 122.408244 
L 199.42267 124.043359 
L 200.18358 124.043359 
L 200.18358 128.371603 
L 200.944489 128.371603 
L 200.944489 128.948702 
L 201.705398 128.948702 
L 201.705398 127.121221 
L 202.466307 127.121221 
L 202.466307 126.832672 
L 203.988125 126.736489 
L 203.988125 128.27542 
L 204.749034 128.27542 
L 204.749034 130.006718 
L 205.509943 130.006718 
L 205.509943 129.621985 
L 206.270852 129.621985 
L 206.270852 130.583817 
L 207.031761 130.583817 
L 207.031761 132.507481 
L 207.79267 132.507481 
L 207.79267 138.278473 
L 208.55358 138.278473 
L 208.55358 139.625038 
L 209.314489 139.625038 
L 209.314489 138.855573 
L 210.075398 138.855573 
L 210.075398 136.162443 
L 210.836307 136.162443 
L 210.836307 130.199084 
L 211.597216 130.199084 
L 211.597216 141.644885 
L 212.358125 141.644885 
L 212.358125 142.702901 
L 213.119034 142.702901 
L 213.119034 146.069313 
L 213.879943 146.069313 
L 213.879943 141.260153 
L 214.640852 141.260153 
L 214.640852 146.550229 
L 215.401761 146.550229 
L 215.401761 149.820458 
L 216.16267 149.820458 
L 216.16267 142.895267 
L 216.92358 142.895267 
L 216.92358 149.628092 
L 217.684489 149.628092 
L 217.684489 148.858626 
L 218.445398 148.858626 
L 218.445398 150.109008 
L 219.206307 150.109008 
L 219.206307 148.281527 
L 219.967216 148.281527 
L 219.967216 149.339542 
L 220.728125 149.339542 
L 220.728125 145.97313 
L 221.489034 145.97313 
L 221.489034 151.263206 
L 222.249943 151.263206 
L 222.249943 149.820458 
L 223.010852 149.820458 
L 223.010852 150.397557 
L 223.771761 150.397557 
L 223.771761 150.78229 
L 224.53267 150.78229 
L 224.53267 148.858626 
L 225.29358 148.858626 
L 225.29358 154.629618 
L 226.054489 154.629618 
L 226.054489 157.707481 
L 226.815398 157.707481 
L 226.815398 156.360916 
L 227.576307 156.360916 
L 227.576307 164.151756 
L 228.337216 164.151756 
L 228.337216 155.399084 
L 229.098125 155.399084 
L 229.098125 160.592977 
L 229.859034 160.592977 
L 229.859034 157.996031 
L 230.619943 157.996031 
L 230.619943 157.034198 
L 231.380852 157.034198 
L 231.380852 161.458626 
L 232.141761 161.458626 
L 232.141761 160.68916 
L 232.90267 160.68916 
L 232.90267 164.921221 
L 233.66358 164.921221 
L 233.66358 161.362443 
L 234.424489 161.362443 
L 234.424489 159.150229 
L 235.185398 159.150229 
L 235.185398 163.478473 
L 235.946307 163.478473 
L 235.946307 168.864733 
L 236.707216 168.864733 
L 236.707216 166.171603 
L 237.468125 166.171603 
L 237.468125 170.499847 
L 238.229034 170.499847 
L 238.229034 170.018931 
L 238.989943 170.018931 
L 238.989943 165.883053 
L 239.750852 165.883053 
L 239.750852 164.825038 
L 240.511761 164.825038 
L 240.511761 166.07542 
L 241.27267 166.07542 
L 241.27267 169.441832 
L 242.03358 169.441832 
L 242.03358 169.730382 
L 242.794489 169.730382 
L 242.794489 172.134962 
L 243.555398 172.134962 
L 243.555398 168.76855 
L 244.316307 168.76855 
L 244.316307 173.000611 
L 245.077216 173.000611 
L 245.077216 172.519695 
L 246.599034 172.615878 
L 246.599034 175.020458 
L 247.359943 175.020458 
L 247.359943 173.28916 
L 248.120852 173.28916 
L 248.120852 178.579237 
L 248.881761 178.579237 
L 248.881761 176.847939 
L 249.64267 176.847939 
L 249.64267 178.483053 
L 250.40358 178.483053 
L 250.40358 176.944122 
L 251.164489 176.944122 
L 251.164489 178.579237 
L 251.925398 178.579237 
L 251.925398 178.098321 
L 253.447216 178.098321 
L 253.447216 181.176183 
L 254.208125 181.176183 
L 254.208125 181.36855 
L 254.969034 181.36855 
L 254.969034 178.002137 
L 255.729943 178.002137 
L 255.729943 184.157863 
L 256.490852 184.157863 
L 256.490852 183.196031 
L 257.251761 183.196031 
L 257.251761 185.985344 
L 258.01267 185.985344 
L 258.01267 186.273893 
L 258.77358 186.273893 
L 258.77358 183.196031 
L 259.534489 183.196031 
L 259.534489 185.600611 
L 260.295398 185.600611 
L 260.295398 187.909008 
L 261.056307 187.909008 
L 261.056307 186.46626 
L 261.817216 186.46626 
L 261.817216 189.832672 
L 262.578125 189.832672 
L 262.578125 191.371603 
L 263.339034 191.371603 
L 263.339034 189.159389 
L 264.099943 189.159389 
L 264.099943 193.583817 
L 264.860852 193.583817 
L 264.860852 194.449466 
L 265.621761 194.449466 
L 265.621761 192.237252 
L 266.38267 192.237252 
L 266.38267 195.122748 
L 267.14358 195.122748 
L 267.14358 194.930382 
L 267.904489 194.930382 
L 267.904489 196.180763 
L 268.665398 196.180763 
L 268.665398 195.218931 
L 269.426307 195.218931 
L 269.426307 196.661679 
L 270.187216 196.661679 
L 270.187216 197.815878 
L 270.948125 197.815878 
L 270.948125 198.77771 
L 271.709034 198.77771 
L 271.709034 199.739542 
L 272.469943 199.739542 
L 272.469943 200.509008 
L 273.230852 200.509008 
L 273.230852 199.643359 
L 273.991761 199.643359 
L 273.991761 199.354809 
L 274.75267 199.354809 
L 274.75267 201.47084 
L 275.51358 201.47084 
L 275.51358 203.394504 
L 276.274489 203.394504 
L 276.274489 199.450992 
L 277.035398 199.450992 
L 277.035398 205.029618 
L 277.796307 205.029618 
L 277.796307 203.87542 
L 278.557216 203.87542 
L 278.557216 204.356336 
L 279.318125 204.356336 
L 279.318125 205.318168 
L 280.079034 205.318168 
L 280.079034 206.087634 
L 280.839943 206.087634 
L 280.839943 204.837252 
L 281.600852 204.837252 
L 281.600852 205.702901 
L 282.361761 205.702901 
L 282.361761 206.087634 
L 283.12267 206.087634 
L 283.12267 207.915115 
L 283.88358 207.915115 
L 283.88358 207.241832 
L 284.644489 207.241832 
L 284.644489 208.97313 
L 286.166307 208.97313 
L 286.166307 208.299847 
L 286.927216 208.299847 
L 286.927216 209.454046 
L 288.449034 209.454046 
L 288.449034 211.762443 
L 289.209943 211.762443 
L 289.209943 212.531908 
L 289.970852 212.531908 
L 289.970852 211.858626 
L 290.731761 211.858626 
L 290.731761 212.147176 
L 291.49267 212.147176 
L 291.49267 212.820458 
L 292.25358 212.820458 
L 292.25358 212.339542 
L 293.014489 212.339542 
L 293.014489 212.820458 
L 293.775398 212.820458 
L 293.775398 213.109008 
L 294.536307 213.109008 
L 294.536307 214.07084 
L 295.297216 214.07084 
L 295.297216 214.647939 
L 296.058125 214.647939 
L 296.058125 213.589924 
L 296.819034 213.589924 
L 296.819034 214.263206 
L 297.579943 214.263206 
L 297.579943 216.47542 
L 298.340852 216.47542 
L 298.340852 215.994504 
L 299.101761 215.994504 
L 299.101761 215.513588 
L 300.62358 215.513588 
L 300.62358 216.763969 
L 302.145398 216.860153 
L 302.145398 217.148702 
L 302.906307 217.148702 
L 302.906307 216.667786 
L 303.667216 216.667786 
L 303.667216 217.918168 
L 304.428125 217.918168 
L 304.428125 217.148702 
L 305.189034 217.148702 
L 305.189034 218.206718 
L 306.710852 218.110534 
L 306.710852 218.495267 
L 307.471761 218.495267 
L 307.471761 218.110534 
L 308.23267 218.110534 
L 308.23267 218.399084 
L 308.99358 218.399084 
L 308.99358 218.783817 
L 312.037216 218.783817 
L 312.037216 218.59145 
L 312.798125 218.59145 
L 312.798125 218.88 
L 372.909943 218.88 
L 372.909943 218.88 
" clip-path="url(#p758de42343)" style="fill: none; stroke: #1f77b4; stroke-width: 1.5; stroke-linecap: square"/>
   </g>
   <g id="line2d_18">
    <path d="M 68.546307 218.88 
L 73.111761 218.88 
L 73.111761 218.59145 
L 73.87267 218.59145 
L 73.87267 218.88 
L 74.63358 218.88 
L 74.63358 218.59145 
L 75.394489 218.59145 
L 75.394489 218.783817 
L 80.720852 218.88 
L 80.720852 218.59145 
L 81.481761 218.59145 
L 81.481761 218.399084 
L 82.24267 218.399084 
L 82.24267 218.88 
L 83.00358 218.88 
L 83.00358 218.302901 
L 83.764489 218.302901 
L 83.764489 218.783817 
L 84.525398 218.783817 
L 84.525398 218.399084 
L 85.286307 218.399084 
L 85.286307 218.110534 
L 86.047216 218.110534 
L 86.047216 218.399084 
L 86.808125 218.399084 
L 86.808125 217.725802 
L 87.569034 217.725802 
L 87.569034 218.014351 
L 88.329943 218.014351 
L 88.329943 217.821985 
L 89.851761 217.918168 
L 89.851761 218.495267 
L 90.61267 218.495267 
L 90.61267 217.918168 
L 91.37358 217.918168 
L 91.37358 217.244885 
L 92.134489 217.244885 
L 92.134489 217.725802 
L 92.895398 217.725802 
L 92.895398 217.341069 
L 93.656307 217.341069 
L 93.656307 216.956336 
L 94.417216 216.956336 
L 94.417216 218.014351 
L 95.178125 218.014351 
L 95.178125 216.379237 
L 95.939034 216.379237 
L 95.939034 216.18687 
L 96.699943 216.18687 
L 96.699943 216.763969 
L 98.98267 216.667786 
L 98.98267 215.417405 
L 99.74358 215.417405 
L 99.74358 215.802137 
L 100.504489 215.802137 
L 100.504489 214.263206 
L 101.265398 214.263206 
L 101.265398 213.78229 
L 102.026307 213.78229 
L 102.026307 214.263206 
L 102.787216 214.263206 
L 102.787216 212.147176 
L 103.548125 212.147176 
L 103.548125 211.66626 
L 104.309034 211.66626 
L 104.309034 211.185344 
L 105.069943 211.185344 
L 105.069943 210.608244 
L 105.830852 210.608244 
L 105.830852 206.472366 
L 106.591761 206.472366 
L 106.591761 205.99145 
L 107.35267 205.99145 
L 107.35267 205.414351 
L 108.874489 205.510534 
L 108.874489 202.047939 
L 109.635398 202.047939 
L 109.635398 200.989924 
L 110.396307 200.989924 
L 110.396307 198.585344 
L 111.157216 198.585344 
L 111.157216 192.333435 
L 111.918125 192.333435 
L 111.918125 191.852519 
L 112.679034 191.852519 
L 112.679034 188.58229 
L 113.439943 188.58229 
L 113.439943 184.734962 
L 114.200852 184.734962 
L 114.200852 182.138015 
L 114.961761 182.138015 
L 114.961761 180.406718 
L 115.72267 180.406718 
L 115.72267 176.078473 
L 116.48358 176.078473 
L 116.48358 170.596031 
L 117.244489 170.596031 
L 117.244489 171.557863 
L 118.005398 171.557863 
L 118.005398 164.728855 
L 118.766307 164.728855 
L 118.766307 164.247939 
L 119.527216 164.247939 
L 119.527216 157.034198 
L 120.288125 157.034198 
L 120.288125 155.783817 
L 121.049034 155.783817 
L 121.049034 149.050992 
L 121.809943 149.050992 
L 121.809943 140.298321 
L 122.570852 140.298321 
L 122.570852 143.953282 
L 123.331761 143.953282 
L 123.331761 141.933435 
L 124.09267 141.933435 
L 124.09267 129.141069 
L 125.614489 129.044885 
L 125.614489 123.370076 
L 126.375398 123.370076 
L 126.375398 115.67542 
L 127.136307 115.67542 
L 127.136307 112.405191 
L 127.897216 112.405191 
L 127.897216 106.634198 
L 128.658125 106.634198 
L 128.658125 99.997557 
L 129.419034 99.997557 
L 129.419034 97.304427 
L 130.179943 97.304427 
L 130.179943 84.608244 
L 130.940852 84.608244 
L 130.940852 87.78229 
L 131.701761 87.78229 
L 131.701761 82.588397 
L 132.46267 82.588397 
L 132.46267 68.834198 
L 133.22358 68.834198 
L 133.22358 69.507481 
L 133.984489 69.507481 
L 133.984489 65.467786 
L 134.745398 65.467786 
L 134.745398 67.102901 
L 135.506307 67.102901 
L 135.506307 58.350229 
L 136.267216 58.350229 
L 136.267216 53.156336 
L 137.028125 53.156336 
L 137.028125 47.000611 
L 137.789034 47.000611 
L 137.789034 44.307481 
L 138.549943 44.307481 
L 138.549943 50.27084 
L 139.310852 50.27084 
L 139.310852 43.441832 
L 140.071761 43.441832 
L 140.071761 46.423511 
L 140.83267 46.423511 
L 140.83267 47.962443 
L 141.59358 47.962443 
L 141.59358 44.403664 
L 142.354489 44.403664 
L 142.354489 46.904427 
L 143.115398 46.904427 
L 143.115398 40.460153 
L 143.876307 40.460153 
L 143.876307 36.035725 
L 144.637216 36.035725 
L 144.637216 40.748702 
L 145.398125 40.748702 
L 145.398125 36.035725 
L 146.159034 36.035725 
L 146.159034 39.78687 
L 146.919943 39.78687 
L 146.919943 31.034198 
L 147.680852 31.034198 
L 147.680852 42.095267 
L 148.441761 42.095267 
L 148.441761 26.128855 
L 149.20267 26.128855 
L 149.20267 38.536489 
L 149.96358 38.536489 
L 149.96358 27.860153 
L 150.724489 27.860153 
L 150.724489 34.881527 
L 151.485398 34.881527 
L 151.485398 28.629618 
L 152.246307 28.629618 
L 152.246307 39.113588 
L 153.007216 39.113588 
L 153.007216 40.267786 
L 153.768125 40.267786 
L 153.768125 33.150229 
L 154.529034 33.150229 
L 154.529034 27.860153 
L 155.289943 27.860153 
L 155.289943 30.457099 
L 156.050852 30.457099 
L 156.050852 34.304427 
L 157.57267 34.400611 
L 157.57267 43.538015 
L 158.33358 43.538015 
L 158.33358 34.400611 
L 159.094489 34.400611 
L 159.094489 40.748702 
L 159.855398 40.748702 
L 159.855398 34.304427 
L 160.616307 34.304427 
L 160.616307 36.709008 
L 161.377216 36.709008 
L 161.377216 35.362443 
L 162.138125 35.362443 
L 162.138125 36.805191 
L 162.899034 36.805191 
L 162.899034 35.073893 
L 163.659943 35.073893 
L 163.659943 38.825038 
L 164.420852 38.825038 
L 164.420852 35.939542 
L 165.181761 35.939542 
L 165.181761 41.518168 
L 165.94267 41.518168 
L 165.94267 46.231145 
L 166.70358 46.231145 
L 166.70358 50.847939 
L 167.464489 50.847939 
L 167.464489 48.828092 
L 168.225398 48.828092 
L 168.225398 48.347176 
L 168.986307 48.347176 
L 168.986307 58.350229 
L 169.747216 58.350229 
L 169.747216 54.118168 
L 170.508125 54.118168 
L 170.508125 58.350229 
L 171.269034 58.350229 
L 171.269034 62.678473 
L 172.029943 62.678473 
L 172.029943 59.600611 
L 172.790852 59.600611 
L 172.790852 54.887634 
L 173.551761 54.887634 
L 173.551761 66.910534 
L 174.31267 66.910534 
L 174.31267 70.180763 
L 175.07358 70.180763 
L 175.07358 76.913588 
L 175.834489 76.913588 
L 175.834489 72.77771 
L 176.595398 72.77771 
L 176.595398 71.238779 
L 177.356307 71.238779 
L 177.356307 80.953282 
L 178.117216 80.953282 
L 178.117216 75.47084 
L 178.878125 75.47084 
L 178.878125 77.490687 
L 179.639034 77.490687 
L 179.639034 83.550229 
L 180.399943 83.550229 
L 180.399943 86.339542 
L 181.160852 86.339542 
L 181.160852 90.47542 
L 181.921761 90.47542 
L 181.921761 87.974656 
L 182.68267 87.974656 
L 182.68267 91.244885 
L 183.44358 91.244885 
L 183.44358 90.18687 
L 184.204489 90.18687 
L 184.204489 95.57313 
L 184.965398 95.57313 
L 184.965398 96.823511 
L 185.726307 96.823511 
L 185.726307 97.208244 
L 186.487216 97.208244 
L 186.487216 98.747176 
L 187.248125 98.747176 
L 187.248125 98.458626 
L 188.009034 98.458626 
L 188.009034 107.115115 
L 188.769943 107.115115 
L 188.769943 103.652519 
L 189.530852 103.652519 
L 189.530852 103.844885 
L 190.291761 103.844885 
L 190.291761 102.979237 
L 191.05267 102.979237 
L 191.05267 108.076947 
L 191.81358 108.076947 
L 191.81358 110.962443 
L 192.574489 110.962443 
L 192.574489 106.538015 
L 193.335398 106.538015 
L 193.335398 109.038779 
L 194.096307 109.038779 
L 194.096307 113.463206 
L 194.857216 113.463206 
L 194.857216 113.174656 
L 195.618125 113.174656 
L 195.618125 115.194504 
L 196.379034 115.194504 
L 196.379034 121.638779 
L 197.139943 121.638779 
L 197.139943 118.272366 
L 197.900852 118.272366 
L 197.900852 119.138015 
L 198.661761 119.138015 
L 198.661761 117.214351 
L 199.42267 117.214351 
L 199.42267 124.043359 
L 200.18358 124.043359 
L 200.18358 127.602137 
L 200.944489 127.602137 
L 200.944489 127.025038 
L 201.705398 127.025038 
L 201.705398 121.350229 
L 202.466307 121.350229 
L 202.466307 121.927328 
L 203.227216 121.927328 
L 203.227216 124.716641 
L 203.988125 124.716641 
L 203.988125 125.29374 
L 204.749034 125.29374 
L 204.749034 130.102901 
L 205.509943 130.102901 
L 205.509943 129.910534 
L 206.270852 129.910534 
L 206.270852 128.467786 
L 207.031761 128.467786 
L 207.031761 133.565496 
L 207.79267 133.565496 
L 207.79267 137.316641 
L 208.55358 137.316641 
L 208.55358 132.122748 
L 209.314489 132.122748 
L 209.314489 133.950229 
L 210.075398 133.950229 
L 210.075398 133.180763 
L 210.836307 133.180763 
L 210.836307 135.970076 
L 211.597216 135.970076 
L 211.597216 137.701374 
L 212.358125 137.701374 
L 212.358125 135.873893 
L 213.119034 135.873893 
L 213.119034 139.817405 
L 213.879943 139.817405 
L 213.879943 144.434198 
L 215.401761 144.530382 
L 215.401761 144.626565 
L 216.16267 144.626565 
L 216.16267 147.704427 
L 216.92358 147.704427 
L 216.92358 146.357863 
L 217.684489 146.357863 
L 217.684489 147.992977 
L 218.445398 147.992977 
L 218.445398 145.97313 
L 219.206307 145.97313 
L 219.206307 142.702901 
L 219.967216 142.702901 
L 219.967216 149.243359 
L 220.728125 149.243359 
L 220.728125 148.08916 
L 221.489034 148.08916 
L 221.489034 153.283053 
L 222.249943 153.283053 
L 222.249943 147.992977 
L 223.010852 147.992977 
L 223.010852 147.800611 
L 223.771761 147.800611 
L 223.771761 147.608244 
L 224.53267 147.608244 
L 224.53267 151.07084 
L 225.29358 151.07084 
L 225.29358 152.609771 
L 226.054489 152.609771 
L 226.054489 156.264733 
L 226.815398 156.264733 
L 226.815398 152.513588 
L 227.576307 152.513588 
L 227.576307 158.188397 
L 228.337216 158.188397 
L 228.337216 156.16855 
L 229.098125 156.16855 
L 229.098125 161.554809 
L 229.859034 161.554809 
L 229.859034 156.745649 
L 231.380852 156.649466 
L 231.380852 163.286107 
L 232.141761 163.286107 
L 232.141761 155.687634 
L 232.90267 155.687634 
L 232.90267 162.035725 
L 233.66358 162.035725 
L 233.66358 161.26626 
L 234.424489 161.26626 
L 234.424489 159.534962 
L 235.185398 159.534962 
L 235.185398 162.131908 
L 235.946307 162.131908 
L 235.946307 169.153282 
L 236.707216 169.153282 
L 236.707216 167.133435 
L 237.468125 167.133435 
L 237.468125 165.402137 
L 238.229034 165.402137 
L 238.229034 167.037252 
L 238.989943 167.037252 
L 238.989943 166.267786 
L 239.750852 166.267786 
L 239.750852 166.941069 
L 240.511761 166.941069 
L 240.511761 165.78687 
L 241.27267 165.78687 
L 241.27267 170.403664 
L 242.03358 170.403664 
L 242.03358 168.576183 
L 242.794489 168.576183 
L 242.794489 165.113588 
L 243.555398 165.113588 
L 243.555398 171.846412 
L 245.077216 171.846412 
L 245.077216 172.712061 
L 245.838125 172.712061 
L 245.838125 173.962443 
L 246.599034 173.962443 
L 246.599034 172.231145 
L 247.359943 172.231145 
L 247.359943 173.962443 
L 248.120852 173.962443 
L 248.120852 178.38687 
L 248.881761 178.38687 
L 248.881761 180.021985 
L 249.64267 180.021985 
L 249.64267 175.309008 
L 250.40358 175.309008 
L 250.40358 176.174656 
L 251.164489 176.174656 
L 251.164489 179.060153 
L 251.925398 179.060153 
L 251.925398 178.867786 
L 252.686307 178.867786 
L 252.686307 179.348702 
L 253.447216 179.348702 
L 253.447216 178.483053 
L 254.208125 178.483053 
L 254.208125 182.138015 
L 254.969034 182.138015 
L 254.969034 180.021985 
L 255.729943 180.021985 
L 255.729943 182.234198 
L 256.490852 182.234198 
L 256.490852 185.600611 
L 257.251761 185.600611 
L 257.251761 186.658626 
L 258.01267 186.658626 
L 258.01267 182.522748 
L 258.77358 182.522748 
L 258.77358 186.17771 
L 259.534489 186.17771 
L 259.534489 187.524275 
L 260.295398 187.524275 
L 260.295398 187.909008 
L 261.056307 187.909008 
L 261.056307 187.716641 
L 261.817216 187.716641 
L 261.817216 189.351756 
L 262.578125 189.351756 
L 262.578125 190.313588 
L 264.099943 190.409771 
L 264.099943 193.487634 
L 264.860852 193.487634 
L 264.860852 195.218931 
L 265.621761 195.218931 
L 265.621761 192.910534 
L 266.38267 192.910534 
L 266.38267 195.026565 
L 267.14358 195.026565 
L 267.14358 193.776183 
L 267.904489 193.776183 
L 267.904489 196.757863 
L 268.665398 196.757863 
L 268.665398 198.200611 
L 269.426307 198.200611 
L 269.426307 195.988397 
L 270.187216 195.988397 
L 270.187216 200.509008 
L 270.948125 200.509008 
L 270.948125 197.238779 
L 271.709034 197.238779 
L 271.709034 198.873893 
L 272.469943 198.873893 
L 272.469943 200.989924 
L 273.230852 200.989924 
L 273.230852 198.77771 
L 273.991761 198.77771 
L 273.991761 200.316641 
L 274.75267 200.316641 
L 274.75267 201.951756 
L 275.51358 201.951756 
L 275.51358 201.759389 
L 276.274489 201.759389 
L 276.274489 202.240305 
L 277.035398 202.240305 
L 277.035398 202.721221 
L 277.796307 202.721221 
L 277.796307 203.971603 
L 278.557216 203.971603 
L 278.557216 205.99145 
L 279.318125 205.99145 
L 279.318125 203.58687 
L 280.079034 203.58687 
L 280.079034 205.510534 
L 280.839943 205.510534 
L 280.839943 206.087634 
L 282.361761 206.087634 
L 282.361761 206.857099 
L 283.12267 206.857099 
L 283.12267 207.049466 
L 283.88358 207.049466 
L 283.88358 207.915115 
L 284.644489 207.915115 
L 284.644489 208.588397 
L 285.405398 208.588397 
L 285.405398 209.550229 
L 286.166307 209.550229 
L 286.166307 207.338015 
L 286.927216 207.338015 
L 286.927216 208.68458 
L 287.688125 208.68458 
L 287.688125 209.934962 
L 288.449034 209.934962 
L 288.449034 210.992977 
L 289.209943 210.992977 
L 289.209943 211.954809 
L 289.970852 211.954809 
L 289.970852 212.243359 
L 291.49267 212.243359 
L 291.49267 212.820458 
L 293.014489 212.724275 
L 293.014489 212.339542 
L 293.775398 212.339542 
L 293.775398 213.686107 
L 294.536307 213.686107 
L 294.536307 213.109008 
L 295.297216 213.109008 
L 295.297216 214.167023 
L 296.819034 214.263206 
L 296.819034 213.974656 
L 297.579943 213.974656 
L 297.579943 215.128855 
L 298.340852 215.128855 
L 298.340852 216.667786 
L 299.101761 216.667786 
L 299.101761 215.802137 
L 299.86267 215.802137 
L 299.86267 215.128855 
L 300.62358 215.128855 
L 300.62358 215.994504 
L 301.384489 215.994504 
L 301.384489 217.244885 
L 302.145398 217.244885 
L 302.145398 216.860153 
L 302.906307 216.860153 
L 302.906307 217.052519 
L 303.667216 217.052519 
L 303.667216 216.763969 
L 304.428125 216.763969 
L 304.428125 217.725802 
L 305.949943 217.629618 
L 305.949943 218.110534 
L 307.471761 218.110534 
L 307.471761 218.399084 
L 308.23267 218.399084 
L 308.23267 218.206718 
L 308.99358 218.206718 
L 308.99358 218.399084 
L 309.754489 218.399084 
L 309.754489 218.783817 
L 312.798125 218.783817 
L 312.798125 218.59145 
L 313.559034 218.59145 
L 313.559034 218.88 
L 372.909943 218.88 
L 372.909943 218.88 
" clip-path="url(#p758de42343)" style="fill: none; stroke: #ff7f0e; stroke-width: 1.5; stroke-linecap: square"/>
   </g>
   <g id="line2d_19">
    <path d="M 68.546307 218.88 
L 72.350852 218.88 
L 72.350852 218.687634 
L 79.199034 218.687634 
L 79.199034 218.88 
L 79.959943 218.88 
L 79.959943 218.687634 
L 80.720852 218.687634 
L 80.720852 218.399084 
L 81.481761 218.399084 
L 81.481761 218.783817 
L 83.00358 218.88 
L 83.00358 218.302901 
L 83.764489 218.302901 
L 83.764489 218.59145 
L 84.525398 218.59145 
L 84.525398 218.399084 
L 85.286307 218.399084 
L 85.286307 218.014351 
L 86.047216 218.014351 
L 86.047216 218.206718 
L 87.569034 218.110534 
L 87.569034 217.725802 
L 89.090852 217.821985 
L 89.090852 218.206718 
L 89.851761 218.206718 
L 89.851761 218.399084 
L 90.61267 218.399084 
L 90.61267 217.725802 
L 92.895398 217.725802 
L 92.895398 217.148702 
L 93.656307 217.148702 
L 93.656307 217.629618 
L 94.417216 217.629618 
L 94.417216 217.052519 
L 95.178125 217.052519 
L 95.178125 217.341069 
L 95.939034 217.341069 
L 95.939034 216.571603 
L 96.699943 216.571603 
L 96.699943 217.148702 
L 97.460852 217.148702 
L 97.460852 216.090687 
L 98.221761 216.090687 
L 98.221761 216.956336 
L 98.98267 216.956336 
L 98.98267 216.667786 
L 99.74358 216.667786 
L 99.74358 215.417405 
L 101.265398 215.321221 
L 101.265398 214.744122 
L 102.026307 214.744122 
L 102.026307 213.686107 
L 102.787216 213.686107 
L 102.787216 213.49374 
L 103.548125 213.49374 
L 103.548125 213.012824 
L 104.309034 213.012824 
L 104.309034 211.281527 
L 105.830852 211.185344 
L 105.830852 210.608244 
L 106.591761 210.608244 
L 106.591761 208.299847 
L 107.35267 208.299847 
L 107.35267 207.338015 
L 108.11358 207.338015 
L 108.11358 206.087634 
L 108.874489 206.087634 
L 108.874489 205.414351 
L 109.635398 205.414351 
L 109.635398 204.741069 
L 110.396307 204.741069 
L 110.396307 201.47084 
L 111.157216 201.47084 
L 111.157216 197.719695 
L 111.918125 197.719695 
L 111.918125 198.77771 
L 112.679034 198.77771 
L 112.679034 193.776183 
L 113.439943 193.776183 
L 113.439943 190.313588 
L 114.200852 190.313588 
L 114.200852 188.486107 
L 114.961761 188.486107 
L 114.961761 183.099847 
L 115.72267 183.099847 
L 115.72267 181.08 
L 116.48358 181.08 
L 116.48358 179.733435 
L 117.244489 179.733435 
L 117.244489 177.040305 
L 118.005398 177.040305 
L 118.005398 170.88458 
L 118.766307 170.88458 
L 118.766307 171.557863 
L 119.527216 171.557863 
L 119.527216 166.267786 
L 120.288125 166.267786 
L 120.288125 166.07542 
L 121.049034 166.07542 
L 121.049034 155.687634 
L 121.809943 155.687634 
L 121.809943 151.936489 
L 122.570852 151.936489 
L 122.570852 152.417405 
L 123.331761 152.417405 
L 123.331761 145.492214 
L 124.09267 145.492214 
L 124.09267 142.99145 
L 124.85358 142.99145 
L 124.85358 137.701374 
L 125.614489 137.701374 
L 125.614489 130.487634 
L 126.375398 130.487634 
L 126.375398 134.912061 
L 127.136307 134.912061 
L 127.136307 123.754809 
L 127.897216 123.754809 
L 127.897216 113.174656 
L 128.658125 113.174656 
L 128.658125 113.944122 
L 129.419034 113.944122 
L 129.419034 107.211298 
L 130.179943 107.211298 
L 130.179943 99.709008 
L 130.940852 99.709008 
L 130.940852 97.97771 
L 131.701761 97.97771 
L 131.701761 94.130382 
L 132.46267 94.130382 
L 132.46267 89.994504 
L 133.22358 89.994504 
L 133.22358 82.299847 
L 133.984489 82.299847 
L 133.984489 71.431145 
L 134.745398 71.431145 
L 134.745398 79.414351 
L 135.506307 79.414351 
L 135.506307 69.411298 
L 136.267216 69.411298 
L 136.267216 59.792977 
L 137.028125 59.792977 
L 137.028125 58.350229 
L 137.789034 58.350229 
L 137.789034 54.695267 
L 138.549943 54.695267 
L 138.549943 51.617405 
L 139.310852 51.617405 
L 139.310852 45.846412 
L 140.071761 45.846412 
L 140.071761 56.522748 
L 140.83267 56.522748 
L 140.83267 52.963969 
L 141.59358 52.963969 
L 141.59358 48.539542 
L 142.354489 48.539542 
L 142.354489 47.385344 
L 143.115398 47.385344 
L 143.115398 41.614351 
L 143.876307 41.614351 
L 143.876307 50.559389 
L 144.637216 50.559389 
L 144.637216 41.421985 
L 145.398125 41.421985 
L 145.398125 39.113588 
L 146.919943 39.113588 
L 146.919943 45.365496 
L 147.680852 45.365496 
L 147.680852 36.997557 
L 148.441761 36.997557 
L 148.441761 37.574656 
L 149.20267 37.574656 
L 149.20267 40.171603 
L 149.96358 40.171603 
L 149.96358 37.67084 
L 150.724489 37.67084 
L 150.724489 35.554809 
L 151.485398 35.554809 
L 151.485398 29.687634 
L 152.246307 29.687634 
L 152.246307 36.035725 
L 153.007216 36.035725 
L 153.007216 38.921221 
L 153.768125 38.921221 
L 153.768125 38.440305 
L 154.529034 38.440305 
L 154.529034 34.68916 
L 155.289943 34.68916 
L 155.289943 36.901374 
L 156.050852 36.901374 
L 156.050852 32.188397 
L 156.811761 32.188397 
L 156.811761 40.171603 
L 157.57267 40.171603 
L 157.57267 29.014351 
L 158.33358 29.014351 
L 158.33358 36.997557 
L 159.094489 36.997557 
L 159.094489 44.596031 
L 159.855398 44.596031 
L 159.855398 36.516641 
L 160.616307 36.516641 
L 160.616307 39.883053 
L 161.377216 39.883053 
L 161.377216 39.402137 
L 162.138125 39.402137 
L 162.138125 33.631145 
L 162.899034 33.631145 
L 162.899034 41.902901 
L 163.659943 41.902901 
L 163.659943 37.189924 
L 164.420852 37.189924 
L 164.420852 34.68916 
L 165.181761 34.68916 
L 165.181761 41.806718 
L 165.94267 41.806718 
L 165.94267 34.97771 
L 166.70358 34.97771 
L 166.70358 39.305954 
L 167.464489 39.305954 
L 167.464489 44.403664 
L 168.225398 44.403664 
L 168.225398 40.748702 
L 168.986307 40.748702 
L 168.986307 49.212824 
L 169.747216 49.212824 
L 169.747216 46.327328 
L 170.508125 46.327328 
L 170.508125 55.657099 
L 171.269034 55.657099 
L 171.269034 43.730382 
L 172.029943 43.730382 
L 172.029943 47.962443 
L 172.790852 47.962443 
L 172.790852 60.850992 
L 173.551761 60.850992 
L 173.551761 57.676947 
L 174.31267 57.676947 
L 174.31267 63.832672 
L 175.07358 63.832672 
L 175.07358 60.081527 
L 175.834489 60.081527 
L 175.834489 62.87084 
L 176.595398 62.87084 
L 176.595398 66.237252 
L 177.356307 66.237252 
L 177.356307 57.48458 
L 178.117216 57.48458 
L 178.117216 78.260153 
L 178.878125 78.260153 
L 178.878125 73.450992 
L 179.639034 73.450992 
L 179.639034 69.699847 
L 180.399943 69.699847 
L 180.399943 73.739542 
L 181.160852 73.739542 
L 181.160852 84.992977 
L 181.921761 84.992977 
L 181.921761 85.66626 
L 182.68267 85.66626 
L 182.68267 74.412824 
L 183.44358 74.412824 
L 183.44358 84.992977 
L 184.204489 84.992977 
L 184.204489 91.821985 
L 184.965398 91.821985 
L 184.965398 93.745649 
L 185.726307 93.745649 
L 185.726307 92.783817 
L 186.487216 92.783817 
L 186.487216 81.818931 
L 187.248125 81.818931 
L 187.248125 94.226565 
L 188.009034 94.226565 
L 188.009034 93.553282 
L 188.769943 93.553282 
L 188.769943 97.400611 
L 189.530852 97.400611 
L 189.530852 100.09374 
L 190.291761 100.09374 
L 190.291761 101.440305 
L 191.05267 101.440305 
L 191.05267 105.864733 
L 191.81358 105.864733 
L 191.81358 109.134962 
L 192.574489 109.134962 
L 192.574489 104.614351 
L 193.335398 104.614351 
L 193.335398 103.171603 
L 194.096307 103.171603 
L 194.096307 108.557863 
L 194.857216 108.557863 
L 194.857216 107.499847 
L 195.618125 107.499847 
L 195.618125 109.808244 
L 196.379034 109.808244 
L 196.379034 111.924275 
L 197.139943 111.924275 
L 197.139943 114.040305 
L 198.661761 114.040305 
L 198.661761 112.69374 
L 199.42267 112.69374 
L 199.42267 115.002137 
L 200.18358 115.002137 
L 200.18358 122.408244 
L 200.944489 122.408244 
L 200.944489 120.965496 
L 201.705398 120.965496 
L 201.705398 121.831145 
L 202.466307 121.831145 
L 202.466307 120.48458 
L 203.988125 120.48458 
L 203.988125 122.504427 
L 204.749034 122.504427 
L 204.749034 119.907481 
L 205.509943 119.907481 
L 205.509943 129.333435 
L 206.270852 129.333435 
L 206.270852 126.159389 
L 207.031761 126.159389 
L 207.031761 133.757863 
L 207.79267 133.757863 
L 207.79267 133.180763 
L 208.55358 133.180763 
L 208.55358 126.736489 
L 209.314489 126.736489 
L 209.314489 129.429618 
L 210.075398 129.429618 
L 210.075398 133.37313 
L 210.836307 133.37313 
L 210.836307 132.315115 
L 212.358125 132.218931 
L 212.358125 133.950229 
L 213.119034 133.950229 
L 213.119034 137.605191 
L 213.879943 137.605191 
L 213.879943 139.625038 
L 214.640852 139.625038 
L 214.640852 140.779237 
L 215.401761 140.779237 
L 215.401761 143.087634 
L 216.16267 143.087634 
L 216.16267 140.971603 
L 216.92358 140.971603 
L 216.92358 143.953282 
L 217.684489 143.953282 
L 217.684489 142.318168 
L 218.445398 142.318168 
L 218.445398 145.588397 
L 219.206307 145.588397 
L 219.206307 141.260153 
L 219.967216 141.260153 
L 219.967216 147.415878 
L 220.728125 147.415878 
L 220.728125 148.08916 
L 221.489034 148.08916 
L 221.489034 146.357863 
L 222.249943 146.357863 
L 222.249943 149.435725 
L 223.010852 149.435725 
L 223.010852 145.011298 
L 223.771761 145.011298 
L 223.771761 150.301374 
L 225.29358 150.301374 
L 225.29358 149.628092 
L 226.054489 149.628092 
L 226.054489 148.66626 
L 226.815398 148.66626 
L 226.815398 150.205191 
L 227.576307 150.205191 
L 227.576307 154.533435 
L 228.337216 154.533435 
L 228.337216 153.18687 
L 229.098125 153.18687 
L 229.098125 158.476947 
L 229.859034 158.476947 
L 229.859034 153.956336 
L 230.619943 153.956336 
L 230.619943 161.554809 
L 231.380852 161.554809 
L 231.380852 155.783817 
L 232.141761 155.783817 
L 232.141761 163.09374 
L 232.90267 163.09374 
L 232.90267 159.727328 
L 233.66358 159.727328 
L 233.66358 158.092214 
L 234.424489 158.092214 
L 234.424489 158.957863 
L 235.185398 158.957863 
L 235.185398 159.150229 
L 235.946307 159.150229 
L 235.946307 163.959389 
L 236.707216 163.959389 
L 236.707216 163.67084 
L 237.468125 163.67084 
L 237.468125 162.805191 
L 238.229034 162.805191 
L 238.229034 166.07542 
L 238.989943 166.07542 
L 238.989943 168.864733 
L 239.750852 168.864733 
L 239.750852 166.652519 
L 240.511761 166.652519 
L 240.511761 161.170076 
L 241.27267 161.170076 
L 241.27267 168.48 
L 242.03358 168.48 
L 242.03358 167.421985 
L 242.794489 167.421985 
L 242.794489 171.269313 
L 243.555398 171.269313 
L 243.555398 168.864733 
L 244.316307 168.864733 
L 244.316307 170.788397 
L 245.077216 170.788397 
L 245.077216 170.499847 
L 245.838125 170.499847 
L 245.838125 175.116641 
L 247.359943 175.020458 
L 247.359943 175.309008 
L 248.120852 175.309008 
L 248.120852 172.423511 
L 248.881761 172.423511 
L 248.881761 176.463206 
L 249.64267 176.463206 
L 249.64267 178.67542 
L 250.40358 178.67542 
L 250.40358 177.328855 
L 251.164489 177.328855 
L 251.164489 178.290687 
L 251.925398 178.290687 
L 251.925398 181.08 
L 252.686307 181.08 
L 252.686307 180.214351 
L 253.447216 180.214351 
L 253.447216 177.328855 
L 254.208125 177.328855 
L 254.208125 182.907481 
L 254.969034 182.907481 
L 254.969034 179.348702 
L 255.729943 179.348702 
L 255.729943 184.157863 
L 256.490852 184.157863 
L 256.490852 182.715115 
L 257.251761 182.715115 
L 257.251761 189.063206 
L 258.01267 189.063206 
L 258.01267 185.504427 
L 258.77358 185.504427 
L 258.77358 183.580763 
L 259.534489 183.580763 
L 259.534489 191.179237 
L 260.295398 191.179237 
L 260.295398 187.620458 
L 261.056307 187.620458 
L 261.056307 188.486107 
L 261.817216 188.486107 
L 261.817216 189.159389 
L 262.578125 189.159389 
L 262.578125 192.141069 
L 263.339034 192.141069 
L 263.339034 191.179237 
L 264.099943 191.179237 
L 264.099943 192.910534 
L 264.860852 192.910534 
L 264.860852 194.353282 
L 265.621761 194.353282 
L 265.621761 194.064733 
L 266.38267 194.064733 
L 266.38267 194.257099 
L 267.14358 194.257099 
L 267.14358 195.026565 
L 267.904489 195.026565 
L 267.904489 196.37313 
L 268.665398 196.37313 
L 268.665398 198.104427 
L 269.426307 198.104427 
L 269.426307 198.48916 
L 270.187216 198.48916 
L 270.187216 199.739542 
L 270.948125 199.739542 
L 270.948125 200.316641 
L 271.709034 200.316641 
L 271.709034 199.06626 
L 272.469943 199.06626 
L 272.469943 198.296794 
L 273.230852 198.296794 
L 273.230852 201.855573 
L 273.991761 201.855573 
L 273.991761 199.931908 
L 274.75267 199.931908 
L 274.75267 200.797557 
L 275.51358 200.797557 
L 275.51358 201.086107 
L 276.274489 201.086107 
L 276.274489 204.452519 
L 277.035398 204.452519 
L 277.035398 203.105954 
L 277.796307 203.105954 
L 277.796307 203.683053 
L 278.557216 203.683053 
L 278.557216 204.163969 
L 280.079034 204.260153 
L 280.079034 205.414351 
L 281.600852 205.318168 
L 281.600852 207.241832 
L 282.361761 207.241832 
L 282.361761 208.203664 
L 283.12267 208.203664 
L 283.12267 207.722748 
L 283.88358 207.722748 
L 283.88358 207.145649 
L 284.644489 207.145649 
L 284.644489 207.626565 
L 285.405398 207.626565 
L 285.405398 208.876947 
L 286.166307 208.876947 
L 286.166307 207.626565 
L 286.927216 207.626565 
L 286.927216 210.031145 
L 287.688125 210.031145 
L 287.688125 208.68458 
L 288.449034 208.68458 
L 288.449034 210.608244 
L 289.209943 210.608244 
L 289.209943 211.954809 
L 289.970852 211.954809 
L 289.970852 212.147176 
L 290.731761 212.147176 
L 290.731761 212.531908 
L 292.25358 212.435725 
L 292.25358 213.589924 
L 293.014489 213.589924 
L 293.014489 212.050992 
L 293.775398 212.050992 
L 293.775398 213.589924 
L 294.536307 213.589924 
L 294.536307 213.301374 
L 295.297216 213.301374 
L 295.297216 214.167023 
L 296.058125 214.167023 
L 296.058125 213.589924 
L 296.819034 213.589924 
L 296.819034 214.455573 
L 298.340852 214.359389 
L 298.340852 216.18687 
L 299.86267 216.090687 
L 299.86267 215.417405 
L 300.62358 215.417405 
L 300.62358 215.802137 
L 301.384489 215.802137 
L 301.384489 216.18687 
L 302.145398 216.18687 
L 302.145398 216.763969 
L 302.906307 216.763969 
L 302.906307 217.148702 
L 305.189034 217.148702 
L 305.189034 217.533435 
L 306.710852 217.629618 
L 306.710852 218.302901 
L 308.99358 218.206718 
L 308.99358 218.495267 
L 309.754489 218.495267 
L 309.754489 218.302901 
L 310.515398 218.302901 
L 310.515398 218.783817 
L 313.559034 218.783817 
L 313.559034 218.59145 
L 314.319943 218.59145 
L 314.319943 218.88 
L 372.909943 218.88 
L 372.909943 218.88 
" clip-path="url(#p758de42343)" style="fill: none; stroke: #2ca02c; stroke-width: 1.5; stroke-linecap: square"/>
   </g>
  </g>
 </g>
 <defs>
  <clipPath id="p758de42343">
   <rect x="53.328125" y="7.2" width="334.8" height="221.76"/>
  </clipPath>
 </defs>
</svg>
