<?xml version="1.0" encoding="utf-8" standalone="no"?>
<!DOCTYPE svg PUBLIC "-//W3C//DTD SVG 1.1//EN"
  "http://www.w3.org/Graphics/SVG/1.1/DTD/svg11.dtd">
<svg xmlns:xlink="http://www.w3.org/1999/xlink" width="395.328125pt" height="268.200625pt" viewBox="0 0 395.328125 268.200625" xmlns="http://www.w3.org/2000/svg" version="1.1">
 <metadata>
  <rdf:RDF xmlns:dc="http://purl.org/dc/elements/1.1/" xmlns:cc="http://creativecommons.org/ns#" xmlns:rdf="http://www.w3.org/1999/02/22-rdf-syntax-ns#">
   <cc:Work>
    <dc:type rdf:resource="http://purl.org/dc/dcmitype/StillImage"/>
    <dc:date>2024-12-12T12:31:04.659472</dc:date>
    <dc:format>image/svg+xml</dc:format>
    <dc:creator>
     <cc:Agent>
      <dc:title>Matplotlib v3.7.3, https://matplotlib.org/</dc:title>
     </cc:Agent>
    </dc:creator>
   </cc:Work>
  </rdf:RDF>
 </metadata>
 <defs>
  <style type="text/css">*{stroke-linejoin: round; stroke-linecap: butt}</style>
 </defs>
 <g id="figure_1">
  <g id="patch_1">
   <path d="M 0 268.200625 
L 395.328125 268.200625 
L 395.328125 0 
L 0 0 
z
" style="fill: #ffffff"/>
  </g>
  <g id="axes_1">
   <g id="patch_2">
    <path d="M 53.328125 228.96 
L 388.128125 228.96 
L 388.128125 7.2 
L 53.328125 7.2 
z
" style="fill: #ffffff"/>
   </g>
   <g id="matplotlib.axis_1">
    <g id="xtick_1">
     <g id="line2d_1">
      <defs>
       <path id="mcb3577eb97" d="M 0 0 
L 0 3.5 
" style="stroke: #000000; stroke-width: 0.8"/>
      </defs>
      <g>
       <use xlink:href="#mcb3577eb97" x="68.546307" y="228.96" style="stroke: #000000; stroke-width: 0.8"/>
      </g>
     </g>
     <g id="text_1">
      <!-- 2 -->
      <g transform="translate(65.365057 243.558437) scale(0.1 -0.1)">
       <defs>
        <path id="DejaVuSans-32" d="M 1228 531 
L 3431 531 
L 3431 0 
L 469 0 
L 469 531 
Q 828 903 1448 1529 
Q 2069 2156 2228 2338 
Q 2531 2678 2651 2914 
Q 2772 3150 2772 3378 
Q 2772 3750 2511 3984 
Q 2250 4219 1831 4219 
Q 1534 4219 1204 4116 
Q 875 4013 500 3803 
L 500 4441 
Q 881 4594 1212 4672 
Q 1544 4750 1819 4750 
Q 2544 4750 2975 4387 
Q 3406 4025 3406 3419 
Q 3406 3131 3298 2873 
Q 3191 2616 2906 2266 
Q 2828 2175 2409 1742 
Q 1991 1309 1228 531 
z
" transform="scale(0.015625)"/>
       </defs>
       <use xlink:href="#DejaVuSans-32"/>
      </g>
     </g>
    </g>
    <g id="xtick_2">
     <g id="line2d_2">
      <g>
       <use xlink:href="#mcb3577eb97" x="129.419034" y="228.96" style="stroke: #000000; stroke-width: 0.8"/>
      </g>
     </g>
     <g id="text_2">
      <!-- 4 -->
      <g transform="translate(126.237784 243.558437) scale(0.1 -0.1)">
       <defs>
        <path id="DejaVuSans-34" d="M 2419 4116 
L 825 1625 
L 2419 1625 
L 2419 4116 
z
M 2253 4666 
L 3047 4666 
L 3047 1625 
L 3713 1625 
L 3713 1100 
L 3047 1100 
L 3047 0 
L 2419 0 
L 2419 1100 
L 313 1100 
L 313 1709 
L 2253 4666 
z
" transform="scale(0.015625)"/>
       </defs>
       <use xlink:href="#DejaVuSans-34"/>
      </g>
     </g>
    </g>
    <g id="xtick_3">
     <g id="line2d_3">
      <g>
       <use xlink:href="#mcb3577eb97" x="190.291761" y="228.96" style="stroke: #000000; stroke-width: 0.8"/>
      </g>
     </g>
     <g id="text_3">
      <!-- 6 -->
      <g transform="translate(187.110511 243.558437) scale(0.1 -0.1)">
       <defs>
        <path id="DejaVuSans-36" d="M 2113 2584 
Q 1688 2584 1439 2293 
Q 1191 2003 1191 1497 
Q 1191 994 1439 701 
Q 1688 409 2113 409 
Q 2538 409 2786 701 
Q 3034 994 3034 1497 
Q 3034 2003 2786 2293 
Q 2538 2584 2113 2584 
z
M 3366 4563 
L 3366 3988 
Q 3128 4100 2886 4159 
Q 2644 4219 2406 4219 
Q 1781 4219 1451 3797 
Q 1122 3375 1075 2522 
Q 1259 2794 1537 2939 
Q 1816 3084 2150 3084 
Q 2853 3084 3261 2657 
Q 3669 2231 3669 1497 
Q 3669 778 3244 343 
Q 2819 -91 2113 -91 
Q 1303 -91 875 529 
Q 447 1150 447 2328 
Q 447 3434 972 4092 
Q 1497 4750 2381 4750 
Q 2619 4750 2861 4703 
Q 3103 4656 3366 4563 
z
" transform="scale(0.015625)"/>
       </defs>
       <use xlink:href="#DejaVuSans-36"/>
      </g>
     </g>
    </g>
    <g id="xtick_4">
     <g id="line2d_4">
      <g>
       <use xlink:href="#mcb3577eb97" x="251.164489" y="228.96" style="stroke: #000000; stroke-width: 0.8"/>
      </g>
     </g>
     <g id="text_4">
      <!-- 8 -->
      <g transform="translate(247.983239 243.558437) scale(0.1 -0.1)">
       <defs>
        <path id="DejaVuSans-38" d="M 2034 2216 
Q 1584 2216 1326 1975 
Q 1069 1734 1069 1313 
Q 1069 891 1326 650 
Q 1584 409 2034 409 
Q 2484 409 2743 651 
Q 3003 894 3003 1313 
Q 3003 1734 2745 1975 
Q 2488 2216 2034 2216 
z
M 1403 2484 
Q 997 2584 770 2862 
Q 544 3141 544 3541 
Q 544 4100 942 4425 
Q 1341 4750 2034 4750 
Q 2731 4750 3128 4425 
Q 3525 4100 3525 3541 
Q 3525 3141 3298 2862 
Q 3072 2584 2669 2484 
Q 3125 2378 3379 2068 
Q 3634 1759 3634 1313 
Q 3634 634 3220 271 
Q 2806 -91 2034 -91 
Q 1263 -91 848 271 
Q 434 634 434 1313 
Q 434 1759 690 2068 
Q 947 2378 1403 2484 
z
M 1172 3481 
Q 1172 3119 1398 2916 
Q 1625 2713 2034 2713 
Q 2441 2713 2670 2916 
Q 2900 3119 2900 3481 
Q 2900 3844 2670 4047 
Q 2441 4250 2034 4250 
Q 1625 4250 1398 4047 
Q 1172 3844 1172 3481 
z
" transform="scale(0.015625)"/>
       </defs>
       <use xlink:href="#DejaVuSans-38"/>
      </g>
     </g>
    </g>
    <g id="xtick_5">
     <g id="line2d_5">
      <g>
       <use xlink:href="#mcb3577eb97" x="312.037216" y="228.96" style="stroke: #000000; stroke-width: 0.8"/>
      </g>
     </g>
     <g id="text_5">
      <!-- 10 -->
      <g transform="translate(305.674716 243.558437) scale(0.1 -0.1)">
       <defs>
        <path id="DejaVuSans-31" d="M 794 531 
L 1825 531 
L 1825 4091 
L 703 3866 
L 703 4441 
L 1819 4666 
L 2450 4666 
L 2450 531 
L 3481 531 
L 3481 0 
L 794 0 
L 794 531 
z
" transform="scale(0.015625)"/>
        <path id="DejaVuSans-30" d="M 2034 4250 
Q 1547 4250 1301 3770 
Q 1056 3291 1056 2328 
Q 1056 1369 1301 889 
Q 1547 409 2034 409 
Q 2525 409 2770 889 
Q 3016 1369 3016 2328 
Q 3016 3291 2770 3770 
Q 2525 4250 2034 4250 
z
M 2034 4750 
Q 2819 4750 3233 4129 
Q 3647 3509 3647 2328 
Q 3647 1150 3233 529 
Q 2819 -91 2034 -91 
Q 1250 -91 836 529 
Q 422 1150 422 2328 
Q 422 3509 836 4129 
Q 1250 4750 2034 4750 
z
" transform="scale(0.015625)"/>
       </defs>
       <use xlink:href="#DejaVuSans-31"/>
       <use xlink:href="#DejaVuSans-30" x="63.623047"/>
      </g>
     </g>
    </g>
    <g id="xtick_6">
     <g id="line2d_6">
      <g>
       <use xlink:href="#mcb3577eb97" x="372.909943" y="228.96" style="stroke: #000000; stroke-width: 0.8"/>
      </g>
     </g>
     <g id="text_6">
      <!-- 12 -->
      <g transform="translate(366.547443 243.558437) scale(0.1 -0.1)">
       <use xlink:href="#DejaVuSans-31"/>
       <use xlink:href="#DejaVuSans-32" x="63.623047"/>
      </g>
     </g>
    </g>
    <g id="text_7">
     <!-- wavelength [Å] -->
     <g transform="translate(182.690625 258.920937) scale(0.1 -0.1)">
      <defs>
       <path id="DejaVuSans-77" d="M 269 3500 
L 844 3500 
L 1563 769 
L 2278 3500 
L 2956 3500 
L 3675 769 
L 4391 3500 
L 4966 3500 
L 4050 0 
L 3372 0 
L 2619 2869 
L 1863 0 
L 1184 0 
L 269 3500 
z
" transform="scale(0.015625)"/>
       <path id="DejaVuSans-61" d="M 2194 1759 
Q 1497 1759 1228 1600 
Q 959 1441 959 1056 
Q 959 750 1161 570 
Q 1363 391 1709 391 
Q 2188 391 2477 730 
Q 2766 1069 2766 1631 
L 2766 1759 
L 2194 1759 
z
M 3341 1997 
L 3341 0 
L 2766 0 
L 2766 531 
Q 2569 213 2275 61 
Q 1981 -91 1556 -91 
Q 1019 -91 701 211 
Q 384 513 384 1019 
Q 384 1609 779 1909 
Q 1175 2209 1959 2209 
L 2766 2209 
L 2766 2266 
Q 2766 2663 2505 2880 
Q 2244 3097 1772 3097 
Q 1472 3097 1187 3025 
Q 903 2953 641 2809 
L 641 3341 
Q 956 3463 1253 3523 
Q 1550 3584 1831 3584 
Q 2591 3584 2966 3190 
Q 3341 2797 3341 1997 
z
" transform="scale(0.015625)"/>
       <path id="DejaVuSans-76" d="M 191 3500 
L 800 3500 
L 1894 563 
L 2988 3500 
L 3597 3500 
L 2284 0 
L 1503 0 
L 191 3500 
z
" transform="scale(0.015625)"/>
       <path id="DejaVuSans-65" d="M 3597 1894 
L 3597 1613 
L 953 1613 
Q 991 1019 1311 708 
Q 1631 397 2203 397 
Q 2534 397 2845 478 
Q 3156 559 3463 722 
L 3463 178 
Q 3153 47 2828 -22 
Q 2503 -91 2169 -91 
Q 1331 -91 842 396 
Q 353 884 353 1716 
Q 353 2575 817 3079 
Q 1281 3584 2069 3584 
Q 2775 3584 3186 3129 
Q 3597 2675 3597 1894 
z
M 3022 2063 
Q 3016 2534 2758 2815 
Q 2500 3097 2075 3097 
Q 1594 3097 1305 2825 
Q 1016 2553 972 2059 
L 3022 2063 
z
" transform="scale(0.015625)"/>
       <path id="DejaVuSans-6c" d="M 603 4863 
L 1178 4863 
L 1178 0 
L 603 0 
L 603 4863 
z
" transform="scale(0.015625)"/>
       <path id="DejaVuSans-6e" d="M 3513 2113 
L 3513 0 
L 2938 0 
L 2938 2094 
Q 2938 2591 2744 2837 
Q 2550 3084 2163 3084 
Q 1697 3084 1428 2787 
Q 1159 2491 1159 1978 
L 1159 0 
L 581 0 
L 581 3500 
L 1159 3500 
L 1159 2956 
Q 1366 3272 1645 3428 
Q 1925 3584 2291 3584 
Q 2894 3584 3203 3211 
Q 3513 2838 3513 2113 
z
" transform="scale(0.015625)"/>
       <path id="DejaVuSans-67" d="M 2906 1791 
Q 2906 2416 2648 2759 
Q 2391 3103 1925 3103 
Q 1463 3103 1205 2759 
Q 947 2416 947 1791 
Q 947 1169 1205 825 
Q 1463 481 1925 481 
Q 2391 481 2648 825 
Q 2906 1169 2906 1791 
z
M 3481 434 
Q 3481 -459 3084 -895 
Q 2688 -1331 1869 -1331 
Q 1566 -1331 1297 -1286 
Q 1028 -1241 775 -1147 
L 775 -588 
Q 1028 -725 1275 -790 
Q 1522 -856 1778 -856 
Q 2344 -856 2625 -561 
Q 2906 -266 2906 331 
L 2906 616 
Q 2728 306 2450 153 
Q 2172 0 1784 0 
Q 1141 0 747 490 
Q 353 981 353 1791 
Q 353 2603 747 3093 
Q 1141 3584 1784 3584 
Q 2172 3584 2450 3431 
Q 2728 3278 2906 2969 
L 2906 3500 
L 3481 3500 
L 3481 434 
z
" transform="scale(0.015625)"/>
       <path id="DejaVuSans-74" d="M 1172 4494 
L 1172 3500 
L 2356 3500 
L 2356 3053 
L 1172 3053 
L 1172 1153 
Q 1172 725 1289 603 
Q 1406 481 1766 481 
L 2356 481 
L 2356 0 
L 1766 0 
Q 1100 0 847 248 
Q 594 497 594 1153 
L 594 3053 
L 172 3053 
L 172 3500 
L 594 3500 
L 594 4494 
L 1172 4494 
z
" transform="scale(0.015625)"/>
       <path id="DejaVuSans-68" d="M 3513 2113 
L 3513 0 
L 2938 0 
L 2938 2094 
Q 2938 2591 2744 2837 
Q 2550 3084 2163 3084 
Q 1697 3084 1428 2787 
Q 1159 2491 1159 1978 
L 1159 0 
L 581 0 
L 581 4863 
L 1159 4863 
L 1159 2956 
Q 1366 3272 1645 3428 
Q 1925 3584 2291 3584 
Q 2894 3584 3203 3211 
Q 3513 2838 3513 2113 
z
" transform="scale(0.015625)"/>
       <path id="DejaVuSans-20" transform="scale(0.015625)"/>
       <path id="DejaVuSans-5b" d="M 550 4863 
L 1875 4863 
L 1875 4416 
L 1125 4416 
L 1125 -397 
L 1875 -397 
L 1875 -844 
L 550 -844 
L 550 4863 
z
" transform="scale(0.015625)"/>
       <path id="DejaVuSans-c5" d="M 2663 5081 
Q 2663 5278 2523 5417 
Q 2384 5556 2188 5556 
Q 1988 5556 1852 5420 
Q 1716 5284 1716 5081 
Q 1716 4884 1853 4746 
Q 1991 4609 2188 4609 
Q 2384 4609 2523 4746 
Q 2663 4884 2663 5081 
z
M 2188 4044 
L 1338 1722 
L 3041 1722 
L 2188 4044 
z
M 1716 4366 
Q 1525 4494 1428 4673 
Q 1331 4853 1331 5081 
Q 1331 5441 1579 5691 
Q 1828 5941 2188 5941 
Q 2544 5941 2795 5689 
Q 3047 5438 3047 5081 
Q 3047 4863 2948 4678 
Q 2850 4494 2663 4366 
L 4325 0 
L 3669 0 
L 3244 1197 
L 1141 1197 
L 716 0 
L 50 0 
L 1716 4366 
z
" transform="scale(0.015625)"/>
       <path id="DejaVuSans-5d" d="M 1947 4863 
L 1947 -844 
L 622 -844 
L 622 -397 
L 1369 -397 
L 1369 4416 
L 622 4416 
L 622 4863 
L 1947 4863 
z
" transform="scale(0.015625)"/>
      </defs>
      <use xlink:href="#DejaVuSans-77"/>
      <use xlink:href="#DejaVuSans-61" x="81.787109"/>
      <use xlink:href="#DejaVuSans-76" x="143.066406"/>
      <use xlink:href="#DejaVuSans-65" x="202.246094"/>
      <use xlink:href="#DejaVuSans-6c" x="263.769531"/>
      <use xlink:href="#DejaVuSans-65" x="291.552734"/>
      <use xlink:href="#DejaVuSans-6e" x="353.076172"/>
      <use xlink:href="#DejaVuSans-67" x="416.455078"/>
      <use xlink:href="#DejaVuSans-74" x="479.931641"/>
      <use xlink:href="#DejaVuSans-68" x="519.140625"/>
      <use xlink:href="#DejaVuSans-20" x="582.519531"/>
      <use xlink:href="#DejaVuSans-5b" x="614.306641"/>
      <use xlink:href="#DejaVuSans-c5" x="653.320312"/>
      <use xlink:href="#DejaVuSans-5d" x="721.728516"/>
     </g>
    </g>
   </g>
   <g id="matplotlib.axis_2">
    <g id="ytick_1">
     <g id="line2d_7">
      <defs>
       <path id="m0decccd580" d="M 0 0 
L -3.5 0 
" style="stroke: #000000; stroke-width: 0.8"/>
      </defs>
      <g>
       <use xlink:href="#m0decccd580" x="53.328125" y="218.88" style="stroke: #000000; stroke-width: 0.8"/>
      </g>
     </g>
     <g id="text_8">
      <!-- 0 -->
      <g transform="translate(39.965625 222.679219) scale(0.1 -0.1)">
       <use xlink:href="#DejaVuSans-30"/>
      </g>
     </g>
    </g>
    <g id="ytick_2">
     <g id="line2d_8">
      <g>
       <use xlink:href="#m0decccd580" x="53.328125" y="177.737143" style="stroke: #000000; stroke-width: 0.8"/>
      </g>
     </g>
     <g id="text_9">
      <!-- 200 -->
      <g transform="translate(27.240625 181.536362) scale(0.1 -0.1)">
       <use xlink:href="#DejaVuSans-32"/>
       <use xlink:href="#DejaVuSans-30" x="63.623047"/>
       <use xlink:href="#DejaVuSans-30" x="127.246094"/>
      </g>
     </g>
    </g>
    <g id="ytick_3">
     <g id="line2d_9">
      <g>
       <use xlink:href="#m0decccd580" x="53.328125" y="136.594286" style="stroke: #000000; stroke-width: 0.8"/>
      </g>
     </g>
     <g id="text_10">
      <!-- 400 -->
      <g transform="translate(27.240625 140.393504) scale(0.1 -0.1)">
       <use xlink:href="#DejaVuSans-34"/>
       <use xlink:href="#DejaVuSans-30" x="63.623047"/>
       <use xlink:href="#DejaVuSans-30" x="127.246094"/>
      </g>
     </g>
    </g>
    <g id="ytick_4">
     <g id="line2d_10">
      <g>
       <use xlink:href="#m0decccd580" x="53.328125" y="95.451429" style="stroke: #000000; stroke-width: 0.8"/>
      </g>
     </g>
     <g id="text_11">
      <!-- 600 -->
      <g transform="translate(27.240625 99.250647) scale(0.1 -0.1)">
       <use xlink:href="#DejaVuSans-36"/>
       <use xlink:href="#DejaVuSans-30" x="63.623047"/>
       <use xlink:href="#DejaVuSans-30" x="127.246094"/>
      </g>
     </g>
    </g>
    <g id="ytick_5">
     <g id="line2d_11">
      <g>
       <use xlink:href="#m0decccd580" x="53.328125" y="54.308571" style="stroke: #000000; stroke-width: 0.8"/>
      </g>
     </g>
     <g id="text_12">
      <!-- 800 -->
      <g transform="translate(27.240625 58.10779) scale(0.1 -0.1)">
       <use xlink:href="#DejaVuSans-38"/>
       <use xlink:href="#DejaVuSans-30" x="63.623047"/>
       <use xlink:href="#DejaVuSans-30" x="127.246094"/>
      </g>
     </g>
    </g>
    <g id="ytick_6">
     <g id="line2d_12">
      <g>
       <use xlink:href="#m0decccd580" x="53.328125" y="13.165714" style="stroke: #000000; stroke-width: 0.8"/>
      </g>
     </g>
     <g id="text_13">
      <!-- 1000 -->
      <g transform="translate(20.878125 16.964933) scale(0.1 -0.1)">
       <use xlink:href="#DejaVuSans-31"/>
       <use xlink:href="#DejaVuSans-30" x="63.623047"/>
       <use xlink:href="#DejaVuSans-30" x="127.246094"/>
       <use xlink:href="#DejaVuSans-30" x="190.869141"/>
      </g>
     </g>
    </g>
    <g id="text_14">
     <!-- [counts] -->
     <g transform="translate(14.798438 138.6925) rotate(-90) scale(0.1 -0.1)">
      <defs>
       <path id="DejaVuSans-63" d="M 3122 3366 
L 3122 2828 
Q 2878 2963 2633 3030 
Q 2388 3097 2138 3097 
Q 1578 3097 1268 2742 
Q 959 2388 959 1747 
Q 959 1106 1268 751 
Q 1578 397 2138 397 
Q 2388 397 2633 464 
Q 2878 531 3122 666 
L 3122 134 
Q 2881 22 2623 -34 
Q 2366 -91 2075 -91 
Q 1284 -91 818 406 
Q 353 903 353 1747 
Q 353 2603 823 3093 
Q 1294 3584 2113 3584 
Q 2378 3584 2631 3529 
Q 2884 3475 3122 3366 
z
" transform="scale(0.015625)"/>
       <path id="DejaVuSans-6f" d="M 1959 3097 
Q 1497 3097 1228 2736 
Q 959 2375 959 1747 
Q 959 1119 1226 758 
Q 1494 397 1959 397 
Q 2419 397 2687 759 
Q 2956 1122 2956 1747 
Q 2956 2369 2687 2733 
Q 2419 3097 1959 3097 
z
M 1959 3584 
Q 2709 3584 3137 3096 
Q 3566 2609 3566 1747 
Q 3566 888 3137 398 
Q 2709 -91 1959 -91 
Q 1206 -91 779 398 
Q 353 888 353 1747 
Q 353 2609 779 3096 
Q 1206 3584 1959 3584 
z
" transform="scale(0.015625)"/>
       <path id="DejaVuSans-75" d="M 544 1381 
L 544 3500 
L 1119 3500 
L 1119 1403 
Q 1119 906 1312 657 
Q 1506 409 1894 409 
Q 2359 409 2629 706 
Q 2900 1003 2900 1516 
L 2900 3500 
L 3475 3500 
L 3475 0 
L 2900 0 
L 2900 538 
Q 2691 219 2414 64 
Q 2138 -91 1772 -91 
Q 1169 -91 856 284 
Q 544 659 544 1381 
z
M 1991 3584 
L 1991 3584 
z
" transform="scale(0.015625)"/>
       <path id="DejaVuSans-73" d="M 2834 3397 
L 2834 2853 
Q 2591 2978 2328 3040 
Q 2066 3103 1784 3103 
Q 1356 3103 1142 2972 
Q 928 2841 928 2578 
Q 928 2378 1081 2264 
Q 1234 2150 1697 2047 
L 1894 2003 
Q 2506 1872 2764 1633 
Q 3022 1394 3022 966 
Q 3022 478 2636 193 
Q 2250 -91 1575 -91 
Q 1294 -91 989 -36 
Q 684 19 347 128 
L 347 722 
Q 666 556 975 473 
Q 1284 391 1588 391 
Q 1994 391 2212 530 
Q 2431 669 2431 922 
Q 2431 1156 2273 1281 
Q 2116 1406 1581 1522 
L 1381 1569 
Q 847 1681 609 1914 
Q 372 2147 372 2553 
Q 372 3047 722 3315 
Q 1072 3584 1716 3584 
Q 2034 3584 2315 3537 
Q 2597 3491 2834 3397 
z
" transform="scale(0.015625)"/>
      </defs>
      <use xlink:href="#DejaVuSans-5b"/>
      <use xlink:href="#DejaVuSans-63" x="39.013672"/>
      <use xlink:href="#DejaVuSans-6f" x="93.994141"/>
      <use xlink:href="#DejaVuSans-75" x="155.175781"/>
      <use xlink:href="#DejaVuSans-6e" x="218.554688"/>
      <use xlink:href="#DejaVuSans-74" x="281.933594"/>
      <use xlink:href="#DejaVuSans-73" x="321.142578"/>
      <use xlink:href="#DejaVuSans-5d" x="373.242188"/>
     </g>
    </g>
   </g>
   <g id="patch_3">
    <path d="M 53.328125 228.96 
L 53.328125 7.2 
" style="fill: none; stroke: #000000; stroke-width: 0.8; stroke-linejoin: miter; stroke-linecap: square"/>
   </g>
   <g id="patch_4">
    <path d="M 388.128125 228.96 
L 388.128125 7.2 
" style="fill: none; stroke: #000000; stroke-width: 0.8; stroke-linejoin: miter; stroke-linecap: square"/>
   </g>
   <g id="patch_5">
    <path d="M 53.328125 228.96 
L 388.128125 228.96 
" style="fill: none; stroke: #000000; stroke-width: 0.8; stroke-linejoin: miter; stroke-linecap: square"/>
   </g>
   <g id="patch_6">
    <path d="M 53.328125 7.2 
L 388.128125 7.2 
" style="fill: none; stroke: #000000; stroke-width: 0.8; stroke-linejoin: miter; stroke-linecap: square"/>
   </g>
   <g id="legend_1">
    <g id="patch_7">
     <path d="M 327.689062 44.55625 
L 381.128125 44.55625 
Q 383.128125 44.55625 383.128125 42.55625 
L 383.128125 14.2 
Q 383.128125 12.2 381.128125 12.2 
L 327.689062 12.2 
Q 325.689062 12.2 325.689062 14.2 
L 325.689062 42.55625 
Q 325.689062 44.55625 327.689062 44.55625 
z
" style="fill: #ffffff; opacity: 0.8; stroke: #cccccc; stroke-linejoin: miter"/>
    </g>
    <g id="line2d_13">
     <path d="M 329.689062 20.298438 
L 329.689062 20.298438 
L 339.689062 20.298438 
L 339.689062 20.298438 
L 349.689062 20.298438 
" style="fill: none; stroke: #1f77b4; stroke-width: 1.5; stroke-linecap: square"/>
    </g>
    <g id="text_15">
     <!-- wfm -->
     <g transform="translate(357.689062 23.798438) scale(0.1 -0.1)">
      <defs>
       <path id="DejaVuSans-66" d="M 2375 4863 
L 2375 4384 
L 1825 4384 
Q 1516 4384 1395 4259 
Q 1275 4134 1275 3809 
L 1275 3500 
L 2222 3500 
L 2222 3053 
L 1275 3053 
L 1275 0 
L 697 0 
L 697 3053 
L 147 3053 
L 147 3500 
L 697 3500 
L 697 3744 
Q 697 4328 969 4595 
Q 1241 4863 1831 4863 
L 2375 4863 
z
" transform="scale(0.015625)"/>
       <path id="DejaVuSans-6d" d="M 3328 2828 
Q 3544 3216 3844 3400 
Q 4144 3584 4550 3584 
Q 5097 3584 5394 3201 
Q 5691 2819 5691 2113 
L 5691 0 
L 5113 0 
L 5113 2094 
Q 5113 2597 4934 2840 
Q 4756 3084 4391 3084 
Q 3944 3084 3684 2787 
Q 3425 2491 3425 1978 
L 3425 0 
L 2847 0 
L 2847 2094 
Q 2847 2600 2669 2842 
Q 2491 3084 2119 3084 
Q 1678 3084 1418 2786 
Q 1159 2488 1159 1978 
L 1159 0 
L 581 0 
L 581 3500 
L 1159 3500 
L 1159 2956 
Q 1356 3278 1631 3431 
Q 1906 3584 2284 3584 
Q 2666 3584 2933 3390 
Q 3200 3197 3328 2828 
z
" transform="scale(0.015625)"/>
      </defs>
      <use xlink:href="#DejaVuSans-77"/>
      <use xlink:href="#DejaVuSans-66" x="81.787109"/>
      <use xlink:href="#DejaVuSans-6d" x="116.992188"/>
     </g>
    </g>
    <g id="line2d_14">
     <path d="M 329.689062 34.976562 
L 329.689062 34.976562 
L 339.689062 34.976562 
L 339.689062 34.976562 
L 349.689062 34.976562 
" style="fill: none; stroke: #ff7f0e; stroke-width: 1.5; stroke-linecap: square"/>
    </g>
    <g id="text_16">
     <!-- true -->
     <g transform="translate(357.689062 38.476562) scale(0.1 -0.1)">
      <defs>
       <path id="DejaVuSans-72" d="M 2631 2963 
Q 2534 3019 2420 3045 
Q 2306 3072 2169 3072 
Q 1681 3072 1420 2755 
Q 1159 2438 1159 1844 
L 1159 0 
L 581 0 
L 581 3500 
L 1159 3500 
L 1159 2956 
Q 1341 3275 1631 3429 
Q 1922 3584 2338 3584 
Q 2397 3584 2469 3576 
Q 2541 3569 2628 3553 
L 2631 2963 
z
" transform="scale(0.015625)"/>
      </defs>
      <use xlink:href="#DejaVuSans-74"/>
      <use xlink:href="#DejaVuSans-72" x="39.208984"/>
      <use xlink:href="#DejaVuSans-75" x="80.322266"/>
      <use xlink:href="#DejaVuSans-65" x="143.701172"/>
     </g>
    </g>
   </g>
   <g id="line2d_15">
    <path d="M 68.546307 218.88 
L 83.00358 218.88 
L 83.00358 218.674286 
L 83.764489 218.674286 
L 83.764489 217.851429 
L 84.525398 217.851429 
L 84.525398 215.382857 
L 85.286307 215.382857 
L 85.286307 210.651429 
L 86.047216 210.651429 
L 86.047216 209.828571 
L 86.808125 209.828571 
L 86.808125 204.891429 
L 87.569034 204.891429 
L 87.569034 205.714286 
L 88.329943 205.714286 
L 88.329943 203.04 
L 89.090852 203.04 
L 89.090852 200.571429 
L 89.851761 200.571429 
L 89.851761 192.548571 
L 90.61267 192.548571 
L 90.61267 191.108571 
L 91.37358 191.108571 
L 91.37358 187.817143 
L 92.134489 187.817143 
L 92.134489 180.411429 
L 92.895398 180.411429 
L 92.895398 175.474286 
L 93.656307 175.474286 
L 93.656307 170.948571 
L 94.417216 170.948571 
L 94.417216 163.337143 
L 95.178125 163.337143 
L 95.178125 160.045714 
L 95.939034 160.045714 
L 95.939034 148.937143 
L 96.699943 148.937143 
L 96.699943 135.565714 
L 97.460852 135.565714 
L 97.460852 130.628571 
L 98.221761 130.628571 
L 98.221761 99.565714 
L 98.98267 99.565714 
L 98.98267 95.245714 
L 99.74358 95.245714 
L 99.74358 89.28 
L 100.504489 89.28 
L 100.504489 69.942857 
L 101.265398 69.942857 
L 101.265398 61.92 
L 102.026307 61.92 
L 102.026307 60.685714 
L 102.787216 60.685714 
L 102.787216 43.2 
L 103.548125 43.2 
L 103.548125 40.114286 
L 104.309034 40.114286 
L 104.309034 43.817143 
L 105.069943 43.817143 
L 105.069943 39.908571 
L 105.830852 39.908571 
L 105.830852 33.942857 
L 106.591761 33.942857 
L 106.591761 32.091429 
L 107.35267 32.091429 
L 107.35267 36.205714 
L 108.11358 36.205714 
L 108.11358 37.028571 
L 108.874489 37.028571 
L 108.874489 43.405714 
L 109.635398 43.405714 
L 109.635398 44.022857 
L 110.396307 44.022857 
L 110.396307 40.114286 
L 111.157216 40.114286 
L 111.157216 52.457143 
L 111.918125 52.457143 
L 111.918125 50.4 
L 112.679034 50.4 
L 112.679034 52.251429 
L 113.439943 52.251429 
L 113.439943 68.297143 
L 114.200852 68.297143 
L 114.200852 63.154286 
L 114.961761 63.154286 
L 114.961761 67.268571 
L 115.72267 67.268571 
L 115.72267 69.737143 
L 116.48358 69.737143 
L 116.48358 72.617143 
L 117.244489 72.617143 
L 117.244489 68.708571 
L 118.005398 68.708571 
L 118.005398 72.617143 
L 118.766307 72.617143 
L 118.766307 82.902857 
L 119.527216 82.902857 
L 119.527216 82.08 
L 120.288125 82.08 
L 120.288125 88.045714 
L 121.049034 88.045714 
L 121.049034 83.725714 
L 121.809943 83.725714 
L 121.809943 89.28 
L 122.570852 89.28 
L 122.570852 94.422857 
L 123.331761 94.422857 
L 123.331761 95.04 
L 124.09267 95.04 
L 124.09267 99.36 
L 124.85358 99.36 
L 124.85358 101.417143 
L 125.614489 101.417143 
L 125.614489 106.148571 
L 126.375398 106.148571 
L 126.375398 110.674286 
L 127.136307 110.674286 
L 127.136307 108.205714 
L 127.897216 108.205714 
L 127.897216 112.937143 
L 128.658125 112.937143 
L 128.658125 112.32 
L 129.419034 112.32 
L 129.419034 123.017143 
L 130.179943 123.017143 
L 130.179943 120.754286 
L 130.940852 120.754286 
L 130.940852 109.851429 
L 131.701761 109.851429 
L 131.701761 116.228571 
L 132.46267 116.228571 
L 132.46267 122.811429 
L 133.22358 122.811429 
L 133.22358 147.085714 
L 133.984489 147.085714 
L 133.984489 174.857143 
L 134.745398 174.857143 
L 134.745398 202.834286 
L 135.506307 202.834286 
L 135.506307 209.622857 
L 136.267216 209.622857 
L 136.267216 211.474286 
L 137.028125 211.474286 
L 137.028125 208.182857 
L 137.789034 208.182857 
L 137.789034 201.6 
L 138.549943 201.6 
L 138.549943 202.834286 
L 139.310852 202.834286 
L 139.310852 203.04 
L 140.071761 203.04 
L 140.071761 197.28 
L 140.83267 197.28 
L 140.83267 196.457143 
L 141.59358 196.457143 
L 141.59358 191.931429 
L 142.354489 191.931429 
L 142.354489 184.937143 
L 143.115398 184.937143 
L 143.115398 185.348571 
L 143.876307 185.348571 
L 143.876307 176.091429 
L 144.637216 176.091429 
L 144.637216 177.737143 
L 145.398125 177.737143 
L 145.398125 177.531429 
L 146.159034 177.531429 
L 146.159034 168.068571 
L 146.919943 168.068571 
L 146.919943 167.657143 
L 147.680852 167.657143 
L 147.680852 162.925714 
L 148.441761 162.925714 
L 148.441761 163.954286 
L 149.20267 163.954286 
L 149.20267 156.342857 
L 149.96358 156.342857 
L 149.96358 158.4 
L 150.724489 158.4 
L 150.724489 164.571429 
L 151.485398 164.571429 
L 151.485398 160.045714 
L 152.246307 160.045714 
L 152.246307 152.64 
L 153.007216 152.64 
L 153.007216 155.725714 
L 153.768125 155.725714 
L 153.768125 158.811429 
L 154.529034 158.811429 
L 154.529034 159.017143 
L 155.289943 159.017143 
L 155.289943 156.96 
L 156.050852 156.96 
L 156.050852 158.194286 
L 156.811761 158.194286 
L 156.811761 161.897143 
L 157.57267 161.897143 
L 157.57267 160.045714 
L 158.33358 160.045714 
L 158.33358 166.422857 
L 159.094489 166.422857 
L 159.094489 167.04 
L 159.855398 167.04 
L 159.855398 162.925714 
L 160.616307 162.925714 
L 160.616307 168.068571 
L 161.377216 168.068571 
L 161.377216 167.862857 
L 162.138125 167.862857 
L 162.138125 167.451429 
L 162.899034 167.451429 
L 162.899034 170.125714 
L 163.659943 170.125714 
L 163.659943 170.948571 
L 164.420852 170.948571 
L 164.420852 174.857143 
L 165.181761 174.857143 
L 165.181761 165.394286 
L 165.94267 165.394286 
L 165.94267 175.062857 
L 166.70358 175.062857 
L 166.70358 177.12 
L 167.464489 177.12 
L 167.464489 174.651429 
L 168.225398 174.651429 
L 168.225398 172.8 
L 168.986307 172.8 
L 168.986307 172.388571 
L 169.747216 172.388571 
L 169.747216 170.742857 
L 170.508125 170.742857 
L 170.508125 174.651429 
L 171.269034 174.651429 
L 171.269034 180.617143 
L 172.029943 180.617143 
L 172.029943 184.32 
L 172.790852 184.32 
L 172.790852 179.588571 
L 173.551761 179.588571 
L 173.551761 185.348571 
L 174.31267 185.348571 
L 174.31267 179.588571 
L 175.07358 179.588571 
L 175.07358 185.142857 
L 175.834489 185.142857 
L 175.834489 185.348571 
L 176.595398 185.348571 
L 176.595398 184.114286 
L 177.356307 184.114286 
L 177.356307 182.057143 
L 178.117216 182.057143 
L 178.117216 185.348571 
L 178.878125 185.348571 
L 178.878125 194.194286 
L 179.639034 194.194286 
L 179.639034 202.628571 
L 180.399943 202.628571 
L 180.399943 211.474286 
L 181.160852 211.474286 
L 181.160852 214.354286 
L 181.921761 214.354286 
L 181.921761 213.531429 
L 182.68267 213.531429 
L 182.68267 214.56 
L 183.44358 214.56 
L 183.44358 213.12 
L 184.204489 213.12 
L 184.204489 211.885714 
L 184.965398 211.885714 
L 184.965398 211.268571 
L 185.726307 211.268571 
L 185.726307 208.388571 
L 186.487216 208.388571 
L 186.487216 208.594286 
L 187.248125 208.594286 
L 187.248125 204.685714 
L 188.769943 204.685714 
L 188.769943 203.245714 
L 189.530852 203.245714 
L 189.530852 204.068571 
L 190.291761 204.068571 
L 190.291761 202.217143 
L 191.05267 202.217143 
L 191.05267 200.16 
L 191.81358 200.16 
L 191.81358 196.457143 
L 192.574489 196.457143 
L 192.574489 197.074286 
L 193.335398 197.074286 
L 193.335398 196.868571 
L 194.096307 196.868571 
L 194.096307 198.308571 
L 194.857216 198.308571 
L 194.857216 197.28 
L 195.618125 197.28 
L 195.618125 197.074286 
L 196.379034 197.074286 
L 196.379034 192.548571 
L 197.139943 192.548571 
L 197.139943 198.72 
L 197.900852 198.72 
L 197.900852 194.605714 
L 198.661761 194.605714 
L 198.661761 193.782857 
L 199.42267 193.782857 
L 199.42267 197.074286 
L 200.18358 197.074286 
L 200.18358 195.634286 
L 200.944489 195.634286 
L 200.944489 195.84 
L 201.705398 195.84 
L 201.705398 194.605714 
L 202.466307 194.605714 
L 202.466307 194.811429 
L 203.227216 194.811429 
L 203.227216 196.251429 
L 203.988125 196.251429 
L 203.988125 193.988571 
L 204.749034 193.988571 
L 204.749034 195.428571 
L 205.509943 195.428571 
L 205.509943 198.925714 
L 206.270852 198.925714 
L 206.270852 199.542857 
L 207.031761 199.542857 
L 207.031761 197.074286 
L 207.79267 197.074286 
L 207.79267 199.954286 
L 208.55358 199.954286 
L 208.55358 201.188571 
L 209.314489 201.188571 
L 209.314489 198.925714 
L 210.075398 198.925714 
L 210.075398 198.514286 
L 211.597216 198.514286 
L 211.597216 199.748571 
L 212.358125 199.748571 
L 212.358125 201.6 
L 213.119034 201.6 
L 213.119034 202.628571 
L 213.879943 202.628571 
L 213.879943 203.245714 
L 214.640852 203.245714 
L 214.640852 205.302857 
L 215.401761 205.302857 
L 215.401761 202.217143 
L 216.16267 202.217143 
L 216.16267 201.188571 
L 216.92358 201.188571 
L 216.92358 202.628571 
L 217.684489 202.628571 
L 217.684489 202.834286 
L 218.445398 202.834286 
L 218.445398 204.068571 
L 219.206307 204.068571 
L 219.206307 203.862857 
L 219.967216 203.862857 
L 219.967216 200.571429 
L 220.728125 200.571429 
L 220.728125 204.068571 
L 221.489034 204.068571 
L 221.489034 203.04 
L 222.249943 203.04 
L 222.249943 202.011429 
L 223.010852 202.011429 
L 223.010852 205.508571 
L 223.771761 205.508571 
L 223.771761 205.92 
L 224.53267 205.92 
L 224.53267 207.154286 
L 225.29358 207.154286 
L 225.29358 213.942857 
L 226.054489 213.942857 
L 226.054489 214.971429 
L 226.815398 214.971429 
L 226.815398 217.028571 
L 228.337216 217.028571 
L 228.337216 215.588571 
L 229.098125 215.588571 
L 229.098125 217.645714 
L 229.859034 217.645714 
L 229.859034 216.411429 
L 230.619943 216.411429 
L 230.619943 214.56 
L 231.380852 214.56 
L 231.380852 213.12 
L 232.141761 213.12 
L 232.141761 213.737143 
L 232.90267 213.737143 
L 232.90267 211.268571 
L 234.424489 211.268571 
L 234.424489 212.708571 
L 235.185398 212.708571 
L 235.185398 210.651429 
L 235.946307 210.651429 
L 235.946307 208.388571 
L 236.707216 208.388571 
L 236.707216 209.211429 
L 237.468125 209.211429 
L 237.468125 207.36 
L 238.229034 207.36 
L 238.229034 210.24 
L 238.989943 210.24 
L 238.989943 207.977143 
L 239.750852 207.977143 
L 239.750852 210.857143 
L 240.511761 210.857143 
L 240.511761 209.622857 
L 241.27267 209.622857 
L 241.27267 208.8 
L 242.03358 208.8 
L 242.03358 210.445714 
L 242.794489 210.445714 
L 242.794489 210.24 
L 243.555398 210.24 
L 243.555398 205.714286 
L 244.316307 205.714286 
L 244.316307 207.565714 
L 245.077216 207.565714 
L 245.077216 208.8 
L 245.838125 208.8 
L 245.838125 208.388571 
L 246.599034 208.388571 
L 246.599034 208.8 
L 247.359943 208.8 
L 247.359943 208.594286 
L 248.120852 208.594286 
L 248.120852 210.034286 
L 248.881761 210.034286 
L 248.881761 209.828571 
L 249.64267 209.828571 
L 249.64267 209.622857 
L 250.40358 209.622857 
L 250.40358 208.594286 
L 251.164489 208.594286 
L 251.164489 211.062857 
L 251.925398 211.062857 
L 251.925398 207.977143 
L 252.686307 207.977143 
L 252.686307 207.771429 
L 253.447216 207.771429 
L 253.447216 207.154286 
L 254.208125 207.154286 
L 254.208125 211.268571 
L 254.969034 211.268571 
L 254.969034 208.594286 
L 255.729943 208.594286 
L 255.729943 208.8 
L 256.490852 208.8 
L 256.490852 211.062857 
L 258.01267 211.062857 
L 258.01267 209.211429 
L 258.77358 209.211429 
L 258.77358 212.914286 
L 259.534489 212.914286 
L 259.534489 211.68 
L 260.295398 211.68 
L 260.295398 209.622857 
L 261.056307 209.622857 
L 261.056307 211.062857 
L 261.817216 211.062857 
L 261.817216 211.474286 
L 262.578125 211.474286 
L 262.578125 210.857143 
L 263.339034 210.857143 
L 263.339034 210.445714 
L 264.099943 210.445714 
L 264.099943 212.914286 
L 264.860852 212.914286 
L 264.860852 210.24 
L 265.621761 210.24 
L 265.621761 211.68 
L 266.38267 211.68 
L 266.38267 210.857143 
L 267.14358 210.857143 
L 267.14358 211.68 
L 268.665398 211.68 
L 268.665398 212.091429 
L 269.426307 212.091429 
L 269.426307 212.708571 
L 270.187216 212.708571 
L 270.187216 210.651429 
L 270.948125 210.651429 
L 270.948125 213.942857 
L 271.709034 213.942857 
L 271.709034 218.057143 
L 273.230852 218.057143 
L 273.230852 218.262857 
L 273.991761 218.262857 
L 273.991761 218.057143 
L 274.75267 218.057143 
L 274.75267 217.44 
L 275.51358 217.44 
L 275.51358 215.794286 
L 276.274489 215.794286 
L 276.274489 217.028571 
L 277.035398 217.028571 
L 277.035398 216 
L 277.796307 216 
L 277.796307 216.411429 
L 278.557216 216.411429 
L 278.557216 215.794286 
L 279.318125 215.794286 
L 279.318125 214.56 
L 280.079034 214.56 
L 280.079034 215.177143 
L 280.839943 215.177143 
L 280.839943 216 
L 281.600852 216 
L 281.600852 214.354286 
L 282.361761 214.354286 
L 282.361761 213.737143 
L 283.12267 213.737143 
L 283.12267 214.148571 
L 283.88358 214.148571 
L 283.88358 213.12 
L 284.644489 213.12 
L 284.644489 216.205714 
L 285.405398 216.205714 
L 285.405398 212.914286 
L 286.166307 212.914286 
L 286.166307 212.091429 
L 286.927216 212.091429 
L 286.927216 214.354286 
L 287.688125 214.354286 
L 287.688125 213.325714 
L 288.449034 213.325714 
L 288.449034 214.354286 
L 289.209943 214.354286 
L 289.209943 213.737143 
L 289.970852 213.737143 
L 289.970852 212.091429 
L 290.731761 212.091429 
L 290.731761 214.765714 
L 291.49267 214.765714 
L 291.49267 213.531429 
L 292.25358 213.531429 
L 292.25358 213.737143 
L 293.014489 213.737143 
L 293.014489 212.914286 
L 293.775398 212.914286 
L 293.775398 213.942857 
L 294.536307 213.942857 
L 294.536307 214.354286 
L 296.058125 214.354286 
L 296.058125 212.502857 
L 296.819034 212.502857 
L 296.819034 215.382857 
L 297.579943 215.382857 
L 297.579943 214.148571 
L 298.340852 214.148571 
L 298.340852 213.325714 
L 299.101761 213.325714 
L 299.101761 212.914286 
L 299.86267 212.914286 
L 299.86267 214.971429 
L 300.62358 214.971429 
L 300.62358 214.354286 
L 301.384489 214.354286 
L 301.384489 215.382857 
L 302.145398 215.382857 
L 302.145398 214.148571 
L 302.906307 214.148571 
L 302.906307 214.971429 
L 303.667216 214.971429 
L 303.667216 213.12 
L 304.428125 213.12 
L 304.428125 214.765714 
L 305.189034 214.765714 
L 305.189034 216.617143 
L 305.949943 216.617143 
L 305.949943 215.177143 
L 306.710852 215.177143 
L 306.710852 214.148571 
L 307.471761 214.148571 
L 307.471761 215.177143 
L 308.23267 215.177143 
L 308.23267 215.382857 
L 308.99358 215.382857 
L 308.99358 214.56 
L 309.754489 214.56 
L 309.754489 213.942857 
L 310.515398 213.942857 
L 310.515398 214.765714 
L 311.276307 214.765714 
L 311.276307 214.148571 
L 312.037216 214.148571 
L 312.037216 214.56 
L 312.798125 214.56 
L 312.798125 216 
L 313.559034 216 
L 313.559034 214.56 
L 314.319943 214.56 
L 314.319943 216.205714 
L 315.080852 216.205714 
L 315.080852 214.971429 
L 316.60267 214.971429 
L 316.60267 216.205714 
L 317.36358 216.205714 
L 317.36358 218.057143 
L 318.124489 218.057143 
L 318.124489 217.851429 
L 318.885398 217.851429 
L 318.885398 217.645714 
L 319.646307 217.645714 
L 319.646307 218.057143 
L 320.407216 218.057143 
L 320.407216 217.645714 
L 321.168125 217.645714 
L 321.168125 215.794286 
L 321.929034 215.794286 
L 321.929034 216.822857 
L 322.689943 216.822857 
L 322.689943 217.028571 
L 323.450852 217.028571 
L 323.450852 217.234286 
L 324.211761 217.234286 
L 324.211761 217.44 
L 324.97267 217.44 
L 324.97267 216.411429 
L 325.73358 216.411429 
L 325.73358 218.057143 
L 326.494489 218.057143 
L 326.494489 217.44 
L 327.255398 217.44 
L 327.255398 215.588571 
L 328.016307 215.588571 
L 328.016307 216.411429 
L 328.777216 216.411429 
L 328.777216 215.794286 
L 329.538125 215.794286 
L 329.538125 214.765714 
L 330.299034 214.765714 
L 330.299034 215.382857 
L 331.059943 215.382857 
L 331.059943 216 
L 331.820852 216 
L 331.820852 214.765714 
L 332.581761 214.765714 
L 332.581761 216.205714 
L 333.34267 216.205714 
L 333.34267 216.822857 
L 334.10358 216.822857 
L 334.10358 216.205714 
L 334.864489 216.205714 
L 334.864489 215.794286 
L 335.625398 215.794286 
L 335.625398 214.765714 
L 336.386307 214.765714 
L 336.386307 216 
L 337.147216 216 
L 337.147216 213.942857 
L 337.908125 213.942857 
L 337.908125 216.411429 
L 338.669034 216.411429 
L 338.669034 216.205714 
L 341.71267 216.205714 
L 341.71267 216.411429 
L 343.995398 216.411429 
L 343.995398 216 
L 344.756307 216 
L 344.756307 217.234286 
L 345.517216 217.234286 
L 345.517216 216.617143 
L 346.278125 216.617143 
L 346.278125 216.411429 
L 348.560852 216.411429 
L 348.560852 218.262857 
L 349.321761 218.262857 
L 349.321761 216.617143 
L 350.08267 216.617143 
L 350.08267 217.234286 
L 350.84358 217.234286 
L 350.84358 217.44 
L 351.604489 217.44 
L 351.604489 216.205714 
L 352.365398 216.205714 
L 352.365398 216.411429 
L 354.648125 216.411429 
L 354.648125 216.205714 
L 355.409034 216.205714 
L 355.409034 215.588571 
L 356.169943 215.588571 
L 356.169943 216.411429 
L 357.691761 216.411429 
L 357.691761 217.028571 
L 358.45267 217.028571 
L 358.45267 217.645714 
L 359.21358 217.645714 
L 359.21358 216 
L 359.974489 216 
L 359.974489 217.645714 
L 360.735398 217.645714 
L 360.735398 216.617143 
L 361.496307 216.617143 
L 361.496307 217.851429 
L 362.257216 217.851429 
L 362.257216 217.44 
L 363.018125 217.44 
L 363.018125 217.645714 
L 363.779034 217.645714 
L 363.779034 218.674286 
L 364.539943 218.674286 
L 364.539943 218.88 
L 372.909943 218.88 
L 372.909943 218.88 
" clip-path="url(#p39a0d761ee)" style="fill: none; stroke: #1f77b4; stroke-width: 1.5; stroke-linecap: square"/>
   </g>
   <g id="line2d_16">
    <path d="M 68.546307 218.88 
L 82.24267 218.88 
L 82.24267 218.262857 
L 83.00358 218.262857 
L 83.00358 218.88 
L 83.764489 218.88 
L 83.764489 217.851429 
L 84.525398 217.851429 
L 84.525398 217.44 
L 85.286307 217.44 
L 85.286307 214.765714 
L 86.047216 214.765714 
L 86.047216 209.622857 
L 86.808125 209.622857 
L 86.808125 210.034286 
L 87.569034 210.034286 
L 87.569034 207.771429 
L 88.329943 207.771429 
L 88.329943 201.805714 
L 89.090852 201.805714 
L 89.090852 207.154286 
L 89.851761 207.154286 
L 89.851761 195.84 
L 90.61267 195.84 
L 90.61267 193.371429 
L 91.37358 193.371429 
L 91.37358 189.668571 
L 92.134489 189.668571 
L 92.134489 183.497143 
L 92.895398 183.497143 
L 92.895398 186.377143 
L 93.656307 186.377143 
L 93.656307 171.36 
L 94.417216 171.36 
L 94.417216 164.777143 
L 95.178125 164.777143 
L 95.178125 166.422857 
L 95.939034 166.422857 
L 95.939034 154.697143 
L 96.699943 154.697143 
L 96.699943 149.142857 
L 97.460852 149.142857 
L 97.460852 127.748571 
L 98.221761 127.748571 
L 98.221761 121.371429 
L 98.98267 121.371429 
L 98.98267 109.028571 
L 99.74358 109.028571 
L 99.74358 79.2 
L 100.504489 79.2 
L 100.504489 70.148571 
L 101.265398 70.148571 
L 101.265398 56.777143 
L 102.026307 56.777143 
L 102.026307 38.468571 
L 102.787216 38.468571 
L 102.787216 44.434286 
L 103.548125 44.434286 
L 103.548125 31.885714 
L 104.309034 31.885714 
L 104.309034 17.28 
L 105.069943 17.28 
L 105.069943 32.914286 
L 105.830852 32.914286 
L 105.830852 26.742857 
L 106.591761 26.742857 
L 106.591761 22.011429 
L 107.35267 22.011429 
L 107.35267 28.182857 
L 108.11358 28.182857 
L 108.11358 34.971429 
L 108.874489 34.971429 
L 108.874489 36.205714 
L 109.635398 36.205714 
L 109.635398 46.285714 
L 110.396307 46.285714 
L 110.396307 44.64 
L 111.157216 44.64 
L 111.157216 45.668571 
L 111.918125 45.668571 
L 111.918125 52.457143 
L 112.679034 52.457143 
L 112.679034 56.777143 
L 113.439943 56.777143 
L 113.439943 65.005714 
L 114.200852 65.005714 
L 114.200852 73.234286 
L 114.961761 73.234286 
L 114.961761 57.6 
L 115.72267 57.6 
L 115.72267 76.731429 
L 116.48358 76.731429 
L 116.48358 65.417143 
L 117.244489 65.417143 
L 117.244489 74.674286 
L 118.005398 74.674286 
L 118.005398 75.908571 
L 118.766307 75.908571 
L 118.766307 69.531429 
L 119.527216 69.531429 
L 119.527216 79.611429 
L 120.288125 79.611429 
L 120.288125 84.137143 
L 121.049034 84.137143 
L 121.049034 90.102857 
L 121.809943 90.102857 
L 121.809943 85.577143 
L 122.570852 85.577143 
L 122.570852 99.977143 
L 123.331761 99.977143 
L 123.331761 94.628571 
L 124.09267 94.628571 
L 124.09267 97.302857 
L 124.85358 97.302857 
L 124.85358 104.708571 
L 125.614489 104.708571 
L 125.614489 114.788571 
L 126.375398 114.788571 
L 126.375398 101.622857 
L 127.136307 101.622857 
L 127.136307 108 
L 127.897216 108 
L 127.897216 111.908571 
L 128.658125 111.908571 
L 128.658125 111.497143 
L 129.419034 111.497143 
L 129.419034 119.314286 
L 130.179943 119.314286 
L 130.179943 118.697143 
L 130.940852 118.697143 
L 130.940852 118.285714 
L 131.701761 118.285714 
L 131.701761 133.508571 
L 132.46267 133.508571 
L 132.46267 148.937143 
L 133.22358 148.937143 
L 133.22358 159.017143 
L 133.984489 159.017143 
L 133.984489 172.8 
L 134.745398 172.8 
L 134.745398 182.88 
L 135.506307 182.88 
L 135.506307 196.457143 
L 136.267216 196.457143 
L 136.267216 207.771429 
L 137.028125 207.771429 
L 137.028125 210.445714 
L 137.789034 210.445714 
L 137.789034 207.565714 
L 138.549943 207.565714 
L 138.549943 205.097143 
L 139.310852 205.097143 
L 139.310852 202.834286 
L 140.071761 202.834286 
L 140.071761 201.188571 
L 140.83267 201.188571 
L 140.83267 198.308571 
L 141.59358 198.308571 
L 141.59358 195.634286 
L 142.354489 195.634286 
L 142.354489 185.142857 
L 143.115398 185.142857 
L 143.115398 186.788571 
L 143.876307 186.788571 
L 143.876307 179.177143 
L 144.637216 179.177143 
L 144.637216 177.737143 
L 145.398125 177.737143 
L 145.398125 174.034286 
L 146.159034 174.034286 
L 146.159034 170.331429 
L 146.919943 170.331429 
L 146.919943 164.365714 
L 147.680852 164.365714 
L 147.680852 158.605714 
L 148.441761 158.605714 
L 148.441761 156.137143 
L 149.96358 156.137143 
L 149.96358 157.371429 
L 150.724489 157.371429 
L 150.724489 155.52 
L 151.485398 155.52 
L 151.485398 160.457143 
L 152.246307 160.457143 
L 152.246307 153.051429 
L 153.007216 153.051429 
L 153.007216 155.52 
L 153.768125 155.52 
L 153.768125 154.491429 
L 154.529034 154.491429 
L 154.529034 156.96 
L 155.289943 156.96 
L 155.289943 157.371429 
L 156.050852 157.371429 
L 156.050852 155.314286 
L 156.811761 155.314286 
L 156.811761 166.217143 
L 157.57267 166.217143 
L 157.57267 163.748571 
L 158.33358 163.748571 
L 158.33358 162.925714 
L 159.094489 162.925714 
L 159.094489 164.365714 
L 159.855398 164.365714 
L 159.855398 165.805714 
L 160.616307 165.805714 
L 160.616307 168.685714 
L 161.377216 168.685714 
L 161.377216 164.365714 
L 162.138125 164.365714 
L 162.138125 171.771429 
L 162.899034 171.771429 
L 162.899034 166.011429 
L 163.659943 166.011429 
L 163.659943 164.16 
L 164.420852 164.16 
L 164.420852 175.062857 
L 165.181761 175.062857 
L 165.181761 171.154286 
L 165.94267 171.154286 
L 165.94267 179.382857 
L 166.70358 179.382857 
L 166.70358 171.36 
L 167.464489 171.36 
L 167.464489 171.977143 
L 168.225398 171.977143 
L 168.225398 177.325714 
L 168.986307 177.325714 
L 168.986307 168.891429 
L 169.747216 168.891429 
L 169.747216 173.828571 
L 170.508125 173.828571 
L 170.508125 179.794286 
L 171.269034 179.794286 
L 171.269034 177.12 
L 172.029943 177.12 
L 172.029943 180.617143 
L 172.790852 180.617143 
L 172.790852 184.32 
L 173.551761 184.32 
L 173.551761 179.588571 
L 174.31267 179.588571 
L 174.31267 181.028571 
L 175.07358 181.028571 
L 175.07358 184.731429 
L 175.834489 184.731429 
L 175.834489 184.114286 
L 177.356307 184.114286 
L 177.356307 190.08 
L 178.117216 190.08 
L 178.117216 194.194286 
L 178.878125 194.194286 
L 178.878125 197.691429 
L 179.639034 197.691429 
L 179.639034 201.6 
L 180.399943 201.6 
L 180.399943 208.182857 
L 181.160852 208.182857 
L 181.160852 211.062857 
L 181.921761 211.062857 
L 181.921761 213.325714 
L 183.44358 213.325714 
L 183.44358 213.942857 
L 184.204489 213.942857 
L 184.204489 212.708571 
L 184.965398 212.708571 
L 184.965398 211.68 
L 185.726307 211.68 
L 185.726307 210.445714 
L 186.487216 210.445714 
L 186.487216 207.977143 
L 187.248125 207.977143 
L 187.248125 207.154286 
L 188.009034 207.154286 
L 188.009034 207.565714 
L 188.769943 207.565714 
L 188.769943 203.04 
L 189.530852 203.04 
L 189.530852 200.16 
L 190.291761 200.16 
L 190.291761 203.862857 
L 191.05267 203.862857 
L 191.05267 196.868571 
L 191.81358 196.868571 
L 191.81358 197.485714 
L 192.574489 197.485714 
L 192.574489 196.868571 
L 193.335398 196.868571 
L 193.335398 197.897143 
L 194.096307 197.897143 
L 194.096307 194.605714 
L 194.857216 194.605714 
L 194.857216 195.428571 
L 195.618125 195.428571 
L 195.618125 196.045714 
L 196.379034 196.045714 
L 196.379034 194.4 
L 197.139943 194.4 
L 197.139943 194.194286 
L 197.900852 194.194286 
L 197.900852 191.52 
L 198.661761 191.52 
L 198.661761 198.308571 
L 199.42267 198.308571 
L 199.42267 193.988571 
L 200.18358 193.988571 
L 200.18358 194.811429 
L 200.944489 194.811429 
L 200.944489 197.485714 
L 201.705398 197.485714 
L 201.705398 193.988571 
L 202.466307 193.988571 
L 202.466307 197.485714 
L 203.227216 197.485714 
L 203.227216 194.4 
L 203.988125 194.4 
L 203.988125 195.222857 
L 204.749034 195.222857 
L 204.749034 196.662857 
L 205.509943 196.662857 
L 205.509943 198.102857 
L 206.270852 198.102857 
L 206.270852 197.897143 
L 207.031761 197.897143 
L 207.031761 199.542857 
L 207.79267 199.542857 
L 207.79267 197.28 
L 208.55358 197.28 
L 208.55358 198.925714 
L 209.314489 198.925714 
L 209.314489 199.748571 
L 210.075398 199.748571 
L 210.075398 198.514286 
L 210.836307 198.514286 
L 210.836307 199.337143 
L 211.597216 199.337143 
L 211.597216 200.365714 
L 212.358125 200.365714 
L 212.358125 204.274286 
L 213.119034 204.274286 
L 213.119034 200.982857 
L 213.879943 200.982857 
L 213.879943 205.097143 
L 214.640852 205.097143 
L 214.640852 200.571429 
L 215.401761 200.571429 
L 215.401761 200.777143 
L 216.16267 200.777143 
L 216.16267 202.011429 
L 216.92358 202.011429 
L 216.92358 201.394286 
L 217.684489 201.394286 
L 217.684489 203.451429 
L 218.445398 203.451429 
L 218.445398 205.714286 
L 219.206307 205.714286 
L 219.206307 203.04 
L 219.967216 203.04 
L 219.967216 203.245714 
L 220.728125 203.245714 
L 220.728125 201.394286 
L 221.489034 201.394286 
L 221.489034 201.805714 
L 222.249943 201.805714 
L 222.249943 205.302857 
L 223.010852 205.302857 
L 223.010852 206.742857 
L 223.771761 206.742857 
L 223.771761 209.005714 
L 224.53267 209.005714 
L 224.53267 210.034286 
L 225.29358 210.034286 
L 225.29358 212.914286 
L 226.054489 212.914286 
L 226.054489 213.942857 
L 226.815398 213.942857 
L 226.815398 215.177143 
L 227.576307 215.177143 
L 227.576307 215.794286 
L 228.337216 215.794286 
L 228.337216 217.234286 
L 229.098125 217.234286 
L 229.098125 215.794286 
L 229.859034 215.794286 
L 229.859034 216.617143 
L 230.619943 216.617143 
L 230.619943 214.765714 
L 231.380852 214.765714 
L 231.380852 214.971429 
L 232.141761 214.971429 
L 232.141761 216 
L 232.90267 216 
L 232.90267 213.12 
L 233.66358 213.12 
L 233.66358 209.622857 
L 234.424489 209.622857 
L 234.424489 210.857143 
L 235.185398 210.857143 
L 235.185398 211.268571 
L 235.946307 211.268571 
L 235.946307 210.445714 
L 236.707216 210.445714 
L 236.707216 208.388571 
L 237.468125 208.388571 
L 237.468125 205.714286 
L 238.229034 205.714286 
L 238.229034 207.977143 
L 238.989943 207.977143 
L 238.989943 206.948571 
L 239.750852 206.948571 
L 239.750852 211.474286 
L 240.511761 211.474286 
L 240.511761 208.8 
L 241.27267 208.8 
L 241.27267 208.594286 
L 242.03358 208.594286 
L 242.03358 209.417143 
L 242.794489 209.417143 
L 242.794489 207.36 
L 244.316307 207.36 
L 244.316307 208.182857 
L 245.077216 208.182857 
L 245.077216 207.154286 
L 245.838125 207.154286 
L 245.838125 212.297143 
L 246.599034 212.297143 
L 246.599034 208.182857 
L 247.359943 208.182857 
L 247.359943 206.742857 
L 248.120852 206.742857 
L 248.120852 209.622857 
L 248.881761 209.622857 
L 248.881761 210.445714 
L 249.64267 210.445714 
L 249.64267 208.8 
L 250.40358 208.8 
L 250.40358 208.182857 
L 251.164489 208.182857 
L 251.164489 208.388571 
L 251.925398 208.388571 
L 251.925398 211.474286 
L 252.686307 211.474286 
L 252.686307 209.622857 
L 253.447216 209.622857 
L 253.447216 209.005714 
L 254.969034 209.005714 
L 254.969034 209.417143 
L 255.729943 209.417143 
L 255.729943 209.005714 
L 256.490852 209.005714 
L 256.490852 209.417143 
L 257.251761 209.417143 
L 257.251761 212.502857 
L 258.01267 212.502857 
L 258.01267 209.417143 
L 258.77358 209.417143 
L 258.77358 211.062857 
L 259.534489 211.062857 
L 259.534489 210.857143 
L 260.295398 210.857143 
L 260.295398 212.502857 
L 261.056307 212.502857 
L 261.056307 210.651429 
L 261.817216 210.651429 
L 261.817216 208.8 
L 262.578125 208.8 
L 262.578125 210.651429 
L 263.339034 210.651429 
L 263.339034 213.942857 
L 264.099943 213.942857 
L 264.099943 210.445714 
L 264.860852 210.445714 
L 264.860852 208.388571 
L 265.621761 208.388571 
L 265.621761 211.68 
L 266.38267 211.68 
L 266.38267 212.708571 
L 267.14358 212.708571 
L 267.14358 211.268571 
L 267.904489 211.268571 
L 267.904489 212.091429 
L 268.665398 212.091429 
L 268.665398 213.12 
L 269.426307 213.12 
L 269.426307 214.148571 
L 270.187216 214.148571 
L 270.187216 213.737143 
L 271.709034 213.737143 
L 271.709034 215.588571 
L 272.469943 215.588571 
L 272.469943 217.028571 
L 273.230852 217.028571 
L 273.230852 218.262857 
L 273.991761 218.262857 
L 273.991761 217.645714 
L 274.75267 217.645714 
L 274.75267 218.262857 
L 275.51358 218.262857 
L 275.51358 217.44 
L 276.274489 217.44 
L 276.274489 217.234286 
L 277.035398 217.234286 
L 277.035398 216.822857 
L 277.796307 216.822857 
L 277.796307 214.971429 
L 278.557216 214.971429 
L 278.557216 215.588571 
L 279.318125 215.588571 
L 279.318125 214.56 
L 280.079034 214.56 
L 280.079034 214.765714 
L 281.600852 214.765714 
L 281.600852 215.382857 
L 282.361761 215.382857 
L 282.361761 213.942857 
L 283.12267 213.942857 
L 283.12267 213.531429 
L 283.88358 213.531429 
L 283.88358 214.971429 
L 284.644489 214.971429 
L 284.644489 214.56 
L 285.405398 214.56 
L 285.405398 211.268571 
L 286.166307 211.268571 
L 286.166307 211.885714 
L 286.927216 211.885714 
L 286.927216 212.914286 
L 287.688125 212.914286 
L 287.688125 215.382857 
L 288.449034 215.382857 
L 288.449034 213.325714 
L 289.209943 213.325714 
L 289.209943 213.737143 
L 291.49267 213.737143 
L 291.49267 213.531429 
L 292.25358 213.531429 
L 292.25358 213.12 
L 293.014489 213.12 
L 293.014489 215.177143 
L 293.775398 215.177143 
L 293.775398 212.502857 
L 294.536307 212.502857 
L 294.536307 212.914286 
L 295.297216 212.914286 
L 295.297216 214.971429 
L 296.058125 214.971429 
L 296.058125 216 
L 296.819034 216 
L 296.819034 211.68 
L 297.579943 211.68 
L 297.579943 214.148571 
L 298.340852 214.148571 
L 298.340852 214.765714 
L 299.101761 214.765714 
L 299.101761 214.148571 
L 299.86267 214.148571 
L 299.86267 213.737143 
L 300.62358 213.737143 
L 300.62358 214.148571 
L 301.384489 214.148571 
L 301.384489 214.971429 
L 302.145398 214.971429 
L 302.145398 213.325714 
L 302.906307 213.325714 
L 302.906307 216 
L 303.667216 216 
L 303.667216 214.56 
L 304.428125 214.56 
L 304.428125 213.737143 
L 305.189034 213.737143 
L 305.189034 213.942857 
L 305.949943 213.942857 
L 305.949943 215.588571 
L 306.710852 215.588571 
L 306.710852 216 
L 307.471761 216 
L 307.471761 213.942857 
L 308.23267 213.942857 
L 308.23267 216.205714 
L 308.99358 216.205714 
L 308.99358 213.531429 
L 309.754489 213.531429 
L 309.754489 212.708571 
L 310.515398 212.708571 
L 310.515398 214.56 
L 311.276307 214.56 
L 311.276307 215.382857 
L 312.037216 215.382857 
L 312.037216 215.794286 
L 313.559034 215.794286 
L 313.559034 213.942857 
L 314.319943 213.942857 
L 314.319943 215.382857 
L 315.080852 215.382857 
L 315.080852 216.205714 
L 315.841761 216.205714 
L 315.841761 216 
L 316.60267 216 
L 316.60267 217.028571 
L 317.36358 217.028571 
L 317.36358 218.057143 
L 318.885398 218.057143 
L 318.885398 217.44 
L 319.646307 217.44 
L 319.646307 217.851429 
L 320.407216 217.851429 
L 320.407216 217.028571 
L 321.168125 217.028571 
L 321.168125 217.851429 
L 321.929034 217.851429 
L 321.929034 216.205714 
L 322.689943 216.205714 
L 322.689943 216.617143 
L 323.450852 216.617143 
L 323.450852 216.205714 
L 324.211761 216.205714 
L 324.211761 217.851429 
L 324.97267 217.851429 
L 324.97267 216.822857 
L 325.73358 216.822857 
L 325.73358 217.234286 
L 326.494489 217.234286 
L 326.494489 216.822857 
L 327.255398 216.822857 
L 327.255398 216 
L 328.016307 216 
L 328.016307 217.028571 
L 328.777216 217.028571 
L 328.777216 214.765714 
L 329.538125 214.765714 
L 329.538125 215.794286 
L 330.299034 215.794286 
L 330.299034 214.971429 
L 331.059943 214.971429 
L 331.059943 215.588571 
L 332.581761 215.588571 
L 332.581761 216 
L 333.34267 216 
L 333.34267 215.588571 
L 334.10358 215.588571 
L 334.10358 215.794286 
L 334.864489 215.794286 
L 334.864489 216.205714 
L 335.625398 216.205714 
L 335.625398 216.411429 
L 336.386307 216.411429 
L 336.386307 216 
L 337.147216 216 
L 337.147216 214.765714 
L 337.908125 214.765714 
L 337.908125 216.205714 
L 338.669034 216.205714 
L 338.669034 215.588571 
L 339.429943 215.588571 
L 339.429943 215.177143 
L 340.190852 215.177143 
L 340.190852 216 
L 340.951761 216 
L 340.951761 216.411429 
L 341.71267 216.411429 
L 341.71267 215.177143 
L 342.47358 215.177143 
L 342.47358 217.44 
L 343.234489 217.44 
L 343.234489 216.411429 
L 343.995398 216.411429 
L 343.995398 216.205714 
L 344.756307 216.205714 
L 344.756307 216 
L 345.517216 216 
L 345.517216 217.028571 
L 346.278125 217.028571 
L 346.278125 217.645714 
L 347.039034 217.645714 
L 347.039034 216.411429 
L 347.799943 216.411429 
L 347.799943 216.617143 
L 348.560852 216.617143 
L 348.560852 217.234286 
L 349.321761 217.234286 
L 349.321761 216.617143 
L 350.08267 216.617143 
L 350.08267 217.234286 
L 350.84358 217.234286 
L 350.84358 216.617143 
L 351.604489 216.617143 
L 351.604489 217.234286 
L 352.365398 217.234286 
L 352.365398 215.794286 
L 353.126307 215.794286 
L 353.126307 216.617143 
L 353.887216 216.617143 
L 353.887216 215.794286 
L 354.648125 215.794286 
L 354.648125 216.411429 
L 355.409034 216.411429 
L 355.409034 216.205714 
L 356.169943 216.205714 
L 356.169943 217.028571 
L 356.930852 217.028571 
L 356.930852 215.794286 
L 357.691761 215.794286 
L 357.691761 216.617143 
L 358.45267 216.617143 
L 358.45267 217.234286 
L 359.974489 217.234286 
L 359.974489 217.028571 
L 360.735398 217.028571 
L 360.735398 218.057143 
L 361.496307 218.057143 
L 361.496307 217.028571 
L 362.257216 217.028571 
L 362.257216 217.851429 
L 363.779034 217.851429 
L 363.779034 218.468571 
L 364.539943 218.468571 
L 364.539943 218.674286 
L 365.300852 218.674286 
L 365.300852 218.88 
L 372.909943 218.88 
L 372.909943 218.88 
" clip-path="url(#p39a0d761ee)" style="fill: none; stroke: #ff7f0e; stroke-width: 1.5; stroke-linecap: square"/>
   </g>
  </g>
 </g>
 <defs>
  <clipPath id="p39a0d761ee">
   <rect x="53.328125" y="7.2" width="334.8" height="221.76"/>
  </clipPath>
 </defs>
</svg>
