<?xml version="1.0" encoding="utf-8" standalone="no"?>
<!DOCTYPE svg PUBLIC "-//W3C//DTD SVG 1.1//EN"
  "http://www.w3.org/Graphics/SVG/1.1/DTD/svg11.dtd">
<svg xmlns:xlink="http://www.w3.org/1999/xlink" width="388.965625pt" height="268.200625pt" viewBox="0 0 388.965625 268.200625" xmlns="http://www.w3.org/2000/svg" version="1.1">
 <metadata>
  <rdf:RDF xmlns:dc="http://purl.org/dc/elements/1.1/" xmlns:cc="http://creativecommons.org/ns#" xmlns:rdf="http://www.w3.org/1999/02/22-rdf-syntax-ns#">
   <cc:Work>
    <dc:type rdf:resource="http://purl.org/dc/dcmitype/StillImage"/>
    <dc:date>2024-11-13T15:30:56.541966</dc:date>
    <dc:format>image/svg+xml</dc:format>
    <dc:creator>
     <cc:Agent>
      <dc:title>Matplotlib v3.9.2, https://matplotlib.org/</dc:title>
     </cc:Agent>
    </dc:creator>
   </cc:Work>
  </rdf:RDF>
 </metadata>
 <defs>
  <style type="text/css">*{stroke-linejoin: round; stroke-linecap: butt}</style>
 </defs>
 <g id="figure_1">
  <g id="patch_1">
   <path d="M 0 268.200625 
L 388.965625 268.200625 
L 388.965625 0 
L 0 0 
z
" style="fill: #ffffff"/>
  </g>
  <g id="axes_1">
   <g id="patch_2">
    <path d="M 46.965625 228.96 
L 381.765625 228.96 
L 381.765625 7.2 
L 46.965625 7.2 
z
" style="fill: #ffffff"/>
   </g>
   <g id="matplotlib.axis_1">
    <g id="xtick_1">
     <g id="line2d_1">
      <defs>
       <path id="me02f665a84" d="M 0 0 
L 0 3.5 
" style="stroke: #000000; stroke-width: 0.8"/>
      </defs>
      <g>
       <use xlink:href="#me02f665a84" x="78.202946" y="228.96" style="stroke: #000000; stroke-width: 0.8"/>
      </g>
     </g>
     <g id="text_1">
      <!-- 1.0 -->
      <g transform="translate(70.251383 243.558437) scale(0.1 -0.1)">
       <defs>
        <path id="DejaVuSans-31" d="M 794 531 
L 1825 531 
L 1825 4091 
L 703 3866 
L 703 4441 
L 1819 4666 
L 2450 4666 
L 2450 531 
L 3481 531 
L 3481 0 
L 794 0 
L 794 531 
z
" transform="scale(0.015625)"/>
        <path id="DejaVuSans-2e" d="M 684 794 
L 1344 794 
L 1344 0 
L 684 0 
L 684 794 
z
" transform="scale(0.015625)"/>
        <path id="DejaVuSans-30" d="M 2034 4250 
Q 1547 4250 1301 3770 
Q 1056 3291 1056 2328 
Q 1056 1369 1301 889 
Q 1547 409 2034 409 
Q 2525 409 2770 889 
Q 3016 1369 3016 2328 
Q 3016 3291 2770 3770 
Q 2525 4250 2034 4250 
z
M 2034 4750 
Q 2819 4750 3233 4129 
Q 3647 3509 3647 2328 
Q 3647 1150 3233 529 
Q 2819 -91 2034 -91 
Q 1250 -91 836 529 
Q 422 1150 422 2328 
Q 422 3509 836 4129 
Q 1250 4750 2034 4750 
z
" transform="scale(0.015625)"/>
       </defs>
       <use xlink:href="#DejaVuSans-31"/>
       <use xlink:href="#DejaVuSans-2e" x="63.623047"/>
       <use xlink:href="#DejaVuSans-30" x="95.410156"/>
      </g>
     </g>
    </g>
    <g id="xtick_2">
     <g id="line2d_2">
      <g>
       <use xlink:href="#me02f665a84" x="118.250792" y="228.96" style="stroke: #000000; stroke-width: 0.8"/>
      </g>
     </g>
     <g id="text_2">
      <!-- 1.5 -->
      <g transform="translate(110.29923 243.558437) scale(0.1 -0.1)">
       <defs>
        <path id="DejaVuSans-35" d="M 691 4666 
L 3169 4666 
L 3169 4134 
L 1269 4134 
L 1269 2991 
Q 1406 3038 1543 3061 
Q 1681 3084 1819 3084 
Q 2600 3084 3056 2656 
Q 3513 2228 3513 1497 
Q 3513 744 3044 326 
Q 2575 -91 1722 -91 
Q 1428 -91 1123 -41 
Q 819 9 494 109 
L 494 744 
Q 775 591 1075 516 
Q 1375 441 1709 441 
Q 2250 441 2565 725 
Q 2881 1009 2881 1497 
Q 2881 1984 2565 2268 
Q 2250 2553 1709 2553 
Q 1456 2553 1204 2497 
Q 953 2441 691 2322 
L 691 4666 
z
" transform="scale(0.015625)"/>
       </defs>
       <use xlink:href="#DejaVuSans-31"/>
       <use xlink:href="#DejaVuSans-2e" x="63.623047"/>
       <use xlink:href="#DejaVuSans-35" x="95.410156"/>
      </g>
     </g>
    </g>
    <g id="xtick_3">
     <g id="line2d_3">
      <g>
       <use xlink:href="#me02f665a84" x="158.298639" y="228.96" style="stroke: #000000; stroke-width: 0.8"/>
      </g>
     </g>
     <g id="text_3">
      <!-- 2.0 -->
      <g transform="translate(150.347077 243.558437) scale(0.1 -0.1)">
       <defs>
        <path id="DejaVuSans-32" d="M 1228 531 
L 3431 531 
L 3431 0 
L 469 0 
L 469 531 
Q 828 903 1448 1529 
Q 2069 2156 2228 2338 
Q 2531 2678 2651 2914 
Q 2772 3150 2772 3378 
Q 2772 3750 2511 3984 
Q 2250 4219 1831 4219 
Q 1534 4219 1204 4116 
Q 875 4013 500 3803 
L 500 4441 
Q 881 4594 1212 4672 
Q 1544 4750 1819 4750 
Q 2544 4750 2975 4387 
Q 3406 4025 3406 3419 
Q 3406 3131 3298 2873 
Q 3191 2616 2906 2266 
Q 2828 2175 2409 1742 
Q 1991 1309 1228 531 
z
" transform="scale(0.015625)"/>
       </defs>
       <use xlink:href="#DejaVuSans-32"/>
       <use xlink:href="#DejaVuSans-2e" x="63.623047"/>
       <use xlink:href="#DejaVuSans-30" x="95.410156"/>
      </g>
     </g>
    </g>
    <g id="xtick_4">
     <g id="line2d_4">
      <g>
       <use xlink:href="#me02f665a84" x="198.346486" y="228.96" style="stroke: #000000; stroke-width: 0.8"/>
      </g>
     </g>
     <g id="text_4">
      <!-- 2.5 -->
      <g transform="translate(190.394924 243.558437) scale(0.1 -0.1)">
       <use xlink:href="#DejaVuSans-32"/>
       <use xlink:href="#DejaVuSans-2e" x="63.623047"/>
       <use xlink:href="#DejaVuSans-35" x="95.410156"/>
      </g>
     </g>
    </g>
    <g id="xtick_5">
     <g id="line2d_5">
      <g>
       <use xlink:href="#me02f665a84" x="238.394333" y="228.96" style="stroke: #000000; stroke-width: 0.8"/>
      </g>
     </g>
     <g id="text_5">
      <!-- 3.0 -->
      <g transform="translate(230.442771 243.558437) scale(0.1 -0.1)">
       <defs>
        <path id="DejaVuSans-33" d="M 2597 2516 
Q 3050 2419 3304 2112 
Q 3559 1806 3559 1356 
Q 3559 666 3084 287 
Q 2609 -91 1734 -91 
Q 1441 -91 1130 -33 
Q 819 25 488 141 
L 488 750 
Q 750 597 1062 519 
Q 1375 441 1716 441 
Q 2309 441 2620 675 
Q 2931 909 2931 1356 
Q 2931 1769 2642 2001 
Q 2353 2234 1838 2234 
L 1294 2234 
L 1294 2753 
L 1863 2753 
Q 2328 2753 2575 2939 
Q 2822 3125 2822 3475 
Q 2822 3834 2567 4026 
Q 2313 4219 1838 4219 
Q 1578 4219 1281 4162 
Q 984 4106 628 3988 
L 628 4550 
Q 988 4650 1302 4700 
Q 1616 4750 1894 4750 
Q 2613 4750 3031 4423 
Q 3450 4097 3450 3541 
Q 3450 3153 3228 2886 
Q 3006 2619 2597 2516 
z
" transform="scale(0.015625)"/>
       </defs>
       <use xlink:href="#DejaVuSans-33"/>
       <use xlink:href="#DejaVuSans-2e" x="63.623047"/>
       <use xlink:href="#DejaVuSans-30" x="95.410156"/>
      </g>
     </g>
    </g>
    <g id="xtick_6">
     <g id="line2d_6">
      <g>
       <use xlink:href="#me02f665a84" x="278.44218" y="228.96" style="stroke: #000000; stroke-width: 0.8"/>
      </g>
     </g>
     <g id="text_6">
      <!-- 3.5 -->
      <g transform="translate(270.490618 243.558437) scale(0.1 -0.1)">
       <use xlink:href="#DejaVuSans-33"/>
       <use xlink:href="#DejaVuSans-2e" x="63.623047"/>
       <use xlink:href="#DejaVuSans-35" x="95.410156"/>
      </g>
     </g>
    </g>
    <g id="xtick_7">
     <g id="line2d_7">
      <g>
       <use xlink:href="#me02f665a84" x="318.490027" y="228.96" style="stroke: #000000; stroke-width: 0.8"/>
      </g>
     </g>
     <g id="text_7">
      <!-- 4.0 -->
      <g transform="translate(310.538464 243.558437) scale(0.1 -0.1)">
       <defs>
        <path id="DejaVuSans-34" d="M 2419 4116 
L 825 1625 
L 2419 1625 
L 2419 4116 
z
M 2253 4666 
L 3047 4666 
L 3047 1625 
L 3713 1625 
L 3713 1100 
L 3047 1100 
L 3047 0 
L 2419 0 
L 2419 1100 
L 313 1100 
L 313 1709 
L 2253 4666 
z
" transform="scale(0.015625)"/>
       </defs>
       <use xlink:href="#DejaVuSans-34"/>
       <use xlink:href="#DejaVuSans-2e" x="63.623047"/>
       <use xlink:href="#DejaVuSans-30" x="95.410156"/>
      </g>
     </g>
    </g>
    <g id="xtick_8">
     <g id="line2d_8">
      <g>
       <use xlink:href="#me02f665a84" x="358.537874" y="228.96" style="stroke: #000000; stroke-width: 0.8"/>
      </g>
     </g>
     <g id="text_8">
      <!-- 4.5 -->
      <g transform="translate(350.586311 243.558437) scale(0.1 -0.1)">
       <use xlink:href="#DejaVuSans-34"/>
       <use xlink:href="#DejaVuSans-2e" x="63.623047"/>
       <use xlink:href="#DejaVuSans-35" x="95.410156"/>
      </g>
     </g>
    </g>
    <g id="text_9">
     <!-- wavelength [Å] -->
     <g transform="translate(176.328125 258.920937) scale(0.1 -0.1)">
      <defs>
       <path id="DejaVuSans-77" d="M 269 3500 
L 844 3500 
L 1563 769 
L 2278 3500 
L 2956 3500 
L 3675 769 
L 4391 3500 
L 4966 3500 
L 4050 0 
L 3372 0 
L 2619 2869 
L 1863 0 
L 1184 0 
L 269 3500 
z
" transform="scale(0.015625)"/>
       <path id="DejaVuSans-61" d="M 2194 1759 
Q 1497 1759 1228 1600 
Q 959 1441 959 1056 
Q 959 750 1161 570 
Q 1363 391 1709 391 
Q 2188 391 2477 730 
Q 2766 1069 2766 1631 
L 2766 1759 
L 2194 1759 
z
M 3341 1997 
L 3341 0 
L 2766 0 
L 2766 531 
Q 2569 213 2275 61 
Q 1981 -91 1556 -91 
Q 1019 -91 701 211 
Q 384 513 384 1019 
Q 384 1609 779 1909 
Q 1175 2209 1959 2209 
L 2766 2209 
L 2766 2266 
Q 2766 2663 2505 2880 
Q 2244 3097 1772 3097 
Q 1472 3097 1187 3025 
Q 903 2953 641 2809 
L 641 3341 
Q 956 3463 1253 3523 
Q 1550 3584 1831 3584 
Q 2591 3584 2966 3190 
Q 3341 2797 3341 1997 
z
" transform="scale(0.015625)"/>
       <path id="DejaVuSans-76" d="M 191 3500 
L 800 3500 
L 1894 563 
L 2988 3500 
L 3597 3500 
L 2284 0 
L 1503 0 
L 191 3500 
z
" transform="scale(0.015625)"/>
       <path id="DejaVuSans-65" d="M 3597 1894 
L 3597 1613 
L 953 1613 
Q 991 1019 1311 708 
Q 1631 397 2203 397 
Q 2534 397 2845 478 
Q 3156 559 3463 722 
L 3463 178 
Q 3153 47 2828 -22 
Q 2503 -91 2169 -91 
Q 1331 -91 842 396 
Q 353 884 353 1716 
Q 353 2575 817 3079 
Q 1281 3584 2069 3584 
Q 2775 3584 3186 3129 
Q 3597 2675 3597 1894 
z
M 3022 2063 
Q 3016 2534 2758 2815 
Q 2500 3097 2075 3097 
Q 1594 3097 1305 2825 
Q 1016 2553 972 2059 
L 3022 2063 
z
" transform="scale(0.015625)"/>
       <path id="DejaVuSans-6c" d="M 603 4863 
L 1178 4863 
L 1178 0 
L 603 0 
L 603 4863 
z
" transform="scale(0.015625)"/>
       <path id="DejaVuSans-6e" d="M 3513 2113 
L 3513 0 
L 2938 0 
L 2938 2094 
Q 2938 2591 2744 2837 
Q 2550 3084 2163 3084 
Q 1697 3084 1428 2787 
Q 1159 2491 1159 1978 
L 1159 0 
L 581 0 
L 581 3500 
L 1159 3500 
L 1159 2956 
Q 1366 3272 1645 3428 
Q 1925 3584 2291 3584 
Q 2894 3584 3203 3211 
Q 3513 2838 3513 2113 
z
" transform="scale(0.015625)"/>
       <path id="DejaVuSans-67" d="M 2906 1791 
Q 2906 2416 2648 2759 
Q 2391 3103 1925 3103 
Q 1463 3103 1205 2759 
Q 947 2416 947 1791 
Q 947 1169 1205 825 
Q 1463 481 1925 481 
Q 2391 481 2648 825 
Q 2906 1169 2906 1791 
z
M 3481 434 
Q 3481 -459 3084 -895 
Q 2688 -1331 1869 -1331 
Q 1566 -1331 1297 -1286 
Q 1028 -1241 775 -1147 
L 775 -588 
Q 1028 -725 1275 -790 
Q 1522 -856 1778 -856 
Q 2344 -856 2625 -561 
Q 2906 -266 2906 331 
L 2906 616 
Q 2728 306 2450 153 
Q 2172 0 1784 0 
Q 1141 0 747 490 
Q 353 981 353 1791 
Q 353 2603 747 3093 
Q 1141 3584 1784 3584 
Q 2172 3584 2450 3431 
Q 2728 3278 2906 2969 
L 2906 3500 
L 3481 3500 
L 3481 434 
z
" transform="scale(0.015625)"/>
       <path id="DejaVuSans-74" d="M 1172 4494 
L 1172 3500 
L 2356 3500 
L 2356 3053 
L 1172 3053 
L 1172 1153 
Q 1172 725 1289 603 
Q 1406 481 1766 481 
L 2356 481 
L 2356 0 
L 1766 0 
Q 1100 0 847 248 
Q 594 497 594 1153 
L 594 3053 
L 172 3053 
L 172 3500 
L 594 3500 
L 594 4494 
L 1172 4494 
z
" transform="scale(0.015625)"/>
       <path id="DejaVuSans-68" d="M 3513 2113 
L 3513 0 
L 2938 0 
L 2938 2094 
Q 2938 2591 2744 2837 
Q 2550 3084 2163 3084 
Q 1697 3084 1428 2787 
Q 1159 2491 1159 1978 
L 1159 0 
L 581 0 
L 581 4863 
L 1159 4863 
L 1159 2956 
Q 1366 3272 1645 3428 
Q 1925 3584 2291 3584 
Q 2894 3584 3203 3211 
Q 3513 2838 3513 2113 
z
" transform="scale(0.015625)"/>
       <path id="DejaVuSans-20" transform="scale(0.015625)"/>
       <path id="DejaVuSans-5b" d="M 550 4863 
L 1875 4863 
L 1875 4416 
L 1125 4416 
L 1125 -397 
L 1875 -397 
L 1875 -844 
L 550 -844 
L 550 4863 
z
" transform="scale(0.015625)"/>
       <path id="DejaVuSans-c5" d="M 2663 5081 
Q 2663 5278 2523 5417 
Q 2384 5556 2188 5556 
Q 1988 5556 1852 5420 
Q 1716 5284 1716 5081 
Q 1716 4884 1853 4746 
Q 1991 4609 2188 4609 
Q 2384 4609 2523 4746 
Q 2663 4884 2663 5081 
z
M 2188 4044 
L 1338 1722 
L 3041 1722 
L 2188 4044 
z
M 1716 4366 
Q 1525 4494 1428 4673 
Q 1331 4853 1331 5081 
Q 1331 5441 1579 5691 
Q 1828 5941 2188 5941 
Q 2544 5941 2795 5689 
Q 3047 5438 3047 5081 
Q 3047 4863 2948 4678 
Q 2850 4494 2663 4366 
L 4325 0 
L 3669 0 
L 3244 1197 
L 1141 1197 
L 716 0 
L 50 0 
L 1716 4366 
z
" transform="scale(0.015625)"/>
       <path id="DejaVuSans-5d" d="M 1947 4863 
L 1947 -844 
L 622 -844 
L 622 -397 
L 1369 -397 
L 1369 4416 
L 622 4416 
L 622 4863 
L 1947 4863 
z
" transform="scale(0.015625)"/>
      </defs>
      <use xlink:href="#DejaVuSans-77"/>
      <use xlink:href="#DejaVuSans-61" x="81.787109"/>
      <use xlink:href="#DejaVuSans-76" x="143.066406"/>
      <use xlink:href="#DejaVuSans-65" x="202.246094"/>
      <use xlink:href="#DejaVuSans-6c" x="263.769531"/>
      <use xlink:href="#DejaVuSans-65" x="291.552734"/>
      <use xlink:href="#DejaVuSans-6e" x="353.076172"/>
      <use xlink:href="#DejaVuSans-67" x="416.455078"/>
      <use xlink:href="#DejaVuSans-74" x="479.931641"/>
      <use xlink:href="#DejaVuSans-68" x="519.140625"/>
      <use xlink:href="#DejaVuSans-20" x="582.519531"/>
      <use xlink:href="#DejaVuSans-5b" x="614.306641"/>
      <use xlink:href="#DejaVuSans-c5" x="653.320312"/>
      <use xlink:href="#DejaVuSans-5d" x="721.728516"/>
     </g>
    </g>
   </g>
   <g id="matplotlib.axis_2">
    <g id="ytick_1">
     <g id="line2d_9">
      <defs>
       <path id="md196d44173" d="M 0 0 
L -3.5 0 
" style="stroke: #000000; stroke-width: 0.8"/>
      </defs>
      <g>
       <use xlink:href="#md196d44173" x="46.965625" y="218.88" style="stroke: #000000; stroke-width: 0.8"/>
      </g>
     </g>
     <g id="text_10">
      <!-- 0 -->
      <g transform="translate(33.603125 222.679219) scale(0.1 -0.1)">
       <use xlink:href="#DejaVuSans-30"/>
      </g>
     </g>
    </g>
    <g id="ytick_2">
     <g id="line2d_10">
      <g>
       <use xlink:href="#md196d44173" x="46.965625" y="170.360144" style="stroke: #000000; stroke-width: 0.8"/>
      </g>
     </g>
     <g id="text_11">
      <!-- 200 -->
      <g transform="translate(20.878125 174.159363) scale(0.1 -0.1)">
       <use xlink:href="#DejaVuSans-32"/>
       <use xlink:href="#DejaVuSans-30" x="63.623047"/>
       <use xlink:href="#DejaVuSans-30" x="127.246094"/>
      </g>
     </g>
    </g>
    <g id="ytick_3">
     <g id="line2d_11">
      <g>
       <use xlink:href="#md196d44173" x="46.965625" y="121.840289" style="stroke: #000000; stroke-width: 0.8"/>
      </g>
     </g>
     <g id="text_12">
      <!-- 400 -->
      <g transform="translate(20.878125 125.639508) scale(0.1 -0.1)">
       <use xlink:href="#DejaVuSans-34"/>
       <use xlink:href="#DejaVuSans-30" x="63.623047"/>
       <use xlink:href="#DejaVuSans-30" x="127.246094"/>
      </g>
     </g>
    </g>
    <g id="ytick_4">
     <g id="line2d_12">
      <g>
       <use xlink:href="#md196d44173" x="46.965625" y="73.320433" style="stroke: #000000; stroke-width: 0.8"/>
      </g>
     </g>
     <g id="text_13">
      <!-- 600 -->
      <g transform="translate(20.878125 77.119652) scale(0.1 -0.1)">
       <defs>
        <path id="DejaVuSans-36" d="M 2113 2584 
Q 1688 2584 1439 2293 
Q 1191 2003 1191 1497 
Q 1191 994 1439 701 
Q 1688 409 2113 409 
Q 2538 409 2786 701 
Q 3034 994 3034 1497 
Q 3034 2003 2786 2293 
Q 2538 2584 2113 2584 
z
M 3366 4563 
L 3366 3988 
Q 3128 4100 2886 4159 
Q 2644 4219 2406 4219 
Q 1781 4219 1451 3797 
Q 1122 3375 1075 2522 
Q 1259 2794 1537 2939 
Q 1816 3084 2150 3084 
Q 2853 3084 3261 2657 
Q 3669 2231 3669 1497 
Q 3669 778 3244 343 
Q 2819 -91 2113 -91 
Q 1303 -91 875 529 
Q 447 1150 447 2328 
Q 447 3434 972 4092 
Q 1497 4750 2381 4750 
Q 2619 4750 2861 4703 
Q 3103 4656 3366 4563 
z
" transform="scale(0.015625)"/>
       </defs>
       <use xlink:href="#DejaVuSans-36"/>
       <use xlink:href="#DejaVuSans-30" x="63.623047"/>
       <use xlink:href="#DejaVuSans-30" x="127.246094"/>
      </g>
     </g>
    </g>
    <g id="ytick_5">
     <g id="line2d_13">
      <g>
       <use xlink:href="#md196d44173" x="46.965625" y="24.800578" style="stroke: #000000; stroke-width: 0.8"/>
      </g>
     </g>
     <g id="text_14">
      <!-- 800 -->
      <g transform="translate(20.878125 28.599796) scale(0.1 -0.1)">
       <defs>
        <path id="DejaVuSans-38" d="M 2034 2216 
Q 1584 2216 1326 1975 
Q 1069 1734 1069 1313 
Q 1069 891 1326 650 
Q 1584 409 2034 409 
Q 2484 409 2743 651 
Q 3003 894 3003 1313 
Q 3003 1734 2745 1975 
Q 2488 2216 2034 2216 
z
M 1403 2484 
Q 997 2584 770 2862 
Q 544 3141 544 3541 
Q 544 4100 942 4425 
Q 1341 4750 2034 4750 
Q 2731 4750 3128 4425 
Q 3525 4100 3525 3541 
Q 3525 3141 3298 2862 
Q 3072 2584 2669 2484 
Q 3125 2378 3379 2068 
Q 3634 1759 3634 1313 
Q 3634 634 3220 271 
Q 2806 -91 2034 -91 
Q 1263 -91 848 271 
Q 434 634 434 1313 
Q 434 1759 690 2068 
Q 947 2378 1403 2484 
z
M 1172 3481 
Q 1172 3119 1398 2916 
Q 1625 2713 2034 2713 
Q 2441 2713 2670 2916 
Q 2900 3119 2900 3481 
Q 2900 3844 2670 4047 
Q 2441 4250 2034 4250 
Q 1625 4250 1398 4047 
Q 1172 3844 1172 3481 
z
" transform="scale(0.015625)"/>
       </defs>
       <use xlink:href="#DejaVuSans-38"/>
       <use xlink:href="#DejaVuSans-30" x="63.623047"/>
       <use xlink:href="#DejaVuSans-30" x="127.246094"/>
      </g>
     </g>
    </g>
    <g id="text_15">
     <!-- [counts] -->
     <g transform="translate(14.798438 138.6925) rotate(-90) scale(0.1 -0.1)">
      <defs>
       <path id="DejaVuSans-63" d="M 3122 3366 
L 3122 2828 
Q 2878 2963 2633 3030 
Q 2388 3097 2138 3097 
Q 1578 3097 1268 2742 
Q 959 2388 959 1747 
Q 959 1106 1268 751 
Q 1578 397 2138 397 
Q 2388 397 2633 464 
Q 2878 531 3122 666 
L 3122 134 
Q 2881 22 2623 -34 
Q 2366 -91 2075 -91 
Q 1284 -91 818 406 
Q 353 903 353 1747 
Q 353 2603 823 3093 
Q 1294 3584 2113 3584 
Q 2378 3584 2631 3529 
Q 2884 3475 3122 3366 
z
" transform="scale(0.015625)"/>
       <path id="DejaVuSans-6f" d="M 1959 3097 
Q 1497 3097 1228 2736 
Q 959 2375 959 1747 
Q 959 1119 1226 758 
Q 1494 397 1959 397 
Q 2419 397 2687 759 
Q 2956 1122 2956 1747 
Q 2956 2369 2687 2733 
Q 2419 3097 1959 3097 
z
M 1959 3584 
Q 2709 3584 3137 3096 
Q 3566 2609 3566 1747 
Q 3566 888 3137 398 
Q 2709 -91 1959 -91 
Q 1206 -91 779 398 
Q 353 888 353 1747 
Q 353 2609 779 3096 
Q 1206 3584 1959 3584 
z
" transform="scale(0.015625)"/>
       <path id="DejaVuSans-75" d="M 544 1381 
L 544 3500 
L 1119 3500 
L 1119 1403 
Q 1119 906 1312 657 
Q 1506 409 1894 409 
Q 2359 409 2629 706 
Q 2900 1003 2900 1516 
L 2900 3500 
L 3475 3500 
L 3475 0 
L 2900 0 
L 2900 538 
Q 2691 219 2414 64 
Q 2138 -91 1772 -91 
Q 1169 -91 856 284 
Q 544 659 544 1381 
z
M 1991 3584 
L 1991 3584 
z
" transform="scale(0.015625)"/>
       <path id="DejaVuSans-73" d="M 2834 3397 
L 2834 2853 
Q 2591 2978 2328 3040 
Q 2066 3103 1784 3103 
Q 1356 3103 1142 2972 
Q 928 2841 928 2578 
Q 928 2378 1081 2264 
Q 1234 2150 1697 2047 
L 1894 2003 
Q 2506 1872 2764 1633 
Q 3022 1394 3022 966 
Q 3022 478 2636 193 
Q 2250 -91 1575 -91 
Q 1294 -91 989 -36 
Q 684 19 347 128 
L 347 722 
Q 666 556 975 473 
Q 1284 391 1588 391 
Q 1994 391 2212 530 
Q 2431 669 2431 922 
Q 2431 1156 2273 1281 
Q 2116 1406 1581 1522 
L 1381 1569 
Q 847 1681 609 1914 
Q 372 2147 372 2553 
Q 372 3047 722 3315 
Q 1072 3584 1716 3584 
Q 2034 3584 2315 3537 
Q 2597 3491 2834 3397 
z
" transform="scale(0.015625)"/>
      </defs>
      <use xlink:href="#DejaVuSans-5b"/>
      <use xlink:href="#DejaVuSans-63" x="39.013672"/>
      <use xlink:href="#DejaVuSans-6f" x="93.994141"/>
      <use xlink:href="#DejaVuSans-75" x="155.175781"/>
      <use xlink:href="#DejaVuSans-6e" x="218.554688"/>
      <use xlink:href="#DejaVuSans-74" x="281.933594"/>
      <use xlink:href="#DejaVuSans-73" x="321.142578"/>
      <use xlink:href="#DejaVuSans-5d" x="373.242188"/>
     </g>
    </g>
   </g>
   <g id="patch_3">
    <path d="M 46.965625 228.96 
L 46.965625 7.2 
" style="fill: none; stroke: #000000; stroke-width: 0.8; stroke-linejoin: miter; stroke-linecap: square"/>
   </g>
   <g id="patch_4">
    <path d="M 381.765625 228.96 
L 381.765625 7.2 
" style="fill: none; stroke: #000000; stroke-width: 0.8; stroke-linejoin: miter; stroke-linecap: square"/>
   </g>
   <g id="patch_5">
    <path d="M 46.965625 228.96 
L 381.765625 228.96 
" style="fill: none; stroke: #000000; stroke-width: 0.8; stroke-linejoin: miter; stroke-linecap: square"/>
   </g>
   <g id="patch_6">
    <path d="M 46.965625 7.2 
L 381.765625 7.2 
" style="fill: none; stroke: #000000; stroke-width: 0.8; stroke-linejoin: miter; stroke-linecap: square"/>
   </g>
   <g id="legend_1">
    <g id="patch_7">
     <path d="M 277.7625 44.834375 
L 374.765625 44.834375 
Q 376.765625 44.834375 376.765625 42.834375 
L 376.765625 14.2 
Q 376.765625 12.2 374.765625 12.2 
L 277.7625 12.2 
Q 275.7625 12.2 275.7625 14.2 
L 275.7625 42.834375 
Q 275.7625 44.834375 277.7625 44.834375 
z
" style="fill: #ffffff; opacity: 0.8; stroke: #cccccc; stroke-linejoin: miter"/>
    </g>
    <g id="line2d_14">
     <path d="M 279.7625 20.298437 
L 279.7625 20.298437 
L 289.7625 20.298437 
L 289.7625 20.298437 
L 299.7625 20.298437 
" style="fill: none; stroke: #1f77b4; stroke-width: 1.5; stroke-linecap: square"/>
    </g>
    <g id="text_16">
     <!-- wfm -->
     <g transform="translate(307.7625 23.798437) scale(0.1 -0.1)">
      <defs>
       <path id="DejaVuSans-66" d="M 2375 4863 
L 2375 4384 
L 1825 4384 
Q 1516 4384 1395 4259 
Q 1275 4134 1275 3809 
L 1275 3500 
L 2222 3500 
L 2222 3053 
L 1275 3053 
L 1275 0 
L 697 0 
L 697 3053 
L 147 3053 
L 147 3500 
L 697 3500 
L 697 3744 
Q 697 4328 969 4595 
Q 1241 4863 1831 4863 
L 2375 4863 
z
" transform="scale(0.015625)"/>
       <path id="DejaVuSans-6d" d="M 3328 2828 
Q 3544 3216 3844 3400 
Q 4144 3584 4550 3584 
Q 5097 3584 5394 3201 
Q 5691 2819 5691 2113 
L 5691 0 
L 5113 0 
L 5113 2094 
Q 5113 2597 4934 2840 
Q 4756 3084 4391 3084 
Q 3944 3084 3684 2787 
Q 3425 2491 3425 1978 
L 3425 0 
L 2847 0 
L 2847 2094 
Q 2847 2600 2669 2842 
Q 2491 3084 2119 3084 
Q 1678 3084 1418 2786 
Q 1159 2488 1159 1978 
L 1159 0 
L 581 0 
L 581 3500 
L 1159 3500 
L 1159 2956 
Q 1356 3278 1631 3431 
Q 1906 3584 2284 3584 
Q 2666 3584 2933 3390 
Q 3200 3197 3328 2828 
z
" transform="scale(0.015625)"/>
      </defs>
      <use xlink:href="#DejaVuSans-77"/>
      <use xlink:href="#DejaVuSans-66" x="81.787109"/>
      <use xlink:href="#DejaVuSans-6d" x="116.992188"/>
     </g>
    </g>
    <g id="line2d_15">
     <path d="M 279.7625 34.976562 
L 279.7625 34.976562 
L 289.7625 34.976562 
L 289.7625 34.976562 
L 299.7625 34.976562 
" style="fill: none; stroke: #ff7f0e; stroke-width: 1.5; stroke-linecap: square"/>
    </g>
    <g id="text_17">
     <!-- ground_truth -->
     <g transform="translate(307.7625 38.476562) scale(0.1 -0.1)">
      <defs>
       <path id="DejaVuSans-72" d="M 2631 2963 
Q 2534 3019 2420 3045 
Q 2306 3072 2169 3072 
Q 1681 3072 1420 2755 
Q 1159 2438 1159 1844 
L 1159 0 
L 581 0 
L 581 3500 
L 1159 3500 
L 1159 2956 
Q 1341 3275 1631 3429 
Q 1922 3584 2338 3584 
Q 2397 3584 2469 3576 
Q 2541 3569 2628 3553 
L 2631 2963 
z
" transform="scale(0.015625)"/>
       <path id="DejaVuSans-64" d="M 2906 2969 
L 2906 4863 
L 3481 4863 
L 3481 0 
L 2906 0 
L 2906 525 
Q 2725 213 2448 61 
Q 2172 -91 1784 -91 
Q 1150 -91 751 415 
Q 353 922 353 1747 
Q 353 2572 751 3078 
Q 1150 3584 1784 3584 
Q 2172 3584 2448 3432 
Q 2725 3281 2906 2969 
z
M 947 1747 
Q 947 1113 1208 752 
Q 1469 391 1925 391 
Q 2381 391 2643 752 
Q 2906 1113 2906 1747 
Q 2906 2381 2643 2742 
Q 2381 3103 1925 3103 
Q 1469 3103 1208 2742 
Q 947 2381 947 1747 
z
" transform="scale(0.015625)"/>
       <path id="DejaVuSans-5f" d="M 3263 -1063 
L 3263 -1509 
L -63 -1509 
L -63 -1063 
L 3263 -1063 
z
" transform="scale(0.015625)"/>
      </defs>
      <use xlink:href="#DejaVuSans-67"/>
      <use xlink:href="#DejaVuSans-72" x="63.476562"/>
      <use xlink:href="#DejaVuSans-6f" x="102.339844"/>
      <use xlink:href="#DejaVuSans-75" x="163.521484"/>
      <use xlink:href="#DejaVuSans-6e" x="226.900391"/>
      <use xlink:href="#DejaVuSans-64" x="290.279297"/>
      <use xlink:href="#DejaVuSans-5f" x="353.755859"/>
      <use xlink:href="#DejaVuSans-74" x="403.755859"/>
      <use xlink:href="#DejaVuSans-72" x="442.964844"/>
      <use xlink:href="#DejaVuSans-75" x="484.078125"/>
      <use xlink:href="#DejaVuSans-74" x="547.457031"/>
      <use xlink:href="#DejaVuSans-68" x="586.666016"/>
     </g>
    </g>
   </g>
   <g id="line2d_16">
    <path d="M 62.183807 218.88 
L 71.314716 218.88 
L 71.314716 215.241011 
L 72.836534 215.241011 
L 72.836534 208.448231 
L 74.358352 208.448231 
L 74.358352 197.531264 
L 75.88017 197.531264 
L 75.88017 190.010686 
L 77.401989 190.010686 
L 77.401989 187.342094 
L 78.923807 187.342094 
L 78.923807 173.756534 
L 80.445625 173.756534 
L 80.445625 162.839567 
L 81.967443 162.839567 
L 81.967443 164.537762 
L 83.489261 164.537762 
L 83.489261 155.561588 
L 85.01108 155.561588 
L 85.01108 152.892996 
L 86.532898 152.892996 
L 86.532898 139.064838 
L 88.054716 139.064838 
L 88.054716 130.816462 
L 89.576534 130.816462 
L 89.576534 116.988303 
L 91.098352 116.988303 
L 91.098352 115.047509 
L 92.62017 115.047509 
L 92.62017 101.704549 
L 94.141989 101.704549 
L 94.141989 94.42657 
L 95.663807 94.42657 
L 95.663807 86.178195 
L 97.185625 86.178195 
L 97.185625 92.485776 
L 98.707443 92.485776 
L 98.707443 81.326209 
L 100.229261 81.326209 
L 100.229261 76.716823 
L 101.75108 76.716823 
L 101.75108 65.314657 
L 103.272898 65.314657 
L 103.272898 69.924043 
L 104.794716 69.924043 
L 104.794716 64.829458 
L 106.316534 64.829458 
L 106.316534 54.882888 
L 107.838352 54.882888 
L 107.838352 62.646065 
L 109.36017 62.646065 
L 109.36017 42.995523 
L 110.881989 42.995523 
L 110.881989 35.474946 
L 112.403807 35.474946 
L 112.403807 17.28 
L 113.925625 17.28 
L 113.925625 39.599134 
L 115.447443 39.599134 
L 115.447443 36.445343 
L 116.969261 36.445343 
L 116.969261 22.374585 
L 118.49108 22.374585 
L 118.49108 27.22657 
L 120.012898 27.22657 
L 120.012898 29.895162 
L 121.534716 29.895162 
L 121.534716 33.048953 
L 123.056534 33.048953 
L 123.056534 39.356534 
L 124.578352 39.356534 
L 124.578352 25.285776 
L 126.10017 25.285776 
L 126.10017 36.202744 
L 127.621989 36.202744 
L 127.621989 26.256173 
L 129.143807 26.256173 
L 129.143807 48.332708 
L 130.665625 48.332708 
L 130.665625 46.391913 
L 132.187443 46.391913 
L 132.187443 43.480722 
L 133.709261 43.480722 
L 133.709261 43.723321 
L 135.23108 43.723321 
L 135.23108 54.640289 
L 136.752898 54.640289 
L 136.752898 60.94787 
L 138.274716 60.94787 
L 138.274716 52.699495 
L 139.796534 52.699495 
L 139.796534 44.936318 
L 141.318352 44.936318 
L 141.318352 54.39769 
L 142.84017 54.39769 
L 142.84017 64.829458 
L 144.361989 64.829458 
L 144.361989 63.373863 
L 145.883807 63.373863 
L 145.883807 71.864838 
L 147.405625 71.864838 
L 147.405625 81.326209 
L 148.927443 81.326209 
L 148.927443 72.592635 
L 150.449261 72.592635 
L 150.449261 74.53343 
L 151.97108 74.53343 
L 151.97108 71.864838 
L 153.492898 71.864838 
L 153.492898 66.042455 
L 155.014716 66.042455 
L 155.014716 76.231625 
L 156.536534 76.231625 
L 156.536534 77.202022 
L 158.058352 77.202022 
L 158.058352 74.29083 
L 159.58017 74.29083 
L 159.58017 73.077834 
L 161.101989 73.077834 
L 161.101989 81.811408 
L 162.623807 81.811408 
L 162.623807 73.563032 
L 164.145625 73.563032 
L 164.145625 83.267004 
L 165.667443 83.267004 
L 165.667443 83.752202 
L 167.189261 83.752202 
L 167.189261 79.628014 
L 168.71108 79.628014 
L 168.71108 81.08361 
L 170.232898 81.08361 
L 170.232898 79.628014 
L 171.754716 79.628014 
L 171.754716 91.27278 
L 173.276534 91.27278 
L 173.276534 83.994801 
L 174.798352 83.994801 
L 174.798352 85.935596 
L 176.32017 85.935596 
L 176.32017 84.48 
L 177.841989 84.48 
L 177.841989 90.787581 
L 179.363807 90.787581 
L 179.363807 96.367365 
L 180.885625 96.367365 
L 180.885625 94.911769 
L 182.407443 94.911769 
L 182.407443 105.343538 
L 183.929261 105.343538 
L 183.929261 115.775307 
L 185.45108 115.775307 
L 185.45108 110.195523 
L 186.972898 110.195523 
L 186.972898 126.692274 
L 188.494716 126.692274 
L 188.494716 120.627292 
L 190.016534 120.627292 
L 190.016534 134.94065 
L 191.538352 134.94065 
L 191.538352 146.342816 
L 193.06017 146.342816 
L 193.06017 152.650397 
L 194.581989 152.650397 
L 194.581989 160.170975 
L 196.103807 160.170975 
L 196.103807 164.780361 
L 197.625625 164.780361 
L 197.625625 171.573141 
L 199.147443 171.573141 
L 199.147443 176.910325 
L 200.669261 176.910325 
L 200.669261 189.282888 
L 202.19108 189.282888 
L 202.19108 193.407076 
L 203.712898 193.407076 
L 203.712898 191.466282 
L 205.234716 191.466282 
L 205.234716 199.957256 
L 206.756534 199.957256 
L 206.756534 204.324043 
L 208.278352 204.324043 
L 208.278352 209.176029 
L 209.80017 209.176029 
L 209.80017 211.602022 
L 211.321989 211.602022 
L 211.321989 215.968809 
L 212.843807 215.968809 
L 212.843807 216.939206 
L 214.365625 216.939206 
L 214.365625 213.542816 
L 215.887443 213.542816 
L 215.887443 205.051841 
L 217.409261 205.051841 
L 217.409261 200.199856 
L 218.93108 200.199856 
L 218.93108 191.95148 
L 220.452898 191.95148 
L 220.452898 186.614296 
L 221.974716 186.614296 
L 221.974716 178.365921 
L 223.496534 178.365921 
L 223.496534 170.845343 
L 225.018352 170.845343 
L 225.018352 166.235957 
L 226.54017 166.235957 
L 226.54017 169.389747 
L 228.061989 169.389747 
L 228.061989 155.318989 
L 229.583807 155.318989 
L 229.583807 157.259783 
L 231.105625 157.259783 
L 231.105625 151.68 
L 232.627443 151.68 
L 232.627443 147.070614 
L 234.149261 147.070614 
L 234.149261 138.579639 
L 235.67108 138.579639 
L 235.67108 139.307437 
L 237.192898 139.307437 
L 237.192898 124.508881 
L 238.714716 124.508881 
L 238.714716 131.54426 
L 240.236534 131.54426 
L 240.236534 131.301661 
L 241.758352 131.301661 
L 241.758352 123.295884 
L 243.28017 123.295884 
L 243.28017 120.384693 
L 244.801989 120.384693 
L 244.801989 119.414296 
L 246.323807 119.414296 
L 246.323807 123.053285 
L 247.845625 123.053285 
L 247.845625 103.645343 
L 249.367443 103.645343 
L 249.367443 113.106715 
L 250.889261 113.106715 
L 250.889261 103.160144 
L 252.41108 103.160144 
L 252.41108 97.337762 
L 253.932898 97.337762 
L 253.932898 89.331986 
L 255.454716 89.331986 
L 255.454716 93.456173 
L 256.976534 93.456173 
L 256.976534 96.367365 
L 258.498352 96.367365 
L 258.498352 94.42657 
L 260.02017 94.42657 
L 260.02017 97.337762 
L 261.541989 97.337762 
L 261.541989 88.604188 
L 263.063807 88.604188 
L 263.063807 92.000578 
L 264.585625 92.000578 
L 264.585625 98.550758 
L 266.107443 98.550758 
L 266.107443 108.254729 
L 267.629261 108.254729 
L 267.629261 102.189747 
L 269.15108 102.189747 
L 269.15108 108.982527 
L 270.672898 108.982527 
L 270.672898 111.893718 
L 272.194716 111.893718 
L 272.194716 108.739928 
L 273.716534 108.739928 
L 273.716534 106.799134 
L 275.238352 106.799134 
L 275.238352 115.290108 
L 276.76017 115.290108 
L 276.76017 110.923321 
L 278.281989 110.923321 
L 278.281989 109.467726 
L 279.803807 109.467726 
L 279.803807 113.106715 
L 281.325625 113.106715 
L 281.325625 114.077112 
L 282.847443 114.077112 
L 282.847443 108.982527 
L 284.369261 108.982527 
L 284.369261 119.171697 
L 285.89108 119.171697 
L 285.89108 124.266282 
L 287.412898 124.266282 
L 287.412898 121.35509 
L 288.934716 121.35509 
L 288.934716 122.810686 
L 290.456534 122.810686 
L 290.456534 122.568087 
L 291.978352 122.568087 
L 291.978352 130.088664 
L 293.50017 130.088664 
L 293.50017 132.514657 
L 295.021989 132.514657 
L 295.021989 128.14787 
L 296.543807 128.14787 
L 296.543807 126.934874 
L 298.065625 126.934874 
L 298.065625 136.396245 
L 299.587443 136.396245 
L 299.587443 140.763032 
L 301.109261 140.763032 
L 301.109261 138.822238 
L 302.63108 138.822238 
L 302.63108 139.307437 
L 304.152898 139.307437 
L 304.152898 143.674224 
L 305.674716 143.674224 
L 305.674716 144.644621 
L 307.196534 144.644621 
L 307.196534 142.461227 
L 308.718352 142.461227 
L 308.718352 151.922599 
L 310.24017 151.922599 
L 310.24017 149.254007 
L 311.761989 149.254007 
L 311.761989 151.922599 
L 313.283807 151.922599 
L 313.283807 157.017184 
L 314.805625 157.017184 
L 314.805625 162.839567 
L 316.327443 162.839567 
L 316.327443 155.318989 
L 317.849261 155.318989 
L 317.849261 157.987581 
L 319.37108 157.987581 
L 319.37108 161.62657 
L 320.892898 161.62657 
L 320.892898 162.354368 
L 322.414716 162.354368 
L 322.414716 164.780361 
L 323.936534 164.780361 
L 323.936534 174.241733 
L 325.458352 174.241733 
L 325.458352 175.454729 
L 326.98017 175.454729 
L 326.98017 175.21213 
L 328.501989 175.21213 
L 328.501989 180.064116 
L 331.545625 180.064116 
L 331.545625 184.430903 
L 333.067443 184.430903 
L 333.067443 183.945704 
L 334.589261 183.945704 
L 334.589261 193.164477 
L 336.11108 193.164477 
L 336.11108 193.407076 
L 337.632898 193.407076 
L 337.632898 198.016462 
L 339.154716 198.016462 
L 339.154716 198.74426 
L 340.676534 198.74426 
L 340.676534 204.809242 
L 342.198352 204.809242 
L 342.198352 203.838845 
L 343.72017 203.838845 
L 343.72017 206.507437 
L 345.241989 206.507437 
L 345.241989 207.235235 
L 346.763807 207.235235 
L 346.763807 208.93343 
L 348.285625 208.93343 
L 348.285625 209.176029 
L 349.807443 209.176029 
L 349.807443 213.785415 
L 351.329261 213.785415 
L 351.329261 214.513213 
L 352.85108 214.513213 
L 352.85108 215.726209 
L 354.372898 215.726209 
L 354.372898 216.696606 
L 355.894716 216.696606 
L 355.894716 217.181805 
L 357.416534 217.181805 
L 357.416534 218.394801 
L 358.938352 218.394801 
L 358.938352 217.909603 
L 360.46017 217.909603 
L 360.46017 218.88 
L 366.547443 218.88 
L 366.547443 218.88 
" clip-path="url(#p9f23c5b95a)" style="fill: none; stroke: #1f77b4; stroke-width: 1.5; stroke-linecap: square"/>
   </g>
   <g id="line2d_17">
    <path d="M 62.183807 218.88 
L 69.792898 218.88 
L 69.792898 216.696606 
L 71.314716 216.696606 
L 71.314716 210.389025 
L 72.836534 210.389025 
L 72.836534 200.442455 
L 74.358352 200.442455 
L 74.358352 194.377473 
L 75.88017 194.377473 
L 75.88017 189.282888 
L 77.401989 189.282888 
L 77.401989 173.999134 
L 78.923807 173.999134 
L 78.923807 171.330542 
L 80.445625 171.330542 
L 80.445625 162.354368 
L 81.967443 162.354368 
L 81.967443 162.596968 
L 83.489261 162.596968 
L 83.489261 156.046787 
L 85.01108 156.046787 
L 85.01108 149.496606 
L 86.532898 149.496606 
L 86.532898 130.573863 
L 88.054716 130.573863 
L 88.054716 126.692274 
L 89.576534 126.692274 
L 89.576534 119.899495 
L 91.098352 119.899495 
L 91.098352 117.716101 
L 92.62017 117.716101 
L 92.62017 98.308159 
L 94.141989 98.308159 
L 94.141989 94.66917 
L 95.663807 94.66917 
L 95.663807 94.911769 
L 97.185625 94.911769 
L 97.185625 91.27278 
L 98.707443 91.27278 
L 98.707443 82.296606 
L 100.229261 82.296606 
L 100.229261 75.989025 
L 101.75108 75.989025 
L 101.75108 67.012852 
L 103.272898 67.012852 
L 103.272898 71.864838 
L 104.794716 71.864838 
L 104.794716 66.285054 
L 106.316534 66.285054 
L 106.316534 59.492274 
L 107.838352 59.492274 
L 107.838352 64.101661 
L 109.36017 64.101661 
L 109.36017 43.965921 
L 110.881989 43.965921 
L 110.881989 41.297329 
L 112.403807 41.297329 
L 112.403807 31.835957 
L 113.925625 31.835957 
L 113.925625 37.41574 
L 115.447443 37.41574 
L 115.447443 34.504549 
L 116.969261 34.504549 
L 116.969261 33.291552 
L 118.49108 33.291552 
L 118.49108 22.617184 
L 120.012898 22.617184 
L 120.012898 33.534152 
L 121.534716 33.534152 
L 121.534716 30.62296 
L 123.056534 30.62296 
L 123.056534 41.782527 
L 124.578352 41.782527 
L 124.578352 29.652563 
L 126.10017 29.652563 
L 126.10017 31.835957 
L 127.621989 31.835957 
L 127.621989 29.167365 
L 129.143807 29.167365 
L 129.143807 48.817906 
L 130.665625 48.817906 
L 130.665625 53.427292 
L 132.187443 53.427292 
L 132.187443 35.474946 
L 133.709261 35.474946 
L 133.709261 47.60491 
L 135.23108 47.60491 
L 135.23108 52.456895 
L 136.752898 52.456895 
L 136.752898 59.492274 
L 138.274716 59.492274 
L 138.274716 51.729097 
L 139.796534 51.729097 
L 139.796534 46.877112 
L 141.318352 46.877112 
L 141.318352 48.575307 
L 142.84017 48.575307 
L 142.84017 64.101661 
L 144.361989 64.101661 
L 144.361989 73.320433 
L 145.883807 73.320433 
L 145.883807 66.042455 
L 147.405625 66.042455 
L 147.405625 76.959422 
L 148.927443 76.959422 
L 148.927443 79.142816 
L 150.449261 79.142816 
L 150.449261 76.474224 
L 151.97108 76.474224 
L 151.97108 70.651841 
L 153.492898 70.651841 
L 153.492898 64.101661 
L 155.014716 64.101661 
L 155.014716 73.320433 
L 156.536534 73.320433 
L 156.536534 75.989025 
L 158.058352 75.989025 
L 158.058352 76.959422 
L 159.58017 76.959422 
L 159.58017 73.563032 
L 161.101989 73.563032 
L 161.101989 75.261227 
L 162.623807 75.261227 
L 162.623807 79.628014 
L 164.145625 79.628014 
L 164.145625 81.326209 
L 165.667443 81.326209 
L 165.667443 81.811408 
L 167.189261 81.811408 
L 167.189261 73.805632 
L 168.71108 73.805632 
L 168.71108 78.415018 
L 170.232898 78.415018 
L 170.232898 89.817184 
L 171.754716 89.817184 
L 171.754716 85.692996 
L 173.276534 85.692996 
L 173.276534 83.752202 
L 174.798352 83.752202 
L 174.798352 92.728375 
L 176.32017 92.728375 
L 176.32017 78.415018 
L 177.841989 78.415018 
L 177.841989 83.752202 
L 179.363807 83.752202 
L 179.363807 98.06556 
L 180.885625 98.06556 
L 180.885625 89.089386 
L 182.407443 89.089386 
L 182.407443 106.313935 
L 183.929261 106.313935 
L 183.929261 114.319711 
L 185.45108 114.319711 
L 185.45108 110.195523 
L 186.972898 110.195523 
L 186.972898 117.473502 
L 188.494716 117.473502 
L 188.494716 123.781083 
L 190.016534 123.781083 
L 190.016534 137.124043 
L 191.538352 137.124043 
L 191.538352 146.585415 
L 193.06017 146.585415 
L 193.06017 152.892996 
L 194.581989 152.892996 
L 194.581989 162.354368 
L 196.103807 162.354368 
L 196.103807 168.176751 
L 197.625625 168.176751 
L 197.625625 171.81574 
L 199.147443 171.81574 
L 199.147443 180.064116 
L 200.669261 180.064116 
L 200.669261 190.495884 
L 202.19108 190.495884 
L 202.19108 188.79769 
L 203.712898 188.79769 
L 203.712898 198.986859 
L 205.234716 198.986859 
L 205.234716 202.868448 
L 206.756534 202.868448 
L 206.756534 207.477834 
L 208.278352 207.477834 
L 208.278352 209.661227 
L 209.80017 209.661227 
L 209.80017 214.755812 
L 211.321989 214.755812 
L 211.321989 217.909603 
L 212.843807 217.909603 
L 212.843807 214.270614 
L 214.365625 214.270614 
L 214.365625 209.661227 
L 215.887443 209.661227 
L 215.887443 198.986859 
L 217.409261 198.986859 
L 217.409261 196.803466 
L 218.93108 196.803466 
L 218.93108 186.856895 
L 220.452898 186.856895 
L 220.452898 185.1587 
L 221.974716 185.1587 
L 221.974716 173.999134 
L 223.496534 173.999134 
L 223.496534 168.176751 
L 225.018352 168.176751 
L 225.018352 167.691552 
L 226.54017 167.691552 
L 226.54017 165.26556 
L 228.061989 165.26556 
L 228.061989 156.774585 
L 229.583807 156.774585 
L 229.583807 159.200578 
L 231.105625 159.200578 
L 231.105625 149.496606 
L 232.627443 149.496606 
L 232.627443 143.431625 
L 234.149261 143.431625 
L 234.149261 142.218628 
L 235.67108 142.218628 
L 235.67108 132.272058 
L 237.192898 132.272058 
L 237.192898 133.242455 
L 238.714716 133.242455 
L 238.714716 131.059061 
L 240.236534 131.059061 
L 240.236534 128.633069 
L 241.758352 128.633069 
L 241.758352 128.875668 
L 243.28017 128.875668 
L 243.28017 122.810686 
L 244.801989 122.810686 
L 244.801989 120.869892 
L 246.323807 120.869892 
L 246.323807 123.781083 
L 247.845625 123.781083 
L 247.845625 106.313935 
L 249.367443 106.313935 
L 249.367443 116.503105 
L 250.889261 116.503105 
L 250.889261 105.828736 
L 252.41108 105.828736 
L 252.41108 97.580361 
L 253.932898 97.580361 
L 253.932898 98.793357 
L 256.976534 98.793357 
L 256.976534 90.787581 
L 258.498352 90.787581 
L 258.498352 100.248953 
L 260.02017 100.248953 
L 260.02017 95.882166 
L 261.541989 95.882166 
L 261.541989 90.059783 
L 263.063807 90.059783 
L 263.063807 89.331986 
L 264.585625 89.331986 
L 264.585625 101.21935 
L 266.107443 101.21935 
L 266.107443 103.402744 
L 267.629261 103.402744 
L 267.629261 109.710325 
L 269.15108 109.710325 
L 269.15108 106.313935 
L 270.672898 106.313935 
L 270.672898 108.01213 
L 272.194716 108.01213 
L 272.194716 110.680722 
L 273.716534 110.680722 
L 273.716534 110.195523 
L 275.238352 110.195523 
L 275.238352 114.56231 
L 276.76017 114.56231 
L 276.76017 113.349314 
L 278.281989 113.349314 
L 278.281989 101.704549 
L 279.803807 101.704549 
L 279.803807 114.077112 
L 281.325625 114.077112 
L 281.325625 108.497329 
L 282.847443 108.497329 
L 282.847443 120.142094 
L 284.369261 120.142094 
L 284.369261 118.443899 
L 285.89108 118.443899 
L 285.89108 117.9587 
L 287.412898 117.9587 
L 287.412898 123.781083 
L 288.934716 123.781083 
L 288.934716 121.840289 
L 290.456534 121.840289 
L 290.456534 126.692274 
L 291.978352 126.692274 
L 291.978352 123.781083 
L 293.50017 123.781083 
L 293.50017 134.698051 
L 295.021989 134.698051 
L 295.021989 130.088664 
L 296.543807 130.088664 
L 296.543807 126.934874 
L 298.065625 126.934874 
L 298.065625 133.242455 
L 299.587443 133.242455 
L 299.587443 140.763032 
L 301.109261 140.763032 
L 301.109261 139.307437 
L 302.63108 139.307437 
L 302.63108 142.218628 
L 304.152898 142.218628 
L 304.152898 140.763032 
L 305.674716 140.763032 
L 305.674716 144.644621 
L 307.196534 144.644621 
L 307.196534 144.88722 
L 308.718352 144.88722 
L 308.718352 149.981805 
L 310.24017 149.981805 
L 310.24017 149.011408 
L 311.761989 149.011408 
L 311.761989 151.68 
L 313.283807 151.68 
L 313.283807 159.443177 
L 316.327443 159.443177 
L 316.327443 154.348592 
L 317.849261 154.348592 
L 317.849261 163.324765 
L 319.37108 163.324765 
L 319.37108 157.744982 
L 320.892898 157.744982 
L 320.892898 162.111769 
L 322.414716 162.111769 
L 322.414716 166.963755 
L 323.936534 166.963755 
L 323.936534 172.543538 
L 325.458352 172.543538 
L 325.458352 173.513935 
L 326.98017 173.513935 
L 326.98017 173.756534 
L 328.501989 173.756534 
L 328.501989 178.60852 
L 330.023807 178.60852 
L 330.023807 181.034513 
L 331.545625 181.034513 
L 331.545625 184.188303 
L 333.067443 184.188303 
L 333.067443 188.069892 
L 334.589261 188.069892 
L 334.589261 189.040289 
L 336.11108 189.040289 
L 336.11108 195.34787 
L 337.632898 195.34787 
L 337.632898 197.046065 
L 339.154716 197.046065 
L 339.154716 199.472058 
L 340.676534 199.472058 
L 340.676534 204.566643 
L 343.72017 204.566643 
L 343.72017 206.264838 
L 345.241989 206.264838 
L 345.241989 208.448231 
L 346.763807 208.448231 
L 346.763807 207.720433 
L 348.285625 207.720433 
L 348.285625 212.572419 
L 349.807443 212.572419 
L 349.807443 214.028014 
L 351.329261 214.028014 
L 351.329261 214.270614 
L 352.85108 214.270614 
L 352.85108 217.424404 
L 354.372898 217.424404 
L 354.372898 216.454007 
L 355.894716 216.454007 
L 355.894716 217.909603 
L 357.416534 217.909603 
L 357.416534 218.152202 
L 358.938352 218.152202 
L 358.938352 218.637401 
L 360.46017 218.637401 
L 360.46017 218.88 
L 366.547443 218.88 
L 366.547443 218.88 
" clip-path="url(#p9f23c5b95a)" style="fill: none; stroke: #ff7f0e; stroke-width: 1.5; stroke-linecap: square"/>
   </g>
  </g>
 </g>
 <defs>
  <clipPath id="p9f23c5b95a">
   <rect x="46.965625" y="7.2" width="334.8" height="221.76"/>
  </clipPath>
 </defs>
</svg>
