<?xml version="1.0" encoding="UTF-8" standalone="no"?>
<!DOCTYPE svg PUBLIC "-//W3C//DTD SVG 1.1//EN"
 "http://www.w3.org/Graphics/SVG/1.1/DTD/svg11.dtd">
<!-- Generated by graphviz version 11.0.0 (20240519.1550)
 -->
<!-- Pages: 1 -->
<svg width="1222pt" height="764pt"
 viewBox="0.00 0.00 1222.43 764.00" xmlns="http://www.w3.org/2000/svg" xmlns:xlink="http://www.w3.org/1999/xlink">
<g id="graph0" class="graph" transform="scale(1 1) rotate(0) translate(4 760)">
<polygon fill="white" stroke="none" points="-4,4 -4,-760 1218.43,-760 1218.43,4 -4,4"/>
<!-- Choppers -->
<g id="node1" class="node">
<title>Choppers</title>
<polygon fill="none" stroke="red" stroke-dasharray="5,2" points="974.56,-612 890.31,-612 890.31,-576 974.56,-576 974.56,-612"/>
<text text-anchor="middle" x="932.43" y="-589.33" font-family="Times,serif" font-size="14.00" fill="red">Choppers</text>
</g>
<!-- scippneutron.tof.unwrap.frame_at_detector_FrameAtDetector -->
<g id="node7" class="node">
<title>scippneutron.tof.unwrap.frame_at_detector_FrameAtDetector</title>
<ellipse fill="none" stroke="black" cx="843.43" cy="-522" rx="102.24" ry="18"/>
<text text-anchor="middle" x="843.43" y="-517.33" font-family="Times,serif" font-size="14.00">frame_at_detector</text>
</g>
<!-- Choppers&#45;&gt;scippneutron.tof.unwrap.frame_at_detector_FrameAtDetector -->
<g id="edge7" class="edge">
<title>Choppers&#45;&gt;scippneutron.tof.unwrap.frame_at_detector_FrameAtDetector</title>
<path fill="none" stroke="black" d="M910.43,-575.7C899.36,-566.99 885.76,-556.29 873.71,-546.82"/>
<polygon fill="black" stroke="black" points="876.09,-544.23 866.06,-540.8 871.76,-549.73 876.09,-544.23"/>
</g>
<!-- scippneutron.tof.unwrap.offset_from_wrapped_DeltaFromWrapped -->
<g id="node2" class="node">
<title>scippneutron.tof.unwrap.offset_from_wrapped_DeltaFromWrapped</title>
<ellipse fill="none" stroke="black" cx="690.43" cy="-234" rx="115.92" ry="18"/>
<text text-anchor="middle" x="690.43" y="-229.32" font-family="Times,serif" font-size="14.00">offset_from_wrapped</text>
</g>
<!-- DeltaFromWrapped -->
<g id="node6" class="node">
<title>DeltaFromWrapped</title>
<polygon fill="none" stroke="black" points="1054.56,-180 898.31,-180 898.31,-144 1054.56,-144 1054.56,-180"/>
<text text-anchor="middle" x="976.43" y="-157.32" font-family="Times,serif" font-size="14.00">DeltaFromWrapped</text>
</g>
<!-- scippneutron.tof.unwrap.offset_from_wrapped_DeltaFromWrapped&#45;&gt;DeltaFromWrapped -->
<g id="edge4" class="edge">
<title>scippneutron.tof.unwrap.offset_from_wrapped_DeltaFromWrapped&#45;&gt;DeltaFromWrapped</title>
<path fill="none" stroke="black" d="M750.74,-218.24C792.37,-208.05 848.26,-194.37 894,-183.18"/>
<polygon fill="black" stroke="black" points="894.74,-186.6 903.63,-180.82 893.08,-179.8 894.74,-186.6"/>
</g>
<!-- FrameWrappedTimeOffset -->
<g id="node3" class="node">
<title>FrameWrappedTimeOffset</title>
<polygon fill="none" stroke="black" points="540.56,-324 336.31,-324 336.31,-288 540.56,-288 540.56,-324"/>
<text text-anchor="middle" x="438.43" y="-301.32" font-family="Times,serif" font-size="14.00">FrameWrappedTimeOffset</text>
</g>
<!-- FrameWrappedTimeOffset&#45;&gt;scippneutron.tof.unwrap.offset_from_wrapped_DeltaFromWrapped -->
<g id="edge1" class="edge">
<title>FrameWrappedTimeOffset&#45;&gt;scippneutron.tof.unwrap.offset_from_wrapped_DeltaFromWrapped</title>
<path fill="none" stroke="black" d="M501.37,-287.52C538.92,-277.09 586.54,-263.86 624.59,-253.29"/>
<polygon fill="black" stroke="black" points="625.41,-256.7 634.1,-250.65 623.53,-249.95 625.41,-256.7"/>
</g>
<!-- FrameBounds -->
<g id="node4" class="node">
<title>FrameBounds</title>
<polygon fill="none" stroke="black" points="825.31,-324 709.56,-324 709.56,-288 825.31,-288 825.31,-324"/>
<text text-anchor="middle" x="767.43" y="-301.32" font-family="Times,serif" font-size="14.00">FrameBounds</text>
</g>
<!-- FrameBounds&#45;&gt;scippneutron.tof.unwrap.offset_from_wrapped_DeltaFromWrapped -->
<g id="edge2" class="edge">
<title>FrameBounds&#45;&gt;scippneutron.tof.unwrap.offset_from_wrapped_DeltaFromWrapped</title>
<path fill="none" stroke="black" d="M748.4,-287.7C739.08,-279.22 727.68,-268.86 717.47,-259.58"/>
<polygon fill="black" stroke="black" points="720.12,-257.26 710.37,-253.12 715.41,-262.44 720.12,-257.26"/>
</g>
<!-- FramePeriod -->
<g id="node5" class="node">
<title>FramePeriod</title>
<polygon fill="none" stroke="black" points="694.56,-396 586.31,-396 586.31,-360 694.56,-360 694.56,-396"/>
<text text-anchor="middle" x="640.43" y="-373.32" font-family="Times,serif" font-size="14.00">FramePeriod</text>
</g>
<!-- FramePeriod&#45;&gt;scippneutron.tof.unwrap.offset_from_wrapped_DeltaFromWrapped -->
<g id="edge3" class="edge">
<title>FramePeriod&#45;&gt;scippneutron.tof.unwrap.offset_from_wrapped_DeltaFromWrapped</title>
<path fill="none" stroke="black" d="M646.56,-359.59C655.08,-335.4 670.59,-291.36 680.7,-262.65"/>
<polygon fill="black" stroke="black" points="683.89,-264.13 683.91,-253.54 677.28,-261.81 683.89,-264.13"/>
</g>
<!-- scippneutron.tof.unwrap.unwrap_data_UnwrappedData -->
<g id="node24" class="node">
<title>scippneutron.tof.unwrap.unwrap_data_UnwrappedData</title>
<ellipse fill="none" stroke="black" cx="1029.43" cy="-90" rx="75.94" ry="18"/>
<text text-anchor="middle" x="1029.43" y="-85.33" font-family="Times,serif" font-size="14.00">unwrap_data</text>
</g>
<!-- DeltaFromWrapped&#45;&gt;scippneutron.tof.unwrap.unwrap_data_UnwrappedData -->
<g id="edge27" class="edge">
<title>DeltaFromWrapped&#45;&gt;scippneutron.tof.unwrap.unwrap_data_UnwrappedData</title>
<path fill="none" stroke="black" d="M989.54,-143.7C995.57,-135.73 1002.86,-126.1 1009.55,-117.26"/>
<polygon fill="black" stroke="black" points="1012.32,-119.4 1015.57,-109.31 1006.74,-115.17 1012.32,-119.4"/>
</g>
<!-- FrameAtDetector -->
<g id="node11" class="node">
<title>FrameAtDetector</title>
<polygon fill="none" stroke="black" points="885.68,-468 745.18,-468 745.18,-432 885.68,-432 885.68,-468"/>
<text text-anchor="middle" x="815.43" y="-445.32" font-family="Times,serif" font-size="14.00">FrameAtDetector</text>
</g>
<!-- scippneutron.tof.unwrap.frame_at_detector_FrameAtDetector&#45;&gt;FrameAtDetector -->
<g id="edge9" class="edge">
<title>scippneutron.tof.unwrap.frame_at_detector_FrameAtDetector&#45;&gt;FrameAtDetector</title>
<path fill="none" stroke="black" d="M836.51,-503.7C833.49,-496.15 829.88,-487.12 826.51,-478.68"/>
<polygon fill="black" stroke="black" points="829.8,-477.49 822.84,-469.51 823.3,-480.09 829.8,-477.49"/>
</g>
<!-- SourceWavelengthRange -->
<g id="node8" class="node">
<title>SourceWavelengthRange</title>
<polygon fill="none" stroke="red" stroke-dasharray="5,2" points="1186.68,-612 992.18,-612 992.18,-576 1186.68,-576 1186.68,-612"/>
<text text-anchor="middle" x="1089.43" y="-589.33" font-family="Times,serif" font-size="14.00" fill="red">SourceWavelengthRange</text>
</g>
<!-- SourceWavelengthRange&#45;&gt;scippneutron.tof.unwrap.frame_at_detector_FrameAtDetector -->
<g id="edge5" class="edge">
<title>SourceWavelengthRange&#45;&gt;scippneutron.tof.unwrap.frame_at_detector_FrameAtDetector</title>
<path fill="none" stroke="black" d="M1027.99,-575.52C990.95,-564.98 943.87,-551.58 906.53,-540.95"/>
<polygon fill="black" stroke="black" points="907.81,-537.68 897.23,-538.31 905.89,-544.41 907.81,-537.68"/>
</g>
<!-- SourceTimeRange -->
<g id="node9" class="node">
<title>SourceTimeRange</title>
<polygon fill="none" stroke="red" stroke-dasharray="5,2" points="796.31,-612 650.56,-612 650.56,-576 796.31,-576 796.31,-612"/>
<text text-anchor="middle" x="723.43" y="-589.33" font-family="Times,serif" font-size="14.00" fill="red">SourceTimeRange</text>
</g>
<!-- SourceTimeRange&#45;&gt;scippneutron.tof.unwrap.frame_at_detector_FrameAtDetector -->
<g id="edge6" class="edge">
<title>SourceTimeRange&#45;&gt;scippneutron.tof.unwrap.frame_at_detector_FrameAtDetector</title>
<path fill="none" stroke="black" d="M753.41,-575.52C769.19,-566.31 788.71,-554.92 805.53,-545.11"/>
<polygon fill="black" stroke="black" points="806.9,-548.36 813.77,-540.3 803.37,-542.32 806.9,-548.36"/>
</g>
<!-- Ltotal -->
<g id="node10" class="node">
<title>Ltotal</title>
<polygon fill="none" stroke="red" stroke-dasharray="5,2" points="872.43,-612 814.43,-612 814.43,-576 872.43,-576 872.43,-612"/>
<text text-anchor="middle" x="843.43" y="-589.33" font-family="Times,serif" font-size="14.00" fill="red">Ltotal</text>
</g>
<!-- Ltotal&#45;&gt;scippneutron.tof.unwrap.frame_at_detector_FrameAtDetector -->
<g id="edge8" class="edge">
<title>Ltotal&#45;&gt;scippneutron.tof.unwrap.frame_at_detector_FrameAtDetector</title>
<path fill="none" stroke="black" d="M843.43,-575.7C843.43,-568.41 843.43,-559.73 843.43,-551.54"/>
<polygon fill="black" stroke="black" points="846.93,-551.62 843.43,-541.62 839.93,-551.62 846.93,-551.62"/>
</g>
<!-- scippneutron.tof.unwrap.frame_bounds_FrameBounds -->
<g id="node12" class="node">
<title>scippneutron.tof.unwrap.frame_bounds_FrameBounds</title>
<ellipse fill="none" stroke="black" cx="808.43" cy="-378" rx="81.72" ry="18"/>
<text text-anchor="middle" x="808.43" y="-373.32" font-family="Times,serif" font-size="14.00">frame_bounds</text>
</g>
<!-- FrameAtDetector&#45;&gt;scippneutron.tof.unwrap.frame_bounds_FrameBounds -->
<g id="edge10" class="edge">
<title>FrameAtDetector&#45;&gt;scippneutron.tof.unwrap.frame_bounds_FrameBounds</title>
<path fill="none" stroke="black" d="M813.7,-431.7C812.97,-424.41 812.11,-415.73 811.29,-407.54"/>
<polygon fill="black" stroke="black" points="814.77,-407.21 810.29,-397.61 807.81,-407.91 814.77,-407.21"/>
</g>
<!-- scippneutron.tof.unwrap.frame_bounds_FrameBounds&#45;&gt;FrameBounds -->
<g id="edge11" class="edge">
<title>scippneutron.tof.unwrap.frame_bounds_FrameBounds&#45;&gt;FrameBounds</title>
<path fill="none" stroke="black" d="M798.3,-359.7C793.73,-351.9 788.23,-342.51 783.15,-333.83"/>
<polygon fill="black" stroke="black" points="786.29,-332.27 778.22,-325.41 780.25,-335.81 786.29,-332.27"/>
</g>
<!-- scippneutron.tof.unwrap.frame_period_FramePeriod -->
<g id="node13" class="node">
<title>scippneutron.tof.unwrap.frame_period_FramePeriod</title>
<ellipse fill="none" stroke="black" cx="515.43" cy="-522" rx="77.51" ry="18"/>
<text text-anchor="middle" x="515.43" y="-517.33" font-family="Times,serif" font-size="14.00">frame_period</text>
</g>
<!-- scippneutron.tof.unwrap.frame_period_FramePeriod&#45;&gt;FramePeriod -->
<g id="edge14" class="edge">
<title>scippneutron.tof.unwrap.frame_period_FramePeriod&#45;&gt;FramePeriod</title>
<path fill="none" stroke="black" d="M530.51,-503.87C552.29,-479.14 592.69,-433.24 617.98,-404.51"/>
<polygon fill="black" stroke="black" points="620.32,-407.14 624.3,-397.33 615.07,-402.52 620.32,-407.14"/>
</g>
<!-- PulsePeriod -->
<g id="node14" class="node">
<title>PulsePeriod</title>
<polygon fill="none" stroke="red" stroke-dasharray="5,2" points="380.81,-612 280.06,-612 280.06,-576 380.81,-576 380.81,-612"/>
<text text-anchor="middle" x="330.43" y="-589.33" font-family="Times,serif" font-size="14.00" fill="red">PulsePeriod</text>
</g>
<!-- PulsePeriod&#45;&gt;scippneutron.tof.unwrap.frame_period_FramePeriod -->
<g id="edge12" class="edge">
<title>PulsePeriod&#45;&gt;scippneutron.tof.unwrap.frame_period_FramePeriod</title>
<path fill="none" stroke="black" d="M376.64,-575.52C403.66,-565.29 437.78,-552.38 465.43,-541.92"/>
<polygon fill="black" stroke="black" points="466.54,-545.24 474.66,-538.43 464.06,-538.7 466.54,-545.24"/>
</g>
<!-- scippneutron.tof.unwrap.pulse_offset_PulseOffset -->
<g id="node19" class="node">
<title>scippneutron.tof.unwrap.pulse_offset_PulseOffset</title>
<ellipse fill="none" stroke="black" cx="333.43" cy="-522" rx="70.67" ry="18"/>
<text text-anchor="middle" x="333.43" y="-517.33" font-family="Times,serif" font-size="14.00">pulse_offset</text>
</g>
<!-- PulsePeriod&#45;&gt;scippneutron.tof.unwrap.pulse_offset_PulseOffset -->
<g id="edge18" class="edge">
<title>PulsePeriod&#45;&gt;scippneutron.tof.unwrap.pulse_offset_PulseOffset</title>
<path fill="none" stroke="black" d="M331.18,-575.7C331.49,-568.41 331.86,-559.73 332.21,-551.54"/>
<polygon fill="black" stroke="black" points="335.7,-551.76 332.64,-541.62 328.71,-551.46 335.7,-551.76"/>
</g>
<!-- Union[PulseStride, NoneType] -->
<g id="node15" class="node">
<title>Union[PulseStride, NoneType]</title>
<polygon fill="none" stroke="red" stroke-dasharray="5,2" points="632.18,-612 398.68,-612 398.68,-576 632.18,-576 632.18,-612"/>
<text text-anchor="middle" x="515.43" y="-589.33" font-family="Times,serif" font-size="14.00" fill="red">Union[PulseStride, NoneType]</text>
</g>
<!-- Union[PulseStride, NoneType]&#45;&gt;scippneutron.tof.unwrap.frame_period_FramePeriod -->
<g id="edge13" class="edge">
<title>Union[PulseStride, NoneType]&#45;&gt;scippneutron.tof.unwrap.frame_period_FramePeriod</title>
<path fill="none" stroke="black" d="M515.43,-575.7C515.43,-568.41 515.43,-559.73 515.43,-551.54"/>
<polygon fill="black" stroke="black" points="518.93,-551.62 515.43,-541.62 511.93,-551.62 518.93,-551.62"/>
</g>
<!-- Union[PulseStride, NoneType]&#45;&gt;scippneutron.tof.unwrap.pulse_offset_PulseOffset -->
<g id="edge19" class="edge">
<title>Union[PulseStride, NoneType]&#45;&gt;scippneutron.tof.unwrap.pulse_offset_PulseOffset</title>
<path fill="none" stroke="black" d="M469.98,-575.52C443.11,-565.18 409.12,-552.11 381.77,-541.59"/>
<polygon fill="black" stroke="black" points="383.26,-538.42 372.67,-538.09 380.75,-544.95 383.26,-538.42"/>
</g>
<!-- scippneutron.tof.unwrap.frame_wrapped_time_offset_pulse_skipping_FrameWrappedTimeOffset -->
<g id="node16" class="node">
<title>scippneutron.tof.unwrap.frame_wrapped_time_offset_pulse_skipping_FrameWrappedTimeOffset</title>
<ellipse fill="none" stroke="black" cx="333.43" cy="-378" rx="227.98" ry="18"/>
<text text-anchor="middle" x="333.43" y="-373.32" font-family="Times,serif" font-size="14.00">frame_wrapped_time_offset_pulse_skipping</text>
</g>
<!-- scippneutron.tof.unwrap.frame_wrapped_time_offset_pulse_skipping_FrameWrappedTimeOffset&#45;&gt;FrameWrappedTimeOffset -->
<g id="edge17" class="edge">
<title>scippneutron.tof.unwrap.frame_wrapped_time_offset_pulse_skipping_FrameWrappedTimeOffset&#45;&gt;FrameWrappedTimeOffset</title>
<path fill="none" stroke="black" d="M359.39,-359.7C372.51,-350.95 388.64,-340.19 402.9,-330.69"/>
<polygon fill="black" stroke="black" points="404.78,-333.65 411.15,-325.19 400.89,-327.82 404.78,-333.65"/>
</g>
<!-- PulseWrappedTimeOffset -->
<g id="node17" class="node">
<title>PulseWrappedTimeOffset</title>
<polygon fill="none" stroke="black" points="244.81,-540 48.06,-540 48.06,-504 244.81,-504 244.81,-540"/>
<text text-anchor="middle" x="146.43" y="-517.33" font-family="Times,serif" font-size="14.00">PulseWrappedTimeOffset</text>
</g>
<!-- PulseWrappedTimeOffset&#45;&gt;scippneutron.tof.unwrap.frame_wrapped_time_offset_pulse_skipping_FrameWrappedTimeOffset -->
<g id="edge15" class="edge">
<title>PulseWrappedTimeOffset&#45;&gt;scippneutron.tof.unwrap.frame_wrapped_time_offset_pulse_skipping_FrameWrappedTimeOffset</title>
<path fill="none" stroke="black" d="M169.36,-503.59C202.54,-478.4 264.06,-431.68 301.61,-403.17"/>
<polygon fill="black" stroke="black" points="303.56,-406.08 309.4,-397.25 299.32,-400.51 303.56,-406.08"/>
</g>
<!-- PulseOffset -->
<g id="node18" class="node">
<title>PulseOffset</title>
<polygon fill="none" stroke="black" points="382.31,-468 284.56,-468 284.56,-432 382.31,-432 382.31,-468"/>
<text text-anchor="middle" x="333.43" y="-445.32" font-family="Times,serif" font-size="14.00">PulseOffset</text>
</g>
<!-- PulseOffset&#45;&gt;scippneutron.tof.unwrap.frame_wrapped_time_offset_pulse_skipping_FrameWrappedTimeOffset -->
<g id="edge16" class="edge">
<title>PulseOffset&#45;&gt;scippneutron.tof.unwrap.frame_wrapped_time_offset_pulse_skipping_FrameWrappedTimeOffset</title>
<path fill="none" stroke="black" d="M333.43,-431.7C333.43,-424.41 333.43,-415.73 333.43,-407.54"/>
<polygon fill="black" stroke="black" points="336.93,-407.62 333.43,-397.62 329.93,-407.62 336.93,-407.62"/>
</g>
<!-- scippneutron.tof.unwrap.pulse_offset_PulseOffset&#45;&gt;PulseOffset -->
<g id="edge21" class="edge">
<title>scippneutron.tof.unwrap.pulse_offset_PulseOffset&#45;&gt;PulseOffset</title>
<path fill="none" stroke="black" d="M333.43,-503.7C333.43,-496.41 333.43,-487.73 333.43,-479.54"/>
<polygon fill="black" stroke="black" points="336.93,-479.62 333.43,-469.62 329.93,-479.62 336.93,-479.62"/>
</g>
<!-- TimeZero -->
<g id="node20" class="node">
<title>TimeZero</title>
<polygon fill="none" stroke="black" points="261.56,-612 177.31,-612 177.31,-576 261.56,-576 261.56,-612"/>
<text text-anchor="middle" x="219.43" y="-589.33" font-family="Times,serif" font-size="14.00">TimeZero</text>
</g>
<!-- TimeZero&#45;&gt;scippneutron.tof.unwrap.pulse_offset_PulseOffset -->
<g id="edge20" class="edge">
<title>TimeZero&#45;&gt;scippneutron.tof.unwrap.pulse_offset_PulseOffset</title>
<path fill="none" stroke="black" d="M247.91,-575.52C262.98,-566.26 281.64,-554.8 297.68,-544.95"/>
<polygon fill="black" stroke="black" points="299.29,-548.07 305.98,-539.86 295.63,-542.11 299.29,-548.07"/>
</g>
<!-- scippneutron.tof.unwrap.pulse_wrapped_time_offset_PulseWrappedTimeOffset -->
<g id="node21" class="node">
<title>scippneutron.tof.unwrap.pulse_wrapped_time_offset_PulseWrappedTimeOffset</title>
<ellipse fill="none" stroke="black" cx="146.43" cy="-666" rx="146.43" ry="18"/>
<text text-anchor="middle" x="146.43" y="-661.33" font-family="Times,serif" font-size="14.00">pulse_wrapped_time_offset</text>
</g>
<!-- scippneutron.tof.unwrap.pulse_wrapped_time_offset_PulseWrappedTimeOffset&#45;&gt;PulseWrappedTimeOffset -->
<g id="edge23" class="edge">
<title>scippneutron.tof.unwrap.pulse_wrapped_time_offset_PulseWrappedTimeOffset&#45;&gt;PulseWrappedTimeOffset</title>
<path fill="none" stroke="black" d="M146.43,-647.59C146.43,-623.61 146.43,-580.14 146.43,-551.42"/>
<polygon fill="black" stroke="black" points="149.93,-551.62 146.43,-541.62 142.93,-551.62 149.93,-551.62"/>
</g>
<!-- RawData -->
<g id="node22" class="node">
<title>RawData</title>
<polygon fill="none" stroke="red" stroke-dasharray="5,2" points="411.68,-756 331.18,-756 331.18,-720 411.68,-720 411.68,-756"/>
<text text-anchor="middle" x="371.43" y="-733.33" font-family="Times,serif" font-size="14.00" fill="red">RawData</text>
</g>
<!-- RawData&#45;&gt;scippneutron.tof.unwrap.pulse_wrapped_time_offset_PulseWrappedTimeOffset -->
<g id="edge22" class="edge">
<title>RawData&#45;&gt;scippneutron.tof.unwrap.pulse_wrapped_time_offset_PulseWrappedTimeOffset</title>
<path fill="none" stroke="black" d="M330.69,-724.32C296.89,-713.81 248.26,-698.68 209.44,-686.6"/>
<polygon fill="black" stroke="black" points="210.81,-683.36 200.22,-683.73 208.73,-690.05 210.81,-683.36"/>
</g>
<!-- scippneutron.tof.unwrap.time_zero_TimeZero -->
<g id="node23" class="node">
<title>scippneutron.tof.unwrap.time_zero_TimeZero</title>
<ellipse fill="none" stroke="black" cx="371.43" cy="-666" rx="60.15" ry="18"/>
<text text-anchor="middle" x="371.43" y="-661.33" font-family="Times,serif" font-size="14.00">time_zero</text>
</g>
<!-- RawData&#45;&gt;scippneutron.tof.unwrap.time_zero_TimeZero -->
<g id="edge24" class="edge">
<title>RawData&#45;&gt;scippneutron.tof.unwrap.time_zero_TimeZero</title>
<path fill="none" stroke="black" d="M371.43,-719.7C371.43,-712.41 371.43,-703.73 371.43,-695.54"/>
<polygon fill="black" stroke="black" points="374.93,-695.62 371.43,-685.62 367.93,-695.62 374.93,-695.62"/>
</g>
<!-- RawData&#45;&gt;scippneutron.tof.unwrap.unwrap_data_UnwrappedData -->
<g id="edge26" class="edge">
<title>RawData&#45;&gt;scippneutron.tof.unwrap.unwrap_data_UnwrappedData</title>
<path fill="none" stroke="black" d="M412.09,-734.51C580.49,-723.67 1214.43,-677.37 1214.43,-595 1214.43,-595 1214.43,-595 1214.43,-233 1214.43,-167.9 1141.46,-128.56 1087.18,-108.3"/>
<polygon fill="black" stroke="black" points="1088.61,-105.1 1078.02,-105.02 1086.25,-111.69 1088.61,-105.1"/>
</g>
<!-- scippneutron.tof.unwrap.time_zero_TimeZero&#45;&gt;TimeZero -->
<g id="edge25" class="edge">
<title>scippneutron.tof.unwrap.time_zero_TimeZero&#45;&gt;TimeZero</title>
<path fill="none" stroke="black" d="M339.57,-650.33C318.64,-640.69 290.88,-627.9 267.31,-617.05"/>
<polygon fill="black" stroke="black" points="269.08,-614.01 258.54,-613.01 266.16,-620.37 269.08,-614.01"/>
</g>
<!-- UnwrappedData -->
<g id="node25" class="node">
<title>UnwrappedData</title>
<polygon fill="none" stroke="black" points="1095.93,-36 962.93,-36 962.93,0 1095.93,0 1095.93,-36"/>
<text text-anchor="middle" x="1029.43" y="-13.32" font-family="Times,serif" font-size="14.00">UnwrappedData</text>
</g>
<!-- scippneutron.tof.unwrap.unwrap_data_UnwrappedData&#45;&gt;UnwrappedData -->
<g id="edge28" class="edge">
<title>scippneutron.tof.unwrap.unwrap_data_UnwrappedData&#45;&gt;UnwrappedData</title>
<path fill="none" stroke="black" d="M1029.43,-71.7C1029.43,-64.41 1029.43,-55.73 1029.43,-47.54"/>
<polygon fill="black" stroke="black" points="1032.93,-47.62 1029.43,-37.62 1025.93,-47.62 1032.93,-47.62"/>
</g>
</g>
</svg>
