<?xml version="1.0" encoding="utf-8" standalone="no"?>
<!DOCTYPE svg PUBLIC "-//W3C//DTD SVG 1.1//EN"
  "http://www.w3.org/Graphics/SVG/1.1/DTD/svg11.dtd">
<svg xmlns:xlink="http://www.w3.org/1999/xlink" width="388.965625pt" height="266.51625pt" viewBox="0 0 388.965625 266.51625" xmlns="http://www.w3.org/2000/svg" version="1.1">
 <metadata>
  <rdf:RDF xmlns:dc="http://purl.org/dc/elements/1.1/" xmlns:cc="http://creativecommons.org/ns#" xmlns:rdf="http://www.w3.org/1999/02/22-rdf-syntax-ns#">
   <cc:Work>
    <dc:type rdf:resource="http://purl.org/dc/dcmitype/StillImage"/>
    <dc:date>2024-11-13T15:30:56.377965</dc:date>
    <dc:format>image/svg+xml</dc:format>
    <dc:creator>
     <cc:Agent>
      <dc:title>Matplotlib v3.9.2, https://matplotlib.org/</dc:title>
     </cc:Agent>
    </dc:creator>
   </cc:Work>
  </rdf:RDF>
 </metadata>
 <defs>
  <style type="text/css">*{stroke-linejoin: round; stroke-linecap: butt}</style>
 </defs>
 <g id="figure_1">
  <g id="patch_1">
   <path d="M 0 266.51625 
L 388.965625 266.51625 
L 388.965625 0 
L 0 0 
z
" style="fill: #ffffff"/>
  </g>
  <g id="axes_1">
   <g id="patch_2">
    <path d="M 46.965625 228.96 
L 381.765625 228.96 
L 381.765625 7.2 
L 46.965625 7.2 
z
" style="fill: #ffffff"/>
   </g>
   <g id="matplotlib.axis_1">
    <g id="xtick_1">
     <g id="line2d_1">
      <defs>
       <path id="m5fdff2faef" d="M 0 0 
L 0 3.5 
" style="stroke: #000000; stroke-width: 0.8"/>
      </defs>
      <g>
       <use xlink:href="#m5fdff2faef" x="78.103424" y="228.96" style="stroke: #000000; stroke-width: 0.8"/>
      </g>
     </g>
     <g id="text_1">
      <!-- 0.02 -->
      <g transform="translate(66.970612 243.558437) scale(0.1 -0.1)">
       <defs>
        <path id="DejaVuSans-30" d="M 2034 4250 
Q 1547 4250 1301 3770 
Q 1056 3291 1056 2328 
Q 1056 1369 1301 889 
Q 1547 409 2034 409 
Q 2525 409 2770 889 
Q 3016 1369 3016 2328 
Q 3016 3291 2770 3770 
Q 2525 4250 2034 4250 
z
M 2034 4750 
Q 2819 4750 3233 4129 
Q 3647 3509 3647 2328 
Q 3647 1150 3233 529 
Q 2819 -91 2034 -91 
Q 1250 -91 836 529 
Q 422 1150 422 2328 
Q 422 3509 836 4129 
Q 1250 4750 2034 4750 
z
" transform="scale(0.015625)"/>
        <path id="DejaVuSans-2e" d="M 684 794 
L 1344 794 
L 1344 0 
L 684 0 
L 684 794 
z
" transform="scale(0.015625)"/>
        <path id="DejaVuSans-32" d="M 1228 531 
L 3431 531 
L 3431 0 
L 469 0 
L 469 531 
Q 828 903 1448 1529 
Q 2069 2156 2228 2338 
Q 2531 2678 2651 2914 
Q 2772 3150 2772 3378 
Q 2772 3750 2511 3984 
Q 2250 4219 1831 4219 
Q 1534 4219 1204 4116 
Q 875 4013 500 3803 
L 500 4441 
Q 881 4594 1212 4672 
Q 1544 4750 1819 4750 
Q 2544 4750 2975 4387 
Q 3406 4025 3406 3419 
Q 3406 3131 3298 2873 
Q 3191 2616 2906 2266 
Q 2828 2175 2409 1742 
Q 1991 1309 1228 531 
z
" transform="scale(0.015625)"/>
       </defs>
       <use xlink:href="#DejaVuSans-30"/>
       <use xlink:href="#DejaVuSans-2e" x="63.623047"/>
       <use xlink:href="#DejaVuSans-30" x="95.410156"/>
       <use xlink:href="#DejaVuSans-32" x="159.033203"/>
      </g>
     </g>
    </g>
    <g id="xtick_2">
     <g id="line2d_2">
      <g>
       <use xlink:href="#m5fdff2faef" x="124.831075" y="228.96" style="stroke: #000000; stroke-width: 0.8"/>
      </g>
     </g>
     <g id="text_2">
      <!-- 0.03 -->
      <g transform="translate(113.698262 243.558437) scale(0.1 -0.1)">
       <defs>
        <path id="DejaVuSans-33" d="M 2597 2516 
Q 3050 2419 3304 2112 
Q 3559 1806 3559 1356 
Q 3559 666 3084 287 
Q 2609 -91 1734 -91 
Q 1441 -91 1130 -33 
Q 819 25 488 141 
L 488 750 
Q 750 597 1062 519 
Q 1375 441 1716 441 
Q 2309 441 2620 675 
Q 2931 909 2931 1356 
Q 2931 1769 2642 2001 
Q 2353 2234 1838 2234 
L 1294 2234 
L 1294 2753 
L 1863 2753 
Q 2328 2753 2575 2939 
Q 2822 3125 2822 3475 
Q 2822 3834 2567 4026 
Q 2313 4219 1838 4219 
Q 1578 4219 1281 4162 
Q 984 4106 628 3988 
L 628 4550 
Q 988 4650 1302 4700 
Q 1616 4750 1894 4750 
Q 2613 4750 3031 4423 
Q 3450 4097 3450 3541 
Q 3450 3153 3228 2886 
Q 3006 2619 2597 2516 
z
" transform="scale(0.015625)"/>
       </defs>
       <use xlink:href="#DejaVuSans-30"/>
       <use xlink:href="#DejaVuSans-2e" x="63.623047"/>
       <use xlink:href="#DejaVuSans-30" x="95.410156"/>
       <use xlink:href="#DejaVuSans-33" x="159.033203"/>
      </g>
     </g>
    </g>
    <g id="xtick_3">
     <g id="line2d_3">
      <g>
       <use xlink:href="#m5fdff2faef" x="171.558725" y="228.96" style="stroke: #000000; stroke-width: 0.8"/>
      </g>
     </g>
     <g id="text_3">
      <!-- 0.04 -->
      <g transform="translate(160.425913 243.558437) scale(0.1 -0.1)">
       <defs>
        <path id="DejaVuSans-34" d="M 2419 4116 
L 825 1625 
L 2419 1625 
L 2419 4116 
z
M 2253 4666 
L 3047 4666 
L 3047 1625 
L 3713 1625 
L 3713 1100 
L 3047 1100 
L 3047 0 
L 2419 0 
L 2419 1100 
L 313 1100 
L 313 1709 
L 2253 4666 
z
" transform="scale(0.015625)"/>
       </defs>
       <use xlink:href="#DejaVuSans-30"/>
       <use xlink:href="#DejaVuSans-2e" x="63.623047"/>
       <use xlink:href="#DejaVuSans-30" x="95.410156"/>
       <use xlink:href="#DejaVuSans-34" x="159.033203"/>
      </g>
     </g>
    </g>
    <g id="xtick_4">
     <g id="line2d_4">
      <g>
       <use xlink:href="#m5fdff2faef" x="218.286376" y="228.96" style="stroke: #000000; stroke-width: 0.8"/>
      </g>
     </g>
     <g id="text_4">
      <!-- 0.05 -->
      <g transform="translate(207.153563 243.558437) scale(0.1 -0.1)">
       <defs>
        <path id="DejaVuSans-35" d="M 691 4666 
L 3169 4666 
L 3169 4134 
L 1269 4134 
L 1269 2991 
Q 1406 3038 1543 3061 
Q 1681 3084 1819 3084 
Q 2600 3084 3056 2656 
Q 3513 2228 3513 1497 
Q 3513 744 3044 326 
Q 2575 -91 1722 -91 
Q 1428 -91 1123 -41 
Q 819 9 494 109 
L 494 744 
Q 775 591 1075 516 
Q 1375 441 1709 441 
Q 2250 441 2565 725 
Q 2881 1009 2881 1497 
Q 2881 1984 2565 2268 
Q 2250 2553 1709 2553 
Q 1456 2553 1204 2497 
Q 953 2441 691 2322 
L 691 4666 
z
" transform="scale(0.015625)"/>
       </defs>
       <use xlink:href="#DejaVuSans-30"/>
       <use xlink:href="#DejaVuSans-2e" x="63.623047"/>
       <use xlink:href="#DejaVuSans-30" x="95.410156"/>
       <use xlink:href="#DejaVuSans-35" x="159.033203"/>
      </g>
     </g>
    </g>
    <g id="xtick_5">
     <g id="line2d_5">
      <g>
       <use xlink:href="#m5fdff2faef" x="265.014026" y="228.96" style="stroke: #000000; stroke-width: 0.8"/>
      </g>
     </g>
     <g id="text_5">
      <!-- 0.06 -->
      <g transform="translate(253.881214 243.558437) scale(0.1 -0.1)">
       <defs>
        <path id="DejaVuSans-36" d="M 2113 2584 
Q 1688 2584 1439 2293 
Q 1191 2003 1191 1497 
Q 1191 994 1439 701 
Q 1688 409 2113 409 
Q 2538 409 2786 701 
Q 3034 994 3034 1497 
Q 3034 2003 2786 2293 
Q 2538 2584 2113 2584 
z
M 3366 4563 
L 3366 3988 
Q 3128 4100 2886 4159 
Q 2644 4219 2406 4219 
Q 1781 4219 1451 3797 
Q 1122 3375 1075 2522 
Q 1259 2794 1537 2939 
Q 1816 3084 2150 3084 
Q 2853 3084 3261 2657 
Q 3669 2231 3669 1497 
Q 3669 778 3244 343 
Q 2819 -91 2113 -91 
Q 1303 -91 875 529 
Q 447 1150 447 2328 
Q 447 3434 972 4092 
Q 1497 4750 2381 4750 
Q 2619 4750 2861 4703 
Q 3103 4656 3366 4563 
z
" transform="scale(0.015625)"/>
       </defs>
       <use xlink:href="#DejaVuSans-30"/>
       <use xlink:href="#DejaVuSans-2e" x="63.623047"/>
       <use xlink:href="#DejaVuSans-30" x="95.410156"/>
       <use xlink:href="#DejaVuSans-36" x="159.033203"/>
      </g>
     </g>
    </g>
    <g id="xtick_6">
     <g id="line2d_6">
      <g>
       <use xlink:href="#m5fdff2faef" x="311.741677" y="228.96" style="stroke: #000000; stroke-width: 0.8"/>
      </g>
     </g>
     <g id="text_6">
      <!-- 0.07 -->
      <g transform="translate(300.608864 243.558437) scale(0.1 -0.1)">
       <defs>
        <path id="DejaVuSans-37" d="M 525 4666 
L 3525 4666 
L 3525 4397 
L 1831 0 
L 1172 0 
L 2766 4134 
L 525 4134 
L 525 4666 
z
" transform="scale(0.015625)"/>
       </defs>
       <use xlink:href="#DejaVuSans-30"/>
       <use xlink:href="#DejaVuSans-2e" x="63.623047"/>
       <use xlink:href="#DejaVuSans-30" x="95.410156"/>
       <use xlink:href="#DejaVuSans-37" x="159.033203"/>
      </g>
     </g>
    </g>
    <g id="xtick_7">
     <g id="line2d_7">
      <g>
       <use xlink:href="#m5fdff2faef" x="358.469327" y="228.96" style="stroke: #000000; stroke-width: 0.8"/>
      </g>
     </g>
     <g id="text_7">
      <!-- 0.08 -->
      <g transform="translate(347.336515 243.558437) scale(0.1 -0.1)">
       <defs>
        <path id="DejaVuSans-38" d="M 2034 2216 
Q 1584 2216 1326 1975 
Q 1069 1734 1069 1313 
Q 1069 891 1326 650 
Q 1584 409 2034 409 
Q 2484 409 2743 651 
Q 3003 894 3003 1313 
Q 3003 1734 2745 1975 
Q 2488 2216 2034 2216 
z
M 1403 2484 
Q 997 2584 770 2862 
Q 544 3141 544 3541 
Q 544 4100 942 4425 
Q 1341 4750 2034 4750 
Q 2731 4750 3128 4425 
Q 3525 4100 3525 3541 
Q 3525 3141 3298 2862 
Q 3072 2584 2669 2484 
Q 3125 2378 3379 2068 
Q 3634 1759 3634 1313 
Q 3634 634 3220 271 
Q 2806 -91 2034 -91 
Q 1263 -91 848 271 
Q 434 634 434 1313 
Q 434 1759 690 2068 
Q 947 2378 1403 2484 
z
M 1172 3481 
Q 1172 3119 1398 2916 
Q 1625 2713 2034 2713 
Q 2441 2713 2670 2916 
Q 2900 3119 2900 3481 
Q 2900 3844 2670 4047 
Q 2441 4250 2034 4250 
Q 1625 4250 1398 4047 
Q 1172 3844 1172 3481 
z
" transform="scale(0.015625)"/>
       </defs>
       <use xlink:href="#DejaVuSans-30"/>
       <use xlink:href="#DejaVuSans-2e" x="63.623047"/>
       <use xlink:href="#DejaVuSans-30" x="95.410156"/>
       <use xlink:href="#DejaVuSans-38" x="159.033203"/>
      </g>
     </g>
    </g>
    <g id="text_8">
     <!-- tof [s] -->
     <g transform="translate(199.490625 257.236562) scale(0.1 -0.1)">
      <defs>
       <path id="DejaVuSans-74" d="M 1172 4494 
L 1172 3500 
L 2356 3500 
L 2356 3053 
L 1172 3053 
L 1172 1153 
Q 1172 725 1289 603 
Q 1406 481 1766 481 
L 2356 481 
L 2356 0 
L 1766 0 
Q 1100 0 847 248 
Q 594 497 594 1153 
L 594 3053 
L 172 3053 
L 172 3500 
L 594 3500 
L 594 4494 
L 1172 4494 
z
" transform="scale(0.015625)"/>
       <path id="DejaVuSans-6f" d="M 1959 3097 
Q 1497 3097 1228 2736 
Q 959 2375 959 1747 
Q 959 1119 1226 758 
Q 1494 397 1959 397 
Q 2419 397 2687 759 
Q 2956 1122 2956 1747 
Q 2956 2369 2687 2733 
Q 2419 3097 1959 3097 
z
M 1959 3584 
Q 2709 3584 3137 3096 
Q 3566 2609 3566 1747 
Q 3566 888 3137 398 
Q 2709 -91 1959 -91 
Q 1206 -91 779 398 
Q 353 888 353 1747 
Q 353 2609 779 3096 
Q 1206 3584 1959 3584 
z
" transform="scale(0.015625)"/>
       <path id="DejaVuSans-66" d="M 2375 4863 
L 2375 4384 
L 1825 4384 
Q 1516 4384 1395 4259 
Q 1275 4134 1275 3809 
L 1275 3500 
L 2222 3500 
L 2222 3053 
L 1275 3053 
L 1275 0 
L 697 0 
L 697 3053 
L 147 3053 
L 147 3500 
L 697 3500 
L 697 3744 
Q 697 4328 969 4595 
Q 1241 4863 1831 4863 
L 2375 4863 
z
" transform="scale(0.015625)"/>
       <path id="DejaVuSans-20" transform="scale(0.015625)"/>
       <path id="DejaVuSans-5b" d="M 550 4863 
L 1875 4863 
L 1875 4416 
L 1125 4416 
L 1125 -397 
L 1875 -397 
L 1875 -844 
L 550 -844 
L 550 4863 
z
" transform="scale(0.015625)"/>
       <path id="DejaVuSans-73" d="M 2834 3397 
L 2834 2853 
Q 2591 2978 2328 3040 
Q 2066 3103 1784 3103 
Q 1356 3103 1142 2972 
Q 928 2841 928 2578 
Q 928 2378 1081 2264 
Q 1234 2150 1697 2047 
L 1894 2003 
Q 2506 1872 2764 1633 
Q 3022 1394 3022 966 
Q 3022 478 2636 193 
Q 2250 -91 1575 -91 
Q 1294 -91 989 -36 
Q 684 19 347 128 
L 347 722 
Q 666 556 975 473 
Q 1284 391 1588 391 
Q 1994 391 2212 530 
Q 2431 669 2431 922 
Q 2431 1156 2273 1281 
Q 2116 1406 1581 1522 
L 1381 1569 
Q 847 1681 609 1914 
Q 372 2147 372 2553 
Q 372 3047 722 3315 
Q 1072 3584 1716 3584 
Q 2034 3584 2315 3537 
Q 2597 3491 2834 3397 
z
" transform="scale(0.015625)"/>
       <path id="DejaVuSans-5d" d="M 1947 4863 
L 1947 -844 
L 622 -844 
L 622 -397 
L 1369 -397 
L 1369 4416 
L 622 4416 
L 622 4863 
L 1947 4863 
z
" transform="scale(0.015625)"/>
      </defs>
      <use xlink:href="#DejaVuSans-74"/>
      <use xlink:href="#DejaVuSans-6f" x="39.208984"/>
      <use xlink:href="#DejaVuSans-66" x="100.390625"/>
      <use xlink:href="#DejaVuSans-20" x="135.595703"/>
      <use xlink:href="#DejaVuSans-5b" x="167.382812"/>
      <use xlink:href="#DejaVuSans-73" x="206.396484"/>
      <use xlink:href="#DejaVuSans-5d" x="258.496094"/>
     </g>
    </g>
   </g>
   <g id="matplotlib.axis_2">
    <g id="ytick_1">
     <g id="line2d_8">
      <defs>
       <path id="m513eee23ba" d="M 0 0 
L -3.5 0 
" style="stroke: #000000; stroke-width: 0.8"/>
      </defs>
      <g>
       <use xlink:href="#m513eee23ba" x="46.965625" y="219.26327" style="stroke: #000000; stroke-width: 0.8"/>
      </g>
     </g>
     <g id="text_9">
      <!-- 0 -->
      <g transform="translate(33.603125 223.062489) scale(0.1 -0.1)">
       <use xlink:href="#DejaVuSans-30"/>
      </g>
     </g>
    </g>
    <g id="ytick_2">
     <g id="line2d_9">
      <g>
       <use xlink:href="#m513eee23ba" x="46.965625" y="180.936274" style="stroke: #000000; stroke-width: 0.8"/>
      </g>
     </g>
     <g id="text_10">
      <!-- 100 -->
      <g transform="translate(20.878125 184.735493) scale(0.1 -0.1)">
       <defs>
        <path id="DejaVuSans-31" d="M 794 531 
L 1825 531 
L 1825 4091 
L 703 3866 
L 703 4441 
L 1819 4666 
L 2450 4666 
L 2450 531 
L 3481 531 
L 3481 0 
L 794 0 
L 794 531 
z
" transform="scale(0.015625)"/>
       </defs>
       <use xlink:href="#DejaVuSans-31"/>
       <use xlink:href="#DejaVuSans-30" x="63.623047"/>
       <use xlink:href="#DejaVuSans-30" x="127.246094"/>
      </g>
     </g>
    </g>
    <g id="ytick_3">
     <g id="line2d_10">
      <g>
       <use xlink:href="#m513eee23ba" x="46.965625" y="142.609278" style="stroke: #000000; stroke-width: 0.8"/>
      </g>
     </g>
     <g id="text_11">
      <!-- 200 -->
      <g transform="translate(20.878125 146.408496) scale(0.1 -0.1)">
       <use xlink:href="#DejaVuSans-32"/>
       <use xlink:href="#DejaVuSans-30" x="63.623047"/>
       <use xlink:href="#DejaVuSans-30" x="127.246094"/>
      </g>
     </g>
    </g>
    <g id="ytick_4">
     <g id="line2d_11">
      <g>
       <use xlink:href="#m513eee23ba" x="46.965625" y="104.282281" style="stroke: #000000; stroke-width: 0.8"/>
      </g>
     </g>
     <g id="text_12">
      <!-- 300 -->
      <g transform="translate(20.878125 108.0815) scale(0.1 -0.1)">
       <use xlink:href="#DejaVuSans-33"/>
       <use xlink:href="#DejaVuSans-30" x="63.623047"/>
       <use xlink:href="#DejaVuSans-30" x="127.246094"/>
      </g>
     </g>
    </g>
    <g id="ytick_5">
     <g id="line2d_12">
      <g>
       <use xlink:href="#m513eee23ba" x="46.965625" y="65.955285" style="stroke: #000000; stroke-width: 0.8"/>
      </g>
     </g>
     <g id="text_13">
      <!-- 400 -->
      <g transform="translate(20.878125 69.754504) scale(0.1 -0.1)">
       <use xlink:href="#DejaVuSans-34"/>
       <use xlink:href="#DejaVuSans-30" x="63.623047"/>
       <use xlink:href="#DejaVuSans-30" x="127.246094"/>
      </g>
     </g>
    </g>
    <g id="ytick_6">
     <g id="line2d_13">
      <g>
       <use xlink:href="#m513eee23ba" x="46.965625" y="27.628289" style="stroke: #000000; stroke-width: 0.8"/>
      </g>
     </g>
     <g id="text_14">
      <!-- 500 -->
      <g transform="translate(20.878125 31.427508) scale(0.1 -0.1)">
       <use xlink:href="#DejaVuSans-35"/>
       <use xlink:href="#DejaVuSans-30" x="63.623047"/>
       <use xlink:href="#DejaVuSans-30" x="127.246094"/>
      </g>
     </g>
    </g>
    <g id="text_15">
     <!-- [counts] -->
     <g transform="translate(14.798438 138.6925) rotate(-90) scale(0.1 -0.1)">
      <defs>
       <path id="DejaVuSans-63" d="M 3122 3366 
L 3122 2828 
Q 2878 2963 2633 3030 
Q 2388 3097 2138 3097 
Q 1578 3097 1268 2742 
Q 959 2388 959 1747 
Q 959 1106 1268 751 
Q 1578 397 2138 397 
Q 2388 397 2633 464 
Q 2878 531 3122 666 
L 3122 134 
Q 2881 22 2623 -34 
Q 2366 -91 2075 -91 
Q 1284 -91 818 406 
Q 353 903 353 1747 
Q 353 2603 823 3093 
Q 1294 3584 2113 3584 
Q 2378 3584 2631 3529 
Q 2884 3475 3122 3366 
z
" transform="scale(0.015625)"/>
       <path id="DejaVuSans-75" d="M 544 1381 
L 544 3500 
L 1119 3500 
L 1119 1403 
Q 1119 906 1312 657 
Q 1506 409 1894 409 
Q 2359 409 2629 706 
Q 2900 1003 2900 1516 
L 2900 3500 
L 3475 3500 
L 3475 0 
L 2900 0 
L 2900 538 
Q 2691 219 2414 64 
Q 2138 -91 1772 -91 
Q 1169 -91 856 284 
Q 544 659 544 1381 
z
M 1991 3584 
L 1991 3584 
z
" transform="scale(0.015625)"/>
       <path id="DejaVuSans-6e" d="M 3513 2113 
L 3513 0 
L 2938 0 
L 2938 2094 
Q 2938 2591 2744 2837 
Q 2550 3084 2163 3084 
Q 1697 3084 1428 2787 
Q 1159 2491 1159 1978 
L 1159 0 
L 581 0 
L 581 3500 
L 1159 3500 
L 1159 2956 
Q 1366 3272 1645 3428 
Q 1925 3584 2291 3584 
Q 2894 3584 3203 3211 
Q 3513 2838 3513 2113 
z
" transform="scale(0.015625)"/>
      </defs>
      <use xlink:href="#DejaVuSans-5b"/>
      <use xlink:href="#DejaVuSans-63" x="39.013672"/>
      <use xlink:href="#DejaVuSans-6f" x="93.994141"/>
      <use xlink:href="#DejaVuSans-75" x="155.175781"/>
      <use xlink:href="#DejaVuSans-6e" x="218.554688"/>
      <use xlink:href="#DejaVuSans-74" x="281.933594"/>
      <use xlink:href="#DejaVuSans-73" x="321.142578"/>
      <use xlink:href="#DejaVuSans-5d" x="373.242188"/>
     </g>
    </g>
   </g>
   <g id="patch_3">
    <path d="M 46.965625 228.96 
L 46.965625 7.2 
" style="fill: none; stroke: #000000; stroke-width: 0.8; stroke-linejoin: miter; stroke-linecap: square"/>
   </g>
   <g id="patch_4">
    <path d="M 381.765625 228.96 
L 381.765625 7.2 
" style="fill: none; stroke: #000000; stroke-width: 0.8; stroke-linejoin: miter; stroke-linecap: square"/>
   </g>
   <g id="patch_5">
    <path d="M 46.965625 228.96 
L 381.765625 228.96 
" style="fill: none; stroke: #000000; stroke-width: 0.8; stroke-linejoin: miter; stroke-linecap: square"/>
   </g>
   <g id="patch_6">
    <path d="M 46.965625 7.2 
L 381.765625 7.2 
" style="fill: none; stroke: #000000; stroke-width: 0.8; stroke-linejoin: miter; stroke-linecap: square"/>
   </g>
   <g id="line2d_14">
    <path d="M 62.183807 215.81384 
L 63.198352 215.81384 
L 63.198352 211.214601 
L 64.212898 211.214601 
L 64.212898 206.998631 
L 65.227443 206.998631 
L 65.227443 198.183422 
L 66.241989 198.183422 
L 66.241989 192.817643 
L 67.256534 192.817643 
L 67.256534 189.751483 
L 68.27108 189.751483 
L 68.27108 192.434373 
L 69.285625 192.434373 
L 69.285625 178.636654 
L 70.30017 178.636654 
L 70.30017 170.587985 
L 71.314716 170.587985 
L 71.314716 172.887605 
L 72.329261 172.887605 
L 72.329261 157.556806 
L 73.343807 157.556806 
L 73.343807 166.372015 
L 74.358352 166.372015 
L 74.358352 159.089886 
L 75.372898 159.089886 
L 75.372898 155.640456 
L 76.387443 155.640456 
L 76.387443 157.940076 
L 77.401989 157.940076 
L 77.401989 144.142357 
L 78.416534 144.142357 
L 78.416534 138.393308 
L 79.43108 138.393308 
L 79.43108 124.212319 
L 80.445625 124.212319 
L 80.445625 138.776578 
L 81.46017 138.776578 
L 81.46017 111.181141 
L 82.474716 111.181141 
L 82.474716 124.212319 
L 83.489261 124.212319 
L 83.489261 111.181141 
L 84.503807 111.181141 
L 84.503807 106.581901 
L 85.518352 106.581901 
L 85.518352 89.334753 
L 86.532898 89.334753 
L 86.532898 95.467072 
L 87.547443 95.467072 
L 87.547443 84.352243 
L 88.561989 84.352243 
L 88.561989 95.850342 
L 89.576534 95.850342 
L 89.576534 94.317262 
L 90.59108 94.317262 
L 90.59108 75.920304 
L 91.605625 75.920304 
L 91.605625 89.718023 
L 92.62017 89.718023 
L 92.62017 72.470875 
L 93.634716 72.470875 
L 93.634716 72.087605 
L 94.649261 72.087605 
L 94.649261 65.572015 
L 95.663807 65.572015 
L 95.663807 65.955285 
L 96.678352 65.955285 
L 96.678352 71.321065 
L 97.692898 71.321065 
L 97.692898 64.038935 
L 98.707443 64.038935 
L 98.707443 60.206236 
L 99.721989 60.206236 
L 99.721989 51.391027 
L 100.736534 51.391027 
L 100.736534 64.422205 
L 101.75108 64.422205 
L 101.75108 49.091407 
L 102.765625 49.091407 
L 102.765625 45.641977 
L 103.78017 45.641977 
L 103.78017 32.994068 
L 104.794716 32.994068 
L 104.794716 25.328669 
L 105.809261 25.328669 
L 105.809261 18.81308 
L 106.823807 18.81308 
L 106.823807 39.509658 
L 107.838352 39.509658 
L 107.838352 43.342357 
L 108.852898 43.342357 
L 108.852898 35.676958 
L 109.867443 35.676958 
L 109.867443 29.161369 
L 110.881989 29.161369 
L 110.881989 17.28 
L 111.896534 17.28 
L 111.896534 26.478479 
L 112.91108 26.478479 
L 112.91108 23.795589 
L 113.925625 23.795589 
L 113.925625 37.593308 
L 114.94017 37.593308 
L 114.94017 36.443498 
L 115.954716 36.443498 
L 115.954716 41.042738 
L 116.969261 41.042738 
L 116.969261 32.227529 
L 117.983807 32.227529 
L 117.983807 37.593308 
L 118.998352 37.593308 
L 118.998352 24.178859 
L 120.012898 24.178859 
L 120.012898 38.359848 
L 121.027443 38.359848 
L 121.027443 23.412319 
L 122.041989 23.412319 
L 122.041989 36.060228 
L 123.056534 36.060228 
L 123.056534 40.276198 
L 124.07108 40.276198 
L 124.07108 59.822966 
L 125.085625 59.822966 
L 125.085625 40.276198 
L 126.10017 40.276198 
L 126.10017 45.258707 
L 127.114716 45.258707 
L 127.114716 40.276198 
L 128.129261 40.276198 
L 128.129261 49.091407 
L 129.143807 49.091407 
L 129.143807 52.924106 
L 130.158352 52.924106 
L 130.158352 48.708137 
L 131.172898 48.708137 
L 131.172898 68.254905 
L 132.187443 68.254905 
L 132.187443 56.373536 
L 133.201989 56.373536 
L 133.201989 52.540837 
L 134.216534 52.540837 
L 134.216534 45.258707 
L 135.23108 45.258707 
L 135.23108 44.108897 
L 136.245625 44.108897 
L 136.245625 60.972776 
L 137.26017 60.972776 
L 137.26017 58.289886 
L 138.274716 58.289886 
L 138.274716 74.003954 
L 139.289261 74.003954 
L 139.289261 63.272395 
L 140.303807 63.272395 
L 140.303807 65.572015 
L 141.318352 65.572015 
L 141.318352 79.369734 
L 142.332898 79.369734 
L 142.332898 73.237414 
L 143.347443 73.237414 
L 143.347443 83.968973 
L 144.361989 83.968973 
L 144.361989 74.003954 
L 145.376534 74.003954 
L 145.376534 76.303574 
L 146.39108 76.303574 
L 146.39108 81.669354 
L 147.405625 81.669354 
L 147.405625 65.188745 
L 148.42017 65.188745 
L 148.42017 69.787985 
L 149.434716 69.787985 
L 149.434716 67.488365 
L 150.449261 67.488365 
L 150.449261 75.537034 
L 151.463807 75.537034 
L 151.463807 76.303574 
L 152.478352 76.303574 
L 152.478352 75.920304 
L 153.492898 75.920304 
L 153.492898 73.237414 
L 154.507443 73.237414 
L 154.507443 73.620684 
L 155.521989 73.620684 
L 155.521989 75.153764 
L 156.536534 75.153764 
L 156.536534 82.819163 
L 157.55108 82.819163 
L 157.55108 80.902814 
L 158.565625 80.902814 
L 158.565625 75.537034 
L 159.58017 75.537034 
L 159.58017 84.735513 
L 160.594716 84.735513 
L 160.594716 81.286084 
L 161.609261 81.286084 
L 161.609261 85.502053 
L 162.623807 85.502053 
L 162.623807 75.920304 
L 163.638352 75.920304 
L 163.638352 83.585703 
L 164.652898 83.585703 
L 164.652898 76.686844 
L 165.667443 76.686844 
L 165.667443 78.219924 
L 166.681989 78.219924 
L 166.681989 87.418403 
L 167.696534 87.418403 
L 167.696534 90.484563 
L 168.71108 90.484563 
L 168.71108 96.616882 
L 169.725625 96.616882 
L 169.725625 71.321065 
L 170.74017 71.321065 
L 170.74017 97.000152 
L 171.754716 97.000152 
L 171.754716 82.819163 
L 172.769261 82.819163 
L 172.769261 88.184943 
L 173.783807 88.184943 
L 173.783807 86.268593 
L 174.798352 86.268593 
L 174.798352 90.101293 
L 175.812898 90.101293 
L 175.812898 100.066312 
L 176.827443 100.066312 
L 176.827443 97.000152 
L 177.841989 97.000152 
L 177.841989 92.400913 
L 178.856534 92.400913 
L 178.856534 101.216122 
L 179.87108 101.216122 
L 179.87108 113.86403 
L 180.885625 113.86403 
L 180.885625 116.16365 
L 181.90017 116.16365 
L 181.90017 107.348441 
L 182.914716 107.348441 
L 182.914716 115.78038 
L 183.929261 115.78038 
L 183.929261 125.362129 
L 184.943807 125.362129 
L 184.943807 129.194829 
L 185.958352 129.194829 
L 185.958352 120.37962 
L 186.972898 120.37962 
L 186.972898 125.745399 
L 187.987443 125.745399 
L 187.987443 142.609278 
L 189.001989 142.609278 
L 189.001989 150.274677 
L 190.016534 150.274677 
L 190.016534 144.525627 
L 191.03108 144.525627 
L 191.03108 155.257186 
L 192.045625 155.257186 
L 192.045625 161.772776 
L 193.06017 161.772776 
L 193.06017 166.372015 
L 194.074716 166.372015 
L 194.074716 162.539316 
L 195.089261 162.539316 
L 195.089261 174.037414 
L 196.103807 174.037414 
L 196.103807 172.121065 
L 197.118352 172.121065 
L 197.118352 178.253384 
L 198.132898 178.253384 
L 198.132898 184.385703 
L 199.147443 184.385703 
L 199.147443 192.051103 
L 200.161989 192.051103 
L 200.161989 193.200913 
L 201.176534 193.200913 
L 201.176534 192.434373 
L 202.19108 192.434373 
L 202.19108 193.584183 
L 203.205625 193.584183 
L 203.205625 199.333232 
L 204.22017 199.333232 
L 204.22017 204.315741 
L 206.249261 204.315741 
L 206.249261 211.214601 
L 207.263807 211.214601 
L 207.263807 206.615361 
L 208.278352 206.615361 
L 208.278352 213.130951 
L 209.292898 213.130951 
L 209.292898 214.28076 
L 210.307443 214.28076 
L 210.307443 218.49673 
L 211.321989 218.49673 
L 211.321989 218.11346 
L 212.336534 218.11346 
L 212.336534 213.514221 
L 213.35108 213.514221 
L 213.35108 214.66403 
L 214.365625 214.66403 
L 214.365625 210.064791 
L 215.38017 210.064791 
L 215.38017 197.033612 
L 216.394716 197.033612 
L 216.394716 202.016122 
L 217.409261 202.016122 
L 217.409261 196.650342 
L 218.423807 196.650342 
L 218.423807 188.984943 
L 219.438352 188.984943 
L 219.438352 186.685323 
L 220.452898 186.685323 
L 220.452898 185.152243 
L 221.467443 185.152243 
L 221.467443 174.803954 
L 223.496534 174.803954 
L 223.496534 169.054905 
L 224.51108 169.054905 
L 224.51108 162.156046 
L 225.525625 162.156046 
L 225.525625 173.270875 
L 226.54017 173.270875 
L 226.54017 164.455665 
L 227.554716 164.455665 
L 227.554716 151.807757 
L 228.569261 151.807757 
L 228.569261 159.856426 
L 229.583807 159.856426 
L 229.583807 157.173536 
L 230.598352 157.173536 
L 230.598352 154.107376 
L 231.612898 154.107376 
L 231.612898 150.657947 
L 232.627443 150.657947 
L 232.627443 143.759087 
L 233.641989 143.759087 
L 233.641989 138.393308 
L 234.656534 138.393308 
L 234.656534 139.926388 
L 235.67108 139.926388 
L 235.67108 138.393308 
L 236.685625 138.393308 
L 236.685625 126.895209 
L 237.70017 126.895209 
L 237.70017 131.111179 
L 238.714716 131.111179 
L 238.714716 129.578099 
L 239.729261 129.578099 
L 239.729261 125.362129 
L 240.743807 125.362129 
L 240.743807 134.560608 
L 241.758352 134.560608 
L 241.758352 123.445779 
L 242.772898 123.445779 
L 242.772898 120.37962 
L 243.787443 120.37962 
L 243.787443 128.045019 
L 244.801989 128.045019 
L 244.801989 125.362129 
L 245.816534 125.362129 
L 245.816534 114.63057 
L 246.83108 114.63057 
L 246.83108 121.52943 
L 247.845625 121.52943 
L 247.845625 103.515741 
L 248.86017 103.515741 
L 248.86017 111.564411 
L 249.874716 111.564411 
L 249.874716 120.37962 
L 250.889261 120.37962 
L 250.889261 106.198631 
L 251.903807 106.198631 
L 251.903807 100.449582 
L 252.918352 100.449582 
L 252.918352 100.832852 
L 253.932898 100.832852 
L 253.932898 90.867833 
L 254.947443 90.867833 
L 254.947443 88.568213 
L 255.961989 88.568213 
L 255.961989 100.066312 
L 256.976534 100.066312 
L 256.976534 91.634373 
L 257.99108 91.634373 
L 257.99108 100.449582 
L 259.005625 100.449582 
L 259.005625 83.585703 
L 260.02017 83.585703 
L 260.02017 102.365932 
L 261.034716 102.365932 
L 261.034716 92.400913 
L 262.049261 92.400913 
L 262.049261 93.933992 
L 263.063807 93.933992 
L 263.063807 90.867833 
L 264.078352 90.867833 
L 264.078352 95.467072 
L 265.092898 95.467072 
L 265.092898 92.400913 
L 266.107443 92.400913 
L 266.107443 101.216122 
L 267.121989 101.216122 
L 267.121989 106.581901 
L 268.136534 106.581901 
L 268.136534 105.432091 
L 269.15108 105.432091 
L 269.15108 97.000152 
L 270.165625 97.000152 
L 270.165625 116.54692 
L 271.18017 116.54692 
L 271.18017 108.498251 
L 272.194716 108.498251 
L 272.194716 108.881521 
L 273.209261 108.881521 
L 273.209261 112.714221 
L 274.223807 112.714221 
L 274.223807 106.581901 
L 275.238352 106.581901 
L 275.238352 112.330951 
L 276.252898 112.330951 
L 276.252898 114.2473 
L 277.267443 114.2473 
L 277.267443 111.181141 
L 278.281989 111.181141 
L 278.281989 117.69673 
L 279.296534 117.69673 
L 279.296534 104.665551 
L 280.31108 104.665551 
L 280.31108 107.348441 
L 281.325625 107.348441 
L 281.325625 118.46327 
L 282.34017 118.46327 
L 282.34017 111.564411 
L 283.354716 111.564411 
L 283.354716 111.181141 
L 284.369261 111.181141 
L 284.369261 111.947681 
L 285.383807 111.947681 
L 285.383807 116.16365 
L 286.398352 116.16365 
L 286.398352 115.01384 
L 287.412898 115.01384 
L 287.412898 122.29597 
L 288.427443 122.29597 
L 288.427443 119.22981 
L 289.441989 119.22981 
L 289.441989 125.745399 
L 290.456534 125.745399 
L 290.456534 123.06251 
L 291.47108 123.06251 
L 291.47108 126.511939 
L 292.485625 126.511939 
L 292.485625 118.46327 
L 293.50017 118.46327 
L 293.50017 121.52943 
L 294.514716 121.52943 
L 294.514716 131.494449 
L 295.529261 131.494449 
L 295.529261 135.710418 
L 296.543807 135.710418 
L 296.543807 129.194829 
L 297.558352 129.194829 
L 297.558352 133.027529 
L 298.572898 133.027529 
L 298.572898 126.511939 
L 299.587443 126.511939 
L 299.587443 124.978859 
L 300.601989 124.978859 
L 300.601989 130.727909 
L 301.616534 130.727909 
L 301.616534 139.543118 
L 302.63108 139.543118 
L 302.63108 145.292167 
L 303.645625 145.292167 
L 303.645625 133.410798 
L 304.66017 133.410798 
L 304.66017 140.692928 
L 305.674716 140.692928 
L 305.674716 140.309658 
L 306.689261 140.309658 
L 306.689261 143.375817 
L 307.703807 143.375817 
L 307.703807 142.992548 
L 308.718352 142.992548 
L 308.718352 143.375817 
L 309.732898 143.375817 
L 309.732898 146.441977 
L 310.747443 146.441977 
L 310.747443 143.375817 
L 311.761989 143.375817 
L 311.761989 146.441977 
L 312.776534 146.441977 
L 312.776534 154.107376 
L 313.79108 154.107376 
L 313.79108 144.525627 
L 314.805625 144.525627 
L 314.805625 152.191027 
L 315.82017 152.191027 
L 315.82017 153.340837 
L 316.834716 153.340837 
L 316.834716 154.490646 
L 317.849261 154.490646 
L 317.849261 162.156046 
L 318.863807 162.156046 
L 318.863807 164.838935 
L 319.878352 164.838935 
L 319.878352 156.406996 
L 320.892898 156.406996 
L 320.892898 157.556806 
L 321.907443 157.556806 
L 321.907443 159.856426 
L 322.921989 159.856426 
L 322.921989 158.706616 
L 323.936534 158.706616 
L 323.936534 162.156046 
L 324.95108 162.156046 
L 324.95108 159.473156 
L 325.965625 159.473156 
L 325.965625 162.922586 
L 326.98017 162.922586 
L 326.98017 167.138555 
L 327.994716 167.138555 
L 327.994716 172.887605 
L 330.023807 172.887605 
L 330.023807 177.486844 
L 331.038352 177.486844 
L 331.038352 177.103574 
L 332.052898 177.103574 
L 332.052898 174.803954 
L 333.067443 174.803954 
L 333.067443 177.870114 
L 334.081989 177.870114 
L 334.081989 180.936274 
L 336.11108 180.936274 
L 336.11108 185.152243 
L 337.125625 185.152243 
L 337.125625 185.535513 
L 338.14017 185.535513 
L 338.14017 186.302053 
L 339.154716 186.302053 
L 339.154716 189.368213 
L 340.169261 189.368213 
L 340.169261 190.134753 
L 341.183807 190.134753 
L 341.183807 197.033612 
L 342.198352 197.033612 
L 342.198352 192.051103 
L 343.212898 192.051103 
L 343.212898 200.099772 
L 344.227443 200.099772 
L 344.227443 198.949962 
L 345.241989 198.949962 
L 345.241989 200.866312 
L 346.256534 200.866312 
L 346.256534 202.399392 
L 347.27108 202.399392 
L 347.27108 205.465551 
L 349.30017 205.465551 
L 349.30017 206.232091 
L 350.314716 206.232091 
L 350.314716 209.298251 
L 351.329261 209.298251 
L 351.329261 206.232091 
L 352.343807 206.232091 
L 352.343807 210.064791 
L 353.358352 210.064791 
L 353.358352 207.381901 
L 354.372898 207.381901 
L 354.372898 210.064791 
L 355.387443 210.064791 
L 355.387443 215.0473 
L 356.401989 215.0473 
L 356.401989 213.514221 
L 357.416534 213.514221 
L 357.416534 215.43057 
L 358.43108 215.43057 
L 358.43108 213.89749 
L 359.445625 213.89749 
L 359.445625 216.58038 
L 360.46017 216.58038 
L 360.46017 217.73019 
L 361.474716 217.73019 
L 361.474716 216.19711 
L 362.489261 216.19711 
L 362.489261 217.73019 
L 363.503807 217.73019 
L 363.503807 218.49673 
L 364.518352 218.49673 
L 364.518352 218.88 
L 365.532898 218.88 
L 365.532898 218.11346 
L 366.547443 218.11346 
L 366.547443 218.11346 
" clip-path="url(#p8f727b7ef5)" style="fill: none; stroke: #1f77b4; stroke-width: 1.5; stroke-linecap: square"/>
   </g>
  </g>
 </g>
 <defs>
  <clipPath id="p8f727b7ef5">
   <rect x="46.965625" y="7.2" width="334.8" height="221.76"/>
  </clipPath>
 </defs>
</svg>
