<?xml version="1.0" encoding="utf-8" standalone="no"?>
<!DOCTYPE svg PUBLIC "-//W3C//DTD SVG 1.1//EN"
  "http://www.w3.org/Graphics/SVG/1.1/DTD/svg11.dtd">
<svg xmlns:xlink="http://www.w3.org/1999/xlink" width="395.328125pt" height="266.51625pt" viewBox="0 0 395.328125 266.51625" xmlns="http://www.w3.org/2000/svg" version="1.1">
 <metadata>
  <rdf:RDF xmlns:dc="http://purl.org/dc/elements/1.1/" xmlns:cc="http://creativecommons.org/ns#" xmlns:rdf="http://www.w3.org/1999/02/22-rdf-syntax-ns#">
   <cc:Work>
    <dc:type rdf:resource="http://purl.org/dc/dcmitype/StillImage"/>
    <dc:date>2025-01-20T13:51:05.379971</dc:date>
    <dc:format>image/svg+xml</dc:format>
    <dc:creator>
     <cc:Agent>
      <dc:title>Matplotlib v3.7.3, https://matplotlib.org/</dc:title>
     </cc:Agent>
    </dc:creator>
   </cc:Work>
  </rdf:RDF>
 </metadata>
 <defs>
  <style type="text/css">*{stroke-linejoin: round; stroke-linecap: butt}</style>
 </defs>
 <g id="figure_1">
  <g id="patch_1">
   <path d="M 0 266.51625 
L 395.328125 266.51625 
L 395.328125 0 
L 0 0 
z
" style="fill: #ffffff"/>
  </g>
  <g id="axes_1">
   <g id="patch_2">
    <path d="M 53.328125 228.96 
L 388.128125 228.96 
L 388.128125 7.2 
L 53.328125 7.2 
z
" style="fill: #ffffff"/>
   </g>
   <g id="matplotlib.axis_1">
    <g id="xtick_1">
     <g id="line2d_1">
      <defs>
       <path id="m54a4f7d218" d="M 0 0 
L 0 3.5 
" style="stroke: #000000; stroke-width: 0.8"/>
      </defs>
      <g>
       <use xlink:href="#m54a4f7d218" x="102.364489" y="228.96" style="stroke: #000000; stroke-width: 0.8"/>
      </g>
     </g>
     <g id="text_1">
      <!-- 0.01 -->
      <g transform="translate(91.231676 243.558437) scale(0.1 -0.1)">
       <defs>
        <path id="DejaVuSans-30" d="M 2034 4250 
Q 1547 4250 1301 3770 
Q 1056 3291 1056 2328 
Q 1056 1369 1301 889 
Q 1547 409 2034 409 
Q 2525 409 2770 889 
Q 3016 1369 3016 2328 
Q 3016 3291 2770 3770 
Q 2525 4250 2034 4250 
z
M 2034 4750 
Q 2819 4750 3233 4129 
Q 3647 3509 3647 2328 
Q 3647 1150 3233 529 
Q 2819 -91 2034 -91 
Q 1250 -91 836 529 
Q 422 1150 422 2328 
Q 422 3509 836 4129 
Q 1250 4750 2034 4750 
z
" transform="scale(0.015625)"/>
        <path id="DejaVuSans-2e" d="M 684 794 
L 1344 794 
L 1344 0 
L 684 0 
L 684 794 
z
" transform="scale(0.015625)"/>
        <path id="DejaVuSans-31" d="M 794 531 
L 1825 531 
L 1825 4091 
L 703 3866 
L 703 4441 
L 1819 4666 
L 2450 4666 
L 2450 531 
L 3481 531 
L 3481 0 
L 794 0 
L 794 531 
z
" transform="scale(0.015625)"/>
       </defs>
       <use xlink:href="#DejaVuSans-30"/>
       <use xlink:href="#DejaVuSans-2e" x="63.623047"/>
       <use xlink:href="#DejaVuSans-30" x="95.410156"/>
       <use xlink:href="#DejaVuSans-31" x="159.033203"/>
      </g>
     </g>
    </g>
    <g id="xtick_2">
     <g id="line2d_2">
      <g>
       <use xlink:href="#m54a4f7d218" x="170.000852" y="228.96" style="stroke: #000000; stroke-width: 0.8"/>
      </g>
     </g>
     <g id="text_2">
      <!-- 0.02 -->
      <g transform="translate(158.86804 243.558437) scale(0.1 -0.1)">
       <defs>
        <path id="DejaVuSans-32" d="M 1228 531 
L 3431 531 
L 3431 0 
L 469 0 
L 469 531 
Q 828 903 1448 1529 
Q 2069 2156 2228 2338 
Q 2531 2678 2651 2914 
Q 2772 3150 2772 3378 
Q 2772 3750 2511 3984 
Q 2250 4219 1831 4219 
Q 1534 4219 1204 4116 
Q 875 4013 500 3803 
L 500 4441 
Q 881 4594 1212 4672 
Q 1544 4750 1819 4750 
Q 2544 4750 2975 4387 
Q 3406 4025 3406 3419 
Q 3406 3131 3298 2873 
Q 3191 2616 2906 2266 
Q 2828 2175 2409 1742 
Q 1991 1309 1228 531 
z
" transform="scale(0.015625)"/>
       </defs>
       <use xlink:href="#DejaVuSans-30"/>
       <use xlink:href="#DejaVuSans-2e" x="63.623047"/>
       <use xlink:href="#DejaVuSans-30" x="95.410156"/>
       <use xlink:href="#DejaVuSans-32" x="159.033203"/>
      </g>
     </g>
    </g>
    <g id="xtick_3">
     <g id="line2d_3">
      <g>
       <use xlink:href="#m54a4f7d218" x="237.637216" y="228.96" style="stroke: #000000; stroke-width: 0.8"/>
      </g>
     </g>
     <g id="text_3">
      <!-- 0.03 -->
      <g transform="translate(226.504403 243.558437) scale(0.1 -0.1)">
       <defs>
        <path id="DejaVuSans-33" d="M 2597 2516 
Q 3050 2419 3304 2112 
Q 3559 1806 3559 1356 
Q 3559 666 3084 287 
Q 2609 -91 1734 -91 
Q 1441 -91 1130 -33 
Q 819 25 488 141 
L 488 750 
Q 750 597 1062 519 
Q 1375 441 1716 441 
Q 2309 441 2620 675 
Q 2931 909 2931 1356 
Q 2931 1769 2642 2001 
Q 2353 2234 1838 2234 
L 1294 2234 
L 1294 2753 
L 1863 2753 
Q 2328 2753 2575 2939 
Q 2822 3125 2822 3475 
Q 2822 3834 2567 4026 
Q 2313 4219 1838 4219 
Q 1578 4219 1281 4162 
Q 984 4106 628 3988 
L 628 4550 
Q 988 4650 1302 4700 
Q 1616 4750 1894 4750 
Q 2613 4750 3031 4423 
Q 3450 4097 3450 3541 
Q 3450 3153 3228 2886 
Q 3006 2619 2597 2516 
z
" transform="scale(0.015625)"/>
       </defs>
       <use xlink:href="#DejaVuSans-30"/>
       <use xlink:href="#DejaVuSans-2e" x="63.623047"/>
       <use xlink:href="#DejaVuSans-30" x="95.410156"/>
       <use xlink:href="#DejaVuSans-33" x="159.033203"/>
      </g>
     </g>
    </g>
    <g id="xtick_4">
     <g id="line2d_4">
      <g>
       <use xlink:href="#m54a4f7d218" x="305.27358" y="228.96" style="stroke: #000000; stroke-width: 0.8"/>
      </g>
     </g>
     <g id="text_4">
      <!-- 0.04 -->
      <g transform="translate(294.140767 243.558437) scale(0.1 -0.1)">
       <defs>
        <path id="DejaVuSans-34" d="M 2419 4116 
L 825 1625 
L 2419 1625 
L 2419 4116 
z
M 2253 4666 
L 3047 4666 
L 3047 1625 
L 3713 1625 
L 3713 1100 
L 3047 1100 
L 3047 0 
L 2419 0 
L 2419 1100 
L 313 1100 
L 313 1709 
L 2253 4666 
z
" transform="scale(0.015625)"/>
       </defs>
       <use xlink:href="#DejaVuSans-30"/>
       <use xlink:href="#DejaVuSans-2e" x="63.623047"/>
       <use xlink:href="#DejaVuSans-30" x="95.410156"/>
       <use xlink:href="#DejaVuSans-34" x="159.033203"/>
      </g>
     </g>
    </g>
    <g id="xtick_5">
     <g id="line2d_5">
      <g>
       <use xlink:href="#m54a4f7d218" x="372.909943" y="228.96" style="stroke: #000000; stroke-width: 0.8"/>
      </g>
     </g>
     <g id="text_5">
      <!-- 0.05 -->
      <g transform="translate(361.777131 243.558437) scale(0.1 -0.1)">
       <defs>
        <path id="DejaVuSans-35" d="M 691 4666 
L 3169 4666 
L 3169 4134 
L 1269 4134 
L 1269 2991 
Q 1406 3038 1543 3061 
Q 1681 3084 1819 3084 
Q 2600 3084 3056 2656 
Q 3513 2228 3513 1497 
Q 3513 744 3044 326 
Q 2575 -91 1722 -91 
Q 1428 -91 1123 -41 
Q 819 9 494 109 
L 494 744 
Q 775 591 1075 516 
Q 1375 441 1709 441 
Q 2250 441 2565 725 
Q 2881 1009 2881 1497 
Q 2881 1984 2565 2268 
Q 2250 2553 1709 2553 
Q 1456 2553 1204 2497 
Q 953 2441 691 2322 
L 691 4666 
z
" transform="scale(0.015625)"/>
       </defs>
       <use xlink:href="#DejaVuSans-30"/>
       <use xlink:href="#DejaVuSans-2e" x="63.623047"/>
       <use xlink:href="#DejaVuSans-30" x="95.410156"/>
       <use xlink:href="#DejaVuSans-35" x="159.033203"/>
      </g>
     </g>
    </g>
    <g id="text_6">
     <!-- tof [s] -->
     <g transform="translate(205.853125 257.236562) scale(0.1 -0.1)">
      <defs>
       <path id="DejaVuSans-74" d="M 1172 4494 
L 1172 3500 
L 2356 3500 
L 2356 3053 
L 1172 3053 
L 1172 1153 
Q 1172 725 1289 603 
Q 1406 481 1766 481 
L 2356 481 
L 2356 0 
L 1766 0 
Q 1100 0 847 248 
Q 594 497 594 1153 
L 594 3053 
L 172 3053 
L 172 3500 
L 594 3500 
L 594 4494 
L 1172 4494 
z
" transform="scale(0.015625)"/>
       <path id="DejaVuSans-6f" d="M 1959 3097 
Q 1497 3097 1228 2736 
Q 959 2375 959 1747 
Q 959 1119 1226 758 
Q 1494 397 1959 397 
Q 2419 397 2687 759 
Q 2956 1122 2956 1747 
Q 2956 2369 2687 2733 
Q 2419 3097 1959 3097 
z
M 1959 3584 
Q 2709 3584 3137 3096 
Q 3566 2609 3566 1747 
Q 3566 888 3137 398 
Q 2709 -91 1959 -91 
Q 1206 -91 779 398 
Q 353 888 353 1747 
Q 353 2609 779 3096 
Q 1206 3584 1959 3584 
z
" transform="scale(0.015625)"/>
       <path id="DejaVuSans-66" d="M 2375 4863 
L 2375 4384 
L 1825 4384 
Q 1516 4384 1395 4259 
Q 1275 4134 1275 3809 
L 1275 3500 
L 2222 3500 
L 2222 3053 
L 1275 3053 
L 1275 0 
L 697 0 
L 697 3053 
L 147 3053 
L 147 3500 
L 697 3500 
L 697 3744 
Q 697 4328 969 4595 
Q 1241 4863 1831 4863 
L 2375 4863 
z
" transform="scale(0.015625)"/>
       <path id="DejaVuSans-20" transform="scale(0.015625)"/>
       <path id="DejaVuSans-5b" d="M 550 4863 
L 1875 4863 
L 1875 4416 
L 1125 4416 
L 1125 -397 
L 1875 -397 
L 1875 -844 
L 550 -844 
L 550 4863 
z
" transform="scale(0.015625)"/>
       <path id="DejaVuSans-73" d="M 2834 3397 
L 2834 2853 
Q 2591 2978 2328 3040 
Q 2066 3103 1784 3103 
Q 1356 3103 1142 2972 
Q 928 2841 928 2578 
Q 928 2378 1081 2264 
Q 1234 2150 1697 2047 
L 1894 2003 
Q 2506 1872 2764 1633 
Q 3022 1394 3022 966 
Q 3022 478 2636 193 
Q 2250 -91 1575 -91 
Q 1294 -91 989 -36 
Q 684 19 347 128 
L 347 722 
Q 666 556 975 473 
Q 1284 391 1588 391 
Q 1994 391 2212 530 
Q 2431 669 2431 922 
Q 2431 1156 2273 1281 
Q 2116 1406 1581 1522 
L 1381 1569 
Q 847 1681 609 1914 
Q 372 2147 372 2553 
Q 372 3047 722 3315 
Q 1072 3584 1716 3584 
Q 2034 3584 2315 3537 
Q 2597 3491 2834 3397 
z
" transform="scale(0.015625)"/>
       <path id="DejaVuSans-5d" d="M 1947 4863 
L 1947 -844 
L 622 -844 
L 622 -397 
L 1369 -397 
L 1369 4416 
L 622 4416 
L 622 4863 
L 1947 4863 
z
" transform="scale(0.015625)"/>
      </defs>
      <use xlink:href="#DejaVuSans-74"/>
      <use xlink:href="#DejaVuSans-6f" x="39.208984"/>
      <use xlink:href="#DejaVuSans-66" x="100.390625"/>
      <use xlink:href="#DejaVuSans-20" x="135.595703"/>
      <use xlink:href="#DejaVuSans-5b" x="167.382812"/>
      <use xlink:href="#DejaVuSans-73" x="206.396484"/>
      <use xlink:href="#DejaVuSans-5d" x="258.496094"/>
     </g>
    </g>
   </g>
   <g id="matplotlib.axis_2">
    <g id="ytick_1">
     <g id="line2d_6">
      <defs>
       <path id="mb5d470e12d" d="M 0 0 
L -3.5 0 
" style="stroke: #000000; stroke-width: 0.8"/>
      </defs>
      <g>
       <use xlink:href="#mb5d470e12d" x="53.328125" y="218.88" style="stroke: #000000; stroke-width: 0.8"/>
      </g>
     </g>
     <g id="text_7">
      <!-- 0 -->
      <g transform="translate(39.965625 222.679219) scale(0.1 -0.1)">
       <use xlink:href="#DejaVuSans-30"/>
      </g>
     </g>
    </g>
    <g id="ytick_2">
     <g id="line2d_7">
      <g>
       <use xlink:href="#mb5d470e12d" x="53.328125" y="173.799499" style="stroke: #000000; stroke-width: 0.8"/>
      </g>
     </g>
     <g id="text_8">
      <!-- 500 -->
      <g transform="translate(27.240625 177.598718) scale(0.1 -0.1)">
       <use xlink:href="#DejaVuSans-35"/>
       <use xlink:href="#DejaVuSans-30" x="63.623047"/>
       <use xlink:href="#DejaVuSans-30" x="127.246094"/>
      </g>
     </g>
    </g>
    <g id="ytick_3">
     <g id="line2d_8">
      <g>
       <use xlink:href="#mb5d470e12d" x="53.328125" y="128.718998" style="stroke: #000000; stroke-width: 0.8"/>
      </g>
     </g>
     <g id="text_9">
      <!-- 1000 -->
      <g transform="translate(20.878125 132.518217) scale(0.1 -0.1)">
       <use xlink:href="#DejaVuSans-31"/>
       <use xlink:href="#DejaVuSans-30" x="63.623047"/>
       <use xlink:href="#DejaVuSans-30" x="127.246094"/>
       <use xlink:href="#DejaVuSans-30" x="190.869141"/>
      </g>
     </g>
    </g>
    <g id="ytick_4">
     <g id="line2d_9">
      <g>
       <use xlink:href="#mb5d470e12d" x="53.328125" y="83.638497" style="stroke: #000000; stroke-width: 0.8"/>
      </g>
     </g>
     <g id="text_10">
      <!-- 1500 -->
      <g transform="translate(20.878125 87.437716) scale(0.1 -0.1)">
       <use xlink:href="#DejaVuSans-31"/>
       <use xlink:href="#DejaVuSans-35" x="63.623047"/>
       <use xlink:href="#DejaVuSans-30" x="127.246094"/>
       <use xlink:href="#DejaVuSans-30" x="190.869141"/>
      </g>
     </g>
    </g>
    <g id="ytick_5">
     <g id="line2d_10">
      <g>
       <use xlink:href="#mb5d470e12d" x="53.328125" y="38.557996" style="stroke: #000000; stroke-width: 0.8"/>
      </g>
     </g>
     <g id="text_11">
      <!-- 2000 -->
      <g transform="translate(20.878125 42.357215) scale(0.1 -0.1)">
       <use xlink:href="#DejaVuSans-32"/>
       <use xlink:href="#DejaVuSans-30" x="63.623047"/>
       <use xlink:href="#DejaVuSans-30" x="127.246094"/>
       <use xlink:href="#DejaVuSans-30" x="190.869141"/>
      </g>
     </g>
    </g>
    <g id="text_12">
     <!-- [counts] -->
     <g transform="translate(14.798438 138.6925) rotate(-90) scale(0.1 -0.1)">
      <defs>
       <path id="DejaVuSans-63" d="M 3122 3366 
L 3122 2828 
Q 2878 2963 2633 3030 
Q 2388 3097 2138 3097 
Q 1578 3097 1268 2742 
Q 959 2388 959 1747 
Q 959 1106 1268 751 
Q 1578 397 2138 397 
Q 2388 397 2633 464 
Q 2878 531 3122 666 
L 3122 134 
Q 2881 22 2623 -34 
Q 2366 -91 2075 -91 
Q 1284 -91 818 406 
Q 353 903 353 1747 
Q 353 2603 823 3093 
Q 1294 3584 2113 3584 
Q 2378 3584 2631 3529 
Q 2884 3475 3122 3366 
z
" transform="scale(0.015625)"/>
       <path id="DejaVuSans-75" d="M 544 1381 
L 544 3500 
L 1119 3500 
L 1119 1403 
Q 1119 906 1312 657 
Q 1506 409 1894 409 
Q 2359 409 2629 706 
Q 2900 1003 2900 1516 
L 2900 3500 
L 3475 3500 
L 3475 0 
L 2900 0 
L 2900 538 
Q 2691 219 2414 64 
Q 2138 -91 1772 -91 
Q 1169 -91 856 284 
Q 544 659 544 1381 
z
M 1991 3584 
L 1991 3584 
z
" transform="scale(0.015625)"/>
       <path id="DejaVuSans-6e" d="M 3513 2113 
L 3513 0 
L 2938 0 
L 2938 2094 
Q 2938 2591 2744 2837 
Q 2550 3084 2163 3084 
Q 1697 3084 1428 2787 
Q 1159 2491 1159 1978 
L 1159 0 
L 581 0 
L 581 3500 
L 1159 3500 
L 1159 2956 
Q 1366 3272 1645 3428 
Q 1925 3584 2291 3584 
Q 2894 3584 3203 3211 
Q 3513 2838 3513 2113 
z
" transform="scale(0.015625)"/>
      </defs>
      <use xlink:href="#DejaVuSans-5b"/>
      <use xlink:href="#DejaVuSans-63" x="39.013672"/>
      <use xlink:href="#DejaVuSans-6f" x="93.994141"/>
      <use xlink:href="#DejaVuSans-75" x="155.175781"/>
      <use xlink:href="#DejaVuSans-6e" x="218.554688"/>
      <use xlink:href="#DejaVuSans-74" x="281.933594"/>
      <use xlink:href="#DejaVuSans-73" x="321.142578"/>
      <use xlink:href="#DejaVuSans-5d" x="373.242188"/>
     </g>
    </g>
   </g>
   <g id="patch_3">
    <path d="M 53.328125 228.96 
L 53.328125 7.2 
" style="fill: none; stroke: #000000; stroke-width: 0.8; stroke-linejoin: miter; stroke-linecap: square"/>
   </g>
   <g id="patch_4">
    <path d="M 388.128125 228.96 
L 388.128125 7.2 
" style="fill: none; stroke: #000000; stroke-width: 0.8; stroke-linejoin: miter; stroke-linecap: square"/>
   </g>
   <g id="patch_5">
    <path d="M 53.328125 228.96 
L 388.128125 228.96 
" style="fill: none; stroke: #000000; stroke-width: 0.8; stroke-linejoin: miter; stroke-linecap: square"/>
   </g>
   <g id="patch_6">
    <path d="M 53.328125 7.2 
L 388.128125 7.2 
" style="fill: none; stroke: #000000; stroke-width: 0.8; stroke-linejoin: miter; stroke-linecap: square"/>
   </g>
   <g id="line2d_11">
    <path d="M 68.546307 218.88 
L 124.532929 218.88 
L 124.532929 205.626333 
L 125.550867 205.626333 
L 125.550867 162.439213 
L 126.568806 162.439213 
L 126.568806 115.194848 
L 127.586745 115.194848 
L 127.586745 94.547979 
L 128.604683 94.547979 
L 128.604683 98.875707 
L 129.622622 98.875707 
L 129.622622 94.097174 
L 130.64056 94.097174 
L 130.64056 93.285725 
L 131.658499 93.285725 
L 131.658499 91.752987 
L 132.676438 91.752987 
L 132.676438 83.187692 
L 133.694376 83.187692 
L 133.694376 75.524007 
L 134.712315 75.524007 
L 134.712315 78.859964 
L 135.730253 78.859964 
L 135.730253 75.433846 
L 136.748192 75.433846 
L 136.748192 64.163721 
L 137.76613 64.163721 
L 137.76613 69.393059 
L 138.784069 69.393059 
L 138.784069 58.754061 
L 139.802008 58.754061 
L 139.802008 56.319714 
L 140.819946 56.319714 
L 140.819946 52.983757 
L 141.837885 52.983757 
L 141.837885 43.787335 
L 142.855823 43.787335 
L 142.855823 40.812021 
L 143.873762 40.812021 
L 143.873762 38.738318 
L 144.891701 38.738318 
L 144.891701 35.131878 
L 145.909639 35.131878 
L 145.909639 35.582683 
L 146.927578 35.582683 
L 146.927578 26.476422 
L 147.945516 26.476422 
L 147.945516 24.222397 
L 148.963455 24.222397 
L 148.963455 17.28 
L 149.981393 17.28 
L 149.981393 20.706118 
L 150.999332 20.706118 
L 150.999332 22.960143 
L 152.017271 22.960143 
L 152.017271 29.451735 
L 153.035209 29.451735 
L 153.035209 18.18161 
L 154.053148 18.18161 
L 154.053148 20.615957 
L 155.071086 20.615957 
L 155.071086 28.279642 
L 156.089025 28.279642 
L 156.089025 30.263184 
L 157.106964 30.263184 
L 157.106964 25.214168 
L 158.124902 25.214168 
L 158.124902 33.689302 
L 159.142841 33.689302 
L 159.142841 33.328658 
L 160.160779 33.328658 
L 160.160779 35.582683 
L 161.178718 35.582683 
L 161.178718 41.082504 
L 162.196656 41.082504 
L 162.196656 41.62347 
L 163.214595 41.62347 
L 163.214595 45.049589 
L 164.232534 45.049589 
L 164.232534 51.901825 
L 165.250472 51.901825 
L 165.250472 57.041002 
L 166.268411 57.041002 
L 166.268411 63.712916 
L 167.286349 63.712916 
L 167.286349 77.237066 
L 168.304288 77.237066 
L 168.304288 80.212379 
L 169.322227 80.212379 
L 169.322227 89.769445 
L 170.340165 89.769445 
L 170.340165 101.219893 
L 171.358104 101.219893 
L 171.358104 112.219535 
L 172.376042 112.219535 
L 172.376042 117.088229 
L 173.393981 117.088229 
L 173.393981 124.030626 
L 174.411919 124.030626 
L 174.411919 133.40737 
L 175.429858 133.40737 
L 175.429858 136.653166 
L 176.447797 136.653166 
L 176.447797 148.283936 
L 177.465735 148.283936 
L 177.465735 150.357639 
L 178.483674 150.357639 
L 178.483674 158.742612 
L 179.501612 158.742612 
L 179.501612 164.603077 
L 180.519551 164.603077 
L 180.519551 168.209517 
L 181.53749 168.209517 
L 181.53749 175.332236 
L 182.555428 175.332236 
L 182.555428 183.266404 
L 183.573367 183.266404 
L 183.573367 191.02025 
L 184.591305 191.02025 
L 184.591305 194.807013 
L 185.609244 194.807013 
L 185.609244 170.914347 
L 186.627182 170.914347 
L 186.627182 147.562648 
L 187.645121 147.562648 
L 187.645121 116.366941 
L 188.66306 116.366941 
L 188.66306 87.966225 
L 189.680998 87.966225 
L 189.680998 82.466404 
L 190.698937 82.466404 
L 190.698937 88.957996 
L 191.716875 88.957996 
L 191.716875 93.375886 
L 192.734814 93.375886 
L 192.734814 98.785546 
L 193.752753 98.785546 
L 193.752753 91.212021 
L 194.770691 91.212021 
L 194.770691 88.957996 
L 195.78863 88.957996 
L 195.78863 93.73653 
L 196.806568 93.73653 
L 196.806568 90.310411 
L 197.824507 90.310411 
L 197.824507 94.097174 
L 198.842445 94.097174 
L 198.842445 102.572308 
L 199.860384 102.572308 
L 199.860384 100.94941 
L 200.878323 100.94941 
L 200.878323 103.834562 
L 201.896261 103.834562 
L 201.896261 99.777317 
L 202.9142 99.777317 
L 202.9142 103.293596 
L 203.932138 103.293596 
L 203.932138 109.0639 
L 204.950077 109.0639 
L 204.950077 110.145832 
L 205.968016 110.145832 
L 205.968016 109.0639 
L 206.985954 109.0639 
L 206.985954 104.465689 
L 208.003893 104.465689 
L 208.003893 107.531163 
L 209.021831 107.531163 
L 209.021831 113.211306 
L 210.03977 113.211306 
L 210.03977 109.244222 
L 211.057708 109.244222 
L 211.057708 107.080358 
L 212.075647 107.080358 
L 212.075647 114.293238 
L 213.093586 114.293238 
L 213.093586 114.112916 
L 214.111524 114.112916 
L 214.111524 118.170161 
L 215.129463 118.170161 
L 215.129463 115.37517 
L 216.147401 115.37517 
L 216.147401 117.989839 
L 217.16534 117.989839 
L 217.16534 121.956923 
L 219.201217 121.956923 
L 219.201217 120.874991 
L 220.219156 120.874991 
L 220.219156 125.563363 
L 221.237094 125.563363 
L 221.237094 125.833846 
L 222.255033 125.833846 
L 222.255033 127.727227 
L 223.272971 127.727227 
L 223.272971 125.112558 
L 224.29091 125.112558 
L 224.29091 129.80093 
L 225.308849 129.80093 
L 225.308849 132.776243 
L 226.326787 132.776243 
L 226.326787 130.973023 
L 227.344726 130.973023 
L 227.344726 129.710769 
L 228.362664 129.710769 
L 228.362664 138.546547 
L 229.380603 138.546547 
L 229.380603 132.776243 
L 231.41648 132.866404 
L 231.41648 136.382683 
L 232.434419 136.382683 
L 232.434419 137.194132 
L 233.452357 137.194132 
L 233.452357 140.259606 
L 234.470296 140.259606 
L 234.470296 144.677496 
L 235.488234 144.677496 
L 235.488234 142.603792 
L 236.506173 142.603792 
L 236.506173 148.013453 
L 237.524112 148.013453 
L 237.524112 149.365868 
L 238.54205 149.365868 
L 238.54205 152.070698 
L 240.577927 151.980537 
L 240.577927 156.849231 
L 241.595866 156.849231 
L 241.595866 164.603077 
L 242.613805 164.603077 
L 242.613805 153.603435 
L 243.631743 153.603435 
L 243.631743 146.570877 
L 244.649682 146.570877 
L 244.649682 139.989123 
L 245.66762 139.989123 
L 245.66762 129.981252 
L 246.685559 129.981252 
L 246.685559 128.358354 
L 247.703497 128.358354 
L 247.703497 127.186261 
L 248.721436 127.186261 
L 248.721436 126.735456 
L 249.739375 126.735456 
L 249.739375 130.522218 
L 250.757313 130.522218 
L 250.757313 131.60415 
L 251.775252 131.60415 
L 251.775252 145.579106 
L 252.79319 145.579106 
L 252.79319 147.382326 
L 253.811129 147.382326 
L 253.811129 150.087156 
L 254.829068 150.087156 
L 254.829068 148.915063 
L 255.847006 148.915063 
L 255.847006 157.390197 
L 256.864945 157.390197 
L 256.864945 156.488587 
L 257.882883 156.488587 
L 257.882883 156.037782 
L 259.91876 155.947621 
L 259.91876 158.381968 
L 260.936699 158.381968 
L 260.936699 160.095027 
L 261.954638 160.095027 
L 261.954638 158.111485 
L 262.972576 158.111485 
L 262.972576 163.250662 
L 263.990515 163.250662 
L 263.990515 162.890018 
L 265.008453 162.890018 
L 265.008453 160.726154 
L 266.026392 160.726154 
L 266.026392 160.185188 
L 267.044331 160.185188 
L 267.044331 158.742612 
L 268.062269 158.742612 
L 268.062269 167.848873 
L 269.080208 167.848873 
L 269.080208 165.053882 
L 270.098146 165.053882 
L 270.098146 164.87356 
L 271.116085 164.87356 
L 271.116085 166.406297 
L 272.134023 166.406297 
L 272.134023 165.324365 
L 273.151962 165.324365 
L 273.151962 168.660322 
L 274.169901 168.660322 
L 274.169901 170.193059 
L 275.187839 170.193059 
L 275.187839 174.701109 
L 276.205778 174.701109 
L 276.205778 170.28322 
L 277.223716 170.28322 
L 277.223716 175.783041 
L 278.241655 175.783041 
L 278.241655 174.79127 
L 279.259594 174.79127 
L 279.259594 179.29932 
L 280.277532 179.29932 
L 280.277532 176.864973 
L 281.295471 176.864973 
L 281.295471 184.258175 
L 282.313409 184.258175 
L 282.313409 183.266404 
L 283.331348 183.266404 
L 283.331348 185.61059 
L 284.349286 185.61059 
L 284.349286 184.799141 
L 285.367225 184.799141 
L 285.367225 185.069624 
L 286.385164 185.069624 
L 286.385164 187.594132 
L 287.403102 187.594132 
L 287.403102 192.102182 
L 288.421041 192.102182 
L 288.421041 188.135098 
L 289.438979 188.135098 
L 289.438979 192.102182 
L 290.456918 192.102182 
L 290.456918 195.528301 
L 291.474857 195.528301 
L 291.474857 194.356208 
L 292.492795 194.356208 
L 292.492795 194.085725 
L 293.510734 194.085725 
L 293.510734 196.069267 
L 294.528672 196.069267 
L 294.528672 198.683936 
L 295.546611 198.683936 
L 295.546611 196.33975 
L 296.564549 196.33975 
L 296.564549 194.626691 
L 297.582488 194.626691 
L 297.582488 190.11864 
L 298.600427 190.11864 
L 298.600427 184.348336 
L 299.618365 184.348336 
L 299.618365 184.889302 
L 300.636304 184.889302 
L 300.636304 177.045295 
L 301.654242 177.045295 
L 301.654242 178.39771 
L 302.672181 178.39771 
L 302.672181 180.651735 
L 303.69012 180.651735 
L 303.69012 183.266404 
L 304.708058 183.266404 
L 304.708058 186.331878 
L 305.725997 186.331878 
L 305.725997 188.766225 
L 306.743935 188.766225 
L 306.743935 193.544758 
L 307.761874 193.544758 
L 307.761874 194.356208 
L 308.779812 194.356208 
L 308.779812 196.700394 
L 309.797751 196.700394 
L 309.797751 195.888945 
L 310.81569 195.888945 
L 310.81569 198.593775 
L 311.833628 198.593775 
L 311.833628 197.511843 
L 312.851567 197.511843 
L 312.851567 200.306834 
L 313.869505 200.306834 
L 313.869505 197.24136 
L 314.887444 197.24136 
L 314.887444 200.216673 
L 315.905383 200.216673 
L 315.905383 199.04458 
L 316.923321 199.04458 
L 316.923321 201.478927 
L 317.94126 201.478927 
L 317.94126 203.011664 
L 318.959198 203.011664 
L 318.959198 202.65102 
L 319.977137 202.65102 
L 319.977137 202.921503 
L 320.995075 202.921503 
L 320.995075 205.536172 
L 322.013014 205.536172 
L 322.013014 205.175528 
L 323.030953 205.175528 
L 323.030953 204.093596 
L 324.048891 204.093596 
L 324.048891 203.913274 
L 325.06683 203.913274 
L 325.06683 204.814884 
L 326.084768 204.814884 
L 326.084768 203.642791 
L 327.102707 203.642791 
L 327.102707 208.421324 
L 328.120646 208.421324 
L 328.120646 207.519714 
L 329.138584 207.519714 
L 329.138584 208.511485 
L 330.156523 208.511485 
L 330.156523 207.339392 
L 331.174461 207.339392 
L 331.174461 208.511485 
L 332.1924 208.511485 
L 332.1924 212.027764 
L 333.210338 212.027764 
L 333.210338 209.322934 
L 335.246216 209.322934 
L 335.246216 210.495027 
L 336.264154 210.495027 
L 336.264154 211.035993 
L 337.282093 211.035993 
L 337.282093 212.839213 
L 338.300031 212.839213 
L 338.300031 211.396637 
L 339.31797 211.396637 
L 339.31797 212.658891 
L 340.335909 212.658891 
L 340.335909 212.298247 
L 341.353847 212.298247 
L 341.353847 212.658891 
L 342.371786 212.658891 
L 342.371786 213.290018 
L 343.389724 213.290018 
L 343.389724 214.822755 
L 344.407663 214.822755 
L 344.407663 214.37195 
L 345.425601 214.37195 
L 345.425601 212.208086 
L 346.44354 212.208086 
L 346.44354 210.224544 
L 347.461479 210.224544 
L 347.461479 207.700036 
L 348.479417 207.700036 
L 348.479417 206.798426 
L 349.497356 206.798426 
L 349.497356 203.191986 
L 350.515294 203.191986 
L 350.515294 202.741181 
L 351.533233 202.741181 
L 351.533233 204.634562 
L 352.551172 204.634562 
L 352.551172 205.986977 
L 353.56911 205.986977 
L 353.56911 207.068909 
L 354.587049 207.068909 
L 354.587049 208.96229 
L 355.604987 208.96229 
L 355.604987 207.790197 
L 356.622926 207.790197 
L 356.622926 207.429553 
L 357.640864 207.429553 
L 357.640864 209.593417 
L 359.676742 209.683578 
L 359.676742 210.495027 
L 360.69468 210.495027 
L 360.69468 209.142612 
L 361.712619 209.142612 
L 361.712619 208.96229 
L 362.730557 208.96229 
L 362.730557 209.773739 
L 363.748496 209.773739 
L 363.748496 208.96229 
L 364.766435 208.96229 
L 364.766435 211.396637 
L 365.784373 211.396637 
L 365.784373 211.757281 
L 366.802312 211.757281 
L 366.802312 211.486798 
L 369.856127 211.576959 
L 369.856127 211.757281 
L 370.874066 211.757281 
L 370.874066 213.47034 
L 371.892005 213.47034 
L 371.892005 213.019535 
L 372.909943 213.019535 
L 372.909943 213.019535 
" clip-path="url(#p2cedde8a27)" style="fill: none; stroke: #1f77b4; stroke-width: 1.5; stroke-linecap: square"/>
   </g>
  </g>
 </g>
 <defs>
  <clipPath id="p2cedde8a27">
   <rect x="53.328125" y="7.2" width="334.8" height="221.76"/>
  </clipPath>
 </defs>
</svg>
