<?xml version="1.0" encoding="utf-8" standalone="no"?>
<!DOCTYPE svg PUBLIC "-//W3C//DTD SVG 1.1//EN"
  "http://www.w3.org/Graphics/SVG/1.1/DTD/svg11.dtd">
<svg xmlns:xlink="http://www.w3.org/1999/xlink" width="872.39952pt" height="296.39952pt" viewBox="0 0 872.39952 296.39952" xmlns="http://www.w3.org/2000/svg" version="1.1">
 <metadata>
  <rdf:RDF xmlns:dc="http://purl.org/dc/elements/1.1/" xmlns:cc="http://creativecommons.org/ns#" xmlns:rdf="http://www.w3.org/1999/02/22-rdf-syntax-ns#">
   <cc:Work>
    <dc:type rdf:resource="http://purl.org/dc/dcmitype/StillImage"/>
    <dc:date>2025-01-20T13:50:49.782131</dc:date>
    <dc:format>image/svg+xml</dc:format>
    <dc:creator>
     <cc:Agent>
      <dc:title>Matplotlib v3.7.3, https://matplotlib.org/</dc:title>
     </cc:Agent>
    </dc:creator>
   </cc:Work>
  </rdf:RDF>
 </metadata>
 <defs>
  <style type="text/css">*{stroke-linejoin: round; stroke-linecap: butt}</style>
 </defs>
 <g id="figure_1">
  <g id="patch_1">
   <path d="M 0 296.39952 
L 872.39952 296.39952 
L 872.39952 0 
L 0 0 
z
" style="fill: #ffffff"/>
  </g>
  <g id="axes_1">
   <g id="patch_2">
    <path d="M 46.965625 257.158895 
L 431.87976 257.158895 
L 431.87976 22.318125 
L 46.965625 22.318125 
z
" style="fill: #ffffff"/>
   </g>
   <g id="matplotlib.axis_1">
    <g id="xtick_1">
     <g id="line2d_1">
      <defs>
       <path id="m7dd92ec299" d="M 0 0 
L 0 3.5 
" style="stroke: #000000; stroke-width: 0.8"/>
      </defs>
      <g>
       <use xlink:href="#m7dd92ec299" x="82.878666" y="257.158895" style="stroke: #000000; stroke-width: 0.8"/>
      </g>
     </g>
     <g id="text_1">
      <!-- 1.0 -->
      <g transform="translate(74.927104 271.757332) scale(0.1 -0.1)">
       <defs>
        <path id="DejaVuSans-31" d="M 794 531 
L 1825 531 
L 1825 4091 
L 703 3866 
L 703 4441 
L 1819 4666 
L 2450 4666 
L 2450 531 
L 3481 531 
L 3481 0 
L 794 0 
L 794 531 
z
" transform="scale(0.015625)"/>
        <path id="DejaVuSans-2e" d="M 684 794 
L 1344 794 
L 1344 0 
L 684 0 
L 684 794 
z
" transform="scale(0.015625)"/>
        <path id="DejaVuSans-30" d="M 2034 4250 
Q 1547 4250 1301 3770 
Q 1056 3291 1056 2328 
Q 1056 1369 1301 889 
Q 1547 409 2034 409 
Q 2525 409 2770 889 
Q 3016 1369 3016 2328 
Q 3016 3291 2770 3770 
Q 2525 4250 2034 4250 
z
M 2034 4750 
Q 2819 4750 3233 4129 
Q 3647 3509 3647 2328 
Q 3647 1150 3233 529 
Q 2819 -91 2034 -91 
Q 1250 -91 836 529 
Q 422 1150 422 2328 
Q 422 3509 836 4129 
Q 1250 4750 2034 4750 
z
" transform="scale(0.015625)"/>
       </defs>
       <use xlink:href="#DejaVuSans-31"/>
       <use xlink:href="#DejaVuSans-2e" x="63.623047"/>
       <use xlink:href="#DejaVuSans-30" x="95.410156"/>
      </g>
     </g>
    </g>
    <g id="xtick_2">
     <g id="line2d_2">
      <g>
       <use xlink:href="#m7dd92ec299" x="128.921027" y="257.158895" style="stroke: #000000; stroke-width: 0.8"/>
      </g>
     </g>
     <g id="text_2">
      <!-- 1.5 -->
      <g transform="translate(120.969464 271.757332) scale(0.1 -0.1)">
       <defs>
        <path id="DejaVuSans-35" d="M 691 4666 
L 3169 4666 
L 3169 4134 
L 1269 4134 
L 1269 2991 
Q 1406 3038 1543 3061 
Q 1681 3084 1819 3084 
Q 2600 3084 3056 2656 
Q 3513 2228 3513 1497 
Q 3513 744 3044 326 
Q 2575 -91 1722 -91 
Q 1428 -91 1123 -41 
Q 819 9 494 109 
L 494 744 
Q 775 591 1075 516 
Q 1375 441 1709 441 
Q 2250 441 2565 725 
Q 2881 1009 2881 1497 
Q 2881 1984 2565 2268 
Q 2250 2553 1709 2553 
Q 1456 2553 1204 2497 
Q 953 2441 691 2322 
L 691 4666 
z
" transform="scale(0.015625)"/>
       </defs>
       <use xlink:href="#DejaVuSans-31"/>
       <use xlink:href="#DejaVuSans-2e" x="63.623047"/>
       <use xlink:href="#DejaVuSans-35" x="95.410156"/>
      </g>
     </g>
    </g>
    <g id="xtick_3">
     <g id="line2d_3">
      <g>
       <use xlink:href="#m7dd92ec299" x="174.963388" y="257.158895" style="stroke: #000000; stroke-width: 0.8"/>
      </g>
     </g>
     <g id="text_3">
      <!-- 2.0 -->
      <g transform="translate(167.011825 271.757332) scale(0.1 -0.1)">
       <defs>
        <path id="DejaVuSans-32" d="M 1228 531 
L 3431 531 
L 3431 0 
L 469 0 
L 469 531 
Q 828 903 1448 1529 
Q 2069 2156 2228 2338 
Q 2531 2678 2651 2914 
Q 2772 3150 2772 3378 
Q 2772 3750 2511 3984 
Q 2250 4219 1831 4219 
Q 1534 4219 1204 4116 
Q 875 4013 500 3803 
L 500 4441 
Q 881 4594 1212 4672 
Q 1544 4750 1819 4750 
Q 2544 4750 2975 4387 
Q 3406 4025 3406 3419 
Q 3406 3131 3298 2873 
Q 3191 2616 2906 2266 
Q 2828 2175 2409 1742 
Q 1991 1309 1228 531 
z
" transform="scale(0.015625)"/>
       </defs>
       <use xlink:href="#DejaVuSans-32"/>
       <use xlink:href="#DejaVuSans-2e" x="63.623047"/>
       <use xlink:href="#DejaVuSans-30" x="95.410156"/>
      </g>
     </g>
    </g>
    <g id="xtick_4">
     <g id="line2d_4">
      <g>
       <use xlink:href="#m7dd92ec299" x="221.005748" y="257.158895" style="stroke: #000000; stroke-width: 0.8"/>
      </g>
     </g>
     <g id="text_4">
      <!-- 2.5 -->
      <g transform="translate(213.054186 271.757332) scale(0.1 -0.1)">
       <use xlink:href="#DejaVuSans-32"/>
       <use xlink:href="#DejaVuSans-2e" x="63.623047"/>
       <use xlink:href="#DejaVuSans-35" x="95.410156"/>
      </g>
     </g>
    </g>
    <g id="xtick_5">
     <g id="line2d_5">
      <g>
       <use xlink:href="#m7dd92ec299" x="267.048109" y="257.158895" style="stroke: #000000; stroke-width: 0.8"/>
      </g>
     </g>
     <g id="text_5">
      <!-- 3.0 -->
      <g transform="translate(259.096546 271.757332) scale(0.1 -0.1)">
       <defs>
        <path id="DejaVuSans-33" d="M 2597 2516 
Q 3050 2419 3304 2112 
Q 3559 1806 3559 1356 
Q 3559 666 3084 287 
Q 2609 -91 1734 -91 
Q 1441 -91 1130 -33 
Q 819 25 488 141 
L 488 750 
Q 750 597 1062 519 
Q 1375 441 1716 441 
Q 2309 441 2620 675 
Q 2931 909 2931 1356 
Q 2931 1769 2642 2001 
Q 2353 2234 1838 2234 
L 1294 2234 
L 1294 2753 
L 1863 2753 
Q 2328 2753 2575 2939 
Q 2822 3125 2822 3475 
Q 2822 3834 2567 4026 
Q 2313 4219 1838 4219 
Q 1578 4219 1281 4162 
Q 984 4106 628 3988 
L 628 4550 
Q 988 4650 1302 4700 
Q 1616 4750 1894 4750 
Q 2613 4750 3031 4423 
Q 3450 4097 3450 3541 
Q 3450 3153 3228 2886 
Q 3006 2619 2597 2516 
z
" transform="scale(0.015625)"/>
       </defs>
       <use xlink:href="#DejaVuSans-33"/>
       <use xlink:href="#DejaVuSans-2e" x="63.623047"/>
       <use xlink:href="#DejaVuSans-30" x="95.410156"/>
      </g>
     </g>
    </g>
    <g id="xtick_6">
     <g id="line2d_6">
      <g>
       <use xlink:href="#m7dd92ec299" x="313.09047" y="257.158895" style="stroke: #000000; stroke-width: 0.8"/>
      </g>
     </g>
     <g id="text_6">
      <!-- 3.5 -->
      <g transform="translate(305.138907 271.757332) scale(0.1 -0.1)">
       <use xlink:href="#DejaVuSans-33"/>
       <use xlink:href="#DejaVuSans-2e" x="63.623047"/>
       <use xlink:href="#DejaVuSans-35" x="95.410156"/>
      </g>
     </g>
    </g>
    <g id="xtick_7">
     <g id="line2d_7">
      <g>
       <use xlink:href="#m7dd92ec299" x="359.13283" y="257.158895" style="stroke: #000000; stroke-width: 0.8"/>
      </g>
     </g>
     <g id="text_7">
      <!-- 4.0 -->
      <g transform="translate(351.181268 271.757332) scale(0.1 -0.1)">
       <defs>
        <path id="DejaVuSans-34" d="M 2419 4116 
L 825 1625 
L 2419 1625 
L 2419 4116 
z
M 2253 4666 
L 3047 4666 
L 3047 1625 
L 3713 1625 
L 3713 1100 
L 3047 1100 
L 3047 0 
L 2419 0 
L 2419 1100 
L 313 1100 
L 313 1709 
L 2253 4666 
z
" transform="scale(0.015625)"/>
       </defs>
       <use xlink:href="#DejaVuSans-34"/>
       <use xlink:href="#DejaVuSans-2e" x="63.623047"/>
       <use xlink:href="#DejaVuSans-30" x="95.410156"/>
      </g>
     </g>
    </g>
    <g id="xtick_8">
     <g id="line2d_8">
      <g>
       <use xlink:href="#m7dd92ec299" x="405.175191" y="257.158895" style="stroke: #000000; stroke-width: 0.8"/>
      </g>
     </g>
     <g id="text_8">
      <!-- 4.5 -->
      <g transform="translate(397.223628 271.757332) scale(0.1 -0.1)">
       <use xlink:href="#DejaVuSans-34"/>
       <use xlink:href="#DejaVuSans-2e" x="63.623047"/>
       <use xlink:href="#DejaVuSans-35" x="95.410156"/>
      </g>
     </g>
    </g>
    <g id="text_9">
     <!-- wavelength [Å] -->
     <g transform="translate(201.385193 287.119832) scale(0.1 -0.1)">
      <defs>
       <path id="DejaVuSans-77" d="M 269 3500 
L 844 3500 
L 1563 769 
L 2278 3500 
L 2956 3500 
L 3675 769 
L 4391 3500 
L 4966 3500 
L 4050 0 
L 3372 0 
L 2619 2869 
L 1863 0 
L 1184 0 
L 269 3500 
z
" transform="scale(0.015625)"/>
       <path id="DejaVuSans-61" d="M 2194 1759 
Q 1497 1759 1228 1600 
Q 959 1441 959 1056 
Q 959 750 1161 570 
Q 1363 391 1709 391 
Q 2188 391 2477 730 
Q 2766 1069 2766 1631 
L 2766 1759 
L 2194 1759 
z
M 3341 1997 
L 3341 0 
L 2766 0 
L 2766 531 
Q 2569 213 2275 61 
Q 1981 -91 1556 -91 
Q 1019 -91 701 211 
Q 384 513 384 1019 
Q 384 1609 779 1909 
Q 1175 2209 1959 2209 
L 2766 2209 
L 2766 2266 
Q 2766 2663 2505 2880 
Q 2244 3097 1772 3097 
Q 1472 3097 1187 3025 
Q 903 2953 641 2809 
L 641 3341 
Q 956 3463 1253 3523 
Q 1550 3584 1831 3584 
Q 2591 3584 2966 3190 
Q 3341 2797 3341 1997 
z
" transform="scale(0.015625)"/>
       <path id="DejaVuSans-76" d="M 191 3500 
L 800 3500 
L 1894 563 
L 2988 3500 
L 3597 3500 
L 2284 0 
L 1503 0 
L 191 3500 
z
" transform="scale(0.015625)"/>
       <path id="DejaVuSans-65" d="M 3597 1894 
L 3597 1613 
L 953 1613 
Q 991 1019 1311 708 
Q 1631 397 2203 397 
Q 2534 397 2845 478 
Q 3156 559 3463 722 
L 3463 178 
Q 3153 47 2828 -22 
Q 2503 -91 2169 -91 
Q 1331 -91 842 396 
Q 353 884 353 1716 
Q 353 2575 817 3079 
Q 1281 3584 2069 3584 
Q 2775 3584 3186 3129 
Q 3597 2675 3597 1894 
z
M 3022 2063 
Q 3016 2534 2758 2815 
Q 2500 3097 2075 3097 
Q 1594 3097 1305 2825 
Q 1016 2553 972 2059 
L 3022 2063 
z
" transform="scale(0.015625)"/>
       <path id="DejaVuSans-6c" d="M 603 4863 
L 1178 4863 
L 1178 0 
L 603 0 
L 603 4863 
z
" transform="scale(0.015625)"/>
       <path id="DejaVuSans-6e" d="M 3513 2113 
L 3513 0 
L 2938 0 
L 2938 2094 
Q 2938 2591 2744 2837 
Q 2550 3084 2163 3084 
Q 1697 3084 1428 2787 
Q 1159 2491 1159 1978 
L 1159 0 
L 581 0 
L 581 3500 
L 1159 3500 
L 1159 2956 
Q 1366 3272 1645 3428 
Q 1925 3584 2291 3584 
Q 2894 3584 3203 3211 
Q 3513 2838 3513 2113 
z
" transform="scale(0.015625)"/>
       <path id="DejaVuSans-67" d="M 2906 1791 
Q 2906 2416 2648 2759 
Q 2391 3103 1925 3103 
Q 1463 3103 1205 2759 
Q 947 2416 947 1791 
Q 947 1169 1205 825 
Q 1463 481 1925 481 
Q 2391 481 2648 825 
Q 2906 1169 2906 1791 
z
M 3481 434 
Q 3481 -459 3084 -895 
Q 2688 -1331 1869 -1331 
Q 1566 -1331 1297 -1286 
Q 1028 -1241 775 -1147 
L 775 -588 
Q 1028 -725 1275 -790 
Q 1522 -856 1778 -856 
Q 2344 -856 2625 -561 
Q 2906 -266 2906 331 
L 2906 616 
Q 2728 306 2450 153 
Q 2172 0 1784 0 
Q 1141 0 747 490 
Q 353 981 353 1791 
Q 353 2603 747 3093 
Q 1141 3584 1784 3584 
Q 2172 3584 2450 3431 
Q 2728 3278 2906 2969 
L 2906 3500 
L 3481 3500 
L 3481 434 
z
" transform="scale(0.015625)"/>
       <path id="DejaVuSans-74" d="M 1172 4494 
L 1172 3500 
L 2356 3500 
L 2356 3053 
L 1172 3053 
L 1172 1153 
Q 1172 725 1289 603 
Q 1406 481 1766 481 
L 2356 481 
L 2356 0 
L 1766 0 
Q 1100 0 847 248 
Q 594 497 594 1153 
L 594 3053 
L 172 3053 
L 172 3500 
L 594 3500 
L 594 4494 
L 1172 4494 
z
" transform="scale(0.015625)"/>
       <path id="DejaVuSans-68" d="M 3513 2113 
L 3513 0 
L 2938 0 
L 2938 2094 
Q 2938 2591 2744 2837 
Q 2550 3084 2163 3084 
Q 1697 3084 1428 2787 
Q 1159 2491 1159 1978 
L 1159 0 
L 581 0 
L 581 4863 
L 1159 4863 
L 1159 2956 
Q 1366 3272 1645 3428 
Q 1925 3584 2291 3584 
Q 2894 3584 3203 3211 
Q 3513 2838 3513 2113 
z
" transform="scale(0.015625)"/>
       <path id="DejaVuSans-20" transform="scale(0.015625)"/>
       <path id="DejaVuSans-5b" d="M 550 4863 
L 1875 4863 
L 1875 4416 
L 1125 4416 
L 1125 -397 
L 1875 -397 
L 1875 -844 
L 550 -844 
L 550 4863 
z
" transform="scale(0.015625)"/>
       <path id="DejaVuSans-c5" d="M 2663 5081 
Q 2663 5278 2523 5417 
Q 2384 5556 2188 5556 
Q 1988 5556 1852 5420 
Q 1716 5284 1716 5081 
Q 1716 4884 1853 4746 
Q 1991 4609 2188 4609 
Q 2384 4609 2523 4746 
Q 2663 4884 2663 5081 
z
M 2188 4044 
L 1338 1722 
L 3041 1722 
L 2188 4044 
z
M 1716 4366 
Q 1525 4494 1428 4673 
Q 1331 4853 1331 5081 
Q 1331 5441 1579 5691 
Q 1828 5941 2188 5941 
Q 2544 5941 2795 5689 
Q 3047 5438 3047 5081 
Q 3047 4863 2948 4678 
Q 2850 4494 2663 4366 
L 4325 0 
L 3669 0 
L 3244 1197 
L 1141 1197 
L 716 0 
L 50 0 
L 1716 4366 
z
" transform="scale(0.015625)"/>
       <path id="DejaVuSans-5d" d="M 1947 4863 
L 1947 -844 
L 622 -844 
L 622 -397 
L 1369 -397 
L 1369 4416 
L 622 4416 
L 622 4863 
L 1947 4863 
z
" transform="scale(0.015625)"/>
      </defs>
      <use xlink:href="#DejaVuSans-77"/>
      <use xlink:href="#DejaVuSans-61" x="81.787109"/>
      <use xlink:href="#DejaVuSans-76" x="143.066406"/>
      <use xlink:href="#DejaVuSans-65" x="202.246094"/>
      <use xlink:href="#DejaVuSans-6c" x="263.769531"/>
      <use xlink:href="#DejaVuSans-65" x="291.552734"/>
      <use xlink:href="#DejaVuSans-6e" x="353.076172"/>
      <use xlink:href="#DejaVuSans-67" x="416.455078"/>
      <use xlink:href="#DejaVuSans-74" x="479.931641"/>
      <use xlink:href="#DejaVuSans-68" x="519.140625"/>
      <use xlink:href="#DejaVuSans-20" x="582.519531"/>
      <use xlink:href="#DejaVuSans-5b" x="614.306641"/>
      <use xlink:href="#DejaVuSans-c5" x="653.320312"/>
      <use xlink:href="#DejaVuSans-5d" x="721.728516"/>
     </g>
    </g>
   </g>
   <g id="matplotlib.axis_2">
    <g id="ytick_1">
     <g id="line2d_9">
      <defs>
       <path id="mc3b529154b" d="M 0 0 
L -3.5 0 
" style="stroke: #000000; stroke-width: 0.8"/>
      </defs>
      <g>
       <use xlink:href="#mc3b529154b" x="46.965625" y="246.484315" style="stroke: #000000; stroke-width: 0.8"/>
      </g>
     </g>
     <g id="text_10">
      <!-- 0 -->
      <g transform="translate(33.603125 250.283533) scale(0.1 -0.1)">
       <use xlink:href="#DejaVuSans-30"/>
      </g>
     </g>
    </g>
    <g id="ytick_2">
     <g id="line2d_10">
      <g>
       <use xlink:href="#mc3b529154b" x="46.965625" y="220.289025" style="stroke: #000000; stroke-width: 0.8"/>
      </g>
     </g>
     <g id="text_11">
      <!-- 100 -->
      <g transform="translate(20.878125 224.088244) scale(0.1 -0.1)">
       <use xlink:href="#DejaVuSans-31"/>
       <use xlink:href="#DejaVuSans-30" x="63.623047"/>
       <use xlink:href="#DejaVuSans-30" x="127.246094"/>
      </g>
     </g>
    </g>
    <g id="ytick_3">
     <g id="line2d_11">
      <g>
       <use xlink:href="#mc3b529154b" x="46.965625" y="194.093736" style="stroke: #000000; stroke-width: 0.8"/>
      </g>
     </g>
     <g id="text_12">
      <!-- 200 -->
      <g transform="translate(20.878125 197.892954) scale(0.1 -0.1)">
       <use xlink:href="#DejaVuSans-32"/>
       <use xlink:href="#DejaVuSans-30" x="63.623047"/>
       <use xlink:href="#DejaVuSans-30" x="127.246094"/>
      </g>
     </g>
    </g>
    <g id="ytick_4">
     <g id="line2d_12">
      <g>
       <use xlink:href="#mc3b529154b" x="46.965625" y="167.898446" style="stroke: #000000; stroke-width: 0.8"/>
      </g>
     </g>
     <g id="text_13">
      <!-- 300 -->
      <g transform="translate(20.878125 171.697665) scale(0.1 -0.1)">
       <use xlink:href="#DejaVuSans-33"/>
       <use xlink:href="#DejaVuSans-30" x="63.623047"/>
       <use xlink:href="#DejaVuSans-30" x="127.246094"/>
      </g>
     </g>
    </g>
    <g id="ytick_5">
     <g id="line2d_13">
      <g>
       <use xlink:href="#mc3b529154b" x="46.965625" y="141.703157" style="stroke: #000000; stroke-width: 0.8"/>
      </g>
     </g>
     <g id="text_14">
      <!-- 400 -->
      <g transform="translate(20.878125 145.502375) scale(0.1 -0.1)">
       <use xlink:href="#DejaVuSans-34"/>
       <use xlink:href="#DejaVuSans-30" x="63.623047"/>
       <use xlink:href="#DejaVuSans-30" x="127.246094"/>
      </g>
     </g>
    </g>
    <g id="ytick_6">
     <g id="line2d_14">
      <g>
       <use xlink:href="#mc3b529154b" x="46.965625" y="115.507867" style="stroke: #000000; stroke-width: 0.8"/>
      </g>
     </g>
     <g id="text_15">
      <!-- 500 -->
      <g transform="translate(20.878125 119.307086) scale(0.1 -0.1)">
       <use xlink:href="#DejaVuSans-35"/>
       <use xlink:href="#DejaVuSans-30" x="63.623047"/>
       <use xlink:href="#DejaVuSans-30" x="127.246094"/>
      </g>
     </g>
    </g>
    <g id="ytick_7">
     <g id="line2d_15">
      <g>
       <use xlink:href="#mc3b529154b" x="46.965625" y="89.312578" style="stroke: #000000; stroke-width: 0.8"/>
      </g>
     </g>
     <g id="text_16">
      <!-- 600 -->
      <g transform="translate(20.878125 93.111797) scale(0.1 -0.1)">
       <defs>
        <path id="DejaVuSans-36" d="M 2113 2584 
Q 1688 2584 1439 2293 
Q 1191 2003 1191 1497 
Q 1191 994 1439 701 
Q 1688 409 2113 409 
Q 2538 409 2786 701 
Q 3034 994 3034 1497 
Q 3034 2003 2786 2293 
Q 2538 2584 2113 2584 
z
M 3366 4563 
L 3366 3988 
Q 3128 4100 2886 4159 
Q 2644 4219 2406 4219 
Q 1781 4219 1451 3797 
Q 1122 3375 1075 2522 
Q 1259 2794 1537 2939 
Q 1816 3084 2150 3084 
Q 2853 3084 3261 2657 
Q 3669 2231 3669 1497 
Q 3669 778 3244 343 
Q 2819 -91 2113 -91 
Q 1303 -91 875 529 
Q 447 1150 447 2328 
Q 447 3434 972 4092 
Q 1497 4750 2381 4750 
Q 2619 4750 2861 4703 
Q 3103 4656 3366 4563 
z
" transform="scale(0.015625)"/>
       </defs>
       <use xlink:href="#DejaVuSans-36"/>
       <use xlink:href="#DejaVuSans-30" x="63.623047"/>
       <use xlink:href="#DejaVuSans-30" x="127.246094"/>
      </g>
     </g>
    </g>
    <g id="ytick_8">
     <g id="line2d_16">
      <g>
       <use xlink:href="#mc3b529154b" x="46.965625" y="63.117288" style="stroke: #000000; stroke-width: 0.8"/>
      </g>
     </g>
     <g id="text_17">
      <!-- 700 -->
      <g transform="translate(20.878125 66.916507) scale(0.1 -0.1)">
       <defs>
        <path id="DejaVuSans-37" d="M 525 4666 
L 3525 4666 
L 3525 4397 
L 1831 0 
L 1172 0 
L 2766 4134 
L 525 4134 
L 525 4666 
z
" transform="scale(0.015625)"/>
       </defs>
       <use xlink:href="#DejaVuSans-37"/>
       <use xlink:href="#DejaVuSans-30" x="63.623047"/>
       <use xlink:href="#DejaVuSans-30" x="127.246094"/>
      </g>
     </g>
    </g>
    <g id="ytick_9">
     <g id="line2d_17">
      <g>
       <use xlink:href="#mc3b529154b" x="46.965625" y="36.921999" style="stroke: #000000; stroke-width: 0.8"/>
      </g>
     </g>
     <g id="text_18">
      <!-- 800 -->
      <g transform="translate(20.878125 40.721218) scale(0.1 -0.1)">
       <defs>
        <path id="DejaVuSans-38" d="M 2034 2216 
Q 1584 2216 1326 1975 
Q 1069 1734 1069 1313 
Q 1069 891 1326 650 
Q 1584 409 2034 409 
Q 2484 409 2743 651 
Q 3003 894 3003 1313 
Q 3003 1734 2745 1975 
Q 2488 2216 2034 2216 
z
M 1403 2484 
Q 997 2584 770 2862 
Q 544 3141 544 3541 
Q 544 4100 942 4425 
Q 1341 4750 2034 4750 
Q 2731 4750 3128 4425 
Q 3525 4100 3525 3541 
Q 3525 3141 3298 2862 
Q 3072 2584 2669 2484 
Q 3125 2378 3379 2068 
Q 3634 1759 3634 1313 
Q 3634 634 3220 271 
Q 2806 -91 2034 -91 
Q 1263 -91 848 271 
Q 434 634 434 1313 
Q 434 1759 690 2068 
Q 947 2378 1403 2484 
z
M 1172 3481 
Q 1172 3119 1398 2916 
Q 1625 2713 2034 2713 
Q 2441 2713 2670 2916 
Q 2900 3119 2900 3481 
Q 2900 3844 2670 4047 
Q 2441 4250 2034 4250 
Q 1625 4250 1398 4047 
Q 1172 3844 1172 3481 
z
" transform="scale(0.015625)"/>
       </defs>
       <use xlink:href="#DejaVuSans-38"/>
       <use xlink:href="#DejaVuSans-30" x="63.623047"/>
       <use xlink:href="#DejaVuSans-30" x="127.246094"/>
      </g>
     </g>
    </g>
    <g id="text_19">
     <!-- [counts] -->
     <g transform="translate(14.798437 160.35101) rotate(-90) scale(0.1 -0.1)">
      <defs>
       <path id="DejaVuSans-63" d="M 3122 3366 
L 3122 2828 
Q 2878 2963 2633 3030 
Q 2388 3097 2138 3097 
Q 1578 3097 1268 2742 
Q 959 2388 959 1747 
Q 959 1106 1268 751 
Q 1578 397 2138 397 
Q 2388 397 2633 464 
Q 2878 531 3122 666 
L 3122 134 
Q 2881 22 2623 -34 
Q 2366 -91 2075 -91 
Q 1284 -91 818 406 
Q 353 903 353 1747 
Q 353 2603 823 3093 
Q 1294 3584 2113 3584 
Q 2378 3584 2631 3529 
Q 2884 3475 3122 3366 
z
" transform="scale(0.015625)"/>
       <path id="DejaVuSans-6f" d="M 1959 3097 
Q 1497 3097 1228 2736 
Q 959 2375 959 1747 
Q 959 1119 1226 758 
Q 1494 397 1959 397 
Q 2419 397 2687 759 
Q 2956 1122 2956 1747 
Q 2956 2369 2687 2733 
Q 2419 3097 1959 3097 
z
M 1959 3584 
Q 2709 3584 3137 3096 
Q 3566 2609 3566 1747 
Q 3566 888 3137 398 
Q 2709 -91 1959 -91 
Q 1206 -91 779 398 
Q 353 888 353 1747 
Q 353 2609 779 3096 
Q 1206 3584 1959 3584 
z
" transform="scale(0.015625)"/>
       <path id="DejaVuSans-75" d="M 544 1381 
L 544 3500 
L 1119 3500 
L 1119 1403 
Q 1119 906 1312 657 
Q 1506 409 1894 409 
Q 2359 409 2629 706 
Q 2900 1003 2900 1516 
L 2900 3500 
L 3475 3500 
L 3475 0 
L 2900 0 
L 2900 538 
Q 2691 219 2414 64 
Q 2138 -91 1772 -91 
Q 1169 -91 856 284 
Q 544 659 544 1381 
z
M 1991 3584 
L 1991 3584 
z
" transform="scale(0.015625)"/>
       <path id="DejaVuSans-73" d="M 2834 3397 
L 2834 2853 
Q 2591 2978 2328 3040 
Q 2066 3103 1784 3103 
Q 1356 3103 1142 2972 
Q 928 2841 928 2578 
Q 928 2378 1081 2264 
Q 1234 2150 1697 2047 
L 1894 2003 
Q 2506 1872 2764 1633 
Q 3022 1394 3022 966 
Q 3022 478 2636 193 
Q 2250 -91 1575 -91 
Q 1294 -91 989 -36 
Q 684 19 347 128 
L 347 722 
Q 666 556 975 473 
Q 1284 391 1588 391 
Q 1994 391 2212 530 
Q 2431 669 2431 922 
Q 2431 1156 2273 1281 
Q 2116 1406 1581 1522 
L 1381 1569 
Q 847 1681 609 1914 
Q 372 2147 372 2553 
Q 372 3047 722 3315 
Q 1072 3584 1716 3584 
Q 2034 3584 2315 3537 
Q 2597 3491 2834 3397 
z
" transform="scale(0.015625)"/>
      </defs>
      <use xlink:href="#DejaVuSans-5b"/>
      <use xlink:href="#DejaVuSans-63" x="39.013672"/>
      <use xlink:href="#DejaVuSans-6f" x="93.994141"/>
      <use xlink:href="#DejaVuSans-75" x="155.175781"/>
      <use xlink:href="#DejaVuSans-6e" x="218.554688"/>
      <use xlink:href="#DejaVuSans-74" x="281.933594"/>
      <use xlink:href="#DejaVuSans-73" x="321.142578"/>
      <use xlink:href="#DejaVuSans-5d" x="373.242188"/>
     </g>
    </g>
   </g>
   <g id="patch_3">
    <path d="M 46.965625 257.158895 
L 46.965625 22.318125 
" style="fill: none; stroke: #000000; stroke-width: 0.8; stroke-linejoin: miter; stroke-linecap: square"/>
   </g>
   <g id="patch_4">
    <path d="M 431.87976 257.158895 
L 431.87976 22.318125 
" style="fill: none; stroke: #000000; stroke-width: 0.8; stroke-linejoin: miter; stroke-linecap: square"/>
   </g>
   <g id="patch_5">
    <path d="M 46.965625 257.158895 
L 431.87976 257.158895 
" style="fill: none; stroke: #000000; stroke-width: 0.8; stroke-linejoin: miter; stroke-linecap: square"/>
   </g>
   <g id="patch_6">
    <path d="M 46.965625 22.318125 
L 431.87976 22.318125 
" style="fill: none; stroke: #000000; stroke-width: 0.8; stroke-linejoin: miter; stroke-linecap: square"/>
   </g>
   <g id="text_20">
    <!-- Pixel 1 -->
    <g transform="translate(219.82613 16.318125) scale(0.12 -0.12)">
     <defs>
      <path id="DejaVuSans-50" d="M 1259 4147 
L 1259 2394 
L 2053 2394 
Q 2494 2394 2734 2622 
Q 2975 2850 2975 3272 
Q 2975 3691 2734 3919 
Q 2494 4147 2053 4147 
L 1259 4147 
z
M 628 4666 
L 2053 4666 
Q 2838 4666 3239 4311 
Q 3641 3956 3641 3272 
Q 3641 2581 3239 2228 
Q 2838 1875 2053 1875 
L 1259 1875 
L 1259 0 
L 628 0 
L 628 4666 
z
" transform="scale(0.015625)"/>
      <path id="DejaVuSans-69" d="M 603 3500 
L 1178 3500 
L 1178 0 
L 603 0 
L 603 3500 
z
M 603 4863 
L 1178 4863 
L 1178 4134 
L 603 4134 
L 603 4863 
z
" transform="scale(0.015625)"/>
      <path id="DejaVuSans-78" d="M 3513 3500 
L 2247 1797 
L 3578 0 
L 2900 0 
L 1881 1375 
L 863 0 
L 184 0 
L 1544 1831 
L 300 3500 
L 978 3500 
L 1906 2253 
L 2834 3500 
L 3513 3500 
z
" transform="scale(0.015625)"/>
     </defs>
     <use xlink:href="#DejaVuSans-50"/>
     <use xlink:href="#DejaVuSans-69" x="58.052734"/>
     <use xlink:href="#DejaVuSans-78" x="85.835938"/>
     <use xlink:href="#DejaVuSans-65" x="141.890625"/>
     <use xlink:href="#DejaVuSans-6c" x="203.414062"/>
     <use xlink:href="#DejaVuSans-20" x="231.197266"/>
     <use xlink:href="#DejaVuSans-31" x="262.984375"/>
    </g>
   </g>
   <g id="legend_1">
    <g id="patch_7">
     <path d="M 327.876635 59.9525 
L 424.87976 59.9525 
Q 426.87976 59.9525 426.87976 57.9525 
L 426.87976 29.318125 
Q 426.87976 27.318125 424.87976 27.318125 
L 327.876635 27.318125 
Q 325.876635 27.318125 325.876635 29.318125 
L 325.876635 57.9525 
Q 325.876635 59.9525 327.876635 59.9525 
z
" style="fill: #ffffff; opacity: 0.8; stroke: #cccccc; stroke-linejoin: miter"/>
    </g>
    <g id="line2d_18">
     <path d="M 329.876635 35.416562 
L 329.876635 35.416562 
L 339.876635 35.416562 
L 339.876635 35.416562 
L 349.876635 35.416562 
" style="fill: none; stroke: #1f77b4; stroke-width: 1.5; stroke-linecap: square"/>
    </g>
    <g id="text_21">
     <!-- wfm -->
     <g transform="translate(357.876635 38.916562) scale(0.1 -0.1)">
      <defs>
       <path id="DejaVuSans-66" d="M 2375 4863 
L 2375 4384 
L 1825 4384 
Q 1516 4384 1395 4259 
Q 1275 4134 1275 3809 
L 1275 3500 
L 2222 3500 
L 2222 3053 
L 1275 3053 
L 1275 0 
L 697 0 
L 697 3053 
L 147 3053 
L 147 3500 
L 697 3500 
L 697 3744 
Q 697 4328 969 4595 
Q 1241 4863 1831 4863 
L 2375 4863 
z
" transform="scale(0.015625)"/>
       <path id="DejaVuSans-6d" d="M 3328 2828 
Q 3544 3216 3844 3400 
Q 4144 3584 4550 3584 
Q 5097 3584 5394 3201 
Q 5691 2819 5691 2113 
L 5691 0 
L 5113 0 
L 5113 2094 
Q 5113 2597 4934 2840 
Q 4756 3084 4391 3084 
Q 3944 3084 3684 2787 
Q 3425 2491 3425 1978 
L 3425 0 
L 2847 0 
L 2847 2094 
Q 2847 2600 2669 2842 
Q 2491 3084 2119 3084 
Q 1678 3084 1418 2786 
Q 1159 2488 1159 1978 
L 1159 0 
L 581 0 
L 581 3500 
L 1159 3500 
L 1159 2956 
Q 1356 3278 1631 3431 
Q 1906 3584 2284 3584 
Q 2666 3584 2933 3390 
Q 3200 3197 3328 2828 
z
" transform="scale(0.015625)"/>
      </defs>
      <use xlink:href="#DejaVuSans-77"/>
      <use xlink:href="#DejaVuSans-66" x="81.787109"/>
      <use xlink:href="#DejaVuSans-6d" x="116.992188"/>
     </g>
    </g>
    <g id="line2d_19">
     <path d="M 329.876635 50.094687 
L 329.876635 50.094687 
L 339.876635 50.094687 
L 339.876635 50.094687 
L 349.876635 50.094687 
" style="fill: none; stroke: #ff7f0e; stroke-width: 1.5; stroke-linecap: square"/>
    </g>
    <g id="text_22">
     <!-- ground_truth -->
     <g transform="translate(357.876635 53.594687) scale(0.1 -0.1)">
      <defs>
       <path id="DejaVuSans-72" d="M 2631 2963 
Q 2534 3019 2420 3045 
Q 2306 3072 2169 3072 
Q 1681 3072 1420 2755 
Q 1159 2438 1159 1844 
L 1159 0 
L 581 0 
L 581 3500 
L 1159 3500 
L 1159 2956 
Q 1341 3275 1631 3429 
Q 1922 3584 2338 3584 
Q 2397 3584 2469 3576 
Q 2541 3569 2628 3553 
L 2631 2963 
z
" transform="scale(0.015625)"/>
       <path id="DejaVuSans-64" d="M 2906 2969 
L 2906 4863 
L 3481 4863 
L 3481 0 
L 2906 0 
L 2906 525 
Q 2725 213 2448 61 
Q 2172 -91 1784 -91 
Q 1150 -91 751 415 
Q 353 922 353 1747 
Q 353 2572 751 3078 
Q 1150 3584 1784 3584 
Q 2172 3584 2448 3432 
Q 2725 3281 2906 2969 
z
M 947 1747 
Q 947 1113 1208 752 
Q 1469 391 1925 391 
Q 2381 391 2643 752 
Q 2906 1113 2906 1747 
Q 2906 2381 2643 2742 
Q 2381 3103 1925 3103 
Q 1469 3103 1208 2742 
Q 947 2381 947 1747 
z
" transform="scale(0.015625)"/>
       <path id="DejaVuSans-5f" d="M 3263 -1063 
L 3263 -1509 
L -63 -1509 
L -63 -1063 
L 3263 -1063 
z
" transform="scale(0.015625)"/>
      </defs>
      <use xlink:href="#DejaVuSans-67"/>
      <use xlink:href="#DejaVuSans-72" x="63.476562"/>
      <use xlink:href="#DejaVuSans-6f" x="102.339844"/>
      <use xlink:href="#DejaVuSans-75" x="163.521484"/>
      <use xlink:href="#DejaVuSans-6e" x="226.900391"/>
      <use xlink:href="#DejaVuSans-64" x="290.279297"/>
      <use xlink:href="#DejaVuSans-5f" x="353.755859"/>
      <use xlink:href="#DejaVuSans-74" x="403.755859"/>
      <use xlink:href="#DejaVuSans-72" x="442.964844"/>
      <use xlink:href="#DejaVuSans-75" x="484.078125"/>
      <use xlink:href="#DejaVuSans-74" x="547.457031"/>
      <use xlink:href="#DejaVuSans-68" x="586.666016"/>
     </g>
    </g>
   </g>
   <g id="line2d_20">
    <path d="M 64.461722 246.484315 
L 73.209771 246.484315 
L 73.209771 245.960409 
L 74.95938 245.960409 
L 74.95938 239.935492 
L 76.70899 239.935492 
L 76.70899 233.124717 
L 78.4586 233.124717 
L 78.4586 225.004177 
L 80.208209 225.004177 
L 80.208209 221.860742 
L 81.957819 221.860742 
L 81.957819 211.64458 
L 83.707429 211.64458 
L 83.707429 201.69037 
L 85.457039 201.69037 
L 85.457039 189.640536 
L 87.206648 189.640536 
L 87.206648 187.544913 
L 88.956258 187.544913 
L 88.956258 163.183294 
L 92.455477 163.183294 
L 92.455477 154.800801 
L 94.205087 154.800801 
L 94.205087 143.012921 
L 95.954697 143.012921 
L 95.954697 147.46612 
L 97.704306 147.46612 
L 97.704306 119.699114 
L 99.453916 119.699114 
L 99.453916 132.534805 
L 101.203526 132.534805 
L 101.203526 121.532784 
L 102.953136 121.532784 
L 102.953136 103.458034 
L 104.702745 103.458034 
L 104.702745 115.245914 
L 106.452355 115.245914 
L 106.452355 102.672175 
L 108.201965 102.672175 
L 108.201965 87.478908 
L 109.951574 87.478908 
L 109.951574 86.955002 
L 111.701184 86.955002 
L 111.701184 91.146248 
L 113.450794 91.146248 
L 113.450794 78.048603 
L 115.200403 78.048603 
L 115.200403 75.95298 
L 116.950013 75.95298 
L 116.950013 60.497759 
L 118.699623 60.497759 
L 118.699623 65.99877 
L 120.449233 65.99877 
L 120.449233 41.375198 
L 122.198842 41.375198 
L 122.198842 54.472843 
L 123.948452 54.472843 
L 123.948452 48.185973 
L 125.698062 48.185973 
L 125.698062 42.161057 
L 127.447671 42.161057 
L 127.447671 32.992705 
L 129.197281 32.992705 
L 129.197281 44.25668 
L 130.946891 44.25668 
L 130.946891 37.445905 
L 132.696501 37.445905 
L 132.696501 45.042539 
L 134.44611 45.042539 
L 134.44611 36.921999 
L 136.19572 36.921999 
L 136.19572 58.664089 
L 137.94533 58.664089 
L 137.94533 59.449948 
L 139.694939 59.449948 
L 139.694939 66.522676 
L 141.444549 66.522676 
L 141.444549 57.87823 
L 143.194159 57.87823 
L 143.194159 62.069477 
L 144.943768 62.069477 
L 144.943768 56.306513 
L 146.693378 56.306513 
L 146.693378 67.570488 
L 148.442988 67.570488 
L 148.442988 74.381263 
L 150.192598 74.381263 
L 150.192598 75.429074 
L 151.942207 75.429074 
L 151.942207 80.144226 
L 153.691817 80.144226 
L 153.691817 63.641194 
L 155.441427 63.641194 
L 155.441427 84.335473 
L 157.191036 84.335473 
L 157.191036 71.499781 
L 158.940646 71.499781 
L 158.940646 73.071498 
L 160.690256 73.071498 
L 160.690256 84.07352 
L 162.439866 84.07352 
L 162.439866 91.146248 
L 164.189475 91.146248 
L 164.189475 87.74086 
L 165.939085 87.74086 
L 165.939085 82.23985 
L 167.688695 82.23985 
L 167.688695 89.312578 
L 169.438304 89.312578 
L 169.438304 95.337494 
L 171.187914 95.337494 
L 171.187914 86.169143 
L 172.937524 86.169143 
L 172.937524 79.358368 
L 174.687133 79.358368 
L 174.687133 81.192038 
L 176.436743 81.192038 
L 176.436743 94.551636 
L 178.186353 94.551636 
L 178.186353 89.050625 
L 179.935963 89.050625 
L 179.935963 92.979918 
L 181.685572 92.979918 
L 181.685572 91.408201 
L 183.435182 91.408201 
L 183.435182 96.385306 
L 185.184792 96.385306 
L 185.184792 91.932107 
L 186.934401 91.932107 
L 186.934401 96.123353 
L 188.684011 96.123353 
L 188.684011 104.243893 
L 190.433621 104.243893 
L 190.433621 105.291704 
L 192.18323 105.291704 
L 192.18323 102.14827 
L 193.93284 102.14827 
L 193.93284 100.052646 
L 195.68245 100.052646 
L 195.68245 98.742882 
L 197.43206 98.742882 
L 197.43206 103.458034 
L 199.181669 103.458034 
L 199.181669 114.983961 
L 200.931279 114.983961 
L 200.931279 129.391371 
L 202.680889 129.391371 
L 202.680889 117.341538 
L 204.430498 117.341538 
L 204.430498 130.701135 
L 206.180108 130.701135 
L 206.180108 139.345581 
L 209.679328 139.345581 
L 209.679328 148.775885 
L 211.428937 148.775885 
L 211.428937 162.921341 
L 213.178547 162.921341 
L 213.178547 168.684305 
L 214.928157 168.684305 
L 214.928157 169.994069 
L 216.677766 169.994069 
L 216.677766 188.330772 
L 218.427376 188.330772 
L 218.427376 185.187337 
L 220.176986 185.187337 
L 220.176986 199.594746 
L 221.926595 199.594746 
L 221.926595 200.904511 
L 223.676205 200.904511 
L 223.676205 203.785993 
L 225.425815 203.785993 
L 225.425815 211.382627 
L 227.175425 211.382627 
L 227.175425 216.883637 
L 228.925034 216.883637 
L 228.925034 227.885659 
L 230.674644 227.885659 
L 230.674644 228.671518 
L 232.424254 228.671518 
L 232.424254 232.862764 
L 234.173863 232.862764 
L 234.173863 238.887681 
L 235.923473 238.887681 
L 235.923473 244.126738 
L 237.673083 244.126738 
L 237.673083 245.17455 
L 239.422693 245.17455 
L 239.422693 238.101822 
L 241.172302 238.101822 
L 241.172302 229.457376 
L 242.921912 229.457376 
L 242.921912 226.575895 
L 244.671522 226.575895 
L 244.671522 216.621685 
L 246.421131 216.621685 
L 246.421131 213.216297 
L 248.170741 213.216297 
L 248.170741 204.571851 
L 249.920351 204.571851 
L 249.920351 204.047946 
L 251.66996 204.047946 
L 251.66996 190.426395 
L 253.41957 190.426395 
L 253.41957 184.139526 
L 255.16918 184.139526 
L 255.16918 186.235149 
L 256.91879 186.235149 
L 256.91879 172.089692 
L 258.668399 172.089692 
L 258.668399 170.779928 
L 260.418009 170.779928 
L 260.418009 161.349624 
L 262.167619 161.349624 
L 262.167619 160.563765 
L 263.917228 160.563765 
L 263.917228 155.848613 
L 265.666838 155.848613 
L 265.666838 154.276896 
L 267.416448 154.276896 
L 267.416448 142.750968 
L 269.166057 142.750968 
L 269.166057 143.536827 
L 270.915667 143.536827 
L 270.915667 144.322686 
L 272.665277 144.322686 
L 272.665277 147.990026 
L 274.414887 147.990026 
L 274.414887 128.081606 
L 276.164496 128.081606 
L 276.164496 117.60349 
L 277.914106 117.60349 
L 277.914106 122.05669 
L 279.663716 122.05669 
L 279.663716 125.200124 
L 281.413325 125.200124 
L 281.413325 118.127396 
L 283.162935 118.127396 
L 283.162935 116.031773 
L 284.912545 116.031773 
L 284.912545 120.746925 
L 286.662155 120.746925 
L 286.662155 107.125375 
L 288.411764 107.125375 
L 288.411764 113.93615 
L 290.161374 113.93615 
L 290.161374 95.599447 
L 291.910984 95.599447 
L 291.910984 112.364433 
L 293.660593 112.364433 
L 293.660593 108.435139 
L 295.410203 108.435139 
L 295.410203 107.125375 
L 297.159813 107.125375 
L 297.159813 126.771842 
L 298.909422 126.771842 
L 298.909422 114.983961 
L 300.659032 114.983961 
L 300.659032 117.60349 
L 302.408642 117.60349 
L 302.408642 112.10248 
L 304.158252 112.10248 
L 304.158252 126.247936 
L 305.907861 126.247936 
L 305.907861 128.343559 
L 307.657471 128.343559 
L 307.657471 119.175208 
L 309.407081 119.175208 
L 309.407081 120.484972 
L 311.15669 120.484972 
L 311.15669 124.676219 
L 312.9063 124.676219 
L 312.9063 130.439182 
L 314.65591 130.439182 
L 314.65591 125.985983 
L 316.405519 125.985983 
L 316.405519 128.343559 
L 318.155129 128.343559 
L 318.155129 140.393392 
L 319.904739 140.393392 
L 319.904739 151.133461 
L 321.654349 151.133461 
L 321.654349 139.869486 
L 323.403958 139.869486 
L 323.403958 147.990026 
L 325.153568 147.990026 
L 325.153568 146.156356 
L 326.903178 146.156356 
L 326.903178 144.060733 
L 328.652787 144.060733 
L 328.652787 147.990026 
L 330.402397 147.990026 
L 330.402397 147.728073 
L 332.152007 147.728073 
L 332.152007 157.42033 
L 333.901617 157.42033 
L 333.901617 162.921341 
L 335.651226 162.921341 
L 335.651226 159.515954 
L 337.400836 159.515954 
L 337.400836 157.944236 
L 339.150446 157.944236 
L 339.150446 157.158377 
L 340.900055 157.158377 
L 340.900055 156.110566 
L 342.649665 156.110566 
L 342.649665 174.971174 
L 344.399275 174.971174 
L 344.399275 158.730095 
L 346.148884 158.730095 
L 346.148884 166.588682 
L 347.898494 166.588682 
L 347.898494 173.137504 
L 349.648104 173.137504 
L 349.648104 172.351645 
L 351.397714 172.351645 
L 351.397714 170.779928 
L 353.147323 170.779928 
L 353.147323 180.210232 
L 354.896933 180.210232 
L 354.896933 185.973196 
L 356.646543 185.973196 
L 356.646543 179.162421 
L 358.396152 179.162421 
L 358.396152 179.424374 
L 360.145762 179.424374 
L 360.145762 181.78195 
L 361.895372 181.78195 
L 361.895372 191.212254 
L 363.644982 191.212254 
L 363.644982 188.854678 
L 365.394591 188.854678 
L 365.394591 191.474207 
L 367.144201 191.474207 
L 367.144201 194.879594 
L 368.893811 194.879594 
L 368.893811 202.214275 
L 370.64342 202.214275 
L 370.64342 205.619663 
L 372.39303 205.619663 
L 372.39303 206.929427 
L 374.14264 206.929427 
L 374.14264 213.740203 
L 375.892249 213.740203 
L 375.892249 215.31192 
L 377.641859 215.31192 
L 377.641859 219.503166 
L 379.391469 219.503166 
L 379.391469 220.812931 
L 381.141079 220.812931 
L 381.141079 218.193402 
L 382.890688 218.193402 
L 382.890688 226.837847 
L 384.640298 226.837847 
L 384.640298 226.575895 
L 386.389908 226.575895 
L 386.389908 229.719329 
L 388.139517 229.719329 
L 388.139517 233.38667 
L 389.889127 233.38667 
L 389.889127 235.482293 
L 393.388347 235.482293 
L 393.388347 239.673539 
L 395.137956 239.673539 
L 395.137956 240.197445 
L 396.887566 240.197445 
L 396.887566 241.50721 
L 398.637176 241.50721 
L 398.637176 244.388691 
L 400.386785 244.388691 
L 400.386785 245.436503 
L 402.136395 245.436503 
L 402.136395 244.650644 
L 403.886005 244.650644 
L 403.886005 246.484315 
L 405.635614 246.484315 
L 405.635614 245.960409 
L 407.385224 245.960409 
L 407.385224 246.484315 
L 414.383663 246.484315 
L 414.383663 246.484315 
" clip-path="url(#pfd96ae38f6)" style="fill: none; stroke: #1f77b4; stroke-width: 1.5; stroke-linecap: square"/>
   </g>
   <g id="line2d_21">
    <path d="M 64.461722 246.484315 
L 73.209771 246.484315 
L 73.209771 242.293068 
L 74.95938 242.293068 
L 74.95938 235.22034 
L 76.70899 235.22034 
L 76.70899 229.195424 
L 78.4586 229.195424 
L 78.4586 224.480271 
L 80.208209 224.480271 
L 80.208209 217.407543 
L 81.957819 217.407543 
L 81.957819 209.810909 
L 83.707429 209.810909 
L 83.707429 193.56983 
L 85.457039 193.56983 
L 85.457039 189.378584 
L 87.206648 189.378584 
L 87.206648 179.686326 
L 88.956258 179.686326 
L 88.956258 165.54087 
L 90.705868 165.54087 
L 90.705868 163.445247 
L 92.455477 163.445247 
L 92.455477 154.276896 
L 94.205087 154.276896 
L 94.205087 144.846591 
L 95.954697 144.846591 
L 95.954697 133.84457 
L 97.704306 133.84457 
L 97.704306 130.963088 
L 99.453916 130.963088 
L 99.453916 132.534805 
L 101.203526 132.534805 
L 101.203526 122.842548 
L 102.953136 122.842548 
L 102.953136 110.792715 
L 104.702745 110.792715 
L 104.702745 114.198103 
L 106.452355 114.198103 
L 106.452355 99.528741 
L 108.201965 99.528741 
L 108.201965 93.503824 
L 109.951574 93.503824 
L 109.951574 95.075541 
L 111.701184 95.075541 
L 111.701184 89.312578 
L 113.450794 89.312578 
L 113.450794 83.549614 
L 115.200403 83.549614 
L 115.200403 84.335473 
L 116.950013 84.335473 
L 116.950013 62.593383 
L 118.699623 62.593383 
L 118.699623 63.379241 
L 120.449233 63.379241 
L 120.449233 49.233785 
L 122.198842 49.233785 
L 122.198842 57.092372 
L 123.948452 57.092372 
L 123.948452 61.807524 
L 125.698062 61.807524 
L 125.698062 40.327387 
L 127.447671 40.327387 
L 127.447671 39.541528 
L 129.197281 39.541528 
L 129.197281 34.30247 
L 130.946891 34.30247 
L 130.946891 48.185973 
L 132.696501 48.185973 
L 132.696501 39.017622 
L 134.44611 39.017622 
L 134.44611 45.042539 
L 136.19572 45.042539 
L 136.19572 57.092372 
L 137.94533 57.092372 
L 137.94533 55.782607 
L 139.694939 55.782607 
L 139.694939 66.784629 
L 141.444549 66.784629 
L 141.444549 60.497759 
L 143.194159 60.497759 
L 143.194159 58.926042 
L 144.943768 58.926042 
L 144.943768 52.115267 
L 146.693378 52.115267 
L 146.693378 70.190016 
L 148.442988 70.190016 
L 148.442988 74.905169 
L 150.192598 74.905169 
L 150.192598 73.333451 
L 151.942207 73.333451 
L 151.942207 67.83244 
L 153.691817 67.83244 
L 153.691817 74.11931 
L 155.441427 74.11931 
L 155.441427 89.836484 
L 157.191036 89.836484 
L 157.191036 64.427053 
L 158.940646 64.427053 
L 158.940646 72.023687 
L 160.690256 72.023687 
L 160.690256 91.146248 
L 162.439866 91.146248 
L 162.439866 84.07352 
L 164.189475 84.07352 
L 164.189475 84.335473 
L 165.939085 84.335473 
L 165.939085 84.597426 
L 167.688695 84.597426 
L 167.688695 85.90719 
L 169.438304 85.90719 
L 169.438304 96.909212 
L 171.187914 96.909212 
L 171.187914 83.549614 
L 172.937524 83.549614 
L 172.937524 80.406179 
L 174.687133 80.406179 
L 174.687133 77.78665 
L 176.436743 77.78665 
L 176.436743 91.408201 
L 178.186353 91.408201 
L 178.186353 94.551636 
L 181.685572 94.551636 
L 181.685572 86.955002 
L 183.435182 86.955002 
L 183.435182 94.02773 
L 185.184792 94.02773 
L 185.184792 93.765777 
L 186.934401 93.765777 
L 186.934401 90.884295 
L 188.684011 90.884295 
L 188.684011 107.64928 
L 190.433621 107.64928 
L 190.433621 99.266788 
L 192.18323 99.266788 
L 192.18323 108.435139 
L 193.93284 108.435139 
L 193.93284 99.528741 
L 195.68245 99.528741 
L 195.68245 91.932107 
L 197.43206 91.932107 
L 197.43206 100.314599 
L 199.181669 100.314599 
L 199.181669 117.079585 
L 200.931279 117.079585 
L 200.931279 124.414266 
L 202.680889 124.414266 
L 202.680889 116.817632 
L 204.430498 116.817632 
L 204.430498 122.580595 
L 206.180108 122.580595 
L 206.180108 131.486994 
L 207.929718 131.486994 
L 207.929718 142.750968 
L 209.679328 142.750968 
L 209.679328 146.942215 
L 211.428937 146.942215 
L 211.428937 160.825718 
L 213.178547 160.825718 
L 213.178547 169.208211 
L 214.928157 169.208211 
L 214.928157 170.256022 
L 216.677766 170.256022 
L 216.677766 188.330772 
L 218.427376 188.330772 
L 218.427376 189.116631 
L 220.176986 189.116631 
L 220.176986 197.499123 
L 221.926595 197.499123 
L 221.926595 199.594746 
L 223.676205 199.594746 
L 223.676205 209.810909 
L 225.425815 209.810909 
L 225.425815 211.64458 
L 227.175425 211.64458 
L 227.175425 221.074884 
L 228.925034 221.074884 
L 228.925034 229.457376 
L 230.674644 229.457376 
L 230.674644 232.600811 
L 232.424254 232.600811 
L 232.424254 235.482293 
L 234.173863 235.482293 
L 234.173863 243.864786 
L 235.923473 243.864786 
L 235.923473 244.912597 
L 237.673083 244.912597 
L 237.673083 239.935492 
L 239.422693 239.935492 
L 239.422693 235.744246 
L 241.172302 235.744246 
L 241.172302 225.528083 
L 242.921912 225.528083 
L 242.921912 223.170507 
L 244.671522 223.170507 
L 244.671522 216.097779 
L 246.421131 216.097779 
L 246.421131 206.929427 
L 248.170741 206.929427 
L 248.170741 207.19138 
L 249.920351 207.19138 
L 249.920351 199.594746 
L 251.66996 199.594746 
L 251.66996 190.164442 
L 253.41957 190.164442 
L 253.41957 187.806866 
L 255.16918 187.806866 
L 255.16918 179.686326 
L 256.91879 179.686326 
L 256.91879 171.565787 
L 258.668399 171.565787 
L 258.668399 169.732116 
L 260.418009 169.732116 
L 260.418009 165.016964 
L 262.167619 165.016964 
L 262.167619 161.349624 
L 263.917228 161.349624 
L 263.917228 156.896425 
L 265.666838 156.896425 
L 265.666838 151.657367 
L 267.416448 151.657367 
L 267.416448 148.775885 
L 269.166057 148.775885 
L 269.166057 146.156356 
L 270.915667 146.156356 
L 270.915667 150.085649 
L 272.665277 150.085649 
L 272.665277 140.393392 
L 274.414887 140.393392 
L 274.414887 137.249958 
L 276.164496 137.249958 
L 276.164496 120.223019 
L 277.914106 120.223019 
L 277.914106 128.081606 
L 279.663716 128.081606 
L 279.663716 123.366454 
L 281.413325 123.366454 
L 281.413325 120.223019 
L 283.162935 120.223019 
L 283.162935 124.938171 
L 284.912545 124.938171 
L 284.912545 120.484972 
L 286.662155 120.484972 
L 286.662155 107.125375 
L 288.411764 107.125375 
L 288.411764 114.198103 
L 290.161374 114.198103 
L 290.161374 103.98194 
L 291.910984 103.98194 
L 291.910984 106.601469 
L 293.660593 106.601469 
L 293.660593 107.125375 
L 295.410203 107.125375 
L 295.410203 118.127396 
L 297.159813 118.127396 
L 297.159813 114.983961 
L 298.909422 114.983961 
L 298.909422 117.865443 
L 300.659032 117.865443 
L 300.659032 117.079585 
L 302.408642 117.079585 
L 302.408642 116.555679 
L 304.158252 116.555679 
L 304.158252 122.05669 
L 305.907861 122.05669 
L 305.907861 121.532784 
L 307.657471 121.532784 
L 307.657471 126.509889 
L 309.407081 126.509889 
L 309.407081 122.842548 
L 311.15669 122.842548 
L 311.15669 120.223019 
L 312.9063 120.223019 
L 312.9063 131.486994 
L 314.65591 131.486994 
L 314.65591 125.462077 
L 316.405519 125.462077 
L 316.405519 130.439182 
L 318.155129 130.439182 
L 318.155129 143.536827 
L 319.904739 143.536827 
L 319.904739 142.750968 
L 321.654349 142.750968 
L 321.654349 141.703157 
L 323.403958 141.703157 
L 323.403958 147.46612 
L 325.153568 147.46612 
L 325.153568 141.441204 
L 326.903178 141.441204 
L 326.903178 151.91932 
L 328.652787 151.91932 
L 328.652787 147.990026 
L 330.402397 147.990026 
L 330.402397 146.418309 
L 332.152007 146.418309 
L 332.152007 149.823696 
L 333.901617 149.823696 
L 333.901617 162.397435 
L 337.400836 162.397435 
L 337.400836 163.7072 
L 339.150446 163.7072 
L 339.150446 153.491037 
L 340.900055 153.491037 
L 340.900055 161.087671 
L 342.649665 161.087671 
L 342.649665 164.231106 
L 344.399275 164.231106 
L 344.399275 163.183294 
L 346.148884 163.183294 
L 346.148884 163.969153 
L 347.898494 163.969153 
L 347.898494 168.684305 
L 349.648104 168.684305 
L 349.648104 172.613598 
L 351.397714 172.613598 
L 351.397714 174.709221 
L 353.147323 174.709221 
L 353.147323 178.114609 
L 354.896933 178.114609 
L 354.896933 185.187337 
L 356.646543 185.187337 
L 356.646543 176.542892 
L 358.396152 176.542892 
L 358.396152 182.829761 
L 360.145762 182.829761 
L 360.145762 183.091714 
L 361.895372 183.091714 
L 361.895372 189.116631 
L 363.644982 189.116631 
L 363.644982 187.544913 
L 365.394591 187.544913 
L 365.394591 188.854678 
L 367.144201 188.854678 
L 367.144201 198.284982 
L 368.893811 198.284982 
L 368.893811 199.594746 
L 370.64342 199.594746 
L 370.64342 202.214275 
L 372.39303 202.214275 
L 372.39303 208.239192 
L 374.14264 208.239192 
L 374.14264 210.334815 
L 375.892249 210.334815 
L 375.892249 216.359732 
L 377.641859 216.359732 
L 377.641859 220.812931 
L 379.391469 220.812931 
L 379.391469 219.503166 
L 381.141079 219.503166 
L 381.141079 219.241214 
L 382.890688 219.241214 
L 382.890688 226.313942 
L 384.640298 226.313942 
L 384.640298 227.623706 
L 386.389908 227.623706 
L 386.389908 229.719329 
L 388.139517 229.719329 
L 388.139517 235.22034 
L 389.889127 235.22034 
L 389.889127 233.648623 
L 391.638737 233.648623 
L 391.638737 237.839869 
L 393.388347 237.839869 
L 393.388347 239.411586 
L 395.137956 239.411586 
L 395.137956 241.245257 
L 396.887566 241.245257 
L 396.887566 243.078927 
L 398.637176 243.078927 
L 398.637176 244.650644 
L 400.386785 244.650644 
L 400.386785 244.912597 
L 402.136395 244.912597 
L 402.136395 246.222362 
L 403.886005 246.222362 
L 403.886005 245.960409 
L 405.635614 245.960409 
L 405.635614 246.484315 
L 414.383663 246.484315 
L 414.383663 246.484315 
" clip-path="url(#pfd96ae38f6)" style="fill: none; stroke: #ff7f0e; stroke-width: 1.5; stroke-linecap: square"/>
   </g>
  </g>
  <g id="axes_2">
   <g id="patch_8">
    <path d="M 480.285385 257.158895 
L 865.19952 257.158895 
L 865.19952 22.318125 
L 480.285385 22.318125 
z
" style="fill: #ffffff"/>
   </g>
   <g id="matplotlib.axis_3">
    <g id="xtick_9">
     <g id="line2d_22">
      <g>
       <use xlink:href="#m7dd92ec299" x="516.198426" y="257.158895" style="stroke: #000000; stroke-width: 0.8"/>
      </g>
     </g>
     <g id="text_23">
      <!-- 1.0 -->
      <g transform="translate(508.246864 271.757332) scale(0.1 -0.1)">
       <use xlink:href="#DejaVuSans-31"/>
       <use xlink:href="#DejaVuSans-2e" x="63.623047"/>
       <use xlink:href="#DejaVuSans-30" x="95.410156"/>
      </g>
     </g>
    </g>
    <g id="xtick_10">
     <g id="line2d_23">
      <g>
       <use xlink:href="#m7dd92ec299" x="562.240787" y="257.158895" style="stroke: #000000; stroke-width: 0.8"/>
      </g>
     </g>
     <g id="text_24">
      <!-- 1.5 -->
      <g transform="translate(554.289224 271.757332) scale(0.1 -0.1)">
       <use xlink:href="#DejaVuSans-31"/>
       <use xlink:href="#DejaVuSans-2e" x="63.623047"/>
       <use xlink:href="#DejaVuSans-35" x="95.410156"/>
      </g>
     </g>
    </g>
    <g id="xtick_11">
     <g id="line2d_24">
      <g>
       <use xlink:href="#m7dd92ec299" x="608.283148" y="257.158895" style="stroke: #000000; stroke-width: 0.8"/>
      </g>
     </g>
     <g id="text_25">
      <!-- 2.0 -->
      <g transform="translate(600.331585 271.757332) scale(0.1 -0.1)">
       <use xlink:href="#DejaVuSans-32"/>
       <use xlink:href="#DejaVuSans-2e" x="63.623047"/>
       <use xlink:href="#DejaVuSans-30" x="95.410156"/>
      </g>
     </g>
    </g>
    <g id="xtick_12">
     <g id="line2d_25">
      <g>
       <use xlink:href="#m7dd92ec299" x="654.325508" y="257.158895" style="stroke: #000000; stroke-width: 0.8"/>
      </g>
     </g>
     <g id="text_26">
      <!-- 2.5 -->
      <g transform="translate(646.373946 271.757332) scale(0.1 -0.1)">
       <use xlink:href="#DejaVuSans-32"/>
       <use xlink:href="#DejaVuSans-2e" x="63.623047"/>
       <use xlink:href="#DejaVuSans-35" x="95.410156"/>
      </g>
     </g>
    </g>
    <g id="xtick_13">
     <g id="line2d_26">
      <g>
       <use xlink:href="#m7dd92ec299" x="700.367869" y="257.158895" style="stroke: #000000; stroke-width: 0.8"/>
      </g>
     </g>
     <g id="text_27">
      <!-- 3.0 -->
      <g transform="translate(692.416306 271.757332) scale(0.1 -0.1)">
       <use xlink:href="#DejaVuSans-33"/>
       <use xlink:href="#DejaVuSans-2e" x="63.623047"/>
       <use xlink:href="#DejaVuSans-30" x="95.410156"/>
      </g>
     </g>
    </g>
    <g id="xtick_14">
     <g id="line2d_27">
      <g>
       <use xlink:href="#m7dd92ec299" x="746.41023" y="257.158895" style="stroke: #000000; stroke-width: 0.8"/>
      </g>
     </g>
     <g id="text_28">
      <!-- 3.5 -->
      <g transform="translate(738.458667 271.757332) scale(0.1 -0.1)">
       <use xlink:href="#DejaVuSans-33"/>
       <use xlink:href="#DejaVuSans-2e" x="63.623047"/>
       <use xlink:href="#DejaVuSans-35" x="95.410156"/>
      </g>
     </g>
    </g>
    <g id="xtick_15">
     <g id="line2d_28">
      <g>
       <use xlink:href="#m7dd92ec299" x="792.45259" y="257.158895" style="stroke: #000000; stroke-width: 0.8"/>
      </g>
     </g>
     <g id="text_29">
      <!-- 4.0 -->
      <g transform="translate(784.501028 271.757332) scale(0.1 -0.1)">
       <use xlink:href="#DejaVuSans-34"/>
       <use xlink:href="#DejaVuSans-2e" x="63.623047"/>
       <use xlink:href="#DejaVuSans-30" x="95.410156"/>
      </g>
     </g>
    </g>
    <g id="xtick_16">
     <g id="line2d_29">
      <g>
       <use xlink:href="#m7dd92ec299" x="838.494951" y="257.158895" style="stroke: #000000; stroke-width: 0.8"/>
      </g>
     </g>
     <g id="text_30">
      <!-- 4.5 -->
      <g transform="translate(830.543388 271.757332) scale(0.1 -0.1)">
       <use xlink:href="#DejaVuSans-34"/>
       <use xlink:href="#DejaVuSans-2e" x="63.623047"/>
       <use xlink:href="#DejaVuSans-35" x="95.410156"/>
      </g>
     </g>
    </g>
    <g id="text_31">
     <!-- wavelength [Å] -->
     <g transform="translate(634.704952 287.119832) scale(0.1 -0.1)">
      <use xlink:href="#DejaVuSans-77"/>
      <use xlink:href="#DejaVuSans-61" x="81.787109"/>
      <use xlink:href="#DejaVuSans-76" x="143.066406"/>
      <use xlink:href="#DejaVuSans-65" x="202.246094"/>
      <use xlink:href="#DejaVuSans-6c" x="263.769531"/>
      <use xlink:href="#DejaVuSans-65" x="291.552734"/>
      <use xlink:href="#DejaVuSans-6e" x="353.076172"/>
      <use xlink:href="#DejaVuSans-67" x="416.455078"/>
      <use xlink:href="#DejaVuSans-74" x="479.931641"/>
      <use xlink:href="#DejaVuSans-68" x="519.140625"/>
      <use xlink:href="#DejaVuSans-20" x="582.519531"/>
      <use xlink:href="#DejaVuSans-5b" x="614.306641"/>
      <use xlink:href="#DejaVuSans-c5" x="653.320312"/>
      <use xlink:href="#DejaVuSans-5d" x="721.728516"/>
     </g>
    </g>
   </g>
   <g id="matplotlib.axis_4">
    <g id="ytick_10">
     <g id="line2d_30">
      <g>
       <use xlink:href="#mc3b529154b" x="480.285385" y="246.484315" style="stroke: #000000; stroke-width: 0.8"/>
      </g>
     </g>
     <g id="text_32">
      <!-- 0 -->
      <g transform="translate(466.922885 250.283533) scale(0.1 -0.1)">
       <use xlink:href="#DejaVuSans-30"/>
      </g>
     </g>
    </g>
    <g id="ytick_11">
     <g id="line2d_31">
      <g>
       <use xlink:href="#mc3b529154b" x="480.285385" y="220.321127" style="stroke: #000000; stroke-width: 0.8"/>
      </g>
     </g>
     <g id="text_33">
      <!-- 100 -->
      <g transform="translate(454.197885 224.120346) scale(0.1 -0.1)">
       <use xlink:href="#DejaVuSans-31"/>
       <use xlink:href="#DejaVuSans-30" x="63.623047"/>
       <use xlink:href="#DejaVuSans-30" x="127.246094"/>
      </g>
     </g>
    </g>
    <g id="ytick_12">
     <g id="line2d_32">
      <g>
       <use xlink:href="#mc3b529154b" x="480.285385" y="194.15794" style="stroke: #000000; stroke-width: 0.8"/>
      </g>
     </g>
     <g id="text_34">
      <!-- 200 -->
      <g transform="translate(454.197885 197.957159) scale(0.1 -0.1)">
       <use xlink:href="#DejaVuSans-32"/>
       <use xlink:href="#DejaVuSans-30" x="63.623047"/>
       <use xlink:href="#DejaVuSans-30" x="127.246094"/>
      </g>
     </g>
    </g>
    <g id="ytick_13">
     <g id="line2d_33">
      <g>
       <use xlink:href="#mc3b529154b" x="480.285385" y="167.994752" style="stroke: #000000; stroke-width: 0.8"/>
      </g>
     </g>
     <g id="text_35">
      <!-- 300 -->
      <g transform="translate(454.197885 171.793971) scale(0.1 -0.1)">
       <use xlink:href="#DejaVuSans-33"/>
       <use xlink:href="#DejaVuSans-30" x="63.623047"/>
       <use xlink:href="#DejaVuSans-30" x="127.246094"/>
      </g>
     </g>
    </g>
    <g id="ytick_14">
     <g id="line2d_34">
      <g>
       <use xlink:href="#mc3b529154b" x="480.285385" y="141.831565" style="stroke: #000000; stroke-width: 0.8"/>
      </g>
     </g>
     <g id="text_36">
      <!-- 400 -->
      <g transform="translate(454.197885 145.630784) scale(0.1 -0.1)">
       <use xlink:href="#DejaVuSans-34"/>
       <use xlink:href="#DejaVuSans-30" x="63.623047"/>
       <use xlink:href="#DejaVuSans-30" x="127.246094"/>
      </g>
     </g>
    </g>
    <g id="ytick_15">
     <g id="line2d_35">
      <g>
       <use xlink:href="#mc3b529154b" x="480.285385" y="115.668378" style="stroke: #000000; stroke-width: 0.8"/>
      </g>
     </g>
     <g id="text_37">
      <!-- 500 -->
      <g transform="translate(454.197885 119.467596) scale(0.1 -0.1)">
       <use xlink:href="#DejaVuSans-35"/>
       <use xlink:href="#DejaVuSans-30" x="63.623047"/>
       <use xlink:href="#DejaVuSans-30" x="127.246094"/>
      </g>
     </g>
    </g>
    <g id="ytick_16">
     <g id="line2d_36">
      <g>
       <use xlink:href="#mc3b529154b" x="480.285385" y="89.50519" style="stroke: #000000; stroke-width: 0.8"/>
      </g>
     </g>
     <g id="text_38">
      <!-- 600 -->
      <g transform="translate(454.197885 93.304409) scale(0.1 -0.1)">
       <use xlink:href="#DejaVuSans-36"/>
       <use xlink:href="#DejaVuSans-30" x="63.623047"/>
       <use xlink:href="#DejaVuSans-30" x="127.246094"/>
      </g>
     </g>
    </g>
    <g id="ytick_17">
     <g id="line2d_37">
      <g>
       <use xlink:href="#mc3b529154b" x="480.285385" y="63.342003" style="stroke: #000000; stroke-width: 0.8"/>
      </g>
     </g>
     <g id="text_39">
      <!-- 700 -->
      <g transform="translate(454.197885 67.141222) scale(0.1 -0.1)">
       <use xlink:href="#DejaVuSans-37"/>
       <use xlink:href="#DejaVuSans-30" x="63.623047"/>
       <use xlink:href="#DejaVuSans-30" x="127.246094"/>
      </g>
     </g>
    </g>
    <g id="ytick_18">
     <g id="line2d_38">
      <g>
       <use xlink:href="#mc3b529154b" x="480.285385" y="37.178815" style="stroke: #000000; stroke-width: 0.8"/>
      </g>
     </g>
     <g id="text_40">
      <!-- 800 -->
      <g transform="translate(454.197885 40.978034) scale(0.1 -0.1)">
       <use xlink:href="#DejaVuSans-38"/>
       <use xlink:href="#DejaVuSans-30" x="63.623047"/>
       <use xlink:href="#DejaVuSans-30" x="127.246094"/>
      </g>
     </g>
    </g>
    <g id="text_41">
     <!-- [counts] -->
     <g transform="translate(448.118198 160.35101) rotate(-90) scale(0.1 -0.1)">
      <use xlink:href="#DejaVuSans-5b"/>
      <use xlink:href="#DejaVuSans-63" x="39.013672"/>
      <use xlink:href="#DejaVuSans-6f" x="93.994141"/>
      <use xlink:href="#DejaVuSans-75" x="155.175781"/>
      <use xlink:href="#DejaVuSans-6e" x="218.554688"/>
      <use xlink:href="#DejaVuSans-74" x="281.933594"/>
      <use xlink:href="#DejaVuSans-73" x="321.142578"/>
      <use xlink:href="#DejaVuSans-5d" x="373.242188"/>
     </g>
    </g>
   </g>
   <g id="patch_9">
    <path d="M 480.285385 257.158895 
L 480.285385 22.318125 
" style="fill: none; stroke: #000000; stroke-width: 0.8; stroke-linejoin: miter; stroke-linecap: square"/>
   </g>
   <g id="patch_10">
    <path d="M 865.19952 257.158895 
L 865.19952 22.318125 
" style="fill: none; stroke: #000000; stroke-width: 0.8; stroke-linejoin: miter; stroke-linecap: square"/>
   </g>
   <g id="patch_11">
    <path d="M 480.285385 257.158895 
L 865.19952 257.158895 
" style="fill: none; stroke: #000000; stroke-width: 0.8; stroke-linejoin: miter; stroke-linecap: square"/>
   </g>
   <g id="patch_12">
    <path d="M 480.285385 22.318125 
L 865.19952 22.318125 
" style="fill: none; stroke: #000000; stroke-width: 0.8; stroke-linejoin: miter; stroke-linecap: square"/>
   </g>
   <g id="text_42">
    <!-- Pixel 2 -->
    <g transform="translate(653.14589 16.318125) scale(0.12 -0.12)">
     <use xlink:href="#DejaVuSans-50"/>
     <use xlink:href="#DejaVuSans-69" x="58.052734"/>
     <use xlink:href="#DejaVuSans-78" x="85.835938"/>
     <use xlink:href="#DejaVuSans-65" x="141.890625"/>
     <use xlink:href="#DejaVuSans-6c" x="203.414062"/>
     <use xlink:href="#DejaVuSans-20" x="231.197266"/>
     <use xlink:href="#DejaVuSans-32" x="262.984375"/>
    </g>
   </g>
   <g id="legend_2">
    <g id="patch_13">
     <path d="M 761.196395 59.9525 
L 858.19952 59.9525 
Q 860.19952 59.9525 860.19952 57.9525 
L 860.19952 29.318125 
Q 860.19952 27.318125 858.19952 27.318125 
L 761.196395 27.318125 
Q 759.196395 27.318125 759.196395 29.318125 
L 759.196395 57.9525 
Q 759.196395 59.9525 761.196395 59.9525 
z
" style="fill: #ffffff; opacity: 0.8; stroke: #cccccc; stroke-linejoin: miter"/>
    </g>
    <g id="line2d_39">
     <path d="M 763.196395 35.416562 
L 763.196395 35.416562 
L 773.196395 35.416562 
L 773.196395 35.416562 
L 783.196395 35.416562 
" style="fill: none; stroke: #1f77b4; stroke-width: 1.5; stroke-linecap: square"/>
    </g>
    <g id="text_43">
     <!-- wfm -->
     <g transform="translate(791.196395 38.916562) scale(0.1 -0.1)">
      <use xlink:href="#DejaVuSans-77"/>
      <use xlink:href="#DejaVuSans-66" x="81.787109"/>
      <use xlink:href="#DejaVuSans-6d" x="116.992188"/>
     </g>
    </g>
    <g id="line2d_40">
     <path d="M 763.196395 50.094687 
L 763.196395 50.094687 
L 773.196395 50.094687 
L 773.196395 50.094687 
L 783.196395 50.094687 
" style="fill: none; stroke: #ff7f0e; stroke-width: 1.5; stroke-linecap: square"/>
    </g>
    <g id="text_44">
     <!-- ground_truth -->
     <g transform="translate(791.196395 53.594687) scale(0.1 -0.1)">
      <use xlink:href="#DejaVuSans-67"/>
      <use xlink:href="#DejaVuSans-72" x="63.476562"/>
      <use xlink:href="#DejaVuSans-6f" x="102.339844"/>
      <use xlink:href="#DejaVuSans-75" x="163.521484"/>
      <use xlink:href="#DejaVuSans-6e" x="226.900391"/>
      <use xlink:href="#DejaVuSans-64" x="290.279297"/>
      <use xlink:href="#DejaVuSans-5f" x="353.755859"/>
      <use xlink:href="#DejaVuSans-74" x="403.755859"/>
      <use xlink:href="#DejaVuSans-72" x="442.964844"/>
      <use xlink:href="#DejaVuSans-75" x="484.078125"/>
      <use xlink:href="#DejaVuSans-74" x="547.457031"/>
      <use xlink:href="#DejaVuSans-68" x="586.666016"/>
     </g>
    </g>
   </g>
   <g id="line2d_41">
    <path d="M 497.781482 246.484315 
L 506.529531 246.484315 
L 506.529531 246.222683 
L 508.27914 246.222683 
L 508.27914 239.681886 
L 510.02875 239.681886 
L 510.02875 233.664353 
L 511.77836 233.664353 
L 511.77836 224.768869 
L 513.527969 224.768869 
L 513.527969 222.414182 
L 515.277579 222.414182 
L 515.277579 211.164012 
L 517.027189 211.164012 
L 517.027189 202.006896 
L 518.776799 202.006896 
L 518.776799 190.233462 
L 520.526408 190.233462 
L 520.526408 187.617143 
L 522.276018 187.617143 
L 522.276018 162.762115 
L 524.025628 162.762115 
L 524.025628 163.547011 
L 525.775237 163.547011 
L 525.775237 154.913159 
L 527.524847 154.913159 
L 527.524847 143.662988 
L 529.274457 143.662988 
L 529.274457 146.802571 
L 531.024066 146.802571 
L 531.024066 119.592856 
L 532.773676 119.592856 
L 532.773676 133.459345 
L 534.523286 133.459345 
L 534.523286 121.424279 
L 536.272896 121.424279 
L 536.272896 104.418207 
L 538.022505 104.418207 
L 538.022505 114.360218 
L 539.772115 114.360218 
L 539.772115 104.679839 
L 541.521725 104.679839 
L 541.521725 86.365608 
L 543.271334 86.365608 
L 543.271334 86.103976 
L 545.020944 86.103976 
L 545.020944 91.859877 
L 546.770554 91.859877 
L 546.770554 78.25502 
L 548.520163 78.25502 
L 548.520163 75.900333 
L 550.269773 75.900333 
L 550.269773 60.464052 
L 552.019383 60.464052 
L 552.019383 65.173426 
L 553.768993 65.173426 
L 553.768993 41.888189 
L 555.518602 41.888189 
L 555.518602 54.708151 
L 557.268212 54.708151 
L 557.268212 47.905722 
L 559.017822 47.905722 
L 559.017822 44.242876 
L 560.767431 44.242876 
L 560.767431 32.992705 
L 562.517041 32.992705 
L 562.517041 43.196349 
L 564.266651 43.196349 
L 564.266651 39.27187 
L 566.016261 39.27187 
L 566.016261 43.196349 
L 567.76587 43.196349 
L 567.76587 39.27187 
L 569.51548 39.27187 
L 569.51548 57.062838 
L 571.26509 57.062838 
L 571.26509 60.20242 
L 573.014699 60.20242 
L 573.014699 68.051377 
L 574.764309 68.051377 
L 574.764309 56.01631 
L 576.513919 56.01631 
L 576.513919 63.342003 
L 578.263528 63.342003 
L 578.263528 56.539574 
L 580.013138 56.539574 
L 580.013138 68.313008 
L 581.762748 68.313008 
L 581.762748 74.06891 
L 583.512358 74.06891 
L 583.512358 75.900333 
L 585.261967 75.900333 
L 585.261967 81.13297 
L 587.011577 81.13297 
L 587.011577 62.033843 
L 588.761187 62.033843 
L 588.761187 85.057448 
L 590.510796 85.057448 
L 590.510796 71.452591 
L 592.260406 71.452591 
L 592.260406 74.592173 
L 594.010016 74.592173 
L 594.010016 82.44113 
L 595.759626 82.44113 
L 595.759626 92.906405 
L 597.509235 92.906405 
L 597.509235 87.935399 
L 599.258845 87.935399 
L 599.258845 83.487657 
L 601.008455 83.487657 
L 601.008455 88.197031 
L 602.758064 88.197031 
L 602.758064 94.476196 
L 604.507674 94.476196 
L 604.507674 86.888871 
L 606.257284 86.888871 
L 606.257284 79.824811 
L 608.006893 79.824811 
L 608.006893 82.44113 
L 609.756503 82.44113 
L 609.756503 92.906405 
L 611.506113 92.906405 
L 611.506113 90.81335 
L 613.255723 90.81335 
L 613.255723 92.906405 
L 615.005332 92.906405 
L 615.005332 91.336613 
L 616.754942 91.336613 
L 616.754942 96.830883 
L 618.504552 96.830883 
L 618.504552 91.859877 
L 620.254161 91.859877 
L 620.254161 97.092515 
L 622.003771 97.092515 
L 622.003771 104.156575 
L 623.753381 104.156575 
L 623.753381 105.726366 
L 625.50299 105.726366 
L 625.50299 101.801888 
L 627.2526 101.801888 
L 627.2526 101.278625 
L 629.00221 101.278625 
L 629.00221 97.092515 
L 630.75182 97.092515 
L 630.75182 104.941471 
L 632.501429 104.941471 
L 632.501429 115.145114 
L 634.251039 115.145114 
L 634.251039 129.534867 
L 636.000649 129.534867 
L 636.000649 116.976537 
L 637.750258 116.976537 
L 637.750258 131.104658 
L 639.499868 131.104658 
L 639.499868 141.046669 
L 641.249478 141.046669 
L 641.249478 137.907087 
L 642.999088 137.907087 
L 642.999088 148.895626 
L 644.748697 148.895626 
L 644.748697 163.023747 
L 646.498307 163.023747 
L 646.498307 169.04128 
L 648.247917 169.04128 
L 648.247917 169.564544 
L 649.997526 169.564544 
L 649.997526 188.66367 
L 651.747136 188.66367 
L 651.747136 185.262456 
L 653.496746 185.262456 
L 653.496746 199.390577 
L 655.246355 199.390577 
L 655.246355 201.222 
L 656.995965 201.222 
L 656.995965 203.838319 
L 658.745575 203.838319 
L 658.745575 211.164012 
L 660.495185 211.164012 
L 660.495185 217.704808 
L 662.244794 217.704808 
L 662.244794 227.123556 
L 663.994404 227.123556 
L 663.994404 228.954979 
L 665.744014 228.954979 
L 665.744014 232.879457 
L 667.493623 232.879457 
L 667.493623 238.635358 
L 669.243233 238.635358 
L 669.243233 244.129628 
L 670.992843 244.129628 
L 670.992843 245.176155 
L 672.742453 245.176155 
L 672.742453 238.112095 
L 674.492062 238.112095 
L 674.492062 229.478243 
L 676.241672 229.478243 
L 676.241672 226.861924 
L 677.991282 226.861924 
L 677.991282 216.396649 
L 679.740891 216.396649 
L 679.740891 214.041962 
L 681.490501 214.041962 
L 681.490501 203.838319 
L 683.240111 203.838319 
L 683.240111 204.361583 
L 684.98972 204.361583 
L 684.98972 191.018357 
L 686.73933 191.018357 
L 686.73933 183.954297 
L 688.48894 183.954297 
L 688.48894 186.047352 
L 690.23855 186.047352 
L 690.23855 172.965758 
L 691.988159 172.965758 
L 691.988159 170.349439 
L 693.737769 170.349439 
L 693.737769 162.238851 
L 695.487379 162.238851 
L 695.487379 160.145796 
L 697.236988 160.145796 
L 697.236988 156.221318 
L 698.986598 156.221318 
L 698.986598 153.866631 
L 700.736208 153.866631 
L 700.736208 142.878092 
L 702.485817 142.878092 
L 702.485817 143.92462 
L 704.235427 143.92462 
L 704.235427 144.186252 
L 705.985037 144.186252 
L 705.985037 147.849098 
L 707.734647 147.849098 
L 707.734647 128.226708 
L 709.484256 128.226708 
L 709.484256 117.499801 
L 711.233866 117.499801 
L 711.233866 122.470806 
L 712.983476 122.470806 
L 712.983476 125.872021 
L 714.733085 125.872021 
L 714.733085 117.761433 
L 716.482695 117.761433 
L 716.482695 114.360218 
L 718.232305 114.360218 
L 718.232305 121.947543 
L 719.981915 121.947543 
L 719.981915 107.819421 
L 721.731524 107.819421 
L 721.731524 113.313691 
L 723.481134 113.313691 
L 723.481134 95.784355 
L 725.230744 95.784355 
L 725.230744 113.052059 
L 726.980353 113.052059 
L 726.980353 108.342685 
L 728.729963 108.342685 
L 728.729963 107.296158 
L 730.479573 107.296158 
L 730.479573 127.18018 
L 732.229182 127.18018 
L 732.229182 114.883482 
L 733.978792 114.883482 
L 733.978792 118.023064 
L 735.728402 118.023064 
L 735.728402 112.005531 
L 737.478012 112.005531 
L 737.478012 126.656916 
L 739.227621 126.656916 
L 739.227621 128.488339 
L 740.977231 128.488339 
L 740.977231 118.80796 
L 742.726841 118.80796 
L 742.726841 120.639383 
L 744.47645 120.639383 
L 744.47645 125.348757 
L 746.22606 125.348757 
L 746.22606 131.104658 
L 747.97567 131.104658 
L 747.97567 125.610389 
L 749.725279 125.610389 
L 749.725279 128.749971 
L 751.474889 128.749971 
L 751.474889 140.523406 
L 753.224499 140.523406 
L 753.224499 151.250312 
L 754.974109 151.250312 
L 754.974109 138.953614 
L 756.723718 138.953614 
L 756.723718 148.633994 
L 758.473328 148.633994 
L 758.473328 146.540939 
L 760.222938 146.540939 
L 760.222938 144.447884 
L 761.972547 144.447884 
L 761.972547 148.11073 
L 763.722157 148.11073 
L 763.722157 147.849098 
L 765.471767 147.849098 
L 765.471767 157.791109 
L 767.221377 157.791109 
L 767.221377 163.023747 
L 768.970986 163.023747 
L 768.970986 158.837637 
L 770.720596 158.837637 
L 770.720596 159.622532 
L 772.470206 159.622532 
L 772.470206 155.959686 
L 774.219815 155.959686 
L 774.219815 156.221318 
L 775.969425 156.221318 
L 775.969425 174.535549 
L 777.719035 174.535549 
L 777.719035 159.622532 
L 779.468644 159.622532 
L 779.468644 166.686593 
L 781.218254 166.686593 
L 781.218254 173.22739 
L 782.967864 173.22739 
L 782.967864 172.180862 
L 784.717474 172.180862 
L 784.717474 170.349439 
L 786.467083 170.349439 
L 786.467083 180.814714 
L 788.216693 180.814714 
L 788.216693 186.047352 
L 789.966303 186.047352 
L 789.966303 178.721659 
L 791.715912 178.721659 
L 791.715912 180.029819 
L 793.465522 180.029819 
L 793.465522 181.337978 
L 795.215132 181.337978 
L 795.215132 191.541621 
L 796.964742 191.541621 
L 796.964742 189.448566 
L 798.714351 189.448566 
L 798.714351 191.018357 
L 800.463961 191.018357 
L 800.463961 195.204467 
L 802.213571 195.204467 
L 802.213571 202.791792 
L 803.96318 202.791792 
L 803.96318 205.669742 
L 805.71279 205.669742 
L 805.71279 206.71627 
L 807.4624 206.71627 
L 807.4624 213.78033 
L 809.212009 213.78033 
L 809.212009 215.611753 
L 810.961619 215.611753 
L 810.961619 219.536232 
L 812.711229 219.536232 
L 812.711229 220.582759 
L 814.460839 220.582759 
L 814.460839 218.489704 
L 816.210448 218.489704 
L 816.210448 226.600292 
L 819.709668 226.600292 
L 819.709668 229.739875 
L 821.459277 229.739875 
L 821.459277 233.402721 
L 823.208887 233.402721 
L 823.208887 235.495776 
L 826.708106 235.495776 
L 826.708106 239.943518 
L 830.207326 239.943518 
L 830.207326 241.513309 
L 831.956936 241.513309 
L 831.956936 244.39126 
L 833.706545 244.39126 
L 833.706545 245.437787 
L 835.456155 245.437787 
L 835.456155 244.652891 
L 837.205765 244.652891 
L 837.205765 246.484315 
L 838.955374 246.484315 
L 838.955374 245.961051 
L 840.704984 245.961051 
L 840.704984 246.484315 
L 847.703423 246.484315 
L 847.703423 246.484315 
" clip-path="url(#pada50e1954)" style="fill: none; stroke: #1f77b4; stroke-width: 1.5; stroke-linecap: square"/>
   </g>
   <g id="line2d_42">
    <path d="M 497.781482 246.484315 
L 506.529531 246.484315 
L 506.529531 242.298205 
L 508.27914 242.298205 
L 508.27914 235.234144 
L 510.02875 235.234144 
L 510.02875 229.216611 
L 511.77836 229.216611 
L 511.77836 224.507237 
L 513.527969 224.507237 
L 513.527969 217.443177 
L 515.277579 217.443177 
L 515.277579 209.855852 
L 517.027189 209.855852 
L 517.027189 193.634676 
L 518.776799 193.634676 
L 518.776799 189.448566 
L 520.526408 189.448566 
L 520.526408 179.768187 
L 522.276018 179.768187 
L 522.276018 165.640066 
L 524.025628 165.640066 
L 524.025628 163.547011 
L 525.775237 163.547011 
L 525.775237 154.389895 
L 527.524847 154.389895 
L 527.524847 144.971147 
L 529.274457 144.971147 
L 529.274457 133.982609 
L 531.024066 133.982609 
L 531.024066 131.104658 
L 532.773676 131.104658 
L 532.773676 132.674449 
L 534.523286 132.674449 
L 534.523286 122.99407 
L 536.272896 122.99407 
L 536.272896 110.959004 
L 538.022505 110.959004 
L 538.022505 114.360218 
L 539.772115 114.360218 
L 539.772115 99.708833 
L 541.521725 99.708833 
L 541.521725 93.6913 
L 543.271334 93.6913 
L 543.271334 95.261091 
L 545.020944 95.261091 
L 545.020944 89.50519 
L 546.770554 89.50519 
L 546.770554 83.749289 
L 548.520163 83.749289 
L 548.520163 84.534185 
L 550.269773 84.534185 
L 550.269773 62.818739 
L 552.019383 62.818739 
L 552.019383 63.603635 
L 553.768993 63.603635 
L 553.768993 49.475514 
L 555.518602 49.475514 
L 555.518602 57.32447 
L 557.268212 57.32447 
L 557.268212 62.033843 
L 559.017822 62.033843 
L 559.017822 40.58003 
L 560.767431 40.58003 
L 560.767431 39.795134 
L 562.517041 39.795134 
L 562.517041 34.562497 
L 564.266651 34.562497 
L 564.266651 48.428986 
L 566.016261 48.428986 
L 566.016261 39.27187 
L 567.76587 39.27187 
L 567.76587 45.289404 
L 569.51548 45.289404 
L 569.51548 57.32447 
L 571.26509 57.32447 
L 571.26509 56.01631 
L 573.014699 56.01631 
L 573.014699 67.004849 
L 574.764309 67.004849 
L 574.764309 60.725684 
L 576.513919 60.725684 
L 576.513919 59.155893 
L 578.263528 59.155893 
L 578.263528 52.353464 
L 580.013138 52.353464 
L 580.013138 70.406063 
L 581.762748 70.406063 
L 581.762748 75.115437 
L 583.512358 75.115437 
L 583.512358 73.545646 
L 585.261967 73.545646 
L 585.261967 68.051377 
L 587.011577 68.051377 
L 587.011577 74.330542 
L 588.761187 74.330542 
L 588.761187 90.028454 
L 590.510796 90.028454 
L 590.510796 64.650162 
L 592.260406 64.650162 
L 592.260406 72.237487 
L 594.010016 72.237487 
L 594.010016 91.336613 
L 595.759626 91.336613 
L 595.759626 84.272553 
L 597.509235 84.272553 
L 597.509235 84.534185 
L 599.258845 84.534185 
L 599.258845 84.795816 
L 601.008455 84.795816 
L 601.008455 86.103976 
L 602.758064 86.103976 
L 602.758064 97.092515 
L 604.507674 97.092515 
L 604.507674 83.749289 
L 606.257284 83.749289 
L 606.257284 80.609707 
L 608.006893 80.609707 
L 608.006893 77.993388 
L 609.756503 77.993388 
L 609.756503 91.598245 
L 611.506113 91.598245 
L 611.506113 94.737828 
L 615.005332 94.737828 
L 615.005332 87.150503 
L 616.754942 87.150503 
L 616.754942 94.214564 
L 618.504552 94.214564 
L 618.504552 93.952932 
L 620.254161 93.952932 
L 620.254161 91.074981 
L 622.003771 91.074981 
L 622.003771 107.819421 
L 623.753381 107.819421 
L 623.753381 99.447201 
L 625.50299 99.447201 
L 625.50299 108.604317 
L 627.2526 108.604317 
L 627.2526 99.708833 
L 629.00221 99.708833 
L 629.00221 92.121509 
L 630.75182 92.121509 
L 630.75182 100.493729 
L 632.501429 100.493729 
L 632.501429 117.238169 
L 634.251039 117.238169 
L 634.251039 124.563861 
L 636.000649 124.563861 
L 636.000649 116.976537 
L 637.750258 116.976537 
L 637.750258 122.732438 
L 639.499868 122.732438 
L 639.499868 131.627922 
L 641.249478 131.627922 
L 641.249478 142.878092 
L 642.999088 142.878092 
L 642.999088 147.064202 
L 644.748697 147.064202 
L 644.748697 160.930692 
L 646.498307 160.930692 
L 646.498307 169.302912 
L 648.247917 169.302912 
L 648.247917 170.349439 
L 649.997526 170.349439 
L 649.997526 188.402039 
L 651.747136 188.402039 
L 651.747136 189.186934 
L 653.496746 189.186934 
L 653.496746 197.559154 
L 655.246355 197.559154 
L 655.246355 199.652209 
L 656.995965 199.652209 
L 656.995965 209.855852 
L 658.745575 209.855852 
L 658.745575 211.687275 
L 660.495185 211.687275 
L 660.495185 221.106023 
L 662.244794 221.106023 
L 662.244794 229.478243 
L 663.994404 229.478243 
L 663.994404 232.617825 
L 665.744014 232.617825 
L 665.744014 235.495776 
L 667.493623 235.495776 
L 667.493623 243.867996 
L 669.243233 243.867996 
L 669.243233 244.914523 
L 670.992843 244.914523 
L 670.992843 239.943518 
L 672.742453 239.943518 
L 672.742453 235.757408 
L 674.492062 235.757408 
L 674.492062 225.553765 
L 676.241672 225.553765 
L 676.241672 223.199078 
L 677.991282 223.199078 
L 677.991282 216.135017 
L 679.740891 216.135017 
L 679.740891 206.977902 
L 681.490501 206.977902 
L 681.490501 207.239533 
L 683.240111 207.239533 
L 683.240111 199.652209 
L 684.98972 199.652209 
L 684.98972 190.233462 
L 686.73933 190.233462 
L 686.73933 187.878775 
L 688.48894 187.878775 
L 688.48894 179.768187 
L 690.23855 179.768187 
L 690.23855 171.657599 
L 691.988159 171.657599 
L 691.988159 169.826175 
L 693.737769 169.826175 
L 693.737769 165.116802 
L 695.487379 165.116802 
L 695.487379 161.453956 
L 697.236988 161.453956 
L 697.236988 157.006214 
L 698.986598 157.006214 
L 698.986598 151.773576 
L 700.736208 151.773576 
L 700.736208 148.895626 
L 702.485817 148.895626 
L 702.485817 146.279307 
L 704.235427 146.279307 
L 704.235427 150.203785 
L 705.985037 150.203785 
L 705.985037 140.523406 
L 707.734647 140.523406 
L 707.734647 137.383823 
L 709.484256 137.383823 
L 709.484256 120.377751 
L 711.233866 120.377751 
L 711.233866 128.226708 
L 712.983476 128.226708 
L 712.983476 123.517334 
L 714.733085 123.517334 
L 714.733085 120.377751 
L 716.482695 120.377751 
L 716.482695 125.087125 
L 718.232305 125.087125 
L 718.232305 120.639383 
L 719.981915 120.639383 
L 719.981915 107.296158 
L 721.731524 107.296158 
L 721.731524 114.360218 
L 723.481134 114.360218 
L 723.481134 104.156575 
L 725.230744 104.156575 
L 725.230744 106.772894 
L 726.980353 106.772894 
L 726.980353 107.296158 
L 728.729963 107.296158 
L 728.729963 118.284696 
L 730.479573 118.284696 
L 730.479573 115.145114 
L 732.229182 115.145114 
L 732.229182 118.023064 
L 733.978792 118.023064 
L 733.978792 117.238169 
L 735.728402 117.238169 
L 735.728402 116.714905 
L 737.478012 116.714905 
L 737.478012 122.209174 
L 739.227621 122.209174 
L 739.227621 121.685911 
L 740.977231 121.685911 
L 740.977231 126.656916 
L 742.726841 126.656916 
L 742.726841 122.99407 
L 744.47645 122.99407 
L 744.47645 120.377751 
L 746.22606 120.377751 
L 746.22606 131.627922 
L 747.97567 131.627922 
L 747.97567 125.610389 
L 749.725279 125.610389 
L 749.725279 130.581394 
L 751.474889 130.581394 
L 751.474889 143.662988 
L 753.224499 143.662988 
L 753.224499 142.878092 
L 754.974109 142.878092 
L 754.974109 141.831565 
L 756.723718 141.831565 
L 756.723718 147.587466 
L 758.473328 147.587466 
L 758.473328 141.569933 
L 760.222938 141.569933 
L 760.222938 152.035208 
L 761.972547 152.035208 
L 761.972547 148.11073 
L 763.722157 148.11073 
L 763.722157 146.540939 
L 765.471767 146.540939 
L 765.471767 149.942153 
L 767.221377 149.942153 
L 767.221377 162.500483 
L 770.720596 162.500483 
L 770.720596 163.808642 
L 772.470206 163.808642 
L 772.470206 153.604999 
L 774.219815 153.604999 
L 774.219815 161.192324 
L 775.969425 161.192324 
L 775.969425 164.331906 
L 777.719035 164.331906 
L 777.719035 163.285379 
L 779.468644 163.285379 
L 779.468644 164.070274 
L 781.218254 164.070274 
L 781.218254 168.779648 
L 782.967864 168.779648 
L 782.967864 172.704126 
L 784.717474 172.704126 
L 784.717474 174.797181 
L 786.467083 174.797181 
L 786.467083 178.198395 
L 788.216693 178.198395 
L 788.216693 185.262456 
L 789.966303 185.262456 
L 789.966303 176.628604 
L 791.715912 176.628604 
L 791.715912 182.907769 
L 793.465522 182.907769 
L 793.465522 183.169401 
L 795.215132 183.169401 
L 795.215132 189.186934 
L 796.964742 189.186934 
L 796.964742 187.617143 
L 798.714351 187.617143 
L 798.714351 188.925302 
L 800.463961 188.925302 
L 800.463961 198.34405 
L 802.213571 198.34405 
L 802.213571 199.652209 
L 803.96318 199.652209 
L 803.96318 202.268528 
L 805.71279 202.268528 
L 805.71279 208.286061 
L 807.4624 208.286061 
L 807.4624 210.379116 
L 809.212009 210.379116 
L 809.212009 216.396649 
L 810.961619 216.396649 
L 810.961619 220.844391 
L 812.711229 220.844391 
L 812.711229 219.536232 
L 814.460839 219.536232 
L 814.460839 219.2746 
L 816.210448 219.2746 
L 816.210448 226.33866 
L 817.960058 226.33866 
L 817.960058 227.64682 
L 819.709668 227.64682 
L 819.709668 229.739875 
L 821.459277 229.739875 
L 821.459277 235.234144 
L 823.208887 235.234144 
L 823.208887 233.664353 
L 824.958497 233.664353 
L 824.958497 237.850463 
L 826.708106 237.850463 
L 826.708106 239.420254 
L 828.457716 239.420254 
L 828.457716 241.251677 
L 830.207326 241.251677 
L 830.207326 243.0831 
L 831.956936 243.0831 
L 831.956936 244.652891 
L 833.706545 244.652891 
L 833.706545 244.914523 
L 835.456155 244.914523 
L 835.456155 246.222683 
L 837.205765 246.222683 
L 837.205765 245.961051 
L 838.955374 245.961051 
L 838.955374 246.484315 
L 847.703423 246.484315 
L 847.703423 246.484315 
" clip-path="url(#pada50e1954)" style="fill: none; stroke: #ff7f0e; stroke-width: 1.5; stroke-linecap: square"/>
   </g>
  </g>
 </g>
 <defs>
  <clipPath id="pfd96ae38f6">
   <rect x="46.965625" y="22.318125" width="384.914135" height="234.84077"/>
  </clipPath>
  <clipPath id="pada50e1954">
   <rect x="480.285385" y="22.318125" width="384.914135" height="234.84077"/>
  </clipPath>
 </defs>
</svg>
