<?xml version="1.0" encoding="UTF-8" standalone="no"?>
<!DOCTYPE svg PUBLIC "-//W3C//DTD SVG 1.1//EN"
 "http://www.w3.org/Graphics/SVG/1.1/DTD/svg11.dtd">
<!-- Generated by graphviz version 7.1.0 (20230122.1345)
 -->
<!-- Pages: 1 -->
<svg width="447pt" height="385pt"
 viewBox="0.00 0.00 446.50 385.00" xmlns="http://www.w3.org/2000/svg" xmlns:xlink="http://www.w3.org/1999/xlink">
<g id="graph0" class="graph" transform="scale(1 1) rotate(0) translate(4 381)">
<polygon fill="white" stroke="none" points="-4,4 -4,-381 442.5,-381 442.5,4 -4,4"/>
<!-- source_position -->
<g id="node1" class="node">
<title>source_position</title>
<polygon fill="none" stroke="black" points="128,-377 0,-377 0,-354 128,-354 128,-377"/>
<text text-anchor="middle" x="64" y="-361.8" font-family="Times,serif" font-size="14.00">source_position</text>
</g>
<!-- incident_beam -->
<g id="node2" class="node">
<title>incident_beam</title>
<polygon fill="none" stroke="black" points="187,-318 67,-318 67,-295 187,-295 187,-318"/>
<text text-anchor="middle" x="127" y="-302.8" font-family="Times,serif" font-size="14.00">incident_beam</text>
</g>
<!-- source_position&#45;&gt;incident_beam -->
<g id="edge1" class="edge">
<title>source_position&#45;&gt;incident_beam</title>
<path fill="none" stroke="black" d="M76.15,-353.51C84.78,-345.7 96.57,-335.03 106.62,-325.94"/>
<polygon fill="black" stroke="black" points="108.7,-328.78 113.77,-319.47 104,-323.59 108.7,-328.78"/>
</g>
<!-- L1 -->
<g id="node6" class="node">
<title>L1</title>
<polygon fill="none" stroke="black" points="197,-259 143,-259 143,-236 197,-236 197,-259"/>
<text text-anchor="middle" x="170" y="-243.8" font-family="Times,serif" font-size="14.00">L1</text>
</g>
<!-- incident_beam&#45;&gt;L1 -->
<g id="edge5" class="edge">
<title>incident_beam&#45;&gt;L1</title>
<path fill="none" stroke="black" d="M135.29,-294.51C140.82,-287.18 148.26,-277.32 154.83,-268.61"/>
<polygon fill="black" stroke="black" points="157.59,-270.76 160.82,-260.66 152.01,-266.54 157.59,-270.76"/>
</g>
<!-- two_theta -->
<g id="node9" class="node">
<title>two_theta</title>
<polygon fill="none" stroke="black" points="330.5,-82 243.5,-82 243.5,-59 330.5,-59 330.5,-82"/>
<text text-anchor="middle" x="287" y="-66.8" font-family="Times,serif" font-size="14.00">two_theta</text>
</g>
<!-- incident_beam&#45;&gt;two_theta -->
<g id="edge9" class="edge">
<title>incident_beam&#45;&gt;two_theta</title>
<path fill="none" stroke="black" d="M126.18,-294.67C125.54,-280.58 125.85,-255.46 134,-236 161.25,-170.95 226.35,-115.71 262.23,-88.89"/>
<polygon fill="black" stroke="black" points="263.88,-92.02 269.88,-83.29 259.74,-86.37 263.88,-92.02"/>
</g>
<!-- sample_position -->
<g id="node3" class="node">
<title>sample_position</title>
<polygon fill="none" stroke="black" points="277.5,-377 146.5,-377 146.5,-354 277.5,-354 277.5,-377"/>
<text text-anchor="middle" x="212" y="-361.8" font-family="Times,serif" font-size="14.00">sample_position</text>
</g>
<!-- sample_position&#45;&gt;incident_beam -->
<g id="edge2" class="edge">
<title>sample_position&#45;&gt;incident_beam</title>
<path fill="none" stroke="black" d="M195.61,-353.51C183.5,-345.39 166.77,-334.17 152.86,-324.84"/>
<polygon fill="black" stroke="black" points="154.85,-321.96 144.6,-319.3 150.95,-327.78 154.85,-321.96"/>
</g>
<!-- scattered_beam -->
<g id="node5" class="node">
<title>scattered_beam</title>
<polygon fill="none" stroke="black" points="337,-318 207,-318 207,-295 337,-295 337,-318"/>
<text text-anchor="middle" x="272" y="-302.8" font-family="Times,serif" font-size="14.00">scattered_beam</text>
</g>
<!-- sample_position&#45;&gt;scattered_beam -->
<g id="edge4" class="edge">
<title>sample_position&#45;&gt;scattered_beam</title>
<path fill="none" stroke="black" d="M223.57,-353.51C231.7,-345.78 242.79,-335.25 252.3,-326.21"/>
<polygon fill="black" stroke="black" points="254.53,-328.92 259.37,-319.5 249.71,-323.85 254.53,-328.92"/>
</g>
<!-- position -->
<g id="node4" class="node">
<title>position</title>
<polygon fill="none" stroke="black" points="370,-377 296,-377 296,-354 370,-354 370,-377"/>
<text text-anchor="middle" x="333" y="-361.8" font-family="Times,serif" font-size="14.00">position</text>
</g>
<!-- position&#45;&gt;scattered_beam -->
<g id="edge3" class="edge">
<title>position&#45;&gt;scattered_beam</title>
<path fill="none" stroke="black" d="M321.24,-353.51C312.97,-345.78 301.7,-335.25 292.03,-326.21"/>
<polygon fill="black" stroke="black" points="294.53,-323.76 284.83,-319.49 289.75,-328.87 294.53,-323.76"/>
</g>
<!-- L2 -->
<g id="node7" class="node">
<title>L2</title>
<polygon fill="none" stroke="black" points="309,-259 255,-259 255,-236 309,-236 309,-259"/>
<text text-anchor="middle" x="282" y="-243.8" font-family="Times,serif" font-size="14.00">L2</text>
</g>
<!-- scattered_beam&#45;&gt;L2 -->
<g id="edge6" class="edge">
<title>scattered_beam&#45;&gt;L2</title>
<path fill="none" stroke="black" d="M273.93,-294.51C275.12,-287.73 276.69,-278.79 278.12,-270.59"/>
<polygon fill="black" stroke="black" points="281.54,-271.4 279.82,-260.95 274.64,-270.19 281.54,-271.4"/>
</g>
<!-- scattered_beam&#45;&gt;two_theta -->
<g id="edge10" class="edge">
<title>scattered_beam&#45;&gt;two_theta</title>
<path fill="none" stroke="black" d="M263.92,-294.71C257.7,-285.69 249.56,-272.22 246,-259 229.68,-198.49 221.15,-176.36 244,-118 248.18,-107.32 256.09,-97.63 264,-89.89"/>
<polygon fill="black" stroke="black" points="266.2,-92.61 271.28,-83.32 261.51,-87.42 266.2,-92.61"/>
</g>
<!-- Ltotal -->
<g id="node11" class="node">
<title>Ltotal</title>
<polygon fill="none" stroke="black" points="312.5,-200 253.5,-200 253.5,-177 312.5,-177 312.5,-200"/>
<text text-anchor="middle" x="283" y="-184.8" font-family="Times,serif" font-size="14.00">Ltotal</text>
</g>
<!-- L1&#45;&gt;Ltotal -->
<g id="edge11" class="edge">
<title>L1&#45;&gt;Ltotal</title>
<path fill="none" stroke="black" d="M191.79,-235.51C208.59,-227.03 232.09,-215.18 251.02,-205.63"/>
<polygon fill="black" stroke="black" points="252.58,-208.77 259.93,-201.14 249.42,-202.52 252.58,-208.77"/>
</g>
<!-- L2&#45;&gt;Ltotal -->
<g id="edge12" class="edge">
<title>L2&#45;&gt;Ltotal</title>
<path fill="none" stroke="black" d="M282.19,-235.51C282.31,-228.81 282.47,-219.99 282.61,-211.88"/>
<polygon fill="black" stroke="black" points="286.11,-212.03 282.78,-201.97 279.11,-211.91 286.11,-212.03"/>
</g>
<!-- gravity -->
<g id="node8" class="node">
<title>gravity</title>
<polygon fill="none" stroke="black" points="321,-141 253,-141 253,-118 321,-118 321,-141"/>
<text text-anchor="middle" x="287" y="-125.8" font-family="Times,serif" font-size="14.00">gravity</text>
</g>
<!-- gravity&#45;&gt;two_theta -->
<g id="edge7" class="edge">
<title>gravity&#45;&gt;two_theta</title>
<path fill="none" stroke="black" d="M287,-117.51C287,-110.81 287,-101.99 287,-93.88"/>
<polygon fill="black" stroke="black" points="290.5,-93.97 287,-83.97 283.5,-93.97 290.5,-93.97"/>
</g>
<!-- Q -->
<g id="node12" class="node">
<title>Q</title>
<polygon fill="none" stroke="black" points="350,-23 296,-23 296,0 350,0 350,-23"/>
<text text-anchor="middle" x="323" y="-7.8" font-family="Times,serif" font-size="14.00">Q</text>
</g>
<!-- two_theta&#45;&gt;Q -->
<g id="edge14" class="edge">
<title>two_theta&#45;&gt;Q</title>
<path fill="none" stroke="black" d="M293.94,-58.51C298.47,-51.33 304.53,-41.74 309.94,-33.17"/>
<polygon fill="black" stroke="black" points="312.89,-35.06 315.27,-24.74 306.97,-31.32 312.89,-35.06"/>
</g>
<!-- wavelength -->
<g id="node10" class="node">
<title>wavelength</title>
<polygon fill="none" stroke="black" points="438.5,-141 339.5,-141 339.5,-118 438.5,-118 438.5,-141"/>
<text text-anchor="middle" x="389" y="-125.8" font-family="Times,serif" font-size="14.00">wavelength</text>
</g>
<!-- wavelength&#45;&gt;two_theta -->
<g id="edge8" class="edge">
<title>wavelength&#45;&gt;two_theta</title>
<path fill="none" stroke="black" d="M369.33,-117.51C354.38,-109.15 333.55,-97.51 316.58,-88.03"/>
<polygon fill="black" stroke="black" points="318.36,-85.02 307.93,-83.19 314.95,-91.13 318.36,-85.02"/>
</g>
<!-- wavelength&#45;&gt;Q -->
<g id="edge13" class="edge">
<title>wavelength&#45;&gt;Q</title>
<path fill="none" stroke="black" d="M382.91,-117.79C371.96,-98.55 348.77,-57.79 334.67,-33.01"/>
<polygon fill="black" stroke="black" points="337.81,-31.46 329.82,-24.49 331.73,-34.92 337.81,-31.46"/>
</g>
<!-- Ltotal&#45;&gt;wavelength -->
<g id="edge16" class="edge">
<title>Ltotal&#45;&gt;wavelength</title>
<path fill="none" stroke="black" d="M303.44,-176.51C319.13,-168.07 341.04,-156.29 358.75,-146.76"/>
<polygon fill="black" stroke="black" points="360.14,-149.99 367.29,-142.17 356.83,-143.83 360.14,-149.99"/>
</g>
<!-- tof -->
<g id="node13" class="node">
<title>tof</title>
<polygon fill="none" stroke="black" points="416,-200 362,-200 362,-177 416,-177 416,-200"/>
<text text-anchor="middle" x="389" y="-184.8" font-family="Times,serif" font-size="14.00">tof</text>
</g>
<!-- tof&#45;&gt;wavelength -->
<g id="edge15" class="edge">
<title>tof&#45;&gt;wavelength</title>
<path fill="none" stroke="black" d="M389,-176.51C389,-169.81 389,-160.99 389,-152.88"/>
<polygon fill="black" stroke="black" points="392.5,-152.97 389,-142.97 385.5,-152.97 392.5,-152.97"/>
</g>
</g>
</svg>
