<?xml version="1.0" encoding="utf-8" standalone="no"?>
<!DOCTYPE svg PUBLIC "-//W3C//DTD SVG 1.1//EN"
  "http://www.w3.org/Graphics/SVG/1.1/DTD/svg11.dtd">
<svg xmlns:xlink="http://www.w3.org/1999/xlink" width="388.965625pt" height="268.549642pt" viewBox="0 0 388.965625 268.549642" xmlns="http://www.w3.org/2000/svg" version="1.1">
 <metadata>
  <rdf:RDF xmlns:dc="http://purl.org/dc/elements/1.1/" xmlns:cc="http://creativecommons.org/ns#" xmlns:rdf="http://www.w3.org/1999/02/22-rdf-syntax-ns#">
   <cc:Work>
    <dc:type rdf:resource="http://purl.org/dc/dcmitype/StillImage"/>
    <dc:date>2024-12-12T12:31:57.919768</dc:date>
    <dc:format>image/svg+xml</dc:format>
    <dc:creator>
     <cc:Agent>
      <dc:title>Matplotlib v3.7.3, https://matplotlib.org/</dc:title>
     </cc:Agent>
    </dc:creator>
   </cc:Work>
  </rdf:RDF>
 </metadata>
 <defs>
  <style type="text/css">*{stroke-linejoin: round; stroke-linecap: butt}</style>
 </defs>
 <g id="figure_1">
  <g id="patch_1">
   <path d="M 0 268.549642 
L 388.965625 268.549642 
L 388.965625 0 
L 0 0 
z
" style="fill: #ffffff"/>
  </g>
  <g id="axes_1">
   <g id="patch_2">
    <path d="M 46.965625 230.715267 
L 381.765625 230.715267 
L 381.765625 8.955267 
L 46.965625 8.955267 
z
" style="fill: #ffffff"/>
   </g>
   <g id="matplotlib.axis_1">
    <g id="xtick_1">
     <g id="line2d_1">
      <defs>
       <path id="m228c162f01" d="M 0 0 
L 0 3.5 
" style="stroke: #000000; stroke-width: 0.8"/>
      </defs>
      <g>
       <use xlink:href="#m228c162f01" x="62.18158" y="230.715267" style="stroke: #000000; stroke-width: 0.8"/>
      </g>
     </g>
     <g id="text_1">
      <!-- 0.00 -->
      <g transform="translate(51.048768 245.313705) scale(0.1 -0.1)">
       <defs>
        <path id="DejaVuSans-30" d="M 2034 4250 
Q 1547 4250 1301 3770 
Q 1056 3291 1056 2328 
Q 1056 1369 1301 889 
Q 1547 409 2034 409 
Q 2525 409 2770 889 
Q 3016 1369 3016 2328 
Q 3016 3291 2770 3770 
Q 2525 4250 2034 4250 
z
M 2034 4750 
Q 2819 4750 3233 4129 
Q 3647 3509 3647 2328 
Q 3647 1150 3233 529 
Q 2819 -91 2034 -91 
Q 1250 -91 836 529 
Q 422 1150 422 2328 
Q 422 3509 836 4129 
Q 1250 4750 2034 4750 
z
" transform="scale(0.015625)"/>
        <path id="DejaVuSans-2e" d="M 684 794 
L 1344 794 
L 1344 0 
L 684 0 
L 684 794 
z
" transform="scale(0.015625)"/>
       </defs>
       <use xlink:href="#DejaVuSans-30"/>
       <use xlink:href="#DejaVuSans-2e" x="63.623047"/>
       <use xlink:href="#DejaVuSans-30" x="95.410156"/>
       <use xlink:href="#DejaVuSans-30" x="159.033203"/>
      </g>
     </g>
    </g>
    <g id="xtick_2">
     <g id="line2d_2">
      <g>
       <use xlink:href="#m228c162f01" x="104.793687" y="230.715267" style="stroke: #000000; stroke-width: 0.8"/>
      </g>
     </g>
     <g id="text_2">
      <!-- 0.01 -->
      <g transform="translate(93.660875 245.313705) scale(0.1 -0.1)">
       <defs>
        <path id="DejaVuSans-31" d="M 794 531 
L 1825 531 
L 1825 4091 
L 703 3866 
L 703 4441 
L 1819 4666 
L 2450 4666 
L 2450 531 
L 3481 531 
L 3481 0 
L 794 0 
L 794 531 
z
" transform="scale(0.015625)"/>
       </defs>
       <use xlink:href="#DejaVuSans-30"/>
       <use xlink:href="#DejaVuSans-2e" x="63.623047"/>
       <use xlink:href="#DejaVuSans-30" x="95.410156"/>
       <use xlink:href="#DejaVuSans-31" x="159.033203"/>
      </g>
     </g>
    </g>
    <g id="xtick_3">
     <g id="line2d_3">
      <g>
       <use xlink:href="#m228c162f01" x="147.405794" y="230.715267" style="stroke: #000000; stroke-width: 0.8"/>
      </g>
     </g>
     <g id="text_3">
      <!-- 0.02 -->
      <g transform="translate(136.272981 245.313705) scale(0.1 -0.1)">
       <defs>
        <path id="DejaVuSans-32" d="M 1228 531 
L 3431 531 
L 3431 0 
L 469 0 
L 469 531 
Q 828 903 1448 1529 
Q 2069 2156 2228 2338 
Q 2531 2678 2651 2914 
Q 2772 3150 2772 3378 
Q 2772 3750 2511 3984 
Q 2250 4219 1831 4219 
Q 1534 4219 1204 4116 
Q 875 4013 500 3803 
L 500 4441 
Q 881 4594 1212 4672 
Q 1544 4750 1819 4750 
Q 2544 4750 2975 4387 
Q 3406 4025 3406 3419 
Q 3406 3131 3298 2873 
Q 3191 2616 2906 2266 
Q 2828 2175 2409 1742 
Q 1991 1309 1228 531 
z
" transform="scale(0.015625)"/>
       </defs>
       <use xlink:href="#DejaVuSans-30"/>
       <use xlink:href="#DejaVuSans-2e" x="63.623047"/>
       <use xlink:href="#DejaVuSans-30" x="95.410156"/>
       <use xlink:href="#DejaVuSans-32" x="159.033203"/>
      </g>
     </g>
    </g>
    <g id="xtick_4">
     <g id="line2d_4">
      <g>
       <use xlink:href="#m228c162f01" x="190.0179" y="230.715267" style="stroke: #000000; stroke-width: 0.8"/>
      </g>
     </g>
     <g id="text_4">
      <!-- 0.03 -->
      <g transform="translate(178.885088 245.313705) scale(0.1 -0.1)">
       <defs>
        <path id="DejaVuSans-33" d="M 2597 2516 
Q 3050 2419 3304 2112 
Q 3559 1806 3559 1356 
Q 3559 666 3084 287 
Q 2609 -91 1734 -91 
Q 1441 -91 1130 -33 
Q 819 25 488 141 
L 488 750 
Q 750 597 1062 519 
Q 1375 441 1716 441 
Q 2309 441 2620 675 
Q 2931 909 2931 1356 
Q 2931 1769 2642 2001 
Q 2353 2234 1838 2234 
L 1294 2234 
L 1294 2753 
L 1863 2753 
Q 2328 2753 2575 2939 
Q 2822 3125 2822 3475 
Q 2822 3834 2567 4026 
Q 2313 4219 1838 4219 
Q 1578 4219 1281 4162 
Q 984 4106 628 3988 
L 628 4550 
Q 988 4650 1302 4700 
Q 1616 4750 1894 4750 
Q 2613 4750 3031 4423 
Q 3450 4097 3450 3541 
Q 3450 3153 3228 2886 
Q 3006 2619 2597 2516 
z
" transform="scale(0.015625)"/>
       </defs>
       <use xlink:href="#DejaVuSans-30"/>
       <use xlink:href="#DejaVuSans-2e" x="63.623047"/>
       <use xlink:href="#DejaVuSans-30" x="95.410156"/>
       <use xlink:href="#DejaVuSans-33" x="159.033203"/>
      </g>
     </g>
    </g>
    <g id="xtick_5">
     <g id="line2d_5">
      <g>
       <use xlink:href="#m228c162f01" x="232.630007" y="230.715267" style="stroke: #000000; stroke-width: 0.8"/>
      </g>
     </g>
     <g id="text_5">
      <!-- 0.04 -->
      <g transform="translate(221.497195 245.313705) scale(0.1 -0.1)">
       <defs>
        <path id="DejaVuSans-34" d="M 2419 4116 
L 825 1625 
L 2419 1625 
L 2419 4116 
z
M 2253 4666 
L 3047 4666 
L 3047 1625 
L 3713 1625 
L 3713 1100 
L 3047 1100 
L 3047 0 
L 2419 0 
L 2419 1100 
L 313 1100 
L 313 1709 
L 2253 4666 
z
" transform="scale(0.015625)"/>
       </defs>
       <use xlink:href="#DejaVuSans-30"/>
       <use xlink:href="#DejaVuSans-2e" x="63.623047"/>
       <use xlink:href="#DejaVuSans-30" x="95.410156"/>
       <use xlink:href="#DejaVuSans-34" x="159.033203"/>
      </g>
     </g>
    </g>
    <g id="xtick_6">
     <g id="line2d_6">
      <g>
       <use xlink:href="#m228c162f01" x="275.242114" y="230.715267" style="stroke: #000000; stroke-width: 0.8"/>
      </g>
     </g>
     <g id="text_6">
      <!-- 0.05 -->
      <g transform="translate(264.109301 245.313705) scale(0.1 -0.1)">
       <defs>
        <path id="DejaVuSans-35" d="M 691 4666 
L 3169 4666 
L 3169 4134 
L 1269 4134 
L 1269 2991 
Q 1406 3038 1543 3061 
Q 1681 3084 1819 3084 
Q 2600 3084 3056 2656 
Q 3513 2228 3513 1497 
Q 3513 744 3044 326 
Q 2575 -91 1722 -91 
Q 1428 -91 1123 -41 
Q 819 9 494 109 
L 494 744 
Q 775 591 1075 516 
Q 1375 441 1709 441 
Q 2250 441 2565 725 
Q 2881 1009 2881 1497 
Q 2881 1984 2565 2268 
Q 2250 2553 1709 2553 
Q 1456 2553 1204 2497 
Q 953 2441 691 2322 
L 691 4666 
z
" transform="scale(0.015625)"/>
       </defs>
       <use xlink:href="#DejaVuSans-30"/>
       <use xlink:href="#DejaVuSans-2e" x="63.623047"/>
       <use xlink:href="#DejaVuSans-30" x="95.410156"/>
       <use xlink:href="#DejaVuSans-35" x="159.033203"/>
      </g>
     </g>
    </g>
    <g id="xtick_7">
     <g id="line2d_7">
      <g>
       <use xlink:href="#m228c162f01" x="317.85422" y="230.715267" style="stroke: #000000; stroke-width: 0.8"/>
      </g>
     </g>
     <g id="text_7">
      <!-- 0.06 -->
      <g transform="translate(306.721408 245.313705) scale(0.1 -0.1)">
       <defs>
        <path id="DejaVuSans-36" d="M 2113 2584 
Q 1688 2584 1439 2293 
Q 1191 2003 1191 1497 
Q 1191 994 1439 701 
Q 1688 409 2113 409 
Q 2538 409 2786 701 
Q 3034 994 3034 1497 
Q 3034 2003 2786 2293 
Q 2538 2584 2113 2584 
z
M 3366 4563 
L 3366 3988 
Q 3128 4100 2886 4159 
Q 2644 4219 2406 4219 
Q 1781 4219 1451 3797 
Q 1122 3375 1075 2522 
Q 1259 2794 1537 2939 
Q 1816 3084 2150 3084 
Q 2853 3084 3261 2657 
Q 3669 2231 3669 1497 
Q 3669 778 3244 343 
Q 2819 -91 2113 -91 
Q 1303 -91 875 529 
Q 447 1150 447 2328 
Q 447 3434 972 4092 
Q 1497 4750 2381 4750 
Q 2619 4750 2861 4703 
Q 3103 4656 3366 4563 
z
" transform="scale(0.015625)"/>
       </defs>
       <use xlink:href="#DejaVuSans-30"/>
       <use xlink:href="#DejaVuSans-2e" x="63.623047"/>
       <use xlink:href="#DejaVuSans-30" x="95.410156"/>
       <use xlink:href="#DejaVuSans-36" x="159.033203"/>
      </g>
     </g>
    </g>
    <g id="xtick_8">
     <g id="line2d_8">
      <g>
       <use xlink:href="#m228c162f01" x="360.466327" y="230.715267" style="stroke: #000000; stroke-width: 0.8"/>
      </g>
     </g>
     <g id="text_8">
      <!-- 0.07 -->
      <g transform="translate(349.333515 245.313705) scale(0.1 -0.1)">
       <defs>
        <path id="DejaVuSans-37" d="M 525 4666 
L 3525 4666 
L 3525 4397 
L 1831 0 
L 1172 0 
L 2766 4134 
L 525 4134 
L 525 4666 
z
" transform="scale(0.015625)"/>
       </defs>
       <use xlink:href="#DejaVuSans-30"/>
       <use xlink:href="#DejaVuSans-2e" x="63.623047"/>
       <use xlink:href="#DejaVuSans-30" x="95.410156"/>
       <use xlink:href="#DejaVuSans-37" x="159.033203"/>
      </g>
     </g>
    </g>
    <g id="text_9">
     <!-- event_time_offset [s] -->
     <g transform="translate(161.511719 258.99183) scale(0.1 -0.1)">
      <defs>
       <path id="DejaVuSans-65" d="M 3597 1894 
L 3597 1613 
L 953 1613 
Q 991 1019 1311 708 
Q 1631 397 2203 397 
Q 2534 397 2845 478 
Q 3156 559 3463 722 
L 3463 178 
Q 3153 47 2828 -22 
Q 2503 -91 2169 -91 
Q 1331 -91 842 396 
Q 353 884 353 1716 
Q 353 2575 817 3079 
Q 1281 3584 2069 3584 
Q 2775 3584 3186 3129 
Q 3597 2675 3597 1894 
z
M 3022 2063 
Q 3016 2534 2758 2815 
Q 2500 3097 2075 3097 
Q 1594 3097 1305 2825 
Q 1016 2553 972 2059 
L 3022 2063 
z
" transform="scale(0.015625)"/>
       <path id="DejaVuSans-76" d="M 191 3500 
L 800 3500 
L 1894 563 
L 2988 3500 
L 3597 3500 
L 2284 0 
L 1503 0 
L 191 3500 
z
" transform="scale(0.015625)"/>
       <path id="DejaVuSans-6e" d="M 3513 2113 
L 3513 0 
L 2938 0 
L 2938 2094 
Q 2938 2591 2744 2837 
Q 2550 3084 2163 3084 
Q 1697 3084 1428 2787 
Q 1159 2491 1159 1978 
L 1159 0 
L 581 0 
L 581 3500 
L 1159 3500 
L 1159 2956 
Q 1366 3272 1645 3428 
Q 1925 3584 2291 3584 
Q 2894 3584 3203 3211 
Q 3513 2838 3513 2113 
z
" transform="scale(0.015625)"/>
       <path id="DejaVuSans-74" d="M 1172 4494 
L 1172 3500 
L 2356 3500 
L 2356 3053 
L 1172 3053 
L 1172 1153 
Q 1172 725 1289 603 
Q 1406 481 1766 481 
L 2356 481 
L 2356 0 
L 1766 0 
Q 1100 0 847 248 
Q 594 497 594 1153 
L 594 3053 
L 172 3053 
L 172 3500 
L 594 3500 
L 594 4494 
L 1172 4494 
z
" transform="scale(0.015625)"/>
       <path id="DejaVuSans-5f" d="M 3263 -1063 
L 3263 -1509 
L -63 -1509 
L -63 -1063 
L 3263 -1063 
z
" transform="scale(0.015625)"/>
       <path id="DejaVuSans-69" d="M 603 3500 
L 1178 3500 
L 1178 0 
L 603 0 
L 603 3500 
z
M 603 4863 
L 1178 4863 
L 1178 4134 
L 603 4134 
L 603 4863 
z
" transform="scale(0.015625)"/>
       <path id="DejaVuSans-6d" d="M 3328 2828 
Q 3544 3216 3844 3400 
Q 4144 3584 4550 3584 
Q 5097 3584 5394 3201 
Q 5691 2819 5691 2113 
L 5691 0 
L 5113 0 
L 5113 2094 
Q 5113 2597 4934 2840 
Q 4756 3084 4391 3084 
Q 3944 3084 3684 2787 
Q 3425 2491 3425 1978 
L 3425 0 
L 2847 0 
L 2847 2094 
Q 2847 2600 2669 2842 
Q 2491 3084 2119 3084 
Q 1678 3084 1418 2786 
Q 1159 2488 1159 1978 
L 1159 0 
L 581 0 
L 581 3500 
L 1159 3500 
L 1159 2956 
Q 1356 3278 1631 3431 
Q 1906 3584 2284 3584 
Q 2666 3584 2933 3390 
Q 3200 3197 3328 2828 
z
" transform="scale(0.015625)"/>
       <path id="DejaVuSans-6f" d="M 1959 3097 
Q 1497 3097 1228 2736 
Q 959 2375 959 1747 
Q 959 1119 1226 758 
Q 1494 397 1959 397 
Q 2419 397 2687 759 
Q 2956 1122 2956 1747 
Q 2956 2369 2687 2733 
Q 2419 3097 1959 3097 
z
M 1959 3584 
Q 2709 3584 3137 3096 
Q 3566 2609 3566 1747 
Q 3566 888 3137 398 
Q 2709 -91 1959 -91 
Q 1206 -91 779 398 
Q 353 888 353 1747 
Q 353 2609 779 3096 
Q 1206 3584 1959 3584 
z
" transform="scale(0.015625)"/>
       <path id="DejaVuSans-66" d="M 2375 4863 
L 2375 4384 
L 1825 4384 
Q 1516 4384 1395 4259 
Q 1275 4134 1275 3809 
L 1275 3500 
L 2222 3500 
L 2222 3053 
L 1275 3053 
L 1275 0 
L 697 0 
L 697 3053 
L 147 3053 
L 147 3500 
L 697 3500 
L 697 3744 
Q 697 4328 969 4595 
Q 1241 4863 1831 4863 
L 2375 4863 
z
" transform="scale(0.015625)"/>
       <path id="DejaVuSans-73" d="M 2834 3397 
L 2834 2853 
Q 2591 2978 2328 3040 
Q 2066 3103 1784 3103 
Q 1356 3103 1142 2972 
Q 928 2841 928 2578 
Q 928 2378 1081 2264 
Q 1234 2150 1697 2047 
L 1894 2003 
Q 2506 1872 2764 1633 
Q 3022 1394 3022 966 
Q 3022 478 2636 193 
Q 2250 -91 1575 -91 
Q 1294 -91 989 -36 
Q 684 19 347 128 
L 347 722 
Q 666 556 975 473 
Q 1284 391 1588 391 
Q 1994 391 2212 530 
Q 2431 669 2431 922 
Q 2431 1156 2273 1281 
Q 2116 1406 1581 1522 
L 1381 1569 
Q 847 1681 609 1914 
Q 372 2147 372 2553 
Q 372 3047 722 3315 
Q 1072 3584 1716 3584 
Q 2034 3584 2315 3537 
Q 2597 3491 2834 3397 
z
" transform="scale(0.015625)"/>
       <path id="DejaVuSans-20" transform="scale(0.015625)"/>
       <path id="DejaVuSans-5b" d="M 550 4863 
L 1875 4863 
L 1875 4416 
L 1125 4416 
L 1125 -397 
L 1875 -397 
L 1875 -844 
L 550 -844 
L 550 4863 
z
" transform="scale(0.015625)"/>
       <path id="DejaVuSans-5d" d="M 1947 4863 
L 1947 -844 
L 622 -844 
L 622 -397 
L 1369 -397 
L 1369 4416 
L 622 4416 
L 622 4863 
L 1947 4863 
z
" transform="scale(0.015625)"/>
      </defs>
      <use xlink:href="#DejaVuSans-65"/>
      <use xlink:href="#DejaVuSans-76" x="61.523438"/>
      <use xlink:href="#DejaVuSans-65" x="120.703125"/>
      <use xlink:href="#DejaVuSans-6e" x="182.226562"/>
      <use xlink:href="#DejaVuSans-74" x="245.605469"/>
      <use xlink:href="#DejaVuSans-5f" x="284.814453"/>
      <use xlink:href="#DejaVuSans-74" x="334.814453"/>
      <use xlink:href="#DejaVuSans-69" x="374.023438"/>
      <use xlink:href="#DejaVuSans-6d" x="401.806641"/>
      <use xlink:href="#DejaVuSans-65" x="499.21875"/>
      <use xlink:href="#DejaVuSans-5f" x="560.742188"/>
      <use xlink:href="#DejaVuSans-6f" x="610.742188"/>
      <use xlink:href="#DejaVuSans-66" x="671.923828"/>
      <use xlink:href="#DejaVuSans-66" x="707.128906"/>
      <use xlink:href="#DejaVuSans-73" x="742.333984"/>
      <use xlink:href="#DejaVuSans-65" x="794.433594"/>
      <use xlink:href="#DejaVuSans-74" x="855.957031"/>
      <use xlink:href="#DejaVuSans-20" x="895.166016"/>
      <use xlink:href="#DejaVuSans-5b" x="926.953125"/>
      <use xlink:href="#DejaVuSans-73" x="965.966797"/>
      <use xlink:href="#DejaVuSans-5d" x="1018.066406"/>
     </g>
    </g>
   </g>
   <g id="matplotlib.axis_2">
    <g id="ytick_1">
     <g id="line2d_9">
      <defs>
       <path id="m04a0d18c36" d="M 0 0 
L -3.5 0 
" style="stroke: #000000; stroke-width: 0.8"/>
      </defs>
      <g>
       <use xlink:href="#m04a0d18c36" x="46.965625" y="220.635267" style="stroke: #000000; stroke-width: 0.8"/>
      </g>
     </g>
     <g id="text_10">
      <!-- 0 -->
      <g transform="translate(33.603125 224.434486) scale(0.1 -0.1)">
       <use xlink:href="#DejaVuSans-30"/>
      </g>
     </g>
    </g>
    <g id="ytick_2">
     <g id="line2d_10">
      <g>
       <use xlink:href="#m04a0d18c36" x="46.965625" y="185.695926" style="stroke: #000000; stroke-width: 0.8"/>
      </g>
     </g>
     <g id="text_11">
      <!-- 100 -->
      <g transform="translate(20.878125 189.495145) scale(0.1 -0.1)">
       <use xlink:href="#DejaVuSans-31"/>
       <use xlink:href="#DejaVuSans-30" x="63.623047"/>
       <use xlink:href="#DejaVuSans-30" x="127.246094"/>
      </g>
     </g>
    </g>
    <g id="ytick_3">
     <g id="line2d_11">
      <g>
       <use xlink:href="#m04a0d18c36" x="46.965625" y="150.756584" style="stroke: #000000; stroke-width: 0.8"/>
      </g>
     </g>
     <g id="text_12">
      <!-- 200 -->
      <g transform="translate(20.878125 154.555803) scale(0.1 -0.1)">
       <use xlink:href="#DejaVuSans-32"/>
       <use xlink:href="#DejaVuSans-30" x="63.623047"/>
       <use xlink:href="#DejaVuSans-30" x="127.246094"/>
      </g>
     </g>
    </g>
    <g id="ytick_4">
     <g id="line2d_12">
      <g>
       <use xlink:href="#m04a0d18c36" x="46.965625" y="115.817243" style="stroke: #000000; stroke-width: 0.8"/>
      </g>
     </g>
     <g id="text_13">
      <!-- 300 -->
      <g transform="translate(20.878125 119.616462) scale(0.1 -0.1)">
       <use xlink:href="#DejaVuSans-33"/>
       <use xlink:href="#DejaVuSans-30" x="63.623047"/>
       <use xlink:href="#DejaVuSans-30" x="127.246094"/>
      </g>
     </g>
    </g>
    <g id="ytick_5">
     <g id="line2d_13">
      <g>
       <use xlink:href="#m04a0d18c36" x="46.965625" y="80.877902" style="stroke: #000000; stroke-width: 0.8"/>
      </g>
     </g>
     <g id="text_14">
      <!-- 400 -->
      <g transform="translate(20.878125 84.67712) scale(0.1 -0.1)">
       <use xlink:href="#DejaVuSans-34"/>
       <use xlink:href="#DejaVuSans-30" x="63.623047"/>
       <use xlink:href="#DejaVuSans-30" x="127.246094"/>
      </g>
     </g>
    </g>
    <g id="ytick_6">
     <g id="line2d_14">
      <g>
       <use xlink:href="#m04a0d18c36" x="46.965625" y="45.93856" style="stroke: #000000; stroke-width: 0.8"/>
      </g>
     </g>
     <g id="text_15">
      <!-- 500 -->
      <g transform="translate(20.878125 49.737779) scale(0.1 -0.1)">
       <use xlink:href="#DejaVuSans-35"/>
       <use xlink:href="#DejaVuSans-30" x="63.623047"/>
       <use xlink:href="#DejaVuSans-30" x="127.246094"/>
      </g>
     </g>
    </g>
    <g id="ytick_7">
     <g id="line2d_15">
      <g>
       <use xlink:href="#m04a0d18c36" x="46.965625" y="10.999219" style="stroke: #000000; stroke-width: 0.8"/>
      </g>
     </g>
     <g id="text_16">
      <!-- 600 -->
      <g transform="translate(20.878125 14.798437) scale(0.1 -0.1)">
       <use xlink:href="#DejaVuSans-36"/>
       <use xlink:href="#DejaVuSans-30" x="63.623047"/>
       <use xlink:href="#DejaVuSans-30" x="127.246094"/>
      </g>
     </g>
    </g>
    <g id="text_17">
     <!-- [counts] -->
     <g transform="translate(14.798438 140.447767) rotate(-90) scale(0.1 -0.1)">
      <defs>
       <path id="DejaVuSans-63" d="M 3122 3366 
L 3122 2828 
Q 2878 2963 2633 3030 
Q 2388 3097 2138 3097 
Q 1578 3097 1268 2742 
Q 959 2388 959 1747 
Q 959 1106 1268 751 
Q 1578 397 2138 397 
Q 2388 397 2633 464 
Q 2878 531 3122 666 
L 3122 134 
Q 2881 22 2623 -34 
Q 2366 -91 2075 -91 
Q 1284 -91 818 406 
Q 353 903 353 1747 
Q 353 2603 823 3093 
Q 1294 3584 2113 3584 
Q 2378 3584 2631 3529 
Q 2884 3475 3122 3366 
z
" transform="scale(0.015625)"/>
       <path id="DejaVuSans-75" d="M 544 1381 
L 544 3500 
L 1119 3500 
L 1119 1403 
Q 1119 906 1312 657 
Q 1506 409 1894 409 
Q 2359 409 2629 706 
Q 2900 1003 2900 1516 
L 2900 3500 
L 3475 3500 
L 3475 0 
L 2900 0 
L 2900 538 
Q 2691 219 2414 64 
Q 2138 -91 1772 -91 
Q 1169 -91 856 284 
Q 544 659 544 1381 
z
M 1991 3584 
L 1991 3584 
z
" transform="scale(0.015625)"/>
      </defs>
      <use xlink:href="#DejaVuSans-5b"/>
      <use xlink:href="#DejaVuSans-63" x="39.013672"/>
      <use xlink:href="#DejaVuSans-6f" x="93.994141"/>
      <use xlink:href="#DejaVuSans-75" x="155.175781"/>
      <use xlink:href="#DejaVuSans-6e" x="218.554688"/>
      <use xlink:href="#DejaVuSans-74" x="281.933594"/>
      <use xlink:href="#DejaVuSans-73" x="321.142578"/>
      <use xlink:href="#DejaVuSans-5d" x="373.242188"/>
     </g>
    </g>
   </g>
   <g id="patch_3">
    <path d="M 46.965625 230.715267 
L 46.965625 8.955267 
" style="fill: none; stroke: #000000; stroke-width: 0.8; stroke-linejoin: miter; stroke-linecap: square"/>
   </g>
   <g id="patch_4">
    <path d="M 381.765625 230.715267 
L 381.765625 8.955267 
" style="fill: none; stroke: #000000; stroke-width: 0.8; stroke-linejoin: miter; stroke-linecap: square"/>
   </g>
   <g id="patch_5">
    <path d="M 46.965625 230.715267 
L 381.765625 230.715267 
" style="fill: none; stroke: #000000; stroke-width: 0.8; stroke-linejoin: miter; stroke-linecap: square"/>
   </g>
   <g id="patch_6">
    <path d="M 46.965625 8.955267 
L 381.765625 8.955267 
" style="fill: none; stroke: #000000; stroke-width: 0.8; stroke-linejoin: miter; stroke-linecap: square"/>
   </g>
   <g id="line2d_16">
    <path d="M 62.183807 126.299045 
L 63.198352 126.299045 
L 63.198352 114.070276 
L 64.212898 114.070276 
L 64.212898 126.648439 
L 65.227443 126.648439 
L 65.227443 124.901472 
L 66.241989 124.901472 
L 66.241989 129.094193 
L 67.256534 129.094193 
L 67.256534 128.046013 
L 68.27108 128.046013 
L 68.27108 111.973915 
L 69.285625 111.973915 
L 69.285625 128.046013 
L 70.30017 128.046013 
L 70.30017 131.190553 
L 71.314716 131.190553 
L 71.314716 129.443586 
L 72.329261 129.443586 
L 72.329261 139.575995 
L 73.343807 139.575995 
L 73.343807 134.335094 
L 74.358352 134.335094 
L 74.358352 138.178422 
L 75.372898 138.178422 
L 75.372898 132.93752 
L 76.387443 132.93752 
L 76.387443 137.479635 
L 77.401989 137.479635 
L 77.401989 149.359011 
L 78.416534 149.359011 
L 78.416534 144.816896 
L 79.43108 144.816896 
L 79.43108 136.780848 
L 80.445625 136.780848 
L 80.445625 140.973569 
L 81.46017 140.973569 
L 81.46017 150.057798 
L 82.474716 150.057798 
L 82.474716 155.997486 
L 83.489261 155.997486 
L 83.489261 144.816896 
L 84.503807 144.816896 
L 84.503807 139.925389 
L 85.518352 139.925389 
L 85.518352 149.359011 
L 86.532898 149.359011 
L 86.532898 138.527815 
L 87.547443 138.527815 
L 87.547443 149.009617 
L 88.561989 149.009617 
L 88.561989 154.599912 
L 89.576534 154.599912 
L 89.576534 158.792633 
L 90.59108 158.792633 
L 90.59108 153.901125 
L 91.605625 153.901125 
L 91.605625 149.708404 
L 92.62017 149.708404 
L 92.62017 157.744453 
L 93.634716 157.744453 
L 93.634716 160.190207 
L 94.649261 160.190207 
L 94.649261 155.997486 
L 95.663807 155.997486 
L 95.663807 163.684141 
L 96.678352 163.684141 
L 96.678352 161.937174 
L 97.692898 161.937174 
L 97.692898 166.828681 
L 98.707443 166.828681 
L 98.707443 162.286567 
L 99.721989 162.286567 
L 99.721989 172.76837 
L 100.736534 172.76837 
L 100.736534 167.876862 
L 101.75108 167.876862 
L 101.75108 169.623829 
L 102.765625 169.623829 
L 102.765625 168.575649 
L 103.78017 168.575649 
L 103.78017 175.91291 
L 104.794716 175.91291 
L 104.794716 174.86473 
L 105.809261 174.86473 
L 105.809261 176.961091 
L 106.823807 176.961091 
L 106.823807 181.852598 
L 107.838352 181.852598 
L 107.838352 188.14168 
L 108.852898 188.14168 
L 108.852898 189.888647 
L 109.867443 189.888647 
L 109.867443 190.23804 
L 110.881989 190.23804 
L 110.881989 188.14168 
L 111.896534 188.14168 
L 111.896534 197.225909 
L 112.91108 197.225909 
L 112.91108 187.0935 
L 113.925625 187.0935 
L 113.925625 197.924695 
L 114.94017 197.924695 
L 114.94017 202.816203 
L 115.954716 202.816203 
L 115.954716 203.165597 
L 116.969261 203.165597 
L 116.969261 201.768023 
L 117.983807 201.768023 
L 117.983807 202.117416 
L 118.998352 202.117416 
L 118.998352 209.804071 
L 120.012898 209.804071 
L 120.012898 209.454678 
L 121.027443 209.454678 
L 121.027443 210.852252 
L 122.041989 210.852252 
L 122.041989 209.454678 
L 123.056534 209.454678 
L 123.056534 212.249825 
L 124.07108 212.249825 
L 124.07108 214.695579 
L 125.085625 214.695579 
L 125.085625 212.249825 
L 126.10017 212.249825 
L 126.10017 216.093153 
L 127.114716 216.093153 
L 127.114716 217.84012 
L 128.129261 217.84012 
L 128.129261 217.490727 
L 129.143807 217.490727 
L 129.143807 217.84012 
L 130.158352 217.84012 
L 130.158352 218.8883 
L 131.172898 218.8883 
L 131.172898 219.237694 
L 132.187443 219.237694 
L 132.187443 220.285874 
L 133.201989 220.285874 
L 133.201989 220.635267 
L 134.216534 220.635267 
L 134.216534 219.587087 
L 135.23108 219.587087 
L 135.23108 220.285874 
L 136.245625 220.285874 
L 136.245625 220.635267 
L 149.434716 220.635267 
L 149.434716 217.490727 
L 150.449261 217.490727 
L 150.449261 213.647399 
L 151.463807 213.647399 
L 151.463807 208.057104 
L 152.478352 208.057104 
L 152.478352 197.924695 
L 153.492898 197.924695 
L 153.492898 194.430761 
L 154.507443 194.430761 
L 154.507443 192.334401 
L 155.521989 192.334401 
L 155.521989 187.442893 
L 156.536534 187.442893 
L 156.536534 181.503205 
L 157.55108 181.503205 
L 157.55108 172.069583 
L 158.565625 172.069583 
L 158.565625 167.876862 
L 159.58017 167.876862 
L 159.58017 165.780501 
L 160.594716 165.780501 
L 160.594716 160.190207 
L 161.609261 160.190207 
L 161.609261 149.009617 
L 162.623807 149.009617 
L 162.623807 153.901125 
L 163.638352 153.901125 
L 163.638352 141.322962 
L 164.652898 141.322962 
L 164.652898 137.130241 
L 165.667443 137.130241 
L 165.667443 130.142373 
L 166.681989 130.142373 
L 166.681989 137.130241 
L 167.696534 137.130241 
L 167.696534 113.022096 
L 168.71108 113.022096 
L 168.71108 120.009964 
L 169.725625 120.009964 
L 169.725625 101.14272 
L 170.74017 101.14272 
L 170.74017 107.781194 
L 171.754716 107.781194 
L 171.754716 102.889687 
L 172.769261 102.889687 
L 172.769261 96.600605 
L 173.783807 96.600605 
L 173.783807 97.648785 
L 174.798352 97.648785 
L 174.798352 100.793326 
L 175.812898 100.793326 
L 175.812898 85.420016 
L 176.827443 85.420016 
L 176.827443 75.637 
L 177.841989 75.637 
L 177.841989 85.769409 
L 178.856534 85.769409 
L 178.856534 65.155198 
L 179.87108 65.155198 
L 179.87108 62.360051 
L 180.885625 62.360051 
L 180.885625 56.769756 
L 181.90017 56.769756 
L 181.90017 61.31187 
L 182.914716 61.31187 
L 182.914716 49.781888 
L 183.929261 49.781888 
L 183.929261 49.083101 
L 184.943807 49.083101 
L 184.943807 47.685527 
L 185.958352 47.685527 
L 185.958352 43.8422 
L 186.972898 43.8422 
L 186.972898 53.625215 
L 187.987443 53.625215 
L 187.987443 50.830068 
L 189.001989 50.830068 
L 189.001989 40.348266 
L 190.016534 40.348266 
L 190.016534 29.167676 
L 191.03108 29.167676 
L 191.03108 24.625562 
L 192.045625 24.625562 
L 192.045625 29.866463 
L 193.06017 29.866463 
L 193.06017 30.215857 
L 194.074716 30.215857 
L 194.074716 19.035267 
L 195.089261 19.035267 
L 195.089261 36.504938 
L 196.103807 36.504938 
L 196.103807 31.962824 
L 197.118352 31.962824 
L 197.118352 26.023136 
L 198.132898 26.023136 
L 198.132898 50.131281 
L 199.147443 50.131281 
L 199.147443 34.408578 
L 200.161989 34.408578 
L 200.161989 45.93856 
L 201.176534 45.93856 
L 201.176534 39.300085 
L 202.19108 39.300085 
L 202.19108 38.251905 
L 203.205625 38.251905 
L 203.205625 33.360397 
L 204.22017 33.360397 
L 204.22017 45.589167 
L 205.234716 45.589167 
L 205.234716 46.98674 
L 206.249261 46.98674 
L 206.249261 66.203378 
L 207.263807 66.203378 
L 207.263807 50.131281 
L 208.278352 50.131281 
L 208.278352 53.275822 
L 209.292898 53.275822 
L 209.292898 65.155198 
L 210.307443 65.155198 
L 210.307443 64.107018 
L 211.321989 64.107018 
L 211.321989 51.179461 
L 212.336534 51.179461 
L 212.336534 60.613084 
L 213.35108 60.613084 
L 213.35108 43.8422 
L 214.365625 43.8422 
L 214.365625 56.769756 
L 215.38017 56.769756 
L 215.38017 72.143066 
L 216.394716 72.143066 
L 216.394716 48.384314 
L 217.409261 48.384314 
L 217.409261 58.16733 
L 218.423807 58.16733 
L 218.423807 63.058837 
L 219.438352 63.058837 
L 219.438352 64.107018 
L 220.452898 64.107018 
L 220.452898 64.805805 
L 221.467443 64.805805 
L 221.467443 63.408231 
L 222.481989 63.408231 
L 222.481989 63.757624 
L 223.496534 63.757624 
L 223.496534 67.251558 
L 224.51108 67.251558 
L 224.51108 70.046706 
L 225.525625 70.046706 
L 225.525625 70.745493 
L 226.54017 70.745493 
L 226.54017 60.26369 
L 227.554716 60.26369 
L 227.554716 80.877902 
L 228.569261 80.877902 
L 228.569261 69.697312 
L 229.583807 69.697312 
L 229.583807 78.432148 
L 230.598352 78.432148 
L 230.598352 53.974609 
L 231.612898 53.974609 
L 231.612898 65.155198 
L 232.627443 65.155198 
L 232.627443 64.456411 
L 233.641989 64.456411 
L 233.641989 87.516376 
L 234.656534 87.516376 
L 234.656534 75.986394 
L 235.67108 75.986394 
L 235.67108 57.817936 
L 236.685625 57.817936 
L 236.685625 72.49246 
L 237.70017 72.49246 
L 237.70017 76.335787 
L 238.714716 76.335787 
L 238.714716 66.203378 
L 239.729261 66.203378 
L 239.729261 75.637 
L 240.743807 75.637 
L 240.743807 75.287607 
L 241.758352 75.287607 
L 241.758352 73.54064 
L 242.772898 73.54064 
L 242.772898 82.275475 
L 243.787443 82.275475 
L 243.787443 88.564557 
L 244.801989 88.564557 
L 244.801989 74.938214 
L 245.816534 74.938214 
L 245.816534 77.383967 
L 246.83108 77.383967 
L 246.83108 87.166983 
L 247.845625 87.166983 
L 247.845625 80.179115 
L 248.86017 80.179115 
L 248.86017 78.082754 
L 249.874716 78.082754 
L 249.874716 93.106671 
L 250.889261 93.106671 
L 250.889261 91.010311 
L 251.903807 91.010311 
L 251.903807 91.709097 
L 252.918352 91.709097 
L 252.918352 86.81759 
L 253.932898 86.81759 
L 253.932898 100.094539 
L 254.947443 100.094539 
L 254.947443 100.443933 
L 255.961989 100.443933 
L 255.961989 99.395753 
L 256.976534 99.395753 
L 256.976534 106.733014 
L 257.99108 106.733014 
L 257.99108 117.56421 
L 259.005625 117.56421 
L 259.005625 123.154505 
L 260.02017 123.154505 
L 260.02017 114.070276 
L 261.034716 114.070276 
L 261.034716 125.949652 
L 262.049261 125.949652 
L 262.049261 133.286914 
L 263.063807 133.286914 
L 263.063807 143.069929 
L 264.078352 143.069929 
L 264.078352 135.383274 
L 265.092898 135.383274 
L 265.092898 145.16629 
L 266.107443 145.16629 
L 266.107443 145.515683 
L 267.121989 145.515683 
L 267.121989 157.045666 
L 268.136534 157.045666 
L 268.136534 159.142026 
L 269.15108 159.142026 
L 269.15108 166.479288 
L 270.165625 166.479288 
L 270.165625 169.274435 
L 271.18017 169.274435 
L 271.18017 174.165943 
L 272.194716 174.165943 
L 272.194716 176.262304 
L 273.209261 176.262304 
L 273.209261 180.455025 
L 274.223807 180.455025 
L 274.223807 182.900779 
L 275.238352 182.900779 
L 275.238352 189.18986 
L 276.252898 189.18986 
L 276.252898 193.382581 
L 277.267443 193.382581 
L 277.267443 199.322269 
L 278.281989 199.322269 
L 278.281989 202.46681 
L 279.296534 202.46681 
L 279.296534 208.406498 
L 280.31108 208.406498 
L 280.31108 210.852252 
L 281.325625 210.852252 
L 281.325625 210.153465 
L 282.34017 210.153465 
L 282.34017 215.743759 
L 283.354716 215.743759 
L 283.354716 217.490727 
L 284.369261 217.490727 
L 284.369261 218.189513 
L 285.383807 218.189513 
L 285.383807 218.538907 
L 286.398352 218.538907 
L 286.398352 219.93648 
L 287.412898 219.93648 
L 287.412898 220.285874 
L 288.427443 220.285874 
L 288.427443 220.635267 
L 298.572898 220.635267 
L 298.572898 216.093153 
L 299.587443 216.093153 
L 299.587443 209.105285 
L 300.601989 209.105285 
L 300.601989 207.008924 
L 301.616534 207.008924 
L 301.616534 200.370449 
L 302.63108 200.370449 
L 302.63108 197.924695 
L 303.645625 197.924695 
L 303.645625 194.430761 
L 304.66017 194.430761 
L 304.66017 196.527122 
L 305.674716 196.527122 
L 305.674716 187.792286 
L 306.689261 187.792286 
L 306.689261 181.153811 
L 307.703807 181.153811 
L 307.703807 175.214123 
L 308.718352 175.214123 
L 308.718352 177.659877 
L 309.732898 177.659877 
L 309.732898 174.515337 
L 310.747443 174.515337 
L 310.747443 168.925042 
L 311.761989 168.925042 
L 311.761989 158.093846 
L 312.776534 158.093846 
L 312.776534 159.49142 
L 313.79108 159.49142 
L 313.79108 155.997486 
L 314.805625 155.997486 
L 314.805625 153.202338 
L 315.82017 153.202338 
L 315.82017 155.298699 
L 316.834716 155.298699 
L 316.834716 149.009617 
L 317.849261 149.009617 
L 317.849261 140.624175 
L 318.863807 140.624175 
L 318.863807 132.93752 
L 319.878352 132.93752 
L 319.878352 131.190553 
L 320.892898 131.190553 
L 320.892898 139.575995 
L 321.907443 139.575995 
L 321.907443 123.503898 
L 322.921989 123.503898 
L 322.921989 128.744799 
L 323.936534 128.744799 
L 323.936534 125.600259 
L 324.95108 125.600259 
L 324.95108 120.009964 
L 325.965625 120.009964 
L 325.965625 116.51603 
L 326.98017 116.51603 
L 326.98017 114.070276 
L 327.994716 114.070276 
L 327.994716 114.769063 
L 329.009261 114.769063 
L 329.009261 104.636654 
L 330.023807 104.636654 
L 330.023807 120.359357 
L 331.038352 120.359357 
L 331.038352 114.070276 
L 332.052898 114.070276 
L 332.052898 104.28726 
L 333.067443 104.28726 
L 333.067443 106.034227 
L 334.081989 106.034227 
L 334.081989 117.214817 
L 335.096534 117.214817 
L 335.096534 101.14272 
L 336.11108 101.14272 
L 336.11108 101.492113 
L 337.125625 101.492113 
L 337.125625 106.383621 
L 338.14017 106.383621 
L 338.14017 96.251212 
L 339.154716 96.251212 
L 339.154716 92.407884 
L 340.169261 92.407884 
L 340.169261 93.805458 
L 341.183807 93.805458 
L 341.183807 91.359704 
L 342.198352 91.359704 
L 342.198352 92.407884 
L 343.212898 92.407884 
L 343.212898 107.431801 
L 344.227443 107.431801 
L 344.227443 95.203032 
L 345.241989 95.203032 
L 345.241989 103.588474 
L 346.256534 103.588474 
L 346.256534 96.949999 
L 347.27108 96.949999 
L 347.27108 88.91395 
L 348.285625 88.91395 
L 348.285625 101.14272 
L 349.30017 101.14272 
L 349.30017 101.841506 
L 350.314716 101.841506 
L 350.314716 101.492113 
L 351.329261 101.492113 
L 351.329261 109.178768 
L 352.343807 109.178768 
L 352.343807 114.070276 
L 353.358352 114.070276 
L 353.358352 107.082408 
L 354.372898 107.082408 
L 354.372898 103.937867 
L 355.387443 103.937867 
L 355.387443 105.684834 
L 356.401989 105.684834 
L 356.401989 109.877555 
L 357.416534 109.877555 
L 357.416534 119.311177 
L 358.43108 119.311177 
L 358.43108 104.28726 
L 359.445625 104.28726 
L 359.445625 116.51603 
L 360.46017 116.51603 
L 360.46017 110.925735 
L 362.489261 110.925735 
L 362.489261 127.347226 
L 363.503807 127.347226 
L 363.503807 114.419669 
L 364.518352 114.419669 
L 364.518352 111.624522 
L 365.532898 111.624522 
L 365.532898 119.311177 
L 366.547443 119.311177 
L 366.547443 119.311177 
" clip-path="url(#pf35b7011dd)" style="fill: none; stroke: #1f77b4; stroke-width: 1.5; stroke-linecap: square"/>
   </g>
  </g>
 </g>
 <defs>
  <clipPath id="pf35b7011dd">
   <rect x="46.965625" y="8.955267" width="334.8" height="221.76"/>
  </clipPath>
 </defs>
</svg>
