<?xml version="1.0" encoding="utf-8" standalone="no"?>
<!DOCTYPE svg PUBLIC "-//W3C//DTD SVG 1.1//EN"
  "http://www.w3.org/Graphics/SVG/1.1/DTD/svg11.dtd">
<svg xmlns:xlink="http://www.w3.org/1999/xlink" width="872.39952pt" height="296.39952pt" viewBox="0 0 872.39952 296.39952" xmlns="http://www.w3.org/2000/svg" version="1.1">
 <metadata>
  <rdf:RDF xmlns:dc="http://purl.org/dc/elements/1.1/" xmlns:cc="http://creativecommons.org/ns#" xmlns:rdf="http://www.w3.org/1999/02/22-rdf-syntax-ns#">
   <cc:Work>
    <dc:type rdf:resource="http://purl.org/dc/dcmitype/StillImage"/>
    <dc:date>2024-12-12T12:32:15.518747</dc:date>
    <dc:format>image/svg+xml</dc:format>
    <dc:creator>
     <cc:Agent>
      <dc:title>Matplotlib v3.7.3, https://matplotlib.org/</dc:title>
     </cc:Agent>
    </dc:creator>
   </cc:Work>
  </rdf:RDF>
 </metadata>
 <defs>
  <style type="text/css">*{stroke-linejoin: round; stroke-linecap: butt}</style>
 </defs>
 <g id="figure_1">
  <g id="patch_1">
   <path d="M 0 296.39952 
L 872.39952 296.39952 
L 872.39952 0 
L 0 0 
z
" style="fill: #ffffff"/>
  </g>
  <g id="axes_1">
   <g id="patch_2">
    <path d="M 53.328125 257.158895 
L 431.87976 257.158895 
L 431.87976 7.2 
L 53.328125 7.2 
z
" style="fill: #ffffff"/>
   </g>
   <g id="matplotlib.axis_1">
    <g id="xtick_1">
     <g id="line2d_1">
      <defs>
       <path id="m830f87a54b" d="M 0 0 
L 0 3.5 
" style="stroke: #000000; stroke-width: 0.8"/>
      </defs>
      <g>
       <use xlink:href="#m830f87a54b" x="69.61445" y="257.158895" style="stroke: #000000; stroke-width: 0.8"/>
      </g>
     </g>
     <g id="text_1">
      <!-- 0 -->
      <g transform="translate(66.4332 271.757332) scale(0.1 -0.1)">
       <defs>
        <path id="DejaVuSans-30" d="M 2034 4250 
Q 1547 4250 1301 3770 
Q 1056 3291 1056 2328 
Q 1056 1369 1301 889 
Q 1547 409 2034 409 
Q 2525 409 2770 889 
Q 3016 1369 3016 2328 
Q 3016 3291 2770 3770 
Q 2525 4250 2034 4250 
z
M 2034 4750 
Q 2819 4750 3233 4129 
Q 3647 3509 3647 2328 
Q 3647 1150 3233 529 
Q 2819 -91 2034 -91 
Q 1250 -91 836 529 
Q 422 1150 422 2328 
Q 422 3509 836 4129 
Q 1250 4750 2034 4750 
z
" transform="scale(0.015625)"/>
       </defs>
       <use xlink:href="#DejaVuSans-30"/>
      </g>
     </g>
    </g>
    <g id="xtick_2">
     <g id="line2d_2">
      <g>
       <use xlink:href="#m830f87a54b" x="138.92997" y="257.158895" style="stroke: #000000; stroke-width: 0.8"/>
      </g>
     </g>
     <g id="text_2">
      <!-- 1000 -->
      <g transform="translate(126.20497 271.757332) scale(0.1 -0.1)">
       <defs>
        <path id="DejaVuSans-31" d="M 794 531 
L 1825 531 
L 1825 4091 
L 703 3866 
L 703 4441 
L 1819 4666 
L 2450 4666 
L 2450 531 
L 3481 531 
L 3481 0 
L 794 0 
L 794 531 
z
" transform="scale(0.015625)"/>
       </defs>
       <use xlink:href="#DejaVuSans-31"/>
       <use xlink:href="#DejaVuSans-30" x="63.623047"/>
       <use xlink:href="#DejaVuSans-30" x="127.246094"/>
       <use xlink:href="#DejaVuSans-30" x="190.869141"/>
      </g>
     </g>
    </g>
    <g id="xtick_3">
     <g id="line2d_3">
      <g>
       <use xlink:href="#m830f87a54b" x="208.24549" y="257.158895" style="stroke: #000000; stroke-width: 0.8"/>
      </g>
     </g>
     <g id="text_3">
      <!-- 2000 -->
      <g transform="translate(195.52049 271.757332) scale(0.1 -0.1)">
       <defs>
        <path id="DejaVuSans-32" d="M 1228 531 
L 3431 531 
L 3431 0 
L 469 0 
L 469 531 
Q 828 903 1448 1529 
Q 2069 2156 2228 2338 
Q 2531 2678 2651 2914 
Q 2772 3150 2772 3378 
Q 2772 3750 2511 3984 
Q 2250 4219 1831 4219 
Q 1534 4219 1204 4116 
Q 875 4013 500 3803 
L 500 4441 
Q 881 4594 1212 4672 
Q 1544 4750 1819 4750 
Q 2544 4750 2975 4387 
Q 3406 4025 3406 3419 
Q 3406 3131 3298 2873 
Q 3191 2616 2906 2266 
Q 2828 2175 2409 1742 
Q 1991 1309 1228 531 
z
" transform="scale(0.015625)"/>
       </defs>
       <use xlink:href="#DejaVuSans-32"/>
       <use xlink:href="#DejaVuSans-30" x="63.623047"/>
       <use xlink:href="#DejaVuSans-30" x="127.246094"/>
       <use xlink:href="#DejaVuSans-30" x="190.869141"/>
      </g>
     </g>
    </g>
    <g id="xtick_4">
     <g id="line2d_4">
      <g>
       <use xlink:href="#m830f87a54b" x="277.56101" y="257.158895" style="stroke: #000000; stroke-width: 0.8"/>
      </g>
     </g>
     <g id="text_4">
      <!-- 3000 -->
      <g transform="translate(264.83601 271.757332) scale(0.1 -0.1)">
       <defs>
        <path id="DejaVuSans-33" d="M 2597 2516 
Q 3050 2419 3304 2112 
Q 3559 1806 3559 1356 
Q 3559 666 3084 287 
Q 2609 -91 1734 -91 
Q 1441 -91 1130 -33 
Q 819 25 488 141 
L 488 750 
Q 750 597 1062 519 
Q 1375 441 1716 441 
Q 2309 441 2620 675 
Q 2931 909 2931 1356 
Q 2931 1769 2642 2001 
Q 2353 2234 1838 2234 
L 1294 2234 
L 1294 2753 
L 1863 2753 
Q 2328 2753 2575 2939 
Q 2822 3125 2822 3475 
Q 2822 3834 2567 4026 
Q 2313 4219 1838 4219 
Q 1578 4219 1281 4162 
Q 984 4106 628 3988 
L 628 4550 
Q 988 4650 1302 4700 
Q 1616 4750 1894 4750 
Q 2613 4750 3031 4423 
Q 3450 4097 3450 3541 
Q 3450 3153 3228 2886 
Q 3006 2619 2597 2516 
z
" transform="scale(0.015625)"/>
       </defs>
       <use xlink:href="#DejaVuSans-33"/>
       <use xlink:href="#DejaVuSans-30" x="63.623047"/>
       <use xlink:href="#DejaVuSans-30" x="127.246094"/>
       <use xlink:href="#DejaVuSans-30" x="190.869141"/>
      </g>
     </g>
    </g>
    <g id="xtick_5">
     <g id="line2d_5">
      <g>
       <use xlink:href="#m830f87a54b" x="346.87653" y="257.158895" style="stroke: #000000; stroke-width: 0.8"/>
      </g>
     </g>
     <g id="text_5">
      <!-- 4000 -->
      <g transform="translate(334.15153 271.757332) scale(0.1 -0.1)">
       <defs>
        <path id="DejaVuSans-34" d="M 2419 4116 
L 825 1625 
L 2419 1625 
L 2419 4116 
z
M 2253 4666 
L 3047 4666 
L 3047 1625 
L 3713 1625 
L 3713 1100 
L 3047 1100 
L 3047 0 
L 2419 0 
L 2419 1100 
L 313 1100 
L 313 1709 
L 2253 4666 
z
" transform="scale(0.015625)"/>
       </defs>
       <use xlink:href="#DejaVuSans-34"/>
       <use xlink:href="#DejaVuSans-30" x="63.623047"/>
       <use xlink:href="#DejaVuSans-30" x="127.246094"/>
       <use xlink:href="#DejaVuSans-30" x="190.869141"/>
      </g>
     </g>
    </g>
    <g id="xtick_6">
     <g id="line2d_6">
      <g>
       <use xlink:href="#m830f87a54b" x="416.19205" y="257.158895" style="stroke: #000000; stroke-width: 0.8"/>
      </g>
     </g>
     <g id="text_6">
      <!-- 5000 -->
      <g transform="translate(403.46705 271.757332) scale(0.1 -0.1)">
       <defs>
        <path id="DejaVuSans-35" d="M 691 4666 
L 3169 4666 
L 3169 4134 
L 1269 4134 
L 1269 2991 
Q 1406 3038 1543 3061 
Q 1681 3084 1819 3084 
Q 2600 3084 3056 2656 
Q 3513 2228 3513 1497 
Q 3513 744 3044 326 
Q 2575 -91 1722 -91 
Q 1428 -91 1123 -41 
Q 819 9 494 109 
L 494 744 
Q 775 591 1075 516 
Q 1375 441 1709 441 
Q 2250 441 2565 725 
Q 2881 1009 2881 1497 
Q 2881 1984 2565 2268 
Q 2250 2553 1709 2553 
Q 1456 2553 1204 2497 
Q 953 2441 691 2322 
L 691 4666 
z
" transform="scale(0.015625)"/>
       </defs>
       <use xlink:href="#DejaVuSans-35"/>
       <use xlink:href="#DejaVuSans-30" x="63.623047"/>
       <use xlink:href="#DejaVuSans-30" x="127.246094"/>
       <use xlink:href="#DejaVuSans-30" x="190.869141"/>
      </g>
     </g>
    </g>
    <g id="text_7">
     <!-- time [µs] -->
     <g transform="translate(220.031286 285.435457) scale(0.1 -0.1)">
      <defs>
       <path id="DejaVuSans-74" d="M 1172 4494 
L 1172 3500 
L 2356 3500 
L 2356 3053 
L 1172 3053 
L 1172 1153 
Q 1172 725 1289 603 
Q 1406 481 1766 481 
L 2356 481 
L 2356 0 
L 1766 0 
Q 1100 0 847 248 
Q 594 497 594 1153 
L 594 3053 
L 172 3053 
L 172 3500 
L 594 3500 
L 594 4494 
L 1172 4494 
z
" transform="scale(0.015625)"/>
       <path id="DejaVuSans-69" d="M 603 3500 
L 1178 3500 
L 1178 0 
L 603 0 
L 603 3500 
z
M 603 4863 
L 1178 4863 
L 1178 4134 
L 603 4134 
L 603 4863 
z
" transform="scale(0.015625)"/>
       <path id="DejaVuSans-6d" d="M 3328 2828 
Q 3544 3216 3844 3400 
Q 4144 3584 4550 3584 
Q 5097 3584 5394 3201 
Q 5691 2819 5691 2113 
L 5691 0 
L 5113 0 
L 5113 2094 
Q 5113 2597 4934 2840 
Q 4756 3084 4391 3084 
Q 3944 3084 3684 2787 
Q 3425 2491 3425 1978 
L 3425 0 
L 2847 0 
L 2847 2094 
Q 2847 2600 2669 2842 
Q 2491 3084 2119 3084 
Q 1678 3084 1418 2786 
Q 1159 2488 1159 1978 
L 1159 0 
L 581 0 
L 581 3500 
L 1159 3500 
L 1159 2956 
Q 1356 3278 1631 3431 
Q 1906 3584 2284 3584 
Q 2666 3584 2933 3390 
Q 3200 3197 3328 2828 
z
" transform="scale(0.015625)"/>
       <path id="DejaVuSans-65" d="M 3597 1894 
L 3597 1613 
L 953 1613 
Q 991 1019 1311 708 
Q 1631 397 2203 397 
Q 2534 397 2845 478 
Q 3156 559 3463 722 
L 3463 178 
Q 3153 47 2828 -22 
Q 2503 -91 2169 -91 
Q 1331 -91 842 396 
Q 353 884 353 1716 
Q 353 2575 817 3079 
Q 1281 3584 2069 3584 
Q 2775 3584 3186 3129 
Q 3597 2675 3597 1894 
z
M 3022 2063 
Q 3016 2534 2758 2815 
Q 2500 3097 2075 3097 
Q 1594 3097 1305 2825 
Q 1016 2553 972 2059 
L 3022 2063 
z
" transform="scale(0.015625)"/>
       <path id="DejaVuSans-20" transform="scale(0.015625)"/>
       <path id="DejaVuSans-5b" d="M 550 4863 
L 1875 4863 
L 1875 4416 
L 1125 4416 
L 1125 -397 
L 1875 -397 
L 1875 -844 
L 550 -844 
L 550 4863 
z
" transform="scale(0.015625)"/>
       <path id="DejaVuSans-b5" d="M 544 -1331 
L 544 3500 
L 1119 3500 
L 1119 1325 
Q 1119 872 1334 640 
Q 1550 409 1972 409 
Q 2434 409 2667 671 
Q 2900 934 2900 1459 
L 2900 3500 
L 3475 3500 
L 3475 806 
Q 3475 619 3529 530 
Q 3584 441 3700 441 
Q 3728 441 3778 458 
Q 3828 475 3916 513 
L 3916 50 
Q 3788 -22 3673 -56 
Q 3559 -91 3450 -91 
Q 3234 -91 3106 31 
Q 2978 153 2931 403 
Q 2775 156 2548 32 
Q 2322 -91 2016 -91 
Q 1697 -91 1473 31 
Q 1250 153 1119 397 
L 1119 -1331 
L 544 -1331 
z
" transform="scale(0.015625)"/>
       <path id="DejaVuSans-73" d="M 2834 3397 
L 2834 2853 
Q 2591 2978 2328 3040 
Q 2066 3103 1784 3103 
Q 1356 3103 1142 2972 
Q 928 2841 928 2578 
Q 928 2378 1081 2264 
Q 1234 2150 1697 2047 
L 1894 2003 
Q 2506 1872 2764 1633 
Q 3022 1394 3022 966 
Q 3022 478 2636 193 
Q 2250 -91 1575 -91 
Q 1294 -91 989 -36 
Q 684 19 347 128 
L 347 722 
Q 666 556 975 473 
Q 1284 391 1588 391 
Q 1994 391 2212 530 
Q 2431 669 2431 922 
Q 2431 1156 2273 1281 
Q 2116 1406 1581 1522 
L 1381 1569 
Q 847 1681 609 1914 
Q 372 2147 372 2553 
Q 372 3047 722 3315 
Q 1072 3584 1716 3584 
Q 2034 3584 2315 3537 
Q 2597 3491 2834 3397 
z
" transform="scale(0.015625)"/>
       <path id="DejaVuSans-5d" d="M 1947 4863 
L 1947 -844 
L 622 -844 
L 622 -397 
L 1369 -397 
L 1369 4416 
L 622 4416 
L 622 4863 
L 1947 4863 
z
" transform="scale(0.015625)"/>
      </defs>
      <use xlink:href="#DejaVuSans-74"/>
      <use xlink:href="#DejaVuSans-69" x="39.208984"/>
      <use xlink:href="#DejaVuSans-6d" x="66.992188"/>
      <use xlink:href="#DejaVuSans-65" x="164.404297"/>
      <use xlink:href="#DejaVuSans-20" x="225.927734"/>
      <use xlink:href="#DejaVuSans-5b" x="257.714844"/>
      <use xlink:href="#DejaVuSans-b5" x="296.728516"/>
      <use xlink:href="#DejaVuSans-73" x="360.351562"/>
      <use xlink:href="#DejaVuSans-5d" x="412.451172"/>
     </g>
    </g>
   </g>
   <g id="matplotlib.axis_2">
    <g id="ytick_1">
     <g id="line2d_7">
      <defs>
       <path id="m9bebce3c34" d="M 0 0 
L -3.5 0 
" style="stroke: #000000; stroke-width: 0.8"/>
      </defs>
      <g>
       <use xlink:href="#m9bebce3c34" x="53.328125" y="245.797127" style="stroke: #000000; stroke-width: 0.8"/>
      </g>
     </g>
     <g id="text_8">
      <!-- 0 -->
      <g transform="translate(39.965625 249.596346) scale(0.1 -0.1)">
       <use xlink:href="#DejaVuSans-30"/>
      </g>
     </g>
    </g>
    <g id="ytick_2">
     <g id="line2d_8">
      <g>
       <use xlink:href="#m9bebce3c34" x="53.328125" y="209.41036" style="stroke: #000000; stroke-width: 0.8"/>
      </g>
     </g>
     <g id="text_9">
      <!-- 200 -->
      <g transform="translate(27.240625 213.209579) scale(0.1 -0.1)">
       <use xlink:href="#DejaVuSans-32"/>
       <use xlink:href="#DejaVuSans-30" x="63.623047"/>
       <use xlink:href="#DejaVuSans-30" x="127.246094"/>
      </g>
     </g>
    </g>
    <g id="ytick_3">
     <g id="line2d_9">
      <g>
       <use xlink:href="#m9bebce3c34" x="53.328125" y="173.023593" style="stroke: #000000; stroke-width: 0.8"/>
      </g>
     </g>
     <g id="text_10">
      <!-- 400 -->
      <g transform="translate(27.240625 176.822812) scale(0.1 -0.1)">
       <use xlink:href="#DejaVuSans-34"/>
       <use xlink:href="#DejaVuSans-30" x="63.623047"/>
       <use xlink:href="#DejaVuSans-30" x="127.246094"/>
      </g>
     </g>
    </g>
    <g id="ytick_4">
     <g id="line2d_10">
      <g>
       <use xlink:href="#m9bebce3c34" x="53.328125" y="136.636826" style="stroke: #000000; stroke-width: 0.8"/>
      </g>
     </g>
     <g id="text_11">
      <!-- 600 -->
      <g transform="translate(27.240625 140.436045) scale(0.1 -0.1)">
       <defs>
        <path id="DejaVuSans-36" d="M 2113 2584 
Q 1688 2584 1439 2293 
Q 1191 2003 1191 1497 
Q 1191 994 1439 701 
Q 1688 409 2113 409 
Q 2538 409 2786 701 
Q 3034 994 3034 1497 
Q 3034 2003 2786 2293 
Q 2538 2584 2113 2584 
z
M 3366 4563 
L 3366 3988 
Q 3128 4100 2886 4159 
Q 2644 4219 2406 4219 
Q 1781 4219 1451 3797 
Q 1122 3375 1075 2522 
Q 1259 2794 1537 2939 
Q 1816 3084 2150 3084 
Q 2853 3084 3261 2657 
Q 3669 2231 3669 1497 
Q 3669 778 3244 343 
Q 2819 -91 2113 -91 
Q 1303 -91 875 529 
Q 447 1150 447 2328 
Q 447 3434 972 4092 
Q 1497 4750 2381 4750 
Q 2619 4750 2861 4703 
Q 3103 4656 3366 4563 
z
" transform="scale(0.015625)"/>
       </defs>
       <use xlink:href="#DejaVuSans-36"/>
       <use xlink:href="#DejaVuSans-30" x="63.623047"/>
       <use xlink:href="#DejaVuSans-30" x="127.246094"/>
      </g>
     </g>
    </g>
    <g id="ytick_5">
     <g id="line2d_11">
      <g>
       <use xlink:href="#m9bebce3c34" x="53.328125" y="100.25006" style="stroke: #000000; stroke-width: 0.8"/>
      </g>
     </g>
     <g id="text_12">
      <!-- 800 -->
      <g transform="translate(27.240625 104.049278) scale(0.1 -0.1)">
       <defs>
        <path id="DejaVuSans-38" d="M 2034 2216 
Q 1584 2216 1326 1975 
Q 1069 1734 1069 1313 
Q 1069 891 1326 650 
Q 1584 409 2034 409 
Q 2484 409 2743 651 
Q 3003 894 3003 1313 
Q 3003 1734 2745 1975 
Q 2488 2216 2034 2216 
z
M 1403 2484 
Q 997 2584 770 2862 
Q 544 3141 544 3541 
Q 544 4100 942 4425 
Q 1341 4750 2034 4750 
Q 2731 4750 3128 4425 
Q 3525 4100 3525 3541 
Q 3525 3141 3298 2862 
Q 3072 2584 2669 2484 
Q 3125 2378 3379 2068 
Q 3634 1759 3634 1313 
Q 3634 634 3220 271 
Q 2806 -91 2034 -91 
Q 1263 -91 848 271 
Q 434 634 434 1313 
Q 434 1759 690 2068 
Q 947 2378 1403 2484 
z
M 1172 3481 
Q 1172 3119 1398 2916 
Q 1625 2713 2034 2713 
Q 2441 2713 2670 2916 
Q 2900 3119 2900 3481 
Q 2900 3844 2670 4047 
Q 2441 4250 2034 4250 
Q 1625 4250 1398 4047 
Q 1172 3844 1172 3481 
z
" transform="scale(0.015625)"/>
       </defs>
       <use xlink:href="#DejaVuSans-38"/>
       <use xlink:href="#DejaVuSans-30" x="63.623047"/>
       <use xlink:href="#DejaVuSans-30" x="127.246094"/>
      </g>
     </g>
    </g>
    <g id="ytick_6">
     <g id="line2d_12">
      <g>
       <use xlink:href="#m9bebce3c34" x="53.328125" y="63.863293" style="stroke: #000000; stroke-width: 0.8"/>
      </g>
     </g>
     <g id="text_13">
      <!-- 1000 -->
      <g transform="translate(20.878125 67.662511) scale(0.1 -0.1)">
       <use xlink:href="#DejaVuSans-31"/>
       <use xlink:href="#DejaVuSans-30" x="63.623047"/>
       <use xlink:href="#DejaVuSans-30" x="127.246094"/>
       <use xlink:href="#DejaVuSans-30" x="190.869141"/>
      </g>
     </g>
    </g>
    <g id="ytick_7">
     <g id="line2d_13">
      <g>
       <use xlink:href="#m9bebce3c34" x="53.328125" y="27.476526" style="stroke: #000000; stroke-width: 0.8"/>
      </g>
     </g>
     <g id="text_14">
      <!-- 1200 -->
      <g transform="translate(20.878125 31.275745) scale(0.1 -0.1)">
       <use xlink:href="#DejaVuSans-31"/>
       <use xlink:href="#DejaVuSans-32" x="63.623047"/>
       <use xlink:href="#DejaVuSans-30" x="127.246094"/>
       <use xlink:href="#DejaVuSans-30" x="190.869141"/>
      </g>
     </g>
    </g>
    <g id="text_15">
     <!-- [counts] -->
     <g transform="translate(14.798438 152.791947) rotate(-90) scale(0.1 -0.1)">
      <defs>
       <path id="DejaVuSans-63" d="M 3122 3366 
L 3122 2828 
Q 2878 2963 2633 3030 
Q 2388 3097 2138 3097 
Q 1578 3097 1268 2742 
Q 959 2388 959 1747 
Q 959 1106 1268 751 
Q 1578 397 2138 397 
Q 2388 397 2633 464 
Q 2878 531 3122 666 
L 3122 134 
Q 2881 22 2623 -34 
Q 2366 -91 2075 -91 
Q 1284 -91 818 406 
Q 353 903 353 1747 
Q 353 2603 823 3093 
Q 1294 3584 2113 3584 
Q 2378 3584 2631 3529 
Q 2884 3475 3122 3366 
z
" transform="scale(0.015625)"/>
       <path id="DejaVuSans-6f" d="M 1959 3097 
Q 1497 3097 1228 2736 
Q 959 2375 959 1747 
Q 959 1119 1226 758 
Q 1494 397 1959 397 
Q 2419 397 2687 759 
Q 2956 1122 2956 1747 
Q 2956 2369 2687 2733 
Q 2419 3097 1959 3097 
z
M 1959 3584 
Q 2709 3584 3137 3096 
Q 3566 2609 3566 1747 
Q 3566 888 3137 398 
Q 2709 -91 1959 -91 
Q 1206 -91 779 398 
Q 353 888 353 1747 
Q 353 2609 779 3096 
Q 1206 3584 1959 3584 
z
" transform="scale(0.015625)"/>
       <path id="DejaVuSans-75" d="M 544 1381 
L 544 3500 
L 1119 3500 
L 1119 1403 
Q 1119 906 1312 657 
Q 1506 409 1894 409 
Q 2359 409 2629 706 
Q 2900 1003 2900 1516 
L 2900 3500 
L 3475 3500 
L 3475 0 
L 2900 0 
L 2900 538 
Q 2691 219 2414 64 
Q 2138 -91 1772 -91 
Q 1169 -91 856 284 
Q 544 659 544 1381 
z
M 1991 3584 
L 1991 3584 
z
" transform="scale(0.015625)"/>
       <path id="DejaVuSans-6e" d="M 3513 2113 
L 3513 0 
L 2938 0 
L 2938 2094 
Q 2938 2591 2744 2837 
Q 2550 3084 2163 3084 
Q 1697 3084 1428 2787 
Q 1159 2491 1159 1978 
L 1159 0 
L 581 0 
L 581 3500 
L 1159 3500 
L 1159 2956 
Q 1366 3272 1645 3428 
Q 1925 3584 2291 3584 
Q 2894 3584 3203 3211 
Q 3513 2838 3513 2113 
z
" transform="scale(0.015625)"/>
      </defs>
      <use xlink:href="#DejaVuSans-5b"/>
      <use xlink:href="#DejaVuSans-63" x="39.013672"/>
      <use xlink:href="#DejaVuSans-6f" x="93.994141"/>
      <use xlink:href="#DejaVuSans-75" x="155.175781"/>
      <use xlink:href="#DejaVuSans-6e" x="218.554688"/>
      <use xlink:href="#DejaVuSans-74" x="281.933594"/>
      <use xlink:href="#DejaVuSans-73" x="321.142578"/>
      <use xlink:href="#DejaVuSans-5d" x="373.242188"/>
     </g>
    </g>
   </g>
   <g id="patch_3">
    <path d="M 53.328125 257.158895 
L 53.328125 7.2 
" style="fill: none; stroke: #000000; stroke-width: 0.8; stroke-linejoin: miter; stroke-linecap: square"/>
   </g>
   <g id="patch_4">
    <path d="M 431.87976 257.158895 
L 431.87976 7.2 
" style="fill: none; stroke: #000000; stroke-width: 0.8; stroke-linejoin: miter; stroke-linecap: square"/>
   </g>
   <g id="patch_5">
    <path d="M 53.328125 257.158895 
L 431.87976 257.158895 
" style="fill: none; stroke: #000000; stroke-width: 0.8; stroke-linejoin: miter; stroke-linecap: square"/>
   </g>
   <g id="patch_6">
    <path d="M 53.328125 7.2 
L 431.87976 7.2 
" style="fill: none; stroke: #000000; stroke-width: 0.8; stroke-linejoin: miter; stroke-linecap: square"/>
   </g>
   <g id="line2d_14">
    <path d="M 70.535017 234.881097 
L 71.682144 234.881097 
L 71.682144 230.878553 
L 72.82927 230.878553 
L 72.82927 220.32639 
L 73.976396 220.32639 
L 73.976396 210.320029 
L 75.123522 210.320029 
L 75.123522 205.043948 
L 76.270648 205.043948 
L 76.270648 188.669903 
L 77.417774 188.669903 
L 77.417774 181.39255 
L 78.564901 181.39255 
L 78.564901 183.029954 
L 79.712027 183.029954 
L 79.712027 171.568123 
L 80.859153 171.568123 
L 80.859153 165.564306 
L 82.006279 165.564306 
L 82.006279 152.101202 
L 83.153405 152.101202 
L 83.153405 149.008327 
L 84.300531 149.008327 
L 84.300531 135.36329 
L 85.447658 135.36329 
L 85.447658 139.001966 
L 86.594784 139.001966 
L 86.594784 128.995605 
L 87.74191 128.995605 
L 87.74191 120.808583 
L 88.889036 120.808583 
L 88.889036 115.532502 
L 90.036162 115.532502 
L 90.036162 116.442171 
L 91.183288 116.442171 
L 91.183288 114.440899 
L 92.330415 114.440899 
L 92.330415 114.622832 
L 93.477541 114.622832 
L 93.477541 107.345479 
L 94.624667 107.345479 
L 94.624667 100.613927 
L 95.771793 100.613927 
L 95.771793 96.065581 
L 96.918919 96.065581 
L 96.918919 100.613927 
L 98.066045 100.613927 
L 98.066045 90.425633 
L 99.213172 90.425633 
L 99.213172 90.243699 
L 100.360298 90.243699 
L 100.360298 81.510875 
L 101.507424 81.510875 
L 101.507424 78.781867 
L 102.65455 78.781867 
L 102.65455 77.144463 
L 103.801676 77.144463 
L 103.801676 79.87347 
L 104.948802 79.87347 
L 104.948802 80.601205 
L 106.095929 80.601205 
L 106.095929 82.784411 
L 107.243055 82.784411 
L 107.243055 73.323852 
L 108.390181 73.323852 
L 108.390181 70.230977 
L 109.537307 70.230977 
L 109.537307 72.959984 
L 110.684433 72.959984 
L 110.684433 66.774234 
L 111.831559 66.774234 
L 111.831559 66.046499 
L 112.978686 66.046499 
L 112.978686 67.865837 
L 114.125812 67.865837 
L 114.125812 59.678815 
L 115.272938 59.678815 
L 115.272938 56.585939 
L 116.420064 56.585939 
L 116.420064 54.948535 
L 117.56719 54.948535 
L 117.56719 54.220799 
L 118.714316 54.220799 
L 118.714316 60.588484 
L 119.861443 60.588484 
L 119.861443 59.496881 
L 121.008569 59.496881 
L 121.008569 55.494336 
L 122.155695 55.494336 
L 122.155695 51.673726 
L 123.302821 51.673726 
L 123.302821 37.482887 
L 124.449947 37.482887 
L 124.449947 53.129196 
L 125.597073 53.129196 
L 125.597073 57.495609 
L 126.7442 57.495609 
L 126.7442 43.304769 
L 127.891326 43.304769 
L 127.891326 47.671181 
L 129.038452 47.671181 
L 129.038452 42.758968 
L 130.185578 42.758968 
L 130.185578 51.673726 
L 131.332704 51.673726 
L 131.332704 44.578306 
L 132.47983 44.578306 
L 132.47983 40.02996 
L 133.626957 40.02996 
L 133.626957 38.938357 
L 134.774083 38.938357 
L 134.774083 45.669909 
L 135.921209 45.669909 
L 135.921209 45.124108 
L 137.068335 45.124108 
L 137.068335 36.20935 
L 138.215461 36.20935 
L 138.215461 39.666093 
L 139.362587 39.666093 
L 139.362587 44.578306 
L 140.509714 44.578306 
L 140.509714 45.851843 
L 141.65684 45.851843 
L 141.65684 43.850571 
L 142.803966 43.850571 
L 142.803966 40.211894 
L 143.951092 40.211894 
L 143.951092 46.397645 
L 145.098218 46.397645 
L 145.098218 31.661004 
L 146.245344 31.661004 
L 146.245344 46.215711 
L 147.392471 46.215711 
L 147.392471 41.485431 
L 148.539597 41.485431 
L 148.539597 40.575762 
L 149.686723 40.575762 
L 149.686723 43.850571 
L 150.833849 43.850571 
L 150.833849 42.940902 
L 151.980975 42.940902 
L 151.980975 41.849299 
L 153.128101 41.849299 
L 153.128101 44.396372 
L 154.275228 44.396372 
L 154.275228 44.032505 
L 155.422354 44.032505 
L 155.422354 27.840394 
L 156.56948 27.840394 
L 156.56948 37.300953 
L 157.716606 37.300953 
L 157.716606 32.388739 
L 158.863732 32.388739 
L 158.863732 26.384923 
L 160.010858 26.384923 
L 160.010858 41.303497 
L 161.157985 41.303497 
L 161.157985 35.663548 
L 162.305111 35.663548 
L 162.305111 30.751335 
L 163.452237 30.751335 
L 163.452237 33.298409 
L 164.599363 33.298409 
L 164.599363 22.746246 
L 165.746489 22.746246 
L 165.746489 33.116475 
L 166.893615 33.116475 
L 166.893615 38.210622 
L 168.040742 38.210622 
L 168.040742 36.755151 
L 169.187868 36.755151 
L 169.187868 42.031233 
L 170.334994 42.031233 
L 170.334994 38.756424 
L 171.48212 38.756424 
L 171.48212 41.849299 
L 172.629246 41.849299 
L 172.629246 38.028688 
L 173.776372 38.028688 
L 173.776372 37.119019 
L 174.923499 37.119019 
L 174.923499 45.306042 
L 176.070625 45.306042 
L 176.070625 49.126652 
L 177.217751 49.126652 
L 177.217751 28.204261 
L 178.364877 28.204261 
L 178.364877 28.386195 
L 179.512003 28.386195 
L 179.512003 33.116475 
L 180.659129 33.116475 
L 180.659129 32.570673 
L 181.806256 32.570673 
L 181.806256 44.942174 
L 182.953382 44.942174 
L 182.953382 26.566857 
L 184.100508 26.566857 
L 184.100508 36.937085 
L 185.247634 36.937085 
L 185.247634 40.393828 
L 186.39476 40.393828 
L 186.39476 44.032505 
L 187.541886 44.032505 
L 187.541886 21.654643 
L 188.689013 21.654643 
L 188.689013 36.027416 
L 189.836139 36.027416 
L 189.836139 41.303497 
L 190.983265 41.303497 
L 190.983265 38.210622 
L 192.130391 38.210622 
L 192.130391 34.390012 
L 193.277517 34.390012 
L 193.277517 44.214439 
L 194.424643 44.214439 
L 194.424643 41.849299 
L 195.57177 41.849299 
L 195.57177 34.571945 
L 196.718896 34.571945 
L 196.718896 28.931997 
L 197.866022 28.931997 
L 197.866022 40.02996 
L 199.013148 40.02996 
L 199.013148 41.303497 
L 200.160274 41.303497 
L 200.160274 41.849299 
L 201.3074 41.849299 
L 201.3074 33.116475 
L 202.454527 33.116475 
L 202.454527 29.659732 
L 203.601653 29.659732 
L 203.601653 27.840394 
L 204.748779 27.840394 
L 204.748779 43.122836 
L 205.895905 43.122836 
L 205.895905 36.937085 
L 207.043031 36.937085 
L 207.043031 18.561768 
L 208.190157 18.561768 
L 208.190157 40.575762 
L 209.337284 40.575762 
L 209.337284 32.570673 
L 210.48441 32.570673 
L 210.48441 47.671181 
L 211.631536 47.671181 
L 211.631536 30.933269 
L 212.778662 30.933269 
L 212.778662 40.393828 
L 213.925788 40.393828 
L 213.925788 25.111386 
L 215.072914 25.111386 
L 215.072914 31.115203 
L 216.220041 31.115203 
L 216.220041 27.65846 
L 217.367167 27.65846 
L 217.367167 34.753879 
L 218.514293 34.753879 
L 218.514293 28.022327 
L 220.808545 28.022327 
L 220.808545 41.667365 
L 221.955671 41.667365 
L 221.955671 35.845482 
L 223.102798 35.845482 
L 223.102798 31.297136 
L 224.249924 31.297136 
L 224.249924 31.115203 
L 225.39705 31.115203 
L 225.39705 30.751335 
L 226.544176 30.751335 
L 226.544176 42.031233 
L 227.691302 42.031233 
L 227.691302 33.116475 
L 228.838428 33.116475 
L 228.838428 23.655915 
L 229.985555 23.655915 
L 229.985555 40.575762 
L 231.132681 40.575762 
L 231.132681 36.755151 
L 232.279807 36.755151 
L 232.279807 38.57449 
L 233.426933 38.57449 
L 233.426933 29.477798 
L 234.574059 29.477798 
L 234.574059 42.758968 
L 235.721185 42.758968 
L 235.721185 32.388739 
L 236.868312 32.388739 
L 236.868312 27.476526 
L 238.015438 27.476526 
L 238.015438 42.940902 
L 239.162564 42.940902 
L 239.162564 30.933269 
L 240.30969 30.933269 
L 240.30969 33.480342 
L 241.456816 33.480342 
L 241.456816 43.668637 
L 242.603942 43.668637 
L 242.603942 42.758968 
L 243.751069 42.758968 
L 243.751069 29.841666 
L 244.898195 29.841666 
L 244.898195 36.027416 
L 246.045321 36.027416 
L 246.045321 41.303497 
L 247.192447 41.303497 
L 247.192447 45.851843 
L 248.339573 45.851843 
L 248.339573 44.76024 
L 249.486699 44.76024 
L 249.486699 38.57449 
L 250.633826 38.57449 
L 250.633826 29.295864 
L 251.780952 29.295864 
L 251.780952 31.842938 
L 252.928078 31.842938 
L 252.928078 41.485431 
L 254.075204 41.485431 
L 254.075204 41.121563 
L 255.22233 41.121563 
L 255.22233 46.215711 
L 256.369456 46.215711 
L 256.369456 31.842938 
L 257.516583 31.842938 
L 257.516583 37.300953 
L 258.663709 37.300953 
L 258.663709 30.751335 
L 259.810835 30.751335 
L 259.810835 34.935813 
L 260.957961 34.935813 
L 260.957961 29.659732 
L 262.105087 29.659732 
L 262.105087 30.933269 
L 263.252213 30.933269 
L 263.252213 37.664821 
L 264.39934 37.664821 
L 264.39934 20.926908 
L 265.546466 20.926908 
L 265.546466 35.663548 
L 266.693592 35.663548 
L 266.693592 28.931997 
L 267.840718 28.931997 
L 267.840718 47.671181 
L 268.987844 47.671181 
L 268.987844 49.308586 
L 270.13497 49.308586 
L 270.13497 46.943446 
L 271.282097 46.943446 
L 271.282097 69.321308 
L 272.429223 69.321308 
L 272.429223 72.414183 
L 273.576349 72.414183 
L 273.576349 97.339118 
L 274.723475 97.339118 
L 274.723475 89.515963 
L 275.870601 89.515963 
L 275.870601 96.429449 
L 277.017727 96.429449 
L 277.017727 106.071942 
L 278.164854 106.071942 
L 278.164854 104.616472 
L 279.31198 104.616472 
L 279.31198 118.443443 
L 280.459106 118.443443 
L 280.459106 129.541407 
L 281.606232 129.541407 
L 281.606232 140.275503 
L 282.753358 140.275503 
L 282.753358 139.729702 
L 283.900484 139.729702 
L 283.900484 147.916724 
L 285.047611 147.916724 
L 285.047611 153.738607 
L 286.194737 153.738607 
L 286.194737 158.832754 
L 287.341863 158.832754 
L 287.341863 159.742423 
L 288.488989 159.742423 
L 288.488989 167.565578 
L 289.636115 167.565578 
L 289.636115 165.200438 
L 290.783241 165.200438 
L 290.783241 171.568123 
L 291.930368 171.568123 
L 291.930368 179.573211 
L 293.077494 179.573211 
L 293.077494 178.481608 
L 294.22462 178.481608 
L 294.22462 188.124102 
L 295.371746 188.124102 
L 295.371746 187.214432 
L 296.518872 187.214432 
L 296.518872 195.219521 
L 297.665998 195.219521 
L 297.665998 197.948529 
L 298.813125 197.948529 
L 298.813125 192.854381 
L 299.960251 192.854381 
L 299.960251 198.49433 
L 301.107377 198.49433 
L 301.107377 200.495602 
L 302.254503 200.495602 
L 302.254503 209.046493 
L 303.401629 209.046493 
L 303.401629 204.68008 
L 304.548755 204.68008 
L 304.548755 209.956162 
L 305.695882 209.956162 
L 305.695882 210.683897 
L 306.843008 210.683897 
L 306.843008 215.414177 
L 307.990134 215.414177 
L 307.990134 216.869647 
L 309.13726 216.869647 
L 309.13726 214.504508 
L 310.284386 214.504508 
L 310.284386 216.869647 
L 311.431512 216.869647 
L 311.431512 217.779317 
L 312.578639 217.779317 
L 312.578639 220.144456 
L 313.725765 220.144456 
L 313.725765 219.780589 
L 314.872891 219.780589 
L 314.872891 224.147001 
L 316.020017 224.147001 
L 316.020017 224.874736 
L 317.167143 224.874736 
L 317.167143 225.420538 
L 318.314269 225.420538 
L 318.314269 228.331479 
L 319.461396 228.331479 
L 319.461396 230.332751 
L 320.608522 230.332751 
L 320.608522 229.241148 
L 321.755648 229.241148 
L 321.755648 227.785677 
L 322.902774 227.785677 
L 322.902774 228.149545 
L 324.0499 228.149545 
L 324.0499 230.332751 
L 325.197026 230.332751 
L 325.197026 229.423082 
L 326.344153 229.423082 
L 326.344153 231.24242 
L 327.491279 231.24242 
L 327.491279 232.152089 
L 328.638405 232.152089 
L 328.638405 235.063031 
L 329.785531 235.063031 
L 329.785531 234.881097 
L 330.932657 234.881097 
L 330.932657 234.153362 
L 332.079783 234.153362 
L 332.079783 235.9727 
L 333.22691 235.9727 
L 333.22691 234.699163 
L 334.374036 234.699163 
L 334.374036 235.244965 
L 335.521162 235.244965 
L 335.521162 235.426898 
L 336.668288 235.426898 
L 336.668288 237.792038 
L 337.815414 237.792038 
L 337.815414 239.065575 
L 338.96254 239.065575 
L 338.96254 237.064303 
L 340.109667 237.064303 
L 340.109667 239.429443 
L 341.256793 239.429443 
L 341.256793 238.883641 
L 342.403919 238.883641 
L 342.403919 239.247509 
L 343.551045 239.247509 
L 343.551045 240.70298 
L 344.698171 240.70298 
L 344.698171 241.976517 
L 345.845297 241.976517 
L 345.845297 240.884914 
L 346.992424 240.884914 
L 346.992424 241.794583 
L 348.13955 241.794583 
L 348.13955 240.70298 
L 349.286676 240.70298 
L 349.286676 241.976517 
L 350.433802 241.976517 
L 350.433802 240.70298 
L 351.580928 240.70298 
L 351.580928 243.250053 
L 352.728054 243.250053 
L 352.728054 241.976517 
L 353.875181 241.976517 
L 353.875181 243.06812 
L 355.022307 243.06812 
L 355.022307 240.521046 
L 356.169433 240.521046 
L 356.169433 242.340384 
L 357.316559 242.340384 
L 357.316559 243.431987 
L 358.463685 243.431987 
L 358.463685 243.250053 
L 359.610811 243.250053 
L 359.610811 242.15845 
L 360.757938 242.15845 
L 360.757938 242.522318 
L 361.905064 242.522318 
L 361.905064 243.06812 
L 363.05219 243.06812 
L 363.05219 243.977789 
L 364.199316 243.977789 
L 364.199316 243.250053 
L 365.346442 243.250053 
L 365.346442 241.976517 
L 366.493568 241.976517 
L 366.493568 243.06812 
L 367.640695 243.06812 
L 367.640695 243.977789 
L 369.934947 243.977789 
L 369.934947 244.341656 
L 371.082073 244.341656 
L 371.082073 244.159723 
L 373.376325 244.159723 
L 373.376325 244.705524 
L 374.523452 244.705524 
L 374.523452 244.52359 
L 375.670578 244.52359 
L 375.670578 245.069392 
L 376.817704 245.069392 
L 376.817704 244.887458 
L 377.96483 244.887458 
L 377.96483 244.705524 
L 379.111956 244.705524 
L 379.111956 245.069392 
L 380.259082 245.069392 
L 380.259082 244.887458 
L 381.406209 244.887458 
L 381.406209 243.795855 
L 382.553335 243.795855 
L 382.553335 244.887458 
L 384.847587 244.887458 
L 384.847587 243.613921 
L 385.994713 243.613921 
L 385.994713 245.251326 
L 387.141839 245.251326 
L 387.141839 245.433259 
L 389.436092 245.433259 
L 389.436092 244.887458 
L 390.583218 244.887458 
L 390.583218 244.341656 
L 391.730344 244.341656 
L 391.730344 245.615193 
L 392.87747 245.615193 
L 392.87747 245.251326 
L 394.024596 245.251326 
L 394.024596 244.887458 
L 395.171723 244.887458 
L 395.171723 245.251326 
L 396.318849 245.251326 
L 396.318849 245.433259 
L 397.465975 245.433259 
L 397.465975 245.069392 
L 398.613101 245.069392 
L 398.613101 245.433259 
L 400.907353 245.433259 
L 400.907353 245.615193 
L 402.05448 245.615193 
L 402.05448 245.797127 
L 404.348732 245.797127 
L 404.348732 245.433259 
L 405.495858 245.433259 
L 405.495858 245.797127 
L 406.642984 245.797127 
L 406.642984 245.251326 
L 407.79011 245.251326 
L 407.79011 245.433259 
L 408.937237 245.433259 
L 408.937237 245.251326 
L 410.084363 245.251326 
L 410.084363 245.797127 
L 411.231489 245.797127 
L 411.231489 245.251326 
L 412.378615 245.251326 
L 412.378615 245.615193 
L 413.525741 245.615193 
L 413.525741 245.433259 
L 414.672867 245.433259 
L 414.672867 245.433259 
" clip-path="url(#p2f9ce2f638)" style="fill: none; stroke: #1f77b4; stroke-width: 1.5; stroke-linecap: square"/>
   </g>
  </g>
  <g id="axes_2">
   <g id="patch_7">
    <path d="M 486.647885 257.158895 
L 865.19952 257.158895 
L 865.19952 7.2 
L 486.647885 7.2 
z
" style="fill: #ffffff"/>
   </g>
   <g id="matplotlib.axis_3">
    <g id="xtick_7">
     <g id="line2d_15">
      <g>
       <use xlink:href="#m830f87a54b" x="500.383549" y="257.158895" style="stroke: #000000; stroke-width: 0.8"/>
      </g>
     </g>
     <g id="text_16">
      <!-- 0.0 -->
      <g transform="translate(492.431986 271.757332) scale(0.1 -0.1)">
       <defs>
        <path id="DejaVuSans-2e" d="M 684 794 
L 1344 794 
L 1344 0 
L 684 0 
L 684 794 
z
" transform="scale(0.015625)"/>
       </defs>
       <use xlink:href="#DejaVuSans-30"/>
       <use xlink:href="#DejaVuSans-2e" x="63.623047"/>
       <use xlink:href="#DejaVuSans-30" x="95.410156"/>
      </g>
     </g>
    </g>
    <g id="xtick_8">
     <g id="line2d_16">
      <g>
       <use xlink:href="#m830f87a54b" x="544.095091" y="257.158895" style="stroke: #000000; stroke-width: 0.8"/>
      </g>
     </g>
     <g id="text_17">
      <!-- 2.5 -->
      <g transform="translate(536.143529 271.757332) scale(0.1 -0.1)">
       <use xlink:href="#DejaVuSans-32"/>
       <use xlink:href="#DejaVuSans-2e" x="63.623047"/>
       <use xlink:href="#DejaVuSans-35" x="95.410156"/>
      </g>
     </g>
    </g>
    <g id="xtick_9">
     <g id="line2d_17">
      <g>
       <use xlink:href="#m830f87a54b" x="587.806634" y="257.158895" style="stroke: #000000; stroke-width: 0.8"/>
      </g>
     </g>
     <g id="text_18">
      <!-- 5.0 -->
      <g transform="translate(579.855071 271.757332) scale(0.1 -0.1)">
       <use xlink:href="#DejaVuSans-35"/>
       <use xlink:href="#DejaVuSans-2e" x="63.623047"/>
       <use xlink:href="#DejaVuSans-30" x="95.410156"/>
      </g>
     </g>
    </g>
    <g id="xtick_10">
     <g id="line2d_18">
      <g>
       <use xlink:href="#m830f87a54b" x="631.518176" y="257.158895" style="stroke: #000000; stroke-width: 0.8"/>
      </g>
     </g>
     <g id="text_19">
      <!-- 7.5 -->
      <g transform="translate(623.566613 271.757332) scale(0.1 -0.1)">
       <defs>
        <path id="DejaVuSans-37" d="M 525 4666 
L 3525 4666 
L 3525 4397 
L 1831 0 
L 1172 0 
L 2766 4134 
L 525 4134 
L 525 4666 
z
" transform="scale(0.015625)"/>
       </defs>
       <use xlink:href="#DejaVuSans-37"/>
       <use xlink:href="#DejaVuSans-2e" x="63.623047"/>
       <use xlink:href="#DejaVuSans-35" x="95.410156"/>
      </g>
     </g>
    </g>
    <g id="xtick_11">
     <g id="line2d_19">
      <g>
       <use xlink:href="#m830f87a54b" x="675.229718" y="257.158895" style="stroke: #000000; stroke-width: 0.8"/>
      </g>
     </g>
     <g id="text_20">
      <!-- 10.0 -->
      <g transform="translate(664.096906 271.757332) scale(0.1 -0.1)">
       <use xlink:href="#DejaVuSans-31"/>
       <use xlink:href="#DejaVuSans-30" x="63.623047"/>
       <use xlink:href="#DejaVuSans-2e" x="127.246094"/>
       <use xlink:href="#DejaVuSans-30" x="159.033203"/>
      </g>
     </g>
    </g>
    <g id="xtick_12">
     <g id="line2d_20">
      <g>
       <use xlink:href="#m830f87a54b" x="718.941261" y="257.158895" style="stroke: #000000; stroke-width: 0.8"/>
      </g>
     </g>
     <g id="text_21">
      <!-- 12.5 -->
      <g transform="translate(707.808448 271.757332) scale(0.1 -0.1)">
       <use xlink:href="#DejaVuSans-31"/>
       <use xlink:href="#DejaVuSans-32" x="63.623047"/>
       <use xlink:href="#DejaVuSans-2e" x="127.246094"/>
       <use xlink:href="#DejaVuSans-35" x="159.033203"/>
      </g>
     </g>
    </g>
    <g id="xtick_13">
     <g id="line2d_21">
      <g>
       <use xlink:href="#m830f87a54b" x="762.652803" y="257.158895" style="stroke: #000000; stroke-width: 0.8"/>
      </g>
     </g>
     <g id="text_22">
      <!-- 15.0 -->
      <g transform="translate(751.51999 271.757332) scale(0.1 -0.1)">
       <use xlink:href="#DejaVuSans-31"/>
       <use xlink:href="#DejaVuSans-35" x="63.623047"/>
       <use xlink:href="#DejaVuSans-2e" x="127.246094"/>
       <use xlink:href="#DejaVuSans-30" x="159.033203"/>
      </g>
     </g>
    </g>
    <g id="xtick_14">
     <g id="line2d_22">
      <g>
       <use xlink:href="#m830f87a54b" x="806.364345" y="257.158895" style="stroke: #000000; stroke-width: 0.8"/>
      </g>
     </g>
     <g id="text_23">
      <!-- 17.5 -->
      <g transform="translate(795.231533 271.757332) scale(0.1 -0.1)">
       <use xlink:href="#DejaVuSans-31"/>
       <use xlink:href="#DejaVuSans-37" x="63.623047"/>
       <use xlink:href="#DejaVuSans-2e" x="127.246094"/>
       <use xlink:href="#DejaVuSans-35" x="159.033203"/>
      </g>
     </g>
    </g>
    <g id="xtick_15">
     <g id="line2d_23">
      <g>
       <use xlink:href="#m830f87a54b" x="850.075888" y="257.158895" style="stroke: #000000; stroke-width: 0.8"/>
      </g>
     </g>
     <g id="text_24">
      <!-- 20.0 -->
      <g transform="translate(838.943075 271.757332) scale(0.1 -0.1)">
       <use xlink:href="#DejaVuSans-32"/>
       <use xlink:href="#DejaVuSans-30" x="63.623047"/>
       <use xlink:href="#DejaVuSans-2e" x="127.246094"/>
       <use xlink:href="#DejaVuSans-30" x="159.033203"/>
      </g>
     </g>
    </g>
    <g id="text_25">
     <!-- wavelength [Å] -->
     <g transform="translate(637.886202 287.119832) scale(0.1 -0.1)">
      <defs>
       <path id="DejaVuSans-77" d="M 269 3500 
L 844 3500 
L 1563 769 
L 2278 3500 
L 2956 3500 
L 3675 769 
L 4391 3500 
L 4966 3500 
L 4050 0 
L 3372 0 
L 2619 2869 
L 1863 0 
L 1184 0 
L 269 3500 
z
" transform="scale(0.015625)"/>
       <path id="DejaVuSans-61" d="M 2194 1759 
Q 1497 1759 1228 1600 
Q 959 1441 959 1056 
Q 959 750 1161 570 
Q 1363 391 1709 391 
Q 2188 391 2477 730 
Q 2766 1069 2766 1631 
L 2766 1759 
L 2194 1759 
z
M 3341 1997 
L 3341 0 
L 2766 0 
L 2766 531 
Q 2569 213 2275 61 
Q 1981 -91 1556 -91 
Q 1019 -91 701 211 
Q 384 513 384 1019 
Q 384 1609 779 1909 
Q 1175 2209 1959 2209 
L 2766 2209 
L 2766 2266 
Q 2766 2663 2505 2880 
Q 2244 3097 1772 3097 
Q 1472 3097 1187 3025 
Q 903 2953 641 2809 
L 641 3341 
Q 956 3463 1253 3523 
Q 1550 3584 1831 3584 
Q 2591 3584 2966 3190 
Q 3341 2797 3341 1997 
z
" transform="scale(0.015625)"/>
       <path id="DejaVuSans-76" d="M 191 3500 
L 800 3500 
L 1894 563 
L 2988 3500 
L 3597 3500 
L 2284 0 
L 1503 0 
L 191 3500 
z
" transform="scale(0.015625)"/>
       <path id="DejaVuSans-6c" d="M 603 4863 
L 1178 4863 
L 1178 0 
L 603 0 
L 603 4863 
z
" transform="scale(0.015625)"/>
       <path id="DejaVuSans-67" d="M 2906 1791 
Q 2906 2416 2648 2759 
Q 2391 3103 1925 3103 
Q 1463 3103 1205 2759 
Q 947 2416 947 1791 
Q 947 1169 1205 825 
Q 1463 481 1925 481 
Q 2391 481 2648 825 
Q 2906 1169 2906 1791 
z
M 3481 434 
Q 3481 -459 3084 -895 
Q 2688 -1331 1869 -1331 
Q 1566 -1331 1297 -1286 
Q 1028 -1241 775 -1147 
L 775 -588 
Q 1028 -725 1275 -790 
Q 1522 -856 1778 -856 
Q 2344 -856 2625 -561 
Q 2906 -266 2906 331 
L 2906 616 
Q 2728 306 2450 153 
Q 2172 0 1784 0 
Q 1141 0 747 490 
Q 353 981 353 1791 
Q 353 2603 747 3093 
Q 1141 3584 1784 3584 
Q 2172 3584 2450 3431 
Q 2728 3278 2906 2969 
L 2906 3500 
L 3481 3500 
L 3481 434 
z
" transform="scale(0.015625)"/>
       <path id="DejaVuSans-68" d="M 3513 2113 
L 3513 0 
L 2938 0 
L 2938 2094 
Q 2938 2591 2744 2837 
Q 2550 3084 2163 3084 
Q 1697 3084 1428 2787 
Q 1159 2491 1159 1978 
L 1159 0 
L 581 0 
L 581 4863 
L 1159 4863 
L 1159 2956 
Q 1366 3272 1645 3428 
Q 1925 3584 2291 3584 
Q 2894 3584 3203 3211 
Q 3513 2838 3513 2113 
z
" transform="scale(0.015625)"/>
       <path id="DejaVuSans-c5" d="M 2663 5081 
Q 2663 5278 2523 5417 
Q 2384 5556 2188 5556 
Q 1988 5556 1852 5420 
Q 1716 5284 1716 5081 
Q 1716 4884 1853 4746 
Q 1991 4609 2188 4609 
Q 2384 4609 2523 4746 
Q 2663 4884 2663 5081 
z
M 2188 4044 
L 1338 1722 
L 3041 1722 
L 2188 4044 
z
M 1716 4366 
Q 1525 4494 1428 4673 
Q 1331 4853 1331 5081 
Q 1331 5441 1579 5691 
Q 1828 5941 2188 5941 
Q 2544 5941 2795 5689 
Q 3047 5438 3047 5081 
Q 3047 4863 2948 4678 
Q 2850 4494 2663 4366 
L 4325 0 
L 3669 0 
L 3244 1197 
L 1141 1197 
L 716 0 
L 50 0 
L 1716 4366 
z
" transform="scale(0.015625)"/>
      </defs>
      <use xlink:href="#DejaVuSans-77"/>
      <use xlink:href="#DejaVuSans-61" x="81.787109"/>
      <use xlink:href="#DejaVuSans-76" x="143.066406"/>
      <use xlink:href="#DejaVuSans-65" x="202.246094"/>
      <use xlink:href="#DejaVuSans-6c" x="263.769531"/>
      <use xlink:href="#DejaVuSans-65" x="291.552734"/>
      <use xlink:href="#DejaVuSans-6e" x="353.076172"/>
      <use xlink:href="#DejaVuSans-67" x="416.455078"/>
      <use xlink:href="#DejaVuSans-74" x="479.931641"/>
      <use xlink:href="#DejaVuSans-68" x="519.140625"/>
      <use xlink:href="#DejaVuSans-20" x="582.519531"/>
      <use xlink:href="#DejaVuSans-5b" x="614.306641"/>
      <use xlink:href="#DejaVuSans-c5" x="653.320312"/>
      <use xlink:href="#DejaVuSans-5d" x="721.728516"/>
     </g>
    </g>
   </g>
   <g id="matplotlib.axis_4">
    <g id="ytick_8">
     <g id="line2d_24">
      <g>
       <use xlink:href="#m9bebce3c34" x="486.647885" y="245.849948" style="stroke: #000000; stroke-width: 0.8"/>
      </g>
     </g>
     <g id="text_26">
      <!-- 0 -->
      <g transform="translate(473.285385 249.649167) scale(0.1 -0.1)">
       <use xlink:href="#DejaVuSans-30"/>
      </g>
     </g>
    </g>
    <g id="ytick_9">
     <g id="line2d_25">
      <g>
       <use xlink:href="#m9bebce3c34" x="486.647885" y="193.029083" style="stroke: #000000; stroke-width: 0.8"/>
      </g>
     </g>
     <g id="text_27">
      <!-- 1000 -->
      <g transform="translate(454.197885 196.828302) scale(0.1 -0.1)">
       <use xlink:href="#DejaVuSans-31"/>
       <use xlink:href="#DejaVuSans-30" x="63.623047"/>
       <use xlink:href="#DejaVuSans-30" x="127.246094"/>
       <use xlink:href="#DejaVuSans-30" x="190.869141"/>
      </g>
     </g>
    </g>
    <g id="ytick_10">
     <g id="line2d_26">
      <g>
       <use xlink:href="#m9bebce3c34" x="486.647885" y="140.208219" style="stroke: #000000; stroke-width: 0.8"/>
      </g>
     </g>
     <g id="text_28">
      <!-- 2000 -->
      <g transform="translate(454.197885 144.007438) scale(0.1 -0.1)">
       <use xlink:href="#DejaVuSans-32"/>
       <use xlink:href="#DejaVuSans-30" x="63.623047"/>
       <use xlink:href="#DejaVuSans-30" x="127.246094"/>
       <use xlink:href="#DejaVuSans-30" x="190.869141"/>
      </g>
     </g>
    </g>
    <g id="ytick_11">
     <g id="line2d_27">
      <g>
       <use xlink:href="#m9bebce3c34" x="486.647885" y="87.387354" style="stroke: #000000; stroke-width: 0.8"/>
      </g>
     </g>
     <g id="text_29">
      <!-- 3000 -->
      <g transform="translate(454.197885 91.186573) scale(0.1 -0.1)">
       <use xlink:href="#DejaVuSans-33"/>
       <use xlink:href="#DejaVuSans-30" x="63.623047"/>
       <use xlink:href="#DejaVuSans-30" x="127.246094"/>
       <use xlink:href="#DejaVuSans-30" x="190.869141"/>
      </g>
     </g>
    </g>
    <g id="ytick_12">
     <g id="line2d_28">
      <g>
       <use xlink:href="#m9bebce3c34" x="486.647885" y="34.56649" style="stroke: #000000; stroke-width: 0.8"/>
      </g>
     </g>
     <g id="text_30">
      <!-- 4000 -->
      <g transform="translate(454.197885 38.365709) scale(0.1 -0.1)">
       <use xlink:href="#DejaVuSans-34"/>
       <use xlink:href="#DejaVuSans-30" x="63.623047"/>
       <use xlink:href="#DejaVuSans-30" x="127.246094"/>
       <use xlink:href="#DejaVuSans-30" x="190.869141"/>
      </g>
     </g>
    </g>
    <g id="text_31">
     <!-- [counts] -->
     <g transform="translate(448.118197 152.791947) rotate(-90) scale(0.1 -0.1)">
      <use xlink:href="#DejaVuSans-5b"/>
      <use xlink:href="#DejaVuSans-63" x="39.013672"/>
      <use xlink:href="#DejaVuSans-6f" x="93.994141"/>
      <use xlink:href="#DejaVuSans-75" x="155.175781"/>
      <use xlink:href="#DejaVuSans-6e" x="218.554688"/>
      <use xlink:href="#DejaVuSans-74" x="281.933594"/>
      <use xlink:href="#DejaVuSans-73" x="321.142578"/>
      <use xlink:href="#DejaVuSans-5d" x="373.242188"/>
     </g>
    </g>
   </g>
   <g id="patch_8">
    <path d="M 486.647885 257.158895 
L 486.647885 7.2 
" style="fill: none; stroke: #000000; stroke-width: 0.8; stroke-linejoin: miter; stroke-linecap: square"/>
   </g>
   <g id="patch_9">
    <path d="M 865.19952 257.158895 
L 865.19952 7.2 
" style="fill: none; stroke: #000000; stroke-width: 0.8; stroke-linejoin: miter; stroke-linecap: square"/>
   </g>
   <g id="patch_10">
    <path d="M 486.647885 257.158895 
L 865.19952 257.158895 
" style="fill: none; stroke: #000000; stroke-width: 0.8; stroke-linejoin: miter; stroke-linecap: square"/>
   </g>
   <g id="patch_11">
    <path d="M 486.647885 7.2 
L 865.19952 7.2 
" style="fill: none; stroke: #000000; stroke-width: 0.8; stroke-linejoin: miter; stroke-linecap: square"/>
   </g>
   <g id="line2d_29">
    <path d="M 503.854777 156.582687 
L 505.001904 156.582687 
L 505.001904 145.75441 
L 506.14903 145.75441 
L 506.14903 137.303071 
L 507.296156 137.303071 
L 507.296156 133.183044 
L 508.443282 133.183044 
L 508.443282 147.972886 
L 509.590408 147.972886 
L 509.590408 153.202152 
L 510.737534 153.202152 
L 510.737534 145.543126 
L 511.884661 145.543126 
L 511.884661 129.327121 
L 513.031787 129.327121 
L 513.031787 109.360834 
L 514.178913 109.360834 
L 514.178913 90.292502 
L 515.326039 90.292502 
L 515.326039 65.09695 
L 516.473165 65.09695 
L 516.473165 39.109084 
L 517.620291 39.109084 
L 517.620291 18.561768 
L 518.767418 18.561768 
L 518.767418 21.414095 
L 519.914544 21.414095 
L 519.914544 20.621782 
L 521.06167 20.621782 
L 521.06167 22.840258 
L 522.208796 22.840258 
L 522.208796 32.348014 
L 523.355922 32.348014 
L 523.355922 34.460848 
L 524.503048 34.460848 
L 524.503048 53.846105 
L 525.650175 53.846105 
L 525.650175 59.814863 
L 526.797301 59.814863 
L 526.797301 69.745186 
L 527.944427 69.745186 
L 527.944427 77.35139 
L 529.091553 77.35139 
L 529.091553 84.376565 
L 530.238679 84.376565 
L 530.238679 89.711472 
L 531.385805 89.711472 
L 531.385805 93.514575 
L 533.680058 93.408933 
L 533.680058 95.785872 
L 534.827184 95.785872 
L 534.827184 93.461754 
L 535.97431 93.461754 
L 535.97431 88.074026 
L 537.121436 88.074026 
L 537.121436 88.97198 
L 538.268562 88.97198 
L 538.268562 74.340601 
L 539.415689 74.340601 
L 539.415689 63.829249 
L 540.562815 63.829249 
L 540.562815 58.811267 
L 541.709941 58.811267 
L 541.709941 47.507602 
L 542.857067 47.507602 
L 542.857067 49.145049 
L 544.004193 49.145049 
L 544.004193 33.087506 
L 545.151319 33.087506 
L 545.151319 33.98546 
L 546.298446 33.98546 
L 546.298446 46.028617 
L 547.445572 46.028617 
L 547.445572 52.684046 
L 548.592698 52.684046 
L 548.592698 62.033339 
L 549.739824 62.033339 
L 549.739824 68.79441 
L 550.88695 68.79441 
L 550.88695 77.457032 
L 552.034076 77.457032 
L 552.034076 85.961191 
L 553.181203 85.961191 
L 553.181203 96.049976 
L 554.328329 96.049976 
L 554.328329 107.247999 
L 555.475455 107.247999 
L 555.475455 110.205968 
L 556.622581 110.205968 
L 556.622581 115.22395 
L 557.769707 115.22395 
L 557.769707 121.879379 
L 558.916833 121.879379 
L 558.916833 131.017388 
L 560.06396 131.017388 
L 560.06396 139.891294 
L 561.211086 139.891294 
L 561.211086 144.381067 
L 562.358212 144.381067 
L 562.358212 142.954904 
L 563.505338 142.954904 
L 563.505338 150.297004 
L 564.652464 150.297004 
L 564.652464 156.846791 
L 565.79959 156.846791 
L 565.79959 157.533462 
L 566.946717 157.533462 
L 566.946717 164.822742 
L 568.093843 164.822742 
L 568.093843 170.633037 
L 569.240969 170.633037 
L 569.240969 171.478171 
L 570.388095 171.478171 
L 570.388095 174.541781 
L 571.535221 174.541781 
L 571.535221 181.461314 
L 572.682347 181.461314 
L 572.682347 183.204403 
L 573.829474 183.204403 
L 573.829474 186.426475 
L 574.9766 186.426475 
L 574.9766 185.951088 
L 576.123726 185.951088 
L 576.123726 189.014698 
L 577.270852 189.014698 
L 577.270852 192.870621 
L 578.417978 192.870621 
L 578.417978 194.66653 
L 579.565104 194.66653 
L 579.565104 197.413215 
L 580.712231 197.413215 
L 580.712231 198.786558 
L 581.859357 198.786558 
L 581.859357 202.167093 
L 583.006483 202.167093 
L 583.006483 203.857361 
L 584.153609 203.857361 
L 584.153609 205.547628 
L 585.300735 205.547628 
L 585.300735 207.766105 
L 586.447861 207.766105 
L 586.447861 207.554821 
L 587.594988 207.554821 
L 587.594988 212.784087 
L 589.88924 212.836908 
L 589.88924 213.312295 
L 591.036366 213.312295 
L 591.036366 215.847697 
L 592.183492 215.847697 
L 592.183492 218.752844 
L 593.330618 218.752844 
L 593.330618 218.594382 
L 594.477745 218.594382 
L 594.477745 220.020545 
L 595.624871 220.020545 
L 595.624871 222.027738 
L 596.771997 222.027738 
L 596.771997 223.242618 
L 597.919123 223.242618 
L 597.919123 222.925693 
L 599.066249 222.925693 
L 599.066249 223.506722 
L 600.213375 223.506722 
L 600.213375 224.56314 
L 601.360502 224.56314 
L 601.360502 226.623153 
L 602.507628 226.623153 
L 602.507628 225.883661 
L 603.654754 225.883661 
L 603.654754 227.62675 
L 604.80188 227.62675 
L 604.80188 227.309824 
L 605.949006 227.309824 
L 605.949006 228.84163 
L 608.243259 228.947271 
L 608.243259 228.471883 
L 609.390385 228.471883 
L 609.390385 229.792405 
L 611.684637 229.898047 
L 611.684637 230.584718 
L 612.831763 230.584718 
L 612.831763 231.535494 
L 615.126016 231.535494 
L 615.126016 233.75397 
L 617.420268 233.859612 
L 617.420268 234.546283 
L 618.567394 234.546283 
L 618.567394 236.078088 
L 619.71452 236.078088 
L 619.71452 234.229358 
L 623.155899 234.229358 
L 623.155899 234.916029 
L 624.303025 234.916029 
L 624.303025 236.342192 
L 626.597277 236.289371 
L 626.597277 236.976043 
L 627.744403 236.976043 
L 627.744403 237.768356 
L 628.89153 237.768356 
L 628.89153 237.028864 
L 630.038656 237.028864 
L 630.038656 237.557072 
L 631.185782 237.557072 
L 631.185782 238.190923 
L 632.332908 238.190923 
L 632.332908 239.352982 
L 633.480034 239.352982 
L 633.480034 238.190923 
L 634.62716 238.190923 
L 634.62716 239.986832 
L 635.774287 239.986832 
L 635.774287 238.507848 
L 638.068539 238.402206 
L 638.068539 238.824773 
L 639.215665 238.824773 
L 639.215665 240.46222 
L 640.362791 240.46222 
L 640.362791 239.458623 
L 641.509917 239.458623 
L 641.509917 240.250936 
L 642.657044 240.250936 
L 642.657044 239.194519 
L 643.80417 239.194519 
L 643.80417 240.356578 
L 644.951296 240.356578 
L 644.951296 240.937608 
L 646.098422 240.937608 
L 646.098422 241.201712 
L 647.245548 241.201712 
L 647.245548 239.300161 
L 648.392674 239.300161 
L 648.392674 241.043249 
L 649.539801 241.043249 
L 649.539801 241.201712 
L 650.686927 241.201712 
L 650.686927 242.046846 
L 651.834053 242.046846 
L 651.834053 240.884787 
L 652.981179 240.884787 
L 652.981179 241.254533 
L 654.128305 241.254533 
L 654.128305 241.782741 
L 655.275431 241.782741 
L 655.275431 240.990428 
L 656.422558 240.990428 
L 656.422558 241.72992 
L 657.569684 241.72992 
L 657.569684 242.680696 
L 658.71681 242.680696 
L 658.71681 241.835562 
L 659.863936 241.835562 
L 659.863936 242.363771 
L 661.011062 242.363771 
L 661.011062 242.099667 
L 662.158188 242.099667 
L 662.158188 242.31095 
L 663.305315 242.31095 
L 663.305315 242.627875 
L 664.452441 242.627875 
L 664.452441 242.046846 
L 665.599567 242.046846 
L 665.599567 243.314546 
L 666.746693 243.314546 
L 666.746693 242.469413 
L 669.040945 242.575054 
L 669.040945 243.52583 
L 670.188072 243.52583 
L 670.188072 243.895576 
L 671.335198 243.895576 
L 671.335198 243.208905 
L 673.62945 243.208905 
L 673.62945 242.786338 
L 674.776576 242.786338 
L 674.776576 243.261726 
L 678.217955 243.208905 
L 678.217955 243.103263 
L 679.365081 243.103263 
L 679.365081 243.420188 
L 680.512207 243.420188 
L 680.512207 243.684292 
L 682.806459 243.578651 
L 682.806459 243.367367 
L 683.953586 243.367367 
L 683.953586 243.789934 
L 688.54209 243.842755 
L 688.54209 244.476605 
L 689.689216 244.476605 
L 689.689216 244.106859 
L 691.983469 244.15968 
L 691.983469 244.265322 
L 695.424847 244.15968 
L 695.424847 243.789934 
L 696.571973 243.789934 
L 696.571973 244.318143 
L 697.7191 244.318143 
L 697.7191 243.895576 
L 698.866226 243.895576 
L 698.866226 244.423785 
L 701.160478 244.370964 
L 701.160478 244.687889 
L 702.307604 244.687889 
L 702.307604 244.001218 
L 703.45473 244.001218 
L 703.45473 245.057635 
L 704.601857 245.057635 
L 704.601857 244.106859 
L 705.748983 244.106859 
L 705.748983 244.423785 
L 706.896109 244.423785 
L 706.896109 244.74071 
L 709.190361 244.687889 
L 709.190361 244.15968 
L 710.337487 244.15968 
L 710.337487 244.476605 
L 712.63174 244.529426 
L 712.63174 244.74071 
L 714.925992 244.846351 
L 714.925992 244.951993 
L 717.220244 245.057635 
L 717.220244 244.265322 
L 718.367371 244.265322 
L 718.367371 244.846351 
L 720.661623 244.899172 
L 720.661623 244.687889 
L 721.808749 244.687889 
L 721.808749 245.268918 
L 722.955875 245.268918 
L 722.955875 244.687889 
L 725.250128 244.793531 
L 725.250128 245.057635 
L 726.397254 245.057635 
L 726.397254 245.37456 
L 727.54438 245.37456 
L 727.54438 245.163277 
L 728.691506 245.163277 
L 728.691506 244.635068 
L 729.838632 244.635068 
L 729.838632 245.163277 
L 730.985758 245.163277 
L 730.985758 245.533023 
L 732.132885 245.533023 
L 732.132885 245.216098 
L 733.280011 245.216098 
L 733.280011 245.057635 
L 735.574263 245.163277 
L 735.574263 244.899172 
L 736.721389 244.899172 
L 736.721389 245.216098 
L 737.868515 245.216098 
L 737.868515 245.057635 
L 740.162768 245.057635 
L 740.162768 245.37456 
L 741.309894 245.37456 
L 741.309894 245.110456 
L 743.604146 245.216098 
L 743.604146 245.638664 
L 744.751272 245.638664 
L 744.751272 245.268918 
L 747.045525 245.37456 
L 747.045525 245.427381 
L 751.634029 245.321739 
L 751.634029 245.163277 
L 752.781156 245.163277 
L 752.781156 245.427381 
L 756.222534 245.427381 
L 756.222534 245.216098 
L 757.36966 245.216098 
L 757.36966 245.37456 
L 760.811039 245.427381 
L 760.811039 245.533023 
L 767.693796 245.585844 
L 767.693796 245.37456 
L 768.840922 245.37456 
L 768.840922 245.585844 
L 771.135174 245.533023 
L 771.135174 245.427381 
L 774.576553 245.37456 
L 774.576553 245.585844 
L 776.870805 245.480202 
L 776.870805 245.744306 
L 778.017931 245.744306 
L 778.017931 245.480202 
L 779.165057 245.480202 
L 779.165057 245.744306 
L 780.312184 245.744306 
L 780.312184 245.585844 
L 786.047814 245.585844 
L 786.047814 245.216098 
L 787.194941 245.216098 
L 787.194941 245.427381 
L 789.489193 245.427381 
L 789.489193 245.638664 
L 790.636319 245.638664 
L 790.636319 245.427381 
L 792.930571 245.533023 
L 792.930571 245.691485 
L 794.077698 245.691485 
L 794.077698 245.533023 
L 799.813328 245.585844 
L 799.813328 245.797127 
L 800.960455 245.797127 
L 800.960455 245.585844 
L 803.254707 245.533023 
L 803.254707 245.797127 
L 811.28459 245.744306 
L 811.28459 245.638664 
L 817.020221 245.744306 
L 817.020221 245.480202 
L 819.314473 245.585844 
L 819.314473 245.744306 
L 825.050104 245.638664 
L 825.050104 245.585844 
L 827.344356 245.691485 
L 827.344356 245.797127 
L 830.785735 245.797127 
L 830.785735 245.638664 
L 831.932861 245.638664 
L 831.932861 245.797127 
L 834.227113 245.744306 
L 834.227113 245.638664 
L 835.37424 245.638664 
L 835.37424 245.797127 
L 837.668492 245.691485 
L 837.668492 245.638664 
L 842.256997 245.744306 
L 842.256997 245.797127 
L 847.992627 245.744306 
L 847.992627 245.744306 
" clip-path="url(#pe90c92f5f0)" style="fill: none; stroke: #1f77b4; stroke-width: 1.5; stroke-linecap: square"/>
   </g>
  </g>
 </g>
 <defs>
  <clipPath id="p2f9ce2f638">
   <rect x="53.328125" y="7.2" width="378.551635" height="249.958895"/>
  </clipPath>
  <clipPath id="pe90c92f5f0">
   <rect x="486.647885" y="7.2" width="378.551635" height="249.958895"/>
  </clipPath>
 </defs>
</svg>
