<?xml version="1.0" encoding="utf-8" standalone="no"?>
<!DOCTYPE svg PUBLIC "-//W3C//DTD SVG 1.1//EN"
  "http://www.w3.org/Graphics/SVG/1.1/DTD/svg11.dtd">
<svg xmlns:xlink="http://www.w3.org/1999/xlink" width="388.965625pt" height="268.200625pt" viewBox="0 0 388.965625 268.200625" xmlns="http://www.w3.org/2000/svg" version="1.1">
 <metadata>
  <rdf:RDF xmlns:dc="http://purl.org/dc/elements/1.1/" xmlns:cc="http://creativecommons.org/ns#" xmlns:rdf="http://www.w3.org/1999/02/22-rdf-syntax-ns#">
   <cc:Work>
    <dc:type rdf:resource="http://purl.org/dc/dcmitype/StillImage"/>
    <dc:date>2024-12-12T12:31:58.914702</dc:date>
    <dc:format>image/svg+xml</dc:format>
    <dc:creator>
     <cc:Agent>
      <dc:title>Matplotlib v3.7.3, https://matplotlib.org/</dc:title>
     </cc:Agent>
    </dc:creator>
   </cc:Work>
  </rdf:RDF>
 </metadata>
 <defs>
  <style type="text/css">*{stroke-linejoin: round; stroke-linecap: butt}</style>
 </defs>
 <g id="figure_1">
  <g id="patch_1">
   <path d="M 0 268.200625 
L 388.965625 268.200625 
L 388.965625 0 
L 0 0 
z
" style="fill: #ffffff"/>
  </g>
  <g id="axes_1">
   <g id="patch_2">
    <path d="M 46.965625 228.96 
L 381.765625 228.96 
L 381.765625 7.2 
L 46.965625 7.2 
z
" style="fill: #ffffff"/>
   </g>
   <g id="matplotlib.axis_1">
    <g id="xtick_1">
     <g id="line2d_1">
      <defs>
       <path id="mda46ee61f0" d="M 0 0 
L 0 3.5 
" style="stroke: #000000; stroke-width: 0.8"/>
      </defs>
      <g>
       <use xlink:href="#mda46ee61f0" x="78.202946" y="228.96" style="stroke: #000000; stroke-width: 0.8"/>
      </g>
     </g>
     <g id="text_1">
      <!-- 1.0 -->
      <g transform="translate(70.251383 243.558437) scale(0.1 -0.1)">
       <defs>
        <path id="DejaVuSans-31" d="M 794 531 
L 1825 531 
L 1825 4091 
L 703 3866 
L 703 4441 
L 1819 4666 
L 2450 4666 
L 2450 531 
L 3481 531 
L 3481 0 
L 794 0 
L 794 531 
z
" transform="scale(0.015625)"/>
        <path id="DejaVuSans-2e" d="M 684 794 
L 1344 794 
L 1344 0 
L 684 0 
L 684 794 
z
" transform="scale(0.015625)"/>
        <path id="DejaVuSans-30" d="M 2034 4250 
Q 1547 4250 1301 3770 
Q 1056 3291 1056 2328 
Q 1056 1369 1301 889 
Q 1547 409 2034 409 
Q 2525 409 2770 889 
Q 3016 1369 3016 2328 
Q 3016 3291 2770 3770 
Q 2525 4250 2034 4250 
z
M 2034 4750 
Q 2819 4750 3233 4129 
Q 3647 3509 3647 2328 
Q 3647 1150 3233 529 
Q 2819 -91 2034 -91 
Q 1250 -91 836 529 
Q 422 1150 422 2328 
Q 422 3509 836 4129 
Q 1250 4750 2034 4750 
z
" transform="scale(0.015625)"/>
       </defs>
       <use xlink:href="#DejaVuSans-31"/>
       <use xlink:href="#DejaVuSans-2e" x="63.623047"/>
       <use xlink:href="#DejaVuSans-30" x="95.410156"/>
      </g>
     </g>
    </g>
    <g id="xtick_2">
     <g id="line2d_2">
      <g>
       <use xlink:href="#mda46ee61f0" x="118.250792" y="228.96" style="stroke: #000000; stroke-width: 0.8"/>
      </g>
     </g>
     <g id="text_2">
      <!-- 1.5 -->
      <g transform="translate(110.29923 243.558437) scale(0.1 -0.1)">
       <defs>
        <path id="DejaVuSans-35" d="M 691 4666 
L 3169 4666 
L 3169 4134 
L 1269 4134 
L 1269 2991 
Q 1406 3038 1543 3061 
Q 1681 3084 1819 3084 
Q 2600 3084 3056 2656 
Q 3513 2228 3513 1497 
Q 3513 744 3044 326 
Q 2575 -91 1722 -91 
Q 1428 -91 1123 -41 
Q 819 9 494 109 
L 494 744 
Q 775 591 1075 516 
Q 1375 441 1709 441 
Q 2250 441 2565 725 
Q 2881 1009 2881 1497 
Q 2881 1984 2565 2268 
Q 2250 2553 1709 2553 
Q 1456 2553 1204 2497 
Q 953 2441 691 2322 
L 691 4666 
z
" transform="scale(0.015625)"/>
       </defs>
       <use xlink:href="#DejaVuSans-31"/>
       <use xlink:href="#DejaVuSans-2e" x="63.623047"/>
       <use xlink:href="#DejaVuSans-35" x="95.410156"/>
      </g>
     </g>
    </g>
    <g id="xtick_3">
     <g id="line2d_3">
      <g>
       <use xlink:href="#mda46ee61f0" x="158.298639" y="228.96" style="stroke: #000000; stroke-width: 0.8"/>
      </g>
     </g>
     <g id="text_3">
      <!-- 2.0 -->
      <g transform="translate(150.347077 243.558437) scale(0.1 -0.1)">
       <defs>
        <path id="DejaVuSans-32" d="M 1228 531 
L 3431 531 
L 3431 0 
L 469 0 
L 469 531 
Q 828 903 1448 1529 
Q 2069 2156 2228 2338 
Q 2531 2678 2651 2914 
Q 2772 3150 2772 3378 
Q 2772 3750 2511 3984 
Q 2250 4219 1831 4219 
Q 1534 4219 1204 4116 
Q 875 4013 500 3803 
L 500 4441 
Q 881 4594 1212 4672 
Q 1544 4750 1819 4750 
Q 2544 4750 2975 4387 
Q 3406 4025 3406 3419 
Q 3406 3131 3298 2873 
Q 3191 2616 2906 2266 
Q 2828 2175 2409 1742 
Q 1991 1309 1228 531 
z
" transform="scale(0.015625)"/>
       </defs>
       <use xlink:href="#DejaVuSans-32"/>
       <use xlink:href="#DejaVuSans-2e" x="63.623047"/>
       <use xlink:href="#DejaVuSans-30" x="95.410156"/>
      </g>
     </g>
    </g>
    <g id="xtick_4">
     <g id="line2d_4">
      <g>
       <use xlink:href="#mda46ee61f0" x="198.346486" y="228.96" style="stroke: #000000; stroke-width: 0.8"/>
      </g>
     </g>
     <g id="text_4">
      <!-- 2.5 -->
      <g transform="translate(190.394924 243.558437) scale(0.1 -0.1)">
       <use xlink:href="#DejaVuSans-32"/>
       <use xlink:href="#DejaVuSans-2e" x="63.623047"/>
       <use xlink:href="#DejaVuSans-35" x="95.410156"/>
      </g>
     </g>
    </g>
    <g id="xtick_5">
     <g id="line2d_5">
      <g>
       <use xlink:href="#mda46ee61f0" x="238.394333" y="228.96" style="stroke: #000000; stroke-width: 0.8"/>
      </g>
     </g>
     <g id="text_5">
      <!-- 3.0 -->
      <g transform="translate(230.442771 243.558437) scale(0.1 -0.1)">
       <defs>
        <path id="DejaVuSans-33" d="M 2597 2516 
Q 3050 2419 3304 2112 
Q 3559 1806 3559 1356 
Q 3559 666 3084 287 
Q 2609 -91 1734 -91 
Q 1441 -91 1130 -33 
Q 819 25 488 141 
L 488 750 
Q 750 597 1062 519 
Q 1375 441 1716 441 
Q 2309 441 2620 675 
Q 2931 909 2931 1356 
Q 2931 1769 2642 2001 
Q 2353 2234 1838 2234 
L 1294 2234 
L 1294 2753 
L 1863 2753 
Q 2328 2753 2575 2939 
Q 2822 3125 2822 3475 
Q 2822 3834 2567 4026 
Q 2313 4219 1838 4219 
Q 1578 4219 1281 4162 
Q 984 4106 628 3988 
L 628 4550 
Q 988 4650 1302 4700 
Q 1616 4750 1894 4750 
Q 2613 4750 3031 4423 
Q 3450 4097 3450 3541 
Q 3450 3153 3228 2886 
Q 3006 2619 2597 2516 
z
" transform="scale(0.015625)"/>
       </defs>
       <use xlink:href="#DejaVuSans-33"/>
       <use xlink:href="#DejaVuSans-2e" x="63.623047"/>
       <use xlink:href="#DejaVuSans-30" x="95.410156"/>
      </g>
     </g>
    </g>
    <g id="xtick_6">
     <g id="line2d_6">
      <g>
       <use xlink:href="#mda46ee61f0" x="278.44218" y="228.96" style="stroke: #000000; stroke-width: 0.8"/>
      </g>
     </g>
     <g id="text_6">
      <!-- 3.5 -->
      <g transform="translate(270.490618 243.558437) scale(0.1 -0.1)">
       <use xlink:href="#DejaVuSans-33"/>
       <use xlink:href="#DejaVuSans-2e" x="63.623047"/>
       <use xlink:href="#DejaVuSans-35" x="95.410156"/>
      </g>
     </g>
    </g>
    <g id="xtick_7">
     <g id="line2d_7">
      <g>
       <use xlink:href="#mda46ee61f0" x="318.490027" y="228.96" style="stroke: #000000; stroke-width: 0.8"/>
      </g>
     </g>
     <g id="text_7">
      <!-- 4.0 -->
      <g transform="translate(310.538464 243.558437) scale(0.1 -0.1)">
       <defs>
        <path id="DejaVuSans-34" d="M 2419 4116 
L 825 1625 
L 2419 1625 
L 2419 4116 
z
M 2253 4666 
L 3047 4666 
L 3047 1625 
L 3713 1625 
L 3713 1100 
L 3047 1100 
L 3047 0 
L 2419 0 
L 2419 1100 
L 313 1100 
L 313 1709 
L 2253 4666 
z
" transform="scale(0.015625)"/>
       </defs>
       <use xlink:href="#DejaVuSans-34"/>
       <use xlink:href="#DejaVuSans-2e" x="63.623047"/>
       <use xlink:href="#DejaVuSans-30" x="95.410156"/>
      </g>
     </g>
    </g>
    <g id="xtick_8">
     <g id="line2d_8">
      <g>
       <use xlink:href="#mda46ee61f0" x="358.537874" y="228.96" style="stroke: #000000; stroke-width: 0.8"/>
      </g>
     </g>
     <g id="text_8">
      <!-- 4.5 -->
      <g transform="translate(350.586311 243.558437) scale(0.1 -0.1)">
       <use xlink:href="#DejaVuSans-34"/>
       <use xlink:href="#DejaVuSans-2e" x="63.623047"/>
       <use xlink:href="#DejaVuSans-35" x="95.410156"/>
      </g>
     </g>
    </g>
    <g id="text_9">
     <!-- wavelength [Å] -->
     <g transform="translate(176.328125 258.920937) scale(0.1 -0.1)">
      <defs>
       <path id="DejaVuSans-77" d="M 269 3500 
L 844 3500 
L 1563 769 
L 2278 3500 
L 2956 3500 
L 3675 769 
L 4391 3500 
L 4966 3500 
L 4050 0 
L 3372 0 
L 2619 2869 
L 1863 0 
L 1184 0 
L 269 3500 
z
" transform="scale(0.015625)"/>
       <path id="DejaVuSans-61" d="M 2194 1759 
Q 1497 1759 1228 1600 
Q 959 1441 959 1056 
Q 959 750 1161 570 
Q 1363 391 1709 391 
Q 2188 391 2477 730 
Q 2766 1069 2766 1631 
L 2766 1759 
L 2194 1759 
z
M 3341 1997 
L 3341 0 
L 2766 0 
L 2766 531 
Q 2569 213 2275 61 
Q 1981 -91 1556 -91 
Q 1019 -91 701 211 
Q 384 513 384 1019 
Q 384 1609 779 1909 
Q 1175 2209 1959 2209 
L 2766 2209 
L 2766 2266 
Q 2766 2663 2505 2880 
Q 2244 3097 1772 3097 
Q 1472 3097 1187 3025 
Q 903 2953 641 2809 
L 641 3341 
Q 956 3463 1253 3523 
Q 1550 3584 1831 3584 
Q 2591 3584 2966 3190 
Q 3341 2797 3341 1997 
z
" transform="scale(0.015625)"/>
       <path id="DejaVuSans-76" d="M 191 3500 
L 800 3500 
L 1894 563 
L 2988 3500 
L 3597 3500 
L 2284 0 
L 1503 0 
L 191 3500 
z
" transform="scale(0.015625)"/>
       <path id="DejaVuSans-65" d="M 3597 1894 
L 3597 1613 
L 953 1613 
Q 991 1019 1311 708 
Q 1631 397 2203 397 
Q 2534 397 2845 478 
Q 3156 559 3463 722 
L 3463 178 
Q 3153 47 2828 -22 
Q 2503 -91 2169 -91 
Q 1331 -91 842 396 
Q 353 884 353 1716 
Q 353 2575 817 3079 
Q 1281 3584 2069 3584 
Q 2775 3584 3186 3129 
Q 3597 2675 3597 1894 
z
M 3022 2063 
Q 3016 2534 2758 2815 
Q 2500 3097 2075 3097 
Q 1594 3097 1305 2825 
Q 1016 2553 972 2059 
L 3022 2063 
z
" transform="scale(0.015625)"/>
       <path id="DejaVuSans-6c" d="M 603 4863 
L 1178 4863 
L 1178 0 
L 603 0 
L 603 4863 
z
" transform="scale(0.015625)"/>
       <path id="DejaVuSans-6e" d="M 3513 2113 
L 3513 0 
L 2938 0 
L 2938 2094 
Q 2938 2591 2744 2837 
Q 2550 3084 2163 3084 
Q 1697 3084 1428 2787 
Q 1159 2491 1159 1978 
L 1159 0 
L 581 0 
L 581 3500 
L 1159 3500 
L 1159 2956 
Q 1366 3272 1645 3428 
Q 1925 3584 2291 3584 
Q 2894 3584 3203 3211 
Q 3513 2838 3513 2113 
z
" transform="scale(0.015625)"/>
       <path id="DejaVuSans-67" d="M 2906 1791 
Q 2906 2416 2648 2759 
Q 2391 3103 1925 3103 
Q 1463 3103 1205 2759 
Q 947 2416 947 1791 
Q 947 1169 1205 825 
Q 1463 481 1925 481 
Q 2391 481 2648 825 
Q 2906 1169 2906 1791 
z
M 3481 434 
Q 3481 -459 3084 -895 
Q 2688 -1331 1869 -1331 
Q 1566 -1331 1297 -1286 
Q 1028 -1241 775 -1147 
L 775 -588 
Q 1028 -725 1275 -790 
Q 1522 -856 1778 -856 
Q 2344 -856 2625 -561 
Q 2906 -266 2906 331 
L 2906 616 
Q 2728 306 2450 153 
Q 2172 0 1784 0 
Q 1141 0 747 490 
Q 353 981 353 1791 
Q 353 2603 747 3093 
Q 1141 3584 1784 3584 
Q 2172 3584 2450 3431 
Q 2728 3278 2906 2969 
L 2906 3500 
L 3481 3500 
L 3481 434 
z
" transform="scale(0.015625)"/>
       <path id="DejaVuSans-74" d="M 1172 4494 
L 1172 3500 
L 2356 3500 
L 2356 3053 
L 1172 3053 
L 1172 1153 
Q 1172 725 1289 603 
Q 1406 481 1766 481 
L 2356 481 
L 2356 0 
L 1766 0 
Q 1100 0 847 248 
Q 594 497 594 1153 
L 594 3053 
L 172 3053 
L 172 3500 
L 594 3500 
L 594 4494 
L 1172 4494 
z
" transform="scale(0.015625)"/>
       <path id="DejaVuSans-68" d="M 3513 2113 
L 3513 0 
L 2938 0 
L 2938 2094 
Q 2938 2591 2744 2837 
Q 2550 3084 2163 3084 
Q 1697 3084 1428 2787 
Q 1159 2491 1159 1978 
L 1159 0 
L 581 0 
L 581 4863 
L 1159 4863 
L 1159 2956 
Q 1366 3272 1645 3428 
Q 1925 3584 2291 3584 
Q 2894 3584 3203 3211 
Q 3513 2838 3513 2113 
z
" transform="scale(0.015625)"/>
       <path id="DejaVuSans-20" transform="scale(0.015625)"/>
       <path id="DejaVuSans-5b" d="M 550 4863 
L 1875 4863 
L 1875 4416 
L 1125 4416 
L 1125 -397 
L 1875 -397 
L 1875 -844 
L 550 -844 
L 550 4863 
z
" transform="scale(0.015625)"/>
       <path id="DejaVuSans-c5" d="M 2663 5081 
Q 2663 5278 2523 5417 
Q 2384 5556 2188 5556 
Q 1988 5556 1852 5420 
Q 1716 5284 1716 5081 
Q 1716 4884 1853 4746 
Q 1991 4609 2188 4609 
Q 2384 4609 2523 4746 
Q 2663 4884 2663 5081 
z
M 2188 4044 
L 1338 1722 
L 3041 1722 
L 2188 4044 
z
M 1716 4366 
Q 1525 4494 1428 4673 
Q 1331 4853 1331 5081 
Q 1331 5441 1579 5691 
Q 1828 5941 2188 5941 
Q 2544 5941 2795 5689 
Q 3047 5438 3047 5081 
Q 3047 4863 2948 4678 
Q 2850 4494 2663 4366 
L 4325 0 
L 3669 0 
L 3244 1197 
L 1141 1197 
L 716 0 
L 50 0 
L 1716 4366 
z
" transform="scale(0.015625)"/>
       <path id="DejaVuSans-5d" d="M 1947 4863 
L 1947 -844 
L 622 -844 
L 622 -397 
L 1369 -397 
L 1369 4416 
L 622 4416 
L 622 4863 
L 1947 4863 
z
" transform="scale(0.015625)"/>
      </defs>
      <use xlink:href="#DejaVuSans-77"/>
      <use xlink:href="#DejaVuSans-61" x="81.787109"/>
      <use xlink:href="#DejaVuSans-76" x="143.066406"/>
      <use xlink:href="#DejaVuSans-65" x="202.246094"/>
      <use xlink:href="#DejaVuSans-6c" x="263.769531"/>
      <use xlink:href="#DejaVuSans-65" x="291.552734"/>
      <use xlink:href="#DejaVuSans-6e" x="353.076172"/>
      <use xlink:href="#DejaVuSans-67" x="416.455078"/>
      <use xlink:href="#DejaVuSans-74" x="479.931641"/>
      <use xlink:href="#DejaVuSans-68" x="519.140625"/>
      <use xlink:href="#DejaVuSans-20" x="582.519531"/>
      <use xlink:href="#DejaVuSans-5b" x="614.306641"/>
      <use xlink:href="#DejaVuSans-c5" x="653.320312"/>
      <use xlink:href="#DejaVuSans-5d" x="721.728516"/>
     </g>
    </g>
   </g>
   <g id="matplotlib.axis_2">
    <g id="ytick_1">
     <g id="line2d_9">
      <defs>
       <path id="m5b5bac15d5" d="M 0 0 
L -3.5 0 
" style="stroke: #000000; stroke-width: 0.8"/>
      </defs>
      <g>
       <use xlink:href="#m5b5bac15d5" x="46.965625" y="218.88" style="stroke: #000000; stroke-width: 0.8"/>
      </g>
     </g>
     <g id="text_10">
      <!-- 0 -->
      <g transform="translate(33.603125 222.679219) scale(0.1 -0.1)">
       <use xlink:href="#DejaVuSans-30"/>
      </g>
     </g>
    </g>
    <g id="ytick_2">
     <g id="line2d_10">
      <g>
       <use xlink:href="#m5b5bac15d5" x="46.965625" y="170.301687" style="stroke: #000000; stroke-width: 0.8"/>
      </g>
     </g>
     <g id="text_11">
      <!-- 200 -->
      <g transform="translate(20.878125 174.100905) scale(0.1 -0.1)">
       <use xlink:href="#DejaVuSans-32"/>
       <use xlink:href="#DejaVuSans-30" x="63.623047"/>
       <use xlink:href="#DejaVuSans-30" x="127.246094"/>
      </g>
     </g>
    </g>
    <g id="ytick_3">
     <g id="line2d_11">
      <g>
       <use xlink:href="#m5b5bac15d5" x="46.965625" y="121.723373" style="stroke: #000000; stroke-width: 0.8"/>
      </g>
     </g>
     <g id="text_12">
      <!-- 400 -->
      <g transform="translate(20.878125 125.522592) scale(0.1 -0.1)">
       <use xlink:href="#DejaVuSans-34"/>
       <use xlink:href="#DejaVuSans-30" x="63.623047"/>
       <use xlink:href="#DejaVuSans-30" x="127.246094"/>
      </g>
     </g>
    </g>
    <g id="ytick_4">
     <g id="line2d_12">
      <g>
       <use xlink:href="#m5b5bac15d5" x="46.965625" y="73.14506" style="stroke: #000000; stroke-width: 0.8"/>
      </g>
     </g>
     <g id="text_13">
      <!-- 600 -->
      <g transform="translate(20.878125 76.944279) scale(0.1 -0.1)">
       <defs>
        <path id="DejaVuSans-36" d="M 2113 2584 
Q 1688 2584 1439 2293 
Q 1191 2003 1191 1497 
Q 1191 994 1439 701 
Q 1688 409 2113 409 
Q 2538 409 2786 701 
Q 3034 994 3034 1497 
Q 3034 2003 2786 2293 
Q 2538 2584 2113 2584 
z
M 3366 4563 
L 3366 3988 
Q 3128 4100 2886 4159 
Q 2644 4219 2406 4219 
Q 1781 4219 1451 3797 
Q 1122 3375 1075 2522 
Q 1259 2794 1537 2939 
Q 1816 3084 2150 3084 
Q 2853 3084 3261 2657 
Q 3669 2231 3669 1497 
Q 3669 778 3244 343 
Q 2819 -91 2113 -91 
Q 1303 -91 875 529 
Q 447 1150 447 2328 
Q 447 3434 972 4092 
Q 1497 4750 2381 4750 
Q 2619 4750 2861 4703 
Q 3103 4656 3366 4563 
z
" transform="scale(0.015625)"/>
       </defs>
       <use xlink:href="#DejaVuSans-36"/>
       <use xlink:href="#DejaVuSans-30" x="63.623047"/>
       <use xlink:href="#DejaVuSans-30" x="127.246094"/>
      </g>
     </g>
    </g>
    <g id="ytick_5">
     <g id="line2d_13">
      <g>
       <use xlink:href="#m5b5bac15d5" x="46.965625" y="24.566747" style="stroke: #000000; stroke-width: 0.8"/>
      </g>
     </g>
     <g id="text_14">
      <!-- 800 -->
      <g transform="translate(20.878125 28.365966) scale(0.1 -0.1)">
       <defs>
        <path id="DejaVuSans-38" d="M 2034 2216 
Q 1584 2216 1326 1975 
Q 1069 1734 1069 1313 
Q 1069 891 1326 650 
Q 1584 409 2034 409 
Q 2484 409 2743 651 
Q 3003 894 3003 1313 
Q 3003 1734 2745 1975 
Q 2488 2216 2034 2216 
z
M 1403 2484 
Q 997 2584 770 2862 
Q 544 3141 544 3541 
Q 544 4100 942 4425 
Q 1341 4750 2034 4750 
Q 2731 4750 3128 4425 
Q 3525 4100 3525 3541 
Q 3525 3141 3298 2862 
Q 3072 2584 2669 2484 
Q 3125 2378 3379 2068 
Q 3634 1759 3634 1313 
Q 3634 634 3220 271 
Q 2806 -91 2034 -91 
Q 1263 -91 848 271 
Q 434 634 434 1313 
Q 434 1759 690 2068 
Q 947 2378 1403 2484 
z
M 1172 3481 
Q 1172 3119 1398 2916 
Q 1625 2713 2034 2713 
Q 2441 2713 2670 2916 
Q 2900 3119 2900 3481 
Q 2900 3844 2670 4047 
Q 2441 4250 2034 4250 
Q 1625 4250 1398 4047 
Q 1172 3844 1172 3481 
z
" transform="scale(0.015625)"/>
       </defs>
       <use xlink:href="#DejaVuSans-38"/>
       <use xlink:href="#DejaVuSans-30" x="63.623047"/>
       <use xlink:href="#DejaVuSans-30" x="127.246094"/>
      </g>
     </g>
    </g>
    <g id="text_15">
     <!-- [counts] -->
     <g transform="translate(14.798438 138.6925) rotate(-90) scale(0.1 -0.1)">
      <defs>
       <path id="DejaVuSans-63" d="M 3122 3366 
L 3122 2828 
Q 2878 2963 2633 3030 
Q 2388 3097 2138 3097 
Q 1578 3097 1268 2742 
Q 959 2388 959 1747 
Q 959 1106 1268 751 
Q 1578 397 2138 397 
Q 2388 397 2633 464 
Q 2878 531 3122 666 
L 3122 134 
Q 2881 22 2623 -34 
Q 2366 -91 2075 -91 
Q 1284 -91 818 406 
Q 353 903 353 1747 
Q 353 2603 823 3093 
Q 1294 3584 2113 3584 
Q 2378 3584 2631 3529 
Q 2884 3475 3122 3366 
z
" transform="scale(0.015625)"/>
       <path id="DejaVuSans-6f" d="M 1959 3097 
Q 1497 3097 1228 2736 
Q 959 2375 959 1747 
Q 959 1119 1226 758 
Q 1494 397 1959 397 
Q 2419 397 2687 759 
Q 2956 1122 2956 1747 
Q 2956 2369 2687 2733 
Q 2419 3097 1959 3097 
z
M 1959 3584 
Q 2709 3584 3137 3096 
Q 3566 2609 3566 1747 
Q 3566 888 3137 398 
Q 2709 -91 1959 -91 
Q 1206 -91 779 398 
Q 353 888 353 1747 
Q 353 2609 779 3096 
Q 1206 3584 1959 3584 
z
" transform="scale(0.015625)"/>
       <path id="DejaVuSans-75" d="M 544 1381 
L 544 3500 
L 1119 3500 
L 1119 1403 
Q 1119 906 1312 657 
Q 1506 409 1894 409 
Q 2359 409 2629 706 
Q 2900 1003 2900 1516 
L 2900 3500 
L 3475 3500 
L 3475 0 
L 2900 0 
L 2900 538 
Q 2691 219 2414 64 
Q 2138 -91 1772 -91 
Q 1169 -91 856 284 
Q 544 659 544 1381 
z
M 1991 3584 
L 1991 3584 
z
" transform="scale(0.015625)"/>
       <path id="DejaVuSans-73" d="M 2834 3397 
L 2834 2853 
Q 2591 2978 2328 3040 
Q 2066 3103 1784 3103 
Q 1356 3103 1142 2972 
Q 928 2841 928 2578 
Q 928 2378 1081 2264 
Q 1234 2150 1697 2047 
L 1894 2003 
Q 2506 1872 2764 1633 
Q 3022 1394 3022 966 
Q 3022 478 2636 193 
Q 2250 -91 1575 -91 
Q 1294 -91 989 -36 
Q 684 19 347 128 
L 347 722 
Q 666 556 975 473 
Q 1284 391 1588 391 
Q 1994 391 2212 530 
Q 2431 669 2431 922 
Q 2431 1156 2273 1281 
Q 2116 1406 1581 1522 
L 1381 1569 
Q 847 1681 609 1914 
Q 372 2147 372 2553 
Q 372 3047 722 3315 
Q 1072 3584 1716 3584 
Q 2034 3584 2315 3537 
Q 2597 3491 2834 3397 
z
" transform="scale(0.015625)"/>
      </defs>
      <use xlink:href="#DejaVuSans-5b"/>
      <use xlink:href="#DejaVuSans-63" x="39.013672"/>
      <use xlink:href="#DejaVuSans-6f" x="93.994141"/>
      <use xlink:href="#DejaVuSans-75" x="155.175781"/>
      <use xlink:href="#DejaVuSans-6e" x="218.554688"/>
      <use xlink:href="#DejaVuSans-74" x="281.933594"/>
      <use xlink:href="#DejaVuSans-73" x="321.142578"/>
      <use xlink:href="#DejaVuSans-5d" x="373.242188"/>
     </g>
    </g>
   </g>
   <g id="patch_3">
    <path d="M 46.965625 228.96 
L 46.965625 7.2 
" style="fill: none; stroke: #000000; stroke-width: 0.8; stroke-linejoin: miter; stroke-linecap: square"/>
   </g>
   <g id="patch_4">
    <path d="M 381.765625 228.96 
L 381.765625 7.2 
" style="fill: none; stroke: #000000; stroke-width: 0.8; stroke-linejoin: miter; stroke-linecap: square"/>
   </g>
   <g id="patch_5">
    <path d="M 46.965625 228.96 
L 381.765625 228.96 
" style="fill: none; stroke: #000000; stroke-width: 0.8; stroke-linejoin: miter; stroke-linecap: square"/>
   </g>
   <g id="patch_6">
    <path d="M 46.965625 7.2 
L 381.765625 7.2 
" style="fill: none; stroke: #000000; stroke-width: 0.8; stroke-linejoin: miter; stroke-linecap: square"/>
   </g>
   <g id="line2d_14">
    <path d="M 62.183807 218.88 
L 69.792898 218.88 
L 69.792898 218.637108 
L 71.314716 218.637108 
L 71.314716 214.750843 
L 72.836534 214.750843 
L 72.836534 206.735422 
L 74.358352 206.735422 
L 74.358352 195.319518 
L 75.88017 195.319518 
L 75.88017 190.94747 
L 77.401989 190.94747 
L 77.401989 184.875181 
L 78.923807 184.875181 
L 78.923807 175.159518 
L 80.445625 175.159518 
L 80.445625 163.743614 
L 81.967443 163.743614 
L 81.967443 160.586024 
L 83.489261 160.586024 
L 83.489261 151.841928 
L 85.01108 151.841928 
L 85.01108 146.498313 
L 86.532898 146.498313 
L 86.532898 137.511325 
L 88.054716 137.511325 
L 88.054716 128.767229 
L 89.576534 128.767229 
L 89.576534 122.209157 
L 91.098352 122.209157 
L 91.098352 113.46506 
L 92.62017 113.46506 
L 92.62017 102.53494 
L 94.141989 102.53494 
L 94.141989 101.320482 
L 95.663807 101.320482 
L 95.663807 93.790843 
L 97.185625 93.790843 
L 97.185625 98.648675 
L 98.707443 98.648675 
L 98.707443 75.816867 
L 100.229261 75.816867 
L 100.229261 83.589398 
L 101.75108 83.589398 
L 101.75108 61.000482 
L 103.272898 61.000482 
L 103.272898 58.571566 
L 104.794716 58.571566 
L 104.794716 54.199518 
L 106.316534 54.199518 
L 106.316534 48.613012 
L 107.838352 48.613012 
L 107.838352 47.641446 
L 109.36017 47.641446 
L 109.36017 45.455422 
L 110.881989 45.455422 
L 110.881989 46.912771 
L 112.403807 46.912771 
L 112.403807 30.153253 
L 113.925625 30.153253 
L 113.925625 28.938795 
L 115.447443 28.938795 
L 115.447443 29.66747 
L 116.969261 29.66747 
L 116.969261 17.28 
L 118.49108 17.28 
L 118.49108 35.982651 
L 120.012898 35.982651 
L 120.012898 25.05253 
L 121.534716 25.05253 
L 121.534716 41.326265 
L 123.056534 41.326265 
L 123.056534 36.225542 
L 124.578352 36.225542 
L 124.578352 39.140241 
L 126.10017 39.140241 
L 126.10017 36.711325 
L 127.621989 36.711325 
L 127.621989 37.925783 
L 129.143807 37.925783 
L 129.143807 46.426988 
L 130.665625 46.426988 
L 130.665625 57.357108 
L 132.187443 57.357108 
L 132.187443 55.171084 
L 133.709261 55.171084 
L 133.709261 59.786024 
L 135.23108 59.786024 
L 135.23108 52.742169 
L 136.752898 52.742169 
L 136.752898 55.171084 
L 138.274716 55.171084 
L 138.274716 49.341687 
L 139.796534 49.341687 
L 139.796534 59.057349 
L 141.318352 59.057349 
L 141.318352 58.328675 
L 142.84017 58.328675 
L 142.84017 58.085783 
L 144.361989 58.085783 
L 144.361989 63.429398 
L 145.883807 63.429398 
L 145.883807 63.915181 
L 147.405625 63.915181 
L 147.405625 58.814458 
L 148.927443 58.814458 
L 148.927443 68.773012 
L 150.449261 68.773012 
L 150.449261 64.400964 
L 151.97108 64.400964 
L 151.97108 73.14506 
L 153.492898 73.14506 
L 153.492898 71.687711 
L 155.014716 71.687711 
L 155.014716 63.672289 
L 156.536534 63.672289 
L 156.536534 58.571566 
L 158.058352 58.571566 
L 158.058352 72.902169 
L 159.58017 72.902169 
L 159.58017 75.573976 
L 161.101989 75.573976 
L 161.101989 63.429398 
L 162.623807 63.429398 
L 162.623807 71.930602 
L 164.145625 71.930602 
L 164.145625 68.53012 
L 165.667443 68.53012 
L 165.667443 72.173494 
L 167.189261 72.173494 
L 167.189261 71.930602 
L 168.71108 71.930602 
L 168.71108 85.046747 
L 170.232898 85.046747 
L 170.232898 73.630843 
L 171.754716 73.630843 
L 171.754716 80.674699 
L 173.276534 80.674699 
L 173.276534 81.160482 
L 174.798352 81.160482 
L 174.798352 80.188916 
L 176.32017 80.188916 
L 176.32017 91.361928 
L 177.841989 91.361928 
L 177.841989 86.98988 
L 179.363807 86.98988 
L 179.363807 94.276627 
L 180.885625 94.276627 
L 180.885625 99.134458 
L 182.407443 99.134458 
L 182.407443 99.863133 
L 183.929261 99.863133 
L 183.929261 117.351325 
L 185.45108 117.351325 
L 185.45108 111.521928 
L 186.972898 111.521928 
L 186.972898 125.85253 
L 188.494716 125.85253 
L 188.494716 133.867952 
L 190.016534 133.867952 
L 190.016534 136.782651 
L 191.538352 136.782651 
L 191.538352 141.640482 
L 193.06017 141.640482 
L 193.06017 153.056386 
L 194.581989 153.056386 
L 194.581989 160.100241 
L 196.103807 160.100241 
L 196.103807 163.500723 
L 197.625625 163.500723 
L 197.625625 172.244819 
L 199.147443 172.244819 
L 199.147443 174.187952 
L 200.669261 174.187952 
L 200.669261 182.932048 
L 202.19108 182.932048 
L 202.19108 188.518554 
L 203.712898 188.518554 
L 203.712898 196.291084 
L 205.234716 196.291084 
L 205.234716 202.849157 
L 206.756534 202.849157 
L 206.756534 207.706988 
L 208.278352 207.706988 
L 208.278352 208.435663 
L 209.80017 208.435663 
L 209.80017 215.479518 
L 211.321989 215.479518 
L 211.321989 216.451084 
L 212.843807 216.451084 
L 212.843807 215.236627 
L 214.365625 215.236627 
L 214.365625 207.94988 
L 215.887443 207.94988 
L 215.887443 202.849157 
L 217.409261 202.849157 
L 217.409261 195.805301 
L 218.93108 195.805301 
L 218.93108 194.590843 
L 220.452898 194.590843 
L 220.452898 189.975904 
L 221.974716 189.975904 
L 221.974716 176.859759 
L 223.496534 176.859759 
L 223.496534 175.159518 
L 226.54017 175.159518 
L 226.54017 158.642892 
L 228.061989 158.642892 
L 228.061989 157.671325 
L 229.583807 157.671325 
L 229.583807 154.270843 
L 231.105625 154.270843 
L 231.105625 151.113253 
L 232.627443 151.113253 
L 232.627443 146.984096 
L 234.149261 146.984096 
L 234.149261 132.410602 
L 235.67108 132.410602 
L 235.67108 129.981687 
L 237.192898 129.981687 
L 237.192898 127.552771 
L 238.714716 127.552771 
L 238.714716 129.738795 
L 240.236534 129.738795 
L 240.236534 114.436627 
L 241.758352 114.436627 
L 241.758352 119.294458 
L 243.28017 119.294458 
L 243.28017 113.46506 
L 244.801989 113.46506 
L 244.801989 105.69253 
L 246.323807 105.69253 
L 246.323807 113.950843 
L 247.845625 113.950843 
L 247.845625 108.607229 
L 249.367443 108.607229 
L 249.367443 103.263614 
L 250.889261 103.263614 
L 250.889261 110.550361 
L 252.41108 110.550361 
L 252.41108 98.162892 
L 253.932898 98.162892 
L 253.932898 103.020723 
L 255.454716 103.020723 
L 255.454716 89.661687 
L 256.976534 89.661687 
L 256.976534 90.14747 
L 258.498352 90.14747 
L 258.498352 90.633253 
L 260.02017 90.633253 
L 260.02017 100.106024 
L 261.541989 100.106024 
L 261.541989 101.806265 
L 263.063807 101.806265 
L 263.063807 92.333494 
L 264.585625 92.333494 
L 264.585625 95.976867 
L 266.107443 95.976867 
L 266.107443 97.92 
L 267.629261 97.92 
L 267.629261 99.377349 
L 269.15108 99.377349 
L 269.15108 111.764819 
L 270.672898 111.764819 
L 270.672898 108.121446 
L 272.194716 108.121446 
L 272.194716 101.320482 
L 273.716534 101.320482 
L 273.716534 110.550361 
L 275.238352 110.550361 
L 275.238352 109.335904 
L 276.76017 109.335904 
L 276.76017 108.607229 
L 278.281989 108.607229 
L 278.281989 112.493494 
L 279.803807 112.493494 
L 279.803807 118.565783 
L 281.325625 118.565783 
L 281.325625 110.793253 
L 282.847443 110.793253 
L 282.847443 114.92241 
L 284.369261 114.92241 
L 284.369261 121.23759 
L 285.89108 121.23759 
L 285.89108 121.966265 
L 287.412898 121.966265 
L 287.412898 120.508916 
L 288.934716 120.508916 
L 288.934716 127.795663 
L 290.456534 127.795663 
L 290.456534 118.08 
L 291.978352 118.08 
L 291.978352 121.480482 
L 293.50017 121.480482 
L 293.50017 131.681928 
L 295.021989 131.681928 
L 295.021989 134.839518 
L 296.543807 134.839518 
L 296.543807 137.025542 
L 298.065625 137.025542 
L 298.065625 135.08241 
L 299.587443 135.08241 
L 299.587443 137.754217 
L 301.109261 137.754217 
L 301.109261 141.640482 
L 302.63108 141.640482 
L 302.63108 139.211566 
L 304.152898 139.211566 
L 304.152898 147.226988 
L 305.674716 147.226988 
L 305.674716 147.46988 
L 307.196534 147.46988 
L 307.196534 139.940241 
L 308.718352 139.940241 
L 308.718352 142.369157 
L 310.24017 142.369157 
L 310.24017 144.798072 
L 311.761989 144.798072 
L 311.761989 152.327711 
L 313.283807 152.327711 
L 313.283807 157.185542 
L 314.805625 157.185542 
L 314.805625 146.498313 
L 316.327443 146.498313 
L 316.327443 161.55759 
L 317.849261 161.55759 
L 317.849261 153.299277 
L 319.37108 153.299277 
L 319.37108 158.642892 
L 320.892898 158.642892 
L 320.892898 165.929639 
L 325.458352 165.929639 
L 325.458352 165.443855 
L 326.98017 165.443855 
L 326.98017 172.730602 
L 330.023807 172.730602 
L 330.023807 179.045783 
L 331.545625 179.045783 
L 331.545625 184.632289 
L 333.067443 184.632289 
L 333.067443 187.78988 
L 334.589261 187.78988 
L 334.589261 186.33253 
L 336.11108 186.33253 
L 336.11108 192.404819 
L 337.632898 192.404819 
L 337.632898 191.433253 
L 339.154716 191.433253 
L 339.154716 200.177349 
L 340.676534 200.177349 
L 340.676534 202.606265 
L 342.198352 202.606265 
L 342.198352 199.205783 
L 343.72017 199.205783 
L 343.72017 209.164337 
L 345.241989 209.164337 
L 345.241989 207.94988 
L 346.763807 207.94988 
L 346.763807 209.407229 
L 348.285625 209.407229 
L 348.285625 211.593253 
L 349.807443 211.593253 
L 349.807443 211.350361 
L 351.329261 211.350361 
L 351.329261 215.479518 
L 352.85108 215.479518 
L 352.85108 215.965301 
L 354.372898 215.965301 
L 354.372898 216.451084 
L 355.894716 216.451084 
L 355.894716 217.908434 
L 357.416534 217.908434 
L 357.416534 218.637108 
L 358.938352 218.637108 
L 358.938352 218.151325 
L 360.46017 218.151325 
L 360.46017 218.637108 
L 361.981989 218.637108 
L 361.981989 218.88 
L 366.547443 218.88 
L 366.547443 218.88 
" clip-path="url(#pb474d0f38f)" style="fill: none; stroke: #1f77b4; stroke-width: 1.5; stroke-linecap: square"/>
   </g>
  </g>
 </g>
 <defs>
  <clipPath id="pb474d0f38f">
   <rect x="46.965625" y="7.2" width="334.8" height="221.76"/>
  </clipPath>
 </defs>
</svg>
