<?xml version="1.0" encoding="utf-8" standalone="no"?>
<!DOCTYPE svg PUBLIC "-//W3C//DTD SVG 1.1//EN"
  "http://www.w3.org/Graphics/SVG/1.1/DTD/svg11.dtd">
<svg xmlns:xlink="http://www.w3.org/1999/xlink" width="872.39952pt" height="296.39952pt" viewBox="0 0 872.39952 296.39952" xmlns="http://www.w3.org/2000/svg" version="1.1">
 <metadata>
  <rdf:RDF xmlns:dc="http://purl.org/dc/elements/1.1/" xmlns:cc="http://creativecommons.org/ns#" xmlns:rdf="http://www.w3.org/1999/02/22-rdf-syntax-ns#">
   <cc:Work>
    <dc:type rdf:resource="http://purl.org/dc/dcmitype/StillImage"/>
    <dc:date>2025-01-20T13:51:04.058381</dc:date>
    <dc:format>image/svg+xml</dc:format>
    <dc:creator>
     <cc:Agent>
      <dc:title>Matplotlib v3.7.3, https://matplotlib.org/</dc:title>
     </cc:Agent>
    </dc:creator>
   </cc:Work>
  </rdf:RDF>
 </metadata>
 <defs>
  <style type="text/css">*{stroke-linejoin: round; stroke-linecap: butt}</style>
 </defs>
 <g id="figure_1">
  <g id="patch_1">
   <path d="M 0 296.39952 
L 872.39952 296.39952 
L 872.39952 0 
L 0 0 
z
" style="fill: #ffffff"/>
  </g>
  <g id="axes_1">
   <g id="patch_2">
    <path d="M 53.328125 257.158895 
L 431.87976 257.158895 
L 431.87976 7.2 
L 53.328125 7.2 
z
" style="fill: #ffffff"/>
   </g>
   <g id="matplotlib.axis_1">
    <g id="xtick_1">
     <g id="line2d_1">
      <defs>
       <path id="m6ef708ac98" d="M 0 0 
L 0 3.5 
" style="stroke: #000000; stroke-width: 0.8"/>
      </defs>
      <g>
       <use xlink:href="#m6ef708ac98" x="69.664776" y="257.158895" style="stroke: #000000; stroke-width: 0.8"/>
      </g>
     </g>
     <g id="text_1">
      <!-- 0 -->
      <g transform="translate(66.483526 271.757332) scale(0.1 -0.1)">
       <defs>
        <path id="DejaVuSans-30" d="M 2034 4250 
Q 1547 4250 1301 3770 
Q 1056 3291 1056 2328 
Q 1056 1369 1301 889 
Q 1547 409 2034 409 
Q 2525 409 2770 889 
Q 3016 1369 3016 2328 
Q 3016 3291 2770 3770 
Q 2525 4250 2034 4250 
z
M 2034 4750 
Q 2819 4750 3233 4129 
Q 3647 3509 3647 2328 
Q 3647 1150 3233 529 
Q 2819 -91 2034 -91 
Q 1250 -91 836 529 
Q 422 1150 422 2328 
Q 422 3509 836 4129 
Q 1250 4750 2034 4750 
z
" transform="scale(0.015625)"/>
       </defs>
       <use xlink:href="#DejaVuSans-30"/>
      </g>
     </g>
    </g>
    <g id="xtick_2">
     <g id="line2d_2">
      <g>
       <use xlink:href="#m6ef708ac98" x="138.907034" y="257.158895" style="stroke: #000000; stroke-width: 0.8"/>
      </g>
     </g>
     <g id="text_2">
      <!-- 1000 -->
      <g transform="translate(126.182034 271.757332) scale(0.1 -0.1)">
       <defs>
        <path id="DejaVuSans-31" d="M 794 531 
L 1825 531 
L 1825 4091 
L 703 3866 
L 703 4441 
L 1819 4666 
L 2450 4666 
L 2450 531 
L 3481 531 
L 3481 0 
L 794 0 
L 794 531 
z
" transform="scale(0.015625)"/>
       </defs>
       <use xlink:href="#DejaVuSans-31"/>
       <use xlink:href="#DejaVuSans-30" x="63.623047"/>
       <use xlink:href="#DejaVuSans-30" x="127.246094"/>
       <use xlink:href="#DejaVuSans-30" x="190.869141"/>
      </g>
     </g>
    </g>
    <g id="xtick_3">
     <g id="line2d_3">
      <g>
       <use xlink:href="#m6ef708ac98" x="208.149292" y="257.158895" style="stroke: #000000; stroke-width: 0.8"/>
      </g>
     </g>
     <g id="text_3">
      <!-- 2000 -->
      <g transform="translate(195.424292 271.757332) scale(0.1 -0.1)">
       <defs>
        <path id="DejaVuSans-32" d="M 1228 531 
L 3431 531 
L 3431 0 
L 469 0 
L 469 531 
Q 828 903 1448 1529 
Q 2069 2156 2228 2338 
Q 2531 2678 2651 2914 
Q 2772 3150 2772 3378 
Q 2772 3750 2511 3984 
Q 2250 4219 1831 4219 
Q 1534 4219 1204 4116 
Q 875 4013 500 3803 
L 500 4441 
Q 881 4594 1212 4672 
Q 1544 4750 1819 4750 
Q 2544 4750 2975 4387 
Q 3406 4025 3406 3419 
Q 3406 3131 3298 2873 
Q 3191 2616 2906 2266 
Q 2828 2175 2409 1742 
Q 1991 1309 1228 531 
z
" transform="scale(0.015625)"/>
       </defs>
       <use xlink:href="#DejaVuSans-32"/>
       <use xlink:href="#DejaVuSans-30" x="63.623047"/>
       <use xlink:href="#DejaVuSans-30" x="127.246094"/>
       <use xlink:href="#DejaVuSans-30" x="190.869141"/>
      </g>
     </g>
    </g>
    <g id="xtick_4">
     <g id="line2d_4">
      <g>
       <use xlink:href="#m6ef708ac98" x="277.391551" y="257.158895" style="stroke: #000000; stroke-width: 0.8"/>
      </g>
     </g>
     <g id="text_4">
      <!-- 3000 -->
      <g transform="translate(264.666551 271.757332) scale(0.1 -0.1)">
       <defs>
        <path id="DejaVuSans-33" d="M 2597 2516 
Q 3050 2419 3304 2112 
Q 3559 1806 3559 1356 
Q 3559 666 3084 287 
Q 2609 -91 1734 -91 
Q 1441 -91 1130 -33 
Q 819 25 488 141 
L 488 750 
Q 750 597 1062 519 
Q 1375 441 1716 441 
Q 2309 441 2620 675 
Q 2931 909 2931 1356 
Q 2931 1769 2642 2001 
Q 2353 2234 1838 2234 
L 1294 2234 
L 1294 2753 
L 1863 2753 
Q 2328 2753 2575 2939 
Q 2822 3125 2822 3475 
Q 2822 3834 2567 4026 
Q 2313 4219 1838 4219 
Q 1578 4219 1281 4162 
Q 984 4106 628 3988 
L 628 4550 
Q 988 4650 1302 4700 
Q 1616 4750 1894 4750 
Q 2613 4750 3031 4423 
Q 3450 4097 3450 3541 
Q 3450 3153 3228 2886 
Q 3006 2619 2597 2516 
z
" transform="scale(0.015625)"/>
       </defs>
       <use xlink:href="#DejaVuSans-33"/>
       <use xlink:href="#DejaVuSans-30" x="63.623047"/>
       <use xlink:href="#DejaVuSans-30" x="127.246094"/>
       <use xlink:href="#DejaVuSans-30" x="190.869141"/>
      </g>
     </g>
    </g>
    <g id="xtick_5">
     <g id="line2d_5">
      <g>
       <use xlink:href="#m6ef708ac98" x="346.633809" y="257.158895" style="stroke: #000000; stroke-width: 0.8"/>
      </g>
     </g>
     <g id="text_5">
      <!-- 4000 -->
      <g transform="translate(333.908809 271.757332) scale(0.1 -0.1)">
       <defs>
        <path id="DejaVuSans-34" d="M 2419 4116 
L 825 1625 
L 2419 1625 
L 2419 4116 
z
M 2253 4666 
L 3047 4666 
L 3047 1625 
L 3713 1625 
L 3713 1100 
L 3047 1100 
L 3047 0 
L 2419 0 
L 2419 1100 
L 313 1100 
L 313 1709 
L 2253 4666 
z
" transform="scale(0.015625)"/>
       </defs>
       <use xlink:href="#DejaVuSans-34"/>
       <use xlink:href="#DejaVuSans-30" x="63.623047"/>
       <use xlink:href="#DejaVuSans-30" x="127.246094"/>
       <use xlink:href="#DejaVuSans-30" x="190.869141"/>
      </g>
     </g>
    </g>
    <g id="xtick_6">
     <g id="line2d_6">
      <g>
       <use xlink:href="#m6ef708ac98" x="415.876068" y="257.158895" style="stroke: #000000; stroke-width: 0.8"/>
      </g>
     </g>
     <g id="text_6">
      <!-- 5000 -->
      <g transform="translate(403.151068 271.757332) scale(0.1 -0.1)">
       <defs>
        <path id="DejaVuSans-35" d="M 691 4666 
L 3169 4666 
L 3169 4134 
L 1269 4134 
L 1269 2991 
Q 1406 3038 1543 3061 
Q 1681 3084 1819 3084 
Q 2600 3084 3056 2656 
Q 3513 2228 3513 1497 
Q 3513 744 3044 326 
Q 2575 -91 1722 -91 
Q 1428 -91 1123 -41 
Q 819 9 494 109 
L 494 744 
Q 775 591 1075 516 
Q 1375 441 1709 441 
Q 2250 441 2565 725 
Q 2881 1009 2881 1497 
Q 2881 1984 2565 2268 
Q 2250 2553 1709 2553 
Q 1456 2553 1204 2497 
Q 953 2441 691 2322 
L 691 4666 
z
" transform="scale(0.015625)"/>
       </defs>
       <use xlink:href="#DejaVuSans-35"/>
       <use xlink:href="#DejaVuSans-30" x="63.623047"/>
       <use xlink:href="#DejaVuSans-30" x="127.246094"/>
       <use xlink:href="#DejaVuSans-30" x="190.869141"/>
      </g>
     </g>
    </g>
    <g id="text_7">
     <!-- time [µs] -->
     <g transform="translate(220.031286 285.435457) scale(0.1 -0.1)">
      <defs>
       <path id="DejaVuSans-74" d="M 1172 4494 
L 1172 3500 
L 2356 3500 
L 2356 3053 
L 1172 3053 
L 1172 1153 
Q 1172 725 1289 603 
Q 1406 481 1766 481 
L 2356 481 
L 2356 0 
L 1766 0 
Q 1100 0 847 248 
Q 594 497 594 1153 
L 594 3053 
L 172 3053 
L 172 3500 
L 594 3500 
L 594 4494 
L 1172 4494 
z
" transform="scale(0.015625)"/>
       <path id="DejaVuSans-69" d="M 603 3500 
L 1178 3500 
L 1178 0 
L 603 0 
L 603 3500 
z
M 603 4863 
L 1178 4863 
L 1178 4134 
L 603 4134 
L 603 4863 
z
" transform="scale(0.015625)"/>
       <path id="DejaVuSans-6d" d="M 3328 2828 
Q 3544 3216 3844 3400 
Q 4144 3584 4550 3584 
Q 5097 3584 5394 3201 
Q 5691 2819 5691 2113 
L 5691 0 
L 5113 0 
L 5113 2094 
Q 5113 2597 4934 2840 
Q 4756 3084 4391 3084 
Q 3944 3084 3684 2787 
Q 3425 2491 3425 1978 
L 3425 0 
L 2847 0 
L 2847 2094 
Q 2847 2600 2669 2842 
Q 2491 3084 2119 3084 
Q 1678 3084 1418 2786 
Q 1159 2488 1159 1978 
L 1159 0 
L 581 0 
L 581 3500 
L 1159 3500 
L 1159 2956 
Q 1356 3278 1631 3431 
Q 1906 3584 2284 3584 
Q 2666 3584 2933 3390 
Q 3200 3197 3328 2828 
z
" transform="scale(0.015625)"/>
       <path id="DejaVuSans-65" d="M 3597 1894 
L 3597 1613 
L 953 1613 
Q 991 1019 1311 708 
Q 1631 397 2203 397 
Q 2534 397 2845 478 
Q 3156 559 3463 722 
L 3463 178 
Q 3153 47 2828 -22 
Q 2503 -91 2169 -91 
Q 1331 -91 842 396 
Q 353 884 353 1716 
Q 353 2575 817 3079 
Q 1281 3584 2069 3584 
Q 2775 3584 3186 3129 
Q 3597 2675 3597 1894 
z
M 3022 2063 
Q 3016 2534 2758 2815 
Q 2500 3097 2075 3097 
Q 1594 3097 1305 2825 
Q 1016 2553 972 2059 
L 3022 2063 
z
" transform="scale(0.015625)"/>
       <path id="DejaVuSans-20" transform="scale(0.015625)"/>
       <path id="DejaVuSans-5b" d="M 550 4863 
L 1875 4863 
L 1875 4416 
L 1125 4416 
L 1125 -397 
L 1875 -397 
L 1875 -844 
L 550 -844 
L 550 4863 
z
" transform="scale(0.015625)"/>
       <path id="DejaVuSans-b5" d="M 544 -1331 
L 544 3500 
L 1119 3500 
L 1119 1325 
Q 1119 872 1334 640 
Q 1550 409 1972 409 
Q 2434 409 2667 671 
Q 2900 934 2900 1459 
L 2900 3500 
L 3475 3500 
L 3475 806 
Q 3475 619 3529 530 
Q 3584 441 3700 441 
Q 3728 441 3778 458 
Q 3828 475 3916 513 
L 3916 50 
Q 3788 -22 3673 -56 
Q 3559 -91 3450 -91 
Q 3234 -91 3106 31 
Q 2978 153 2931 403 
Q 2775 156 2548 32 
Q 2322 -91 2016 -91 
Q 1697 -91 1473 31 
Q 1250 153 1119 397 
L 1119 -1331 
L 544 -1331 
z
" transform="scale(0.015625)"/>
       <path id="DejaVuSans-73" d="M 2834 3397 
L 2834 2853 
Q 2591 2978 2328 3040 
Q 2066 3103 1784 3103 
Q 1356 3103 1142 2972 
Q 928 2841 928 2578 
Q 928 2378 1081 2264 
Q 1234 2150 1697 2047 
L 1894 2003 
Q 2506 1872 2764 1633 
Q 3022 1394 3022 966 
Q 3022 478 2636 193 
Q 2250 -91 1575 -91 
Q 1294 -91 989 -36 
Q 684 19 347 128 
L 347 722 
Q 666 556 975 473 
Q 1284 391 1588 391 
Q 1994 391 2212 530 
Q 2431 669 2431 922 
Q 2431 1156 2273 1281 
Q 2116 1406 1581 1522 
L 1381 1569 
Q 847 1681 609 1914 
Q 372 2147 372 2553 
Q 372 3047 722 3315 
Q 1072 3584 1716 3584 
Q 2034 3584 2315 3537 
Q 2597 3491 2834 3397 
z
" transform="scale(0.015625)"/>
       <path id="DejaVuSans-5d" d="M 1947 4863 
L 1947 -844 
L 622 -844 
L 622 -397 
L 1369 -397 
L 1369 4416 
L 622 4416 
L 622 4863 
L 1947 4863 
z
" transform="scale(0.015625)"/>
      </defs>
      <use xlink:href="#DejaVuSans-74"/>
      <use xlink:href="#DejaVuSans-69" x="39.208984"/>
      <use xlink:href="#DejaVuSans-6d" x="66.992188"/>
      <use xlink:href="#DejaVuSans-65" x="164.404297"/>
      <use xlink:href="#DejaVuSans-20" x="225.927734"/>
      <use xlink:href="#DejaVuSans-5b" x="257.714844"/>
      <use xlink:href="#DejaVuSans-b5" x="296.728516"/>
      <use xlink:href="#DejaVuSans-73" x="360.351562"/>
      <use xlink:href="#DejaVuSans-5d" x="412.451172"/>
     </g>
    </g>
   </g>
   <g id="matplotlib.axis_2">
    <g id="ytick_1">
     <g id="line2d_7">
      <defs>
       <path id="mf8c8817ce6" d="M 0 0 
L -3.5 0 
" style="stroke: #000000; stroke-width: 0.8"/>
      </defs>
      <g>
       <use xlink:href="#mf8c8817ce6" x="53.328125" y="245.797127" style="stroke: #000000; stroke-width: 0.8"/>
      </g>
     </g>
     <g id="text_8">
      <!-- 0 -->
      <g transform="translate(39.965625 249.596346) scale(0.1 -0.1)">
       <use xlink:href="#DejaVuSans-30"/>
      </g>
     </g>
    </g>
    <g id="ytick_2">
     <g id="line2d_8">
      <g>
       <use xlink:href="#mf8c8817ce6" x="53.328125" y="209.870588" style="stroke: #000000; stroke-width: 0.8"/>
      </g>
     </g>
     <g id="text_9">
      <!-- 200 -->
      <g transform="translate(27.240625 213.669807) scale(0.1 -0.1)">
       <use xlink:href="#DejaVuSans-32"/>
       <use xlink:href="#DejaVuSans-30" x="63.623047"/>
       <use xlink:href="#DejaVuSans-30" x="127.246094"/>
      </g>
     </g>
    </g>
    <g id="ytick_3">
     <g id="line2d_9">
      <g>
       <use xlink:href="#mf8c8817ce6" x="53.328125" y="173.944049" style="stroke: #000000; stroke-width: 0.8"/>
      </g>
     </g>
     <g id="text_10">
      <!-- 400 -->
      <g transform="translate(27.240625 177.743268) scale(0.1 -0.1)">
       <use xlink:href="#DejaVuSans-34"/>
       <use xlink:href="#DejaVuSans-30" x="63.623047"/>
       <use xlink:href="#DejaVuSans-30" x="127.246094"/>
      </g>
     </g>
    </g>
    <g id="ytick_4">
     <g id="line2d_10">
      <g>
       <use xlink:href="#mf8c8817ce6" x="53.328125" y="138.01751" style="stroke: #000000; stroke-width: 0.8"/>
      </g>
     </g>
     <g id="text_11">
      <!-- 600 -->
      <g transform="translate(27.240625 141.816729) scale(0.1 -0.1)">
       <defs>
        <path id="DejaVuSans-36" d="M 2113 2584 
Q 1688 2584 1439 2293 
Q 1191 2003 1191 1497 
Q 1191 994 1439 701 
Q 1688 409 2113 409 
Q 2538 409 2786 701 
Q 3034 994 3034 1497 
Q 3034 2003 2786 2293 
Q 2538 2584 2113 2584 
z
M 3366 4563 
L 3366 3988 
Q 3128 4100 2886 4159 
Q 2644 4219 2406 4219 
Q 1781 4219 1451 3797 
Q 1122 3375 1075 2522 
Q 1259 2794 1537 2939 
Q 1816 3084 2150 3084 
Q 2853 3084 3261 2657 
Q 3669 2231 3669 1497 
Q 3669 778 3244 343 
Q 2819 -91 2113 -91 
Q 1303 -91 875 529 
Q 447 1150 447 2328 
Q 447 3434 972 4092 
Q 1497 4750 2381 4750 
Q 2619 4750 2861 4703 
Q 3103 4656 3366 4563 
z
" transform="scale(0.015625)"/>
       </defs>
       <use xlink:href="#DejaVuSans-36"/>
       <use xlink:href="#DejaVuSans-30" x="63.623047"/>
       <use xlink:href="#DejaVuSans-30" x="127.246094"/>
      </g>
     </g>
    </g>
    <g id="ytick_5">
     <g id="line2d_11">
      <g>
       <use xlink:href="#mf8c8817ce6" x="53.328125" y="102.090971" style="stroke: #000000; stroke-width: 0.8"/>
      </g>
     </g>
     <g id="text_12">
      <!-- 800 -->
      <g transform="translate(27.240625 105.89019) scale(0.1 -0.1)">
       <defs>
        <path id="DejaVuSans-38" d="M 2034 2216 
Q 1584 2216 1326 1975 
Q 1069 1734 1069 1313 
Q 1069 891 1326 650 
Q 1584 409 2034 409 
Q 2484 409 2743 651 
Q 3003 894 3003 1313 
Q 3003 1734 2745 1975 
Q 2488 2216 2034 2216 
z
M 1403 2484 
Q 997 2584 770 2862 
Q 544 3141 544 3541 
Q 544 4100 942 4425 
Q 1341 4750 2034 4750 
Q 2731 4750 3128 4425 
Q 3525 4100 3525 3541 
Q 3525 3141 3298 2862 
Q 3072 2584 2669 2484 
Q 3125 2378 3379 2068 
Q 3634 1759 3634 1313 
Q 3634 634 3220 271 
Q 2806 -91 2034 -91 
Q 1263 -91 848 271 
Q 434 634 434 1313 
Q 434 1759 690 2068 
Q 947 2378 1403 2484 
z
M 1172 3481 
Q 1172 3119 1398 2916 
Q 1625 2713 2034 2713 
Q 2441 2713 2670 2916 
Q 2900 3119 2900 3481 
Q 2900 3844 2670 4047 
Q 2441 4250 2034 4250 
Q 1625 4250 1398 4047 
Q 1172 3844 1172 3481 
z
" transform="scale(0.015625)"/>
       </defs>
       <use xlink:href="#DejaVuSans-38"/>
       <use xlink:href="#DejaVuSans-30" x="63.623047"/>
       <use xlink:href="#DejaVuSans-30" x="127.246094"/>
      </g>
     </g>
    </g>
    <g id="ytick_6">
     <g id="line2d_12">
      <g>
       <use xlink:href="#mf8c8817ce6" x="53.328125" y="66.164432" style="stroke: #000000; stroke-width: 0.8"/>
      </g>
     </g>
     <g id="text_13">
      <!-- 1000 -->
      <g transform="translate(20.878125 69.963651) scale(0.1 -0.1)">
       <use xlink:href="#DejaVuSans-31"/>
       <use xlink:href="#DejaVuSans-30" x="63.623047"/>
       <use xlink:href="#DejaVuSans-30" x="127.246094"/>
       <use xlink:href="#DejaVuSans-30" x="190.869141"/>
      </g>
     </g>
    </g>
    <g id="ytick_7">
     <g id="line2d_13">
      <g>
       <use xlink:href="#mf8c8817ce6" x="53.328125" y="30.237893" style="stroke: #000000; stroke-width: 0.8"/>
      </g>
     </g>
     <g id="text_14">
      <!-- 1200 -->
      <g transform="translate(20.878125 34.037112) scale(0.1 -0.1)">
       <use xlink:href="#DejaVuSans-31"/>
       <use xlink:href="#DejaVuSans-32" x="63.623047"/>
       <use xlink:href="#DejaVuSans-30" x="127.246094"/>
       <use xlink:href="#DejaVuSans-30" x="190.869141"/>
      </g>
     </g>
    </g>
    <g id="text_15">
     <!-- [counts] -->
     <g transform="translate(14.798438 152.791947) rotate(-90) scale(0.1 -0.1)">
      <defs>
       <path id="DejaVuSans-63" d="M 3122 3366 
L 3122 2828 
Q 2878 2963 2633 3030 
Q 2388 3097 2138 3097 
Q 1578 3097 1268 2742 
Q 959 2388 959 1747 
Q 959 1106 1268 751 
Q 1578 397 2138 397 
Q 2388 397 2633 464 
Q 2878 531 3122 666 
L 3122 134 
Q 2881 22 2623 -34 
Q 2366 -91 2075 -91 
Q 1284 -91 818 406 
Q 353 903 353 1747 
Q 353 2603 823 3093 
Q 1294 3584 2113 3584 
Q 2378 3584 2631 3529 
Q 2884 3475 3122 3366 
z
" transform="scale(0.015625)"/>
       <path id="DejaVuSans-6f" d="M 1959 3097 
Q 1497 3097 1228 2736 
Q 959 2375 959 1747 
Q 959 1119 1226 758 
Q 1494 397 1959 397 
Q 2419 397 2687 759 
Q 2956 1122 2956 1747 
Q 2956 2369 2687 2733 
Q 2419 3097 1959 3097 
z
M 1959 3584 
Q 2709 3584 3137 3096 
Q 3566 2609 3566 1747 
Q 3566 888 3137 398 
Q 2709 -91 1959 -91 
Q 1206 -91 779 398 
Q 353 888 353 1747 
Q 353 2609 779 3096 
Q 1206 3584 1959 3584 
z
" transform="scale(0.015625)"/>
       <path id="DejaVuSans-75" d="M 544 1381 
L 544 3500 
L 1119 3500 
L 1119 1403 
Q 1119 906 1312 657 
Q 1506 409 1894 409 
Q 2359 409 2629 706 
Q 2900 1003 2900 1516 
L 2900 3500 
L 3475 3500 
L 3475 0 
L 2900 0 
L 2900 538 
Q 2691 219 2414 64 
Q 2138 -91 1772 -91 
Q 1169 -91 856 284 
Q 544 659 544 1381 
z
M 1991 3584 
L 1991 3584 
z
" transform="scale(0.015625)"/>
       <path id="DejaVuSans-6e" d="M 3513 2113 
L 3513 0 
L 2938 0 
L 2938 2094 
Q 2938 2591 2744 2837 
Q 2550 3084 2163 3084 
Q 1697 3084 1428 2787 
Q 1159 2491 1159 1978 
L 1159 0 
L 581 0 
L 581 3500 
L 1159 3500 
L 1159 2956 
Q 1366 3272 1645 3428 
Q 1925 3584 2291 3584 
Q 2894 3584 3203 3211 
Q 3513 2838 3513 2113 
z
" transform="scale(0.015625)"/>
      </defs>
      <use xlink:href="#DejaVuSans-5b"/>
      <use xlink:href="#DejaVuSans-63" x="39.013672"/>
      <use xlink:href="#DejaVuSans-6f" x="93.994141"/>
      <use xlink:href="#DejaVuSans-75" x="155.175781"/>
      <use xlink:href="#DejaVuSans-6e" x="218.554688"/>
      <use xlink:href="#DejaVuSans-74" x="281.933594"/>
      <use xlink:href="#DejaVuSans-73" x="321.142578"/>
      <use xlink:href="#DejaVuSans-5d" x="373.242188"/>
     </g>
    </g>
   </g>
   <g id="patch_3">
    <path d="M 53.328125 257.158895 
L 53.328125 7.2 
" style="fill: none; stroke: #000000; stroke-width: 0.8; stroke-linejoin: miter; stroke-linecap: square"/>
   </g>
   <g id="patch_4">
    <path d="M 431.87976 257.158895 
L 431.87976 7.2 
" style="fill: none; stroke: #000000; stroke-width: 0.8; stroke-linejoin: miter; stroke-linecap: square"/>
   </g>
   <g id="patch_5">
    <path d="M 53.328125 257.158895 
L 431.87976 257.158895 
" style="fill: none; stroke: #000000; stroke-width: 0.8; stroke-linejoin: miter; stroke-linecap: square"/>
   </g>
   <g id="patch_6">
    <path d="M 53.328125 7.2 
L 431.87976 7.2 
" style="fill: none; stroke: #000000; stroke-width: 0.8; stroke-linejoin: miter; stroke-linecap: square"/>
   </g>
   <g id="line2d_14">
    <path d="M 70.535017 233.402471 
L 71.682144 233.402471 
L 71.682144 228.911654 
L 72.82927 228.911654 
L 72.82927 223.522673 
L 73.976396 223.522673 
L 73.976396 209.870588 
L 75.123522 209.870588 
L 75.123522 205.739036 
L 76.270648 205.739036 
L 76.270648 199.092626 
L 77.417774 199.092626 
L 77.417774 189.572094 
L 78.564901 189.572094 
L 78.564901 180.051561 
L 79.712027 180.051561 
L 79.712027 177.35707 
L 80.859153 177.35707 
L 80.859153 163.166087 
L 82.006279 163.166087 
L 82.006279 160.112332 
L 83.153405 160.112332 
L 83.153405 154.00482 
L 84.300531 154.00482 
L 84.300531 143.406491 
L 85.447658 143.406491 
L 85.447658 136.580449 
L 86.594784 136.580449 
L 86.594784 134.065591 
L 87.74191 134.065591 
L 87.74191 128.496977 
L 88.889036 128.496977 
L 88.889036 125.802487 
L 90.036162 125.802487 
L 90.036162 116.641219 
L 91.183288 116.641219 
L 91.183288 110.892973 
L 92.330415 110.892973 
L 92.330415 113.946729 
L 93.477541 113.946729 
L 93.477541 105.32436 
L 94.624667 105.32436 
L 94.624667 102.989135 
L 95.771793 102.989135 
L 95.771793 98.857583 
L 96.918919 98.857583 
L 96.918919 101.192808 
L 98.066045 101.192808 
L 98.066045 98.139052 
L 99.213172 98.139052 
L 99.213172 88.618519 
L 100.360298 88.618519 
L 100.360298 90.055581 
L 101.507424 90.055581 
L 101.507424 80.175782 
L 102.65455 80.175782 
L 102.65455 76.583128 
L 103.801676 76.583128 
L 103.801676 66.70333 
L 104.948802 66.70333 
L 104.948802 80.894313 
L 106.095929 80.894313 
L 106.095929 70.834882 
L 107.243055 70.834882 
L 107.243055 73.709005 
L 109.537307 73.709005 
L 109.537307 69.577453 
L 110.684433 69.577453 
L 110.684433 71.37378 
L 111.831559 71.37378 
L 111.831559 68.499657 
L 112.978686 68.499657 
L 112.978686 56.823532 
L 114.125812 56.823532 
L 114.125812 48.740061 
L 115.272938 48.740061 
L 115.272938 57.721695 
L 116.420064 57.721695 
L 116.420064 68.320024 
L 117.56719 68.320024 
L 117.56719 64.547738 
L 118.714316 64.547738 
L 118.714316 59.33839 
L 119.861443 59.33839 
L 119.861443 50.895653 
L 121.008569 50.895653 
L 121.008569 58.619859 
L 122.155695 58.619859 
L 122.155695 62.751411 
L 123.302821 62.751411 
L 123.302821 47.482632 
L 124.449947 47.482632 
L 124.449947 51.254918 
L 125.597073 51.254918 
L 125.597073 56.643899 
L 126.7442 56.643899 
L 126.7442 45.865938 
L 127.891326 45.865938 
L 127.891326 57.003165 
L 129.038452 57.003165 
L 129.038452 52.871613 
L 130.185578 52.871613 
L 130.185578 53.051245 
L 131.332704 53.051245 
L 131.332704 52.332715 
L 132.47983 52.332715 
L 132.47983 51.254918 
L 133.626957 51.254918 
L 133.626957 43.171447 
L 134.774083 43.171447 
L 134.774083 42.273284 
L 135.921209 42.273284 
L 135.921209 41.195488 
L 137.068335 41.195488 
L 137.068335 38.141732 
L 138.215461 38.141732 
L 138.215461 41.734386 
L 139.362587 41.734386 
L 139.362587 41.914018 
L 140.509714 41.914018 
L 140.509714 51.793817 
L 141.65684 51.793817 
L 141.65684 55.38647 
L 142.803966 55.38647 
L 142.803966 45.327039 
L 143.951092 45.327039 
L 143.951092 34.01018 
L 145.098218 34.01018 
L 145.098218 37.243568 
L 146.245344 37.243568 
L 146.245344 53.590143 
L 147.392471 53.590143 
L 147.392471 42.452916 
L 148.539597 42.452916 
L 148.539597 44.069611 
L 149.686723 44.069611 
L 149.686723 40.656589 
L 150.833849 40.656589 
L 150.833849 47.662265 
L 151.980975 47.662265 
L 151.980975 32.213853 
L 153.128101 32.213853 
L 153.128101 50.356755 
L 154.275228 50.356755 
L 154.275228 41.015855 
L 155.422354 41.015855 
L 155.422354 43.889978 
L 156.56948 43.889978 
L 156.56948 43.171447 
L 157.716606 43.171447 
L 157.716606 37.243568 
L 158.863732 37.243568 
L 158.863732 44.069611 
L 160.010858 44.069611 
L 160.010858 38.141732 
L 161.157985 38.141732 
L 161.157985 42.632549 
L 162.305111 42.632549 
L 162.305111 51.434551 
L 163.452237 51.434551 
L 163.452237 43.889978 
L 164.599363 43.889978 
L 164.599363 44.788141 
L 165.746489 44.788141 
L 165.746489 40.476957 
L 166.893615 40.476957 
L 166.893615 36.884303 
L 168.040742 36.884303 
L 168.040742 45.327039 
L 169.187868 45.327039 
L 169.187868 43.710345 
L 170.334994 43.710345 
L 170.334994 35.626874 
L 171.48212 35.626874 
L 171.48212 46.04557 
L 172.629246 46.04557 
L 172.629246 38.500997 
L 173.776372 38.500997 
L 173.776372 37.962099 
L 174.923499 37.962099 
L 174.923499 42.093651 
L 176.070625 42.093651 
L 176.070625 36.884303 
L 177.217751 36.884303 
L 177.217751 25.567443 
L 178.364877 25.567443 
L 178.364877 40.476957 
L 179.512003 40.476957 
L 179.512003 53.949409 
L 180.659129 53.949409 
L 180.659129 44.249243 
L 181.806256 44.249243 
L 181.806256 35.087976 
L 182.953382 35.087976 
L 182.953382 37.063936 
L 184.100508 37.063936 
L 184.100508 38.500997 
L 185.247634 38.500997 
L 185.247634 37.602834 
L 186.39476 37.602834 
L 186.39476 40.476957 
L 187.541886 40.476957 
L 187.541886 41.015855 
L 188.689013 41.015855 
L 188.689013 18.561768 
L 189.836139 18.561768 
L 189.836139 40.836222 
L 190.983265 40.836222 
L 190.983265 36.70467 
L 192.130391 36.70467 
L 192.130391 37.423201 
L 193.277517 37.423201 
L 193.277517 38.141732 
L 194.424643 38.141732 
L 194.424643 33.112016 
L 195.57177 33.112016 
L 195.57177 38.500997 
L 196.718896 38.500997 
L 196.718896 40.297324 
L 197.866022 40.297324 
L 197.866022 39.578793 
L 199.013148 39.578793 
L 199.013148 31.854587 
L 200.160274 31.854587 
L 200.160274 41.37512 
L 201.3074 41.37512 
L 201.3074 40.476957 
L 202.454527 40.476957 
L 202.454527 31.136057 
L 203.601653 31.136057 
L 203.601653 34.908343 
L 204.748779 34.908343 
L 204.748779 22.872953 
L 205.895905 22.872953 
L 205.895905 37.962099 
L 207.043031 37.962099 
L 207.043031 41.734386 
L 208.190157 41.734386 
L 208.190157 37.243568 
L 209.337284 37.243568 
L 209.337284 43.171447 
L 210.48441 43.171447 
L 210.48441 28.082301 
L 211.631536 28.082301 
L 211.631536 45.686305 
L 212.778662 45.686305 
L 212.778662 35.986139 
L 213.925788 35.986139 
L 213.925788 30.597159 
L 215.072914 30.597159 
L 215.072914 42.093651 
L 216.220041 42.093651 
L 216.220041 45.327039 
L 217.367167 45.327039 
L 217.367167 37.782466 
L 218.514293 37.782466 
L 218.514293 41.734386 
L 219.661419 41.734386 
L 219.661419 29.33973 
L 220.808545 29.33973 
L 220.808545 37.782466 
L 221.955671 37.782466 
L 221.955671 39.578793 
L 223.102798 39.578793 
L 223.102798 42.632549 
L 224.249924 42.632549 
L 224.249924 27.184137 
L 225.39705 27.184137 
L 225.39705 30.776791 
L 226.544176 30.776791 
L 226.544176 34.72871 
L 227.691302 34.72871 
L 227.691302 35.447241 
L 228.838428 35.447241 
L 228.838428 38.321364 
L 229.985555 38.321364 
L 229.985555 30.05826 
L 231.132681 30.05826 
L 231.132681 44.967774 
L 232.279807 44.967774 
L 232.279807 39.039895 
L 233.426933 39.039895 
L 233.426933 31.854587 
L 234.574059 31.854587 
L 234.574059 38.141732 
L 235.721185 38.141732 
L 235.721185 42.273284 
L 236.868312 42.273284 
L 236.868312 28.082301 
L 238.015438 28.082301 
L 238.015438 30.956424 
L 239.162564 30.956424 
L 239.162564 44.967774 
L 240.30969 44.967774 
L 240.30969 31.495322 
L 241.456816 31.495322 
L 241.456816 41.734386 
L 242.603942 41.734386 
L 242.603942 32.573118 
L 243.751069 32.573118 
L 243.751069 46.225203 
L 244.898195 46.225203 
L 244.898195 30.417526 
L 246.045321 30.417526 
L 246.045321 36.165772 
L 247.192447 36.165772 
L 247.192447 40.656589 
L 248.339573 40.656589 
L 248.339573 32.213853 
L 249.486699 32.213853 
L 249.486699 46.225203 
L 250.633826 46.225203 
L 250.633826 34.369445 
L 251.780952 34.369445 
L 251.780952 34.72871 
L 252.928078 34.72871 
L 252.928078 30.956424 
L 254.075204 30.956424 
L 254.075204 36.165772 
L 255.22233 36.165772 
L 255.22233 37.962099 
L 256.369456 37.962099 
L 256.369456 39.399161 
L 257.516583 39.399161 
L 257.516583 35.087976 
L 258.663709 35.087976 
L 258.663709 42.452916 
L 259.810835 42.452916 
L 259.810835 26.824872 
L 260.957961 26.824872 
L 260.957961 40.656589 
L 262.105087 40.656589 
L 262.105087 42.273284 
L 263.252213 42.273284 
L 263.252213 27.902668 
L 264.39934 27.902668 
L 264.39934 35.087976 
L 265.546466 35.087976 
L 265.546466 30.237893 
L 266.693592 30.237893 
L 266.693592 40.297324 
L 267.840718 40.297324 
L 267.840718 45.506672 
L 268.987844 45.506672 
L 268.987844 47.123366 
L 270.13497 47.123366 
L 270.13497 59.158757 
L 271.282097 59.158757 
L 271.282097 69.397821 
L 272.429223 69.397821 
L 272.429223 75.864598 
L 273.576349 75.864598 
L 273.576349 89.696315 
L 274.723475 89.696315 
L 274.723475 94.726031 
L 275.870601 94.726031 
L 275.870601 102.450236 
L 277.017727 102.450236 
L 277.017727 114.485627 
L 278.164854 114.485627 
L 278.164854 125.443221 
L 279.31198 125.443221 
L 279.31198 122.0302 
L 280.459106 122.0302 
L 280.459106 125.98212 
L 281.606232 125.98212 
L 281.606232 132.987795 
L 282.753358 132.987795 
L 282.753358 148.795472 
L 283.900484 148.795472 
L 283.900484 143.945389 
L 285.047611 143.945389 
L 285.047611 160.112332 
L 286.194737 160.112332 
L 286.194737 158.316005 
L 287.341863 158.316005 
L 287.341863 160.291964 
L 288.488989 160.291964 
L 288.488989 169.273599 
L 289.636115 169.273599 
L 289.636115 167.656905 
L 290.783241 167.656905 
L 290.783241 176.099641 
L 291.930368 176.099641 
L 291.930368 183.644215 
L 293.077494 183.644215 
L 293.077494 186.159072 
L 294.22462 186.159072 
L 294.22462 191.188788 
L 295.371746 191.188788 
L 295.371746 191.36842 
L 296.518872 191.36842 
L 296.518872 186.69797 
L 297.665998 186.69797 
L 297.665998 193.883278 
L 298.813125 193.883278 
L 298.813125 198.553728 
L 299.960251 198.553728 
L 299.960251 196.398136 
L 301.107377 196.398136 
L 301.107377 203.942709 
L 302.254503 203.942709 
L 302.254503 198.733361 
L 303.401629 198.733361 
L 303.401629 205.559403 
L 304.548755 205.559403 
L 304.548755 207.894628 
L 305.695882 207.894628 
L 305.695882 211.128017 
L 306.843008 211.128017 
L 306.843008 215.798467 
L 307.990134 215.798467 
L 307.990134 215.259569 
L 309.13726 215.259569 
L 309.13726 218.313325 
L 310.284386 218.313325 
L 310.284386 217.594794 
L 311.431512 217.594794 
L 311.431512 222.444877 
L 312.578639 222.444877 
L 312.578639 218.492957 
L 313.725765 218.492957 
L 313.725765 221.905979 
L 314.872891 221.905979 
L 314.872891 220.289284 
L 316.020017 220.289284 
L 316.020017 223.34304 
L 317.167143 223.34304 
L 317.167143 226.396796 
L 318.314269 226.396796 
L 318.314269 227.294959 
L 319.461396 227.294959 
L 319.461396 229.630185 
L 320.608522 229.630185 
L 320.608522 228.552388 
L 321.755648 228.552388 
L 321.755648 233.043206 
L 322.902774 233.043206 
L 322.902774 231.785777 
L 324.0499 231.785777 
L 324.0499 233.402471 
L 325.197026 233.402471 
L 325.197026 233.043206 
L 326.344153 233.043206 
L 326.344153 231.426511 
L 327.491279 231.426511 
L 327.491279 232.145042 
L 328.638405 232.145042 
L 328.638405 236.096962 
L 329.785531 236.096962 
L 329.785531 234.6599 
L 330.932657 234.6599 
L 330.932657 236.456227 
L 332.079783 236.456227 
L 332.079783 235.378431 
L 333.22691 235.378431 
L 333.22691 238.432187 
L 334.374036 238.432187 
L 334.374036 236.63586 
L 335.521162 236.63586 
L 335.521162 235.737696 
L 336.668288 235.737696 
L 336.668288 240.587779 
L 337.815414 240.587779 
L 337.815414 238.072921 
L 338.96254 238.072921 
L 338.96254 237.35439 
L 340.109667 237.35439 
L 340.109667 238.432187 
L 341.256793 238.432187 
L 341.256793 238.971085 
L 342.403919 238.971085 
L 342.403919 237.893288 
L 343.551045 237.893288 
L 343.551045 240.587779 
L 344.698171 240.587779 
L 344.698171 240.767412 
L 345.845297 240.767412 
L 345.845297 238.432187 
L 346.992424 238.432187 
L 346.992424 242.743371 
L 348.13955 242.743371 
L 348.13955 241.485942 
L 349.286676 241.485942 
L 349.286676 240.947044 
L 350.433802 240.947044 
L 350.433802 241.30631 
L 351.580928 241.30631 
L 351.580928 242.743371 
L 352.728054 242.743371 
L 352.728054 242.923004 
L 353.875181 242.923004 
L 353.875181 242.743371 
L 355.022307 242.743371 
L 355.022307 242.204473 
L 357.316559 242.204473 
L 357.316559 243.461902 
L 358.463685 243.461902 
L 358.463685 243.641535 
L 359.610811 243.641535 
L 359.610811 243.102637 
L 360.757938 243.102637 
L 360.757938 244.180433 
L 361.905064 244.180433 
L 361.905064 243.461902 
L 363.05219 243.461902 
L 363.05219 242.923004 
L 364.199316 242.923004 
L 364.199316 244.180433 
L 365.346442 244.180433 
L 365.346442 243.461902 
L 366.493568 243.461902 
L 366.493568 244.719331 
L 367.640695 244.719331 
L 367.640695 244.180433 
L 368.787821 244.180433 
L 368.787821 243.821167 
L 369.934947 243.821167 
L 369.934947 244.898964 
L 371.082073 244.898964 
L 371.082073 244.719331 
L 372.229199 244.719331 
L 372.229199 243.821167 
L 373.376325 243.821167 
L 373.376325 244.180433 
L 374.523452 244.180433 
L 374.523452 244.360065 
L 375.670578 244.360065 
L 375.670578 244.180433 
L 376.817704 244.180433 
L 376.817704 245.617494 
L 377.96483 245.617494 
L 377.96483 244.719331 
L 379.111956 244.719331 
L 379.111956 244.898964 
L 380.259082 244.898964 
L 380.259082 244.539698 
L 381.406209 244.539698 
L 381.406209 244.360065 
L 384.847587 244.360065 
L 384.847587 244.719331 
L 387.141839 244.719331 
L 387.141839 245.797127 
L 388.288966 245.797127 
L 388.288966 244.719331 
L 389.436092 244.719331 
L 389.436092 245.437862 
L 390.583218 245.437862 
L 390.583218 245.078596 
L 394.024596 245.078596 
L 394.024596 245.258229 
L 396.318849 245.258229 
L 396.318849 245.078596 
L 397.465975 245.078596 
L 397.465975 244.360065 
L 398.613101 244.360065 
L 398.613101 244.719331 
L 399.760227 244.719331 
L 399.760227 245.258229 
L 400.907353 245.258229 
L 400.907353 245.078596 
L 402.05448 245.078596 
L 402.05448 245.617494 
L 403.201606 245.617494 
L 403.201606 245.258229 
L 404.348732 245.258229 
L 404.348732 244.898964 
L 405.495858 244.898964 
L 405.495858 245.437862 
L 406.642984 245.437862 
L 406.642984 245.258229 
L 407.79011 245.258229 
L 407.79011 245.617494 
L 408.937237 245.617494 
L 408.937237 245.078596 
L 410.084363 245.078596 
L 410.084363 245.258229 
L 412.378615 245.258229 
L 412.378615 245.437862 
L 414.672867 245.437862 
L 414.672867 245.437862 
" clip-path="url(#p2e359ab711)" style="fill: none; stroke: #1f77b4; stroke-width: 1.5; stroke-linecap: square"/>
   </g>
  </g>
  <g id="axes_2">
   <g id="patch_7">
    <path d="M 486.647885 257.158895 
L 865.19952 257.158895 
L 865.19952 7.2 
L 486.647885 7.2 
z
" style="fill: #ffffff"/>
   </g>
   <g id="matplotlib.axis_3">
    <g id="xtick_7">
     <g id="line2d_15">
      <g>
       <use xlink:href="#m6ef708ac98" x="500.383809" y="257.158895" style="stroke: #000000; stroke-width: 0.8"/>
      </g>
     </g>
     <g id="text_16">
      <!-- 0.0 -->
      <g transform="translate(492.432246 271.757332) scale(0.1 -0.1)">
       <defs>
        <path id="DejaVuSans-2e" d="M 684 794 
L 1344 794 
L 1344 0 
L 684 0 
L 684 794 
z
" transform="scale(0.015625)"/>
       </defs>
       <use xlink:href="#DejaVuSans-30"/>
       <use xlink:href="#DejaVuSans-2e" x="63.623047"/>
       <use xlink:href="#DejaVuSans-30" x="95.410156"/>
      </g>
     </g>
    </g>
    <g id="xtick_8">
     <g id="line2d_16">
      <g>
       <use xlink:href="#m6ef708ac98" x="544.092598" y="257.158895" style="stroke: #000000; stroke-width: 0.8"/>
      </g>
     </g>
     <g id="text_17">
      <!-- 2.5 -->
      <g transform="translate(536.141036 271.757332) scale(0.1 -0.1)">
       <use xlink:href="#DejaVuSans-32"/>
       <use xlink:href="#DejaVuSans-2e" x="63.623047"/>
       <use xlink:href="#DejaVuSans-35" x="95.410156"/>
      </g>
     </g>
    </g>
    <g id="xtick_9">
     <g id="line2d_17">
      <g>
       <use xlink:href="#m6ef708ac98" x="587.801388" y="257.158895" style="stroke: #000000; stroke-width: 0.8"/>
      </g>
     </g>
     <g id="text_18">
      <!-- 5.0 -->
      <g transform="translate(579.849825 271.757332) scale(0.1 -0.1)">
       <use xlink:href="#DejaVuSans-35"/>
       <use xlink:href="#DejaVuSans-2e" x="63.623047"/>
       <use xlink:href="#DejaVuSans-30" x="95.410156"/>
      </g>
     </g>
    </g>
    <g id="xtick_10">
     <g id="line2d_18">
      <g>
       <use xlink:href="#m6ef708ac98" x="631.510177" y="257.158895" style="stroke: #000000; stroke-width: 0.8"/>
      </g>
     </g>
     <g id="text_19">
      <!-- 7.5 -->
      <g transform="translate(623.558614 271.757332) scale(0.1 -0.1)">
       <defs>
        <path id="DejaVuSans-37" d="M 525 4666 
L 3525 4666 
L 3525 4397 
L 1831 0 
L 1172 0 
L 2766 4134 
L 525 4134 
L 525 4666 
z
" transform="scale(0.015625)"/>
       </defs>
       <use xlink:href="#DejaVuSans-37"/>
       <use xlink:href="#DejaVuSans-2e" x="63.623047"/>
       <use xlink:href="#DejaVuSans-35" x="95.410156"/>
      </g>
     </g>
    </g>
    <g id="xtick_11">
     <g id="line2d_19">
      <g>
       <use xlink:href="#m6ef708ac98" x="675.218966" y="257.158895" style="stroke: #000000; stroke-width: 0.8"/>
      </g>
     </g>
     <g id="text_20">
      <!-- 10.0 -->
      <g transform="translate(664.086154 271.757332) scale(0.1 -0.1)">
       <use xlink:href="#DejaVuSans-31"/>
       <use xlink:href="#DejaVuSans-30" x="63.623047"/>
       <use xlink:href="#DejaVuSans-2e" x="127.246094"/>
       <use xlink:href="#DejaVuSans-30" x="159.033203"/>
      </g>
     </g>
    </g>
    <g id="xtick_12">
     <g id="line2d_20">
      <g>
       <use xlink:href="#m6ef708ac98" x="718.927756" y="257.158895" style="stroke: #000000; stroke-width: 0.8"/>
      </g>
     </g>
     <g id="text_21">
      <!-- 12.5 -->
      <g transform="translate(707.794943 271.757332) scale(0.1 -0.1)">
       <use xlink:href="#DejaVuSans-31"/>
       <use xlink:href="#DejaVuSans-32" x="63.623047"/>
       <use xlink:href="#DejaVuSans-2e" x="127.246094"/>
       <use xlink:href="#DejaVuSans-35" x="159.033203"/>
      </g>
     </g>
    </g>
    <g id="xtick_13">
     <g id="line2d_21">
      <g>
       <use xlink:href="#m6ef708ac98" x="762.636545" y="257.158895" style="stroke: #000000; stroke-width: 0.8"/>
      </g>
     </g>
     <g id="text_22">
      <!-- 15.0 -->
      <g transform="translate(751.503733 271.757332) scale(0.1 -0.1)">
       <use xlink:href="#DejaVuSans-31"/>
       <use xlink:href="#DejaVuSans-35" x="63.623047"/>
       <use xlink:href="#DejaVuSans-2e" x="127.246094"/>
       <use xlink:href="#DejaVuSans-30" x="159.033203"/>
      </g>
     </g>
    </g>
    <g id="xtick_14">
     <g id="line2d_22">
      <g>
       <use xlink:href="#m6ef708ac98" x="806.345334" y="257.158895" style="stroke: #000000; stroke-width: 0.8"/>
      </g>
     </g>
     <g id="text_23">
      <!-- 17.5 -->
      <g transform="translate(795.212522 271.757332) scale(0.1 -0.1)">
       <use xlink:href="#DejaVuSans-31"/>
       <use xlink:href="#DejaVuSans-37" x="63.623047"/>
       <use xlink:href="#DejaVuSans-2e" x="127.246094"/>
       <use xlink:href="#DejaVuSans-35" x="159.033203"/>
      </g>
     </g>
    </g>
    <g id="xtick_15">
     <g id="line2d_23">
      <g>
       <use xlink:href="#m6ef708ac98" x="850.054124" y="257.158895" style="stroke: #000000; stroke-width: 0.8"/>
      </g>
     </g>
     <g id="text_24">
      <!-- 20.0 -->
      <g transform="translate(838.921311 271.757332) scale(0.1 -0.1)">
       <use xlink:href="#DejaVuSans-32"/>
       <use xlink:href="#DejaVuSans-30" x="63.623047"/>
       <use xlink:href="#DejaVuSans-2e" x="127.246094"/>
       <use xlink:href="#DejaVuSans-30" x="159.033203"/>
      </g>
     </g>
    </g>
    <g id="text_25">
     <!-- wavelength [Å] -->
     <g transform="translate(637.886202 287.119832) scale(0.1 -0.1)">
      <defs>
       <path id="DejaVuSans-77" d="M 269 3500 
L 844 3500 
L 1563 769 
L 2278 3500 
L 2956 3500 
L 3675 769 
L 4391 3500 
L 4966 3500 
L 4050 0 
L 3372 0 
L 2619 2869 
L 1863 0 
L 1184 0 
L 269 3500 
z
" transform="scale(0.015625)"/>
       <path id="DejaVuSans-61" d="M 2194 1759 
Q 1497 1759 1228 1600 
Q 959 1441 959 1056 
Q 959 750 1161 570 
Q 1363 391 1709 391 
Q 2188 391 2477 730 
Q 2766 1069 2766 1631 
L 2766 1759 
L 2194 1759 
z
M 3341 1997 
L 3341 0 
L 2766 0 
L 2766 531 
Q 2569 213 2275 61 
Q 1981 -91 1556 -91 
Q 1019 -91 701 211 
Q 384 513 384 1019 
Q 384 1609 779 1909 
Q 1175 2209 1959 2209 
L 2766 2209 
L 2766 2266 
Q 2766 2663 2505 2880 
Q 2244 3097 1772 3097 
Q 1472 3097 1187 3025 
Q 903 2953 641 2809 
L 641 3341 
Q 956 3463 1253 3523 
Q 1550 3584 1831 3584 
Q 2591 3584 2966 3190 
Q 3341 2797 3341 1997 
z
" transform="scale(0.015625)"/>
       <path id="DejaVuSans-76" d="M 191 3500 
L 800 3500 
L 1894 563 
L 2988 3500 
L 3597 3500 
L 2284 0 
L 1503 0 
L 191 3500 
z
" transform="scale(0.015625)"/>
       <path id="DejaVuSans-6c" d="M 603 4863 
L 1178 4863 
L 1178 0 
L 603 0 
L 603 4863 
z
" transform="scale(0.015625)"/>
       <path id="DejaVuSans-67" d="M 2906 1791 
Q 2906 2416 2648 2759 
Q 2391 3103 1925 3103 
Q 1463 3103 1205 2759 
Q 947 2416 947 1791 
Q 947 1169 1205 825 
Q 1463 481 1925 481 
Q 2391 481 2648 825 
Q 2906 1169 2906 1791 
z
M 3481 434 
Q 3481 -459 3084 -895 
Q 2688 -1331 1869 -1331 
Q 1566 -1331 1297 -1286 
Q 1028 -1241 775 -1147 
L 775 -588 
Q 1028 -725 1275 -790 
Q 1522 -856 1778 -856 
Q 2344 -856 2625 -561 
Q 2906 -266 2906 331 
L 2906 616 
Q 2728 306 2450 153 
Q 2172 0 1784 0 
Q 1141 0 747 490 
Q 353 981 353 1791 
Q 353 2603 747 3093 
Q 1141 3584 1784 3584 
Q 2172 3584 2450 3431 
Q 2728 3278 2906 2969 
L 2906 3500 
L 3481 3500 
L 3481 434 
z
" transform="scale(0.015625)"/>
       <path id="DejaVuSans-68" d="M 3513 2113 
L 3513 0 
L 2938 0 
L 2938 2094 
Q 2938 2591 2744 2837 
Q 2550 3084 2163 3084 
Q 1697 3084 1428 2787 
Q 1159 2491 1159 1978 
L 1159 0 
L 581 0 
L 581 4863 
L 1159 4863 
L 1159 2956 
Q 1366 3272 1645 3428 
Q 1925 3584 2291 3584 
Q 2894 3584 3203 3211 
Q 3513 2838 3513 2113 
z
" transform="scale(0.015625)"/>
       <path id="DejaVuSans-c5" d="M 2663 5081 
Q 2663 5278 2523 5417 
Q 2384 5556 2188 5556 
Q 1988 5556 1852 5420 
Q 1716 5284 1716 5081 
Q 1716 4884 1853 4746 
Q 1991 4609 2188 4609 
Q 2384 4609 2523 4746 
Q 2663 4884 2663 5081 
z
M 2188 4044 
L 1338 1722 
L 3041 1722 
L 2188 4044 
z
M 1716 4366 
Q 1525 4494 1428 4673 
Q 1331 4853 1331 5081 
Q 1331 5441 1579 5691 
Q 1828 5941 2188 5941 
Q 2544 5941 2795 5689 
Q 3047 5438 3047 5081 
Q 3047 4863 2948 4678 
Q 2850 4494 2663 4366 
L 4325 0 
L 3669 0 
L 3244 1197 
L 1141 1197 
L 716 0 
L 50 0 
L 1716 4366 
z
" transform="scale(0.015625)"/>
      </defs>
      <use xlink:href="#DejaVuSans-77"/>
      <use xlink:href="#DejaVuSans-61" x="81.787109"/>
      <use xlink:href="#DejaVuSans-76" x="143.066406"/>
      <use xlink:href="#DejaVuSans-65" x="202.246094"/>
      <use xlink:href="#DejaVuSans-6c" x="263.769531"/>
      <use xlink:href="#DejaVuSans-65" x="291.552734"/>
      <use xlink:href="#DejaVuSans-6e" x="353.076172"/>
      <use xlink:href="#DejaVuSans-67" x="416.455078"/>
      <use xlink:href="#DejaVuSans-74" x="479.931641"/>
      <use xlink:href="#DejaVuSans-68" x="519.140625"/>
      <use xlink:href="#DejaVuSans-20" x="582.519531"/>
      <use xlink:href="#DejaVuSans-5b" x="614.306641"/>
      <use xlink:href="#DejaVuSans-c5" x="653.320312"/>
      <use xlink:href="#DejaVuSans-5d" x="721.728516"/>
     </g>
    </g>
   </g>
   <g id="matplotlib.axis_4">
    <g id="ytick_8">
     <g id="line2d_24">
      <g>
       <use xlink:href="#mf8c8817ce6" x="486.647885" y="245.797127" style="stroke: #000000; stroke-width: 0.8"/>
      </g>
     </g>
     <g id="text_26">
      <!-- 0 -->
      <g transform="translate(473.285385 249.596346) scale(0.1 -0.1)">
       <use xlink:href="#DejaVuSans-30"/>
      </g>
     </g>
    </g>
    <g id="ytick_9">
     <g id="line2d_25">
      <g>
       <use xlink:href="#mf8c8817ce6" x="486.647885" y="193.426682" style="stroke: #000000; stroke-width: 0.8"/>
      </g>
     </g>
     <g id="text_27">
      <!-- 1000 -->
      <g transform="translate(454.197885 197.225901) scale(0.1 -0.1)">
       <use xlink:href="#DejaVuSans-31"/>
       <use xlink:href="#DejaVuSans-30" x="63.623047"/>
       <use xlink:href="#DejaVuSans-30" x="127.246094"/>
       <use xlink:href="#DejaVuSans-30" x="190.869141"/>
      </g>
     </g>
    </g>
    <g id="ytick_10">
     <g id="line2d_26">
      <g>
       <use xlink:href="#mf8c8817ce6" x="486.647885" y="141.056238" style="stroke: #000000; stroke-width: 0.8"/>
      </g>
     </g>
     <g id="text_28">
      <!-- 2000 -->
      <g transform="translate(454.197885 144.855457) scale(0.1 -0.1)">
       <use xlink:href="#DejaVuSans-32"/>
       <use xlink:href="#DejaVuSans-30" x="63.623047"/>
       <use xlink:href="#DejaVuSans-30" x="127.246094"/>
       <use xlink:href="#DejaVuSans-30" x="190.869141"/>
      </g>
     </g>
    </g>
    <g id="ytick_11">
     <g id="line2d_27">
      <g>
       <use xlink:href="#mf8c8817ce6" x="486.647885" y="88.685793" style="stroke: #000000; stroke-width: 0.8"/>
      </g>
     </g>
     <g id="text_29">
      <!-- 3000 -->
      <g transform="translate(454.197885 92.485012) scale(0.1 -0.1)">
       <use xlink:href="#DejaVuSans-33"/>
       <use xlink:href="#DejaVuSans-30" x="63.623047"/>
       <use xlink:href="#DejaVuSans-30" x="127.246094"/>
       <use xlink:href="#DejaVuSans-30" x="190.869141"/>
      </g>
     </g>
    </g>
    <g id="ytick_12">
     <g id="line2d_28">
      <g>
       <use xlink:href="#mf8c8817ce6" x="486.647885" y="36.315349" style="stroke: #000000; stroke-width: 0.8"/>
      </g>
     </g>
     <g id="text_30">
      <!-- 4000 -->
      <g transform="translate(454.197885 40.114567) scale(0.1 -0.1)">
       <use xlink:href="#DejaVuSans-34"/>
       <use xlink:href="#DejaVuSans-30" x="63.623047"/>
       <use xlink:href="#DejaVuSans-30" x="127.246094"/>
       <use xlink:href="#DejaVuSans-30" x="190.869141"/>
      </g>
     </g>
    </g>
    <g id="text_31">
     <!-- [counts] -->
     <g transform="translate(448.118197 152.791947) rotate(-90) scale(0.1 -0.1)">
      <use xlink:href="#DejaVuSans-5b"/>
      <use xlink:href="#DejaVuSans-63" x="39.013672"/>
      <use xlink:href="#DejaVuSans-6f" x="93.994141"/>
      <use xlink:href="#DejaVuSans-75" x="155.175781"/>
      <use xlink:href="#DejaVuSans-6e" x="218.554688"/>
      <use xlink:href="#DejaVuSans-74" x="281.933594"/>
      <use xlink:href="#DejaVuSans-73" x="321.142578"/>
      <use xlink:href="#DejaVuSans-5d" x="373.242188"/>
     </g>
    </g>
   </g>
   <g id="patch_8">
    <path d="M 486.647885 257.158895 
L 486.647885 7.2 
" style="fill: none; stroke: #000000; stroke-width: 0.8; stroke-linejoin: miter; stroke-linecap: square"/>
   </g>
   <g id="patch_9">
    <path d="M 865.19952 257.158895 
L 865.19952 7.2 
" style="fill: none; stroke: #000000; stroke-width: 0.8; stroke-linejoin: miter; stroke-linecap: square"/>
   </g>
   <g id="patch_10">
    <path d="M 486.647885 257.158895 
L 865.19952 257.158895 
" style="fill: none; stroke: #000000; stroke-width: 0.8; stroke-linejoin: miter; stroke-linecap: square"/>
   </g>
   <g id="patch_11">
    <path d="M 486.647885 7.2 
L 865.19952 7.2 
" style="fill: none; stroke: #000000; stroke-width: 0.8; stroke-linejoin: miter; stroke-linecap: square"/>
   </g>
   <g id="line2d_29">
    <path d="M 503.854777 155.196258 
L 505.001904 155.196258 
L 505.001904 146.083801 
L 506.14903 146.083801 
L 506.14903 141.894165 
L 507.296156 141.894165 
L 507.296156 136.342898 
L 508.443282 136.342898 
L 508.443282 147.654914 
L 509.590408 147.654914 
L 509.590408 158.705078 
L 510.737534 158.705078 
L 510.737534 147.445432 
L 511.884661 147.445432 
L 511.884661 130.529778 
L 513.031787 130.529778 
L 513.031787 104.711149 
L 514.178913 104.711149 
L 514.178913 84.129565 
L 515.326039 84.129565 
L 515.326039 61.715014 
L 516.473165 61.715014 
L 516.473165 38.619648 
L 517.620291 38.619648 
L 517.620291 27.360003 
L 518.767418 27.360003 
L 518.767418 24.531999 
L 519.914544 24.531999 
L 519.914544 18.561768 
L 521.06167 18.561768 
L 521.06167 21.965847 
L 522.208796 21.965847 
L 522.208796 35.582162 
L 523.355922 35.582162 
L 523.355922 40.086021 
L 524.503048 40.086021 
L 524.503048 47.784476 
L 525.650175 47.784476 
L 525.650175 62.552941 
L 526.797301 62.552941 
L 526.797301 74.807625 
L 527.944427 74.807625 
L 527.944427 78.630668 
L 529.091553 78.630668 
L 529.091553 86.224382 
L 530.238679 86.224382 
L 530.238679 86.433864 
L 531.385805 86.433864 
L 531.385805 98.740919 
L 532.532932 98.740919 
L 532.532932 94.708394 
L 533.680058 94.708394 
L 533.680058 101.516552 
L 534.827184 101.516552 
L 534.827184 95.808174 
L 535.97431 95.808174 
L 535.97431 92.561206 
L 538.268562 92.613577 
L 538.268562 80.830227 
L 539.415689 80.830227 
L 539.415689 71.351176 
L 540.562815 71.351176 
L 540.562815 63.862203 
L 541.709941 63.862203 
L 541.709941 50.56011 
L 542.857067 50.56011 
L 542.857067 41.028689 
L 544.004193 41.028689 
L 544.004193 37.991203 
L 545.151319 37.991203 
L 545.151319 35.215569 
L 546.298446 35.215569 
L 546.298446 51.659889 
L 547.445572 51.659889 
L 547.445572 50.821962 
L 548.592698 50.821962 
L 548.592698 61.767385 
L 549.739824 61.767385 
L 549.739824 75.802664 
L 550.88695 75.802664 
L 550.88695 81.039708 
L 552.034076 81.039708 
L 552.034076 89.890313 
L 553.181203 89.890313 
L 553.181203 96.436619 
L 554.328329 96.436619 
L 554.328329 110.210046 
L 555.475455 110.210046 
L 555.475455 110.943232 
L 556.622581 110.943232 
L 556.622581 117.960872 
L 557.769707 117.960872 
L 557.769707 126.130661 
L 558.916833 126.130661 
L 558.916833 128.173108 
L 560.06396 128.173108 
L 560.06396 136.55238 
L 561.211086 136.55238 
L 561.211086 144.041353 
L 562.358212 144.041353 
L 562.358212 147.812025 
L 563.505338 147.812025 
L 563.505338 152.734847 
L 564.652464 152.734847 
L 564.652464 152.315883 
L 565.79959 152.315883 
L 565.79959 158.286114 
L 566.946717 158.286114 
L 566.946717 165.094272 
L 568.093843 165.094272 
L 568.093843 166.717756 
L 569.240969 166.717756 
L 569.240969 171.116873 
L 570.388095 171.116873 
L 570.388095 177.76792 
L 571.535221 177.76792 
L 571.535221 182.219407 
L 572.682347 182.219407 
L 572.682347 182.743112 
L 573.829474 182.743112 
L 573.829474 186.409043 
L 574.9766 186.409043 
L 574.9766 188.084897 
L 576.123726 188.084897 
L 576.123726 190.703419 
L 577.270852 190.703419 
L 577.270852 192.745867 
L 578.417978 192.745867 
L 578.417978 195.416759 
L 579.565104 195.416759 
L 579.565104 199.501654 
L 581.859357 199.501654 
L 581.859357 202.434399 
L 583.006483 202.434399 
L 583.006483 205.890848 
L 584.153609 205.890848 
L 584.153609 203.953142 
L 585.300735 203.953142 
L 585.300735 208.299889 
L 587.594988 208.247518 
L 587.594988 211.075522 
L 588.742114 211.075522 
L 588.742114 211.96582 
L 589.88924 211.96582 
L 589.88924 214.32249 
L 591.036366 214.32249 
L 591.036366 216.469678 
L 592.183492 216.469678 
L 592.183492 216.993383 
L 593.330618 216.993383 
L 593.330618 219.402423 
L 594.477745 219.402423 
L 594.477745 216.050715 
L 595.624871 216.050715 
L 595.624871 220.083239 
L 596.771997 220.083239 
L 596.771997 221.078277 
L 597.919123 221.078277 
L 597.919123 220.135609 
L 599.066249 220.135609 
L 599.066249 224.744208 
L 600.213375 224.744208 
L 600.213375 223.225465 
L 601.360502 223.225465 
L 601.360502 224.639467 
L 602.507628 224.639467 
L 602.507628 225.529765 
L 603.654754 225.529765 
L 603.654754 227.25799 
L 604.80188 227.25799 
L 604.80188 226.210581 
L 605.949006 226.210581 
L 605.949006 228.567251 
L 607.096132 228.567251 
L 607.096132 229.090955 
L 608.243259 229.090955 
L 608.243259 229.405178 
L 609.390385 229.405178 
L 609.390385 230.81918 
L 610.537511 230.81918 
L 610.537511 232.128441 
L 611.684637 232.128441 
L 611.684637 231.814218 
L 612.831763 231.814218 
L 612.831763 232.390293 
L 613.978889 232.390293 
L 613.978889 231.918959 
L 615.126016 231.918959 
L 615.126016 233.804295 
L 616.273142 233.804295 
L 616.273142 232.861627 
L 617.420268 232.861627 
L 617.420268 234.485111 
L 618.567394 234.485111 
L 618.567394 233.647184 
L 619.71452 233.647184 
L 619.71452 233.909036 
L 620.861646 233.909036 
L 620.861646 235.846743 
L 622.008773 235.846743 
L 622.008773 236.160965 
L 623.155899 236.160965 
L 623.155899 236.527558 
L 624.303025 236.527558 
L 624.303025 236.370447 
L 625.450151 236.370447 
L 625.450151 237.156004 
L 626.597277 237.156004 
L 626.597277 235.951483 
L 627.744403 235.951483 
L 627.744403 236.160965 
L 628.89153 236.160965 
L 628.89153 237.417856 
L 630.038656 237.417856 
L 630.038656 238.308153 
L 631.185782 238.308153 
L 631.185782 238.622376 
L 632.332908 238.622376 
L 632.332908 236.998892 
L 633.480034 236.998892 
L 633.480034 238.517635 
L 634.62716 238.517635 
L 634.62716 237.627338 
L 635.774287 237.627338 
L 635.774287 239.407933 
L 636.921413 239.407933 
L 636.921413 238.831858 
L 638.068539 238.831858 
L 638.068539 239.565044 
L 639.215665 239.565044 
L 639.215665 240.036378 
L 640.362791 240.036378 
L 640.362791 240.350601 
L 641.509917 240.350601 
L 641.509917 239.250821 
L 642.657044 239.250821 
L 642.657044 238.936599 
L 643.80417 238.936599 
L 643.80417 240.979046 
L 644.951296 240.979046 
L 644.951296 239.931637 
L 646.098422 239.931637 
L 646.098422 241.031417 
L 647.245548 241.031417 
L 647.245548 240.036378 
L 648.392674 240.036378 
L 648.392674 240.507712 
L 649.539801 240.507712 
L 649.539801 240.821935 
L 650.686927 240.821935 
L 650.686927 240.560083 
L 651.834053 240.560083 
L 651.834053 241.555121 
L 652.981179 241.555121 
L 652.981179 242.183566 
L 654.128305 242.183566 
L 654.128305 241.345639 
L 655.275431 241.345639 
L 655.275431 241.083787 
L 656.422558 241.083787 
L 656.422558 242.235937 
L 658.71681 242.131196 
L 658.71681 241.764603 
L 659.863936 241.764603 
L 659.863936 241.555121 
L 661.011062 241.555121 
L 661.011062 241.921714 
L 662.158188 241.921714 
L 662.158188 242.969123 
L 663.305315 242.969123 
L 663.305315 242.707271 
L 664.452441 242.707271 
L 664.452441 242.393048 
L 665.599567 242.393048 
L 665.599567 243.021493 
L 667.893819 243.021493 
L 667.893819 242.550159 
L 669.040945 242.550159 
L 669.040945 241.921714 
L 670.188072 241.921714 
L 670.188072 242.864382 
L 673.62945 242.759641 
L 673.62945 243.230975 
L 674.776576 243.230975 
L 674.776576 242.916753 
L 675.923702 242.916753 
L 675.923702 243.440457 
L 678.217955 243.335716 
L 678.217955 243.073864 
L 679.365081 243.073864 
L 679.365081 244.121273 
L 680.512207 244.121273 
L 680.512207 243.021493 
L 681.659333 243.021493 
L 681.659333 243.388087 
L 682.806459 243.388087 
L 682.806459 243.964161 
L 683.953586 243.964161 
L 683.953586 243.545198 
L 685.100712 243.545198 
L 685.100712 243.964161 
L 687.394964 243.911791 
L 687.394964 244.173643 
L 688.54209 244.173643 
L 688.54209 243.859421 
L 689.689216 243.859421 
L 689.689216 243.649939 
L 690.836343 243.649939 
L 690.836343 244.330755 
L 694.277721 244.278384 
L 694.277721 244.173643 
L 695.424847 244.173643 
L 695.424847 243.964161 
L 697.7191 244.016532 
L 697.7191 244.278384 
L 700.013352 244.278384 
L 700.013352 244.068902 
L 701.160478 244.068902 
L 701.160478 244.383125 
L 702.307604 244.383125 
L 702.307604 244.226014 
L 703.45473 244.226014 
L 703.45473 244.802089 
L 704.601857 244.802089 
L 704.601857 244.330755 
L 705.748983 244.330755 
L 705.748983 244.068902 
L 706.896109 244.068902 
L 706.896109 244.697348 
L 708.043235 244.697348 
L 708.043235 244.854459 
L 709.190361 244.854459 
L 709.190361 244.435495 
L 710.337487 244.435495 
L 710.337487 244.749718 
L 713.778866 244.854459 
L 713.778866 244.487866 
L 714.925992 244.487866 
L 714.925992 244.906829 
L 717.220244 244.802089 
L 717.220244 244.592607 
L 720.661623 244.697348 
L 720.661623 245.168682 
L 721.808749 245.168682 
L 721.808749 244.854459 
L 726.397254 244.906829 
L 726.397254 245.221052 
L 727.54438 245.221052 
L 727.54438 245.01157 
L 728.691506 245.01157 
L 728.691506 245.168682 
L 729.838632 245.168682 
L 729.838632 244.9592 
L 730.985758 244.9592 
L 730.985758 245.116311 
L 732.132885 245.116311 
L 732.132885 244.906829 
L 737.868515 244.906829 
L 737.868515 245.378163 
L 739.015642 245.378163 
L 739.015642 245.116311 
L 740.162768 245.116311 
L 740.162768 244.906829 
L 741.309894 244.906829 
L 741.309894 245.430534 
L 742.45702 245.430534 
L 742.45702 244.9592 
L 744.751272 244.9592 
L 744.751272 245.168682 
L 745.898399 245.168682 
L 745.898399 245.325793 
L 748.192651 245.221052 
L 748.192651 245.116311 
L 749.339777 245.116311 
L 749.339777 245.378163 
L 750.486903 245.378163 
L 750.486903 245.221052 
L 751.634029 245.221052 
L 751.634029 245.378163 
L 753.928282 245.273423 
L 753.928282 244.802089 
L 755.075408 244.802089 
L 755.075408 245.325793 
L 764.252417 245.430534 
L 764.252417 245.587645 
L 765.399543 245.587645 
L 765.399543 245.430534 
L 766.54667 245.430534 
L 766.54667 245.273423 
L 768.840922 245.273423 
L 768.840922 245.535275 
L 772.2823 245.535275 
L 772.2823 245.273423 
L 773.429427 245.273423 
L 773.429427 245.430534 
L 774.576553 245.430534 
L 774.576553 245.01157 
L 775.723679 245.01157 
L 775.723679 245.273423 
L 778.017931 245.378163 
L 778.017931 245.587645 
L 786.047814 245.587645 
L 786.047814 245.378163 
L 787.194941 245.378163 
L 787.194941 245.587645 
L 791.783445 245.482904 
L 791.783445 245.325793 
L 792.930572 245.325793 
L 792.930572 245.640016 
L 798.666202 245.587645 
L 798.666202 245.482904 
L 803.254707 245.535275 
L 803.254707 245.744757 
L 807.843212 245.640016 
L 807.843212 245.482904 
L 808.990338 245.482904 
L 808.990338 245.744757 
L 813.578842 245.640016 
L 813.578842 245.325793 
L 814.725969 245.325793 
L 814.725969 245.587645 
L 817.020221 245.640016 
L 817.020221 245.744757 
L 822.755852 245.744757 
L 822.755852 245.535275 
L 825.050104 245.640016 
L 825.050104 245.744757 
L 826.19723 245.744757 
L 826.19723 245.535275 
L 827.344357 245.535275 
L 827.344357 245.692386 
L 847.992628 245.692386 
L 847.992628 245.692386 
" clip-path="url(#pd207d2f095)" style="fill: none; stroke: #1f77b4; stroke-width: 1.5; stroke-linecap: square"/>
   </g>
  </g>
 </g>
 <defs>
  <clipPath id="p2e359ab711">
   <rect x="53.328125" y="7.2" width="378.551635" height="249.958895"/>
  </clipPath>
  <clipPath id="pd207d2f095">
   <rect x="486.647885" y="7.2" width="378.551635" height="249.958895"/>
  </clipPath>
 </defs>
</svg>
