<?xml version="1.0" encoding="UTF-8" standalone="no"?>
<!DOCTYPE svg PUBLIC "-//W3C//DTD SVG 1.1//EN"
 "http://www.w3.org/Graphics/SVG/1.1/DTD/svg11.dtd">
<!-- Generated by graphviz version 11.0.0 (20240519.1550)
 -->
<!-- Pages: 1 -->
<svg width="910pt" height="378pt"
 viewBox="0.00 0.00 909.50 378.25" xmlns="http://www.w3.org/2000/svg" xmlns:xlink="http://www.w3.org/1999/xlink">
<g id="graph0" class="graph" transform="scale(1 1) rotate(0) translate(4 374.25)">
<polygon fill="white" stroke="none" points="-4,4 -4,-374.25 905.5,-374.25 905.5,4 -4,4"/>
<!-- SourceWavelengthRange -->
<g id="node1" class="node">
<title>SourceWavelengthRange</title>
<polygon fill="none" stroke="red" stroke-dasharray="5,2" points="901.5,-370.25 707,-370.25 707,-345 901.5,-345 901.5,-370.25"/>
<text text-anchor="middle" x="804.25" y="-352.95" font-family="Times,serif" font-size="14.00" fill="red">SourceWavelengthRange</text>
</g>
<!-- ChopperCascadeFrames -->
<g id="node2" class="node">
<title>ChopperCascadeFrames</title>
<polygon fill="none" stroke="black" points="753.25,-309 563.25,-309 563.25,-276 753.25,-276 753.25,-309"/>
<text text-anchor="start" x="571.25" y="-292.7" font-family="Times,serif" font-size="14.00">ChopperCascadeFrames</text>
<text text-anchor="start" x="578.38" y="-281.55" font-family="Times,serif" font-size="11.00">via:</text>
<text text-anchor="start" x="598.62" y="-281.55" font-family="Times,serif" font-style="italic" font-size="11.00">chopper_cascade_frames</text>
</g>
<!-- SourceWavelengthRange&#45;&gt;ChopperCascadeFrames -->
<g id="edge1" class="edge">
<title>SourceWavelengthRange&#45;&gt;ChopperCascadeFrames</title>
<path fill="none" stroke="black" d="M776.44,-344.6C756.43,-335.95 728.94,-324.06 705.5,-313.93"/>
<polygon fill="black" stroke="black" points="707.02,-310.77 696.45,-310.02 704.24,-317.2 707.02,-310.77"/>
</g>
<!-- FrameAtDetector -->
<g id="node9" class="node">
<title>FrameAtDetector</title>
<polygon fill="none" stroke="black" points="597.5,-240 457,-240 457,-207 597.5,-207 597.5,-240"/>
<text text-anchor="start" x="465" y="-223.7" font-family="Times,serif" font-size="14.00">FrameAtDetector</text>
<text text-anchor="start" x="466.12" y="-212.55" font-family="Times,serif" font-size="11.00">via:</text>
<text text-anchor="start" x="486.38" y="-212.55" font-family="Times,serif" font-style="italic" font-size="11.00">frame_at_detector</text>
</g>
<!-- ChopperCascadeFrames&#45;&gt;FrameAtDetector -->
<g id="edge7" class="edge">
<title>ChopperCascadeFrames&#45;&gt;FrameAtDetector</title>
<path fill="none" stroke="black" d="M627.2,-275.62C609.71,-266.68 587.64,-255.39 568.69,-245.69"/>
<polygon fill="black" stroke="black" points="570.37,-242.62 559.87,-241.19 567.18,-248.86 570.37,-242.62"/>
</g>
<!-- SourceTimeRange -->
<g id="node3" class="node">
<title>SourceTimeRange</title>
<polygon fill="none" stroke="red" stroke-dasharray="5,2" points="609.12,-370.25 463.38,-370.25 463.38,-345 609.12,-345 609.12,-370.25"/>
<text text-anchor="middle" x="536.25" y="-352.95" font-family="Times,serif" font-size="14.00" fill="red">SourceTimeRange</text>
</g>
<!-- SourceTimeRange&#45;&gt;ChopperCascadeFrames -->
<g id="edge2" class="edge">
<title>SourceTimeRange&#45;&gt;ChopperCascadeFrames</title>
<path fill="none" stroke="black" d="M559.48,-344.6C575.89,-336.11 598.31,-324.51 617.64,-314.51"/>
<polygon fill="black" stroke="black" points="619.1,-317.7 626.37,-309.99 615.88,-311.48 619.1,-317.7"/>
</g>
<!-- Choppers -->
<g id="node4" class="node">
<title>Choppers</title>
<polygon fill="none" stroke="red" stroke-dasharray="5,2" points="700.38,-370.25 616.12,-370.25 616.12,-345 700.38,-345 700.38,-370.25"/>
<text text-anchor="middle" x="658.25" y="-352.95" font-family="Times,serif" font-size="14.00" fill="red">Choppers</text>
</g>
<!-- Choppers&#45;&gt;ChopperCascadeFrames -->
<g id="edge3" class="edge">
<title>Choppers&#45;&gt;ChopperCascadeFrames</title>
<path fill="none" stroke="black" d="M658.25,-344.75C658.25,-337.95 658.25,-329.13 658.25,-320.72"/>
<polygon fill="black" stroke="black" points="661.75,-320.89 658.25,-310.89 654.75,-320.89 661.75,-320.89"/>
</g>
<!-- FrameWrappedTimeOffset -->
<g id="node5" class="node">
<title>FrameWrappedTimeOffset</title>
<polygon fill="none" stroke="black" points="380.5,-171 102,-171 102,-138 380.5,-138 380.5,-171"/>
<text text-anchor="start" x="147.12" y="-154.7" font-family="Times,serif" font-size="14.00">FrameWrappedTimeOffset</text>
<text text-anchor="start" x="110" y="-143.55" font-family="Times,serif" font-size="11.00">via:</text>
<text text-anchor="start" x="130.25" y="-143.55" font-family="Times,serif" font-style="italic" font-size="11.00">frame_wrapped_time_offset_pulse_skipping</text>
</g>
<!-- DeltaFromWrapped -->
<g id="node6" class="node">
<title>DeltaFromWrapped</title>
<polygon fill="none" stroke="black" points="394.38,-102 238.12,-102 238.12,-69 394.38,-69 394.38,-102"/>
<text text-anchor="start" x="246.12" y="-85.7" font-family="Times,serif" font-size="14.00">DeltaFromWrapped</text>
<text text-anchor="start" x="247.62" y="-74.55" font-family="Times,serif" font-size="11.00">via:</text>
<text text-anchor="start" x="267.88" y="-74.55" font-family="Times,serif" font-style="italic" font-size="11.00">offset_from_wrapped</text>
</g>
<!-- FrameWrappedTimeOffset&#45;&gt;DeltaFromWrapped -->
<g id="edge4" class="edge">
<title>FrameWrappedTimeOffset&#45;&gt;DeltaFromWrapped</title>
<path fill="none" stroke="black" d="M259.02,-137.62C268.2,-129.42 279.59,-119.25 289.78,-110.15"/>
<polygon fill="black" stroke="black" points="292.09,-112.78 297.21,-103.5 287.43,-107.56 292.09,-112.78"/>
</g>
<!-- UnwrappedData -->
<g id="node17" class="node">
<title>UnwrappedData</title>
<polygon fill="none" stroke="black" points="186.75,-33 53.75,-33 53.75,0 186.75,0 186.75,-33"/>
<text text-anchor="start" x="61.75" y="-16.7" font-family="Times,serif" font-size="14.00">UnwrappedData</text>
<text text-anchor="start" x="74.12" y="-5.55" font-family="Times,serif" font-size="11.00">via:</text>
<text text-anchor="start" x="94.38" y="-5.55" font-family="Times,serif" font-style="italic" font-size="11.00">unwrap_data</text>
</g>
<!-- DeltaFromWrapped&#45;&gt;UnwrappedData -->
<g id="edge20" class="edge">
<title>DeltaFromWrapped&#45;&gt;UnwrappedData</title>
<path fill="none" stroke="black" d="M269.8,-68.62C242.18,-59.18 206.91,-47.12 177.56,-37.09"/>
<polygon fill="black" stroke="black" points="179.07,-33.91 168.48,-33.99 176.81,-40.53 179.07,-33.91"/>
</g>
<!-- FrameBounds -->
<g id="node7" class="node">
<title>FrameBounds</title>
<polygon fill="none" stroke="black" points="550.12,-171 434.38,-171 434.38,-138 550.12,-138 550.12,-171"/>
<text text-anchor="start" x="442.38" y="-154.7" font-family="Times,serif" font-size="14.00">FrameBounds</text>
<text text-anchor="start" x="443.12" y="-143.55" font-family="Times,serif" font-size="11.00">via:</text>
<text text-anchor="start" x="463.38" y="-143.55" font-family="Times,serif" font-style="italic" font-size="11.00">frame_bounds</text>
</g>
<!-- FrameBounds&#45;&gt;DeltaFromWrapped -->
<g id="edge5" class="edge">
<title>FrameBounds&#45;&gt;DeltaFromWrapped</title>
<path fill="none" stroke="black" d="M450.54,-137.62C426.06,-128.3 394.9,-116.44 368.76,-106.49"/>
<polygon fill="black" stroke="black" points="370.28,-103.32 359.68,-103.03 367.79,-109.86 370.28,-103.32"/>
</g>
<!-- FramePeriod -->
<g id="node8" class="node">
<title>FramePeriod</title>
<polygon fill="none" stroke="black" points="446.5,-240 336,-240 336,-207 446.5,-207 446.5,-240"/>
<text text-anchor="start" x="345.12" y="-223.7" font-family="Times,serif" font-size="14.00">FramePeriod</text>
<text text-anchor="start" x="344" y="-212.55" font-family="Times,serif" font-size="11.00">via:</text>
<text text-anchor="start" x="364.25" y="-212.55" font-family="Times,serif" font-style="italic" font-size="11.00">frame_period</text>
</g>
<!-- FramePeriod&#45;&gt;DeltaFromWrapped -->
<g id="edge6" class="edge">
<title>FramePeriod&#45;&gt;DeltaFromWrapped</title>
<path fill="none" stroke="black" d="M393.34,-206.77C394.93,-188.93 395.15,-159.54 383.25,-138 376.88,-126.48 366.75,-116.71 356.27,-108.88"/>
<polygon fill="black" stroke="black" points="358.52,-106.18 348.3,-103.36 354.53,-111.93 358.52,-106.18"/>
</g>
<!-- FrameAtDetector&#45;&gt;FrameBounds -->
<g id="edge9" class="edge">
<title>FrameAtDetector&#45;&gt;FrameBounds</title>
<path fill="none" stroke="black" d="M518.96,-206.62C514.99,-199.03 510.14,-189.75 505.67,-181.19"/>
<polygon fill="black" stroke="black" points="508.92,-179.85 501.19,-172.61 502.71,-183.09 508.92,-179.85"/>
</g>
<!-- Ltotal -->
<g id="node10" class="node">
<title>Ltotal</title>
<polygon fill="none" stroke="red" stroke-dasharray="5,2" points="556.25,-305.12 498.25,-305.12 498.25,-279.88 556.25,-279.88 556.25,-305.12"/>
<text text-anchor="middle" x="527.25" y="-287.82" font-family="Times,serif" font-size="14.00" fill="red">Ltotal</text>
</g>
<!-- Ltotal&#45;&gt;FrameAtDetector -->
<g id="edge8" class="edge">
<title>Ltotal&#45;&gt;FrameAtDetector</title>
<path fill="none" stroke="black" d="M527.25,-279.52C527.25,-271.71 527.25,-261.19 527.25,-251.43"/>
<polygon fill="black" stroke="black" points="530.75,-251.67 527.25,-241.67 523.75,-251.67 530.75,-251.67"/>
</g>
<!-- PulsePeriod -->
<g id="node11" class="node">
<title>PulsePeriod</title>
<polygon fill="none" stroke="red" stroke-dasharray="5,2" points="491.62,-305.12 390.88,-305.12 390.88,-279.88 491.62,-279.88 491.62,-305.12"/>
<text text-anchor="middle" x="441.25" y="-287.82" font-family="Times,serif" font-size="14.00" fill="red">PulsePeriod</text>
</g>
<!-- PulsePeriod&#45;&gt;FramePeriod -->
<g id="edge10" class="edge">
<title>PulsePeriod&#45;&gt;FramePeriod</title>
<path fill="none" stroke="black" d="M432.31,-279.52C426.03,-271.11 417.41,-259.55 409.68,-249.2"/>
<polygon fill="black" stroke="black" points="412.63,-247.29 403.84,-241.37 407.02,-251.48 412.63,-247.29"/>
</g>
<!-- PulseOffset -->
<g id="node14" class="node">
<title>PulseOffset</title>
<polygon fill="none" stroke="black" points="322.75,-240 219.75,-240 219.75,-207 322.75,-207 322.75,-240"/>
<text text-anchor="start" x="230.38" y="-223.7" font-family="Times,serif" font-size="14.00">PulseOffset</text>
<text text-anchor="start" x="227.75" y="-212.55" font-family="Times,serif" font-size="11.00">via:</text>
<text text-anchor="start" x="248" y="-212.55" font-family="Times,serif" font-style="italic" font-size="11.00">pulse_offset</text>
</g>
<!-- PulsePeriod&#45;&gt;PulseOffset -->
<g id="edge14" class="edge">
<title>PulsePeriod&#45;&gt;PulseOffset</title>
<path fill="none" stroke="black" d="M410.86,-279.52C386.19,-269.8 350.88,-255.89 321.95,-244.48"/>
<polygon fill="black" stroke="black" points="323.6,-241.37 313.02,-240.96 321.04,-247.88 323.6,-241.37"/>
</g>
<!-- Union[PulseStride, NoneType] -->
<g id="node12" class="node">
<title>Union[PulseStride, NoneType]</title>
<polygon fill="none" stroke="red" stroke-dasharray="5,2" points="384,-305.12 150.5,-305.12 150.5,-279.88 384,-279.88 384,-305.12"/>
<text text-anchor="middle" x="267.25" y="-287.82" font-family="Times,serif" font-size="14.00" fill="red">Union[PulseStride, NoneType]</text>
</g>
<!-- Union[PulseStride, NoneType]&#45;&gt;FramePeriod -->
<g id="edge11" class="edge">
<title>Union[PulseStride, NoneType]&#45;&gt;FramePeriod</title>
<path fill="none" stroke="black" d="M289.42,-279.52C306.7,-270.18 331.14,-256.98 351.75,-245.84"/>
<polygon fill="black" stroke="black" points="353.35,-248.96 360.48,-241.13 350.02,-242.8 353.35,-248.96"/>
</g>
<!-- Union[PulseStride, NoneType]&#45;&gt;PulseOffset -->
<g id="edge15" class="edge">
<title>Union[PulseStride, NoneType]&#45;&gt;PulseOffset</title>
<path fill="none" stroke="black" d="M267.97,-279.52C268.43,-271.71 269.06,-261.19 269.64,-251.43"/>
<polygon fill="black" stroke="black" points="273.12,-251.86 270.22,-241.67 266.14,-251.44 273.12,-251.86"/>
</g>
<!-- PulseWrappedTimeOffset -->
<g id="node13" class="node">
<title>PulseWrappedTimeOffset</title>
<polygon fill="none" stroke="black" points="212.62,-240 15.88,-240 15.88,-207 212.62,-207 212.62,-240"/>
<text text-anchor="start" x="23.88" y="-223.7" font-family="Times,serif" font-size="14.00">PulseWrappedTimeOffset</text>
<text text-anchor="start" x="28.38" y="-212.55" font-family="Times,serif" font-size="11.00">via:</text>
<text text-anchor="start" x="48.62" y="-212.55" font-family="Times,serif" font-style="italic" font-size="11.00">pulse_wrapped_time_offset</text>
</g>
<!-- PulseWrappedTimeOffset&#45;&gt;FrameWrappedTimeOffset -->
<g id="edge12" class="edge">
<title>PulseWrappedTimeOffset&#45;&gt;FrameWrappedTimeOffset</title>
<path fill="none" stroke="black" d="M144.35,-206.62C161.23,-197.72 182.51,-186.49 200.82,-176.83"/>
<polygon fill="black" stroke="black" points="202.38,-179.96 209.59,-172.2 199.11,-173.77 202.38,-179.96"/>
</g>
<!-- PulseOffset&#45;&gt;FrameWrappedTimeOffset -->
<g id="edge13" class="edge">
<title>PulseOffset&#45;&gt;FrameWrappedTimeOffset</title>
<path fill="none" stroke="black" d="M264.14,-206.62C260.82,-199.2 256.77,-190.15 253,-181.75"/>
<polygon fill="black" stroke="black" points="256.21,-180.34 248.93,-172.65 249.82,-183.2 256.21,-180.34"/>
</g>
<!-- TimeZero -->
<g id="node15" class="node">
<title>TimeZero</title>
<polygon fill="none" stroke="black" points="143.12,-309 51.38,-309 51.38,-276 143.12,-276 143.12,-309"/>
<text text-anchor="start" x="63.12" y="-292.7" font-family="Times,serif" font-size="14.00">TimeZero</text>
<text text-anchor="start" x="59.38" y="-281.55" font-family="Times,serif" font-size="11.00">via:</text>
<text text-anchor="start" x="79.62" y="-281.55" font-family="Times,serif" font-style="italic" font-size="11.00">time_zero</text>
</g>
<!-- TimeZero&#45;&gt;PulseOffset -->
<g id="edge16" class="edge">
<title>TimeZero&#45;&gt;PulseOffset</title>
<path fill="none" stroke="black" d="M138.49,-275.62C162.58,-266.34 193.22,-254.55 218.99,-244.62"/>
<polygon fill="black" stroke="black" points="220.22,-247.9 228.29,-241.04 217.71,-241.37 220.22,-247.9"/>
</g>
<!-- RawData -->
<g id="node16" class="node">
<title>RawData</title>
<polygon fill="none" stroke="red" stroke-dasharray="5,2" points="80.5,-370.25 0,-370.25 0,-345 80.5,-345 80.5,-370.25"/>
<text text-anchor="middle" x="40.25" y="-352.95" font-family="Times,serif" font-size="14.00" fill="red">RawData</text>
</g>
<!-- RawData&#45;&gt;PulseWrappedTimeOffset -->
<g id="edge17" class="edge">
<title>RawData&#45;&gt;PulseWrappedTimeOffset</title>
<path fill="none" stroke="black" d="M38.63,-344.56C37.01,-328 36.24,-297.81 48.25,-276 54.6,-264.48 64.7,-254.67 75.12,-246.8"/>
<polygon fill="black" stroke="black" points="76.84,-249.86 83.02,-241.26 72.83,-244.13 76.84,-249.86"/>
</g>
<!-- RawData&#45;&gt;TimeZero -->
<g id="edge18" class="edge">
<title>RawData&#45;&gt;TimeZero</title>
<path fill="none" stroke="black" d="M50.97,-344.75C57.81,-337.17 66.93,-327.07 75.27,-317.84"/>
<polygon fill="black" stroke="black" points="77.8,-320.26 81.9,-310.5 72.6,-315.57 77.8,-320.26"/>
</g>
<!-- RawData&#45;&gt;UnwrappedData -->
<g id="edge19" class="edge">
<title>RawData&#45;&gt;UnwrappedData</title>
<path fill="none" stroke="black" d="M34.78,-344.52C24.94,-321.6 5.25,-270.06 5.25,-224.5 5.25,-224.5 5.25,-224.5 5.25,-153.5 5.25,-104.04 50.15,-63.29 83.84,-39.68"/>
<polygon fill="black" stroke="black" points="85.42,-42.83 91.74,-34.33 81.5,-37.03 85.42,-42.83"/>
</g>
</g>
</svg>
