<?xml version="1.0" encoding="utf-8" standalone="no"?>
<!DOCTYPE svg PUBLIC "-//W3C//DTD SVG 1.1//EN"
  "http://www.w3.org/Graphics/SVG/1.1/DTD/svg11.dtd">
<svg xmlns:xlink="http://www.w3.org/1999/xlink" width="388.965625pt" height="266.51625pt" viewBox="0 0 388.965625 266.51625" xmlns="http://www.w3.org/2000/svg" version="1.1">
 <metadata>
  <rdf:RDF xmlns:dc="http://purl.org/dc/elements/1.1/" xmlns:cc="http://creativecommons.org/ns#" xmlns:rdf="http://www.w3.org/1999/02/22-rdf-syntax-ns#">
   <cc:Work>
    <dc:type rdf:resource="http://purl.org/dc/dcmitype/StillImage"/>
    <dc:date>2024-12-12T12:30:59.753919</dc:date>
    <dc:format>image/svg+xml</dc:format>
    <dc:creator>
     <cc:Agent>
      <dc:title>Matplotlib v3.7.3, https://matplotlib.org/</dc:title>
     </cc:Agent>
    </dc:creator>
   </cc:Work>
  </rdf:RDF>
 </metadata>
 <defs>
  <style type="text/css">*{stroke-linejoin: round; stroke-linecap: butt}</style>
 </defs>
 <g id="figure_1">
  <g id="patch_1">
   <path d="M 0 266.51625 
L 388.965625 266.51625 
L 388.965625 0 
L 0 0 
z
" style="fill: #ffffff"/>
  </g>
  <g id="axes_1">
   <g id="patch_2">
    <path d="M 46.965625 228.96 
L 381.765625 228.96 
L 381.765625 7.2 
L 46.965625 7.2 
z
" style="fill: #ffffff"/>
   </g>
   <g id="matplotlib.axis_1">
    <g id="xtick_1">
     <g id="line2d_1">
      <defs>
       <path id="m1d13032028" d="M 0 0 
L 0 3.5 
" style="stroke: #000000; stroke-width: 0.8"/>
      </defs>
      <g>
       <use xlink:href="#m1d13032028" x="78.203647" y="228.96" style="stroke: #000000; stroke-width: 0.8"/>
      </g>
     </g>
     <g id="text_1">
      <!-- 50000 -->
      <g transform="translate(62.297397 243.558437) scale(0.1 -0.1)">
       <defs>
        <path id="DejaVuSans-35" d="M 691 4666 
L 3169 4666 
L 3169 4134 
L 1269 4134 
L 1269 2991 
Q 1406 3038 1543 3061 
Q 1681 3084 1819 3084 
Q 2600 3084 3056 2656 
Q 3513 2228 3513 1497 
Q 3513 744 3044 326 
Q 2575 -91 1722 -91 
Q 1428 -91 1123 -41 
Q 819 9 494 109 
L 494 744 
Q 775 591 1075 516 
Q 1375 441 1709 441 
Q 2250 441 2565 725 
Q 2881 1009 2881 1497 
Q 2881 1984 2565 2268 
Q 2250 2553 1709 2553 
Q 1456 2553 1204 2497 
Q 953 2441 691 2322 
L 691 4666 
z
" transform="scale(0.015625)"/>
        <path id="DejaVuSans-30" d="M 2034 4250 
Q 1547 4250 1301 3770 
Q 1056 3291 1056 2328 
Q 1056 1369 1301 889 
Q 1547 409 2034 409 
Q 2525 409 2770 889 
Q 3016 1369 3016 2328 
Q 3016 3291 2770 3770 
Q 2525 4250 2034 4250 
z
M 2034 4750 
Q 2819 4750 3233 4129 
Q 3647 3509 3647 2328 
Q 3647 1150 3233 529 
Q 2819 -91 2034 -91 
Q 1250 -91 836 529 
Q 422 1150 422 2328 
Q 422 3509 836 4129 
Q 1250 4750 2034 4750 
z
" transform="scale(0.015625)"/>
       </defs>
       <use xlink:href="#DejaVuSans-35"/>
       <use xlink:href="#DejaVuSans-30" x="63.623047"/>
       <use xlink:href="#DejaVuSans-30" x="127.246094"/>
       <use xlink:href="#DejaVuSans-30" x="190.869141"/>
       <use xlink:href="#DejaVuSans-30" x="254.492188"/>
      </g>
     </g>
    </g>
    <g id="xtick_2">
     <g id="line2d_2">
      <g>
       <use xlink:href="#m1d13032028" x="118.424611" y="228.96" style="stroke: #000000; stroke-width: 0.8"/>
      </g>
     </g>
     <g id="text_2">
      <!-- 75000 -->
      <g transform="translate(102.518361 243.558437) scale(0.1 -0.1)">
       <defs>
        <path id="DejaVuSans-37" d="M 525 4666 
L 3525 4666 
L 3525 4397 
L 1831 0 
L 1172 0 
L 2766 4134 
L 525 4134 
L 525 4666 
z
" transform="scale(0.015625)"/>
       </defs>
       <use xlink:href="#DejaVuSans-37"/>
       <use xlink:href="#DejaVuSans-35" x="63.623047"/>
       <use xlink:href="#DejaVuSans-30" x="127.246094"/>
       <use xlink:href="#DejaVuSans-30" x="190.869141"/>
       <use xlink:href="#DejaVuSans-30" x="254.492188"/>
      </g>
     </g>
    </g>
    <g id="xtick_3">
     <g id="line2d_3">
      <g>
       <use xlink:href="#m1d13032028" x="158.645575" y="228.96" style="stroke: #000000; stroke-width: 0.8"/>
      </g>
     </g>
     <g id="text_3">
      <!-- 100000 -->
      <g transform="translate(139.558075 243.558437) scale(0.1 -0.1)">
       <defs>
        <path id="DejaVuSans-31" d="M 794 531 
L 1825 531 
L 1825 4091 
L 703 3866 
L 703 4441 
L 1819 4666 
L 2450 4666 
L 2450 531 
L 3481 531 
L 3481 0 
L 794 0 
L 794 531 
z
" transform="scale(0.015625)"/>
       </defs>
       <use xlink:href="#DejaVuSans-31"/>
       <use xlink:href="#DejaVuSans-30" x="63.623047"/>
       <use xlink:href="#DejaVuSans-30" x="127.246094"/>
       <use xlink:href="#DejaVuSans-30" x="190.869141"/>
       <use xlink:href="#DejaVuSans-30" x="254.492188"/>
       <use xlink:href="#DejaVuSans-30" x="318.115234"/>
      </g>
     </g>
    </g>
    <g id="xtick_4">
     <g id="line2d_4">
      <g>
       <use xlink:href="#m1d13032028" x="198.866539" y="228.96" style="stroke: #000000; stroke-width: 0.8"/>
      </g>
     </g>
     <g id="text_4">
      <!-- 125000 -->
      <g transform="translate(179.779039 243.558437) scale(0.1 -0.1)">
       <defs>
        <path id="DejaVuSans-32" d="M 1228 531 
L 3431 531 
L 3431 0 
L 469 0 
L 469 531 
Q 828 903 1448 1529 
Q 2069 2156 2228 2338 
Q 2531 2678 2651 2914 
Q 2772 3150 2772 3378 
Q 2772 3750 2511 3984 
Q 2250 4219 1831 4219 
Q 1534 4219 1204 4116 
Q 875 4013 500 3803 
L 500 4441 
Q 881 4594 1212 4672 
Q 1544 4750 1819 4750 
Q 2544 4750 2975 4387 
Q 3406 4025 3406 3419 
Q 3406 3131 3298 2873 
Q 3191 2616 2906 2266 
Q 2828 2175 2409 1742 
Q 1991 1309 1228 531 
z
" transform="scale(0.015625)"/>
       </defs>
       <use xlink:href="#DejaVuSans-31"/>
       <use xlink:href="#DejaVuSans-32" x="63.623047"/>
       <use xlink:href="#DejaVuSans-35" x="127.246094"/>
       <use xlink:href="#DejaVuSans-30" x="190.869141"/>
       <use xlink:href="#DejaVuSans-30" x="254.492188"/>
       <use xlink:href="#DejaVuSans-30" x="318.115234"/>
      </g>
     </g>
    </g>
    <g id="xtick_5">
     <g id="line2d_5">
      <g>
       <use xlink:href="#m1d13032028" x="239.087503" y="228.96" style="stroke: #000000; stroke-width: 0.8"/>
      </g>
     </g>
     <g id="text_5">
      <!-- 150000 -->
      <g transform="translate(220.000003 243.558437) scale(0.1 -0.1)">
       <use xlink:href="#DejaVuSans-31"/>
       <use xlink:href="#DejaVuSans-35" x="63.623047"/>
       <use xlink:href="#DejaVuSans-30" x="127.246094"/>
       <use xlink:href="#DejaVuSans-30" x="190.869141"/>
       <use xlink:href="#DejaVuSans-30" x="254.492188"/>
       <use xlink:href="#DejaVuSans-30" x="318.115234"/>
      </g>
     </g>
    </g>
    <g id="xtick_6">
     <g id="line2d_6">
      <g>
       <use xlink:href="#m1d13032028" x="279.308467" y="228.96" style="stroke: #000000; stroke-width: 0.8"/>
      </g>
     </g>
     <g id="text_6">
      <!-- 175000 -->
      <g transform="translate(260.220967 243.558437) scale(0.1 -0.1)">
       <use xlink:href="#DejaVuSans-31"/>
       <use xlink:href="#DejaVuSans-37" x="63.623047"/>
       <use xlink:href="#DejaVuSans-35" x="127.246094"/>
       <use xlink:href="#DejaVuSans-30" x="190.869141"/>
       <use xlink:href="#DejaVuSans-30" x="254.492188"/>
       <use xlink:href="#DejaVuSans-30" x="318.115234"/>
      </g>
     </g>
    </g>
    <g id="xtick_7">
     <g id="line2d_7">
      <g>
       <use xlink:href="#m1d13032028" x="319.529431" y="228.96" style="stroke: #000000; stroke-width: 0.8"/>
      </g>
     </g>
     <g id="text_7">
      <!-- 200000 -->
      <g transform="translate(300.441931 243.558437) scale(0.1 -0.1)">
       <use xlink:href="#DejaVuSans-32"/>
       <use xlink:href="#DejaVuSans-30" x="63.623047"/>
       <use xlink:href="#DejaVuSans-30" x="127.246094"/>
       <use xlink:href="#DejaVuSans-30" x="190.869141"/>
       <use xlink:href="#DejaVuSans-30" x="254.492188"/>
       <use xlink:href="#DejaVuSans-30" x="318.115234"/>
      </g>
     </g>
    </g>
    <g id="xtick_8">
     <g id="line2d_8">
      <g>
       <use xlink:href="#m1d13032028" x="359.750396" y="228.96" style="stroke: #000000; stroke-width: 0.8"/>
      </g>
     </g>
     <g id="text_8">
      <!-- 225000 -->
      <g transform="translate(340.662896 243.558437) scale(0.1 -0.1)">
       <use xlink:href="#DejaVuSans-32"/>
       <use xlink:href="#DejaVuSans-32" x="63.623047"/>
       <use xlink:href="#DejaVuSans-35" x="127.246094"/>
       <use xlink:href="#DejaVuSans-30" x="190.869141"/>
       <use xlink:href="#DejaVuSans-30" x="254.492188"/>
       <use xlink:href="#DejaVuSans-30" x="318.115234"/>
      </g>
     </g>
    </g>
    <g id="text_9">
     <!-- tof [µs] -->
     <g transform="translate(196.309375 257.236562) scale(0.1 -0.1)">
      <defs>
       <path id="DejaVuSans-74" d="M 1172 4494 
L 1172 3500 
L 2356 3500 
L 2356 3053 
L 1172 3053 
L 1172 1153 
Q 1172 725 1289 603 
Q 1406 481 1766 481 
L 2356 481 
L 2356 0 
L 1766 0 
Q 1100 0 847 248 
Q 594 497 594 1153 
L 594 3053 
L 172 3053 
L 172 3500 
L 594 3500 
L 594 4494 
L 1172 4494 
z
" transform="scale(0.015625)"/>
       <path id="DejaVuSans-6f" d="M 1959 3097 
Q 1497 3097 1228 2736 
Q 959 2375 959 1747 
Q 959 1119 1226 758 
Q 1494 397 1959 397 
Q 2419 397 2687 759 
Q 2956 1122 2956 1747 
Q 2956 2369 2687 2733 
Q 2419 3097 1959 3097 
z
M 1959 3584 
Q 2709 3584 3137 3096 
Q 3566 2609 3566 1747 
Q 3566 888 3137 398 
Q 2709 -91 1959 -91 
Q 1206 -91 779 398 
Q 353 888 353 1747 
Q 353 2609 779 3096 
Q 1206 3584 1959 3584 
z
" transform="scale(0.015625)"/>
       <path id="DejaVuSans-66" d="M 2375 4863 
L 2375 4384 
L 1825 4384 
Q 1516 4384 1395 4259 
Q 1275 4134 1275 3809 
L 1275 3500 
L 2222 3500 
L 2222 3053 
L 1275 3053 
L 1275 0 
L 697 0 
L 697 3053 
L 147 3053 
L 147 3500 
L 697 3500 
L 697 3744 
Q 697 4328 969 4595 
Q 1241 4863 1831 4863 
L 2375 4863 
z
" transform="scale(0.015625)"/>
       <path id="DejaVuSans-20" transform="scale(0.015625)"/>
       <path id="DejaVuSans-5b" d="M 550 4863 
L 1875 4863 
L 1875 4416 
L 1125 4416 
L 1125 -397 
L 1875 -397 
L 1875 -844 
L 550 -844 
L 550 4863 
z
" transform="scale(0.015625)"/>
       <path id="DejaVuSans-b5" d="M 544 -1331 
L 544 3500 
L 1119 3500 
L 1119 1325 
Q 1119 872 1334 640 
Q 1550 409 1972 409 
Q 2434 409 2667 671 
Q 2900 934 2900 1459 
L 2900 3500 
L 3475 3500 
L 3475 806 
Q 3475 619 3529 530 
Q 3584 441 3700 441 
Q 3728 441 3778 458 
Q 3828 475 3916 513 
L 3916 50 
Q 3788 -22 3673 -56 
Q 3559 -91 3450 -91 
Q 3234 -91 3106 31 
Q 2978 153 2931 403 
Q 2775 156 2548 32 
Q 2322 -91 2016 -91 
Q 1697 -91 1473 31 
Q 1250 153 1119 397 
L 1119 -1331 
L 544 -1331 
z
" transform="scale(0.015625)"/>
       <path id="DejaVuSans-73" d="M 2834 3397 
L 2834 2853 
Q 2591 2978 2328 3040 
Q 2066 3103 1784 3103 
Q 1356 3103 1142 2972 
Q 928 2841 928 2578 
Q 928 2378 1081 2264 
Q 1234 2150 1697 2047 
L 1894 2003 
Q 2506 1872 2764 1633 
Q 3022 1394 3022 966 
Q 3022 478 2636 193 
Q 2250 -91 1575 -91 
Q 1294 -91 989 -36 
Q 684 19 347 128 
L 347 722 
Q 666 556 975 473 
Q 1284 391 1588 391 
Q 1994 391 2212 530 
Q 2431 669 2431 922 
Q 2431 1156 2273 1281 
Q 2116 1406 1581 1522 
L 1381 1569 
Q 847 1681 609 1914 
Q 372 2147 372 2553 
Q 372 3047 722 3315 
Q 1072 3584 1716 3584 
Q 2034 3584 2315 3537 
Q 2597 3491 2834 3397 
z
" transform="scale(0.015625)"/>
       <path id="DejaVuSans-5d" d="M 1947 4863 
L 1947 -844 
L 622 -844 
L 622 -397 
L 1369 -397 
L 1369 4416 
L 622 4416 
L 622 4863 
L 1947 4863 
z
" transform="scale(0.015625)"/>
      </defs>
      <use xlink:href="#DejaVuSans-74"/>
      <use xlink:href="#DejaVuSans-6f" x="39.208984"/>
      <use xlink:href="#DejaVuSans-66" x="100.390625"/>
      <use xlink:href="#DejaVuSans-20" x="135.595703"/>
      <use xlink:href="#DejaVuSans-5b" x="167.382812"/>
      <use xlink:href="#DejaVuSans-b5" x="206.396484"/>
      <use xlink:href="#DejaVuSans-73" x="270.019531"/>
      <use xlink:href="#DejaVuSans-5d" x="322.119141"/>
     </g>
    </g>
   </g>
   <g id="matplotlib.axis_2">
    <g id="ytick_1">
     <g id="line2d_9">
      <defs>
       <path id="m8fd4f53182" d="M 0 0 
L -3.5 0 
" style="stroke: #000000; stroke-width: 0.8"/>
      </defs>
      <g>
       <use xlink:href="#m8fd4f53182" x="46.965625" y="219.381493" style="stroke: #000000; stroke-width: 0.8"/>
      </g>
     </g>
     <g id="text_10">
      <!-- 0 -->
      <g transform="translate(33.603125 223.180711) scale(0.1 -0.1)">
       <use xlink:href="#DejaVuSans-30"/>
      </g>
     </g>
    </g>
    <g id="ytick_2">
     <g id="line2d_10">
      <g>
       <use xlink:href="#m8fd4f53182" x="46.965625" y="194.306866" style="stroke: #000000; stroke-width: 0.8"/>
      </g>
     </g>
     <g id="text_11">
      <!-- 50 -->
      <g transform="translate(27.240625 198.106084) scale(0.1 -0.1)">
       <use xlink:href="#DejaVuSans-35"/>
       <use xlink:href="#DejaVuSans-30" x="63.623047"/>
      </g>
     </g>
    </g>
    <g id="ytick_3">
     <g id="line2d_11">
      <g>
       <use xlink:href="#m8fd4f53182" x="46.965625" y="169.232239" style="stroke: #000000; stroke-width: 0.8"/>
      </g>
     </g>
     <g id="text_12">
      <!-- 100 -->
      <g transform="translate(20.878125 173.031458) scale(0.1 -0.1)">
       <use xlink:href="#DejaVuSans-31"/>
       <use xlink:href="#DejaVuSans-30" x="63.623047"/>
       <use xlink:href="#DejaVuSans-30" x="127.246094"/>
      </g>
     </g>
    </g>
    <g id="ytick_4">
     <g id="line2d_12">
      <g>
       <use xlink:href="#m8fd4f53182" x="46.965625" y="144.157612" style="stroke: #000000; stroke-width: 0.8"/>
      </g>
     </g>
     <g id="text_13">
      <!-- 150 -->
      <g transform="translate(20.878125 147.956831) scale(0.1 -0.1)">
       <use xlink:href="#DejaVuSans-31"/>
       <use xlink:href="#DejaVuSans-35" x="63.623047"/>
       <use xlink:href="#DejaVuSans-30" x="127.246094"/>
      </g>
     </g>
    </g>
    <g id="ytick_5">
     <g id="line2d_13">
      <g>
       <use xlink:href="#m8fd4f53182" x="46.965625" y="119.082985" style="stroke: #000000; stroke-width: 0.8"/>
      </g>
     </g>
     <g id="text_14">
      <!-- 200 -->
      <g transform="translate(20.878125 122.882204) scale(0.1 -0.1)">
       <use xlink:href="#DejaVuSans-32"/>
       <use xlink:href="#DejaVuSans-30" x="63.623047"/>
       <use xlink:href="#DejaVuSans-30" x="127.246094"/>
      </g>
     </g>
    </g>
    <g id="ytick_6">
     <g id="line2d_14">
      <g>
       <use xlink:href="#m8fd4f53182" x="46.965625" y="94.008358" style="stroke: #000000; stroke-width: 0.8"/>
      </g>
     </g>
     <g id="text_15">
      <!-- 250 -->
      <g transform="translate(20.878125 97.807577) scale(0.1 -0.1)">
       <use xlink:href="#DejaVuSans-32"/>
       <use xlink:href="#DejaVuSans-35" x="63.623047"/>
       <use xlink:href="#DejaVuSans-30" x="127.246094"/>
      </g>
     </g>
    </g>
    <g id="ytick_7">
     <g id="line2d_15">
      <g>
       <use xlink:href="#m8fd4f53182" x="46.965625" y="68.933731" style="stroke: #000000; stroke-width: 0.8"/>
      </g>
     </g>
     <g id="text_16">
      <!-- 300 -->
      <g transform="translate(20.878125 72.73295) scale(0.1 -0.1)">
       <defs>
        <path id="DejaVuSans-33" d="M 2597 2516 
Q 3050 2419 3304 2112 
Q 3559 1806 3559 1356 
Q 3559 666 3084 287 
Q 2609 -91 1734 -91 
Q 1441 -91 1130 -33 
Q 819 25 488 141 
L 488 750 
Q 750 597 1062 519 
Q 1375 441 1716 441 
Q 2309 441 2620 675 
Q 2931 909 2931 1356 
Q 2931 1769 2642 2001 
Q 2353 2234 1838 2234 
L 1294 2234 
L 1294 2753 
L 1863 2753 
Q 2328 2753 2575 2939 
Q 2822 3125 2822 3475 
Q 2822 3834 2567 4026 
Q 2313 4219 1838 4219 
Q 1578 4219 1281 4162 
Q 984 4106 628 3988 
L 628 4550 
Q 988 4650 1302 4700 
Q 1616 4750 1894 4750 
Q 2613 4750 3031 4423 
Q 3450 4097 3450 3541 
Q 3450 3153 3228 2886 
Q 3006 2619 2597 2516 
z
" transform="scale(0.015625)"/>
       </defs>
       <use xlink:href="#DejaVuSans-33"/>
       <use xlink:href="#DejaVuSans-30" x="63.623047"/>
       <use xlink:href="#DejaVuSans-30" x="127.246094"/>
      </g>
     </g>
    </g>
    <g id="ytick_8">
     <g id="line2d_16">
      <g>
       <use xlink:href="#m8fd4f53182" x="46.965625" y="43.859104" style="stroke: #000000; stroke-width: 0.8"/>
      </g>
     </g>
     <g id="text_17">
      <!-- 350 -->
      <g transform="translate(20.878125 47.658323) scale(0.1 -0.1)">
       <use xlink:href="#DejaVuSans-33"/>
       <use xlink:href="#DejaVuSans-35" x="63.623047"/>
       <use xlink:href="#DejaVuSans-30" x="127.246094"/>
      </g>
     </g>
    </g>
    <g id="ytick_9">
     <g id="line2d_17">
      <g>
       <use xlink:href="#m8fd4f53182" x="46.965625" y="18.784478" style="stroke: #000000; stroke-width: 0.8"/>
      </g>
     </g>
     <g id="text_18">
      <!-- 400 -->
      <g transform="translate(20.878125 22.583696) scale(0.1 -0.1)">
       <defs>
        <path id="DejaVuSans-34" d="M 2419 4116 
L 825 1625 
L 2419 1625 
L 2419 4116 
z
M 2253 4666 
L 3047 4666 
L 3047 1625 
L 3713 1625 
L 3713 1100 
L 3047 1100 
L 3047 0 
L 2419 0 
L 2419 1100 
L 313 1100 
L 313 1709 
L 2253 4666 
z
" transform="scale(0.015625)"/>
       </defs>
       <use xlink:href="#DejaVuSans-34"/>
       <use xlink:href="#DejaVuSans-30" x="63.623047"/>
       <use xlink:href="#DejaVuSans-30" x="127.246094"/>
      </g>
     </g>
    </g>
    <g id="text_19">
     <!-- [counts] -->
     <g transform="translate(14.798438 138.6925) rotate(-90) scale(0.1 -0.1)">
      <defs>
       <path id="DejaVuSans-63" d="M 3122 3366 
L 3122 2828 
Q 2878 2963 2633 3030 
Q 2388 3097 2138 3097 
Q 1578 3097 1268 2742 
Q 959 2388 959 1747 
Q 959 1106 1268 751 
Q 1578 397 2138 397 
Q 2388 397 2633 464 
Q 2878 531 3122 666 
L 3122 134 
Q 2881 22 2623 -34 
Q 2366 -91 2075 -91 
Q 1284 -91 818 406 
Q 353 903 353 1747 
Q 353 2603 823 3093 
Q 1294 3584 2113 3584 
Q 2378 3584 2631 3529 
Q 2884 3475 3122 3366 
z
" transform="scale(0.015625)"/>
       <path id="DejaVuSans-75" d="M 544 1381 
L 544 3500 
L 1119 3500 
L 1119 1403 
Q 1119 906 1312 657 
Q 1506 409 1894 409 
Q 2359 409 2629 706 
Q 2900 1003 2900 1516 
L 2900 3500 
L 3475 3500 
L 3475 0 
L 2900 0 
L 2900 538 
Q 2691 219 2414 64 
Q 2138 -91 1772 -91 
Q 1169 -91 856 284 
Q 544 659 544 1381 
z
M 1991 3584 
L 1991 3584 
z
" transform="scale(0.015625)"/>
       <path id="DejaVuSans-6e" d="M 3513 2113 
L 3513 0 
L 2938 0 
L 2938 2094 
Q 2938 2591 2744 2837 
Q 2550 3084 2163 3084 
Q 1697 3084 1428 2787 
Q 1159 2491 1159 1978 
L 1159 0 
L 581 0 
L 581 3500 
L 1159 3500 
L 1159 2956 
Q 1366 3272 1645 3428 
Q 1925 3584 2291 3584 
Q 2894 3584 3203 3211 
Q 3513 2838 3513 2113 
z
" transform="scale(0.015625)"/>
      </defs>
      <use xlink:href="#DejaVuSans-5b"/>
      <use xlink:href="#DejaVuSans-63" x="39.013672"/>
      <use xlink:href="#DejaVuSans-6f" x="93.994141"/>
      <use xlink:href="#DejaVuSans-75" x="155.175781"/>
      <use xlink:href="#DejaVuSans-6e" x="218.554688"/>
      <use xlink:href="#DejaVuSans-74" x="281.933594"/>
      <use xlink:href="#DejaVuSans-73" x="321.142578"/>
      <use xlink:href="#DejaVuSans-5d" x="373.242188"/>
     </g>
    </g>
   </g>
   <g id="patch_3">
    <path d="M 46.965625 228.96 
L 46.965625 7.2 
" style="fill: none; stroke: #000000; stroke-width: 0.8; stroke-linejoin: miter; stroke-linecap: square"/>
   </g>
   <g id="patch_4">
    <path d="M 381.765625 228.96 
L 381.765625 7.2 
" style="fill: none; stroke: #000000; stroke-width: 0.8; stroke-linejoin: miter; stroke-linecap: square"/>
   </g>
   <g id="patch_5">
    <path d="M 46.965625 228.96 
L 381.765625 228.96 
" style="fill: none; stroke: #000000; stroke-width: 0.8; stroke-linejoin: miter; stroke-linecap: square"/>
   </g>
   <g id="patch_6">
    <path d="M 46.965625 7.2 
L 381.765625 7.2 
" style="fill: none; stroke: #000000; stroke-width: 0.8; stroke-linejoin: miter; stroke-linecap: square"/>
   </g>
   <g id="legend_1">
    <g id="patch_7">
     <path d="M 300.542188 73.9125 
L 374.765625 73.9125 
Q 376.765625 73.9125 376.765625 71.9125 
L 376.765625 14.2 
Q 376.765625 12.2 374.765625 12.2 
L 300.542188 12.2 
Q 298.542188 12.2 298.542188 14.2 
L 298.542188 71.9125 
Q 298.542188 73.9125 300.542188 73.9125 
z
" style="fill: #ffffff; opacity: 0.8; stroke: #cccccc; stroke-linejoin: miter"/>
    </g>
    <g id="line2d_18">
     <path d="M 302.542188 20.298437 
L 302.542188 20.298437 
L 312.542188 20.298437 
L 312.542188 20.298437 
L 322.542188 20.298437 
" style="fill: none; stroke: #1f77b4; stroke-width: 1.5; stroke-linecap: square"/>
    </g>
    <g id="text_20">
     <!-- beam -->
     <g transform="translate(330.542188 23.798437) scale(0.1 -0.1)">
      <defs>
       <path id="DejaVuSans-62" d="M 3116 1747 
Q 3116 2381 2855 2742 
Q 2594 3103 2138 3103 
Q 1681 3103 1420 2742 
Q 1159 2381 1159 1747 
Q 1159 1113 1420 752 
Q 1681 391 2138 391 
Q 2594 391 2855 752 
Q 3116 1113 3116 1747 
z
M 1159 2969 
Q 1341 3281 1617 3432 
Q 1894 3584 2278 3584 
Q 2916 3584 3314 3078 
Q 3713 2572 3713 1747 
Q 3713 922 3314 415 
Q 2916 -91 2278 -91 
Q 1894 -91 1617 61 
Q 1341 213 1159 525 
L 1159 0 
L 581 0 
L 581 4863 
L 1159 4863 
L 1159 2969 
z
" transform="scale(0.015625)"/>
       <path id="DejaVuSans-65" d="M 3597 1894 
L 3597 1613 
L 953 1613 
Q 991 1019 1311 708 
Q 1631 397 2203 397 
Q 2534 397 2845 478 
Q 3156 559 3463 722 
L 3463 178 
Q 3153 47 2828 -22 
Q 2503 -91 2169 -91 
Q 1331 -91 842 396 
Q 353 884 353 1716 
Q 353 2575 817 3079 
Q 1281 3584 2069 3584 
Q 2775 3584 3186 3129 
Q 3597 2675 3597 1894 
z
M 3022 2063 
Q 3016 2534 2758 2815 
Q 2500 3097 2075 3097 
Q 1594 3097 1305 2825 
Q 1016 2553 972 2059 
L 3022 2063 
z
" transform="scale(0.015625)"/>
       <path id="DejaVuSans-61" d="M 2194 1759 
Q 1497 1759 1228 1600 
Q 959 1441 959 1056 
Q 959 750 1161 570 
Q 1363 391 1709 391 
Q 2188 391 2477 730 
Q 2766 1069 2766 1631 
L 2766 1759 
L 2194 1759 
z
M 3341 1997 
L 3341 0 
L 2766 0 
L 2766 531 
Q 2569 213 2275 61 
Q 1981 -91 1556 -91 
Q 1019 -91 701 211 
Q 384 513 384 1019 
Q 384 1609 779 1909 
Q 1175 2209 1959 2209 
L 2766 2209 
L 2766 2266 
Q 2766 2663 2505 2880 
Q 2244 3097 1772 3097 
Q 1472 3097 1187 3025 
Q 903 2953 641 2809 
L 641 3341 
Q 956 3463 1253 3523 
Q 1550 3584 1831 3584 
Q 2591 3584 2966 3190 
Q 3341 2797 3341 1997 
z
" transform="scale(0.015625)"/>
       <path id="DejaVuSans-6d" d="M 3328 2828 
Q 3544 3216 3844 3400 
Q 4144 3584 4550 3584 
Q 5097 3584 5394 3201 
Q 5691 2819 5691 2113 
L 5691 0 
L 5113 0 
L 5113 2094 
Q 5113 2597 4934 2840 
Q 4756 3084 4391 3084 
Q 3944 3084 3684 2787 
Q 3425 2491 3425 1978 
L 3425 0 
L 2847 0 
L 2847 2094 
Q 2847 2600 2669 2842 
Q 2491 3084 2119 3084 
Q 1678 3084 1418 2786 
Q 1159 2488 1159 1978 
L 1159 0 
L 581 0 
L 581 3500 
L 1159 3500 
L 1159 2956 
Q 1356 3278 1631 3431 
Q 1906 3584 2284 3584 
Q 2666 3584 2933 3390 
Q 3200 3197 3328 2828 
z
" transform="scale(0.015625)"/>
      </defs>
      <use xlink:href="#DejaVuSans-62"/>
      <use xlink:href="#DejaVuSans-65" x="63.476562"/>
      <use xlink:href="#DejaVuSans-61" x="125"/>
      <use xlink:href="#DejaVuSans-6d" x="186.279297"/>
     </g>
    </g>
    <g id="line2d_19">
     <path d="M 302.542188 34.976562 
L 302.542188 34.976562 
L 312.542188 34.976562 
L 312.542188 34.976562 
L 322.542188 34.976562 
" style="fill: none; stroke: #ff7f0e; stroke-width: 1.5; stroke-linecap: square"/>
    </g>
    <g id="text_21">
     <!-- sample -->
     <g transform="translate(330.542188 38.476562) scale(0.1 -0.1)">
      <defs>
       <path id="DejaVuSans-70" d="M 1159 525 
L 1159 -1331 
L 581 -1331 
L 581 3500 
L 1159 3500 
L 1159 2969 
Q 1341 3281 1617 3432 
Q 1894 3584 2278 3584 
Q 2916 3584 3314 3078 
Q 3713 2572 3713 1747 
Q 3713 922 3314 415 
Q 2916 -91 2278 -91 
Q 1894 -91 1617 61 
Q 1341 213 1159 525 
z
M 3116 1747 
Q 3116 2381 2855 2742 
Q 2594 3103 2138 3103 
Q 1681 3103 1420 2742 
Q 1159 2381 1159 1747 
Q 1159 1113 1420 752 
Q 1681 391 2138 391 
Q 2594 391 2855 752 
Q 3116 1113 3116 1747 
z
" transform="scale(0.015625)"/>
       <path id="DejaVuSans-6c" d="M 603 4863 
L 1178 4863 
L 1178 0 
L 603 0 
L 603 4863 
z
" transform="scale(0.015625)"/>
      </defs>
      <use xlink:href="#DejaVuSans-73"/>
      <use xlink:href="#DejaVuSans-61" x="52.099609"/>
      <use xlink:href="#DejaVuSans-6d" x="113.378906"/>
      <use xlink:href="#DejaVuSans-70" x="210.791016"/>
      <use xlink:href="#DejaVuSans-6c" x="274.267578"/>
      <use xlink:href="#DejaVuSans-65" x="302.050781"/>
     </g>
    </g>
    <g id="line2d_20">
     <path d="M 302.542188 49.654687 
L 302.542188 49.654687 
L 312.542188 49.654687 
L 312.542188 49.654687 
L 322.542188 49.654687 
" style="fill: none; stroke: #2ca02c; stroke-width: 1.5; stroke-linecap: square"/>
    </g>
    <g id="text_22">
     <!-- monitor -->
     <g transform="translate(330.542188 53.154687) scale(0.1 -0.1)">
      <defs>
       <path id="DejaVuSans-69" d="M 603 3500 
L 1178 3500 
L 1178 0 
L 603 0 
L 603 3500 
z
M 603 4863 
L 1178 4863 
L 1178 4134 
L 603 4134 
L 603 4863 
z
" transform="scale(0.015625)"/>
       <path id="DejaVuSans-72" d="M 2631 2963 
Q 2534 3019 2420 3045 
Q 2306 3072 2169 3072 
Q 1681 3072 1420 2755 
Q 1159 2438 1159 1844 
L 1159 0 
L 581 0 
L 581 3500 
L 1159 3500 
L 1159 2956 
Q 1341 3275 1631 3429 
Q 1922 3584 2338 3584 
Q 2397 3584 2469 3576 
Q 2541 3569 2628 3553 
L 2631 2963 
z
" transform="scale(0.015625)"/>
      </defs>
      <use xlink:href="#DejaVuSans-6d"/>
      <use xlink:href="#DejaVuSans-6f" x="97.412109"/>
      <use xlink:href="#DejaVuSans-6e" x="158.59375"/>
      <use xlink:href="#DejaVuSans-69" x="221.972656"/>
      <use xlink:href="#DejaVuSans-74" x="249.755859"/>
      <use xlink:href="#DejaVuSans-6f" x="288.964844"/>
      <use xlink:href="#DejaVuSans-72" x="350.146484"/>
     </g>
    </g>
    <g id="line2d_21">
     <path d="M 302.542188 64.332812 
L 302.542188 64.332812 
L 312.542188 64.332812 
L 312.542188 64.332812 
L 322.542188 64.332812 
" style="fill: none; stroke: #d62728; stroke-width: 1.5; stroke-linecap: square"/>
    </g>
    <g id="text_23">
     <!-- detector -->
     <g transform="translate(330.542188 67.832812) scale(0.1 -0.1)">
      <defs>
       <path id="DejaVuSans-64" d="M 2906 2969 
L 2906 4863 
L 3481 4863 
L 3481 0 
L 2906 0 
L 2906 525 
Q 2725 213 2448 61 
Q 2172 -91 1784 -91 
Q 1150 -91 751 415 
Q 353 922 353 1747 
Q 353 2572 751 3078 
Q 1150 3584 1784 3584 
Q 2172 3584 2448 3432 
Q 2725 3281 2906 2969 
z
M 947 1747 
Q 947 1113 1208 752 
Q 1469 391 1925 391 
Q 2381 391 2643 752 
Q 2906 1113 2906 1747 
Q 2906 2381 2643 2742 
Q 2381 3103 1925 3103 
Q 1469 3103 1208 2742 
Q 947 2381 947 1747 
z
" transform="scale(0.015625)"/>
      </defs>
      <use xlink:href="#DejaVuSans-64"/>
      <use xlink:href="#DejaVuSans-65" x="63.476562"/>
      <use xlink:href="#DejaVuSans-74" x="125"/>
      <use xlink:href="#DejaVuSans-65" x="164.208984"/>
      <use xlink:href="#DejaVuSans-63" x="225.732422"/>
      <use xlink:href="#DejaVuSans-74" x="280.712891"/>
      <use xlink:href="#DejaVuSans-6f" x="319.921875"/>
      <use xlink:href="#DejaVuSans-72" x="381.103516"/>
     </g>
    </g>
   </g>
   <g id="line2d_22">
    <path d="M 48.01137 217.375522 
L 48.01137 217.375522 
L 48.815789 217.375522 
L 48.815789 214.86806 
L 49.620209 214.86806 
L 49.620209 211.859104 
L 50.424628 211.859104 
L 50.424628 209.351642 
L 51.229047 209.351642 
L 51.229047 200.324776 
L 52.033466 200.324776 
L 52.033466 186.784478 
L 52.837886 186.784478 
L 52.837886 143.656119 
L 53.642305 143.656119 
L 53.642305 109.554627 
L 54.446724 109.554627 
L 54.446724 67.930746 
L 55.251144 67.930746 
L 55.251144 19.787463 
L 56.055563 19.787463 
L 56.055563 17.28 
L 56.859982 17.28 
L 56.859982 23.29791 
L 57.664401 23.29791 
L 57.664401 43.357612 
L 58.468821 43.357612 
L 58.468821 50.378507 
L 59.27324 50.378507 
L 59.27324 53.387463 
L 60.077659 53.387463 
L 60.077659 44.86209 
L 60.882079 44.86209 
L 60.882079 79.465075 
L 61.686498 79.465075 
L 61.686498 79.465075 
L 62.490917 79.465075 
L 62.490917 91.500896 
L 63.295336 91.500896 
L 63.295336 100.527761 
L 64.099756 100.527761 
L 64.099756 123.596418 
L 64.904175 123.596418 
L 64.904175 155.190448 
L 65.708594 155.190448 
L 65.708594 184.277015 
L 66.513014 184.277015 
L 66.513014 200.324776 
L 67.317433 200.324776 
L 67.317433 212.360597 
L 68.121852 212.360597 
L 68.121852 218.88 
L 68.926271 218.88 
" clip-path="url(#p7ed157180e)" style="fill: none; stroke: #1f77b4; stroke-width: 1.5; stroke-linecap: square"/>
   </g>
   <g id="line2d_23">
    <path d="M 149.530606 217.877015 
L 150.335025 217.877015 
L 150.335025 218.378507 
L 151.139444 218.378507 
L 151.139444 218.88 
L 151.943864 218.88 
L 151.943864 217.375522 
L 152.748283 217.375522 
L 152.748283 218.88 
L 153.552702 218.88 
L 153.552702 216.372537 
L 155.161541 216.372537 
L 155.161541 216.87403 
L 156.770379 216.87403 
L 156.770379 215.871045 
L 157.574799 215.871045 
L 157.574799 217.375522 
L 158.379218 217.375522 
L 158.379218 215.369552 
L 159.183637 215.369552 
L 159.183637 214.366567 
L 159.988057 214.366567 
L 159.988057 211.859104 
L 160.792476 211.859104 
L 160.792476 209.853134 
L 161.596895 209.853134 
L 161.596895 211.357612 
L 162.401314 211.357612 
L 162.401314 205.841194 
L 163.205734 205.841194 
L 163.205734 202.832239 
L 164.010153 202.832239 
L 164.010153 201.829254 
L 164.814572 201.829254 
L 164.814572 187.787463 
L 165.618992 187.787463 
L 165.618992 194.808358 
L 166.423411 194.808358 
L 166.423411 179.26209 
L 167.22783 179.26209 
L 167.22783 174.247164 
L 168.032249 174.247164 
L 168.032249 170.235224 
L 168.836669 170.235224 
L 168.836669 161.709851 
L 169.641088 161.709851 
L 169.641088 159.703881 
L 170.445507 159.703881 
L 170.445507 145.160597 
L 171.249927 145.160597 
L 171.249927 153.184478 
L 172.054346 153.184478 
L 172.054346 146.163582 
L 172.858765 146.163582 
L 172.858765 151.178507 
L 173.663184 151.178507 
L 173.663184 149.172537 
L 174.467604 149.172537 
L 174.467604 151.178507 
L 175.272023 151.178507 
L 175.272023 152.682985 
L 176.076442 152.682985 
L 176.076442 156.193433 
L 176.880861 156.193433 
L 176.880861 152.682985 
L 177.685281 152.682985 
L 177.685281 165.721791 
L 178.4897 165.721791 
L 178.4897 166.223284 
L 179.294119 166.223284 
L 179.294119 152.682985 
L 180.098539 152.682985 
L 180.098539 166.223284 
L 180.902958 166.223284 
L 180.902958 156.193433 
L 181.707377 156.193433 
L 181.707377 168.730746 
L 182.511796 168.730746 
L 182.511796 158.199403 
L 183.316216 158.199403 
L 183.316216 172.742687 
L 184.120635 172.742687 
L 184.120635 158.700896 
L 184.925054 158.700896 
L 184.925054 164.718806 
L 185.729474 164.718806 
L 185.729474 162.712836 
L 186.533893 162.712836 
L 186.533893 174.247164 
L 187.338312 174.247164 
L 187.338312 165.220299 
L 188.142731 165.220299 
L 188.142731 186.784478 
L 188.947151 186.784478 
L 188.947151 166.724776 
L 189.75157 166.724776 
L 189.75157 166.223284 
L 190.555989 166.223284 
L 190.555989 177.757612 
L 191.360409 177.757612 
L 191.360409 168.229254 
L 192.164828 168.229254 
L 192.164828 175.250149 
L 192.969247 175.250149 
L 192.969247 180.265075 
L 193.773666 180.265075 
L 193.773666 176.253134 
L 194.578086 176.253134 
L 194.578086 173.745672 
L 195.382505 173.745672 
L 195.382505 181.769552 
L 196.186924 181.769552 
L 196.186924 186.282985 
L 196.991344 186.282985 
L 196.991344 178.760597 
L 197.795763 178.760597 
L 197.795763 188.288955 
L 199.404601 188.288955 
L 199.404601 191.799403 
L 200.209021 191.799403 
L 200.209021 194.808358 
L 201.01344 194.808358 
L 201.01344 198.820299 
L 201.817859 198.820299 
L 201.817859 206.342687 
L 202.622279 206.342687 
L 202.622279 212.360597 
L 203.426698 212.360597 
L 203.426698 213.363582 
L 204.231117 213.363582 
L 204.231117 209.853134 
L 205.035536 209.853134 
L 205.035536 213.363582 
L 205.839956 213.363582 
L 205.839956 216.372537 
L 206.644375 216.372537 
L 206.644375 217.877015 
L 207.448794 217.877015 
L 207.448794 219.381493 
L 208.253214 219.381493 
L 208.253214 218.88 
L 209.057633 218.88 
L 209.057633 218.88 
" clip-path="url(#p7ed157180e)" style="fill: none; stroke: #ff7f0e; stroke-width: 1.5; stroke-linecap: square"/>
   </g>
   <g id="line2d_24">
    <path d="M 200.211475 217.877015 
L 201.015894 217.877015 
L 201.015894 218.88 
L 203.429152 218.88 
L 203.429152 217.375522 
L 204.233571 217.375522 
L 204.233571 219.381493 
L 205.037991 219.381493 
L 205.037991 218.378507 
L 205.84241 218.378507 
L 205.84241 216.87403 
L 206.646829 216.87403 
L 206.646829 217.877015 
L 207.451248 217.877015 
L 207.451248 216.87403 
L 208.255668 216.87403 
L 208.255668 216.372537 
L 209.060087 216.372537 
L 209.060087 218.378507 
L 209.864506 218.378507 
L 209.864506 216.372537 
L 210.668926 216.372537 
L 210.668926 217.877015 
L 211.473345 217.877015 
L 211.473345 218.378507 
L 212.277764 218.378507 
L 212.277764 214.366567 
L 213.082183 214.366567 
L 213.082183 215.871045 
L 214.691022 215.871045 
L 214.691022 211.859104 
L 215.495441 211.859104 
L 215.495441 212.360597 
L 217.10428 212.360597 
L 217.10428 213.363582 
L 217.908699 213.363582 
L 217.908699 205.339701 
L 218.713118 205.339701 
L 218.713118 206.844179 
L 219.517538 206.844179 
L 219.517538 208.348657 
L 220.321957 208.348657 
L 220.321957 200.826269 
L 221.126376 200.826269 
L 221.126376 195.309851 
L 221.930796 195.309851 
L 221.930796 199.321791 
L 222.735215 199.321791 
L 222.735215 193.303881 
L 223.539634 193.303881 
L 223.539634 179.26209 
L 224.344053 179.26209 
L 224.344053 185.781493 
L 225.148473 185.781493 
L 225.148473 183.27403 
L 225.952892 183.27403 
L 225.952892 176.754627 
L 226.757311 176.754627 
L 226.757311 175.751642 
L 227.56173 175.751642 
L 227.56173 172.241194 
L 228.36615 172.241194 
L 228.36615 162.712836 
L 229.170569 162.712836 
L 229.170569 170.736716 
L 229.974988 170.736716 
L 229.974988 162.712836 
L 230.779408 162.712836 
L 230.779408 166.724776 
L 231.583827 166.724776 
L 231.583827 167.727761 
L 232.388246 167.727761 
L 232.388246 164.217313 
L 233.192665 164.217313 
L 233.192665 174.247164 
L 233.997085 174.247164 
L 233.997085 164.217313 
L 234.801504 164.217313 
L 234.801504 171.739701 
L 235.605923 171.739701 
L 235.605923 171.238209 
L 236.410343 171.238209 
L 236.410343 171.739701 
L 237.214762 171.739701 
L 237.214762 166.724776 
L 238.019181 166.724776 
L 238.019181 180.766567 
L 238.8236 180.766567 
L 238.8236 179.26209 
L 239.62802 179.26209 
L 239.62802 169.232239 
L 240.432439 169.232239 
L 240.432439 171.739701 
L 241.236858 171.739701 
L 241.236858 186.282985 
L 242.041278 186.282985 
L 242.041278 171.739701 
L 242.845697 171.739701 
L 242.845697 177.757612 
L 243.650116 177.757612 
L 243.650116 178.259104 
L 244.454535 178.259104 
L 244.454535 175.751642 
L 245.258955 175.751642 
L 245.258955 182.271045 
L 246.063374 182.271045 
L 246.063374 177.757612 
L 246.867793 177.757612 
L 246.867793 176.754627 
L 247.672213 176.754627 
L 247.672213 177.256119 
L 248.476632 177.256119 
L 248.476632 178.760597 
L 249.281051 178.760597 
L 249.281051 181.26806 
L 250.08547 181.26806 
L 250.08547 180.265075 
L 250.88989 180.265075 
L 250.88989 182.772537 
L 251.694309 182.772537 
L 251.694309 195.811343 
L 252.498728 195.811343 
L 252.498728 184.778507 
L 253.303148 184.778507 
L 253.303148 178.760597 
L 254.107567 178.760597 
L 254.107567 180.265075 
L 254.911986 180.265075 
L 254.911986 186.784478 
L 255.716405 186.784478 
L 255.716405 179.26209 
L 256.520825 179.26209 
L 256.520825 185.781493 
L 257.325244 185.781493 
L 257.325244 188.790448 
L 258.934083 188.790448 
L 258.934083 186.784478 
L 259.738502 186.784478 
L 259.738502 188.790448 
L 260.542921 188.790448 
L 260.542921 187.787463 
L 261.34734 187.787463 
L 261.34734 188.288955 
L 262.15176 188.288955 
L 262.15176 190.796418 
L 262.956179 190.796418 
L 262.956179 194.808358 
L 263.760598 194.808358 
L 263.760598 188.790448 
L 264.565018 188.790448 
L 264.565018 196.814328 
L 265.369437 196.814328 
L 265.369437 196.312836 
L 266.173856 196.312836 
L 266.173856 195.811343 
L 266.978275 195.811343 
L 266.978275 199.823284 
L 268.587114 199.823284 
L 268.587114 203.333731 
L 269.391533 203.333731 
L 269.391533 207.847164 
L 270.195952 207.847164 
L 270.195952 209.351642 
L 271.000372 209.351642 
L 271.000372 214.366567 
L 271.804791 214.366567 
L 271.804791 214.86806 
L 272.60921 214.86806 
L 272.60921 210.354627 
L 273.41363 210.354627 
L 273.41363 215.369552 
L 274.218049 215.369552 
L 274.218049 214.86806 
L 275.022468 214.86806 
L 275.022468 216.87403 
L 275.826887 216.87403 
L 275.826887 217.877015 
L 276.631307 217.877015 
L 276.631307 218.378507 
L 277.435726 218.378507 
L 277.435726 219.381493 
L 278.240145 219.381493 
L 278.240145 218.88 
L 279.044565 218.88 
L 279.044565 218.88 
" clip-path="url(#p7ed157180e)" style="fill: none; stroke: #2ca02c; stroke-width: 1.5; stroke-linecap: square"/>
   </g>
   <g id="line2d_25">
    <path d="M 271.117753 217.877015 
L 271.922172 217.877015 
L 271.922172 219.381493 
L 272.726591 219.381493 
L 272.726591 218.378507 
L 273.53101 218.378507 
L 273.53101 219.381493 
L 274.33543 219.381493 
L 274.33543 218.88 
L 275.139849 218.88 
L 275.139849 218.378507 
L 276.748688 218.378507 
L 276.748688 219.381493 
L 278.357526 219.381493 
L 278.357526 216.87403 
L 279.161945 216.87403 
L 279.161945 217.877015 
L 279.966365 217.877015 
L 279.966365 218.378507 
L 280.770784 218.378507 
L 280.770784 217.375522 
L 281.575203 217.375522 
L 281.575203 217.877015 
L 282.379623 217.877015 
L 282.379623 216.87403 
L 283.184042 216.87403 
L 283.184042 218.88 
L 283.988461 218.88 
L 283.988461 216.87403 
L 284.79288 216.87403 
L 284.79288 218.378507 
L 287.206138 218.378507 
L 287.206138 215.871045 
L 288.010558 215.871045 
L 288.010558 217.877015 
L 288.814977 217.877015 
L 288.814977 215.871045 
L 289.619396 215.871045 
L 289.619396 216.372537 
L 290.423815 216.372537 
L 290.423815 215.369552 
L 291.228235 215.369552 
L 291.228235 212.86209 
L 292.032654 212.86209 
L 292.032654 214.86806 
L 292.837073 214.86806 
L 292.837073 215.369552 
L 293.641493 215.369552 
L 293.641493 215.871045 
L 294.445912 215.871045 
L 294.445912 211.859104 
L 295.250331 211.859104 
L 295.250331 207.345672 
L 296.05475 207.345672 
L 296.05475 211.357612 
L 296.85917 211.357612 
L 296.85917 208.348657 
L 297.663589 208.348657 
L 297.663589 211.859104 
L 298.468008 211.859104 
L 298.468008 204.838209 
L 299.272428 204.838209 
L 299.272428 201.327761 
L 300.076847 201.327761 
L 300.076847 205.339701 
L 300.881266 205.339701 
L 300.881266 204.336716 
L 301.685685 204.336716 
L 301.685685 198.820299 
L 302.490105 198.820299 
L 302.490105 193.303881 
L 303.294524 193.303881 
L 303.294524 190.796418 
L 304.098943 190.796418 
L 304.098943 192.300896 
L 305.707782 192.300896 
L 305.707782 186.282985 
L 306.512201 186.282985 
L 306.512201 191.799403 
L 307.31662 191.799403 
L 307.31662 183.27403 
L 308.12104 183.27403 
L 308.12104 183.775522 
L 308.925459 183.775522 
L 308.925459 179.763582 
L 310.534297 179.763582 
L 310.534297 182.772537 
L 311.338717 182.772537 
L 311.338717 178.760597 
L 312.143136 178.760597 
L 312.143136 178.259104 
L 312.947555 178.259104 
L 312.947555 181.769552 
L 313.751975 181.769552 
L 313.751975 178.760597 
L 314.556394 178.760597 
L 314.556394 181.26806 
L 315.360813 181.26806 
L 315.360813 183.27403 
L 316.165232 183.27403 
L 316.165232 180.265075 
L 316.969652 180.265075 
L 316.969652 178.259104 
L 317.774071 178.259104 
L 317.774071 185.781493 
L 318.57849 185.781493 
L 318.57849 189.793433 
L 319.38291 189.793433 
L 319.38291 178.760597 
L 320.187329 178.760597 
L 320.187329 181.769552 
L 320.991748 181.769552 
L 320.991748 183.27403 
L 321.796167 183.27403 
L 321.796167 187.787463 
L 322.600587 187.787463 
L 322.600587 189.793433 
L 324.209425 189.793433 
L 324.209425 185.28 
L 325.013845 185.28 
L 325.013845 182.772537 
L 326.622683 182.772537 
L 326.622683 195.811343 
L 327.427102 195.811343 
L 327.427102 188.288955 
L 328.231522 188.288955 
L 328.231522 182.772537 
L 329.035941 182.772537 
L 329.035941 188.790448 
L 329.84036 188.790448 
L 329.84036 191.29791 
L 330.64478 191.29791 
L 330.64478 184.778507 
L 331.449199 184.778507 
L 331.449199 191.799403 
L 332.253618 191.799403 
L 332.253618 191.29791 
L 333.058037 191.29791 
L 333.058037 188.790448 
L 333.862457 188.790448 
L 333.862457 184.778507 
L 334.666876 184.778507 
L 334.666876 187.28597 
L 335.471295 187.28597 
L 335.471295 189.29194 
L 336.275715 189.29194 
L 336.275715 191.799403 
L 337.080134 191.799403 
L 337.080134 187.28597 
L 337.884553 187.28597 
L 337.884553 192.300896 
L 339.493392 192.300896 
L 339.493392 189.29194 
L 340.297811 189.29194 
L 340.297811 199.823284 
L 341.10223 199.823284 
L 341.10223 200.826269 
L 341.90665 200.826269 
L 341.90665 193.303881 
L 342.711069 193.303881 
L 342.711069 189.793433 
L 343.515488 189.793433 
L 343.515488 184.778507 
L 344.319907 184.778507 
L 344.319907 196.814328 
L 345.124327 196.814328 
L 345.124327 197.315821 
L 345.928746 197.315821 
L 345.928746 186.784478 
L 346.733165 186.784478 
L 346.733165 192.802388 
L 347.537585 192.802388 
L 347.537585 196.814328 
L 348.342004 196.814328 
L 348.342004 193.303881 
L 349.146423 193.303881 
L 349.146423 196.312836 
L 349.950842 196.312836 
L 349.950842 200.324776 
L 350.755262 200.324776 
L 350.755262 194.306866 
L 351.559681 194.306866 
L 351.559681 195.309851 
L 352.3641 195.309851 
L 352.3641 191.799403 
L 353.168519 191.799403 
L 353.168519 201.829254 
L 353.972939 201.829254 
L 353.972939 195.309851 
L 354.777358 195.309851 
L 354.777358 194.808358 
L 355.581777 194.808358 
L 355.581777 203.835224 
L 356.386197 203.835224 
L 356.386197 200.826269 
L 357.190616 200.826269 
L 357.190616 197.315821 
L 357.995035 197.315821 
L 357.995035 203.333731 
L 358.799454 203.333731 
L 358.799454 199.321791 
L 359.603874 199.321791 
L 359.603874 202.330746 
L 361.212712 202.330746 
L 361.212712 204.838209 
L 362.017132 204.838209 
L 362.017132 203.835224 
L 362.821551 203.835224 
L 362.821551 207.847164 
L 363.62597 207.847164 
L 363.62597 205.841194 
L 364.430389 205.841194 
L 364.430389 210.856119 
L 365.234809 210.856119 
L 365.234809 212.360597 
L 366.039228 212.360597 
L 366.039228 212.86209 
L 366.843647 212.86209 
L 366.843647 215.369552 
L 368.452486 215.369552 
L 368.452486 214.86806 
L 369.256905 214.86806 
L 369.256905 212.86209 
L 370.061324 212.86209 
L 370.061324 216.87403 
L 370.865744 216.87403 
L 370.865744 215.369552 
L 371.670163 215.369552 
L 371.670163 217.375522 
L 372.474582 217.375522 
L 372.474582 217.877015 
L 373.279002 217.877015 
L 373.279002 218.378507 
L 374.88784 218.378507 
L 374.88784 219.381493 
L 375.692259 219.381493 
L 375.692259 218.88 
L 376.496679 218.88 
L 376.496679 218.88 
" clip-path="url(#p7ed157180e)" style="fill: none; stroke: #d62728; stroke-width: 1.5; stroke-linecap: square"/>
   </g>
  </g>
 </g>
 <defs>
  <clipPath id="p7ed157180e">
   <rect x="46.965625" y="7.2" width="334.8" height="221.76"/>
  </clipPath>
 </defs>
</svg>
