<?xml version="1.0" encoding="utf-8" standalone="no"?>
<!DOCTYPE svg PUBLIC "-//W3C//DTD SVG 1.1//EN"
  "http://www.w3.org/Graphics/SVG/1.1/DTD/svg11.dtd">
<svg xmlns:xlink="http://www.w3.org/1999/xlink" width="872.39952pt" height="296.39952pt" viewBox="0 0 872.39952 296.39952" xmlns="http://www.w3.org/2000/svg" version="1.1">
 <metadata>
  <rdf:RDF xmlns:dc="http://purl.org/dc/elements/1.1/" xmlns:cc="http://creativecommons.org/ns#" xmlns:rdf="http://www.w3.org/1999/02/22-rdf-syntax-ns#">
   <cc:Work>
    <dc:type rdf:resource="http://purl.org/dc/dcmitype/StillImage"/>
    <dc:date>2025-01-20T13:50:46.076120</dc:date>
    <dc:format>image/svg+xml</dc:format>
    <dc:creator>
     <cc:Agent>
      <dc:title>Matplotlib v3.7.3, https://matplotlib.org/</dc:title>
     </cc:Agent>
    </dc:creator>
   </cc:Work>
  </rdf:RDF>
 </metadata>
 <defs>
  <style type="text/css">*{stroke-linejoin: round; stroke-linecap: butt}</style>
 </defs>
 <g id="figure_1">
  <g id="patch_1">
   <path d="M 0 296.39952 
L 872.39952 296.39952 
L 872.39952 0 
L 0 0 
z
" style="fill: #ffffff"/>
  </g>
  <g id="axes_1">
   <g id="patch_2">
    <path d="M 53.328125 257.158895 
L 431.87976 257.158895 
L 431.87976 7.2 
L 53.328125 7.2 
z
" style="fill: #ffffff"/>
   </g>
   <g id="matplotlib.axis_1">
    <g id="xtick_1">
     <g id="line2d_1">
      <defs>
       <path id="mab2ba38cab" d="M 0 0 
L 0 3.5 
" style="stroke: #000000; stroke-width: 0.8"/>
      </defs>
      <g>
       <use xlink:href="#mab2ba38cab" x="69.650141" y="257.158895" style="stroke: #000000; stroke-width: 0.8"/>
      </g>
     </g>
     <g id="text_1">
      <!-- 0 -->
      <g transform="translate(66.468891 271.757332) scale(0.1 -0.1)">
       <defs>
        <path id="DejaVuSans-30" d="M 2034 4250 
Q 1547 4250 1301 3770 
Q 1056 3291 1056 2328 
Q 1056 1369 1301 889 
Q 1547 409 2034 409 
Q 2525 409 2770 889 
Q 3016 1369 3016 2328 
Q 3016 3291 2770 3770 
Q 2525 4250 2034 4250 
z
M 2034 4750 
Q 2819 4750 3233 4129 
Q 3647 3509 3647 2328 
Q 3647 1150 3233 529 
Q 2819 -91 2034 -91 
Q 1250 -91 836 529 
Q 422 1150 422 2328 
Q 422 3509 836 4129 
Q 1250 4750 2034 4750 
z
" transform="scale(0.015625)"/>
       </defs>
       <use xlink:href="#DejaVuSans-30"/>
      </g>
     </g>
    </g>
    <g id="xtick_2">
     <g id="line2d_2">
      <g>
       <use xlink:href="#mab2ba38cab" x="138.835531" y="257.158895" style="stroke: #000000; stroke-width: 0.8"/>
      </g>
     </g>
     <g id="text_2">
      <!-- 1000 -->
      <g transform="translate(126.110531 271.757332) scale(0.1 -0.1)">
       <defs>
        <path id="DejaVuSans-31" d="M 794 531 
L 1825 531 
L 1825 4091 
L 703 3866 
L 703 4441 
L 1819 4666 
L 2450 4666 
L 2450 531 
L 3481 531 
L 3481 0 
L 794 0 
L 794 531 
z
" transform="scale(0.015625)"/>
       </defs>
       <use xlink:href="#DejaVuSans-31"/>
       <use xlink:href="#DejaVuSans-30" x="63.623047"/>
       <use xlink:href="#DejaVuSans-30" x="127.246094"/>
       <use xlink:href="#DejaVuSans-30" x="190.869141"/>
      </g>
     </g>
    </g>
    <g id="xtick_3">
     <g id="line2d_3">
      <g>
       <use xlink:href="#mab2ba38cab" x="208.020921" y="257.158895" style="stroke: #000000; stroke-width: 0.8"/>
      </g>
     </g>
     <g id="text_3">
      <!-- 2000 -->
      <g transform="translate(195.295921 271.757332) scale(0.1 -0.1)">
       <defs>
        <path id="DejaVuSans-32" d="M 1228 531 
L 3431 531 
L 3431 0 
L 469 0 
L 469 531 
Q 828 903 1448 1529 
Q 2069 2156 2228 2338 
Q 2531 2678 2651 2914 
Q 2772 3150 2772 3378 
Q 2772 3750 2511 3984 
Q 2250 4219 1831 4219 
Q 1534 4219 1204 4116 
Q 875 4013 500 3803 
L 500 4441 
Q 881 4594 1212 4672 
Q 1544 4750 1819 4750 
Q 2544 4750 2975 4387 
Q 3406 4025 3406 3419 
Q 3406 3131 3298 2873 
Q 3191 2616 2906 2266 
Q 2828 2175 2409 1742 
Q 1991 1309 1228 531 
z
" transform="scale(0.015625)"/>
       </defs>
       <use xlink:href="#DejaVuSans-32"/>
       <use xlink:href="#DejaVuSans-30" x="63.623047"/>
       <use xlink:href="#DejaVuSans-30" x="127.246094"/>
       <use xlink:href="#DejaVuSans-30" x="190.869141"/>
      </g>
     </g>
    </g>
    <g id="xtick_4">
     <g id="line2d_4">
      <g>
       <use xlink:href="#mab2ba38cab" x="277.206311" y="257.158895" style="stroke: #000000; stroke-width: 0.8"/>
      </g>
     </g>
     <g id="text_4">
      <!-- 3000 -->
      <g transform="translate(264.481311 271.757332) scale(0.1 -0.1)">
       <defs>
        <path id="DejaVuSans-33" d="M 2597 2516 
Q 3050 2419 3304 2112 
Q 3559 1806 3559 1356 
Q 3559 666 3084 287 
Q 2609 -91 1734 -91 
Q 1441 -91 1130 -33 
Q 819 25 488 141 
L 488 750 
Q 750 597 1062 519 
Q 1375 441 1716 441 
Q 2309 441 2620 675 
Q 2931 909 2931 1356 
Q 2931 1769 2642 2001 
Q 2353 2234 1838 2234 
L 1294 2234 
L 1294 2753 
L 1863 2753 
Q 2328 2753 2575 2939 
Q 2822 3125 2822 3475 
Q 2822 3834 2567 4026 
Q 2313 4219 1838 4219 
Q 1578 4219 1281 4162 
Q 984 4106 628 3988 
L 628 4550 
Q 988 4650 1302 4700 
Q 1616 4750 1894 4750 
Q 2613 4750 3031 4423 
Q 3450 4097 3450 3541 
Q 3450 3153 3228 2886 
Q 3006 2619 2597 2516 
z
" transform="scale(0.015625)"/>
       </defs>
       <use xlink:href="#DejaVuSans-33"/>
       <use xlink:href="#DejaVuSans-30" x="63.623047"/>
       <use xlink:href="#DejaVuSans-30" x="127.246094"/>
       <use xlink:href="#DejaVuSans-30" x="190.869141"/>
      </g>
     </g>
    </g>
    <g id="xtick_5">
     <g id="line2d_5">
      <g>
       <use xlink:href="#mab2ba38cab" x="346.391701" y="257.158895" style="stroke: #000000; stroke-width: 0.8"/>
      </g>
     </g>
     <g id="text_5">
      <!-- 4000 -->
      <g transform="translate(333.666701 271.757332) scale(0.1 -0.1)">
       <defs>
        <path id="DejaVuSans-34" d="M 2419 4116 
L 825 1625 
L 2419 1625 
L 2419 4116 
z
M 2253 4666 
L 3047 4666 
L 3047 1625 
L 3713 1625 
L 3713 1100 
L 3047 1100 
L 3047 0 
L 2419 0 
L 2419 1100 
L 313 1100 
L 313 1709 
L 2253 4666 
z
" transform="scale(0.015625)"/>
       </defs>
       <use xlink:href="#DejaVuSans-34"/>
       <use xlink:href="#DejaVuSans-30" x="63.623047"/>
       <use xlink:href="#DejaVuSans-30" x="127.246094"/>
       <use xlink:href="#DejaVuSans-30" x="190.869141"/>
      </g>
     </g>
    </g>
    <g id="xtick_6">
     <g id="line2d_6">
      <g>
       <use xlink:href="#mab2ba38cab" x="415.577091" y="257.158895" style="stroke: #000000; stroke-width: 0.8"/>
      </g>
     </g>
     <g id="text_6">
      <!-- 5000 -->
      <g transform="translate(402.852091 271.757332) scale(0.1 -0.1)">
       <defs>
        <path id="DejaVuSans-35" d="M 691 4666 
L 3169 4666 
L 3169 4134 
L 1269 4134 
L 1269 2991 
Q 1406 3038 1543 3061 
Q 1681 3084 1819 3084 
Q 2600 3084 3056 2656 
Q 3513 2228 3513 1497 
Q 3513 744 3044 326 
Q 2575 -91 1722 -91 
Q 1428 -91 1123 -41 
Q 819 9 494 109 
L 494 744 
Q 775 591 1075 516 
Q 1375 441 1709 441 
Q 2250 441 2565 725 
Q 2881 1009 2881 1497 
Q 2881 1984 2565 2268 
Q 2250 2553 1709 2553 
Q 1456 2553 1204 2497 
Q 953 2441 691 2322 
L 691 4666 
z
" transform="scale(0.015625)"/>
       </defs>
       <use xlink:href="#DejaVuSans-35"/>
       <use xlink:href="#DejaVuSans-30" x="63.623047"/>
       <use xlink:href="#DejaVuSans-30" x="127.246094"/>
       <use xlink:href="#DejaVuSans-30" x="190.869141"/>
      </g>
     </g>
    </g>
    <g id="text_7">
     <!-- time [µs] -->
     <g transform="translate(220.031286 285.435457) scale(0.1 -0.1)">
      <defs>
       <path id="DejaVuSans-74" d="M 1172 4494 
L 1172 3500 
L 2356 3500 
L 2356 3053 
L 1172 3053 
L 1172 1153 
Q 1172 725 1289 603 
Q 1406 481 1766 481 
L 2356 481 
L 2356 0 
L 1766 0 
Q 1100 0 847 248 
Q 594 497 594 1153 
L 594 3053 
L 172 3053 
L 172 3500 
L 594 3500 
L 594 4494 
L 1172 4494 
z
" transform="scale(0.015625)"/>
       <path id="DejaVuSans-69" d="M 603 3500 
L 1178 3500 
L 1178 0 
L 603 0 
L 603 3500 
z
M 603 4863 
L 1178 4863 
L 1178 4134 
L 603 4134 
L 603 4863 
z
" transform="scale(0.015625)"/>
       <path id="DejaVuSans-6d" d="M 3328 2828 
Q 3544 3216 3844 3400 
Q 4144 3584 4550 3584 
Q 5097 3584 5394 3201 
Q 5691 2819 5691 2113 
L 5691 0 
L 5113 0 
L 5113 2094 
Q 5113 2597 4934 2840 
Q 4756 3084 4391 3084 
Q 3944 3084 3684 2787 
Q 3425 2491 3425 1978 
L 3425 0 
L 2847 0 
L 2847 2094 
Q 2847 2600 2669 2842 
Q 2491 3084 2119 3084 
Q 1678 3084 1418 2786 
Q 1159 2488 1159 1978 
L 1159 0 
L 581 0 
L 581 3500 
L 1159 3500 
L 1159 2956 
Q 1356 3278 1631 3431 
Q 1906 3584 2284 3584 
Q 2666 3584 2933 3390 
Q 3200 3197 3328 2828 
z
" transform="scale(0.015625)"/>
       <path id="DejaVuSans-65" d="M 3597 1894 
L 3597 1613 
L 953 1613 
Q 991 1019 1311 708 
Q 1631 397 2203 397 
Q 2534 397 2845 478 
Q 3156 559 3463 722 
L 3463 178 
Q 3153 47 2828 -22 
Q 2503 -91 2169 -91 
Q 1331 -91 842 396 
Q 353 884 353 1716 
Q 353 2575 817 3079 
Q 1281 3584 2069 3584 
Q 2775 3584 3186 3129 
Q 3597 2675 3597 1894 
z
M 3022 2063 
Q 3016 2534 2758 2815 
Q 2500 3097 2075 3097 
Q 1594 3097 1305 2825 
Q 1016 2553 972 2059 
L 3022 2063 
z
" transform="scale(0.015625)"/>
       <path id="DejaVuSans-20" transform="scale(0.015625)"/>
       <path id="DejaVuSans-5b" d="M 550 4863 
L 1875 4863 
L 1875 4416 
L 1125 4416 
L 1125 -397 
L 1875 -397 
L 1875 -844 
L 550 -844 
L 550 4863 
z
" transform="scale(0.015625)"/>
       <path id="DejaVuSans-b5" d="M 544 -1331 
L 544 3500 
L 1119 3500 
L 1119 1325 
Q 1119 872 1334 640 
Q 1550 409 1972 409 
Q 2434 409 2667 671 
Q 2900 934 2900 1459 
L 2900 3500 
L 3475 3500 
L 3475 806 
Q 3475 619 3529 530 
Q 3584 441 3700 441 
Q 3728 441 3778 458 
Q 3828 475 3916 513 
L 3916 50 
Q 3788 -22 3673 -56 
Q 3559 -91 3450 -91 
Q 3234 -91 3106 31 
Q 2978 153 2931 403 
Q 2775 156 2548 32 
Q 2322 -91 2016 -91 
Q 1697 -91 1473 31 
Q 1250 153 1119 397 
L 1119 -1331 
L 544 -1331 
z
" transform="scale(0.015625)"/>
       <path id="DejaVuSans-73" d="M 2834 3397 
L 2834 2853 
Q 2591 2978 2328 3040 
Q 2066 3103 1784 3103 
Q 1356 3103 1142 2972 
Q 928 2841 928 2578 
Q 928 2378 1081 2264 
Q 1234 2150 1697 2047 
L 1894 2003 
Q 2506 1872 2764 1633 
Q 3022 1394 3022 966 
Q 3022 478 2636 193 
Q 2250 -91 1575 -91 
Q 1294 -91 989 -36 
Q 684 19 347 128 
L 347 722 
Q 666 556 975 473 
Q 1284 391 1588 391 
Q 1994 391 2212 530 
Q 2431 669 2431 922 
Q 2431 1156 2273 1281 
Q 2116 1406 1581 1522 
L 1381 1569 
Q 847 1681 609 1914 
Q 372 2147 372 2553 
Q 372 3047 722 3315 
Q 1072 3584 1716 3584 
Q 2034 3584 2315 3537 
Q 2597 3491 2834 3397 
z
" transform="scale(0.015625)"/>
       <path id="DejaVuSans-5d" d="M 1947 4863 
L 1947 -844 
L 622 -844 
L 622 -397 
L 1369 -397 
L 1369 4416 
L 622 4416 
L 622 4863 
L 1947 4863 
z
" transform="scale(0.015625)"/>
      </defs>
      <use xlink:href="#DejaVuSans-74"/>
      <use xlink:href="#DejaVuSans-69" x="39.208984"/>
      <use xlink:href="#DejaVuSans-6d" x="66.992188"/>
      <use xlink:href="#DejaVuSans-65" x="164.404297"/>
      <use xlink:href="#DejaVuSans-20" x="225.927734"/>
      <use xlink:href="#DejaVuSans-5b" x="257.714844"/>
      <use xlink:href="#DejaVuSans-b5" x="296.728516"/>
      <use xlink:href="#DejaVuSans-73" x="360.351562"/>
      <use xlink:href="#DejaVuSans-5d" x="412.451172"/>
     </g>
    </g>
   </g>
   <g id="matplotlib.axis_2">
    <g id="ytick_1">
     <g id="line2d_7">
      <defs>
       <path id="m030cdc3cb1" d="M 0 0 
L -3.5 0 
" style="stroke: #000000; stroke-width: 0.8"/>
      </defs>
      <g>
       <use xlink:href="#m030cdc3cb1" x="53.328125" y="245.797127" style="stroke: #000000; stroke-width: 0.8"/>
      </g>
     </g>
     <g id="text_8">
      <!-- 0 -->
      <g transform="translate(39.965625 249.596346) scale(0.1 -0.1)">
       <use xlink:href="#DejaVuSans-30"/>
      </g>
     </g>
    </g>
    <g id="ytick_2">
     <g id="line2d_8">
      <g>
       <use xlink:href="#m030cdc3cb1" x="53.328125" y="208.727737" style="stroke: #000000; stroke-width: 0.8"/>
      </g>
     </g>
     <g id="text_9">
      <!-- 200 -->
      <g transform="translate(27.240625 212.526956) scale(0.1 -0.1)">
       <use xlink:href="#DejaVuSans-32"/>
       <use xlink:href="#DejaVuSans-30" x="63.623047"/>
       <use xlink:href="#DejaVuSans-30" x="127.246094"/>
      </g>
     </g>
    </g>
    <g id="ytick_3">
     <g id="line2d_9">
      <g>
       <use xlink:href="#m030cdc3cb1" x="53.328125" y="171.658348" style="stroke: #000000; stroke-width: 0.8"/>
      </g>
     </g>
     <g id="text_10">
      <!-- 400 -->
      <g transform="translate(27.240625 175.457566) scale(0.1 -0.1)">
       <use xlink:href="#DejaVuSans-34"/>
       <use xlink:href="#DejaVuSans-30" x="63.623047"/>
       <use xlink:href="#DejaVuSans-30" x="127.246094"/>
      </g>
     </g>
    </g>
    <g id="ytick_4">
     <g id="line2d_10">
      <g>
       <use xlink:href="#m030cdc3cb1" x="53.328125" y="134.588958" style="stroke: #000000; stroke-width: 0.8"/>
      </g>
     </g>
     <g id="text_11">
      <!-- 600 -->
      <g transform="translate(27.240625 138.388177) scale(0.1 -0.1)">
       <defs>
        <path id="DejaVuSans-36" d="M 2113 2584 
Q 1688 2584 1439 2293 
Q 1191 2003 1191 1497 
Q 1191 994 1439 701 
Q 1688 409 2113 409 
Q 2538 409 2786 701 
Q 3034 994 3034 1497 
Q 3034 2003 2786 2293 
Q 2538 2584 2113 2584 
z
M 3366 4563 
L 3366 3988 
Q 3128 4100 2886 4159 
Q 2644 4219 2406 4219 
Q 1781 4219 1451 3797 
Q 1122 3375 1075 2522 
Q 1259 2794 1537 2939 
Q 1816 3084 2150 3084 
Q 2853 3084 3261 2657 
Q 3669 2231 3669 1497 
Q 3669 778 3244 343 
Q 2819 -91 2113 -91 
Q 1303 -91 875 529 
Q 447 1150 447 2328 
Q 447 3434 972 4092 
Q 1497 4750 2381 4750 
Q 2619 4750 2861 4703 
Q 3103 4656 3366 4563 
z
" transform="scale(0.015625)"/>
       </defs>
       <use xlink:href="#DejaVuSans-36"/>
       <use xlink:href="#DejaVuSans-30" x="63.623047"/>
       <use xlink:href="#DejaVuSans-30" x="127.246094"/>
      </g>
     </g>
    </g>
    <g id="ytick_5">
     <g id="line2d_11">
      <g>
       <use xlink:href="#m030cdc3cb1" x="53.328125" y="97.519568" style="stroke: #000000; stroke-width: 0.8"/>
      </g>
     </g>
     <g id="text_12">
      <!-- 800 -->
      <g transform="translate(27.240625 101.318787) scale(0.1 -0.1)">
       <defs>
        <path id="DejaVuSans-38" d="M 2034 2216 
Q 1584 2216 1326 1975 
Q 1069 1734 1069 1313 
Q 1069 891 1326 650 
Q 1584 409 2034 409 
Q 2484 409 2743 651 
Q 3003 894 3003 1313 
Q 3003 1734 2745 1975 
Q 2488 2216 2034 2216 
z
M 1403 2484 
Q 997 2584 770 2862 
Q 544 3141 544 3541 
Q 544 4100 942 4425 
Q 1341 4750 2034 4750 
Q 2731 4750 3128 4425 
Q 3525 4100 3525 3541 
Q 3525 3141 3298 2862 
Q 3072 2584 2669 2484 
Q 3125 2378 3379 2068 
Q 3634 1759 3634 1313 
Q 3634 634 3220 271 
Q 2806 -91 2034 -91 
Q 1263 -91 848 271 
Q 434 634 434 1313 
Q 434 1759 690 2068 
Q 947 2378 1403 2484 
z
M 1172 3481 
Q 1172 3119 1398 2916 
Q 1625 2713 2034 2713 
Q 2441 2713 2670 2916 
Q 2900 3119 2900 3481 
Q 2900 3844 2670 4047 
Q 2441 4250 2034 4250 
Q 1625 4250 1398 4047 
Q 1172 3844 1172 3481 
z
" transform="scale(0.015625)"/>
       </defs>
       <use xlink:href="#DejaVuSans-38"/>
       <use xlink:href="#DejaVuSans-30" x="63.623047"/>
       <use xlink:href="#DejaVuSans-30" x="127.246094"/>
      </g>
     </g>
    </g>
    <g id="ytick_6">
     <g id="line2d_12">
      <g>
       <use xlink:href="#m030cdc3cb1" x="53.328125" y="60.450178" style="stroke: #000000; stroke-width: 0.8"/>
      </g>
     </g>
     <g id="text_13">
      <!-- 1000 -->
      <g transform="translate(20.878125 64.249397) scale(0.1 -0.1)">
       <use xlink:href="#DejaVuSans-31"/>
       <use xlink:href="#DejaVuSans-30" x="63.623047"/>
       <use xlink:href="#DejaVuSans-30" x="127.246094"/>
       <use xlink:href="#DejaVuSans-30" x="190.869141"/>
      </g>
     </g>
    </g>
    <g id="ytick_7">
     <g id="line2d_13">
      <g>
       <use xlink:href="#m030cdc3cb1" x="53.328125" y="23.380789" style="stroke: #000000; stroke-width: 0.8"/>
      </g>
     </g>
     <g id="text_14">
      <!-- 1200 -->
      <g transform="translate(20.878125 27.180007) scale(0.1 -0.1)">
       <use xlink:href="#DejaVuSans-31"/>
       <use xlink:href="#DejaVuSans-32" x="63.623047"/>
       <use xlink:href="#DejaVuSans-30" x="127.246094"/>
       <use xlink:href="#DejaVuSans-30" x="190.869141"/>
      </g>
     </g>
    </g>
    <g id="text_15">
     <!-- [counts] -->
     <g transform="translate(14.798438 152.791947) rotate(-90) scale(0.1 -0.1)">
      <defs>
       <path id="DejaVuSans-63" d="M 3122 3366 
L 3122 2828 
Q 2878 2963 2633 3030 
Q 2388 3097 2138 3097 
Q 1578 3097 1268 2742 
Q 959 2388 959 1747 
Q 959 1106 1268 751 
Q 1578 397 2138 397 
Q 2388 397 2633 464 
Q 2878 531 3122 666 
L 3122 134 
Q 2881 22 2623 -34 
Q 2366 -91 2075 -91 
Q 1284 -91 818 406 
Q 353 903 353 1747 
Q 353 2603 823 3093 
Q 1294 3584 2113 3584 
Q 2378 3584 2631 3529 
Q 2884 3475 3122 3366 
z
" transform="scale(0.015625)"/>
       <path id="DejaVuSans-6f" d="M 1959 3097 
Q 1497 3097 1228 2736 
Q 959 2375 959 1747 
Q 959 1119 1226 758 
Q 1494 397 1959 397 
Q 2419 397 2687 759 
Q 2956 1122 2956 1747 
Q 2956 2369 2687 2733 
Q 2419 3097 1959 3097 
z
M 1959 3584 
Q 2709 3584 3137 3096 
Q 3566 2609 3566 1747 
Q 3566 888 3137 398 
Q 2709 -91 1959 -91 
Q 1206 -91 779 398 
Q 353 888 353 1747 
Q 353 2609 779 3096 
Q 1206 3584 1959 3584 
z
" transform="scale(0.015625)"/>
       <path id="DejaVuSans-75" d="M 544 1381 
L 544 3500 
L 1119 3500 
L 1119 1403 
Q 1119 906 1312 657 
Q 1506 409 1894 409 
Q 2359 409 2629 706 
Q 2900 1003 2900 1516 
L 2900 3500 
L 3475 3500 
L 3475 0 
L 2900 0 
L 2900 538 
Q 2691 219 2414 64 
Q 2138 -91 1772 -91 
Q 1169 -91 856 284 
Q 544 659 544 1381 
z
M 1991 3584 
L 1991 3584 
z
" transform="scale(0.015625)"/>
       <path id="DejaVuSans-6e" d="M 3513 2113 
L 3513 0 
L 2938 0 
L 2938 2094 
Q 2938 2591 2744 2837 
Q 2550 3084 2163 3084 
Q 1697 3084 1428 2787 
Q 1159 2491 1159 1978 
L 1159 0 
L 581 0 
L 581 3500 
L 1159 3500 
L 1159 2956 
Q 1366 3272 1645 3428 
Q 1925 3584 2291 3584 
Q 2894 3584 3203 3211 
Q 3513 2838 3513 2113 
z
" transform="scale(0.015625)"/>
      </defs>
      <use xlink:href="#DejaVuSans-5b"/>
      <use xlink:href="#DejaVuSans-63" x="39.013672"/>
      <use xlink:href="#DejaVuSans-6f" x="93.994141"/>
      <use xlink:href="#DejaVuSans-75" x="155.175781"/>
      <use xlink:href="#DejaVuSans-6e" x="218.554688"/>
      <use xlink:href="#DejaVuSans-74" x="281.933594"/>
      <use xlink:href="#DejaVuSans-73" x="321.142578"/>
      <use xlink:href="#DejaVuSans-5d" x="373.242188"/>
     </g>
    </g>
   </g>
   <g id="patch_3">
    <path d="M 53.328125 257.158895 
L 53.328125 7.2 
" style="fill: none; stroke: #000000; stroke-width: 0.8; stroke-linejoin: miter; stroke-linecap: square"/>
   </g>
   <g id="patch_4">
    <path d="M 431.87976 257.158895 
L 431.87976 7.2 
" style="fill: none; stroke: #000000; stroke-width: 0.8; stroke-linejoin: miter; stroke-linecap: square"/>
   </g>
   <g id="patch_5">
    <path d="M 53.328125 257.158895 
L 431.87976 257.158895 
" style="fill: none; stroke: #000000; stroke-width: 0.8; stroke-linejoin: miter; stroke-linecap: square"/>
   </g>
   <g id="patch_6">
    <path d="M 53.328125 7.2 
L 431.87976 7.2 
" style="fill: none; stroke: #000000; stroke-width: 0.8; stroke-linejoin: miter; stroke-linecap: square"/>
   </g>
   <g id="line2d_14">
    <path d="M 70.535017 233.564228 
L 71.682144 233.564228 
L 71.682144 227.077085 
L 72.82927 227.077085 
L 72.82927 219.848554 
L 73.976396 219.848554 
L 73.976396 212.620023 
L 75.123522 212.620023 
L 75.123522 202.981982 
L 76.270648 202.981982 
L 76.270648 187.042144 
L 77.417774 187.042144 
L 77.417774 188.52492 
L 78.564901 188.52492 
L 78.564901 175.550633 
L 79.712027 175.550633 
L 79.712027 167.024674 
L 80.859153 167.024674 
L 80.859153 157.942673 
L 82.006279 157.942673 
L 82.006279 143.300264 
L 83.153405 143.300264 
L 83.153405 147.748591 
L 84.300531 147.748591 
L 84.300531 136.442427 
L 85.447658 136.442427 
L 85.447658 130.696672 
L 86.594784 130.696672 
L 86.594784 131.067366 
L 87.74191 131.067366 
L 87.74191 126.248345 
L 88.889036 126.248345 
L 88.889036 121.985365 
L 90.036162 121.985365 
L 90.036162 117.537039 
L 91.183288 117.537039 
L 91.183288 112.161977 
L 92.330415 112.161977 
L 92.330415 109.381773 
L 93.477541 109.381773 
L 93.477541 104.562752 
L 94.624667 104.562752 
L 94.624667 97.148874 
L 95.771793 97.148874 
L 95.771793 89.364302 
L 96.918919 89.364302 
L 96.918919 89.549649 
L 98.066045 89.549649 
L 98.066045 83.803894 
L 99.213172 83.803894 
L 99.213172 86.213404 
L 100.360298 86.213404 
L 100.360298 79.726261 
L 101.507424 79.726261 
L 101.507424 77.131404 
L 102.65455 77.131404 
L 102.65455 72.49773 
L 103.801676 72.49773 
L 103.801676 78.243485 
L 104.948802 78.243485 
L 104.948802 69.717526 
L 106.095929 69.717526 
L 106.095929 58.226015 
L 107.243055 58.226015 
L 107.243055 70.273567 
L 108.390181 70.273567 
L 108.390181 71.200301 
L 109.537307 71.200301 
L 109.537307 64.713158 
L 110.684433 64.713158 
L 110.684433 56.928586 
L 111.831559 56.928586 
L 111.831559 50.812137 
L 112.978686 50.812137 
L 112.978686 56.001852 
L 114.125812 56.001852 
L 114.125812 51.553525 
L 115.272938 51.553525 
L 115.272938 58.411362 
L 116.420064 58.411362 
L 116.420064 52.294913 
L 117.56719 52.294913 
L 117.56719 51.182831 
L 118.714316 51.182831 
L 118.714316 63.786423 
L 119.861443 63.786423 
L 119.861443 54.704423 
L 121.008569 54.704423 
L 121.008569 46.36381 
L 122.155695 46.36381 
L 122.155695 54.519076 
L 123.302821 54.519076 
L 123.302821 48.773321 
L 124.449947 48.773321 
L 124.449947 46.178463 
L 125.597073 46.178463 
L 125.597073 41.915483 
L 126.7442 41.915483 
L 126.7442 48.587974 
L 127.891326 48.587974 
L 127.891326 45.437076 
L 129.038452 45.437076 
L 129.038452 43.9543 
L 130.185578 43.9543 
L 130.185578 40.988749 
L 131.332704 40.988749 
L 131.332704 45.622422 
L 132.47983 45.622422 
L 132.47983 41.54479 
L 133.626957 41.54479 
L 133.626957 37.467157 
L 134.774083 37.467157 
L 134.774083 49.514708 
L 135.921209 49.514708 
L 135.921209 43.212912 
L 137.068335 43.212912 
L 137.068335 38.949932 
L 138.215461 38.949932 
L 138.215461 42.10083 
L 139.362587 42.10083 
L 139.362587 37.467157 
L 140.509714 37.467157 
L 140.509714 46.734504 
L 141.65684 46.734504 
L 141.65684 33.574871 
L 142.803966 33.574871 
L 142.803966 34.130912 
L 143.951092 34.130912 
L 143.951092 41.359443 
L 145.098218 41.359443 
L 145.098218 38.949932 
L 146.245344 38.949932 
L 146.245344 29.497238 
L 147.392471 29.497238 
L 147.392471 39.69132 
L 148.539597 39.69132 
L 148.539597 38.023198 
L 149.686723 38.023198 
L 149.686723 35.057646 
L 150.833849 35.057646 
L 150.833849 26.160993 
L 151.980975 26.160993 
L 151.980975 30.053279 
L 153.128101 30.053279 
L 153.128101 33.945565 
L 154.275228 33.945565 
L 154.275228 37.837851 
L 155.422354 37.837851 
L 155.422354 26.717034 
L 156.56948 26.717034 
L 156.56948 47.661239 
L 157.716606 47.661239 
L 157.716606 27.087728 
L 158.863732 27.087728 
L 158.863732 29.682585 
L 160.010858 29.682585 
L 160.010858 33.760218 
L 161.157985 33.760218 
L 161.157985 38.393891 
L 162.305111 38.393891 
L 162.305111 43.212912 
L 163.452237 43.212912 
L 163.452237 42.656871 
L 164.599363 42.656871 
L 164.599363 33.204177 
L 165.746489 33.204177 
L 165.746489 40.432708 
L 166.893615 40.432708 
L 166.893615 29.682585 
L 168.040742 29.682585 
L 168.040742 30.053279 
L 169.187868 30.053279 
L 169.187868 30.794667 
L 170.334994 30.794667 
L 170.334994 31.350707 
L 171.48212 31.350707 
L 171.48212 29.126544 
L 172.629246 29.126544 
L 172.629246 33.945565 
L 173.776372 33.945565 
L 173.776372 26.160993 
L 174.923499 26.160993 
L 174.923499 34.686952 
L 176.070625 34.686952 
L 176.070625 50.441443 
L 177.217751 50.441443 
L 177.217751 31.721401 
L 178.364877 31.721401 
L 178.364877 35.42834 
L 179.512003 35.42834 
L 179.512003 27.829115 
L 180.659129 27.829115 
L 180.659129 28.75585 
L 181.806256 28.75585 
L 181.806256 33.760218 
L 182.953382 33.760218 
L 182.953382 26.531687 
L 184.100508 26.531687 
L 184.100508 27.829115 
L 185.247634 27.829115 
L 185.247634 29.867932 
L 186.39476 29.867932 
L 186.39476 36.169728 
L 188.689013 36.169728 
L 188.689013 36.540422 
L 189.836139 36.540422 
L 189.836139 23.751483 
L 190.983265 23.751483 
L 190.983265 27.829115 
L 192.130391 27.829115 
L 192.130391 24.49287 
L 193.277517 24.49287 
L 193.277517 40.803402 
L 194.424643 40.803402 
L 194.424643 30.980014 
L 195.57177 30.980014 
L 195.57177 27.643768 
L 196.718896 27.643768 
L 196.718896 23.010095 
L 197.866022 23.010095 
L 197.866022 34.686952 
L 199.013148 34.686952 
L 199.013148 32.462789 
L 200.160274 32.462789 
L 200.160274 28.941197 
L 201.3074 28.941197 
L 201.3074 26.160993 
L 202.454527 26.160993 
L 202.454527 31.536054 
L 203.601653 31.536054 
L 203.601653 31.721401 
L 204.748779 31.721401 
L 204.748779 38.579238 
L 205.895905 38.579238 
L 205.895905 25.604952 
L 207.043031 25.604952 
L 207.043031 31.721401 
L 208.190157 31.721401 
L 208.190157 22.454054 
L 209.337284 22.454054 
L 209.337284 25.419605 
L 210.48441 25.419605 
L 210.48441 33.389524 
L 211.631536 33.389524 
L 211.631536 23.566136 
L 212.778662 23.566136 
L 212.778662 26.160993 
L 213.925788 26.160993 
L 213.925788 26.902381 
L 215.072914 26.902381 
L 215.072914 31.536054 
L 216.220041 31.536054 
L 216.220041 29.126544 
L 217.367167 29.126544 
L 217.367167 26.902381 
L 218.514293 26.902381 
L 218.514293 33.389524 
L 219.661419 33.389524 
L 219.661419 38.208545 
L 220.808545 38.208545 
L 220.808545 23.010095 
L 221.955671 23.010095 
L 221.955671 40.988749 
L 223.102798 40.988749 
L 223.102798 24.307523 
L 224.249924 24.307523 
L 224.249924 34.872299 
L 225.39705 34.872299 
L 225.39705 31.536054 
L 226.544176 31.536054 
L 226.544176 31.350707 
L 227.691302 31.350707 
L 227.691302 24.678217 
L 228.838428 24.678217 
L 228.838428 36.169728 
L 229.985555 36.169728 
L 229.985555 40.618055 
L 231.132681 40.618055 
L 231.132681 35.242993 
L 232.279807 35.242993 
L 232.279807 39.69132 
L 233.426933 39.69132 
L 233.426933 26.34634 
L 234.574059 26.34634 
L 234.574059 28.385156 
L 235.721185 28.385156 
L 235.721185 25.419605 
L 236.868312 25.419605 
L 236.868312 33.574871 
L 238.015438 33.574871 
L 238.015438 24.122176 
L 239.162564 24.122176 
L 239.162564 28.75585 
L 240.30969 28.75585 
L 240.30969 41.54479 
L 241.456816 41.54479 
L 241.456816 36.540422 
L 242.603942 36.540422 
L 242.603942 29.867932 
L 243.751069 29.867932 
L 243.751069 30.60932 
L 244.898195 30.60932 
L 244.898195 33.574871 
L 246.045321 33.574871 
L 246.045321 36.169728 
L 247.192447 36.169728 
L 247.192447 23.566136 
L 248.339573 23.566136 
L 248.339573 18.932462 
L 249.486699 18.932462 
L 249.486699 39.876667 
L 250.633826 39.876667 
L 250.633826 33.574871 
L 251.780952 33.574871 
L 251.780952 25.419605 
L 252.928078 25.419605 
L 252.928078 32.648136 
L 254.075204 32.648136 
L 254.075204 33.01883 
L 255.22233 33.01883 
L 255.22233 27.458421 
L 256.369456 27.458421 
L 256.369456 26.531687 
L 257.516583 26.531687 
L 257.516583 18.561768 
L 258.663709 18.561768 
L 258.663709 48.402627 
L 259.810835 48.402627 
L 259.810835 25.048911 
L 260.957961 25.048911 
L 260.957961 31.536054 
L 262.105087 31.536054 
L 262.105087 26.717034 
L 263.252213 26.717034 
L 263.252213 41.730137 
L 264.39934 41.730137 
L 264.39934 30.053279 
L 265.546466 30.053279 
L 265.546466 39.505973 
L 266.693592 39.505973 
L 266.693592 35.42834 
L 267.840718 35.42834 
L 267.840718 29.497238 
L 268.987844 29.497238 
L 268.987844 46.36381 
L 270.13497 46.36381 
L 270.13497 52.294913 
L 271.282097 52.294913 
L 271.282097 50.441443 
L 272.429223 50.441443 
L 272.429223 72.127036 
L 273.576349 72.127036 
L 273.576349 81.765077 
L 274.723475 81.765077 
L 274.723475 93.997976 
L 275.870601 93.997976 
L 275.870601 97.334221 
L 277.017727 97.334221 
L 277.017727 101.782548 
L 278.164854 101.782548 
L 278.164854 123.838835 
L 279.31198 123.838835 
L 279.31198 121.985365 
L 280.459106 121.985365 
L 280.459106 123.653488 
L 281.606232 123.653488 
L 281.606232 135.330346 
L 282.753358 135.330346 
L 282.753358 137.369162 
L 283.900484 137.369162 
L 283.900484 145.339081 
L 285.047611 145.339081 
L 285.047611 144.412346 
L 286.194737 144.412346 
L 286.194737 154.421081 
L 287.341863 154.421081 
L 287.341863 157.015939 
L 288.488989 157.015939 
L 288.488989 166.468633 
L 289.636115 166.468633 
L 289.636115 166.839327 
L 290.783241 166.839327 
L 290.783241 172.955776 
L 291.930368 172.955776 
L 291.930368 182.223124 
L 293.077494 182.223124 
L 293.077494 182.593818 
L 294.22462 182.593818 
L 294.22462 187.412838 
L 295.371746 187.412838 
L 295.371746 184.817981 
L 296.518872 184.817981 
L 296.518872 193.343941 
L 297.665998 193.343941 
L 297.665998 191.861165 
L 298.813125 191.861165 
L 298.813125 201.499206 
L 299.960251 201.499206 
L 299.960251 200.016431 
L 301.107377 200.016431 
L 301.107377 199.46039 
L 302.254503 199.46039 
L 302.254503 206.874268 
L 303.401629 206.874268 
L 303.401629 202.611288 
L 304.548755 202.611288 
L 304.548755 205.947533 
L 305.695882 205.947533 
L 305.695882 210.951901 
L 306.843008 210.951901 
L 306.843008 213.732105 
L 307.990134 213.732105 
L 307.990134 215.585574 
L 309.13726 215.585574 
L 309.13726 219.292513 
L 310.284386 219.292513 
L 310.284386 215.770921 
L 311.431512 215.770921 
L 311.431512 220.589942 
L 312.578639 220.589942 
L 312.578639 222.443412 
L 313.725765 222.443412 
L 313.725765 222.814105 
L 314.872891 222.814105 
L 314.872891 221.702024 
L 316.020017 221.702024 
L 316.020017 222.628758 
L 317.167143 222.628758 
L 317.167143 224.667575 
L 318.314269 224.667575 
L 318.314269 230.598677 
L 319.461396 230.598677 
L 319.461396 227.818473 
L 320.608522 227.818473 
L 320.608522 230.598677 
L 321.755648 230.598677 
L 321.755648 231.525412 
L 322.902774 231.525412 
L 322.902774 230.227983 
L 324.0499 230.227983 
L 324.0499 233.008188 
L 325.197026 233.008188 
L 325.197026 232.081453 
L 326.344153 232.081453 
L 326.344153 233.934922 
L 327.491279 233.934922 
L 327.491279 232.2668 
L 328.638405 232.2668 
L 328.638405 233.934922 
L 329.785531 233.934922 
L 329.785531 236.159086 
L 330.932657 236.159086 
L 330.932657 236.715127 
L 332.079783 236.715127 
L 332.079783 234.861657 
L 333.22691 234.861657 
L 333.22691 235.603045 
L 335.521162 235.603045 
L 335.521162 237.271167 
L 336.668288 237.271167 
L 336.668288 236.900474 
L 337.815414 236.900474 
L 337.815414 235.232351 
L 338.96254 235.232351 
L 338.96254 238.568596 
L 340.109667 238.568596 
L 340.109667 239.309984 
L 341.256793 239.309984 
L 341.256793 238.383249 
L 342.403919 238.383249 
L 342.403919 239.680678 
L 343.551045 239.680678 
L 343.551045 241.534147 
L 344.698171 241.534147 
L 344.698171 241.163453 
L 345.845297 241.163453 
L 345.845297 240.978106 
L 346.992424 240.978106 
L 346.992424 240.236719 
L 348.13955 240.236719 
L 348.13955 241.3488 
L 349.286676 241.3488 
L 349.286676 241.163453 
L 350.433802 241.163453 
L 350.433802 240.422066 
L 351.580928 240.422066 
L 351.580928 241.904841 
L 352.728054 241.904841 
L 352.728054 241.534147 
L 353.875181 241.534147 
L 353.875181 242.090188 
L 355.022307 242.090188 
L 355.022307 243.016923 
L 356.169433 243.016923 
L 356.169433 241.534147 
L 357.316559 241.534147 
L 357.316559 243.016923 
L 358.463685 243.016923 
L 358.463685 243.387617 
L 359.610811 243.387617 
L 359.610811 241.904841 
L 360.757938 241.904841 
L 360.757938 243.016923 
L 361.905064 243.016923 
L 361.905064 244.129005 
L 363.05219 244.129005 
L 363.05219 242.460882 
L 364.199316 242.460882 
L 364.199316 244.314351 
L 365.346442 244.314351 
L 365.346442 244.499698 
L 366.493568 244.499698 
L 366.493568 243.758311 
L 367.640695 243.758311 
L 367.640695 243.572964 
L 368.787821 243.572964 
L 368.787821 244.499698 
L 369.934947 244.499698 
L 369.934947 243.387617 
L 371.082073 243.387617 
L 371.082073 243.20227 
L 372.229199 243.20227 
L 372.229199 243.943658 
L 374.523452 243.943658 
L 374.523452 244.499698 
L 376.817704 244.499698 
L 376.817704 243.943658 
L 377.96483 243.943658 
L 377.96483 244.870392 
L 379.111956 244.870392 
L 379.111956 244.314351 
L 380.259082 244.314351 
L 380.259082 244.499698 
L 381.406209 244.499698 
L 381.406209 244.685045 
L 382.553335 244.685045 
L 382.553335 244.870392 
L 383.700461 244.870392 
L 383.700461 244.129005 
L 384.847587 244.129005 
L 384.847587 244.685045 
L 385.994713 244.685045 
L 385.994713 245.055739 
L 387.141839 245.055739 
L 387.141839 244.499698 
L 388.288966 244.499698 
L 388.288966 245.055739 
L 389.436092 245.055739 
L 389.436092 245.426433 
L 391.730344 245.426433 
L 391.730344 244.870392 
L 392.87747 244.870392 
L 392.87747 245.426433 
L 394.024596 245.426433 
L 394.024596 244.499698 
L 395.171723 244.499698 
L 395.171723 245.426433 
L 399.760227 245.426433 
L 399.760227 245.241086 
L 400.907353 245.241086 
L 400.907353 245.797127 
L 403.201606 245.797127 
L 403.201606 245.61178 
L 404.348732 245.61178 
L 404.348732 245.055739 
L 405.495858 245.055739 
L 405.495858 245.797127 
L 406.642984 245.797127 
L 406.642984 245.426433 
L 407.79011 245.426433 
L 407.79011 245.797127 
L 408.937237 245.797127 
L 408.937237 245.61178 
L 410.084363 245.61178 
L 410.084363 245.241086 
L 411.231489 245.241086 
L 411.231489 245.426433 
L 412.378615 245.426433 
L 412.378615 245.797127 
L 413.525741 245.797127 
L 413.525741 245.426433 
L 414.672867 245.426433 
L 414.672867 245.426433 
" clip-path="url(#p344080ca7a)" style="fill: none; stroke: #1f77b4; stroke-width: 1.5; stroke-linecap: square"/>
   </g>
  </g>
  <g id="axes_2">
   <g id="patch_7">
    <path d="M 486.647885 257.158895 
L 865.19952 257.158895 
L 865.19952 7.2 
L 486.647885 7.2 
z
" style="fill: #ffffff"/>
   </g>
   <g id="matplotlib.axis_3">
    <g id="xtick_7">
     <g id="line2d_15">
      <g>
       <use xlink:href="#mab2ba38cab" x="500.370475" y="257.158895" style="stroke: #000000; stroke-width: 0.8"/>
      </g>
     </g>
     <g id="text_16">
      <!-- 0.0 -->
      <g transform="translate(492.418913 271.757332) scale(0.1 -0.1)">
       <defs>
        <path id="DejaVuSans-2e" d="M 684 794 
L 1344 794 
L 1344 0 
L 684 0 
L 684 794 
z
" transform="scale(0.015625)"/>
       </defs>
       <use xlink:href="#DejaVuSans-30"/>
       <use xlink:href="#DejaVuSans-2e" x="63.623047"/>
       <use xlink:href="#DejaVuSans-30" x="95.410156"/>
      </g>
     </g>
    </g>
    <g id="xtick_8">
     <g id="line2d_16">
      <g>
       <use xlink:href="#mab2ba38cab" x="544.22662" y="257.158895" style="stroke: #000000; stroke-width: 0.8"/>
      </g>
     </g>
     <g id="text_17">
      <!-- 2.5 -->
      <g transform="translate(536.275058 271.757332) scale(0.1 -0.1)">
       <use xlink:href="#DejaVuSans-32"/>
       <use xlink:href="#DejaVuSans-2e" x="63.623047"/>
       <use xlink:href="#DejaVuSans-35" x="95.410156"/>
      </g>
     </g>
    </g>
    <g id="xtick_9">
     <g id="line2d_17">
      <g>
       <use xlink:href="#mab2ba38cab" x="588.082765" y="257.158895" style="stroke: #000000; stroke-width: 0.8"/>
      </g>
     </g>
     <g id="text_18">
      <!-- 5.0 -->
      <g transform="translate(580.131203 271.757332) scale(0.1 -0.1)">
       <use xlink:href="#DejaVuSans-35"/>
       <use xlink:href="#DejaVuSans-2e" x="63.623047"/>
       <use xlink:href="#DejaVuSans-30" x="95.410156"/>
      </g>
     </g>
    </g>
    <g id="xtick_10">
     <g id="line2d_18">
      <g>
       <use xlink:href="#mab2ba38cab" x="631.93891" y="257.158895" style="stroke: #000000; stroke-width: 0.8"/>
      </g>
     </g>
     <g id="text_19">
      <!-- 7.5 -->
      <g transform="translate(623.987348 271.757332) scale(0.1 -0.1)">
       <defs>
        <path id="DejaVuSans-37" d="M 525 4666 
L 3525 4666 
L 3525 4397 
L 1831 0 
L 1172 0 
L 2766 4134 
L 525 4134 
L 525 4666 
z
" transform="scale(0.015625)"/>
       </defs>
       <use xlink:href="#DejaVuSans-37"/>
       <use xlink:href="#DejaVuSans-2e" x="63.623047"/>
       <use xlink:href="#DejaVuSans-35" x="95.410156"/>
      </g>
     </g>
    </g>
    <g id="xtick_11">
     <g id="line2d_19">
      <g>
       <use xlink:href="#mab2ba38cab" x="675.795055" y="257.158895" style="stroke: #000000; stroke-width: 0.8"/>
      </g>
     </g>
     <g id="text_20">
      <!-- 10.0 -->
      <g transform="translate(664.662242 271.757332) scale(0.1 -0.1)">
       <use xlink:href="#DejaVuSans-31"/>
       <use xlink:href="#DejaVuSans-30" x="63.623047"/>
       <use xlink:href="#DejaVuSans-2e" x="127.246094"/>
       <use xlink:href="#DejaVuSans-30" x="159.033203"/>
      </g>
     </g>
    </g>
    <g id="xtick_12">
     <g id="line2d_20">
      <g>
       <use xlink:href="#mab2ba38cab" x="719.6512" y="257.158895" style="stroke: #000000; stroke-width: 0.8"/>
      </g>
     </g>
     <g id="text_21">
      <!-- 12.5 -->
      <g transform="translate(708.518387 271.757332) scale(0.1 -0.1)">
       <use xlink:href="#DejaVuSans-31"/>
       <use xlink:href="#DejaVuSans-32" x="63.623047"/>
       <use xlink:href="#DejaVuSans-2e" x="127.246094"/>
       <use xlink:href="#DejaVuSans-35" x="159.033203"/>
      </g>
     </g>
    </g>
    <g id="xtick_13">
     <g id="line2d_21">
      <g>
       <use xlink:href="#mab2ba38cab" x="763.507345" y="257.158895" style="stroke: #000000; stroke-width: 0.8"/>
      </g>
     </g>
     <g id="text_22">
      <!-- 15.0 -->
      <g transform="translate(752.374532 271.757332) scale(0.1 -0.1)">
       <use xlink:href="#DejaVuSans-31"/>
       <use xlink:href="#DejaVuSans-35" x="63.623047"/>
       <use xlink:href="#DejaVuSans-2e" x="127.246094"/>
       <use xlink:href="#DejaVuSans-30" x="159.033203"/>
      </g>
     </g>
    </g>
    <g id="xtick_14">
     <g id="line2d_22">
      <g>
       <use xlink:href="#mab2ba38cab" x="807.36349" y="257.158895" style="stroke: #000000; stroke-width: 0.8"/>
      </g>
     </g>
     <g id="text_23">
      <!-- 17.5 -->
      <g transform="translate(796.230677 271.757332) scale(0.1 -0.1)">
       <use xlink:href="#DejaVuSans-31"/>
       <use xlink:href="#DejaVuSans-37" x="63.623047"/>
       <use xlink:href="#DejaVuSans-2e" x="127.246094"/>
       <use xlink:href="#DejaVuSans-35" x="159.033203"/>
      </g>
     </g>
    </g>
    <g id="xtick_15">
     <g id="line2d_23">
      <g>
       <use xlink:href="#mab2ba38cab" x="851.219635" y="257.158895" style="stroke: #000000; stroke-width: 0.8"/>
      </g>
     </g>
     <g id="text_24">
      <!-- 20.0 -->
      <g transform="translate(840.086822 271.757332) scale(0.1 -0.1)">
       <use xlink:href="#DejaVuSans-32"/>
       <use xlink:href="#DejaVuSans-30" x="63.623047"/>
       <use xlink:href="#DejaVuSans-2e" x="127.246094"/>
       <use xlink:href="#DejaVuSans-30" x="159.033203"/>
      </g>
     </g>
    </g>
    <g id="text_25">
     <!-- wavelength [Å] -->
     <g transform="translate(637.886202 287.119832) scale(0.1 -0.1)">
      <defs>
       <path id="DejaVuSans-77" d="M 269 3500 
L 844 3500 
L 1563 769 
L 2278 3500 
L 2956 3500 
L 3675 769 
L 4391 3500 
L 4966 3500 
L 4050 0 
L 3372 0 
L 2619 2869 
L 1863 0 
L 1184 0 
L 269 3500 
z
" transform="scale(0.015625)"/>
       <path id="DejaVuSans-61" d="M 2194 1759 
Q 1497 1759 1228 1600 
Q 959 1441 959 1056 
Q 959 750 1161 570 
Q 1363 391 1709 391 
Q 2188 391 2477 730 
Q 2766 1069 2766 1631 
L 2766 1759 
L 2194 1759 
z
M 3341 1997 
L 3341 0 
L 2766 0 
L 2766 531 
Q 2569 213 2275 61 
Q 1981 -91 1556 -91 
Q 1019 -91 701 211 
Q 384 513 384 1019 
Q 384 1609 779 1909 
Q 1175 2209 1959 2209 
L 2766 2209 
L 2766 2266 
Q 2766 2663 2505 2880 
Q 2244 3097 1772 3097 
Q 1472 3097 1187 3025 
Q 903 2953 641 2809 
L 641 3341 
Q 956 3463 1253 3523 
Q 1550 3584 1831 3584 
Q 2591 3584 2966 3190 
Q 3341 2797 3341 1997 
z
" transform="scale(0.015625)"/>
       <path id="DejaVuSans-76" d="M 191 3500 
L 800 3500 
L 1894 563 
L 2988 3500 
L 3597 3500 
L 2284 0 
L 1503 0 
L 191 3500 
z
" transform="scale(0.015625)"/>
       <path id="DejaVuSans-6c" d="M 603 4863 
L 1178 4863 
L 1178 0 
L 603 0 
L 603 4863 
z
" transform="scale(0.015625)"/>
       <path id="DejaVuSans-67" d="M 2906 1791 
Q 2906 2416 2648 2759 
Q 2391 3103 1925 3103 
Q 1463 3103 1205 2759 
Q 947 2416 947 1791 
Q 947 1169 1205 825 
Q 1463 481 1925 481 
Q 2391 481 2648 825 
Q 2906 1169 2906 1791 
z
M 3481 434 
Q 3481 -459 3084 -895 
Q 2688 -1331 1869 -1331 
Q 1566 -1331 1297 -1286 
Q 1028 -1241 775 -1147 
L 775 -588 
Q 1028 -725 1275 -790 
Q 1522 -856 1778 -856 
Q 2344 -856 2625 -561 
Q 2906 -266 2906 331 
L 2906 616 
Q 2728 306 2450 153 
Q 2172 0 1784 0 
Q 1141 0 747 490 
Q 353 981 353 1791 
Q 353 2603 747 3093 
Q 1141 3584 1784 3584 
Q 2172 3584 2450 3431 
Q 2728 3278 2906 2969 
L 2906 3500 
L 3481 3500 
L 3481 434 
z
" transform="scale(0.015625)"/>
       <path id="DejaVuSans-68" d="M 3513 2113 
L 3513 0 
L 2938 0 
L 2938 2094 
Q 2938 2591 2744 2837 
Q 2550 3084 2163 3084 
Q 1697 3084 1428 2787 
Q 1159 2491 1159 1978 
L 1159 0 
L 581 0 
L 581 4863 
L 1159 4863 
L 1159 2956 
Q 1366 3272 1645 3428 
Q 1925 3584 2291 3584 
Q 2894 3584 3203 3211 
Q 3513 2838 3513 2113 
z
" transform="scale(0.015625)"/>
       <path id="DejaVuSans-c5" d="M 2663 5081 
Q 2663 5278 2523 5417 
Q 2384 5556 2188 5556 
Q 1988 5556 1852 5420 
Q 1716 5284 1716 5081 
Q 1716 4884 1853 4746 
Q 1991 4609 2188 4609 
Q 2384 4609 2523 4746 
Q 2663 4884 2663 5081 
z
M 2188 4044 
L 1338 1722 
L 3041 1722 
L 2188 4044 
z
M 1716 4366 
Q 1525 4494 1428 4673 
Q 1331 4853 1331 5081 
Q 1331 5441 1579 5691 
Q 1828 5941 2188 5941 
Q 2544 5941 2795 5689 
Q 3047 5438 3047 5081 
Q 3047 4863 2948 4678 
Q 2850 4494 2663 4366 
L 4325 0 
L 3669 0 
L 3244 1197 
L 1141 1197 
L 716 0 
L 50 0 
L 1716 4366 
z
" transform="scale(0.015625)"/>
      </defs>
      <use xlink:href="#DejaVuSans-77"/>
      <use xlink:href="#DejaVuSans-61" x="81.787109"/>
      <use xlink:href="#DejaVuSans-76" x="143.066406"/>
      <use xlink:href="#DejaVuSans-65" x="202.246094"/>
      <use xlink:href="#DejaVuSans-6c" x="263.769531"/>
      <use xlink:href="#DejaVuSans-65" x="291.552734"/>
      <use xlink:href="#DejaVuSans-6e" x="353.076172"/>
      <use xlink:href="#DejaVuSans-67" x="416.455078"/>
      <use xlink:href="#DejaVuSans-74" x="479.931641"/>
      <use xlink:href="#DejaVuSans-68" x="519.140625"/>
      <use xlink:href="#DejaVuSans-20" x="582.519531"/>
      <use xlink:href="#DejaVuSans-5b" x="614.306641"/>
      <use xlink:href="#DejaVuSans-c5" x="653.320312"/>
      <use xlink:href="#DejaVuSans-5d" x="721.728516"/>
     </g>
    </g>
   </g>
   <g id="matplotlib.axis_4">
    <g id="ytick_8">
     <g id="line2d_24">
      <g>
       <use xlink:href="#m030cdc3cb1" x="486.647885" y="245.797127" style="stroke: #000000; stroke-width: 0.8"/>
      </g>
     </g>
     <g id="text_26">
      <!-- 0 -->
      <g transform="translate(473.285385 249.596346) scale(0.1 -0.1)">
       <use xlink:href="#DejaVuSans-30"/>
      </g>
     </g>
    </g>
    <g id="ytick_9">
     <g id="line2d_25">
      <g>
       <use xlink:href="#m030cdc3cb1" x="486.647885" y="192.729551" style="stroke: #000000; stroke-width: 0.8"/>
      </g>
     </g>
     <g id="text_27">
      <!-- 1000 -->
      <g transform="translate(454.197885 196.52877) scale(0.1 -0.1)">
       <use xlink:href="#DejaVuSans-31"/>
       <use xlink:href="#DejaVuSans-30" x="63.623047"/>
       <use xlink:href="#DejaVuSans-30" x="127.246094"/>
       <use xlink:href="#DejaVuSans-30" x="190.869141"/>
      </g>
     </g>
    </g>
    <g id="ytick_10">
     <g id="line2d_26">
      <g>
       <use xlink:href="#m030cdc3cb1" x="486.647885" y="139.661976" style="stroke: #000000; stroke-width: 0.8"/>
      </g>
     </g>
     <g id="text_28">
      <!-- 2000 -->
      <g transform="translate(454.197885 143.461194) scale(0.1 -0.1)">
       <use xlink:href="#DejaVuSans-32"/>
       <use xlink:href="#DejaVuSans-30" x="63.623047"/>
       <use xlink:href="#DejaVuSans-30" x="127.246094"/>
       <use xlink:href="#DejaVuSans-30" x="190.869141"/>
      </g>
     </g>
    </g>
    <g id="ytick_11">
     <g id="line2d_27">
      <g>
       <use xlink:href="#m030cdc3cb1" x="486.647885" y="86.5944" style="stroke: #000000; stroke-width: 0.8"/>
      </g>
     </g>
     <g id="text_29">
      <!-- 3000 -->
      <g transform="translate(454.197885 90.393619) scale(0.1 -0.1)">
       <use xlink:href="#DejaVuSans-33"/>
       <use xlink:href="#DejaVuSans-30" x="63.623047"/>
       <use xlink:href="#DejaVuSans-30" x="127.246094"/>
       <use xlink:href="#DejaVuSans-30" x="190.869141"/>
      </g>
     </g>
    </g>
    <g id="ytick_12">
     <g id="line2d_28">
      <g>
       <use xlink:href="#m030cdc3cb1" x="486.647885" y="33.526824" style="stroke: #000000; stroke-width: 0.8"/>
      </g>
     </g>
     <g id="text_30">
      <!-- 4000 -->
      <g transform="translate(454.197885 37.326043) scale(0.1 -0.1)">
       <use xlink:href="#DejaVuSans-34"/>
       <use xlink:href="#DejaVuSans-30" x="63.623047"/>
       <use xlink:href="#DejaVuSans-30" x="127.246094"/>
       <use xlink:href="#DejaVuSans-30" x="190.869141"/>
      </g>
     </g>
    </g>
    <g id="text_31">
     <!-- [counts] -->
     <g transform="translate(448.118197 152.791947) rotate(-90) scale(0.1 -0.1)">
      <use xlink:href="#DejaVuSans-5b"/>
      <use xlink:href="#DejaVuSans-63" x="39.013672"/>
      <use xlink:href="#DejaVuSans-6f" x="93.994141"/>
      <use xlink:href="#DejaVuSans-75" x="155.175781"/>
      <use xlink:href="#DejaVuSans-6e" x="218.554688"/>
      <use xlink:href="#DejaVuSans-74" x="281.933594"/>
      <use xlink:href="#DejaVuSans-73" x="321.142578"/>
      <use xlink:href="#DejaVuSans-5d" x="373.242188"/>
     </g>
    </g>
   </g>
   <g id="patch_8">
    <path d="M 486.647885 257.158895 
L 486.647885 7.2 
" style="fill: none; stroke: #000000; stroke-width: 0.8; stroke-linejoin: miter; stroke-linecap: square"/>
   </g>
   <g id="patch_9">
    <path d="M 865.19952 257.158895 
L 865.19952 7.2 
" style="fill: none; stroke: #000000; stroke-width: 0.8; stroke-linejoin: miter; stroke-linecap: square"/>
   </g>
   <g id="patch_10">
    <path d="M 486.647885 257.158895 
L 865.19952 257.158895 
" style="fill: none; stroke: #000000; stroke-width: 0.8; stroke-linejoin: miter; stroke-linecap: square"/>
   </g>
   <g id="patch_11">
    <path d="M 486.647885 7.2 
L 865.19952 7.2 
" style="fill: none; stroke: #000000; stroke-width: 0.8; stroke-linejoin: miter; stroke-linecap: square"/>
   </g>
   <g id="line2d_29">
    <path d="M 503.854777 155.741451 
L 505.001904 155.741451 
L 505.001904 142.474557 
L 506.14903 142.474557 
L 506.14903 135.947245 
L 507.296156 135.947245 
L 507.296156 134.779759 
L 508.443282 134.779759 
L 508.443282 144.544193 
L 509.590408 144.544193 
L 509.590408 152.557397 
L 510.737534 152.557397 
L 510.737534 149.479477 
L 511.884661 149.479477 
L 511.884661 124.378514 
L 513.031787 124.378514 
L 513.031787 105.380322 
L 514.178913 105.380322 
L 514.178913 85.108508 
L 515.326039 85.108508 
L 515.326039 54.85999 
L 516.473165 54.85999 
L 516.473165 39.258122 
L 517.620291 39.258122 
L 517.620291 18.561768 
L 518.767418 18.561768 
L 518.767418 21.055944 
L 519.914544 21.055944 
L 519.914544 19.994592 
L 521.06167 19.994592 
L 521.06167 23.656255 
L 522.208796 23.656255 
L 522.208796 31.722527 
L 523.355922 31.722527 
L 523.355922 41.699231 
L 524.503048 41.699231 
L 524.503048 57.619504 
L 525.650175 57.619504 
L 525.650175 60.219815 
L 526.797301 60.219815 
L 526.797301 72.106952 
L 527.944427 72.106952 
L 527.944427 81.55298 
L 529.091553 81.55298 
L 529.091553 83.30421 
L 530.238679 83.30421 
L 530.238679 95.297482 
L 531.385805 95.297482 
L 531.385805 92.537968 
L 532.532932 92.537968 
L 532.532932 96.199631 
L 533.680058 96.199631 
L 533.680058 92.007293 
L 534.827184 92.007293 
L 534.827184 96.730307 
L 535.97431 96.730307 
L 535.97431 91.529685 
L 537.121436 91.529685 
L 537.121436 84.312494 
L 538.268562 84.312494 
L 538.268562 87.018941 
L 539.415689 87.018941 
L 539.415689 65.526572 
L 540.562815 65.526572 
L 540.562815 60.379018 
L 541.709941 60.379018 
L 541.709941 54.753855 
L 542.857067 54.753855 
L 542.857067 42.017636 
L 544.004193 42.017636 
L 544.004193 38.886649 
L 545.151319 38.886649 
L 545.151319 33.261486 
L 546.298446 33.261486 
L 546.298446 34.163635 
L 547.445572 34.163635 
L 547.445572 47.642799 
L 548.592698 47.642799 
L 548.592698 54.541584 
L 549.739824 54.541584 
L 549.739824 65.208167 
L 550.88695 65.208167 
L 550.88695 73.911249 
L 552.034076 73.911249 
L 552.034076 87.231211 
L 553.181203 87.231211 
L 553.181203 98.269267 
L 554.328329 98.269267 
L 554.328329 100.39197 
L 555.475455 100.39197 
L 555.475455 104.531241 
L 556.622581 104.531241 
L 556.622581 116.895986 
L 557.769707 116.895986 
L 557.769707 126.342014 
L 558.916833 126.342014 
L 558.916833 127.191095 
L 560.06396 127.191095 
L 560.06396 137.38007 
L 561.211086 137.38007 
L 561.211086 143.217503 
L 562.358212 143.217503 
L 562.358212 144.38499 
L 563.505338 144.38499 
L 563.505338 149.904018 
L 564.652464 149.904018 
L 564.652464 157.545749 
L 565.79959 157.545749 
L 565.79959 157.015073 
L 566.946717 157.015073 
L 566.946717 162.693304 
L 568.093843 162.693304 
L 568.093843 167.416318 
L 569.240969 167.416318 
L 569.240969 172.670008 
L 570.388095 172.670008 
L 570.388095 177.923698 
L 571.535221 177.923698 
L 571.535221 179.356522 
L 572.682347 179.356522 
L 572.682347 181.054685 
L 573.829474 181.054685 
L 573.829474 182.487509 
L 574.9766 182.487509 
L 574.9766 187.581997 
L 576.123726 187.581997 
L 576.123726 190.288443 
L 577.270852 190.288443 
L 577.270852 190.978321 
L 578.417978 190.978321 
L 578.417978 195.276795 
L 579.565104 195.276795 
L 579.565104 195.913606 
L 580.712231 195.913606 
L 580.712231 198.832323 
L 581.859357 198.832323 
L 581.859357 200.42435 
L 583.006483 200.42435 
L 583.006483 203.71454 
L 584.153609 203.71454 
L 584.153609 206.474053 
L 585.300735 206.474053 
L 585.300735 207.906878 
L 586.447861 207.906878 
L 586.447861 210.825595 
L 587.594988 210.825595 
L 587.594988 209.870378 
L 588.742114 209.870378 
L 588.742114 212.576825 
L 589.88924 212.576825 
L 589.88924 212.311487 
L 591.036366 212.311487 
L 591.036366 214.115784 
L 592.183492 214.115784 
L 592.183492 217.989717 
L 593.330618 217.989717 
L 593.330618 215.389406 
L 594.477745 215.389406 
L 594.477745 216.769163 
L 595.624871 216.769163 
L 595.624871 219.581745 
L 596.771997 219.581745 
L 596.771997 220.961502 
L 597.919123 220.961502 
L 597.919123 221.916718 
L 599.066249 221.916718 
L 599.066249 224.251691 
L 600.213375 224.251691 
L 600.213375 224.782367 
L 601.360502 224.782367 
L 601.360502 225.949854 
L 602.507628 225.949854 
L 602.507628 224.676232 
L 603.654754 224.676232 
L 603.654754 226.852003 
L 604.80188 226.852003 
L 604.80188 227.170408 
L 605.949006 227.170408 
L 605.949006 230.354463 
L 607.096132 230.354463 
L 607.096132 228.44403 
L 608.243259 228.44403 
L 608.243259 230.354463 
L 609.390385 230.354463 
L 609.390385 229.982989 
L 610.537511 229.982989 
L 610.537511 230.248327 
L 611.684637 230.248327 
L 611.684637 229.982989 
L 612.831763 229.982989 
L 612.831763 231.628084 
L 613.978889 231.628084 
L 613.978889 231.362746 
L 615.126016 231.362746 
L 615.126016 231.94649 
L 616.273142 231.94649 
L 616.273142 232.742503 
L 617.420268 232.742503 
L 617.420268 233.485449 
L 618.567394 233.485449 
L 618.567394 235.024409 
L 619.71452 235.024409 
L 619.71452 234.228396 
L 620.861646 234.228396 
L 620.861646 235.714288 
L 623.155899 235.767355 
L 623.155899 234.918274 
L 624.303025 234.918274 
L 624.303025 235.502017 
L 626.597277 235.44895 
L 626.597277 236.828707 
L 627.744403 236.828707 
L 627.744403 237.147112 
L 628.89153 237.147112 
L 628.89153 237.571653 
L 632.332908 237.465518 
L 632.332908 239.16368 
L 633.480034 239.16368 
L 633.480034 237.306315 
L 634.62716 237.306315 
L 634.62716 238.367666 
L 635.774287 238.367666 
L 635.774287 238.845275 
L 636.921413 238.845275 
L 636.921413 238.579937 
L 638.068539 238.579937 
L 638.068539 240.012761 
L 639.215665 240.012761 
L 639.215665 239.747423 
L 640.362791 239.747423 
L 640.362791 240.543437 
L 642.657044 240.437302 
L 642.657044 239.853559 
L 643.80417 239.853559 
L 643.80417 239.16368 
L 644.951296 239.16368 
L 644.951296 240.331167 
L 646.098422 240.331167 
L 646.098422 241.12718 
L 648.392674 241.233316 
L 648.392674 240.755707 
L 649.539801 240.755707 
L 649.539801 240.278099 
L 650.686927 240.278099 
L 650.686927 241.498653 
L 651.834053 241.498653 
L 651.834053 241.12718 
L 652.981179 241.12718 
L 652.981179 241.339451 
L 654.128305 241.339451 
L 654.128305 242.029329 
L 656.422558 242.029329 
L 656.422558 241.286383 
L 657.569684 241.286383 
L 657.569684 241.976262 
L 658.71681 241.976262 
L 658.71681 242.87841 
L 659.863936 242.87841 
L 659.863936 241.657856 
L 661.011062 241.657856 
L 661.011062 242.347735 
L 662.158188 242.347735 
L 662.158188 243.037613 
L 663.305315 243.037613 
L 663.305315 242.506937 
L 665.599567 242.560005 
L 665.599567 243.409086 
L 666.746693 243.409086 
L 666.746693 242.66614 
L 667.893819 242.66614 
L 667.893819 242.984546 
L 669.040945 242.984546 
L 669.040945 242.347735 
L 670.188072 242.347735 
L 670.188072 243.143748 
L 671.335198 243.143748 
L 671.335198 243.621356 
L 672.482324 243.621356 
L 672.482324 242.400802 
L 673.62945 242.400802 
L 673.62945 242.931478 
L 674.776576 242.931478 
L 674.776576 242.772275 
L 675.923702 242.772275 
L 675.923702 243.886694 
L 677.070829 243.886694 
L 677.070829 242.560005 
L 678.217955 242.560005 
L 678.217955 243.727492 
L 679.365081 243.727492 
L 679.365081 243.302951 
L 680.512207 243.302951 
L 680.512207 243.621356 
L 681.659333 243.621356 
L 681.659333 243.886694 
L 682.806459 243.886694 
L 682.806459 243.515221 
L 685.100712 243.621356 
L 685.100712 243.833627 
L 686.247838 243.833627 
L 686.247838 244.311235 
L 687.394964 244.311235 
L 687.394964 243.939762 
L 688.54209 243.939762 
L 688.54209 243.249883 
L 689.689216 243.249883 
L 689.689216 244.311235 
L 690.836343 244.311235 
L 690.836343 243.249883 
L 691.983469 243.249883 
L 691.983469 243.409086 
L 693.130595 243.409086 
L 693.130595 244.2051 
L 694.277721 244.2051 
L 694.277721 244.576573 
L 695.424847 244.576573 
L 695.424847 244.258167 
L 696.571973 244.258167 
L 696.571973 243.992829 
L 697.7191 243.992829 
L 697.7191 244.152032 
L 698.866226 244.152032 
L 698.866226 244.364303 
L 700.013352 244.364303 
L 700.013352 244.152032 
L 701.160478 244.152032 
L 701.160478 244.364303 
L 704.601857 244.470438 
L 704.601857 244.523505 
L 705.748983 244.523505 
L 705.748983 244.364303 
L 706.896109 244.364303 
L 706.896109 243.939762 
L 708.043235 243.939762 
L 708.043235 244.470438 
L 709.190361 244.470438 
L 709.190361 245.107249 
L 710.337487 245.107249 
L 710.337487 244.788843 
L 711.484614 244.788843 
L 711.484614 244.364303 
L 712.63174 244.364303 
L 712.63174 244.735776 
L 713.778866 244.735776 
L 713.778866 244.523505 
L 718.367371 244.523505 
L 718.367371 244.948046 
L 719.514497 244.948046 
L 719.514497 244.735776 
L 720.661623 244.735776 
L 720.661623 244.576573 
L 721.808749 244.576573 
L 721.808749 245.054181 
L 725.250128 245.054181 
L 725.250128 244.894978 
L 727.54438 244.948046 
L 727.54438 245.319519 
L 728.691506 245.319519 
L 728.691506 245.001113 
L 729.838632 245.001113 
L 729.838632 245.160316 
L 732.132885 245.054181 
L 732.132885 244.894978 
L 734.427137 244.894978 
L 734.427137 245.160316 
L 735.574263 245.160316 
L 735.574263 245.425654 
L 736.721389 245.425654 
L 736.721389 245.107249 
L 737.868515 245.107249 
L 737.868515 244.948046 
L 743.604146 245.054181 
L 743.604146 245.425654 
L 744.751272 245.425654 
L 744.751272 245.266451 
L 745.898399 245.266451 
L 745.898399 245.425654 
L 747.045525 245.425654 
L 747.045525 245.001113 
L 748.192651 245.001113 
L 748.192651 245.319519 
L 750.486903 245.266451 
L 750.486903 244.788843 
L 751.634029 244.788843 
L 751.634029 245.160316 
L 752.781156 245.160316 
L 752.781156 245.372586 
L 755.075408 245.266451 
L 755.075408 245.531789 
L 756.222534 245.531789 
L 756.222534 245.372586 
L 757.36966 245.372586 
L 757.36966 244.894978 
L 758.516786 244.894978 
L 758.516786 245.266451 
L 759.663913 245.266451 
L 759.663913 245.425654 
L 760.811039 245.425654 
L 760.811039 245.637924 
L 761.958165 245.637924 
L 761.958165 245.478722 
L 763.105291 245.478722 
L 763.105291 245.160316 
L 765.399543 245.054181 
L 765.399543 245.372586 
L 769.988048 245.425654 
L 769.988048 245.213384 
L 771.135174 245.213384 
L 771.135174 245.531789 
L 776.870805 245.584857 
L 776.870805 245.372586 
L 778.017931 245.372586 
L 778.017931 245.531789 
L 784.900688 245.478722 
L 784.900688 245.319519 
L 786.047814 245.319519 
L 786.047814 245.531789 
L 788.342067 245.531789 
L 788.342067 245.744059 
L 789.489193 245.744059 
L 789.489193 245.372586 
L 795.224824 245.425654 
L 795.224824 245.531789 
L 797.519076 245.531789 
L 797.519076 245.690992 
L 808.990338 245.584857 
L 808.990338 245.372586 
L 810.137464 245.372586 
L 810.137464 245.690992 
L 812.431716 245.744059 
L 812.431716 245.531789 
L 813.578842 245.531789 
L 813.578842 245.690992 
L 820.461599 245.690992 
L 820.461599 245.425654 
L 821.608726 245.425654 
L 821.608726 245.744059 
L 822.755852 245.744059 
L 822.755852 245.584857 
L 823.902978 245.584857 
L 823.902978 245.797127 
L 825.050104 245.797127 
L 825.050104 245.584857 
L 828.491483 245.690992 
L 828.491483 245.744059 
L 836.521366 245.637924 
L 836.521366 245.584857 
L 842.256997 245.690992 
L 842.256997 245.744059 
L 847.992627 245.744059 
L 847.992627 245.744059 
" clip-path="url(#p33f36ba491)" style="fill: none; stroke: #1f77b4; stroke-width: 1.5; stroke-linecap: square"/>
   </g>
  </g>
 </g>
 <defs>
  <clipPath id="p344080ca7a">
   <rect x="53.328125" y="7.2" width="378.551635" height="249.958895"/>
  </clipPath>
  <clipPath id="p33f36ba491">
   <rect x="486.647885" y="7.2" width="378.551635" height="249.958895"/>
  </clipPath>
 </defs>
</svg>
