<?xml version="1.0" encoding="UTF-8" standalone="no"?>
<!DOCTYPE svg PUBLIC "-//W3C//DTD SVG 1.1//EN"
 "http://www.w3.org/Graphics/SVG/1.1/DTD/svg11.dtd">
<!-- Generated by graphviz version 14.0.4 (20251117.0720)
 -->
<!-- Pages: 1 -->
<svg width="906pt" height="523pt"
 viewBox="0.00 0.00 906.00 523.00" xmlns="http://www.w3.org/2000/svg" xmlns:xlink="http://www.w3.org/1999/xlink">
<g id="graph0" class="graph" transform="scale(1 1) rotate(0) translate(4 519.25)">
<polygon fill="white" stroke="none" points="-4,4 -4,-519.25 901.75,-519.25 901.75,4 -4,4"/>
<!-- source_position -->
<g id="node1" class="node">
<title>source_position</title>
<polygon fill="none" stroke="black" points="456.88,-515.25 329.88,-515.25 329.88,-490 456.88,-490 456.88,-515.25"/>
<text xml:space="preserve" text-anchor="middle" x="393.38" y="-497.95" font-family="Times,serif" font-size="14.00">source_position</text>
</g>
<!-- incident_beam -->
<g id="node2" class="node">
<title>incident_beam</title>
<polygon fill="none" stroke="black" points="518.12,-454 398.62,-454 398.62,-428.75 518.12,-428.75 518.12,-454"/>
<text xml:space="preserve" text-anchor="middle" x="458.38" y="-436.7" font-family="Times,serif" font-size="14.00">incident_beam</text>
</g>
<!-- source_position&#45;&gt;incident_beam -->
<g id="edge1" class="edge">
<title>source_position&#45;&gt;incident_beam</title>
<path fill="none" stroke="black" d="M406.53,-489.63C415.25,-481.68 426.9,-471.07 436.94,-461.91"/>
<polygon fill="black" stroke="black" points="439.09,-464.69 444.12,-455.37 434.37,-459.52 439.09,-464.69"/>
</g>
<!-- L1 -->
<g id="node6" class="node">
<title>L1</title>
<polygon fill="none" stroke="black" points="372.38,-392.75 318.38,-392.75 318.38,-367.5 372.38,-367.5 372.38,-392.75"/>
<text xml:space="preserve" text-anchor="middle" x="345.38" y="-375.45" font-family="Times,serif" font-size="14.00">L1</text>
</g>
<!-- incident_beam&#45;&gt;L1 -->
<g id="edge5" class="edge">
<title>incident_beam&#45;&gt;L1</title>
<path fill="none" stroke="black" d="M435.51,-428.38C419.04,-419.75 396.59,-407.98 378.21,-398.34"/>
<polygon fill="black" stroke="black" points="380.03,-395.34 369.55,-393.8 376.78,-401.54 380.03,-395.34"/>
</g>
<!-- two_theta -->
<g id="node8" class="node">
<title>two_theta</title>
<polygon fill="none" stroke="black" points="143.62,-331.5 57.12,-331.5 57.12,-306.25 143.62,-306.25 143.62,-331.5"/>
<text xml:space="preserve" text-anchor="middle" x="100.38" y="-314.2" font-family="Times,serif" font-size="14.00">two_theta</text>
</g>
<!-- incident_beam&#45;&gt;two_theta -->
<g id="edge7" class="edge">
<title>incident_beam&#45;&gt;two_theta</title>
<path fill="none" stroke="black" d="M398.31,-431.92C353.37,-424.5 290.88,-411.89 238.38,-392.75 198.65,-378.27 156.07,-354.36 128.88,-337.9"/>
<polygon fill="black" stroke="black" points="130.9,-335.03 120.55,-332.78 127.24,-341 130.9,-335.03"/>
</g>
<!-- Qx -->
<g id="node21" class="node">
<title>Qx</title>
<polygon fill="none" stroke="black" points="647.38,-209 593.38,-209 593.38,-183.75 647.38,-183.75 647.38,-209"/>
<text xml:space="preserve" text-anchor="middle" x="620.38" y="-191.7" font-family="Times,serif" font-size="14.00">Qx</text>
</g>
<!-- incident_beam&#45;&gt;Qx -->
<g id="edge26" class="edge">
<title>incident_beam&#45;&gt;Qx</title>
<path fill="none" stroke="black" d="M467.8,-428.42C475.22,-418.9 485.71,-405.15 494.38,-392.75 537.52,-331.03 584.7,-255.49 607.12,-219.07"/>
<polygon fill="black" stroke="black" points="609.97,-221.12 612.22,-210.76 604,-217.46 609.97,-221.12"/>
</g>
<!-- Qy -->
<g id="node22" class="node">
<title>Qy</title>
<polygon fill="none" stroke="black" points="501.38,-209 447.38,-209 447.38,-183.75 501.38,-183.75 501.38,-209"/>
<text xml:space="preserve" text-anchor="middle" x="474.38" y="-191.7" font-family="Times,serif" font-size="14.00">Qy</text>
</g>
<!-- incident_beam&#45;&gt;Qy -->
<g id="edge29" class="edge">
<title>incident_beam&#45;&gt;Qy</title>
<path fill="none" stroke="black" d="M459.17,-428.32C461.68,-390.19 469.48,-271.65 472.83,-220.86"/>
<polygon fill="black" stroke="black" points="476.31,-221.22 473.48,-211.01 469.33,-220.76 476.31,-221.22"/>
</g>
<!-- Qz -->
<g id="node23" class="node">
<title>Qz</title>
<polygon fill="none" stroke="black" points="575.38,-209 521.38,-209 521.38,-183.75 575.38,-183.75 575.38,-209"/>
<text xml:space="preserve" text-anchor="middle" x="548.38" y="-191.7" font-family="Times,serif" font-size="14.00">Qz</text>
</g>
<!-- incident_beam&#45;&gt;Qz -->
<g id="edge32" class="edge">
<title>incident_beam&#45;&gt;Qz</title>
<path fill="none" stroke="black" d="M462.84,-428.64C466.5,-419.01 471.8,-405.01 476.38,-392.75 499.76,-330.1 526.94,-255.98 540.22,-219.68"/>
<polygon fill="black" stroke="black" points="543.36,-221.3 543.51,-210.7 536.78,-218.89 543.36,-221.3"/>
</g>
<!-- sample_position -->
<g id="node3" class="node">
<title>sample_position</title>
<polygon fill="none" stroke="black" points="605.75,-515.25 475,-515.25 475,-490 605.75,-490 605.75,-515.25"/>
<text xml:space="preserve" text-anchor="middle" x="540.38" y="-497.95" font-family="Times,serif" font-size="14.00">sample_position</text>
</g>
<!-- sample_position&#45;&gt;incident_beam -->
<g id="edge2" class="edge">
<title>sample_position&#45;&gt;incident_beam</title>
<path fill="none" stroke="black" d="M523.78,-489.63C512.44,-481.44 497.19,-470.42 484.27,-461.09"/>
<polygon fill="black" stroke="black" points="486.33,-458.25 476.17,-455.23 482.23,-463.93 486.33,-458.25"/>
</g>
<!-- scattered_beam -->
<g id="node5" class="node">
<title>scattered_beam</title>
<polygon fill="none" stroke="black" points="665,-454 535.75,-454 535.75,-428.75 665,-428.75 665,-454"/>
<text xml:space="preserve" text-anchor="middle" x="600.38" y="-436.7" font-family="Times,serif" font-size="14.00">scattered_beam</text>
</g>
<!-- sample_position&#45;&gt;scattered_beam -->
<g id="edge4" class="edge">
<title>sample_position&#45;&gt;scattered_beam</title>
<path fill="none" stroke="black" d="M552.52,-489.63C560.49,-481.76 571.1,-471.28 580.31,-462.19"/>
<polygon fill="black" stroke="black" points="582.52,-464.93 587.17,-455.41 577.6,-459.95 582.52,-464.93"/>
</g>
<!-- position -->
<g id="node4" class="node">
<title>position</title>
<polygon fill="none" stroke="black" points="696.88,-515.25 623.88,-515.25 623.88,-490 696.88,-490 696.88,-515.25"/>
<text xml:space="preserve" text-anchor="middle" x="660.38" y="-497.95" font-family="Times,serif" font-size="14.00">position</text>
</g>
<!-- position&#45;&gt;scattered_beam -->
<g id="edge3" class="edge">
<title>position&#45;&gt;scattered_beam</title>
<path fill="none" stroke="black" d="M648.23,-489.63C640.26,-481.76 629.65,-471.28 620.44,-462.19"/>
<polygon fill="black" stroke="black" points="623.15,-459.95 613.58,-455.41 618.23,-464.93 623.15,-459.95"/>
</g>
<!-- L2 -->
<g id="node7" class="node">
<title>L2</title>
<polygon fill="none" stroke="black" points="444.38,-392.75 390.38,-392.75 390.38,-367.5 444.38,-367.5 444.38,-392.75"/>
<text xml:space="preserve" text-anchor="middle" x="417.38" y="-375.45" font-family="Times,serif" font-size="14.00">L2</text>
</g>
<!-- scattered_beam&#45;&gt;L2 -->
<g id="edge6" class="edge">
<title>scattered_beam&#45;&gt;L2</title>
<path fill="none" stroke="black" d="M563.34,-428.38C531.95,-418.22 487.11,-403.7 455.43,-393.45"/>
<polygon fill="black" stroke="black" points="456.85,-390.23 446.26,-390.48 454.7,-396.89 456.85,-390.23"/>
</g>
<!-- scattered_beam&#45;&gt;two_theta -->
<g id="edge8" class="edge">
<title>scattered_beam&#45;&gt;two_theta</title>
<path fill="none" stroke="black" d="M535.38,-430.03C452.98,-416.87 320.26,-395.52 309.38,-392.75 249.2,-377.46 181.74,-352.44 140.15,-336.07"/>
<polygon fill="black" stroke="black" points="141.64,-332.89 131.05,-332.46 139.06,-339.4 141.64,-332.89"/>
</g>
<!-- scattered_beam&#45;&gt;Qx -->
<g id="edge27" class="edge">
<title>scattered_beam&#45;&gt;Qx</title>
<path fill="none" stroke="black" d="M613.7,-428.51C622.58,-419.66 633.48,-406.73 638.38,-392.75 660.07,-330.77 650.18,-309.6 638.38,-245 636.82,-236.47 633.81,-227.49 630.69,-219.65"/>
<polygon fill="black" stroke="black" points="633.96,-218.37 626.8,-210.56 627.52,-221.13 633.96,-218.37"/>
</g>
<!-- scattered_beam&#45;&gt;Qy -->
<g id="edge30" class="edge">
<title>scattered_beam&#45;&gt;Qy</title>
<path fill="none" stroke="black" d="M594.13,-428.32C574.18,-389.86 511.84,-269.63 485.89,-219.58"/>
<polygon fill="black" stroke="black" points="489.07,-218.11 481.36,-210.84 482.85,-221.33 489.07,-218.11"/>
</g>
<!-- scattered_beam&#45;&gt;Qz -->
<g id="edge33" class="edge">
<title>scattered_beam&#45;&gt;Qz</title>
<path fill="none" stroke="black" d="M602.13,-428.34C605.21,-404.62 610.36,-350.31 600.38,-306.25 593.09,-274.09 575.1,-240.32 562.33,-219.07"/>
<polygon fill="black" stroke="black" points="565.41,-217.4 557.18,-210.73 559.46,-221.08 565.41,-217.4"/>
</g>
<!-- Ltotal -->
<g id="node9" class="node">
<title>Ltotal</title>
<polygon fill="none" stroke="black" points="380.38,-331.5 322.38,-331.5 322.38,-306.25 380.38,-306.25 380.38,-331.5"/>
<text xml:space="preserve" text-anchor="middle" x="351.38" y="-314.2" font-family="Times,serif" font-size="14.00">Ltotal</text>
</g>
<!-- L1&#45;&gt;Ltotal -->
<g id="edge9" class="edge">
<title>L1&#45;&gt;Ltotal</title>
<path fill="none" stroke="black" d="M346.59,-367.13C347.29,-360.23 348.19,-351.31 349.02,-343.09"/>
<polygon fill="black" stroke="black" points="352.48,-343.65 350.01,-333.35 345.52,-342.95 352.48,-343.65"/>
</g>
<!-- L2&#45;&gt;Ltotal -->
<g id="edge10" class="edge">
<title>L2&#45;&gt;Ltotal</title>
<path fill="none" stroke="black" d="M404.02,-367.13C395.16,-359.18 383.34,-348.57 373.14,-339.41"/>
<polygon fill="black" stroke="black" points="375.62,-336.93 365.84,-332.86 370.94,-342.14 375.62,-336.93"/>
</g>
<!-- time_at_sample -->
<g id="node26" class="node">
<title>time_at_sample</title>
<polygon fill="none" stroke="black" points="363.88,-209 236.88,-209 236.88,-183.75 363.88,-183.75 363.88,-209"/>
<text xml:space="preserve" text-anchor="middle" x="300.38" y="-191.7" font-family="Times,serif" font-size="14.00">time_at_sample</text>
</g>
<!-- L2&#45;&gt;time_at_sample -->
<g id="edge38" class="edge">
<title>L2&#45;&gt;time_at_sample</title>
<path fill="none" stroke="black" d="M421.21,-367.08C428.44,-341.92 441.15,-282.95 415.38,-245 405.62,-230.63 390.65,-220.59 374.7,-213.57"/>
<polygon fill="black" stroke="black" points="376.12,-210.37 365.53,-209.94 373.54,-216.88 376.12,-210.37"/>
</g>
<!-- dspacing -->
<g id="node11" class="node">
<title>dspacing</title>
<polygon fill="none" stroke="black" points="140.25,-270.25 60.5,-270.25 60.5,-245 140.25,-245 140.25,-270.25"/>
<text xml:space="preserve" text-anchor="middle" x="100.38" y="-252.95" font-family="Times,serif" font-size="14.00">dspacing</text>
</g>
<!-- two_theta&#45;&gt;dspacing -->
<g id="edge13" class="edge">
<title>two_theta&#45;&gt;dspacing</title>
<path fill="none" stroke="black" d="M100.38,-305.88C100.38,-298.98 100.38,-290.06 100.38,-281.84"/>
<polygon fill="black" stroke="black" points="103.88,-282.11 100.38,-272.11 96.88,-282.11 103.88,-282.11"/>
</g>
<!-- d_perp -->
<g id="node28" class="node">
<title>d_perp</title>
<polygon fill="none" stroke="black" points="64.75,-209 0,-209 0,-183.75 64.75,-183.75 64.75,-209"/>
<text xml:space="preserve" text-anchor="middle" x="32.38" y="-191.7" font-family="Times,serif" font-size="14.00">d_perp</text>
</g>
<!-- two_theta&#45;&gt;d_perp -->
<g id="edge42" class="edge">
<title>two_theta&#45;&gt;d_perp</title>
<path fill="none" stroke="black" d="M83.99,-305.86C73.21,-297.13 59.61,-284.4 51.38,-270.25 42.53,-255.07 37.74,-235.74 35.18,-220.81"/>
<polygon fill="black" stroke="black" points="38.65,-220.37 33.73,-210.98 31.73,-221.39 38.65,-220.37"/>
</g>
<!-- Ltotal&#45;&gt;dspacing -->
<g id="edge12" class="edge">
<title>Ltotal&#45;&gt;dspacing</title>
<path fill="none" stroke="black" d="M322.09,-310.96C280.37,-301.11 203.2,-282.9 151.82,-270.77"/>
<polygon fill="black" stroke="black" points="152.64,-267.37 142.1,-268.48 151.03,-274.18 152.64,-267.37"/>
</g>
<!-- wavelength -->
<g id="node24" class="node">
<title>wavelength</title>
<polygon fill="none" stroke="black" points="406.62,-270.25 308.12,-270.25 308.12,-245 406.62,-245 406.62,-270.25"/>
<text xml:space="preserve" text-anchor="middle" x="357.38" y="-252.95" font-family="Times,serif" font-size="14.00">wavelength</text>
</g>
<!-- Ltotal&#45;&gt;wavelength -->
<g id="edge35" class="edge">
<title>Ltotal&#45;&gt;wavelength</title>
<path fill="none" stroke="black" d="M352.59,-305.88C353.29,-298.98 354.19,-290.06 355.02,-281.84"/>
<polygon fill="black" stroke="black" points="358.48,-282.4 356.01,-272.1 351.52,-281.7 358.48,-282.4"/>
</g>
<!-- tof -->
<g id="node10" class="node">
<title>tof</title>
<polygon fill="none" stroke="black" points="215.38,-331.5 161.38,-331.5 161.38,-306.25 215.38,-306.25 215.38,-331.5"/>
<text xml:space="preserve" text-anchor="middle" x="188.38" y="-314.2" font-family="Times,serif" font-size="14.00">tof</text>
</g>
<!-- tof&#45;&gt;dspacing -->
<g id="edge11" class="edge">
<title>tof&#45;&gt;dspacing</title>
<path fill="none" stroke="black" d="M170.57,-305.88C158.16,-297.53 141.39,-286.24 127.35,-276.79"/>
<polygon fill="black" stroke="black" points="129.66,-274.12 119.41,-271.44 125.75,-279.93 129.66,-274.12"/>
</g>
<!-- tof&#45;&gt;wavelength -->
<g id="edge34" class="edge">
<title>tof&#45;&gt;wavelength</title>
<path fill="none" stroke="black" d="M215.53,-308.36C241.65,-299.2 281.62,-285.18 312.48,-274.36"/>
<polygon fill="black" stroke="black" points="313.28,-277.79 321.55,-271.18 310.96,-271.19 313.28,-277.79"/>
</g>
<!-- tof&#45;&gt;time_at_sample -->
<g id="edge37" class="edge">
<title>tof&#45;&gt;time_at_sample</title>
<path fill="none" stroke="black" d="M184.39,-305.88C180.04,-290.42 175.2,-263.34 187.38,-245 196.89,-230.67 211.65,-220.64 227.41,-213.62"/>
<polygon fill="black" stroke="black" points="228.47,-216.97 236.45,-210 225.87,-210.47 228.47,-216.97"/>
</g>
<!-- d -->
<g id="node27" class="node">
<title>d</title>
<polygon fill="none" stroke="black" points="136.38,-209 82.38,-209 82.38,-183.75 136.38,-183.75 136.38,-209"/>
<text xml:space="preserve" text-anchor="middle" x="109.38" y="-191.7" font-family="Times,serif" font-size="14.00">d</text>
</g>
<!-- dspacing&#45;&gt;d -->
<g id="edge40" class="edge">
<title>dspacing&#45;&gt;d</title>
<path fill="none" stroke="black" stroke-dasharray="5,2" d="M102.2,-244.63C103.25,-237.73 104.6,-228.81 105.85,-220.59"/>
<polygon fill="black" stroke="black" points="109.29,-221.26 107.33,-210.84 102.37,-220.2 109.29,-221.26"/>
</g>
<!-- Q_vec -->
<g id="node12" class="node">
<title>Q_vec</title>
<polygon fill="none" stroke="black" points="610.38,-147.75 552.38,-147.75 552.38,-122.5 610.38,-122.5 610.38,-147.75"/>
<text xml:space="preserve" text-anchor="middle" x="581.38" y="-130.45" font-family="Times,serif" font-size="14.00">Q_vec</text>
</g>
<!-- hkl_vec -->
<g id="node13" class="node">
<title>hkl_vec</title>
<polygon fill="none" stroke="black" points="739.62,-86.5 671.12,-86.5 671.12,-61.25 739.62,-61.25 739.62,-86.5"/>
<text xml:space="preserve" text-anchor="middle" x="705.38" y="-69.2" font-family="Times,serif" font-size="14.00">hkl_vec</text>
</g>
<!-- Q_vec&#45;&gt;hkl_vec -->
<g id="edge14" class="edge">
<title>Q_vec&#45;&gt;hkl_vec</title>
<path fill="none" stroke="black" d="M606.47,-122.13C624.79,-113.38 649.87,-101.4 670.19,-91.69"/>
<polygon fill="black" stroke="black" points="671.44,-94.97 678.95,-87.5 668.42,-88.65 671.44,-94.97"/>
</g>
<!-- h -->
<g id="node16" class="node">
<title>h</title>
<polygon fill="none" stroke="black" points="660.38,-25.25 606.38,-25.25 606.38,0 660.38,0 660.38,-25.25"/>
<text xml:space="preserve" text-anchor="middle" x="633.38" y="-7.95" font-family="Times,serif" font-size="14.00">h</text>
</g>
<!-- hkl_vec&#45;&gt;h -->
<g id="edge17" class="edge">
<title>hkl_vec&#45;&gt;h</title>
<path fill="none" stroke="black" d="M690.8,-60.88C681.05,-52.85 667.98,-42.1 656.78,-32.89"/>
<polygon fill="black" stroke="black" points="659.04,-30.21 649.09,-26.56 654.59,-35.62 659.04,-30.21"/>
</g>
<!-- k -->
<g id="node17" class="node">
<title>k</title>
<polygon fill="none" stroke="black" points="732.38,-25.25 678.38,-25.25 678.38,0 732.38,0 732.38,-25.25"/>
<text xml:space="preserve" text-anchor="middle" x="705.38" y="-7.95" font-family="Times,serif" font-size="14.00">k</text>
</g>
<!-- hkl_vec&#45;&gt;k -->
<g id="edge18" class="edge">
<title>hkl_vec&#45;&gt;k</title>
<path fill="none" stroke="black" d="M705.38,-60.88C705.38,-53.98 705.38,-45.06 705.38,-36.84"/>
<polygon fill="black" stroke="black" points="708.88,-37.11 705.38,-27.11 701.88,-37.11 708.88,-37.11"/>
</g>
<!-- l -->
<g id="node18" class="node">
<title>l</title>
<polygon fill="none" stroke="black" points="804.38,-25.25 750.38,-25.25 750.38,0 804.38,0 804.38,-25.25"/>
<text xml:space="preserve" text-anchor="middle" x="777.38" y="-7.95" font-family="Times,serif" font-size="14.00">l</text>
</g>
<!-- hkl_vec&#45;&gt;l -->
<g id="edge19" class="edge">
<title>hkl_vec&#45;&gt;l</title>
<path fill="none" stroke="black" d="M719.95,-60.88C729.7,-52.85 742.77,-42.1 753.97,-32.89"/>
<polygon fill="black" stroke="black" points="756.16,-35.62 761.66,-26.56 751.71,-30.21 756.16,-35.62"/>
</g>
<!-- ub_matrix -->
<g id="node14" class="node">
<title>ub_matrix</title>
<polygon fill="none" stroke="black" points="749.38,-147.75 661.38,-147.75 661.38,-122.5 749.38,-122.5 749.38,-147.75"/>
<text xml:space="preserve" text-anchor="middle" x="705.38" y="-130.45" font-family="Times,serif" font-size="14.00">ub_matrix</text>
</g>
<!-- ub_matrix&#45;&gt;hkl_vec -->
<g id="edge15" class="edge">
<title>ub_matrix&#45;&gt;hkl_vec</title>
<path fill="none" stroke="black" d="M705.38,-122.13C705.38,-115.23 705.38,-106.31 705.38,-98.09"/>
<polygon fill="black" stroke="black" points="708.88,-98.36 705.38,-88.36 701.88,-98.36 708.88,-98.36"/>
</g>
<!-- sample_rotation -->
<g id="node15" class="node">
<title>sample_rotation</title>
<polygon fill="none" stroke="black" points="897.75,-147.75 767,-147.75 767,-122.5 897.75,-122.5 897.75,-147.75"/>
<text xml:space="preserve" text-anchor="middle" x="832.38" y="-130.45" font-family="Times,serif" font-size="14.00">sample_rotation</text>
</g>
<!-- sample_rotation&#45;&gt;hkl_vec -->
<g id="edge16" class="edge">
<title>sample_rotation&#45;&gt;hkl_vec</title>
<path fill="none" stroke="black" d="M806.67,-122.13C787.91,-113.38 762.23,-101.4 741.41,-91.69"/>
<polygon fill="black" stroke="black" points="742.95,-88.54 732.41,-87.49 739.99,-94.89 742.95,-88.54"/>
</g>
<!-- u_matrix -->
<g id="node19" class="node">
<title>u_matrix</title>
<polygon fill="none" stroke="black" points="744.88,-209 665.88,-209 665.88,-183.75 744.88,-183.75 744.88,-209"/>
<text xml:space="preserve" text-anchor="middle" x="705.38" y="-191.7" font-family="Times,serif" font-size="14.00">u_matrix</text>
</g>
<!-- u_matrix&#45;&gt;ub_matrix -->
<g id="edge20" class="edge">
<title>u_matrix&#45;&gt;ub_matrix</title>
<path fill="none" stroke="black" d="M705.38,-183.38C705.38,-176.48 705.38,-167.56 705.38,-159.34"/>
<polygon fill="black" stroke="black" points="708.88,-159.61 705.38,-149.61 701.88,-159.61 708.88,-159.61"/>
</g>
<!-- b_matrix -->
<g id="node20" class="node">
<title>b_matrix</title>
<polygon fill="none" stroke="black" points="841.88,-209 762.88,-209 762.88,-183.75 841.88,-183.75 841.88,-209"/>
<text xml:space="preserve" text-anchor="middle" x="802.38" y="-191.7" font-family="Times,serif" font-size="14.00">b_matrix</text>
</g>
<!-- b_matrix&#45;&gt;ub_matrix -->
<g id="edge21" class="edge">
<title>b_matrix&#45;&gt;ub_matrix</title>
<path fill="none" stroke="black" d="M782.75,-183.38C768.94,-174.95 750.23,-163.52 734.67,-154.02"/>
<polygon fill="black" stroke="black" points="736.63,-151.11 726.27,-148.89 732.98,-157.09 736.63,-151.11"/>
</g>
<!-- Qx&#45;&gt;Q_vec -->
<g id="edge22" class="edge">
<title>Qx&#45;&gt;Q_vec</title>
<path fill="none" stroke="black" d="M612.48,-183.38C607.62,-176 601.24,-166.31 595.53,-157.63"/>
<polygon fill="black" stroke="black" points="598.51,-155.79 590.09,-149.36 592.66,-159.64 598.51,-155.79"/>
</g>
<!-- Qy&#45;&gt;Q_vec -->
<g id="edge23" class="edge">
<title>Qy&#45;&gt;Q_vec</title>
<path fill="none" stroke="black" d="M496.03,-183.38C511.55,-174.79 532.69,-163.09 550.04,-153.47"/>
<polygon fill="black" stroke="black" points="551.38,-156.74 558.43,-148.83 547.99,-150.61 551.38,-156.74"/>
</g>
<!-- Qz&#45;&gt;Q_vec -->
<g id="edge24" class="edge">
<title>Qz&#45;&gt;Q_vec</title>
<path fill="none" stroke="black" d="M555.05,-183.38C559.12,-176.08 564.45,-166.52 569.24,-157.91"/>
<polygon fill="black" stroke="black" points="572.16,-159.86 573.97,-149.42 566.05,-156.45 572.16,-159.86"/>
</g>
<!-- wavelength&#45;&gt;Qx -->
<g id="edge25" class="edge">
<title>wavelength&#45;&gt;Qx</title>
<path fill="none" stroke="black" d="M406.88,-247.8C450.67,-239.64 516.46,-226.55 582.01,-209.45"/>
<polygon fill="black" stroke="black" points="582.71,-212.89 591.48,-206.95 580.92,-206.12 582.71,-212.89"/>
</g>
<!-- wavelength&#45;&gt;Qy -->
<g id="edge28" class="edge">
<title>wavelength&#45;&gt;Qy</title>
<path fill="none" stroke="black" d="M381.05,-244.63C398.18,-235.96 421.57,-224.12 440.65,-214.46"/>
<polygon fill="black" stroke="black" points="442.04,-217.67 449.38,-210.03 438.88,-211.43 442.04,-217.67"/>
</g>
<!-- wavelength&#45;&gt;Qz -->
<g id="edge31" class="edge">
<title>wavelength&#45;&gt;Qz</title>
<path fill="none" stroke="black" d="M396.03,-244.63C429.32,-234.31 477.12,-219.48 510.26,-209.2"/>
<polygon fill="black" stroke="black" points="510.94,-212.65 519.45,-206.35 508.86,-205.97 510.94,-212.65"/>
</g>
<!-- wavelength&#45;&gt;time_at_sample -->
<g id="edge39" class="edge">
<title>wavelength&#45;&gt;time_at_sample</title>
<path fill="none" stroke="black" d="M345.84,-244.63C338.35,-236.84 328.39,-226.5 319.71,-217.47"/>
<polygon fill="black" stroke="black" points="322.4,-215.22 312.94,-210.44 317.35,-220.07 322.4,-215.22"/>
</g>
<!-- wavelength&#45;&gt;d_perp -->
<g id="edge41" class="edge">
<title>wavelength&#45;&gt;d_perp</title>
<path fill="none" stroke="black" d="M307.73,-246.54C304.9,-246.01 302.1,-245.49 299.38,-245 202.79,-227.63 174.66,-230.66 76.03,-209.41"/>
<polygon fill="black" stroke="black" points="76.96,-206.03 66.44,-207.31 75.46,-212.87 76.96,-206.03"/>
</g>
<!-- pulse_time -->
<g id="node25" class="node">
<title>pulse_time</title>
<polygon fill="none" stroke="black" points="290,-270.25 196.75,-270.25 196.75,-245 290,-245 290,-270.25"/>
<text xml:space="preserve" text-anchor="middle" x="243.38" y="-252.95" font-family="Times,serif" font-size="14.00">pulse_time</text>
</g>
<!-- pulse_time&#45;&gt;time_at_sample -->
<g id="edge36" class="edge">
<title>pulse_time&#45;&gt;time_at_sample</title>
<path fill="none" stroke="black" d="M254.91,-244.63C262.4,-236.84 272.36,-226.5 281.04,-217.47"/>
<polygon fill="black" stroke="black" points="283.4,-220.07 287.81,-210.44 278.35,-215.22 283.4,-220.07"/>
</g>
</g>
</svg>
