<?xml version="1.0" encoding="UTF-8" standalone="no"?>
<!DOCTYPE svg PUBLIC "-//W3C//DTD SVG 1.1//EN"
 "http://www.w3.org/Graphics/SVG/1.1/DTD/svg11.dtd">
<!-- Generated by graphviz version 14.0.4 (20251117.0720)
 -->
<!-- Pages: 1 -->
<svg width="206pt" height="148pt"
 viewBox="0.00 0.00 206.00 148.00" xmlns="http://www.w3.org/2000/svg" xmlns:xlink="http://www.w3.org/1999/xlink">
<g id="graph0" class="graph" transform="scale(1 1) rotate(0) translate(4 143.75)">
<polygon fill="white" stroke="none" points="-4,4 -4,-143.75 202,-143.75 202,4 -4,4"/>
<!-- Compute (dspacing) = dspacing(tof, tzero, difc) -->
<g id="node1" class="node">
<title>Compute (dspacing) = dspacing(tof, tzero, difc)</title>
<polygon fill="lightgrey" stroke="none" points="142.88,-78.5 55.12,-78.5 55.12,-61.25 142.88,-61.25 142.88,-78.5"/>
<text xml:space="preserve" text-anchor="middle" x="99" y="-65.2" font-family="Times,serif" font-size="14.00">dspacing(...)</text>
</g>
<!-- dspacing -->
<g id="node2" class="node">
<title>dspacing</title>
<polygon fill="none" stroke="black" points="138.88,-25.25 59.12,-25.25 59.12,0 138.88,0 138.88,-25.25"/>
<text xml:space="preserve" text-anchor="middle" x="99" y="-7.95" font-family="Times,serif" font-size="14.00">dspacing</text>
</g>
<!-- Compute (dspacing) = dspacing(tof, tzero, difc)&#45;&gt;dspacing -->
<g id="edge1" class="edge">
<title>Compute (dspacing) = dspacing(tof, tzero, difc)&#45;&gt;dspacing</title>
<path fill="none" stroke="black" d="M99,-61.65C99,-55.38 99,-45.93 99,-37.07"/>
<polygon fill="black" stroke="black" points="102.5,-37.22 99,-27.22 95.5,-37.22 102.5,-37.22"/>
</g>
<!-- tof -->
<g id="node3" class="node">
<title>tof</title>
<polygon fill="none" stroke="black" points="54,-139.75 0,-139.75 0,-114.5 54,-114.5 54,-139.75"/>
<text xml:space="preserve" text-anchor="middle" x="27" y="-122.45" font-family="Times,serif" font-size="14.00">tof</text>
</g>
<!-- tof&#45;&gt;Compute (dspacing) = dspacing(tof, tzero, difc) -->
<g id="edge2" class="edge">
<title>tof&#45;&gt;Compute (dspacing) = dspacing(tof, tzero, difc)</title>
<path fill="none" stroke="black" d="M42.62,-114.14C53.74,-105.61 68.72,-94.11 80.44,-85.12"/>
<polygon fill="black" stroke="black" points="82.37,-88.05 88.17,-79.19 78.1,-82.5 82.37,-88.05"/>
</g>
<!-- tzero -->
<g id="node4" class="node">
<title>tzero</title>
<polygon fill="none" stroke="black" points="126,-139.75 72,-139.75 72,-114.5 126,-114.5 126,-139.75"/>
<text xml:space="preserve" text-anchor="middle" x="99" y="-122.45" font-family="Times,serif" font-size="14.00">tzero</text>
</g>
<!-- tzero&#45;&gt;Compute (dspacing) = dspacing(tof, tzero, difc) -->
<g id="edge3" class="edge">
<title>tzero&#45;&gt;Compute (dspacing) = dspacing(tof, tzero, difc)</title>
<path fill="none" stroke="black" d="M99,-114.14C99,-106.97 99,-97.71 99,-89.6"/>
<polygon fill="black" stroke="black" points="102.5,-89.78 99,-79.78 95.5,-89.78 102.5,-89.78"/>
</g>
<!-- difc -->
<g id="node5" class="node">
<title>difc</title>
<polygon fill="none" stroke="black" points="198,-139.75 144,-139.75 144,-114.5 198,-114.5 198,-139.75"/>
<text xml:space="preserve" text-anchor="middle" x="171" y="-122.45" font-family="Times,serif" font-size="14.00">difc</text>
</g>
<!-- difc&#45;&gt;Compute (dspacing) = dspacing(tof, tzero, difc) -->
<g id="edge4" class="edge">
<title>difc&#45;&gt;Compute (dspacing) = dspacing(tof, tzero, difc)</title>
<path fill="none" stroke="black" d="M155.38,-114.14C144.26,-105.61 129.28,-94.11 117.56,-85.12"/>
<polygon fill="black" stroke="black" points="119.9,-82.5 109.83,-79.19 115.63,-88.05 119.9,-82.5"/>
</g>
</g>
</svg>
