<?xml version="1.0" encoding="utf-8" standalone="no"?>
<!DOCTYPE svg PUBLIC "-//W3C//DTD SVG 1.1//EN"
  "http://www.w3.org/Graphics/SVG/1.1/DTD/svg11.dtd">
<svg xmlns:xlink="http://www.w3.org/1999/xlink" width="388.965625pt" height="269.231761pt" viewBox="0 0 388.965625 269.231761" xmlns="http://www.w3.org/2000/svg" version="1.1">
 <metadata>
  <rdf:RDF xmlns:dc="http://purl.org/dc/elements/1.1/" xmlns:cc="http://creativecommons.org/ns#" xmlns:rdf="http://www.w3.org/1999/02/22-rdf-syntax-ns#">
   <cc:Work>
    <dc:type rdf:resource="http://purl.org/dc/dcmitype/StillImage"/>
    <dc:date>2025-01-20T13:50:47.971789</dc:date>
    <dc:format>image/svg+xml</dc:format>
    <dc:creator>
     <cc:Agent>
      <dc:title>Matplotlib v3.7.3, https://matplotlib.org/</dc:title>
     </cc:Agent>
    </dc:creator>
   </cc:Work>
  </rdf:RDF>
 </metadata>
 <defs>
  <style type="text/css">*{stroke-linejoin: round; stroke-linecap: butt}</style>
 </defs>
 <g id="figure_1">
  <g id="patch_1">
   <path d="M 0 269.231761 
L 388.965625 269.231761 
L 388.965625 0 
L 0 0 
z
" style="fill: #ffffff"/>
  </g>
  <g id="axes_1">
   <g id="patch_2">
    <path d="M 46.965625 229.991136 
L 381.765625 229.991136 
L 381.765625 8.231136 
L 46.965625 8.231136 
z
" style="fill: #ffffff"/>
   </g>
   <g id="matplotlib.axis_1">
    <g id="xtick_1">
     <g id="line2d_1">
      <defs>
       <path id="mc9bdf3397b" d="M 0 0 
L 0 3.5 
" style="stroke: #000000; stroke-width: 0.8"/>
      </defs>
      <g>
       <use xlink:href="#mc9bdf3397b" x="78.202946" y="229.991136" style="stroke: #000000; stroke-width: 0.8"/>
      </g>
     </g>
     <g id="text_1">
      <!-- 1.0 -->
      <g transform="translate(70.251383 244.589573) scale(0.1 -0.1)">
       <defs>
        <path id="DejaVuSans-31" d="M 794 531 
L 1825 531 
L 1825 4091 
L 703 3866 
L 703 4441 
L 1819 4666 
L 2450 4666 
L 2450 531 
L 3481 531 
L 3481 0 
L 794 0 
L 794 531 
z
" transform="scale(0.015625)"/>
        <path id="DejaVuSans-2e" d="M 684 794 
L 1344 794 
L 1344 0 
L 684 0 
L 684 794 
z
" transform="scale(0.015625)"/>
        <path id="DejaVuSans-30" d="M 2034 4250 
Q 1547 4250 1301 3770 
Q 1056 3291 1056 2328 
Q 1056 1369 1301 889 
Q 1547 409 2034 409 
Q 2525 409 2770 889 
Q 3016 1369 3016 2328 
Q 3016 3291 2770 3770 
Q 2525 4250 2034 4250 
z
M 2034 4750 
Q 2819 4750 3233 4129 
Q 3647 3509 3647 2328 
Q 3647 1150 3233 529 
Q 2819 -91 2034 -91 
Q 1250 -91 836 529 
Q 422 1150 422 2328 
Q 422 3509 836 4129 
Q 1250 4750 2034 4750 
z
" transform="scale(0.015625)"/>
       </defs>
       <use xlink:href="#DejaVuSans-31"/>
       <use xlink:href="#DejaVuSans-2e" x="63.623047"/>
       <use xlink:href="#DejaVuSans-30" x="95.410156"/>
      </g>
     </g>
    </g>
    <g id="xtick_2">
     <g id="line2d_2">
      <g>
       <use xlink:href="#mc9bdf3397b" x="118.250792" y="229.991136" style="stroke: #000000; stroke-width: 0.8"/>
      </g>
     </g>
     <g id="text_2">
      <!-- 1.5 -->
      <g transform="translate(110.29923 244.589573) scale(0.1 -0.1)">
       <defs>
        <path id="DejaVuSans-35" d="M 691 4666 
L 3169 4666 
L 3169 4134 
L 1269 4134 
L 1269 2991 
Q 1406 3038 1543 3061 
Q 1681 3084 1819 3084 
Q 2600 3084 3056 2656 
Q 3513 2228 3513 1497 
Q 3513 744 3044 326 
Q 2575 -91 1722 -91 
Q 1428 -91 1123 -41 
Q 819 9 494 109 
L 494 744 
Q 775 591 1075 516 
Q 1375 441 1709 441 
Q 2250 441 2565 725 
Q 2881 1009 2881 1497 
Q 2881 1984 2565 2268 
Q 2250 2553 1709 2553 
Q 1456 2553 1204 2497 
Q 953 2441 691 2322 
L 691 4666 
z
" transform="scale(0.015625)"/>
       </defs>
       <use xlink:href="#DejaVuSans-31"/>
       <use xlink:href="#DejaVuSans-2e" x="63.623047"/>
       <use xlink:href="#DejaVuSans-35" x="95.410156"/>
      </g>
     </g>
    </g>
    <g id="xtick_3">
     <g id="line2d_3">
      <g>
       <use xlink:href="#mc9bdf3397b" x="158.298639" y="229.991136" style="stroke: #000000; stroke-width: 0.8"/>
      </g>
     </g>
     <g id="text_3">
      <!-- 2.0 -->
      <g transform="translate(150.347077 244.589573) scale(0.1 -0.1)">
       <defs>
        <path id="DejaVuSans-32" d="M 1228 531 
L 3431 531 
L 3431 0 
L 469 0 
L 469 531 
Q 828 903 1448 1529 
Q 2069 2156 2228 2338 
Q 2531 2678 2651 2914 
Q 2772 3150 2772 3378 
Q 2772 3750 2511 3984 
Q 2250 4219 1831 4219 
Q 1534 4219 1204 4116 
Q 875 4013 500 3803 
L 500 4441 
Q 881 4594 1212 4672 
Q 1544 4750 1819 4750 
Q 2544 4750 2975 4387 
Q 3406 4025 3406 3419 
Q 3406 3131 3298 2873 
Q 3191 2616 2906 2266 
Q 2828 2175 2409 1742 
Q 1991 1309 1228 531 
z
" transform="scale(0.015625)"/>
       </defs>
       <use xlink:href="#DejaVuSans-32"/>
       <use xlink:href="#DejaVuSans-2e" x="63.623047"/>
       <use xlink:href="#DejaVuSans-30" x="95.410156"/>
      </g>
     </g>
    </g>
    <g id="xtick_4">
     <g id="line2d_4">
      <g>
       <use xlink:href="#mc9bdf3397b" x="198.346486" y="229.991136" style="stroke: #000000; stroke-width: 0.8"/>
      </g>
     </g>
     <g id="text_4">
      <!-- 2.5 -->
      <g transform="translate(190.394924 244.589573) scale(0.1 -0.1)">
       <use xlink:href="#DejaVuSans-32"/>
       <use xlink:href="#DejaVuSans-2e" x="63.623047"/>
       <use xlink:href="#DejaVuSans-35" x="95.410156"/>
      </g>
     </g>
    </g>
    <g id="xtick_5">
     <g id="line2d_5">
      <g>
       <use xlink:href="#mc9bdf3397b" x="238.394333" y="229.991136" style="stroke: #000000; stroke-width: 0.8"/>
      </g>
     </g>
     <g id="text_5">
      <!-- 3.0 -->
      <g transform="translate(230.442771 244.589573) scale(0.1 -0.1)">
       <defs>
        <path id="DejaVuSans-33" d="M 2597 2516 
Q 3050 2419 3304 2112 
Q 3559 1806 3559 1356 
Q 3559 666 3084 287 
Q 2609 -91 1734 -91 
Q 1441 -91 1130 -33 
Q 819 25 488 141 
L 488 750 
Q 750 597 1062 519 
Q 1375 441 1716 441 
Q 2309 441 2620 675 
Q 2931 909 2931 1356 
Q 2931 1769 2642 2001 
Q 2353 2234 1838 2234 
L 1294 2234 
L 1294 2753 
L 1863 2753 
Q 2328 2753 2575 2939 
Q 2822 3125 2822 3475 
Q 2822 3834 2567 4026 
Q 2313 4219 1838 4219 
Q 1578 4219 1281 4162 
Q 984 4106 628 3988 
L 628 4550 
Q 988 4650 1302 4700 
Q 1616 4750 1894 4750 
Q 2613 4750 3031 4423 
Q 3450 4097 3450 3541 
Q 3450 3153 3228 2886 
Q 3006 2619 2597 2516 
z
" transform="scale(0.015625)"/>
       </defs>
       <use xlink:href="#DejaVuSans-33"/>
       <use xlink:href="#DejaVuSans-2e" x="63.623047"/>
       <use xlink:href="#DejaVuSans-30" x="95.410156"/>
      </g>
     </g>
    </g>
    <g id="xtick_6">
     <g id="line2d_6">
      <g>
       <use xlink:href="#mc9bdf3397b" x="278.44218" y="229.991136" style="stroke: #000000; stroke-width: 0.8"/>
      </g>
     </g>
     <g id="text_6">
      <!-- 3.5 -->
      <g transform="translate(270.490618 244.589573) scale(0.1 -0.1)">
       <use xlink:href="#DejaVuSans-33"/>
       <use xlink:href="#DejaVuSans-2e" x="63.623047"/>
       <use xlink:href="#DejaVuSans-35" x="95.410156"/>
      </g>
     </g>
    </g>
    <g id="xtick_7">
     <g id="line2d_7">
      <g>
       <use xlink:href="#mc9bdf3397b" x="318.490027" y="229.991136" style="stroke: #000000; stroke-width: 0.8"/>
      </g>
     </g>
     <g id="text_7">
      <!-- 4.0 -->
      <g transform="translate(310.538464 244.589573) scale(0.1 -0.1)">
       <defs>
        <path id="DejaVuSans-34" d="M 2419 4116 
L 825 1625 
L 2419 1625 
L 2419 4116 
z
M 2253 4666 
L 3047 4666 
L 3047 1625 
L 3713 1625 
L 3713 1100 
L 3047 1100 
L 3047 0 
L 2419 0 
L 2419 1100 
L 313 1100 
L 313 1709 
L 2253 4666 
z
" transform="scale(0.015625)"/>
       </defs>
       <use xlink:href="#DejaVuSans-34"/>
       <use xlink:href="#DejaVuSans-2e" x="63.623047"/>
       <use xlink:href="#DejaVuSans-30" x="95.410156"/>
      </g>
     </g>
    </g>
    <g id="xtick_8">
     <g id="line2d_8">
      <g>
       <use xlink:href="#mc9bdf3397b" x="358.537874" y="229.991136" style="stroke: #000000; stroke-width: 0.8"/>
      </g>
     </g>
     <g id="text_8">
      <!-- 4.5 -->
      <g transform="translate(350.586311 244.589573) scale(0.1 -0.1)">
       <use xlink:href="#DejaVuSans-34"/>
       <use xlink:href="#DejaVuSans-2e" x="63.623047"/>
       <use xlink:href="#DejaVuSans-35" x="95.410156"/>
      </g>
     </g>
    </g>
    <g id="text_9">
     <!-- wavelength [Å] -->
     <g transform="translate(176.328125 259.952073) scale(0.1 -0.1)">
      <defs>
       <path id="DejaVuSans-77" d="M 269 3500 
L 844 3500 
L 1563 769 
L 2278 3500 
L 2956 3500 
L 3675 769 
L 4391 3500 
L 4966 3500 
L 4050 0 
L 3372 0 
L 2619 2869 
L 1863 0 
L 1184 0 
L 269 3500 
z
" transform="scale(0.015625)"/>
       <path id="DejaVuSans-61" d="M 2194 1759 
Q 1497 1759 1228 1600 
Q 959 1441 959 1056 
Q 959 750 1161 570 
Q 1363 391 1709 391 
Q 2188 391 2477 730 
Q 2766 1069 2766 1631 
L 2766 1759 
L 2194 1759 
z
M 3341 1997 
L 3341 0 
L 2766 0 
L 2766 531 
Q 2569 213 2275 61 
Q 1981 -91 1556 -91 
Q 1019 -91 701 211 
Q 384 513 384 1019 
Q 384 1609 779 1909 
Q 1175 2209 1959 2209 
L 2766 2209 
L 2766 2266 
Q 2766 2663 2505 2880 
Q 2244 3097 1772 3097 
Q 1472 3097 1187 3025 
Q 903 2953 641 2809 
L 641 3341 
Q 956 3463 1253 3523 
Q 1550 3584 1831 3584 
Q 2591 3584 2966 3190 
Q 3341 2797 3341 1997 
z
" transform="scale(0.015625)"/>
       <path id="DejaVuSans-76" d="M 191 3500 
L 800 3500 
L 1894 563 
L 2988 3500 
L 3597 3500 
L 2284 0 
L 1503 0 
L 191 3500 
z
" transform="scale(0.015625)"/>
       <path id="DejaVuSans-65" d="M 3597 1894 
L 3597 1613 
L 953 1613 
Q 991 1019 1311 708 
Q 1631 397 2203 397 
Q 2534 397 2845 478 
Q 3156 559 3463 722 
L 3463 178 
Q 3153 47 2828 -22 
Q 2503 -91 2169 -91 
Q 1331 -91 842 396 
Q 353 884 353 1716 
Q 353 2575 817 3079 
Q 1281 3584 2069 3584 
Q 2775 3584 3186 3129 
Q 3597 2675 3597 1894 
z
M 3022 2063 
Q 3016 2534 2758 2815 
Q 2500 3097 2075 3097 
Q 1594 3097 1305 2825 
Q 1016 2553 972 2059 
L 3022 2063 
z
" transform="scale(0.015625)"/>
       <path id="DejaVuSans-6c" d="M 603 4863 
L 1178 4863 
L 1178 0 
L 603 0 
L 603 4863 
z
" transform="scale(0.015625)"/>
       <path id="DejaVuSans-6e" d="M 3513 2113 
L 3513 0 
L 2938 0 
L 2938 2094 
Q 2938 2591 2744 2837 
Q 2550 3084 2163 3084 
Q 1697 3084 1428 2787 
Q 1159 2491 1159 1978 
L 1159 0 
L 581 0 
L 581 3500 
L 1159 3500 
L 1159 2956 
Q 1366 3272 1645 3428 
Q 1925 3584 2291 3584 
Q 2894 3584 3203 3211 
Q 3513 2838 3513 2113 
z
" transform="scale(0.015625)"/>
       <path id="DejaVuSans-67" d="M 2906 1791 
Q 2906 2416 2648 2759 
Q 2391 3103 1925 3103 
Q 1463 3103 1205 2759 
Q 947 2416 947 1791 
Q 947 1169 1205 825 
Q 1463 481 1925 481 
Q 2391 481 2648 825 
Q 2906 1169 2906 1791 
z
M 3481 434 
Q 3481 -459 3084 -895 
Q 2688 -1331 1869 -1331 
Q 1566 -1331 1297 -1286 
Q 1028 -1241 775 -1147 
L 775 -588 
Q 1028 -725 1275 -790 
Q 1522 -856 1778 -856 
Q 2344 -856 2625 -561 
Q 2906 -266 2906 331 
L 2906 616 
Q 2728 306 2450 153 
Q 2172 0 1784 0 
Q 1141 0 747 490 
Q 353 981 353 1791 
Q 353 2603 747 3093 
Q 1141 3584 1784 3584 
Q 2172 3584 2450 3431 
Q 2728 3278 2906 2969 
L 2906 3500 
L 3481 3500 
L 3481 434 
z
" transform="scale(0.015625)"/>
       <path id="DejaVuSans-74" d="M 1172 4494 
L 1172 3500 
L 2356 3500 
L 2356 3053 
L 1172 3053 
L 1172 1153 
Q 1172 725 1289 603 
Q 1406 481 1766 481 
L 2356 481 
L 2356 0 
L 1766 0 
Q 1100 0 847 248 
Q 594 497 594 1153 
L 594 3053 
L 172 3053 
L 172 3500 
L 594 3500 
L 594 4494 
L 1172 4494 
z
" transform="scale(0.015625)"/>
       <path id="DejaVuSans-68" d="M 3513 2113 
L 3513 0 
L 2938 0 
L 2938 2094 
Q 2938 2591 2744 2837 
Q 2550 3084 2163 3084 
Q 1697 3084 1428 2787 
Q 1159 2491 1159 1978 
L 1159 0 
L 581 0 
L 581 4863 
L 1159 4863 
L 1159 2956 
Q 1366 3272 1645 3428 
Q 1925 3584 2291 3584 
Q 2894 3584 3203 3211 
Q 3513 2838 3513 2113 
z
" transform="scale(0.015625)"/>
       <path id="DejaVuSans-20" transform="scale(0.015625)"/>
       <path id="DejaVuSans-5b" d="M 550 4863 
L 1875 4863 
L 1875 4416 
L 1125 4416 
L 1125 -397 
L 1875 -397 
L 1875 -844 
L 550 -844 
L 550 4863 
z
" transform="scale(0.015625)"/>
       <path id="DejaVuSans-c5" d="M 2663 5081 
Q 2663 5278 2523 5417 
Q 2384 5556 2188 5556 
Q 1988 5556 1852 5420 
Q 1716 5284 1716 5081 
Q 1716 4884 1853 4746 
Q 1991 4609 2188 4609 
Q 2384 4609 2523 4746 
Q 2663 4884 2663 5081 
z
M 2188 4044 
L 1338 1722 
L 3041 1722 
L 2188 4044 
z
M 1716 4366 
Q 1525 4494 1428 4673 
Q 1331 4853 1331 5081 
Q 1331 5441 1579 5691 
Q 1828 5941 2188 5941 
Q 2544 5941 2795 5689 
Q 3047 5438 3047 5081 
Q 3047 4863 2948 4678 
Q 2850 4494 2663 4366 
L 4325 0 
L 3669 0 
L 3244 1197 
L 1141 1197 
L 716 0 
L 50 0 
L 1716 4366 
z
" transform="scale(0.015625)"/>
       <path id="DejaVuSans-5d" d="M 1947 4863 
L 1947 -844 
L 622 -844 
L 622 -397 
L 1369 -397 
L 1369 4416 
L 622 4416 
L 622 4863 
L 1947 4863 
z
" transform="scale(0.015625)"/>
      </defs>
      <use xlink:href="#DejaVuSans-77"/>
      <use xlink:href="#DejaVuSans-61" x="81.787109"/>
      <use xlink:href="#DejaVuSans-76" x="143.066406"/>
      <use xlink:href="#DejaVuSans-65" x="202.246094"/>
      <use xlink:href="#DejaVuSans-6c" x="263.769531"/>
      <use xlink:href="#DejaVuSans-65" x="291.552734"/>
      <use xlink:href="#DejaVuSans-6e" x="353.076172"/>
      <use xlink:href="#DejaVuSans-67" x="416.455078"/>
      <use xlink:href="#DejaVuSans-74" x="479.931641"/>
      <use xlink:href="#DejaVuSans-68" x="519.140625"/>
      <use xlink:href="#DejaVuSans-20" x="582.519531"/>
      <use xlink:href="#DejaVuSans-5b" x="614.306641"/>
      <use xlink:href="#DejaVuSans-c5" x="653.320312"/>
      <use xlink:href="#DejaVuSans-5d" x="721.728516"/>
     </g>
    </g>
   </g>
   <g id="matplotlib.axis_2">
    <g id="ytick_1">
     <g id="line2d_9">
      <defs>
       <path id="me330966b07" d="M 0 0 
L -3.5 0 
" style="stroke: #000000; stroke-width: 0.8"/>
      </defs>
      <g>
       <use xlink:href="#me330966b07" x="46.965625" y="219.911136" style="stroke: #000000; stroke-width: 0.8"/>
      </g>
     </g>
     <g id="text_10">
      <!-- 0 -->
      <g transform="translate(33.603125 223.710355) scale(0.1 -0.1)">
       <use xlink:href="#DejaVuSans-30"/>
      </g>
     </g>
    </g>
    <g id="ytick_2">
     <g id="line2d_10">
      <g>
       <use xlink:href="#me330966b07" x="46.965625" y="193.797146" style="stroke: #000000; stroke-width: 0.8"/>
      </g>
     </g>
     <g id="text_11">
      <!-- 100 -->
      <g transform="translate(20.878125 197.596365) scale(0.1 -0.1)">
       <use xlink:href="#DejaVuSans-31"/>
       <use xlink:href="#DejaVuSans-30" x="63.623047"/>
       <use xlink:href="#DejaVuSans-30" x="127.246094"/>
      </g>
     </g>
    </g>
    <g id="ytick_3">
     <g id="line2d_11">
      <g>
       <use xlink:href="#me330966b07" x="46.965625" y="167.683157" style="stroke: #000000; stroke-width: 0.8"/>
      </g>
     </g>
     <g id="text_12">
      <!-- 200 -->
      <g transform="translate(20.878125 171.482375) scale(0.1 -0.1)">
       <use xlink:href="#DejaVuSans-32"/>
       <use xlink:href="#DejaVuSans-30" x="63.623047"/>
       <use xlink:href="#DejaVuSans-30" x="127.246094"/>
      </g>
     </g>
    </g>
    <g id="ytick_4">
     <g id="line2d_12">
      <g>
       <use xlink:href="#me330966b07" x="46.965625" y="141.569167" style="stroke: #000000; stroke-width: 0.8"/>
      </g>
     </g>
     <g id="text_13">
      <!-- 300 -->
      <g transform="translate(20.878125 145.368386) scale(0.1 -0.1)">
       <use xlink:href="#DejaVuSans-33"/>
       <use xlink:href="#DejaVuSans-30" x="63.623047"/>
       <use xlink:href="#DejaVuSans-30" x="127.246094"/>
      </g>
     </g>
    </g>
    <g id="ytick_5">
     <g id="line2d_13">
      <g>
       <use xlink:href="#me330966b07" x="46.965625" y="115.455177" style="stroke: #000000; stroke-width: 0.8"/>
      </g>
     </g>
     <g id="text_14">
      <!-- 400 -->
      <g transform="translate(20.878125 119.254396) scale(0.1 -0.1)">
       <use xlink:href="#DejaVuSans-34"/>
       <use xlink:href="#DejaVuSans-30" x="63.623047"/>
       <use xlink:href="#DejaVuSans-30" x="127.246094"/>
      </g>
     </g>
    </g>
    <g id="ytick_6">
     <g id="line2d_14">
      <g>
       <use xlink:href="#me330966b07" x="46.965625" y="89.341188" style="stroke: #000000; stroke-width: 0.8"/>
      </g>
     </g>
     <g id="text_15">
      <!-- 500 -->
      <g transform="translate(20.878125 93.140406) scale(0.1 -0.1)">
       <use xlink:href="#DejaVuSans-35"/>
       <use xlink:href="#DejaVuSans-30" x="63.623047"/>
       <use xlink:href="#DejaVuSans-30" x="127.246094"/>
      </g>
     </g>
    </g>
    <g id="ytick_7">
     <g id="line2d_15">
      <g>
       <use xlink:href="#me330966b07" x="46.965625" y="63.227198" style="stroke: #000000; stroke-width: 0.8"/>
      </g>
     </g>
     <g id="text_16">
      <!-- 600 -->
      <g transform="translate(20.878125 67.026417) scale(0.1 -0.1)">
       <defs>
        <path id="DejaVuSans-36" d="M 2113 2584 
Q 1688 2584 1439 2293 
Q 1191 2003 1191 1497 
Q 1191 994 1439 701 
Q 1688 409 2113 409 
Q 2538 409 2786 701 
Q 3034 994 3034 1497 
Q 3034 2003 2786 2293 
Q 2538 2584 2113 2584 
z
M 3366 4563 
L 3366 3988 
Q 3128 4100 2886 4159 
Q 2644 4219 2406 4219 
Q 1781 4219 1451 3797 
Q 1122 3375 1075 2522 
Q 1259 2794 1537 2939 
Q 1816 3084 2150 3084 
Q 2853 3084 3261 2657 
Q 3669 2231 3669 1497 
Q 3669 778 3244 343 
Q 2819 -91 2113 -91 
Q 1303 -91 875 529 
Q 447 1150 447 2328 
Q 447 3434 972 4092 
Q 1497 4750 2381 4750 
Q 2619 4750 2861 4703 
Q 3103 4656 3366 4563 
z
" transform="scale(0.015625)"/>
       </defs>
       <use xlink:href="#DejaVuSans-36"/>
       <use xlink:href="#DejaVuSans-30" x="63.623047"/>
       <use xlink:href="#DejaVuSans-30" x="127.246094"/>
      </g>
     </g>
    </g>
    <g id="ytick_8">
     <g id="line2d_16">
      <g>
       <use xlink:href="#me330966b07" x="46.965625" y="37.113208" style="stroke: #000000; stroke-width: 0.8"/>
      </g>
     </g>
     <g id="text_17">
      <!-- 700 -->
      <g transform="translate(20.878125 40.912427) scale(0.1 -0.1)">
       <defs>
        <path id="DejaVuSans-37" d="M 525 4666 
L 3525 4666 
L 3525 4397 
L 1831 0 
L 1172 0 
L 2766 4134 
L 525 4134 
L 525 4666 
z
" transform="scale(0.015625)"/>
       </defs>
       <use xlink:href="#DejaVuSans-37"/>
       <use xlink:href="#DejaVuSans-30" x="63.623047"/>
       <use xlink:href="#DejaVuSans-30" x="127.246094"/>
      </g>
     </g>
    </g>
    <g id="ytick_9">
     <g id="line2d_17">
      <g>
       <use xlink:href="#me330966b07" x="46.965625" y="10.999219" style="stroke: #000000; stroke-width: 0.8"/>
      </g>
     </g>
     <g id="text_18">
      <!-- 800 -->
      <g transform="translate(20.878125 14.798437) scale(0.1 -0.1)">
       <defs>
        <path id="DejaVuSans-38" d="M 2034 2216 
Q 1584 2216 1326 1975 
Q 1069 1734 1069 1313 
Q 1069 891 1326 650 
Q 1584 409 2034 409 
Q 2484 409 2743 651 
Q 3003 894 3003 1313 
Q 3003 1734 2745 1975 
Q 2488 2216 2034 2216 
z
M 1403 2484 
Q 997 2584 770 2862 
Q 544 3141 544 3541 
Q 544 4100 942 4425 
Q 1341 4750 2034 4750 
Q 2731 4750 3128 4425 
Q 3525 4100 3525 3541 
Q 3525 3141 3298 2862 
Q 3072 2584 2669 2484 
Q 3125 2378 3379 2068 
Q 3634 1759 3634 1313 
Q 3634 634 3220 271 
Q 2806 -91 2034 -91 
Q 1263 -91 848 271 
Q 434 634 434 1313 
Q 434 1759 690 2068 
Q 947 2378 1403 2484 
z
M 1172 3481 
Q 1172 3119 1398 2916 
Q 1625 2713 2034 2713 
Q 2441 2713 2670 2916 
Q 2900 3119 2900 3481 
Q 2900 3844 2670 4047 
Q 2441 4250 2034 4250 
Q 1625 4250 1398 4047 
Q 1172 3844 1172 3481 
z
" transform="scale(0.015625)"/>
       </defs>
       <use xlink:href="#DejaVuSans-38"/>
       <use xlink:href="#DejaVuSans-30" x="63.623047"/>
       <use xlink:href="#DejaVuSans-30" x="127.246094"/>
      </g>
     </g>
    </g>
    <g id="text_19">
     <!-- [counts] -->
     <g transform="translate(14.798438 139.723636) rotate(-90) scale(0.1 -0.1)">
      <defs>
       <path id="DejaVuSans-63" d="M 3122 3366 
L 3122 2828 
Q 2878 2963 2633 3030 
Q 2388 3097 2138 3097 
Q 1578 3097 1268 2742 
Q 959 2388 959 1747 
Q 959 1106 1268 751 
Q 1578 397 2138 397 
Q 2388 397 2633 464 
Q 2878 531 3122 666 
L 3122 134 
Q 2881 22 2623 -34 
Q 2366 -91 2075 -91 
Q 1284 -91 818 406 
Q 353 903 353 1747 
Q 353 2603 823 3093 
Q 1294 3584 2113 3584 
Q 2378 3584 2631 3529 
Q 2884 3475 3122 3366 
z
" transform="scale(0.015625)"/>
       <path id="DejaVuSans-6f" d="M 1959 3097 
Q 1497 3097 1228 2736 
Q 959 2375 959 1747 
Q 959 1119 1226 758 
Q 1494 397 1959 397 
Q 2419 397 2687 759 
Q 2956 1122 2956 1747 
Q 2956 2369 2687 2733 
Q 2419 3097 1959 3097 
z
M 1959 3584 
Q 2709 3584 3137 3096 
Q 3566 2609 3566 1747 
Q 3566 888 3137 398 
Q 2709 -91 1959 -91 
Q 1206 -91 779 398 
Q 353 888 353 1747 
Q 353 2609 779 3096 
Q 1206 3584 1959 3584 
z
" transform="scale(0.015625)"/>
       <path id="DejaVuSans-75" d="M 544 1381 
L 544 3500 
L 1119 3500 
L 1119 1403 
Q 1119 906 1312 657 
Q 1506 409 1894 409 
Q 2359 409 2629 706 
Q 2900 1003 2900 1516 
L 2900 3500 
L 3475 3500 
L 3475 0 
L 2900 0 
L 2900 538 
Q 2691 219 2414 64 
Q 2138 -91 1772 -91 
Q 1169 -91 856 284 
Q 544 659 544 1381 
z
M 1991 3584 
L 1991 3584 
z
" transform="scale(0.015625)"/>
       <path id="DejaVuSans-73" d="M 2834 3397 
L 2834 2853 
Q 2591 2978 2328 3040 
Q 2066 3103 1784 3103 
Q 1356 3103 1142 2972 
Q 928 2841 928 2578 
Q 928 2378 1081 2264 
Q 1234 2150 1697 2047 
L 1894 2003 
Q 2506 1872 2764 1633 
Q 3022 1394 3022 966 
Q 3022 478 2636 193 
Q 2250 -91 1575 -91 
Q 1294 -91 989 -36 
Q 684 19 347 128 
L 347 722 
Q 666 556 975 473 
Q 1284 391 1588 391 
Q 1994 391 2212 530 
Q 2431 669 2431 922 
Q 2431 1156 2273 1281 
Q 2116 1406 1581 1522 
L 1381 1569 
Q 847 1681 609 1914 
Q 372 2147 372 2553 
Q 372 3047 722 3315 
Q 1072 3584 1716 3584 
Q 2034 3584 2315 3537 
Q 2597 3491 2834 3397 
z
" transform="scale(0.015625)"/>
      </defs>
      <use xlink:href="#DejaVuSans-5b"/>
      <use xlink:href="#DejaVuSans-63" x="39.013672"/>
      <use xlink:href="#DejaVuSans-6f" x="93.994141"/>
      <use xlink:href="#DejaVuSans-75" x="155.175781"/>
      <use xlink:href="#DejaVuSans-6e" x="218.554688"/>
      <use xlink:href="#DejaVuSans-74" x="281.933594"/>
      <use xlink:href="#DejaVuSans-73" x="321.142578"/>
      <use xlink:href="#DejaVuSans-5d" x="373.242188"/>
     </g>
    </g>
   </g>
   <g id="patch_3">
    <path d="M 46.965625 229.991136 
L 46.965625 8.231136 
" style="fill: none; stroke: #000000; stroke-width: 0.8; stroke-linejoin: miter; stroke-linecap: square"/>
   </g>
   <g id="patch_4">
    <path d="M 381.765625 229.991136 
L 381.765625 8.231136 
" style="fill: none; stroke: #000000; stroke-width: 0.8; stroke-linejoin: miter; stroke-linecap: square"/>
   </g>
   <g id="patch_5">
    <path d="M 46.965625 229.991136 
L 381.765625 229.991136 
" style="fill: none; stroke: #000000; stroke-width: 0.8; stroke-linejoin: miter; stroke-linecap: square"/>
   </g>
   <g id="patch_6">
    <path d="M 46.965625 8.231136 
L 381.765625 8.231136 
" style="fill: none; stroke: #000000; stroke-width: 0.8; stroke-linejoin: miter; stroke-linecap: square"/>
   </g>
   <g id="legend_1">
    <g id="patch_7">
     <path d="M 277.7625 45.865511 
L 374.765625 45.865511 
Q 376.765625 45.865511 376.765625 43.865511 
L 376.765625 15.231136 
Q 376.765625 13.231136 374.765625 13.231136 
L 277.7625 13.231136 
Q 275.7625 13.231136 275.7625 15.231136 
L 275.7625 43.865511 
Q 275.7625 45.865511 277.7625 45.865511 
z
" style="fill: #ffffff; opacity: 0.8; stroke: #cccccc; stroke-linejoin: miter"/>
    </g>
    <g id="line2d_18">
     <path d="M 279.7625 21.329573 
L 279.7625 21.329573 
L 289.7625 21.329573 
L 289.7625 21.329573 
L 299.7625 21.329573 
" style="fill: none; stroke: #1f77b4; stroke-width: 1.5; stroke-linecap: square"/>
    </g>
    <g id="text_20">
     <!-- wfm -->
     <g transform="translate(307.7625 24.829573) scale(0.1 -0.1)">
      <defs>
       <path id="DejaVuSans-66" d="M 2375 4863 
L 2375 4384 
L 1825 4384 
Q 1516 4384 1395 4259 
Q 1275 4134 1275 3809 
L 1275 3500 
L 2222 3500 
L 2222 3053 
L 1275 3053 
L 1275 0 
L 697 0 
L 697 3053 
L 147 3053 
L 147 3500 
L 697 3500 
L 697 3744 
Q 697 4328 969 4595 
Q 1241 4863 1831 4863 
L 2375 4863 
z
" transform="scale(0.015625)"/>
       <path id="DejaVuSans-6d" d="M 3328 2828 
Q 3544 3216 3844 3400 
Q 4144 3584 4550 3584 
Q 5097 3584 5394 3201 
Q 5691 2819 5691 2113 
L 5691 0 
L 5113 0 
L 5113 2094 
Q 5113 2597 4934 2840 
Q 4756 3084 4391 3084 
Q 3944 3084 3684 2787 
Q 3425 2491 3425 1978 
L 3425 0 
L 2847 0 
L 2847 2094 
Q 2847 2600 2669 2842 
Q 2491 3084 2119 3084 
Q 1678 3084 1418 2786 
Q 1159 2488 1159 1978 
L 1159 0 
L 581 0 
L 581 3500 
L 1159 3500 
L 1159 2956 
Q 1356 3278 1631 3431 
Q 1906 3584 2284 3584 
Q 2666 3584 2933 3390 
Q 3200 3197 3328 2828 
z
" transform="scale(0.015625)"/>
      </defs>
      <use xlink:href="#DejaVuSans-77"/>
      <use xlink:href="#DejaVuSans-66" x="81.787109"/>
      <use xlink:href="#DejaVuSans-6d" x="116.992188"/>
     </g>
    </g>
    <g id="line2d_19">
     <path d="M 279.7625 36.007698 
L 279.7625 36.007698 
L 289.7625 36.007698 
L 289.7625 36.007698 
L 299.7625 36.007698 
" style="fill: none; stroke: #ff7f0e; stroke-width: 1.5; stroke-linecap: square"/>
    </g>
    <g id="text_21">
     <!-- ground_truth -->
     <g transform="translate(307.7625 39.507698) scale(0.1 -0.1)">
      <defs>
       <path id="DejaVuSans-72" d="M 2631 2963 
Q 2534 3019 2420 3045 
Q 2306 3072 2169 3072 
Q 1681 3072 1420 2755 
Q 1159 2438 1159 1844 
L 1159 0 
L 581 0 
L 581 3500 
L 1159 3500 
L 1159 2956 
Q 1341 3275 1631 3429 
Q 1922 3584 2338 3584 
Q 2397 3584 2469 3576 
Q 2541 3569 2628 3553 
L 2631 2963 
z
" transform="scale(0.015625)"/>
       <path id="DejaVuSans-64" d="M 2906 2969 
L 2906 4863 
L 3481 4863 
L 3481 0 
L 2906 0 
L 2906 525 
Q 2725 213 2448 61 
Q 2172 -91 1784 -91 
Q 1150 -91 751 415 
Q 353 922 353 1747 
Q 353 2572 751 3078 
Q 1150 3584 1784 3584 
Q 2172 3584 2448 3432 
Q 2725 3281 2906 2969 
z
M 947 1747 
Q 947 1113 1208 752 
Q 1469 391 1925 391 
Q 2381 391 2643 752 
Q 2906 1113 2906 1747 
Q 2906 2381 2643 2742 
Q 2381 3103 1925 3103 
Q 1469 3103 1208 2742 
Q 947 2381 947 1747 
z
" transform="scale(0.015625)"/>
       <path id="DejaVuSans-5f" d="M 3263 -1063 
L 3263 -1509 
L -63 -1509 
L -63 -1063 
L 3263 -1063 
z
" transform="scale(0.015625)"/>
      </defs>
      <use xlink:href="#DejaVuSans-67"/>
      <use xlink:href="#DejaVuSans-72" x="63.476562"/>
      <use xlink:href="#DejaVuSans-6f" x="102.339844"/>
      <use xlink:href="#DejaVuSans-75" x="163.521484"/>
      <use xlink:href="#DejaVuSans-6e" x="226.900391"/>
      <use xlink:href="#DejaVuSans-64" x="290.279297"/>
      <use xlink:href="#DejaVuSans-5f" x="353.755859"/>
      <use xlink:href="#DejaVuSans-74" x="403.755859"/>
      <use xlink:href="#DejaVuSans-72" x="442.964844"/>
      <use xlink:href="#DejaVuSans-75" x="484.078125"/>
      <use xlink:href="#DejaVuSans-74" x="547.457031"/>
      <use xlink:href="#DejaVuSans-68" x="586.666016"/>
     </g>
    </g>
   </g>
   <g id="line2d_20">
    <path d="M 62.183807 219.911136 
L 69.792898 219.911136 
L 69.792898 219.649996 
L 71.314716 219.649996 
L 71.314716 213.121499 
L 72.836534 213.121499 
L 72.836534 206.331861 
L 74.358352 206.331861 
L 74.358352 200.847923 
L 75.88017 200.847923 
L 75.88017 191.185747 
L 77.401989 191.185747 
L 77.401989 180.740151 
L 78.923807 180.740151 
L 78.923807 171.600255 
L 80.445625 171.600255 
L 80.445625 162.460359 
L 81.967443 162.460359 
L 81.967443 158.28212 
L 83.489261 158.28212 
L 83.489261 148.619944 
L 85.01108 148.619944 
L 85.01108 145.747405 
L 86.532898 145.747405 
L 86.532898 129.817872 
L 88.054716 129.817872 
L 88.054716 117.805436 
L 89.576534 117.805436 
L 89.576534 114.932898 
L 91.098352 114.932898 
L 91.098352 114.410618 
L 92.62017 114.410618 
L 92.62017 94.041706 
L 94.141989 94.041706 
L 94.141989 85.685229 
L 97.185625 85.685229 
L 97.185625 77.067613 
L 98.707443 77.067613 
L 98.707443 71.322535 
L 100.229261 71.322535 
L 100.229261 69.494556 
L 101.75108 69.494556 
L 101.75108 63.227198 
L 103.272898 63.227198 
L 103.272898 56.698701 
L 104.794716 56.698701 
L 104.794716 54.609581 
L 106.316534 54.609581 
L 106.316534 41.552587 
L 107.838352 41.552587 
L 107.838352 39.202328 
L 109.36017 39.202328 
L 109.36017 40.246887 
L 110.881989 40.246887 
L 110.881989 27.712172 
L 112.403807 27.712172 
L 112.403807 28.756732 
L 113.925625 28.756732 
L 113.925625 18.311136 
L 115.447443 18.311136 
L 115.447443 19.877975 
L 116.969261 19.877975 
L 116.969261 19.355695 
L 118.49108 19.355695 
L 118.49108 31.89041 
L 120.012898 31.89041 
L 120.012898 19.877975 
L 121.534716 19.877975 
L 121.534716 21.705955 
L 123.056534 21.705955 
L 123.056534 24.578493 
L 124.578352 24.578493 
L 124.578352 28.234452 
L 126.10017 28.234452 
L 126.10017 28.756732 
L 127.621989 28.756732 
L 127.621989 34.762949 
L 129.143807 34.762949 
L 129.143807 37.635488 
L 132.187443 37.635488 
L 132.187443 43.380566 
L 133.709261 43.380566 
L 133.709261 48.603364 
L 135.23108 48.603364 
L 135.23108 45.730825 
L 136.752898 45.730825 
L 136.752898 40.246887 
L 138.274716 40.246887 
L 138.274716 52.781602 
L 139.796534 52.781602 
L 139.796534 51.475903 
L 141.318352 51.475903 
L 141.318352 39.463467 
L 142.84017 39.463467 
L 142.84017 55.654141 
L 144.361989 55.654141 
L 144.361989 51.737043 
L 145.883807 51.737043 
L 145.883807 48.081084 
L 147.405625 48.081084 
L 147.405625 57.74326 
L 148.927443 57.74326 
L 148.927443 61.399219 
L 150.449261 61.399219 
L 150.449261 55.915281 
L 151.97108 55.915281 
L 151.97108 55.654141 
L 153.492898 55.654141 
L 153.492898 56.698701 
L 155.014716 56.698701 
L 155.014716 55.915281 
L 156.536534 55.915281 
L 156.536534 62.704918 
L 158.058352 62.704918 
L 158.058352 63.227198 
L 159.58017 63.227198 
L 159.58017 66.360877 
L 161.101989 66.360877 
L 161.101989 67.144296 
L 162.623807 67.144296 
L 162.623807 66.883157 
L 164.145625 66.883157 
L 164.145625 70.277975 
L 165.667443 70.277975 
L 165.667443 67.666576 
L 167.189261 67.666576 
L 167.189261 71.583675 
L 168.71108 71.583675 
L 168.71108 73.933934 
L 170.232898 73.933934 
L 170.232898 70.277975 
L 171.754716 70.277975 
L 171.754716 73.933934 
L 173.276534 73.933934 
L 173.276534 72.889374 
L 174.798352 72.889374 
L 174.798352 87.252068 
L 176.32017 87.252068 
L 176.32017 76.806473 
L 177.841989 76.806473 
L 177.841989 80.984711 
L 179.363807 80.984711 
L 179.363807 84.37953 
L 180.885625 84.37953 
L 180.885625 92.736006 
L 182.407443 92.736006 
L 182.407443 103.965022 
L 183.929261 103.965022 
L 183.929261 101.092483 
L 185.45108 101.092483 
L 185.45108 116.238597 
L 186.972898 116.238597 
L 186.972898 117.022017 
L 188.494716 117.022017 
L 188.494716 122.244815 
L 190.016534 122.244815 
L 190.016534 137.913208 
L 191.538352 137.913208 
L 191.538352 141.308027 
L 193.06017 141.308027 
L 193.06017 134.51839 
L 194.581989 134.51839 
L 194.581989 155.931861 
L 196.103807 155.931861 
L 196.103807 170.555695 
L 197.625625 170.555695 
L 197.625625 170.033416 
L 199.147443 170.033416 
L 199.147443 178.651032 
L 200.669261 178.651032 
L 200.669261 181.262431 
L 202.19108 181.262431 
L 202.19108 189.096628 
L 203.712898 189.096628 
L 203.712898 192.752587 
L 205.234716 192.752587 
L 205.234716 196.147405 
L 206.756534 196.147405 
L 206.756534 207.898701 
L 208.278352 207.898701 
L 208.278352 211.293519 
L 209.80017 211.293519 
L 209.80017 214.949478 
L 211.321989 214.949478 
L 211.321989 216.777457 
L 212.843807 216.777457 
L 212.843807 217.038597 
L 214.365625 217.038597 
L 214.365625 210.24896 
L 215.887443 210.24896 
L 215.887443 203.720462 
L 217.409261 203.720462 
L 217.409261 198.758804 
L 218.93108 198.758804 
L 218.93108 189.880048 
L 220.452898 189.880048 
L 220.452898 181.784711 
L 221.974716 181.784711 
L 221.974716 170.294556 
L 223.496534 170.294556 
L 223.496534 171.077975 
L 225.018352 171.077975 
L 225.018352 164.810618 
L 226.54017 164.810618 
L 226.54017 161.154659 
L 228.061989 161.154659 
L 228.061989 149.403364 
L 229.583807 149.403364 
L 229.583807 147.053105 
L 231.105625 147.053105 
L 231.105625 144.180566 
L 234.149261 144.180566 
L 234.149261 132.168131 
L 235.67108 132.168131 
L 235.67108 122.505955 
L 237.192898 122.505955 
L 237.192898 125.378493 
L 238.714716 125.378493 
L 238.714716 114.410618 
L 240.236534 114.410618 
L 240.236534 119.111136 
L 241.758352 119.111136 
L 241.758352 123.028234 
L 243.28017 123.028234 
L 243.28017 111.538079 
L 244.801989 111.538079 
L 244.801989 110.493519 
L 246.323807 110.493519 
L 246.323807 116.760877 
L 247.845625 116.760877 
L 247.845625 93.258286 
L 249.367443 93.258286 
L 249.367443 92.997146 
L 250.889261 92.997146 
L 250.889261 88.296628 
L 252.41108 88.296628 
L 252.41108 88.557768 
L 253.932898 88.557768 
L 253.932898 82.029271 
L 255.454716 82.029271 
L 255.454716 83.07383 
L 256.976534 83.07383 
L 256.976534 89.080048 
L 258.498352 89.080048 
L 258.498352 81.245851 
L 260.02017 81.245851 
L 260.02017 80.984711 
L 261.541989 80.984711 
L 261.541989 86.990929 
L 263.063807 86.990929 
L 263.063807 94.302846 
L 264.585625 94.302846 
L 264.585625 87.513208 
L 266.107443 87.513208 
L 266.107443 85.162949 
L 267.629261 85.162949 
L 267.629261 88.557768 
L 269.15108 88.557768 
L 269.15108 99.264504 
L 270.672898 99.264504 
L 270.672898 99.525644 
L 272.194716 99.525644 
L 272.194716 100.309063 
L 273.716534 100.309063 
L 273.716534 101.875903 
L 275.238352 101.875903 
L 275.238352 103.703882 
L 276.76017 103.703882 
L 276.76017 98.742224 
L 278.281989 98.742224 
L 278.281989 104.748442 
L 279.803807 104.748442 
L 279.803807 97.436524 
L 281.325625 97.436524 
L 281.325625 98.742224 
L 282.847443 98.742224 
L 282.847443 112.582638 
L 284.369261 112.582638 
L 284.369261 114.932898 
L 285.89108 114.932898 
L 285.89108 114.410618 
L 287.412898 114.410618 
L 287.412898 119.633416 
L 288.934716 119.633416 
L 288.934716 120.155695 
L 290.456534 120.155695 
L 290.456534 117.544296 
L 291.978352 117.544296 
L 291.978352 121.722535 
L 293.50017 121.722535 
L 293.50017 125.117353 
L 295.021989 125.117353 
L 295.021989 138.174348 
L 296.543807 138.174348 
L 296.543807 129.034452 
L 298.065625 129.034452 
L 298.065625 130.862431 
L 299.587443 130.862431 
L 299.587443 136.346369 
L 301.109261 136.346369 
L 301.109261 130.340151 
L 302.63108 130.340151 
L 302.63108 142.352587 
L 304.152898 142.352587 
L 304.152898 123.289374 
L 305.674716 123.289374 
L 305.674716 140.263467 
L 307.196534 140.263467 
L 307.196534 143.397146 
L 308.718352 143.397146 
L 308.718352 142.091447 
L 310.24017 142.091447 
L 310.24017 150.970203 
L 311.761989 150.970203 
L 311.761989 141.830307 
L 313.283807 141.830307 
L 313.283807 154.103882 
L 314.805625 154.103882 
L 314.805625 149.142224 
L 316.327443 149.142224 
L 316.327443 155.409581 
L 317.849261 155.409581 
L 317.849261 150.186784 
L 319.37108 150.186784 
L 319.37108 165.594037 
L 320.892898 165.594037 
L 320.892898 156.454141 
L 322.414716 156.454141 
L 322.414716 163.504918 
L 323.936534 163.504918 
L 323.936534 166.377457 
L 325.458352 166.377457 
L 325.458352 166.116317 
L 326.98017 166.116317 
L 326.98017 176.300773 
L 328.501989 176.300773 
L 328.501989 173.167094 
L 330.023807 173.167094 
L 330.023807 176.823053 
L 331.545625 176.823053 
L 331.545625 180.479011 
L 333.067443 180.479011 
L 333.067443 184.39611 
L 334.589261 184.39611 
L 334.589261 189.096628 
L 336.11108 189.096628 
L 336.11108 190.663467 
L 337.632898 190.663467 
L 337.632898 198.497664 
L 339.154716 198.497664 
L 339.154716 198.236524 
L 340.676534 198.236524 
L 340.676534 202.153623 
L 342.198352 202.153623 
L 342.198352 206.070721 
L 343.72017 206.070721 
L 343.72017 206.854141 
L 345.241989 206.854141 
L 345.241989 211.554659 
L 346.763807 211.554659 
L 346.763807 211.032379 
L 348.285625 211.032379 
L 348.285625 212.599219 
L 349.807443 212.599219 
L 349.807443 210.771239 
L 351.329261 210.771239 
L 351.329261 216.777457 
L 354.372898 216.777457 
L 354.372898 217.822017 
L 355.894716 217.822017 
L 355.894716 218.083157 
L 357.416534 218.083157 
L 357.416534 219.388856 
L 358.938352 219.388856 
L 358.938352 219.649996 
L 360.46017 219.649996 
L 360.46017 219.911136 
L 366.547443 219.911136 
L 366.547443 219.911136 
" clip-path="url(#p05608ee40e)" style="fill: none; stroke: #1f77b4; stroke-width: 1.5; stroke-linecap: square"/>
   </g>
   <g id="line2d_21">
    <path d="M 62.183807 219.911136 
L 69.792898 219.911136 
L 69.792898 215.732898 
L 71.314716 215.732898 
L 71.314716 211.293519 
L 72.836534 211.293519 
L 72.836534 201.892483 
L 74.358352 201.892483 
L 74.358352 195.102846 
L 75.88017 195.102846 
L 75.88017 191.708027 
L 77.401989 191.708027 
L 77.401989 169.511136 
L 78.923807 169.511136 
L 78.923807 173.167094 
L 80.445625 173.167094 
L 80.445625 161.415799 
L 81.967443 161.415799 
L 81.967443 156.976421 
L 83.489261 156.976421 
L 83.489261 147.314245 
L 85.01108 147.314245 
L 85.01108 143.397146 
L 86.532898 143.397146 
L 86.532898 125.117353 
L 88.054716 125.117353 
L 88.054716 116.760877 
L 89.576534 116.760877 
L 89.576534 114.671758 
L 91.098352 114.671758 
L 91.098352 115.716317 
L 92.62017 115.716317 
L 92.62017 98.219944 
L 94.141989 98.219944 
L 94.141989 86.990929 
L 95.663807 86.990929 
L 95.663807 82.029271 
L 97.185625 82.029271 
L 97.185625 79.940151 
L 98.707443 79.940151 
L 98.707443 78.895592 
L 100.229261 78.895592 
L 100.229261 71.061395 
L 101.75108 71.061395 
L 101.75108 64.271758 
L 103.272898 64.271758 
L 103.272898 63.227198 
L 104.794716 63.227198 
L 104.794716 48.864504 
L 106.316534 48.864504 
L 106.316534 53.303882 
L 107.838352 53.303882 
L 107.838352 45.469685 
L 109.36017 45.469685 
L 109.36017 41.813727 
L 110.881989 41.813727 
L 110.881989 35.024089 
L 112.403807 35.024089 
L 112.403807 31.368131 
L 113.925625 31.368131 
L 113.925625 21.183675 
L 115.447443 21.183675 
L 115.447443 21.967094 
L 116.969261 21.967094 
L 116.969261 29.017872 
L 118.49108 29.017872 
L 118.49108 29.801291 
L 120.012898 29.801291 
L 120.012898 23.272794 
L 121.534716 23.272794 
L 121.534716 28.234452 
L 123.056534 28.234452 
L 123.056534 25.361913 
L 124.578352 25.361913 
L 124.578352 23.272794 
L 126.10017 23.272794 
L 126.10017 29.540151 
L 127.621989 29.540151 
L 127.621989 31.368131 
L 129.143807 31.368131 
L 129.143807 32.15155 
L 130.665625 32.15155 
L 130.665625 37.635488 
L 132.187443 37.635488 
L 132.187443 38.941188 
L 133.709261 38.941188 
L 133.709261 54.609581 
L 135.23108 54.609581 
L 135.23108 51.475903 
L 136.752898 51.475903 
L 136.752898 36.852068 
L 138.274716 36.852068 
L 138.274716 47.036524 
L 139.796534 47.036524 
L 139.796534 41.813727 
L 141.318352 41.813727 
L 141.318352 54.348442 
L 142.84017 54.348442 
L 142.84017 47.036524 
L 144.361989 47.036524 
L 144.361989 52.520462 
L 145.883807 52.520462 
L 145.883807 49.647923 
L 147.405625 49.647923 
L 147.405625 57.22098 
L 148.927443 57.22098 
L 148.927443 54.609581 
L 150.449261 54.609581 
L 150.449261 63.488338 
L 151.97108 63.488338 
L 151.97108 56.437561 
L 153.492898 56.437561 
L 153.492898 53.565022 
L 155.014716 53.565022 
L 155.014716 50.431343 
L 156.536534 50.431343 
L 156.536534 66.099737 
L 158.058352 66.099737 
L 158.058352 64.010618 
L 159.58017 64.010618 
L 159.58017 64.532898 
L 161.101989 64.532898 
L 161.101989 69.233416 
L 162.623807 69.233416 
L 162.623807 62.704918 
L 164.145625 62.704918 
L 164.145625 66.099737 
L 165.667443 66.099737 
L 165.667443 68.449996 
L 167.189261 68.449996 
L 167.189261 76.023053 
L 168.71108 76.023053 
L 168.71108 67.144296 
L 170.232898 67.144296 
L 170.232898 72.367094 
L 171.754716 72.367094 
L 171.754716 69.233416 
L 173.276534 69.233416 
L 173.276534 73.411654 
L 174.798352 73.411654 
L 174.798352 78.895592 
L 177.841989 78.895592 
L 177.841989 80.462431 
L 179.363807 80.462431 
L 179.363807 76.284193 
L 180.885625 76.284193 
L 180.885625 98.742224 
L 182.407443 98.742224 
L 182.407443 90.385747 
L 183.929261 90.385747 
L 183.929261 105.531861 
L 185.45108 105.531861 
L 185.45108 113.366058 
L 186.972898 113.366058 
L 186.972898 113.888338 
L 188.494716 113.888338 
L 188.494716 121.722535 
L 190.016534 121.722535 
L 190.016534 136.085229 
L 191.538352 136.085229 
L 191.538352 137.652068 
L 193.06017 137.652068 
L 193.06017 139.741188 
L 194.581989 139.741188 
L 194.581989 155.931861 
L 196.103807 155.931861 
L 196.103807 171.077975 
L 197.625625 171.077975 
L 197.625625 173.167094 
L 199.147443 173.167094 
L 199.147443 177.606473 
L 200.669261 177.606473 
L 200.669261 187.790929 
L 202.19108 187.790929 
L 202.19108 184.65725 
L 203.712898 184.65725 
L 203.712898 195.886265 
L 205.234716 195.886265 
L 205.234716 202.414763 
L 206.756534 202.414763 
L 206.756534 210.771239 
L 208.278352 210.771239 
L 208.278352 213.643778 
L 209.80017 213.643778 
L 209.80017 216.516317 
L 211.321989 216.516317 
L 211.321989 217.299737 
L 212.843807 217.299737 
L 212.843807 214.166058 
L 214.365625 214.166058 
L 214.365625 204.503882 
L 215.887443 204.503882 
L 215.887443 202.937043 
L 217.409261 202.937043 
L 217.409261 193.274866 
L 218.93108 193.274866 
L 218.93108 188.313208 
L 220.452898 188.313208 
L 220.452898 175.778493 
L 221.974716 175.778493 
L 221.974716 173.689374 
L 223.496534 173.689374 
L 223.496534 168.205436 
L 225.018352 168.205436 
L 225.018352 163.766058 
L 226.54017 163.766058 
L 226.54017 161.415799 
L 228.061989 161.415799 
L 228.061989 146.008545 
L 229.583807 146.008545 
L 229.583807 147.314245 
L 231.105625 147.314245 
L 231.105625 143.919426 
L 232.627443 143.919426 
L 232.627443 148.358804 
L 234.149261 148.358804 
L 234.149261 130.601291 
L 235.67108 130.601291 
L 235.67108 129.034452 
L 237.192898 129.034452 
L 237.192898 120.677975 
L 238.714716 120.677975 
L 238.714716 119.894556 
L 240.236534 119.894556 
L 240.236534 119.633416 
L 241.758352 119.633416 
L 241.758352 123.811654 
L 243.28017 123.811654 
L 243.28017 113.888338 
L 244.801989 113.888338 
L 244.801989 118.849996 
L 246.323807 118.849996 
L 246.323807 113.366058 
L 247.845625 113.366058 
L 247.845625 91.430307 
L 249.367443 91.430307 
L 249.367443 99.786784 
L 250.889261 99.786784 
L 250.889261 93.258286 
L 252.41108 93.258286 
L 252.41108 94.302846 
L 253.932898 94.302846 
L 253.932898 83.59611 
L 255.454716 83.59611 
L 255.454716 88.035488 
L 256.976534 88.035488 
L 256.976534 85.946369 
L 258.498352 85.946369 
L 258.498352 86.207509 
L 260.02017 86.207509 
L 260.02017 84.37953 
L 263.063807 84.37953 
L 263.063807 92.997146 
L 264.585625 92.997146 
L 264.585625 90.124607 
L 266.107443 90.124607 
L 266.107443 81.245851 
L 267.629261 81.245851 
L 267.629261 89.080048 
L 269.15108 89.080048 
L 269.15108 100.570203 
L 270.672898 100.570203 
L 270.672898 101.092483 
L 272.194716 101.092483 
L 272.194716 96.914245 
L 273.716534 96.914245 
L 273.716534 104.748442 
L 275.238352 104.748442 
L 275.238352 101.875903 
L 276.76017 101.875903 
L 276.76017 94.563986 
L 278.281989 94.563986 
L 278.281989 103.181602 
L 281.325625 103.181602 
L 281.325625 92.997146 
L 282.847443 92.997146 
L 282.847443 113.104918 
L 285.89108 113.104918 
L 285.89108 118.066576 
L 287.412898 118.066576 
L 287.412898 115.716317 
L 288.934716 115.716317 
L 288.934716 121.461395 
L 290.456534 121.461395 
L 290.456534 120.155695 
L 291.978352 120.155695 
L 291.978352 116.499737 
L 293.50017 116.499737 
L 293.50017 127.989892 
L 295.021989 127.989892 
L 295.021989 133.73497 
L 296.543807 133.73497 
L 296.543807 130.601291 
L 298.065625 130.601291 
L 298.065625 131.123571 
L 301.109261 131.123571 
L 301.109261 135.824089 
L 302.63108 135.824089 
L 302.63108 138.174348 
L 304.152898 138.174348 
L 304.152898 134.51839 
L 305.674716 134.51839 
L 305.674716 132.95155 
L 307.196534 132.95155 
L 307.196534 139.480048 
L 308.718352 139.480048 
L 308.718352 144.963986 
L 310.24017 144.963986 
L 310.24017 146.008545 
L 311.761989 146.008545 
L 311.761989 146.791965 
L 313.283807 146.791965 
L 313.283807 153.320462 
L 314.805625 153.320462 
L 314.805625 148.881084 
L 316.327443 148.881084 
L 316.327443 153.059322 
L 317.849261 153.059322 
L 317.849261 150.447923 
L 319.37108 150.447923 
L 319.37108 161.938079 
L 320.892898 161.938079 
L 320.892898 157.498701 
L 322.414716 157.498701 
L 322.414716 163.243778 
L 323.936534 163.243778 
L 323.936534 166.377457 
L 326.98017 166.377457 
L 326.98017 171.861395 
L 328.501989 171.861395 
L 328.501989 175.517353 
L 330.023807 175.517353 
L 330.023807 171.861395 
L 331.545625 171.861395 
L 331.545625 179.956732 
L 333.067443 179.956732 
L 333.067443 185.701809 
L 334.589261 185.701809 
L 334.589261 190.141188 
L 337.632898 190.141188 
L 337.632898 199.019944 
L 339.154716 199.019944 
L 339.154716 197.453105 
L 340.676534 197.453105 
L 340.676534 204.242742 
L 342.198352 204.242742 
L 342.198352 206.331861 
L 343.72017 206.331861 
L 343.72017 207.376421 
L 345.241989 207.376421 
L 345.241989 212.860359 
L 346.763807 212.860359 
L 346.763807 210.5101 
L 348.285625 210.5101 
L 348.285625 211.554659 
L 349.807443 211.554659 
L 349.807443 214.166058 
L 351.329261 214.166058 
L 351.329261 215.471758 
L 352.85108 215.471758 
L 352.85108 218.344296 
L 354.372898 218.344296 
L 354.372898 217.560877 
L 355.894716 217.560877 
L 355.894716 218.866576 
L 357.416534 218.866576 
L 357.416534 219.649996 
L 358.938352 219.649996 
L 358.938352 219.911136 
L 366.547443 219.911136 
L 366.547443 219.911136 
" clip-path="url(#p05608ee40e)" style="fill: none; stroke: #ff7f0e; stroke-width: 1.5; stroke-linecap: square"/>
   </g>
  </g>
 </g>
 <defs>
  <clipPath id="p05608ee40e">
   <rect x="46.965625" y="8.231136" width="334.8" height="221.76"/>
  </clipPath>
 </defs>
</svg>
