<?xml version="1.0" encoding="UTF-8" standalone="no"?>
<!DOCTYPE svg PUBLIC "-//W3C//DTD SVG 1.1//EN"
 "http://www.w3.org/Graphics/SVG/1.1/DTD/svg11.dtd">
<!-- Generated by graphviz version 7.1.0 (20230122.1345)
 -->
<!-- Pages: 1 -->
<svg width="862pt" height="548pt"
 viewBox="0.00 0.00 862.38 548.00" xmlns="http://www.w3.org/2000/svg" xmlns:xlink="http://www.w3.org/1999/xlink">
<g id="graph0" class="graph" transform="scale(1 1) rotate(0) translate(4 544)">
<polygon fill="white" stroke="none" points="-4,4 -4,-544 858.38,-544 858.38,4 -4,4"/>
<!-- Choppers -->
<g id="node1" class="node">
<title>Choppers</title>
<polygon fill="none" stroke="red" stroke-dasharray="5,2" points="564.38,-468 479.38,-468 479.38,-432 564.38,-432 564.38,-468"/>
<text text-anchor="middle" x="521.88" y="-446.3" font-family="Times,serif" font-size="14.00" fill="red">Choppers</text>
</g>
<!-- scippneutron.tof.unwrap.frame_at_detector_FrameAtDetector -->
<g id="node2" class="node">
<title>scippneutron.tof.unwrap.frame_at_detector_FrameAtDetector</title>
<ellipse fill="none" stroke="black" cx="583.88" cy="-378" rx="94.78" ry="18"/>
<text text-anchor="middle" x="583.88" y="-374.3" font-family="Times,serif" font-size="14.00">frame_at_detector</text>
</g>
<!-- Choppers&#45;&gt;scippneutron.tof.unwrap.frame_at_detector_FrameAtDetector -->
<g id="edge3" class="edge">
<title>Choppers&#45;&gt;scippneutron.tof.unwrap.frame_at_detector_FrameAtDetector</title>
<path fill="none" stroke="black" d="M537.21,-431.7C544.41,-423.56 553.16,-413.69 561.12,-404.7"/>
<polygon fill="black" stroke="black" points="563.72,-407.04 567.73,-397.24 558.48,-402.4 563.72,-407.04"/>
</g>
<!-- scippneutron.tof.unwrap.source_chopper_SourceChopper -->
<g id="node7" class="node">
<title>scippneutron.tof.unwrap.source_chopper_SourceChopper</title>
<ellipse fill="none" stroke="black" cx="387.88" cy="-378" rx="83.39" ry="18"/>
<text text-anchor="middle" x="387.88" y="-374.3" font-family="Times,serif" font-size="14.00">source_chopper</text>
</g>
<!-- Choppers&#45;&gt;scippneutron.tof.unwrap.source_chopper_SourceChopper -->
<g id="edge6" class="edge">
<title>Choppers&#45;&gt;scippneutron.tof.unwrap.source_chopper_SourceChopper</title>
<path fill="none" stroke="black" d="M488.41,-431.52C470.28,-422.04 447.72,-410.26 428.58,-400.26"/>
<polygon fill="black" stroke="black" points="430.46,-397.29 419.97,-395.76 427.22,-403.5 430.46,-397.29"/>
</g>
<!-- FrameAtDetector -->
<g id="node6" class="node">
<title>FrameAtDetector</title>
<polygon fill="none" stroke="black" points="643.38,-324 502.38,-324 502.38,-288 643.38,-288 643.38,-324"/>
<text text-anchor="middle" x="572.88" y="-302.3" font-family="Times,serif" font-size="14.00">FrameAtDetector</text>
</g>
<!-- scippneutron.tof.unwrap.frame_at_detector_FrameAtDetector&#45;&gt;FrameAtDetector -->
<g id="edge5" class="edge">
<title>scippneutron.tof.unwrap.frame_at_detector_FrameAtDetector&#45;&gt;FrameAtDetector</title>
<path fill="none" stroke="black" d="M581.16,-359.7C580,-352.32 578.62,-343.52 577.32,-335.25"/>
<polygon fill="black" stroke="black" points="580.81,-334.93 575.8,-325.6 573.9,-336.02 580.81,-334.93"/>
</g>
<!-- SourceWavelengthRange -->
<g id="node3" class="node">
<title>SourceWavelengthRange</title>
<polygon fill="none" stroke="red" stroke-dasharray="5,2" points="854.38,-468 659.38,-468 659.38,-432 854.38,-432 854.38,-468"/>
<text text-anchor="middle" x="756.88" y="-446.3" font-family="Times,serif" font-size="14.00" fill="red">SourceWavelengthRange</text>
</g>
<!-- SourceWavelengthRange&#45;&gt;scippneutron.tof.unwrap.frame_at_detector_FrameAtDetector -->
<g id="edge1" class="edge">
<title>SourceWavelengthRange&#45;&gt;scippneutron.tof.unwrap.frame_at_detector_FrameAtDetector</title>
<path fill="none" stroke="black" d="M713.67,-431.52C689.33,-421.67 658.82,-409.32 633.5,-399.08"/>
<polygon fill="black" stroke="black" points="634.98,-395.9 624.4,-395.4 632.36,-402.39 634.98,-395.9"/>
</g>
<!-- SourceTimeRange -->
<g id="node4" class="node">
<title>SourceTimeRange</title>
<polygon fill="none" stroke="red" stroke-dasharray="5,2" points="460.88,-468 314.88,-468 314.88,-432 460.88,-432 460.88,-468"/>
<text text-anchor="middle" x="387.88" y="-446.3" font-family="Times,serif" font-size="14.00" fill="red">SourceTimeRange</text>
</g>
<!-- SourceTimeRange&#45;&gt;scippneutron.tof.unwrap.frame_at_detector_FrameAtDetector -->
<g id="edge2" class="edge">
<title>SourceTimeRange&#45;&gt;scippneutron.tof.unwrap.frame_at_detector_FrameAtDetector</title>
<path fill="none" stroke="black" d="M436.83,-431.52C465.09,-421.43 500.67,-408.72 529.75,-398.33"/>
<polygon fill="black" stroke="black" points="530.88,-401.64 539.13,-394.98 528.53,-395.05 530.88,-401.64"/>
</g>
<!-- SourceTimeRange&#45;&gt;scippneutron.tof.unwrap.source_chopper_SourceChopper -->
<g id="edge7" class="edge">
<title>SourceTimeRange&#45;&gt;scippneutron.tof.unwrap.source_chopper_SourceChopper</title>
<path fill="none" stroke="black" d="M387.88,-431.7C387.88,-424.41 387.88,-415.73 387.88,-407.54"/>
<polygon fill="black" stroke="black" points="391.38,-407.62 387.88,-397.62 384.38,-407.62 391.38,-407.62"/>
</g>
<!-- Ltotal -->
<g id="node5" class="node">
<title>Ltotal</title>
<polygon fill="none" stroke="red" stroke-dasharray="5,2" points="641.38,-468 582.38,-468 582.38,-432 641.38,-432 641.38,-468"/>
<text text-anchor="middle" x="611.88" y="-446.3" font-family="Times,serif" font-size="14.00" fill="red">Ltotal</text>
</g>
<!-- Ltotal&#45;&gt;scippneutron.tof.unwrap.frame_at_detector_FrameAtDetector -->
<g id="edge4" class="edge">
<title>Ltotal&#45;&gt;scippneutron.tof.unwrap.frame_at_detector_FrameAtDetector</title>
<path fill="none" stroke="black" d="M604.96,-431.7C601.94,-424.15 598.33,-415.12 594.95,-406.68"/>
<polygon fill="black" stroke="black" points="598.25,-405.49 591.29,-397.51 591.75,-408.09 598.25,-405.49"/>
</g>
<!-- scippneutron.tof.unwrap.subframe_bounds_SubframeBounds -->
<g id="node11" class="node">
<title>scippneutron.tof.unwrap.subframe_bounds_SubframeBounds</title>
<ellipse fill="none" stroke="black" cx="553.88" cy="-234" rx="92.88" ry="18"/>
<text text-anchor="middle" x="553.88" y="-230.3" font-family="Times,serif" font-size="14.00">subframe_bounds</text>
</g>
<!-- FrameAtDetector&#45;&gt;scippneutron.tof.unwrap.subframe_bounds_SubframeBounds -->
<g id="edge11" class="edge">
<title>FrameAtDetector&#45;&gt;scippneutron.tof.unwrap.subframe_bounds_SubframeBounds</title>
<path fill="none" stroke="black" d="M568.18,-287.7C566.16,-280.24 563.74,-271.32 561.47,-262.97"/>
<polygon fill="black" stroke="black" points="564.92,-262.3 558.92,-253.57 558.16,-264.13 564.92,-262.3"/>
</g>
<!-- SourceChopper -->
<g id="node9" class="node">
<title>SourceChopper</title>
<polygon fill="none" stroke="black" points="473.38,-324 346.38,-324 346.38,-288 473.38,-288 473.38,-324"/>
<text text-anchor="middle" x="409.88" y="-302.3" font-family="Times,serif" font-size="14.00">SourceChopper</text>
</g>
<!-- scippneutron.tof.unwrap.source_chopper_SourceChopper&#45;&gt;SourceChopper -->
<g id="edge9" class="edge">
<title>scippneutron.tof.unwrap.source_chopper_SourceChopper&#45;&gt;SourceChopper</title>
<path fill="none" stroke="black" d="M393.32,-359.7C395.66,-352.24 398.47,-343.32 401.09,-334.97"/>
<polygon fill="black" stroke="black" points="404.39,-336.14 404.05,-325.55 397.71,-334.04 404.39,-336.14"/>
</g>
<!-- SourceChopperName -->
<g id="node8" class="node">
<title>SourceChopperName</title>
<polygon fill="none" stroke="black" points="296.38,-468 127.38,-468 127.38,-432 296.38,-432 296.38,-468"/>
<text text-anchor="middle" x="211.88" y="-446.3" font-family="Times,serif" font-size="14.00">SourceChopperName</text>
</g>
<!-- SourceChopperName&#45;&gt;scippneutron.tof.unwrap.source_chopper_SourceChopper -->
<g id="edge8" class="edge">
<title>SourceChopperName&#45;&gt;scippneutron.tof.unwrap.source_chopper_SourceChopper</title>
<path fill="none" stroke="black" d="M255.84,-431.52C281.07,-421.48 312.82,-408.85 338.86,-398.5"/>
<polygon fill="black" stroke="black" points="339.86,-401.87 347.86,-394.92 337.27,-395.36 339.86,-401.87"/>
</g>
<!-- scippneutron.tof.unwrap.time_of_flight_origin_wfm_from_chopper_TimeOfFlightOrigin -->
<g id="node13" class="node">
<title>scippneutron.tof.unwrap.time_of_flight_origin_wfm_from_chopper_TimeOfFlightOrigin</title>
<ellipse fill="none" stroke="black" cx="473.88" cy="-90" rx="198.47" ry="18"/>
<text text-anchor="middle" x="473.88" y="-86.3" font-family="Times,serif" font-size="14.00">time_of_flight_origin_wfm_from_chopper</text>
</g>
<!-- SourceChopper&#45;&gt;scippneutron.tof.unwrap.time_of_flight_origin_wfm_from_chopper_TimeOfFlightOrigin -->
<g id="edge13" class="edge">
<title>SourceChopper&#45;&gt;scippneutron.tof.unwrap.time_of_flight_origin_wfm_from_chopper_TimeOfFlightOrigin</title>
<path fill="none" stroke="black" d="M414.21,-287.96C421.81,-258.45 438.32,-195.99 454.88,-144 457.5,-135.77 460.58,-126.91 463.48,-118.83"/>
<polygon fill="black" stroke="black" points="466.75,-120.1 466.89,-109.5 460.17,-117.69 466.75,-120.1"/>
</g>
<!-- sciline.provide_none_SourceChopperName -->
<g id="node10" class="node">
<title>sciline.provide_none_SourceChopperName</title>
<ellipse fill="none" stroke="black" cx="211.88" cy="-522" rx="211.76" ry="18"/>
<text text-anchor="middle" x="211.88" y="-518.3" font-family="Times,serif" font-size="14.00">Provider.provide_none.&lt;locals&gt;.&lt;lambda&gt;</text>
</g>
<!-- sciline.provide_none_SourceChopperName&#45;&gt;SourceChopperName -->
<g id="edge10" class="edge">
<title>sciline.provide_none_SourceChopperName&#45;&gt;SourceChopperName</title>
<path fill="none" stroke="black" d="M211.88,-503.7C211.88,-496.41 211.88,-487.73 211.88,-479.54"/>
<polygon fill="black" stroke="black" points="215.38,-479.62 211.88,-469.62 208.38,-479.62 215.38,-479.62"/>
</g>
<!-- SubframeBounds -->
<g id="node12" class="node">
<title>SubframeBounds</title>
<polygon fill="none" stroke="black" points="603.88,-180 463.88,-180 463.88,-144 603.88,-144 603.88,-180"/>
<text text-anchor="middle" x="533.88" y="-158.3" font-family="Times,serif" font-size="14.00">SubframeBounds</text>
</g>
<!-- scippneutron.tof.unwrap.subframe_bounds_SubframeBounds&#45;&gt;SubframeBounds -->
<g id="edge12" class="edge">
<title>scippneutron.tof.unwrap.subframe_bounds_SubframeBounds&#45;&gt;SubframeBounds</title>
<path fill="none" stroke="black" d="M548.94,-215.7C546.81,-208.24 544.26,-199.32 541.87,-190.97"/>
<polygon fill="black" stroke="black" points="545.3,-190.21 539.18,-181.56 538.57,-192.14 545.3,-190.21"/>
</g>
<!-- SubframeBounds&#45;&gt;scippneutron.tof.unwrap.time_of_flight_origin_wfm_from_chopper_TimeOfFlightOrigin -->
<g id="edge14" class="edge">
<title>SubframeBounds&#45;&gt;scippneutron.tof.unwrap.time_of_flight_origin_wfm_from_chopper_TimeOfFlightOrigin</title>
<path fill="none" stroke="black" d="M519.05,-143.7C512.07,-135.56 503.61,-125.69 495.91,-116.7"/>
<polygon fill="black" stroke="black" points="498.69,-114.57 489.53,-109.25 493.38,-119.12 498.69,-114.57"/>
</g>
<!-- TimeOfFlightOrigin -->
<g id="node14" class="node">
<title>TimeOfFlightOrigin</title>
<polygon fill="none" stroke="black" points="551.88,-36 395.88,-36 395.88,0 551.88,0 551.88,-36"/>
<text text-anchor="middle" x="473.88" y="-14.3" font-family="Times,serif" font-size="14.00">TimeOfFlightOrigin</text>
</g>
<!-- scippneutron.tof.unwrap.time_of_flight_origin_wfm_from_chopper_TimeOfFlightOrigin&#45;&gt;TimeOfFlightOrigin -->
<g id="edge15" class="edge">
<title>scippneutron.tof.unwrap.time_of_flight_origin_wfm_from_chopper_TimeOfFlightOrigin&#45;&gt;TimeOfFlightOrigin</title>
<path fill="none" stroke="black" d="M473.88,-71.7C473.88,-64.41 473.88,-55.73 473.88,-47.54"/>
<polygon fill="black" stroke="black" points="477.38,-47.62 473.88,-37.62 470.38,-47.62 477.38,-47.62"/>
</g>
</g>
</svg>
