<?xml version="1.0" encoding="utf-8" standalone="no"?>
<!DOCTYPE svg PUBLIC "-//W3C//DTD SVG 1.1//EN"
  "http://www.w3.org/Graphics/SVG/1.1/DTD/svg11.dtd">
<svg xmlns:xlink="http://www.w3.org/1999/xlink" width="388.965625pt" height="266.794375pt" viewBox="0 0 388.965625 266.794375" xmlns="http://www.w3.org/2000/svg" version="1.1">
 <metadata>
  <rdf:RDF xmlns:dc="http://purl.org/dc/elements/1.1/" xmlns:cc="http://creativecommons.org/ns#" xmlns:rdf="http://www.w3.org/1999/02/22-rdf-syntax-ns#">
   <cc:Work>
    <dc:type rdf:resource="http://purl.org/dc/dcmitype/StillImage"/>
    <dc:date>2024-11-13T15:30:55.613080</dc:date>
    <dc:format>image/svg+xml</dc:format>
    <dc:creator>
     <cc:Agent>
      <dc:title>Matplotlib v3.9.2, https://matplotlib.org/</dc:title>
     </cc:Agent>
    </dc:creator>
   </cc:Work>
  </rdf:RDF>
 </metadata>
 <defs>
  <style type="text/css">*{stroke-linejoin: round; stroke-linecap: butt}</style>
 </defs>
 <g id="figure_1">
  <g id="patch_1">
   <path d="M 0 266.794375 
L 388.965625 266.794375 
L 388.965625 0 
L 0 0 
z
" style="fill: #ffffff"/>
  </g>
  <g id="axes_1">
   <g id="patch_2">
    <path d="M 46.965625 228.96 
L 381.765625 228.96 
L 381.765625 7.2 
L 46.965625 7.2 
z
" style="fill: #ffffff"/>
   </g>
   <g id="matplotlib.axis_1">
    <g id="xtick_1">
     <g id="line2d_1">
      <defs>
       <path id="m87daa40ed6" d="M 0 0 
L 0 3.5 
" style="stroke: #000000; stroke-width: 0.8"/>
      </defs>
      <g>
       <use xlink:href="#m87daa40ed6" x="62.182986" y="228.96" style="stroke: #000000; stroke-width: 0.8"/>
      </g>
     </g>
     <g id="text_1">
      <!-- 0.00 -->
      <g transform="translate(51.050174 243.558437) scale(0.1 -0.1)">
       <defs>
        <path id="DejaVuSans-30" d="M 2034 4250 
Q 1547 4250 1301 3770 
Q 1056 3291 1056 2328 
Q 1056 1369 1301 889 
Q 1547 409 2034 409 
Q 2525 409 2770 889 
Q 3016 1369 3016 2328 
Q 3016 3291 2770 3770 
Q 2525 4250 2034 4250 
z
M 2034 4750 
Q 2819 4750 3233 4129 
Q 3647 3509 3647 2328 
Q 3647 1150 3233 529 
Q 2819 -91 2034 -91 
Q 1250 -91 836 529 
Q 422 1150 422 2328 
Q 422 3509 836 4129 
Q 1250 4750 2034 4750 
z
" transform="scale(0.015625)"/>
        <path id="DejaVuSans-2e" d="M 684 794 
L 1344 794 
L 1344 0 
L 684 0 
L 684 794 
z
" transform="scale(0.015625)"/>
       </defs>
       <use xlink:href="#DejaVuSans-30"/>
       <use xlink:href="#DejaVuSans-2e" x="63.623047"/>
       <use xlink:href="#DejaVuSans-30" x="95.410156"/>
       <use xlink:href="#DejaVuSans-30" x="159.033203"/>
      </g>
     </g>
    </g>
    <g id="xtick_2">
     <g id="line2d_2">
      <g>
       <use xlink:href="#m87daa40ed6" x="104.795156" y="228.96" style="stroke: #000000; stroke-width: 0.8"/>
      </g>
     </g>
     <g id="text_2">
      <!-- 0.01 -->
      <g transform="translate(93.662343 243.558437) scale(0.1 -0.1)">
       <defs>
        <path id="DejaVuSans-31" d="M 794 531 
L 1825 531 
L 1825 4091 
L 703 3866 
L 703 4441 
L 1819 4666 
L 2450 4666 
L 2450 531 
L 3481 531 
L 3481 0 
L 794 0 
L 794 531 
z
" transform="scale(0.015625)"/>
       </defs>
       <use xlink:href="#DejaVuSans-30"/>
       <use xlink:href="#DejaVuSans-2e" x="63.623047"/>
       <use xlink:href="#DejaVuSans-30" x="95.410156"/>
       <use xlink:href="#DejaVuSans-31" x="159.033203"/>
      </g>
     </g>
    </g>
    <g id="xtick_3">
     <g id="line2d_3">
      <g>
       <use xlink:href="#m87daa40ed6" x="147.407325" y="228.96" style="stroke: #000000; stroke-width: 0.8"/>
      </g>
     </g>
     <g id="text_3">
      <!-- 0.02 -->
      <g transform="translate(136.274513 243.558437) scale(0.1 -0.1)">
       <defs>
        <path id="DejaVuSans-32" d="M 1228 531 
L 3431 531 
L 3431 0 
L 469 0 
L 469 531 
Q 828 903 1448 1529 
Q 2069 2156 2228 2338 
Q 2531 2678 2651 2914 
Q 2772 3150 2772 3378 
Q 2772 3750 2511 3984 
Q 2250 4219 1831 4219 
Q 1534 4219 1204 4116 
Q 875 4013 500 3803 
L 500 4441 
Q 881 4594 1212 4672 
Q 1544 4750 1819 4750 
Q 2544 4750 2975 4387 
Q 3406 4025 3406 3419 
Q 3406 3131 3298 2873 
Q 3191 2616 2906 2266 
Q 2828 2175 2409 1742 
Q 1991 1309 1228 531 
z
" transform="scale(0.015625)"/>
       </defs>
       <use xlink:href="#DejaVuSans-30"/>
       <use xlink:href="#DejaVuSans-2e" x="63.623047"/>
       <use xlink:href="#DejaVuSans-30" x="95.410156"/>
       <use xlink:href="#DejaVuSans-32" x="159.033203"/>
      </g>
     </g>
    </g>
    <g id="xtick_4">
     <g id="line2d_4">
      <g>
       <use xlink:href="#m87daa40ed6" x="190.019494" y="228.96" style="stroke: #000000; stroke-width: 0.8"/>
      </g>
     </g>
     <g id="text_4">
      <!-- 0.03 -->
      <g transform="translate(178.886682 243.558437) scale(0.1 -0.1)">
       <defs>
        <path id="DejaVuSans-33" d="M 2597 2516 
Q 3050 2419 3304 2112 
Q 3559 1806 3559 1356 
Q 3559 666 3084 287 
Q 2609 -91 1734 -91 
Q 1441 -91 1130 -33 
Q 819 25 488 141 
L 488 750 
Q 750 597 1062 519 
Q 1375 441 1716 441 
Q 2309 441 2620 675 
Q 2931 909 2931 1356 
Q 2931 1769 2642 2001 
Q 2353 2234 1838 2234 
L 1294 2234 
L 1294 2753 
L 1863 2753 
Q 2328 2753 2575 2939 
Q 2822 3125 2822 3475 
Q 2822 3834 2567 4026 
Q 2313 4219 1838 4219 
Q 1578 4219 1281 4162 
Q 984 4106 628 3988 
L 628 4550 
Q 988 4650 1302 4700 
Q 1616 4750 1894 4750 
Q 2613 4750 3031 4423 
Q 3450 4097 3450 3541 
Q 3450 3153 3228 2886 
Q 3006 2619 2597 2516 
z
" transform="scale(0.015625)"/>
       </defs>
       <use xlink:href="#DejaVuSans-30"/>
       <use xlink:href="#DejaVuSans-2e" x="63.623047"/>
       <use xlink:href="#DejaVuSans-30" x="95.410156"/>
       <use xlink:href="#DejaVuSans-33" x="159.033203"/>
      </g>
     </g>
    </g>
    <g id="xtick_5">
     <g id="line2d_5">
      <g>
       <use xlink:href="#m87daa40ed6" x="232.631664" y="228.96" style="stroke: #000000; stroke-width: 0.8"/>
      </g>
     </g>
     <g id="text_5">
      <!-- 0.04 -->
      <g transform="translate(221.498851 243.558437) scale(0.1 -0.1)">
       <defs>
        <path id="DejaVuSans-34" d="M 2419 4116 
L 825 1625 
L 2419 1625 
L 2419 4116 
z
M 2253 4666 
L 3047 4666 
L 3047 1625 
L 3713 1625 
L 3713 1100 
L 3047 1100 
L 3047 0 
L 2419 0 
L 2419 1100 
L 313 1100 
L 313 1709 
L 2253 4666 
z
" transform="scale(0.015625)"/>
       </defs>
       <use xlink:href="#DejaVuSans-30"/>
       <use xlink:href="#DejaVuSans-2e" x="63.623047"/>
       <use xlink:href="#DejaVuSans-30" x="95.410156"/>
       <use xlink:href="#DejaVuSans-34" x="159.033203"/>
      </g>
     </g>
    </g>
    <g id="xtick_6">
     <g id="line2d_6">
      <g>
       <use xlink:href="#m87daa40ed6" x="275.243833" y="228.96" style="stroke: #000000; stroke-width: 0.8"/>
      </g>
     </g>
     <g id="text_6">
      <!-- 0.05 -->
      <g transform="translate(264.111021 243.558437) scale(0.1 -0.1)">
       <defs>
        <path id="DejaVuSans-35" d="M 691 4666 
L 3169 4666 
L 3169 4134 
L 1269 4134 
L 1269 2991 
Q 1406 3038 1543 3061 
Q 1681 3084 1819 3084 
Q 2600 3084 3056 2656 
Q 3513 2228 3513 1497 
Q 3513 744 3044 326 
Q 2575 -91 1722 -91 
Q 1428 -91 1123 -41 
Q 819 9 494 109 
L 494 744 
Q 775 591 1075 516 
Q 1375 441 1709 441 
Q 2250 441 2565 725 
Q 2881 1009 2881 1497 
Q 2881 1984 2565 2268 
Q 2250 2553 1709 2553 
Q 1456 2553 1204 2497 
Q 953 2441 691 2322 
L 691 4666 
z
" transform="scale(0.015625)"/>
       </defs>
       <use xlink:href="#DejaVuSans-30"/>
       <use xlink:href="#DejaVuSans-2e" x="63.623047"/>
       <use xlink:href="#DejaVuSans-30" x="95.410156"/>
       <use xlink:href="#DejaVuSans-35" x="159.033203"/>
      </g>
     </g>
    </g>
    <g id="xtick_7">
     <g id="line2d_7">
      <g>
       <use xlink:href="#m87daa40ed6" x="317.856003" y="228.96" style="stroke: #000000; stroke-width: 0.8"/>
      </g>
     </g>
     <g id="text_7">
      <!-- 0.06 -->
      <g transform="translate(306.72319 243.558437) scale(0.1 -0.1)">
       <defs>
        <path id="DejaVuSans-36" d="M 2113 2584 
Q 1688 2584 1439 2293 
Q 1191 2003 1191 1497 
Q 1191 994 1439 701 
Q 1688 409 2113 409 
Q 2538 409 2786 701 
Q 3034 994 3034 1497 
Q 3034 2003 2786 2293 
Q 2538 2584 2113 2584 
z
M 3366 4563 
L 3366 3988 
Q 3128 4100 2886 4159 
Q 2644 4219 2406 4219 
Q 1781 4219 1451 3797 
Q 1122 3375 1075 2522 
Q 1259 2794 1537 2939 
Q 1816 3084 2150 3084 
Q 2853 3084 3261 2657 
Q 3669 2231 3669 1497 
Q 3669 778 3244 343 
Q 2819 -91 2113 -91 
Q 1303 -91 875 529 
Q 447 1150 447 2328 
Q 447 3434 972 4092 
Q 1497 4750 2381 4750 
Q 2619 4750 2861 4703 
Q 3103 4656 3366 4563 
z
" transform="scale(0.015625)"/>
       </defs>
       <use xlink:href="#DejaVuSans-30"/>
       <use xlink:href="#DejaVuSans-2e" x="63.623047"/>
       <use xlink:href="#DejaVuSans-30" x="95.410156"/>
       <use xlink:href="#DejaVuSans-36" x="159.033203"/>
      </g>
     </g>
    </g>
    <g id="xtick_8">
     <g id="line2d_8">
      <g>
       <use xlink:href="#m87daa40ed6" x="360.468172" y="228.96" style="stroke: #000000; stroke-width: 0.8"/>
      </g>
     </g>
     <g id="text_8">
      <!-- 0.07 -->
      <g transform="translate(349.335359 243.558437) scale(0.1 -0.1)">
       <defs>
        <path id="DejaVuSans-37" d="M 525 4666 
L 3525 4666 
L 3525 4397 
L 1831 0 
L 1172 0 
L 2766 4134 
L 525 4134 
L 525 4666 
z
" transform="scale(0.015625)"/>
       </defs>
       <use xlink:href="#DejaVuSans-30"/>
       <use xlink:href="#DejaVuSans-2e" x="63.623047"/>
       <use xlink:href="#DejaVuSans-30" x="95.410156"/>
       <use xlink:href="#DejaVuSans-37" x="159.033203"/>
      </g>
     </g>
    </g>
    <g id="text_9">
     <!-- event_time_offset [s] -->
     <g transform="translate(161.511719 257.236562) scale(0.1 -0.1)">
      <defs>
       <path id="DejaVuSans-65" d="M 3597 1894 
L 3597 1613 
L 953 1613 
Q 991 1019 1311 708 
Q 1631 397 2203 397 
Q 2534 397 2845 478 
Q 3156 559 3463 722 
L 3463 178 
Q 3153 47 2828 -22 
Q 2503 -91 2169 -91 
Q 1331 -91 842 396 
Q 353 884 353 1716 
Q 353 2575 817 3079 
Q 1281 3584 2069 3584 
Q 2775 3584 3186 3129 
Q 3597 2675 3597 1894 
z
M 3022 2063 
Q 3016 2534 2758 2815 
Q 2500 3097 2075 3097 
Q 1594 3097 1305 2825 
Q 1016 2553 972 2059 
L 3022 2063 
z
" transform="scale(0.015625)"/>
       <path id="DejaVuSans-76" d="M 191 3500 
L 800 3500 
L 1894 563 
L 2988 3500 
L 3597 3500 
L 2284 0 
L 1503 0 
L 191 3500 
z
" transform="scale(0.015625)"/>
       <path id="DejaVuSans-6e" d="M 3513 2113 
L 3513 0 
L 2938 0 
L 2938 2094 
Q 2938 2591 2744 2837 
Q 2550 3084 2163 3084 
Q 1697 3084 1428 2787 
Q 1159 2491 1159 1978 
L 1159 0 
L 581 0 
L 581 3500 
L 1159 3500 
L 1159 2956 
Q 1366 3272 1645 3428 
Q 1925 3584 2291 3584 
Q 2894 3584 3203 3211 
Q 3513 2838 3513 2113 
z
" transform="scale(0.015625)"/>
       <path id="DejaVuSans-74" d="M 1172 4494 
L 1172 3500 
L 2356 3500 
L 2356 3053 
L 1172 3053 
L 1172 1153 
Q 1172 725 1289 603 
Q 1406 481 1766 481 
L 2356 481 
L 2356 0 
L 1766 0 
Q 1100 0 847 248 
Q 594 497 594 1153 
L 594 3053 
L 172 3053 
L 172 3500 
L 594 3500 
L 594 4494 
L 1172 4494 
z
" transform="scale(0.015625)"/>
       <path id="DejaVuSans-5f" d="M 3263 -1063 
L 3263 -1509 
L -63 -1509 
L -63 -1063 
L 3263 -1063 
z
" transform="scale(0.015625)"/>
       <path id="DejaVuSans-69" d="M 603 3500 
L 1178 3500 
L 1178 0 
L 603 0 
L 603 3500 
z
M 603 4863 
L 1178 4863 
L 1178 4134 
L 603 4134 
L 603 4863 
z
" transform="scale(0.015625)"/>
       <path id="DejaVuSans-6d" d="M 3328 2828 
Q 3544 3216 3844 3400 
Q 4144 3584 4550 3584 
Q 5097 3584 5394 3201 
Q 5691 2819 5691 2113 
L 5691 0 
L 5113 0 
L 5113 2094 
Q 5113 2597 4934 2840 
Q 4756 3084 4391 3084 
Q 3944 3084 3684 2787 
Q 3425 2491 3425 1978 
L 3425 0 
L 2847 0 
L 2847 2094 
Q 2847 2600 2669 2842 
Q 2491 3084 2119 3084 
Q 1678 3084 1418 2786 
Q 1159 2488 1159 1978 
L 1159 0 
L 581 0 
L 581 3500 
L 1159 3500 
L 1159 2956 
Q 1356 3278 1631 3431 
Q 1906 3584 2284 3584 
Q 2666 3584 2933 3390 
Q 3200 3197 3328 2828 
z
" transform="scale(0.015625)"/>
       <path id="DejaVuSans-6f" d="M 1959 3097 
Q 1497 3097 1228 2736 
Q 959 2375 959 1747 
Q 959 1119 1226 758 
Q 1494 397 1959 397 
Q 2419 397 2687 759 
Q 2956 1122 2956 1747 
Q 2956 2369 2687 2733 
Q 2419 3097 1959 3097 
z
M 1959 3584 
Q 2709 3584 3137 3096 
Q 3566 2609 3566 1747 
Q 3566 888 3137 398 
Q 2709 -91 1959 -91 
Q 1206 -91 779 398 
Q 353 888 353 1747 
Q 353 2609 779 3096 
Q 1206 3584 1959 3584 
z
" transform="scale(0.015625)"/>
       <path id="DejaVuSans-66" d="M 2375 4863 
L 2375 4384 
L 1825 4384 
Q 1516 4384 1395 4259 
Q 1275 4134 1275 3809 
L 1275 3500 
L 2222 3500 
L 2222 3053 
L 1275 3053 
L 1275 0 
L 697 0 
L 697 3053 
L 147 3053 
L 147 3500 
L 697 3500 
L 697 3744 
Q 697 4328 969 4595 
Q 1241 4863 1831 4863 
L 2375 4863 
z
" transform="scale(0.015625)"/>
       <path id="DejaVuSans-73" d="M 2834 3397 
L 2834 2853 
Q 2591 2978 2328 3040 
Q 2066 3103 1784 3103 
Q 1356 3103 1142 2972 
Q 928 2841 928 2578 
Q 928 2378 1081 2264 
Q 1234 2150 1697 2047 
L 1894 2003 
Q 2506 1872 2764 1633 
Q 3022 1394 3022 966 
Q 3022 478 2636 193 
Q 2250 -91 1575 -91 
Q 1294 -91 989 -36 
Q 684 19 347 128 
L 347 722 
Q 666 556 975 473 
Q 1284 391 1588 391 
Q 1994 391 2212 530 
Q 2431 669 2431 922 
Q 2431 1156 2273 1281 
Q 2116 1406 1581 1522 
L 1381 1569 
Q 847 1681 609 1914 
Q 372 2147 372 2553 
Q 372 3047 722 3315 
Q 1072 3584 1716 3584 
Q 2034 3584 2315 3537 
Q 2597 3491 2834 3397 
z
" transform="scale(0.015625)"/>
       <path id="DejaVuSans-20" transform="scale(0.015625)"/>
       <path id="DejaVuSans-5b" d="M 550 4863 
L 1875 4863 
L 1875 4416 
L 1125 4416 
L 1125 -397 
L 1875 -397 
L 1875 -844 
L 550 -844 
L 550 4863 
z
" transform="scale(0.015625)"/>
       <path id="DejaVuSans-5d" d="M 1947 4863 
L 1947 -844 
L 622 -844 
L 622 -397 
L 1369 -397 
L 1369 4416 
L 622 4416 
L 622 4863 
L 1947 4863 
z
" transform="scale(0.015625)"/>
      </defs>
      <use xlink:href="#DejaVuSans-65"/>
      <use xlink:href="#DejaVuSans-76" x="61.523438"/>
      <use xlink:href="#DejaVuSans-65" x="120.703125"/>
      <use xlink:href="#DejaVuSans-6e" x="182.226562"/>
      <use xlink:href="#DejaVuSans-74" x="245.605469"/>
      <use xlink:href="#DejaVuSans-5f" x="284.814453"/>
      <use xlink:href="#DejaVuSans-74" x="334.814453"/>
      <use xlink:href="#DejaVuSans-69" x="374.023438"/>
      <use xlink:href="#DejaVuSans-6d" x="401.806641"/>
      <use xlink:href="#DejaVuSans-65" x="499.21875"/>
      <use xlink:href="#DejaVuSans-5f" x="560.742188"/>
      <use xlink:href="#DejaVuSans-6f" x="610.742188"/>
      <use xlink:href="#DejaVuSans-66" x="671.923828"/>
      <use xlink:href="#DejaVuSans-66" x="707.128906"/>
      <use xlink:href="#DejaVuSans-73" x="742.333984"/>
      <use xlink:href="#DejaVuSans-65" x="794.433594"/>
      <use xlink:href="#DejaVuSans-74" x="855.957031"/>
      <use xlink:href="#DejaVuSans-20" x="895.166016"/>
      <use xlink:href="#DejaVuSans-5b" x="926.953125"/>
      <use xlink:href="#DejaVuSans-73" x="965.966797"/>
      <use xlink:href="#DejaVuSans-5d" x="1018.066406"/>
     </g>
    </g>
   </g>
   <g id="matplotlib.axis_2">
    <g id="ytick_1">
     <g id="line2d_9">
      <defs>
       <path id="m8c66ff9820" d="M 0 0 
L -3.5 0 
" style="stroke: #000000; stroke-width: 0.8"/>
      </defs>
      <g>
       <use xlink:href="#m8c66ff9820" x="46.965625" y="218.88" style="stroke: #000000; stroke-width: 0.8"/>
      </g>
     </g>
     <g id="text_10">
      <!-- 0 -->
      <g transform="translate(33.603125 222.679219) scale(0.1 -0.1)">
       <use xlink:href="#DejaVuSans-30"/>
      </g>
     </g>
    </g>
    <g id="ytick_2">
     <g id="line2d_10">
      <g>
       <use xlink:href="#m8c66ff9820" x="46.965625" y="184.240825" style="stroke: #000000; stroke-width: 0.8"/>
      </g>
     </g>
     <g id="text_11">
      <!-- 100 -->
      <g transform="translate(20.878125 188.040043) scale(0.1 -0.1)">
       <use xlink:href="#DejaVuSans-31"/>
       <use xlink:href="#DejaVuSans-30" x="63.623047"/>
       <use xlink:href="#DejaVuSans-30" x="127.246094"/>
      </g>
     </g>
    </g>
    <g id="ytick_3">
     <g id="line2d_11">
      <g>
       <use xlink:href="#m8c66ff9820" x="46.965625" y="149.601649" style="stroke: #000000; stroke-width: 0.8"/>
      </g>
     </g>
     <g id="text_12">
      <!-- 200 -->
      <g transform="translate(20.878125 153.400868) scale(0.1 -0.1)">
       <use xlink:href="#DejaVuSans-32"/>
       <use xlink:href="#DejaVuSans-30" x="63.623047"/>
       <use xlink:href="#DejaVuSans-30" x="127.246094"/>
      </g>
     </g>
    </g>
    <g id="ytick_4">
     <g id="line2d_12">
      <g>
       <use xlink:href="#m8c66ff9820" x="46.965625" y="114.962474" style="stroke: #000000; stroke-width: 0.8"/>
      </g>
     </g>
     <g id="text_13">
      <!-- 300 -->
      <g transform="translate(20.878125 118.761693) scale(0.1 -0.1)">
       <use xlink:href="#DejaVuSans-33"/>
       <use xlink:href="#DejaVuSans-30" x="63.623047"/>
       <use xlink:href="#DejaVuSans-30" x="127.246094"/>
      </g>
     </g>
    </g>
    <g id="ytick_5">
     <g id="line2d_13">
      <g>
       <use xlink:href="#m8c66ff9820" x="46.965625" y="80.323299" style="stroke: #000000; stroke-width: 0.8"/>
      </g>
     </g>
     <g id="text_14">
      <!-- 400 -->
      <g transform="translate(20.878125 84.122518) scale(0.1 -0.1)">
       <use xlink:href="#DejaVuSans-34"/>
       <use xlink:href="#DejaVuSans-30" x="63.623047"/>
       <use xlink:href="#DejaVuSans-30" x="127.246094"/>
      </g>
     </g>
    </g>
    <g id="ytick_6">
     <g id="line2d_14">
      <g>
       <use xlink:href="#m8c66ff9820" x="46.965625" y="45.684124" style="stroke: #000000; stroke-width: 0.8"/>
      </g>
     </g>
     <g id="text_15">
      <!-- 500 -->
      <g transform="translate(20.878125 49.483342) scale(0.1 -0.1)">
       <use xlink:href="#DejaVuSans-35"/>
       <use xlink:href="#DejaVuSans-30" x="63.623047"/>
       <use xlink:href="#DejaVuSans-30" x="127.246094"/>
      </g>
     </g>
    </g>
    <g id="ytick_7">
     <g id="line2d_15">
      <g>
       <use xlink:href="#m8c66ff9820" x="46.965625" y="11.044948" style="stroke: #000000; stroke-width: 0.8"/>
      </g>
     </g>
     <g id="text_16">
      <!-- 600 -->
      <g transform="translate(20.878125 14.844167) scale(0.1 -0.1)">
       <use xlink:href="#DejaVuSans-36"/>
       <use xlink:href="#DejaVuSans-30" x="63.623047"/>
       <use xlink:href="#DejaVuSans-30" x="127.246094"/>
      </g>
     </g>
    </g>
    <g id="text_17">
     <!-- [counts] -->
     <g transform="translate(14.798438 138.6925) rotate(-90) scale(0.1 -0.1)">
      <defs>
       <path id="DejaVuSans-63" d="M 3122 3366 
L 3122 2828 
Q 2878 2963 2633 3030 
Q 2388 3097 2138 3097 
Q 1578 3097 1268 2742 
Q 959 2388 959 1747 
Q 959 1106 1268 751 
Q 1578 397 2138 397 
Q 2388 397 2633 464 
Q 2878 531 3122 666 
L 3122 134 
Q 2881 22 2623 -34 
Q 2366 -91 2075 -91 
Q 1284 -91 818 406 
Q 353 903 353 1747 
Q 353 2603 823 3093 
Q 1294 3584 2113 3584 
Q 2378 3584 2631 3529 
Q 2884 3475 3122 3366 
z
" transform="scale(0.015625)"/>
       <path id="DejaVuSans-75" d="M 544 1381 
L 544 3500 
L 1119 3500 
L 1119 1403 
Q 1119 906 1312 657 
Q 1506 409 1894 409 
Q 2359 409 2629 706 
Q 2900 1003 2900 1516 
L 2900 3500 
L 3475 3500 
L 3475 0 
L 2900 0 
L 2900 538 
Q 2691 219 2414 64 
Q 2138 -91 1772 -91 
Q 1169 -91 856 284 
Q 544 659 544 1381 
z
M 1991 3584 
L 1991 3584 
z
" transform="scale(0.015625)"/>
      </defs>
      <use xlink:href="#DejaVuSans-5b"/>
      <use xlink:href="#DejaVuSans-63" x="39.013672"/>
      <use xlink:href="#DejaVuSans-6f" x="93.994141"/>
      <use xlink:href="#DejaVuSans-75" x="155.175781"/>
      <use xlink:href="#DejaVuSans-6e" x="218.554688"/>
      <use xlink:href="#DejaVuSans-74" x="281.933594"/>
      <use xlink:href="#DejaVuSans-73" x="321.142578"/>
      <use xlink:href="#DejaVuSans-5d" x="373.242188"/>
     </g>
    </g>
   </g>
   <g id="patch_3">
    <path d="M 46.965625 228.96 
L 46.965625 7.2 
" style="fill: none; stroke: #000000; stroke-width: 0.8; stroke-linejoin: miter; stroke-linecap: square"/>
   </g>
   <g id="patch_4">
    <path d="M 381.765625 228.96 
L 381.765625 7.2 
" style="fill: none; stroke: #000000; stroke-width: 0.8; stroke-linejoin: miter; stroke-linecap: square"/>
   </g>
   <g id="patch_5">
    <path d="M 46.965625 228.96 
L 381.765625 228.96 
" style="fill: none; stroke: #000000; stroke-width: 0.8; stroke-linejoin: miter; stroke-linecap: square"/>
   </g>
   <g id="patch_6">
    <path d="M 46.965625 7.2 
L 381.765625 7.2 
" style="fill: none; stroke: #000000; stroke-width: 0.8; stroke-linejoin: miter; stroke-linecap: square"/>
   </g>
   <g id="line2d_16">
    <path d="M 62.183807 116.694433 
L 63.198352 116.694433 
L 63.198352 119.465567 
L 64.212898 119.465567 
L 64.212898 127.086186 
L 65.227443 127.086186 
L 65.227443 126.393402 
L 66.241989 126.393402 
L 66.241989 124.661443 
L 67.256534 124.661443 
L 67.256534 118.426392 
L 68.27108 118.426392 
L 68.27108 126.393402 
L 69.285625 126.393402 
L 69.285625 128.818144 
L 71.314716 128.818144 
L 71.314716 138.170722 
L 72.329261 138.170722 
L 72.329261 126.393402 
L 73.343807 126.393402 
L 73.343807 130.896495 
L 74.358352 130.896495 
L 74.358352 125.700619 
L 75.372898 125.700619 
L 75.372898 137.477938 
L 76.387443 137.477938 
L 76.387443 147.869691 
L 77.401989 147.869691 
L 77.401989 135.399588 
L 78.416534 135.399588 
L 78.416534 140.249072 
L 79.43108 140.249072 
L 79.43108 141.634639 
L 80.445625 141.634639 
L 80.445625 141.288247 
L 81.46017 141.288247 
L 81.46017 144.752165 
L 82.474716 144.752165 
L 82.474716 141.981031 
L 83.489261 141.981031 
L 83.489261 150.294433 
L 84.503807 150.294433 
L 84.503807 139.90268 
L 85.518352 139.90268 
L 85.518352 157.56866 
L 86.532898 157.56866 
L 86.532898 142.673814 
L 87.547443 142.673814 
L 87.547443 152.719175 
L 88.561989 152.719175 
L 88.561989 153.065567 
L 89.576534 153.065567 
L 89.576534 157.56866 
L 90.59108 157.56866 
L 90.59108 159.64701 
L 91.605625 159.64701 
L 91.605625 164.496495 
L 92.62017 164.496495 
L 92.62017 155.836701 
L 93.634716 155.836701 
L 93.634716 156.183093 
L 94.649261 156.183093 
L 94.649261 159.993402 
L 95.663807 159.993402 
L 95.663807 162.764536 
L 96.678352 162.764536 
L 96.678352 158.607835 
L 97.692898 158.607835 
L 97.692898 165.882062 
L 98.707443 165.882062 
L 98.707443 164.842887 
L 99.721989 164.842887 
L 99.721989 171.42433 
L 100.736534 171.42433 
L 100.736534 173.849072 
L 101.75108 173.849072 
L 101.75108 179.044948 
L 102.765625 179.044948 
L 102.765625 175.581031 
L 103.78017 175.581031 
L 103.78017 177.31299 
L 104.794716 177.31299 
L 104.794716 180.430515 
L 105.809261 180.430515 
L 105.809261 179.044948 
L 106.823807 179.044948 
L 106.823807 182.508866 
L 107.838352 182.508866 
L 107.838352 185.972784 
L 108.852898 185.972784 
L 108.852898 187.011959 
L 109.867443 187.011959 
L 109.867443 189.783093 
L 110.881989 189.783093 
L 110.881989 189.436701 
L 111.896534 189.436701 
L 111.896534 194.632577 
L 112.91108 194.632577 
L 112.91108 197.05732 
L 113.925625 197.05732 
L 113.925625 199.13567 
L 114.94017 199.13567 
L 114.94017 198.096495 
L 115.954716 198.096495 
L 115.954716 202.599588 
L 116.969261 202.599588 
L 116.969261 206.063505 
L 117.983807 206.063505 
L 117.983807 203.638763 
L 118.998352 203.638763 
L 118.998352 205.370722 
L 120.012898 205.370722 
L 120.012898 208.834639 
L 121.027443 208.834639 
L 121.027443 205.717113 
L 122.041989 205.717113 
L 122.041989 208.834639 
L 123.056534 208.834639 
L 123.056534 207.795464 
L 124.07108 207.795464 
L 124.07108 211.605773 
L 125.085625 211.605773 
L 125.085625 214.030515 
L 128.129261 214.030515 
L 128.129261 215.762474 
L 129.143807 215.762474 
L 129.143807 217.840825 
L 130.158352 217.840825 
L 130.158352 216.455258 
L 131.172898 216.455258 
L 131.172898 216.801649 
L 132.187443 216.801649 
L 132.187443 218.187216 
L 133.201989 218.187216 
L 133.201989 218.533608 
L 134.216534 218.533608 
L 134.216534 217.840825 
L 135.23108 217.840825 
L 135.23108 218.88 
L 149.434716 218.88 
L 149.434716 216.108866 
L 150.449261 216.108866 
L 150.449261 211.259381 
L 151.463807 211.259381 
L 151.463807 206.756289 
L 152.478352 206.756289 
L 152.478352 196.018144 
L 153.492898 196.018144 
L 153.492898 194.286186 
L 154.507443 194.286186 
L 154.507443 190.129485 
L 155.521989 190.129485 
L 155.521989 185.28 
L 156.536534 185.28 
L 156.536534 172.463505 
L 157.55108 172.463505 
L 157.55108 174.541856 
L 158.565625 174.541856 
L 158.565625 161.032577 
L 159.58017 161.032577 
L 159.58017 163.110928 
L 161.609261 163.110928 
L 161.609261 155.143918 
L 162.623807 155.143918 
L 162.623807 158.261443 
L 163.638352 158.261443 
L 163.638352 145.444948 
L 164.652898 145.444948 
L 164.652898 128.471753 
L 165.667443 128.471753 
L 165.667443 133.667629 
L 166.681989 133.667629 
L 166.681989 121.197526 
L 167.696534 121.197526 
L 167.696534 122.236701 
L 168.71108 122.236701 
L 168.71108 110.805773 
L 169.725625 110.805773 
L 169.725625 113.923299 
L 170.74017 113.923299 
L 170.74017 92.793402 
L 171.754716 92.793402 
L 171.754716 95.910928 
L 172.769261 95.910928 
L 172.769261 86.558351 
L 173.783807 86.558351 
L 173.783807 101.453196 
L 174.798352 101.453196 
L 174.798352 83.440825 
L 175.812898 83.440825 
L 175.812898 77.205773 
L 176.827443 77.205773 
L 176.827443 86.211959 
L 177.841989 86.211959 
L 177.841989 77.898557 
L 178.856534 77.898557 
L 178.856534 61.618144 
L 179.87108 61.618144 
L 179.87108 68.892371 
L 180.885625 68.892371 
L 180.885625 71.663505 
L 181.90017 71.663505 
L 181.90017 67.160412 
L 182.914716 67.160412 
L 182.914716 62.65732 
L 183.929261 62.65732 
L 183.929261 50.187216 
L 184.943807 50.187216 
L 184.943807 69.931546 
L 185.958352 69.931546 
L 185.958352 38.409897 
L 186.972898 38.409897 
L 186.972898 47.416082 
L 187.987443 47.416082 
L 187.987443 29.403711 
L 189.001989 29.403711 
L 189.001989 34.599588 
L 190.016534 34.599588 
L 190.016534 17.28 
L 191.03108 17.28 
L 191.03108 49.840825 
L 192.045625 49.840825 
L 192.045625 38.063505 
L 193.06017 38.063505 
L 193.06017 29.750103 
L 194.074716 29.750103 
L 194.074716 26.286186 
L 195.089261 26.286186 
L 195.089261 19.358351 
L 196.103807 19.358351 
L 196.103807 34.253196 
L 197.118352 34.253196 
L 197.118352 32.521237 
L 198.132898 32.521237 
L 198.132898 38.756289 
L 199.147443 38.756289 
L 199.147443 39.795464 
L 200.161989 39.795464 
L 200.161989 36.331546 
L 201.176534 36.331546 
L 201.176534 28.018144 
L 202.19108 28.018144 
L 202.19108 40.141856 
L 203.205625 40.141856 
L 203.205625 25.593402 
L 204.22017 25.593402 
L 204.22017 36.677938 
L 205.234716 36.677938 
L 205.234716 44.298557 
L 206.249261 44.298557 
L 206.249261 55.036701 
L 207.263807 55.036701 
L 207.263807 50.187216 
L 208.278352 50.187216 
L 208.278352 41.527423 
L 209.292898 41.527423 
L 209.292898 48.455258 
L 210.307443 48.455258 
L 210.307443 48.108866 
L 211.321989 48.108866 
L 211.321989 53.997526 
L 212.336534 53.997526 
L 212.336534 64.73567 
L 213.35108 64.73567 
L 213.35108 57.461443 
L 214.365625 57.461443 
L 214.365625 53.304742 
L 215.38017 53.304742 
L 215.38017 47.416082 
L 216.394716 47.416082 
L 216.394716 48.801649 
L 217.409261 48.801649 
L 217.409261 57.115052 
L 218.423807 57.115052 
L 218.423807 75.820206 
L 219.438352 75.820206 
L 219.438352 62.310928 
L 220.452898 62.310928 
L 220.452898 68.199588 
L 221.467443 68.199588 
L 221.467443 70.62433 
L 222.481989 70.62433 
L 222.481989 84.826392 
L 223.496534 84.826392 
L 223.496534 78.937732 
L 224.51108 78.937732 
L 224.51108 72.70268 
L 225.525625 72.70268 
L 225.525625 76.51299 
L 226.54017 76.51299 
L 226.54017 84.133608 
L 227.554716 84.133608 
L 227.554716 61.618144 
L 228.569261 61.618144 
L 228.569261 69.238763 
L 229.583807 69.238763 
L 229.583807 75.127423 
L 230.598352 75.127423 
L 230.598352 76.166598 
L 231.612898 76.166598 
L 231.612898 82.055258 
L 232.627443 82.055258 
L 232.627443 69.585155 
L 233.641989 69.585155 
L 233.641989 77.205773 
L 234.656534 77.205773 
L 234.656534 75.127423 
L 235.67108 75.127423 
L 235.67108 84.48 
L 236.685625 84.48 
L 236.685625 79.630515 
L 237.70017 79.630515 
L 237.70017 74.088247 
L 238.714716 74.088247 
L 238.714716 85.172784 
L 240.743807 85.172784 
L 240.743807 85.519175 
L 241.758352 85.519175 
L 241.758352 81.016082 
L 242.772898 81.016082 
L 242.772898 75.820206 
L 243.787443 75.820206 
L 243.787443 84.133608 
L 244.801989 84.133608 
L 244.801989 83.094433 
L 245.816534 83.094433 
L 245.816534 92.44701 
L 246.83108 92.44701 
L 246.83108 97.642887 
L 247.845625 97.642887 
L 247.845625 76.859381 
L 248.86017 76.859381 
L 248.86017 85.865567 
L 249.874716 85.865567 
L 249.874716 92.100619 
L 250.889261 92.100619 
L 250.889261 87.943918 
L 251.903807 87.943918 
L 251.903807 88.983093 
L 252.918352 88.983093 
L 252.918352 94.871753 
L 253.932898 94.871753 
L 253.932898 98.682062 
L 254.947443 98.682062 
L 254.947443 95.564536 
L 255.961989 95.564536 
L 255.961989 102.838763 
L 256.976534 102.838763 
L 256.976534 111.498557 
L 257.99108 111.498557 
L 257.99108 115.308866 
L 259.005625 115.308866 
L 259.005625 109.073814 
L 260.02017 109.073814 
L 260.02017 120.504742 
L 261.034716 120.504742 
L 261.034716 128.125361 
L 262.049261 128.125361 
L 262.049261 125.354227 
L 263.063807 125.354227 
L 263.063807 119.465567 
L 264.078352 119.465567 
L 264.078352 143.020206 
L 265.092898 143.020206 
L 265.092898 150.987216 
L 266.107443 150.987216 
L 266.107443 144.752165 
L 267.121989 144.752165 
L 267.121989 156.183093 
L 268.136534 156.183093 
L 268.136534 164.150103 
L 269.15108 164.150103 
L 269.15108 163.110928 
L 270.165625 163.110928 
L 270.165625 168.306804 
L 271.18017 168.306804 
L 271.18017 171.770722 
L 272.194716 171.770722 
L 272.194716 180.084124 
L 273.209261 180.084124 
L 273.209261 179.39134 
L 274.223807 179.39134 
L 274.223807 188.743918 
L 275.238352 188.743918 
L 275.238352 192.207835 
L 276.252898 192.207835 
L 276.252898 192.900619 
L 277.267443 192.900619 
L 277.267443 191.861443 
L 278.281989 191.861443 
L 278.281989 201.214021 
L 279.296534 201.214021 
L 279.296534 206.063505 
L 280.31108 206.063505 
L 280.31108 204.677938 
L 281.325625 204.677938 
L 281.325625 208.488247 
L 282.34017 208.488247 
L 282.34017 209.181031 
L 283.354716 209.181031 
L 283.354716 212.298557 
L 284.369261 212.298557 
L 284.369261 218.187216 
L 285.383807 218.187216 
L 285.383807 217.840825 
L 286.398352 217.840825 
L 286.398352 218.187216 
L 287.412898 218.187216 
L 287.412898 218.88 
L 298.572898 218.88 
L 298.572898 214.376907 
L 300.601989 214.376907 
L 300.601989 208.488247 
L 301.616534 208.488247 
L 301.616534 197.403711 
L 302.63108 197.403711 
L 302.63108 199.482062 
L 303.645625 199.482062 
L 303.645625 192.554227 
L 304.66017 192.554227 
L 304.66017 187.011959 
L 305.674716 187.011959 
L 305.674716 186.319175 
L 306.689261 186.319175 
L 306.689261 176.273814 
L 307.703807 176.273814 
L 307.703807 177.659381 
L 308.718352 177.659381 
L 308.718352 170.038763 
L 309.732898 170.038763 
L 309.732898 161.725361 
L 310.747443 161.725361 
L 310.747443 171.770722 
L 311.761989 171.770722 
L 311.761989 164.496495 
L 312.776534 164.496495 
L 312.776534 152.372784 
L 313.79108 152.372784 
L 313.79108 158.954227 
L 314.805625 158.954227 
L 314.805625 158.607835 
L 315.82017 158.607835 
L 315.82017 147.176907 
L 316.834716 147.176907 
L 316.834716 147.869691 
L 317.849261 147.869691 
L 317.849261 140.595464 
L 318.863807 140.595464 
L 318.863807 138.170722 
L 319.878352 138.170722 
L 319.878352 140.249072 
L 320.892898 140.249072 
L 320.892898 126.393402 
L 321.907443 126.393402 
L 321.907443 135.053196 
L 322.921989 135.053196 
L 322.921989 128.125361 
L 323.936534 128.125361 
L 323.936534 127.432577 
L 324.95108 127.432577 
L 324.95108 126.393402 
L 325.965625 126.393402 
L 325.965625 128.471753 
L 326.98017 128.471753 
L 326.98017 118.426392 
L 327.994716 118.426392 
L 327.994716 129.85732 
L 329.009261 129.85732 
L 329.009261 119.465567 
L 330.023807 119.465567 
L 330.023807 119.811959 
L 331.038352 119.811959 
L 331.038352 104.570722 
L 332.052898 104.570722 
L 332.052898 114.962474 
L 333.067443 114.962474 
L 333.067443 114.269691 
L 334.081989 114.269691 
L 334.081989 104.22433 
L 335.096534 104.22433 
L 335.096534 99.721237 
L 336.11108 99.721237 
L 336.11108 100.414021 
L 337.125625 100.414021 
L 337.125625 97.989278 
L 338.14017 97.989278 
L 338.14017 88.983093 
L 339.154716 88.983093 
L 339.154716 94.525361 
L 340.169261 94.525361 
L 340.169261 99.028454 
L 341.183807 99.028454 
L 341.183807 86.558351 
L 342.198352 86.558351 
L 342.198352 104.570722 
L 343.212898 104.570722 
L 343.212898 93.486186 
L 344.227443 93.486186 
L 344.227443 89.675876 
L 345.241989 89.675876 
L 345.241989 98.682062 
L 346.256534 98.682062 
L 346.256534 92.793402 
L 347.27108 92.793402 
L 347.27108 103.185155 
L 348.285625 103.185155 
L 348.285625 100.760412 
L 349.30017 100.760412 
L 349.30017 106.649072 
L 350.314716 106.649072 
L 350.314716 96.603711 
L 351.329261 96.603711 
L 351.329261 116.348041 
L 352.343807 116.348041 
L 352.343807 106.30268 
L 353.358352 106.30268 
L 353.358352 114.616082 
L 354.372898 114.616082 
L 354.372898 111.152165 
L 355.387443 111.152165 
L 355.387443 114.269691 
L 356.401989 114.269691 
L 356.401989 106.30268 
L 357.416534 106.30268 
L 357.416534 121.890309 
L 358.43108 121.890309 
L 358.43108 106.30268 
L 359.445625 106.30268 
L 359.445625 113.576907 
L 360.46017 113.576907 
L 360.46017 105.956289 
L 361.474716 105.956289 
L 361.474716 116.694433 
L 362.489261 116.694433 
L 362.489261 111.844948 
L 363.503807 111.844948 
L 363.503807 112.537732 
L 364.518352 112.537732 
L 364.518352 109.766598 
L 365.532898 109.766598 
L 365.532898 118.426392 
L 366.547443 118.426392 
L 366.547443 118.426392 
" clip-path="url(#p139ae89fb1)" style="fill: none; stroke: #1f77b4; stroke-width: 1.5; stroke-linecap: square"/>
   </g>
  </g>
 </g>
 <defs>
  <clipPath id="p139ae89fb1">
   <rect x="46.965625" y="7.2" width="334.8" height="221.76"/>
  </clipPath>
 </defs>
</svg>
