<?xml version="1.0" encoding="UTF-8" standalone="no"?>
<!DOCTYPE svg PUBLIC "-//W3C//DTD SVG 1.1//EN"
 "http://www.w3.org/Graphics/SVG/1.1/DTD/svg11.dtd">
<!-- Generated by graphviz version 14.0.4 (20251117.0720)
 -->
<!-- Pages: 1 -->
<svg width="226pt" height="95pt"
 viewBox="0.00 0.00 226.00 95.00" xmlns="http://www.w3.org/2000/svg" xmlns:xlink="http://www.w3.org/1999/xlink">
<g id="graph0" class="graph" transform="scale(1 1) rotate(0) translate(4 90.5)">
<polygon fill="white" stroke="none" points="-4,4 -4,-90.5 222,-90.5 222,4 -4,4"/>
<!-- source_position -->
<g id="node1" class="node">
<title>source_position</title>
<polygon fill="none" stroke="black" points="127,-86.5 0,-86.5 0,-61.25 127,-61.25 127,-86.5"/>
<text xml:space="preserve" text-anchor="middle" x="63.5" y="-69.2" font-family="Times,serif" font-size="14.00">source_position</text>
</g>
<!-- Ltotal -->
<g id="node2" class="node">
<title>Ltotal</title>
<polygon fill="none" stroke="black" points="151.5,-25.25 93.5,-25.25 93.5,0 151.5,0 151.5,-25.25"/>
<text xml:space="preserve" text-anchor="middle" x="122.5" y="-7.95" font-family="Times,serif" font-size="14.00">Ltotal</text>
</g>
<!-- source_position&#45;&gt;Ltotal -->
<g id="edge1" class="edge">
<title>source_position&#45;&gt;Ltotal</title>
<path fill="none" stroke="black" d="M75.44,-60.88C83.2,-53.09 93.5,-42.75 102.49,-33.72"/>
<polygon fill="black" stroke="black" points="104.93,-36.23 109.51,-26.67 99.97,-31.29 104.93,-36.23"/>
</g>
<!-- position -->
<g id="node3" class="node">
<title>position</title>
<polygon fill="none" stroke="black" points="218,-86.5 145,-86.5 145,-61.25 218,-61.25 218,-86.5"/>
<text xml:space="preserve" text-anchor="middle" x="181.5" y="-69.2" font-family="Times,serif" font-size="14.00">position</text>
</g>
<!-- position&#45;&gt;Ltotal -->
<g id="edge2" class="edge">
<title>position&#45;&gt;Ltotal</title>
<path fill="none" stroke="black" d="M169.56,-60.88C161.8,-53.09 151.5,-42.75 142.51,-33.72"/>
<polygon fill="black" stroke="black" points="145.03,-31.29 135.49,-26.67 140.07,-36.23 145.03,-31.29"/>
</g>
</g>
</svg>
