<?xml version="1.0" encoding="UTF-8" standalone="no"?>
<!DOCTYPE svg PUBLIC "-//W3C//DTD SVG 1.1//EN"
 "http://www.w3.org/Graphics/SVG/1.1/DTD/svg11.dtd">
<!-- Generated by graphviz version 7.1.0 (20230122.1345)
 -->
<!-- Pages: 1 -->
<svg width="378pt" height="385pt"
 viewBox="0.00 0.00 378.00 385.00" xmlns="http://www.w3.org/2000/svg" xmlns:xlink="http://www.w3.org/1999/xlink">
<g id="graph0" class="graph" transform="scale(1 1) rotate(0) translate(4 381)">
<polygon fill="white" stroke="none" points="-4,4 -4,-381 374,-381 374,4 -4,4"/>
<!-- source_position -->
<g id="node1" class="node">
<title>source_position</title>
<polygon fill="none" stroke="black" points="370,-377 242,-377 242,-354 370,-354 370,-377"/>
<text text-anchor="middle" x="306" y="-361.8" font-family="Times,serif" font-size="14.00">source_position</text>
</g>
<!-- incident_beam -->
<g id="node2" class="node">
<title>incident_beam</title>
<polygon fill="none" stroke="black" points="314,-318 194,-318 194,-295 314,-295 314,-318"/>
<text text-anchor="middle" x="254" y="-302.8" font-family="Times,serif" font-size="14.00">incident_beam</text>
</g>
<!-- source_position&#45;&gt;incident_beam -->
<g id="edge1" class="edge">
<title>source_position&#45;&gt;incident_beam</title>
<path fill="none" stroke="black" d="M295.97,-353.51C289.07,-345.94 279.71,-335.68 271.58,-326.77"/>
<polygon fill="black" stroke="black" points="274.34,-324.6 265.02,-319.57 269.17,-329.32 274.34,-324.6"/>
</g>
<!-- L1 -->
<g id="node6" class="node">
<title>L1</title>
<polygon fill="none" stroke="black" points="281,-259 227,-259 227,-236 281,-236 281,-259"/>
<text text-anchor="middle" x="254" y="-243.8" font-family="Times,serif" font-size="14.00">L1</text>
</g>
<!-- incident_beam&#45;&gt;L1 -->
<g id="edge5" class="edge">
<title>incident_beam&#45;&gt;L1</title>
<path fill="none" stroke="black" d="M254,-294.51C254,-287.81 254,-278.99 254,-270.88"/>
<polygon fill="black" stroke="black" points="257.5,-270.97 254,-260.97 250.5,-270.97 257.5,-270.97"/>
</g>
<!-- two_theta -->
<g id="node11" class="node">
<title>two_theta</title>
<polygon fill="none" stroke="black" points="247.5,-82 160.5,-82 160.5,-59 247.5,-59 247.5,-82"/>
<text text-anchor="middle" x="204" y="-66.8" font-family="Times,serif" font-size="14.00">two_theta</text>
</g>
<!-- incident_beam&#45;&gt;two_theta -->
<g id="edge13" class="edge">
<title>incident_beam&#45;&gt;two_theta</title>
<path fill="none" stroke="black" d="M265.96,-294.55C297.48,-264.37 377.55,-178.25 335,-118 317.81,-93.66 286.72,-81.98 259.14,-76.41"/>
<polygon fill="black" stroke="black" points="259.94,-73 249.48,-74.7 258.72,-79.89 259.94,-73"/>
</g>
<!-- phi -->
<g id="node14" class="node">
<title>phi</title>
<polygon fill="none" stroke="black" points="122,-82 68,-82 68,-59 122,-59 122,-82"/>
<text text-anchor="middle" x="95" y="-66.8" font-family="Times,serif" font-size="14.00">phi</text>
</g>
<!-- incident_beam&#45;&gt;phi -->
<g id="edge17" class="edge">
<title>incident_beam&#45;&gt;phi</title>
<path fill="none" stroke="black" d="M242.58,-294.8C207.16,-261.5 101.04,-160.7 93,-141 86.86,-125.96 87.73,-107.52 89.94,-93.42"/>
<polygon fill="black" stroke="black" points="93.33,-94.31 91.79,-83.82 86.46,-92.98 93.33,-94.31"/>
</g>
<!-- sample_position -->
<g id="node3" class="node">
<title>sample_position</title>
<polygon fill="none" stroke="black" points="223.5,-377 92.5,-377 92.5,-354 223.5,-354 223.5,-377"/>
<text text-anchor="middle" x="158" y="-361.8" font-family="Times,serif" font-size="14.00">sample_position</text>
</g>
<!-- sample_position&#45;&gt;incident_beam -->
<g id="edge2" class="edge">
<title>sample_position&#45;&gt;incident_beam</title>
<path fill="none" stroke="black" d="M176.51,-353.51C190.45,-345.23 209.82,-333.73 225.7,-324.3"/>
<polygon fill="black" stroke="black" points="227.43,-327.34 234.25,-319.23 223.86,-321.33 227.43,-327.34"/>
</g>
<!-- scattered_beam -->
<g id="node5" class="node">
<title>scattered_beam</title>
<polygon fill="none" stroke="black" points="154,-318 24,-318 24,-295 154,-295 154,-318"/>
<text text-anchor="middle" x="89" y="-302.8" font-family="Times,serif" font-size="14.00">scattered_beam</text>
</g>
<!-- sample_position&#45;&gt;scattered_beam -->
<g id="edge4" class="edge">
<title>sample_position&#45;&gt;scattered_beam</title>
<path fill="none" stroke="black" d="M144.7,-353.51C135.15,-345.62 122.07,-334.82 110.98,-325.66"/>
<polygon fill="black" stroke="black" points="113.37,-323.09 103.43,-319.42 108.91,-328.49 113.37,-323.09"/>
</g>
<!-- position -->
<g id="node4" class="node">
<title>position</title>
<polygon fill="none" stroke="black" points="74,-377 0,-377 0,-354 74,-354 74,-377"/>
<text text-anchor="middle" x="37" y="-361.8" font-family="Times,serif" font-size="14.00">position</text>
</g>
<!-- position&#45;&gt;scattered_beam -->
<g id="edge3" class="edge">
<title>position&#45;&gt;scattered_beam</title>
<path fill="none" stroke="black" d="M47.03,-353.51C53.93,-345.94 63.29,-335.68 71.42,-326.77"/>
<polygon fill="black" stroke="black" points="73.83,-329.32 77.98,-319.57 68.66,-324.6 73.83,-329.32"/>
</g>
<!-- L2 -->
<g id="node7" class="node">
<title>L2</title>
<polygon fill="none" stroke="black" points="171,-259 117,-259 117,-236 171,-236 171,-259"/>
<text text-anchor="middle" x="144" y="-243.8" font-family="Times,serif" font-size="14.00">L2</text>
</g>
<!-- scattered_beam&#45;&gt;L2 -->
<g id="edge6" class="edge">
<title>scattered_beam&#45;&gt;L2</title>
<path fill="none" stroke="black" d="M99.6,-294.51C106.99,-286.86 117.02,-276.46 125.68,-267.49"/>
<polygon fill="black" stroke="black" points="127.95,-270.17 132.38,-260.55 122.91,-265.31 127.95,-270.17"/>
</g>
<!-- scattered_beam&#45;&gt;two_theta -->
<g id="edge14" class="edge">
<title>scattered_beam&#45;&gt;two_theta</title>
<path fill="none" stroke="black" d="M90.66,-294.7C93.1,-280.64 98.45,-255.56 108,-236 131.13,-188.64 154.03,-187.42 179,-141 187.18,-125.8 193.66,-107.38 197.98,-93.32"/>
<polygon fill="black" stroke="black" points="201.34,-94.31 200.78,-83.73 194.62,-92.35 201.34,-94.31"/>
</g>
<!-- scattered_beam&#45;&gt;phi -->
<g id="edge18" class="edge">
<title>scattered_beam&#45;&gt;phi</title>
<path fill="none" stroke="black" d="M83.84,-294.63C70.69,-265.35 38.38,-182.67 60,-118 63.28,-108.19 69.53,-98.79 75.86,-91.04"/>
<polygon fill="black" stroke="black" points="78.41,-93.43 82.41,-83.62 73.17,-88.8 78.41,-93.43"/>
</g>
<!-- Ltotal -->
<g id="node8" class="node">
<title>Ltotal</title>
<polygon fill="none" stroke="black" points="241.5,-200 182.5,-200 182.5,-177 241.5,-177 241.5,-200"/>
<text text-anchor="middle" x="212" y="-184.8" font-family="Times,serif" font-size="14.00">Ltotal</text>
</g>
<!-- L1&#45;&gt;Ltotal -->
<g id="edge7" class="edge">
<title>L1&#45;&gt;Ltotal</title>
<path fill="none" stroke="black" d="M245.9,-235.51C240.5,-228.18 233.23,-218.32 226.82,-209.61"/>
<polygon fill="black" stroke="black" points="229.72,-207.65 220.97,-201.67 224.09,-211.8 229.72,-207.65"/>
</g>
<!-- L2&#45;&gt;Ltotal -->
<g id="edge8" class="edge">
<title>L2&#45;&gt;Ltotal</title>
<path fill="none" stroke="black" d="M157.11,-235.51C166.52,-227.62 179.41,-216.82 190.33,-207.66"/>
<polygon fill="black" stroke="black" points="192.35,-210.54 197.77,-201.43 187.86,-205.17 192.35,-210.54"/>
</g>
<!-- wavelength -->
<g id="node9" class="node">
<title>wavelength</title>
<polygon fill="none" stroke="black" points="325.5,-141 226.5,-141 226.5,-118 325.5,-118 325.5,-141"/>
<text text-anchor="middle" x="276" y="-125.8" font-family="Times,serif" font-size="14.00">wavelength</text>
</g>
<!-- Ltotal&#45;&gt;wavelength -->
<g id="edge12" class="edge">
<title>Ltotal&#45;&gt;wavelength</title>
<path fill="none" stroke="black" d="M224.34,-176.51C233.11,-168.7 245.08,-158.03 255.3,-148.94"/>
<polygon fill="black" stroke="black" points="257.43,-151.73 262.57,-142.46 252.77,-146.5 257.43,-151.73"/>
</g>
<!-- Q -->
<g id="node10" class="node">
<title>Q</title>
<polygon fill="none" stroke="black" points="267,-23 213,-23 213,0 267,0 267,-23"/>
<text text-anchor="middle" x="240" y="-7.8" font-family="Times,serif" font-size="14.00">Q</text>
</g>
<!-- wavelength&#45;&gt;Q -->
<g id="edge9" class="edge">
<title>wavelength&#45;&gt;Q</title>
<path fill="none" stroke="black" d="M273.32,-117.58C269.87,-103.83 263.54,-79.5 257,-59 254.4,-50.84 251.25,-41.99 248.37,-34.23"/>
<polygon fill="black" stroke="black" points="251.66,-33.03 244.85,-24.91 245.11,-35.5 251.66,-33.03"/>
</g>
<!-- wavelength&#45;&gt;two_theta -->
<g id="edge15" class="edge">
<title>wavelength&#45;&gt;two_theta</title>
<path fill="none" stroke="black" d="M262.12,-117.51C252.06,-109.55 238.23,-98.6 226.59,-89.39"/>
<polygon fill="black" stroke="black" points="229.04,-86.86 219.03,-83.4 224.69,-92.35 229.04,-86.86"/>
</g>
<!-- wavelength&#45;&gt;phi -->
<g id="edge19" class="edge">
<title>wavelength&#45;&gt;phi</title>
<path fill="none" stroke="black" d="M241.1,-117.51C210.13,-107.76 164.98,-93.54 133.09,-83.49"/>
<polygon fill="black" stroke="black" points="134.44,-80.25 123.85,-80.58 132.33,-86.93 134.44,-80.25"/>
</g>
<!-- two_theta&#45;&gt;Q -->
<g id="edge10" class="edge">
<title>two_theta&#45;&gt;Q</title>
<path fill="none" stroke="black" d="M210.94,-58.51C215.47,-51.33 221.53,-41.74 226.94,-33.17"/>
<polygon fill="black" stroke="black" points="229.89,-35.06 232.27,-24.74 223.97,-31.32 229.89,-35.06"/>
</g>
<!-- tof -->
<g id="node12" class="node">
<title>tof</title>
<polygon fill="none" stroke="black" points="314,-200 260,-200 260,-177 314,-177 314,-200"/>
<text text-anchor="middle" x="287" y="-184.8" font-family="Times,serif" font-size="14.00">tof</text>
</g>
<!-- tof&#45;&gt;wavelength -->
<g id="edge11" class="edge">
<title>tof&#45;&gt;wavelength</title>
<path fill="none" stroke="black" d="M284.88,-176.51C283.57,-169.73 281.84,-160.79 280.26,-152.59"/>
<polygon fill="black" stroke="black" points="283.73,-152.1 278.4,-142.94 276.86,-153.42 283.73,-152.1"/>
</g>
<!-- gravity -->
<g id="node13" class="node">
<title>gravity</title>
<polygon fill="none" stroke="black" points="170,-141 102,-141 102,-118 170,-118 170,-141"/>
<text text-anchor="middle" x="136" y="-125.8" font-family="Times,serif" font-size="14.00">gravity</text>
</g>
<!-- gravity&#45;&gt;two_theta -->
<g id="edge16" class="edge">
<title>gravity&#45;&gt;two_theta</title>
<path fill="none" stroke="black" d="M149.11,-117.51C158.52,-109.62 171.41,-98.82 182.33,-89.66"/>
<polygon fill="black" stroke="black" points="184.35,-92.54 189.77,-83.43 179.86,-87.17 184.35,-92.54"/>
</g>
<!-- gravity&#45;&gt;phi -->
<g id="edge20" class="edge">
<title>gravity&#45;&gt;phi</title>
<path fill="none" stroke="black" d="M128.09,-117.51C122.82,-110.18 115.73,-100.32 109.46,-91.61"/>
<polygon fill="black" stroke="black" points="112.45,-89.76 103.76,-83.69 106.76,-93.85 112.45,-89.76"/>
</g>
</g>
</svg>
