<?xml version="1.0" encoding="UTF-8" standalone="no"?>
<!DOCTYPE svg PUBLIC "-//W3C//DTD SVG 1.1//EN"
 "http://www.w3.org/Graphics/SVG/1.1/DTD/svg11.dtd">
<!-- Generated by graphviz version 7.1.0 (20230122.1345)
 -->
<!-- Pages: 1 -->
<svg width="378pt" height="208pt"
 viewBox="0.00 0.00 378.00 208.00" xmlns="http://www.w3.org/2000/svg" xmlns:xlink="http://www.w3.org/1999/xlink">
<g id="graph0" class="graph" transform="scale(1 1) rotate(0) translate(4 204)">
<polygon fill="white" stroke="none" points="-4,4 -4,-204 374,-204 374,4 -4,4"/>
<!-- source_position -->
<g id="node1" class="node">
<title>source_position</title>
<polygon fill="none" stroke="black" points="128,-200 0,-200 0,-177 128,-177 128,-200"/>
<text text-anchor="middle" x="64" y="-184.8" font-family="Times,serif" font-size="14.00">source_position</text>
</g>
<!-- incident_beam -->
<g id="node2" class="node">
<title>incident_beam</title>
<polygon fill="none" stroke="black" points="187,-141 67,-141 67,-118 187,-118 187,-141"/>
<text text-anchor="middle" x="127" y="-125.8" font-family="Times,serif" font-size="14.00">incident_beam</text>
</g>
<!-- source_position&#45;&gt;incident_beam -->
<g id="edge1" class="edge">
<title>source_position&#45;&gt;incident_beam</title>
<path fill="none" stroke="black" d="M76.15,-176.51C84.78,-168.7 96.57,-158.03 106.62,-148.94"/>
<polygon fill="black" stroke="black" points="108.7,-151.78 113.77,-142.47 104,-146.59 108.7,-151.78"/>
</g>
<!-- L1 -->
<g id="node6" class="node">
<title>L1</title>
<polygon fill="none" stroke="black" points="137,-82 83,-82 83,-59 137,-59 137,-82"/>
<text text-anchor="middle" x="110" y="-66.8" font-family="Times,serif" font-size="14.00">L1</text>
</g>
<!-- incident_beam&#45;&gt;L1 -->
<g id="edge5" class="edge">
<title>incident_beam&#45;&gt;L1</title>
<path fill="none" stroke="black" d="M123.72,-117.51C121.68,-110.65 118.97,-101.58 116.5,-93.31"/>
<polygon fill="black" stroke="black" points="119.91,-92.49 113.7,-83.91 113.2,-94.49 119.91,-92.49"/>
</g>
<!-- two_theta -->
<g id="node8" class="node">
<title>two_theta</title>
<polygon fill="none" stroke="black" points="242.5,-82 155.5,-82 155.5,-59 242.5,-59 242.5,-82"/>
<text text-anchor="middle" x="199" y="-66.8" font-family="Times,serif" font-size="14.00">two_theta</text>
</g>
<!-- incident_beam&#45;&gt;two_theta -->
<g id="edge7" class="edge">
<title>incident_beam&#45;&gt;two_theta</title>
<path fill="none" stroke="black" d="M140.88,-117.51C150.94,-109.55 164.77,-98.6 176.41,-89.39"/>
<polygon fill="black" stroke="black" points="178.31,-92.35 183.97,-83.4 173.96,-86.86 178.31,-92.35"/>
</g>
<!-- sample_position -->
<g id="node3" class="node">
<title>sample_position</title>
<polygon fill="none" stroke="black" points="277.5,-200 146.5,-200 146.5,-177 277.5,-177 277.5,-200"/>
<text text-anchor="middle" x="212" y="-184.8" font-family="Times,serif" font-size="14.00">sample_position</text>
</g>
<!-- sample_position&#45;&gt;incident_beam -->
<g id="edge2" class="edge">
<title>sample_position&#45;&gt;incident_beam</title>
<path fill="none" stroke="black" d="M195.61,-176.51C183.5,-168.39 166.77,-157.17 152.86,-147.84"/>
<polygon fill="black" stroke="black" points="154.85,-144.96 144.6,-142.3 150.95,-150.78 154.85,-144.96"/>
</g>
<!-- scattered_beam -->
<g id="node5" class="node">
<title>scattered_beam</title>
<polygon fill="none" stroke="black" points="337,-141 207,-141 207,-118 337,-118 337,-141"/>
<text text-anchor="middle" x="272" y="-125.8" font-family="Times,serif" font-size="14.00">scattered_beam</text>
</g>
<!-- sample_position&#45;&gt;scattered_beam -->
<g id="edge4" class="edge">
<title>sample_position&#45;&gt;scattered_beam</title>
<path fill="none" stroke="black" d="M223.57,-176.51C231.7,-168.78 242.79,-158.25 252.3,-149.21"/>
<polygon fill="black" stroke="black" points="254.53,-151.92 259.37,-142.5 249.71,-146.85 254.53,-151.92"/>
</g>
<!-- position -->
<g id="node4" class="node">
<title>position</title>
<polygon fill="none" stroke="black" points="370,-200 296,-200 296,-177 370,-177 370,-200"/>
<text text-anchor="middle" x="333" y="-184.8" font-family="Times,serif" font-size="14.00">position</text>
</g>
<!-- position&#45;&gt;scattered_beam -->
<g id="edge3" class="edge">
<title>position&#45;&gt;scattered_beam</title>
<path fill="none" stroke="black" d="M321.24,-176.51C312.97,-168.78 301.7,-158.25 292.03,-149.21"/>
<polygon fill="black" stroke="black" points="294.53,-146.76 284.83,-142.49 289.75,-151.87 294.53,-146.76"/>
</g>
<!-- L2 -->
<g id="node7" class="node">
<title>L2</title>
<polygon fill="none" stroke="black" points="315,-82 261,-82 261,-59 315,-59 315,-82"/>
<text text-anchor="middle" x="288" y="-66.8" font-family="Times,serif" font-size="14.00">L2</text>
</g>
<!-- scattered_beam&#45;&gt;L2 -->
<g id="edge6" class="edge">
<title>scattered_beam&#45;&gt;L2</title>
<path fill="none" stroke="black" d="M275.08,-117.51C277.01,-110.65 279.56,-101.58 281.88,-93.31"/>
<polygon fill="black" stroke="black" points="285.18,-94.49 284.52,-83.91 278.44,-92.6 285.18,-94.49"/>
</g>
<!-- scattered_beam&#45;&gt;two_theta -->
<g id="edge8" class="edge">
<title>scattered_beam&#45;&gt;two_theta</title>
<path fill="none" stroke="black" d="M257.92,-117.51C247.72,-109.55 233.71,-98.6 221.91,-89.39"/>
<polygon fill="black" stroke="black" points="224.26,-86.78 214.22,-83.39 219.95,-92.3 224.26,-86.78"/>
</g>
<!-- Ltotal -->
<g id="node9" class="node">
<title>Ltotal</title>
<polygon fill="none" stroke="black" points="228.5,-23 169.5,-23 169.5,0 228.5,0 228.5,-23"/>
<text text-anchor="middle" x="199" y="-7.8" font-family="Times,serif" font-size="14.00">Ltotal</text>
</g>
<!-- L1&#45;&gt;Ltotal -->
<g id="edge9" class="edge">
<title>L1&#45;&gt;Ltotal</title>
<path fill="none" stroke="black" d="M127.16,-58.51C139.96,-50.31 157.7,-38.95 172.35,-29.57"/>
<polygon fill="black" stroke="black" points="174.08,-32.61 180.62,-24.27 170.31,-26.72 174.08,-32.61"/>
</g>
<!-- L2&#45;&gt;Ltotal -->
<g id="edge10" class="edge">
<title>L2&#45;&gt;Ltotal</title>
<path fill="none" stroke="black" d="M270.84,-58.51C258.04,-50.31 240.3,-38.95 225.65,-29.57"/>
<polygon fill="black" stroke="black" points="227.69,-26.72 217.38,-24.27 223.92,-32.61 227.69,-26.72"/>
</g>
</g>
</svg>
