<?xml version="1.0" encoding="UTF-8" standalone="no"?>
<!DOCTYPE svg PUBLIC "-//W3C//DTD SVG 1.1//EN"
 "http://www.w3.org/Graphics/SVG/1.1/DTD/svg11.dtd">
<!-- Generated by graphviz version 14.1.2 (20260126.1125)
 -->
<!-- Pages: 1 -->
<svg width="879pt" height="523pt"
 viewBox="0.00 0.00 879.00 523.00" xmlns="http://www.w3.org/2000/svg" xmlns:xlink="http://www.w3.org/1999/xlink">
<g id="graph0" class="graph" transform="scale(1 1) rotate(0) translate(4 519.25)">
<polygon fill="white" stroke="none" points="-4,4 -4,-519.25 875.43,-519.25 875.43,4 -4,4"/>
<!-- source_position -->
<g id="node1" class="node">
<title>source_position</title>
<polygon fill="none" stroke="black" points="226.81,-515.25 99.81,-515.25 99.81,-490 226.81,-490 226.81,-515.25"/>
<text xml:space="preserve" text-anchor="middle" x="163.31" y="-497.95" font-family="Times,serif" font-size="14.00">source_position</text>
</g>
<!-- incident_beam -->
<g id="node2" class="node">
<title>incident_beam</title>
<polygon fill="none" stroke="black" points="232.06,-454 112.56,-454 112.56,-428.75 232.06,-428.75 232.06,-454"/>
<text xml:space="preserve" text-anchor="middle" x="172.31" y="-436.7" font-family="Times,serif" font-size="14.00">incident_beam</text>
</g>
<!-- source_position&#45;&gt;incident_beam -->
<g id="edge1" class="edge">
<title>source_position&#45;&gt;incident_beam</title>
<path fill="none" stroke="black" d="M165.13,-489.63C166.18,-482.73 167.53,-473.81 168.78,-465.59"/>
<polygon fill="black" stroke="black" points="172.22,-466.26 170.26,-455.84 165.3,-465.2 172.22,-466.26"/>
</g>
<!-- L1 -->
<g id="node6" class="node">
<title>L1</title>
<polygon fill="none" stroke="black" points="295.31,-392.75 241.31,-392.75 241.31,-367.5 295.31,-367.5 295.31,-392.75"/>
<text xml:space="preserve" text-anchor="middle" x="268.31" y="-375.45" font-family="Times,serif" font-size="14.00">L1</text>
</g>
<!-- incident_beam&#45;&gt;L1 -->
<g id="edge5" class="edge">
<title>incident_beam&#45;&gt;L1</title>
<path fill="none" stroke="black" d="M191.73,-428.38C205.4,-419.95 223.91,-408.52 239.32,-399.02"/>
<polygon fill="black" stroke="black" points="240.95,-402.12 247.62,-393.89 237.27,-396.17 240.95,-402.12"/>
</g>
<!-- two_theta -->
<g id="node8" class="node">
<title>two_theta</title>
<polygon fill="none" stroke="black" points="215.56,-392.75 129.06,-392.75 129.06,-367.5 215.56,-367.5 215.56,-392.75"/>
<text xml:space="preserve" text-anchor="middle" x="172.31" y="-375.45" font-family="Times,serif" font-size="14.00">two_theta</text>
</g>
<!-- incident_beam&#45;&gt;two_theta -->
<g id="edge7" class="edge">
<title>incident_beam&#45;&gt;two_theta</title>
<path fill="none" stroke="black" d="M172.31,-428.38C172.31,-421.48 172.31,-412.56 172.31,-404.34"/>
<polygon fill="black" stroke="black" points="175.81,-404.61 172.31,-394.61 168.81,-404.61 175.81,-404.61"/>
</g>
<!-- Qx -->
<g id="node24" class="node">
<title>Qx</title>
<polygon fill="none" stroke="black" points="266.31,-209 212.31,-209 212.31,-183.75 266.31,-183.75 266.31,-209"/>
<text xml:space="preserve" text-anchor="middle" x="239.31" y="-191.7" font-family="Times,serif" font-size="14.00">Qx</text>
</g>
<!-- incident_beam&#45;&gt;Qx -->
<g id="edge30" class="edge">
<title>incident_beam&#45;&gt;Qx</title>
<path fill="none" stroke="black" d="M152.37,-428.28C140.64,-419.92 126.86,-407.65 120.31,-392.75 93.85,-332.65 83.5,-299.38 120.31,-245 138.15,-218.64 173.21,-206.87 200.68,-201.61"/>
<polygon fill="black" stroke="black" points="201.13,-205.08 210.42,-199.98 199.98,-198.18 201.13,-205.08"/>
</g>
<!-- Qy -->
<g id="node25" class="node">
<title>Qy</title>
<polygon fill="none" stroke="black" points="338.31,-209 284.31,-209 284.31,-183.75 338.31,-183.75 338.31,-209"/>
<text xml:space="preserve" text-anchor="middle" x="311.31" y="-191.7" font-family="Times,serif" font-size="14.00">Qy</text>
</g>
<!-- incident_beam&#45;&gt;Qy -->
<g id="edge33" class="edge">
<title>incident_beam&#45;&gt;Qy</title>
<path fill="none" stroke="black" d="M216.63,-428.28C243,-420.14 276.6,-408.1 304.31,-392.75 369.36,-356.7 398.78,-342.01 418.31,-270.25 421.25,-259.42 424.42,-254.41 418.31,-245 410.27,-232.64 377.01,-219 349.67,-209.49"/>
<polygon fill="black" stroke="black" points="350.82,-206.19 340.22,-206.3 348.58,-212.82 350.82,-206.19"/>
</g>
<!-- Qz -->
<g id="node26" class="node">
<title>Qz</title>
<polygon fill="none" stroke="black" points="69.31,-209 15.31,-209 15.31,-183.75 69.31,-183.75 69.31,-209"/>
<text xml:space="preserve" text-anchor="middle" x="42.31" y="-191.7" font-family="Times,serif" font-size="14.00">Qz</text>
</g>
<!-- incident_beam&#45;&gt;Qz -->
<g id="edge36" class="edge">
<title>incident_beam&#45;&gt;Qz</title>
<path fill="none" stroke="black" d="M137.74,-428.37C98.92,-412.81 37.89,-381.57 11.31,-331.5 -6.72,-297.54 0.37,-281.86 11.31,-245 14.11,-235.56 19.44,-226.24 24.9,-218.38"/>
<polygon fill="black" stroke="black" points="27.6,-220.62 30.8,-210.52 22,-216.41 27.6,-220.62"/>
</g>
<!-- sample_position -->
<g id="node3" class="node">
<title>sample_position</title>
<polygon fill="none" stroke="black" points="375.68,-515.25 244.93,-515.25 244.93,-490 375.68,-490 375.68,-515.25"/>
<text xml:space="preserve" text-anchor="middle" x="310.31" y="-497.95" font-family="Times,serif" font-size="14.00">sample_position</text>
</g>
<!-- sample_position&#45;&gt;incident_beam -->
<g id="edge2" class="edge">
<title>sample_position&#45;&gt;incident_beam</title>
<path fill="none" stroke="black" d="M282.38,-489.63C261.71,-480.76 233.31,-468.57 210.54,-458.79"/>
<polygon fill="black" stroke="black" points="212.15,-455.67 201.58,-454.94 209.39,-462.11 212.15,-455.67"/>
</g>
<!-- scattered_beam -->
<g id="node5" class="node">
<title>scattered_beam</title>
<polygon fill="none" stroke="black" points="484.93,-454 355.68,-454 355.68,-428.75 484.93,-428.75 484.93,-454"/>
<text xml:space="preserve" text-anchor="middle" x="420.31" y="-436.7" font-family="Times,serif" font-size="14.00">scattered_beam</text>
</g>
<!-- sample_position&#45;&gt;scattered_beam -->
<g id="edge4" class="edge">
<title>sample_position&#45;&gt;scattered_beam</title>
<path fill="none" stroke="black" d="M332.57,-489.63C348.52,-481.04 370.25,-469.34 388.09,-459.72"/>
<polygon fill="black" stroke="black" points="389.6,-462.89 396.75,-455.07 386.28,-456.73 389.6,-462.89"/>
</g>
<!-- position -->
<g id="node4" class="node">
<title>position</title>
<polygon fill="none" stroke="black" points="466.81,-515.25 393.81,-515.25 393.81,-490 466.81,-490 466.81,-515.25"/>
<text xml:space="preserve" text-anchor="middle" x="430.31" y="-497.95" font-family="Times,serif" font-size="14.00">position</text>
</g>
<!-- position&#45;&gt;scattered_beam -->
<g id="edge3" class="edge">
<title>position&#45;&gt;scattered_beam</title>
<path fill="none" stroke="black" d="M428.28,-489.63C427.12,-482.73 425.61,-473.81 424.22,-465.59"/>
<polygon fill="black" stroke="black" points="427.69,-465.12 422.58,-455.84 420.79,-466.28 427.69,-465.12"/>
</g>
<!-- L2 -->
<g id="node7" class="node">
<title>L2</title>
<polygon fill="none" stroke="black" points="447.31,-392.75 393.31,-392.75 393.31,-367.5 447.31,-367.5 447.31,-392.75"/>
<text xml:space="preserve" text-anchor="middle" x="420.31" y="-375.45" font-family="Times,serif" font-size="14.00">L2</text>
</g>
<!-- scattered_beam&#45;&gt;L2 -->
<g id="edge6" class="edge">
<title>scattered_beam&#45;&gt;L2</title>
<path fill="none" stroke="black" d="M420.31,-428.38C420.31,-421.48 420.31,-412.56 420.31,-404.34"/>
<polygon fill="black" stroke="black" points="423.81,-404.61 420.31,-394.61 416.81,-404.61 423.81,-404.61"/>
</g>
<!-- scattered_beam&#45;&gt;two_theta -->
<g id="edge8" class="edge">
<title>scattered_beam&#45;&gt;two_theta</title>
<path fill="none" stroke="black" d="M369.82,-428.31C328.22,-418.37 269.34,-404.31 226.7,-394.12"/>
<polygon fill="black" stroke="black" points="227.69,-390.76 217.15,-391.84 226.07,-397.57 227.69,-390.76"/>
</g>
<!-- scattered_beam&#45;&gt;Qx -->
<g id="edge31" class="edge">
<title>scattered_beam&#45;&gt;Qx</title>
<path fill="none" stroke="black" d="M432.94,-428.38C441.36,-419.46 451.69,-406.51 456.31,-392.75 473.23,-342.3 450.26,-275.27 418.31,-245 373.23,-202.31 341.76,-224.42 277.76,-209.33"/>
<polygon fill="black" stroke="black" points="278.79,-205.98 268.23,-206.83 277.02,-212.75 278.79,-205.98"/>
</g>
<!-- scattered_beam&#45;&gt;Qy -->
<g id="edge34" class="edge">
<title>scattered_beam&#45;&gt;Qy</title>
<path fill="none" stroke="black" d="M449.38,-428.38C464.2,-420.59 480.85,-408.86 489.31,-392.75 519.82,-334.61 529.59,-296.86 489.31,-245 451.72,-196.62 414.64,-223.48 349.82,-209"/>
<polygon fill="black" stroke="black" points="350.76,-205.62 340.2,-206.55 349.03,-212.41 350.76,-205.62"/>
</g>
<!-- scattered_beam&#45;&gt;Qz -->
<g id="edge37" class="edge">
<title>scattered_beam&#45;&gt;Qz</title>
<path fill="none" stroke="black" d="M355.37,-437.46C278.27,-432.76 155.63,-420.98 120.31,-392.75 66.01,-349.36 49.33,-262.51 44.35,-220.79"/>
<polygon fill="black" stroke="black" points="47.84,-220.48 43.31,-210.9 40.88,-221.21 47.84,-220.48"/>
</g>
<!-- Ltotal -->
<g id="node9" class="node">
<title>Ltotal</title>
<polygon fill="none" stroke="black" points="301.31,-331.5 243.31,-331.5 243.31,-306.25 301.31,-306.25 301.31,-331.5"/>
<text xml:space="preserve" text-anchor="middle" x="272.31" y="-314.2" font-family="Times,serif" font-size="14.00">Ltotal</text>
</g>
<!-- L1&#45;&gt;Ltotal -->
<g id="edge9" class="edge">
<title>L1&#45;&gt;Ltotal</title>
<path fill="none" stroke="black" d="M269.12,-367.13C269.58,-360.23 270.18,-351.31 270.74,-343.09"/>
<polygon fill="black" stroke="black" points="274.21,-343.57 271.4,-333.36 267.23,-343.1 274.21,-343.57"/>
</g>
<!-- L2&#45;&gt;Ltotal -->
<g id="edge10" class="edge">
<title>L2&#45;&gt;Ltotal</title>
<path fill="none" stroke="black" d="M392.81,-368.12C370.14,-359.04 337.67,-346.04 312.14,-335.82"/>
<polygon fill="black" stroke="black" points="313.67,-332.66 303.08,-332.2 311.06,-339.16 313.67,-332.66"/>
</g>
<!-- time_at_sample -->
<g id="node30" class="node">
<title>time_at_sample</title>
<polygon fill="none" stroke="black" points="677.81,-209 550.81,-209 550.81,-183.75 677.81,-183.75 677.81,-209"/>
<text xml:space="preserve" text-anchor="middle" x="614.31" y="-191.7" font-family="Times,serif" font-size="14.00">time_at_sample</text>
</g>
<!-- L2&#45;&gt;time_at_sample -->
<g id="edge43" class="edge">
<title>L2&#45;&gt;time_at_sample</title>
<path fill="none" stroke="black" d="M433.03,-367.2C465.79,-336.51 553.25,-254.57 593.5,-216.86"/>
<polygon fill="black" stroke="black" points="595.77,-219.53 600.68,-210.14 590.99,-214.43 595.77,-219.53"/>
</g>
<!-- dspacing -->
<g id="node11" class="node">
<title>dspacing</title>
<polygon fill="none" stroke="black" points="209.18,-270.25 129.43,-270.25 129.43,-245 209.18,-245 209.18,-270.25"/>
<text xml:space="preserve" text-anchor="middle" x="169.31" y="-252.95" font-family="Times,serif" font-size="14.00">dspacing</text>
</g>
<!-- two_theta&#45;&gt;dspacing -->
<g id="edge13" class="edge">
<title>two_theta&#45;&gt;dspacing</title>
<path fill="none" stroke="black" d="M172.01,-367.13C171.51,-347.28 170.52,-307.27 169.88,-281.77"/>
<polygon fill="black" stroke="black" points="173.39,-281.99 169.64,-272.08 166.39,-282.17 173.39,-281.99"/>
</g>
<!-- Q -->
<g id="node23" class="node">
<title>Q</title>
<polygon fill="none" stroke="black" points="143.31,-209 89.31,-209 89.31,-183.75 143.31,-183.75 143.31,-209"/>
<text xml:space="preserve" text-anchor="middle" x="116.31" y="-191.7" font-family="Times,serif" font-size="14.00">Q</text>
</g>
<!-- two_theta&#45;&gt;Q -->
<g id="edge25" class="edge">
<title>two_theta&#45;&gt;Q</title>
<path fill="none" stroke="black" d="M164.74,-367.31C152.78,-347.93 129.9,-307.8 120.31,-270.25 116.18,-254.11 115.24,-235.32 115.3,-220.87"/>
<polygon fill="black" stroke="black" points="118.79,-221.05 115.52,-210.97 111.79,-220.89 118.79,-221.05"/>
</g>
<!-- Ltotal&#45;&gt;dspacing -->
<g id="edge12" class="edge">
<title>Ltotal&#45;&gt;dspacing</title>
<path fill="none" stroke="black" d="M251.46,-305.88C236.66,-297.37 216.55,-285.8 199.94,-276.24"/>
<polygon fill="black" stroke="black" points="201.84,-273.3 191.43,-271.35 198.35,-279.37 201.84,-273.3"/>
</g>
<!-- energy -->
<g id="node12" class="node">
<title>energy</title>
<polygon fill="none" stroke="black" points="409.06,-270.25 343.56,-270.25 343.56,-245 409.06,-245 409.06,-270.25"/>
<text xml:space="preserve" text-anchor="middle" x="376.31" y="-252.95" font-family="Times,serif" font-size="14.00">energy</text>
</g>
<!-- Ltotal&#45;&gt;energy -->
<g id="edge15" class="edge">
<title>Ltotal&#45;&gt;energy</title>
<path fill="none" stroke="black" d="M293.35,-305.88C308.29,-297.37 328.6,-285.8 345.38,-276.24"/>
<polygon fill="black" stroke="black" points="347.02,-279.34 353.98,-271.35 343.55,-273.26 347.02,-279.34"/>
</g>
<!-- wavelength -->
<g id="node22" class="node">
<title>wavelength</title>
<polygon fill="none" stroke="black" points="325.56,-270.25 227.06,-270.25 227.06,-245 325.56,-245 325.56,-270.25"/>
<text xml:space="preserve" text-anchor="middle" x="276.31" y="-252.95" font-family="Times,serif" font-size="14.00">wavelength</text>
</g>
<!-- Ltotal&#45;&gt;wavelength -->
<g id="edge39" class="edge">
<title>Ltotal&#45;&gt;wavelength</title>
<path fill="none" stroke="black" d="M273.12,-305.88C273.58,-298.98 274.18,-290.06 274.74,-281.84"/>
<polygon fill="black" stroke="black" points="278.21,-282.32 275.4,-272.11 271.23,-281.85 278.21,-282.32"/>
</g>
<!-- tof -->
<g id="node10" class="node">
<title>tof</title>
<polygon fill="none" stroke="black" points="373.31,-331.5 319.31,-331.5 319.31,-306.25 373.31,-306.25 373.31,-331.5"/>
<text xml:space="preserve" text-anchor="middle" x="346.31" y="-314.2" font-family="Times,serif" font-size="14.00">tof</text>
</g>
<!-- tof&#45;&gt;dspacing -->
<g id="edge11" class="edge">
<title>tof&#45;&gt;dspacing</title>
<path fill="none" stroke="black" d="M319.04,-308.75C291.68,-299.59 249.01,-285.31 216.21,-274.33"/>
<polygon fill="black" stroke="black" points="217.53,-271.08 206.94,-271.22 215.31,-277.72 217.53,-271.08"/>
</g>
<!-- tof&#45;&gt;energy -->
<g id="edge14" class="edge">
<title>tof&#45;&gt;energy</title>
<path fill="none" stroke="black" d="M352.38,-305.88C356.04,-298.66 360.81,-289.23 365.13,-280.69"/>
<polygon fill="black" stroke="black" points="368.17,-282.45 369.56,-271.95 361.92,-279.29 368.17,-282.45"/>
</g>
<!-- tof&#45;&gt;wavelength -->
<g id="edge38" class="edge">
<title>tof&#45;&gt;wavelength</title>
<path fill="none" stroke="black" d="M332.14,-305.88C322.65,-297.85 309.95,-287.1 299.06,-277.89"/>
<polygon fill="black" stroke="black" points="301.5,-275.36 291.61,-271.58 296.98,-280.71 301.5,-275.36"/>
</g>
<!-- Q_vec -->
<g id="node13" class="node">
<title>Q_vec</title>
<polygon fill="none" stroke="black" points="301.31,-147.75 243.31,-147.75 243.31,-122.5 301.31,-122.5 301.31,-147.75"/>
<text xml:space="preserve" text-anchor="middle" x="272.31" y="-130.45" font-family="Times,serif" font-size="14.00">Q_vec</text>
</g>
<!-- hkl_vec -->
<g id="node14" class="node">
<title>hkl_vec</title>
<polygon fill="none" stroke="black" points="430.56,-86.5 362.06,-86.5 362.06,-61.25 430.56,-61.25 430.56,-86.5"/>
<text xml:space="preserve" text-anchor="middle" x="396.31" y="-69.2" font-family="Times,serif" font-size="14.00">hkl_vec</text>
</g>
<!-- Q_vec&#45;&gt;hkl_vec -->
<g id="edge16" class="edge">
<title>Q_vec&#45;&gt;hkl_vec</title>
<path fill="none" stroke="black" d="M297.4,-122.13C315.72,-113.38 340.8,-101.4 361.12,-91.69"/>
<polygon fill="black" stroke="black" points="362.37,-94.97 369.88,-87.5 359.35,-88.65 362.37,-94.97"/>
</g>
<!-- h -->
<g id="node17" class="node">
<title>h</title>
<polygon fill="none" stroke="black" points="351.31,-25.25 297.31,-25.25 297.31,0 351.31,0 351.31,-25.25"/>
<text xml:space="preserve" text-anchor="middle" x="324.31" y="-7.95" font-family="Times,serif" font-size="14.00">h</text>
</g>
<!-- hkl_vec&#45;&gt;h -->
<g id="edge19" class="edge">
<title>hkl_vec&#45;&gt;h</title>
<path fill="none" stroke="black" d="M381.74,-60.88C371.98,-52.85 358.91,-42.1 347.71,-32.89"/>
<polygon fill="black" stroke="black" points="349.97,-30.21 340.02,-26.56 345.52,-35.62 349.97,-30.21"/>
</g>
<!-- k -->
<g id="node18" class="node">
<title>k</title>
<polygon fill="none" stroke="black" points="423.31,-25.25 369.31,-25.25 369.31,0 423.31,0 423.31,-25.25"/>
<text xml:space="preserve" text-anchor="middle" x="396.31" y="-7.95" font-family="Times,serif" font-size="14.00">k</text>
</g>
<!-- hkl_vec&#45;&gt;k -->
<g id="edge20" class="edge">
<title>hkl_vec&#45;&gt;k</title>
<path fill="none" stroke="black" d="M396.31,-60.88C396.31,-53.98 396.31,-45.06 396.31,-36.84"/>
<polygon fill="black" stroke="black" points="399.81,-37.11 396.31,-27.11 392.81,-37.11 399.81,-37.11"/>
</g>
<!-- l -->
<g id="node19" class="node">
<title>l</title>
<polygon fill="none" stroke="black" points="495.31,-25.25 441.31,-25.25 441.31,0 495.31,0 495.31,-25.25"/>
<text xml:space="preserve" text-anchor="middle" x="468.31" y="-7.95" font-family="Times,serif" font-size="14.00">l</text>
</g>
<!-- hkl_vec&#45;&gt;l -->
<g id="edge21" class="edge">
<title>hkl_vec&#45;&gt;l</title>
<path fill="none" stroke="black" d="M410.88,-60.88C420.64,-52.85 433.7,-42.1 444.9,-32.89"/>
<polygon fill="black" stroke="black" points="447.09,-35.62 452.59,-26.56 442.64,-30.21 447.09,-35.62"/>
</g>
<!-- ub_matrix -->
<g id="node15" class="node">
<title>ub_matrix</title>
<polygon fill="none" stroke="black" points="440.31,-147.75 352.31,-147.75 352.31,-122.5 440.31,-122.5 440.31,-147.75"/>
<text xml:space="preserve" text-anchor="middle" x="396.31" y="-130.45" font-family="Times,serif" font-size="14.00">ub_matrix</text>
</g>
<!-- ub_matrix&#45;&gt;hkl_vec -->
<g id="edge17" class="edge">
<title>ub_matrix&#45;&gt;hkl_vec</title>
<path fill="none" stroke="black" d="M396.31,-122.13C396.31,-115.23 396.31,-106.31 396.31,-98.09"/>
<polygon fill="black" stroke="black" points="399.81,-98.36 396.31,-88.36 392.81,-98.36 399.81,-98.36"/>
</g>
<!-- sample_rotation -->
<g id="node16" class="node">
<title>sample_rotation</title>
<polygon fill="none" stroke="black" points="588.68,-147.75 457.93,-147.75 457.93,-122.5 588.68,-122.5 588.68,-147.75"/>
<text xml:space="preserve" text-anchor="middle" x="523.31" y="-130.45" font-family="Times,serif" font-size="14.00">sample_rotation</text>
</g>
<!-- sample_rotation&#45;&gt;hkl_vec -->
<g id="edge18" class="edge">
<title>sample_rotation&#45;&gt;hkl_vec</title>
<path fill="none" stroke="black" d="M497.61,-122.13C478.84,-113.38 453.16,-101.4 432.34,-91.69"/>
<polygon fill="black" stroke="black" points="433.88,-88.54 423.34,-87.49 430.92,-94.89 433.88,-88.54"/>
</g>
<!-- u_matrix -->
<g id="node20" class="node">
<title>u_matrix</title>
<polygon fill="none" stroke="black" points="532.81,-209 453.81,-209 453.81,-183.75 532.81,-183.75 532.81,-209"/>
<text xml:space="preserve" text-anchor="middle" x="493.31" y="-191.7" font-family="Times,serif" font-size="14.00">u_matrix</text>
</g>
<!-- u_matrix&#45;&gt;ub_matrix -->
<g id="edge22" class="edge">
<title>u_matrix&#45;&gt;ub_matrix</title>
<path fill="none" stroke="black" d="M473.68,-183.38C459.87,-174.95 441.16,-163.52 425.6,-154.02"/>
<polygon fill="black" stroke="black" points="427.56,-151.11 417.2,-148.89 423.91,-157.09 427.56,-151.11"/>
</g>
<!-- b_matrix -->
<g id="node21" class="node">
<title>b_matrix</title>
<polygon fill="none" stroke="black" points="435.81,-209 356.81,-209 356.81,-183.75 435.81,-183.75 435.81,-209"/>
<text xml:space="preserve" text-anchor="middle" x="396.31" y="-191.7" font-family="Times,serif" font-size="14.00">b_matrix</text>
</g>
<!-- b_matrix&#45;&gt;ub_matrix -->
<g id="edge23" class="edge">
<title>b_matrix&#45;&gt;ub_matrix</title>
<path fill="none" stroke="black" d="M396.31,-183.38C396.31,-176.48 396.31,-167.56 396.31,-159.34"/>
<polygon fill="black" stroke="black" points="399.81,-159.61 396.31,-149.61 392.81,-159.61 399.81,-159.61"/>
</g>
<!-- wavelength&#45;&gt;Q -->
<g id="edge24" class="edge">
<title>wavelength&#45;&gt;Q</title>
<path fill="none" stroke="black" d="M243.93,-244.63C218,-235.04 181.59,-221.55 154.29,-211.44"/>
<polygon fill="black" stroke="black" points="155.59,-208.19 145,-208 153.16,-214.76 155.59,-208.19"/>
</g>
<!-- wavelength&#45;&gt;Qx -->
<g id="edge29" class="edge">
<title>wavelength&#45;&gt;Qx</title>
<path fill="none" stroke="black" d="M268.82,-244.63C264.2,-237.25 258.15,-227.56 252.73,-218.88"/>
<polygon fill="black" stroke="black" points="255.85,-217.26 247.58,-210.63 249.91,-220.97 255.85,-217.26"/>
</g>
<!-- wavelength&#45;&gt;Qy -->
<g id="edge32" class="edge">
<title>wavelength&#45;&gt;Qy</title>
<path fill="none" stroke="black" d="M283.39,-244.63C287.71,-237.33 293.35,-227.77 298.44,-219.16"/>
<polygon fill="black" stroke="black" points="301.39,-221.04 303.46,-210.65 295.36,-217.48 301.39,-221.04"/>
</g>
<!-- wavelength&#45;&gt;Qz -->
<g id="edge35" class="edge">
<title>wavelength&#45;&gt;Qz</title>
<path fill="none" stroke="black" d="M226.56,-245.39C189.22,-236.76 136.62,-224.2 80.53,-208.93"/>
<polygon fill="black" stroke="black" points="81.68,-205.62 71.11,-206.35 79.83,-212.37 81.68,-205.62"/>
</g>
<!-- wavelength&#45;&gt;time_at_sample -->
<g id="edge44" class="edge">
<title>wavelength&#45;&gt;time_at_sample</title>
<path fill="none" stroke="black" d="M325.96,-246.57C328.78,-246.03 331.58,-245.5 334.31,-245 403.59,-232.17 482.78,-218.82 539.22,-209.53"/>
<polygon fill="black" stroke="black" points="539.75,-212.99 549.05,-207.92 538.62,-206.08 539.75,-212.99"/>
</g>
<!-- Qx&#45;&gt;Q_vec -->
<g id="edge26" class="edge">
<title>Qx&#45;&gt;Q_vec</title>
<path fill="none" stroke="black" d="M245.98,-183.38C250.05,-176.08 255.38,-166.52 260.17,-157.91"/>
<polygon fill="black" stroke="black" points="263.09,-159.86 264.9,-149.42 256.98,-156.45 263.09,-159.86"/>
</g>
<!-- Qy&#45;&gt;Q_vec -->
<g id="edge27" class="edge">
<title>Qy&#45;&gt;Q_vec</title>
<path fill="none" stroke="black" d="M303.41,-183.38C298.55,-176 292.17,-166.31 286.46,-157.63"/>
<polygon fill="black" stroke="black" points="289.44,-155.79 281.02,-149.36 283.59,-159.64 289.44,-155.79"/>
</g>
<!-- Qz&#45;&gt;Q_vec -->
<g id="edge28" class="edge">
<title>Qz&#45;&gt;Q_vec</title>
<path fill="none" stroke="black" d="M69.65,-186.82C73.23,-185.75 76.85,-184.71 80.31,-183.75 132.31,-169.36 192.8,-154.69 231.78,-145.51"/>
<polygon fill="black" stroke="black" points="232.49,-148.94 241.43,-143.25 230.89,-142.12 232.49,-148.94"/>
</g>
<!-- event_time_zero -->
<g id="node27" class="node">
<title>event_time_zero</title>
<polygon fill="none" stroke="black" points="871.43,-331.5 739.18,-331.5 739.18,-306.25 871.43,-306.25 871.43,-331.5"/>
<text xml:space="preserve" text-anchor="middle" x="805.31" y="-314.2" font-family="Times,serif" font-size="14.00">event_time_zero</text>
</g>
<!-- toa -->
<g id="node28" class="node">
<title>toa</title>
<polygon fill="none" stroke="black" points="677.31,-270.25 623.31,-270.25 623.31,-245 677.31,-245 677.31,-270.25"/>
<text xml:space="preserve" text-anchor="middle" x="650.31" y="-252.95" font-family="Times,serif" font-size="14.00">toa</text>
</g>
<!-- event_time_zero&#45;&gt;toa -->
<g id="edge40" class="edge">
<title>event_time_zero&#45;&gt;toa</title>
<path fill="none" stroke="black" d="M773.94,-305.88C749.25,-296.45 714.73,-283.25 688.45,-273.2"/>
<polygon fill="black" stroke="black" points="689.74,-269.95 679.15,-269.65 687.24,-276.49 689.74,-269.95"/>
</g>
<!-- toa&#45;&gt;time_at_sample -->
<g id="edge42" class="edge">
<title>toa&#45;&gt;time_at_sample</title>
<path fill="none" stroke="black" d="M643.02,-244.63C638.58,-237.33 632.77,-227.77 627.54,-219.16"/>
<polygon fill="black" stroke="black" points="630.55,-217.37 622.37,-210.64 624.57,-221 630.55,-217.37"/>
</g>
<!-- event_time_offset -->
<g id="node29" class="node">
<title>event_time_offset</title>
<polygon fill="none" stroke="black" points="720.93,-331.5 579.68,-331.5 579.68,-306.25 720.93,-306.25 720.93,-331.5"/>
<text xml:space="preserve" text-anchor="middle" x="650.31" y="-314.2" font-family="Times,serif" font-size="14.00">event_time_offset</text>
</g>
<!-- event_time_offset&#45;&gt;toa -->
<g id="edge41" class="edge">
<title>event_time_offset&#45;&gt;toa</title>
<path fill="none" stroke="black" d="M650.31,-305.88C650.31,-298.98 650.31,-290.06 650.31,-281.84"/>
<polygon fill="black" stroke="black" points="653.81,-282.11 650.31,-272.11 646.81,-282.11 653.81,-282.11"/>
</g>
</g>
</svg>
