<?xml version="1.0" encoding="utf-8" standalone="no"?>
<!DOCTYPE svg PUBLIC "-//W3C//DTD SVG 1.1//EN"
  "http://www.w3.org/Graphics/SVG/1.1/DTD/svg11.dtd">
<svg xmlns:xlink="http://www.w3.org/1999/xlink" width="872.39952pt" height="296.39952pt" viewBox="0 0 872.39952 296.39952" xmlns="http://www.w3.org/2000/svg" version="1.1">
 <metadata>
  <rdf:RDF xmlns:dc="http://purl.org/dc/elements/1.1/" xmlns:cc="http://creativecommons.org/ns#" xmlns:rdf="http://www.w3.org/1999/02/22-rdf-syntax-ns#">
   <cc:Work>
    <dc:type rdf:resource="http://purl.org/dc/dcmitype/StillImage"/>
    <dc:date>2024-11-13T15:31:12.779885</dc:date>
    <dc:format>image/svg+xml</dc:format>
    <dc:creator>
     <cc:Agent>
      <dc:title>Matplotlib v3.9.2, https://matplotlib.org/</dc:title>
     </cc:Agent>
    </dc:creator>
   </cc:Work>
  </rdf:RDF>
 </metadata>
 <defs>
  <style type="text/css">*{stroke-linejoin: round; stroke-linecap: butt}</style>
 </defs>
 <g id="figure_1">
  <g id="patch_1">
   <path d="M 0 296.39952 
L 872.39952 296.39952 
L 872.39952 0 
L 0 0 
z
" style="fill: #ffffff"/>
  </g>
  <g id="axes_1">
   <g id="patch_2">
    <path d="M 53.328125 257.158895 
L 431.87976 257.158895 
L 431.87976 7.2 
L 53.328125 7.2 
z
" style="fill: #ffffff"/>
   </g>
   <g id="matplotlib.axis_1">
    <g id="xtick_1">
     <g id="line2d_1">
      <defs>
       <path id="mc26a8fd6ce" d="M 0 0 
L 0 3.5 
" style="stroke: #000000; stroke-width: 0.8"/>
      </defs>
      <g>
       <use xlink:href="#mc26a8fd6ce" x="69.639242" y="257.158895" style="stroke: #000000; stroke-width: 0.8"/>
      </g>
     </g>
     <g id="text_1">
      <!-- 0 -->
      <g transform="translate(66.457992 271.757332) scale(0.1 -0.1)">
       <defs>
        <path id="DejaVuSans-30" d="M 2034 4250 
Q 1547 4250 1301 3770 
Q 1056 3291 1056 2328 
Q 1056 1369 1301 889 
Q 1547 409 2034 409 
Q 2525 409 2770 889 
Q 3016 1369 3016 2328 
Q 3016 3291 2770 3770 
Q 2525 4250 2034 4250 
z
M 2034 4750 
Q 2819 4750 3233 4129 
Q 3647 3509 3647 2328 
Q 3647 1150 3233 529 
Q 2819 -91 2034 -91 
Q 1250 -91 836 529 
Q 422 1150 422 2328 
Q 422 3509 836 4129 
Q 1250 4750 2034 4750 
z
" transform="scale(0.015625)"/>
       </defs>
       <use xlink:href="#DejaVuSans-30"/>
      </g>
     </g>
    </g>
    <g id="xtick_2">
     <g id="line2d_2">
      <g>
       <use xlink:href="#mc26a8fd6ce" x="139.077963" y="257.158895" style="stroke: #000000; stroke-width: 0.8"/>
      </g>
     </g>
     <g id="text_2">
      <!-- 1000 -->
      <g transform="translate(126.352963 271.757332) scale(0.1 -0.1)">
       <defs>
        <path id="DejaVuSans-31" d="M 794 531 
L 1825 531 
L 1825 4091 
L 703 3866 
L 703 4441 
L 1819 4666 
L 2450 4666 
L 2450 531 
L 3481 531 
L 3481 0 
L 794 0 
L 794 531 
z
" transform="scale(0.015625)"/>
       </defs>
       <use xlink:href="#DejaVuSans-31"/>
       <use xlink:href="#DejaVuSans-30" x="63.623047"/>
       <use xlink:href="#DejaVuSans-30" x="127.246094"/>
       <use xlink:href="#DejaVuSans-30" x="190.869141"/>
      </g>
     </g>
    </g>
    <g id="xtick_3">
     <g id="line2d_3">
      <g>
       <use xlink:href="#mc26a8fd6ce" x="208.516685" y="257.158895" style="stroke: #000000; stroke-width: 0.8"/>
      </g>
     </g>
     <g id="text_3">
      <!-- 2000 -->
      <g transform="translate(195.791685 271.757332) scale(0.1 -0.1)">
       <defs>
        <path id="DejaVuSans-32" d="M 1228 531 
L 3431 531 
L 3431 0 
L 469 0 
L 469 531 
Q 828 903 1448 1529 
Q 2069 2156 2228 2338 
Q 2531 2678 2651 2914 
Q 2772 3150 2772 3378 
Q 2772 3750 2511 3984 
Q 2250 4219 1831 4219 
Q 1534 4219 1204 4116 
Q 875 4013 500 3803 
L 500 4441 
Q 881 4594 1212 4672 
Q 1544 4750 1819 4750 
Q 2544 4750 2975 4387 
Q 3406 4025 3406 3419 
Q 3406 3131 3298 2873 
Q 3191 2616 2906 2266 
Q 2828 2175 2409 1742 
Q 1991 1309 1228 531 
z
" transform="scale(0.015625)"/>
       </defs>
       <use xlink:href="#DejaVuSans-32"/>
       <use xlink:href="#DejaVuSans-30" x="63.623047"/>
       <use xlink:href="#DejaVuSans-30" x="127.246094"/>
       <use xlink:href="#DejaVuSans-30" x="190.869141"/>
      </g>
     </g>
    </g>
    <g id="xtick_4">
     <g id="line2d_4">
      <g>
       <use xlink:href="#mc26a8fd6ce" x="277.955407" y="257.158895" style="stroke: #000000; stroke-width: 0.8"/>
      </g>
     </g>
     <g id="text_4">
      <!-- 3000 -->
      <g transform="translate(265.230407 271.757332) scale(0.1 -0.1)">
       <defs>
        <path id="DejaVuSans-33" d="M 2597 2516 
Q 3050 2419 3304 2112 
Q 3559 1806 3559 1356 
Q 3559 666 3084 287 
Q 2609 -91 1734 -91 
Q 1441 -91 1130 -33 
Q 819 25 488 141 
L 488 750 
Q 750 597 1062 519 
Q 1375 441 1716 441 
Q 2309 441 2620 675 
Q 2931 909 2931 1356 
Q 2931 1769 2642 2001 
Q 2353 2234 1838 2234 
L 1294 2234 
L 1294 2753 
L 1863 2753 
Q 2328 2753 2575 2939 
Q 2822 3125 2822 3475 
Q 2822 3834 2567 4026 
Q 2313 4219 1838 4219 
Q 1578 4219 1281 4162 
Q 984 4106 628 3988 
L 628 4550 
Q 988 4650 1302 4700 
Q 1616 4750 1894 4750 
Q 2613 4750 3031 4423 
Q 3450 4097 3450 3541 
Q 3450 3153 3228 2886 
Q 3006 2619 2597 2516 
z
" transform="scale(0.015625)"/>
       </defs>
       <use xlink:href="#DejaVuSans-33"/>
       <use xlink:href="#DejaVuSans-30" x="63.623047"/>
       <use xlink:href="#DejaVuSans-30" x="127.246094"/>
       <use xlink:href="#DejaVuSans-30" x="190.869141"/>
      </g>
     </g>
    </g>
    <g id="xtick_5">
     <g id="line2d_5">
      <g>
       <use xlink:href="#mc26a8fd6ce" x="347.394128" y="257.158895" style="stroke: #000000; stroke-width: 0.8"/>
      </g>
     </g>
     <g id="text_5">
      <!-- 4000 -->
      <g transform="translate(334.669128 271.757332) scale(0.1 -0.1)">
       <defs>
        <path id="DejaVuSans-34" d="M 2419 4116 
L 825 1625 
L 2419 1625 
L 2419 4116 
z
M 2253 4666 
L 3047 4666 
L 3047 1625 
L 3713 1625 
L 3713 1100 
L 3047 1100 
L 3047 0 
L 2419 0 
L 2419 1100 
L 313 1100 
L 313 1709 
L 2253 4666 
z
" transform="scale(0.015625)"/>
       </defs>
       <use xlink:href="#DejaVuSans-34"/>
       <use xlink:href="#DejaVuSans-30" x="63.623047"/>
       <use xlink:href="#DejaVuSans-30" x="127.246094"/>
       <use xlink:href="#DejaVuSans-30" x="190.869141"/>
      </g>
     </g>
    </g>
    <g id="xtick_6">
     <g id="line2d_6">
      <g>
       <use xlink:href="#mc26a8fd6ce" x="416.83285" y="257.158895" style="stroke: #000000; stroke-width: 0.8"/>
      </g>
     </g>
     <g id="text_6">
      <!-- 5000 -->
      <g transform="translate(404.10785 271.757332) scale(0.1 -0.1)">
       <defs>
        <path id="DejaVuSans-35" d="M 691 4666 
L 3169 4666 
L 3169 4134 
L 1269 4134 
L 1269 2991 
Q 1406 3038 1543 3061 
Q 1681 3084 1819 3084 
Q 2600 3084 3056 2656 
Q 3513 2228 3513 1497 
Q 3513 744 3044 326 
Q 2575 -91 1722 -91 
Q 1428 -91 1123 -41 
Q 819 9 494 109 
L 494 744 
Q 775 591 1075 516 
Q 1375 441 1709 441 
Q 2250 441 2565 725 
Q 2881 1009 2881 1497 
Q 2881 1984 2565 2268 
Q 2250 2553 1709 2553 
Q 1456 2553 1204 2497 
Q 953 2441 691 2322 
L 691 4666 
z
" transform="scale(0.015625)"/>
       </defs>
       <use xlink:href="#DejaVuSans-35"/>
       <use xlink:href="#DejaVuSans-30" x="63.623047"/>
       <use xlink:href="#DejaVuSans-30" x="127.246094"/>
       <use xlink:href="#DejaVuSans-30" x="190.869141"/>
      </g>
     </g>
    </g>
    <g id="text_7">
     <!-- time [µs] -->
     <g transform="translate(220.031286 285.435457) scale(0.1 -0.1)">
      <defs>
       <path id="DejaVuSans-74" d="M 1172 4494 
L 1172 3500 
L 2356 3500 
L 2356 3053 
L 1172 3053 
L 1172 1153 
Q 1172 725 1289 603 
Q 1406 481 1766 481 
L 2356 481 
L 2356 0 
L 1766 0 
Q 1100 0 847 248 
Q 594 497 594 1153 
L 594 3053 
L 172 3053 
L 172 3500 
L 594 3500 
L 594 4494 
L 1172 4494 
z
" transform="scale(0.015625)"/>
       <path id="DejaVuSans-69" d="M 603 3500 
L 1178 3500 
L 1178 0 
L 603 0 
L 603 3500 
z
M 603 4863 
L 1178 4863 
L 1178 4134 
L 603 4134 
L 603 4863 
z
" transform="scale(0.015625)"/>
       <path id="DejaVuSans-6d" d="M 3328 2828 
Q 3544 3216 3844 3400 
Q 4144 3584 4550 3584 
Q 5097 3584 5394 3201 
Q 5691 2819 5691 2113 
L 5691 0 
L 5113 0 
L 5113 2094 
Q 5113 2597 4934 2840 
Q 4756 3084 4391 3084 
Q 3944 3084 3684 2787 
Q 3425 2491 3425 1978 
L 3425 0 
L 2847 0 
L 2847 2094 
Q 2847 2600 2669 2842 
Q 2491 3084 2119 3084 
Q 1678 3084 1418 2786 
Q 1159 2488 1159 1978 
L 1159 0 
L 581 0 
L 581 3500 
L 1159 3500 
L 1159 2956 
Q 1356 3278 1631 3431 
Q 1906 3584 2284 3584 
Q 2666 3584 2933 3390 
Q 3200 3197 3328 2828 
z
" transform="scale(0.015625)"/>
       <path id="DejaVuSans-65" d="M 3597 1894 
L 3597 1613 
L 953 1613 
Q 991 1019 1311 708 
Q 1631 397 2203 397 
Q 2534 397 2845 478 
Q 3156 559 3463 722 
L 3463 178 
Q 3153 47 2828 -22 
Q 2503 -91 2169 -91 
Q 1331 -91 842 396 
Q 353 884 353 1716 
Q 353 2575 817 3079 
Q 1281 3584 2069 3584 
Q 2775 3584 3186 3129 
Q 3597 2675 3597 1894 
z
M 3022 2063 
Q 3016 2534 2758 2815 
Q 2500 3097 2075 3097 
Q 1594 3097 1305 2825 
Q 1016 2553 972 2059 
L 3022 2063 
z
" transform="scale(0.015625)"/>
       <path id="DejaVuSans-20" transform="scale(0.015625)"/>
       <path id="DejaVuSans-5b" d="M 550 4863 
L 1875 4863 
L 1875 4416 
L 1125 4416 
L 1125 -397 
L 1875 -397 
L 1875 -844 
L 550 -844 
L 550 4863 
z
" transform="scale(0.015625)"/>
       <path id="DejaVuSans-b5" d="M 544 -1331 
L 544 3500 
L 1119 3500 
L 1119 1325 
Q 1119 872 1334 640 
Q 1550 409 1972 409 
Q 2434 409 2667 671 
Q 2900 934 2900 1459 
L 2900 3500 
L 3475 3500 
L 3475 806 
Q 3475 619 3529 530 
Q 3584 441 3700 441 
Q 3728 441 3778 458 
Q 3828 475 3916 513 
L 3916 50 
Q 3788 -22 3673 -56 
Q 3559 -91 3450 -91 
Q 3234 -91 3106 31 
Q 2978 153 2931 403 
Q 2775 156 2548 32 
Q 2322 -91 2016 -91 
Q 1697 -91 1473 31 
Q 1250 153 1119 397 
L 1119 -1331 
L 544 -1331 
z
" transform="scale(0.015625)"/>
       <path id="DejaVuSans-73" d="M 2834 3397 
L 2834 2853 
Q 2591 2978 2328 3040 
Q 2066 3103 1784 3103 
Q 1356 3103 1142 2972 
Q 928 2841 928 2578 
Q 928 2378 1081 2264 
Q 1234 2150 1697 2047 
L 1894 2003 
Q 2506 1872 2764 1633 
Q 3022 1394 3022 966 
Q 3022 478 2636 193 
Q 2250 -91 1575 -91 
Q 1294 -91 989 -36 
Q 684 19 347 128 
L 347 722 
Q 666 556 975 473 
Q 1284 391 1588 391 
Q 1994 391 2212 530 
Q 2431 669 2431 922 
Q 2431 1156 2273 1281 
Q 2116 1406 1581 1522 
L 1381 1569 
Q 847 1681 609 1914 
Q 372 2147 372 2553 
Q 372 3047 722 3315 
Q 1072 3584 1716 3584 
Q 2034 3584 2315 3537 
Q 2597 3491 2834 3397 
z
" transform="scale(0.015625)"/>
       <path id="DejaVuSans-5d" d="M 1947 4863 
L 1947 -844 
L 622 -844 
L 622 -397 
L 1369 -397 
L 1369 4416 
L 622 4416 
L 622 4863 
L 1947 4863 
z
" transform="scale(0.015625)"/>
      </defs>
      <use xlink:href="#DejaVuSans-74"/>
      <use xlink:href="#DejaVuSans-69" x="39.208984"/>
      <use xlink:href="#DejaVuSans-6d" x="66.992188"/>
      <use xlink:href="#DejaVuSans-65" x="164.404297"/>
      <use xlink:href="#DejaVuSans-20" x="225.927734"/>
      <use xlink:href="#DejaVuSans-5b" x="257.714844"/>
      <use xlink:href="#DejaVuSans-b5" x="296.728516"/>
      <use xlink:href="#DejaVuSans-73" x="360.351562"/>
      <use xlink:href="#DejaVuSans-5d" x="412.451172"/>
     </g>
    </g>
   </g>
   <g id="matplotlib.axis_2">
    <g id="ytick_1">
     <g id="line2d_7">
      <defs>
       <path id="me5f000d624" d="M 0 0 
L -3.5 0 
" style="stroke: #000000; stroke-width: 0.8"/>
      </defs>
      <g>
       <use xlink:href="#me5f000d624" x="53.328125" y="245.797127" style="stroke: #000000; stroke-width: 0.8"/>
      </g>
     </g>
     <g id="text_8">
      <!-- 0 -->
      <g transform="translate(39.965625 249.596346) scale(0.1 -0.1)">
       <use xlink:href="#DejaVuSans-30"/>
      </g>
     </g>
    </g>
    <g id="ytick_2">
     <g id="line2d_8">
      <g>
       <use xlink:href="#me5f000d624" x="53.328125" y="208.4536" style="stroke: #000000; stroke-width: 0.8"/>
      </g>
     </g>
     <g id="text_9">
      <!-- 200 -->
      <g transform="translate(27.240625 212.252819) scale(0.1 -0.1)">
       <use xlink:href="#DejaVuSans-32"/>
       <use xlink:href="#DejaVuSans-30" x="63.623047"/>
       <use xlink:href="#DejaVuSans-30" x="127.246094"/>
      </g>
     </g>
    </g>
    <g id="ytick_3">
     <g id="line2d_9">
      <g>
       <use xlink:href="#me5f000d624" x="53.328125" y="171.110074" style="stroke: #000000; stroke-width: 0.8"/>
      </g>
     </g>
     <g id="text_10">
      <!-- 400 -->
      <g transform="translate(27.240625 174.909293) scale(0.1 -0.1)">
       <use xlink:href="#DejaVuSans-34"/>
       <use xlink:href="#DejaVuSans-30" x="63.623047"/>
       <use xlink:href="#DejaVuSans-30" x="127.246094"/>
      </g>
     </g>
    </g>
    <g id="ytick_4">
     <g id="line2d_10">
      <g>
       <use xlink:href="#me5f000d624" x="53.328125" y="133.766547" style="stroke: #000000; stroke-width: 0.8"/>
      </g>
     </g>
     <g id="text_11">
      <!-- 600 -->
      <g transform="translate(27.240625 137.565766) scale(0.1 -0.1)">
       <defs>
        <path id="DejaVuSans-36" d="M 2113 2584 
Q 1688 2584 1439 2293 
Q 1191 2003 1191 1497 
Q 1191 994 1439 701 
Q 1688 409 2113 409 
Q 2538 409 2786 701 
Q 3034 994 3034 1497 
Q 3034 2003 2786 2293 
Q 2538 2584 2113 2584 
z
M 3366 4563 
L 3366 3988 
Q 3128 4100 2886 4159 
Q 2644 4219 2406 4219 
Q 1781 4219 1451 3797 
Q 1122 3375 1075 2522 
Q 1259 2794 1537 2939 
Q 1816 3084 2150 3084 
Q 2853 3084 3261 2657 
Q 3669 2231 3669 1497 
Q 3669 778 3244 343 
Q 2819 -91 2113 -91 
Q 1303 -91 875 529 
Q 447 1150 447 2328 
Q 447 3434 972 4092 
Q 1497 4750 2381 4750 
Q 2619 4750 2861 4703 
Q 3103 4656 3366 4563 
z
" transform="scale(0.015625)"/>
       </defs>
       <use xlink:href="#DejaVuSans-36"/>
       <use xlink:href="#DejaVuSans-30" x="63.623047"/>
       <use xlink:href="#DejaVuSans-30" x="127.246094"/>
      </g>
     </g>
    </g>
    <g id="ytick_5">
     <g id="line2d_11">
      <g>
       <use xlink:href="#me5f000d624" x="53.328125" y="96.423021" style="stroke: #000000; stroke-width: 0.8"/>
      </g>
     </g>
     <g id="text_12">
      <!-- 800 -->
      <g transform="translate(27.240625 100.22224) scale(0.1 -0.1)">
       <defs>
        <path id="DejaVuSans-38" d="M 2034 2216 
Q 1584 2216 1326 1975 
Q 1069 1734 1069 1313 
Q 1069 891 1326 650 
Q 1584 409 2034 409 
Q 2484 409 2743 651 
Q 3003 894 3003 1313 
Q 3003 1734 2745 1975 
Q 2488 2216 2034 2216 
z
M 1403 2484 
Q 997 2584 770 2862 
Q 544 3141 544 3541 
Q 544 4100 942 4425 
Q 1341 4750 2034 4750 
Q 2731 4750 3128 4425 
Q 3525 4100 3525 3541 
Q 3525 3141 3298 2862 
Q 3072 2584 2669 2484 
Q 3125 2378 3379 2068 
Q 3634 1759 3634 1313 
Q 3634 634 3220 271 
Q 2806 -91 2034 -91 
Q 1263 -91 848 271 
Q 434 634 434 1313 
Q 434 1759 690 2068 
Q 947 2378 1403 2484 
z
M 1172 3481 
Q 1172 3119 1398 2916 
Q 1625 2713 2034 2713 
Q 2441 2713 2670 2916 
Q 2900 3119 2900 3481 
Q 2900 3844 2670 4047 
Q 2441 4250 2034 4250 
Q 1625 4250 1398 4047 
Q 1172 3844 1172 3481 
z
" transform="scale(0.015625)"/>
       </defs>
       <use xlink:href="#DejaVuSans-38"/>
       <use xlink:href="#DejaVuSans-30" x="63.623047"/>
       <use xlink:href="#DejaVuSans-30" x="127.246094"/>
      </g>
     </g>
    </g>
    <g id="ytick_6">
     <g id="line2d_12">
      <g>
       <use xlink:href="#me5f000d624" x="53.328125" y="59.079494" style="stroke: #000000; stroke-width: 0.8"/>
      </g>
     </g>
     <g id="text_13">
      <!-- 1000 -->
      <g transform="translate(20.878125 62.878713) scale(0.1 -0.1)">
       <use xlink:href="#DejaVuSans-31"/>
       <use xlink:href="#DejaVuSans-30" x="63.623047"/>
       <use xlink:href="#DejaVuSans-30" x="127.246094"/>
       <use xlink:href="#DejaVuSans-30" x="190.869141"/>
      </g>
     </g>
    </g>
    <g id="ytick_7">
     <g id="line2d_13">
      <g>
       <use xlink:href="#me5f000d624" x="53.328125" y="21.735968" style="stroke: #000000; stroke-width: 0.8"/>
      </g>
     </g>
     <g id="text_14">
      <!-- 1200 -->
      <g transform="translate(20.878125 25.535186) scale(0.1 -0.1)">
       <use xlink:href="#DejaVuSans-31"/>
       <use xlink:href="#DejaVuSans-32" x="63.623047"/>
       <use xlink:href="#DejaVuSans-30" x="127.246094"/>
       <use xlink:href="#DejaVuSans-30" x="190.869141"/>
      </g>
     </g>
    </g>
    <g id="text_15">
     <!-- [counts] -->
     <g transform="translate(14.798438 152.791947) rotate(-90) scale(0.1 -0.1)">
      <defs>
       <path id="DejaVuSans-63" d="M 3122 3366 
L 3122 2828 
Q 2878 2963 2633 3030 
Q 2388 3097 2138 3097 
Q 1578 3097 1268 2742 
Q 959 2388 959 1747 
Q 959 1106 1268 751 
Q 1578 397 2138 397 
Q 2388 397 2633 464 
Q 2878 531 3122 666 
L 3122 134 
Q 2881 22 2623 -34 
Q 2366 -91 2075 -91 
Q 1284 -91 818 406 
Q 353 903 353 1747 
Q 353 2603 823 3093 
Q 1294 3584 2113 3584 
Q 2378 3584 2631 3529 
Q 2884 3475 3122 3366 
z
" transform="scale(0.015625)"/>
       <path id="DejaVuSans-6f" d="M 1959 3097 
Q 1497 3097 1228 2736 
Q 959 2375 959 1747 
Q 959 1119 1226 758 
Q 1494 397 1959 397 
Q 2419 397 2687 759 
Q 2956 1122 2956 1747 
Q 2956 2369 2687 2733 
Q 2419 3097 1959 3097 
z
M 1959 3584 
Q 2709 3584 3137 3096 
Q 3566 2609 3566 1747 
Q 3566 888 3137 398 
Q 2709 -91 1959 -91 
Q 1206 -91 779 398 
Q 353 888 353 1747 
Q 353 2609 779 3096 
Q 1206 3584 1959 3584 
z
" transform="scale(0.015625)"/>
       <path id="DejaVuSans-75" d="M 544 1381 
L 544 3500 
L 1119 3500 
L 1119 1403 
Q 1119 906 1312 657 
Q 1506 409 1894 409 
Q 2359 409 2629 706 
Q 2900 1003 2900 1516 
L 2900 3500 
L 3475 3500 
L 3475 0 
L 2900 0 
L 2900 538 
Q 2691 219 2414 64 
Q 2138 -91 1772 -91 
Q 1169 -91 856 284 
Q 544 659 544 1381 
z
M 1991 3584 
L 1991 3584 
z
" transform="scale(0.015625)"/>
       <path id="DejaVuSans-6e" d="M 3513 2113 
L 3513 0 
L 2938 0 
L 2938 2094 
Q 2938 2591 2744 2837 
Q 2550 3084 2163 3084 
Q 1697 3084 1428 2787 
Q 1159 2491 1159 1978 
L 1159 0 
L 581 0 
L 581 3500 
L 1159 3500 
L 1159 2956 
Q 1366 3272 1645 3428 
Q 1925 3584 2291 3584 
Q 2894 3584 3203 3211 
Q 3513 2838 3513 2113 
z
" transform="scale(0.015625)"/>
      </defs>
      <use xlink:href="#DejaVuSans-5b"/>
      <use xlink:href="#DejaVuSans-63" x="39.013672"/>
      <use xlink:href="#DejaVuSans-6f" x="93.994141"/>
      <use xlink:href="#DejaVuSans-75" x="155.175781"/>
      <use xlink:href="#DejaVuSans-6e" x="218.554688"/>
      <use xlink:href="#DejaVuSans-74" x="281.933594"/>
      <use xlink:href="#DejaVuSans-73" x="321.142578"/>
      <use xlink:href="#DejaVuSans-5d" x="373.242188"/>
     </g>
    </g>
   </g>
   <g id="patch_3">
    <path d="M 53.328125 257.158895 
L 53.328125 7.2 
" style="fill: none; stroke: #000000; stroke-width: 0.8; stroke-linejoin: miter; stroke-linecap: square"/>
   </g>
   <g id="patch_4">
    <path d="M 431.87976 257.158895 
L 431.87976 7.2 
" style="fill: none; stroke: #000000; stroke-width: 0.8; stroke-linejoin: miter; stroke-linecap: square"/>
   </g>
   <g id="patch_5">
    <path d="M 53.328125 257.158895 
L 431.87976 257.158895 
" style="fill: none; stroke: #000000; stroke-width: 0.8; stroke-linejoin: miter; stroke-linecap: square"/>
   </g>
   <g id="patch_6">
    <path d="M 53.328125 7.2 
L 431.87976 7.2 
" style="fill: none; stroke: #000000; stroke-width: 0.8; stroke-linejoin: miter; stroke-linecap: square"/>
   </g>
   <g id="line2d_14">
    <path d="M 70.535017 234.594069 
L 71.682144 234.594069 
L 71.682144 227.312081 
L 72.82927 227.312081 
L 72.82927 216.669176 
L 73.976396 216.669176 
L 73.976396 212.561388 
L 75.123522 212.561388 
L 75.123522 202.291919 
L 76.270648 202.291919 
L 76.270648 195.943519 
L 77.417774 195.943519 
L 77.417774 181.566261 
L 78.564901 181.566261 
L 78.564901 173.350686 
L 79.712027 173.350686 
L 79.712027 169.429615 
L 80.859153 169.429615 
L 80.859153 157.666404 
L 82.006279 157.666404 
L 82.006279 141.795406 
L 83.153405 141.795406 
L 83.153405 142.355558 
L 84.300532 142.355558 
L 84.300532 141.048535 
L 85.447658 141.048535 
L 85.447658 128.165018 
L 86.594784 128.165018 
L 86.594784 126.671277 
L 87.74191 126.671277 
L 87.74191 115.841655 
L 88.889036 115.841655 
L 88.889036 118.455701 
L 90.036162 118.455701 
L 90.036162 112.29402 
L 91.183289 112.29402 
L 91.183289 108.559667 
L 92.330415 108.559667 
L 92.330415 103.518291 
L 93.477541 103.518291 
L 93.477541 92.501951 
L 94.624667 92.501951 
L 94.624667 106.692491 
L 95.771793 106.692491 
L 95.771793 91.008209 
L 96.918919 91.008209 
L 96.918919 88.954316 
L 98.066046 88.954316 
L 98.066046 95.302715 
L 99.213172 95.302715 
L 99.213172 85.033245 
L 100.360298 85.033245 
L 100.360298 89.887904 
L 101.507424 89.887904 
L 101.507424 82.979351 
L 102.65455 82.979351 
L 102.65455 76.257516 
L 103.801676 76.257516 
L 103.801676 81.112175 
L 104.948802 81.112175 
L 104.948802 68.415376 
L 106.095929 68.415376 
L 106.095929 71.402858 
L 107.243055 71.402858 
L 107.243055 65.988047 
L 108.390181 65.988047 
L 108.390181 72.709881 
L 109.537307 72.709881 
L 109.537307 65.988047 
L 110.684433 65.988047 
L 110.684433 71.402858 
L 111.831559 71.402858 
L 111.831559 61.693541 
L 112.978686 61.693541 
L 112.978686 51.050636 
L 114.125812 51.050636 
L 114.125812 57.585753 
L 115.272938 57.585753 
L 115.272938 43.955366 
L 116.420064 43.955366 
L 116.420064 48.063154 
L 117.56719 48.063154 
L 117.56719 50.863918 
L 118.714316 50.863918 
L 118.714316 52.731095 
L 119.861443 52.731095 
L 119.861443 54.411553 
L 121.008569 54.411553 
L 121.008569 52.357659 
L 122.155695 52.357659 
L 122.155695 51.424071 
L 123.302821 51.424071 
L 123.302821 48.063154 
L 124.449947 48.063154 
L 124.449947 53.851401 
L 125.597073 53.851401 
L 125.597073 44.515519 
L 126.7442 44.515519 
L 126.7442 56.838883 
L 127.891326 56.838883 
L 127.891326 41.901472 
L 129.038452 41.901472 
L 129.038452 45.822542 
L 130.185578 45.822542 
L 130.185578 41.714754 
L 131.332704 41.714754 
L 131.332704 43.208495 
L 132.47983 43.208495 
L 132.47983 32.192155 
L 133.626957 32.192155 
L 133.626957 49.93033 
L 134.774083 49.93033 
L 134.774083 27.524214 
L 135.921209 27.524214 
L 135.921209 41.341319 
L 137.068335 41.341319 
L 137.068335 29.578108 
L 138.215461 29.578108 
L 138.215461 35.366355 
L 139.362587 35.366355 
L 139.362587 32.56559 
L 140.509714 32.56559 
L 140.509714 34.619484 
L 141.65684 34.619484 
L 141.65684 34.246049 
L 142.803966 34.246049 
L 142.803966 36.860096 
L 143.951092 36.860096 
L 143.951092 41.154602 
L 145.098218 41.154602 
L 145.098218 35.553073 
L 146.245344 35.553073 
L 146.245344 36.860096 
L 147.392471 36.860096 
L 147.392471 32.56559 
L 148.539597 32.56559 
L 148.539597 40.221013 
L 149.686723 40.221013 
L 149.686723 38.540555 
L 150.833849 38.540555 
L 150.833849 33.872614 
L 151.980975 33.872614 
L 151.980975 38.727272 
L 153.128101 38.727272 
L 153.128101 29.764826 
L 154.275228 29.764826 
L 154.275228 27.89765 
L 155.422354 27.89765 
L 155.422354 26.964061 
L 156.56948 26.964061 
L 156.56948 38.91399 
L 157.716606 38.91399 
L 157.716606 27.710932 
L 158.863732 27.710932 
L 158.863732 32.378873 
L 160.010858 32.378873 
L 160.010858 44.328801 
L 161.157985 44.328801 
L 161.157985 44.515519 
L 162.305111 44.515519 
L 162.305111 26.217191 
L 163.452237 26.217191 
L 163.452237 31.258567 
L 164.599363 31.258567 
L 164.599363 32.378873 
L 165.746489 32.378873 
L 165.746489 22.296121 
L 166.893616 22.296121 
L 166.893616 27.710932 
L 168.040742 27.710932 
L 168.040742 35.926508 
L 169.187868 35.926508 
L 169.187868 31.81872 
L 170.334994 31.81872 
L 170.334994 31.632002 
L 171.48212 31.632002 
L 171.48212 36.113225 
L 172.629246 36.113225 
L 172.629246 33.499179 
L 173.776372 33.499179 
L 173.776372 27.710932 
L 174.923499 27.710932 
L 174.923499 41.154602 
L 176.070625 41.154602 
L 176.070625 31.445285 
L 177.217751 31.445285 
L 177.217751 37.793684 
L 178.364877 37.793684 
L 178.364877 37.606966 
L 179.512003 37.606966 
L 179.512003 30.324979 
L 180.65913 30.324979 
L 180.65913 41.714754 
L 181.806256 41.714754 
L 181.806256 34.059331 
L 182.953382 34.059331 
L 182.953382 29.951544 
L 184.100508 29.951544 
L 184.100508 23.789862 
L 185.247634 23.789862 
L 185.247634 28.64452 
L 186.39476 28.64452 
L 186.39476 30.885132 
L 187.541886 30.885132 
L 187.541886 33.685896 
L 188.689013 33.685896 
L 188.689013 28.64452 
L 189.836139 28.64452 
L 189.836139 25.47032 
L 190.983265 25.47032 
L 190.983265 31.632002 
L 192.130391 31.632002 
L 192.130391 26.217191 
L 193.277517 26.217191 
L 193.277517 40.221013 
L 194.424644 40.221013 
L 194.424644 30.324979 
L 195.57177 30.324979 
L 195.57177 30.885132 
L 196.718896 30.885132 
L 196.718896 36.113225 
L 197.866022 36.113225 
L 197.866022 35.179637 
L 199.013148 35.179637 
L 199.013148 23.976579 
L 200.160274 23.976579 
L 200.160274 25.47032 
L 201.3074 25.47032 
L 201.3074 24.72345 
L 202.454527 24.72345 
L 202.454527 35.73979 
L 203.601653 35.73979 
L 203.601653 22.669556 
L 204.748779 22.669556 
L 204.748779 32.939026 
L 205.895905 32.939026 
L 205.895905 26.217191 
L 207.043031 26.217191 
L 207.043031 29.951544 
L 208.190157 29.951544 
L 208.190157 33.685896 
L 209.337284 33.685896 
L 209.337284 36.860096 
L 210.48441 36.860096 
L 210.48441 40.594449 
L 211.631536 40.594449 
L 211.631536 28.084367 
L 212.778662 28.084367 
L 212.778662 33.125743 
L 213.925788 33.125743 
L 213.925788 45.262389 
L 215.072914 45.262389 
L 215.072914 30.698414 
L 216.220041 30.698414 
L 216.220041 29.204673 
L 217.367167 29.204673 
L 217.367167 37.793684 
L 218.514293 37.793684 
L 218.514293 23.042991 
L 219.661419 23.042991 
L 219.661419 20.989097 
L 220.808545 20.989097 
L 220.808545 38.167119 
L 221.955671 38.167119 
L 221.955671 36.860096 
L 223.102798 36.860096 
L 223.102798 25.47032 
L 224.249924 25.47032 
L 224.249924 25.283603 
L 225.39705 25.283603 
L 225.39705 29.017955 
L 226.544176 29.017955 
L 226.544176 33.872614 
L 227.691302 33.872614 
L 227.691302 37.606966 
L 228.838428 37.606966 
L 228.838428 27.150779 
L 229.985555 27.150779 
L 229.985555 27.89765 
L 231.132681 27.89765 
L 231.132681 24.350015 
L 232.279807 24.350015 
L 232.279807 22.856274 
L 233.426933 22.856274 
L 233.426933 28.457802 
L 234.574059 28.457802 
L 234.574059 39.100708 
L 235.721185 39.100708 
L 235.721185 27.150779 
L 236.868312 27.150779 
L 236.868312 32.378873 
L 238.015438 32.378873 
L 238.015438 27.150779 
L 239.162564 27.150779 
L 239.162564 28.457802 
L 240.30969 28.457802 
L 240.30969 32.005438 
L 241.456816 32.005438 
L 241.456816 42.83506 
L 242.603943 42.83506 
L 242.603943 31.632002 
L 243.751069 31.632002 
L 243.751069 24.910167 
L 244.898195 24.910167 
L 244.898195 37.980402 
L 246.045321 37.980402 
L 246.045321 29.578108 
L 247.192447 29.578108 
L 247.192447 26.403909 
L 248.339573 26.403909 
L 248.339573 30.698414 
L 249.486699 30.698414 
L 249.486699 18.561768 
L 250.633826 18.561768 
L 250.633826 22.856274 
L 251.780952 22.856274 
L 251.780952 33.685896 
L 252.928078 33.685896 
L 252.928078 25.096885 
L 254.075204 25.096885 
L 254.075204 32.378873 
L 255.22233 32.378873 
L 255.22233 31.258567 
L 256.369456 31.258567 
L 256.369456 34.619484 
L 257.516583 34.619484 
L 257.516583 26.590626 
L 258.663709 26.590626 
L 258.663709 27.150779 
L 259.810835 27.150779 
L 259.810835 26.030473 
L 260.957961 26.030473 
L 260.957961 26.590626 
L 262.105087 26.590626 
L 262.105087 25.47032 
L 263.252213 25.47032 
L 263.252213 34.059331 
L 264.39934 34.059331 
L 264.39934 22.109403 
L 265.546466 22.109403 
L 265.546466 29.391391 
L 266.693592 29.391391 
L 266.693592 37.606966 
L 267.840718 37.606966 
L 267.840718 33.685896 
L 268.987844 33.685896 
L 268.987844 35.73979 
L 270.13497 35.73979 
L 270.13497 45.635825 
L 271.282097 45.635825 
L 271.282097 57.585753 
L 272.429223 57.585753 
L 272.429223 67.108352 
L 274.723475 67.108352 
L 274.723475 86.713704 
L 275.870601 86.713704 
L 275.870601 90.261339 
L 277.017727 90.261339 
L 277.017727 93.062103 
L 278.164854 93.062103 
L 278.164854 103.891726 
L 279.31198 103.891726 
L 279.31198 114.721349 
L 280.459106 114.721349 
L 280.459106 126.111124 
L 281.606232 126.111124 
L 281.606232 131.152501 
L 282.753358 131.152501 
L 282.753358 137.127465 
L 283.900484 137.127465 
L 283.900484 137.314182 
L 285.047611 137.314182 
L 285.047611 145.716476 
L 286.194737 145.716476 
L 286.194737 151.69144 
L 287.341863 151.69144 
L 287.341863 158.78671 
L 288.488989 158.78671 
L 288.488989 159.160145 
L 289.636115 159.160145 
L 289.636115 164.201522 
L 290.783241 164.201522 
L 290.783241 168.122592 
L 291.930368 168.122592 
L 291.930368 169.803051 
L 293.077494 169.803051 
L 293.077494 180.259238 
L 294.22462 180.259238 
L 294.22462 179.699085 
L 295.371746 179.699085 
L 295.371746 182.313132 
L 296.518872 182.313132 
L 296.518872 183.24672 
L 297.665999 183.24672 
L 297.665999 191.088861 
L 298.813125 191.088861 
L 298.813125 197.063825 
L 299.960251 197.063825 
L 299.960251 196.130237 
L 301.107377 196.130237 
L 301.107377 197.810695 
L 302.254503 197.810695 
L 302.254503 201.918483 
L 303.401629 201.918483 
L 303.401629 206.773142 
L 304.548755 206.773142 
L 304.548755 203.598942 
L 305.695882 203.598942 
L 305.695882 213.308259 
L 306.843008 213.308259 
L 306.843008 212.934824 
L 307.990134 212.934824 
L 307.990134 215.175435 
L 309.13726 215.175435 
L 309.13726 213.308259 
L 310.284386 213.308259 
L 310.284386 219.843376 
L 313.725765 219.843376 
L 313.725765 218.72307 
L 314.872891 218.72307 
L 314.872891 222.644141 
L 316.020017 222.644141 
L 316.020017 220.776964 
L 317.167143 220.776964 
L 317.167143 226.005058 
L 318.314269 226.005058 
L 318.314269 223.391011 
L 319.461396 223.391011 
L 319.461396 230.299564 
L 320.608522 230.299564 
L 320.608522 231.419869 
L 321.755648 231.419869 
L 321.755648 231.793305 
L 322.902774 231.793305 
L 322.902774 230.859716 
L 324.0499 230.859716 
L 324.0499 231.606587 
L 325.197026 231.606587 
L 325.197026 233.473763 
L 326.344153 233.473763 
L 326.344153 231.233152 
L 327.491279 231.233152 
L 327.491279 234.594069 
L 328.638405 234.594069 
L 328.638405 232.91361 
L 329.785531 232.91361 
L 329.785531 233.847199 
L 332.079783 233.847199 
L 332.079783 236.647963 
L 333.22691 236.647963 
L 333.22691 236.834681 
L 334.374036 236.834681 
L 334.374036 236.274528 
L 335.521162 236.274528 
L 335.521162 237.208116 
L 336.668288 237.208116 
L 336.668288 239.075292 
L 337.815414 239.075292 
L 337.815414 239.635445 
L 338.96254 239.635445 
L 338.96254 236.274528 
L 340.109667 236.274528 
L 340.109667 236.461245 
L 341.256793 236.461245 
L 341.256793 237.768269 
L 342.403919 237.768269 
L 342.403919 238.515139 
L 343.551045 238.515139 
L 343.551045 238.701857 
L 344.698171 238.701857 
L 344.698171 239.26201 
L 345.845297 239.26201 
L 345.845297 238.888575 
L 346.992424 238.888575 
L 346.992424 239.26201 
L 348.13955 239.26201 
L 348.13955 241.502621 
L 349.286676 241.502621 
L 349.286676 240.00888 
L 351.580928 240.00888 
L 351.580928 240.195598 
L 352.728054 240.195598 
L 352.728054 242.249492 
L 353.875181 242.249492 
L 353.875181 241.689339 
L 355.022307 241.689339 
L 355.022307 242.062774 
L 356.169433 242.062774 
L 356.169433 241.876057 
L 357.316559 241.876057 
L 357.316559 243.556515 
L 358.463685 243.556515 
L 358.463685 241.689339 
L 359.610811 241.689339 
L 359.610811 243.556515 
L 360.757938 243.556515 
L 360.757938 243.18308 
L 361.905064 243.18308 
L 361.905064 242.622927 
L 363.05219 242.622927 
L 363.05219 243.929951 
L 364.199316 243.929951 
L 364.199316 241.502621 
L 365.346442 241.502621 
L 365.346442 242.062774 
L 366.493568 242.062774 
L 366.493568 243.556515 
L 367.640695 243.556515 
L 367.640695 244.116668 
L 369.934947 244.116668 
L 369.934947 243.556515 
L 371.082073 243.556515 
L 371.082073 244.303386 
L 373.376325 244.303386 
L 373.376325 243.556515 
L 374.523452 243.556515 
L 374.523452 243.743233 
L 375.670578 243.743233 
L 375.670578 245.236974 
L 376.817704 245.236974 
L 376.817704 244.303386 
L 377.96483 244.303386 
L 377.96483 244.676821 
L 380.259082 244.676821 
L 380.259082 245.050257 
L 381.406209 245.050257 
L 381.406209 244.490104 
L 382.553335 244.490104 
L 382.553335 244.116668 
L 383.700461 244.116668 
L 383.700461 244.490104 
L 384.847587 244.490104 
L 384.847587 244.863539 
L 385.994713 244.863539 
L 385.994713 244.676821 
L 388.288966 244.676821 
L 388.288966 245.423692 
L 389.436092 245.423692 
L 389.436092 244.490104 
L 390.583218 244.490104 
L 390.583218 244.863539 
L 391.730344 244.863539 
L 391.730344 244.303386 
L 392.87747 244.303386 
L 392.87747 245.610409 
L 394.024596 245.610409 
L 394.024596 245.236974 
L 395.171723 245.236974 
L 395.171723 245.050257 
L 396.318849 245.050257 
L 396.318849 245.236974 
L 397.465975 245.236974 
L 397.465975 244.863539 
L 398.613101 244.863539 
L 398.613101 245.610409 
L 399.760227 245.610409 
L 399.760227 245.050257 
L 400.907353 245.050257 
L 400.907353 245.610409 
L 402.05448 245.610409 
L 402.05448 244.863539 
L 403.201606 244.863539 
L 403.201606 245.610409 
L 405.495858 245.610409 
L 405.495858 245.236974 
L 406.642984 245.236974 
L 406.642984 244.863539 
L 407.79011 244.863539 
L 407.79011 245.236974 
L 410.084363 245.236974 
L 410.084363 245.610409 
L 411.231489 245.610409 
L 411.231489 245.797127 
L 412.378615 245.797127 
L 412.378615 245.423692 
L 414.672867 245.423692 
L 414.672867 245.423692 
" clip-path="url(#p53d0f290dc)" style="fill: none; stroke: #1f77b4; stroke-width: 1.5; stroke-linecap: square"/>
   </g>
  </g>
  <g id="axes_2">
   <g id="patch_7">
    <path d="M 486.647885 257.158895 
L 865.19952 257.158895 
L 865.19952 7.2 
L 486.647885 7.2 
z
" style="fill: #ffffff"/>
   </g>
   <g id="matplotlib.axis_3">
    <g id="xtick_7">
     <g id="line2d_15">
      <g>
       <use xlink:href="#mc26a8fd6ce" x="500.385812" y="257.158895" style="stroke: #000000; stroke-width: 0.8"/>
      </g>
     </g>
     <g id="text_16">
      <!-- 0.0 -->
      <g transform="translate(492.43425 271.757332) scale(0.1 -0.1)">
       <defs>
        <path id="DejaVuSans-2e" d="M 684 794 
L 1344 794 
L 1344 0 
L 684 0 
L 684 794 
z
" transform="scale(0.015625)"/>
       </defs>
       <use xlink:href="#DejaVuSans-30"/>
       <use xlink:href="#DejaVuSans-2e" x="63.623047"/>
       <use xlink:href="#DejaVuSans-30" x="95.410156"/>
      </g>
     </g>
    </g>
    <g id="xtick_8">
     <g id="line2d_16">
      <g>
       <use xlink:href="#mc26a8fd6ce" x="544.068282" y="257.158895" style="stroke: #000000; stroke-width: 0.8"/>
      </g>
     </g>
     <g id="text_17">
      <!-- 2.5 -->
      <g transform="translate(536.11672 271.757332) scale(0.1 -0.1)">
       <use xlink:href="#DejaVuSans-32"/>
       <use xlink:href="#DejaVuSans-2e" x="63.623047"/>
       <use xlink:href="#DejaVuSans-35" x="95.410156"/>
      </g>
     </g>
    </g>
    <g id="xtick_9">
     <g id="line2d_17">
      <g>
       <use xlink:href="#mc26a8fd6ce" x="587.750752" y="257.158895" style="stroke: #000000; stroke-width: 0.8"/>
      </g>
     </g>
     <g id="text_18">
      <!-- 5.0 -->
      <g transform="translate(579.79919 271.757332) scale(0.1 -0.1)">
       <use xlink:href="#DejaVuSans-35"/>
       <use xlink:href="#DejaVuSans-2e" x="63.623047"/>
       <use xlink:href="#DejaVuSans-30" x="95.410156"/>
      </g>
     </g>
    </g>
    <g id="xtick_10">
     <g id="line2d_18">
      <g>
       <use xlink:href="#mc26a8fd6ce" x="631.433222" y="257.158895" style="stroke: #000000; stroke-width: 0.8"/>
      </g>
     </g>
     <g id="text_19">
      <!-- 7.5 -->
      <g transform="translate(623.48166 271.757332) scale(0.1 -0.1)">
       <defs>
        <path id="DejaVuSans-37" d="M 525 4666 
L 3525 4666 
L 3525 4397 
L 1831 0 
L 1172 0 
L 2766 4134 
L 525 4134 
L 525 4666 
z
" transform="scale(0.015625)"/>
       </defs>
       <use xlink:href="#DejaVuSans-37"/>
       <use xlink:href="#DejaVuSans-2e" x="63.623047"/>
       <use xlink:href="#DejaVuSans-35" x="95.410156"/>
      </g>
     </g>
    </g>
    <g id="xtick_11">
     <g id="line2d_19">
      <g>
       <use xlink:href="#mc26a8fd6ce" x="675.115692" y="257.158895" style="stroke: #000000; stroke-width: 0.8"/>
      </g>
     </g>
     <g id="text_20">
      <!-- 10.0 -->
      <g transform="translate(663.98288 271.757332) scale(0.1 -0.1)">
       <use xlink:href="#DejaVuSans-31"/>
       <use xlink:href="#DejaVuSans-30" x="63.623047"/>
       <use xlink:href="#DejaVuSans-2e" x="127.246094"/>
       <use xlink:href="#DejaVuSans-30" x="159.033203"/>
      </g>
     </g>
    </g>
    <g id="xtick_12">
     <g id="line2d_20">
      <g>
       <use xlink:href="#mc26a8fd6ce" x="718.798162" y="257.158895" style="stroke: #000000; stroke-width: 0.8"/>
      </g>
     </g>
     <g id="text_21">
      <!-- 12.5 -->
      <g transform="translate(707.66535 271.757332) scale(0.1 -0.1)">
       <use xlink:href="#DejaVuSans-31"/>
       <use xlink:href="#DejaVuSans-32" x="63.623047"/>
       <use xlink:href="#DejaVuSans-2e" x="127.246094"/>
       <use xlink:href="#DejaVuSans-35" x="159.033203"/>
      </g>
     </g>
    </g>
    <g id="xtick_13">
     <g id="line2d_21">
      <g>
       <use xlink:href="#mc26a8fd6ce" x="762.480632" y="257.158895" style="stroke: #000000; stroke-width: 0.8"/>
      </g>
     </g>
     <g id="text_22">
      <!-- 15.0 -->
      <g transform="translate(751.34782 271.757332) scale(0.1 -0.1)">
       <use xlink:href="#DejaVuSans-31"/>
       <use xlink:href="#DejaVuSans-35" x="63.623047"/>
       <use xlink:href="#DejaVuSans-2e" x="127.246094"/>
       <use xlink:href="#DejaVuSans-30" x="159.033203"/>
      </g>
     </g>
    </g>
    <g id="xtick_14">
     <g id="line2d_22">
      <g>
       <use xlink:href="#mc26a8fd6ce" x="806.163102" y="257.158895" style="stroke: #000000; stroke-width: 0.8"/>
      </g>
     </g>
     <g id="text_23">
      <!-- 17.5 -->
      <g transform="translate(795.03029 271.757332) scale(0.1 -0.1)">
       <use xlink:href="#DejaVuSans-31"/>
       <use xlink:href="#DejaVuSans-37" x="63.623047"/>
       <use xlink:href="#DejaVuSans-2e" x="127.246094"/>
       <use xlink:href="#DejaVuSans-35" x="159.033203"/>
      </g>
     </g>
    </g>
    <g id="xtick_15">
     <g id="line2d_23">
      <g>
       <use xlink:href="#mc26a8fd6ce" x="849.845572" y="257.158895" style="stroke: #000000; stroke-width: 0.8"/>
      </g>
     </g>
     <g id="text_24">
      <!-- 20.0 -->
      <g transform="translate(838.71276 271.757332) scale(0.1 -0.1)">
       <use xlink:href="#DejaVuSans-32"/>
       <use xlink:href="#DejaVuSans-30" x="63.623047"/>
       <use xlink:href="#DejaVuSans-2e" x="127.246094"/>
       <use xlink:href="#DejaVuSans-30" x="159.033203"/>
      </g>
     </g>
    </g>
    <g id="text_25">
     <!-- wavelength [Å] -->
     <g transform="translate(637.886202 287.119832) scale(0.1 -0.1)">
      <defs>
       <path id="DejaVuSans-77" d="M 269 3500 
L 844 3500 
L 1563 769 
L 2278 3500 
L 2956 3500 
L 3675 769 
L 4391 3500 
L 4966 3500 
L 4050 0 
L 3372 0 
L 2619 2869 
L 1863 0 
L 1184 0 
L 269 3500 
z
" transform="scale(0.015625)"/>
       <path id="DejaVuSans-61" d="M 2194 1759 
Q 1497 1759 1228 1600 
Q 959 1441 959 1056 
Q 959 750 1161 570 
Q 1363 391 1709 391 
Q 2188 391 2477 730 
Q 2766 1069 2766 1631 
L 2766 1759 
L 2194 1759 
z
M 3341 1997 
L 3341 0 
L 2766 0 
L 2766 531 
Q 2569 213 2275 61 
Q 1981 -91 1556 -91 
Q 1019 -91 701 211 
Q 384 513 384 1019 
Q 384 1609 779 1909 
Q 1175 2209 1959 2209 
L 2766 2209 
L 2766 2266 
Q 2766 2663 2505 2880 
Q 2244 3097 1772 3097 
Q 1472 3097 1187 3025 
Q 903 2953 641 2809 
L 641 3341 
Q 956 3463 1253 3523 
Q 1550 3584 1831 3584 
Q 2591 3584 2966 3190 
Q 3341 2797 3341 1997 
z
" transform="scale(0.015625)"/>
       <path id="DejaVuSans-76" d="M 191 3500 
L 800 3500 
L 1894 563 
L 2988 3500 
L 3597 3500 
L 2284 0 
L 1503 0 
L 191 3500 
z
" transform="scale(0.015625)"/>
       <path id="DejaVuSans-6c" d="M 603 4863 
L 1178 4863 
L 1178 0 
L 603 0 
L 603 4863 
z
" transform="scale(0.015625)"/>
       <path id="DejaVuSans-67" d="M 2906 1791 
Q 2906 2416 2648 2759 
Q 2391 3103 1925 3103 
Q 1463 3103 1205 2759 
Q 947 2416 947 1791 
Q 947 1169 1205 825 
Q 1463 481 1925 481 
Q 2391 481 2648 825 
Q 2906 1169 2906 1791 
z
M 3481 434 
Q 3481 -459 3084 -895 
Q 2688 -1331 1869 -1331 
Q 1566 -1331 1297 -1286 
Q 1028 -1241 775 -1147 
L 775 -588 
Q 1028 -725 1275 -790 
Q 1522 -856 1778 -856 
Q 2344 -856 2625 -561 
Q 2906 -266 2906 331 
L 2906 616 
Q 2728 306 2450 153 
Q 2172 0 1784 0 
Q 1141 0 747 490 
Q 353 981 353 1791 
Q 353 2603 747 3093 
Q 1141 3584 1784 3584 
Q 2172 3584 2450 3431 
Q 2728 3278 2906 2969 
L 2906 3500 
L 3481 3500 
L 3481 434 
z
" transform="scale(0.015625)"/>
       <path id="DejaVuSans-68" d="M 3513 2113 
L 3513 0 
L 2938 0 
L 2938 2094 
Q 2938 2591 2744 2837 
Q 2550 3084 2163 3084 
Q 1697 3084 1428 2787 
Q 1159 2491 1159 1978 
L 1159 0 
L 581 0 
L 581 4863 
L 1159 4863 
L 1159 2956 
Q 1366 3272 1645 3428 
Q 1925 3584 2291 3584 
Q 2894 3584 3203 3211 
Q 3513 2838 3513 2113 
z
" transform="scale(0.015625)"/>
       <path id="DejaVuSans-c5" d="M 2663 5081 
Q 2663 5278 2523 5417 
Q 2384 5556 2188 5556 
Q 1988 5556 1852 5420 
Q 1716 5284 1716 5081 
Q 1716 4884 1853 4746 
Q 1991 4609 2188 4609 
Q 2384 4609 2523 4746 
Q 2663 4884 2663 5081 
z
M 2188 4044 
L 1338 1722 
L 3041 1722 
L 2188 4044 
z
M 1716 4366 
Q 1525 4494 1428 4673 
Q 1331 4853 1331 5081 
Q 1331 5441 1579 5691 
Q 1828 5941 2188 5941 
Q 2544 5941 2795 5689 
Q 3047 5438 3047 5081 
Q 3047 4863 2948 4678 
Q 2850 4494 2663 4366 
L 4325 0 
L 3669 0 
L 3244 1197 
L 1141 1197 
L 716 0 
L 50 0 
L 1716 4366 
z
" transform="scale(0.015625)"/>
      </defs>
      <use xlink:href="#DejaVuSans-77"/>
      <use xlink:href="#DejaVuSans-61" x="81.787109"/>
      <use xlink:href="#DejaVuSans-76" x="143.066406"/>
      <use xlink:href="#DejaVuSans-65" x="202.246094"/>
      <use xlink:href="#DejaVuSans-6c" x="263.769531"/>
      <use xlink:href="#DejaVuSans-65" x="291.552734"/>
      <use xlink:href="#DejaVuSans-6e" x="353.076172"/>
      <use xlink:href="#DejaVuSans-67" x="416.455078"/>
      <use xlink:href="#DejaVuSans-74" x="479.931641"/>
      <use xlink:href="#DejaVuSans-68" x="519.140625"/>
      <use xlink:href="#DejaVuSans-20" x="582.519531"/>
      <use xlink:href="#DejaVuSans-5b" x="614.306641"/>
      <use xlink:href="#DejaVuSans-c5" x="653.320312"/>
      <use xlink:href="#DejaVuSans-5d" x="721.728516"/>
     </g>
    </g>
   </g>
   <g id="matplotlib.axis_4">
    <g id="ytick_8">
     <g id="line2d_24">
      <g>
       <use xlink:href="#me5f000d624" x="486.647885" y="245.797127" style="stroke: #000000; stroke-width: 0.8"/>
      </g>
     </g>
     <g id="text_26">
      <!-- 0 -->
      <g transform="translate(473.285385 249.596346) scale(0.1 -0.1)">
       <use xlink:href="#DejaVuSans-30"/>
      </g>
     </g>
    </g>
    <g id="ytick_9">
     <g id="line2d_25">
      <g>
       <use xlink:href="#me5f000d624" x="486.647885" y="193.98788" style="stroke: #000000; stroke-width: 0.8"/>
      </g>
     </g>
     <g id="text_27">
      <!-- 1000 -->
      <g transform="translate(454.197885 197.787098) scale(0.1 -0.1)">
       <use xlink:href="#DejaVuSans-31"/>
       <use xlink:href="#DejaVuSans-30" x="63.623047"/>
       <use xlink:href="#DejaVuSans-30" x="127.246094"/>
       <use xlink:href="#DejaVuSans-30" x="190.869141"/>
      </g>
     </g>
    </g>
    <g id="ytick_10">
     <g id="line2d_26">
      <g>
       <use xlink:href="#me5f000d624" x="486.647885" y="142.178632" style="stroke: #000000; stroke-width: 0.8"/>
      </g>
     </g>
     <g id="text_28">
      <!-- 2000 -->
      <g transform="translate(454.197885 145.977851) scale(0.1 -0.1)">
       <use xlink:href="#DejaVuSans-32"/>
       <use xlink:href="#DejaVuSans-30" x="63.623047"/>
       <use xlink:href="#DejaVuSans-30" x="127.246094"/>
       <use xlink:href="#DejaVuSans-30" x="190.869141"/>
      </g>
     </g>
    </g>
    <g id="ytick_11">
     <g id="line2d_27">
      <g>
       <use xlink:href="#me5f000d624" x="486.647885" y="90.369385" style="stroke: #000000; stroke-width: 0.8"/>
      </g>
     </g>
     <g id="text_29">
      <!-- 3000 -->
      <g transform="translate(454.197885 94.168604) scale(0.1 -0.1)">
       <use xlink:href="#DejaVuSans-33"/>
       <use xlink:href="#DejaVuSans-30" x="63.623047"/>
       <use xlink:href="#DejaVuSans-30" x="127.246094"/>
       <use xlink:href="#DejaVuSans-30" x="190.869141"/>
      </g>
     </g>
    </g>
    <g id="ytick_12">
     <g id="line2d_28">
      <g>
       <use xlink:href="#me5f000d624" x="486.647885" y="38.560137" style="stroke: #000000; stroke-width: 0.8"/>
      </g>
     </g>
     <g id="text_30">
      <!-- 4000 -->
      <g transform="translate(454.197885 42.359356) scale(0.1 -0.1)">
       <use xlink:href="#DejaVuSans-34"/>
       <use xlink:href="#DejaVuSans-30" x="63.623047"/>
       <use xlink:href="#DejaVuSans-30" x="127.246094"/>
       <use xlink:href="#DejaVuSans-30" x="190.869141"/>
      </g>
     </g>
    </g>
    <g id="text_31">
     <!-- [counts] -->
     <g transform="translate(448.118197 152.791947) rotate(-90) scale(0.1 -0.1)">
      <use xlink:href="#DejaVuSans-5b"/>
      <use xlink:href="#DejaVuSans-63" x="39.013672"/>
      <use xlink:href="#DejaVuSans-6f" x="93.994141"/>
      <use xlink:href="#DejaVuSans-75" x="155.175781"/>
      <use xlink:href="#DejaVuSans-6e" x="218.554688"/>
      <use xlink:href="#DejaVuSans-74" x="281.933594"/>
      <use xlink:href="#DejaVuSans-73" x="321.142578"/>
      <use xlink:href="#DejaVuSans-5d" x="373.242188"/>
     </g>
    </g>
   </g>
   <g id="patch_8">
    <path d="M 486.647885 257.158895 
L 486.647885 7.2 
" style="fill: none; stroke: #000000; stroke-width: 0.8; stroke-linejoin: miter; stroke-linecap: square"/>
   </g>
   <g id="patch_9">
    <path d="M 865.19952 257.158895 
L 865.19952 7.2 
" style="fill: none; stroke: #000000; stroke-width: 0.8; stroke-linejoin: miter; stroke-linecap: square"/>
   </g>
   <g id="patch_10">
    <path d="M 486.647885 257.158895 
L 865.19952 257.158895 
" style="fill: none; stroke: #000000; stroke-width: 0.8; stroke-linejoin: miter; stroke-linecap: square"/>
   </g>
   <g id="patch_11">
    <path d="M 486.647885 7.2 
L 865.19952 7.2 
" style="fill: none; stroke: #000000; stroke-width: 0.8; stroke-linejoin: miter; stroke-linecap: square"/>
   </g>
   <g id="line2d_29">
    <path d="M 503.854777 157.825025 
L 505.001904 157.825025 
L 505.001904 147.048702 
L 506.14903 147.048702 
L 506.14903 140.468927 
L 507.296156 140.468927 
L 507.296156 139.536361 
L 508.443282 139.536361 
L 508.443282 145.701661 
L 509.590408 145.701661 
L 509.590408 152.177817 
L 511.884661 152.281435 
L 511.884661 126.065956 
L 513.031787 126.065956 
L 513.031787 108.865286 
L 514.178913 108.865286 
L 514.178913 88.556061 
L 515.326039 88.556061 
L 515.326039 58.817553 
L 516.473165 58.817553 
L 516.473165 38.508328 
L 517.620291 38.508328 
L 517.620291 22.188415 
L 518.767418 22.188415 
L 518.767418 18.561768 
L 519.914544 18.561768 
L 519.914544 28.094669 
L 521.06167 28.094669 
L 521.06167 27.421149 
L 522.208796 27.421149 
L 522.208796 35.762438 
L 523.355922 35.762438 
L 523.355922 46.694189 
L 524.503048 46.694189 
L 524.503048 55.087287 
L 525.650175 55.087287 
L 525.650175 67.676934 
L 526.797301 67.676934 
L 526.797301 72.961478 
L 527.944427 72.961478 
L 527.944427 75.759177 
L 529.091553 75.759177 
L 529.091553 85.91379 
L 530.238679 85.91379 
L 530.238679 93.47794 
L 531.385805 93.47794 
L 531.385805 98.814292 
L 532.532932 98.814292 
L 532.532932 97.622679 
L 533.680058 97.622679 
L 533.680058 102.181893 
L 534.827184 102.181893 
L 534.827184 93.374321 
L 535.97431 93.374321 
L 535.97431 91.768235 
L 537.121436 91.768235 
L 537.121436 90.110339 
L 538.268562 90.110339 
L 538.268562 84.255894 
L 539.415689 84.255894 
L 539.415689 73.686807 
L 540.562815 73.686807 
L 540.562815 67.210651 
L 541.709941 67.210651 
L 541.709941 50.942548 
L 542.857067 50.942548 
L 542.857067 50.06179 
L 544.004193 50.06179 
L 544.004193 37.575762 
L 545.151319 37.575762 
L 545.151319 33.53464 
L 546.298446 33.53464 
L 546.298446 48.144848 
L 547.445572 48.144848 
L 547.445572 55.864426 
L 548.592698 55.864426 
L 548.592698 67.003414 
L 549.739824 67.003414 
L 549.739824 72.598813 
L 550.88695 72.598813 
L 550.88695 79.852108 
L 552.034076 79.852108 
L 552.034076 95.394882 
L 553.181203 95.394882 
L 553.181203 98.866101 
L 554.328329 98.866101 
L 554.328329 104.772356 
L 555.475455 104.772356 
L 555.475455 113.165454 
L 556.622581 113.165454 
L 556.622581 121.610361 
L 557.769707 121.610361 
L 557.769707 125.185199 
L 558.916833 125.185199 
L 558.916833 137.671228 
L 561.211086 137.671228 
L 561.211086 140.054453 
L 562.358212 140.054453 
L 562.358212 146.219754 
L 563.505338 146.219754 
L 563.505338 151.452488 
L 564.652464 151.452488 
L 564.652464 156.840649 
L 565.79959 156.840649 
L 565.79959 163.834898 
L 566.946717 163.834898 
L 566.946717 168.445921 
L 568.093843 168.445921 
L 568.093843 170.932765 
L 569.240969 170.932765 
L 569.240969 175.336551 
L 570.388095 175.336551 
L 570.388095 173.31599 
L 571.535221 173.31599 
L 571.535221 180.413857 
L 572.682347 180.413857 
L 572.682347 182.589845 
L 573.829474 182.589845 
L 573.829474 189.11781 
L 576.123726 189.221429 
L 576.123726 193.832452 
L 577.270852 193.832452 
L 577.270852 192.58903 
L 578.417978 192.58903 
L 578.417978 195.542157 
L 579.565104 195.542157 
L 579.565104 200.464036 
L 581.859357 200.360417 
L 581.859357 202.536405 
L 583.006483 202.536405 
L 583.006483 205.178677 
L 584.153609 205.178677 
L 584.153609 206.577527 
L 585.300735 206.577527 
L 585.300735 208.028186 
L 586.447861 208.028186 
L 586.447861 212.380162 
L 587.594988 212.380162 
L 587.594988 210.774076 
L 588.742114 210.774076 
L 588.742114 212.950064 
L 591.036366 213.001873 
L 591.036366 215.592336 
L 592.183492 215.592336 
L 592.183492 218.545463 
L 593.330618 218.545463 
L 593.330618 219.011746 
L 595.624871 218.959937 
L 595.624871 222.17211 
L 596.771997 222.17211 
L 596.771997 221.809445 
L 597.919123 221.809445 
L 597.919123 223.260104 
L 599.066249 223.260104 
L 599.066249 223.415532 
L 600.213375 223.415532 
L 600.213375 226.057804 
L 601.360502 226.057804 
L 601.360502 227.197607 
L 602.507628 227.197607 
L 602.507628 225.954185 
L 603.654754 225.954185 
L 603.654754 227.456653 
L 604.80188 227.456653 
L 604.80188 228.751885 
L 605.949006 228.751885 
L 605.949006 230.565208 
L 607.096132 230.565208 
L 607.096132 229.166359 
L 608.243259 229.166359 
L 608.243259 230.513399 
L 609.390385 230.513399 
L 609.390385 229.73626 
L 610.537511 229.73626 
L 610.537511 229.477214 
L 611.684637 229.477214 
L 611.684637 230.047116 
L 612.831763 230.047116 
L 612.831763 233.155671 
L 615.126016 233.20748 
L 615.126016 232.844815 
L 616.273142 232.844815 
L 616.273142 232.015867 
L 617.420268 232.015867 
L 617.420268 234.243665 
L 618.567394 234.243665 
L 618.567394 233.881 
L 619.71452 233.881 
L 619.71452 235.746133 
L 620.861647 235.746133 
L 620.861647 234.191856 
L 622.008773 234.191856 
L 622.008773 235.487087 
L 623.155899 235.487087 
L 623.155899 236.730509 
L 624.303025 236.730509 
L 624.303025 237.714884 
L 625.450151 237.714884 
L 625.450151 236.62689 
L 626.597277 236.62689 
L 626.597277 236.885936 
L 627.744403 236.885936 
L 627.744403 238.129358 
L 628.89153 238.129358 
L 628.89153 236.937746 
L 630.038656 236.937746 
L 630.038656 237.766694 
L 631.185782 237.766694 
L 631.185782 238.232977 
L 632.332908 238.232977 
L 632.332908 238.543832 
L 634.62716 238.492023 
L 634.62716 239.165543 
L 635.774287 239.165543 
L 635.774287 238.543832 
L 636.921413 238.543832 
L 636.921413 238.802879 
L 638.068539 238.802879 
L 638.068539 239.787254 
L 639.215665 239.787254 
L 639.215665 239.476399 
L 640.362791 239.476399 
L 640.362791 240.305347 
L 641.509917 240.305347 
L 641.509917 239.942682 
L 642.657044 239.942682 
L 642.657044 240.668012 
L 643.80417 240.668012 
L 643.80417 239.942682 
L 644.951296 239.942682 
L 644.951296 240.201728 
L 647.245548 240.149919 
L 647.245548 240.978867 
L 649.539801 240.875249 
L 649.539801 241.134295 
L 650.686927 241.134295 
L 650.686927 241.963243 
L 651.834053 241.963243 
L 651.834053 241.49696 
L 655.275431 241.600578 
L 655.275431 241.859624 
L 657.569684 241.807815 
L 657.569684 242.999428 
L 658.71681 242.999428 
L 658.71681 242.274098 
L 661.011062 242.17048 
L 661.011062 242.844 
L 662.158188 242.844 
L 662.158188 242.688572 
L 663.305315 242.688572 
L 663.305315 242.844 
L 664.452441 242.844 
L 664.452441 242.377717 
L 665.599567 242.377717 
L 665.599567 242.947618 
L 670.188072 242.895809 
L 670.188072 243.724757 
L 671.335198 243.724757 
L 671.335198 242.895809 
L 672.482324 242.895809 
L 672.482324 243.258474 
L 674.776576 243.258474 
L 674.776576 243.465711 
L 675.923702 243.465711 
L 675.923702 243.310283 
L 677.070829 243.310283 
L 677.070829 242.895809 
L 678.217955 242.895809 
L 678.217955 243.465711 
L 679.365081 243.465711 
L 679.365081 244.24285 
L 680.512207 244.24285 
L 680.512207 243.672948 
L 681.659333 243.672948 
L 681.659333 243.828376 
L 683.953586 243.724757 
L 683.953586 243.621139 
L 686.247838 243.724757 
L 686.247838 244.139231 
L 687.394964 244.139231 
L 687.394964 243.724757 
L 688.54209 243.724757 
L 688.54209 243.931994 
L 689.689216 243.931994 
L 689.689216 243.413902 
L 690.836343 243.413902 
L 690.836343 244.087422 
L 696.571974 244.139231 
L 696.571974 244.398277 
L 700.013352 244.450087 
L 700.013352 244.19104 
L 703.45473 244.19104 
L 703.45473 244.346468 
L 704.601857 244.346468 
L 704.601857 243.983803 
L 705.748983 243.983803 
L 705.748983 244.553705 
L 708.043235 244.605514 
L 708.043235 244.812751 
L 709.190361 244.812751 
L 709.190361 243.931994 
L 710.337487 243.931994 
L 710.337487 244.501896 
L 711.484614 244.501896 
L 711.484614 245.123607 
L 712.63174 245.123607 
L 712.63174 244.501896 
L 713.778866 244.501896 
L 713.778866 244.864561 
L 717.220245 244.760942 
L 717.220245 244.450087 
L 718.367371 244.450087 
L 718.367371 244.709133 
L 720.661623 244.760942 
L 720.661623 244.501896 
L 721.808749 244.501896 
L 721.808749 245.071798 
L 722.955875 245.071798 
L 722.955875 244.657324 
L 724.103002 244.657324 
L 724.103002 245.330844 
L 725.250128 245.330844 
L 725.250128 244.864561 
L 726.397254 244.864561 
L 726.397254 245.175416 
L 728.691506 245.123607 
L 728.691506 245.019988 
L 729.838632 245.019988 
L 729.838632 245.175416 
L 730.985758 245.175416 
L 730.985758 244.657324 
L 732.132885 244.657324 
L 732.132885 245.123607 
L 733.280011 245.123607 
L 733.280011 244.812751 
L 735.574263 244.812751 
L 735.574263 245.227225 
L 740.162768 245.279035 
L 740.162768 245.071798 
L 741.309894 245.071798 
L 741.309894 245.382653 
L 742.45702 245.382653 
L 742.45702 245.071798 
L 744.751272 245.019988 
L 744.751272 245.279035 
L 748.192651 245.175416 
L 748.192651 245.123607 
L 749.339777 245.123607 
L 749.339777 245.279035 
L 752.781156 245.330844 
L 752.781156 245.123607 
L 753.928282 245.123607 
L 753.928282 245.279035 
L 755.075408 245.279035 
L 755.075408 245.434462 
L 757.36966 245.330844 
L 757.36966 245.227225 
L 761.958165 245.279035 
L 761.958165 245.693509 
L 764.252417 245.58989 
L 764.252417 245.434462 
L 765.399543 245.434462 
L 765.399543 245.279035 
L 772.282301 245.175416 
L 772.282301 245.58989 
L 773.429427 245.58989 
L 773.429427 245.382653 
L 775.723679 245.330844 
L 775.723679 245.227225 
L 776.870805 245.227225 
L 776.870805 245.382653 
L 778.017931 245.382653 
L 778.017931 245.58989 
L 782.606436 245.486272 
L 782.606436 245.279035 
L 783.753562 245.279035 
L 783.753562 245.538081 
L 784.900688 245.538081 
L 784.900688 245.693509 
L 787.194941 245.693509 
L 787.194941 245.538081 
L 790.636319 245.486272 
L 790.636319 245.693509 
L 791.783445 245.693509 
L 791.783445 245.382653 
L 794.077698 245.486272 
L 794.077698 245.693509 
L 798.666202 245.641699 
L 798.666202 245.486272 
L 802.107581 245.538081 
L 802.107581 245.641699 
L 818.167347 245.693509 
L 818.167347 245.486272 
L 819.314473 245.486272 
L 819.314473 245.797127 
L 821.608726 245.693509 
L 821.608726 245.58989 
L 829.638609 245.641699 
L 829.638609 245.797127 
L 830.785735 245.797127 
L 830.785735 245.641699 
L 839.962744 245.745318 
L 839.962744 245.797127 
L 841.10987 245.797127 
L 841.10987 245.641699 
L 842.256997 245.641699 
L 842.256997 245.797127 
L 843.404123 245.797127 
L 843.404123 245.641699 
L 847.992628 245.641699 
L 847.992628 245.641699 
" clip-path="url(#pae61617f1f)" style="fill: none; stroke: #1f77b4; stroke-width: 1.5; stroke-linecap: square"/>
   </g>
  </g>
 </g>
 <defs>
  <clipPath id="p53d0f290dc">
   <rect x="53.328125" y="7.2" width="378.551635" height="249.958895"/>
  </clipPath>
  <clipPath id="pae61617f1f">
   <rect x="486.647885" y="7.2" width="378.551635" height="249.958895"/>
  </clipPath>
 </defs>
</svg>
