<?xml version="1.0" encoding="UTF-8" standalone="no"?>
<!DOCTYPE svg PUBLIC "-//W3C//DTD SVG 1.1//EN"
 "http://www.w3.org/Graphics/SVG/1.1/DTD/svg11.dtd">
<!-- Generated by graphviz version 14.0.4 (20251117.0720)
 -->
<!-- Pages: 1 -->
<svg width="718pt" height="523pt"
 viewBox="0.00 0.00 718.00 523.00" xmlns="http://www.w3.org/2000/svg" xmlns:xlink="http://www.w3.org/1999/xlink">
<g id="graph0" class="graph" transform="scale(1 1) rotate(0) translate(4 519.25)">
<polygon fill="white" stroke="none" points="-4,4 -4,-519.25 713.62,-519.25 713.62,4 -4,4"/>
<!-- source_position -->
<g id="node1" class="node">
<title>source_position</title>
<polygon fill="none" stroke="black" points="161.5,-515.25 34.5,-515.25 34.5,-490 161.5,-490 161.5,-515.25"/>
<text xml:space="preserve" text-anchor="middle" x="98" y="-497.95" font-family="Times,serif" font-size="14.00">source_position</text>
</g>
<!-- incident_beam -->
<g id="node2" class="node">
<title>incident_beam</title>
<polygon fill="none" stroke="black" points="197.75,-454 78.25,-454 78.25,-428.75 197.75,-428.75 197.75,-454"/>
<text xml:space="preserve" text-anchor="middle" x="138" y="-436.7" font-family="Times,serif" font-size="14.00">incident_beam</text>
</g>
<!-- source_position&#45;&gt;incident_beam -->
<g id="edge1" class="edge">
<title>source_position&#45;&gt;incident_beam</title>
<path fill="none" stroke="black" d="M106.09,-489.63C111.08,-482.25 117.62,-472.56 123.48,-463.88"/>
<polygon fill="black" stroke="black" points="126.38,-465.85 129.07,-455.6 120.57,-461.93 126.38,-465.85"/>
</g>
<!-- L1 -->
<g id="node6" class="node">
<title>L1</title>
<polygon fill="none" stroke="black" points="220,-392.75 166,-392.75 166,-367.5 220,-367.5 220,-392.75"/>
<text xml:space="preserve" text-anchor="middle" x="193" y="-375.45" font-family="Times,serif" font-size="14.00">L1</text>
</g>
<!-- incident_beam&#45;&gt;L1 -->
<g id="edge5" class="edge">
<title>incident_beam&#45;&gt;L1</title>
<path fill="none" stroke="black" d="M149.13,-428.38C156.29,-420.68 165.77,-410.46 174.09,-401.5"/>
<polygon fill="black" stroke="black" points="176.62,-403.92 180.86,-394.21 171.49,-399.15 176.62,-403.92"/>
</g>
<!-- two_theta -->
<g id="node8" class="node">
<title>two_theta</title>
<polygon fill="none" stroke="black" points="193.25,-331.5 106.75,-331.5 106.75,-306.25 193.25,-306.25 193.25,-331.5"/>
<text xml:space="preserve" text-anchor="middle" x="150" y="-314.2" font-family="Times,serif" font-size="14.00">two_theta</text>
</g>
<!-- incident_beam&#45;&gt;two_theta -->
<g id="edge7" class="edge">
<title>incident_beam&#45;&gt;two_theta</title>
<path fill="none" stroke="black" d="M139.19,-428.38C141.17,-408.53 145.16,-368.52 147.7,-343.02"/>
<polygon fill="black" stroke="black" points="151.15,-343.62 148.66,-333.33 144.19,-342.93 151.15,-343.62"/>
</g>
<!-- Qx -->
<g id="node24" class="node">
<title>Qx</title>
<polygon fill="none" stroke="black" points="128,-209 74,-209 74,-183.75 128,-183.75 128,-209"/>
<text xml:space="preserve" text-anchor="middle" x="101" y="-191.7" font-family="Times,serif" font-size="14.00">Qx</text>
</g>
<!-- incident_beam&#45;&gt;Qx -->
<g id="edge30" class="edge">
<title>incident_beam&#45;&gt;Qx</title>
<path fill="none" stroke="black" d="M132.48,-428.34C120.35,-400.98 91.97,-331.73 86,-270.25 84.92,-259.08 84.29,-256.09 86,-245 87.28,-236.69 89.74,-227.85 92.3,-220.06"/>
<polygon fill="black" stroke="black" points="95.58,-221.29 95.63,-210.7 88.99,-218.95 95.58,-221.29"/>
</g>
<!-- Qy -->
<g id="node25" class="node">
<title>Qy</title>
<polygon fill="none" stroke="black" points="274,-209 220,-209 220,-183.75 274,-183.75 274,-209"/>
<text xml:space="preserve" text-anchor="middle" x="247" y="-191.7" font-family="Times,serif" font-size="14.00">Qy</text>
</g>
<!-- incident_beam&#45;&gt;Qy -->
<g id="edge33" class="edge">
<title>incident_beam&#45;&gt;Qy</title>
<path fill="none" stroke="black" d="M172.41,-428.25C249.79,-400.93 431.22,-336.52 436,-331.5 455.65,-310.85 450.73,-298.43 455,-270.25 456.68,-259.15 462.07,-253.71 455,-245 408.26,-187.4 363.36,-224.92 285.59,-208.93"/>
<polygon fill="black" stroke="black" points="286.4,-205.53 275.87,-206.65 284.8,-212.34 286.4,-205.53"/>
</g>
<!-- Qz -->
<g id="node26" class="node">
<title>Qz</title>
<polygon fill="none" stroke="black" points="54,-209 0,-209 0,-183.75 54,-183.75 54,-209"/>
<text xml:space="preserve" text-anchor="middle" x="27" y="-191.7" font-family="Times,serif" font-size="14.00">Qz</text>
</g>
<!-- incident_beam&#45;&gt;Qz -->
<g id="edge36" class="edge">
<title>incident_beam&#45;&gt;Qz</title>
<path fill="none" stroke="black" d="M113.84,-428.35C83.07,-411.51 31.36,-377.71 10,-331.5 -6.89,-294.96 6.48,-247.18 17.15,-219.62"/>
<polygon fill="black" stroke="black" points="20.31,-221.12 20.88,-210.54 13.84,-218.46 20.31,-221.12"/>
</g>
<!-- sample_position -->
<g id="node3" class="node">
<title>sample_position</title>
<polygon fill="none" stroke="black" points="310.38,-515.25 179.62,-515.25 179.62,-490 310.38,-490 310.38,-515.25"/>
<text xml:space="preserve" text-anchor="middle" x="245" y="-497.95" font-family="Times,serif" font-size="14.00">sample_position</text>
</g>
<!-- sample_position&#45;&gt;incident_beam -->
<g id="edge2" class="edge">
<title>sample_position&#45;&gt;incident_beam</title>
<path fill="none" stroke="black" d="M223.35,-489.63C207.83,-481.04 186.69,-469.34 169.33,-459.72"/>
<polygon fill="black" stroke="black" points="171.39,-456.86 160.94,-455.08 168,-462.99 171.39,-456.86"/>
</g>
<!-- scattered_beam -->
<g id="node5" class="node">
<title>scattered_beam</title>
<polygon fill="none" stroke="black" points="388.62,-454 259.38,-454 259.38,-428.75 388.62,-428.75 388.62,-454"/>
<text xml:space="preserve" text-anchor="middle" x="324" y="-436.7" font-family="Times,serif" font-size="14.00">scattered_beam</text>
</g>
<!-- sample_position&#45;&gt;scattered_beam -->
<g id="edge4" class="edge">
<title>sample_position&#45;&gt;scattered_beam</title>
<path fill="none" stroke="black" d="M260.99,-489.63C271.91,-481.44 286.6,-470.42 299.05,-461.09"/>
<polygon fill="black" stroke="black" points="300.93,-464.06 306.83,-455.26 296.73,-458.46 300.93,-464.06"/>
</g>
<!-- position -->
<g id="node4" class="node">
<title>position</title>
<polygon fill="none" stroke="black" points="401.5,-515.25 328.5,-515.25 328.5,-490 401.5,-490 401.5,-515.25"/>
<text xml:space="preserve" text-anchor="middle" x="365" y="-497.95" font-family="Times,serif" font-size="14.00">position</text>
</g>
<!-- position&#45;&gt;scattered_beam -->
<g id="edge3" class="edge">
<title>position&#45;&gt;scattered_beam</title>
<path fill="none" stroke="black" d="M356.7,-489.63C351.53,-482.17 344.74,-472.35 338.68,-463.59"/>
<polygon fill="black" stroke="black" points="341.71,-461.82 333.15,-455.59 335.96,-465.81 341.71,-461.82"/>
</g>
<!-- L2 -->
<g id="node7" class="node">
<title>L2</title>
<polygon fill="none" stroke="black" points="406,-392.75 352,-392.75 352,-367.5 406,-367.5 406,-392.75"/>
<text xml:space="preserve" text-anchor="middle" x="379" y="-375.45" font-family="Times,serif" font-size="14.00">L2</text>
</g>
<!-- scattered_beam&#45;&gt;L2 -->
<g id="edge6" class="edge">
<title>scattered_beam&#45;&gt;L2</title>
<path fill="none" stroke="black" d="M335.13,-428.38C342.29,-420.68 351.77,-410.46 360.09,-401.5"/>
<polygon fill="black" stroke="black" points="362.62,-403.92 366.86,-394.21 357.49,-399.15 362.62,-403.92"/>
</g>
<!-- scattered_beam&#45;&gt;two_theta -->
<g id="edge8" class="edge">
<title>scattered_beam&#45;&gt;two_theta</title>
<path fill="none" stroke="black" d="M309.57,-428.49C291.27,-413.61 258.54,-387.64 229,-367.5 213.63,-357.02 195.93,-346.24 181.2,-337.59"/>
<polygon fill="black" stroke="black" points="183.24,-334.74 172.84,-332.74 179.73,-340.79 183.24,-334.74"/>
</g>
<!-- scattered_beam&#45;&gt;Qx -->
<g id="edge31" class="edge">
<title>scattered_beam&#45;&gt;Qx</title>
<path fill="none" stroke="black" d="M313.72,-428.39C301.18,-413.85 279.29,-388.65 260,-367.5 234.74,-339.8 229.59,-331.63 202,-306.25 183.15,-288.91 174.93,-288.54 157,-270.25 141.24,-254.18 125.84,-233.68 115.19,-218.53"/>
<polygon fill="black" stroke="black" points="118.34,-216.93 109.78,-210.68 112.58,-220.9 118.34,-216.93"/>
</g>
<!-- scattered_beam&#45;&gt;Qy -->
<g id="edge34" class="edge">
<title>scattered_beam&#45;&gt;Qy</title>
<path fill="none" stroke="black" d="M354.97,-428.26C426.17,-398.72 590.6,-319.92 526,-245 492.44,-206.08 353.42,-219.46 285.41,-208.63"/>
<polygon fill="black" stroke="black" points="286.32,-205.24 275.83,-206.78 284.99,-212.11 286.32,-205.24"/>
</g>
<!-- scattered_beam&#45;&gt;Qz -->
<g id="edge37" class="edge">
<title>scattered_beam&#45;&gt;Qz</title>
<path fill="none" stroke="black" d="M258.94,-430.11C226.65,-423.01 188.01,-411.38 157,-392.75 89.79,-352.37 50.16,-262.28 34.63,-220.05"/>
<polygon fill="black" stroke="black" points="37.95,-218.94 31.31,-210.69 31.35,-221.28 37.95,-218.94"/>
</g>
<!-- Ltotal -->
<g id="node9" class="node">
<title>Ltotal</title>
<polygon fill="none" stroke="black" points="342,-331.5 284,-331.5 284,-306.25 342,-306.25 342,-331.5"/>
<text xml:space="preserve" text-anchor="middle" x="313" y="-314.2" font-family="Times,serif" font-size="14.00">Ltotal</text>
</g>
<!-- L1&#45;&gt;Ltotal -->
<g id="edge9" class="edge">
<title>L1&#45;&gt;Ltotal</title>
<path fill="none" stroke="black" d="M217.28,-367.13C234.93,-358.42 259.06,-346.51 278.68,-336.82"/>
<polygon fill="black" stroke="black" points="279.98,-340.08 287.4,-332.52 276.88,-333.81 279.98,-340.08"/>
</g>
<!-- L2&#45;&gt;Ltotal -->
<g id="edge10" class="edge">
<title>L2&#45;&gt;Ltotal</title>
<path fill="none" stroke="black" d="M365.64,-367.13C356.79,-359.18 344.96,-348.57 334.76,-339.41"/>
<polygon fill="black" stroke="black" points="337.24,-336.93 327.46,-332.86 332.57,-342.14 337.24,-336.93"/>
</g>
<!-- time_at_sample -->
<g id="node28" class="node">
<title>time_at_sample</title>
<polygon fill="none" stroke="black" points="613.5,-209 486.5,-209 486.5,-183.75 613.5,-183.75 613.5,-209"/>
<text xml:space="preserve" text-anchor="middle" x="550" y="-191.7" font-family="Times,serif" font-size="14.00">time_at_sample</text>
</g>
<!-- L2&#45;&gt;time_at_sample -->
<g id="edge42" class="edge">
<title>L2&#45;&gt;time_at_sample</title>
<path fill="none" stroke="black" d="M406.28,-374.31C432.68,-368.37 472.39,-355.91 498,-331.5 529.48,-301.5 542.19,-250.26 547.11,-220.55"/>
<polygon fill="black" stroke="black" points="550.55,-221.16 548.54,-210.76 543.63,-220.14 550.55,-221.16"/>
</g>
<!-- dspacing -->
<g id="node11" class="node">
<title>dspacing</title>
<polygon fill="none" stroke="black" points="245.88,-270.25 166.12,-270.25 166.12,-245 245.88,-245 245.88,-270.25"/>
<text xml:space="preserve" text-anchor="middle" x="206" y="-252.95" font-family="Times,serif" font-size="14.00">dspacing</text>
</g>
<!-- two_theta&#45;&gt;dspacing -->
<g id="edge13" class="edge">
<title>two_theta&#45;&gt;dspacing</title>
<path fill="none" stroke="black" d="M161.33,-305.88C168.7,-298.09 178.48,-287.75 187.01,-278.72"/>
<polygon fill="black" stroke="black" points="189.32,-281.37 193.64,-271.7 184.23,-276.56 189.32,-281.37"/>
</g>
<!-- Q -->
<g id="node23" class="node">
<title>Q</title>
<polygon fill="none" stroke="black" points="201,-209 147,-209 147,-183.75 201,-183.75 201,-209"/>
<text xml:space="preserve" text-anchor="middle" x="174" y="-191.7" font-family="Times,serif" font-size="14.00">Q</text>
</g>
<!-- two_theta&#45;&gt;Q -->
<g id="edge25" class="edge">
<title>two_theta&#45;&gt;Q</title>
<path fill="none" stroke="black" d="M150.25,-305.87C150.75,-291.31 152.3,-266.09 157,-245 158.87,-236.59 161.81,-227.64 164.71,-219.79"/>
<polygon fill="black" stroke="black" points="167.89,-221.27 168.27,-210.68 161.37,-218.72 167.89,-221.27"/>
</g>
<!-- Ltotal&#45;&gt;dspacing -->
<g id="edge12" class="edge">
<title>Ltotal&#45;&gt;dspacing</title>
<path fill="none" stroke="black" d="M291.35,-305.88C275.83,-297.29 254.69,-285.59 237.33,-275.97"/>
<polygon fill="black" stroke="black" points="239.39,-273.11 228.94,-271.33 236,-279.24 239.39,-273.11"/>
</g>
<!-- energy -->
<g id="node12" class="node">
<title>energy</title>
<polygon fill="none" stroke="black" points="445.75,-270.25 380.25,-270.25 380.25,-245 445.75,-245 445.75,-270.25"/>
<text xml:space="preserve" text-anchor="middle" x="413" y="-252.95" font-family="Times,serif" font-size="14.00">energy</text>
</g>
<!-- Ltotal&#45;&gt;energy -->
<g id="edge15" class="edge">
<title>Ltotal&#45;&gt;energy</title>
<path fill="none" stroke="black" d="M333.24,-305.88C347.6,-297.37 367.13,-285.8 383.26,-276.24"/>
<polygon fill="black" stroke="black" points="384.67,-279.48 391.49,-271.37 381.1,-273.46 384.67,-279.48"/>
</g>
<!-- wavelength -->
<g id="node22" class="node">
<title>wavelength</title>
<polygon fill="none" stroke="black" points="362.25,-270.25 263.75,-270.25 263.75,-245 362.25,-245 362.25,-270.25"/>
<text xml:space="preserve" text-anchor="middle" x="313" y="-252.95" font-family="Times,serif" font-size="14.00">wavelength</text>
</g>
<!-- Ltotal&#45;&gt;wavelength -->
<g id="edge39" class="edge">
<title>Ltotal&#45;&gt;wavelength</title>
<path fill="none" stroke="black" d="M313,-305.88C313,-298.98 313,-290.06 313,-281.84"/>
<polygon fill="black" stroke="black" points="316.5,-282.11 313,-272.11 309.5,-282.11 316.5,-282.11"/>
</g>
<!-- tof -->
<g id="node10" class="node">
<title>tof</title>
<polygon fill="none" stroke="black" points="427,-331.5 373,-331.5 373,-306.25 427,-306.25 427,-331.5"/>
<text xml:space="preserve" text-anchor="middle" x="400" y="-314.2" font-family="Times,serif" font-size="14.00">tof</text>
</g>
<!-- tof&#45;&gt;dspacing -->
<g id="edge11" class="edge">
<title>tof&#45;&gt;dspacing</title>
<path fill="none" stroke="black" d="M372.62,-309.51C342.48,-300.31 293.4,-285.32 256.3,-273.99"/>
<polygon fill="black" stroke="black" points="257.72,-270.76 247.14,-271.19 255.68,-277.46 257.72,-270.76"/>
</g>
<!-- tof&#45;&gt;energy -->
<g id="edge14" class="edge">
<title>tof&#45;&gt;energy</title>
<path fill="none" stroke="black" d="M402.63,-305.88C404.15,-298.98 406.1,-290.06 407.91,-281.84"/>
<polygon fill="black" stroke="black" points="411.32,-282.59 410.05,-272.08 404.49,-281.09 411.32,-282.59"/>
</g>
<!-- tof&#45;&gt;wavelength -->
<g id="edge38" class="edge">
<title>tof&#45;&gt;wavelength</title>
<path fill="none" stroke="black" d="M382.39,-305.88C370.25,-297.61 353.87,-286.46 340.07,-277.06"/>
<polygon fill="black" stroke="black" points="342.07,-274.19 331.83,-271.45 338.13,-279.97 342.07,-274.19"/>
</g>
<!-- tof&#45;&gt;time_at_sample -->
<g id="edge41" class="edge">
<title>tof&#45;&gt;time_at_sample</title>
<path fill="none" stroke="black" d="M414.93,-305.88C440.99,-284.95 494.96,-241.59 526.21,-216.48"/>
<polygon fill="black" stroke="black" points="528.35,-219.26 533.95,-210.27 523.96,-213.8 528.35,-219.26"/>
</g>
<!-- Q_vec -->
<g id="node13" class="node">
<title>Q_vec</title>
<polygon fill="none" stroke="black" points="200,-147.75 142,-147.75 142,-122.5 200,-122.5 200,-147.75"/>
<text xml:space="preserve" text-anchor="middle" x="171" y="-130.45" font-family="Times,serif" font-size="14.00">Q_vec</text>
</g>
<!-- hkl_vec -->
<g id="node14" class="node">
<title>hkl_vec</title>
<polygon fill="none" stroke="black" points="366.25,-86.5 297.75,-86.5 297.75,-61.25 366.25,-61.25 366.25,-86.5"/>
<text xml:space="preserve" text-anchor="middle" x="332" y="-69.2" font-family="Times,serif" font-size="14.00">hkl_vec</text>
</g>
<!-- Q_vec&#45;&gt;hkl_vec -->
<g id="edge16" class="edge">
<title>Q_vec&#45;&gt;hkl_vec</title>
<path fill="none" stroke="black" d="M200.16,-123.4C224.8,-114.33 260.45,-101.21 288.47,-90.9"/>
<polygon fill="black" stroke="black" points="289.58,-94.21 297.76,-87.48 287.17,-87.65 289.58,-94.21"/>
</g>
<!-- h -->
<g id="node17" class="node">
<title>h</title>
<polygon fill="none" stroke="black" points="287,-25.25 233,-25.25 233,0 287,0 287,-25.25"/>
<text xml:space="preserve" text-anchor="middle" x="260" y="-7.95" font-family="Times,serif" font-size="14.00">h</text>
</g>
<!-- hkl_vec&#45;&gt;h -->
<g id="edge19" class="edge">
<title>hkl_vec&#45;&gt;h</title>
<path fill="none" stroke="black" d="M317.43,-60.88C307.67,-52.85 294.61,-42.1 283.41,-32.89"/>
<polygon fill="black" stroke="black" points="285.66,-30.21 275.72,-26.56 281.21,-35.62 285.66,-30.21"/>
</g>
<!-- k -->
<g id="node18" class="node">
<title>k</title>
<polygon fill="none" stroke="black" points="359,-25.25 305,-25.25 305,0 359,0 359,-25.25"/>
<text xml:space="preserve" text-anchor="middle" x="332" y="-7.95" font-family="Times,serif" font-size="14.00">k</text>
</g>
<!-- hkl_vec&#45;&gt;k -->
<g id="edge20" class="edge">
<title>hkl_vec&#45;&gt;k</title>
<path fill="none" stroke="black" d="M332,-60.88C332,-53.98 332,-45.06 332,-36.84"/>
<polygon fill="black" stroke="black" points="335.5,-37.11 332,-27.11 328.5,-37.11 335.5,-37.11"/>
</g>
<!-- l -->
<g id="node19" class="node">
<title>l</title>
<polygon fill="none" stroke="black" points="431,-25.25 377,-25.25 377,0 431,0 431,-25.25"/>
<text xml:space="preserve" text-anchor="middle" x="404" y="-7.95" font-family="Times,serif" font-size="14.00">l</text>
</g>
<!-- hkl_vec&#45;&gt;l -->
<g id="edge21" class="edge">
<title>hkl_vec&#45;&gt;l</title>
<path fill="none" stroke="black" d="M346.57,-60.88C356.33,-52.85 369.39,-42.1 380.59,-32.89"/>
<polygon fill="black" stroke="black" points="382.79,-35.62 388.28,-26.56 378.34,-30.21 382.79,-35.62"/>
</g>
<!-- ub_matrix -->
<g id="node15" class="node">
<title>ub_matrix</title>
<polygon fill="none" stroke="black" points="376,-147.75 288,-147.75 288,-122.5 376,-122.5 376,-147.75"/>
<text xml:space="preserve" text-anchor="middle" x="332" y="-130.45" font-family="Times,serif" font-size="14.00">ub_matrix</text>
</g>
<!-- ub_matrix&#45;&gt;hkl_vec -->
<g id="edge17" class="edge">
<title>ub_matrix&#45;&gt;hkl_vec</title>
<path fill="none" stroke="black" d="M332,-122.13C332,-115.23 332,-106.31 332,-98.09"/>
<polygon fill="black" stroke="black" points="335.5,-98.36 332,-88.36 328.5,-98.36 335.5,-98.36"/>
</g>
<!-- sample_rotation -->
<g id="node16" class="node">
<title>sample_rotation</title>
<polygon fill="none" stroke="black" points="524.38,-147.75 393.62,-147.75 393.62,-122.5 524.38,-122.5 524.38,-147.75"/>
<text xml:space="preserve" text-anchor="middle" x="459" y="-130.45" font-family="Times,serif" font-size="14.00">sample_rotation</text>
</g>
<!-- sample_rotation&#45;&gt;hkl_vec -->
<g id="edge18" class="edge">
<title>sample_rotation&#45;&gt;hkl_vec</title>
<path fill="none" stroke="black" d="M433.3,-122.13C414.54,-113.38 388.85,-101.4 368.04,-91.69"/>
<polygon fill="black" stroke="black" points="369.58,-88.54 359.03,-87.49 366.62,-94.89 369.58,-88.54"/>
</g>
<!-- u_matrix -->
<g id="node20" class="node">
<title>u_matrix</title>
<polygon fill="none" stroke="black" points="371.5,-209 292.5,-209 292.5,-183.75 371.5,-183.75 371.5,-209"/>
<text xml:space="preserve" text-anchor="middle" x="332" y="-191.7" font-family="Times,serif" font-size="14.00">u_matrix</text>
</g>
<!-- u_matrix&#45;&gt;ub_matrix -->
<g id="edge22" class="edge">
<title>u_matrix&#45;&gt;ub_matrix</title>
<path fill="none" stroke="black" d="M332,-183.38C332,-176.48 332,-167.56 332,-159.34"/>
<polygon fill="black" stroke="black" points="335.5,-159.61 332,-149.61 328.5,-159.61 335.5,-159.61"/>
</g>
<!-- b_matrix -->
<g id="node21" class="node">
<title>b_matrix</title>
<polygon fill="none" stroke="black" points="468.5,-209 389.5,-209 389.5,-183.75 468.5,-183.75 468.5,-209"/>
<text xml:space="preserve" text-anchor="middle" x="429" y="-191.7" font-family="Times,serif" font-size="14.00">b_matrix</text>
</g>
<!-- b_matrix&#45;&gt;ub_matrix -->
<g id="edge23" class="edge">
<title>b_matrix&#45;&gt;ub_matrix</title>
<path fill="none" stroke="black" d="M409.37,-183.38C395.57,-174.95 376.85,-163.52 361.29,-154.02"/>
<polygon fill="black" stroke="black" points="363.25,-151.11 352.89,-148.89 359.6,-157.09 363.25,-151.11"/>
</g>
<!-- wavelength&#45;&gt;Q -->
<g id="edge24" class="edge">
<title>wavelength&#45;&gt;Q</title>
<path fill="none" stroke="black" d="M284.87,-244.63C263.78,-235.64 234.69,-223.25 211.6,-213.4"/>
<polygon fill="black" stroke="black" points="213.1,-210.24 202.53,-209.54 210.36,-216.68 213.1,-210.24"/>
</g>
<!-- wavelength&#45;&gt;Qx -->
<g id="edge29" class="edge">
<title>wavelength&#45;&gt;Qx</title>
<path fill="none" stroke="black" d="M266.81,-244.58C233.86,-235.87 188.27,-223.57 139.28,-209.3"/>
<polygon fill="black" stroke="black" points="140.48,-206 129.9,-206.55 138.51,-212.72 140.48,-206"/>
</g>
<!-- wavelength&#45;&gt;Qy -->
<g id="edge32" class="edge">
<title>wavelength&#45;&gt;Qy</title>
<path fill="none" stroke="black" d="M299.64,-244.63C290.79,-236.68 278.96,-226.07 268.76,-216.91"/>
<polygon fill="black" stroke="black" points="271.24,-214.43 261.46,-210.36 266.57,-219.64 271.24,-214.43"/>
</g>
<!-- wavelength&#45;&gt;Qz -->
<g id="edge35" class="edge">
<title>wavelength&#45;&gt;Qz</title>
<path fill="none" stroke="black" d="M263.33,-246.63C260.51,-246.08 257.72,-245.53 255,-245 174.02,-229.21 150.32,-229.55 65.27,-208.82"/>
<polygon fill="black" stroke="black" points="66.32,-205.48 55.77,-206.48 64.64,-212.27 66.32,-205.48"/>
</g>
<!-- wavelength&#45;&gt;time_at_sample -->
<g id="edge43" class="edge">
<title>wavelength&#45;&gt;time_at_sample</title>
<path fill="none" stroke="black" d="M361.25,-244.56C398.73,-235.19 450.89,-222.15 490.89,-212.15"/>
<polygon fill="black" stroke="black" points="491.5,-215.61 500.35,-209.79 489.8,-208.82 491.5,-215.61"/>
</g>
<!-- Qx&#45;&gt;Q_vec -->
<g id="edge26" class="edge">
<title>Qx&#45;&gt;Q_vec</title>
<path fill="none" stroke="black" d="M115.17,-183.38C124.65,-175.35 137.35,-164.6 148.24,-155.39"/>
<polygon fill="black" stroke="black" points="150.33,-158.21 155.7,-149.08 145.81,-152.86 150.33,-158.21"/>
</g>
<!-- Qy&#45;&gt;Q_vec -->
<g id="edge27" class="edge">
<title>Qy&#45;&gt;Q_vec</title>
<path fill="none" stroke="black" d="M231.62,-183.38C221.22,-175.27 207.25,-164.39 195.35,-155.11"/>
<polygon fill="black" stroke="black" points="197.59,-152.42 187.55,-149.03 193.29,-157.94 197.59,-152.42"/>
</g>
<!-- Qz&#45;&gt;Q_vec -->
<g id="edge28" class="edge">
<title>Qz&#45;&gt;Q_vec</title>
<path fill="none" stroke="black" d="M54.42,-184.09C76.18,-175.14 106.88,-162.51 131.31,-152.46"/>
<polygon fill="black" stroke="black" points="132.38,-155.8 140.3,-148.76 129.72,-149.33 132.38,-155.8"/>
</g>
<!-- pulse_time -->
<g id="node27" class="node">
<title>pulse_time</title>
<polygon fill="none" stroke="black" points="709.62,-270.25 616.38,-270.25 616.38,-245 709.62,-245 709.62,-270.25"/>
<text xml:space="preserve" text-anchor="middle" x="663" y="-252.95" font-family="Times,serif" font-size="14.00">pulse_time</text>
</g>
<!-- pulse_time&#45;&gt;time_at_sample -->
<g id="edge40" class="edge">
<title>pulse_time&#45;&gt;time_at_sample</title>
<path fill="none" stroke="black" d="M640.13,-244.63C623.67,-236 601.21,-224.23 582.83,-214.59"/>
<polygon fill="black" stroke="black" points="584.66,-211.59 574.17,-210.05 581.4,-217.79 584.66,-211.59"/>
</g>
</g>
</svg>
