<?xml version="1.0" encoding="utf-8" standalone="no"?>
<!DOCTYPE svg PUBLIC "-//W3C//DTD SVG 1.1//EN"
  "http://www.w3.org/Graphics/SVG/1.1/DTD/svg11.dtd">
<svg xmlns:xlink="http://www.w3.org/1999/xlink" width="395.328125pt" height="268.200625pt" viewBox="0 0 395.328125 268.200625" xmlns="http://www.w3.org/2000/svg" version="1.1">
 <metadata>
  <rdf:RDF xmlns:dc="http://purl.org/dc/elements/1.1/" xmlns:cc="http://creativecommons.org/ns#" xmlns:rdf="http://www.w3.org/1999/02/22-rdf-syntax-ns#">
   <cc:Work>
    <dc:type rdf:resource="http://purl.org/dc/dcmitype/StillImage"/>
    <dc:date>2025-01-20T13:51:05.617595</dc:date>
    <dc:format>image/svg+xml</dc:format>
    <dc:creator>
     <cc:Agent>
      <dc:title>Matplotlib v3.7.3, https://matplotlib.org/</dc:title>
     </cc:Agent>
    </dc:creator>
   </cc:Work>
  </rdf:RDF>
 </metadata>
 <defs>
  <style type="text/css">*{stroke-linejoin: round; stroke-linecap: butt}</style>
 </defs>
 <g id="figure_1">
  <g id="patch_1">
   <path d="M 0 268.200625 
L 395.328125 268.200625 
L 395.328125 0 
L 0 0 
z
" style="fill: #ffffff"/>
  </g>
  <g id="axes_1">
   <g id="patch_2">
    <path d="M 53.328125 228.96 
L 388.128125 228.96 
L 388.128125 7.2 
L 53.328125 7.2 
z
" style="fill: #ffffff"/>
   </g>
   <g id="matplotlib.axis_1">
    <g id="xtick_1">
     <g id="line2d_1">
      <defs>
       <path id="me766650920" d="M 0 0 
L 0 3.5 
" style="stroke: #000000; stroke-width: 0.8"/>
      </defs>
      <g>
       <use xlink:href="#me766650920" x="68.546307" y="228.96" style="stroke: #000000; stroke-width: 0.8"/>
      </g>
     </g>
     <g id="text_1">
      <!-- 2 -->
      <g transform="translate(65.365057 243.558437) scale(0.1 -0.1)">
       <defs>
        <path id="DejaVuSans-32" d="M 1228 531 
L 3431 531 
L 3431 0 
L 469 0 
L 469 531 
Q 828 903 1448 1529 
Q 2069 2156 2228 2338 
Q 2531 2678 2651 2914 
Q 2772 3150 2772 3378 
Q 2772 3750 2511 3984 
Q 2250 4219 1831 4219 
Q 1534 4219 1204 4116 
Q 875 4013 500 3803 
L 500 4441 
Q 881 4594 1212 4672 
Q 1544 4750 1819 4750 
Q 2544 4750 2975 4387 
Q 3406 4025 3406 3419 
Q 3406 3131 3298 2873 
Q 3191 2616 2906 2266 
Q 2828 2175 2409 1742 
Q 1991 1309 1228 531 
z
" transform="scale(0.015625)"/>
       </defs>
       <use xlink:href="#DejaVuSans-32"/>
      </g>
     </g>
    </g>
    <g id="xtick_2">
     <g id="line2d_2">
      <g>
       <use xlink:href="#me766650920" x="106.591761" y="228.96" style="stroke: #000000; stroke-width: 0.8"/>
      </g>
     </g>
     <g id="text_2">
      <!-- 3 -->
      <g transform="translate(103.410511 243.558437) scale(0.1 -0.1)">
       <defs>
        <path id="DejaVuSans-33" d="M 2597 2516 
Q 3050 2419 3304 2112 
Q 3559 1806 3559 1356 
Q 3559 666 3084 287 
Q 2609 -91 1734 -91 
Q 1441 -91 1130 -33 
Q 819 25 488 141 
L 488 750 
Q 750 597 1062 519 
Q 1375 441 1716 441 
Q 2309 441 2620 675 
Q 2931 909 2931 1356 
Q 2931 1769 2642 2001 
Q 2353 2234 1838 2234 
L 1294 2234 
L 1294 2753 
L 1863 2753 
Q 2328 2753 2575 2939 
Q 2822 3125 2822 3475 
Q 2822 3834 2567 4026 
Q 2313 4219 1838 4219 
Q 1578 4219 1281 4162 
Q 984 4106 628 3988 
L 628 4550 
Q 988 4650 1302 4700 
Q 1616 4750 1894 4750 
Q 2613 4750 3031 4423 
Q 3450 4097 3450 3541 
Q 3450 3153 3228 2886 
Q 3006 2619 2597 2516 
z
" transform="scale(0.015625)"/>
       </defs>
       <use xlink:href="#DejaVuSans-33"/>
      </g>
     </g>
    </g>
    <g id="xtick_3">
     <g id="line2d_3">
      <g>
       <use xlink:href="#me766650920" x="144.637216" y="228.96" style="stroke: #000000; stroke-width: 0.8"/>
      </g>
     </g>
     <g id="text_3">
      <!-- 4 -->
      <g transform="translate(141.455966 243.558437) scale(0.1 -0.1)">
       <defs>
        <path id="DejaVuSans-34" d="M 2419 4116 
L 825 1625 
L 2419 1625 
L 2419 4116 
z
M 2253 4666 
L 3047 4666 
L 3047 1625 
L 3713 1625 
L 3713 1100 
L 3047 1100 
L 3047 0 
L 2419 0 
L 2419 1100 
L 313 1100 
L 313 1709 
L 2253 4666 
z
" transform="scale(0.015625)"/>
       </defs>
       <use xlink:href="#DejaVuSans-34"/>
      </g>
     </g>
    </g>
    <g id="xtick_4">
     <g id="line2d_4">
      <g>
       <use xlink:href="#me766650920" x="182.68267" y="228.96" style="stroke: #000000; stroke-width: 0.8"/>
      </g>
     </g>
     <g id="text_4">
      <!-- 5 -->
      <g transform="translate(179.50142 243.558437) scale(0.1 -0.1)">
       <defs>
        <path id="DejaVuSans-35" d="M 691 4666 
L 3169 4666 
L 3169 4134 
L 1269 4134 
L 1269 2991 
Q 1406 3038 1543 3061 
Q 1681 3084 1819 3084 
Q 2600 3084 3056 2656 
Q 3513 2228 3513 1497 
Q 3513 744 3044 326 
Q 2575 -91 1722 -91 
Q 1428 -91 1123 -41 
Q 819 9 494 109 
L 494 744 
Q 775 591 1075 516 
Q 1375 441 1709 441 
Q 2250 441 2565 725 
Q 2881 1009 2881 1497 
Q 2881 1984 2565 2268 
Q 2250 2553 1709 2553 
Q 1456 2553 1204 2497 
Q 953 2441 691 2322 
L 691 4666 
z
" transform="scale(0.015625)"/>
       </defs>
       <use xlink:href="#DejaVuSans-35"/>
      </g>
     </g>
    </g>
    <g id="xtick_5">
     <g id="line2d_5">
      <g>
       <use xlink:href="#me766650920" x="220.728125" y="228.96" style="stroke: #000000; stroke-width: 0.8"/>
      </g>
     </g>
     <g id="text_5">
      <!-- 6 -->
      <g transform="translate(217.546875 243.558437) scale(0.1 -0.1)">
       <defs>
        <path id="DejaVuSans-36" d="M 2113 2584 
Q 1688 2584 1439 2293 
Q 1191 2003 1191 1497 
Q 1191 994 1439 701 
Q 1688 409 2113 409 
Q 2538 409 2786 701 
Q 3034 994 3034 1497 
Q 3034 2003 2786 2293 
Q 2538 2584 2113 2584 
z
M 3366 4563 
L 3366 3988 
Q 3128 4100 2886 4159 
Q 2644 4219 2406 4219 
Q 1781 4219 1451 3797 
Q 1122 3375 1075 2522 
Q 1259 2794 1537 2939 
Q 1816 3084 2150 3084 
Q 2853 3084 3261 2657 
Q 3669 2231 3669 1497 
Q 3669 778 3244 343 
Q 2819 -91 2113 -91 
Q 1303 -91 875 529 
Q 447 1150 447 2328 
Q 447 3434 972 4092 
Q 1497 4750 2381 4750 
Q 2619 4750 2861 4703 
Q 3103 4656 3366 4563 
z
" transform="scale(0.015625)"/>
       </defs>
       <use xlink:href="#DejaVuSans-36"/>
      </g>
     </g>
    </g>
    <g id="xtick_6">
     <g id="line2d_6">
      <g>
       <use xlink:href="#me766650920" x="258.77358" y="228.96" style="stroke: #000000; stroke-width: 0.8"/>
      </g>
     </g>
     <g id="text_6">
      <!-- 7 -->
      <g transform="translate(255.59233 243.558437) scale(0.1 -0.1)">
       <defs>
        <path id="DejaVuSans-37" d="M 525 4666 
L 3525 4666 
L 3525 4397 
L 1831 0 
L 1172 0 
L 2766 4134 
L 525 4134 
L 525 4666 
z
" transform="scale(0.015625)"/>
       </defs>
       <use xlink:href="#DejaVuSans-37"/>
      </g>
     </g>
    </g>
    <g id="xtick_7">
     <g id="line2d_7">
      <g>
       <use xlink:href="#me766650920" x="296.819034" y="228.96" style="stroke: #000000; stroke-width: 0.8"/>
      </g>
     </g>
     <g id="text_7">
      <!-- 8 -->
      <g transform="translate(293.637784 243.558437) scale(0.1 -0.1)">
       <defs>
        <path id="DejaVuSans-38" d="M 2034 2216 
Q 1584 2216 1326 1975 
Q 1069 1734 1069 1313 
Q 1069 891 1326 650 
Q 1584 409 2034 409 
Q 2484 409 2743 651 
Q 3003 894 3003 1313 
Q 3003 1734 2745 1975 
Q 2488 2216 2034 2216 
z
M 1403 2484 
Q 997 2584 770 2862 
Q 544 3141 544 3541 
Q 544 4100 942 4425 
Q 1341 4750 2034 4750 
Q 2731 4750 3128 4425 
Q 3525 4100 3525 3541 
Q 3525 3141 3298 2862 
Q 3072 2584 2669 2484 
Q 3125 2378 3379 2068 
Q 3634 1759 3634 1313 
Q 3634 634 3220 271 
Q 2806 -91 2034 -91 
Q 1263 -91 848 271 
Q 434 634 434 1313 
Q 434 1759 690 2068 
Q 947 2378 1403 2484 
z
M 1172 3481 
Q 1172 3119 1398 2916 
Q 1625 2713 2034 2713 
Q 2441 2713 2670 2916 
Q 2900 3119 2900 3481 
Q 2900 3844 2670 4047 
Q 2441 4250 2034 4250 
Q 1625 4250 1398 4047 
Q 1172 3844 1172 3481 
z
" transform="scale(0.015625)"/>
       </defs>
       <use xlink:href="#DejaVuSans-38"/>
      </g>
     </g>
    </g>
    <g id="xtick_8">
     <g id="line2d_8">
      <g>
       <use xlink:href="#me766650920" x="334.864489" y="228.96" style="stroke: #000000; stroke-width: 0.8"/>
      </g>
     </g>
     <g id="text_8">
      <!-- 9 -->
      <g transform="translate(331.683239 243.558437) scale(0.1 -0.1)">
       <defs>
        <path id="DejaVuSans-39" d="M 703 97 
L 703 672 
Q 941 559 1184 500 
Q 1428 441 1663 441 
Q 2288 441 2617 861 
Q 2947 1281 2994 2138 
Q 2813 1869 2534 1725 
Q 2256 1581 1919 1581 
Q 1219 1581 811 2004 
Q 403 2428 403 3163 
Q 403 3881 828 4315 
Q 1253 4750 1959 4750 
Q 2769 4750 3195 4129 
Q 3622 3509 3622 2328 
Q 3622 1225 3098 567 
Q 2575 -91 1691 -91 
Q 1453 -91 1209 -44 
Q 966 3 703 97 
z
M 1959 2075 
Q 2384 2075 2632 2365 
Q 2881 2656 2881 3163 
Q 2881 3666 2632 3958 
Q 2384 4250 1959 4250 
Q 1534 4250 1286 3958 
Q 1038 3666 1038 3163 
Q 1038 2656 1286 2365 
Q 1534 2075 1959 2075 
z
" transform="scale(0.015625)"/>
       </defs>
       <use xlink:href="#DejaVuSans-39"/>
      </g>
     </g>
    </g>
    <g id="xtick_9">
     <g id="line2d_9">
      <g>
       <use xlink:href="#me766650920" x="372.909943" y="228.96" style="stroke: #000000; stroke-width: 0.8"/>
      </g>
     </g>
     <g id="text_9">
      <!-- 10 -->
      <g transform="translate(366.547443 243.558437) scale(0.1 -0.1)">
       <defs>
        <path id="DejaVuSans-31" d="M 794 531 
L 1825 531 
L 1825 4091 
L 703 3866 
L 703 4441 
L 1819 4666 
L 2450 4666 
L 2450 531 
L 3481 531 
L 3481 0 
L 794 0 
L 794 531 
z
" transform="scale(0.015625)"/>
        <path id="DejaVuSans-30" d="M 2034 4250 
Q 1547 4250 1301 3770 
Q 1056 3291 1056 2328 
Q 1056 1369 1301 889 
Q 1547 409 2034 409 
Q 2525 409 2770 889 
Q 3016 1369 3016 2328 
Q 3016 3291 2770 3770 
Q 2525 4250 2034 4250 
z
M 2034 4750 
Q 2819 4750 3233 4129 
Q 3647 3509 3647 2328 
Q 3647 1150 3233 529 
Q 2819 -91 2034 -91 
Q 1250 -91 836 529 
Q 422 1150 422 2328 
Q 422 3509 836 4129 
Q 1250 4750 2034 4750 
z
" transform="scale(0.015625)"/>
       </defs>
       <use xlink:href="#DejaVuSans-31"/>
       <use xlink:href="#DejaVuSans-30" x="63.623047"/>
      </g>
     </g>
    </g>
    <g id="text_10">
     <!-- wavelength [Å] -->
     <g transform="translate(182.690625 258.920937) scale(0.1 -0.1)">
      <defs>
       <path id="DejaVuSans-77" d="M 269 3500 
L 844 3500 
L 1563 769 
L 2278 3500 
L 2956 3500 
L 3675 769 
L 4391 3500 
L 4966 3500 
L 4050 0 
L 3372 0 
L 2619 2869 
L 1863 0 
L 1184 0 
L 269 3500 
z
" transform="scale(0.015625)"/>
       <path id="DejaVuSans-61" d="M 2194 1759 
Q 1497 1759 1228 1600 
Q 959 1441 959 1056 
Q 959 750 1161 570 
Q 1363 391 1709 391 
Q 2188 391 2477 730 
Q 2766 1069 2766 1631 
L 2766 1759 
L 2194 1759 
z
M 3341 1997 
L 3341 0 
L 2766 0 
L 2766 531 
Q 2569 213 2275 61 
Q 1981 -91 1556 -91 
Q 1019 -91 701 211 
Q 384 513 384 1019 
Q 384 1609 779 1909 
Q 1175 2209 1959 2209 
L 2766 2209 
L 2766 2266 
Q 2766 2663 2505 2880 
Q 2244 3097 1772 3097 
Q 1472 3097 1187 3025 
Q 903 2953 641 2809 
L 641 3341 
Q 956 3463 1253 3523 
Q 1550 3584 1831 3584 
Q 2591 3584 2966 3190 
Q 3341 2797 3341 1997 
z
" transform="scale(0.015625)"/>
       <path id="DejaVuSans-76" d="M 191 3500 
L 800 3500 
L 1894 563 
L 2988 3500 
L 3597 3500 
L 2284 0 
L 1503 0 
L 191 3500 
z
" transform="scale(0.015625)"/>
       <path id="DejaVuSans-65" d="M 3597 1894 
L 3597 1613 
L 953 1613 
Q 991 1019 1311 708 
Q 1631 397 2203 397 
Q 2534 397 2845 478 
Q 3156 559 3463 722 
L 3463 178 
Q 3153 47 2828 -22 
Q 2503 -91 2169 -91 
Q 1331 -91 842 396 
Q 353 884 353 1716 
Q 353 2575 817 3079 
Q 1281 3584 2069 3584 
Q 2775 3584 3186 3129 
Q 3597 2675 3597 1894 
z
M 3022 2063 
Q 3016 2534 2758 2815 
Q 2500 3097 2075 3097 
Q 1594 3097 1305 2825 
Q 1016 2553 972 2059 
L 3022 2063 
z
" transform="scale(0.015625)"/>
       <path id="DejaVuSans-6c" d="M 603 4863 
L 1178 4863 
L 1178 0 
L 603 0 
L 603 4863 
z
" transform="scale(0.015625)"/>
       <path id="DejaVuSans-6e" d="M 3513 2113 
L 3513 0 
L 2938 0 
L 2938 2094 
Q 2938 2591 2744 2837 
Q 2550 3084 2163 3084 
Q 1697 3084 1428 2787 
Q 1159 2491 1159 1978 
L 1159 0 
L 581 0 
L 581 3500 
L 1159 3500 
L 1159 2956 
Q 1366 3272 1645 3428 
Q 1925 3584 2291 3584 
Q 2894 3584 3203 3211 
Q 3513 2838 3513 2113 
z
" transform="scale(0.015625)"/>
       <path id="DejaVuSans-67" d="M 2906 1791 
Q 2906 2416 2648 2759 
Q 2391 3103 1925 3103 
Q 1463 3103 1205 2759 
Q 947 2416 947 1791 
Q 947 1169 1205 825 
Q 1463 481 1925 481 
Q 2391 481 2648 825 
Q 2906 1169 2906 1791 
z
M 3481 434 
Q 3481 -459 3084 -895 
Q 2688 -1331 1869 -1331 
Q 1566 -1331 1297 -1286 
Q 1028 -1241 775 -1147 
L 775 -588 
Q 1028 -725 1275 -790 
Q 1522 -856 1778 -856 
Q 2344 -856 2625 -561 
Q 2906 -266 2906 331 
L 2906 616 
Q 2728 306 2450 153 
Q 2172 0 1784 0 
Q 1141 0 747 490 
Q 353 981 353 1791 
Q 353 2603 747 3093 
Q 1141 3584 1784 3584 
Q 2172 3584 2450 3431 
Q 2728 3278 2906 2969 
L 2906 3500 
L 3481 3500 
L 3481 434 
z
" transform="scale(0.015625)"/>
       <path id="DejaVuSans-74" d="M 1172 4494 
L 1172 3500 
L 2356 3500 
L 2356 3053 
L 1172 3053 
L 1172 1153 
Q 1172 725 1289 603 
Q 1406 481 1766 481 
L 2356 481 
L 2356 0 
L 1766 0 
Q 1100 0 847 248 
Q 594 497 594 1153 
L 594 3053 
L 172 3053 
L 172 3500 
L 594 3500 
L 594 4494 
L 1172 4494 
z
" transform="scale(0.015625)"/>
       <path id="DejaVuSans-68" d="M 3513 2113 
L 3513 0 
L 2938 0 
L 2938 2094 
Q 2938 2591 2744 2837 
Q 2550 3084 2163 3084 
Q 1697 3084 1428 2787 
Q 1159 2491 1159 1978 
L 1159 0 
L 581 0 
L 581 4863 
L 1159 4863 
L 1159 2956 
Q 1366 3272 1645 3428 
Q 1925 3584 2291 3584 
Q 2894 3584 3203 3211 
Q 3513 2838 3513 2113 
z
" transform="scale(0.015625)"/>
       <path id="DejaVuSans-20" transform="scale(0.015625)"/>
       <path id="DejaVuSans-5b" d="M 550 4863 
L 1875 4863 
L 1875 4416 
L 1125 4416 
L 1125 -397 
L 1875 -397 
L 1875 -844 
L 550 -844 
L 550 4863 
z
" transform="scale(0.015625)"/>
       <path id="DejaVuSans-c5" d="M 2663 5081 
Q 2663 5278 2523 5417 
Q 2384 5556 2188 5556 
Q 1988 5556 1852 5420 
Q 1716 5284 1716 5081 
Q 1716 4884 1853 4746 
Q 1991 4609 2188 4609 
Q 2384 4609 2523 4746 
Q 2663 4884 2663 5081 
z
M 2188 4044 
L 1338 1722 
L 3041 1722 
L 2188 4044 
z
M 1716 4366 
Q 1525 4494 1428 4673 
Q 1331 4853 1331 5081 
Q 1331 5441 1579 5691 
Q 1828 5941 2188 5941 
Q 2544 5941 2795 5689 
Q 3047 5438 3047 5081 
Q 3047 4863 2948 4678 
Q 2850 4494 2663 4366 
L 4325 0 
L 3669 0 
L 3244 1197 
L 1141 1197 
L 716 0 
L 50 0 
L 1716 4366 
z
" transform="scale(0.015625)"/>
       <path id="DejaVuSans-5d" d="M 1947 4863 
L 1947 -844 
L 622 -844 
L 622 -397 
L 1369 -397 
L 1369 4416 
L 622 4416 
L 622 4863 
L 1947 4863 
z
" transform="scale(0.015625)"/>
      </defs>
      <use xlink:href="#DejaVuSans-77"/>
      <use xlink:href="#DejaVuSans-61" x="81.787109"/>
      <use xlink:href="#DejaVuSans-76" x="143.066406"/>
      <use xlink:href="#DejaVuSans-65" x="202.246094"/>
      <use xlink:href="#DejaVuSans-6c" x="263.769531"/>
      <use xlink:href="#DejaVuSans-65" x="291.552734"/>
      <use xlink:href="#DejaVuSans-6e" x="353.076172"/>
      <use xlink:href="#DejaVuSans-67" x="416.455078"/>
      <use xlink:href="#DejaVuSans-74" x="479.931641"/>
      <use xlink:href="#DejaVuSans-68" x="519.140625"/>
      <use xlink:href="#DejaVuSans-20" x="582.519531"/>
      <use xlink:href="#DejaVuSans-5b" x="614.306641"/>
      <use xlink:href="#DejaVuSans-c5" x="653.320312"/>
      <use xlink:href="#DejaVuSans-5d" x="721.728516"/>
     </g>
    </g>
   </g>
   <g id="matplotlib.axis_2">
    <g id="ytick_1">
     <g id="line2d_10">
      <defs>
       <path id="mcfbe6d8701" d="M 0 0 
L -3.5 0 
" style="stroke: #000000; stroke-width: 0.8"/>
      </defs>
      <g>
       <use xlink:href="#mcfbe6d8701" x="53.328125" y="218.88" style="stroke: #000000; stroke-width: 0.8"/>
      </g>
     </g>
     <g id="text_11">
      <!-- 0 -->
      <g transform="translate(39.965625 222.679219) scale(0.1 -0.1)">
       <use xlink:href="#DejaVuSans-30"/>
      </g>
     </g>
    </g>
    <g id="ytick_2">
     <g id="line2d_11">
      <g>
       <use xlink:href="#mcfbe6d8701" x="53.328125" y="181.070548" style="stroke: #000000; stroke-width: 0.8"/>
      </g>
     </g>
     <g id="text_12">
      <!-- 500 -->
      <g transform="translate(27.240625 184.869766) scale(0.1 -0.1)">
       <use xlink:href="#DejaVuSans-35"/>
       <use xlink:href="#DejaVuSans-30" x="63.623047"/>
       <use xlink:href="#DejaVuSans-30" x="127.246094"/>
      </g>
     </g>
    </g>
    <g id="ytick_3">
     <g id="line2d_12">
      <g>
       <use xlink:href="#mcfbe6d8701" x="53.328125" y="143.261095" style="stroke: #000000; stroke-width: 0.8"/>
      </g>
     </g>
     <g id="text_13">
      <!-- 1000 -->
      <g transform="translate(20.878125 147.060314) scale(0.1 -0.1)">
       <use xlink:href="#DejaVuSans-31"/>
       <use xlink:href="#DejaVuSans-30" x="63.623047"/>
       <use xlink:href="#DejaVuSans-30" x="127.246094"/>
       <use xlink:href="#DejaVuSans-30" x="190.869141"/>
      </g>
     </g>
    </g>
    <g id="ytick_4">
     <g id="line2d_13">
      <g>
       <use xlink:href="#mcfbe6d8701" x="53.328125" y="105.451643" style="stroke: #000000; stroke-width: 0.8"/>
      </g>
     </g>
     <g id="text_14">
      <!-- 1500 -->
      <g transform="translate(20.878125 109.250862) scale(0.1 -0.1)">
       <use xlink:href="#DejaVuSans-31"/>
       <use xlink:href="#DejaVuSans-35" x="63.623047"/>
       <use xlink:href="#DejaVuSans-30" x="127.246094"/>
       <use xlink:href="#DejaVuSans-30" x="190.869141"/>
      </g>
     </g>
    </g>
    <g id="ytick_5">
     <g id="line2d_14">
      <g>
       <use xlink:href="#mcfbe6d8701" x="53.328125" y="67.642191" style="stroke: #000000; stroke-width: 0.8"/>
      </g>
     </g>
     <g id="text_15">
      <!-- 2000 -->
      <g transform="translate(20.878125 71.441409) scale(0.1 -0.1)">
       <use xlink:href="#DejaVuSans-32"/>
       <use xlink:href="#DejaVuSans-30" x="63.623047"/>
       <use xlink:href="#DejaVuSans-30" x="127.246094"/>
       <use xlink:href="#DejaVuSans-30" x="190.869141"/>
      </g>
     </g>
    </g>
    <g id="ytick_6">
     <g id="line2d_15">
      <g>
       <use xlink:href="#mcfbe6d8701" x="53.328125" y="29.832738" style="stroke: #000000; stroke-width: 0.8"/>
      </g>
     </g>
     <g id="text_16">
      <!-- 2500 -->
      <g transform="translate(20.878125 33.631957) scale(0.1 -0.1)">
       <use xlink:href="#DejaVuSans-32"/>
       <use xlink:href="#DejaVuSans-35" x="63.623047"/>
       <use xlink:href="#DejaVuSans-30" x="127.246094"/>
       <use xlink:href="#DejaVuSans-30" x="190.869141"/>
      </g>
     </g>
    </g>
    <g id="text_17">
     <!-- [counts] -->
     <g transform="translate(14.798438 138.6925) rotate(-90) scale(0.1 -0.1)">
      <defs>
       <path id="DejaVuSans-63" d="M 3122 3366 
L 3122 2828 
Q 2878 2963 2633 3030 
Q 2388 3097 2138 3097 
Q 1578 3097 1268 2742 
Q 959 2388 959 1747 
Q 959 1106 1268 751 
Q 1578 397 2138 397 
Q 2388 397 2633 464 
Q 2878 531 3122 666 
L 3122 134 
Q 2881 22 2623 -34 
Q 2366 -91 2075 -91 
Q 1284 -91 818 406 
Q 353 903 353 1747 
Q 353 2603 823 3093 
Q 1294 3584 2113 3584 
Q 2378 3584 2631 3529 
Q 2884 3475 3122 3366 
z
" transform="scale(0.015625)"/>
       <path id="DejaVuSans-6f" d="M 1959 3097 
Q 1497 3097 1228 2736 
Q 959 2375 959 1747 
Q 959 1119 1226 758 
Q 1494 397 1959 397 
Q 2419 397 2687 759 
Q 2956 1122 2956 1747 
Q 2956 2369 2687 2733 
Q 2419 3097 1959 3097 
z
M 1959 3584 
Q 2709 3584 3137 3096 
Q 3566 2609 3566 1747 
Q 3566 888 3137 398 
Q 2709 -91 1959 -91 
Q 1206 -91 779 398 
Q 353 888 353 1747 
Q 353 2609 779 3096 
Q 1206 3584 1959 3584 
z
" transform="scale(0.015625)"/>
       <path id="DejaVuSans-75" d="M 544 1381 
L 544 3500 
L 1119 3500 
L 1119 1403 
Q 1119 906 1312 657 
Q 1506 409 1894 409 
Q 2359 409 2629 706 
Q 2900 1003 2900 1516 
L 2900 3500 
L 3475 3500 
L 3475 0 
L 2900 0 
L 2900 538 
Q 2691 219 2414 64 
Q 2138 -91 1772 -91 
Q 1169 -91 856 284 
Q 544 659 544 1381 
z
M 1991 3584 
L 1991 3584 
z
" transform="scale(0.015625)"/>
       <path id="DejaVuSans-73" d="M 2834 3397 
L 2834 2853 
Q 2591 2978 2328 3040 
Q 2066 3103 1784 3103 
Q 1356 3103 1142 2972 
Q 928 2841 928 2578 
Q 928 2378 1081 2264 
Q 1234 2150 1697 2047 
L 1894 2003 
Q 2506 1872 2764 1633 
Q 3022 1394 3022 966 
Q 3022 478 2636 193 
Q 2250 -91 1575 -91 
Q 1294 -91 989 -36 
Q 684 19 347 128 
L 347 722 
Q 666 556 975 473 
Q 1284 391 1588 391 
Q 1994 391 2212 530 
Q 2431 669 2431 922 
Q 2431 1156 2273 1281 
Q 2116 1406 1581 1522 
L 1381 1569 
Q 847 1681 609 1914 
Q 372 2147 372 2553 
Q 372 3047 722 3315 
Q 1072 3584 1716 3584 
Q 2034 3584 2315 3537 
Q 2597 3491 2834 3397 
z
" transform="scale(0.015625)"/>
      </defs>
      <use xlink:href="#DejaVuSans-5b"/>
      <use xlink:href="#DejaVuSans-63" x="39.013672"/>
      <use xlink:href="#DejaVuSans-6f" x="93.994141"/>
      <use xlink:href="#DejaVuSans-75" x="155.175781"/>
      <use xlink:href="#DejaVuSans-6e" x="218.554688"/>
      <use xlink:href="#DejaVuSans-74" x="281.933594"/>
      <use xlink:href="#DejaVuSans-73" x="321.142578"/>
      <use xlink:href="#DejaVuSans-5d" x="373.242188"/>
     </g>
    </g>
   </g>
   <g id="patch_3">
    <path d="M 53.328125 228.96 
L 53.328125 7.2 
" style="fill: none; stroke: #000000; stroke-width: 0.8; stroke-linejoin: miter; stroke-linecap: square"/>
   </g>
   <g id="patch_4">
    <path d="M 388.128125 228.96 
L 388.128125 7.2 
" style="fill: none; stroke: #000000; stroke-width: 0.8; stroke-linejoin: miter; stroke-linecap: square"/>
   </g>
   <g id="patch_5">
    <path d="M 53.328125 228.96 
L 388.128125 228.96 
" style="fill: none; stroke: #000000; stroke-width: 0.8; stroke-linejoin: miter; stroke-linecap: square"/>
   </g>
   <g id="patch_6">
    <path d="M 53.328125 7.2 
L 388.128125 7.2 
" style="fill: none; stroke: #000000; stroke-width: 0.8; stroke-linejoin: miter; stroke-linecap: square"/>
   </g>
   <g id="legend_1">
    <g id="patch_7">
     <path d="M 284.125 44.834375 
L 381.128125 44.834375 
Q 383.128125 44.834375 383.128125 42.834375 
L 383.128125 14.2 
Q 383.128125 12.2 381.128125 12.2 
L 284.125 12.2 
Q 282.125 12.2 282.125 14.2 
L 282.125 42.834375 
Q 282.125 44.834375 284.125 44.834375 
z
" style="fill: #ffffff; opacity: 0.8; stroke: #cccccc; stroke-linejoin: miter"/>
    </g>
    <g id="line2d_16">
     <path d="M 286.125 20.298437 
L 286.125 20.298437 
L 296.125 20.298437 
L 296.125 20.298437 
L 306.125 20.298437 
" style="fill: none; stroke: #1f77b4; stroke-width: 1.5; stroke-linecap: square"/>
    </g>
    <g id="text_18">
     <!-- wfm -->
     <g transform="translate(314.125 23.798437) scale(0.1 -0.1)">
      <defs>
       <path id="DejaVuSans-66" d="M 2375 4863 
L 2375 4384 
L 1825 4384 
Q 1516 4384 1395 4259 
Q 1275 4134 1275 3809 
L 1275 3500 
L 2222 3500 
L 2222 3053 
L 1275 3053 
L 1275 0 
L 697 0 
L 697 3053 
L 147 3053 
L 147 3500 
L 697 3500 
L 697 3744 
Q 697 4328 969 4595 
Q 1241 4863 1831 4863 
L 2375 4863 
z
" transform="scale(0.015625)"/>
       <path id="DejaVuSans-6d" d="M 3328 2828 
Q 3544 3216 3844 3400 
Q 4144 3584 4550 3584 
Q 5097 3584 5394 3201 
Q 5691 2819 5691 2113 
L 5691 0 
L 5113 0 
L 5113 2094 
Q 5113 2597 4934 2840 
Q 4756 3084 4391 3084 
Q 3944 3084 3684 2787 
Q 3425 2491 3425 1978 
L 3425 0 
L 2847 0 
L 2847 2094 
Q 2847 2600 2669 2842 
Q 2491 3084 2119 3084 
Q 1678 3084 1418 2786 
Q 1159 2488 1159 1978 
L 1159 0 
L 581 0 
L 581 3500 
L 1159 3500 
L 1159 2956 
Q 1356 3278 1631 3431 
Q 1906 3584 2284 3584 
Q 2666 3584 2933 3390 
Q 3200 3197 3328 2828 
z
" transform="scale(0.015625)"/>
      </defs>
      <use xlink:href="#DejaVuSans-77"/>
      <use xlink:href="#DejaVuSans-66" x="81.787109"/>
      <use xlink:href="#DejaVuSans-6d" x="116.992188"/>
     </g>
    </g>
    <g id="line2d_17">
     <path d="M 286.125 34.976562 
L 286.125 34.976562 
L 296.125 34.976562 
L 296.125 34.976562 
L 306.125 34.976562 
" style="fill: none; stroke: #ff7f0e; stroke-width: 1.5; stroke-linecap: square"/>
    </g>
    <g id="text_19">
     <!-- ground_truth -->
     <g transform="translate(314.125 38.476562) scale(0.1 -0.1)">
      <defs>
       <path id="DejaVuSans-72" d="M 2631 2963 
Q 2534 3019 2420 3045 
Q 2306 3072 2169 3072 
Q 1681 3072 1420 2755 
Q 1159 2438 1159 1844 
L 1159 0 
L 581 0 
L 581 3500 
L 1159 3500 
L 1159 2956 
Q 1341 3275 1631 3429 
Q 1922 3584 2338 3584 
Q 2397 3584 2469 3576 
Q 2541 3569 2628 3553 
L 2631 2963 
z
" transform="scale(0.015625)"/>
       <path id="DejaVuSans-64" d="M 2906 2969 
L 2906 4863 
L 3481 4863 
L 3481 0 
L 2906 0 
L 2906 525 
Q 2725 213 2448 61 
Q 2172 -91 1784 -91 
Q 1150 -91 751 415 
Q 353 922 353 1747 
Q 353 2572 751 3078 
Q 1150 3584 1784 3584 
Q 2172 3584 2448 3432 
Q 2725 3281 2906 2969 
z
M 947 1747 
Q 947 1113 1208 752 
Q 1469 391 1925 391 
Q 2381 391 2643 752 
Q 2906 1113 2906 1747 
Q 2906 2381 2643 2742 
Q 2381 3103 1925 3103 
Q 1469 3103 1208 2742 
Q 947 2381 947 1747 
z
" transform="scale(0.015625)"/>
       <path id="DejaVuSans-5f" d="M 3263 -1063 
L 3263 -1509 
L -63 -1509 
L -63 -1063 
L 3263 -1063 
z
" transform="scale(0.015625)"/>
      </defs>
      <use xlink:href="#DejaVuSans-67"/>
      <use xlink:href="#DejaVuSans-72" x="63.476562"/>
      <use xlink:href="#DejaVuSans-6f" x="102.339844"/>
      <use xlink:href="#DejaVuSans-75" x="163.521484"/>
      <use xlink:href="#DejaVuSans-6e" x="226.900391"/>
      <use xlink:href="#DejaVuSans-64" x="290.279297"/>
      <use xlink:href="#DejaVuSans-5f" x="353.755859"/>
      <use xlink:href="#DejaVuSans-74" x="403.755859"/>
      <use xlink:href="#DejaVuSans-72" x="442.964844"/>
      <use xlink:href="#DejaVuSans-75" x="484.078125"/>
      <use xlink:href="#DejaVuSans-74" x="547.457031"/>
      <use xlink:href="#DejaVuSans-68" x="586.666016"/>
     </g>
    </g>
   </g>
   <g id="line2d_18">
    <path d="M 68.546307 218.728762 
L 69.560852 218.728762 
L 69.560852 192.186527 
L 70.575398 192.186527 
L 70.575398 140.916909 
L 71.589943 140.916909 
L 71.589943 97.436039 
L 72.604489 97.436039 
L 72.604489 100.990128 
L 73.619034 100.990128 
L 73.619034 97.587277 
L 74.63358 97.587277 
L 74.63358 97.36042 
L 75.648125 97.36042 
L 75.648125 91.235289 
L 76.66267 91.235289 
L 76.66267 82.312258 
L 77.677216 82.312258 
L 77.677216 79.363121 
L 78.691761 79.363121 
L 78.691761 79.514359 
L 79.706307 79.514359 
L 79.706307 70.969422 
L 80.720852 70.969422 
L 80.720852 69.910758 
L 81.735398 69.910758 
L 81.735398 60.0803 
L 82.749943 60.0803 
L 82.749943 55.089452 
L 83.764489 55.089452 
L 83.764489 56.223736 
L 84.779034 56.223736 
L 84.779034 44.351568 
L 85.79358 44.351568 
L 85.79358 43.444141 
L 86.808125 43.444141 
L 86.808125 37.243391 
L 87.82267 37.243391 
L 87.82267 38.907007 
L 88.837216 38.907007 
L 88.837216 31.042641 
L 89.851761 31.042641 
L 89.851761 22.951418 
L 90.866307 22.951418 
L 90.866307 24.539415 
L 91.880852 24.539415 
L 91.880852 27.412933 
L 92.895398 27.412933 
L 92.895398 33.462446 
L 93.909943 33.462446 
L 93.909943 17.28 
L 94.924489 17.28 
L 94.924489 35.882251 
L 95.939034 35.882251 
L 95.939034 32.403781 
L 96.95358 32.403781 
L 96.95358 29.605881 
L 97.968125 29.605881 
L 97.968125 37.697104 
L 98.98267 37.697104 
L 98.98267 40.873098 
L 99.997216 40.873098 
L 99.997216 36.033488 
L 101.011761 36.033488 
L 101.011761 51.232888 
L 102.026307 51.232888 
L 102.026307 45.788327 
L 103.040852 45.788327 
L 103.040852 52.064696 
L 104.055398 52.064696 
L 104.055398 60.76087 
L 105.069943 60.76087 
L 105.069943 71.80123 
L 106.084489 71.80123 
L 106.084489 77.472648 
L 107.099034 77.472648 
L 107.099034 87.151868 
L 108.11358 87.151868 
L 108.11358 101.292603 
L 109.128125 101.292603 
L 109.128125 113.694104 
L 110.14267 113.694104 
L 110.14267 118.08 
L 111.157216 118.08 
L 111.157216 127.003031 
L 112.171761 127.003031 
L 112.171761 135.850443 
L 113.186307 135.850443 
L 113.186307 145.6809 
L 114.200852 145.6809 
L 114.200852 149.083751 
L 115.215398 149.083751 
L 115.215398 158.536114 
L 116.229943 158.536114 
L 116.229943 166.476099 
L 117.244489 166.476099 
L 117.244489 170.332663 
L 118.259034 170.332663 
L 118.259034 177.970173 
L 119.27358 177.970173 
L 119.27358 186.590728 
L 120.288125 186.590728 
L 120.288125 195.664996 
L 121.30267 195.664996 
L 121.30267 179.860645 
L 122.317216 179.860645 
L 122.317216 150.671748 
L 123.331761 150.671748 
L 123.331761 117.701905 
L 124.346307 117.701905 
L 124.346307 86.925011 
L 125.360852 86.925011 
L 125.360852 83.673398 
L 126.375398 83.673398 
L 126.375398 100.763271 
L 127.389943 100.763271 
L 127.389943 97.662896 
L 128.404489 97.662896 
L 128.404489 95.31871 
L 129.419034 95.31871 
L 129.419034 92.898905 
L 130.43358 92.898905 
L 130.43358 96.150518 
L 131.448125 96.150518 
L 131.448125 95.772423 
L 132.46267 95.772423 
L 132.46267 99.704606 
L 133.477216 99.704606 
L 133.477216 105.527262 
L 134.491761 105.527262 
L 134.491761 105.224786 
L 135.506307 105.224786 
L 135.506307 102.426887 
L 136.520852 102.426887 
L 136.520852 107.115259 
L 137.535398 107.115259 
L 137.535398 112.55982 
L 138.549943 112.55982 
L 138.549943 113.996579 
L 139.564489 113.996579 
L 139.564489 107.568972 
L 140.579034 107.568972 
L 140.579034 108.627637 
L 141.59358 108.627637 
L 141.59358 116.567622 
L 142.608125 116.567622 
L 142.608125 109.837539 
L 143.62267 109.837539 
L 143.62267 114.752768 
L 144.637216 114.752768 
L 144.637216 114.979625 
L 145.651761 114.979625 
L 145.651761 118.684951 
L 146.666307 118.684951 
L 146.666307 119.819235 
L 148.695398 119.743616 
L 148.695398 122.465896 
L 149.709943 122.465896 
L 149.709943 126.549317 
L 150.724489 126.549317 
L 150.724489 124.810083 
L 151.739034 124.810083 
L 151.739034 128.817884 
L 152.75358 128.817884 
L 152.75358 128.666647 
L 153.768125 128.666647 
L 153.768125 126.39808 
L 154.78267 126.39808 
L 154.78267 132.674449 
L 155.797216 132.674449 
L 155.797216 136.757869 
L 156.811761 136.757869 
L 156.811761 130.935214 
L 157.826307 130.935214 
L 157.826307 136.379775 
L 158.840852 136.379775 
L 158.840852 136.682251 
L 159.855398 136.682251 
L 159.855398 135.396729 
L 160.869943 135.396729 
L 160.869943 137.816534 
L 161.884489 137.816534 
L 161.884489 139.933863 
L 162.899034 139.933863 
L 162.899034 143.563571 
L 163.91358 143.563571 
L 163.91358 145.00033 
L 164.928125 145.00033 
L 164.928125 149.764321 
L 165.94267 149.764321 
L 165.94267 151.125461 
L 166.957216 151.125461 
L 166.957216 153.242791 
L 167.971761 153.242791 
L 167.971761 155.057644 
L 168.986307 155.057644 
L 168.986307 162.392678 
L 170.000852 162.392678 
L 170.000852 159.746017 
L 171.015398 159.746017 
L 171.015398 149.386227 
L 172.029943 149.386227 
L 172.029943 142.353668 
L 173.044489 142.353668 
L 173.044489 132.145116 
L 174.059034 132.145116 
L 174.059034 128.893503 
L 175.07358 128.893503 
L 175.07358 127.607982 
L 176.088125 127.607982 
L 176.088125 132.371973 
L 177.10267 132.371973 
L 177.10267 133.581875 
L 178.117216 133.581875 
L 178.117216 146.058995 
L 179.131761 146.058995 
L 179.131761 149.310608 
L 180.146307 149.310608 
L 180.146307 150.444891 
L 181.160852 150.444891 
L 181.160852 156.116309 
L 182.175398 156.116309 
L 182.175398 157.40183 
L 183.189943 157.40183 
L 183.189943 156.948117 
L 184.204489 156.948117 
L 184.204489 158.914209 
L 185.219034 158.914209 
L 185.219034 158.15802 
L 186.23358 158.15802 
L 186.23358 163.753818 
L 187.248125 163.753818 
L 187.248125 160.653443 
L 188.26267 160.653443 
L 188.26267 164.283151 
L 189.277216 164.283151 
L 189.277216 162.543916 
L 190.291761 162.543916 
L 190.291761 161.787727 
L 191.306307 161.787727 
L 191.306307 161.938965 
L 192.320852 161.938965 
L 192.320852 167.534764 
L 193.335398 167.534764 
L 193.335398 166.854194 
L 194.349943 166.854194 
L 194.349943 165.71991 
L 195.364489 165.71991 
L 195.364489 167.988477 
L 196.379034 167.988477 
L 196.379034 169.19838 
L 197.39358 169.19838 
L 197.39358 170.937614 
L 198.408125 170.937614 
L 198.408125 174.642941 
L 199.42267 174.642941 
L 199.42267 173.2818 
L 200.437216 173.2818 
L 200.437216 176.987127 
L 201.451761 176.987127 
L 201.451761 178.953218 
L 202.466307 178.953218 
L 202.466307 179.180075 
L 203.480852 179.180075 
L 203.480852 185.002731 
L 204.495398 185.002731 
L 204.495398 184.095304 
L 205.509943 184.095304 
L 205.509943 185.910158 
L 206.524489 185.910158 
L 206.524489 185.456444 
L 207.539034 185.456444 
L 207.539034 187.346917 
L 208.55358 187.346917 
L 208.55358 192.942716 
L 209.568125 192.942716 
L 209.568125 189.010533 
L 210.58267 189.010533 
L 210.58267 193.925761 
L 211.597216 193.925761 
L 211.597216 195.286902 
L 212.611761 195.286902 
L 212.611761 195.816234 
L 213.626307 195.816234 
L 213.626307 194.757569 
L 214.640852 194.757569 
L 214.640852 199.294704 
L 215.655398 199.294704 
L 215.655398 196.79928 
L 216.669943 196.79928 
L 216.669943 194.303856 
L 217.684489 194.303856 
L 217.684489 189.086152 
L 218.699034 189.086152 
L 218.699034 183.64159 
L 219.71358 183.64159 
L 219.71358 182.28045 
L 220.728125 182.28045 
L 220.728125 178.348267 
L 221.74267 178.348267 
L 221.74267 181.146167 
L 222.757216 181.146167 
L 222.757216 185.07835 
L 223.771761 185.07835 
L 223.771761 186.968822 
L 224.786307 186.968822 
L 224.786307 191.581575 
L 225.800852 191.581575 
L 225.800852 196.572423 
L 226.815398 196.572423 
L 226.815398 196.345566 
L 227.829943 196.345566 
L 227.829943 196.572423 
L 228.844489 196.572423 
L 228.844489 200.353368 
L 229.859034 200.353368 
L 229.859034 197.782326 
L 230.87358 197.782326 
L 230.87358 198.614134 
L 231.888125 198.614134 
L 231.888125 200.655844 
L 232.90267 200.655844 
L 232.90267 199.445941 
L 233.917216 199.445941 
L 233.917216 201.563271 
L 234.931761 201.563271 
L 234.931761 202.773173 
L 236.960852 202.848792 
L 236.960852 205.949167 
L 237.975398 205.949167 
L 237.975398 205.04174 
L 238.989943 205.04174 
L 238.989943 204.285551 
L 240.004489 204.285551 
L 240.004489 204.814884 
L 242.03358 204.814884 
L 242.03358 206.176024 
L 243.048125 206.176024 
L 243.048125 208.217734 
L 244.06267 208.217734 
L 244.06267 207.688402 
L 246.091761 207.764021 
L 246.091761 209.352018 
L 247.106307 209.352018 
L 247.106307 211.620585 
L 248.120852 211.620585 
L 248.120852 209.503256 
L 249.135398 209.503256 
L 249.135398 210.56192 
L 251.164489 210.486302 
L 251.164489 212.67925 
L 252.179034 212.67925 
L 252.179034 212.074299 
L 253.19358 212.074299 
L 253.19358 211.847442 
L 254.208125 211.847442 
L 254.208125 212.981725 
L 255.22267 212.981725 
L 255.22267 213.435439 
L 256.237216 213.435439 
L 256.237216 214.191628 
L 257.251761 214.191628 
L 257.251761 214.645341 
L 258.266307 214.645341 
L 258.266307 212.225536 
L 259.280852 212.225536 
L 259.280852 210.788777 
L 260.295398 210.788777 
L 260.295398 207.234689 
L 261.309943 207.234689 
L 261.309943 206.327262 
L 262.324489 206.327262 
L 262.324489 202.168222 
L 263.339034 202.168222 
L 263.339034 204.739265 
L 264.35358 204.739265 
L 264.35358 206.100405 
L 265.368125 206.100405 
L 265.368125 207.234689 
L 266.38267 207.234689 
L 266.38267 208.822686 
L 267.397216 208.822686 
L 267.397216 207.385926 
L 268.411761 207.385926 
L 268.411761 209.956969 
L 269.426307 209.956969 
L 269.426307 209.654494 
L 270.440852 209.654494 
L 270.440852 210.410683 
L 271.455398 210.410683 
L 271.455398 209.578875 
L 272.469943 209.578875 
L 272.469943 210.259445 
L 273.484489 210.259445 
L 273.484489 208.595829 
L 274.499034 208.595829 
L 274.499034 210.410683 
L 275.51358 210.410683 
L 275.51358 211.923061 
L 277.54267 211.99868 
L 277.54267 211.771823 
L 279.571761 211.771823 
L 279.571761 212.830488 
L 280.586307 212.830488 
L 280.586307 212.67925 
L 281.600852 212.67925 
L 281.600852 214.04039 
L 282.615398 214.04039 
L 282.615398 212.225536 
L 283.629943 212.225536 
L 283.629943 213.435439 
L 284.644489 213.435439 
L 284.644489 214.72096 
L 285.659034 214.72096 
L 285.659034 213.889152 
L 286.67358 213.889152 
L 286.67358 214.947817 
L 287.688125 214.947817 
L 287.688125 214.796579 
L 288.70267 214.796579 
L 288.70267 215.023436 
L 290.731761 214.947817 
L 290.731761 215.628387 
L 291.746307 215.628387 
L 291.746307 216.233338 
L 292.760852 216.233338 
L 292.760852 216.082101 
L 293.775398 216.082101 
L 293.775398 216.233338 
L 294.789943 216.233338 
L 294.789943 216.611433 
L 296.819034 216.611433 
L 296.819034 217.292003 
L 297.83358 217.292003 
L 297.83358 216.687052 
L 298.848125 216.687052 
L 298.848125 216.989527 
L 299.86267 216.989527 
L 299.86267 216.233338 
L 300.877216 216.233338 
L 300.877216 213.662296 
L 301.891761 213.662296 
L 301.891761 211.544966 
L 302.906307 211.544966 
L 302.906307 210.259445 
L 303.920852 210.259445 
L 303.920852 207.990878 
L 304.935398 207.990878 
L 304.935398 207.612783 
L 305.949943 207.612783 
L 305.949943 204.966122 
L 306.964489 204.966122 
L 306.964489 205.117359 
L 307.979034 205.117359 
L 307.979034 204.890503 
L 308.99358 204.890503 
L 308.99358 202.697554 
L 310.008125 202.697554 
L 310.008125 202.546317 
L 311.02267 202.546317 
L 311.02267 205.04174 
L 312.037216 205.04174 
L 312.037216 203.453743 
L 313.051761 203.453743 
L 313.051761 204.814884 
L 314.066307 204.814884 
L 314.066307 204.588027 
L 315.080852 204.588027 
L 315.080852 206.100405 
L 316.095398 206.100405 
L 316.095398 204.058695 
L 317.109943 204.058695 
L 317.109943 204.663646 
L 318.124489 204.663646 
L 318.124489 204.436789 
L 319.139034 204.436789 
L 319.139034 205.571073 
L 320.15358 205.571073 
L 320.15358 204.814884 
L 321.168125 204.814884 
L 321.168125 205.797929 
L 322.18267 205.797929 
L 322.18267 205.192978 
L 323.197216 205.192978 
L 323.197216 205.495454 
L 324.211761 205.495454 
L 324.211761 206.856594 
L 325.226307 206.856594 
L 325.226307 205.192978 
L 326.240852 205.192978 
L 326.240852 207.083451 
L 327.255398 207.083451 
L 327.255398 206.100405 
L 328.269943 206.100405 
L 328.269943 206.629737 
L 329.284489 206.629737 
L 329.284489 208.142116 
L 330.299034 208.142116 
L 330.299034 206.932213 
L 331.31358 206.932213 
L 331.31358 210.259445 
L 332.328125 210.259445 
L 332.328125 209.427637 
L 333.34267 209.427637 
L 333.34267 209.654494 
L 334.357216 209.654494 
L 334.357216 209.125161 
L 335.371761 209.125161 
L 335.371761 208.293353 
L 336.386307 208.293353 
L 336.386307 211.166872 
L 337.400852 211.166872 
L 337.400852 210.335064 
L 338.415398 210.335064 
L 338.415398 211.393728 
L 339.429943 211.393728 
L 339.429943 209.049542 
L 340.444489 209.049542 
L 340.444489 210.410683 
L 341.459034 210.410683 
L 341.459034 212.225536 
L 342.47358 212.225536 
L 342.47358 211.620585 
L 343.488125 211.620585 
L 343.488125 213.964771 
L 344.50267 213.964771 
L 344.50267 214.342866 
L 345.517216 214.342866 
L 345.517216 214.72096 
L 346.531761 214.72096 
L 346.531761 213.435439 
L 347.546307 213.435439 
L 347.546307 215.552768 
L 350.589943 215.552768 
L 350.589943 216.762671 
L 351.604489 216.762671 
L 351.604489 217.594479 
L 352.619034 217.594479 
L 352.619034 218.501905 
L 353.63358 218.501905 
L 353.63358 218.728762 
L 354.648125 218.728762 
L 354.648125 218.88 
L 372.909943 218.88 
L 372.909943 218.88 
" clip-path="url(#p0e0aa80684)" style="fill: none; stroke: #1f77b4; stroke-width: 1.5; stroke-linecap: square"/>
   </g>
   <g id="line2d_19">
    <path d="M 68.546307 211.393728 
L 69.560852 211.393728 
L 69.560852 185.683301 
L 70.575398 185.683301 
L 70.575398 154.67955 
L 71.589943 154.67955 
L 71.589943 127.607982 
L 72.604489 127.607982 
L 72.604489 100.83889 
L 73.619034 100.83889 
L 73.619034 92.142716 
L 74.63358 92.142716 
L 74.63358 96.452993 
L 75.648125 96.452993 
L 75.648125 90.403481 
L 76.66267 90.403481 
L 76.66267 84.353968 
L 77.677216 84.353968 
L 77.677216 76.262746 
L 78.691761 76.262746 
L 78.691761 76.64084 
L 79.706307 76.64084 
L 79.706307 75.506557 
L 80.720852 75.506557 
L 80.720852 60.004681 
L 81.735398 60.004681 
L 81.735398 56.677449 
L 82.749943 56.677449 
L 82.749943 55.996879 
L 83.764489 55.996879 
L 83.764489 49.72051 
L 84.779034 49.72051 
L 84.779034 45.334614 
L 85.79358 45.334614 
L 85.79358 38.302056 
L 86.808125 38.302056 
L 86.808125 34.823586 
L 87.82267 34.823586 
L 87.82267 32.252543 
L 88.837216 32.252543 
L 88.837216 25.295604 
L 89.851761 25.295604 
L 89.851761 18.263046 
L 90.866307 18.263046 
L 90.866307 22.11961 
L 91.880852 22.11961 
L 91.880852 26.203031 
L 92.895398 26.203031 
L 92.895398 22.270848 
L 93.909943 22.270848 
L 93.909943 26.505506 
L 94.924489 26.505506 
L 94.924489 27.261695 
L 95.939034 27.261695 
L 95.939034 25.219985 
L 96.95358 25.219985 
L 96.95358 31.420735 
L 97.968125 31.420735 
L 97.968125 35.579775 
L 98.98267 35.579775 
L 98.98267 33.764921 
L 99.997216 33.764921 
L 99.997216 41.780525 
L 101.011761 41.780525 
L 101.011761 36.714059 
L 102.026307 36.714059 
L 102.026307 52.215934 
L 103.040852 52.215934 
L 103.040852 64.088102 
L 104.055398 64.088102 
L 104.055398 65.827337 
L 105.069943 65.827337 
L 105.069943 80.043691 
L 106.084489 80.043691 
L 106.084489 87.6812 
L 107.099034 87.6812 
L 107.099034 95.091853 
L 108.11358 95.091853 
L 108.11358 104.619835 
L 109.128125 104.619835 
L 109.128125 115.887052 
L 110.14267 115.887052 
L 110.14267 124.431988 
L 111.157216 124.431988 
L 111.157216 130.027787 
L 112.171761 130.027787 
L 112.171761 138.043391 
L 113.186307 138.043391 
L 113.186307 145.302806 
L 114.200852 145.302806 
L 114.200852 152.032888 
L 115.215398 152.032888 
L 115.215398 158.006782 
L 116.229943 158.006782 
L 116.229943 166.778575 
L 117.244489 166.778575 
L 117.244489 172.374374 
L 118.259034 172.374374 
L 118.259034 176.0797 
L 119.27358 176.0797 
L 119.27358 181.448642 
L 120.288125 181.448642 
L 120.288125 171.996279 
L 121.30267 171.996279 
L 121.30267 159.972873 
L 122.317216 159.972873 
L 122.317216 145.302806 
L 123.331761 145.302806 
L 123.331761 126.776174 
L 124.346307 126.776174 
L 124.346307 113.542866 
L 125.360852 113.542866 
L 125.360852 107.72021 
L 126.375398 107.72021 
L 126.375398 90.554719 
L 127.389943 90.554719 
L 127.389943 94.486902 
L 128.404489 94.486902 
L 128.404489 96.301755 
L 129.419034 96.301755 
L 129.419034 99.402131 
L 130.43358 99.402131 
L 130.43358 86.849392 
L 131.448125 86.849392 
L 131.448125 96.755469 
L 132.46267 96.755469 
L 132.46267 100.007082 
L 133.477216 100.007082 
L 133.477216 103.712408 
L 134.491761 103.712408 
L 134.491761 105.376024 
L 135.506307 105.376024 
L 135.506307 104.619835 
L 136.520852 104.619835 
L 136.520852 103.334314 
L 137.535398 103.334314 
L 137.535398 111.576774 
L 138.549943 111.576774 
L 138.549943 105.6785 
L 139.564489 105.6785 
L 139.564489 109.76192 
L 140.579034 109.76192 
L 140.579034 113.542866 
L 141.59358 113.542866 
L 141.59358 112.484201 
L 142.608125 112.484201 
L 142.608125 109.232588 
L 143.62267 109.232588 
L 143.62267 110.593728 
L 144.637216 110.593728 
L 144.637216 114.904006 
L 145.651761 114.904006 
L 145.651761 116.945716 
L 146.666307 116.945716 
L 146.666307 118.684951 
L 147.680852 118.684951 
L 147.680852 119.063046 
L 148.695398 119.063046 
L 148.695398 124.885701 
L 149.709943 124.885701 
L 149.709943 123.675799 
L 150.724489 123.675799 
L 150.724489 128.969122 
L 151.739034 128.969122 
L 151.739034 123.146467 
L 152.75358 123.146467 
L 152.75358 129.347217 
L 153.768125 129.347217 
L 153.768125 129.498455 
L 154.78267 129.498455 
L 154.78267 135.094254 
L 155.797216 135.094254 
L 155.797216 131.162071 
L 156.811761 131.162071 
L 156.811761 134.413683 
L 157.826307 134.413683 
L 157.826307 133.430638 
L 158.840852 133.430638 
L 158.840852 133.884351 
L 159.855398 133.884351 
L 159.855398 136.379775 
L 160.869943 136.379775 
L 160.869943 141.446242 
L 161.884489 141.446242 
L 161.884489 140.916909 
L 162.899034 140.916909 
L 162.899034 142.429287 
L 163.91358 142.429287 
L 163.91358 145.6809 
L 164.928125 145.6809 
L 164.928125 149.310608 
L 165.94267 149.310608 
L 165.94267 154.074599 
L 166.957216 154.074599 
L 166.957216 155.435739 
L 167.971761 155.435739 
L 167.971761 154.67955 
L 168.986307 154.67955 
L 168.986307 153.772123 
L 170.000852 153.772123 
L 170.000852 156.04069 
L 171.015398 156.04069 
L 171.015398 148.705656 
L 172.029943 148.705656 
L 172.029943 143.563571 
L 173.044489 143.563571 
L 173.044489 141.143766 
L 174.059034 141.143766 
L 174.059034 139.026437 
L 175.07358 139.026437 
L 175.07358 134.338065 
L 176.088125 134.338065 
L 176.088125 136.606632 
L 177.10267 136.606632 
L 177.10267 143.487952 
L 178.117216 143.487952 
L 178.117216 142.202431 
L 179.131761 142.202431 
L 179.131761 144.773473 
L 180.146307 144.773473 
L 180.146307 150.293653 
L 181.160852 150.293653 
L 181.160852 151.503556 
L 182.175398 151.503556 
L 182.175398 153.469647 
L 183.189943 153.469647 
L 183.189943 156.191928 
L 184.204489 156.191928 
L 184.204489 154.755169 
L 185.219034 154.755169 
L 185.219034 155.662596 
L 186.23358 155.662596 
L 186.23358 161.182776 
L 187.248125 161.182776 
L 187.248125 159.594779 
L 188.26267 159.594779 
L 188.26267 158.15802 
L 189.277216 158.15802 
L 189.277216 158.006782 
L 190.291761 158.006782 
L 190.291761 158.611733 
L 191.306307 158.611733 
L 191.306307 163.829437 
L 192.320852 163.829437 
L 192.320852 168.215334 
L 193.335398 168.215334 
L 193.335398 167.307907 
L 194.349943 167.307907 
L 194.349943 166.702956 
L 195.364489 166.702956 
L 195.364489 170.937614 
L 196.379034 170.937614 
L 196.379034 169.727712 
L 197.39358 169.727712 
L 197.39358 170.332663 
L 198.408125 170.332663 
L 198.408125 172.449992 
L 199.42267 172.449992 
L 199.42267 176.533413 
L 200.437216 176.533413 
L 200.437216 180.91931 
L 201.451761 180.91931 
L 201.451761 180.23874 
L 202.466307 180.23874 
L 202.466307 183.187877 
L 203.480852 183.187877 
L 203.480852 185.75892 
L 204.495398 185.75892 
L 204.495398 184.473398 
L 205.509943 184.473398 
L 205.509943 187.044441 
L 206.524489 187.044441 
L 206.524489 186.43949 
L 207.539034 186.43949 
L 207.539034 191.203481 
L 208.55358 191.203481 
L 208.55358 187.195679 
L 209.568125 187.195679 
L 209.568125 193.623286 
L 210.58267 193.623286 
L 210.58267 192.942716 
L 211.597216 192.942716 
L 211.597216 194.303856 
L 212.611761 194.303856 
L 212.611761 195.967472 
L 213.626307 195.967472 
L 213.626307 194.379475 
L 214.640852 194.379475 
L 214.640852 193.850143 
L 216.669943 193.774524 
L 216.669943 191.354719 
L 217.684489 191.354719 
L 217.684489 189.993578 
L 218.699034 189.993578 
L 218.699034 187.573773 
L 219.71358 187.573773 
L 219.71358 184.775874 
L 221.74267 184.851493 
L 221.74267 185.532063 
L 222.757216 185.532063 
L 222.757216 183.263496 
L 223.771761 183.263496 
L 223.771761 189.086152 
L 224.786307 189.086152 
L 224.786307 192.337764 
L 225.800852 192.337764 
L 225.800852 193.396429 
L 226.815398 193.396429 
L 226.815398 194.908807 
L 227.829943 194.908807 
L 227.829943 197.328612 
L 228.844489 197.328612 
L 228.844489 198.009182 
L 229.859034 198.009182 
L 229.859034 198.387277 
L 230.87358 198.387277 
L 230.87358 197.252993 
L 231.888125 197.252993 
L 231.888125 200.504606 
L 232.90267 200.504606 
L 232.90267 200.655844 
L 233.917216 200.655844 
L 233.917216 200.050893 
L 234.931761 200.050893 
L 234.931761 200.580225 
L 235.946307 200.580225 
L 235.946307 204.814884 
L 236.960852 204.814884 
L 236.960852 205.192978 
L 237.975398 205.192978 
L 237.975398 204.36117 
L 238.989943 204.36117 
L 238.989943 204.058695 
L 240.004489 204.058695 
L 240.004489 205.419835 
L 241.019034 205.419835 
L 241.019034 205.722311 
L 242.03358 205.722311 
L 242.03358 206.251643 
L 243.048125 206.251643 
L 243.048125 207.688402 
L 244.06267 207.688402 
L 244.06267 208.52021 
L 245.077216 208.52021 
L 245.077216 207.764021 
L 246.091761 207.764021 
L 246.091761 209.654494 
L 247.106307 209.654494 
L 247.106307 208.973923 
L 248.120852 208.973923 
L 248.120852 211.771823 
L 249.135398 211.771823 
L 249.135398 209.352018 
L 250.149943 209.352018 
L 250.149943 211.015634 
L 251.164489 211.015634 
L 251.164489 212.603631 
L 252.179034 212.603631 
L 252.179034 211.696204 
L 253.19358 211.696204 
L 253.19358 213.35982 
L 254.208125 213.35982 
L 254.208125 212.225536 
L 255.22267 212.225536 
L 255.22267 212.67925 
L 256.237216 212.67925 
L 256.237216 213.132963 
L 257.251761 213.132963 
L 257.251761 211.847442 
L 258.266307 211.847442 
L 258.266307 212.225536 
L 259.280852 212.225536 
L 259.280852 208.973923 
L 260.295398 208.973923 
L 260.295398 209.20078 
L 261.309943 209.20078 
L 261.309943 207.234689 
L 262.324489 207.234689 
L 262.324489 206.856594 
L 263.339034 206.856594 
L 263.339034 208.444591 
L 264.35358 208.444591 
L 264.35358 205.722311 
L 265.368125 205.722311 
L 265.368125 206.780975 
L 266.38267 206.780975 
L 266.38267 206.932213 
L 267.397216 206.932213 
L 267.397216 207.15907 
L 268.411761 207.15907 
L 268.411761 209.654494 
L 269.426307 209.654494 
L 269.426307 208.747067 
L 270.440852 208.747067 
L 270.440852 209.654494 
L 271.455398 209.654494 
L 271.455398 211.015634 
L 272.469943 211.015634 
L 272.469943 210.486302 
L 273.484489 210.486302 
L 273.484489 208.973923 
L 274.499034 208.973923 
L 274.499034 209.276399 
L 275.51358 209.276399 
L 275.51358 211.620585 
L 276.528125 211.620585 
L 276.528125 212.376774 
L 277.54267 212.376774 
L 277.54267 212.149917 
L 278.557216 212.149917 
L 278.557216 211.31811 
L 279.571761 211.31811 
L 279.571761 211.923061 
L 280.586307 211.923061 
L 280.586307 214.116009 
L 281.600852 214.116009 
L 281.600852 212.754869 
L 282.615398 212.754869 
L 282.615398 212.906107 
L 283.629943 212.906107 
L 283.629943 213.737914 
L 284.644489 213.737914 
L 284.644489 214.342866 
L 285.659034 214.342866 
L 285.659034 213.889152 
L 286.67358 213.889152 
L 286.67358 214.645341 
L 288.70267 214.645341 
L 288.70267 215.704006 
L 289.717216 215.704006 
L 289.717216 214.267247 
L 290.731761 214.267247 
L 290.731761 215.628387 
L 291.746307 215.628387 
L 291.746307 215.779625 
L 292.760852 215.779625 
L 292.760852 216.308957 
L 293.775398 216.308957 
L 293.775398 216.460195 
L 294.789943 216.460195 
L 294.789943 216.611433 
L 295.804489 216.611433 
L 295.804489 215.779625 
L 296.819034 215.779625 
L 296.819034 216.687052 
L 297.83358 216.687052 
L 297.83358 215.552768 
L 298.848125 215.552768 
L 298.848125 216.233338 
L 299.86267 216.233338 
L 299.86267 214.418485 
L 300.877216 214.418485 
L 300.877216 212.074299 
L 301.891761 212.074299 
L 301.891761 211.923061 
L 302.906307 211.923061 
L 302.906307 210.032588 
L 303.920852 210.032588 
L 303.920852 210.410683 
L 304.935398 210.410683 
L 304.935398 208.822686 
L 306.964489 208.747067 
L 306.964489 207.764021 
L 307.979034 207.764021 
L 307.979034 206.327262 
L 308.99358 206.327262 
L 308.99358 203.756219 
L 310.008125 203.756219 
L 310.008125 203.302506 
L 311.02267 203.302506 
L 311.02267 204.285551 
L 312.037216 204.285551 
L 312.037216 202.697554 
L 313.051761 202.697554 
L 313.051761 203.756219 
L 314.066307 203.756219 
L 314.066307 202.697554 
L 315.080852 202.697554 
L 315.080852 204.436789 
L 316.095398 204.436789 
L 316.095398 202.621935 
L 317.109943 202.621935 
L 317.109943 203.151268 
L 318.124489 203.151268 
L 318.124489 204.739265 
L 319.139034 204.739265 
L 319.139034 206.024786 
L 320.15358 206.024786 
L 320.15358 204.588027 
L 321.168125 204.588027 
L 321.168125 204.814884 
L 322.18267 204.814884 
L 322.18267 205.949167 
L 323.197216 205.949167 
L 323.197216 205.117359 
L 324.211761 205.117359 
L 324.211761 207.461545 
L 325.226307 207.461545 
L 325.226307 205.268597 
L 326.240852 205.268597 
L 326.240852 207.688402 
L 327.255398 207.688402 
L 327.255398 206.856594 
L 328.269943 206.856594 
L 328.269943 207.915259 
L 329.284489 207.915259 
L 329.284489 207.537164 
L 330.299034 207.537164 
L 330.299034 208.444591 
L 331.31358 208.444591 
L 331.31358 207.537164 
L 332.328125 207.537164 
L 332.328125 209.427637 
L 333.34267 209.427637 
L 333.34267 208.595829 
L 334.357216 208.595829 
L 334.357216 209.578875 
L 335.371761 209.578875 
L 335.371761 211.015634 
L 337.400852 211.015634 
L 337.400852 209.578875 
L 338.415398 209.578875 
L 338.415398 209.125161 
L 339.429943 209.125161 
L 339.429943 211.771823 
L 340.444489 211.771823 
L 340.444489 210.486302 
L 341.459034 210.486302 
L 341.459034 210.637539 
L 342.47358 210.637539 
L 342.47358 212.225536 
L 343.488125 212.225536 
L 343.488125 212.376774 
L 344.50267 212.376774 
L 344.50267 213.737914 
L 345.517216 213.737914 
L 345.517216 214.267247 
L 346.531761 214.267247 
L 346.531761 214.418485 
L 347.546307 214.418485 
L 347.546307 215.552768 
L 348.560852 215.552768 
L 348.560852 215.174674 
L 349.575398 215.174674 
L 349.575398 216.913908 
L 350.589943 216.913908 
L 350.589943 217.292003 
L 351.604489 217.292003 
L 351.604489 218.048192 
L 352.619034 218.048192 
L 352.619034 218.577524 
L 353.63358 218.577524 
L 353.63358 218.728762 
L 354.648125 218.728762 
L 354.648125 218.88 
L 372.909943 218.88 
L 372.909943 218.88 
" clip-path="url(#p0e0aa80684)" style="fill: none; stroke: #ff7f0e; stroke-width: 1.5; stroke-linecap: square"/>
   </g>
  </g>
 </g>
 <defs>
  <clipPath id="p0e0aa80684">
   <rect x="53.328125" y="7.2" width="334.8" height="221.76"/>
  </clipPath>
 </defs>
</svg>
