<?xml version="1.0" encoding="utf-8" standalone="no"?>
<!DOCTYPE svg PUBLIC "-//W3C//DTD SVG 1.1//EN"
  "http://www.w3.org/Graphics/SVG/1.1/DTD/svg11.dtd">
<svg xmlns:xlink="http://www.w3.org/1999/xlink" width="382.734953pt" height="269.540459pt" viewBox="0 0 382.734953 269.540459" xmlns="http://www.w3.org/2000/svg" version="1.1">
 <metadata>
  <rdf:RDF xmlns:dc="http://purl.org/dc/elements/1.1/" xmlns:cc="http://creativecommons.org/ns#" xmlns:rdf="http://www.w3.org/1999/02/22-rdf-syntax-ns#">
   <cc:Work>
    <dc:type rdf:resource="http://purl.org/dc/dcmitype/StillImage"/>
    <dc:date>2025-01-20T13:49:48.309591</dc:date>
    <dc:format>image/svg+xml</dc:format>
    <dc:creator>
     <cc:Agent>
      <dc:title>Matplotlib v3.7.3, https://matplotlib.org/</dc:title>
     </cc:Agent>
    </dc:creator>
   </cc:Work>
  </rdf:RDF>
 </metadata>
 <defs>
  <style type="text/css">*{stroke-linejoin: round; stroke-linecap: butt}</style>
 </defs>
 <g id="figure_1">
  <g id="patch_1">
   <path d="M 0 269.540459 
L 382.734953 269.540459 
L 382.734953 0 
L 0 0 
z
" style="fill: #ffffff"/>
  </g>
  <g id="axes_1">
   <g id="patch_2">
    <path d="M 40.603125 231.706084 
L 375.403125 231.706084 
L 375.403125 9.946084 
L 40.603125 9.946084 
z
" style="fill: #ffffff"/>
   </g>
   <g id="matplotlib.axis_1">
    <g id="xtick_1">
     <g id="line2d_1">
      <defs>
       <path id="m13c82d316f" d="M 0 0 
L 0 3.5 
" style="stroke: #000000; stroke-width: 0.8"/>
      </defs>
      <g>
       <use xlink:href="#m13c82d316f" x="98.49408" y="231.706084" style="stroke: #000000; stroke-width: 0.8"/>
      </g>
     </g>
     <g id="text_1">
      <!-- 10000 -->
      <g transform="translate(82.58783 246.304522) scale(0.1 -0.1)">
       <defs>
        <path id="DejaVuSans-31" d="M 794 531 
L 1825 531 
L 1825 4091 
L 703 3866 
L 703 4441 
L 1819 4666 
L 2450 4666 
L 2450 531 
L 3481 531 
L 3481 0 
L 794 0 
L 794 531 
z
" transform="scale(0.015625)"/>
        <path id="DejaVuSans-30" d="M 2034 4250 
Q 1547 4250 1301 3770 
Q 1056 3291 1056 2328 
Q 1056 1369 1301 889 
Q 1547 409 2034 409 
Q 2525 409 2770 889 
Q 3016 1369 3016 2328 
Q 3016 3291 2770 3770 
Q 2525 4250 2034 4250 
z
M 2034 4750 
Q 2819 4750 3233 4129 
Q 3647 3509 3647 2328 
Q 3647 1150 3233 529 
Q 2819 -91 2034 -91 
Q 1250 -91 836 529 
Q 422 1150 422 2328 
Q 422 3509 836 4129 
Q 1250 4750 2034 4750 
z
" transform="scale(0.015625)"/>
       </defs>
       <use xlink:href="#DejaVuSans-31"/>
       <use xlink:href="#DejaVuSans-30" x="63.623047"/>
       <use xlink:href="#DejaVuSans-30" x="127.246094"/>
       <use xlink:href="#DejaVuSans-30" x="190.869141"/>
       <use xlink:href="#DejaVuSans-30" x="254.492188"/>
      </g>
     </g>
    </g>
    <g id="xtick_2">
     <g id="line2d_2">
      <g>
       <use xlink:href="#m13c82d316f" x="163.777736" y="231.706084" style="stroke: #000000; stroke-width: 0.8"/>
      </g>
     </g>
     <g id="text_2">
      <!-- 20000 -->
      <g transform="translate(147.871486 246.304522) scale(0.1 -0.1)">
       <defs>
        <path id="DejaVuSans-32" d="M 1228 531 
L 3431 531 
L 3431 0 
L 469 0 
L 469 531 
Q 828 903 1448 1529 
Q 2069 2156 2228 2338 
Q 2531 2678 2651 2914 
Q 2772 3150 2772 3378 
Q 2772 3750 2511 3984 
Q 2250 4219 1831 4219 
Q 1534 4219 1204 4116 
Q 875 4013 500 3803 
L 500 4441 
Q 881 4594 1212 4672 
Q 1544 4750 1819 4750 
Q 2544 4750 2975 4387 
Q 3406 4025 3406 3419 
Q 3406 3131 3298 2873 
Q 3191 2616 2906 2266 
Q 2828 2175 2409 1742 
Q 1991 1309 1228 531 
z
" transform="scale(0.015625)"/>
       </defs>
       <use xlink:href="#DejaVuSans-32"/>
       <use xlink:href="#DejaVuSans-30" x="63.623047"/>
       <use xlink:href="#DejaVuSans-30" x="127.246094"/>
       <use xlink:href="#DejaVuSans-30" x="190.869141"/>
       <use xlink:href="#DejaVuSans-30" x="254.492188"/>
      </g>
     </g>
    </g>
    <g id="xtick_3">
     <g id="line2d_3">
      <g>
       <use xlink:href="#m13c82d316f" x="229.061392" y="231.706084" style="stroke: #000000; stroke-width: 0.8"/>
      </g>
     </g>
     <g id="text_3">
      <!-- 30000 -->
      <g transform="translate(213.155142 246.304522) scale(0.1 -0.1)">
       <defs>
        <path id="DejaVuSans-33" d="M 2597 2516 
Q 3050 2419 3304 2112 
Q 3559 1806 3559 1356 
Q 3559 666 3084 287 
Q 2609 -91 1734 -91 
Q 1441 -91 1130 -33 
Q 819 25 488 141 
L 488 750 
Q 750 597 1062 519 
Q 1375 441 1716 441 
Q 2309 441 2620 675 
Q 2931 909 2931 1356 
Q 2931 1769 2642 2001 
Q 2353 2234 1838 2234 
L 1294 2234 
L 1294 2753 
L 1863 2753 
Q 2328 2753 2575 2939 
Q 2822 3125 2822 3475 
Q 2822 3834 2567 4026 
Q 2313 4219 1838 4219 
Q 1578 4219 1281 4162 
Q 984 4106 628 3988 
L 628 4550 
Q 988 4650 1302 4700 
Q 1616 4750 1894 4750 
Q 2613 4750 3031 4423 
Q 3450 4097 3450 3541 
Q 3450 3153 3228 2886 
Q 3006 2619 2597 2516 
z
" transform="scale(0.015625)"/>
       </defs>
       <use xlink:href="#DejaVuSans-33"/>
       <use xlink:href="#DejaVuSans-30" x="63.623047"/>
       <use xlink:href="#DejaVuSans-30" x="127.246094"/>
       <use xlink:href="#DejaVuSans-30" x="190.869141"/>
       <use xlink:href="#DejaVuSans-30" x="254.492188"/>
      </g>
     </g>
    </g>
    <g id="xtick_4">
     <g id="line2d_4">
      <g>
       <use xlink:href="#m13c82d316f" x="294.345047" y="231.706084" style="stroke: #000000; stroke-width: 0.8"/>
      </g>
     </g>
     <g id="text_4">
      <!-- 40000 -->
      <g transform="translate(278.438797 246.304522) scale(0.1 -0.1)">
       <defs>
        <path id="DejaVuSans-34" d="M 2419 4116 
L 825 1625 
L 2419 1625 
L 2419 4116 
z
M 2253 4666 
L 3047 4666 
L 3047 1625 
L 3713 1625 
L 3713 1100 
L 3047 1100 
L 3047 0 
L 2419 0 
L 2419 1100 
L 313 1100 
L 313 1709 
L 2253 4666 
z
" transform="scale(0.015625)"/>
       </defs>
       <use xlink:href="#DejaVuSans-34"/>
       <use xlink:href="#DejaVuSans-30" x="63.623047"/>
       <use xlink:href="#DejaVuSans-30" x="127.246094"/>
       <use xlink:href="#DejaVuSans-30" x="190.869141"/>
       <use xlink:href="#DejaVuSans-30" x="254.492188"/>
      </g>
     </g>
    </g>
    <g id="xtick_5">
     <g id="line2d_5">
      <g>
       <use xlink:href="#m13c82d316f" x="359.628703" y="231.706084" style="stroke: #000000; stroke-width: 0.8"/>
      </g>
     </g>
     <g id="text_5">
      <!-- 50000 -->
      <g transform="translate(343.722453 246.304522) scale(0.1 -0.1)">
       <defs>
        <path id="DejaVuSans-35" d="M 691 4666 
L 3169 4666 
L 3169 4134 
L 1269 4134 
L 1269 2991 
Q 1406 3038 1543 3061 
Q 1681 3084 1819 3084 
Q 2600 3084 3056 2656 
Q 3513 2228 3513 1497 
Q 3513 744 3044 326 
Q 2575 -91 1722 -91 
Q 1428 -91 1123 -41 
Q 819 9 494 109 
L 494 744 
Q 775 591 1075 516 
Q 1375 441 1709 441 
Q 2250 441 2565 725 
Q 2881 1009 2881 1497 
Q 2881 1984 2565 2268 
Q 2250 2553 1709 2553 
Q 1456 2553 1204 2497 
Q 953 2441 691 2322 
L 691 4666 
z
" transform="scale(0.015625)"/>
       </defs>
       <use xlink:href="#DejaVuSans-35"/>
       <use xlink:href="#DejaVuSans-30" x="63.623047"/>
       <use xlink:href="#DejaVuSans-30" x="127.246094"/>
       <use xlink:href="#DejaVuSans-30" x="190.869141"/>
       <use xlink:href="#DejaVuSans-30" x="254.492188"/>
      </g>
     </g>
    </g>
    <g id="text_6">
     <!-- time_of_arrival [µs] -->
     <g transform="translate(159.721875 259.982647) scale(0.1 -0.1)">
      <defs>
       <path id="DejaVuSans-74" d="M 1172 4494 
L 1172 3500 
L 2356 3500 
L 2356 3053 
L 1172 3053 
L 1172 1153 
Q 1172 725 1289 603 
Q 1406 481 1766 481 
L 2356 481 
L 2356 0 
L 1766 0 
Q 1100 0 847 248 
Q 594 497 594 1153 
L 594 3053 
L 172 3053 
L 172 3500 
L 594 3500 
L 594 4494 
L 1172 4494 
z
" transform="scale(0.015625)"/>
       <path id="DejaVuSans-69" d="M 603 3500 
L 1178 3500 
L 1178 0 
L 603 0 
L 603 3500 
z
M 603 4863 
L 1178 4863 
L 1178 4134 
L 603 4134 
L 603 4863 
z
" transform="scale(0.015625)"/>
       <path id="DejaVuSans-6d" d="M 3328 2828 
Q 3544 3216 3844 3400 
Q 4144 3584 4550 3584 
Q 5097 3584 5394 3201 
Q 5691 2819 5691 2113 
L 5691 0 
L 5113 0 
L 5113 2094 
Q 5113 2597 4934 2840 
Q 4756 3084 4391 3084 
Q 3944 3084 3684 2787 
Q 3425 2491 3425 1978 
L 3425 0 
L 2847 0 
L 2847 2094 
Q 2847 2600 2669 2842 
Q 2491 3084 2119 3084 
Q 1678 3084 1418 2786 
Q 1159 2488 1159 1978 
L 1159 0 
L 581 0 
L 581 3500 
L 1159 3500 
L 1159 2956 
Q 1356 3278 1631 3431 
Q 1906 3584 2284 3584 
Q 2666 3584 2933 3390 
Q 3200 3197 3328 2828 
z
" transform="scale(0.015625)"/>
       <path id="DejaVuSans-65" d="M 3597 1894 
L 3597 1613 
L 953 1613 
Q 991 1019 1311 708 
Q 1631 397 2203 397 
Q 2534 397 2845 478 
Q 3156 559 3463 722 
L 3463 178 
Q 3153 47 2828 -22 
Q 2503 -91 2169 -91 
Q 1331 -91 842 396 
Q 353 884 353 1716 
Q 353 2575 817 3079 
Q 1281 3584 2069 3584 
Q 2775 3584 3186 3129 
Q 3597 2675 3597 1894 
z
M 3022 2063 
Q 3016 2534 2758 2815 
Q 2500 3097 2075 3097 
Q 1594 3097 1305 2825 
Q 1016 2553 972 2059 
L 3022 2063 
z
" transform="scale(0.015625)"/>
       <path id="DejaVuSans-5f" d="M 3263 -1063 
L 3263 -1509 
L -63 -1509 
L -63 -1063 
L 3263 -1063 
z
" transform="scale(0.015625)"/>
       <path id="DejaVuSans-6f" d="M 1959 3097 
Q 1497 3097 1228 2736 
Q 959 2375 959 1747 
Q 959 1119 1226 758 
Q 1494 397 1959 397 
Q 2419 397 2687 759 
Q 2956 1122 2956 1747 
Q 2956 2369 2687 2733 
Q 2419 3097 1959 3097 
z
M 1959 3584 
Q 2709 3584 3137 3096 
Q 3566 2609 3566 1747 
Q 3566 888 3137 398 
Q 2709 -91 1959 -91 
Q 1206 -91 779 398 
Q 353 888 353 1747 
Q 353 2609 779 3096 
Q 1206 3584 1959 3584 
z
" transform="scale(0.015625)"/>
       <path id="DejaVuSans-66" d="M 2375 4863 
L 2375 4384 
L 1825 4384 
Q 1516 4384 1395 4259 
Q 1275 4134 1275 3809 
L 1275 3500 
L 2222 3500 
L 2222 3053 
L 1275 3053 
L 1275 0 
L 697 0 
L 697 3053 
L 147 3053 
L 147 3500 
L 697 3500 
L 697 3744 
Q 697 4328 969 4595 
Q 1241 4863 1831 4863 
L 2375 4863 
z
" transform="scale(0.015625)"/>
       <path id="DejaVuSans-61" d="M 2194 1759 
Q 1497 1759 1228 1600 
Q 959 1441 959 1056 
Q 959 750 1161 570 
Q 1363 391 1709 391 
Q 2188 391 2477 730 
Q 2766 1069 2766 1631 
L 2766 1759 
L 2194 1759 
z
M 3341 1997 
L 3341 0 
L 2766 0 
L 2766 531 
Q 2569 213 2275 61 
Q 1981 -91 1556 -91 
Q 1019 -91 701 211 
Q 384 513 384 1019 
Q 384 1609 779 1909 
Q 1175 2209 1959 2209 
L 2766 2209 
L 2766 2266 
Q 2766 2663 2505 2880 
Q 2244 3097 1772 3097 
Q 1472 3097 1187 3025 
Q 903 2953 641 2809 
L 641 3341 
Q 956 3463 1253 3523 
Q 1550 3584 1831 3584 
Q 2591 3584 2966 3190 
Q 3341 2797 3341 1997 
z
" transform="scale(0.015625)"/>
       <path id="DejaVuSans-72" d="M 2631 2963 
Q 2534 3019 2420 3045 
Q 2306 3072 2169 3072 
Q 1681 3072 1420 2755 
Q 1159 2438 1159 1844 
L 1159 0 
L 581 0 
L 581 3500 
L 1159 3500 
L 1159 2956 
Q 1341 3275 1631 3429 
Q 1922 3584 2338 3584 
Q 2397 3584 2469 3576 
Q 2541 3569 2628 3553 
L 2631 2963 
z
" transform="scale(0.015625)"/>
       <path id="DejaVuSans-76" d="M 191 3500 
L 800 3500 
L 1894 563 
L 2988 3500 
L 3597 3500 
L 2284 0 
L 1503 0 
L 191 3500 
z
" transform="scale(0.015625)"/>
       <path id="DejaVuSans-6c" d="M 603 4863 
L 1178 4863 
L 1178 0 
L 603 0 
L 603 4863 
z
" transform="scale(0.015625)"/>
       <path id="DejaVuSans-20" transform="scale(0.015625)"/>
       <path id="DejaVuSans-5b" d="M 550 4863 
L 1875 4863 
L 1875 4416 
L 1125 4416 
L 1125 -397 
L 1875 -397 
L 1875 -844 
L 550 -844 
L 550 4863 
z
" transform="scale(0.015625)"/>
       <path id="DejaVuSans-b5" d="M 544 -1331 
L 544 3500 
L 1119 3500 
L 1119 1325 
Q 1119 872 1334 640 
Q 1550 409 1972 409 
Q 2434 409 2667 671 
Q 2900 934 2900 1459 
L 2900 3500 
L 3475 3500 
L 3475 806 
Q 3475 619 3529 530 
Q 3584 441 3700 441 
Q 3728 441 3778 458 
Q 3828 475 3916 513 
L 3916 50 
Q 3788 -22 3673 -56 
Q 3559 -91 3450 -91 
Q 3234 -91 3106 31 
Q 2978 153 2931 403 
Q 2775 156 2548 32 
Q 2322 -91 2016 -91 
Q 1697 -91 1473 31 
Q 1250 153 1119 397 
L 1119 -1331 
L 544 -1331 
z
" transform="scale(0.015625)"/>
       <path id="DejaVuSans-73" d="M 2834 3397 
L 2834 2853 
Q 2591 2978 2328 3040 
Q 2066 3103 1784 3103 
Q 1356 3103 1142 2972 
Q 928 2841 928 2578 
Q 928 2378 1081 2264 
Q 1234 2150 1697 2047 
L 1894 2003 
Q 2506 1872 2764 1633 
Q 3022 1394 3022 966 
Q 3022 478 2636 193 
Q 2250 -91 1575 -91 
Q 1294 -91 989 -36 
Q 684 19 347 128 
L 347 722 
Q 666 556 975 473 
Q 1284 391 1588 391 
Q 1994 391 2212 530 
Q 2431 669 2431 922 
Q 2431 1156 2273 1281 
Q 2116 1406 1581 1522 
L 1381 1569 
Q 847 1681 609 1914 
Q 372 2147 372 2553 
Q 372 3047 722 3315 
Q 1072 3584 1716 3584 
Q 2034 3584 2315 3537 
Q 2597 3491 2834 3397 
z
" transform="scale(0.015625)"/>
       <path id="DejaVuSans-5d" d="M 1947 4863 
L 1947 -844 
L 622 -844 
L 622 -397 
L 1369 -397 
L 1369 4416 
L 622 4416 
L 622 4863 
L 1947 4863 
z
" transform="scale(0.015625)"/>
      </defs>
      <use xlink:href="#DejaVuSans-74"/>
      <use xlink:href="#DejaVuSans-69" x="39.208984"/>
      <use xlink:href="#DejaVuSans-6d" x="66.992188"/>
      <use xlink:href="#DejaVuSans-65" x="164.404297"/>
      <use xlink:href="#DejaVuSans-5f" x="225.927734"/>
      <use xlink:href="#DejaVuSans-6f" x="275.927734"/>
      <use xlink:href="#DejaVuSans-66" x="337.109375"/>
      <use xlink:href="#DejaVuSans-5f" x="372.314453"/>
      <use xlink:href="#DejaVuSans-61" x="422.314453"/>
      <use xlink:href="#DejaVuSans-72" x="483.59375"/>
      <use xlink:href="#DejaVuSans-72" x="522.957031"/>
      <use xlink:href="#DejaVuSans-69" x="564.070312"/>
      <use xlink:href="#DejaVuSans-76" x="591.853516"/>
      <use xlink:href="#DejaVuSans-61" x="651.033203"/>
      <use xlink:href="#DejaVuSans-6c" x="712.3125"/>
      <use xlink:href="#DejaVuSans-20" x="740.095703"/>
      <use xlink:href="#DejaVuSans-5b" x="771.882812"/>
      <use xlink:href="#DejaVuSans-b5" x="810.896484"/>
      <use xlink:href="#DejaVuSans-73" x="874.519531"/>
      <use xlink:href="#DejaVuSans-5d" x="926.619141"/>
     </g>
    </g>
   </g>
   <g id="matplotlib.axis_2">
    <g id="ytick_1">
     <g id="line2d_6">
      <defs>
       <path id="m1ee712c740" d="M 0 0 
L -3.5 0 
" style="stroke: #000000; stroke-width: 0.8"/>
      </defs>
      <g>
       <use xlink:href="#m1ee712c740" x="40.603125" y="221.626084" style="stroke: #000000; stroke-width: 0.8"/>
      </g>
     </g>
     <g id="text_7">
      <!-- 0 -->
      <g transform="translate(27.240625 225.425303) scale(0.1 -0.1)">
       <use xlink:href="#DejaVuSans-30"/>
      </g>
     </g>
    </g>
    <g id="ytick_2">
     <g id="line2d_7">
      <g>
       <use xlink:href="#m1ee712c740" x="40.603125" y="191.536532" style="stroke: #000000; stroke-width: 0.8"/>
      </g>
     </g>
     <g id="text_8">
      <!-- 10 -->
      <g transform="translate(20.878125 195.335751) scale(0.1 -0.1)">
       <use xlink:href="#DejaVuSans-31"/>
       <use xlink:href="#DejaVuSans-30" x="63.623047"/>
      </g>
     </g>
    </g>
    <g id="ytick_3">
     <g id="line2d_8">
      <g>
       <use xlink:href="#m1ee712c740" x="40.603125" y="161.44698" style="stroke: #000000; stroke-width: 0.8"/>
      </g>
     </g>
     <g id="text_9">
      <!-- 20 -->
      <g transform="translate(20.878125 165.246199) scale(0.1 -0.1)">
       <use xlink:href="#DejaVuSans-32"/>
       <use xlink:href="#DejaVuSans-30" x="63.623047"/>
      </g>
     </g>
    </g>
    <g id="ytick_4">
     <g id="line2d_9">
      <g>
       <use xlink:href="#m1ee712c740" x="40.603125" y="131.357428" style="stroke: #000000; stroke-width: 0.8"/>
      </g>
     </g>
     <g id="text_10">
      <!-- 30 -->
      <g transform="translate(20.878125 135.156646) scale(0.1 -0.1)">
       <use xlink:href="#DejaVuSans-33"/>
       <use xlink:href="#DejaVuSans-30" x="63.623047"/>
      </g>
     </g>
    </g>
    <g id="ytick_5">
     <g id="line2d_10">
      <g>
       <use xlink:href="#m1ee712c740" x="40.603125" y="101.267875" style="stroke: #000000; stroke-width: 0.8"/>
      </g>
     </g>
     <g id="text_11">
      <!-- 40 -->
      <g transform="translate(20.878125 105.067094) scale(0.1 -0.1)">
       <use xlink:href="#DejaVuSans-34"/>
       <use xlink:href="#DejaVuSans-30" x="63.623047"/>
      </g>
     </g>
    </g>
    <g id="ytick_6">
     <g id="line2d_11">
      <g>
       <use xlink:href="#m1ee712c740" x="40.603125" y="71.178323" style="stroke: #000000; stroke-width: 0.8"/>
      </g>
     </g>
     <g id="text_12">
      <!-- 50 -->
      <g transform="translate(20.878125 74.977542) scale(0.1 -0.1)">
       <use xlink:href="#DejaVuSans-35"/>
       <use xlink:href="#DejaVuSans-30" x="63.623047"/>
      </g>
     </g>
    </g>
    <g id="ytick_7">
     <g id="line2d_12">
      <g>
       <use xlink:href="#m1ee712c740" x="40.603125" y="41.088771" style="stroke: #000000; stroke-width: 0.8"/>
      </g>
     </g>
     <g id="text_13">
      <!-- 60 -->
      <g transform="translate(20.878125 44.88799) scale(0.1 -0.1)">
       <defs>
        <path id="DejaVuSans-36" d="M 2113 2584 
Q 1688 2584 1439 2293 
Q 1191 2003 1191 1497 
Q 1191 994 1439 701 
Q 1688 409 2113 409 
Q 2538 409 2786 701 
Q 3034 994 3034 1497 
Q 3034 2003 2786 2293 
Q 2538 2584 2113 2584 
z
M 3366 4563 
L 3366 3988 
Q 3128 4100 2886 4159 
Q 2644 4219 2406 4219 
Q 1781 4219 1451 3797 
Q 1122 3375 1075 2522 
Q 1259 2794 1537 2939 
Q 1816 3084 2150 3084 
Q 2853 3084 3261 2657 
Q 3669 2231 3669 1497 
Q 3669 778 3244 343 
Q 2819 -91 2113 -91 
Q 1303 -91 875 529 
Q 447 1150 447 2328 
Q 447 3434 972 4092 
Q 1497 4750 2381 4750 
Q 2619 4750 2861 4703 
Q 3103 4656 3366 4563 
z
" transform="scale(0.015625)"/>
       </defs>
       <use xlink:href="#DejaVuSans-36"/>
       <use xlink:href="#DejaVuSans-30" x="63.623047"/>
      </g>
     </g>
    </g>
    <g id="ytick_8">
     <g id="line2d_13">
      <g>
       <use xlink:href="#m1ee712c740" x="40.603125" y="10.999219" style="stroke: #000000; stroke-width: 0.8"/>
      </g>
     </g>
     <g id="text_14">
      <!-- 70 -->
      <g transform="translate(20.878125 14.798437) scale(0.1 -0.1)">
       <defs>
        <path id="DejaVuSans-37" d="M 525 4666 
L 3525 4666 
L 3525 4397 
L 1831 0 
L 1172 0 
L 2766 4134 
L 525 4134 
L 525 4666 
z
" transform="scale(0.015625)"/>
       </defs>
       <use xlink:href="#DejaVuSans-37"/>
       <use xlink:href="#DejaVuSans-30" x="63.623047"/>
      </g>
     </g>
    </g>
    <g id="text_15">
     <!-- [counts] -->
     <g transform="translate(14.798438 141.438584) rotate(-90) scale(0.1 -0.1)">
      <defs>
       <path id="DejaVuSans-63" d="M 3122 3366 
L 3122 2828 
Q 2878 2963 2633 3030 
Q 2388 3097 2138 3097 
Q 1578 3097 1268 2742 
Q 959 2388 959 1747 
Q 959 1106 1268 751 
Q 1578 397 2138 397 
Q 2388 397 2633 464 
Q 2878 531 3122 666 
L 3122 134 
Q 2881 22 2623 -34 
Q 2366 -91 2075 -91 
Q 1284 -91 818 406 
Q 353 903 353 1747 
Q 353 2603 823 3093 
Q 1294 3584 2113 3584 
Q 2378 3584 2631 3529 
Q 2884 3475 3122 3366 
z
" transform="scale(0.015625)"/>
       <path id="DejaVuSans-75" d="M 544 1381 
L 544 3500 
L 1119 3500 
L 1119 1403 
Q 1119 906 1312 657 
Q 1506 409 1894 409 
Q 2359 409 2629 706 
Q 2900 1003 2900 1516 
L 2900 3500 
L 3475 3500 
L 3475 0 
L 2900 0 
L 2900 538 
Q 2691 219 2414 64 
Q 2138 -91 1772 -91 
Q 1169 -91 856 284 
Q 544 659 544 1381 
z
M 1991 3584 
L 1991 3584 
z
" transform="scale(0.015625)"/>
       <path id="DejaVuSans-6e" d="M 3513 2113 
L 3513 0 
L 2938 0 
L 2938 2094 
Q 2938 2591 2744 2837 
Q 2550 3084 2163 3084 
Q 1697 3084 1428 2787 
Q 1159 2491 1159 1978 
L 1159 0 
L 581 0 
L 581 3500 
L 1159 3500 
L 1159 2956 
Q 1366 3272 1645 3428 
Q 1925 3584 2291 3584 
Q 2894 3584 3203 3211 
Q 3513 2838 3513 2113 
z
" transform="scale(0.015625)"/>
      </defs>
      <use xlink:href="#DejaVuSans-5b"/>
      <use xlink:href="#DejaVuSans-63" x="39.013672"/>
      <use xlink:href="#DejaVuSans-6f" x="93.994141"/>
      <use xlink:href="#DejaVuSans-75" x="155.175781"/>
      <use xlink:href="#DejaVuSans-6e" x="218.554688"/>
      <use xlink:href="#DejaVuSans-74" x="281.933594"/>
      <use xlink:href="#DejaVuSans-73" x="321.142578"/>
      <use xlink:href="#DejaVuSans-5d" x="373.242188"/>
     </g>
    </g>
   </g>
   <g id="patch_3">
    <path d="M 40.603125 231.706084 
L 40.603125 9.946084 
" style="fill: none; stroke: #000000; stroke-width: 0.8; stroke-linejoin: miter; stroke-linecap: square"/>
   </g>
   <g id="patch_4">
    <path d="M 375.403125 231.706084 
L 375.403125 9.946084 
" style="fill: none; stroke: #000000; stroke-width: 0.8; stroke-linejoin: miter; stroke-linecap: square"/>
   </g>
   <g id="patch_5">
    <path d="M 40.603125 231.706084 
L 375.403125 231.706084 
" style="fill: none; stroke: #000000; stroke-width: 0.8; stroke-linejoin: miter; stroke-linecap: square"/>
   </g>
   <g id="patch_6">
    <path d="M 40.603125 9.946084 
L 375.403125 9.946084 
" style="fill: none; stroke: #000000; stroke-width: 0.8; stroke-linejoin: miter; stroke-linecap: square"/>
   </g>
   <g id="line2d_14">
    <path d="M 55.821307 215.608174 
L 58.864943 215.608174 
L 58.864943 221.626084 
L 63.430398 221.626084 
L 63.430398 218.617129 
L 64.952216 218.617129 
L 64.952216 221.626084 
L 66.474034 221.626084 
L 66.474034 218.617129 
L 67.995852 218.617129 
L 67.995852 221.626084 
L 71.039489 221.626084 
L 71.039489 218.617129 
L 72.561307 218.617129 
L 72.561307 221.626084 
L 78.64858 221.626084 
L 78.64858 218.617129 
L 81.692216 218.617129 
L 81.692216 212.599219 
L 83.214034 212.599219 
L 83.214034 221.626084 
L 84.735852 221.626084 
L 84.735852 218.617129 
L 89.301307 218.617129 
L 89.301307 212.599219 
L 90.823125 212.599219 
L 90.823125 221.626084 
L 92.344943 221.626084 
L 92.344943 218.617129 
L 93.866761 218.617129 
L 93.866761 221.626084 
L 95.38858 221.626084 
L 95.38858 218.617129 
L 96.910398 218.617129 
L 96.910398 212.599219 
L 98.432216 212.599219 
L 98.432216 218.617129 
L 101.475852 218.617129 
L 101.475852 221.626084 
L 104.519489 221.626084 
L 104.519489 215.608174 
L 107.563125 215.608174 
L 107.563125 212.599219 
L 109.084943 212.599219 
L 109.084943 209.590264 
L 110.606761 209.590264 
L 110.606761 215.608174 
L 113.650398 215.608174 
L 113.650398 209.590264 
L 119.73767 209.590264 
L 119.73767 206.581308 
L 121.259489 206.581308 
L 121.259489 194.545487 
L 122.781307 194.545487 
L 122.781307 212.599219 
L 124.303125 212.599219 
L 124.303125 203.572353 
L 125.824943 203.572353 
L 125.824943 206.581308 
L 130.390398 206.581308 
L 130.390398 203.572353 
L 131.912216 203.572353 
L 131.912216 200.563398 
L 133.434034 200.563398 
L 133.434034 212.599219 
L 134.955852 212.599219 
L 134.955852 200.563398 
L 136.47767 200.563398 
L 136.47767 176.491756 
L 137.999489 176.491756 
L 137.999489 197.554443 
L 139.521307 197.554443 
L 139.521307 182.509667 
L 141.043125 182.509667 
L 141.043125 194.545487 
L 142.564943 194.545487 
L 142.564943 179.500711 
L 144.086761 179.500711 
L 144.086761 200.563398 
L 145.60858 200.563398 
L 145.60858 191.536532 
L 147.130398 191.536532 
L 147.130398 167.46489 
L 148.652216 167.46489 
L 148.652216 173.482801 
L 150.174034 173.482801 
L 150.174034 164.455935 
L 151.695852 164.455935 
L 151.695852 143.393249 
L 153.21767 143.393249 
L 153.21767 164.455935 
L 154.739489 164.455935 
L 154.739489 149.411159 
L 156.261307 149.411159 
L 156.261307 128.348472 
L 157.783125 128.348472 
L 157.783125 119.321607 
L 159.304943 119.321607 
L 159.304943 155.429069 
L 160.826761 155.429069 
L 160.826761 146.402204 
L 162.34858 146.402204 
L 162.34858 125.339517 
L 163.870398 125.339517 
L 163.870398 95.249965 
L 165.392216 95.249965 
L 165.392216 125.339517 
L 166.914034 125.339517 
L 166.914034 104.276831 
L 168.435852 104.276831 
L 168.435852 119.321607 
L 169.95767 119.321607 
L 169.95767 101.267875 
L 171.479489 101.267875 
L 171.479489 98.25892 
L 173.001307 98.25892 
L 173.001307 110.294741 
L 174.523125 110.294741 
L 174.523125 101.267875 
L 176.044943 101.267875 
L 176.044943 95.249965 
L 177.566761 95.249965 
L 177.566761 98.25892 
L 179.08858 98.25892 
L 179.08858 44.097726 
L 180.610398 44.097726 
L 180.610398 74.187278 
L 183.654034 74.187278 
L 183.654034 68.169368 
L 185.175852 68.169368 
L 185.175852 74.187278 
L 186.69767 74.187278 
L 186.69767 92.24101 
L 188.219489 92.24101 
L 188.219489 35.070861 
L 189.741307 35.070861 
L 189.741307 86.223099 
L 191.263125 86.223099 
L 191.263125 47.106681 
L 192.784943 47.106681 
L 192.784943 68.169368 
L 194.306761 68.169368 
L 194.306761 74.187278 
L 195.82858 74.187278 
L 195.82858 38.079816 
L 197.350398 38.079816 
L 197.350398 59.142502 
L 198.872216 59.142502 
L 198.872216 65.160413 
L 200.394034 65.160413 
L 200.394034 71.178323 
L 201.915852 71.178323 
L 201.915852 20.026084 
L 203.43767 20.026084 
L 203.43767 86.223099 
L 204.959489 86.223099 
L 204.959489 50.115637 
L 206.481307 50.115637 
L 206.481307 56.133547 
L 208.003125 56.133547 
L 208.003125 89.232055 
L 209.524943 89.232055 
L 209.524943 71.178323 
L 211.046761 71.178323 
L 211.046761 59.142502 
L 212.56858 59.142502 
L 212.56858 74.187278 
L 214.090398 74.187278 
L 214.090398 95.249965 
L 215.612216 95.249965 
L 215.612216 83.214144 
L 217.134034 83.214144 
L 217.134034 113.303696 
L 218.655852 113.303696 
L 218.655852 101.267875 
L 220.17767 101.267875 
L 220.17767 71.178323 
L 221.699489 71.178323 
L 221.699489 92.24101 
L 223.221307 92.24101 
L 223.221307 83.214144 
L 224.743125 83.214144 
L 224.743125 68.169368 
L 227.786761 68.169368 
L 227.786761 86.223099 
L 229.30858 86.223099 
L 229.30858 113.303696 
L 230.830398 113.303696 
L 230.830398 101.267875 
L 232.352216 101.267875 
L 232.352216 71.178323 
L 233.874034 71.178323 
L 233.874034 83.214144 
L 235.395852 83.214144 
L 235.395852 119.321607 
L 236.91767 119.321607 
L 236.91767 68.169368 
L 238.439489 68.169368 
L 238.439489 134.366383 
L 239.961307 134.366383 
L 239.961307 101.267875 
L 241.483125 101.267875 
L 241.483125 59.142502 
L 243.004943 59.142502 
L 243.004943 56.133547 
L 244.526761 56.133547 
L 244.526761 71.178323 
L 246.04858 71.178323 
L 246.04858 113.303696 
L 247.570398 113.303696 
L 247.570398 125.339517 
L 249.092216 125.339517 
L 249.092216 92.24101 
L 250.614034 92.24101 
L 250.614034 86.223099 
L 252.135852 86.223099 
L 252.135852 104.276831 
L 253.65767 104.276831 
L 253.65767 92.24101 
L 255.179489 92.24101 
L 255.179489 128.348472 
L 256.701307 128.348472 
L 256.701307 131.357428 
L 258.223125 131.357428 
L 258.223125 74.187278 
L 259.744943 74.187278 
L 259.744943 98.25892 
L 261.266761 98.25892 
L 261.266761 140.384293 
L 262.78858 140.384293 
L 262.78858 92.24101 
L 264.310398 92.24101 
L 264.310398 107.285786 
L 265.832216 107.285786 
L 265.832216 116.312652 
L 267.354034 116.312652 
L 267.354034 140.384293 
L 268.875852 140.384293 
L 268.875852 98.25892 
L 270.39767 98.25892 
L 270.39767 122.330562 
L 271.919489 122.330562 
L 271.919489 101.267875 
L 273.441307 101.267875 
L 273.441307 107.285786 
L 274.963125 107.285786 
L 274.963125 137.375338 
L 276.484943 137.375338 
L 276.484943 122.330562 
L 278.006761 122.330562 
L 278.006761 113.303696 
L 279.52858 113.303696 
L 279.52858 104.276831 
L 281.050398 104.276831 
L 281.050398 110.294741 
L 282.572216 110.294741 
L 282.572216 116.312652 
L 284.094034 116.312652 
L 284.094034 101.267875 
L 285.615852 101.267875 
L 285.615852 116.312652 
L 287.13767 116.312652 
L 287.13767 128.348472 
L 288.659489 128.348472 
L 288.659489 119.321607 
L 290.181307 119.321607 
L 290.181307 128.348472 
L 291.703125 128.348472 
L 291.703125 110.294741 
L 293.224943 110.294741 
L 293.224943 134.366383 
L 294.746761 134.366383 
L 294.746761 119.321607 
L 296.26858 119.321607 
L 296.26858 116.312652 
L 297.790398 116.312652 
L 297.790398 137.375338 
L 299.312216 137.375338 
L 299.312216 140.384293 
L 300.834034 140.384293 
L 300.834034 116.312652 
L 302.355852 116.312652 
L 302.355852 131.357428 
L 305.399489 131.357428 
L 305.399489 137.375338 
L 306.921307 137.375338 
L 306.921307 143.393249 
L 308.443125 143.393249 
L 308.443125 137.375338 
L 309.964943 137.375338 
L 309.964943 158.438025 
L 311.486761 158.438025 
L 311.486761 149.411159 
L 313.00858 149.411159 
L 313.00858 176.491756 
L 314.530398 176.491756 
L 314.530398 149.411159 
L 316.052216 149.411159 
L 316.052216 161.44698 
L 317.574034 161.44698 
L 317.574034 140.384293 
L 319.095852 140.384293 
L 319.095852 149.411159 
L 320.61767 149.411159 
L 320.61767 173.482801 
L 322.139489 173.482801 
L 322.139489 176.491756 
L 323.661307 176.491756 
L 323.661307 185.518622 
L 325.183125 185.518622 
L 325.183125 164.455935 
L 326.704943 164.455935 
L 326.704943 167.46489 
L 328.226761 167.46489 
L 328.226761 173.482801 
L 331.270398 173.482801 
L 331.270398 197.554443 
L 332.792216 197.554443 
L 332.792216 167.46489 
L 334.314034 167.46489 
L 334.314034 188.527577 
L 335.835852 188.527577 
L 335.835852 200.563398 
L 337.35767 200.563398 
L 337.35767 197.554443 
L 338.879489 197.554443 
L 338.879489 188.527577 
L 340.401307 188.527577 
L 340.401307 212.599219 
L 341.923125 212.599219 
L 341.923125 200.563398 
L 343.444943 200.563398 
L 343.444943 194.545487 
L 344.966761 194.545487 
L 344.966761 215.608174 
L 346.48858 215.608174 
L 346.48858 209.590264 
L 348.010398 209.590264 
L 348.010398 206.581308 
L 351.054034 206.581308 
L 351.054034 212.599219 
L 352.575852 212.599219 
L 352.575852 221.626084 
L 355.619489 221.626084 
L 355.619489 215.608174 
L 357.141307 215.608174 
L 357.141307 218.617129 
L 360.184943 218.617129 
L 360.184943 218.617129 
" clip-path="url(#p56459a2a93)" style="fill: none; stroke: #1f77b4; stroke-width: 1.5; stroke-linecap: square"/>
   </g>
  </g>
 </g>
 <defs>
  <clipPath id="p56459a2a93">
   <rect x="40.603125" y="9.946084" width="334.8" height="221.76"/>
  </clipPath>
 </defs>
</svg>
