<?xml version="1.0" encoding="UTF-8" standalone="no"?>
<!DOCTYPE svg PUBLIC "-//W3C//DTD SVG 1.1//EN"
 "http://www.w3.org/Graphics/SVG/1.1/DTD/svg11.dtd">
<!-- Generated by graphviz version 14.1.2 (20260126.1125)
 -->
<!-- Pages: 1 -->
<svg width="1044pt" height="523pt"
 viewBox="0.00 0.00 1044.00 523.00" xmlns="http://www.w3.org/2000/svg" xmlns:xlink="http://www.w3.org/1999/xlink">
<g id="graph0" class="graph" transform="scale(1 1) rotate(0) translate(4 519.25)">
<polygon fill="white" stroke="none" points="-4,4 -4,-519.25 1039.5,-519.25 1039.5,4 -4,4"/>
<!-- source_position -->
<g id="node1" class="node">
<title>source_position</title>
<polygon fill="none" stroke="black" points="866.62,-515.25 739.62,-515.25 739.62,-490 866.62,-490 866.62,-515.25"/>
<text xml:space="preserve" text-anchor="middle" x="803.12" y="-497.95" font-family="Times,serif" font-size="14.00">source_position</text>
</g>
<!-- incident_beam -->
<g id="node2" class="node">
<title>incident_beam</title>
<polygon fill="none" stroke="black" points="797.88,-454 678.38,-454 678.38,-428.75 797.88,-428.75 797.88,-454"/>
<text xml:space="preserve" text-anchor="middle" x="738.12" y="-436.7" font-family="Times,serif" font-size="14.00">incident_beam</text>
</g>
<!-- source_position&#45;&gt;incident_beam -->
<g id="edge1" class="edge">
<title>source_position&#45;&gt;incident_beam</title>
<path fill="none" stroke="black" d="M789.97,-489.63C781.25,-481.68 769.6,-471.07 759.56,-461.91"/>
<polygon fill="black" stroke="black" points="762.13,-459.52 752.38,-455.37 757.41,-464.69 762.13,-459.52"/>
</g>
<!-- L1 -->
<g id="node6" class="node">
<title>L1</title>
<polygon fill="none" stroke="black" points="582.12,-392.75 528.12,-392.75 528.12,-367.5 582.12,-367.5 582.12,-392.75"/>
<text xml:space="preserve" text-anchor="middle" x="555.12" y="-375.45" font-family="Times,serif" font-size="14.00">L1</text>
</g>
<!-- incident_beam&#45;&gt;L1 -->
<g id="edge5" class="edge">
<title>incident_beam&#45;&gt;L1</title>
<path fill="none" stroke="black" d="M701.09,-428.38C669.7,-418.22 624.86,-403.7 593.18,-393.45"/>
<polygon fill="black" stroke="black" points="594.6,-390.23 584.01,-390.48 592.45,-396.89 594.6,-390.23"/>
</g>
<!-- two_theta -->
<g id="node8" class="node">
<title>two_theta</title>
<polygon fill="none" stroke="black" points="510.38,-392.75 423.88,-392.75 423.88,-367.5 510.38,-367.5 510.38,-392.75"/>
<text xml:space="preserve" text-anchor="middle" x="467.12" y="-375.45" font-family="Times,serif" font-size="14.00">two_theta</text>
</g>
<!-- incident_beam&#45;&gt;two_theta -->
<g id="edge7" class="edge">
<title>incident_beam&#45;&gt;two_theta</title>
<path fill="none" stroke="black" d="M682.3,-428.33C640.62,-419.31 581.97,-406.58 522.02,-393.38"/>
<polygon fill="black" stroke="black" points="522.81,-389.97 512.29,-391.24 521.3,-396.81 522.81,-389.97"/>
</g>
<!-- Qx -->
<g id="node21" class="node">
<title>Qx</title>
<polygon fill="none" stroke="black" points="785.12,-209 731.12,-209 731.12,-183.75 785.12,-183.75 785.12,-209"/>
<text xml:space="preserve" text-anchor="middle" x="758.12" y="-191.7" font-family="Times,serif" font-size="14.00">Qx</text>
</g>
<!-- incident_beam&#45;&gt;Qx -->
<g id="edge26" class="edge">
<title>incident_beam&#45;&gt;Qx</title>
<path fill="none" stroke="black" d="M751.45,-428.51C760.33,-419.66 771.23,-406.73 776.12,-392.75 797.82,-330.77 787.93,-309.6 776.12,-245 774.57,-236.47 771.56,-227.49 768.44,-219.65"/>
<polygon fill="black" stroke="black" points="771.71,-218.37 764.55,-210.56 765.27,-221.13 771.71,-218.37"/>
</g>
<!-- Qy -->
<g id="node22" class="node">
<title>Qy</title>
<polygon fill="none" stroke="black" points="713.12,-209 659.12,-209 659.12,-183.75 713.12,-183.75 713.12,-209"/>
<text xml:space="preserve" text-anchor="middle" x="686.12" y="-191.7" font-family="Times,serif" font-size="14.00">Qy</text>
</g>
<!-- incident_beam&#45;&gt;Qy -->
<g id="edge29" class="edge">
<title>incident_beam&#45;&gt;Qy</title>
<path fill="none" stroke="black" d="M739.88,-428.34C742.96,-404.62 748.11,-350.31 738.12,-306.25 730.84,-274.09 712.85,-240.32 700.08,-219.07"/>
<polygon fill="black" stroke="black" points="703.16,-217.4 694.93,-210.73 697.21,-221.08 703.16,-217.4"/>
</g>
<!-- Qz -->
<g id="node23" class="node">
<title>Qz</title>
<polygon fill="none" stroke="black" points="639.12,-209 585.12,-209 585.12,-183.75 639.12,-183.75 639.12,-209"/>
<text xml:space="preserve" text-anchor="middle" x="612.12" y="-191.7" font-family="Times,serif" font-size="14.00">Qz</text>
</g>
<!-- incident_beam&#45;&gt;Qz -->
<g id="edge32" class="edge">
<title>incident_beam&#45;&gt;Qz</title>
<path fill="none" stroke="black" d="M731.88,-428.32C711.93,-389.86 649.59,-269.63 623.64,-219.58"/>
<polygon fill="black" stroke="black" points="626.82,-218.11 619.11,-210.84 620.6,-221.33 626.82,-218.11"/>
</g>
<!-- sample_position -->
<g id="node3" class="node">
<title>sample_position</title>
<polygon fill="none" stroke="black" points="721.5,-515.25 590.75,-515.25 590.75,-490 721.5,-490 721.5,-515.25"/>
<text xml:space="preserve" text-anchor="middle" x="656.12" y="-497.95" font-family="Times,serif" font-size="14.00">sample_position</text>
</g>
<!-- sample_position&#45;&gt;incident_beam -->
<g id="edge2" class="edge">
<title>sample_position&#45;&gt;incident_beam</title>
<path fill="none" stroke="black" d="M672.72,-489.63C684.06,-481.44 699.31,-470.42 712.23,-461.09"/>
<polygon fill="black" stroke="black" points="714.27,-463.93 720.33,-455.23 710.17,-458.25 714.27,-463.93"/>
</g>
<!-- scattered_beam -->
<g id="node5" class="node">
<title>scattered_beam</title>
<polygon fill="none" stroke="black" points="660.75,-454 531.5,-454 531.5,-428.75 660.75,-428.75 660.75,-454"/>
<text xml:space="preserve" text-anchor="middle" x="596.12" y="-436.7" font-family="Times,serif" font-size="14.00">scattered_beam</text>
</g>
<!-- sample_position&#45;&gt;scattered_beam -->
<g id="edge4" class="edge">
<title>sample_position&#45;&gt;scattered_beam</title>
<path fill="none" stroke="black" d="M643.98,-489.63C636.01,-481.76 625.4,-471.28 616.19,-462.19"/>
<polygon fill="black" stroke="black" points="618.9,-459.95 609.33,-455.41 613.98,-464.93 618.9,-459.95"/>
</g>
<!-- position -->
<g id="node4" class="node">
<title>position</title>
<polygon fill="none" stroke="black" points="572.62,-515.25 499.62,-515.25 499.62,-490 572.62,-490 572.62,-515.25"/>
<text xml:space="preserve" text-anchor="middle" x="536.12" y="-497.95" font-family="Times,serif" font-size="14.00">position</text>
</g>
<!-- position&#45;&gt;scattered_beam -->
<g id="edge3" class="edge">
<title>position&#45;&gt;scattered_beam</title>
<path fill="none" stroke="black" d="M548.27,-489.63C556.24,-481.76 566.85,-471.28 576.06,-462.19"/>
<polygon fill="black" stroke="black" points="578.27,-464.93 582.92,-455.41 573.35,-459.95 578.27,-464.93"/>
</g>
<!-- L2 -->
<g id="node7" class="node">
<title>L2</title>
<polygon fill="none" stroke="black" points="406.12,-392.75 352.12,-392.75 352.12,-367.5 406.12,-367.5 406.12,-392.75"/>
<text xml:space="preserve" text-anchor="middle" x="379.12" y="-375.45" font-family="Times,serif" font-size="14.00">L2</text>
</g>
<!-- scattered_beam&#45;&gt;L2 -->
<g id="edge6" class="edge">
<title>scattered_beam&#45;&gt;L2</title>
<path fill="none" stroke="black" d="M547.14,-428.26C513.11,-419.67 466.47,-407.56 417.43,-393.33"/>
<polygon fill="black" stroke="black" points="418.63,-390.04 408.05,-390.59 416.66,-396.76 418.63,-390.04"/>
</g>
<!-- scattered_beam&#45;&gt;two_theta -->
<g id="edge8" class="edge">
<title>scattered_beam&#45;&gt;two_theta</title>
<path fill="none" stroke="black" d="M570.02,-428.38C550.87,-419.59 524.63,-407.54 503.44,-397.8"/>
<polygon fill="black" stroke="black" points="505.11,-394.72 494.57,-393.73 502.19,-401.08 505.11,-394.72"/>
</g>
<!-- scattered_beam&#45;&gt;Qx -->
<g id="edge27" class="edge">
<title>scattered_beam&#45;&gt;Qx</title>
<path fill="none" stroke="black" d="M605.55,-428.42C612.97,-418.9 623.46,-405.15 632.12,-392.75 675.27,-331.03 722.45,-255.49 744.87,-219.07"/>
<polygon fill="black" stroke="black" points="747.72,-221.12 749.97,-210.76 741.75,-217.46 747.72,-221.12"/>
</g>
<!-- scattered_beam&#45;&gt;Qy -->
<g id="edge30" class="edge">
<title>scattered_beam&#45;&gt;Qy</title>
<path fill="none" stroke="black" d="M600.59,-428.64C604.25,-419.01 609.55,-405.01 614.12,-392.75 637.51,-330.1 664.69,-255.98 677.97,-219.68"/>
<polygon fill="black" stroke="black" points="681.11,-221.3 681.26,-210.7 674.53,-218.89 681.11,-221.3"/>
</g>
<!-- scattered_beam&#45;&gt;Qz -->
<g id="edge33" class="edge">
<title>scattered_beam&#45;&gt;Qz</title>
<path fill="none" stroke="black" d="M596.92,-428.32C599.43,-390.19 607.23,-271.65 610.58,-220.86"/>
<polygon fill="black" stroke="black" points="614.06,-221.22 611.23,-211.01 607.08,-220.76 614.06,-221.22"/>
</g>
<!-- Ltotal -->
<g id="node9" class="node">
<title>Ltotal</title>
<polygon fill="none" stroke="black" points="572.12,-331.5 514.12,-331.5 514.12,-306.25 572.12,-306.25 572.12,-331.5"/>
<text xml:space="preserve" text-anchor="middle" x="543.12" y="-314.2" font-family="Times,serif" font-size="14.00">Ltotal</text>
</g>
<!-- L1&#45;&gt;Ltotal -->
<g id="edge9" class="edge">
<title>L1&#45;&gt;Ltotal</title>
<path fill="none" stroke="black" d="M552.7,-367.13C551.3,-360.23 549.49,-351.31 547.83,-343.09"/>
<polygon fill="black" stroke="black" points="551.27,-342.44 545.85,-333.33 544.4,-343.83 551.27,-342.44"/>
</g>
<!-- L2&#45;&gt;Ltotal -->
<g id="edge10" class="edge">
<title>L2&#45;&gt;Ltotal</title>
<path fill="none" stroke="black" d="M406.57,-369.21C432.97,-359.67 473.16,-345.15 503.12,-334.33"/>
<polygon fill="black" stroke="black" points="504.01,-337.73 512.22,-331.04 501.63,-331.15 504.01,-337.73"/>
</g>
<!-- time_at_sample -->
<g id="node28" class="node">
<title>time_at_sample</title>
<polygon fill="none" stroke="black" points="345.62,-209 218.62,-209 218.62,-183.75 345.62,-183.75 345.62,-209"/>
<text xml:space="preserve" text-anchor="middle" x="282.12" y="-191.7" font-family="Times,serif" font-size="14.00">time_at_sample</text>
</g>
<!-- L2&#45;&gt;time_at_sample -->
<g id="edge39" class="edge">
<title>L2&#45;&gt;time_at_sample</title>
<path fill="none" stroke="black" d="M372.76,-367.2C356.66,-337.03 314.11,-257.31 293.56,-218.8"/>
<polygon fill="black" stroke="black" points="296.9,-217.62 289.1,-210.44 290.72,-220.91 296.9,-217.62"/>
</g>
<!-- dspacing -->
<g id="node11" class="node">
<title>dspacing</title>
<polygon fill="none" stroke="black" points="466,-270.25 386.25,-270.25 386.25,-245 466,-245 466,-270.25"/>
<text xml:space="preserve" text-anchor="middle" x="426.12" y="-252.95" font-family="Times,serif" font-size="14.00">dspacing</text>
</g>
<!-- two_theta&#45;&gt;dspacing -->
<g id="edge13" class="edge">
<title>two_theta&#45;&gt;dspacing</title>
<path fill="none" stroke="black" d="M455.91,-367.24C448.09,-358.19 438.18,-345.01 433.12,-331.5 427.18,-315.6 425.53,-296.44 425.32,-281.77"/>
<polygon fill="black" stroke="black" points="428.81,-282.2 425.4,-272.17 421.81,-282.14 428.81,-282.2"/>
</g>
<!-- d_perp -->
<g id="node30" class="node">
<title>d_perp</title>
<polygon fill="none" stroke="black" points="428.5,-209 363.75,-209 363.75,-183.75 428.5,-183.75 428.5,-209"/>
<text xml:space="preserve" text-anchor="middle" x="396.12" y="-191.7" font-family="Times,serif" font-size="14.00">d_perp</text>
</g>
<!-- two_theta&#45;&gt;d_perp -->
<g id="edge43" class="edge">
<title>two_theta&#45;&gt;d_perp</title>
<path fill="none" stroke="black" d="M451.73,-367.11C429.92,-348.94 391.1,-312.12 377.12,-270.25 371.52,-253.45 377.17,-234.02 383.73,-219.45"/>
<polygon fill="black" stroke="black" points="386.74,-221.25 388.08,-210.74 380.48,-218.12 386.74,-221.25"/>
</g>
<!-- Ltotal&#45;&gt;dspacing -->
<g id="edge12" class="edge">
<title>Ltotal&#45;&gt;dspacing</title>
<path fill="none" stroke="black" d="M519.45,-305.88C502.32,-297.21 478.93,-285.37 459.85,-275.71"/>
<polygon fill="black" stroke="black" points="461.62,-272.68 451.12,-271.28 458.46,-278.92 461.62,-272.68"/>
</g>
<!-- wavelength -->
<g id="node24" class="node">
<title>wavelength</title>
<polygon fill="none" stroke="black" points="582.38,-270.25 483.88,-270.25 483.88,-245 582.38,-245 582.38,-270.25"/>
<text xml:space="preserve" text-anchor="middle" x="533.12" y="-252.95" font-family="Times,serif" font-size="14.00">wavelength</text>
</g>
<!-- Ltotal&#45;&gt;wavelength -->
<g id="edge35" class="edge">
<title>Ltotal&#45;&gt;wavelength</title>
<path fill="none" stroke="black" d="M541.1,-305.88C539.94,-298.98 538.43,-290.06 537.04,-281.84"/>
<polygon fill="black" stroke="black" points="540.51,-281.37 535.4,-272.09 533.61,-282.53 540.51,-281.37"/>
</g>
<!-- tof -->
<g id="node10" class="node">
<title>tof</title>
<polygon fill="none" stroke="black" points="496.12,-331.5 442.12,-331.5 442.12,-306.25 496.12,-306.25 496.12,-331.5"/>
<text xml:space="preserve" text-anchor="middle" x="469.12" y="-314.2" font-family="Times,serif" font-size="14.00">tof</text>
</g>
<!-- tof&#45;&gt;dspacing -->
<g id="edge11" class="edge">
<title>tof&#45;&gt;dspacing</title>
<path fill="none" stroke="black" d="M460.42,-305.88C455,-298.42 447.88,-288.6 441.52,-279.84"/>
<polygon fill="black" stroke="black" points="444.41,-277.86 435.7,-271.82 438.74,-281.97 444.41,-277.86"/>
</g>
<!-- tof&#45;&gt;wavelength -->
<g id="edge34" class="edge">
<title>tof&#45;&gt;wavelength</title>
<path fill="none" stroke="black" d="M482.08,-305.88C490.66,-297.93 502.13,-287.32 512.02,-278.16"/>
<polygon fill="black" stroke="black" points="514.12,-280.99 519.08,-271.63 509.37,-275.85 514.12,-280.99"/>
</g>
<!-- d -->
<g id="node29" class="node">
<title>d</title>
<polygon fill="none" stroke="black" points="500.12,-209 446.12,-209 446.12,-183.75 500.12,-183.75 500.12,-209"/>
<text xml:space="preserve" text-anchor="middle" x="473.12" y="-191.7" font-family="Times,serif" font-size="14.00">d</text>
</g>
<!-- dspacing&#45;&gt;d -->
<g id="edge41" class="edge">
<title>dspacing&#45;&gt;d</title>
<path fill="none" stroke="black" stroke-dasharray="5,2" d="M435.64,-244.63C441.62,-237.09 449.52,-227.13 456.52,-218.31"/>
<polygon fill="black" stroke="black" points="459.21,-220.54 462.69,-210.53 453.73,-216.19 459.21,-220.54"/>
</g>
<!-- Q_vec -->
<g id="node12" class="node">
<title>Q_vec</title>
<polygon fill="none" stroke="black" points="748.12,-147.75 690.12,-147.75 690.12,-122.5 748.12,-122.5 748.12,-147.75"/>
<text xml:space="preserve" text-anchor="middle" x="719.12" y="-130.45" font-family="Times,serif" font-size="14.00">Q_vec</text>
</g>
<!-- hkl_vec -->
<g id="node13" class="node">
<title>hkl_vec</title>
<polygon fill="none" stroke="black" points="877.38,-86.5 808.88,-86.5 808.88,-61.25 877.38,-61.25 877.38,-86.5"/>
<text xml:space="preserve" text-anchor="middle" x="843.12" y="-69.2" font-family="Times,serif" font-size="14.00">hkl_vec</text>
</g>
<!-- Q_vec&#45;&gt;hkl_vec -->
<g id="edge14" class="edge">
<title>Q_vec&#45;&gt;hkl_vec</title>
<path fill="none" stroke="black" d="M744.22,-122.13C762.54,-113.38 787.62,-101.4 807.94,-91.69"/>
<polygon fill="black" stroke="black" points="809.19,-94.97 816.7,-87.5 806.17,-88.65 809.19,-94.97"/>
</g>
<!-- h -->
<g id="node16" class="node">
<title>h</title>
<polygon fill="none" stroke="black" points="798.12,-25.25 744.12,-25.25 744.12,0 798.12,0 798.12,-25.25"/>
<text xml:space="preserve" text-anchor="middle" x="771.12" y="-7.95" font-family="Times,serif" font-size="14.00">h</text>
</g>
<!-- hkl_vec&#45;&gt;h -->
<g id="edge17" class="edge">
<title>hkl_vec&#45;&gt;h</title>
<path fill="none" stroke="black" d="M828.55,-60.88C818.8,-52.85 805.73,-42.1 794.53,-32.89"/>
<polygon fill="black" stroke="black" points="796.79,-30.21 786.84,-26.56 792.34,-35.62 796.79,-30.21"/>
</g>
<!-- k -->
<g id="node17" class="node">
<title>k</title>
<polygon fill="none" stroke="black" points="870.12,-25.25 816.12,-25.25 816.12,0 870.12,0 870.12,-25.25"/>
<text xml:space="preserve" text-anchor="middle" x="843.12" y="-7.95" font-family="Times,serif" font-size="14.00">k</text>
</g>
<!-- hkl_vec&#45;&gt;k -->
<g id="edge18" class="edge">
<title>hkl_vec&#45;&gt;k</title>
<path fill="none" stroke="black" d="M843.12,-60.88C843.12,-53.98 843.12,-45.06 843.12,-36.84"/>
<polygon fill="black" stroke="black" points="846.63,-37.11 843.13,-27.11 839.63,-37.11 846.63,-37.11"/>
</g>
<!-- l -->
<g id="node18" class="node">
<title>l</title>
<polygon fill="none" stroke="black" points="942.12,-25.25 888.12,-25.25 888.12,0 942.12,0 942.12,-25.25"/>
<text xml:space="preserve" text-anchor="middle" x="915.12" y="-7.95" font-family="Times,serif" font-size="14.00">l</text>
</g>
<!-- hkl_vec&#45;&gt;l -->
<g id="edge19" class="edge">
<title>hkl_vec&#45;&gt;l</title>
<path fill="none" stroke="black" d="M857.7,-60.88C867.45,-52.85 880.52,-42.1 891.72,-32.89"/>
<polygon fill="black" stroke="black" points="893.91,-35.62 899.41,-26.56 889.46,-30.21 893.91,-35.62"/>
</g>
<!-- ub_matrix -->
<g id="node14" class="node">
<title>ub_matrix</title>
<polygon fill="none" stroke="black" points="887.12,-147.75 799.12,-147.75 799.12,-122.5 887.12,-122.5 887.12,-147.75"/>
<text xml:space="preserve" text-anchor="middle" x="843.12" y="-130.45" font-family="Times,serif" font-size="14.00">ub_matrix</text>
</g>
<!-- ub_matrix&#45;&gt;hkl_vec -->
<g id="edge15" class="edge">
<title>ub_matrix&#45;&gt;hkl_vec</title>
<path fill="none" stroke="black" d="M843.12,-122.13C843.12,-115.23 843.12,-106.31 843.12,-98.09"/>
<polygon fill="black" stroke="black" points="846.63,-98.36 843.13,-88.36 839.63,-98.36 846.63,-98.36"/>
</g>
<!-- sample_rotation -->
<g id="node15" class="node">
<title>sample_rotation</title>
<polygon fill="none" stroke="black" points="1035.5,-147.75 904.75,-147.75 904.75,-122.5 1035.5,-122.5 1035.5,-147.75"/>
<text xml:space="preserve" text-anchor="middle" x="970.12" y="-130.45" font-family="Times,serif" font-size="14.00">sample_rotation</text>
</g>
<!-- sample_rotation&#45;&gt;hkl_vec -->
<g id="edge16" class="edge">
<title>sample_rotation&#45;&gt;hkl_vec</title>
<path fill="none" stroke="black" d="M944.42,-122.13C925.66,-113.38 899.98,-101.4 879.16,-91.69"/>
<polygon fill="black" stroke="black" points="880.7,-88.54 870.16,-87.49 877.74,-94.89 880.7,-88.54"/>
</g>
<!-- u_matrix -->
<g id="node19" class="node">
<title>u_matrix</title>
<polygon fill="none" stroke="black" points="882.62,-209 803.62,-209 803.62,-183.75 882.62,-183.75 882.62,-209"/>
<text xml:space="preserve" text-anchor="middle" x="843.12" y="-191.7" font-family="Times,serif" font-size="14.00">u_matrix</text>
</g>
<!-- u_matrix&#45;&gt;ub_matrix -->
<g id="edge20" class="edge">
<title>u_matrix&#45;&gt;ub_matrix</title>
<path fill="none" stroke="black" d="M843.12,-183.38C843.12,-176.48 843.12,-167.56 843.12,-159.34"/>
<polygon fill="black" stroke="black" points="846.63,-159.61 843.13,-149.61 839.63,-159.61 846.63,-159.61"/>
</g>
<!-- b_matrix -->
<g id="node20" class="node">
<title>b_matrix</title>
<polygon fill="none" stroke="black" points="979.62,-209 900.62,-209 900.62,-183.75 979.62,-183.75 979.62,-209"/>
<text xml:space="preserve" text-anchor="middle" x="940.12" y="-191.7" font-family="Times,serif" font-size="14.00">b_matrix</text>
</g>
<!-- b_matrix&#45;&gt;ub_matrix -->
<g id="edge21" class="edge">
<title>b_matrix&#45;&gt;ub_matrix</title>
<path fill="none" stroke="black" d="M920.5,-183.38C906.69,-174.95 887.98,-163.52 872.42,-154.02"/>
<polygon fill="black" stroke="black" points="874.38,-151.11 864.02,-148.89 870.73,-157.09 874.38,-151.11"/>
</g>
<!-- Qx&#45;&gt;Q_vec -->
<g id="edge22" class="edge">
<title>Qx&#45;&gt;Q_vec</title>
<path fill="none" stroke="black" d="M750.23,-183.38C745.37,-176 738.99,-166.31 733.28,-157.63"/>
<polygon fill="black" stroke="black" points="736.26,-155.79 727.84,-149.36 730.41,-159.64 736.26,-155.79"/>
</g>
<!-- Qy&#45;&gt;Q_vec -->
<g id="edge23" class="edge">
<title>Qy&#45;&gt;Q_vec</title>
<path fill="none" stroke="black" d="M692.8,-183.38C696.87,-176.08 702.2,-166.52 706.99,-157.91"/>
<polygon fill="black" stroke="black" points="709.91,-159.86 711.72,-149.42 703.8,-156.45 709.91,-159.86"/>
</g>
<!-- Qz&#45;&gt;Q_vec -->
<g id="edge24" class="edge">
<title>Qz&#45;&gt;Q_vec</title>
<path fill="none" stroke="black" d="M633.78,-183.38C649.3,-174.79 670.44,-163.09 687.79,-153.47"/>
<polygon fill="black" stroke="black" points="689.13,-156.74 696.18,-148.83 685.74,-150.61 689.13,-156.74"/>
</g>
<!-- wavelength&#45;&gt;Qx -->
<g id="edge25" class="edge">
<title>wavelength&#45;&gt;Qx</title>
<path fill="none" stroke="black" d="M582.71,-245.07C618.43,-236.54 668,-224.26 719.62,-209.61"/>
<polygon fill="black" stroke="black" points="720.56,-212.98 729.21,-206.86 718.63,-206.25 720.56,-212.98"/>
</g>
<!-- wavelength&#45;&gt;Qy -->
<g id="edge28" class="edge">
<title>wavelength&#45;&gt;Qy</title>
<path fill="none" stroke="black" d="M564.09,-244.63C588.38,-235.23 622.31,-222.09 648.23,-212.05"/>
<polygon fill="black" stroke="black" points="649.33,-215.38 657.39,-208.5 646.8,-208.85 649.33,-215.38"/>
</g>
<!-- wavelength&#45;&gt;Qz -->
<g id="edge31" class="edge">
<title>wavelength&#45;&gt;Qz</title>
<path fill="none" stroke="black" d="M549.11,-244.63C560.03,-236.44 574.73,-225.42 587.18,-216.09"/>
<polygon fill="black" stroke="black" points="589.05,-219.06 594.95,-210.26 584.85,-213.46 589.05,-219.06"/>
</g>
<!-- wavelength&#45;&gt;time_at_sample -->
<g id="edge40" class="edge">
<title>wavelength&#45;&gt;time_at_sample</title>
<path fill="none" stroke="black" d="M483.54,-244.92C443.67,-235.51 387.42,-222.23 344.5,-212.1"/>
<polygon fill="black" stroke="black" points="345.34,-208.7 334.81,-209.81 343.74,-215.51 345.34,-208.7"/>
</g>
<!-- wavelength&#45;&gt;d_perp -->
<g id="edge42" class="edge">
<title>wavelength&#45;&gt;d_perp</title>
<path fill="none" stroke="black" d="M505.4,-244.63C484.88,-235.76 456.69,-223.57 434.08,-213.79"/>
<polygon fill="black" stroke="black" points="435.76,-210.71 425.2,-209.95 432.99,-217.13 435.76,-210.71"/>
</g>
<!-- event_time_zero -->
<g id="node25" class="node">
<title>event_time_zero</title>
<polygon fill="none" stroke="black" points="132.25,-331.5 0,-331.5 0,-306.25 132.25,-306.25 132.25,-331.5"/>
<text xml:space="preserve" text-anchor="middle" x="66.12" y="-314.2" font-family="Times,serif" font-size="14.00">event_time_zero</text>
</g>
<!-- toa -->
<g id="node26" class="node">
<title>toa</title>
<polygon fill="none" stroke="black" points="248.12,-270.25 194.12,-270.25 194.12,-245 248.12,-245 248.12,-270.25"/>
<text xml:space="preserve" text-anchor="middle" x="221.12" y="-252.95" font-family="Times,serif" font-size="14.00">toa</text>
</g>
<!-- event_time_zero&#45;&gt;toa -->
<g id="edge36" class="edge">
<title>event_time_zero&#45;&gt;toa</title>
<path fill="none" stroke="black" d="M97.49,-305.88C122.18,-296.45 156.7,-283.25 182.99,-273.2"/>
<polygon fill="black" stroke="black" points="184.19,-276.49 192.28,-269.65 181.69,-269.95 184.19,-276.49"/>
</g>
<!-- toa&#45;&gt;time_at_sample -->
<g id="edge38" class="edge">
<title>toa&#45;&gt;time_at_sample</title>
<path fill="none" stroke="black" d="M233.47,-244.63C241.57,-236.76 252.36,-226.28 261.72,-217.19"/>
<polygon fill="black" stroke="black" points="263.98,-219.88 268.71,-210.4 259.1,-214.86 263.98,-219.88"/>
</g>
<!-- event_time_offset -->
<g id="node27" class="node">
<title>event_time_offset</title>
<polygon fill="none" stroke="black" points="291.75,-331.5 150.5,-331.5 150.5,-306.25 291.75,-306.25 291.75,-331.5"/>
<text xml:space="preserve" text-anchor="middle" x="221.12" y="-314.2" font-family="Times,serif" font-size="14.00">event_time_offset</text>
</g>
<!-- event_time_offset&#45;&gt;toa -->
<g id="edge37" class="edge">
<title>event_time_offset&#45;&gt;toa</title>
<path fill="none" stroke="black" d="M221.12,-305.88C221.12,-298.98 221.12,-290.06 221.12,-281.84"/>
<polygon fill="black" stroke="black" points="224.63,-282.11 221.13,-272.11 217.63,-282.11 224.63,-282.11"/>
</g>
</g>
</svg>
