<?xml version="1.0" encoding="UTF-8" standalone="no"?>
<!DOCTYPE svg PUBLIC "-//W3C//DTD SVG 1.1//EN"
 "http://www.w3.org/Graphics/SVG/1.1/DTD/svg11.dtd">
<!-- Generated by graphviz version 7.1.0 (20230122.1345)
 -->
<!-- Pages: 1 -->
<svg width="1208pt" height="764pt"
 viewBox="0.00 0.00 1207.84 764.00" xmlns="http://www.w3.org/2000/svg" xmlns:xlink="http://www.w3.org/1999/xlink">
<g id="graph0" class="graph" transform="scale(1 1) rotate(0) translate(4 760)">
<polygon fill="white" stroke="none" points="-4,4 -4,-760 1203.84,-760 1203.84,4 -4,4"/>
<g id="clust10" class="cluster">
<title>cluster_PulseStride</title>
<polygon fill="#f0f0ff" stroke="#f0f0ff" points="504.84,-568 504.84,-620 620.84,-620 620.84,-568 504.84,-568"/>
</g>
<!-- Choppers -->
<g id="node1" class="node">
<title>Choppers</title>
<polygon fill="none" stroke="red" stroke-dasharray="5,2" points="716.34,-612 631.34,-612 631.34,-576 716.34,-576 716.34,-612"/>
<text text-anchor="middle" x="673.84" y="-590.3" font-family="Times,serif" font-size="14.00" fill="red">Choppers</text>
</g>
<!-- scippneutron.tof.unwrap.frame_at_detector_FrameAtDetector -->
<g id="node7" class="node">
<title>scippneutron.tof.unwrap.frame_at_detector_FrameAtDetector</title>
<ellipse fill="none" stroke="black" cx="831.84" cy="-522" rx="94.78" ry="18"/>
<text text-anchor="middle" x="831.84" y="-518.3" font-family="Times,serif" font-size="14.00">frame_at_detector</text>
</g>
<!-- Choppers&#45;&gt;scippneutron.tof.unwrap.frame_at_detector_FrameAtDetector -->
<g id="edge7" class="edge">
<title>Choppers&#45;&gt;scippneutron.tof.unwrap.frame_at_detector_FrameAtDetector</title>
<path fill="none" stroke="black" d="M709.54,-575.57C714.98,-572.99 720.54,-570.39 725.84,-568 744.33,-559.64 764.82,-550.83 782.82,-543.25"/>
<polygon fill="black" stroke="black" points="784.12,-546.5 791.98,-539.4 781.41,-540.04 784.12,-546.5"/>
</g>
<!-- scippneutron.tof.unwrap.offset_from_wrapped_DeltaFromWrapped -->
<g id="node2" class="node">
<title>scippneutron.tof.unwrap.offset_from_wrapped_DeltaFromWrapped</title>
<ellipse fill="none" stroke="black" cx="725.84" cy="-234" rx="107.78" ry="18"/>
<text text-anchor="middle" x="725.84" y="-230.3" font-family="Times,serif" font-size="14.00">offset_from_wrapped</text>
</g>
<!-- DeltaFromWrapped -->
<g id="node6" class="node">
<title>DeltaFromWrapped</title>
<polygon fill="none" stroke="black" points="1041.34,-180 884.34,-180 884.34,-144 1041.34,-144 1041.34,-180"/>
<text text-anchor="middle" x="962.84" y="-158.3" font-family="Times,serif" font-size="14.00">DeltaFromWrapped</text>
</g>
<!-- scippneutron.tof.unwrap.offset_from_wrapped_DeltaFromWrapped&#45;&gt;DeltaFromWrapped -->
<g id="edge4" class="edge">
<title>scippneutron.tof.unwrap.offset_from_wrapped_DeltaFromWrapped&#45;&gt;DeltaFromWrapped</title>
<path fill="none" stroke="black" d="M777.26,-217.81C811.21,-207.78 856.12,-194.52 893.25,-183.55"/>
<polygon fill="black" stroke="black" points="893.95,-187 902.55,-180.81 891.97,-180.28 893.95,-187"/>
</g>
<!-- FrameWrappedTimeOffset -->
<g id="node3" class="node">
<title>FrameWrappedTimeOffset</title>
<polygon fill="none" stroke="black" points="534.34,-324 329.34,-324 329.34,-288 534.34,-288 534.34,-324"/>
<text text-anchor="middle" x="431.84" y="-302.3" font-family="Times,serif" font-size="14.00">FrameWrappedTimeOffset</text>
</g>
<!-- FrameWrappedTimeOffset&#45;&gt;scippneutron.tof.unwrap.offset_from_wrapped_DeltaFromWrapped -->
<g id="edge1" class="edge">
<title>FrameWrappedTimeOffset&#45;&gt;scippneutron.tof.unwrap.offset_from_wrapped_DeltaFromWrapped</title>
<path fill="none" stroke="black" d="M505.27,-287.52C550.99,-276.63 609.51,-262.7 654.78,-251.92"/>
<polygon fill="black" stroke="black" points="655.3,-255.39 664.22,-249.67 653.68,-248.58 655.3,-255.39"/>
</g>
<!-- FrameBounds -->
<g id="node4" class="node">
<title>FrameBounds</title>
<polygon fill="none" stroke="black" points="850.84,-324 734.84,-324 734.84,-288 850.84,-288 850.84,-324"/>
<text text-anchor="middle" x="792.84" y="-302.3" font-family="Times,serif" font-size="14.00">FrameBounds</text>
</g>
<!-- FrameBounds&#45;&gt;scippneutron.tof.unwrap.offset_from_wrapped_DeltaFromWrapped -->
<g id="edge2" class="edge">
<title>FrameBounds&#45;&gt;scippneutron.tof.unwrap.offset_from_wrapped_DeltaFromWrapped</title>
<path fill="none" stroke="black" d="M776.28,-287.7C768.41,-279.47 758.84,-269.48 750.17,-260.42"/>
<polygon fill="black" stroke="black" points="752.7,-258 743.26,-253.2 747.64,-262.84 752.7,-258"/>
</g>
<!-- FramePeriod -->
<g id="node5" class="node">
<title>FramePeriod</title>
<polygon fill="none" stroke="black" points="667.34,-468 558.34,-468 558.34,-432 667.34,-432 667.34,-468"/>
<text text-anchor="middle" x="612.84" y="-446.3" font-family="Times,serif" font-size="14.00">FramePeriod</text>
</g>
<!-- FramePeriod&#45;&gt;scippneutron.tof.unwrap.offset_from_wrapped_DeltaFromWrapped -->
<g id="edge3" class="edge">
<title>FramePeriod&#45;&gt;scippneutron.tof.unwrap.offset_from_wrapped_DeltaFromWrapped</title>
<path fill="none" stroke="black" d="M621.89,-431.85C641.44,-394.83 687.72,-307.18 711.38,-262.39"/>
<polygon fill="black" stroke="black" points="714.46,-264.05 716.03,-253.57 708.27,-260.78 714.46,-264.05"/>
</g>
<!-- scippneutron.tof.unwrap.unwrap_data_UnwrappedData -->
<g id="node25" class="node">
<title>scippneutron.tof.unwrap.unwrap_data_UnwrappedData</title>
<ellipse fill="none" stroke="black" cx="1015.84" cy="-90" rx="70.69" ry="18"/>
<text text-anchor="middle" x="1015.84" y="-86.3" font-family="Times,serif" font-size="14.00">unwrap_data</text>
</g>
<!-- DeltaFromWrapped&#45;&gt;scippneutron.tof.unwrap.unwrap_data_UnwrappedData -->
<g id="edge28" class="edge">
<title>DeltaFromWrapped&#45;&gt;scippneutron.tof.unwrap.unwrap_data_UnwrappedData</title>
<path fill="none" stroke="black" d="M975.94,-143.7C981.97,-135.73 989.26,-126.1 995.95,-117.26"/>
<polygon fill="black" stroke="black" points="998.73,-119.4 1001.97,-109.31 993.15,-115.17 998.73,-119.4"/>
</g>
<!-- FrameAtDetector -->
<g id="node11" class="node">
<title>FrameAtDetector</title>
<polygon fill="none" stroke="black" points="882.34,-468 741.34,-468 741.34,-432 882.34,-432 882.34,-468"/>
<text text-anchor="middle" x="811.84" y="-446.3" font-family="Times,serif" font-size="14.00">FrameAtDetector</text>
</g>
<!-- scippneutron.tof.unwrap.frame_at_detector_FrameAtDetector&#45;&gt;FrameAtDetector -->
<g id="edge9" class="edge">
<title>scippneutron.tof.unwrap.frame_at_detector_FrameAtDetector&#45;&gt;FrameAtDetector</title>
<path fill="none" stroke="black" d="M826.89,-503.7C824.76,-496.24 822.22,-487.32 819.83,-478.97"/>
<polygon fill="black" stroke="black" points="823.25,-478.21 817.14,-469.56 816.52,-480.14 823.25,-478.21"/>
</g>
<!-- SourceWavelengthRange -->
<g id="node8" class="node">
<title>SourceWavelengthRange</title>
<polygon fill="none" stroke="red" stroke-dasharray="5,2" points="929.34,-612 734.34,-612 734.34,-576 929.34,-576 929.34,-612"/>
<text text-anchor="middle" x="831.84" y="-590.3" font-family="Times,serif" font-size="14.00" fill="red">SourceWavelengthRange</text>
</g>
<!-- SourceWavelengthRange&#45;&gt;scippneutron.tof.unwrap.frame_at_detector_FrameAtDetector -->
<g id="edge5" class="edge">
<title>SourceWavelengthRange&#45;&gt;scippneutron.tof.unwrap.frame_at_detector_FrameAtDetector</title>
<path fill="none" stroke="black" d="M831.84,-575.7C831.84,-568.41 831.84,-559.73 831.84,-551.54"/>
<polygon fill="black" stroke="black" points="835.34,-551.62 831.84,-541.62 828.34,-551.62 835.34,-551.62"/>
</g>
<!-- SourceTimeRange -->
<g id="node9" class="node">
<title>SourceTimeRange</title>
<polygon fill="none" stroke="red" stroke-dasharray="5,2" points="1093.84,-612 947.84,-612 947.84,-576 1093.84,-576 1093.84,-612"/>
<text text-anchor="middle" x="1020.84" y="-590.3" font-family="Times,serif" font-size="14.00" fill="red">SourceTimeRange</text>
</g>
<!-- SourceTimeRange&#45;&gt;scippneutron.tof.unwrap.frame_at_detector_FrameAtDetector -->
<g id="edge6" class="edge">
<title>SourceTimeRange&#45;&gt;scippneutron.tof.unwrap.frame_at_detector_FrameAtDetector</title>
<path fill="none" stroke="black" d="M973.63,-575.52C946.61,-565.51 912.63,-552.92 884.71,-542.58"/>
<polygon fill="black" stroke="black" points="885.95,-539.31 875.36,-539.12 883.52,-545.87 885.95,-539.31"/>
</g>
<!-- Ltotal -->
<g id="node10" class="node">
<title>Ltotal</title>
<polygon fill="none" stroke="red" stroke-dasharray="5,2" points="1171.34,-612 1112.34,-612 1112.34,-576 1171.34,-576 1171.34,-612"/>
<text text-anchor="middle" x="1141.84" y="-590.3" font-family="Times,serif" font-size="14.00" fill="red">Ltotal</text>
</g>
<!-- Ltotal&#45;&gt;scippneutron.tof.unwrap.frame_at_detector_FrameAtDetector -->
<g id="edge8" class="edge">
<title>Ltotal&#45;&gt;scippneutron.tof.unwrap.frame_at_detector_FrameAtDetector</title>
<path fill="none" stroke="black" d="M1117.89,-575.53C1113.09,-572.65 1107.94,-569.96 1102.84,-568 1048.41,-547.06 984.15,-535.86 931.87,-529.87"/>
<polygon fill="black" stroke="black" points="932.38,-526.4 922.06,-528.79 931.62,-533.36 932.38,-526.4"/>
</g>
<!-- scippneutron.tof.unwrap.frame_bounds_FrameBounds -->
<g id="node12" class="node">
<title>scippneutron.tof.unwrap.frame_bounds_FrameBounds</title>
<ellipse fill="none" stroke="black" cx="801.84" cy="-378" rx="76.09" ry="18"/>
<text text-anchor="middle" x="801.84" y="-374.3" font-family="Times,serif" font-size="14.00">frame_bounds</text>
</g>
<!-- FrameAtDetector&#45;&gt;scippneutron.tof.unwrap.frame_bounds_FrameBounds -->
<g id="edge10" class="edge">
<title>FrameAtDetector&#45;&gt;scippneutron.tof.unwrap.frame_bounds_FrameBounds</title>
<path fill="none" stroke="black" d="M809.37,-431.7C808.31,-424.32 807.06,-415.52 805.87,-407.25"/>
<polygon fill="black" stroke="black" points="809.37,-407.01 804.5,-397.6 802.44,-408 809.37,-407.01"/>
</g>
<!-- scippneutron.tof.unwrap.frame_bounds_FrameBounds&#45;&gt;FrameBounds -->
<g id="edge11" class="edge">
<title>scippneutron.tof.unwrap.frame_bounds_FrameBounds&#45;&gt;FrameBounds</title>
<path fill="none" stroke="black" d="M799.61,-359.7C798.67,-352.32 797.53,-343.52 796.47,-335.25"/>
<polygon fill="black" stroke="black" points="799.98,-335.08 795.23,-325.61 793.03,-335.97 799.98,-335.08"/>
</g>
<!-- scippneutron.tof.unwrap.frame_period_FramePeriod -->
<g id="node13" class="node">
<title>scippneutron.tof.unwrap.frame_period_FramePeriod</title>
<ellipse fill="none" stroke="black" cx="567.84" cy="-522" rx="72.29" ry="18"/>
<text text-anchor="middle" x="567.84" y="-518.3" font-family="Times,serif" font-size="14.00">frame_period</text>
</g>
<!-- scippneutron.tof.unwrap.frame_period_FramePeriod&#45;&gt;FramePeriod -->
<g id="edge14" class="edge">
<title>scippneutron.tof.unwrap.frame_period_FramePeriod&#45;&gt;FramePeriod</title>
<path fill="none" stroke="black" d="M578.73,-504.05C583.8,-496.18 589.94,-486.62 595.61,-477.79"/>
<polygon fill="black" stroke="black" points="598.45,-479.85 600.91,-469.55 592.56,-476.07 598.45,-479.85"/>
</g>
<!-- PulsePeriod -->
<g id="node14" class="node">
<title>PulsePeriod</title>
<polygon fill="none" stroke="red" stroke-dasharray="5,2" points="494.34,-612 393.34,-612 393.34,-576 494.34,-576 494.34,-612"/>
<text text-anchor="middle" x="443.84" y="-590.3" font-family="Times,serif" font-size="14.00" fill="red">PulsePeriod</text>
</g>
<!-- PulsePeriod&#45;&gt;scippneutron.tof.unwrap.frame_period_FramePeriod -->
<g id="edge12" class="edge">
<title>PulsePeriod&#45;&gt;scippneutron.tof.unwrap.frame_period_FramePeriod</title>
<path fill="none" stroke="black" d="M474.81,-575.52C491.48,-566.11 512.18,-554.42 529.82,-544.46"/>
<polygon fill="black" stroke="black" points="531.5,-547.54 538.48,-539.57 528.05,-541.44 531.5,-547.54"/>
</g>
<!-- scippneutron.tof.unwrap.pulse_offset_PulseOffset -->
<g id="node19" class="node">
<title>scippneutron.tof.unwrap.pulse_offset_PulseOffset</title>
<ellipse fill="none" stroke="black" cx="411.84" cy="-522" rx="65.79" ry="18"/>
<text text-anchor="middle" x="411.84" y="-518.3" font-family="Times,serif" font-size="14.00">pulse_offset</text>
</g>
<!-- PulsePeriod&#45;&gt;scippneutron.tof.unwrap.pulse_offset_PulseOffset -->
<g id="edge18" class="edge">
<title>PulsePeriod&#45;&gt;scippneutron.tof.unwrap.pulse_offset_PulseOffset</title>
<path fill="none" stroke="black" d="M435.93,-575.7C432.44,-568.07 428.26,-558.92 424.36,-550.4"/>
<polygon fill="black" stroke="black" points="427.63,-549.12 420.29,-541.48 421.26,-552.03 427.63,-549.12"/>
</g>
<!-- PulseStride -->
<g id="node15" class="node">
<title>PulseStride</title>
<polygon fill="none" stroke="red" stroke-dasharray="5,2" points="612.84,-612 512.84,-612 512.84,-576 612.84,-576 612.84,-612"/>
<text text-anchor="middle" x="562.84" y="-590.3" font-family="Times,serif" font-size="14.00" fill="red">PulseStride</text>
</g>
<!-- PulseStride&#45;&gt;scippneutron.tof.unwrap.frame_period_FramePeriod -->
<g id="edge13" class="edge">
<title>PulseStride&#45;&gt;scippneutron.tof.unwrap.frame_period_FramePeriod</title>
<path fill="none" stroke="black" d="M564.07,-575.7C564.59,-568.41 565.21,-559.73 565.8,-551.54"/>
<polygon fill="black" stroke="black" points="569.29,-551.84 566.51,-541.61 562.3,-551.34 569.29,-551.84"/>
</g>
<!-- PulseStride&#45;&gt;scippneutron.tof.unwrap.pulse_offset_PulseOffset -->
<g id="edge19" class="edge">
<title>PulseStride&#45;&gt;scippneutron.tof.unwrap.pulse_offset_PulseOffset</title>
<path fill="none" stroke="black" d="M525.12,-575.52C503.56,-565.52 476.45,-552.95 454.15,-542.62"/>
<polygon fill="black" stroke="black" points="455.88,-539.56 445.34,-538.53 452.94,-545.91 455.88,-539.56"/>
</g>
<!-- scippneutron.tof.unwrap.frame_wrapped_time_offset_pulse_skipping_FrameWrappedTimeOffset -->
<g id="node16" class="node">
<title>scippneutron.tof.unwrap.frame_wrapped_time_offset_pulse_skipping_FrameWrappedTimeOffset</title>
<ellipse fill="none" stroke="black" cx="411.84" cy="-378" rx="211.76" ry="18"/>
<text text-anchor="middle" x="411.84" y="-374.3" font-family="Times,serif" font-size="14.00">frame_wrapped_time_offset_pulse_skipping</text>
</g>
<!-- scippneutron.tof.unwrap.frame_wrapped_time_offset_pulse_skipping_FrameWrappedTimeOffset&#45;&gt;FrameWrappedTimeOffset -->
<g id="edge17" class="edge">
<title>scippneutron.tof.unwrap.frame_wrapped_time_offset_pulse_skipping_FrameWrappedTimeOffset&#45;&gt;FrameWrappedTimeOffset</title>
<path fill="none" stroke="black" d="M416.78,-359.7C418.91,-352.24 421.46,-343.32 423.85,-334.97"/>
<polygon fill="black" stroke="black" points="427.15,-336.14 426.54,-325.56 420.42,-334.21 427.15,-336.14"/>
</g>
<!-- PulseWrappedTimeOffset -->
<g id="node17" class="node">
<title>PulseWrappedTimeOffset</title>
<polygon fill="none" stroke="black" points="247.34,-612 50.34,-612 50.34,-576 247.34,-576 247.34,-612"/>
<text text-anchor="middle" x="148.84" y="-590.3" font-family="Times,serif" font-size="14.00">PulseWrappedTimeOffset</text>
</g>
<!-- PulseWrappedTimeOffset&#45;&gt;scippneutron.tof.unwrap.frame_wrapped_time_offset_pulse_skipping_FrameWrappedTimeOffset -->
<g id="edge15" class="edge">
<title>PulseWrappedTimeOffset&#45;&gt;scippneutron.tof.unwrap.frame_wrapped_time_offset_pulse_skipping_FrameWrappedTimeOffset</title>
<path fill="none" stroke="black" d="M169.92,-575.85C216.47,-537.97 328.17,-447.08 381.93,-403.33"/>
<polygon fill="black" stroke="black" points="383.94,-406.21 389.49,-397.19 379.52,-400.78 383.94,-406.21"/>
</g>
<!-- PulseOffset -->
<g id="node18" class="node">
<title>PulseOffset</title>
<polygon fill="none" stroke="black" points="460.84,-468 362.84,-468 362.84,-432 460.84,-432 460.84,-468"/>
<text text-anchor="middle" x="411.84" y="-446.3" font-family="Times,serif" font-size="14.00">PulseOffset</text>
</g>
<!-- PulseOffset&#45;&gt;scippneutron.tof.unwrap.frame_wrapped_time_offset_pulse_skipping_FrameWrappedTimeOffset -->
<g id="edge16" class="edge">
<title>PulseOffset&#45;&gt;scippneutron.tof.unwrap.frame_wrapped_time_offset_pulse_skipping_FrameWrappedTimeOffset</title>
<path fill="none" stroke="black" d="M411.84,-431.7C411.84,-424.41 411.84,-415.73 411.84,-407.54"/>
<polygon fill="black" stroke="black" points="415.34,-407.62 411.84,-397.62 408.34,-407.62 415.34,-407.62"/>
</g>
<!-- scippneutron.tof.unwrap.pulse_offset_PulseOffset&#45;&gt;PulseOffset -->
<g id="edge21" class="edge">
<title>scippneutron.tof.unwrap.pulse_offset_PulseOffset&#45;&gt;PulseOffset</title>
<path fill="none" stroke="black" d="M411.84,-503.7C411.84,-496.41 411.84,-487.73 411.84,-479.54"/>
<polygon fill="black" stroke="black" points="415.34,-479.62 411.84,-469.62 408.34,-479.62 415.34,-479.62"/>
</g>
<!-- TimeZero -->
<g id="node20" class="node">
<title>TimeZero</title>
<polygon fill="none" stroke="black" points="375.34,-612 290.34,-612 290.34,-576 375.34,-576 375.34,-612"/>
<text text-anchor="middle" x="332.84" y="-590.3" font-family="Times,serif" font-size="14.00">TimeZero</text>
</g>
<!-- TimeZero&#45;&gt;scippneutron.tof.unwrap.pulse_offset_PulseOffset -->
<g id="edge20" class="edge">
<title>TimeZero&#45;&gt;scippneutron.tof.unwrap.pulse_offset_PulseOffset</title>
<path fill="none" stroke="black" d="M352.37,-575.7C362.08,-567.09 373.97,-556.55 384.56,-547.17"/>
<polygon fill="black" stroke="black" points="386.78,-549.88 391.95,-540.63 382.14,-544.64 386.78,-549.88"/>
</g>
<!-- sciline.provide_none_PulseStride -->
<g id="node21" class="node">
<title>sciline.provide_none_PulseStride</title>
<ellipse fill="none" stroke="black" cx="631.84" cy="-666" rx="211.76" ry="18"/>
<text text-anchor="middle" x="631.84" y="-662.3" font-family="Times,serif" font-size="14.00">Provider.provide_none.&lt;locals&gt;.&lt;lambda&gt;</text>
</g>
<!-- sciline.provide_none_PulseStride&#45;&gt;PulseStride -->
<g id="edge22" class="edge">
<title>sciline.provide_none_PulseStride&#45;&gt;PulseStride</title>
<path fill="none" stroke="black" d="M614.78,-647.7C606.59,-639.39 596.63,-629.28 587.62,-620.14"/>
<polygon fill="black" stroke="black" points="590.27,-617.85 580.76,-613.18 585.29,-622.76 590.27,-617.85"/>
</g>
<!-- scippneutron.tof.unwrap.pulse_wrapped_time_offset_PulseWrappedTimeOffset -->
<g id="node22" class="node">
<title>scippneutron.tof.unwrap.pulse_wrapped_time_offset_PulseWrappedTimeOffset</title>
<ellipse fill="none" stroke="black" cx="135.84" cy="-666" rx="135.68" ry="18"/>
<text text-anchor="middle" x="135.84" y="-662.3" font-family="Times,serif" font-size="14.00">pulse_wrapped_time_offset</text>
</g>
<!-- scippneutron.tof.unwrap.pulse_wrapped_time_offset_PulseWrappedTimeOffset&#45;&gt;PulseWrappedTimeOffset -->
<g id="edge24" class="edge">
<title>scippneutron.tof.unwrap.pulse_wrapped_time_offset_PulseWrappedTimeOffset&#45;&gt;PulseWrappedTimeOffset</title>
<path fill="none" stroke="black" d="M139.05,-647.7C140.42,-640.32 142.05,-631.52 143.59,-623.25"/>
<polygon fill="black" stroke="black" points="147,-624.06 145.39,-613.59 140.12,-622.79 147,-624.06"/>
</g>
<!-- RawData -->
<g id="node23" class="node">
<title>RawData</title>
<polygon fill="none" stroke="red" stroke-dasharray="5,2" points="386.34,-756 305.34,-756 305.34,-720 386.34,-720 386.34,-756"/>
<text text-anchor="middle" x="345.84" y="-734.3" font-family="Times,serif" font-size="14.00" fill="red">RawData</text>
</g>
<!-- RawData&#45;&gt;scippneutron.tof.unwrap.pulse_wrapped_time_offset_PulseWrappedTimeOffset -->
<g id="edge23" class="edge">
<title>RawData&#45;&gt;scippneutron.tof.unwrap.pulse_wrapped_time_offset_PulseWrappedTimeOffset</title>
<path fill="none" stroke="black" d="M304.85,-723.34C273.59,-712.92 230.08,-698.42 195.04,-686.73"/>
<polygon fill="black" stroke="black" points="196.49,-683.53 185.9,-683.69 194.28,-690.17 196.49,-683.53"/>
</g>
<!-- scippneutron.tof.unwrap.time_zero_TimeZero -->
<g id="node24" class="node">
<title>scippneutron.tof.unwrap.time_zero_TimeZero</title>
<ellipse fill="none" stroke="black" cx="345.84" cy="-666" rx="55.79" ry="18"/>
<text text-anchor="middle" x="345.84" y="-662.3" font-family="Times,serif" font-size="14.00">time_zero</text>
</g>
<!-- RawData&#45;&gt;scippneutron.tof.unwrap.time_zero_TimeZero -->
<g id="edge25" class="edge">
<title>RawData&#45;&gt;scippneutron.tof.unwrap.time_zero_TimeZero</title>
<path fill="none" stroke="black" d="M345.84,-719.7C345.84,-712.41 345.84,-703.73 345.84,-695.54"/>
<polygon fill="black" stroke="black" points="349.34,-695.62 345.84,-685.62 342.34,-695.62 349.34,-695.62"/>
</g>
<!-- RawData&#45;&gt;scippneutron.tof.unwrap.unwrap_data_UnwrappedData -->
<g id="edge27" class="edge">
<title>RawData&#45;&gt;scippneutron.tof.unwrap.unwrap_data_UnwrappedData</title>
<path fill="none" stroke="black" d="M386.74,-733.96C473.12,-727.27 680.41,-709.78 852.84,-684 1010.3,-660.45 1199.84,-754.21 1199.84,-595 1199.84,-595 1199.84,-595 1199.84,-233 1199.84,-167.56 1125.98,-128.04 1071.86,-107.87"/>
<polygon fill="black" stroke="black" points="1073.34,-104.68 1062.75,-104.6 1070.98,-111.27 1073.34,-104.68"/>
</g>
<!-- scippneutron.tof.unwrap.time_zero_TimeZero&#45;&gt;TimeZero -->
<g id="edge26" class="edge">
<title>scippneutron.tof.unwrap.time_zero_TimeZero&#45;&gt;TimeZero</title>
<path fill="none" stroke="black" d="M342.62,-647.7C341.25,-640.32 339.62,-631.52 338.08,-623.25"/>
<polygon fill="black" stroke="black" points="341.56,-622.79 336.29,-613.59 334.68,-624.06 341.56,-622.79"/>
</g>
<!-- UnwrappedData -->
<g id="node26" class="node">
<title>UnwrappedData</title>
<polygon fill="none" stroke="black" points="1082.84,-36 948.84,-36 948.84,0 1082.84,0 1082.84,-36"/>
<text text-anchor="middle" x="1015.84" y="-14.3" font-family="Times,serif" font-size="14.00">UnwrappedData</text>
</g>
<!-- scippneutron.tof.unwrap.unwrap_data_UnwrappedData&#45;&gt;UnwrappedData -->
<g id="edge29" class="edge">
<title>scippneutron.tof.unwrap.unwrap_data_UnwrappedData&#45;&gt;UnwrappedData</title>
<path fill="none" stroke="black" d="M1015.84,-71.7C1015.84,-64.41 1015.84,-55.73 1015.84,-47.54"/>
<polygon fill="black" stroke="black" points="1019.34,-47.62 1015.84,-37.62 1012.34,-47.62 1019.34,-47.62"/>
</g>
</g>
</svg>
