<?xml version="1.0" encoding="UTF-8" standalone="no"?>
<!DOCTYPE svg PUBLIC "-//W3C//DTD SVG 1.1//EN"
 "http://www.w3.org/Graphics/SVG/1.1/DTD/svg11.dtd">
<!-- Generated by graphviz version 11.0.0 (20240519.1550)
 -->
<!-- Pages: 1 -->
<svg width="865pt" height="476pt"
 viewBox="0.00 0.00 864.50 476.00" xmlns="http://www.w3.org/2000/svg" xmlns:xlink="http://www.w3.org/1999/xlink">
<g id="graph0" class="graph" transform="scale(1 1) rotate(0) translate(4 472)">
<polygon fill="white" stroke="none" points="-4,4 -4,-472 860.5,-472 860.5,4 -4,4"/>
<!-- Choppers -->
<g id="node1" class="node">
<title>Choppers</title>
<polygon fill="none" stroke="red" stroke-dasharray="5,2" points="568.38,-468 484.12,-468 484.12,-432 568.38,-432 568.38,-468"/>
<text text-anchor="middle" x="526.25" y="-445.32" font-family="Times,serif" font-size="14.00" fill="red">Choppers</text>
</g>
<!-- scippneutron.tof.unwrap.frame_at_detector_FrameAtDetector -->
<g id="node2" class="node">
<title>scippneutron.tof.unwrap.frame_at_detector_FrameAtDetector</title>
<ellipse fill="none" stroke="black" cx="603.25" cy="-378" rx="102.24" ry="18"/>
<text text-anchor="middle" x="603.25" y="-373.32" font-family="Times,serif" font-size="14.00">frame_at_detector</text>
</g>
<!-- Choppers&#45;&gt;scippneutron.tof.unwrap.frame_at_detector_FrameAtDetector -->
<g id="edge3" class="edge">
<title>Choppers&#45;&gt;scippneutron.tof.unwrap.frame_at_detector_FrameAtDetector</title>
<path fill="none" stroke="black" d="M545.28,-431.7C554.61,-423.22 566,-412.86 576.21,-403.58"/>
<polygon fill="black" stroke="black" points="578.27,-406.44 583.32,-397.12 573.56,-401.26 578.27,-406.44"/>
</g>
<!-- scippneutron.tof.unwrap.source_chopper_SourceChopper -->
<g id="node7" class="node">
<title>scippneutron.tof.unwrap.source_chopper_SourceChopper</title>
<ellipse fill="none" stroke="black" cx="393.25" cy="-378" rx="89.61" ry="18"/>
<text text-anchor="middle" x="393.25" y="-373.32" font-family="Times,serif" font-size="14.00">source_chopper</text>
</g>
<!-- Choppers&#45;&gt;scippneutron.tof.unwrap.source_chopper_SourceChopper -->
<g id="edge6" class="edge">
<title>Choppers&#45;&gt;scippneutron.tof.unwrap.source_chopper_SourceChopper</title>
<path fill="none" stroke="black" d="M493.03,-431.52C475.24,-422.15 453.18,-410.54 434.32,-400.62"/>
<polygon fill="black" stroke="black" points="436.04,-397.57 425.56,-396.01 432.78,-403.76 436.04,-397.57"/>
</g>
<!-- FrameAtDetector -->
<g id="node6" class="node">
<title>FrameAtDetector</title>
<polygon fill="none" stroke="black" points="671.5,-324 531,-324 531,-288 671.5,-288 671.5,-324"/>
<text text-anchor="middle" x="601.25" y="-301.32" font-family="Times,serif" font-size="14.00">FrameAtDetector</text>
</g>
<!-- scippneutron.tof.unwrap.frame_at_detector_FrameAtDetector&#45;&gt;FrameAtDetector -->
<g id="edge5" class="edge">
<title>scippneutron.tof.unwrap.frame_at_detector_FrameAtDetector&#45;&gt;FrameAtDetector</title>
<path fill="none" stroke="black" d="M602.76,-359.7C602.55,-352.41 602.3,-343.73 602.07,-335.54"/>
<polygon fill="black" stroke="black" points="605.57,-335.51 601.78,-325.62 598.57,-335.71 605.57,-335.51"/>
</g>
<!-- SourceWavelengthRange -->
<g id="node3" class="node">
<title>SourceWavelengthRange</title>
<polygon fill="none" stroke="red" stroke-dasharray="5,2" points="856.5,-468 662,-468 662,-432 856.5,-432 856.5,-468"/>
<text text-anchor="middle" x="759.25" y="-445.32" font-family="Times,serif" font-size="14.00" fill="red">SourceWavelengthRange</text>
</g>
<!-- SourceWavelengthRange&#45;&gt;scippneutron.tof.unwrap.frame_at_detector_FrameAtDetector -->
<g id="edge1" class="edge">
<title>SourceWavelengthRange&#45;&gt;scippneutron.tof.unwrap.frame_at_detector_FrameAtDetector</title>
<path fill="none" stroke="black" d="M720.29,-431.52C698.94,-421.94 672.34,-410 649.89,-399.93"/>
<polygon fill="black" stroke="black" points="651.51,-396.82 640.96,-395.92 648.65,-403.21 651.51,-396.82"/>
</g>
<!-- SourceTimeRange -->
<g id="node4" class="node">
<title>SourceTimeRange</title>
<polygon fill="none" stroke="red" stroke-dasharray="5,2" points="466.12,-468 320.38,-468 320.38,-432 466.12,-432 466.12,-468"/>
<text text-anchor="middle" x="393.25" y="-445.32" font-family="Times,serif" font-size="14.00" fill="red">SourceTimeRange</text>
</g>
<!-- SourceTimeRange&#45;&gt;scippneutron.tof.unwrap.frame_at_detector_FrameAtDetector -->
<g id="edge2" class="edge">
<title>SourceTimeRange&#45;&gt;scippneutron.tof.unwrap.frame_at_detector_FrameAtDetector</title>
<path fill="none" stroke="black" d="M445.7,-431.52C476.24,-421.34 514.76,-408.5 546.08,-398.06"/>
<polygon fill="black" stroke="black" points="547.01,-401.44 555.39,-394.95 544.79,-394.8 547.01,-401.44"/>
</g>
<!-- SourceTimeRange&#45;&gt;scippneutron.tof.unwrap.source_chopper_SourceChopper -->
<g id="edge7" class="edge">
<title>SourceTimeRange&#45;&gt;scippneutron.tof.unwrap.source_chopper_SourceChopper</title>
<path fill="none" stroke="black" d="M393.25,-431.7C393.25,-424.41 393.25,-415.73 393.25,-407.54"/>
<polygon fill="black" stroke="black" points="396.75,-407.62 393.25,-397.62 389.75,-407.62 396.75,-407.62"/>
</g>
<!-- Ltotal -->
<g id="node5" class="node">
<title>Ltotal</title>
<polygon fill="none" stroke="red" stroke-dasharray="5,2" points="644.25,-468 586.25,-468 586.25,-432 644.25,-432 644.25,-468"/>
<text text-anchor="middle" x="615.25" y="-445.32" font-family="Times,serif" font-size="14.00" fill="red">Ltotal</text>
</g>
<!-- Ltotal&#45;&gt;scippneutron.tof.unwrap.frame_at_detector_FrameAtDetector -->
<g id="edge4" class="edge">
<title>Ltotal&#45;&gt;scippneutron.tof.unwrap.frame_at_detector_FrameAtDetector</title>
<path fill="none" stroke="black" d="M612.28,-431.7C611.02,-424.32 609.51,-415.52 608.09,-407.25"/>
<polygon fill="black" stroke="black" points="611.58,-406.86 606.44,-397.6 604.68,-408.04 611.58,-406.86"/>
</g>
<!-- scippneutron.tof.unwrap.subframe_bounds_SubframeBounds -->
<g id="node10" class="node">
<title>scippneutron.tof.unwrap.subframe_bounds_SubframeBounds</title>
<ellipse fill="none" stroke="black" cx="599.25" cy="-234" rx="99.61" ry="18"/>
<text text-anchor="middle" x="599.25" y="-229.32" font-family="Times,serif" font-size="14.00">subframe_bounds</text>
</g>
<!-- FrameAtDetector&#45;&gt;scippneutron.tof.unwrap.subframe_bounds_SubframeBounds -->
<g id="edge10" class="edge">
<title>FrameAtDetector&#45;&gt;scippneutron.tof.unwrap.subframe_bounds_SubframeBounds</title>
<path fill="none" stroke="black" d="M600.76,-287.7C600.55,-280.41 600.3,-271.73 600.07,-263.54"/>
<polygon fill="black" stroke="black" points="603.57,-263.51 599.78,-253.62 596.57,-263.71 603.57,-263.51"/>
</g>
<!-- SourceChopper -->
<g id="node9" class="node">
<title>SourceChopper</title>
<polygon fill="none" stroke="black" points="477.38,-252 351.12,-252 351.12,-216 477.38,-216 477.38,-252"/>
<text text-anchor="middle" x="414.25" y="-229.32" font-family="Times,serif" font-size="14.00">SourceChopper</text>
</g>
<!-- scippneutron.tof.unwrap.source_chopper_SourceChopper&#45;&gt;SourceChopper -->
<g id="edge9" class="edge">
<title>scippneutron.tof.unwrap.source_chopper_SourceChopper&#45;&gt;SourceChopper</title>
<path fill="none" stroke="black" d="M395.83,-359.59C399.37,-335.61 405.8,-292.14 410.05,-263.42"/>
<polygon fill="black" stroke="black" points="413.5,-264.01 411.5,-253.61 406.57,-262.99 413.5,-264.01"/>
</g>
<!-- Union[SourceChopperName, NoneType] -->
<g id="node8" class="node">
<title>Union[SourceChopperName, NoneType]</title>
<polygon fill="none" stroke="red" stroke-dasharray="5,2" points="302.5,-468 0,-468 0,-432 302.5,-432 302.5,-468"/>
<text text-anchor="middle" x="151.25" y="-445.32" font-family="Times,serif" font-size="14.00" fill="red">Union[SourceChopperName, NoneType]</text>
</g>
<!-- Union[SourceChopperName, NoneType]&#45;&gt;scippneutron.tof.unwrap.source_chopper_SourceChopper -->
<g id="edge8" class="edge">
<title>Union[SourceChopperName, NoneType]&#45;&gt;scippneutron.tof.unwrap.source_chopper_SourceChopper</title>
<path fill="none" stroke="black" d="M211.69,-431.52C248.77,-420.79 296.07,-407.11 333.1,-396.4"/>
<polygon fill="black" stroke="black" points="333.66,-399.88 342.29,-393.74 331.71,-393.16 333.66,-399.88"/>
</g>
<!-- scippneutron.tof.unwrap.time_of_flight_origin_wfm_from_chopper_TimeOfFlightOrigin -->
<g id="node12" class="node">
<title>scippneutron.tof.unwrap.time_of_flight_origin_wfm_from_chopper_TimeOfFlightOrigin</title>
<ellipse fill="none" stroke="black" cx="504.25" cy="-90" rx="213.25" ry="18"/>
<text text-anchor="middle" x="504.25" y="-85.33" font-family="Times,serif" font-size="14.00">time_of_flight_origin_wfm_from_chopper</text>
</g>
<!-- SourceChopper&#45;&gt;scippneutron.tof.unwrap.time_of_flight_origin_wfm_from_chopper_TimeOfFlightOrigin -->
<g id="edge12" class="edge">
<title>SourceChopper&#45;&gt;scippneutron.tof.unwrap.time_of_flight_origin_wfm_from_chopper_TimeOfFlightOrigin</title>
<path fill="none" stroke="black" d="M425.29,-215.59C440.82,-191.08 469.27,-146.19 487.44,-117.52"/>
<polygon fill="black" stroke="black" points="490.2,-119.71 492.59,-109.39 484.29,-115.96 490.2,-119.71"/>
</g>
<!-- SubframeBounds -->
<g id="node11" class="node">
<title>SubframeBounds</title>
<polygon fill="none" stroke="black" points="643.75,-180 504.75,-180 504.75,-144 643.75,-144 643.75,-180"/>
<text text-anchor="middle" x="574.25" y="-157.32" font-family="Times,serif" font-size="14.00">SubframeBounds</text>
</g>
<!-- scippneutron.tof.unwrap.subframe_bounds_SubframeBounds&#45;&gt;SubframeBounds -->
<g id="edge11" class="edge">
<title>scippneutron.tof.unwrap.subframe_bounds_SubframeBounds&#45;&gt;SubframeBounds</title>
<path fill="none" stroke="black" d="M593.07,-215.7C590.38,-208.15 587.15,-199.12 584.14,-190.68"/>
<polygon fill="black" stroke="black" points="587.53,-189.77 580.87,-181.53 580.94,-192.12 587.53,-189.77"/>
</g>
<!-- SubframeBounds&#45;&gt;scippneutron.tof.unwrap.time_of_flight_origin_wfm_from_chopper_TimeOfFlightOrigin -->
<g id="edge13" class="edge">
<title>SubframeBounds&#45;&gt;scippneutron.tof.unwrap.time_of_flight_origin_wfm_from_chopper_TimeOfFlightOrigin</title>
<path fill="none" stroke="black" d="M556.95,-143.7C548.64,-135.39 538.53,-125.28 529.39,-116.14"/>
<polygon fill="black" stroke="black" points="531.97,-113.77 522.42,-109.17 527.02,-118.72 531.97,-113.77"/>
</g>
<!-- TimeOfFlightOrigin -->
<g id="node13" class="node">
<title>TimeOfFlightOrigin</title>
<polygon fill="none" stroke="black" points="582,-36 426.5,-36 426.5,0 582,0 582,-36"/>
<text text-anchor="middle" x="504.25" y="-13.32" font-family="Times,serif" font-size="14.00">TimeOfFlightOrigin</text>
</g>
<!-- scippneutron.tof.unwrap.time_of_flight_origin_wfm_from_chopper_TimeOfFlightOrigin&#45;&gt;TimeOfFlightOrigin -->
<g id="edge14" class="edge">
<title>scippneutron.tof.unwrap.time_of_flight_origin_wfm_from_chopper_TimeOfFlightOrigin&#45;&gt;TimeOfFlightOrigin</title>
<path fill="none" stroke="black" d="M504.25,-71.7C504.25,-64.41 504.25,-55.73 504.25,-47.54"/>
<polygon fill="black" stroke="black" points="507.75,-47.62 504.25,-37.62 500.75,-47.62 507.75,-47.62"/>
</g>
</g>
</svg>
