<?xml version="1.0" encoding="UTF-8" standalone="no"?>
<!DOCTYPE svg PUBLIC "-//W3C//DTD SVG 1.1//EN"
 "http://www.w3.org/Graphics/SVG/1.1/DTD/svg11.dtd">
<!-- Generated by graphviz version 7.1.0 (20230122.1345)
 -->
<!-- Pages: 1 -->
<svg width="312pt" height="208pt"
 viewBox="0.00 0.00 312.00 208.00" xmlns="http://www.w3.org/2000/svg" xmlns:xlink="http://www.w3.org/1999/xlink">
<g id="graph0" class="graph" transform="scale(1 1) rotate(0) translate(4 204)">
<polygon fill="white" stroke="none" points="-4,4 -4,-204 308,-204 308,4 -4,4"/>
<!-- source_position -->
<g id="node1" class="node">
<title>source_position</title>
<polygon fill="none" stroke="black" points="128,-200 0,-200 0,-177 128,-177 128,-200"/>
<text text-anchor="middle" x="64" y="-184.8" font-family="Times,serif" font-size="14.00">source_position</text>
</g>
<!-- incident_beam -->
<g id="node2" class="node">
<title>incident_beam</title>
<polygon fill="none" stroke="black" points="212,-141 92,-141 92,-118 212,-118 212,-141"/>
<text text-anchor="middle" x="152" y="-125.8" font-family="Times,serif" font-size="14.00">incident_beam</text>
</g>
<!-- source_position&#45;&gt;incident_beam -->
<g id="edge1" class="edge">
<title>source_position&#45;&gt;incident_beam</title>
<path fill="none" stroke="black" d="M80.97,-176.51C93.63,-168.31 111.16,-156.95 125.65,-147.57"/>
<polygon fill="black" stroke="black" points="127.32,-150.65 133.81,-142.28 123.52,-144.78 127.32,-150.65"/>
</g>
<!-- Ltotal -->
<g id="node6" class="node">
<title>Ltotal</title>
<polygon fill="none" stroke="black" points="181.5,-82 122.5,-82 122.5,-59 181.5,-59 181.5,-82"/>
<text text-anchor="middle" x="152" y="-66.8" font-family="Times,serif" font-size="14.00">Ltotal</text>
</g>
<!-- source_position&#45;&gt;Ltotal -->
<g id="edge8" class="edge">
<title>source_position&#45;&gt;Ltotal</title>
<path fill="none" stroke="black" d="M64.65,-176.62C66,-162.03 70.17,-135.89 83,-118 91.9,-105.59 105.22,-95.5 117.79,-87.93"/>
<polygon fill="black" stroke="black" points="119.3,-91.1 126.29,-83.14 115.86,-85 119.3,-91.1"/>
</g>
<!-- incident_beam&#45;&gt;Ltotal -->
<g id="edge7" class="edge">
<title>incident_beam&#45;&gt;Ltotal</title>
<path fill="none" stroke="black" d="M152,-117.51C152,-110.81 152,-101.99 152,-93.88"/>
<polygon fill="black" stroke="black" points="155.5,-93.97 152,-83.97 148.5,-93.97 155.5,-93.97"/>
</g>
<!-- sample_position -->
<g id="node3" class="node">
<title>sample_position</title>
<polygon fill="none" stroke="black" points="277.5,-200 146.5,-200 146.5,-177 277.5,-177 277.5,-200"/>
<text text-anchor="middle" x="212" y="-184.8" font-family="Times,serif" font-size="14.00">sample_position</text>
</g>
<!-- sample_position&#45;&gt;incident_beam -->
<g id="edge2" class="edge">
<title>sample_position&#45;&gt;incident_beam</title>
<path fill="none" stroke="black" d="M200.43,-176.51C192.3,-168.78 181.21,-158.25 171.7,-149.21"/>
<polygon fill="black" stroke="black" points="174.29,-146.85 164.63,-142.5 169.47,-151.92 174.29,-146.85"/>
</g>
<!-- tof -->
<g id="node4" class="node">
<title>tof</title>
<polygon fill="none" stroke="black" points="98,-82 44,-82 44,-59 98,-59 98,-82"/>
<text text-anchor="middle" x="71" y="-66.8" font-family="Times,serif" font-size="14.00">tof</text>
</g>
<!-- wavelength -->
<g id="node5" class="node">
<title>wavelength</title>
<polygon fill="none" stroke="black" points="107.5,-23 8.5,-23 8.5,0 107.5,0 107.5,-23"/>
<text text-anchor="middle" x="58" y="-7.8" font-family="Times,serif" font-size="14.00">wavelength</text>
</g>
<!-- tof&#45;&gt;wavelength -->
<g id="edge3" class="edge">
<title>tof&#45;&gt;wavelength</title>
<path fill="none" stroke="black" d="M68.49,-58.51C66.95,-51.73 64.91,-42.79 63.04,-34.59"/>
<polygon fill="black" stroke="black" points="66.47,-33.9 60.84,-24.93 59.65,-35.46 66.47,-33.9"/>
</g>
<!-- energy -->
<g id="node7" class="node">
<title>energy</title>
<polygon fill="none" stroke="black" points="192,-23 126,-23 126,0 192,0 192,-23"/>
<text text-anchor="middle" x="159" y="-7.8" font-family="Times,serif" font-size="14.00">energy</text>
</g>
<!-- tof&#45;&gt;energy -->
<g id="edge5" class="edge">
<title>tof&#45;&gt;energy</title>
<path fill="none" stroke="black" d="M87.97,-58.51C100.63,-50.31 118.16,-38.95 132.65,-29.57"/>
<polygon fill="black" stroke="black" points="134.32,-32.65 140.81,-24.28 130.52,-26.78 134.32,-32.65"/>
</g>
<!-- Ltotal&#45;&gt;wavelength -->
<g id="edge4" class="edge">
<title>Ltotal&#45;&gt;wavelength</title>
<path fill="none" stroke="black" d="M133.88,-58.51C120.22,-50.23 101.26,-38.73 85.71,-29.3"/>
<polygon fill="black" stroke="black" points="87.73,-26.43 77.36,-24.24 84.1,-32.42 87.73,-26.43"/>
</g>
<!-- Ltotal&#45;&gt;energy -->
<g id="edge6" class="edge">
<title>Ltotal&#45;&gt;energy</title>
<path fill="none" stroke="black" d="M153.35,-58.51C154.17,-51.81 155.26,-42.99 156.25,-34.88"/>
<polygon fill="black" stroke="black" points="159.72,-35.31 157.47,-24.96 152.78,-34.46 159.72,-35.31"/>
</g>
<!-- position -->
<g id="node8" class="node">
<title>position</title>
<polygon fill="none" stroke="black" points="304,-141 230,-141 230,-118 304,-118 304,-141"/>
<text text-anchor="middle" x="267" y="-125.8" font-family="Times,serif" font-size="14.00">position</text>
</g>
<!-- position&#45;&gt;Ltotal -->
<g id="edge9" class="edge">
<title>position&#45;&gt;Ltotal</title>
<path fill="none" stroke="black" d="M244.83,-117.51C227.64,-108.99 203.59,-97.07 184.28,-87.5"/>
<polygon fill="black" stroke="black" points="185.98,-84.43 175.46,-83.13 182.87,-90.71 185.98,-84.43"/>
</g>
</g>
</svg>
