<?xml version="1.0" encoding="utf-8" standalone="no"?>
<!DOCTYPE svg PUBLIC "-//W3C//DTD SVG 1.1//EN"
  "http://www.w3.org/Graphics/SVG/1.1/DTD/svg11.dtd">
<svg xmlns:xlink="http://www.w3.org/1999/xlink" width="388.965625pt" height="266.794375pt" viewBox="0 0 388.965625 266.794375" xmlns="http://www.w3.org/2000/svg" version="1.1">
 <metadata>
  <rdf:RDF xmlns:dc="http://purl.org/dc/elements/1.1/" xmlns:cc="http://creativecommons.org/ns#" xmlns:rdf="http://www.w3.org/1999/02/22-rdf-syntax-ns#">
   <cc:Work>
    <dc:type rdf:resource="http://purl.org/dc/dcmitype/StillImage"/>
    <dc:date>2025-01-20T13:50:46.853506</dc:date>
    <dc:format>image/svg+xml</dc:format>
    <dc:creator>
     <cc:Agent>
      <dc:title>Matplotlib v3.7.3, https://matplotlib.org/</dc:title>
     </cc:Agent>
    </dc:creator>
   </cc:Work>
  </rdf:RDF>
 </metadata>
 <defs>
  <style type="text/css">*{stroke-linejoin: round; stroke-linecap: butt}</style>
 </defs>
 <g id="figure_1">
  <g id="patch_1">
   <path d="M 0 266.794375 
L 388.965625 266.794375 
L 388.965625 0 
L 0 0 
z
" style="fill: #ffffff"/>
  </g>
  <g id="axes_1">
   <g id="patch_2">
    <path d="M 46.965625 228.96 
L 381.765625 228.96 
L 381.765625 7.2 
L 46.965625 7.2 
z
" style="fill: #ffffff"/>
   </g>
   <g id="matplotlib.axis_1">
    <g id="xtick_1">
     <g id="line2d_1">
      <defs>
       <path id="m538388a803" d="M 0 0 
L 0 3.5 
" style="stroke: #000000; stroke-width: 0.8"/>
      </defs>
      <g>
       <use xlink:href="#m538388a803" x="62.176964" y="228.96" style="stroke: #000000; stroke-width: 0.8"/>
      </g>
     </g>
     <g id="text_1">
      <!-- 0.00 -->
      <g transform="translate(51.044151 243.558437) scale(0.1 -0.1)">
       <defs>
        <path id="DejaVuSans-30" d="M 2034 4250 
Q 1547 4250 1301 3770 
Q 1056 3291 1056 2328 
Q 1056 1369 1301 889 
Q 1547 409 2034 409 
Q 2525 409 2770 889 
Q 3016 1369 3016 2328 
Q 3016 3291 2770 3770 
Q 2525 4250 2034 4250 
z
M 2034 4750 
Q 2819 4750 3233 4129 
Q 3647 3509 3647 2328 
Q 3647 1150 3233 529 
Q 2819 -91 2034 -91 
Q 1250 -91 836 529 
Q 422 1150 422 2328 
Q 422 3509 836 4129 
Q 1250 4750 2034 4750 
z
" transform="scale(0.015625)"/>
        <path id="DejaVuSans-2e" d="M 684 794 
L 1344 794 
L 1344 0 
L 684 0 
L 684 794 
z
" transform="scale(0.015625)"/>
       </defs>
       <use xlink:href="#DejaVuSans-30"/>
       <use xlink:href="#DejaVuSans-2e" x="63.623047"/>
       <use xlink:href="#DejaVuSans-30" x="95.410156"/>
       <use xlink:href="#DejaVuSans-30" x="159.033203"/>
      </g>
     </g>
    </g>
    <g id="xtick_2">
     <g id="line2d_2">
      <g>
       <use xlink:href="#m538388a803" x="104.789606" y="228.96" style="stroke: #000000; stroke-width: 0.8"/>
      </g>
     </g>
     <g id="text_2">
      <!-- 0.01 -->
      <g transform="translate(93.656794 243.558437) scale(0.1 -0.1)">
       <defs>
        <path id="DejaVuSans-31" d="M 794 531 
L 1825 531 
L 1825 4091 
L 703 3866 
L 703 4441 
L 1819 4666 
L 2450 4666 
L 2450 531 
L 3481 531 
L 3481 0 
L 794 0 
L 794 531 
z
" transform="scale(0.015625)"/>
       </defs>
       <use xlink:href="#DejaVuSans-30"/>
       <use xlink:href="#DejaVuSans-2e" x="63.623047"/>
       <use xlink:href="#DejaVuSans-30" x="95.410156"/>
       <use xlink:href="#DejaVuSans-31" x="159.033203"/>
      </g>
     </g>
    </g>
    <g id="xtick_3">
     <g id="line2d_3">
      <g>
       <use xlink:href="#m538388a803" x="147.402248" y="228.96" style="stroke: #000000; stroke-width: 0.8"/>
      </g>
     </g>
     <g id="text_3">
      <!-- 0.02 -->
      <g transform="translate(136.269436 243.558437) scale(0.1 -0.1)">
       <defs>
        <path id="DejaVuSans-32" d="M 1228 531 
L 3431 531 
L 3431 0 
L 469 0 
L 469 531 
Q 828 903 1448 1529 
Q 2069 2156 2228 2338 
Q 2531 2678 2651 2914 
Q 2772 3150 2772 3378 
Q 2772 3750 2511 3984 
Q 2250 4219 1831 4219 
Q 1534 4219 1204 4116 
Q 875 4013 500 3803 
L 500 4441 
Q 881 4594 1212 4672 
Q 1544 4750 1819 4750 
Q 2544 4750 2975 4387 
Q 3406 4025 3406 3419 
Q 3406 3131 3298 2873 
Q 3191 2616 2906 2266 
Q 2828 2175 2409 1742 
Q 1991 1309 1228 531 
z
" transform="scale(0.015625)"/>
       </defs>
       <use xlink:href="#DejaVuSans-30"/>
       <use xlink:href="#DejaVuSans-2e" x="63.623047"/>
       <use xlink:href="#DejaVuSans-30" x="95.410156"/>
       <use xlink:href="#DejaVuSans-32" x="159.033203"/>
      </g>
     </g>
    </g>
    <g id="xtick_4">
     <g id="line2d_4">
      <g>
       <use xlink:href="#m538388a803" x="190.014891" y="228.96" style="stroke: #000000; stroke-width: 0.8"/>
      </g>
     </g>
     <g id="text_4">
      <!-- 0.03 -->
      <g transform="translate(178.882078 243.558437) scale(0.1 -0.1)">
       <defs>
        <path id="DejaVuSans-33" d="M 2597 2516 
Q 3050 2419 3304 2112 
Q 3559 1806 3559 1356 
Q 3559 666 3084 287 
Q 2609 -91 1734 -91 
Q 1441 -91 1130 -33 
Q 819 25 488 141 
L 488 750 
Q 750 597 1062 519 
Q 1375 441 1716 441 
Q 2309 441 2620 675 
Q 2931 909 2931 1356 
Q 2931 1769 2642 2001 
Q 2353 2234 1838 2234 
L 1294 2234 
L 1294 2753 
L 1863 2753 
Q 2328 2753 2575 2939 
Q 2822 3125 2822 3475 
Q 2822 3834 2567 4026 
Q 2313 4219 1838 4219 
Q 1578 4219 1281 4162 
Q 984 4106 628 3988 
L 628 4550 
Q 988 4650 1302 4700 
Q 1616 4750 1894 4750 
Q 2613 4750 3031 4423 
Q 3450 4097 3450 3541 
Q 3450 3153 3228 2886 
Q 3006 2619 2597 2516 
z
" transform="scale(0.015625)"/>
       </defs>
       <use xlink:href="#DejaVuSans-30"/>
       <use xlink:href="#DejaVuSans-2e" x="63.623047"/>
       <use xlink:href="#DejaVuSans-30" x="95.410156"/>
       <use xlink:href="#DejaVuSans-33" x="159.033203"/>
      </g>
     </g>
    </g>
    <g id="xtick_5">
     <g id="line2d_5">
      <g>
       <use xlink:href="#m538388a803" x="232.627533" y="228.96" style="stroke: #000000; stroke-width: 0.8"/>
      </g>
     </g>
     <g id="text_5">
      <!-- 0.04 -->
      <g transform="translate(221.494721 243.558437) scale(0.1 -0.1)">
       <defs>
        <path id="DejaVuSans-34" d="M 2419 4116 
L 825 1625 
L 2419 1625 
L 2419 4116 
z
M 2253 4666 
L 3047 4666 
L 3047 1625 
L 3713 1625 
L 3713 1100 
L 3047 1100 
L 3047 0 
L 2419 0 
L 2419 1100 
L 313 1100 
L 313 1709 
L 2253 4666 
z
" transform="scale(0.015625)"/>
       </defs>
       <use xlink:href="#DejaVuSans-30"/>
       <use xlink:href="#DejaVuSans-2e" x="63.623047"/>
       <use xlink:href="#DejaVuSans-30" x="95.410156"/>
       <use xlink:href="#DejaVuSans-34" x="159.033203"/>
      </g>
     </g>
    </g>
    <g id="xtick_6">
     <g id="line2d_6">
      <g>
       <use xlink:href="#m538388a803" x="275.240175" y="228.96" style="stroke: #000000; stroke-width: 0.8"/>
      </g>
     </g>
     <g id="text_6">
      <!-- 0.05 -->
      <g transform="translate(264.107363 243.558437) scale(0.1 -0.1)">
       <defs>
        <path id="DejaVuSans-35" d="M 691 4666 
L 3169 4666 
L 3169 4134 
L 1269 4134 
L 1269 2991 
Q 1406 3038 1543 3061 
Q 1681 3084 1819 3084 
Q 2600 3084 3056 2656 
Q 3513 2228 3513 1497 
Q 3513 744 3044 326 
Q 2575 -91 1722 -91 
Q 1428 -91 1123 -41 
Q 819 9 494 109 
L 494 744 
Q 775 591 1075 516 
Q 1375 441 1709 441 
Q 2250 441 2565 725 
Q 2881 1009 2881 1497 
Q 2881 1984 2565 2268 
Q 2250 2553 1709 2553 
Q 1456 2553 1204 2497 
Q 953 2441 691 2322 
L 691 4666 
z
" transform="scale(0.015625)"/>
       </defs>
       <use xlink:href="#DejaVuSans-30"/>
       <use xlink:href="#DejaVuSans-2e" x="63.623047"/>
       <use xlink:href="#DejaVuSans-30" x="95.410156"/>
       <use xlink:href="#DejaVuSans-35" x="159.033203"/>
      </g>
     </g>
    </g>
    <g id="xtick_7">
     <g id="line2d_7">
      <g>
       <use xlink:href="#m538388a803" x="317.852818" y="228.96" style="stroke: #000000; stroke-width: 0.8"/>
      </g>
     </g>
     <g id="text_7">
      <!-- 0.06 -->
      <g transform="translate(306.720005 243.558437) scale(0.1 -0.1)">
       <defs>
        <path id="DejaVuSans-36" d="M 2113 2584 
Q 1688 2584 1439 2293 
Q 1191 2003 1191 1497 
Q 1191 994 1439 701 
Q 1688 409 2113 409 
Q 2538 409 2786 701 
Q 3034 994 3034 1497 
Q 3034 2003 2786 2293 
Q 2538 2584 2113 2584 
z
M 3366 4563 
L 3366 3988 
Q 3128 4100 2886 4159 
Q 2644 4219 2406 4219 
Q 1781 4219 1451 3797 
Q 1122 3375 1075 2522 
Q 1259 2794 1537 2939 
Q 1816 3084 2150 3084 
Q 2853 3084 3261 2657 
Q 3669 2231 3669 1497 
Q 3669 778 3244 343 
Q 2819 -91 2113 -91 
Q 1303 -91 875 529 
Q 447 1150 447 2328 
Q 447 3434 972 4092 
Q 1497 4750 2381 4750 
Q 2619 4750 2861 4703 
Q 3103 4656 3366 4563 
z
" transform="scale(0.015625)"/>
       </defs>
       <use xlink:href="#DejaVuSans-30"/>
       <use xlink:href="#DejaVuSans-2e" x="63.623047"/>
       <use xlink:href="#DejaVuSans-30" x="95.410156"/>
       <use xlink:href="#DejaVuSans-36" x="159.033203"/>
      </g>
     </g>
    </g>
    <g id="xtick_8">
     <g id="line2d_8">
      <g>
       <use xlink:href="#m538388a803" x="360.46546" y="228.96" style="stroke: #000000; stroke-width: 0.8"/>
      </g>
     </g>
     <g id="text_8">
      <!-- 0.07 -->
      <g transform="translate(349.332647 243.558437) scale(0.1 -0.1)">
       <defs>
        <path id="DejaVuSans-37" d="M 525 4666 
L 3525 4666 
L 3525 4397 
L 1831 0 
L 1172 0 
L 2766 4134 
L 525 4134 
L 525 4666 
z
" transform="scale(0.015625)"/>
       </defs>
       <use xlink:href="#DejaVuSans-30"/>
       <use xlink:href="#DejaVuSans-2e" x="63.623047"/>
       <use xlink:href="#DejaVuSans-30" x="95.410156"/>
       <use xlink:href="#DejaVuSans-37" x="159.033203"/>
      </g>
     </g>
    </g>
    <g id="text_9">
     <!-- event_time_offset [s] -->
     <g transform="translate(161.511719 257.236562) scale(0.1 -0.1)">
      <defs>
       <path id="DejaVuSans-65" d="M 3597 1894 
L 3597 1613 
L 953 1613 
Q 991 1019 1311 708 
Q 1631 397 2203 397 
Q 2534 397 2845 478 
Q 3156 559 3463 722 
L 3463 178 
Q 3153 47 2828 -22 
Q 2503 -91 2169 -91 
Q 1331 -91 842 396 
Q 353 884 353 1716 
Q 353 2575 817 3079 
Q 1281 3584 2069 3584 
Q 2775 3584 3186 3129 
Q 3597 2675 3597 1894 
z
M 3022 2063 
Q 3016 2534 2758 2815 
Q 2500 3097 2075 3097 
Q 1594 3097 1305 2825 
Q 1016 2553 972 2059 
L 3022 2063 
z
" transform="scale(0.015625)"/>
       <path id="DejaVuSans-76" d="M 191 3500 
L 800 3500 
L 1894 563 
L 2988 3500 
L 3597 3500 
L 2284 0 
L 1503 0 
L 191 3500 
z
" transform="scale(0.015625)"/>
       <path id="DejaVuSans-6e" d="M 3513 2113 
L 3513 0 
L 2938 0 
L 2938 2094 
Q 2938 2591 2744 2837 
Q 2550 3084 2163 3084 
Q 1697 3084 1428 2787 
Q 1159 2491 1159 1978 
L 1159 0 
L 581 0 
L 581 3500 
L 1159 3500 
L 1159 2956 
Q 1366 3272 1645 3428 
Q 1925 3584 2291 3584 
Q 2894 3584 3203 3211 
Q 3513 2838 3513 2113 
z
" transform="scale(0.015625)"/>
       <path id="DejaVuSans-74" d="M 1172 4494 
L 1172 3500 
L 2356 3500 
L 2356 3053 
L 1172 3053 
L 1172 1153 
Q 1172 725 1289 603 
Q 1406 481 1766 481 
L 2356 481 
L 2356 0 
L 1766 0 
Q 1100 0 847 248 
Q 594 497 594 1153 
L 594 3053 
L 172 3053 
L 172 3500 
L 594 3500 
L 594 4494 
L 1172 4494 
z
" transform="scale(0.015625)"/>
       <path id="DejaVuSans-5f" d="M 3263 -1063 
L 3263 -1509 
L -63 -1509 
L -63 -1063 
L 3263 -1063 
z
" transform="scale(0.015625)"/>
       <path id="DejaVuSans-69" d="M 603 3500 
L 1178 3500 
L 1178 0 
L 603 0 
L 603 3500 
z
M 603 4863 
L 1178 4863 
L 1178 4134 
L 603 4134 
L 603 4863 
z
" transform="scale(0.015625)"/>
       <path id="DejaVuSans-6d" d="M 3328 2828 
Q 3544 3216 3844 3400 
Q 4144 3584 4550 3584 
Q 5097 3584 5394 3201 
Q 5691 2819 5691 2113 
L 5691 0 
L 5113 0 
L 5113 2094 
Q 5113 2597 4934 2840 
Q 4756 3084 4391 3084 
Q 3944 3084 3684 2787 
Q 3425 2491 3425 1978 
L 3425 0 
L 2847 0 
L 2847 2094 
Q 2847 2600 2669 2842 
Q 2491 3084 2119 3084 
Q 1678 3084 1418 2786 
Q 1159 2488 1159 1978 
L 1159 0 
L 581 0 
L 581 3500 
L 1159 3500 
L 1159 2956 
Q 1356 3278 1631 3431 
Q 1906 3584 2284 3584 
Q 2666 3584 2933 3390 
Q 3200 3197 3328 2828 
z
" transform="scale(0.015625)"/>
       <path id="DejaVuSans-6f" d="M 1959 3097 
Q 1497 3097 1228 2736 
Q 959 2375 959 1747 
Q 959 1119 1226 758 
Q 1494 397 1959 397 
Q 2419 397 2687 759 
Q 2956 1122 2956 1747 
Q 2956 2369 2687 2733 
Q 2419 3097 1959 3097 
z
M 1959 3584 
Q 2709 3584 3137 3096 
Q 3566 2609 3566 1747 
Q 3566 888 3137 398 
Q 2709 -91 1959 -91 
Q 1206 -91 779 398 
Q 353 888 353 1747 
Q 353 2609 779 3096 
Q 1206 3584 1959 3584 
z
" transform="scale(0.015625)"/>
       <path id="DejaVuSans-66" d="M 2375 4863 
L 2375 4384 
L 1825 4384 
Q 1516 4384 1395 4259 
Q 1275 4134 1275 3809 
L 1275 3500 
L 2222 3500 
L 2222 3053 
L 1275 3053 
L 1275 0 
L 697 0 
L 697 3053 
L 147 3053 
L 147 3500 
L 697 3500 
L 697 3744 
Q 697 4328 969 4595 
Q 1241 4863 1831 4863 
L 2375 4863 
z
" transform="scale(0.015625)"/>
       <path id="DejaVuSans-73" d="M 2834 3397 
L 2834 2853 
Q 2591 2978 2328 3040 
Q 2066 3103 1784 3103 
Q 1356 3103 1142 2972 
Q 928 2841 928 2578 
Q 928 2378 1081 2264 
Q 1234 2150 1697 2047 
L 1894 2003 
Q 2506 1872 2764 1633 
Q 3022 1394 3022 966 
Q 3022 478 2636 193 
Q 2250 -91 1575 -91 
Q 1294 -91 989 -36 
Q 684 19 347 128 
L 347 722 
Q 666 556 975 473 
Q 1284 391 1588 391 
Q 1994 391 2212 530 
Q 2431 669 2431 922 
Q 2431 1156 2273 1281 
Q 2116 1406 1581 1522 
L 1381 1569 
Q 847 1681 609 1914 
Q 372 2147 372 2553 
Q 372 3047 722 3315 
Q 1072 3584 1716 3584 
Q 2034 3584 2315 3537 
Q 2597 3491 2834 3397 
z
" transform="scale(0.015625)"/>
       <path id="DejaVuSans-20" transform="scale(0.015625)"/>
       <path id="DejaVuSans-5b" d="M 550 4863 
L 1875 4863 
L 1875 4416 
L 1125 4416 
L 1125 -397 
L 1875 -397 
L 1875 -844 
L 550 -844 
L 550 4863 
z
" transform="scale(0.015625)"/>
       <path id="DejaVuSans-5d" d="M 1947 4863 
L 1947 -844 
L 622 -844 
L 622 -397 
L 1369 -397 
L 1369 4416 
L 622 4416 
L 622 4863 
L 1947 4863 
z
" transform="scale(0.015625)"/>
      </defs>
      <use xlink:href="#DejaVuSans-65"/>
      <use xlink:href="#DejaVuSans-76" x="61.523438"/>
      <use xlink:href="#DejaVuSans-65" x="120.703125"/>
      <use xlink:href="#DejaVuSans-6e" x="182.226562"/>
      <use xlink:href="#DejaVuSans-74" x="245.605469"/>
      <use xlink:href="#DejaVuSans-5f" x="284.814453"/>
      <use xlink:href="#DejaVuSans-74" x="334.814453"/>
      <use xlink:href="#DejaVuSans-69" x="374.023438"/>
      <use xlink:href="#DejaVuSans-6d" x="401.806641"/>
      <use xlink:href="#DejaVuSans-65" x="499.21875"/>
      <use xlink:href="#DejaVuSans-5f" x="560.742188"/>
      <use xlink:href="#DejaVuSans-6f" x="610.742188"/>
      <use xlink:href="#DejaVuSans-66" x="671.923828"/>
      <use xlink:href="#DejaVuSans-66" x="707.128906"/>
      <use xlink:href="#DejaVuSans-73" x="742.333984"/>
      <use xlink:href="#DejaVuSans-65" x="794.433594"/>
      <use xlink:href="#DejaVuSans-74" x="855.957031"/>
      <use xlink:href="#DejaVuSans-20" x="895.166016"/>
      <use xlink:href="#DejaVuSans-5b" x="926.953125"/>
      <use xlink:href="#DejaVuSans-73" x="965.966797"/>
      <use xlink:href="#DejaVuSans-5d" x="1018.066406"/>
     </g>
    </g>
   </g>
   <g id="matplotlib.axis_2">
    <g id="ytick_1">
     <g id="line2d_9">
      <defs>
       <path id="m2df70787fd" d="M 0 0 
L -3.5 0 
" style="stroke: #000000; stroke-width: 0.8"/>
      </defs>
      <g>
       <use xlink:href="#m2df70787fd" x="46.965625" y="218.88" style="stroke: #000000; stroke-width: 0.8"/>
      </g>
     </g>
     <g id="text_10">
      <!-- 0 -->
      <g transform="translate(33.603125 222.679219) scale(0.1 -0.1)">
       <use xlink:href="#DejaVuSans-30"/>
      </g>
     </g>
    </g>
    <g id="ytick_2">
     <g id="line2d_10">
      <g>
       <use xlink:href="#m2df70787fd" x="46.965625" y="182.424304" style="stroke: #000000; stroke-width: 0.8"/>
      </g>
     </g>
     <g id="text_11">
      <!-- 100 -->
      <g transform="translate(20.878125 186.223523) scale(0.1 -0.1)">
       <use xlink:href="#DejaVuSans-31"/>
       <use xlink:href="#DejaVuSans-30" x="63.623047"/>
       <use xlink:href="#DejaVuSans-30" x="127.246094"/>
      </g>
     </g>
    </g>
    <g id="ytick_3">
     <g id="line2d_11">
      <g>
       <use xlink:href="#m2df70787fd" x="46.965625" y="145.968608" style="stroke: #000000; stroke-width: 0.8"/>
      </g>
     </g>
     <g id="text_12">
      <!-- 200 -->
      <g transform="translate(20.878125 149.767826) scale(0.1 -0.1)">
       <use xlink:href="#DejaVuSans-32"/>
       <use xlink:href="#DejaVuSans-30" x="63.623047"/>
       <use xlink:href="#DejaVuSans-30" x="127.246094"/>
      </g>
     </g>
    </g>
    <g id="ytick_4">
     <g id="line2d_12">
      <g>
       <use xlink:href="#m2df70787fd" x="46.965625" y="109.512911" style="stroke: #000000; stroke-width: 0.8"/>
      </g>
     </g>
     <g id="text_13">
      <!-- 300 -->
      <g transform="translate(20.878125 113.31213) scale(0.1 -0.1)">
       <use xlink:href="#DejaVuSans-33"/>
       <use xlink:href="#DejaVuSans-30" x="63.623047"/>
       <use xlink:href="#DejaVuSans-30" x="127.246094"/>
      </g>
     </g>
    </g>
    <g id="ytick_5">
     <g id="line2d_13">
      <g>
       <use xlink:href="#m2df70787fd" x="46.965625" y="73.057215" style="stroke: #000000; stroke-width: 0.8"/>
      </g>
     </g>
     <g id="text_14">
      <!-- 400 -->
      <g transform="translate(20.878125 76.856434) scale(0.1 -0.1)">
       <use xlink:href="#DejaVuSans-34"/>
       <use xlink:href="#DejaVuSans-30" x="63.623047"/>
       <use xlink:href="#DejaVuSans-30" x="127.246094"/>
      </g>
     </g>
    </g>
    <g id="ytick_6">
     <g id="line2d_14">
      <g>
       <use xlink:href="#m2df70787fd" x="46.965625" y="36.601519" style="stroke: #000000; stroke-width: 0.8"/>
      </g>
     </g>
     <g id="text_15">
      <!-- 500 -->
      <g transform="translate(20.878125 40.400738) scale(0.1 -0.1)">
       <use xlink:href="#DejaVuSans-35"/>
       <use xlink:href="#DejaVuSans-30" x="63.623047"/>
       <use xlink:href="#DejaVuSans-30" x="127.246094"/>
      </g>
     </g>
    </g>
    <g id="text_16">
     <!-- [counts] -->
     <g transform="translate(14.798438 138.6925) rotate(-90) scale(0.1 -0.1)">
      <defs>
       <path id="DejaVuSans-63" d="M 3122 3366 
L 3122 2828 
Q 2878 2963 2633 3030 
Q 2388 3097 2138 3097 
Q 1578 3097 1268 2742 
Q 959 2388 959 1747 
Q 959 1106 1268 751 
Q 1578 397 2138 397 
Q 2388 397 2633 464 
Q 2878 531 3122 666 
L 3122 134 
Q 2881 22 2623 -34 
Q 2366 -91 2075 -91 
Q 1284 -91 818 406 
Q 353 903 353 1747 
Q 353 2603 823 3093 
Q 1294 3584 2113 3584 
Q 2378 3584 2631 3529 
Q 2884 3475 3122 3366 
z
" transform="scale(0.015625)"/>
       <path id="DejaVuSans-75" d="M 544 1381 
L 544 3500 
L 1119 3500 
L 1119 1403 
Q 1119 906 1312 657 
Q 1506 409 1894 409 
Q 2359 409 2629 706 
Q 2900 1003 2900 1516 
L 2900 3500 
L 3475 3500 
L 3475 0 
L 2900 0 
L 2900 538 
Q 2691 219 2414 64 
Q 2138 -91 1772 -91 
Q 1169 -91 856 284 
Q 544 659 544 1381 
z
M 1991 3584 
L 1991 3584 
z
" transform="scale(0.015625)"/>
      </defs>
      <use xlink:href="#DejaVuSans-5b"/>
      <use xlink:href="#DejaVuSans-63" x="39.013672"/>
      <use xlink:href="#DejaVuSans-6f" x="93.994141"/>
      <use xlink:href="#DejaVuSans-75" x="155.175781"/>
      <use xlink:href="#DejaVuSans-6e" x="218.554688"/>
      <use xlink:href="#DejaVuSans-74" x="281.933594"/>
      <use xlink:href="#DejaVuSans-73" x="321.142578"/>
      <use xlink:href="#DejaVuSans-5d" x="373.242188"/>
     </g>
    </g>
   </g>
   <g id="patch_3">
    <path d="M 46.965625 228.96 
L 46.965625 7.2 
" style="fill: none; stroke: #000000; stroke-width: 0.8; stroke-linejoin: miter; stroke-linecap: square"/>
   </g>
   <g id="patch_4">
    <path d="M 381.765625 228.96 
L 381.765625 7.2 
" style="fill: none; stroke: #000000; stroke-width: 0.8; stroke-linejoin: miter; stroke-linecap: square"/>
   </g>
   <g id="patch_5">
    <path d="M 46.965625 228.96 
L 381.765625 228.96 
" style="fill: none; stroke: #000000; stroke-width: 0.8; stroke-linejoin: miter; stroke-linecap: square"/>
   </g>
   <g id="patch_6">
    <path d="M 46.965625 7.2 
L 381.765625 7.2 
" style="fill: none; stroke: #000000; stroke-width: 0.8; stroke-linejoin: miter; stroke-linecap: square"/>
   </g>
   <g id="line2d_15">
    <path d="M 62.183807 114.981266 
L 63.198352 114.981266 
L 63.198352 117.168608 
L 64.212898 117.168608 
L 64.212898 121.178734 
L 65.227443 121.178734 
L 65.227443 117.897722 
L 66.241989 117.897722 
L 66.241989 120.814177 
L 67.256534 120.814177 
L 67.256534 124.459747 
L 68.27108 124.459747 
L 68.27108 120.814177 
L 69.285625 120.814177 
L 69.285625 115.71038 
L 70.30017 115.71038 
L 70.30017 129.563544 
L 71.314716 129.563544 
L 71.314716 127.376203 
L 72.329261 127.376203 
L 72.329261 132.844557 
L 73.343807 132.844557 
L 73.343807 144.145823 
L 74.358352 144.145823 
L 74.358352 131.021772 
L 75.372898 131.021772 
L 75.372898 134.667342 
L 76.387443 134.667342 
L 76.387443 132.48 
L 77.401989 132.48 
L 77.401989 136.854684 
L 78.416534 136.854684 
L 78.416534 134.667342 
L 79.43108 134.667342 
L 79.43108 143.052152 
L 80.445625 143.052152 
L 80.445625 135.031899 
L 81.46017 135.031899 
L 81.46017 122.636962 
L 82.474716 122.636962 
L 82.474716 139.406582 
L 83.489261 139.406582 
L 83.489261 141.958481 
L 84.503807 141.958481 
L 84.503807 144.51038 
L 85.518352 144.51038 
L 85.518352 146.333165 
L 86.532898 146.333165 
L 86.532898 145.239494 
L 87.547443 145.239494 
L 87.547443 153.259747 
L 88.561989 153.259747 
L 88.561989 140.86481 
L 89.576534 140.86481 
L 89.576534 154.353418 
L 90.59108 154.353418 
L 90.59108 153.624304 
L 91.605625 153.624304 
L 91.605625 148.155949 
L 92.62017 148.155949 
L 92.62017 153.259747 
L 93.634716 153.259747 
L 93.634716 154.353418 
L 94.649261 154.353418 
L 94.649261 153.988861 
L 95.663807 153.988861 
L 95.663807 160.550886 
L 96.678352 160.550886 
L 96.678352 171.852152 
L 97.692898 171.852152 
L 97.692898 152.166076 
L 98.707443 152.166076 
L 98.707443 164.92557 
L 99.721989 164.92557 
L 99.721989 165.290127 
L 100.736534 165.290127 
L 100.736534 168.571139 
L 101.75108 168.571139 
L 101.75108 167.112911 
L 102.765625 167.112911 
L 102.765625 172.216709 
L 103.78017 172.216709 
L 103.78017 173.31038 
L 104.794716 173.31038 
L 104.794716 175.133165 
L 105.809261 175.133165 
L 105.809261 176.955949 
L 107.838352 176.955949 
L 107.838352 183.517975 
L 108.852898 183.517975 
L 108.852898 180.236962 
L 109.867443 180.236962 
L 109.867443 190.08 
L 110.881989 190.08 
L 110.881989 187.892658 
L 111.896534 187.892658 
L 111.896534 192.996456 
L 112.91108 192.996456 
L 112.91108 190.444557 
L 113.925625 190.444557 
L 113.925625 202.11038 
L 114.94017 202.11038 
L 114.94017 194.819241 
L 115.954716 194.819241 
L 115.954716 202.474937 
L 116.969261 202.474937 
L 116.969261 202.11038 
L 117.983807 202.11038 
L 117.983807 204.662278 
L 118.998352 204.662278 
L 118.998352 206.84962 
L 120.012898 206.84962 
L 120.012898 206.485063 
L 121.027443 206.485063 
L 121.027443 211.588861 
L 122.041989 211.588861 
L 122.041989 212.317975 
L 123.056534 212.317975 
L 123.056534 210.49519 
L 124.07108 210.49519 
L 124.07108 210.859747 
L 126.10017 210.859747 
L 126.10017 213.411646 
L 127.114716 213.411646 
L 127.114716 215.23443 
L 128.129261 215.23443 
L 128.129261 215.598987 
L 129.143807 215.598987 
L 129.143807 217.421772 
L 130.158352 217.421772 
L 130.158352 216.328101 
L 131.172898 216.328101 
L 131.172898 217.057215 
L 132.187443 217.057215 
L 132.187443 217.786329 
L 133.201989 217.786329 
L 133.201989 218.515443 
L 134.216534 218.515443 
L 134.216534 218.88 
L 149.434716 218.88 
L 149.434716 213.411646 
L 150.449261 213.411646 
L 150.449261 211.953418 
L 151.463807 211.953418 
L 151.463807 203.568608 
L 152.478352 203.568608 
L 152.478352 200.287595 
L 153.492898 200.287595 
L 153.492898 196.277468 
L 154.507443 196.277468 
L 154.507443 190.809114 
L 155.521989 190.809114 
L 155.521989 184.611646 
L 156.536534 184.611646 
L 156.536534 166.748354 
L 157.55108 166.748354 
L 157.55108 174.768608 
L 158.565625 174.768608 
L 158.565625 163.102785 
L 159.58017 163.102785 
L 159.58017 160.915443 
L 160.594716 160.915443 
L 160.594716 157.998987 
L 161.609261 157.998987 
L 161.609261 146.333165 
L 162.623807 146.333165 
L 162.623807 147.791392 
L 163.638352 147.791392 
L 163.638352 145.968608 
L 164.652898 145.968608 
L 164.652898 125.917975 
L 165.667443 125.917975 
L 165.667443 121.907848 
L 166.681989 121.907848 
L 166.681989 116.439494 
L 167.696534 116.439494 
L 167.696534 115.345823 
L 168.71108 115.345823 
L 168.71108 118.262278 
L 169.725625 118.262278 
L 169.725625 102.950886 
L 170.74017 102.950886 
L 170.74017 96.753418 
L 171.754716 96.753418 
L 171.754716 86.91038 
L 172.769261 86.91038 
L 172.769261 89.097722 
L 173.783807 89.097722 
L 173.783807 88.368608 
L 174.798352 88.368608 
L 174.798352 81.442025 
L 175.812898 81.442025 
L 175.812898 74.88 
L 176.827443 74.88 
L 176.827443 74.150886 
L 177.841989 74.150886 
L 177.841989 71.598987 
L 178.856534 71.598987 
L 178.856534 67.224304 
L 179.87108 67.224304 
L 179.87108 64.672405 
L 180.885625 64.672405 
L 180.885625 61.391392 
L 181.90017 61.391392 
L 181.90017 58.11038 
L 182.914716 58.11038 
L 182.914716 46.809114 
L 183.929261 46.809114 
L 183.929261 46.08 
L 184.943807 46.08 
L 184.943807 45.715443 
L 185.958352 45.715443 
L 185.958352 46.08 
L 186.972898 46.08 
L 186.972898 38.424304 
L 187.987443 38.424304 
L 187.987443 30.404051 
L 189.001989 30.404051 
L 189.001989 34.04962 
L 190.016534 34.04962 
L 190.016534 21.290127 
L 191.03108 21.290127 
L 191.03108 30.768608 
L 192.045625 30.768608 
L 192.045625 30.404051 
L 193.06017 30.404051 
L 193.06017 17.28 
L 194.074716 17.28 
L 194.074716 30.768608 
L 195.089261 30.768608 
L 195.089261 31.497722 
L 196.103807 31.497722 
L 196.103807 27.852152 
L 197.118352 27.852152 
L 197.118352 32.591392 
L 198.132898 32.591392 
L 198.132898 23.112911 
L 199.147443 23.112911 
L 199.147443 38.424304 
L 200.161989 38.424304 
L 200.161989 28.581266 
L 201.176534 28.581266 
L 201.176534 26.029367 
L 202.19108 26.029367 
L 202.19108 40.247089 
L 203.205625 40.247089 
L 203.205625 33.320506 
L 204.22017 33.320506 
L 204.22017 34.414177 
L 205.234716 34.414177 
L 205.234716 40.976203 
L 206.249261 40.976203 
L 206.249261 41.340759 
L 207.263807 41.340759 
L 207.263807 43.163544 
L 208.278352 43.163544 
L 208.278352 50.454684 
L 209.292898 50.454684 
L 209.292898 49.72557 
L 210.307443 49.72557 
L 210.307443 61.391392 
L 211.321989 61.391392 
L 211.321989 45.350886 
L 212.336534 45.350886 
L 212.336534 47.902785 
L 213.35108 47.902785 
L 213.35108 49.72557 
L 214.365625 49.72557 
L 214.365625 54.829367 
L 215.38017 54.829367 
L 215.38017 59.568608 
L 216.394716 59.568608 
L 216.394716 47.538228 
L 217.409261 47.538228 
L 217.409261 44.621772 
L 218.423807 44.621772 
L 218.423807 63.943291 
L 219.438352 63.943291 
L 219.438352 53.371139 
L 220.452898 53.371139 
L 220.452898 48.267342 
L 221.467443 48.267342 
L 221.467443 61.026835 
L 222.481989 61.026835 
L 222.481989 53.371139 
L 223.496534 53.371139 
L 223.496534 68.317975 
L 224.51108 68.317975 
L 224.51108 61.755949 
L 225.525625 61.755949 
L 225.525625 66.49519 
L 226.54017 66.49519 
L 226.54017 58.11038 
L 227.554716 58.11038 
L 227.554716 58.839494 
L 228.569261 58.839494 
L 228.569261 61.755949 
L 229.583807 61.755949 
L 229.583807 63.578734 
L 230.598352 63.578734 
L 230.598352 54.829367 
L 231.612898 54.829367 
L 231.612898 70.140759 
L 232.627443 70.140759 
L 232.627443 66.859747 
L 233.641989 66.859747 
L 233.641989 65.766076 
L 234.656534 65.766076 
L 234.656534 73.057215 
L 235.67108 73.057215 
L 235.67108 69.776203 
L 236.685625 69.776203 
L 236.685625 73.421772 
L 237.70017 73.421772 
L 237.70017 64.672405 
L 238.714716 64.672405 
L 238.714716 70.869873 
L 239.729261 70.869873 
L 239.729261 73.421772 
L 240.743807 73.421772 
L 240.743807 76.338228 
L 241.758352 76.338228 
L 241.758352 67.224304 
L 242.772898 67.224304 
L 242.772898 80.712911 
L 243.787443 80.712911 
L 243.787443 75.973671 
L 244.801989 75.973671 
L 244.801989 72.692658 
L 245.816534 72.692658 
L 245.816534 79.254684 
L 246.83108 79.254684 
L 246.83108 77.067342 
L 247.845625 77.067342 
L 247.845625 77.431899 
L 248.86017 77.431899 
L 248.86017 88.368608 
L 249.874716 88.368608 
L 249.874716 82.535696 
L 251.903807 82.535696 
L 251.903807 81.806582 
L 252.918352 81.806582 
L 252.918352 89.097722 
L 253.932898 89.097722 
L 253.932898 86.181266 
L 254.947443 86.181266 
L 254.947443 94.201519 
L 255.961989 94.201519 
L 255.961989 105.867342 
L 257.99108 105.867342 
L 257.99108 104.044557 
L 259.005625 104.044557 
L 259.005625 114.981266 
L 260.02017 114.981266 
L 260.02017 123.366076 
L 261.034716 123.366076 
L 261.034716 116.439494 
L 262.049261 116.439494 
L 262.049261 120.085063 
L 263.063807 120.085063 
L 263.063807 132.48 
L 264.078352 132.48 
L 264.078352 141.229367 
L 265.092898 141.229367 
L 265.092898 140.135696 
L 266.107443 140.135696 
L 266.107443 139.042025 
L 267.121989 139.042025 
L 267.121989 142.323038 
L 268.136534 142.323038 
L 268.136534 156.176203 
L 269.15108 156.176203 
L 269.15108 165.654684 
L 270.165625 165.654684 
L 270.165625 168.571139 
L 271.18017 168.571139 
L 271.18017 172.581266 
L 272.194716 172.581266 
L 272.194716 178.778734 
L 273.209261 178.778734 
L 273.209261 178.04962 
L 274.223807 178.04962 
L 274.223807 180.236962 
L 275.238352 180.236962 
L 275.238352 192.267342 
L 276.252898 192.267342 
L 276.252898 185.340759 
L 277.267443 185.340759 
L 277.267443 197.006582 
L 278.281989 197.006582 
L 278.281989 193.72557 
L 279.296534 193.72557 
L 279.296534 201.745823 
L 280.31108 201.745823 
L 280.31108 209.401519 
L 281.325625 209.401519 
L 281.325625 211.953418 
L 283.354716 211.953418 
L 283.354716 215.963544 
L 284.369261 215.963544 
L 284.369261 215.598987 
L 285.383807 215.598987 
L 285.383807 216.692658 
L 286.398352 216.692658 
L 286.398352 218.150886 
L 287.412898 218.150886 
L 287.412898 218.88 
L 297.558352 218.88 
L 297.558352 218.515443 
L 298.572898 218.515443 
L 298.572898 215.23443 
L 299.587443 215.23443 
L 299.587443 208.672405 
L 300.601989 208.672405 
L 300.601989 203.204051 
L 301.616534 203.204051 
L 301.616534 205.391392 
L 302.63108 205.391392 
L 302.63108 194.819241 
L 303.645625 194.819241 
L 303.645625 190.444557 
L 304.66017 190.444557 
L 304.66017 186.798987 
L 305.674716 186.798987 
L 305.674716 179.143291 
L 306.689261 179.143291 
L 306.689261 172.945823 
L 307.703807 172.945823 
L 307.703807 171.123038 
L 308.718352 171.123038 
L 308.718352 170.029367 
L 309.732898 170.029367 
L 309.732898 162.738228 
L 310.747443 162.738228 
L 310.747443 165.654684 
L 311.761989 165.654684 
L 311.761989 160.915443 
L 312.776534 160.915443 
L 312.776534 147.426835 
L 313.79108 147.426835 
L 313.79108 149.614177 
L 314.805625 149.614177 
L 314.805625 143.781266 
L 315.82017 143.781266 
L 315.82017 147.062278 
L 316.834716 147.062278 
L 316.834716 143.781266 
L 317.849261 143.781266 
L 317.849261 142.687595 
L 318.863807 142.687595 
L 318.863807 131.386329 
L 319.878352 131.386329 
L 319.878352 129.563544 
L 320.892898 129.563544 
L 320.892898 125.917975 
L 321.907443 125.917975 
L 321.907443 118.262278 
L 322.921989 118.262278 
L 322.921989 120.44962 
L 323.936534 120.44962 
L 323.936534 118.626835 
L 324.95108 118.626835 
L 324.95108 126.282532 
L 325.965625 126.282532 
L 325.965625 118.626835 
L 326.98017 118.626835 
L 326.98017 116.074937 
L 327.994716 116.074937 
L 327.994716 117.897722 
L 329.009261 117.897722 
L 329.009261 108.783797 
L 330.023807 108.783797 
L 330.023807 121.543291 
L 331.038352 121.543291 
L 331.038352 111.700253 
L 332.052898 111.700253 
L 332.052898 83.629367 
L 333.067443 83.629367 
L 333.067443 93.836962 
L 334.081989 93.836962 
L 334.081989 97.847089 
L 335.096534 97.847089 
L 335.096534 92.743291 
L 336.11108 92.743291 
L 336.11108 97.847089 
L 337.125625 97.847089 
L 337.125625 83.993924 
L 338.14017 83.993924 
L 338.14017 85.087595 
L 339.154716 85.087595 
L 339.154716 81.806582 
L 340.169261 81.806582 
L 340.169261 90.555949 
L 341.183807 90.555949 
L 341.183807 92.743291 
L 342.198352 92.743291 
L 342.198352 85.452152 
L 343.212898 85.452152 
L 343.212898 80.348354 
L 344.227443 80.348354 
L 344.227443 97.117975 
L 345.241989 97.117975 
L 345.241989 83.26481 
L 346.256534 83.26481 
L 346.256534 96.753418 
L 347.27108 96.753418 
L 347.27108 92.378734 
L 348.285625 92.378734 
L 348.285625 92.743291 
L 349.30017 92.743291 
L 349.30017 83.629367 
L 350.314716 83.629367 
L 350.314716 87.274937 
L 351.329261 87.274937 
L 351.329261 101.857215 
L 352.343807 101.857215 
L 352.343807 102.221772 
L 353.358352 102.221772 
L 353.358352 106.231899 
L 354.372898 106.231899 
L 354.372898 102.221772 
L 355.387443 102.221772 
L 355.387443 98.940759 
L 356.401989 98.940759 
L 356.401989 106.231899 
L 357.416534 106.231899 
L 357.416534 106.961013 
L 358.43108 106.961013 
L 358.43108 99.669873 
L 359.445625 99.669873 
L 359.445625 105.867342 
L 360.46017 105.867342 
L 360.46017 109.512911 
L 361.474716 109.512911 
L 361.474716 100.03443 
L 362.489261 100.03443 
L 362.489261 101.857215 
L 363.503807 101.857215 
L 363.503807 98.576203 
L 364.518352 98.576203 
L 364.518352 107.690127 
L 365.532898 107.690127 
L 365.532898 115.71038 
L 366.547443 115.71038 
L 366.547443 115.71038 
" clip-path="url(#p24a2684144)" style="fill: none; stroke: #1f77b4; stroke-width: 1.5; stroke-linecap: square"/>
   </g>
  </g>
 </g>
 <defs>
  <clipPath id="p24a2684144">
   <rect x="46.965625" y="7.2" width="334.8" height="221.76"/>
  </clipPath>
 </defs>
</svg>
