<?xml version="1.0" encoding="utf-8" standalone="no"?>
<!DOCTYPE svg PUBLIC "-//W3C//DTD SVG 1.1//EN"
  "http://www.w3.org/Graphics/SVG/1.1/DTD/svg11.dtd">
<svg xmlns:xlink="http://www.w3.org/1999/xlink" width="395.328125pt" height="266.794375pt" viewBox="0 0 395.328125 266.794375" xmlns="http://www.w3.org/2000/svg" version="1.1">
 <metadata>
  <rdf:RDF xmlns:dc="http://purl.org/dc/elements/1.1/" xmlns:cc="http://creativecommons.org/ns#" xmlns:rdf="http://www.w3.org/1999/02/22-rdf-syntax-ns#">
   <cc:Work>
    <dc:type rdf:resource="http://purl.org/dc/dcmitype/StillImage"/>
    <dc:date>2025-01-20T13:49:53.324481</dc:date>
    <dc:format>image/svg+xml</dc:format>
    <dc:creator>
     <cc:Agent>
      <dc:title>Matplotlib v3.7.3, https://matplotlib.org/</dc:title>
     </cc:Agent>
    </dc:creator>
   </cc:Work>
  </rdf:RDF>
 </metadata>
 <defs>
  <style type="text/css">*{stroke-linejoin: round; stroke-linecap: butt}</style>
 </defs>
 <g id="figure_1">
  <g id="patch_1">
   <path d="M 0 266.794375 
L 395.328125 266.794375 
L 395.328125 0 
L 0 0 
z
" style="fill: #ffffff"/>
  </g>
  <g id="axes_1">
   <g id="patch_2">
    <path d="M 53.328125 228.96 
L 388.128125 228.96 
L 388.128125 7.2 
L 53.328125 7.2 
z
" style="fill: #ffffff"/>
   </g>
   <g id="matplotlib.axis_1">
    <g id="xtick_1">
     <g id="line2d_1">
      <defs>
       <path id="mf594f15de0" d="M 0 0 
L 0 3.5 
" style="stroke: #000000; stroke-width: 0.8"/>
      </defs>
      <g>
       <use xlink:href="#mf594f15de0" x="68.448563" y="228.96" style="stroke: #000000; stroke-width: 0.8"/>
      </g>
     </g>
     <g id="text_1">
      <!-- 0 -->
      <g transform="translate(65.267313 243.558437) scale(0.1 -0.1)">
       <defs>
        <path id="DejaVuSans-30" d="M 2034 4250 
Q 1547 4250 1301 3770 
Q 1056 3291 1056 2328 
Q 1056 1369 1301 889 
Q 1547 409 2034 409 
Q 2525 409 2770 889 
Q 3016 1369 3016 2328 
Q 3016 3291 2770 3770 
Q 2525 4250 2034 4250 
z
M 2034 4750 
Q 2819 4750 3233 4129 
Q 3647 3509 3647 2328 
Q 3647 1150 3233 529 
Q 2819 -91 2034 -91 
Q 1250 -91 836 529 
Q 422 1150 422 2328 
Q 422 3509 836 4129 
Q 1250 4750 2034 4750 
z
" transform="scale(0.015625)"/>
       </defs>
       <use xlink:href="#DejaVuSans-30"/>
      </g>
     </g>
    </g>
    <g id="xtick_2">
     <g id="line2d_2">
      <g>
       <use xlink:href="#mf594f15de0" x="111.075031" y="228.96" style="stroke: #000000; stroke-width: 0.8"/>
      </g>
     </g>
     <g id="text_2">
      <!-- 10000 -->
      <g transform="translate(95.168781 243.558437) scale(0.1 -0.1)">
       <defs>
        <path id="DejaVuSans-31" d="M 794 531 
L 1825 531 
L 1825 4091 
L 703 3866 
L 703 4441 
L 1819 4666 
L 2450 4666 
L 2450 531 
L 3481 531 
L 3481 0 
L 794 0 
L 794 531 
z
" transform="scale(0.015625)"/>
       </defs>
       <use xlink:href="#DejaVuSans-31"/>
       <use xlink:href="#DejaVuSans-30" x="63.623047"/>
       <use xlink:href="#DejaVuSans-30" x="127.246094"/>
       <use xlink:href="#DejaVuSans-30" x="190.869141"/>
       <use xlink:href="#DejaVuSans-30" x="254.492188"/>
      </g>
     </g>
    </g>
    <g id="xtick_3">
     <g id="line2d_3">
      <g>
       <use xlink:href="#mf594f15de0" x="153.701499" y="228.96" style="stroke: #000000; stroke-width: 0.8"/>
      </g>
     </g>
     <g id="text_3">
      <!-- 20000 -->
      <g transform="translate(137.795249 243.558437) scale(0.1 -0.1)">
       <defs>
        <path id="DejaVuSans-32" d="M 1228 531 
L 3431 531 
L 3431 0 
L 469 0 
L 469 531 
Q 828 903 1448 1529 
Q 2069 2156 2228 2338 
Q 2531 2678 2651 2914 
Q 2772 3150 2772 3378 
Q 2772 3750 2511 3984 
Q 2250 4219 1831 4219 
Q 1534 4219 1204 4116 
Q 875 4013 500 3803 
L 500 4441 
Q 881 4594 1212 4672 
Q 1544 4750 1819 4750 
Q 2544 4750 2975 4387 
Q 3406 4025 3406 3419 
Q 3406 3131 3298 2873 
Q 3191 2616 2906 2266 
Q 2828 2175 2409 1742 
Q 1991 1309 1228 531 
z
" transform="scale(0.015625)"/>
       </defs>
       <use xlink:href="#DejaVuSans-32"/>
       <use xlink:href="#DejaVuSans-30" x="63.623047"/>
       <use xlink:href="#DejaVuSans-30" x="127.246094"/>
       <use xlink:href="#DejaVuSans-30" x="190.869141"/>
       <use xlink:href="#DejaVuSans-30" x="254.492188"/>
      </g>
     </g>
    </g>
    <g id="xtick_4">
     <g id="line2d_4">
      <g>
       <use xlink:href="#mf594f15de0" x="196.327967" y="228.96" style="stroke: #000000; stroke-width: 0.8"/>
      </g>
     </g>
     <g id="text_4">
      <!-- 30000 -->
      <g transform="translate(180.421717 243.558437) scale(0.1 -0.1)">
       <defs>
        <path id="DejaVuSans-33" d="M 2597 2516 
Q 3050 2419 3304 2112 
Q 3559 1806 3559 1356 
Q 3559 666 3084 287 
Q 2609 -91 1734 -91 
Q 1441 -91 1130 -33 
Q 819 25 488 141 
L 488 750 
Q 750 597 1062 519 
Q 1375 441 1716 441 
Q 2309 441 2620 675 
Q 2931 909 2931 1356 
Q 2931 1769 2642 2001 
Q 2353 2234 1838 2234 
L 1294 2234 
L 1294 2753 
L 1863 2753 
Q 2328 2753 2575 2939 
Q 2822 3125 2822 3475 
Q 2822 3834 2567 4026 
Q 2313 4219 1838 4219 
Q 1578 4219 1281 4162 
Q 984 4106 628 3988 
L 628 4550 
Q 988 4650 1302 4700 
Q 1616 4750 1894 4750 
Q 2613 4750 3031 4423 
Q 3450 4097 3450 3541 
Q 3450 3153 3228 2886 
Q 3006 2619 2597 2516 
z
" transform="scale(0.015625)"/>
       </defs>
       <use xlink:href="#DejaVuSans-33"/>
       <use xlink:href="#DejaVuSans-30" x="63.623047"/>
       <use xlink:href="#DejaVuSans-30" x="127.246094"/>
       <use xlink:href="#DejaVuSans-30" x="190.869141"/>
       <use xlink:href="#DejaVuSans-30" x="254.492188"/>
      </g>
     </g>
    </g>
    <g id="xtick_5">
     <g id="line2d_5">
      <g>
       <use xlink:href="#mf594f15de0" x="238.954434" y="228.96" style="stroke: #000000; stroke-width: 0.8"/>
      </g>
     </g>
     <g id="text_5">
      <!-- 40000 -->
      <g transform="translate(223.048184 243.558437) scale(0.1 -0.1)">
       <defs>
        <path id="DejaVuSans-34" d="M 2419 4116 
L 825 1625 
L 2419 1625 
L 2419 4116 
z
M 2253 4666 
L 3047 4666 
L 3047 1625 
L 3713 1625 
L 3713 1100 
L 3047 1100 
L 3047 0 
L 2419 0 
L 2419 1100 
L 313 1100 
L 313 1709 
L 2253 4666 
z
" transform="scale(0.015625)"/>
       </defs>
       <use xlink:href="#DejaVuSans-34"/>
       <use xlink:href="#DejaVuSans-30" x="63.623047"/>
       <use xlink:href="#DejaVuSans-30" x="127.246094"/>
       <use xlink:href="#DejaVuSans-30" x="190.869141"/>
       <use xlink:href="#DejaVuSans-30" x="254.492188"/>
      </g>
     </g>
    </g>
    <g id="xtick_6">
     <g id="line2d_6">
      <g>
       <use xlink:href="#mf594f15de0" x="281.580902" y="228.96" style="stroke: #000000; stroke-width: 0.8"/>
      </g>
     </g>
     <g id="text_6">
      <!-- 50000 -->
      <g transform="translate(265.674652 243.558437) scale(0.1 -0.1)">
       <defs>
        <path id="DejaVuSans-35" d="M 691 4666 
L 3169 4666 
L 3169 4134 
L 1269 4134 
L 1269 2991 
Q 1406 3038 1543 3061 
Q 1681 3084 1819 3084 
Q 2600 3084 3056 2656 
Q 3513 2228 3513 1497 
Q 3513 744 3044 326 
Q 2575 -91 1722 -91 
Q 1428 -91 1123 -41 
Q 819 9 494 109 
L 494 744 
Q 775 591 1075 516 
Q 1375 441 1709 441 
Q 2250 441 2565 725 
Q 2881 1009 2881 1497 
Q 2881 1984 2565 2268 
Q 2250 2553 1709 2553 
Q 1456 2553 1204 2497 
Q 953 2441 691 2322 
L 691 4666 
z
" transform="scale(0.015625)"/>
       </defs>
       <use xlink:href="#DejaVuSans-35"/>
       <use xlink:href="#DejaVuSans-30" x="63.623047"/>
       <use xlink:href="#DejaVuSans-30" x="127.246094"/>
       <use xlink:href="#DejaVuSans-30" x="190.869141"/>
       <use xlink:href="#DejaVuSans-30" x="254.492188"/>
      </g>
     </g>
    </g>
    <g id="xtick_7">
     <g id="line2d_7">
      <g>
       <use xlink:href="#mf594f15de0" x="324.20737" y="228.96" style="stroke: #000000; stroke-width: 0.8"/>
      </g>
     </g>
     <g id="text_7">
      <!-- 60000 -->
      <g transform="translate(308.30112 243.558437) scale(0.1 -0.1)">
       <defs>
        <path id="DejaVuSans-36" d="M 2113 2584 
Q 1688 2584 1439 2293 
Q 1191 2003 1191 1497 
Q 1191 994 1439 701 
Q 1688 409 2113 409 
Q 2538 409 2786 701 
Q 3034 994 3034 1497 
Q 3034 2003 2786 2293 
Q 2538 2584 2113 2584 
z
M 3366 4563 
L 3366 3988 
Q 3128 4100 2886 4159 
Q 2644 4219 2406 4219 
Q 1781 4219 1451 3797 
Q 1122 3375 1075 2522 
Q 1259 2794 1537 2939 
Q 1816 3084 2150 3084 
Q 2853 3084 3261 2657 
Q 3669 2231 3669 1497 
Q 3669 778 3244 343 
Q 2819 -91 2113 -91 
Q 1303 -91 875 529 
Q 447 1150 447 2328 
Q 447 3434 972 4092 
Q 1497 4750 2381 4750 
Q 2619 4750 2861 4703 
Q 3103 4656 3366 4563 
z
" transform="scale(0.015625)"/>
       </defs>
       <use xlink:href="#DejaVuSans-36"/>
       <use xlink:href="#DejaVuSans-30" x="63.623047"/>
       <use xlink:href="#DejaVuSans-30" x="127.246094"/>
       <use xlink:href="#DejaVuSans-30" x="190.869141"/>
       <use xlink:href="#DejaVuSans-30" x="254.492188"/>
      </g>
     </g>
    </g>
    <g id="xtick_8">
     <g id="line2d_8">
      <g>
       <use xlink:href="#mf594f15de0" x="366.833838" y="228.96" style="stroke: #000000; stroke-width: 0.8"/>
      </g>
     </g>
     <g id="text_8">
      <!-- 70000 -->
      <g transform="translate(350.927588 243.558437) scale(0.1 -0.1)">
       <defs>
        <path id="DejaVuSans-37" d="M 525 4666 
L 3525 4666 
L 3525 4397 
L 1831 0 
L 1172 0 
L 2766 4134 
L 525 4134 
L 525 4666 
z
" transform="scale(0.015625)"/>
       </defs>
       <use xlink:href="#DejaVuSans-37"/>
       <use xlink:href="#DejaVuSans-30" x="63.623047"/>
       <use xlink:href="#DejaVuSans-30" x="127.246094"/>
       <use xlink:href="#DejaVuSans-30" x="190.869141"/>
       <use xlink:href="#DejaVuSans-30" x="254.492188"/>
      </g>
     </g>
    </g>
    <g id="text_9">
     <!-- event_time_offset [µs] -->
     <g transform="translate(164.692969 257.236562) scale(0.1 -0.1)">
      <defs>
       <path id="DejaVuSans-65" d="M 3597 1894 
L 3597 1613 
L 953 1613 
Q 991 1019 1311 708 
Q 1631 397 2203 397 
Q 2534 397 2845 478 
Q 3156 559 3463 722 
L 3463 178 
Q 3153 47 2828 -22 
Q 2503 -91 2169 -91 
Q 1331 -91 842 396 
Q 353 884 353 1716 
Q 353 2575 817 3079 
Q 1281 3584 2069 3584 
Q 2775 3584 3186 3129 
Q 3597 2675 3597 1894 
z
M 3022 2063 
Q 3016 2534 2758 2815 
Q 2500 3097 2075 3097 
Q 1594 3097 1305 2825 
Q 1016 2553 972 2059 
L 3022 2063 
z
" transform="scale(0.015625)"/>
       <path id="DejaVuSans-76" d="M 191 3500 
L 800 3500 
L 1894 563 
L 2988 3500 
L 3597 3500 
L 2284 0 
L 1503 0 
L 191 3500 
z
" transform="scale(0.015625)"/>
       <path id="DejaVuSans-6e" d="M 3513 2113 
L 3513 0 
L 2938 0 
L 2938 2094 
Q 2938 2591 2744 2837 
Q 2550 3084 2163 3084 
Q 1697 3084 1428 2787 
Q 1159 2491 1159 1978 
L 1159 0 
L 581 0 
L 581 3500 
L 1159 3500 
L 1159 2956 
Q 1366 3272 1645 3428 
Q 1925 3584 2291 3584 
Q 2894 3584 3203 3211 
Q 3513 2838 3513 2113 
z
" transform="scale(0.015625)"/>
       <path id="DejaVuSans-74" d="M 1172 4494 
L 1172 3500 
L 2356 3500 
L 2356 3053 
L 1172 3053 
L 1172 1153 
Q 1172 725 1289 603 
Q 1406 481 1766 481 
L 2356 481 
L 2356 0 
L 1766 0 
Q 1100 0 847 248 
Q 594 497 594 1153 
L 594 3053 
L 172 3053 
L 172 3500 
L 594 3500 
L 594 4494 
L 1172 4494 
z
" transform="scale(0.015625)"/>
       <path id="DejaVuSans-5f" d="M 3263 -1063 
L 3263 -1509 
L -63 -1509 
L -63 -1063 
L 3263 -1063 
z
" transform="scale(0.015625)"/>
       <path id="DejaVuSans-69" d="M 603 3500 
L 1178 3500 
L 1178 0 
L 603 0 
L 603 3500 
z
M 603 4863 
L 1178 4863 
L 1178 4134 
L 603 4134 
L 603 4863 
z
" transform="scale(0.015625)"/>
       <path id="DejaVuSans-6d" d="M 3328 2828 
Q 3544 3216 3844 3400 
Q 4144 3584 4550 3584 
Q 5097 3584 5394 3201 
Q 5691 2819 5691 2113 
L 5691 0 
L 5113 0 
L 5113 2094 
Q 5113 2597 4934 2840 
Q 4756 3084 4391 3084 
Q 3944 3084 3684 2787 
Q 3425 2491 3425 1978 
L 3425 0 
L 2847 0 
L 2847 2094 
Q 2847 2600 2669 2842 
Q 2491 3084 2119 3084 
Q 1678 3084 1418 2786 
Q 1159 2488 1159 1978 
L 1159 0 
L 581 0 
L 581 3500 
L 1159 3500 
L 1159 2956 
Q 1356 3278 1631 3431 
Q 1906 3584 2284 3584 
Q 2666 3584 2933 3390 
Q 3200 3197 3328 2828 
z
" transform="scale(0.015625)"/>
       <path id="DejaVuSans-6f" d="M 1959 3097 
Q 1497 3097 1228 2736 
Q 959 2375 959 1747 
Q 959 1119 1226 758 
Q 1494 397 1959 397 
Q 2419 397 2687 759 
Q 2956 1122 2956 1747 
Q 2956 2369 2687 2733 
Q 2419 3097 1959 3097 
z
M 1959 3584 
Q 2709 3584 3137 3096 
Q 3566 2609 3566 1747 
Q 3566 888 3137 398 
Q 2709 -91 1959 -91 
Q 1206 -91 779 398 
Q 353 888 353 1747 
Q 353 2609 779 3096 
Q 1206 3584 1959 3584 
z
" transform="scale(0.015625)"/>
       <path id="DejaVuSans-66" d="M 2375 4863 
L 2375 4384 
L 1825 4384 
Q 1516 4384 1395 4259 
Q 1275 4134 1275 3809 
L 1275 3500 
L 2222 3500 
L 2222 3053 
L 1275 3053 
L 1275 0 
L 697 0 
L 697 3053 
L 147 3053 
L 147 3500 
L 697 3500 
L 697 3744 
Q 697 4328 969 4595 
Q 1241 4863 1831 4863 
L 2375 4863 
z
" transform="scale(0.015625)"/>
       <path id="DejaVuSans-73" d="M 2834 3397 
L 2834 2853 
Q 2591 2978 2328 3040 
Q 2066 3103 1784 3103 
Q 1356 3103 1142 2972 
Q 928 2841 928 2578 
Q 928 2378 1081 2264 
Q 1234 2150 1697 2047 
L 1894 2003 
Q 2506 1872 2764 1633 
Q 3022 1394 3022 966 
Q 3022 478 2636 193 
Q 2250 -91 1575 -91 
Q 1294 -91 989 -36 
Q 684 19 347 128 
L 347 722 
Q 666 556 975 473 
Q 1284 391 1588 391 
Q 1994 391 2212 530 
Q 2431 669 2431 922 
Q 2431 1156 2273 1281 
Q 2116 1406 1581 1522 
L 1381 1569 
Q 847 1681 609 1914 
Q 372 2147 372 2553 
Q 372 3047 722 3315 
Q 1072 3584 1716 3584 
Q 2034 3584 2315 3537 
Q 2597 3491 2834 3397 
z
" transform="scale(0.015625)"/>
       <path id="DejaVuSans-20" transform="scale(0.015625)"/>
       <path id="DejaVuSans-5b" d="M 550 4863 
L 1875 4863 
L 1875 4416 
L 1125 4416 
L 1125 -397 
L 1875 -397 
L 1875 -844 
L 550 -844 
L 550 4863 
z
" transform="scale(0.015625)"/>
       <path id="DejaVuSans-b5" d="M 544 -1331 
L 544 3500 
L 1119 3500 
L 1119 1325 
Q 1119 872 1334 640 
Q 1550 409 1972 409 
Q 2434 409 2667 671 
Q 2900 934 2900 1459 
L 2900 3500 
L 3475 3500 
L 3475 806 
Q 3475 619 3529 530 
Q 3584 441 3700 441 
Q 3728 441 3778 458 
Q 3828 475 3916 513 
L 3916 50 
Q 3788 -22 3673 -56 
Q 3559 -91 3450 -91 
Q 3234 -91 3106 31 
Q 2978 153 2931 403 
Q 2775 156 2548 32 
Q 2322 -91 2016 -91 
Q 1697 -91 1473 31 
Q 1250 153 1119 397 
L 1119 -1331 
L 544 -1331 
z
" transform="scale(0.015625)"/>
       <path id="DejaVuSans-5d" d="M 1947 4863 
L 1947 -844 
L 622 -844 
L 622 -397 
L 1369 -397 
L 1369 4416 
L 622 4416 
L 622 4863 
L 1947 4863 
z
" transform="scale(0.015625)"/>
      </defs>
      <use xlink:href="#DejaVuSans-65"/>
      <use xlink:href="#DejaVuSans-76" x="61.523438"/>
      <use xlink:href="#DejaVuSans-65" x="120.703125"/>
      <use xlink:href="#DejaVuSans-6e" x="182.226562"/>
      <use xlink:href="#DejaVuSans-74" x="245.605469"/>
      <use xlink:href="#DejaVuSans-5f" x="284.814453"/>
      <use xlink:href="#DejaVuSans-74" x="334.814453"/>
      <use xlink:href="#DejaVuSans-69" x="374.023438"/>
      <use xlink:href="#DejaVuSans-6d" x="401.806641"/>
      <use xlink:href="#DejaVuSans-65" x="499.21875"/>
      <use xlink:href="#DejaVuSans-5f" x="560.742188"/>
      <use xlink:href="#DejaVuSans-6f" x="610.742188"/>
      <use xlink:href="#DejaVuSans-66" x="671.923828"/>
      <use xlink:href="#DejaVuSans-66" x="707.128906"/>
      <use xlink:href="#DejaVuSans-73" x="742.333984"/>
      <use xlink:href="#DejaVuSans-65" x="794.433594"/>
      <use xlink:href="#DejaVuSans-74" x="855.957031"/>
      <use xlink:href="#DejaVuSans-20" x="895.166016"/>
      <use xlink:href="#DejaVuSans-5b" x="926.953125"/>
      <use xlink:href="#DejaVuSans-b5" x="965.966797"/>
      <use xlink:href="#DejaVuSans-73" x="1029.589844"/>
      <use xlink:href="#DejaVuSans-5d" x="1081.689453"/>
     </g>
    </g>
   </g>
   <g id="matplotlib.axis_2">
    <g id="ytick_1">
     <g id="line2d_9">
      <defs>
       <path id="m79a59c9567" d="M 0 0 
L -3.5 0 
" style="stroke: #000000; stroke-width: 0.8"/>
      </defs>
      <g>
       <use xlink:href="#m79a59c9567" x="53.328125" y="218.88" style="stroke: #000000; stroke-width: 0.8"/>
      </g>
     </g>
     <g id="text_10">
      <!-- 0 -->
      <g transform="translate(39.965625 222.679219) scale(0.1 -0.1)">
       <use xlink:href="#DejaVuSans-30"/>
      </g>
     </g>
    </g>
    <g id="ytick_2">
     <g id="line2d_10">
      <g>
       <use xlink:href="#m79a59c9567" x="53.328125" y="188.591538" style="stroke: #000000; stroke-width: 0.8"/>
      </g>
     </g>
     <g id="text_11">
      <!-- 250 -->
      <g transform="translate(27.240625 192.390757) scale(0.1 -0.1)">
       <use xlink:href="#DejaVuSans-32"/>
       <use xlink:href="#DejaVuSans-35" x="63.623047"/>
       <use xlink:href="#DejaVuSans-30" x="127.246094"/>
      </g>
     </g>
    </g>
    <g id="ytick_3">
     <g id="line2d_11">
      <g>
       <use xlink:href="#m79a59c9567" x="53.328125" y="158.303077" style="stroke: #000000; stroke-width: 0.8"/>
      </g>
     </g>
     <g id="text_12">
      <!-- 500 -->
      <g transform="translate(27.240625 162.102296) scale(0.1 -0.1)">
       <use xlink:href="#DejaVuSans-35"/>
       <use xlink:href="#DejaVuSans-30" x="63.623047"/>
       <use xlink:href="#DejaVuSans-30" x="127.246094"/>
      </g>
     </g>
    </g>
    <g id="ytick_4">
     <g id="line2d_12">
      <g>
       <use xlink:href="#m79a59c9567" x="53.328125" y="128.014615" style="stroke: #000000; stroke-width: 0.8"/>
      </g>
     </g>
     <g id="text_13">
      <!-- 750 -->
      <g transform="translate(27.240625 131.813834) scale(0.1 -0.1)">
       <use xlink:href="#DejaVuSans-37"/>
       <use xlink:href="#DejaVuSans-35" x="63.623047"/>
       <use xlink:href="#DejaVuSans-30" x="127.246094"/>
      </g>
     </g>
    </g>
    <g id="ytick_5">
     <g id="line2d_13">
      <g>
       <use xlink:href="#m79a59c9567" x="53.328125" y="97.726154" style="stroke: #000000; stroke-width: 0.8"/>
      </g>
     </g>
     <g id="text_14">
      <!-- 1000 -->
      <g transform="translate(20.878125 101.525373) scale(0.1 -0.1)">
       <use xlink:href="#DejaVuSans-31"/>
       <use xlink:href="#DejaVuSans-30" x="63.623047"/>
       <use xlink:href="#DejaVuSans-30" x="127.246094"/>
       <use xlink:href="#DejaVuSans-30" x="190.869141"/>
      </g>
     </g>
    </g>
    <g id="ytick_6">
     <g id="line2d_14">
      <g>
       <use xlink:href="#m79a59c9567" x="53.328125" y="67.437692" style="stroke: #000000; stroke-width: 0.8"/>
      </g>
     </g>
     <g id="text_15">
      <!-- 1250 -->
      <g transform="translate(20.878125 71.236911) scale(0.1 -0.1)">
       <use xlink:href="#DejaVuSans-31"/>
       <use xlink:href="#DejaVuSans-32" x="63.623047"/>
       <use xlink:href="#DejaVuSans-35" x="127.246094"/>
       <use xlink:href="#DejaVuSans-30" x="190.869141"/>
      </g>
     </g>
    </g>
    <g id="ytick_7">
     <g id="line2d_15">
      <g>
       <use xlink:href="#m79a59c9567" x="53.328125" y="37.149231" style="stroke: #000000; stroke-width: 0.8"/>
      </g>
     </g>
     <g id="text_16">
      <!-- 1500 -->
      <g transform="translate(20.878125 40.94845) scale(0.1 -0.1)">
       <use xlink:href="#DejaVuSans-31"/>
       <use xlink:href="#DejaVuSans-35" x="63.623047"/>
       <use xlink:href="#DejaVuSans-30" x="127.246094"/>
       <use xlink:href="#DejaVuSans-30" x="190.869141"/>
      </g>
     </g>
    </g>
    <g id="text_17">
     <!-- [counts] -->
     <g transform="translate(14.798438 138.6925) rotate(-90) scale(0.1 -0.1)">
      <defs>
       <path id="DejaVuSans-63" d="M 3122 3366 
L 3122 2828 
Q 2878 2963 2633 3030 
Q 2388 3097 2138 3097 
Q 1578 3097 1268 2742 
Q 959 2388 959 1747 
Q 959 1106 1268 751 
Q 1578 397 2138 397 
Q 2388 397 2633 464 
Q 2878 531 3122 666 
L 3122 134 
Q 2881 22 2623 -34 
Q 2366 -91 2075 -91 
Q 1284 -91 818 406 
Q 353 903 353 1747 
Q 353 2603 823 3093 
Q 1294 3584 2113 3584 
Q 2378 3584 2631 3529 
Q 2884 3475 3122 3366 
z
" transform="scale(0.015625)"/>
       <path id="DejaVuSans-75" d="M 544 1381 
L 544 3500 
L 1119 3500 
L 1119 1403 
Q 1119 906 1312 657 
Q 1506 409 1894 409 
Q 2359 409 2629 706 
Q 2900 1003 2900 1516 
L 2900 3500 
L 3475 3500 
L 3475 0 
L 2900 0 
L 2900 538 
Q 2691 219 2414 64 
Q 2138 -91 1772 -91 
Q 1169 -91 856 284 
Q 544 659 544 1381 
z
M 1991 3584 
L 1991 3584 
z
" transform="scale(0.015625)"/>
      </defs>
      <use xlink:href="#DejaVuSans-5b"/>
      <use xlink:href="#DejaVuSans-63" x="39.013672"/>
      <use xlink:href="#DejaVuSans-6f" x="93.994141"/>
      <use xlink:href="#DejaVuSans-75" x="155.175781"/>
      <use xlink:href="#DejaVuSans-6e" x="218.554688"/>
      <use xlink:href="#DejaVuSans-74" x="281.933594"/>
      <use xlink:href="#DejaVuSans-73" x="321.142578"/>
      <use xlink:href="#DejaVuSans-5d" x="373.242188"/>
     </g>
    </g>
   </g>
   <g id="patch_3">
    <path d="M 53.328125 228.96 
L 53.328125 7.2 
" style="fill: none; stroke: #000000; stroke-width: 0.8; stroke-linejoin: miter; stroke-linecap: square"/>
   </g>
   <g id="patch_4">
    <path d="M 388.128125 228.96 
L 388.128125 7.2 
" style="fill: none; stroke: #000000; stroke-width: 0.8; stroke-linejoin: miter; stroke-linecap: square"/>
   </g>
   <g id="patch_5">
    <path d="M 53.328125 228.96 
L 388.128125 228.96 
" style="fill: none; stroke: #000000; stroke-width: 0.8; stroke-linejoin: miter; stroke-linecap: square"/>
   </g>
   <g id="patch_6">
    <path d="M 53.328125 7.2 
L 388.128125 7.2 
" style="fill: none; stroke: #000000; stroke-width: 0.8; stroke-linejoin: miter; stroke-linecap: square"/>
   </g>
   <g id="line2d_16">
    <path d="M 68.546307 214.155 
L 69.560852 214.155 
L 69.560852 212.095385 
L 70.575398 212.095385 
L 70.575398 214.155 
L 71.589943 214.155 
L 71.589943 212.943462 
L 72.604489 212.943462 
L 72.604489 214.033846 
L 73.619034 214.033846 
L 73.619034 214.155 
L 74.63358 214.155 
L 74.63358 213.064615 
L 75.648125 213.064615 
L 75.648125 213.185769 
L 76.66267 213.185769 
L 76.66267 212.943462 
L 77.677216 212.943462 
L 77.677216 213.306923 
L 78.691761 213.306923 
L 78.691761 214.033846 
L 79.706307 214.033846 
L 79.706307 214.760769 
L 80.720852 214.760769 
L 80.720852 215.003077 
L 81.735398 215.003077 
L 81.735398 215.487692 
L 82.749943 215.487692 
L 82.749943 215.003077 
L 83.764489 215.003077 
L 83.764489 214.155 
L 84.779034 214.155 
L 84.779034 213.670385 
L 85.79358 213.670385 
L 85.79358 213.306923 
L 86.808125 213.306923 
L 86.808125 214.881923 
L 87.82267 214.881923 
L 87.82267 214.397308 
L 88.837216 214.397308 
L 88.837216 214.518462 
L 89.851761 214.518462 
L 89.851761 213.549231 
L 90.866307 213.549231 
L 90.866307 215.487692 
L 91.880852 215.487692 
L 91.880852 216.456923 
L 92.895398 216.456923 
L 92.895398 215.608846 
L 93.909943 215.608846 
L 93.909943 216.456923 
L 94.924489 216.456923 
L 94.924489 218.031923 
L 95.939034 218.031923 
L 95.939034 218.88 
L 105.069943 218.88 
L 105.069943 218.758846 
L 107.099034 218.758846 
L 107.099034 218.153077 
L 108.11358 218.153077 
L 108.11358 218.031923 
L 109.128125 218.031923 
L 109.128125 217.668462 
L 110.14267 217.668462 
L 110.14267 218.274231 
L 111.157216 218.274231 
L 111.157216 217.547308 
L 112.171761 217.547308 
L 112.171761 217.426154 
L 113.186307 217.426154 
L 113.186307 216.214615 
L 114.200852 216.214615 
L 114.200852 217.062692 
L 115.215398 217.062692 
L 115.215398 217.305 
L 116.229943 217.305 
L 116.229943 216.456923 
L 117.244489 216.456923 
L 117.244489 215.851154 
L 118.259034 215.851154 
L 118.259034 215.608846 
L 119.27358 215.608846 
L 119.27358 215.73 
L 120.288125 215.73 
L 120.288125 216.093462 
L 121.30267 216.093462 
L 121.30267 215.245385 
L 122.317216 215.245385 
L 122.317216 215.972308 
L 123.331761 215.972308 
L 123.331761 215.851154 
L 124.346307 215.851154 
L 124.346307 216.578077 
L 125.360852 216.578077 
L 125.360852 214.881923 
L 127.389943 214.881923 
L 127.389943 216.335769 
L 128.404489 216.335769 
L 128.404489 216.456923 
L 129.419034 216.456923 
L 129.419034 216.941538 
L 130.43358 216.941538 
L 130.43358 216.699231 
L 131.448125 216.699231 
L 131.448125 216.456923 
L 132.46267 216.456923 
L 132.46267 215.73 
L 133.477216 215.73 
L 133.477216 217.305 
L 134.491761 217.305 
L 134.491761 214.639615 
L 135.506307 214.639615 
L 135.506307 217.183846 
L 136.520852 217.183846 
L 136.520852 216.335769 
L 137.535398 216.335769 
L 137.535398 216.820385 
L 138.549943 216.820385 
L 138.549943 215.851154 
L 139.564489 215.851154 
L 139.564489 216.335769 
L 140.579034 216.335769 
L 140.579034 216.578077 
L 141.59358 216.578077 
L 141.59358 216.820385 
L 142.608125 216.820385 
L 142.608125 217.668462 
L 143.62267 217.668462 
L 143.62267 218.516538 
L 144.637216 218.516538 
L 144.637216 218.88 
L 165.94267 218.88 
L 165.94267 218.516538 
L 166.957216 218.516538 
L 166.957216 217.547308 
L 167.971761 217.547308 
L 167.971761 211.489615 
L 168.986307 211.489615 
L 168.986307 204.341538 
L 170.000852 204.341538 
L 170.000852 202.281923 
L 171.015398 202.281923 
L 171.015398 199.98 
L 172.029943 199.98 
L 172.029943 192.831923 
L 173.044489 192.831923 
L 173.044489 186.895385 
L 174.059034 186.895385 
L 174.059034 178.051154 
L 175.07358 178.051154 
L 175.07358 166.299231 
L 176.088125 166.299231 
L 176.088125 150.306923 
L 177.10267 150.306923 
L 177.10267 128.378077 
L 178.117216 128.378077 
L 178.117216 108.993462 
L 179.131761 108.993462 
L 179.131761 93.364615 
L 180.146307 93.364615 
L 180.146307 71.314615 
L 181.160852 71.314615 
L 181.160852 57.381923 
L 182.175398 57.381923 
L 182.175398 44.176154 
L 183.189943 44.176154 
L 183.189943 36.664615 
L 184.204489 36.664615 
L 184.204489 18.855 
L 185.219034 18.855 
L 185.219034 17.28 
L 186.23358 17.28 
L 186.23358 31.939615 
L 187.248125 31.939615 
L 187.248125 39.935769 
L 188.26267 39.935769 
L 188.26267 40.541538 
L 189.277216 40.541538 
L 189.277216 58.23 
L 190.291761 58.23 
L 190.291761 56.412692 
L 191.306307 56.412692 
L 191.306307 57.987692 
L 192.320852 57.987692 
L 192.320852 66.589615 
L 193.335398 66.589615 
L 193.335398 75.070385 
L 194.349943 75.070385 
L 194.349943 72.768462 
L 195.364489 72.768462 
L 195.364489 84.035769 
L 196.379034 84.035769 
L 196.379034 81.855 
L 197.39358 81.855 
L 197.39358 95.545385 
L 198.408125 95.545385 
L 198.408125 91.183846 
L 199.42267 91.183846 
L 199.42267 102.087692 
L 200.437216 102.087692 
L 200.437216 105.116538 
L 201.451761 105.116538 
L 201.451761 111.174231 
L 202.466307 111.174231 
L 202.466307 114.93 
L 203.480852 114.93 
L 203.480852 116.383846 
L 204.495398 116.383846 
L 204.495398 118.322308 
L 205.509943 118.322308 
L 205.509943 165.451154 
L 206.524489 165.451154 
L 206.524489 207.491538 
L 207.539034 207.491538 
L 207.539034 218.88 
L 214.640852 218.88 
L 214.640852 218.637692 
L 215.655398 218.637692 
L 215.655398 217.668462 
L 216.669943 217.668462 
L 216.669943 214.639615 
L 218.699034 214.639615 
L 218.699034 213.912692 
L 219.71358 213.912692 
L 219.71358 211.005 
L 220.728125 211.005 
L 220.728125 208.097308 
L 221.74267 208.097308 
L 221.74267 207.249231 
L 222.757216 207.249231 
L 222.757216 201.676154 
L 223.771761 201.676154 
L 223.771761 197.799231 
L 224.786307 197.799231 
L 224.786307 192.105 
L 225.800852 192.105 
L 225.800852 184.472308 
L 226.815398 184.472308 
L 226.815398 180.595385 
L 227.829943 180.595385 
L 227.829943 174.416538 
L 228.844489 174.416538 
L 228.844489 166.299231 
L 229.859034 166.299231 
L 229.859034 162.422308 
L 230.87358 162.422308 
L 230.87358 161.695385 
L 231.888125 161.695385 
L 231.888125 155.153077 
L 232.90267 155.153077 
L 232.90267 154.910769 
L 233.917216 154.910769 
L 233.917216 152.487692 
L 234.931761 152.487692 
L 234.931761 158.908846 
L 235.946307 158.908846 
L 235.946307 160.605 
L 236.960852 160.605 
L 236.960852 160.726154 
L 237.975398 160.726154 
L 237.975398 162.664615 
L 238.989943 162.664615 
L 238.989943 167.995385 
L 240.004489 167.995385 
L 240.004489 166.056923 
L 241.019034 166.056923 
L 241.019034 170.903077 
L 242.03358 170.903077 
L 242.03358 168.48 
L 243.048125 168.48 
L 243.048125 169.812692 
L 244.06267 169.812692 
L 244.06267 167.874231 
L 245.077216 167.874231 
L 245.077216 175.385769 
L 246.091761 175.385769 
L 246.091761 175.022308 
L 247.106307 175.022308 
L 247.106307 175.628077 
L 248.120852 175.628077 
L 248.120852 181.08 
L 249.135398 181.08 
L 249.135398 179.383846 
L 250.149943 179.383846 
L 250.149943 181.564615 
L 251.164489 181.564615 
L 251.164489 182.655 
L 252.179034 182.655 
L 252.179034 182.170385 
L 253.19358 182.170385 
L 253.19358 185.320385 
L 254.208125 185.320385 
L 254.208125 206.158846 
L 255.22267 206.158846 
L 255.22267 218.031923 
L 256.237216 218.031923 
L 256.237216 218.88 
L 263.339034 218.88 
L 263.339034 218.758846 
L 264.35358 218.758846 
L 264.35358 218.274231 
L 265.368125 218.274231 
L 265.368125 217.305 
L 266.38267 217.305 
L 266.38267 217.426154 
L 267.397216 217.426154 
L 267.397216 216.335769 
L 268.411761 216.335769 
L 268.411761 215.487692 
L 269.426307 215.487692 
L 269.426307 214.033846 
L 270.440852 214.033846 
L 270.440852 212.337692 
L 271.455398 212.337692 
L 271.455398 210.762692 
L 272.469943 210.762692 
L 272.469943 205.795385 
L 273.484489 205.795385 
L 273.484489 203.493462 
L 274.499034 203.493462 
L 274.499034 202.766538 
L 275.51358 202.766538 
L 275.51358 198.283846 
L 276.528125 198.283846 
L 276.528125 196.951154 
L 277.54267 196.951154 
L 277.54267 196.587692 
L 278.557216 196.587692 
L 278.557216 197.193462 
L 279.571761 197.193462 
L 279.571761 193.801154 
L 280.586307 193.801154 
L 280.586307 189.924231 
L 281.600852 189.924231 
L 281.600852 193.437692 
L 282.615398 193.437692 
L 282.615398 196.345385 
L 283.629943 196.345385 
L 283.629943 194.043462 
L 284.644489 194.043462 
L 284.644489 196.103077 
L 285.659034 196.103077 
L 285.659034 194.649231 
L 286.67358 194.649231 
L 286.67358 198.283846 
L 287.688125 198.283846 
L 287.688125 200.222308 
L 288.70267 200.222308 
L 288.70267 198.526154 
L 289.717216 198.526154 
L 289.717216 199.010769 
L 290.731761 199.010769 
L 290.731761 199.495385 
L 291.746307 199.495385 
L 291.746307 199.858846 
L 292.760852 199.858846 
L 292.760852 200.828077 
L 293.775398 200.828077 
L 293.775398 201.191538 
L 294.789943 201.191538 
L 294.789943 199.131923 
L 295.804489 199.131923 
L 295.804489 203.008846 
L 296.819034 203.008846 
L 296.819034 201.070385 
L 297.83358 201.070385 
L 297.83358 203.13 
L 298.848125 203.13 
L 298.848125 204.462692 
L 299.86267 204.462692 
L 299.86267 202.281923 
L 300.877216 202.281923 
L 300.877216 204.826154 
L 301.891761 204.826154 
L 301.891761 209.066538 
L 302.906307 209.066538 
L 302.906307 216.335769 
L 303.920852 216.335769 
L 303.920852 218.88 
L 313.051761 218.88 
L 313.051761 218.516538 
L 314.066307 218.516538 
L 314.066307 217.910769 
L 315.080852 217.910769 
L 315.080852 217.426154 
L 316.095398 217.426154 
L 316.095398 216.941538 
L 318.124489 216.941538 
L 318.124489 215.73 
L 319.139034 215.73 
L 319.139034 215.366538 
L 320.15358 215.366538 
L 320.15358 213.791538 
L 321.168125 213.791538 
L 321.168125 211.005 
L 322.18267 211.005 
L 322.18267 210.399231 
L 323.197216 210.399231 
L 323.197216 211.126154 
L 324.211761 211.126154 
L 324.211761 211.853077 
L 325.226307 211.853077 
L 325.226307 211.005 
L 326.240852 211.005 
L 326.240852 206.158846 
L 327.255398 206.158846 
L 327.255398 208.097308 
L 328.269943 208.097308 
L 328.269943 206.037692 
L 329.284489 206.037692 
L 329.284489 207.249231 
L 330.299034 207.249231 
L 330.299034 205.916538 
L 331.31358 205.916538 
L 331.31358 210.399231 
L 332.328125 210.399231 
L 332.328125 209.551154 
L 334.357216 209.551154 
L 334.357216 210.399231 
L 335.371761 210.399231 
L 335.371761 209.672308 
L 336.386307 209.672308 
L 336.386307 208.945385 
L 337.400852 208.945385 
L 337.400852 210.762692 
L 338.415398 210.762692 
L 338.415398 210.278077 
L 339.429943 210.278077 
L 339.429943 209.672308 
L 340.444489 209.672308 
L 340.444489 210.520385 
L 341.459034 210.520385 
L 341.459034 212.58 
L 342.47358 212.58 
L 342.47358 209.551154 
L 343.488125 209.551154 
L 343.488125 211.368462 
L 344.50267 211.368462 
L 344.50267 211.610769 
L 345.517216 211.610769 
L 345.517216 209.672308 
L 346.531761 209.672308 
L 346.531761 209.43 
L 347.546307 209.43 
L 347.546307 210.762692 
L 348.560852 210.762692 
L 348.560852 212.943462 
L 349.575398 212.943462 
L 349.575398 212.822308 
L 350.589943 212.822308 
L 350.589943 215.608846 
L 351.604489 215.608846 
L 351.604489 218.637692 
L 352.619034 218.637692 
L 352.619034 218.88 
L 360.735398 218.88 
L 360.735398 218.637692 
L 361.749943 218.637692 
L 361.749943 218.758846 
L 362.764489 218.758846 
L 362.764489 218.637692 
L 363.779034 218.637692 
L 363.779034 217.183846 
L 364.79358 217.183846 
L 364.79358 217.547308 
L 366.82267 217.547308 
L 366.82267 217.183846 
L 367.837216 217.183846 
L 367.837216 216.456923 
L 368.851761 216.456923 
L 368.851761 216.699231 
L 369.866307 216.699231 
L 369.866307 215.124231 
L 370.880852 215.124231 
L 370.880852 213.428077 
L 371.895398 213.428077 
L 371.895398 214.760769 
L 372.909943 214.760769 
L 372.909943 214.760769 
" clip-path="url(#p018ea175f5)" style="fill: none; stroke: #1f77b4; stroke-width: 1.5; stroke-linecap: square"/>
   </g>
  </g>
 </g>
 <defs>
  <clipPath id="p018ea175f5">
   <rect x="53.328125" y="7.2" width="334.8" height="221.76"/>
  </clipPath>
 </defs>
</svg>
