<?xml version="1.0" encoding="utf-8" standalone="no"?>
<!DOCTYPE svg PUBLIC "-//W3C//DTD SVG 1.1//EN"
  "http://www.w3.org/Graphics/SVG/1.1/DTD/svg11.dtd">
<svg xmlns:xlink="http://www.w3.org/1999/xlink" width="395.328125pt" height="266.51625pt" viewBox="0 0 395.328125 266.51625" xmlns="http://www.w3.org/2000/svg" version="1.1">
 <metadata>
  <rdf:RDF xmlns:dc="http://purl.org/dc/elements/1.1/" xmlns:cc="http://creativecommons.org/ns#" xmlns:rdf="http://www.w3.org/1999/02/22-rdf-syntax-ns#">
   <cc:Work>
    <dc:type rdf:resource="http://purl.org/dc/dcmitype/StillImage"/>
    <dc:date>2024-12-12T12:32:16.839611</dc:date>
    <dc:format>image/svg+xml</dc:format>
    <dc:creator>
     <cc:Agent>
      <dc:title>Matplotlib v3.7.3, https://matplotlib.org/</dc:title>
     </cc:Agent>
    </dc:creator>
   </cc:Work>
  </rdf:RDF>
 </metadata>
 <defs>
  <style type="text/css">*{stroke-linejoin: round; stroke-linecap: butt}</style>
 </defs>
 <g id="figure_1">
  <g id="patch_1">
   <path d="M 0 266.51625 
L 395.328125 266.51625 
L 395.328125 0 
L 0 0 
z
" style="fill: #ffffff"/>
  </g>
  <g id="axes_1">
   <g id="patch_2">
    <path d="M 53.328125 228.96 
L 388.128125 228.96 
L 388.128125 7.2 
L 53.328125 7.2 
z
" style="fill: #ffffff"/>
   </g>
   <g id="matplotlib.axis_1">
    <g id="xtick_1">
     <g id="line2d_1">
      <defs>
       <path id="m1fcf286847" d="M 0 0 
L 0 3.5 
" style="stroke: #000000; stroke-width: 0.8"/>
      </defs>
      <g>
       <use xlink:href="#m1fcf286847" x="102.364489" y="228.96" style="stroke: #000000; stroke-width: 0.8"/>
      </g>
     </g>
     <g id="text_1">
      <!-- 0.01 -->
      <g transform="translate(91.231676 243.558437) scale(0.1 -0.1)">
       <defs>
        <path id="DejaVuSans-30" d="M 2034 4250 
Q 1547 4250 1301 3770 
Q 1056 3291 1056 2328 
Q 1056 1369 1301 889 
Q 1547 409 2034 409 
Q 2525 409 2770 889 
Q 3016 1369 3016 2328 
Q 3016 3291 2770 3770 
Q 2525 4250 2034 4250 
z
M 2034 4750 
Q 2819 4750 3233 4129 
Q 3647 3509 3647 2328 
Q 3647 1150 3233 529 
Q 2819 -91 2034 -91 
Q 1250 -91 836 529 
Q 422 1150 422 2328 
Q 422 3509 836 4129 
Q 1250 4750 2034 4750 
z
" transform="scale(0.015625)"/>
        <path id="DejaVuSans-2e" d="M 684 794 
L 1344 794 
L 1344 0 
L 684 0 
L 684 794 
z
" transform="scale(0.015625)"/>
        <path id="DejaVuSans-31" d="M 794 531 
L 1825 531 
L 1825 4091 
L 703 3866 
L 703 4441 
L 1819 4666 
L 2450 4666 
L 2450 531 
L 3481 531 
L 3481 0 
L 794 0 
L 794 531 
z
" transform="scale(0.015625)"/>
       </defs>
       <use xlink:href="#DejaVuSans-30"/>
       <use xlink:href="#DejaVuSans-2e" x="63.623047"/>
       <use xlink:href="#DejaVuSans-30" x="95.410156"/>
       <use xlink:href="#DejaVuSans-31" x="159.033203"/>
      </g>
     </g>
    </g>
    <g id="xtick_2">
     <g id="line2d_2">
      <g>
       <use xlink:href="#m1fcf286847" x="170.000852" y="228.96" style="stroke: #000000; stroke-width: 0.8"/>
      </g>
     </g>
     <g id="text_2">
      <!-- 0.02 -->
      <g transform="translate(158.86804 243.558437) scale(0.1 -0.1)">
       <defs>
        <path id="DejaVuSans-32" d="M 1228 531 
L 3431 531 
L 3431 0 
L 469 0 
L 469 531 
Q 828 903 1448 1529 
Q 2069 2156 2228 2338 
Q 2531 2678 2651 2914 
Q 2772 3150 2772 3378 
Q 2772 3750 2511 3984 
Q 2250 4219 1831 4219 
Q 1534 4219 1204 4116 
Q 875 4013 500 3803 
L 500 4441 
Q 881 4594 1212 4672 
Q 1544 4750 1819 4750 
Q 2544 4750 2975 4387 
Q 3406 4025 3406 3419 
Q 3406 3131 3298 2873 
Q 3191 2616 2906 2266 
Q 2828 2175 2409 1742 
Q 1991 1309 1228 531 
z
" transform="scale(0.015625)"/>
       </defs>
       <use xlink:href="#DejaVuSans-30"/>
       <use xlink:href="#DejaVuSans-2e" x="63.623047"/>
       <use xlink:href="#DejaVuSans-30" x="95.410156"/>
       <use xlink:href="#DejaVuSans-32" x="159.033203"/>
      </g>
     </g>
    </g>
    <g id="xtick_3">
     <g id="line2d_3">
      <g>
       <use xlink:href="#m1fcf286847" x="237.637216" y="228.96" style="stroke: #000000; stroke-width: 0.8"/>
      </g>
     </g>
     <g id="text_3">
      <!-- 0.03 -->
      <g transform="translate(226.504403 243.558437) scale(0.1 -0.1)">
       <defs>
        <path id="DejaVuSans-33" d="M 2597 2516 
Q 3050 2419 3304 2112 
Q 3559 1806 3559 1356 
Q 3559 666 3084 287 
Q 2609 -91 1734 -91 
Q 1441 -91 1130 -33 
Q 819 25 488 141 
L 488 750 
Q 750 597 1062 519 
Q 1375 441 1716 441 
Q 2309 441 2620 675 
Q 2931 909 2931 1356 
Q 2931 1769 2642 2001 
Q 2353 2234 1838 2234 
L 1294 2234 
L 1294 2753 
L 1863 2753 
Q 2328 2753 2575 2939 
Q 2822 3125 2822 3475 
Q 2822 3834 2567 4026 
Q 2313 4219 1838 4219 
Q 1578 4219 1281 4162 
Q 984 4106 628 3988 
L 628 4550 
Q 988 4650 1302 4700 
Q 1616 4750 1894 4750 
Q 2613 4750 3031 4423 
Q 3450 4097 3450 3541 
Q 3450 3153 3228 2886 
Q 3006 2619 2597 2516 
z
" transform="scale(0.015625)"/>
       </defs>
       <use xlink:href="#DejaVuSans-30"/>
       <use xlink:href="#DejaVuSans-2e" x="63.623047"/>
       <use xlink:href="#DejaVuSans-30" x="95.410156"/>
       <use xlink:href="#DejaVuSans-33" x="159.033203"/>
      </g>
     </g>
    </g>
    <g id="xtick_4">
     <g id="line2d_4">
      <g>
       <use xlink:href="#m1fcf286847" x="305.27358" y="228.96" style="stroke: #000000; stroke-width: 0.8"/>
      </g>
     </g>
     <g id="text_4">
      <!-- 0.04 -->
      <g transform="translate(294.140767 243.558437) scale(0.1 -0.1)">
       <defs>
        <path id="DejaVuSans-34" d="M 2419 4116 
L 825 1625 
L 2419 1625 
L 2419 4116 
z
M 2253 4666 
L 3047 4666 
L 3047 1625 
L 3713 1625 
L 3713 1100 
L 3047 1100 
L 3047 0 
L 2419 0 
L 2419 1100 
L 313 1100 
L 313 1709 
L 2253 4666 
z
" transform="scale(0.015625)"/>
       </defs>
       <use xlink:href="#DejaVuSans-30"/>
       <use xlink:href="#DejaVuSans-2e" x="63.623047"/>
       <use xlink:href="#DejaVuSans-30" x="95.410156"/>
       <use xlink:href="#DejaVuSans-34" x="159.033203"/>
      </g>
     </g>
    </g>
    <g id="xtick_5">
     <g id="line2d_5">
      <g>
       <use xlink:href="#m1fcf286847" x="372.909943" y="228.96" style="stroke: #000000; stroke-width: 0.8"/>
      </g>
     </g>
     <g id="text_5">
      <!-- 0.05 -->
      <g transform="translate(361.777131 243.558437) scale(0.1 -0.1)">
       <defs>
        <path id="DejaVuSans-35" d="M 691 4666 
L 3169 4666 
L 3169 4134 
L 1269 4134 
L 1269 2991 
Q 1406 3038 1543 3061 
Q 1681 3084 1819 3084 
Q 2600 3084 3056 2656 
Q 3513 2228 3513 1497 
Q 3513 744 3044 326 
Q 2575 -91 1722 -91 
Q 1428 -91 1123 -41 
Q 819 9 494 109 
L 494 744 
Q 775 591 1075 516 
Q 1375 441 1709 441 
Q 2250 441 2565 725 
Q 2881 1009 2881 1497 
Q 2881 1984 2565 2268 
Q 2250 2553 1709 2553 
Q 1456 2553 1204 2497 
Q 953 2441 691 2322 
L 691 4666 
z
" transform="scale(0.015625)"/>
       </defs>
       <use xlink:href="#DejaVuSans-30"/>
       <use xlink:href="#DejaVuSans-2e" x="63.623047"/>
       <use xlink:href="#DejaVuSans-30" x="95.410156"/>
       <use xlink:href="#DejaVuSans-35" x="159.033203"/>
      </g>
     </g>
    </g>
    <g id="text_6">
     <!-- tof [s] -->
     <g transform="translate(205.853125 257.236562) scale(0.1 -0.1)">
      <defs>
       <path id="DejaVuSans-74" d="M 1172 4494 
L 1172 3500 
L 2356 3500 
L 2356 3053 
L 1172 3053 
L 1172 1153 
Q 1172 725 1289 603 
Q 1406 481 1766 481 
L 2356 481 
L 2356 0 
L 1766 0 
Q 1100 0 847 248 
Q 594 497 594 1153 
L 594 3053 
L 172 3053 
L 172 3500 
L 594 3500 
L 594 4494 
L 1172 4494 
z
" transform="scale(0.015625)"/>
       <path id="DejaVuSans-6f" d="M 1959 3097 
Q 1497 3097 1228 2736 
Q 959 2375 959 1747 
Q 959 1119 1226 758 
Q 1494 397 1959 397 
Q 2419 397 2687 759 
Q 2956 1122 2956 1747 
Q 2956 2369 2687 2733 
Q 2419 3097 1959 3097 
z
M 1959 3584 
Q 2709 3584 3137 3096 
Q 3566 2609 3566 1747 
Q 3566 888 3137 398 
Q 2709 -91 1959 -91 
Q 1206 -91 779 398 
Q 353 888 353 1747 
Q 353 2609 779 3096 
Q 1206 3584 1959 3584 
z
" transform="scale(0.015625)"/>
       <path id="DejaVuSans-66" d="M 2375 4863 
L 2375 4384 
L 1825 4384 
Q 1516 4384 1395 4259 
Q 1275 4134 1275 3809 
L 1275 3500 
L 2222 3500 
L 2222 3053 
L 1275 3053 
L 1275 0 
L 697 0 
L 697 3053 
L 147 3053 
L 147 3500 
L 697 3500 
L 697 3744 
Q 697 4328 969 4595 
Q 1241 4863 1831 4863 
L 2375 4863 
z
" transform="scale(0.015625)"/>
       <path id="DejaVuSans-20" transform="scale(0.015625)"/>
       <path id="DejaVuSans-5b" d="M 550 4863 
L 1875 4863 
L 1875 4416 
L 1125 4416 
L 1125 -397 
L 1875 -397 
L 1875 -844 
L 550 -844 
L 550 4863 
z
" transform="scale(0.015625)"/>
       <path id="DejaVuSans-73" d="M 2834 3397 
L 2834 2853 
Q 2591 2978 2328 3040 
Q 2066 3103 1784 3103 
Q 1356 3103 1142 2972 
Q 928 2841 928 2578 
Q 928 2378 1081 2264 
Q 1234 2150 1697 2047 
L 1894 2003 
Q 2506 1872 2764 1633 
Q 3022 1394 3022 966 
Q 3022 478 2636 193 
Q 2250 -91 1575 -91 
Q 1294 -91 989 -36 
Q 684 19 347 128 
L 347 722 
Q 666 556 975 473 
Q 1284 391 1588 391 
Q 1994 391 2212 530 
Q 2431 669 2431 922 
Q 2431 1156 2273 1281 
Q 2116 1406 1581 1522 
L 1381 1569 
Q 847 1681 609 1914 
Q 372 2147 372 2553 
Q 372 3047 722 3315 
Q 1072 3584 1716 3584 
Q 2034 3584 2315 3537 
Q 2597 3491 2834 3397 
z
" transform="scale(0.015625)"/>
       <path id="DejaVuSans-5d" d="M 1947 4863 
L 1947 -844 
L 622 -844 
L 622 -397 
L 1369 -397 
L 1369 4416 
L 622 4416 
L 622 4863 
L 1947 4863 
z
" transform="scale(0.015625)"/>
      </defs>
      <use xlink:href="#DejaVuSans-74"/>
      <use xlink:href="#DejaVuSans-6f" x="39.208984"/>
      <use xlink:href="#DejaVuSans-66" x="100.390625"/>
      <use xlink:href="#DejaVuSans-20" x="135.595703"/>
      <use xlink:href="#DejaVuSans-5b" x="167.382812"/>
      <use xlink:href="#DejaVuSans-73" x="206.396484"/>
      <use xlink:href="#DejaVuSans-5d" x="258.496094"/>
     </g>
    </g>
   </g>
   <g id="matplotlib.axis_2">
    <g id="ytick_1">
     <g id="line2d_6">
      <defs>
       <path id="m0b20621d45" d="M 0 0 
L -3.5 0 
" style="stroke: #000000; stroke-width: 0.8"/>
      </defs>
      <g>
       <use xlink:href="#m0b20621d45" x="53.328125" y="218.88" style="stroke: #000000; stroke-width: 0.8"/>
      </g>
     </g>
     <g id="text_7">
      <!-- 0 -->
      <g transform="translate(39.965625 222.679219) scale(0.1 -0.1)">
       <use xlink:href="#DejaVuSans-30"/>
      </g>
     </g>
    </g>
    <g id="ytick_2">
     <g id="line2d_7">
      <g>
       <use xlink:href="#m0b20621d45" x="53.328125" y="173.819651" style="stroke: #000000; stroke-width: 0.8"/>
      </g>
     </g>
     <g id="text_8">
      <!-- 500 -->
      <g transform="translate(27.240625 177.61887) scale(0.1 -0.1)">
       <use xlink:href="#DejaVuSans-35"/>
       <use xlink:href="#DejaVuSans-30" x="63.623047"/>
       <use xlink:href="#DejaVuSans-30" x="127.246094"/>
      </g>
     </g>
    </g>
    <g id="ytick_3">
     <g id="line2d_8">
      <g>
       <use xlink:href="#m0b20621d45" x="53.328125" y="128.759303" style="stroke: #000000; stroke-width: 0.8"/>
      </g>
     </g>
     <g id="text_9">
      <!-- 1000 -->
      <g transform="translate(20.878125 132.558521) scale(0.1 -0.1)">
       <use xlink:href="#DejaVuSans-31"/>
       <use xlink:href="#DejaVuSans-30" x="63.623047"/>
       <use xlink:href="#DejaVuSans-30" x="127.246094"/>
       <use xlink:href="#DejaVuSans-30" x="190.869141"/>
      </g>
     </g>
    </g>
    <g id="ytick_4">
     <g id="line2d_9">
      <g>
       <use xlink:href="#m0b20621d45" x="53.328125" y="83.698954" style="stroke: #000000; stroke-width: 0.8"/>
      </g>
     </g>
     <g id="text_10">
      <!-- 1500 -->
      <g transform="translate(20.878125 87.498173) scale(0.1 -0.1)">
       <use xlink:href="#DejaVuSans-31"/>
       <use xlink:href="#DejaVuSans-35" x="63.623047"/>
       <use xlink:href="#DejaVuSans-30" x="127.246094"/>
       <use xlink:href="#DejaVuSans-30" x="190.869141"/>
      </g>
     </g>
    </g>
    <g id="ytick_5">
     <g id="line2d_10">
      <g>
       <use xlink:href="#m0b20621d45" x="53.328125" y="38.638605" style="stroke: #000000; stroke-width: 0.8"/>
      </g>
     </g>
     <g id="text_11">
      <!-- 2000 -->
      <g transform="translate(20.878125 42.437824) scale(0.1 -0.1)">
       <use xlink:href="#DejaVuSans-32"/>
       <use xlink:href="#DejaVuSans-30" x="63.623047"/>
       <use xlink:href="#DejaVuSans-30" x="127.246094"/>
       <use xlink:href="#DejaVuSans-30" x="190.869141"/>
      </g>
     </g>
    </g>
    <g id="text_12">
     <!-- [counts] -->
     <g transform="translate(14.798438 138.6925) rotate(-90) scale(0.1 -0.1)">
      <defs>
       <path id="DejaVuSans-63" d="M 3122 3366 
L 3122 2828 
Q 2878 2963 2633 3030 
Q 2388 3097 2138 3097 
Q 1578 3097 1268 2742 
Q 959 2388 959 1747 
Q 959 1106 1268 751 
Q 1578 397 2138 397 
Q 2388 397 2633 464 
Q 2878 531 3122 666 
L 3122 134 
Q 2881 22 2623 -34 
Q 2366 -91 2075 -91 
Q 1284 -91 818 406 
Q 353 903 353 1747 
Q 353 2603 823 3093 
Q 1294 3584 2113 3584 
Q 2378 3584 2631 3529 
Q 2884 3475 3122 3366 
z
" transform="scale(0.015625)"/>
       <path id="DejaVuSans-75" d="M 544 1381 
L 544 3500 
L 1119 3500 
L 1119 1403 
Q 1119 906 1312 657 
Q 1506 409 1894 409 
Q 2359 409 2629 706 
Q 2900 1003 2900 1516 
L 2900 3500 
L 3475 3500 
L 3475 0 
L 2900 0 
L 2900 538 
Q 2691 219 2414 64 
Q 2138 -91 1772 -91 
Q 1169 -91 856 284 
Q 544 659 544 1381 
z
M 1991 3584 
L 1991 3584 
z
" transform="scale(0.015625)"/>
       <path id="DejaVuSans-6e" d="M 3513 2113 
L 3513 0 
L 2938 0 
L 2938 2094 
Q 2938 2591 2744 2837 
Q 2550 3084 2163 3084 
Q 1697 3084 1428 2787 
Q 1159 2491 1159 1978 
L 1159 0 
L 581 0 
L 581 3500 
L 1159 3500 
L 1159 2956 
Q 1366 3272 1645 3428 
Q 1925 3584 2291 3584 
Q 2894 3584 3203 3211 
Q 3513 2838 3513 2113 
z
" transform="scale(0.015625)"/>
      </defs>
      <use xlink:href="#DejaVuSans-5b"/>
      <use xlink:href="#DejaVuSans-63" x="39.013672"/>
      <use xlink:href="#DejaVuSans-6f" x="93.994141"/>
      <use xlink:href="#DejaVuSans-75" x="155.175781"/>
      <use xlink:href="#DejaVuSans-6e" x="218.554688"/>
      <use xlink:href="#DejaVuSans-74" x="281.933594"/>
      <use xlink:href="#DejaVuSans-73" x="321.142578"/>
      <use xlink:href="#DejaVuSans-5d" x="373.242188"/>
     </g>
    </g>
   </g>
   <g id="patch_3">
    <path d="M 53.328125 228.96 
L 53.328125 7.2 
" style="fill: none; stroke: #000000; stroke-width: 0.8; stroke-linejoin: miter; stroke-linecap: square"/>
   </g>
   <g id="patch_4">
    <path d="M 388.128125 228.96 
L 388.128125 7.2 
" style="fill: none; stroke: #000000; stroke-width: 0.8; stroke-linejoin: miter; stroke-linecap: square"/>
   </g>
   <g id="patch_5">
    <path d="M 53.328125 228.96 
L 388.128125 228.96 
" style="fill: none; stroke: #000000; stroke-width: 0.8; stroke-linejoin: miter; stroke-linecap: square"/>
   </g>
   <g id="patch_6">
    <path d="M 53.328125 7.2 
L 388.128125 7.2 
" style="fill: none; stroke: #000000; stroke-width: 0.8; stroke-linejoin: miter; stroke-linecap: square"/>
   </g>
   <g id="line2d_11">
    <path d="M 68.546307 218.88 
L 124.532929 218.88 
L 124.532929 204.370568 
L 125.550867 204.370568 
L 125.550867 158.499133 
L 126.568806 158.499133 
L 126.568806 118.846026 
L 127.586745 118.846026 
L 127.586745 104.606956 
L 128.604683 104.606956 
L 128.604683 96.13561 
L 129.622622 96.13561 
L 129.622622 93.251748 
L 131.658499 93.251748 
L 131.658499 86.312454 
L 132.676438 86.312454 
L 132.676438 85.501368 
L 133.694376 85.501368 
L 133.694376 77.841109 
L 134.712315 77.841109 
L 134.712315 73.154832 
L 135.730253 73.154832 
L 135.730253 74.236281 
L 136.748192 74.236281 
L 136.748192 65.04397 
L 137.76613 65.04397 
L 137.76613 60.537935 
L 138.784069 60.537935 
L 138.784069 58.465159 
L 139.802008 58.465159 
L 139.802008 53.148038 
L 141.837885 53.148038 
L 141.837885 49.723451 
L 142.855823 49.723451 
L 142.855823 42.874278 
L 143.873762 42.874278 
L 143.873762 39.720054 
L 144.891701 39.720054 
L 144.891701 32.149915 
L 145.909639 32.149915 
L 145.909639 26.652553 
L 146.927578 26.652553 
L 146.927578 28.004363 
L 147.945516 28.004363 
L 147.945516 23.67857 
L 148.963455 23.67857 
L 148.963455 17.28 
L 149.981393 17.28 
L 149.981393 19.262655 
L 150.999332 19.262655 
L 150.999332 24.760018 
L 152.017271 24.760018 
L 152.017271 26.832794 
L 153.035209 26.832794 
L 153.035209 26.472311 
L 154.053148 26.472311 
L 154.053148 25.480983 
L 155.071086 25.480983 
L 155.071086 26.652553 
L 156.089025 26.652553 
L 156.089025 28.094484 
L 157.106964 28.094484 
L 157.106964 31.969674 
L 158.124902 31.969674 
L 158.124902 38.818847 
L 159.142841 38.818847 
L 159.142841 45.217416 
L 160.160779 45.217416 
L 160.160779 32.149915 
L 161.178718 32.149915 
L 161.178718 39.089209 
L 162.196656 39.089209 
L 162.196656 43.324882 
L 163.214595 43.324882 
L 163.214595 53.328279 
L 164.232534 53.328279 
L 164.232534 46.569227 
L 165.250472 46.569227 
L 165.250472 63.692159 
L 166.268411 63.692159 
L 166.268411 56.662745 
L 167.286349 56.662745 
L 167.286349 78.832436 
L 168.304288 78.832436 
L 168.304288 87.574144 
L 169.322227 87.574144 
L 169.322227 93.431989 
L 170.340165 93.431989 
L 170.340165 100.371283 
L 171.358104 100.371283 
L 171.358104 106.950094 
L 172.376042 106.950094 
L 172.376042 114.430112 
L 173.393981 114.430112 
L 173.393981 129.209906 
L 174.411919 129.209906 
L 174.411919 128.218578 
L 175.429858 128.218578 
L 175.429858 137.140527 
L 176.447797 137.140527 
L 176.447797 145.341511 
L 177.465735 145.341511 
L 177.465735 155.61527 
L 178.483674 155.61527 
L 178.483674 157.778167 
L 179.501612 157.778167 
L 179.501612 165.438426 
L 180.519551 165.438426 
L 180.519551 162.464443 
L 181.53749 162.464443 
L 181.53749 173.008565 
L 182.555428 173.008565 
L 182.555428 187.608118 
L 183.573367 187.608118 
L 183.573367 193.195601 
L 184.591305 193.195601 
L 184.591305 193.646205 
L 185.609244 193.646205 
L 185.609244 171.02591 
L 186.627182 171.02591 
L 186.627182 147.234046 
L 187.645121 147.234046 
L 187.645121 116.502888 
L 188.66306 116.502888 
L 188.66306 92.530782 
L 189.680998 92.530782 
L 189.680998 83.428592 
L 191.716875 83.338471 
L 191.716875 92.1703 
L 192.734814 92.1703 
L 192.734814 89.466679 
L 193.752753 89.466679 
L 193.752753 93.161627 
L 194.770691 93.161627 
L 194.770691 86.672937 
L 195.78863 86.672937 
L 195.78863 95.504765 
L 196.806568 95.504765 
L 196.806568 99.470076 
L 197.824507 99.470076 
L 197.824507 95.594886 
L 198.842445 95.594886 
L 198.842445 96.946696 
L 199.860384 96.946696 
L 199.860384 103.525507 
L 200.878323 103.525507 
L 200.878323 103.795869 
L 201.896261 103.795869 
L 201.896261 101.002128 
L 202.9142 101.002128 
L 202.9142 103.074904 
L 203.932138 103.074904 
L 203.932138 99.379955 
L 204.950077 99.379955 
L 204.950077 104.336594 
L 205.968016 104.336594 
L 205.968016 111.816612 
L 206.985954 111.816612 
L 206.985954 109.293232 
L 208.003893 109.293232 
L 208.003893 105.14768 
L 209.021831 105.14768 
L 209.021831 110.554922 
L 210.03977 110.554922 
L 210.03977 111.816612 
L 211.057708 111.816612 
L 211.057708 113.168422 
L 212.075647 113.168422 
L 212.075647 114.24987 
L 213.093586 114.24987 
L 213.093586 118.215181 
L 214.111524 118.215181 
L 214.111524 113.528905 
L 215.129463 113.528905 
L 215.129463 118.215181 
L 216.147401 118.215181 
L 216.147401 119.657112 
L 217.16534 119.657112 
L 217.16534 124.163147 
L 218.183279 124.163147 
L 218.183279 123.802664 
L 219.201217 123.802664 
L 219.201217 122.180492 
L 220.219156 122.180492 
L 220.219156 125.334716 
L 221.237094 125.334716 
L 221.237094 128.308699 
L 222.255033 128.308699 
L 222.255033 123.892785 
L 223.272971 123.892785 
L 223.272971 132.003648 
L 224.29091 132.003648 
L 224.29091 126.776647 
L 225.308849 126.776647 
L 225.308849 130.922199 
L 226.326787 130.922199 
L 226.326787 129.480268 
L 227.344726 129.480268 
L 227.344726 129.930872 
L 228.362664 129.930872 
L 228.362664 127.677854 
L 229.380603 127.677854 
L 229.380603 135.608476 
L 230.398542 135.608476 
L 230.398542 136.689924 
L 231.41648 136.689924 
L 231.41648 137.050407 
L 232.434419 137.050407 
L 232.434419 133.62582 
L 233.452357 133.62582 
L 233.452357 139.934269 
L 234.470296 139.934269 
L 234.470296 143.448976 
L 235.488234 143.448976 
L 235.488234 146.693321 
L 236.506173 146.693321 
L 236.506173 144.530425 
L 237.524112 144.530425 
L 237.524112 145.701994 
L 238.54205 145.701994 
L 238.54205 149.577184 
L 239.559989 149.577184 
L 239.559989 155.344908 
L 240.577927 155.344908 
L 240.577927 159.941064 
L 241.595866 159.941064 
L 241.595866 161.202754 
L 242.613805 161.202754 
L 242.613805 157.507805 
L 243.631743 157.507805 
L 243.631743 146.332839 
L 244.649682 146.332839 
L 244.649682 138.852821 
L 245.66762 138.852821 
L 245.66762 134.436907 
L 246.685559 134.436907 
L 246.685559 123.892785 
L 247.703497 123.892785 
L 247.703497 124.52363 
L 248.721436 124.52363 
L 248.721436 130.020992 
L 249.739375 130.020992 
L 249.739375 127.407492 
L 250.757313 127.407492 
L 250.757313 135.247993 
L 251.775252 135.247993 
L 251.775252 141.28608 
L 252.79319 141.28608 
L 252.79319 148.135253 
L 254.829068 148.045132 
L 254.829068 154.804184 
L 255.847006 154.804184 
L 255.847006 151.830201 
L 256.864945 151.830201 
L 256.864945 158.228771 
L 257.882883 158.228771 
L 257.882883 159.129978 
L 258.900822 159.129978 
L 258.900822 162.464443 
L 259.91876 162.464443 
L 259.91876 160.031185 
L 260.936699 160.031185 
L 260.936699 160.391667 
L 261.954638 160.391667 
L 261.954638 165.438426 
L 262.972576 165.438426 
L 262.972576 162.734806 
L 263.990515 162.734806 
L 263.990515 157.597926 
L 265.008453 157.597926 
L 265.008453 164.987823 
L 266.026392 164.987823 
L 266.026392 161.022512 
L 267.044331 161.022512 
L 267.044331 164.176737 
L 268.062269 164.176737 
L 268.062269 163.816254 
L 269.080208 163.816254 
L 269.080208 160.481788 
L 270.098146 160.481788 
L 270.098146 169.133375 
L 271.116085 169.133375 
L 271.116085 165.077944 
L 272.134023 165.077944 
L 272.134023 165.88903 
L 273.151962 165.88903 
L 273.151962 167.691444 
L 274.169901 167.691444 
L 274.169901 168.682772 
L 275.187839 168.682772 
L 275.187839 168.142047 
L 276.205778 168.142047 
L 276.205778 169.944461 
L 277.223716 169.944461 
L 277.223716 177.063996 
L 278.241655 177.063996 
L 278.241655 177.694841 
L 279.259594 177.694841 
L 279.259594 177.063996 
L 280.277532 177.063996 
L 280.277532 181.029307 
L 281.295471 181.029307 
L 281.295471 176.973876 
L 282.313409 176.973876 
L 282.313409 181.479911 
L 283.331348 181.479911 
L 283.331348 180.849066 
L 284.349286 180.849066 
L 284.349286 185.985945 
L 285.367225 185.985945 
L 285.367225 189.590773 
L 286.385164 189.590773 
L 286.385164 192.204274 
L 287.403102 192.204274 
L 287.403102 187.788359 
L 288.421041 187.788359 
L 288.421041 193.01536 
L 289.438979 193.01536 
L 289.438979 192.024032 
L 290.456918 192.024032 
L 290.456918 191.212946 
L 291.474857 191.212946 
L 291.474857 190.40186 
L 292.492795 190.40186 
L 292.492795 195.268377 
L 293.510734 195.268377 
L 293.510734 196.349826 
L 294.528672 196.349826 
L 294.528672 195.088136 
L 295.546611 195.088136 
L 295.546611 195.358498 
L 296.564549 195.358498 
L 296.564549 191.483308 
L 297.582488 191.483308 
L 297.582488 192.384515 
L 298.600427 192.384515 
L 298.600427 184.994618 
L 299.618365 184.994618 
L 299.618365 184.634135 
L 300.636304 184.634135 
L 300.636304 178.505928 
L 301.654242 178.505928 
L 301.654242 180.849066 
L 302.672181 180.849066 
L 302.672181 183.282325 
L 303.69012 183.282325 
L 303.69012 187.698239 
L 304.708058 187.698239 
L 304.708058 186.797032 
L 305.725997 186.797032 
L 305.725997 189.861135 
L 306.743935 189.861135 
L 306.743935 194.36717 
L 307.761874 194.36717 
L 307.761874 195.62886 
L 308.779812 195.62886 
L 308.779812 195.448619 
L 309.797751 195.448619 
L 309.797751 194.457291 
L 310.81569 194.457291 
L 310.81569 199.143567 
L 311.833628 199.143567 
L 311.833628 197.070791 
L 312.851567 197.070791 
L 312.851567 199.50405 
L 313.869505 199.50405 
L 313.869505 199.323809 
L 314.887444 199.323809 
L 314.887444 200.945981 
L 315.905383 200.945981 
L 315.905383 200.495378 
L 316.923321 200.495378 
L 316.923321 199.954654 
L 317.94126 199.954654 
L 317.94126 201.306464 
L 318.959198 201.306464 
L 318.959198 203.108878 
L 319.977137 203.108878 
L 319.977137 200.675619 
L 320.995075 200.675619 
L 320.995075 203.108878 
L 322.013014 203.108878 
L 322.013014 204.100206 
L 323.030953 204.100206 
L 323.030953 205.361895 
L 324.048891 205.361895 
L 324.048891 205.632257 
L 325.06683 205.632257 
L 325.06683 203.559481 
L 326.084768 203.559481 
L 326.084768 207.344551 
L 327.102707 207.344551 
L 327.102707 206.353223 
L 328.120646 206.353223 
L 328.120646 208.51612 
L 329.138584 208.51612 
L 329.138584 206.172982 
L 330.156523 206.172982 
L 330.156523 207.524792 
L 331.174461 207.524792 
L 331.174461 207.885275 
L 332.1924 207.885275 
L 332.1924 209.146965 
L 333.210338 209.146965 
L 333.210338 209.507447 
L 335.246216 209.597568 
L 335.246216 211.039499 
L 336.264154 211.039499 
L 336.264154 211.399982 
L 337.282093 211.399982 
L 337.282093 211.12962 
L 338.300031 211.12962 
L 338.300031 212.301189 
L 339.31797 212.301189 
L 339.31797 213.112275 
L 340.335909 213.112275 
L 340.335909 213.74312 
L 341.353847 213.74312 
L 341.353847 212.932034 
L 342.371786 212.932034 
L 342.371786 214.013482 
L 343.389724 214.013482 
L 343.389724 213.74312 
L 344.407663 213.74312 
L 344.407663 213.923362 
L 345.425601 213.923362 
L 345.425601 211.039499 
L 346.44354 211.039499 
L 346.44354 208.155637 
L 347.461479 208.155637 
L 347.461479 206.713706 
L 348.479417 206.713706 
L 348.479417 208.065516 
L 349.497356 208.065516 
L 349.497356 203.919964 
L 351.533233 203.919964 
L 351.533233 202.928637 
L 352.551172 202.928637 
L 352.551172 205.542137 
L 353.56911 205.542137 
L 353.56911 204.821171 
L 355.604987 204.911292 
L 355.604987 206.533464 
L 356.622926 206.533464 
L 356.622926 205.632257 
L 357.640864 205.632257 
L 357.640864 208.065516 
L 358.658803 208.065516 
L 358.658803 209.77781 
L 359.676742 209.77781 
L 359.676742 208.876603 
L 360.69468 208.876603 
L 360.69468 209.597568 
L 361.712619 209.597568 
L 361.712619 207.795154 
L 362.730557 207.795154 
L 362.730557 209.507447 
L 363.748496 209.507447 
L 363.748496 210.588896 
L 364.766435 210.588896 
L 364.766435 210.228413 
L 365.784373 210.228413 
L 365.784373 210.408654 
L 366.802312 210.408654 
L 366.802312 209.958051 
L 367.82025 209.958051 
L 367.82025 211.12962 
L 368.838189 211.12962 
L 368.838189 213.833241 
L 369.856127 213.833241 
L 369.856127 212.932034 
L 370.874066 212.932034 
L 370.874066 211.399982 
L 371.892005 211.399982 
L 371.892005 212.571551 
L 372.909943 212.571551 
L 372.909943 212.571551 
" clip-path="url(#pf7484e7e93)" style="fill: none; stroke: #1f77b4; stroke-width: 1.5; stroke-linecap: square"/>
   </g>
  </g>
 </g>
 <defs>
  <clipPath id="pf7484e7e93">
   <rect x="53.328125" y="7.2" width="334.8" height="221.76"/>
  </clipPath>
 </defs>
</svg>
