<?xml version="1.0" encoding="utf-8" standalone="no"?>
<!DOCTYPE svg PUBLIC "-//W3C//DTD SVG 1.1//EN"
  "http://www.w3.org/Graphics/SVG/1.1/DTD/svg11.dtd">
<svg xmlns:xlink="http://www.w3.org/1999/xlink" width="392.14375pt" height="266.51625pt" viewBox="0 0 392.14375 266.51625" xmlns="http://www.w3.org/2000/svg" version="1.1">
 <metadata>
  <rdf:RDF xmlns:dc="http://purl.org/dc/elements/1.1/" xmlns:cc="http://creativecommons.org/ns#" xmlns:rdf="http://www.w3.org/1999/02/22-rdf-syntax-ns#">
   <cc:Work>
    <dc:type rdf:resource="http://purl.org/dc/dcmitype/StillImage"/>
    <dc:date>2025-12-02T06:59:59.206504</dc:date>
    <dc:format>image/svg+xml</dc:format>
    <dc:creator>
     <cc:Agent>
      <dc:title>Matplotlib v3.9.4, https://matplotlib.org/</dc:title>
     </cc:Agent>
    </dc:creator>
   </cc:Work>
  </rdf:RDF>
 </metadata>
 <defs>
  <style type="text/css">*{stroke-linejoin: round; stroke-linecap: butt}</style>
 </defs>
 <g id="figure_1">
  <g id="patch_1">
   <path d="M 0 266.51625 
L 392.14375 266.51625 
L 392.14375 0 
L 0 0 
z
" style="fill: #ffffff"/>
  </g>
  <g id="axes_1">
   <g id="patch_2">
    <path d="M 50.14375 228.96 
L 384.94375 228.96 
L 384.94375 7.2 
L 50.14375 7.2 
z
" style="fill: #ffffff"/>
   </g>
   <g id="matplotlib.axis_1">
    <g id="xtick_1">
     <g id="line2d_1">
      <defs>
       <path id="ma101ea4b93" d="M 0 0 
L 0 3.5 
" style="stroke: #000000; stroke-width: 0.8"/>
      </defs>
      <g>
       <use xlink:href="#ma101ea4b93" x="56.619014" y="228.96" style="stroke: #000000; stroke-width: 0.8"/>
      </g>
     </g>
     <g id="text_1">
      <!-- 08:11:00 -->
      <g transform="translate(34.162764 243.558437) scale(0.1 -0.1)">
       <defs>
        <path id="DejaVuSans-30" d="M 2034 4250 
Q 1547 4250 1301 3770 
Q 1056 3291 1056 2328 
Q 1056 1369 1301 889 
Q 1547 409 2034 409 
Q 2525 409 2770 889 
Q 3016 1369 3016 2328 
Q 3016 3291 2770 3770 
Q 2525 4250 2034 4250 
z
M 2034 4750 
Q 2819 4750 3233 4129 
Q 3647 3509 3647 2328 
Q 3647 1150 3233 529 
Q 2819 -91 2034 -91 
Q 1250 -91 836 529 
Q 422 1150 422 2328 
Q 422 3509 836 4129 
Q 1250 4750 2034 4750 
z
" transform="scale(0.015625)"/>
        <path id="DejaVuSans-38" d="M 2034 2216 
Q 1584 2216 1326 1975 
Q 1069 1734 1069 1313 
Q 1069 891 1326 650 
Q 1584 409 2034 409 
Q 2484 409 2743 651 
Q 3003 894 3003 1313 
Q 3003 1734 2745 1975 
Q 2488 2216 2034 2216 
z
M 1403 2484 
Q 997 2584 770 2862 
Q 544 3141 544 3541 
Q 544 4100 942 4425 
Q 1341 4750 2034 4750 
Q 2731 4750 3128 4425 
Q 3525 4100 3525 3541 
Q 3525 3141 3298 2862 
Q 3072 2584 2669 2484 
Q 3125 2378 3379 2068 
Q 3634 1759 3634 1313 
Q 3634 634 3220 271 
Q 2806 -91 2034 -91 
Q 1263 -91 848 271 
Q 434 634 434 1313 
Q 434 1759 690 2068 
Q 947 2378 1403 2484 
z
M 1172 3481 
Q 1172 3119 1398 2916 
Q 1625 2713 2034 2713 
Q 2441 2713 2670 2916 
Q 2900 3119 2900 3481 
Q 2900 3844 2670 4047 
Q 2441 4250 2034 4250 
Q 1625 4250 1398 4047 
Q 1172 3844 1172 3481 
z
" transform="scale(0.015625)"/>
        <path id="DejaVuSans-3a" d="M 750 794 
L 1409 794 
L 1409 0 
L 750 0 
L 750 794 
z
M 750 3309 
L 1409 3309 
L 1409 2516 
L 750 2516 
L 750 3309 
z
" transform="scale(0.015625)"/>
        <path id="DejaVuSans-31" d="M 794 531 
L 1825 531 
L 1825 4091 
L 703 3866 
L 703 4441 
L 1819 4666 
L 2450 4666 
L 2450 531 
L 3481 531 
L 3481 0 
L 794 0 
L 794 531 
z
" transform="scale(0.015625)"/>
       </defs>
       <use xlink:href="#DejaVuSans-30"/>
       <use xlink:href="#DejaVuSans-38" x="63.623047"/>
       <use xlink:href="#DejaVuSans-3a" x="127.246094"/>
       <use xlink:href="#DejaVuSans-31" x="160.9375"/>
       <use xlink:href="#DejaVuSans-31" x="224.560547"/>
       <use xlink:href="#DejaVuSans-3a" x="288.183594"/>
       <use xlink:href="#DejaVuSans-30" x="321.875"/>
       <use xlink:href="#DejaVuSans-30" x="385.498047"/>
      </g>
     </g>
    </g>
    <g id="xtick_2">
     <g id="line2d_2">
      <g>
       <use xlink:href="#ma101ea4b93" x="98.883708" y="228.96" style="stroke: #000000; stroke-width: 0.8"/>
      </g>
     </g>
     <g id="text_2">
      <!-- 08:11:30 -->
      <g transform="translate(76.427458 243.558437) scale(0.1 -0.1)">
       <defs>
        <path id="DejaVuSans-33" d="M 2597 2516 
Q 3050 2419 3304 2112 
Q 3559 1806 3559 1356 
Q 3559 666 3084 287 
Q 2609 -91 1734 -91 
Q 1441 -91 1130 -33 
Q 819 25 488 141 
L 488 750 
Q 750 597 1062 519 
Q 1375 441 1716 441 
Q 2309 441 2620 675 
Q 2931 909 2931 1356 
Q 2931 1769 2642 2001 
Q 2353 2234 1838 2234 
L 1294 2234 
L 1294 2753 
L 1863 2753 
Q 2328 2753 2575 2939 
Q 2822 3125 2822 3475 
Q 2822 3834 2567 4026 
Q 2313 4219 1838 4219 
Q 1578 4219 1281 4162 
Q 984 4106 628 3988 
L 628 4550 
Q 988 4650 1302 4700 
Q 1616 4750 1894 4750 
Q 2613 4750 3031 4423 
Q 3450 4097 3450 3541 
Q 3450 3153 3228 2886 
Q 3006 2619 2597 2516 
z
" transform="scale(0.015625)"/>
       </defs>
       <use xlink:href="#DejaVuSans-30"/>
       <use xlink:href="#DejaVuSans-38" x="63.623047"/>
       <use xlink:href="#DejaVuSans-3a" x="127.246094"/>
       <use xlink:href="#DejaVuSans-31" x="160.9375"/>
       <use xlink:href="#DejaVuSans-31" x="224.560547"/>
       <use xlink:href="#DejaVuSans-3a" x="288.183594"/>
       <use xlink:href="#DejaVuSans-33" x="321.875"/>
       <use xlink:href="#DejaVuSans-30" x="385.498047"/>
      </g>
     </g>
    </g>
    <g id="xtick_3">
     <g id="line2d_3">
      <g>
       <use xlink:href="#ma101ea4b93" x="141.148401" y="228.96" style="stroke: #000000; stroke-width: 0.8"/>
      </g>
     </g>
     <g id="text_3">
      <!-- 08:12:00 -->
      <g transform="translate(118.692151 243.558437) scale(0.1 -0.1)">
       <defs>
        <path id="DejaVuSans-32" d="M 1228 531 
L 3431 531 
L 3431 0 
L 469 0 
L 469 531 
Q 828 903 1448 1529 
Q 2069 2156 2228 2338 
Q 2531 2678 2651 2914 
Q 2772 3150 2772 3378 
Q 2772 3750 2511 3984 
Q 2250 4219 1831 4219 
Q 1534 4219 1204 4116 
Q 875 4013 500 3803 
L 500 4441 
Q 881 4594 1212 4672 
Q 1544 4750 1819 4750 
Q 2544 4750 2975 4387 
Q 3406 4025 3406 3419 
Q 3406 3131 3298 2873 
Q 3191 2616 2906 2266 
Q 2828 2175 2409 1742 
Q 1991 1309 1228 531 
z
" transform="scale(0.015625)"/>
       </defs>
       <use xlink:href="#DejaVuSans-30"/>
       <use xlink:href="#DejaVuSans-38" x="63.623047"/>
       <use xlink:href="#DejaVuSans-3a" x="127.246094"/>
       <use xlink:href="#DejaVuSans-31" x="160.9375"/>
       <use xlink:href="#DejaVuSans-32" x="224.560547"/>
       <use xlink:href="#DejaVuSans-3a" x="288.183594"/>
       <use xlink:href="#DejaVuSans-30" x="321.875"/>
       <use xlink:href="#DejaVuSans-30" x="385.498047"/>
      </g>
     </g>
    </g>
    <g id="xtick_4">
     <g id="line2d_4">
      <g>
       <use xlink:href="#ma101ea4b93" x="183.413094" y="228.96" style="stroke: #000000; stroke-width: 0.8"/>
      </g>
     </g>
     <g id="text_4">
      <!-- 08:12:30 -->
      <g transform="translate(160.956844 243.558437) scale(0.1 -0.1)">
       <use xlink:href="#DejaVuSans-30"/>
       <use xlink:href="#DejaVuSans-38" x="63.623047"/>
       <use xlink:href="#DejaVuSans-3a" x="127.246094"/>
       <use xlink:href="#DejaVuSans-31" x="160.9375"/>
       <use xlink:href="#DejaVuSans-32" x="224.560547"/>
       <use xlink:href="#DejaVuSans-3a" x="288.183594"/>
       <use xlink:href="#DejaVuSans-33" x="321.875"/>
       <use xlink:href="#DejaVuSans-30" x="385.498047"/>
      </g>
     </g>
    </g>
    <g id="xtick_5">
     <g id="line2d_5">
      <g>
       <use xlink:href="#ma101ea4b93" x="225.677787" y="228.96" style="stroke: #000000; stroke-width: 0.8"/>
      </g>
     </g>
     <g id="text_5">
      <!-- 08:13:00 -->
      <g transform="translate(203.221537 243.558437) scale(0.1 -0.1)">
       <use xlink:href="#DejaVuSans-30"/>
       <use xlink:href="#DejaVuSans-38" x="63.623047"/>
       <use xlink:href="#DejaVuSans-3a" x="127.246094"/>
       <use xlink:href="#DejaVuSans-31" x="160.9375"/>
       <use xlink:href="#DejaVuSans-33" x="224.560547"/>
       <use xlink:href="#DejaVuSans-3a" x="288.183594"/>
       <use xlink:href="#DejaVuSans-30" x="321.875"/>
       <use xlink:href="#DejaVuSans-30" x="385.498047"/>
      </g>
     </g>
    </g>
    <g id="xtick_6">
     <g id="line2d_6">
      <g>
       <use xlink:href="#ma101ea4b93" x="267.94248" y="228.96" style="stroke: #000000; stroke-width: 0.8"/>
      </g>
     </g>
     <g id="text_6">
      <!-- 08:13:30 -->
      <g transform="translate(245.48623 243.558437) scale(0.1 -0.1)">
       <use xlink:href="#DejaVuSans-30"/>
       <use xlink:href="#DejaVuSans-38" x="63.623047"/>
       <use xlink:href="#DejaVuSans-3a" x="127.246094"/>
       <use xlink:href="#DejaVuSans-31" x="160.9375"/>
       <use xlink:href="#DejaVuSans-33" x="224.560547"/>
       <use xlink:href="#DejaVuSans-3a" x="288.183594"/>
       <use xlink:href="#DejaVuSans-33" x="321.875"/>
       <use xlink:href="#DejaVuSans-30" x="385.498047"/>
      </g>
     </g>
    </g>
    <g id="xtick_7">
     <g id="line2d_7">
      <g>
       <use xlink:href="#ma101ea4b93" x="310.207173" y="228.96" style="stroke: #000000; stroke-width: 0.8"/>
      </g>
     </g>
     <g id="text_7">
      <!-- 08:14:00 -->
      <g transform="translate(287.750923 243.558437) scale(0.1 -0.1)">
       <defs>
        <path id="DejaVuSans-34" d="M 2419 4116 
L 825 1625 
L 2419 1625 
L 2419 4116 
z
M 2253 4666 
L 3047 4666 
L 3047 1625 
L 3713 1625 
L 3713 1100 
L 3047 1100 
L 3047 0 
L 2419 0 
L 2419 1100 
L 313 1100 
L 313 1709 
L 2253 4666 
z
" transform="scale(0.015625)"/>
       </defs>
       <use xlink:href="#DejaVuSans-30"/>
       <use xlink:href="#DejaVuSans-38" x="63.623047"/>
       <use xlink:href="#DejaVuSans-3a" x="127.246094"/>
       <use xlink:href="#DejaVuSans-31" x="160.9375"/>
       <use xlink:href="#DejaVuSans-34" x="224.560547"/>
       <use xlink:href="#DejaVuSans-3a" x="288.183594"/>
       <use xlink:href="#DejaVuSans-30" x="321.875"/>
       <use xlink:href="#DejaVuSans-30" x="385.498047"/>
      </g>
     </g>
    </g>
    <g id="xtick_8">
     <g id="line2d_8">
      <g>
       <use xlink:href="#ma101ea4b93" x="352.471866" y="228.96" style="stroke: #000000; stroke-width: 0.8"/>
      </g>
     </g>
     <g id="text_8">
      <!-- 08:14:30 -->
      <g transform="translate(330.015616 243.558437) scale(0.1 -0.1)">
       <use xlink:href="#DejaVuSans-30"/>
       <use xlink:href="#DejaVuSans-38" x="63.623047"/>
       <use xlink:href="#DejaVuSans-3a" x="127.246094"/>
       <use xlink:href="#DejaVuSans-31" x="160.9375"/>
       <use xlink:href="#DejaVuSans-34" x="224.560547"/>
       <use xlink:href="#DejaVuSans-3a" x="288.183594"/>
       <use xlink:href="#DejaVuSans-33" x="321.875"/>
       <use xlink:href="#DejaVuSans-30" x="385.498047"/>
      </g>
     </g>
    </g>
    <g id="text_9">
     <!-- time [datetime] -->
     <g transform="translate(178.185938 257.236562) scale(0.1 -0.1)">
      <defs>
       <path id="DejaVuSans-74" d="M 1172 4494 
L 1172 3500 
L 2356 3500 
L 2356 3053 
L 1172 3053 
L 1172 1153 
Q 1172 725 1289 603 
Q 1406 481 1766 481 
L 2356 481 
L 2356 0 
L 1766 0 
Q 1100 0 847 248 
Q 594 497 594 1153 
L 594 3053 
L 172 3053 
L 172 3500 
L 594 3500 
L 594 4494 
L 1172 4494 
z
" transform="scale(0.015625)"/>
       <path id="DejaVuSans-69" d="M 603 3500 
L 1178 3500 
L 1178 0 
L 603 0 
L 603 3500 
z
M 603 4863 
L 1178 4863 
L 1178 4134 
L 603 4134 
L 603 4863 
z
" transform="scale(0.015625)"/>
       <path id="DejaVuSans-6d" d="M 3328 2828 
Q 3544 3216 3844 3400 
Q 4144 3584 4550 3584 
Q 5097 3584 5394 3201 
Q 5691 2819 5691 2113 
L 5691 0 
L 5113 0 
L 5113 2094 
Q 5113 2597 4934 2840 
Q 4756 3084 4391 3084 
Q 3944 3084 3684 2787 
Q 3425 2491 3425 1978 
L 3425 0 
L 2847 0 
L 2847 2094 
Q 2847 2600 2669 2842 
Q 2491 3084 2119 3084 
Q 1678 3084 1418 2786 
Q 1159 2488 1159 1978 
L 1159 0 
L 581 0 
L 581 3500 
L 1159 3500 
L 1159 2956 
Q 1356 3278 1631 3431 
Q 1906 3584 2284 3584 
Q 2666 3584 2933 3390 
Q 3200 3197 3328 2828 
z
" transform="scale(0.015625)"/>
       <path id="DejaVuSans-65" d="M 3597 1894 
L 3597 1613 
L 953 1613 
Q 991 1019 1311 708 
Q 1631 397 2203 397 
Q 2534 397 2845 478 
Q 3156 559 3463 722 
L 3463 178 
Q 3153 47 2828 -22 
Q 2503 -91 2169 -91 
Q 1331 -91 842 396 
Q 353 884 353 1716 
Q 353 2575 817 3079 
Q 1281 3584 2069 3584 
Q 2775 3584 3186 3129 
Q 3597 2675 3597 1894 
z
M 3022 2063 
Q 3016 2534 2758 2815 
Q 2500 3097 2075 3097 
Q 1594 3097 1305 2825 
Q 1016 2553 972 2059 
L 3022 2063 
z
" transform="scale(0.015625)"/>
       <path id="DejaVuSans-20" transform="scale(0.015625)"/>
       <path id="DejaVuSans-5b" d="M 550 4863 
L 1875 4863 
L 1875 4416 
L 1125 4416 
L 1125 -397 
L 1875 -397 
L 1875 -844 
L 550 -844 
L 550 4863 
z
" transform="scale(0.015625)"/>
       <path id="DejaVuSans-64" d="M 2906 2969 
L 2906 4863 
L 3481 4863 
L 3481 0 
L 2906 0 
L 2906 525 
Q 2725 213 2448 61 
Q 2172 -91 1784 -91 
Q 1150 -91 751 415 
Q 353 922 353 1747 
Q 353 2572 751 3078 
Q 1150 3584 1784 3584 
Q 2172 3584 2448 3432 
Q 2725 3281 2906 2969 
z
M 947 1747 
Q 947 1113 1208 752 
Q 1469 391 1925 391 
Q 2381 391 2643 752 
Q 2906 1113 2906 1747 
Q 2906 2381 2643 2742 
Q 2381 3103 1925 3103 
Q 1469 3103 1208 2742 
Q 947 2381 947 1747 
z
" transform="scale(0.015625)"/>
       <path id="DejaVuSans-61" d="M 2194 1759 
Q 1497 1759 1228 1600 
Q 959 1441 959 1056 
Q 959 750 1161 570 
Q 1363 391 1709 391 
Q 2188 391 2477 730 
Q 2766 1069 2766 1631 
L 2766 1759 
L 2194 1759 
z
M 3341 1997 
L 3341 0 
L 2766 0 
L 2766 531 
Q 2569 213 2275 61 
Q 1981 -91 1556 -91 
Q 1019 -91 701 211 
Q 384 513 384 1019 
Q 384 1609 779 1909 
Q 1175 2209 1959 2209 
L 2766 2209 
L 2766 2266 
Q 2766 2663 2505 2880 
Q 2244 3097 1772 3097 
Q 1472 3097 1187 3025 
Q 903 2953 641 2809 
L 641 3341 
Q 956 3463 1253 3523 
Q 1550 3584 1831 3584 
Q 2591 3584 2966 3190 
Q 3341 2797 3341 1997 
z
" transform="scale(0.015625)"/>
       <path id="DejaVuSans-5d" d="M 1947 4863 
L 1947 -844 
L 622 -844 
L 622 -397 
L 1369 -397 
L 1369 4416 
L 622 4416 
L 622 4863 
L 1947 4863 
z
" transform="scale(0.015625)"/>
      </defs>
      <use xlink:href="#DejaVuSans-74"/>
      <use xlink:href="#DejaVuSans-69" x="39.208984"/>
      <use xlink:href="#DejaVuSans-6d" x="66.992188"/>
      <use xlink:href="#DejaVuSans-65" x="164.404297"/>
      <use xlink:href="#DejaVuSans-20" x="225.927734"/>
      <use xlink:href="#DejaVuSans-5b" x="257.714844"/>
      <use xlink:href="#DejaVuSans-64" x="296.728516"/>
      <use xlink:href="#DejaVuSans-61" x="360.205078"/>
      <use xlink:href="#DejaVuSans-74" x="421.484375"/>
      <use xlink:href="#DejaVuSans-65" x="460.693359"/>
      <use xlink:href="#DejaVuSans-74" x="522.216797"/>
      <use xlink:href="#DejaVuSans-69" x="561.425781"/>
      <use xlink:href="#DejaVuSans-6d" x="589.208984"/>
      <use xlink:href="#DejaVuSans-65" x="686.621094"/>
      <use xlink:href="#DejaVuSans-5d" x="748.144531"/>
     </g>
    </g>
   </g>
   <g id="matplotlib.axis_2">
    <g id="ytick_1">
     <g id="line2d_9">
      <defs>
       <path id="ma8406cf1d2" d="M 0 0 
L -3.5 0 
" style="stroke: #000000; stroke-width: 0.8"/>
      </defs>
      <g>
       <use xlink:href="#ma8406cf1d2" x="50.14375" y="221.767692" style="stroke: #000000; stroke-width: 0.8"/>
      </g>
     </g>
     <g id="text_10">
      <!-- 0.0 -->
      <g transform="translate(27.240625 225.566911) scale(0.1 -0.1)">
       <defs>
        <path id="DejaVuSans-2e" d="M 684 794 
L 1344 794 
L 1344 0 
L 684 0 
L 684 794 
z
" transform="scale(0.015625)"/>
       </defs>
       <use xlink:href="#DejaVuSans-30"/>
       <use xlink:href="#DejaVuSans-2e" x="63.623047"/>
       <use xlink:href="#DejaVuSans-30" x="95.410156"/>
      </g>
     </g>
    </g>
    <g id="ytick_2">
     <g id="line2d_10">
      <g>
       <use xlink:href="#ma8406cf1d2" x="50.14375" y="196.2238" style="stroke: #000000; stroke-width: 0.8"/>
      </g>
     </g>
     <g id="text_11">
      <!-- 2.5 -->
      <g transform="translate(27.240625 200.023019) scale(0.1 -0.1)">
       <defs>
        <path id="DejaVuSans-35" d="M 691 4666 
L 3169 4666 
L 3169 4134 
L 1269 4134 
L 1269 2991 
Q 1406 3038 1543 3061 
Q 1681 3084 1819 3084 
Q 2600 3084 3056 2656 
Q 3513 2228 3513 1497 
Q 3513 744 3044 326 
Q 2575 -91 1722 -91 
Q 1428 -91 1123 -41 
Q 819 9 494 109 
L 494 744 
Q 775 591 1075 516 
Q 1375 441 1709 441 
Q 2250 441 2565 725 
Q 2881 1009 2881 1497 
Q 2881 1984 2565 2268 
Q 2250 2553 1709 2553 
Q 1456 2553 1204 2497 
Q 953 2441 691 2322 
L 691 4666 
z
" transform="scale(0.015625)"/>
       </defs>
       <use xlink:href="#DejaVuSans-32"/>
       <use xlink:href="#DejaVuSans-2e" x="63.623047"/>
       <use xlink:href="#DejaVuSans-35" x="95.410156"/>
      </g>
     </g>
    </g>
    <g id="ytick_3">
     <g id="line2d_11">
      <g>
       <use xlink:href="#ma8406cf1d2" x="50.14375" y="170.679908" style="stroke: #000000; stroke-width: 0.8"/>
      </g>
     </g>
     <g id="text_12">
      <!-- 5.0 -->
      <g transform="translate(27.240625 174.479126) scale(0.1 -0.1)">
       <use xlink:href="#DejaVuSans-35"/>
       <use xlink:href="#DejaVuSans-2e" x="63.623047"/>
       <use xlink:href="#DejaVuSans-30" x="95.410156"/>
      </g>
     </g>
    </g>
    <g id="ytick_4">
     <g id="line2d_12">
      <g>
       <use xlink:href="#ma8406cf1d2" x="50.14375" y="145.136016" style="stroke: #000000; stroke-width: 0.8"/>
      </g>
     </g>
     <g id="text_13">
      <!-- 7.5 -->
      <g transform="translate(27.240625 148.935234) scale(0.1 -0.1)">
       <defs>
        <path id="DejaVuSans-37" d="M 525 4666 
L 3525 4666 
L 3525 4397 
L 1831 0 
L 1172 0 
L 2766 4134 
L 525 4134 
L 525 4666 
z
" transform="scale(0.015625)"/>
       </defs>
       <use xlink:href="#DejaVuSans-37"/>
       <use xlink:href="#DejaVuSans-2e" x="63.623047"/>
       <use xlink:href="#DejaVuSans-35" x="95.410156"/>
      </g>
     </g>
    </g>
    <g id="ytick_5">
     <g id="line2d_13">
      <g>
       <use xlink:href="#ma8406cf1d2" x="50.14375" y="119.592123" style="stroke: #000000; stroke-width: 0.8"/>
      </g>
     </g>
     <g id="text_14">
      <!-- 10.0 -->
      <g transform="translate(20.878125 123.391342) scale(0.1 -0.1)">
       <use xlink:href="#DejaVuSans-31"/>
       <use xlink:href="#DejaVuSans-30" x="63.623047"/>
       <use xlink:href="#DejaVuSans-2e" x="127.246094"/>
       <use xlink:href="#DejaVuSans-30" x="159.033203"/>
      </g>
     </g>
    </g>
    <g id="ytick_6">
     <g id="line2d_14">
      <g>
       <use xlink:href="#ma8406cf1d2" x="50.14375" y="94.048231" style="stroke: #000000; stroke-width: 0.8"/>
      </g>
     </g>
     <g id="text_15">
      <!-- 12.5 -->
      <g transform="translate(20.878125 97.84745) scale(0.1 -0.1)">
       <use xlink:href="#DejaVuSans-31"/>
       <use xlink:href="#DejaVuSans-32" x="63.623047"/>
       <use xlink:href="#DejaVuSans-2e" x="127.246094"/>
       <use xlink:href="#DejaVuSans-35" x="159.033203"/>
      </g>
     </g>
    </g>
    <g id="ytick_7">
     <g id="line2d_15">
      <g>
       <use xlink:href="#ma8406cf1d2" x="50.14375" y="68.504339" style="stroke: #000000; stroke-width: 0.8"/>
      </g>
     </g>
     <g id="text_16">
      <!-- 15.0 -->
      <g transform="translate(20.878125 72.303558) scale(0.1 -0.1)">
       <use xlink:href="#DejaVuSans-31"/>
       <use xlink:href="#DejaVuSans-35" x="63.623047"/>
       <use xlink:href="#DejaVuSans-2e" x="127.246094"/>
       <use xlink:href="#DejaVuSans-30" x="159.033203"/>
      </g>
     </g>
    </g>
    <g id="ytick_8">
     <g id="line2d_16">
      <g>
       <use xlink:href="#ma8406cf1d2" x="50.14375" y="42.960447" style="stroke: #000000; stroke-width: 0.8"/>
      </g>
     </g>
     <g id="text_17">
      <!-- 17.5 -->
      <g transform="translate(20.878125 46.759666) scale(0.1 -0.1)">
       <use xlink:href="#DejaVuSans-31"/>
       <use xlink:href="#DejaVuSans-37" x="63.623047"/>
       <use xlink:href="#DejaVuSans-2e" x="127.246094"/>
       <use xlink:href="#DejaVuSans-35" x="159.033203"/>
      </g>
     </g>
    </g>
    <g id="ytick_9">
     <g id="line2d_17">
      <g>
       <use xlink:href="#ma8406cf1d2" x="50.14375" y="17.416555" style="stroke: #000000; stroke-width: 0.8"/>
      </g>
     </g>
     <g id="text_18">
      <!-- 20.0 -->
      <g transform="translate(20.878125 21.215773) scale(0.1 -0.1)">
       <use xlink:href="#DejaVuSans-32"/>
       <use xlink:href="#DejaVuSans-30" x="63.623047"/>
       <use xlink:href="#DejaVuSans-2e" x="127.246094"/>
       <use xlink:href="#DejaVuSans-30" x="159.033203"/>
      </g>
     </g>
    </g>
    <g id="text_19">
     <!-- [Hz] -->
     <g transform="translate(14.798438 128.365937) rotate(-90) scale(0.1 -0.1)">
      <defs>
       <path id="DejaVuSans-48" d="M 628 4666 
L 1259 4666 
L 1259 2753 
L 3553 2753 
L 3553 4666 
L 4184 4666 
L 4184 0 
L 3553 0 
L 3553 2222 
L 1259 2222 
L 1259 0 
L 628 0 
L 628 4666 
z
" transform="scale(0.015625)"/>
       <path id="DejaVuSans-7a" d="M 353 3500 
L 3084 3500 
L 3084 2975 
L 922 459 
L 3084 459 
L 3084 0 
L 275 0 
L 275 525 
L 2438 3041 
L 353 3041 
L 353 3500 
z
" transform="scale(0.015625)"/>
      </defs>
      <use xlink:href="#DejaVuSans-5b"/>
      <use xlink:href="#DejaVuSans-48" x="39.013672"/>
      <use xlink:href="#DejaVuSans-7a" x="114.208984"/>
      <use xlink:href="#DejaVuSans-5d" x="166.699219"/>
     </g>
    </g>
   </g>
   <g id="line2d_18">
    <defs>
     <path id="me13933b5e1" d="M 0 1 
C 0.265203 1 0.51958 0.894634 0.707107 0.707107 
C 0.894634 0.51958 1 0.265203 1 0 
C 1 -0.265203 0.894634 -0.51958 0.707107 -0.707107 
C 0.51958 -0.894634 0.265203 -1 0 -1 
C -0.265203 -1 -0.51958 -0.894634 -0.707107 -0.707107 
C -0.894634 -0.51958 -1 -0.265203 -1 0 
C -1 0.265203 -0.894634 0.51958 -0.707107 0.707107 
C -0.51958 0.894634 -0.265203 1 0 1 
z
" style="stroke: #1f77b4"/>
    </defs>
    <g clip-path="url(#p937cdbe858)">
     <use xlink:href="#me13933b5e1" x="65.361932" y="221.767561" style="fill: #1f77b4; stroke: #1f77b4"/>
     <use xlink:href="#me13933b5e1" x="67.062287" y="218.100016" style="fill: #1f77b4; stroke: #1f77b4"/>
     <use xlink:href="#me13933b5e1" x="68.762643" y="214.432845" style="fill: #1f77b4; stroke: #1f77b4"/>
     <use xlink:href="#me13933b5e1" x="70.462998" y="210.764266" style="fill: #1f77b4; stroke: #1f77b4"/>
     <use xlink:href="#me13933b5e1" x="72.163354" y="207.096124" style="fill: #1f77b4; stroke: #1f77b4"/>
     <use xlink:href="#me13933b5e1" x="73.863709" y="203.428473" style="fill: #1f77b4; stroke: #1f77b4"/>
     <use xlink:href="#me13933b5e1" x="75.564065" y="199.76057" style="fill: #1f77b4; stroke: #1f77b4"/>
     <use xlink:href="#me13933b5e1" x="77.264421" y="196.092812" style="fill: #1f77b4; stroke: #1f77b4"/>
     <use xlink:href="#me13933b5e1" x="78.964777" y="192.424185" style="fill: #1f77b4; stroke: #1f77b4"/>
     <use xlink:href="#me13933b5e1" x="80.665132" y="188.756684" style="fill: #1f77b4; stroke: #1f77b4"/>
     <use xlink:href="#me13933b5e1" x="82.365487" y="185.088513" style="fill: #1f77b4; stroke: #1f77b4"/>
     <use xlink:href="#me13933b5e1" x="84.065843" y="181.421539" style="fill: #1f77b4; stroke: #1f77b4"/>
     <use xlink:href="#me13933b5e1" x="85.766198" y="177.753531" style="fill: #1f77b4; stroke: #1f77b4"/>
     <use xlink:href="#me13933b5e1" x="87.466554" y="174.085791" style="fill: #1f77b4; stroke: #1f77b4"/>
     <use xlink:href="#me13933b5e1" x="89.166909" y="170.418112" style="fill: #1f77b4; stroke: #1f77b4"/>
     <use xlink:href="#me13933b5e1" x="90.867265" y="166.750158" style="fill: #1f77b4; stroke: #1f77b4"/>
     <use xlink:href="#me13933b5e1" x="92.56762" y="163.08231" style="fill: #1f77b4; stroke: #1f77b4"/>
     <use xlink:href="#me13933b5e1" x="94.267976" y="159.414416" style="fill: #1f77b4; stroke: #1f77b4"/>
     <use xlink:href="#me13933b5e1" x="95.968331" y="155.747425" style="fill: #1f77b4; stroke: #1f77b4"/>
     <use xlink:href="#me13933b5e1" x="97.668687" y="152.078609" style="fill: #1f77b4; stroke: #1f77b4"/>
     <use xlink:href="#me13933b5e1" x="99.369042" y="148.410644" style="fill: #1f77b4; stroke: #1f77b4"/>
     <use xlink:href="#me13933b5e1" x="101.069398" y="144.74334" style="fill: #1f77b4; stroke: #1f77b4"/>
     <use xlink:href="#me13933b5e1" x="102.769753" y="141.074606" style="fill: #1f77b4; stroke: #1f77b4"/>
     <use xlink:href="#me13933b5e1" x="104.470109" y="137.407507" style="fill: #1f77b4; stroke: #1f77b4"/>
     <use xlink:href="#me13933b5e1" x="106.170464" y="133.739533" style="fill: #1f77b4; stroke: #1f77b4"/>
     <use xlink:href="#me13933b5e1" x="107.87082" y="130.072021" style="fill: #1f77b4; stroke: #1f77b4"/>
     <use xlink:href="#me13933b5e1" x="109.571175" y="126.404404" style="fill: #1f77b4; stroke: #1f77b4"/>
     <use xlink:href="#me13933b5e1" x="111.271531" y="122.736139" style="fill: #1f77b4; stroke: #1f77b4"/>
     <use xlink:href="#me13933b5e1" x="112.971886" y="119.067937" style="fill: #1f77b4; stroke: #1f77b4"/>
     <use xlink:href="#me13933b5e1" x="114.672242" y="115.400218" style="fill: #1f77b4; stroke: #1f77b4"/>
     <use xlink:href="#me13933b5e1" x="116.372597" y="111.732171" style="fill: #1f77b4; stroke: #1f77b4"/>
     <use xlink:href="#me13933b5e1" x="118.072953" y="108.064832" style="fill: #1f77b4; stroke: #1f77b4"/>
     <use xlink:href="#me13933b5e1" x="119.773308" y="104.39677" style="fill: #1f77b4; stroke: #1f77b4"/>
     <use xlink:href="#me13933b5e1" x="121.473663" y="100.728632" style="fill: #1f77b4; stroke: #1f77b4"/>
     <use xlink:href="#me13933b5e1" x="123.174019" y="97.06142" style="fill: #1f77b4; stroke: #1f77b4"/>
     <use xlink:href="#me13933b5e1" x="124.874375" y="93.393492" style="fill: #1f77b4; stroke: #1f77b4"/>
     <use xlink:href="#me13933b5e1" x="126.57473" y="89.724849" style="fill: #1f77b4; stroke: #1f77b4"/>
     <use xlink:href="#me13933b5e1" x="128.275085" y="86.057653" style="fill: #1f77b4; stroke: #1f77b4"/>
     <use xlink:href="#me13933b5e1" x="129.975441" y="82.390277" style="fill: #1f77b4; stroke: #1f77b4"/>
     <use xlink:href="#me13933b5e1" x="131.675797" y="78.721536" style="fill: #1f77b4; stroke: #1f77b4"/>
     <use xlink:href="#me13933b5e1" x="133.376153" y="77.921639" style="fill: #1f77b4; stroke: #1f77b4"/>
     <use xlink:href="#me13933b5e1" x="135.076508" y="77.961983" style="fill: #1f77b4; stroke: #1f77b4"/>
     <use xlink:href="#me13933b5e1" x="136.776864" y="78.344905" style="fill: #1f77b4; stroke: #1f77b4"/>
     <use xlink:href="#me13933b5e1" x="138.477219" y="78.728209" style="fill: #1f77b4; stroke: #1f77b4"/>
     <use xlink:href="#me13933b5e1" x="140.177575" y="78.935629" style="fill: #1f77b4; stroke: #1f77b4"/>
     <use xlink:href="#me13933b5e1" x="141.87793" y="78.958842" style="fill: #1f77b4; stroke: #1f77b4"/>
     <use xlink:href="#me13933b5e1" x="143.578286" y="78.873505" style="fill: #1f77b4; stroke: #1f77b4"/>
     <use xlink:href="#me13933b5e1" x="145.278641" y="78.766128" style="fill: #1f77b4; stroke: #1f77b4"/>
     <use xlink:href="#me13933b5e1" x="146.978996" y="78.690605" style="fill: #1f77b4; stroke: #1f77b4"/>
     <use xlink:href="#me13933b5e1" x="148.679352" y="78.660703" style="fill: #1f77b4; stroke: #1f77b4"/>
     <use xlink:href="#me13933b5e1" x="150.379707" y="78.66604" style="fill: #1f77b4; stroke: #1f77b4"/>
     <use xlink:href="#me13933b5e1" x="152.080063" y="78.688066" style="fill: #1f77b4; stroke: #1f77b4"/>
     <use xlink:href="#me13933b5e1" x="153.780418" y="78.711381" style="fill: #1f77b4; stroke: #1f77b4"/>
     <use xlink:href="#me13933b5e1" x="155.480773" y="78.727268" style="fill: #1f77b4; stroke: #1f77b4"/>
     <use xlink:href="#me13933b5e1" x="157.181129" y="78.735049" style="fill: #1f77b4; stroke: #1f77b4"/>
     <use xlink:href="#me13933b5e1" x="158.881485" y="78.734849" style="fill: #1f77b4; stroke: #1f77b4"/>
     <use xlink:href="#me13933b5e1" x="160.581841" y="78.731175" style="fill: #1f77b4; stroke: #1f77b4"/>
     <use xlink:href="#me13933b5e1" x="162.282196" y="78.726586" style="fill: #1f77b4; stroke: #1f77b4"/>
     <use xlink:href="#me13933b5e1" x="163.982552" y="78.722933" style="fill: #1f77b4; stroke: #1f77b4"/>
     <use xlink:href="#me13933b5e1" x="165.682907" y="78.721075" style="fill: #1f77b4; stroke: #1f77b4"/>
     <use xlink:href="#me13933b5e1" x="167.383263" y="78.719728" style="fill: #1f77b4; stroke: #1f77b4"/>
     <use xlink:href="#me13933b5e1" x="169.083618" y="78.720091" style="fill: #1f77b4; stroke: #1f77b4"/>
     <use xlink:href="#me13933b5e1" x="170.783974" y="78.71948" style="fill: #1f77b4; stroke: #1f77b4"/>
     <use xlink:href="#me13933b5e1" x="172.484329" y="78.721286" style="fill: #1f77b4; stroke: #1f77b4"/>
     <use xlink:href="#me13933b5e1" x="174.184685" y="78.720807" style="fill: #1f77b4; stroke: #1f77b4"/>
     <use xlink:href="#me13933b5e1" x="175.88504" y="78.721674" style="fill: #1f77b4; stroke: #1f77b4"/>
     <use xlink:href="#me13933b5e1" x="177.585396" y="78.721495" style="fill: #1f77b4; stroke: #1f77b4"/>
     <use xlink:href="#me13933b5e1" x="179.285751" y="78.722626" style="fill: #1f77b4; stroke: #1f77b4"/>
     <use xlink:href="#me13933b5e1" x="180.986106" y="78.721656" style="fill: #1f77b4; stroke: #1f77b4"/>
     <use xlink:href="#me13933b5e1" x="182.686462" y="78.72182" style="fill: #1f77b4; stroke: #1f77b4"/>
     <use xlink:href="#me13933b5e1" x="184.386818" y="78.722193" style="fill: #1f77b4; stroke: #1f77b4"/>
     <use xlink:href="#me13933b5e1" x="186.087173" y="78.72257" style="fill: #1f77b4; stroke: #1f77b4"/>
     <use xlink:href="#me13933b5e1" x="187.787529" y="78.721915" style="fill: #1f77b4; stroke: #1f77b4"/>
     <use xlink:href="#me13933b5e1" x="189.487885" y="78.72164" style="fill: #1f77b4; stroke: #1f77b4"/>
     <use xlink:href="#me13933b5e1" x="191.18824" y="78.721755" style="fill: #1f77b4; stroke: #1f77b4"/>
     <use xlink:href="#me13933b5e1" x="192.888596" y="78.722362" style="fill: #1f77b4; stroke: #1f77b4"/>
     <use xlink:href="#me13933b5e1" x="194.588951" y="78.721628" style="fill: #1f77b4; stroke: #1f77b4"/>
     <use xlink:href="#me13933b5e1" x="196.289307" y="78.722664" style="fill: #1f77b4; stroke: #1f77b4"/>
     <use xlink:href="#me13933b5e1" x="197.989662" y="78.721937" style="fill: #1f77b4; stroke: #1f77b4"/>
     <use xlink:href="#me13933b5e1" x="199.690017" y="78.721532" style="fill: #1f77b4; stroke: #1f77b4"/>
     <use xlink:href="#me13933b5e1" x="201.390373" y="78.72204" style="fill: #1f77b4; stroke: #1f77b4"/>
     <use xlink:href="#me13933b5e1" x="203.090728" y="78.72183" style="fill: #1f77b4; stroke: #1f77b4"/>
     <use xlink:href="#me13933b5e1" x="204.791084" y="78.721741" style="fill: #1f77b4; stroke: #1f77b4"/>
     <use xlink:href="#me13933b5e1" x="206.491439" y="78.722605" style="fill: #1f77b4; stroke: #1f77b4"/>
     <use xlink:href="#me13933b5e1" x="208.191795" y="78.72179" style="fill: #1f77b4; stroke: #1f77b4"/>
     <use xlink:href="#me13933b5e1" x="209.89215" y="78.721494" style="fill: #1f77b4; stroke: #1f77b4"/>
     <use xlink:href="#me13933b5e1" x="211.592506" y="78.721434" style="fill: #1f77b4; stroke: #1f77b4"/>
     <use xlink:href="#me13933b5e1" x="213.292861" y="78.722283" style="fill: #1f77b4; stroke: #1f77b4"/>
     <use xlink:href="#me13933b5e1" x="214.993217" y="78.722071" style="fill: #1f77b4; stroke: #1f77b4"/>
     <use xlink:href="#me13933b5e1" x="216.693572" y="78.721635" style="fill: #1f77b4; stroke: #1f77b4"/>
     <use xlink:href="#me13933b5e1" x="218.393928" y="78.721736" style="fill: #1f77b4; stroke: #1f77b4"/>
     <use xlink:href="#me13933b5e1" x="220.094283" y="78.720657" style="fill: #1f77b4; stroke: #1f77b4"/>
     <use xlink:href="#me13933b5e1" x="221.794639" y="78.72179" style="fill: #1f77b4; stroke: #1f77b4"/>
     <use xlink:href="#me13933b5e1" x="223.494995" y="78.721715" style="fill: #1f77b4; stroke: #1f77b4"/>
     <use xlink:href="#me13933b5e1" x="225.19535" y="78.721861" style="fill: #1f77b4; stroke: #1f77b4"/>
     <use xlink:href="#me13933b5e1" x="226.895705" y="78.721173" style="fill: #1f77b4; stroke: #1f77b4"/>
     <use xlink:href="#me13933b5e1" x="228.596061" y="78.722013" style="fill: #1f77b4; stroke: #1f77b4"/>
     <use xlink:href="#me13933b5e1" x="230.296417" y="78.721651" style="fill: #1f77b4; stroke: #1f77b4"/>
     <use xlink:href="#me13933b5e1" x="231.996772" y="78.722229" style="fill: #1f77b4; stroke: #1f77b4"/>
     <use xlink:href="#me13933b5e1" x="233.697127" y="78.72193" style="fill: #1f77b4; stroke: #1f77b4"/>
     <use xlink:href="#me13933b5e1" x="235.397483" y="78.720935" style="fill: #1f77b4; stroke: #1f77b4"/>
     <use xlink:href="#me13933b5e1" x="237.097839" y="78.722205" style="fill: #1f77b4; stroke: #1f77b4"/>
     <use xlink:href="#me13933b5e1" x="238.798194" y="78.7214" style="fill: #1f77b4; stroke: #1f77b4"/>
     <use xlink:href="#me13933b5e1" x="240.498549" y="78.722" style="fill: #1f77b4; stroke: #1f77b4"/>
     <use xlink:href="#me13933b5e1" x="242.198905" y="78.722095" style="fill: #1f77b4; stroke: #1f77b4"/>
     <use xlink:href="#me13933b5e1" x="243.899261" y="78.721518" style="fill: #1f77b4; stroke: #1f77b4"/>
     <use xlink:href="#me13933b5e1" x="245.599616" y="78.722695" style="fill: #1f77b4; stroke: #1f77b4"/>
     <use xlink:href="#me13933b5e1" x="247.299972" y="78.72216" style="fill: #1f77b4; stroke: #1f77b4"/>
     <use xlink:href="#me13933b5e1" x="249.000327" y="78.721837" style="fill: #1f77b4; stroke: #1f77b4"/>
     <use xlink:href="#me13933b5e1" x="250.700682" y="78.721248" style="fill: #1f77b4; stroke: #1f77b4"/>
     <use xlink:href="#me13933b5e1" x="252.401038" y="78.721965" style="fill: #1f77b4; stroke: #1f77b4"/>
     <use xlink:href="#me13933b5e1" x="254.101394" y="78.721766" style="fill: #1f77b4; stroke: #1f77b4"/>
     <use xlink:href="#me13933b5e1" x="255.801749" y="78.721924" style="fill: #1f77b4; stroke: #1f77b4"/>
     <use xlink:href="#me13933b5e1" x="257.502104" y="78.721751" style="fill: #1f77b4; stroke: #1f77b4"/>
     <use xlink:href="#me13933b5e1" x="259.20246" y="78.721879" style="fill: #1f77b4; stroke: #1f77b4"/>
     <use xlink:href="#me13933b5e1" x="260.902816" y="78.722108" style="fill: #1f77b4; stroke: #1f77b4"/>
     <use xlink:href="#me13933b5e1" x="262.603171" y="78.722442" style="fill: #1f77b4; stroke: #1f77b4"/>
     <use xlink:href="#me13933b5e1" x="264.303526" y="78.72411" style="fill: #1f77b4; stroke: #1f77b4"/>
     <use xlink:href="#me13933b5e1" x="266.003882" y="78.727716" style="fill: #1f77b4; stroke: #1f77b4"/>
     <use xlink:href="#me13933b5e1" x="267.704238" y="78.746537" style="fill: #1f77b4; stroke: #1f77b4"/>
     <use xlink:href="#me13933b5e1" x="269.404593" y="78.814277" style="fill: #1f77b4; stroke: #1f77b4"/>
     <use xlink:href="#me13933b5e1" x="271.104949" y="79.049208" style="fill: #1f77b4; stroke: #1f77b4"/>
     <use xlink:href="#me13933b5e1" x="272.805304" y="79.675202" style="fill: #1f77b4; stroke: #1f77b4"/>
     <use xlink:href="#me13933b5e1" x="274.50566" y="80.600554" style="fill: #1f77b4; stroke: #1f77b4"/>
     <use xlink:href="#me13933b5e1" x="276.206015" y="81.227873" style="fill: #1f77b4; stroke: #1f77b4"/>
     <use xlink:href="#me13933b5e1" x="277.906371" y="81.462533" style="fill: #1f77b4; stroke: #1f77b4"/>
     <use xlink:href="#me13933b5e1" x="279.606726" y="81.530571" style="fill: #1f77b4; stroke: #1f77b4"/>
     <use xlink:href="#me13933b5e1" x="281.307082" y="81.548988" style="fill: #1f77b4; stroke: #1f77b4"/>
     <use xlink:href="#me13933b5e1" x="283.007437" y="81.553115" style="fill: #1f77b4; stroke: #1f77b4"/>
     <use xlink:href="#me13933b5e1" x="284.707793" y="81.55423" style="fill: #1f77b4; stroke: #1f77b4"/>
     <use xlink:href="#me13933b5e1" x="286.408148" y="81.554232" style="fill: #1f77b4; stroke: #1f77b4"/>
     <use xlink:href="#me13933b5e1" x="288.108504" y="81.55508" style="fill: #1f77b4; stroke: #1f77b4"/>
     <use xlink:href="#me13933b5e1" x="289.808859" y="81.554883" style="fill: #1f77b4; stroke: #1f77b4"/>
     <use xlink:href="#me13933b5e1" x="291.509215" y="81.554315" style="fill: #1f77b4; stroke: #1f77b4"/>
     <use xlink:href="#me13933b5e1" x="293.20957" y="81.554048" style="fill: #1f77b4; stroke: #1f77b4"/>
     <use xlink:href="#me13933b5e1" x="294.909925" y="81.55434" style="fill: #1f77b4; stroke: #1f77b4"/>
     <use xlink:href="#me13933b5e1" x="296.610281" y="81.554342" style="fill: #1f77b4; stroke: #1f77b4"/>
     <use xlink:href="#me13933b5e1" x="298.310637" y="81.554534" style="fill: #1f77b4; stroke: #1f77b4"/>
     <use xlink:href="#me13933b5e1" x="300.010993" y="81.554419" style="fill: #1f77b4; stroke: #1f77b4"/>
     <use xlink:href="#me13933b5e1" x="301.711348" y="81.555033" style="fill: #1f77b4; stroke: #1f77b4"/>
     <use xlink:href="#me13933b5e1" x="303.411703" y="81.554948" style="fill: #1f77b4; stroke: #1f77b4"/>
     <use xlink:href="#me13933b5e1" x="305.112059" y="85.14984" style="fill: #1f77b4; stroke: #1f77b4"/>
     <use xlink:href="#me13933b5e1" x="306.812415" y="88.745626" style="fill: #1f77b4; stroke: #1f77b4"/>
     <use xlink:href="#me13933b5e1" x="308.51277" y="92.340418" style="fill: #1f77b4; stroke: #1f77b4"/>
     <use xlink:href="#me13933b5e1" x="310.213125" y="95.935525" style="fill: #1f77b4; stroke: #1f77b4"/>
     <use xlink:href="#me13933b5e1" x="311.913481" y="99.529597" style="fill: #1f77b4; stroke: #1f77b4"/>
     <use xlink:href="#me13933b5e1" x="313.613837" y="103.125549" style="fill: #1f77b4; stroke: #1f77b4"/>
     <use xlink:href="#me13933b5e1" x="315.314192" y="106.721622" style="fill: #1f77b4; stroke: #1f77b4"/>
     <use xlink:href="#me13933b5e1" x="317.014547" y="110.315746" style="fill: #1f77b4; stroke: #1f77b4"/>
     <use xlink:href="#me13933b5e1" x="318.714903" y="113.911398" style="fill: #1f77b4; stroke: #1f77b4"/>
     <use xlink:href="#me13933b5e1" x="320.415258" y="117.505999" style="fill: #1f77b4; stroke: #1f77b4"/>
     <use xlink:href="#me13933b5e1" x="322.115614" y="121.102786" style="fill: #1f77b4; stroke: #1f77b4"/>
     <use xlink:href="#me13933b5e1" x="323.815969" y="124.696703" style="fill: #1f77b4; stroke: #1f77b4"/>
     <use xlink:href="#me13933b5e1" x="325.516325" y="128.29298" style="fill: #1f77b4; stroke: #1f77b4"/>
     <use xlink:href="#me13933b5e1" x="327.216681" y="131.888136" style="fill: #1f77b4; stroke: #1f77b4"/>
     <use xlink:href="#me13933b5e1" x="328.917036" y="135.483292" style="fill: #1f77b4; stroke: #1f77b4"/>
     <use xlink:href="#me13933b5e1" x="330.617392" y="139.078338" style="fill: #1f77b4; stroke: #1f77b4"/>
     <use xlink:href="#me13933b5e1" x="332.317747" y="142.67346" style="fill: #1f77b4; stroke: #1f77b4"/>
     <use xlink:href="#me13933b5e1" x="334.018103" y="146.268751" style="fill: #1f77b4; stroke: #1f77b4"/>
     <use xlink:href="#me13933b5e1" x="335.718458" y="149.863773" style="fill: #1f77b4; stroke: #1f77b4"/>
     <use xlink:href="#me13933b5e1" x="337.418814" y="153.458879" style="fill: #1f77b4; stroke: #1f77b4"/>
     <use xlink:href="#me13933b5e1" x="339.119169" y="157.054219" style="fill: #1f77b4; stroke: #1f77b4"/>
     <use xlink:href="#me13933b5e1" x="340.819525" y="160.648953" style="fill: #1f77b4; stroke: #1f77b4"/>
     <use xlink:href="#me13933b5e1" x="342.51988" y="164.244364" style="fill: #1f77b4; stroke: #1f77b4"/>
     <use xlink:href="#me13933b5e1" x="344.220235" y="167.840129" style="fill: #1f77b4; stroke: #1f77b4"/>
     <use xlink:href="#me13933b5e1" x="345.920591" y="171.435146" style="fill: #1f77b4; stroke: #1f77b4"/>
     <use xlink:href="#me13933b5e1" x="347.620946" y="175.029803" style="fill: #1f77b4; stroke: #1f77b4"/>
     <use xlink:href="#me13933b5e1" x="349.321302" y="178.625175" style="fill: #1f77b4; stroke: #1f77b4"/>
     <use xlink:href="#me13933b5e1" x="351.021657" y="182.219471" style="fill: #1f77b4; stroke: #1f77b4"/>
     <use xlink:href="#me13933b5e1" x="352.722013" y="185.815368" style="fill: #1f77b4; stroke: #1f77b4"/>
     <use xlink:href="#me13933b5e1" x="354.422369" y="189.411212" style="fill: #1f77b4; stroke: #1f77b4"/>
     <use xlink:href="#me13933b5e1" x="356.122724" y="193.006929" style="fill: #1f77b4; stroke: #1f77b4"/>
     <use xlink:href="#me13933b5e1" x="357.82308" y="196.60114" style="fill: #1f77b4; stroke: #1f77b4"/>
     <use xlink:href="#me13933b5e1" x="359.523436" y="200.195988" style="fill: #1f77b4; stroke: #1f77b4"/>
     <use xlink:href="#me13933b5e1" x="361.223791" y="203.791089" style="fill: #1f77b4; stroke: #1f77b4"/>
     <use xlink:href="#me13933b5e1" x="362.924146" y="207.386731" style="fill: #1f77b4; stroke: #1f77b4"/>
     <use xlink:href="#me13933b5e1" x="364.624502" y="210.983126" style="fill: #1f77b4; stroke: #1f77b4"/>
     <use xlink:href="#me13933b5e1" x="366.324858" y="214.577431" style="fill: #1f77b4; stroke: #1f77b4"/>
     <use xlink:href="#me13933b5e1" x="368.025213" y="218.172109" style="fill: #1f77b4; stroke: #1f77b4"/>
     <use xlink:href="#me13933b5e1" x="369.725568" y="221.767697" style="fill: #1f77b4; stroke: #1f77b4"/>
    </g>
   </g>
   <g id="line2d_19">
    <path d="M 155.480773 78.722564 
L 266.003882 78.722564 
" clip-path="url(#p937cdbe858)" style="fill: none; stroke: #ff7f0e; stroke-width: 1.5; stroke-linecap: square"/>
    <defs>
     <path id="me7b6ea92f6" d="M 0 3 
L 0 -3 
" style="stroke: #ff7f0e"/>
    </defs>
    <g clip-path="url(#p937cdbe858)">
     <use xlink:href="#me7b6ea92f6" x="155.480773" y="78.722564" style="fill: #ff7f0e; stroke: #ff7f0e"/>
     <use xlink:href="#me7b6ea92f6" x="266.003882" y="78.722564" style="fill: #ff7f0e; stroke: #ff7f0e"/>
    </g>
   </g>
   <g id="patch_3">
    <path d="M 50.14375 228.96 
L 50.14375 7.2 
" style="fill: none; stroke: #000000; stroke-width: 0.8; stroke-linejoin: miter; stroke-linecap: square"/>
   </g>
   <g id="patch_4">
    <path d="M 384.94375 228.96 
L 384.94375 7.2 
" style="fill: none; stroke: #000000; stroke-width: 0.8; stroke-linejoin: miter; stroke-linecap: square"/>
   </g>
   <g id="patch_5">
    <path d="M 50.14375 228.96 
L 384.94375 228.96 
" style="fill: none; stroke: #000000; stroke-width: 0.8; stroke-linejoin: miter; stroke-linecap: square"/>
   </g>
   <g id="patch_6">
    <path d="M 50.14375 7.2 
L 384.94375 7.2 
" style="fill: none; stroke: #000000; stroke-width: 0.8; stroke-linejoin: miter; stroke-linecap: square"/>
   </g>
   <g id="legend_1">
    <g id="patch_7">
     <path d="M 269.59375 44.55625 
L 377.94375 44.55625 
Q 379.94375 44.55625 379.94375 42.55625 
L 379.94375 14.2 
Q 379.94375 12.2 377.94375 12.2 
L 269.59375 12.2 
Q 267.59375 12.2 267.59375 14.2 
L 267.59375 42.55625 
Q 267.59375 44.55625 269.59375 44.55625 
z
" style="fill: #ffffff; opacity: 0.8; stroke: #cccccc; stroke-linejoin: miter"/>
    </g>
    <g id="line2d_20">
     <g>
      <use xlink:href="#me13933b5e1" x="281.59375" y="20.298437" style="fill: #1f77b4; stroke: #1f77b4"/>
     </g>
    </g>
    <g id="text_20">
     <!-- Rotation Speed -->
     <g transform="translate(299.59375 23.798437) scale(0.1 -0.1)">
      <defs>
       <path id="DejaVuSans-52" d="M 2841 2188 
Q 3044 2119 3236 1894 
Q 3428 1669 3622 1275 
L 4263 0 
L 3584 0 
L 2988 1197 
Q 2756 1666 2539 1819 
Q 2322 1972 1947 1972 
L 1259 1972 
L 1259 0 
L 628 0 
L 628 4666 
L 2053 4666 
Q 2853 4666 3247 4331 
Q 3641 3997 3641 3322 
Q 3641 2881 3436 2590 
Q 3231 2300 2841 2188 
z
M 1259 4147 
L 1259 2491 
L 2053 2491 
Q 2509 2491 2742 2702 
Q 2975 2913 2975 3322 
Q 2975 3731 2742 3939 
Q 2509 4147 2053 4147 
L 1259 4147 
z
" transform="scale(0.015625)"/>
       <path id="DejaVuSans-6f" d="M 1959 3097 
Q 1497 3097 1228 2736 
Q 959 2375 959 1747 
Q 959 1119 1226 758 
Q 1494 397 1959 397 
Q 2419 397 2687 759 
Q 2956 1122 2956 1747 
Q 2956 2369 2687 2733 
Q 2419 3097 1959 3097 
z
M 1959 3584 
Q 2709 3584 3137 3096 
Q 3566 2609 3566 1747 
Q 3566 888 3137 398 
Q 2709 -91 1959 -91 
Q 1206 -91 779 398 
Q 353 888 353 1747 
Q 353 2609 779 3096 
Q 1206 3584 1959 3584 
z
" transform="scale(0.015625)"/>
       <path id="DejaVuSans-6e" d="M 3513 2113 
L 3513 0 
L 2938 0 
L 2938 2094 
Q 2938 2591 2744 2837 
Q 2550 3084 2163 3084 
Q 1697 3084 1428 2787 
Q 1159 2491 1159 1978 
L 1159 0 
L 581 0 
L 581 3500 
L 1159 3500 
L 1159 2956 
Q 1366 3272 1645 3428 
Q 1925 3584 2291 3584 
Q 2894 3584 3203 3211 
Q 3513 2838 3513 2113 
z
" transform="scale(0.015625)"/>
       <path id="DejaVuSans-53" d="M 3425 4513 
L 3425 3897 
Q 3066 4069 2747 4153 
Q 2428 4238 2131 4238 
Q 1616 4238 1336 4038 
Q 1056 3838 1056 3469 
Q 1056 3159 1242 3001 
Q 1428 2844 1947 2747 
L 2328 2669 
Q 3034 2534 3370 2195 
Q 3706 1856 3706 1288 
Q 3706 609 3251 259 
Q 2797 -91 1919 -91 
Q 1588 -91 1214 -16 
Q 841 59 441 206 
L 441 856 
Q 825 641 1194 531 
Q 1563 422 1919 422 
Q 2459 422 2753 634 
Q 3047 847 3047 1241 
Q 3047 1584 2836 1778 
Q 2625 1972 2144 2069 
L 1759 2144 
Q 1053 2284 737 2584 
Q 422 2884 422 3419 
Q 422 4038 858 4394 
Q 1294 4750 2059 4750 
Q 2388 4750 2728 4690 
Q 3069 4631 3425 4513 
z
" transform="scale(0.015625)"/>
       <path id="DejaVuSans-70" d="M 1159 525 
L 1159 -1331 
L 581 -1331 
L 581 3500 
L 1159 3500 
L 1159 2969 
Q 1341 3281 1617 3432 
Q 1894 3584 2278 3584 
Q 2916 3584 3314 3078 
Q 3713 2572 3713 1747 
Q 3713 922 3314 415 
Q 2916 -91 2278 -91 
Q 1894 -91 1617 61 
Q 1341 213 1159 525 
z
M 3116 1747 
Q 3116 2381 2855 2742 
Q 2594 3103 2138 3103 
Q 1681 3103 1420 2742 
Q 1159 2381 1159 1747 
Q 1159 1113 1420 752 
Q 1681 391 2138 391 
Q 2594 391 2855 752 
Q 3116 1113 3116 1747 
z
" transform="scale(0.015625)"/>
      </defs>
      <use xlink:href="#DejaVuSans-52"/>
      <use xlink:href="#DejaVuSans-6f" x="64.982422"/>
      <use xlink:href="#DejaVuSans-74" x="126.164062"/>
      <use xlink:href="#DejaVuSans-61" x="165.373047"/>
      <use xlink:href="#DejaVuSans-74" x="226.652344"/>
      <use xlink:href="#DejaVuSans-69" x="265.861328"/>
      <use xlink:href="#DejaVuSans-6f" x="293.644531"/>
      <use xlink:href="#DejaVuSans-6e" x="354.826172"/>
      <use xlink:href="#DejaVuSans-20" x="418.205078"/>
      <use xlink:href="#DejaVuSans-53" x="449.992188"/>
      <use xlink:href="#DejaVuSans-70" x="513.46875"/>
      <use xlink:href="#DejaVuSans-65" x="576.945312"/>
      <use xlink:href="#DejaVuSans-65" x="638.46875"/>
      <use xlink:href="#DejaVuSans-64" x="699.992188"/>
     </g>
    </g>
    <g id="line2d_21">
     <path d="M 271.59375 34.976562 
L 281.59375 34.976562 
L 291.59375 34.976562 
" style="fill: none; stroke: #ff7f0e; stroke-width: 1.5; stroke-linecap: square"/>
     <g>
      <use xlink:href="#me7b6ea92f6" x="281.59375" y="34.976562" style="fill: #ff7f0e; stroke: #ff7f0e"/>
     </g>
    </g>
    <g id="text_21">
     <!-- Plateau 0 -->
     <g transform="translate(299.59375 38.476562) scale(0.1 -0.1)">
      <defs>
       <path id="DejaVuSans-50" d="M 1259 4147 
L 1259 2394 
L 2053 2394 
Q 2494 2394 2734 2622 
Q 2975 2850 2975 3272 
Q 2975 3691 2734 3919 
Q 2494 4147 2053 4147 
L 1259 4147 
z
M 628 4666 
L 2053 4666 
Q 2838 4666 3239 4311 
Q 3641 3956 3641 3272 
Q 3641 2581 3239 2228 
Q 2838 1875 2053 1875 
L 1259 1875 
L 1259 0 
L 628 0 
L 628 4666 
z
" transform="scale(0.015625)"/>
       <path id="DejaVuSans-6c" d="M 603 4863 
L 1178 4863 
L 1178 0 
L 603 0 
L 603 4863 
z
" transform="scale(0.015625)"/>
       <path id="DejaVuSans-75" d="M 544 1381 
L 544 3500 
L 1119 3500 
L 1119 1403 
Q 1119 906 1312 657 
Q 1506 409 1894 409 
Q 2359 409 2629 706 
Q 2900 1003 2900 1516 
L 2900 3500 
L 3475 3500 
L 3475 0 
L 2900 0 
L 2900 538 
Q 2691 219 2414 64 
Q 2138 -91 1772 -91 
Q 1169 -91 856 284 
Q 544 659 544 1381 
z
M 1991 3584 
L 1991 3584 
z
" transform="scale(0.015625)"/>
      </defs>
      <use xlink:href="#DejaVuSans-50"/>
      <use xlink:href="#DejaVuSans-6c" x="60.302734"/>
      <use xlink:href="#DejaVuSans-61" x="88.085938"/>
      <use xlink:href="#DejaVuSans-74" x="149.365234"/>
      <use xlink:href="#DejaVuSans-65" x="188.574219"/>
      <use xlink:href="#DejaVuSans-61" x="250.097656"/>
      <use xlink:href="#DejaVuSans-75" x="311.376953"/>
      <use xlink:href="#DejaVuSans-20" x="374.755859"/>
      <use xlink:href="#DejaVuSans-30" x="406.542969"/>
     </g>
    </g>
   </g>
  </g>
 </g>
 <defs>
  <clipPath id="p937cdbe858">
   <rect x="50.14375" y="7.2" width="334.8" height="221.76"/>
  </clipPath>
 </defs>
</svg>
