<?xml version="1.0" encoding="UTF-8" standalone="no"?>
<!DOCTYPE svg PUBLIC "-//W3C//DTD SVG 1.1//EN"
 "http://www.w3.org/Graphics/SVG/1.1/DTD/svg11.dtd">
<!-- Generated by graphviz version 7.1.0 (20230122.1345)
 -->
<!-- Pages: 1 -->
<svg width="192pt" height="90pt"
 viewBox="0.00 0.00 191.50 90.00" xmlns="http://www.w3.org/2000/svg" xmlns:xlink="http://www.w3.org/1999/xlink">
<g id="graph0" class="graph" transform="scale(1 1) rotate(0) translate(4 86)">
<polygon fill="white" stroke="none" points="-4,4 -4,-86 187.5,-86 187.5,4 -4,4"/>
<!-- tof -->
<g id="node1" class="node">
<title>tof</title>
<polygon fill="none" stroke="black" points="89.5,-82 35.5,-82 35.5,-59 89.5,-59 89.5,-82"/>
<text text-anchor="middle" x="62.5" y="-66.8" font-family="Times,serif" font-size="14.00">tof</text>
</g>
<!-- wavelength -->
<g id="node2" class="node">
<title>wavelength</title>
<polygon fill="none" stroke="black" points="99,-23 0,-23 0,0 99,0 99,-23"/>
<text text-anchor="middle" x="49.5" y="-7.8" font-family="Times,serif" font-size="14.00">wavelength</text>
</g>
<!-- tof&#45;&gt;wavelength -->
<g id="edge1" class="edge">
<title>tof&#45;&gt;wavelength</title>
<path fill="none" stroke="black" d="M59.99,-58.51C58.45,-51.73 56.41,-42.79 54.54,-34.59"/>
<polygon fill="black" stroke="black" points="57.97,-33.9 52.34,-24.93 51.15,-35.46 57.97,-33.9"/>
</g>
<!-- energy -->
<g id="node4" class="node">
<title>energy</title>
<polygon fill="none" stroke="black" points="183.5,-23 117.5,-23 117.5,0 183.5,0 183.5,-23"/>
<text text-anchor="middle" x="150.5" y="-7.8" font-family="Times,serif" font-size="14.00">energy</text>
</g>
<!-- tof&#45;&gt;energy -->
<g id="edge3" class="edge">
<title>tof&#45;&gt;energy</title>
<path fill="none" stroke="black" d="M79.47,-58.51C92.13,-50.31 109.66,-38.95 124.15,-29.57"/>
<polygon fill="black" stroke="black" points="125.82,-32.65 132.31,-24.28 122.02,-26.78 125.82,-32.65"/>
</g>
<!-- Ltotal -->
<g id="node3" class="node">
<title>Ltotal</title>
<polygon fill="none" stroke="black" points="173,-82 114,-82 114,-59 173,-59 173,-82"/>
<text text-anchor="middle" x="143.5" y="-66.8" font-family="Times,serif" font-size="14.00">Ltotal</text>
</g>
<!-- Ltotal&#45;&gt;wavelength -->
<g id="edge2" class="edge">
<title>Ltotal&#45;&gt;wavelength</title>
<path fill="none" stroke="black" d="M125.38,-58.51C111.72,-50.23 92.76,-38.73 77.21,-29.3"/>
<polygon fill="black" stroke="black" points="79.23,-26.43 68.86,-24.24 75.6,-32.42 79.23,-26.43"/>
</g>
<!-- Ltotal&#45;&gt;energy -->
<g id="edge4" class="edge">
<title>Ltotal&#45;&gt;energy</title>
<path fill="none" stroke="black" d="M144.85,-58.51C145.67,-51.81 146.76,-42.99 147.75,-34.88"/>
<polygon fill="black" stroke="black" points="151.22,-35.31 148.97,-24.96 144.28,-34.46 151.22,-35.31"/>
</g>
</g>
</svg>
