<?xml version="1.0" encoding="UTF-8" standalone="no"?>
<!DOCTYPE svg PUBLIC "-//W3C//DTD SVG 1.1//EN"
 "http://www.w3.org/Graphics/SVG/1.1/DTD/svg11.dtd">
<!-- Generated by graphviz version 11.0.0 (20240519.1550)
 -->
<!-- Pages: 1 -->
<svg width="369pt" height="102pt"
 viewBox="0.00 0.00 368.50 102.25" xmlns="http://www.w3.org/2000/svg" xmlns:xlink="http://www.w3.org/1999/xlink">
<g id="graph0" class="graph" transform="scale(1 1) rotate(0) translate(4 98.25)">
<polygon fill="white" stroke="none" points="-4,4 -4,-98.25 364.5,-98.25 364.5,4 -4,4"/>
<!-- Ltotal -->
<g id="node1" class="node">
<title>Ltotal</title>
<polygon fill="none" stroke="red" stroke-dasharray="5,2" points="58,-94.25 0,-94.25 0,-69 58,-69 58,-94.25"/>
<text text-anchor="middle" x="29" y="-76.95" font-family="Times,serif" font-size="14.00" fill="red">Ltotal</text>
</g>
<!-- TofData -->
<g id="node4" class="node">
<title>TofData</title>
<polygon fill="none" stroke="black" points="207.25,-33 78.75,-33 78.75,0 207.25,0 207.25,-33"/>
<text text-anchor="start" x="115.25" y="-16.7" font-family="Times,serif" font-size="14.00">TofData</text>
<text text-anchor="start" x="86.75" y="-5.55" font-family="Times,serif" font-size="11.00">via:</text>
<text text-anchor="start" x="107" y="-5.55" font-family="Times,serif" font-style="italic" font-size="11.00">to_time_of_flight</text>
</g>
<!-- Ltotal&#45;&gt;TofData -->
<g id="edge3" class="edge">
<title>Ltotal&#45;&gt;TofData</title>
<path fill="none" stroke="black" d="M50.71,-68.6C65.9,-60.19 86.61,-48.73 104.56,-38.79"/>
<polygon fill="black" stroke="black" points="106.09,-41.94 113.14,-34.03 102.7,-35.81 106.09,-41.94"/>
</g>
<!-- TimeOfFlightOrigin -->
<g id="node2" class="node">
<title>TimeOfFlightOrigin</title>
<polygon fill="none" stroke="red" stroke-dasharray="5,2" points="220.75,-94.25 65.25,-94.25 65.25,-69 220.75,-69 220.75,-94.25"/>
<text text-anchor="middle" x="143" y="-76.95" font-family="Times,serif" font-size="14.00" fill="red">TimeOfFlightOrigin</text>
</g>
<!-- TimeOfFlightOrigin&#45;&gt;TofData -->
<g id="edge2" class="edge">
<title>TimeOfFlightOrigin&#45;&gt;TofData</title>
<path fill="none" stroke="black" d="M143,-68.75C143,-61.95 143,-53.13 143,-44.72"/>
<polygon fill="black" stroke="black" points="146.5,-44.89 143,-34.89 139.5,-44.89 146.5,-44.89"/>
</g>
<!-- UnwrappedData -->
<g id="node3" class="node">
<title>UnwrappedData</title>
<polygon fill="none" stroke="red" stroke-dasharray="5,2" points="360.5,-94.25 227.5,-94.25 227.5,-69 360.5,-69 360.5,-94.25"/>
<text text-anchor="middle" x="294" y="-76.95" font-family="Times,serif" font-size="14.00" fill="red">UnwrappedData</text>
</g>
<!-- UnwrappedData&#45;&gt;TofData -->
<g id="edge1" class="edge">
<title>UnwrappedData&#45;&gt;TofData</title>
<path fill="none" stroke="black" d="M265.24,-68.6C244.45,-59.91 215.85,-47.95 191.54,-37.79"/>
<polygon fill="black" stroke="black" points="193.05,-34.63 182.47,-34 190.35,-41.09 193.05,-34.63"/>
</g>
</g>
</svg>
