<?xml version="1.0" encoding="utf-8" standalone="no"?>
<!DOCTYPE svg PUBLIC "-//W3C//DTD SVG 1.1//EN"
  "http://www.w3.org/Graphics/SVG/1.1/DTD/svg11.dtd">
<svg xmlns:xlink="http://www.w3.org/1999/xlink" width="401.509466pt" height="266.51625pt" viewBox="0 0 401.509466 266.51625" xmlns="http://www.w3.org/2000/svg" version="1.1">
 <metadata>
  <rdf:RDF xmlns:dc="http://purl.org/dc/elements/1.1/" xmlns:cc="http://creativecommons.org/ns#" xmlns:rdf="http://www.w3.org/1999/02/22-rdf-syntax-ns#">
   <cc:Work>
    <dc:type rdf:resource="http://purl.org/dc/dcmitype/StillImage"/>
    <dc:date>2024-12-12T12:31:04.540704</dc:date>
    <dc:format>image/svg+xml</dc:format>
    <dc:creator>
     <cc:Agent>
      <dc:title>Matplotlib v3.7.3, https://matplotlib.org/</dc:title>
     </cc:Agent>
    </dc:creator>
   </cc:Work>
  </rdf:RDF>
 </metadata>
 <defs>
  <style type="text/css">*{stroke-linejoin: round; stroke-linecap: butt}</style>
 </defs>
 <g id="figure_1">
  <g id="patch_1">
   <path d="M 0 266.51625 
L 401.509466 266.51625 
L 401.509466 0 
L 0 0 
z
" style="fill: #ffffff"/>
  </g>
  <g id="axes_1">
   <g id="patch_2">
    <path d="M 53.328125 228.96 
L 388.128125 228.96 
L 388.128125 7.2 
L 53.328125 7.2 
z
" style="fill: #ffffff"/>
   </g>
   <g id="matplotlib.axis_1">
    <g id="xtick_1">
     <g id="line2d_1">
      <defs>
       <path id="mc4be801716" d="M 0 0 
L 0 3.5 
" style="stroke: #000000; stroke-width: 0.8"/>
      </defs>
      <g>
       <use xlink:href="#mc4be801716" x="73.15508" y="228.96" style="stroke: #000000; stroke-width: 0.8"/>
      </g>
     </g>
     <g id="text_1">
      <!-- 20000 -->
      <g transform="translate(57.24883 243.558437) scale(0.1 -0.1)">
       <defs>
        <path id="DejaVuSans-32" d="M 1228 531 
L 3431 531 
L 3431 0 
L 469 0 
L 469 531 
Q 828 903 1448 1529 
Q 2069 2156 2228 2338 
Q 2531 2678 2651 2914 
Q 2772 3150 2772 3378 
Q 2772 3750 2511 3984 
Q 2250 4219 1831 4219 
Q 1534 4219 1204 4116 
Q 875 4013 500 3803 
L 500 4441 
Q 881 4594 1212 4672 
Q 1544 4750 1819 4750 
Q 2544 4750 2975 4387 
Q 3406 4025 3406 3419 
Q 3406 3131 3298 2873 
Q 3191 2616 2906 2266 
Q 2828 2175 2409 1742 
Q 1991 1309 1228 531 
z
" transform="scale(0.015625)"/>
        <path id="DejaVuSans-30" d="M 2034 4250 
Q 1547 4250 1301 3770 
Q 1056 3291 1056 2328 
Q 1056 1369 1301 889 
Q 1547 409 2034 409 
Q 2525 409 2770 889 
Q 3016 1369 3016 2328 
Q 3016 3291 2770 3770 
Q 2525 4250 2034 4250 
z
M 2034 4750 
Q 2819 4750 3233 4129 
Q 3647 3509 3647 2328 
Q 3647 1150 3233 529 
Q 2819 -91 2034 -91 
Q 1250 -91 836 529 
Q 422 1150 422 2328 
Q 422 3509 836 4129 
Q 1250 4750 2034 4750 
z
" transform="scale(0.015625)"/>
       </defs>
       <use xlink:href="#DejaVuSans-32"/>
       <use xlink:href="#DejaVuSans-30" x="63.623047"/>
       <use xlink:href="#DejaVuSans-30" x="127.246094"/>
       <use xlink:href="#DejaVuSans-30" x="190.869141"/>
       <use xlink:href="#DejaVuSans-30" x="254.492188"/>
      </g>
     </g>
    </g>
    <g id="xtick_2">
     <g id="line2d_2">
      <g>
       <use xlink:href="#mc4be801716" x="116.761957" y="228.96" style="stroke: #000000; stroke-width: 0.8"/>
      </g>
     </g>
     <g id="text_2">
      <!-- 30000 -->
      <g transform="translate(100.855707 243.558437) scale(0.1 -0.1)">
       <defs>
        <path id="DejaVuSans-33" d="M 2597 2516 
Q 3050 2419 3304 2112 
Q 3559 1806 3559 1356 
Q 3559 666 3084 287 
Q 2609 -91 1734 -91 
Q 1441 -91 1130 -33 
Q 819 25 488 141 
L 488 750 
Q 750 597 1062 519 
Q 1375 441 1716 441 
Q 2309 441 2620 675 
Q 2931 909 2931 1356 
Q 2931 1769 2642 2001 
Q 2353 2234 1838 2234 
L 1294 2234 
L 1294 2753 
L 1863 2753 
Q 2328 2753 2575 2939 
Q 2822 3125 2822 3475 
Q 2822 3834 2567 4026 
Q 2313 4219 1838 4219 
Q 1578 4219 1281 4162 
Q 984 4106 628 3988 
L 628 4550 
Q 988 4650 1302 4700 
Q 1616 4750 1894 4750 
Q 2613 4750 3031 4423 
Q 3450 4097 3450 3541 
Q 3450 3153 3228 2886 
Q 3006 2619 2597 2516 
z
" transform="scale(0.015625)"/>
       </defs>
       <use xlink:href="#DejaVuSans-33"/>
       <use xlink:href="#DejaVuSans-30" x="63.623047"/>
       <use xlink:href="#DejaVuSans-30" x="127.246094"/>
       <use xlink:href="#DejaVuSans-30" x="190.869141"/>
       <use xlink:href="#DejaVuSans-30" x="254.492188"/>
      </g>
     </g>
    </g>
    <g id="xtick_3">
     <g id="line2d_3">
      <g>
       <use xlink:href="#mc4be801716" x="160.368833" y="228.96" style="stroke: #000000; stroke-width: 0.8"/>
      </g>
     </g>
     <g id="text_3">
      <!-- 40000 -->
      <g transform="translate(144.462583 243.558437) scale(0.1 -0.1)">
       <defs>
        <path id="DejaVuSans-34" d="M 2419 4116 
L 825 1625 
L 2419 1625 
L 2419 4116 
z
M 2253 4666 
L 3047 4666 
L 3047 1625 
L 3713 1625 
L 3713 1100 
L 3047 1100 
L 3047 0 
L 2419 0 
L 2419 1100 
L 313 1100 
L 313 1709 
L 2253 4666 
z
" transform="scale(0.015625)"/>
       </defs>
       <use xlink:href="#DejaVuSans-34"/>
       <use xlink:href="#DejaVuSans-30" x="63.623047"/>
       <use xlink:href="#DejaVuSans-30" x="127.246094"/>
       <use xlink:href="#DejaVuSans-30" x="190.869141"/>
       <use xlink:href="#DejaVuSans-30" x="254.492188"/>
      </g>
     </g>
    </g>
    <g id="xtick_4">
     <g id="line2d_4">
      <g>
       <use xlink:href="#mc4be801716" x="203.97571" y="228.96" style="stroke: #000000; stroke-width: 0.8"/>
      </g>
     </g>
     <g id="text_4">
      <!-- 50000 -->
      <g transform="translate(188.06946 243.558437) scale(0.1 -0.1)">
       <defs>
        <path id="DejaVuSans-35" d="M 691 4666 
L 3169 4666 
L 3169 4134 
L 1269 4134 
L 1269 2991 
Q 1406 3038 1543 3061 
Q 1681 3084 1819 3084 
Q 2600 3084 3056 2656 
Q 3513 2228 3513 1497 
Q 3513 744 3044 326 
Q 2575 -91 1722 -91 
Q 1428 -91 1123 -41 
Q 819 9 494 109 
L 494 744 
Q 775 591 1075 516 
Q 1375 441 1709 441 
Q 2250 441 2565 725 
Q 2881 1009 2881 1497 
Q 2881 1984 2565 2268 
Q 2250 2553 1709 2553 
Q 1456 2553 1204 2497 
Q 953 2441 691 2322 
L 691 4666 
z
" transform="scale(0.015625)"/>
       </defs>
       <use xlink:href="#DejaVuSans-35"/>
       <use xlink:href="#DejaVuSans-30" x="63.623047"/>
       <use xlink:href="#DejaVuSans-30" x="127.246094"/>
       <use xlink:href="#DejaVuSans-30" x="190.869141"/>
       <use xlink:href="#DejaVuSans-30" x="254.492188"/>
      </g>
     </g>
    </g>
    <g id="xtick_5">
     <g id="line2d_5">
      <g>
       <use xlink:href="#mc4be801716" x="247.582586" y="228.96" style="stroke: #000000; stroke-width: 0.8"/>
      </g>
     </g>
     <g id="text_5">
      <!-- 60000 -->
      <g transform="translate(231.676336 243.558437) scale(0.1 -0.1)">
       <defs>
        <path id="DejaVuSans-36" d="M 2113 2584 
Q 1688 2584 1439 2293 
Q 1191 2003 1191 1497 
Q 1191 994 1439 701 
Q 1688 409 2113 409 
Q 2538 409 2786 701 
Q 3034 994 3034 1497 
Q 3034 2003 2786 2293 
Q 2538 2584 2113 2584 
z
M 3366 4563 
L 3366 3988 
Q 3128 4100 2886 4159 
Q 2644 4219 2406 4219 
Q 1781 4219 1451 3797 
Q 1122 3375 1075 2522 
Q 1259 2794 1537 2939 
Q 1816 3084 2150 3084 
Q 2853 3084 3261 2657 
Q 3669 2231 3669 1497 
Q 3669 778 3244 343 
Q 2819 -91 2113 -91 
Q 1303 -91 875 529 
Q 447 1150 447 2328 
Q 447 3434 972 4092 
Q 1497 4750 2381 4750 
Q 2619 4750 2861 4703 
Q 3103 4656 3366 4563 
z
" transform="scale(0.015625)"/>
       </defs>
       <use xlink:href="#DejaVuSans-36"/>
       <use xlink:href="#DejaVuSans-30" x="63.623047"/>
       <use xlink:href="#DejaVuSans-30" x="127.246094"/>
       <use xlink:href="#DejaVuSans-30" x="190.869141"/>
       <use xlink:href="#DejaVuSans-30" x="254.492188"/>
      </g>
     </g>
    </g>
    <g id="xtick_6">
     <g id="line2d_6">
      <g>
       <use xlink:href="#mc4be801716" x="291.189463" y="228.96" style="stroke: #000000; stroke-width: 0.8"/>
      </g>
     </g>
     <g id="text_6">
      <!-- 70000 -->
      <g transform="translate(275.283213 243.558437) scale(0.1 -0.1)">
       <defs>
        <path id="DejaVuSans-37" d="M 525 4666 
L 3525 4666 
L 3525 4397 
L 1831 0 
L 1172 0 
L 2766 4134 
L 525 4134 
L 525 4666 
z
" transform="scale(0.015625)"/>
       </defs>
       <use xlink:href="#DejaVuSans-37"/>
       <use xlink:href="#DejaVuSans-30" x="63.623047"/>
       <use xlink:href="#DejaVuSans-30" x="127.246094"/>
       <use xlink:href="#DejaVuSans-30" x="190.869141"/>
       <use xlink:href="#DejaVuSans-30" x="254.492188"/>
      </g>
     </g>
    </g>
    <g id="xtick_7">
     <g id="line2d_7">
      <g>
       <use xlink:href="#mc4be801716" x="334.79634" y="228.96" style="stroke: #000000; stroke-width: 0.8"/>
      </g>
     </g>
     <g id="text_7">
      <!-- 80000 -->
      <g transform="translate(318.89009 243.558437) scale(0.1 -0.1)">
       <defs>
        <path id="DejaVuSans-38" d="M 2034 2216 
Q 1584 2216 1326 1975 
Q 1069 1734 1069 1313 
Q 1069 891 1326 650 
Q 1584 409 2034 409 
Q 2484 409 2743 651 
Q 3003 894 3003 1313 
Q 3003 1734 2745 1975 
Q 2488 2216 2034 2216 
z
M 1403 2484 
Q 997 2584 770 2862 
Q 544 3141 544 3541 
Q 544 4100 942 4425 
Q 1341 4750 2034 4750 
Q 2731 4750 3128 4425 
Q 3525 4100 3525 3541 
Q 3525 3141 3298 2862 
Q 3072 2584 2669 2484 
Q 3125 2378 3379 2068 
Q 3634 1759 3634 1313 
Q 3634 634 3220 271 
Q 2806 -91 2034 -91 
Q 1263 -91 848 271 
Q 434 634 434 1313 
Q 434 1759 690 2068 
Q 947 2378 1403 2484 
z
M 1172 3481 
Q 1172 3119 1398 2916 
Q 1625 2713 2034 2713 
Q 2441 2713 2670 2916 
Q 2900 3119 2900 3481 
Q 2900 3844 2670 4047 
Q 2441 4250 2034 4250 
Q 1625 4250 1398 4047 
Q 1172 3844 1172 3481 
z
" transform="scale(0.015625)"/>
       </defs>
       <use xlink:href="#DejaVuSans-38"/>
       <use xlink:href="#DejaVuSans-30" x="63.623047"/>
       <use xlink:href="#DejaVuSans-30" x="127.246094"/>
       <use xlink:href="#DejaVuSans-30" x="190.869141"/>
       <use xlink:href="#DejaVuSans-30" x="254.492188"/>
      </g>
     </g>
    </g>
    <g id="xtick_8">
     <g id="line2d_8">
      <g>
       <use xlink:href="#mc4be801716" x="378.403216" y="228.96" style="stroke: #000000; stroke-width: 0.8"/>
      </g>
     </g>
     <g id="text_8">
      <!-- 90000 -->
      <g transform="translate(362.496966 243.558437) scale(0.1 -0.1)">
       <defs>
        <path id="DejaVuSans-39" d="M 703 97 
L 703 672 
Q 941 559 1184 500 
Q 1428 441 1663 441 
Q 2288 441 2617 861 
Q 2947 1281 2994 2138 
Q 2813 1869 2534 1725 
Q 2256 1581 1919 1581 
Q 1219 1581 811 2004 
Q 403 2428 403 3163 
Q 403 3881 828 4315 
Q 1253 4750 1959 4750 
Q 2769 4750 3195 4129 
Q 3622 3509 3622 2328 
Q 3622 1225 3098 567 
Q 2575 -91 1691 -91 
Q 1453 -91 1209 -44 
Q 966 3 703 97 
z
M 1959 2075 
Q 2384 2075 2632 2365 
Q 2881 2656 2881 3163 
Q 2881 3666 2632 3958 
Q 2384 4250 1959 4250 
Q 1534 4250 1286 3958 
Q 1038 3666 1038 3163 
Q 1038 2656 1286 2365 
Q 1534 2075 1959 2075 
z
" transform="scale(0.015625)"/>
       </defs>
       <use xlink:href="#DejaVuSans-39"/>
       <use xlink:href="#DejaVuSans-30" x="63.623047"/>
       <use xlink:href="#DejaVuSans-30" x="127.246094"/>
       <use xlink:href="#DejaVuSans-30" x="190.869141"/>
       <use xlink:href="#DejaVuSans-30" x="254.492188"/>
      </g>
     </g>
    </g>
    <g id="text_9">
     <!-- tof [µs] -->
     <g transform="translate(202.671875 257.236562) scale(0.1 -0.1)">
      <defs>
       <path id="DejaVuSans-74" d="M 1172 4494 
L 1172 3500 
L 2356 3500 
L 2356 3053 
L 1172 3053 
L 1172 1153 
Q 1172 725 1289 603 
Q 1406 481 1766 481 
L 2356 481 
L 2356 0 
L 1766 0 
Q 1100 0 847 248 
Q 594 497 594 1153 
L 594 3053 
L 172 3053 
L 172 3500 
L 594 3500 
L 594 4494 
L 1172 4494 
z
" transform="scale(0.015625)"/>
       <path id="DejaVuSans-6f" d="M 1959 3097 
Q 1497 3097 1228 2736 
Q 959 2375 959 1747 
Q 959 1119 1226 758 
Q 1494 397 1959 397 
Q 2419 397 2687 759 
Q 2956 1122 2956 1747 
Q 2956 2369 2687 2733 
Q 2419 3097 1959 3097 
z
M 1959 3584 
Q 2709 3584 3137 3096 
Q 3566 2609 3566 1747 
Q 3566 888 3137 398 
Q 2709 -91 1959 -91 
Q 1206 -91 779 398 
Q 353 888 353 1747 
Q 353 2609 779 3096 
Q 1206 3584 1959 3584 
z
" transform="scale(0.015625)"/>
       <path id="DejaVuSans-66" d="M 2375 4863 
L 2375 4384 
L 1825 4384 
Q 1516 4384 1395 4259 
Q 1275 4134 1275 3809 
L 1275 3500 
L 2222 3500 
L 2222 3053 
L 1275 3053 
L 1275 0 
L 697 0 
L 697 3053 
L 147 3053 
L 147 3500 
L 697 3500 
L 697 3744 
Q 697 4328 969 4595 
Q 1241 4863 1831 4863 
L 2375 4863 
z
" transform="scale(0.015625)"/>
       <path id="DejaVuSans-20" transform="scale(0.015625)"/>
       <path id="DejaVuSans-5b" d="M 550 4863 
L 1875 4863 
L 1875 4416 
L 1125 4416 
L 1125 -397 
L 1875 -397 
L 1875 -844 
L 550 -844 
L 550 4863 
z
" transform="scale(0.015625)"/>
       <path id="DejaVuSans-b5" d="M 544 -1331 
L 544 3500 
L 1119 3500 
L 1119 1325 
Q 1119 872 1334 640 
Q 1550 409 1972 409 
Q 2434 409 2667 671 
Q 2900 934 2900 1459 
L 2900 3500 
L 3475 3500 
L 3475 806 
Q 3475 619 3529 530 
Q 3584 441 3700 441 
Q 3728 441 3778 458 
Q 3828 475 3916 513 
L 3916 50 
Q 3788 -22 3673 -56 
Q 3559 -91 3450 -91 
Q 3234 -91 3106 31 
Q 2978 153 2931 403 
Q 2775 156 2548 32 
Q 2322 -91 2016 -91 
Q 1697 -91 1473 31 
Q 1250 153 1119 397 
L 1119 -1331 
L 544 -1331 
z
" transform="scale(0.015625)"/>
       <path id="DejaVuSans-73" d="M 2834 3397 
L 2834 2853 
Q 2591 2978 2328 3040 
Q 2066 3103 1784 3103 
Q 1356 3103 1142 2972 
Q 928 2841 928 2578 
Q 928 2378 1081 2264 
Q 1234 2150 1697 2047 
L 1894 2003 
Q 2506 1872 2764 1633 
Q 3022 1394 3022 966 
Q 3022 478 2636 193 
Q 2250 -91 1575 -91 
Q 1294 -91 989 -36 
Q 684 19 347 128 
L 347 722 
Q 666 556 975 473 
Q 1284 391 1588 391 
Q 1994 391 2212 530 
Q 2431 669 2431 922 
Q 2431 1156 2273 1281 
Q 2116 1406 1581 1522 
L 1381 1569 
Q 847 1681 609 1914 
Q 372 2147 372 2553 
Q 372 3047 722 3315 
Q 1072 3584 1716 3584 
Q 2034 3584 2315 3537 
Q 2597 3491 2834 3397 
z
" transform="scale(0.015625)"/>
       <path id="DejaVuSans-5d" d="M 1947 4863 
L 1947 -844 
L 622 -844 
L 622 -397 
L 1369 -397 
L 1369 4416 
L 622 4416 
L 622 4863 
L 1947 4863 
z
" transform="scale(0.015625)"/>
      </defs>
      <use xlink:href="#DejaVuSans-74"/>
      <use xlink:href="#DejaVuSans-6f" x="39.208984"/>
      <use xlink:href="#DejaVuSans-66" x="100.390625"/>
      <use xlink:href="#DejaVuSans-20" x="135.595703"/>
      <use xlink:href="#DejaVuSans-5b" x="167.382812"/>
      <use xlink:href="#DejaVuSans-b5" x="206.396484"/>
      <use xlink:href="#DejaVuSans-73" x="270.019531"/>
      <use xlink:href="#DejaVuSans-5d" x="322.119141"/>
     </g>
    </g>
   </g>
   <g id="matplotlib.axis_2">
    <g id="ytick_1">
     <g id="line2d_9">
      <defs>
       <path id="mfc2742e153" d="M 0 0 
L -3.5 0 
" style="stroke: #000000; stroke-width: 0.8"/>
      </defs>
      <g>
       <use xlink:href="#mfc2742e153" x="53.328125" y="219.599358" style="stroke: #000000; stroke-width: 0.8"/>
      </g>
     </g>
     <g id="text_10">
      <!-- 0 -->
      <g transform="translate(39.965625 223.398576) scale(0.1 -0.1)">
       <use xlink:href="#DejaVuSans-30"/>
      </g>
     </g>
    </g>
    <g id="ytick_2">
     <g id="line2d_10">
      <g>
       <use xlink:href="#mfc2742e153" x="53.328125" y="183.631472" style="stroke: #000000; stroke-width: 0.8"/>
      </g>
     </g>
     <g id="text_11">
      <!-- 200 -->
      <g transform="translate(27.240625 187.430691) scale(0.1 -0.1)">
       <use xlink:href="#DejaVuSans-32"/>
       <use xlink:href="#DejaVuSans-30" x="63.623047"/>
       <use xlink:href="#DejaVuSans-30" x="127.246094"/>
      </g>
     </g>
    </g>
    <g id="ytick_3">
     <g id="line2d_11">
      <g>
       <use xlink:href="#mfc2742e153" x="53.328125" y="147.663586" style="stroke: #000000; stroke-width: 0.8"/>
      </g>
     </g>
     <g id="text_12">
      <!-- 400 -->
      <g transform="translate(27.240625 151.462805) scale(0.1 -0.1)">
       <use xlink:href="#DejaVuSans-34"/>
       <use xlink:href="#DejaVuSans-30" x="63.623047"/>
       <use xlink:href="#DejaVuSans-30" x="127.246094"/>
      </g>
     </g>
    </g>
    <g id="ytick_4">
     <g id="line2d_12">
      <g>
       <use xlink:href="#mfc2742e153" x="53.328125" y="111.6957" style="stroke: #000000; stroke-width: 0.8"/>
      </g>
     </g>
     <g id="text_13">
      <!-- 600 -->
      <g transform="translate(27.240625 115.494919) scale(0.1 -0.1)">
       <use xlink:href="#DejaVuSans-36"/>
       <use xlink:href="#DejaVuSans-30" x="63.623047"/>
       <use xlink:href="#DejaVuSans-30" x="127.246094"/>
      </g>
     </g>
    </g>
    <g id="ytick_5">
     <g id="line2d_13">
      <g>
       <use xlink:href="#mfc2742e153" x="53.328125" y="75.727814" style="stroke: #000000; stroke-width: 0.8"/>
      </g>
     </g>
     <g id="text_14">
      <!-- 800 -->
      <g transform="translate(27.240625 79.527033) scale(0.1 -0.1)">
       <use xlink:href="#DejaVuSans-38"/>
       <use xlink:href="#DejaVuSans-30" x="63.623047"/>
       <use xlink:href="#DejaVuSans-30" x="127.246094"/>
      </g>
     </g>
    </g>
    <g id="ytick_6">
     <g id="line2d_14">
      <g>
       <use xlink:href="#mfc2742e153" x="53.328125" y="39.759929" style="stroke: #000000; stroke-width: 0.8"/>
      </g>
     </g>
     <g id="text_15">
      <!-- 1000 -->
      <g transform="translate(20.878125 43.559147) scale(0.1 -0.1)">
       <defs>
        <path id="DejaVuSans-31" d="M 794 531 
L 1825 531 
L 1825 4091 
L 703 3866 
L 703 4441 
L 1819 4666 
L 2450 4666 
L 2450 531 
L 3481 531 
L 3481 0 
L 794 0 
L 794 531 
z
" transform="scale(0.015625)"/>
       </defs>
       <use xlink:href="#DejaVuSans-31"/>
       <use xlink:href="#DejaVuSans-30" x="63.623047"/>
       <use xlink:href="#DejaVuSans-30" x="127.246094"/>
       <use xlink:href="#DejaVuSans-30" x="190.869141"/>
      </g>
     </g>
    </g>
    <g id="text_16">
     <!-- [counts] -->
     <g transform="translate(14.798438 138.6925) rotate(-90) scale(0.1 -0.1)">
      <defs>
       <path id="DejaVuSans-63" d="M 3122 3366 
L 3122 2828 
Q 2878 2963 2633 3030 
Q 2388 3097 2138 3097 
Q 1578 3097 1268 2742 
Q 959 2388 959 1747 
Q 959 1106 1268 751 
Q 1578 397 2138 397 
Q 2388 397 2633 464 
Q 2878 531 3122 666 
L 3122 134 
Q 2881 22 2623 -34 
Q 2366 -91 2075 -91 
Q 1284 -91 818 406 
Q 353 903 353 1747 
Q 353 2603 823 3093 
Q 1294 3584 2113 3584 
Q 2378 3584 2631 3529 
Q 2884 3475 3122 3366 
z
" transform="scale(0.015625)"/>
       <path id="DejaVuSans-75" d="M 544 1381 
L 544 3500 
L 1119 3500 
L 1119 1403 
Q 1119 906 1312 657 
Q 1506 409 1894 409 
Q 2359 409 2629 706 
Q 2900 1003 2900 1516 
L 2900 3500 
L 3475 3500 
L 3475 0 
L 2900 0 
L 2900 538 
Q 2691 219 2414 64 
Q 2138 -91 1772 -91 
Q 1169 -91 856 284 
Q 544 659 544 1381 
z
M 1991 3584 
L 1991 3584 
z
" transform="scale(0.015625)"/>
       <path id="DejaVuSans-6e" d="M 3513 2113 
L 3513 0 
L 2938 0 
L 2938 2094 
Q 2938 2591 2744 2837 
Q 2550 3084 2163 3084 
Q 1697 3084 1428 2787 
Q 1159 2491 1159 1978 
L 1159 0 
L 581 0 
L 581 3500 
L 1159 3500 
L 1159 2956 
Q 1366 3272 1645 3428 
Q 1925 3584 2291 3584 
Q 2894 3584 3203 3211 
Q 3513 2838 3513 2113 
z
" transform="scale(0.015625)"/>
      </defs>
      <use xlink:href="#DejaVuSans-5b"/>
      <use xlink:href="#DejaVuSans-63" x="39.013672"/>
      <use xlink:href="#DejaVuSans-6f" x="93.994141"/>
      <use xlink:href="#DejaVuSans-75" x="155.175781"/>
      <use xlink:href="#DejaVuSans-6e" x="218.554688"/>
      <use xlink:href="#DejaVuSans-74" x="281.933594"/>
      <use xlink:href="#DejaVuSans-73" x="321.142578"/>
      <use xlink:href="#DejaVuSans-5d" x="373.242188"/>
     </g>
    </g>
   </g>
   <g id="patch_3">
    <path d="M 53.328125 228.96 
L 53.328125 7.2 
" style="fill: none; stroke: #000000; stroke-width: 0.8; stroke-linejoin: miter; stroke-linecap: square"/>
   </g>
   <g id="patch_4">
    <path d="M 388.128125 228.96 
L 388.128125 7.2 
" style="fill: none; stroke: #000000; stroke-width: 0.8; stroke-linejoin: miter; stroke-linecap: square"/>
   </g>
   <g id="patch_5">
    <path d="M 53.328125 228.96 
L 388.128125 228.96 
" style="fill: none; stroke: #000000; stroke-width: 0.8; stroke-linejoin: miter; stroke-linecap: square"/>
   </g>
   <g id="patch_6">
    <path d="M 53.328125 7.2 
L 388.128125 7.2 
" style="fill: none; stroke: #000000; stroke-width: 0.8; stroke-linejoin: miter; stroke-linecap: square"/>
   </g>
   <g id="line2d_15">
    <path d="M 68.546307 218.160642 
L 69.560852 218.160642 
L 69.560852 214.923533 
L 70.575398 214.923533 
L 70.575398 209.888029 
L 71.589943 209.888029 
L 71.589943 206.650919 
L 72.604489 206.650919 
L 72.604489 204.492846 
L 73.619034 204.492846 
L 73.619034 202.154933 
L 74.63358 202.154933 
L 74.63358 197.479108 
L 75.648125 197.479108 
L 75.648125 190.285531 
L 76.66267 190.285531 
L 76.66267 185.789545 
L 77.677216 185.789545 
L 77.677216 178.595968 
L 78.691761 178.595968 
L 78.691761 173.200785 
L 79.706307 173.200785 
L 79.706307 163.489456 
L 80.720852 163.489456 
L 80.720852 154.677324 
L 81.735398 154.677324 
L 81.735398 146.58455 
L 82.749943 146.58455 
L 82.749943 126.082855 
L 83.764489 126.082855 
L 83.764489 110.256985 
L 84.779034 110.256985 
L 84.779034 92.093202 
L 85.79358 92.093202 
L 85.79358 79.684282 
L 86.808125 79.684282 
L 86.808125 57.923711 
L 87.82267 57.923711 
L 87.82267 48.212382 
L 88.837216 48.212382 
L 88.837216 39.939768 
L 89.851761 39.939768 
L 89.851761 31.307475 
L 90.866307 31.307475 
L 90.866307 32.206673 
L 91.880852 32.206673 
L 91.880852 18.538876 
L 92.895398 18.538876 
L 92.895398 28.969563 
L 93.909943 28.969563 
L 93.909943 17.28 
L 94.924489 17.28 
L 94.924489 24.653417 
L 95.939034 24.653417 
L 95.939034 31.667154 
L 96.95358 31.667154 
L 96.95358 28.969563 
L 97.968125 28.969563 
L 97.968125 40.119607 
L 98.98267 40.119607 
L 98.98267 36.16314 
L 99.997216 36.16314 
L 99.997216 44.795433 
L 101.011761 44.795433 
L 101.011761 56.844674 
L 102.026307 56.844674 
L 102.026307 52.888207 
L 103.040852 52.888207 
L 103.040852 57.564032 
L 104.055398 57.564032 
L 104.055398 63.139054 
L 105.069943 63.139054 
L 105.069943 59.542266 
L 106.084489 59.542266 
L 106.084489 75.547975 
L 107.099034 75.547975 
L 107.099034 67.275361 
L 108.11358 67.275361 
L 108.11358 77.526209 
L 109.128125 77.526209 
L 109.128125 73.210062 
L 110.14267 73.210062 
L 110.14267 84.719786 
L 111.157216 84.719786 
L 111.157216 88.316574 
L 112.171761 88.316574 
L 112.171761 88.676253 
L 113.186307 88.676253 
L 113.186307 95.150473 
L 114.200852 95.150473 
L 114.200852 98.207743 
L 115.215398 98.207743 
L 115.215398 102.523889 
L 116.229943 102.523889 
L 116.229943 103.243247 
L 117.244489 103.243247 
L 117.244489 107.739233 
L 118.259034 107.739233 
L 118.259034 114.393292 
L 119.27358 114.393292 
L 119.27358 108.818269 
L 120.288125 108.818269 
L 120.288125 110.976343 
L 121.30267 110.976343 
L 121.30267 113.853773 
L 122.317216 113.853773 
L 122.317216 143.527279 
L 123.331761 143.527279 
L 123.331761 181.833078 
L 124.346307 181.833078 
L 124.346307 208.808992 
L 125.360852 208.808992 
L 125.360852 210.787226 
L 126.375398 210.787226 
L 126.375398 208.269474 
L 127.389943 208.269474 
L 127.389943 201.615415 
L 128.404489 201.615415 
L 128.404489 202.334773 
L 129.419034 202.334773 
L 129.419034 197.838787 
L 130.43358 197.838787 
L 130.43358 196.220232 
L 131.448125 196.220232 
L 131.448125 188.487136 
L 132.46267 188.487136 
L 132.46267 185.070187 
L 133.477216 185.070187 
L 133.477216 177.157252 
L 134.491761 177.157252 
L 134.491761 174.999179 
L 135.506307 174.999179 
L 135.506307 175.358858 
L 136.520852 175.358858 
L 136.520852 162.410419 
L 137.535398 162.410419 
L 137.535398 163.129777 
L 138.549943 163.129777 
L 138.549943 159.892667 
L 139.564489 159.892667 
L 139.564489 153.598287 
L 140.579034 153.598287 
L 140.579034 157.195076 
L 141.59358 157.195076 
L 141.59358 158.813631 
L 142.608125 158.813631 
L 142.608125 151.620054 
L 143.62267 151.620054 
L 143.62267 151.440214 
L 144.637216 151.440214 
L 144.637216 153.957966 
L 145.651761 153.957966 
L 145.651761 155.9362 
L 146.666307 155.9362 
L 146.666307 152.87893 
L 147.680852 152.87893 
L 147.680852 158.633791 
L 148.695398 158.633791 
L 148.695398 156.655558 
L 149.709943 156.655558 
L 149.709943 162.23058 
L 150.724489 162.23058 
L 150.724489 164.388653 
L 151.739034 164.388653 
L 151.739034 162.410419 
L 152.75358 162.410419 
L 152.75358 164.388653 
L 153.768125 164.388653 
L 153.768125 164.748332 
L 154.78267 164.748332 
L 154.78267 168.34512 
L 155.797216 168.34512 
L 155.797216 171.76207 
L 156.811761 171.76207 
L 156.811761 163.669295 
L 157.826307 163.669295 
L 157.826307 172.661267 
L 158.840852 172.661267 
L 158.840852 172.481427 
L 159.855398 172.481427 
L 159.855398 171.941909 
L 160.869943 171.941909 
L 160.869943 169.064478 
L 161.884489 169.064478 
L 161.884489 168.884639 
L 162.899034 168.884639 
L 162.899034 174.459661 
L 163.91358 174.459661 
L 163.91358 177.696771 
L 164.928125 177.696771 
L 164.928125 182.192756 
L 165.94267 182.192756 
L 165.94267 181.653238 
L 166.957216 181.653238 
L 166.957216 178.05645 
L 167.971761 178.05645 
L 167.971761 182.372596 
L 168.986307 182.372596 
L 168.986307 183.271793 
L 170.000852 183.271793 
L 170.000852 182.012917 
L 171.015398 182.012917 
L 171.015398 183.451632 
L 172.029943 183.451632 
L 172.029943 195.680714 
L 173.044489 195.680714 
L 173.044489 205.751722 
L 174.059034 205.751722 
L 174.059034 214.204175 
L 175.07358 214.204175 
L 175.07358 214.024335 
L 176.088125 214.024335 
L 176.088125 214.923533 
L 177.10267 214.923533 
L 177.10267 212.405781 
L 178.117216 212.405781 
L 178.117216 211.866262 
L 179.131761 211.866262 
L 179.131761 209.34851 
L 180.146307 209.34851 
L 180.146307 208.629153 
L 181.160852 208.629153 
L 181.160852 203.593649 
L 182.175398 203.593649 
L 182.175398 204.852525 
L 183.189943 204.852525 
L 183.189943 203.953327 
L 184.204489 203.953327 
L 184.204489 200.176699 
L 185.219034 200.176699 
L 185.219034 198.378305 
L 186.23358 198.378305 
L 186.23358 196.040393 
L 187.248125 196.040393 
L 187.248125 195.141195 
L 188.26267 195.141195 
L 188.26267 198.198466 
L 189.277216 198.198466 
L 189.277216 196.579911 
L 190.291761 196.579911 
L 190.291761 192.983122 
L 191.306307 192.983122 
L 191.306307 197.299269 
L 192.320852 197.299269 
L 192.320852 194.062159 
L 193.335398 194.062159 
L 193.335398 193.70248 
L 194.349943 193.70248 
L 194.349943 194.781517 
L 196.379034 194.781517 
L 196.379034 194.421838 
L 197.39358 194.421838 
L 197.39358 193.52264 
L 198.408125 193.52264 
L 198.408125 193.882319 
L 200.437216 193.882319 
L 200.437216 196.93959 
L 201.451761 196.93959 
L 201.451761 199.097663 
L 202.466307 199.097663 
L 202.466307 195.860553 
L 203.480852 195.860553 
L 203.480852 200.356539 
L 204.495398 200.356539 
L 204.495398 199.457342 
L 205.509943 199.457342 
L 205.509943 197.299269 
L 206.524489 197.299269 
L 206.524489 198.198466 
L 207.539034 198.198466 
L 207.539034 199.097663 
L 208.55358 199.097663 
L 208.55358 201.615415 
L 209.568125 201.615415 
L 209.568125 203.953327 
L 210.58267 203.953327 
L 210.58267 203.773488 
L 211.597216 203.773488 
L 211.597216 202.334773 
L 212.611761 202.334773 
L 212.611761 201.075897 
L 213.626307 201.075897 
L 213.626307 202.334773 
L 214.640852 202.334773 
L 214.640852 203.23397 
L 215.655398 203.23397 
L 215.655398 202.334773 
L 216.669943 202.334773 
L 216.669943 201.255736 
L 217.684489 201.255736 
L 217.684489 201.795254 
L 218.699034 201.795254 
L 218.699034 202.154933 
L 219.71358 202.154933 
L 219.71358 205.571882 
L 220.728125 205.571882 
L 220.728125 205.931561 
L 221.74267 205.931561 
L 221.74267 209.708189 
L 222.757216 209.708189 
L 222.757216 214.204175 
L 223.771761 214.204175 
L 223.771761 217.621124 
L 224.786307 217.621124 
L 224.786307 217.980803 
L 225.800852 217.980803 
L 225.800852 216.002569 
L 226.815398 216.002569 
L 226.815398 217.441285 
L 227.829943 217.441285 
L 227.829943 216.002569 
L 228.844489 216.002569 
L 228.844489 213.844496 
L 229.859034 213.844496 
L 229.859034 212.765459 
L 230.87358 212.765459 
L 230.87358 212.405781 
L 231.888125 212.405781 
L 231.888125 212.046102 
L 232.90267 212.046102 
L 232.90267 210.967065 
L 233.917216 210.967065 
L 233.917216 208.629153 
L 234.931761 208.629153 
L 234.931761 208.449313 
L 236.960852 208.449313 
L 236.960852 209.34851 
L 237.975398 209.34851 
L 237.975398 210.787226 
L 238.989943 210.787226 
L 238.989943 209.34851 
L 240.004489 209.34851 
L 240.004489 208.449313 
L 241.019034 208.449313 
L 241.019034 210.787226 
L 242.03358 210.787226 
L 242.03358 207.010598 
L 243.048125 207.010598 
L 243.048125 207.550116 
L 244.06267 207.550116 
L 244.06267 209.34851 
L 245.077216 209.34851 
L 245.077216 208.629153 
L 246.091761 208.629153 
L 246.091761 207.729955 
L 247.106307 207.729955 
L 247.106307 210.067868 
L 248.120852 210.067868 
L 248.120852 209.52835 
L 249.135398 209.52835 
L 249.135398 210.247707 
L 250.149943 210.247707 
L 250.149943 210.067868 
L 251.164489 210.067868 
L 251.164489 207.909795 
L 252.179034 207.909795 
L 252.179034 207.550116 
L 253.19358 207.550116 
L 253.19358 209.168671 
L 254.208125 209.168671 
L 254.208125 209.34851 
L 255.22267 209.34851 
L 255.22267 208.808992 
L 256.237216 208.808992 
L 256.237216 211.686423 
L 257.251761 211.686423 
L 257.251761 210.247707 
L 258.266307 210.247707 
L 258.266307 211.686423 
L 259.280852 211.686423 
L 259.280852 212.405781 
L 260.295398 212.405781 
L 260.295398 209.168671 
L 261.309943 209.168671 
L 261.309943 211.506583 
L 262.324489 211.506583 
L 262.324489 211.326744 
L 263.339034 211.326744 
L 263.339034 211.146905 
L 264.35358 211.146905 
L 264.35358 212.225941 
L 265.368125 212.225941 
L 265.368125 210.967065 
L 266.38267 210.967065 
L 266.38267 211.146905 
L 267.397216 211.146905 
L 267.397216 210.967065 
L 268.411761 210.967065 
L 268.411761 212.225941 
L 269.426307 212.225941 
L 269.426307 212.405781 
L 270.440852 212.405781 
L 270.440852 212.58562 
L 271.455398 212.58562 
L 271.455398 212.225941 
L 272.469943 212.225941 
L 272.469943 217.441285 
L 273.484489 217.441285 
L 273.484489 218.700161 
L 274.499034 218.700161 
L 274.499034 218.88 
L 275.51358 218.88 
L 275.51358 218.700161 
L 276.528125 218.700161 
L 276.528125 217.441285 
L 277.54267 217.441285 
L 277.54267 216.721927 
L 278.557216 216.721927 
L 278.557216 216.362248 
L 279.571761 216.362248 
L 279.571761 216.901766 
L 280.586307 216.901766 
L 280.586307 215.463051 
L 281.600852 215.463051 
L 281.600852 215.64289 
L 282.615398 215.64289 
L 282.615398 216.542087 
L 283.629943 216.542087 
L 283.629943 214.923533 
L 284.644489 214.923533 
L 284.644489 214.024335 
L 285.659034 214.024335 
L 285.659034 213.125138 
L 286.67358 213.125138 
L 286.67358 216.362248 
L 287.688125 216.362248 
L 287.688125 213.304978 
L 289.717216 213.304978 
L 289.717216 212.765459 
L 290.731761 212.765459 
L 290.731761 215.463051 
L 291.746307 215.463051 
L 291.746307 214.204175 
L 292.760852 214.204175 
L 292.760852 213.304978 
L 293.775398 213.304978 
L 293.775398 213.844496 
L 296.819034 213.844496 
L 296.819034 213.664657 
L 297.83358 213.664657 
L 297.83358 216.002569 
L 298.848125 216.002569 
L 298.848125 213.484817 
L 299.86267 213.484817 
L 299.86267 214.743693 
L 300.877216 214.743693 
L 300.877216 213.844496 
L 301.891761 213.844496 
L 301.891761 214.743693 
L 302.906307 214.743693 
L 302.906307 213.304978 
L 303.920852 213.304978 
L 303.920852 214.923533 
L 304.935398 214.923533 
L 304.935398 216.002569 
L 305.949943 216.002569 
L 305.949943 214.384014 
L 306.964489 214.384014 
L 306.964489 215.283211 
L 307.979034 215.283211 
L 307.979034 214.024335 
L 308.99358 214.024335 
L 308.99358 216.901766 
L 310.008125 216.901766 
L 310.008125 215.82273 
L 311.02267 215.82273 
L 311.02267 214.384014 
L 312.037216 214.384014 
L 312.037216 216.002569 
L 313.051761 216.002569 
L 313.051761 215.103372 
L 314.066307 215.103372 
L 314.066307 214.204175 
L 315.080852 214.204175 
L 315.080852 215.283211 
L 316.095398 215.283211 
L 316.095398 214.384014 
L 317.109943 214.384014 
L 317.109943 216.542087 
L 318.124489 216.542087 
L 318.124489 214.923533 
L 319.139034 214.923533 
L 319.139034 216.542087 
L 320.15358 216.542087 
L 320.15358 214.923533 
L 321.168125 214.923533 
L 321.168125 216.182409 
L 322.18267 216.182409 
L 322.18267 218.700161 
L 323.197216 218.700161 
L 323.197216 218.520321 
L 325.226307 218.520321 
L 325.226307 218.160642 
L 326.240852 218.160642 
L 326.240852 217.081606 
L 327.255398 217.081606 
L 327.255398 217.441285 
L 328.269943 217.441285 
L 328.269943 217.621124 
L 329.284489 217.621124 
L 329.284489 217.800963 
L 331.31358 217.800963 
L 331.31358 217.980803 
L 332.328125 217.980803 
L 332.328125 218.160642 
L 333.34267 218.160642 
L 333.34267 216.182409 
L 334.357216 216.182409 
L 334.357216 216.362248 
L 335.371761 216.362248 
L 335.371761 215.64289 
L 337.400852 215.64289 
L 337.400852 216.362248 
L 338.415398 216.362248 
L 338.415398 215.82273 
L 339.429943 215.82273 
L 339.429943 217.441285 
L 340.444489 217.441285 
L 340.444489 216.542087 
L 341.459034 216.542087 
L 341.459034 216.182409 
L 342.47358 216.182409 
L 342.47358 215.103372 
L 343.488125 215.103372 
L 343.488125 216.002569 
L 345.517216 216.002569 
L 345.517216 216.542087 
L 346.531761 216.542087 
L 346.531761 217.261445 
L 347.546307 217.261445 
L 347.546307 216.002569 
L 348.560852 216.002569 
L 348.560852 217.441285 
L 349.575398 217.441285 
L 349.575398 216.721927 
L 350.589943 216.721927 
L 350.589943 217.081606 
L 355.66267 217.081606 
L 355.66267 217.621124 
L 356.677216 217.621124 
L 356.677216 218.160642 
L 357.691761 218.160642 
L 357.691761 217.261445 
L 358.706307 217.261445 
L 358.706307 218.160642 
L 359.720852 218.160642 
L 359.720852 216.362248 
L 360.735398 216.362248 
L 360.735398 217.081606 
L 361.749943 217.081606 
L 361.749943 217.441285 
L 362.764489 217.441285 
L 362.764489 216.182409 
L 363.779034 216.182409 
L 363.779034 216.901766 
L 364.79358 216.901766 
L 364.79358 216.542087 
L 365.808125 216.542087 
L 365.808125 217.261445 
L 366.82267 217.261445 
L 366.82267 218.160642 
L 367.837216 218.160642 
L 367.837216 216.901766 
L 368.851761 216.901766 
L 368.851761 217.980803 
L 369.866307 217.980803 
L 369.866307 217.621124 
L 370.880852 217.621124 
L 370.880852 218.160642 
L 371.895398 218.160642 
L 371.895398 218.340482 
L 372.909943 218.340482 
L 372.909943 218.340482 
" clip-path="url(#p09aeae3b0d)" style="fill: none; stroke: #1f77b4; stroke-width: 1.5; stroke-linecap: square"/>
   </g>
  </g>
 </g>
 <defs>
  <clipPath id="p09aeae3b0d">
   <rect x="53.328125" y="7.2" width="334.8" height="221.76"/>
  </clipPath>
 </defs>
</svg>
