<?xml version="1.0" encoding="UTF-8" standalone="no"?>
<!DOCTYPE svg PUBLIC "-//W3C//DTD SVG 1.1//EN"
 "http://www.w3.org/Graphics/SVG/1.1/DTD/svg11.dtd">
<!-- Generated by graphviz version 12.0.0 (20240803.0821)
 -->
<!-- Pages: 1 -->
<svg width="876pt" height="516pt"
 viewBox="0.00 0.00 875.62 516.25" xmlns="http://www.w3.org/2000/svg" xmlns:xlink="http://www.w3.org/1999/xlink">
<g id="graph0" class="graph" transform="scale(1 1) rotate(0) translate(4 512.25)">
<polygon fill="white" stroke="none" points="-4,4 -4,-512.25 871.62,-512.25 871.62,4 -4,4"/>
<!-- SourceWavelengthRange -->
<g id="node1" class="node">
<title>SourceWavelengthRange</title>
<polygon fill="none" stroke="black" points="373.62,-508.25 179.12,-508.25 179.12,-483 373.62,-483 373.62,-508.25"/>
<text text-anchor="middle" x="276.38" y="-490.95" font-family="Times,serif" font-size="14.00">SourceWavelengthRange</text>
</g>
<!-- ChopperCascadeFrames -->
<g id="node2" class="node">
<title>ChopperCascadeFrames</title>
<polygon fill="none" stroke="black" points="532.38,-447 342.38,-447 342.38,-414 532.38,-414 532.38,-447"/>
<text text-anchor="start" x="350.38" y="-430.7" font-family="Times,serif" font-size="14.00">ChopperCascadeFrames</text>
<text text-anchor="start" x="357.5" y="-419.55" font-family="Times,serif" font-size="11.00">via:</text>
<text text-anchor="start" x="377.75" y="-419.55" font-family="Times,serif" font-style="italic" font-size="11.00">chopper_cascade_frames</text>
</g>
<!-- SourceWavelengthRange&#45;&gt;ChopperCascadeFrames -->
<g id="edge1" class="edge">
<title>SourceWavelengthRange&#45;&gt;ChopperCascadeFrames</title>
<path fill="none" stroke="black" d="M307.04,-482.6C329.41,-473.83 360.25,-461.74 386.31,-451.52"/>
<polygon fill="black" stroke="black" points="387.34,-454.88 395.37,-447.97 384.78,-448.36 387.34,-454.88"/>
</g>
<!-- FrameAtDetector -->
<g id="node7" class="node">
<title>FrameAtDetector</title>
<polygon fill="none" stroke="black" points="487.62,-378 347.12,-378 347.12,-345 487.62,-345 487.62,-378"/>
<text text-anchor="start" x="355.12" y="-361.7" font-family="Times,serif" font-size="14.00">FrameAtDetector</text>
<text text-anchor="start" x="356.25" y="-350.55" font-family="Times,serif" font-size="11.00">via:</text>
<text text-anchor="start" x="376.5" y="-350.55" font-family="Times,serif" font-style="italic" font-size="11.00">frame_at_detector</text>
</g>
<!-- ChopperCascadeFrames&#45;&gt;FrameAtDetector -->
<g id="edge6" class="edge">
<title>ChopperCascadeFrames&#45;&gt;FrameAtDetector</title>
<path fill="none" stroke="black" d="M432.64,-413.62C430.44,-406.28 427.78,-397.36 425.3,-389.04"/>
<polygon fill="black" stroke="black" points="428.73,-388.3 422.51,-379.71 422.02,-390.3 428.73,-388.3"/>
</g>
<!-- SourceTimeRange -->
<g id="node3" class="node">
<title>SourceTimeRange</title>
<polygon fill="none" stroke="black" points="526.25,-508.25 380.5,-508.25 380.5,-483 526.25,-483 526.25,-508.25"/>
<text text-anchor="middle" x="453.38" y="-490.95" font-family="Times,serif" font-size="14.00">SourceTimeRange</text>
</g>
<!-- SourceTimeRange&#45;&gt;ChopperCascadeFrames -->
<g id="edge2" class="edge">
<title>SourceTimeRange&#45;&gt;ChopperCascadeFrames</title>
<path fill="none" stroke="black" d="M450.37,-482.75C448.62,-475.88 446.35,-466.93 444.2,-458.43"/>
<polygon fill="black" stroke="black" points="447.62,-457.67 441.77,-448.84 440.83,-459.39 447.62,-457.67"/>
</g>
<!-- Choppers -->
<g id="node4" class="node">
<title>Choppers</title>
<polygon fill="none" stroke="black" points="172.5,-508.25 88.25,-508.25 88.25,-483 172.5,-483 172.5,-508.25"/>
<text text-anchor="middle" x="130.38" y="-490.95" font-family="Times,serif" font-size="14.00">Choppers</text>
</g>
<!-- Choppers&#45;&gt;ChopperCascadeFrames -->
<g id="edge3" class="edge">
<title>Choppers&#45;&gt;ChopperCascadeFrames</title>
<path fill="none" stroke="black" d="M172.96,-483.78C174.11,-483.51 175.25,-483.25 176.38,-483 229.99,-470.94 290.15,-458.97 339.18,-449.61"/>
<polygon fill="black" stroke="black" points="339.77,-453.06 348.94,-447.75 338.47,-446.18 339.77,-453.06"/>
</g>
<!-- PulseStride -->
<g id="node5" class="node">
<title>PulseStride</title>
<polygon fill="none" stroke="black" points="633,-508.25 533.75,-508.25 533.75,-483 633,-483 633,-508.25"/>
<text text-anchor="middle" x="583.38" y="-490.95" font-family="Times,serif" font-size="14.00">PulseStride</text>
</g>
<!-- PulseStride&#45;&gt;ChopperCascadeFrames -->
<g id="edge4" class="edge">
<title>PulseStride&#45;&gt;ChopperCascadeFrames</title>
<path fill="none" stroke="black" d="M555.57,-482.6C535.55,-473.95 508.06,-462.06 484.63,-451.93"/>
<polygon fill="black" stroke="black" points="486.15,-448.77 475.58,-448.02 483.37,-455.2 486.15,-448.77"/>
</g>
<!-- FramePeriod -->
<g id="node9" class="node">
<title>FramePeriod</title>
<polygon fill="none" stroke="black" points="654.62,-447 544.12,-447 544.12,-414 654.62,-414 654.62,-447"/>
<text text-anchor="start" x="553.25" y="-430.7" font-family="Times,serif" font-size="14.00">FramePeriod</text>
<text text-anchor="start" x="552.12" y="-419.55" font-family="Times,serif" font-size="11.00">via:</text>
<text text-anchor="start" x="572.38" y="-419.55" font-family="Times,serif" font-style="italic" font-size="11.00">frame_period</text>
</g>
<!-- PulseStride&#45;&gt;FramePeriod -->
<g id="edge11" class="edge">
<title>PulseStride&#45;&gt;FramePeriod</title>
<path fill="none" stroke="black" d="M586.38,-482.75C588.13,-475.88 590.4,-466.93 592.55,-458.43"/>
<polygon fill="black" stroke="black" points="595.92,-459.39 594.98,-448.84 589.13,-457.67 595.92,-459.39"/>
</g>
<!-- PulsePeriod -->
<g id="node6" class="node">
<title>PulsePeriod</title>
<polygon fill="none" stroke="black" points="740.75,-508.25 640,-508.25 640,-483 740.75,-483 740.75,-508.25"/>
<text text-anchor="middle" x="690.38" y="-490.95" font-family="Times,serif" font-size="14.00">PulsePeriod</text>
</g>
<!-- PulsePeriod&#45;&gt;ChopperCascadeFrames -->
<g id="edge5" class="edge">
<title>PulsePeriod&#45;&gt;ChopperCascadeFrames</title>
<path fill="none" stroke="black" d="M641.89,-482.53C605.28,-473.39 554.35,-460.69 512.48,-450.24"/>
<polygon fill="black" stroke="black" points="513.51,-446.89 502.96,-447.86 511.81,-453.68 513.51,-446.89"/>
</g>
<!-- PulsePeriod&#45;&gt;FramePeriod -->
<g id="edge10" class="edge">
<title>PulsePeriod&#45;&gt;FramePeriod</title>
<path fill="none" stroke="black" d="M673.26,-482.75C661.55,-474.63 645.65,-463.6 631.61,-453.86"/>
<polygon fill="black" stroke="black" points="633.71,-451.06 623.5,-448.24 629.72,-456.81 633.71,-451.06"/>
</g>
<!-- UnwrappedTimeOfArrival -->
<g id="node18" class="node">
<title>UnwrappedTimeOfArrival</title>
<polygon fill="none" stroke="black" points="820.25,-309 620.5,-309 620.5,-276 820.25,-276 820.25,-309"/>
<text text-anchor="start" x="628.5" y="-292.7" font-family="Times,serif" font-size="14.00">UnwrappedTimeOfArrival</text>
<text text-anchor="start" x="634.5" y="-281.55" font-family="Times,serif" font-size="11.00">via:</text>
<text text-anchor="start" x="654.75" y="-281.55" font-family="Times,serif" font-style="italic" font-size="11.00">unwrapped_time_of_arrival</text>
</g>
<!-- PulsePeriod&#45;&gt;UnwrappedTimeOfArrival -->
<g id="edge23" class="edge">
<title>PulsePeriod&#45;&gt;UnwrappedTimeOfArrival</title>
<path fill="none" stroke="black" d="M701.59,-482.55C719.24,-462.61 752.82,-420.73 765.38,-378 769.51,-363.93 770.53,-358.73 765.38,-345 761.58,-334.88 754.79,-325.44 747.61,-317.48"/>
<polygon fill="black" stroke="black" points="750.34,-315.27 740.86,-310.55 745.33,-320.15 750.34,-315.27"/>
</g>
<!-- FrameAtDetectorStartTime -->
<g id="node10" class="node">
<title>FrameAtDetectorStartTime</title>
<polygon fill="none" stroke="black" points="523.62,-309 311.12,-309 311.12,-276 523.62,-276 523.62,-309"/>
<text text-anchor="start" x="319.12" y="-292.7" font-family="Times,serif" font-size="14.00">FrameAtDetectorStartTime</text>
<text text-anchor="start" x="324.75" y="-281.55" font-family="Times,serif" font-size="11.00">via:</text>
<text text-anchor="start" x="345" y="-281.55" font-family="Times,serif" font-style="italic" font-size="11.00">frame_at_detector_start_time</text>
</g>
<!-- FrameAtDetector&#45;&gt;FrameAtDetectorStartTime -->
<g id="edge9" class="edge">
<title>FrameAtDetector&#45;&gt;FrameAtDetectorStartTime</title>
<path fill="none" stroke="black" d="M417.38,-344.62C417.38,-337.45 417.38,-328.76 417.38,-320.6"/>
<polygon fill="black" stroke="black" points="420.88,-320.78 417.38,-310.78 413.88,-320.78 420.88,-320.78"/>
</g>
<!-- TimeOfArrivalToTimeOfFlight -->
<g id="node15" class="node">
<title>TimeOfArrivalToTimeOfFlight</title>
<polygon fill="none" stroke="black" points="268.75,-240 0,-240 0,-207 268.75,-207 268.75,-240"/>
<text text-anchor="start" x="28.62" y="-223.7" font-family="Times,serif" font-size="14.00">TimeOfArrivalToTimeOfFlight</text>
<text text-anchor="start" x="8" y="-212.55" font-family="Times,serif" font-size="11.00">via:</text>
<text text-anchor="start" x="28.25" y="-212.55" font-family="Times,serif" font-style="italic" font-size="11.00">relation_between_time_of_arrival_and_tof</text>
</g>
<!-- FrameAtDetector&#45;&gt;TimeOfArrivalToTimeOfFlight -->
<g id="edge14" class="edge">
<title>FrameAtDetector&#45;&gt;TimeOfArrivalToTimeOfFlight</title>
<path fill="none" stroke="black" d="M383.12,-344.64C361.38,-334.53 332.68,-321.1 307.38,-309 262.69,-287.63 211.78,-262.69 176.82,-245.47"/>
<polygon fill="black" stroke="black" points="178.38,-242.34 167.86,-241.06 175.28,-248.62 178.38,-242.34"/>
</g>
<!-- Ltotal -->
<g id="node8" class="node">
<title>Ltotal</title>
<polygon fill="none" stroke="black" points="335.38,-443.12 277.38,-443.12 277.38,-417.88 335.38,-417.88 335.38,-443.12"/>
<text text-anchor="middle" x="306.38" y="-425.82" font-family="Times,serif" font-size="14.00">Ltotal</text>
</g>
<!-- Ltotal&#45;&gt;FrameAtDetector -->
<g id="edge7" class="edge">
<title>Ltotal&#45;&gt;FrameAtDetector</title>
<path fill="none" stroke="black" d="M326.22,-417.52C341.48,-408.31 362.97,-395.34 381.26,-384.3"/>
<polygon fill="black" stroke="black" points="382.97,-387.35 389.73,-379.19 379.36,-381.36 382.97,-387.35"/>
</g>
<!-- Ltotal&#45;&gt;TimeOfArrivalToTimeOfFlight -->
<g id="edge16" class="edge">
<title>Ltotal&#45;&gt;TimeOfArrivalToTimeOfFlight</title>
<path fill="none" stroke="black" d="M296.38,-417.59C268.94,-384.88 191.98,-293.16 154.88,-248.94"/>
<polygon fill="black" stroke="black" points="157.68,-246.84 148.58,-241.42 152.32,-251.34 157.68,-246.84"/>
</g>
<!-- FramePeriod&#45;&gt;FrameAtDetector -->
<g id="edge8" class="edge">
<title>FramePeriod&#45;&gt;FrameAtDetector</title>
<path fill="none" stroke="black" d="M556.24,-413.62C530.82,-404.26 498.42,-392.34 471.31,-382.36"/>
<polygon fill="black" stroke="black" points="472.84,-379.19 462.25,-379.02 470.42,-385.76 472.84,-379.19"/>
</g>
<!-- TimeOfArrivalMinusStartTimeModuloPeriod -->
<g id="node14" class="node">
<title>TimeOfArrivalMinusStartTimeModuloPeriod</title>
<polygon fill="none" stroke="black" points="692.25,-171 360.5,-171 360.5,-138 692.25,-138 692.25,-171"/>
<text text-anchor="start" x="368.5" y="-154.7" font-family="Times,serif" font-size="14.00">TimeOfArrivalMinusStartTimeModuloPeriod</text>
<text text-anchor="start" x="379.38" y="-143.55" font-family="Times,serif" font-size="11.00">via:</text>
<text text-anchor="start" x="399.62" y="-143.55" font-family="Times,serif" font-style="italic" font-size="11.00">time_of_arrival_minus_start_time_modulo_period</text>
</g>
<!-- FramePeriod&#45;&gt;TimeOfArrivalMinusStartTimeModuloPeriod -->
<g id="edge13" class="edge">
<title>FramePeriod&#45;&gt;TimeOfArrivalMinusStartTimeModuloPeriod</title>
<path fill="none" stroke="black" d="M601.9,-413.66C608.73,-368.92 625.76,-242.54 606.38,-207 599.57,-194.53 588.31,-184.62 576.35,-176.97"/>
<polygon fill="black" stroke="black" points="578.39,-174.11 567.99,-172.07 574.85,-180.15 578.39,-174.11"/>
</g>
<!-- UnwrappedTimeOfArrivalMinusStartTime -->
<g id="node13" class="node">
<title>UnwrappedTimeOfArrivalMinusStartTime</title>
<polygon fill="none" stroke="black" points="603.38,-240 275.38,-240 275.38,-207 603.38,-207 603.38,-240"/>
<text text-anchor="start" x="289.38" y="-223.7" font-family="Times,serif" font-size="14.00">UnwrappedTimeOfArrivalMinusStartTime</text>
<text text-anchor="start" x="283.38" y="-212.55" font-family="Times,serif" font-size="11.00">via:</text>
<text text-anchor="start" x="303.62" y="-212.55" font-family="Times,serif" font-style="italic" font-size="11.00">unwrapped_time_of_arrival_minus_frame_start_time</text>
</g>
<!-- FrameAtDetectorStartTime&#45;&gt;UnwrappedTimeOfArrivalMinusStartTime -->
<g id="edge25" class="edge">
<title>FrameAtDetectorStartTime&#45;&gt;UnwrappedTimeOfArrivalMinusStartTime</title>
<path fill="none" stroke="black" d="M422.59,-275.62C425,-268.28 427.93,-259.36 430.66,-251.04"/>
<polygon fill="black" stroke="black" points="433.93,-252.29 433.73,-241.7 427.28,-250.11 433.93,-252.29"/>
</g>
<!-- FrameAtDetectorStartTime&#45;&gt;TimeOfArrivalToTimeOfFlight -->
<g id="edge15" class="edge">
<title>FrameAtDetectorStartTime&#45;&gt;TimeOfArrivalToTimeOfFlight</title>
<path fill="none" stroke="black" d="M349.95,-275.54C308.74,-265.78 255.86,-253.26 212.79,-243.06"/>
<polygon fill="black" stroke="black" points="213.78,-239.7 203.25,-240.81 212.17,-246.52 213.78,-239.7"/>
</g>
<!-- PulseStrideOffset -->
<g id="node11" class="node">
<title>PulseStrideOffset</title>
<polygon fill="none" stroke="black" points="762.38,-374.12 620.38,-374.12 620.38,-348.88 762.38,-348.88 762.38,-374.12"/>
<text text-anchor="middle" x="691.38" y="-356.82" font-family="Times,serif" font-size="14.00">PulseStrideOffset</text>
</g>
<!-- PulseStrideOffset&#45;&gt;UnwrappedTimeOfArrival -->
<g id="edge22" class="edge">
<title>PulseStrideOffset&#45;&gt;UnwrappedTimeOfArrival</title>
<path fill="none" stroke="black" d="M696.56,-348.52C700.05,-340.45 704.8,-329.49 709.13,-319.47"/>
<polygon fill="black" stroke="black" points="712.24,-321.11 713,-310.55 705.81,-318.33 712.24,-321.11"/>
</g>
<!-- RawData -->
<g id="node12" class="node">
<title>RawData</title>
<polygon fill="none" stroke="black" points="867.62,-374.12 787.12,-374.12 787.12,-348.88 867.62,-348.88 867.62,-374.12"/>
<text text-anchor="middle" x="827.38" y="-356.82" font-family="Times,serif" font-size="14.00">RawData</text>
</g>
<!-- TofData -->
<g id="node17" class="node">
<title>TofData</title>
<polygon fill="none" stroke="black" points="743.38,-33 601.38,-33 601.38,0 743.38,0 743.38,-33"/>
<text text-anchor="start" x="644.62" y="-16.7" font-family="Times,serif" font-size="14.00">TofData</text>
<text text-anchor="start" x="609.38" y="-5.55" font-family="Times,serif" font-size="11.00">via:</text>
<text text-anchor="start" x="629.62" y="-5.55" font-family="Times,serif" font-style="italic" font-size="11.00">time_of_flight_data</text>
</g>
<!-- RawData&#45;&gt;TofData -->
<g id="edge19" class="edge">
<title>RawData&#45;&gt;TofData</title>
<path fill="none" stroke="black" d="M827.97,-348.5C829.08,-324.8 831.38,-270.33 831.38,-224.5 831.38,-224.5 831.38,-224.5 831.38,-153.5 831.38,-97.22 773.14,-59.25 727.15,-38.04"/>
<polygon fill="black" stroke="black" points="728.61,-34.86 718.05,-34 725.77,-41.26 728.61,-34.86"/>
</g>
<!-- RawData&#45;&gt;UnwrappedTimeOfArrival -->
<g id="edge21" class="edge">
<title>RawData&#45;&gt;UnwrappedTimeOfArrival</title>
<path fill="none" stroke="black" d="M808.25,-348.52C793.54,-339.31 772.82,-326.34 755.19,-315.3"/>
<polygon fill="black" stroke="black" points="757.39,-312.55 747.06,-310.21 753.68,-318.48 757.39,-312.55"/>
</g>
<!-- UnwrappedTimeOfArrivalMinusStartTime&#45;&gt;TimeOfArrivalMinusStartTimeModuloPeriod -->
<g id="edge12" class="edge">
<title>UnwrappedTimeOfArrivalMinusStartTime&#45;&gt;TimeOfArrivalMinusStartTimeModuloPeriod</title>
<path fill="none" stroke="black" d="M459.99,-206.62C470.96,-198.17 484.65,-187.63 496.74,-178.32"/>
<polygon fill="black" stroke="black" points="498.62,-181.29 504.4,-172.42 494.35,-175.75 498.62,-181.29"/>
</g>
<!-- TofCoord -->
<g id="node16" class="node">
<title>TofCoord</title>
<polygon fill="none" stroke="black" points="619.5,-102 433.25,-102 433.25,-69 619.5,-69 619.5,-102"/>
<text text-anchor="start" x="494.12" y="-85.7" font-family="Times,serif" font-size="14.00">TofCoord</text>
<text text-anchor="start" x="441.25" y="-74.55" font-family="Times,serif" font-size="11.00">via:</text>
<text text-anchor="start" x="461.5" y="-74.55" font-family="Times,serif" font-style="italic" font-size="11.00">time_of_flight_from_lookup</text>
</g>
<!-- TimeOfArrivalMinusStartTimeModuloPeriod&#45;&gt;TofCoord -->
<g id="edge17" class="edge">
<title>TimeOfArrivalMinusStartTimeModuloPeriod&#45;&gt;TofCoord</title>
<path fill="none" stroke="black" d="M526.38,-137.62C526.38,-130.45 526.38,-121.76 526.38,-113.6"/>
<polygon fill="black" stroke="black" points="529.88,-113.78 526.38,-103.78 522.88,-113.78 529.88,-113.78"/>
</g>
<!-- TimeOfArrivalToTimeOfFlight&#45;&gt;TofCoord -->
<g id="edge18" class="edge">
<title>TimeOfArrivalToTimeOfFlight&#45;&gt;TofCoord</title>
<path fill="none" stroke="black" d="M173.97,-206.59C218.33,-188.97 292.53,-160.14 357.38,-138 391,-126.52 428.8,-114.88 460.11,-105.58"/>
<polygon fill="black" stroke="black" points="460.85,-109.02 469.44,-102.83 458.86,-102.3 460.85,-109.02"/>
</g>
<!-- TofCoord&#45;&gt;TofData -->
<g id="edge20" class="edge">
<title>TofCoord&#45;&gt;TofData</title>
<path fill="none" stroke="black" d="M560.97,-68.62C580.74,-59.55 605.76,-48.07 627.07,-38.29"/>
<polygon fill="black" stroke="black" points="628.51,-41.48 636.14,-34.13 625.59,-35.12 628.51,-41.48"/>
</g>
<!-- UnwrappedTimeOfArrival&#45;&gt;UnwrappedTimeOfArrivalMinusStartTime -->
<g id="edge24" class="edge">
<title>UnwrappedTimeOfArrival&#45;&gt;UnwrappedTimeOfArrivalMinusStartTime</title>
<path fill="none" stroke="black" d="M653.43,-275.54C612.51,-265.78 560,-253.26 517.23,-243.06"/>
<polygon fill="black" stroke="black" points="518.31,-239.72 507.77,-240.81 516.69,-246.53 518.31,-239.72"/>
</g>
</g>
</svg>
