<?xml version="1.0" encoding="UTF-8" standalone="no"?>
<!DOCTYPE svg PUBLIC "-//W3C//DTD SVG 1.1//EN"
 "http://www.w3.org/Graphics/SVG/1.1/DTD/svg11.dtd">
<!-- Generated by graphviz version 14.0.4 (20251117.0720)
 -->
<!-- Pages: 1 -->
<svg width="190pt" height="95pt"
 viewBox="0.00 0.00 190.00 95.00" xmlns="http://www.w3.org/2000/svg" xmlns:xlink="http://www.w3.org/1999/xlink">
<g id="graph0" class="graph" transform="scale(1 1) rotate(0) translate(4 90.5)">
<polygon fill="white" stroke="none" points="-4,4 -4,-90.5 186,-90.5 186,4 -4,4"/>
<!-- tof -->
<g id="node1" class="node">
<title>tof</title>
<polygon fill="none" stroke="black" points="82.25,-86.5 28.25,-86.5 28.25,-61.25 82.25,-61.25 82.25,-86.5"/>
<text xml:space="preserve" text-anchor="middle" x="55.25" y="-69.2" font-family="Times,serif" font-size="14.00">tof</text>
</g>
<!-- wavelength -->
<g id="node2" class="node">
<title>wavelength</title>
<polygon fill="none" stroke="black" points="98.5,-25.25 0,-25.25 0,0 98.5,0 98.5,-25.25"/>
<text xml:space="preserve" text-anchor="middle" x="49.25" y="-7.95" font-family="Times,serif" font-size="14.00">wavelength</text>
</g>
<!-- tof&#45;&gt;wavelength -->
<g id="edge1" class="edge">
<title>tof&#45;&gt;wavelength</title>
<path fill="none" stroke="black" d="M54.04,-60.88C53.34,-53.98 52.43,-45.06 51.6,-36.84"/>
<polygon fill="black" stroke="black" points="55.1,-36.7 50.61,-27.1 48.14,-37.4 55.1,-36.7"/>
</g>
<!-- energy -->
<g id="node4" class="node">
<title>energy</title>
<polygon fill="none" stroke="black" points="182,-25.25 116.5,-25.25 116.5,0 182,0 182,-25.25"/>
<text xml:space="preserve" text-anchor="middle" x="149.25" y="-7.95" font-family="Times,serif" font-size="14.00">energy</text>
</g>
<!-- tof&#45;&gt;energy -->
<g id="edge3" class="edge">
<title>tof&#45;&gt;energy</title>
<path fill="none" stroke="black" d="M74.27,-60.88C87.65,-52.45 105.78,-41.02 120.87,-31.52"/>
<polygon fill="black" stroke="black" points="122.38,-34.7 128.98,-26.4 118.65,-28.78 122.38,-34.7"/>
</g>
<!-- Ltotal -->
<g id="node3" class="node">
<title>Ltotal</title>
<polygon fill="none" stroke="black" points="171.25,-86.5 113.25,-86.5 113.25,-61.25 171.25,-61.25 171.25,-86.5"/>
<text xml:space="preserve" text-anchor="middle" x="142.25" y="-69.2" font-family="Times,serif" font-size="14.00">Ltotal</text>
</g>
<!-- Ltotal&#45;&gt;wavelength -->
<g id="edge2" class="edge">
<title>Ltotal&#45;&gt;wavelength</title>
<path fill="none" stroke="black" d="M123.43,-60.88C110.19,-52.45 92.25,-41.02 77.33,-31.52"/>
<polygon fill="black" stroke="black" points="79.63,-28.83 69.32,-26.41 75.87,-34.74 79.63,-28.83"/>
</g>
<!-- Ltotal&#45;&gt;energy -->
<g id="edge4" class="edge">
<title>Ltotal&#45;&gt;energy</title>
<path fill="none" stroke="black" d="M143.67,-60.88C144.48,-53.98 145.54,-45.06 146.51,-36.84"/>
<polygon fill="black" stroke="black" points="149.96,-37.44 147.66,-27.1 143.01,-36.62 149.96,-37.44"/>
</g>
</g>
</svg>
