<?xml version="1.0" encoding="UTF-8" standalone="no"?>
<!DOCTYPE svg PUBLIC "-//W3C//DTD SVG 1.1//EN"
 "http://www.w3.org/Graphics/SVG/1.1/DTD/svg11.dtd">
<!-- Generated by graphviz version 11.0.0 (20240519.1550)
 -->
<!-- Pages: 1 -->
<svg width="391pt" height="188pt"
 viewBox="0.00 0.00 390.50 188.00" xmlns="http://www.w3.org/2000/svg" xmlns:xlink="http://www.w3.org/1999/xlink">
<g id="graph0" class="graph" transform="scale(1 1) rotate(0) translate(4 184)">
<polygon fill="white" stroke="none" points="-4,4 -4,-184 386.5,-184 386.5,4 -4,4"/>
<!-- Ltotal -->
<g id="node1" class="node">
<title>Ltotal</title>
<polygon fill="none" stroke="red" stroke-dasharray="5,2" points="58,-180 0,-180 0,-144 58,-144 58,-180"/>
<text text-anchor="middle" x="29" y="-157.32" font-family="Times,serif" font-size="14.00" fill="red">Ltotal</text>
</g>
<!-- scippneutron.tof.unwrap.to_time_of_flight_TofData -->
<g id="node3" class="node">
<title>scippneutron.tof.unwrap.to_time_of_flight_TofData</title>
<ellipse fill="none" stroke="black" cx="154" cy="-90" rx="93.82" ry="18"/>
<text text-anchor="middle" x="154" y="-85.33" font-family="Times,serif" font-size="14.00">to_time_of_flight</text>
</g>
<!-- Ltotal&#45;&gt;scippneutron.tof.unwrap.to_time_of_flight_TofData -->
<g id="edge3" class="edge">
<title>Ltotal&#45;&gt;scippneutron.tof.unwrap.to_time_of_flight_TofData</title>
<path fill="none" stroke="black" d="M58.31,-144.59C75.03,-135.22 96.23,-123.35 114.42,-113.17"/>
<polygon fill="black" stroke="black" points="116.11,-116.23 123.12,-108.29 112.69,-110.12 116.11,-116.23"/>
</g>
<!-- TimeOfFlightOrigin -->
<g id="node2" class="node">
<title>TimeOfFlightOrigin</title>
<polygon fill="none" stroke="red" stroke-dasharray="5,2" points="231.75,-180 76.25,-180 76.25,-144 231.75,-144 231.75,-180"/>
<text text-anchor="middle" x="154" y="-157.32" font-family="Times,serif" font-size="14.00" fill="red">TimeOfFlightOrigin</text>
</g>
<!-- TimeOfFlightOrigin&#45;&gt;scippneutron.tof.unwrap.to_time_of_flight_TofData -->
<g id="edge2" class="edge">
<title>TimeOfFlightOrigin&#45;&gt;scippneutron.tof.unwrap.to_time_of_flight_TofData</title>
<path fill="none" stroke="black" d="M154,-143.7C154,-136.41 154,-127.73 154,-119.54"/>
<polygon fill="black" stroke="black" points="157.5,-119.62 154,-109.62 150.5,-119.62 157.5,-119.62"/>
</g>
<!-- TofData -->
<g id="node5" class="node">
<title>TofData</title>
<polygon fill="none" stroke="black" points="189.75,-36 118.25,-36 118.25,0 189.75,0 189.75,-36"/>
<text text-anchor="middle" x="154" y="-13.32" font-family="Times,serif" font-size="14.00">TofData</text>
</g>
<!-- scippneutron.tof.unwrap.to_time_of_flight_TofData&#45;&gt;TofData -->
<g id="edge4" class="edge">
<title>scippneutron.tof.unwrap.to_time_of_flight_TofData&#45;&gt;TofData</title>
<path fill="none" stroke="black" d="M154,-71.7C154,-64.41 154,-55.73 154,-47.54"/>
<polygon fill="black" stroke="black" points="157.5,-47.62 154,-37.62 150.5,-47.62 157.5,-47.62"/>
</g>
<!-- UnwrappedData -->
<g id="node4" class="node">
<title>UnwrappedData</title>
<polygon fill="none" stroke="red" stroke-dasharray="5,2" points="382.5,-180 249.5,-180 249.5,-144 382.5,-144 382.5,-180"/>
<text text-anchor="middle" x="316" y="-157.32" font-family="Times,serif" font-size="14.00" fill="red">UnwrappedData</text>
</g>
<!-- UnwrappedData&#45;&gt;scippneutron.tof.unwrap.to_time_of_flight_TofData -->
<g id="edge1" class="edge">
<title>UnwrappedData&#45;&gt;scippneutron.tof.unwrap.to_time_of_flight_TofData</title>
<path fill="none" stroke="black" d="M275.54,-143.52C253.03,-133.79 224.89,-121.63 201.35,-111.46"/>
<polygon fill="black" stroke="black" points="202.86,-108.3 192.29,-107.55 200.08,-114.73 202.86,-108.3"/>
</g>
</g>
</svg>
