<?xml version="1.0" encoding="UTF-8" standalone="no"?>
<!DOCTYPE svg PUBLIC "-//W3C//DTD SVG 1.1//EN"
 "http://www.w3.org/Graphics/SVG/1.1/DTD/svg11.dtd">
<!-- Generated by graphviz version 11.0.0 (20240519.1550)
 -->
<!-- Pages: 1 -->
<svg width="554pt" height="171pt"
 viewBox="0.00 0.00 554.38 171.25" xmlns="http://www.w3.org/2000/svg" xmlns:xlink="http://www.w3.org/1999/xlink">
<g id="graph0" class="graph" transform="scale(1 1) rotate(0) translate(4 167.25)">
<polygon fill="white" stroke="none" points="-4,4 -4,-167.25 550.38,-167.25 550.38,4 -4,4"/>
<!-- Choppers -->
<g id="node1" class="node">
<title>Choppers</title>
<polygon fill="none" stroke="red" stroke-dasharray="5,2" points="84.25,-163.25 0,-163.25 0,-138 84.25,-138 84.25,-163.25"/>
<text text-anchor="middle" x="42.12" y="-145.95" font-family="Times,serif" font-size="14.00" fill="red">Choppers</text>
</g>
<!-- SourceChopper -->
<g id="node2" class="node">
<title>SourceChopper</title>
<polygon fill="none" stroke="black" points="227.25,-102 101,-102 101,-69 227.25,-69 227.25,-102"/>
<text text-anchor="start" x="109" y="-85.7" font-family="Times,serif" font-size="14.00">SourceChopper</text>
<text text-anchor="start" x="110.12" y="-74.55" font-family="Times,serif" font-size="11.00">via:</text>
<text text-anchor="start" x="130.38" y="-74.55" font-family="Times,serif" font-style="italic" font-size="11.00">source_chopper</text>
</g>
<!-- Choppers&#45;&gt;SourceChopper -->
<g id="edge1" class="edge">
<title>Choppers&#45;&gt;SourceChopper</title>
<path fill="none" stroke="black" d="M65.36,-137.6C81.77,-129.11 104.19,-117.51 123.52,-107.51"/>
<polygon fill="black" stroke="black" points="124.97,-110.7 132.25,-102.99 121.76,-104.48 124.97,-110.7"/>
</g>
<!-- TimeOfFlightOrigin -->
<g id="node5" class="node">
<title>TimeOfFlightOrigin</title>
<polygon fill="none" stroke="black" points="280.12,-33 48.12,-33 48.12,0 280.12,0 280.12,-33"/>
<text text-anchor="start" x="94.38" y="-16.7" font-family="Times,serif" font-size="14.00">TimeOfFlightOrigin</text>
<text text-anchor="start" x="56.12" y="-5.55" font-family="Times,serif" font-size="11.00">via:</text>
<text text-anchor="start" x="76.38" y="-5.55" font-family="Times,serif" font-style="italic" font-size="11.00">time_of_flight_origin_from_chopper</text>
</g>
<!-- SourceChopper&#45;&gt;TimeOfFlightOrigin -->
<g id="edge4" class="edge">
<title>SourceChopper&#45;&gt;TimeOfFlightOrigin</title>
<path fill="none" stroke="black" d="M164.12,-68.62C164.12,-61.45 164.12,-52.76 164.12,-44.6"/>
<polygon fill="black" stroke="black" points="167.63,-44.78 164.13,-34.78 160.63,-44.78 167.63,-44.78"/>
</g>
<!-- SourceTimeRange -->
<g id="node3" class="node">
<title>SourceTimeRange</title>
<polygon fill="none" stroke="red" stroke-dasharray="5,2" points="237,-163.25 91.25,-163.25 91.25,-138 237,-138 237,-163.25"/>
<text text-anchor="middle" x="164.12" y="-145.95" font-family="Times,serif" font-size="14.00" fill="red">SourceTimeRange</text>
</g>
<!-- SourceTimeRange&#45;&gt;SourceChopper -->
<g id="edge2" class="edge">
<title>SourceTimeRange&#45;&gt;SourceChopper</title>
<path fill="none" stroke="black" d="M164.12,-137.75C164.12,-130.95 164.12,-122.13 164.12,-113.72"/>
<polygon fill="black" stroke="black" points="167.63,-113.89 164.13,-103.89 160.63,-113.89 167.63,-113.89"/>
</g>
<!-- Union[SourceChopperName, NoneType] -->
<g id="node4" class="node">
<title>Union[SourceChopperName, NoneType]</title>
<polygon fill="none" stroke="red" stroke-dasharray="5,2" points="546.38,-163.25 243.88,-163.25 243.88,-138 546.38,-138 546.38,-163.25"/>
<text text-anchor="middle" x="395.12" y="-145.95" font-family="Times,serif" font-size="14.00" fill="red">Union[SourceChopperName, NoneType]</text>
</g>
<!-- Union[SourceChopperName, NoneType]&#45;&gt;SourceChopper -->
<g id="edge3" class="edge">
<title>Union[SourceChopperName, NoneType]&#45;&gt;SourceChopper</title>
<path fill="none" stroke="black" d="M350.86,-137.53C317.71,-128.47 271.72,-115.9 233.68,-105.51"/>
<polygon fill="black" stroke="black" points="234.69,-102.16 224.12,-102.9 232.85,-108.91 234.69,-102.16"/>
</g>
</g>
</svg>
