<?xml version="1.0" encoding="UTF-8" standalone="no"?>
<!DOCTYPE svg PUBLIC "-//W3C//DTD SVG 1.1//EN"
 "http://www.w3.org/Graphics/SVG/1.1/DTD/svg11.dtd">
<!-- Generated by graphviz version 14.1.2 (20260126.1125)
 -->
<!-- Pages: 1 -->
<svg width="880pt" height="340pt"
 viewBox="0.00 0.00 880.00 340.00" xmlns="http://www.w3.org/2000/svg" xmlns:xlink="http://www.w3.org/1999/xlink">
<g id="graph0" class="graph" transform="scale(1 1) rotate(0) translate(4 335.5)">
<polygon fill="white" stroke="none" points="-4,4 -4,-335.5 876.38,-335.5 876.38,4 -4,4"/>
<!-- tof -->
<g id="node1" class="node">
<title>tof</title>
<polygon fill="none" stroke="black" points="379.25,-331.5 325.25,-331.5 325.25,-306.25 379.25,-306.25 379.25,-331.5"/>
<text xml:space="preserve" text-anchor="middle" x="352.25" y="-314.2" font-family="Times,serif" font-size="14.00">tof</text>
</g>
<!-- dspacing -->
<g id="node2" class="node">
<title>dspacing</title>
<polygon fill="none" stroke="black" points="117.12,-270.25 37.38,-270.25 37.38,-245 117.12,-245 117.12,-270.25"/>
<text xml:space="preserve" text-anchor="middle" x="77.25" y="-252.95" font-family="Times,serif" font-size="14.00">dspacing</text>
</g>
<!-- tof&#45;&gt;dspacing -->
<g id="edge1" class="edge">
<title>tof&#45;&gt;dspacing</title>
<path fill="none" stroke="black" d="M324.84,-308.63C321.95,-307.78 319.05,-306.96 316.25,-306.25 236.39,-285.87 212.27,-287.96 128.66,-270.68"/>
<polygon fill="black" stroke="black" points="129.58,-267.29 119.07,-268.66 128.14,-274.15 129.58,-267.29"/>
</g>
<!-- energy -->
<g id="node5" class="node">
<title>energy</title>
<polygon fill="none" stroke="black" points="348,-270.25 282.5,-270.25 282.5,-245 348,-245 348,-270.25"/>
<text xml:space="preserve" text-anchor="middle" x="315.25" y="-252.95" font-family="Times,serif" font-size="14.00">energy</text>
</g>
<!-- tof&#45;&gt;energy -->
<g id="edge4" class="edge">
<title>tof&#45;&gt;energy</title>
<path fill="none" stroke="black" d="M344.76,-305.88C340.15,-298.5 334.1,-288.81 328.68,-280.13"/>
<polygon fill="black" stroke="black" points="331.79,-278.51 323.53,-271.88 325.86,-282.22 331.79,-278.51"/>
</g>
<!-- wavelength -->
<g id="node15" class="node">
<title>wavelength</title>
<polygon fill="none" stroke="black" points="602.5,-270.25 504,-270.25 504,-245 602.5,-245 602.5,-270.25"/>
<text xml:space="preserve" text-anchor="middle" x="553.25" y="-252.95" font-family="Times,serif" font-size="14.00">wavelength</text>
</g>
<!-- tof&#45;&gt;wavelength -->
<g id="edge28" class="edge">
<title>tof&#45;&gt;wavelength</title>
<path fill="none" stroke="black" d="M379.36,-309.88C410.54,-300.69 462.44,-285.39 501.44,-273.9"/>
<polygon fill="black" stroke="black" points="502.27,-277.3 510.87,-271.12 500.29,-270.59 502.27,-277.3"/>
</g>
<!-- Ltotal -->
<g id="node3" class="node">
<title>Ltotal</title>
<polygon fill="none" stroke="black" points="307.25,-331.5 249.25,-331.5 249.25,-306.25 307.25,-306.25 307.25,-331.5"/>
<text xml:space="preserve" text-anchor="middle" x="278.25" y="-314.2" font-family="Times,serif" font-size="14.00">Ltotal</text>
</g>
<!-- Ltotal&#45;&gt;dspacing -->
<g id="edge2" class="edge">
<title>Ltotal&#45;&gt;dspacing</title>
<path fill="none" stroke="black" d="M249.02,-309.26C217.41,-299.94 166.41,-284.91 128.18,-273.64"/>
<polygon fill="black" stroke="black" points="129.3,-270.32 118.72,-270.85 127.32,-277.03 129.3,-270.32"/>
</g>
<!-- Ltotal&#45;&gt;energy -->
<g id="edge5" class="edge">
<title>Ltotal&#45;&gt;energy</title>
<path fill="none" stroke="black" d="M285.74,-305.88C290.35,-298.5 296.4,-288.81 301.82,-280.13"/>
<polygon fill="black" stroke="black" points="304.64,-282.22 306.97,-271.88 298.71,-278.51 304.64,-282.22"/>
</g>
<!-- Ltotal&#45;&gt;wavelength -->
<g id="edge29" class="edge">
<title>Ltotal&#45;&gt;wavelength</title>
<path fill="none" stroke="black" d="M307.63,-308.57C310.53,-307.75 313.44,-306.96 316.25,-306.25 318.42,-305.7 422.84,-284.76 492.33,-270.83"/>
<polygon fill="black" stroke="black" points="492.99,-274.27 502.11,-268.87 491.62,-267.4 492.99,-274.27"/>
</g>
<!-- two_theta -->
<g id="node4" class="node">
<title>two_theta</title>
<polygon fill="none" stroke="black" points="86.5,-331.5 0,-331.5 0,-306.25 86.5,-306.25 86.5,-331.5"/>
<text xml:space="preserve" text-anchor="middle" x="43.25" y="-314.2" font-family="Times,serif" font-size="14.00">two_theta</text>
</g>
<!-- two_theta&#45;&gt;dspacing -->
<g id="edge3" class="edge">
<title>two_theta&#45;&gt;dspacing</title>
<path fill="none" stroke="black" d="M50.13,-305.88C54.32,-298.58 59.81,-289.02 64.75,-280.41"/>
<polygon fill="black" stroke="black" points="67.69,-282.33 69.63,-271.91 61.61,-278.84 67.69,-282.33"/>
</g>
<!-- Q -->
<g id="node16" class="node">
<title>Q</title>
<polygon fill="none" stroke="black" points="173.25,-209 119.25,-209 119.25,-183.75 173.25,-183.75 173.25,-209"/>
<text xml:space="preserve" text-anchor="middle" x="146.25" y="-191.7" font-family="Times,serif" font-size="14.00">Q</text>
</g>
<!-- two_theta&#45;&gt;Q -->
<g id="edge15" class="edge">
<title>two_theta&#45;&gt;Q</title>
<path fill="none" stroke="black" d="M35.75,-305.97C27.13,-290.6 15.68,-263.63 28.25,-245 45.87,-218.88 80.49,-207.08 107.69,-201.76"/>
<polygon fill="black" stroke="black" points="108.06,-205.24 117.33,-200.1 106.88,-198.34 108.06,-205.24"/>
</g>
<!-- Q_vec -->
<g id="node6" class="node">
<title>Q_vec</title>
<polygon fill="none" stroke="black" points="452.25,-147.75 394.25,-147.75 394.25,-122.5 452.25,-122.5 452.25,-147.75"/>
<text xml:space="preserve" text-anchor="middle" x="423.25" y="-130.45" font-family="Times,serif" font-size="14.00">Q_vec</text>
</g>
<!-- hkl_vec -->
<g id="node7" class="node">
<title>hkl_vec</title>
<polygon fill="none" stroke="black" points="581.5,-86.5 513,-86.5 513,-61.25 581.5,-61.25 581.5,-86.5"/>
<text xml:space="preserve" text-anchor="middle" x="547.25" y="-69.2" font-family="Times,serif" font-size="14.00">hkl_vec</text>
</g>
<!-- Q_vec&#45;&gt;hkl_vec -->
<g id="edge6" class="edge">
<title>Q_vec&#45;&gt;hkl_vec</title>
<path fill="none" stroke="black" d="M448.34,-122.13C466.66,-113.38 491.74,-101.4 512.06,-91.69"/>
<polygon fill="black" stroke="black" points="513.31,-94.97 520.83,-87.5 510.3,-88.65 513.31,-94.97"/>
</g>
<!-- h -->
<g id="node10" class="node">
<title>h</title>
<polygon fill="none" stroke="black" points="502.25,-25.25 448.25,-25.25 448.25,0 502.25,0 502.25,-25.25"/>
<text xml:space="preserve" text-anchor="middle" x="475.25" y="-7.95" font-family="Times,serif" font-size="14.00">h</text>
</g>
<!-- hkl_vec&#45;&gt;h -->
<g id="edge9" class="edge">
<title>hkl_vec&#45;&gt;h</title>
<path fill="none" stroke="black" d="M532.68,-60.88C522.92,-52.85 509.86,-42.1 498.66,-32.89"/>
<polygon fill="black" stroke="black" points="500.91,-30.21 490.97,-26.56 496.46,-35.62 500.91,-30.21"/>
</g>
<!-- k -->
<g id="node11" class="node">
<title>k</title>
<polygon fill="none" stroke="black" points="574.25,-25.25 520.25,-25.25 520.25,0 574.25,0 574.25,-25.25"/>
<text xml:space="preserve" text-anchor="middle" x="547.25" y="-7.95" font-family="Times,serif" font-size="14.00">k</text>
</g>
<!-- hkl_vec&#45;&gt;k -->
<g id="edge10" class="edge">
<title>hkl_vec&#45;&gt;k</title>
<path fill="none" stroke="black" d="M547.25,-60.88C547.25,-53.98 547.25,-45.06 547.25,-36.84"/>
<polygon fill="black" stroke="black" points="550.75,-37.11 547.25,-27.11 543.75,-37.11 550.75,-37.11"/>
</g>
<!-- l -->
<g id="node12" class="node">
<title>l</title>
<polygon fill="none" stroke="black" points="646.25,-25.25 592.25,-25.25 592.25,0 646.25,0 646.25,-25.25"/>
<text xml:space="preserve" text-anchor="middle" x="619.25" y="-7.95" font-family="Times,serif" font-size="14.00">l</text>
</g>
<!-- hkl_vec&#45;&gt;l -->
<g id="edge11" class="edge">
<title>hkl_vec&#45;&gt;l</title>
<path fill="none" stroke="black" d="M561.82,-60.88C571.58,-52.85 584.64,-42.1 595.84,-32.89"/>
<polygon fill="black" stroke="black" points="598.04,-35.62 603.53,-26.56 593.59,-30.21 598.04,-35.62"/>
</g>
<!-- ub_matrix -->
<g id="node8" class="node">
<title>ub_matrix</title>
<polygon fill="none" stroke="black" points="591.25,-147.75 503.25,-147.75 503.25,-122.5 591.25,-122.5 591.25,-147.75"/>
<text xml:space="preserve" text-anchor="middle" x="547.25" y="-130.45" font-family="Times,serif" font-size="14.00">ub_matrix</text>
</g>
<!-- ub_matrix&#45;&gt;hkl_vec -->
<g id="edge7" class="edge">
<title>ub_matrix&#45;&gt;hkl_vec</title>
<path fill="none" stroke="black" d="M547.25,-122.13C547.25,-115.23 547.25,-106.31 547.25,-98.09"/>
<polygon fill="black" stroke="black" points="550.75,-98.36 547.25,-88.36 543.75,-98.36 550.75,-98.36"/>
</g>
<!-- sample_rotation -->
<g id="node9" class="node">
<title>sample_rotation</title>
<polygon fill="none" stroke="black" points="739.62,-147.75 608.88,-147.75 608.88,-122.5 739.62,-122.5 739.62,-147.75"/>
<text xml:space="preserve" text-anchor="middle" x="674.25" y="-130.45" font-family="Times,serif" font-size="14.00">sample_rotation</text>
</g>
<!-- sample_rotation&#45;&gt;hkl_vec -->
<g id="edge8" class="edge">
<title>sample_rotation&#45;&gt;hkl_vec</title>
<path fill="none" stroke="black" d="M648.55,-122.13C629.79,-113.38 604.1,-101.4 583.29,-91.69"/>
<polygon fill="black" stroke="black" points="584.83,-88.54 574.28,-87.49 581.87,-94.89 584.83,-88.54"/>
</g>
<!-- u_matrix -->
<g id="node13" class="node">
<title>u_matrix</title>
<polygon fill="none" stroke="black" points="683.75,-209 604.75,-209 604.75,-183.75 683.75,-183.75 683.75,-209"/>
<text xml:space="preserve" text-anchor="middle" x="644.25" y="-191.7" font-family="Times,serif" font-size="14.00">u_matrix</text>
</g>
<!-- u_matrix&#45;&gt;ub_matrix -->
<g id="edge12" class="edge">
<title>u_matrix&#45;&gt;ub_matrix</title>
<path fill="none" stroke="black" d="M624.62,-183.38C610.82,-174.95 592.1,-163.52 576.54,-154.02"/>
<polygon fill="black" stroke="black" points="578.5,-151.11 568.14,-148.89 574.85,-157.09 578.5,-151.11"/>
</g>
<!-- b_matrix -->
<g id="node14" class="node">
<title>b_matrix</title>
<polygon fill="none" stroke="black" points="586.75,-209 507.75,-209 507.75,-183.75 586.75,-183.75 586.75,-209"/>
<text xml:space="preserve" text-anchor="middle" x="547.25" y="-191.7" font-family="Times,serif" font-size="14.00">b_matrix</text>
</g>
<!-- b_matrix&#45;&gt;ub_matrix -->
<g id="edge13" class="edge">
<title>b_matrix&#45;&gt;ub_matrix</title>
<path fill="none" stroke="black" d="M547.25,-183.38C547.25,-176.48 547.25,-167.56 547.25,-159.34"/>
<polygon fill="black" stroke="black" points="550.75,-159.61 547.25,-149.61 543.75,-159.61 550.75,-159.61"/>
</g>
<!-- wavelength&#45;&gt;Q -->
<g id="edge14" class="edge">
<title>wavelength&#45;&gt;Q</title>
<path fill="none" stroke="black" d="M503.61,-246.47C500.79,-245.95 497.98,-245.46 495.25,-245 382.84,-226.08 249.1,-209.47 184.69,-201.83"/>
<polygon fill="black" stroke="black" points="185.33,-198.38 174.99,-200.68 184.51,-205.33 185.33,-198.38"/>
</g>
<!-- Qx -->
<g id="node17" class="node">
<title>Qx</title>
<polygon fill="none" stroke="black" points="345.25,-209 291.25,-209 291.25,-183.75 345.25,-183.75 345.25,-209"/>
<text xml:space="preserve" text-anchor="middle" x="318.25" y="-191.7" font-family="Times,serif" font-size="14.00">Qx</text>
</g>
<!-- wavelength&#45;&gt;Qx -->
<g id="edge19" class="edge">
<title>wavelength&#45;&gt;Qx</title>
<path fill="none" stroke="black" d="M503.91,-245.93C466,-237.47 412.12,-224.9 356.78,-209.58"/>
<polygon fill="black" stroke="black" points="357.73,-206.21 347.16,-206.89 355.85,-212.95 357.73,-206.21"/>
</g>
<!-- Qy -->
<g id="node18" class="node">
<title>Qy</title>
<polygon fill="none" stroke="black" points="417.25,-209 363.25,-209 363.25,-183.75 417.25,-183.75 417.25,-209"/>
<text xml:space="preserve" text-anchor="middle" x="390.25" y="-191.7" font-family="Times,serif" font-size="14.00">Qy</text>
</g>
<!-- wavelength&#45;&gt;Qy -->
<g id="edge22" class="edge">
<title>wavelength&#45;&gt;Qy</title>
<path fill="none" stroke="black" d="M520.26,-244.63C493.57,-234.93 455.97,-221.26 428.06,-211.12"/>
<polygon fill="black" stroke="black" points="429.53,-207.93 418.93,-207.8 427.14,-214.51 429.53,-207.93"/>
</g>
<!-- Qz -->
<g id="node19" class="node">
<title>Qz</title>
<polygon fill="none" stroke="black" points="489.25,-209 435.25,-209 435.25,-183.75 489.25,-183.75 489.25,-209"/>
<text xml:space="preserve" text-anchor="middle" x="462.25" y="-191.7" font-family="Times,serif" font-size="14.00">Qz</text>
</g>
<!-- wavelength&#45;&gt;Qz -->
<g id="edge25" class="edge">
<title>wavelength&#45;&gt;Qz</title>
<path fill="none" stroke="black" d="M534.83,-244.63C522.01,-236.28 504.66,-224.99 490.15,-215.54"/>
<polygon fill="black" stroke="black" points="492.2,-212.7 481.91,-210.17 488.38,-218.56 492.2,-212.7"/>
</g>
<!-- time_at_sample -->
<g id="node25" class="node">
<title>time_at_sample</title>
<polygon fill="none" stroke="black" points="828.75,-209 701.75,-209 701.75,-183.75 828.75,-183.75 828.75,-209"/>
<text xml:space="preserve" text-anchor="middle" x="765.25" y="-191.7" font-family="Times,serif" font-size="14.00">time_at_sample</text>
</g>
<!-- wavelength&#45;&gt;time_at_sample -->
<g id="edge34" class="edge">
<title>wavelength&#45;&gt;time_at_sample</title>
<path fill="none" stroke="black" d="M596.41,-244.56C629.65,-235.27 675.8,-222.37 711.45,-212.41"/>
<polygon fill="black" stroke="black" points="712.01,-215.89 720.7,-209.83 710.12,-209.15 712.01,-215.89"/>
</g>
<!-- Qx&#45;&gt;Q_vec -->
<g id="edge16" class="edge">
<title>Qx&#45;&gt;Q_vec</title>
<path fill="none" stroke="black" d="M339.5,-183.38C354.58,-174.87 375.08,-163.3 392.02,-153.74"/>
<polygon fill="black" stroke="black" points="393.73,-156.8 400.72,-148.84 390.29,-150.71 393.73,-156.8"/>
</g>
<!-- Qy&#45;&gt;Q_vec -->
<g id="edge17" class="edge">
<title>Qy&#45;&gt;Q_vec</title>
<path fill="none" stroke="black" d="M396.93,-183.38C401,-176.08 406.32,-166.52 411.12,-157.91"/>
<polygon fill="black" stroke="black" points="414.04,-159.86 415.85,-149.42 407.92,-156.45 414.04,-159.86"/>
</g>
<!-- Qz&#45;&gt;Q_vec -->
<g id="edge18" class="edge">
<title>Qz&#45;&gt;Q_vec</title>
<path fill="none" stroke="black" d="M454.36,-183.38C449.49,-176 443.12,-166.31 437.4,-157.63"/>
<polygon fill="black" stroke="black" points="440.38,-155.79 431.96,-149.36 434.54,-159.64 440.38,-155.79"/>
</g>
<!-- incident_beam -->
<g id="node20" class="node">
<title>incident_beam</title>
<polygon fill="none" stroke="black" points="486,-270.25 366.5,-270.25 366.5,-245 486,-245 486,-270.25"/>
<text xml:space="preserve" text-anchor="middle" x="426.25" y="-252.95" font-family="Times,serif" font-size="14.00">incident_beam</text>
</g>
<!-- incident_beam&#45;&gt;Qx -->
<g id="edge20" class="edge">
<title>incident_beam&#45;&gt;Qx</title>
<path fill="none" stroke="black" d="M404.39,-244.63C388.73,-236.04 367.39,-224.34 349.88,-214.72"/>
<polygon fill="black" stroke="black" points="351.85,-211.82 341.4,-210.08 348.48,-217.95 351.85,-211.82"/>
</g>
<!-- incident_beam&#45;&gt;Qy -->
<g id="edge23" class="edge">
<title>incident_beam&#45;&gt;Qy</title>
<path fill="none" stroke="black" d="M418.96,-244.63C414.52,-237.33 408.72,-227.77 403.49,-219.16"/>
<polygon fill="black" stroke="black" points="406.49,-217.37 398.31,-210.64 400.51,-221 406.49,-217.37"/>
</g>
<!-- incident_beam&#45;&gt;Qz -->
<g id="edge26" class="edge">
<title>incident_beam&#45;&gt;Qz</title>
<path fill="none" stroke="black" d="M433.54,-244.63C437.98,-237.33 443.78,-227.77 449.01,-219.16"/>
<polygon fill="black" stroke="black" points="451.99,-221 454.19,-210.64 446.01,-217.37 451.99,-221"/>
</g>
<!-- scattered_beam -->
<g id="node21" class="node">
<title>scattered_beam</title>
<polygon fill="none" stroke="black" points="264.88,-270.25 135.62,-270.25 135.62,-245 264.88,-245 264.88,-270.25"/>
<text xml:space="preserve" text-anchor="middle" x="200.25" y="-252.95" font-family="Times,serif" font-size="14.00">scattered_beam</text>
</g>
<!-- scattered_beam&#45;&gt;Qx -->
<g id="edge21" class="edge">
<title>scattered_beam&#45;&gt;Qx</title>
<path fill="none" stroke="black" d="M224.13,-244.63C241.4,-235.96 264.99,-224.12 284.23,-214.46"/>
<polygon fill="black" stroke="black" points="285.69,-217.64 293.05,-210.03 282.55,-211.39 285.69,-217.64"/>
</g>
<!-- scattered_beam&#45;&gt;Qy -->
<g id="edge24" class="edge">
<title>scattered_beam&#45;&gt;Qy</title>
<path fill="none" stroke="black" d="M239.86,-244.52C268.61,-235.71 308.73,-223.34 352.29,-209.6"/>
<polygon fill="black" stroke="black" points="353.21,-212.98 361.69,-206.63 351.1,-206.3 353.21,-212.98"/>
</g>
<!-- scattered_beam&#45;&gt;Qz -->
<g id="edge27" class="edge">
<title>scattered_beam&#45;&gt;Qz</title>
<path fill="none" stroke="black" d="M264.97,-244.85C307.73,-236.65 365.18,-224.82 423.85,-209.47"/>
<polygon fill="black" stroke="black" points="424.59,-212.89 433.36,-206.95 422.79,-206.13 424.59,-212.89"/>
</g>
<!-- event_time_zero -->
<g id="node22" class="node">
<title>event_time_zero</title>
<polygon fill="none" stroke="black" points="872.38,-331.5 740.12,-331.5 740.12,-306.25 872.38,-306.25 872.38,-331.5"/>
<text xml:space="preserve" text-anchor="middle" x="806.25" y="-314.2" font-family="Times,serif" font-size="14.00">event_time_zero</text>
</g>
<!-- toa -->
<g id="node23" class="node">
<title>toa</title>
<polygon fill="none" stroke="black" points="756.25,-270.25 702.25,-270.25 702.25,-245 756.25,-245 756.25,-270.25"/>
<text xml:space="preserve" text-anchor="middle" x="729.25" y="-252.95" font-family="Times,serif" font-size="14.00">toa</text>
</g>
<!-- event_time_zero&#45;&gt;toa -->
<g id="edge30" class="edge">
<title>event_time_zero&#45;&gt;toa</title>
<path fill="none" stroke="black" d="M790.67,-305.88C780.13,-297.77 765.98,-286.89 753.92,-277.61"/>
<polygon fill="black" stroke="black" points="756.07,-274.84 746.01,-271.52 751.8,-280.39 756.07,-274.84"/>
</g>
<!-- toa&#45;&gt;time_at_sample -->
<g id="edge32" class="edge">
<title>toa&#45;&gt;time_at_sample</title>
<path fill="none" stroke="black" d="M736.54,-244.63C740.98,-237.33 746.78,-227.77 752.01,-219.16"/>
<polygon fill="black" stroke="black" points="754.99,-221 757.19,-210.64 749.01,-217.37 754.99,-221"/>
</g>
<!-- event_time_offset -->
<g id="node24" class="node">
<title>event_time_offset</title>
<polygon fill="none" stroke="black" points="721.88,-331.5 580.62,-331.5 580.62,-306.25 721.88,-306.25 721.88,-331.5"/>
<text xml:space="preserve" text-anchor="middle" x="651.25" y="-314.2" font-family="Times,serif" font-size="14.00">event_time_offset</text>
</g>
<!-- event_time_offset&#45;&gt;toa -->
<g id="edge31" class="edge">
<title>event_time_offset&#45;&gt;toa</title>
<path fill="none" stroke="black" d="M667.03,-305.88C677.82,-297.69 692.33,-286.67 704.62,-277.34"/>
<polygon fill="black" stroke="black" points="706.44,-280.35 712.28,-271.51 702.2,-274.77 706.44,-280.35"/>
</g>
<!-- L2 -->
<g id="node26" class="node">
<title>L2</title>
<polygon fill="none" stroke="black" points="828.25,-270.25 774.25,-270.25 774.25,-245 828.25,-245 828.25,-270.25"/>
<text xml:space="preserve" text-anchor="middle" x="801.25" y="-252.95" font-family="Times,serif" font-size="14.00">L2</text>
</g>
<!-- L2&#45;&gt;time_at_sample -->
<g id="edge33" class="edge">
<title>L2&#45;&gt;time_at_sample</title>
<path fill="none" stroke="black" d="M793.96,-244.63C789.52,-237.33 783.72,-227.77 778.49,-219.16"/>
<polygon fill="black" stroke="black" points="781.49,-217.37 773.31,-210.64 775.51,-221 781.49,-217.37"/>
</g>
</g>
</svg>
