<?xml version="1.0" encoding="UTF-8" standalone="no"?>
<!DOCTYPE svg PUBLIC "-//W3C//DTD SVG 1.1//EN"
 "http://www.w3.org/Graphics/SVG/1.1/DTD/svg11.dtd">
<!-- Generated by graphviz version 7.1.0 (20230122.1345)
 -->
<!-- Pages: 1 -->
<svg width="206pt" height="141pt"
 viewBox="0.00 0.00 206.00 141.00" xmlns="http://www.w3.org/2000/svg" xmlns:xlink="http://www.w3.org/1999/xlink">
<g id="graph0" class="graph" transform="scale(1 1) rotate(0) translate(4 137)">
<polygon fill="white" stroke="none" points="-4,4 -4,-137 202,-137 202,4 -4,4"/>
<!-- Compute (dspacing) = dspacing(tof, tzero, difc) -->
<g id="node1" class="node">
<title>Compute (dspacing) = dspacing(tof, tzero, difc)</title>
<polygon fill="lightgrey" stroke="none" points="143,-74 55,-74 55,-59 143,-59 143,-74"/>
<text text-anchor="middle" x="99" y="-62.8" font-family="Times,serif" font-size="14.00">dspacing(...)</text>
</g>
<!-- dspacing -->
<g id="node2" class="node">
<title>dspacing</title>
<polygon fill="none" stroke="black" points="139,-23 59,-23 59,0 139,0 139,-23"/>
<text text-anchor="middle" x="99" y="-7.8" font-family="Times,serif" font-size="14.00">dspacing</text>
</g>
<!-- Compute (dspacing) = dspacing(tof, tzero, difc)&#45;&gt;dspacing -->
<g id="edge1" class="edge">
<title>Compute (dspacing) = dspacing(tof, tzero, difc)&#45;&gt;dspacing</title>
<path fill="none" stroke="black" d="M99,-59C99,-52.99 99,-43.69 99,-34.99"/>
<polygon fill="black" stroke="black" points="102.5,-35 99,-25 95.5,-35 102.5,-35"/>
</g>
<!-- tof -->
<g id="node3" class="node">
<title>tof</title>
<polygon fill="none" stroke="black" points="54,-133 0,-133 0,-110 54,-110 54,-133"/>
<text text-anchor="middle" x="27" y="-117.8" font-family="Times,serif" font-size="14.00">tof</text>
</g>
<!-- tof&#45;&gt;Compute (dspacing) = dspacing(tof, tzero, difc) -->
<g id="edge2" class="edge">
<title>tof&#45;&gt;Compute (dspacing) = dspacing(tof, tzero, difc)</title>
<path fill="none" stroke="black" d="M41.92,-109.52C53.37,-101.09 69.23,-89.42 81.32,-80.51"/>
<polygon fill="black" stroke="black" points="83.22,-83.46 89.2,-74.72 79.07,-77.83 83.22,-83.46"/>
</g>
<!-- tzero -->
<g id="node4" class="node">
<title>tzero</title>
<polygon fill="none" stroke="black" points="126,-133 72,-133 72,-110 126,-110 126,-133"/>
<text text-anchor="middle" x="99" y="-117.8" font-family="Times,serif" font-size="14.00">tzero</text>
</g>
<!-- tzero&#45;&gt;Compute (dspacing) = dspacing(tof, tzero, difc) -->
<g id="edge3" class="edge">
<title>tzero&#45;&gt;Compute (dspacing) = dspacing(tof, tzero, difc)</title>
<path fill="none" stroke="black" d="M99,-109.52C99,-102.52 99,-93.29 99,-85.26"/>
<polygon fill="black" stroke="black" points="102.5,-85.33 99,-75.33 95.5,-85.33 102.5,-85.33"/>
</g>
<!-- difc -->
<g id="node5" class="node">
<title>difc</title>
<polygon fill="none" stroke="black" points="198,-133 144,-133 144,-110 198,-110 198,-133"/>
<text text-anchor="middle" x="171" y="-117.8" font-family="Times,serif" font-size="14.00">difc</text>
</g>
<!-- difc&#45;&gt;Compute (dspacing) = dspacing(tof, tzero, difc) -->
<g id="edge4" class="edge">
<title>difc&#45;&gt;Compute (dspacing) = dspacing(tof, tzero, difc)</title>
<path fill="none" stroke="black" d="M156.08,-109.52C144.63,-101.09 128.77,-89.42 116.68,-80.51"/>
<polygon fill="black" stroke="black" points="118.93,-77.83 108.8,-74.72 114.78,-83.46 118.93,-77.83"/>
</g>
</g>
</svg>
