<?xml version="1.0" encoding="utf-8" standalone="no"?>
<!DOCTYPE svg PUBLIC "-//W3C//DTD SVG 1.1//EN"
  "http://www.w3.org/Graphics/SVG/1.1/DTD/svg11.dtd">
<svg xmlns:xlink="http://www.w3.org/1999/xlink" width="395.328125pt" height="266.51625pt" viewBox="0 0 395.328125 266.51625" xmlns="http://www.w3.org/2000/svg" version="1.1">
 <metadata>
  <rdf:RDF xmlns:dc="http://purl.org/dc/elements/1.1/" xmlns:cc="http://creativecommons.org/ns#" xmlns:rdf="http://www.w3.org/1999/02/22-rdf-syntax-ns#">
   <cc:Work>
    <dc:type rdf:resource="http://purl.org/dc/dcmitype/StillImage"/>
    <dc:date>2024-11-13T15:31:13.942035</dc:date>
    <dc:format>image/svg+xml</dc:format>
    <dc:creator>
     <cc:Agent>
      <dc:title>Matplotlib v3.9.2, https://matplotlib.org/</dc:title>
     </cc:Agent>
    </dc:creator>
   </cc:Work>
  </rdf:RDF>
 </metadata>
 <defs>
  <style type="text/css">*{stroke-linejoin: round; stroke-linecap: butt}</style>
 </defs>
 <g id="figure_1">
  <g id="patch_1">
   <path d="M 0 266.51625 
L 395.328125 266.51625 
L 395.328125 0 
L 0 0 
z
" style="fill: #ffffff"/>
  </g>
  <g id="axes_1">
   <g id="patch_2">
    <path d="M 53.328125 228.96 
L 388.128125 228.96 
L 388.128125 7.2 
L 53.328125 7.2 
z
" style="fill: #ffffff"/>
   </g>
   <g id="matplotlib.axis_1">
    <g id="xtick_1">
     <g id="line2d_1">
      <defs>
       <path id="m340a683a7a" d="M 0 0 
L 0 3.5 
" style="stroke: #000000; stroke-width: 0.8"/>
      </defs>
      <g>
       <use xlink:href="#m340a683a7a" x="102.364489" y="228.96" style="stroke: #000000; stroke-width: 0.8"/>
      </g>
     </g>
     <g id="text_1">
      <!-- 0.01 -->
      <g transform="translate(91.231676 243.558437) scale(0.1 -0.1)">
       <defs>
        <path id="DejaVuSans-30" d="M 2034 4250 
Q 1547 4250 1301 3770 
Q 1056 3291 1056 2328 
Q 1056 1369 1301 889 
Q 1547 409 2034 409 
Q 2525 409 2770 889 
Q 3016 1369 3016 2328 
Q 3016 3291 2770 3770 
Q 2525 4250 2034 4250 
z
M 2034 4750 
Q 2819 4750 3233 4129 
Q 3647 3509 3647 2328 
Q 3647 1150 3233 529 
Q 2819 -91 2034 -91 
Q 1250 -91 836 529 
Q 422 1150 422 2328 
Q 422 3509 836 4129 
Q 1250 4750 2034 4750 
z
" transform="scale(0.015625)"/>
        <path id="DejaVuSans-2e" d="M 684 794 
L 1344 794 
L 1344 0 
L 684 0 
L 684 794 
z
" transform="scale(0.015625)"/>
        <path id="DejaVuSans-31" d="M 794 531 
L 1825 531 
L 1825 4091 
L 703 3866 
L 703 4441 
L 1819 4666 
L 2450 4666 
L 2450 531 
L 3481 531 
L 3481 0 
L 794 0 
L 794 531 
z
" transform="scale(0.015625)"/>
       </defs>
       <use xlink:href="#DejaVuSans-30"/>
       <use xlink:href="#DejaVuSans-2e" x="63.623047"/>
       <use xlink:href="#DejaVuSans-30" x="95.410156"/>
       <use xlink:href="#DejaVuSans-31" x="159.033203"/>
      </g>
     </g>
    </g>
    <g id="xtick_2">
     <g id="line2d_2">
      <g>
       <use xlink:href="#m340a683a7a" x="170.000852" y="228.96" style="stroke: #000000; stroke-width: 0.8"/>
      </g>
     </g>
     <g id="text_2">
      <!-- 0.02 -->
      <g transform="translate(158.86804 243.558437) scale(0.1 -0.1)">
       <defs>
        <path id="DejaVuSans-32" d="M 1228 531 
L 3431 531 
L 3431 0 
L 469 0 
L 469 531 
Q 828 903 1448 1529 
Q 2069 2156 2228 2338 
Q 2531 2678 2651 2914 
Q 2772 3150 2772 3378 
Q 2772 3750 2511 3984 
Q 2250 4219 1831 4219 
Q 1534 4219 1204 4116 
Q 875 4013 500 3803 
L 500 4441 
Q 881 4594 1212 4672 
Q 1544 4750 1819 4750 
Q 2544 4750 2975 4387 
Q 3406 4025 3406 3419 
Q 3406 3131 3298 2873 
Q 3191 2616 2906 2266 
Q 2828 2175 2409 1742 
Q 1991 1309 1228 531 
z
" transform="scale(0.015625)"/>
       </defs>
       <use xlink:href="#DejaVuSans-30"/>
       <use xlink:href="#DejaVuSans-2e" x="63.623047"/>
       <use xlink:href="#DejaVuSans-30" x="95.410156"/>
       <use xlink:href="#DejaVuSans-32" x="159.033203"/>
      </g>
     </g>
    </g>
    <g id="xtick_3">
     <g id="line2d_3">
      <g>
       <use xlink:href="#m340a683a7a" x="237.637216" y="228.96" style="stroke: #000000; stroke-width: 0.8"/>
      </g>
     </g>
     <g id="text_3">
      <!-- 0.03 -->
      <g transform="translate(226.504403 243.558437) scale(0.1 -0.1)">
       <defs>
        <path id="DejaVuSans-33" d="M 2597 2516 
Q 3050 2419 3304 2112 
Q 3559 1806 3559 1356 
Q 3559 666 3084 287 
Q 2609 -91 1734 -91 
Q 1441 -91 1130 -33 
Q 819 25 488 141 
L 488 750 
Q 750 597 1062 519 
Q 1375 441 1716 441 
Q 2309 441 2620 675 
Q 2931 909 2931 1356 
Q 2931 1769 2642 2001 
Q 2353 2234 1838 2234 
L 1294 2234 
L 1294 2753 
L 1863 2753 
Q 2328 2753 2575 2939 
Q 2822 3125 2822 3475 
Q 2822 3834 2567 4026 
Q 2313 4219 1838 4219 
Q 1578 4219 1281 4162 
Q 984 4106 628 3988 
L 628 4550 
Q 988 4650 1302 4700 
Q 1616 4750 1894 4750 
Q 2613 4750 3031 4423 
Q 3450 4097 3450 3541 
Q 3450 3153 3228 2886 
Q 3006 2619 2597 2516 
z
" transform="scale(0.015625)"/>
       </defs>
       <use xlink:href="#DejaVuSans-30"/>
       <use xlink:href="#DejaVuSans-2e" x="63.623047"/>
       <use xlink:href="#DejaVuSans-30" x="95.410156"/>
       <use xlink:href="#DejaVuSans-33" x="159.033203"/>
      </g>
     </g>
    </g>
    <g id="xtick_4">
     <g id="line2d_4">
      <g>
       <use xlink:href="#m340a683a7a" x="305.27358" y="228.96" style="stroke: #000000; stroke-width: 0.8"/>
      </g>
     </g>
     <g id="text_4">
      <!-- 0.04 -->
      <g transform="translate(294.140767 243.558437) scale(0.1 -0.1)">
       <defs>
        <path id="DejaVuSans-34" d="M 2419 4116 
L 825 1625 
L 2419 1625 
L 2419 4116 
z
M 2253 4666 
L 3047 4666 
L 3047 1625 
L 3713 1625 
L 3713 1100 
L 3047 1100 
L 3047 0 
L 2419 0 
L 2419 1100 
L 313 1100 
L 313 1709 
L 2253 4666 
z
" transform="scale(0.015625)"/>
       </defs>
       <use xlink:href="#DejaVuSans-30"/>
       <use xlink:href="#DejaVuSans-2e" x="63.623047"/>
       <use xlink:href="#DejaVuSans-30" x="95.410156"/>
       <use xlink:href="#DejaVuSans-34" x="159.033203"/>
      </g>
     </g>
    </g>
    <g id="xtick_5">
     <g id="line2d_5">
      <g>
       <use xlink:href="#m340a683a7a" x="372.909943" y="228.96" style="stroke: #000000; stroke-width: 0.8"/>
      </g>
     </g>
     <g id="text_5">
      <!-- 0.05 -->
      <g transform="translate(361.777131 243.558437) scale(0.1 -0.1)">
       <defs>
        <path id="DejaVuSans-35" d="M 691 4666 
L 3169 4666 
L 3169 4134 
L 1269 4134 
L 1269 2991 
Q 1406 3038 1543 3061 
Q 1681 3084 1819 3084 
Q 2600 3084 3056 2656 
Q 3513 2228 3513 1497 
Q 3513 744 3044 326 
Q 2575 -91 1722 -91 
Q 1428 -91 1123 -41 
Q 819 9 494 109 
L 494 744 
Q 775 591 1075 516 
Q 1375 441 1709 441 
Q 2250 441 2565 725 
Q 2881 1009 2881 1497 
Q 2881 1984 2565 2268 
Q 2250 2553 1709 2553 
Q 1456 2553 1204 2497 
Q 953 2441 691 2322 
L 691 4666 
z
" transform="scale(0.015625)"/>
       </defs>
       <use xlink:href="#DejaVuSans-30"/>
       <use xlink:href="#DejaVuSans-2e" x="63.623047"/>
       <use xlink:href="#DejaVuSans-30" x="95.410156"/>
       <use xlink:href="#DejaVuSans-35" x="159.033203"/>
      </g>
     </g>
    </g>
    <g id="text_6">
     <!-- tof [s] -->
     <g transform="translate(205.853125 257.236562) scale(0.1 -0.1)">
      <defs>
       <path id="DejaVuSans-74" d="M 1172 4494 
L 1172 3500 
L 2356 3500 
L 2356 3053 
L 1172 3053 
L 1172 1153 
Q 1172 725 1289 603 
Q 1406 481 1766 481 
L 2356 481 
L 2356 0 
L 1766 0 
Q 1100 0 847 248 
Q 594 497 594 1153 
L 594 3053 
L 172 3053 
L 172 3500 
L 594 3500 
L 594 4494 
L 1172 4494 
z
" transform="scale(0.015625)"/>
       <path id="DejaVuSans-6f" d="M 1959 3097 
Q 1497 3097 1228 2736 
Q 959 2375 959 1747 
Q 959 1119 1226 758 
Q 1494 397 1959 397 
Q 2419 397 2687 759 
Q 2956 1122 2956 1747 
Q 2956 2369 2687 2733 
Q 2419 3097 1959 3097 
z
M 1959 3584 
Q 2709 3584 3137 3096 
Q 3566 2609 3566 1747 
Q 3566 888 3137 398 
Q 2709 -91 1959 -91 
Q 1206 -91 779 398 
Q 353 888 353 1747 
Q 353 2609 779 3096 
Q 1206 3584 1959 3584 
z
" transform="scale(0.015625)"/>
       <path id="DejaVuSans-66" d="M 2375 4863 
L 2375 4384 
L 1825 4384 
Q 1516 4384 1395 4259 
Q 1275 4134 1275 3809 
L 1275 3500 
L 2222 3500 
L 2222 3053 
L 1275 3053 
L 1275 0 
L 697 0 
L 697 3053 
L 147 3053 
L 147 3500 
L 697 3500 
L 697 3744 
Q 697 4328 969 4595 
Q 1241 4863 1831 4863 
L 2375 4863 
z
" transform="scale(0.015625)"/>
       <path id="DejaVuSans-20" transform="scale(0.015625)"/>
       <path id="DejaVuSans-5b" d="M 550 4863 
L 1875 4863 
L 1875 4416 
L 1125 4416 
L 1125 -397 
L 1875 -397 
L 1875 -844 
L 550 -844 
L 550 4863 
z
" transform="scale(0.015625)"/>
       <path id="DejaVuSans-73" d="M 2834 3397 
L 2834 2853 
Q 2591 2978 2328 3040 
Q 2066 3103 1784 3103 
Q 1356 3103 1142 2972 
Q 928 2841 928 2578 
Q 928 2378 1081 2264 
Q 1234 2150 1697 2047 
L 1894 2003 
Q 2506 1872 2764 1633 
Q 3022 1394 3022 966 
Q 3022 478 2636 193 
Q 2250 -91 1575 -91 
Q 1294 -91 989 -36 
Q 684 19 347 128 
L 347 722 
Q 666 556 975 473 
Q 1284 391 1588 391 
Q 1994 391 2212 530 
Q 2431 669 2431 922 
Q 2431 1156 2273 1281 
Q 2116 1406 1581 1522 
L 1381 1569 
Q 847 1681 609 1914 
Q 372 2147 372 2553 
Q 372 3047 722 3315 
Q 1072 3584 1716 3584 
Q 2034 3584 2315 3537 
Q 2597 3491 2834 3397 
z
" transform="scale(0.015625)"/>
       <path id="DejaVuSans-5d" d="M 1947 4863 
L 1947 -844 
L 622 -844 
L 622 -397 
L 1369 -397 
L 1369 4416 
L 622 4416 
L 622 4863 
L 1947 4863 
z
" transform="scale(0.015625)"/>
      </defs>
      <use xlink:href="#DejaVuSans-74"/>
      <use xlink:href="#DejaVuSans-6f" x="39.208984"/>
      <use xlink:href="#DejaVuSans-66" x="100.390625"/>
      <use xlink:href="#DejaVuSans-20" x="135.595703"/>
      <use xlink:href="#DejaVuSans-5b" x="167.382812"/>
      <use xlink:href="#DejaVuSans-73" x="206.396484"/>
      <use xlink:href="#DejaVuSans-5d" x="258.496094"/>
     </g>
    </g>
   </g>
   <g id="matplotlib.axis_2">
    <g id="ytick_1">
     <g id="line2d_6">
      <defs>
       <path id="m1f37383521" d="M 0 0 
L -3.5 0 
" style="stroke: #000000; stroke-width: 0.8"/>
      </defs>
      <g>
       <use xlink:href="#m1f37383521" x="53.328125" y="218.88" style="stroke: #000000; stroke-width: 0.8"/>
      </g>
     </g>
     <g id="text_7">
      <!-- 0 -->
      <g transform="translate(39.965625 222.679219) scale(0.1 -0.1)">
       <use xlink:href="#DejaVuSans-30"/>
      </g>
     </g>
    </g>
    <g id="ytick_2">
     <g id="line2d_7">
      <g>
       <use xlink:href="#m1f37383521" x="53.328125" y="185.40275" style="stroke: #000000; stroke-width: 0.8"/>
      </g>
     </g>
     <g id="text_8">
      <!-- 500 -->
      <g transform="translate(27.240625 189.201969) scale(0.1 -0.1)">
       <use xlink:href="#DejaVuSans-35"/>
       <use xlink:href="#DejaVuSans-30" x="63.623047"/>
       <use xlink:href="#DejaVuSans-30" x="127.246094"/>
      </g>
     </g>
    </g>
    <g id="ytick_3">
     <g id="line2d_8">
      <g>
       <use xlink:href="#m1f37383521" x="53.328125" y="151.9255" style="stroke: #000000; stroke-width: 0.8"/>
      </g>
     </g>
     <g id="text_9">
      <!-- 1000 -->
      <g transform="translate(20.878125 155.724719) scale(0.1 -0.1)">
       <use xlink:href="#DejaVuSans-31"/>
       <use xlink:href="#DejaVuSans-30" x="63.623047"/>
       <use xlink:href="#DejaVuSans-30" x="127.246094"/>
       <use xlink:href="#DejaVuSans-30" x="190.869141"/>
      </g>
     </g>
    </g>
    <g id="ytick_4">
     <g id="line2d_9">
      <g>
       <use xlink:href="#m1f37383521" x="53.328125" y="118.44825" style="stroke: #000000; stroke-width: 0.8"/>
      </g>
     </g>
     <g id="text_10">
      <!-- 1500 -->
      <g transform="translate(20.878125 122.247469) scale(0.1 -0.1)">
       <use xlink:href="#DejaVuSans-31"/>
       <use xlink:href="#DejaVuSans-35" x="63.623047"/>
       <use xlink:href="#DejaVuSans-30" x="127.246094"/>
       <use xlink:href="#DejaVuSans-30" x="190.869141"/>
      </g>
     </g>
    </g>
    <g id="ytick_5">
     <g id="line2d_10">
      <g>
       <use xlink:href="#m1f37383521" x="53.328125" y="84.971" style="stroke: #000000; stroke-width: 0.8"/>
      </g>
     </g>
     <g id="text_11">
      <!-- 2000 -->
      <g transform="translate(20.878125 88.770218) scale(0.1 -0.1)">
       <use xlink:href="#DejaVuSans-32"/>
       <use xlink:href="#DejaVuSans-30" x="63.623047"/>
       <use xlink:href="#DejaVuSans-30" x="127.246094"/>
       <use xlink:href="#DejaVuSans-30" x="190.869141"/>
      </g>
     </g>
    </g>
    <g id="ytick_6">
     <g id="line2d_11">
      <g>
       <use xlink:href="#m1f37383521" x="53.328125" y="51.49375" style="stroke: #000000; stroke-width: 0.8"/>
      </g>
     </g>
     <g id="text_12">
      <!-- 2500 -->
      <g transform="translate(20.878125 55.292968) scale(0.1 -0.1)">
       <use xlink:href="#DejaVuSans-32"/>
       <use xlink:href="#DejaVuSans-35" x="63.623047"/>
       <use xlink:href="#DejaVuSans-30" x="127.246094"/>
       <use xlink:href="#DejaVuSans-30" x="190.869141"/>
      </g>
     </g>
    </g>
    <g id="ytick_7">
     <g id="line2d_12">
      <g>
       <use xlink:href="#m1f37383521" x="53.328125" y="18.0165" style="stroke: #000000; stroke-width: 0.8"/>
      </g>
     </g>
     <g id="text_13">
      <!-- 3000 -->
      <g transform="translate(20.878125 21.815718) scale(0.1 -0.1)">
       <use xlink:href="#DejaVuSans-33"/>
       <use xlink:href="#DejaVuSans-30" x="63.623047"/>
       <use xlink:href="#DejaVuSans-30" x="127.246094"/>
       <use xlink:href="#DejaVuSans-30" x="190.869141"/>
      </g>
     </g>
    </g>
    <g id="text_14">
     <!-- [counts] -->
     <g transform="translate(14.798438 138.6925) rotate(-90) scale(0.1 -0.1)">
      <defs>
       <path id="DejaVuSans-63" d="M 3122 3366 
L 3122 2828 
Q 2878 2963 2633 3030 
Q 2388 3097 2138 3097 
Q 1578 3097 1268 2742 
Q 959 2388 959 1747 
Q 959 1106 1268 751 
Q 1578 397 2138 397 
Q 2388 397 2633 464 
Q 2878 531 3122 666 
L 3122 134 
Q 2881 22 2623 -34 
Q 2366 -91 2075 -91 
Q 1284 -91 818 406 
Q 353 903 353 1747 
Q 353 2603 823 3093 
Q 1294 3584 2113 3584 
Q 2378 3584 2631 3529 
Q 2884 3475 3122 3366 
z
" transform="scale(0.015625)"/>
       <path id="DejaVuSans-75" d="M 544 1381 
L 544 3500 
L 1119 3500 
L 1119 1403 
Q 1119 906 1312 657 
Q 1506 409 1894 409 
Q 2359 409 2629 706 
Q 2900 1003 2900 1516 
L 2900 3500 
L 3475 3500 
L 3475 0 
L 2900 0 
L 2900 538 
Q 2691 219 2414 64 
Q 2138 -91 1772 -91 
Q 1169 -91 856 284 
Q 544 659 544 1381 
z
M 1991 3584 
L 1991 3584 
z
" transform="scale(0.015625)"/>
       <path id="DejaVuSans-6e" d="M 3513 2113 
L 3513 0 
L 2938 0 
L 2938 2094 
Q 2938 2591 2744 2837 
Q 2550 3084 2163 3084 
Q 1697 3084 1428 2787 
Q 1159 2491 1159 1978 
L 1159 0 
L 581 0 
L 581 3500 
L 1159 3500 
L 1159 2956 
Q 1366 3272 1645 3428 
Q 1925 3584 2291 3584 
Q 2894 3584 3203 3211 
Q 3513 2838 3513 2113 
z
" transform="scale(0.015625)"/>
      </defs>
      <use xlink:href="#DejaVuSans-5b"/>
      <use xlink:href="#DejaVuSans-63" x="39.013672"/>
      <use xlink:href="#DejaVuSans-6f" x="93.994141"/>
      <use xlink:href="#DejaVuSans-75" x="155.175781"/>
      <use xlink:href="#DejaVuSans-6e" x="218.554688"/>
      <use xlink:href="#DejaVuSans-74" x="281.933594"/>
      <use xlink:href="#DejaVuSans-73" x="321.142578"/>
      <use xlink:href="#DejaVuSans-5d" x="373.242188"/>
     </g>
    </g>
   </g>
   <g id="patch_3">
    <path d="M 53.328125 228.96 
L 53.328125 7.2 
" style="fill: none; stroke: #000000; stroke-width: 0.8; stroke-linejoin: miter; stroke-linecap: square"/>
   </g>
   <g id="patch_4">
    <path d="M 388.128125 228.96 
L 388.128125 7.2 
" style="fill: none; stroke: #000000; stroke-width: 0.8; stroke-linejoin: miter; stroke-linecap: square"/>
   </g>
   <g id="patch_5">
    <path d="M 53.328125 228.96 
L 388.128125 228.96 
" style="fill: none; stroke: #000000; stroke-width: 0.8; stroke-linejoin: miter; stroke-linecap: square"/>
   </g>
   <g id="patch_6">
    <path d="M 53.328125 7.2 
L 388.128125 7.2 
" style="fill: none; stroke: #000000; stroke-width: 0.8; stroke-linejoin: miter; stroke-linecap: square"/>
   </g>
   <g id="line2d_13">
    <path d="M 68.546307 218.88 
L 102.13828 218.88 
L 102.13828 214.260139 
L 103.156219 214.260139 
L 103.156219 166.320717 
L 104.174157 166.320717 
L 104.174157 108.204211 
L 105.192096 108.204211 
L 105.192096 96.018492 
L 106.210034 96.018492 
L 106.210034 88.318725 
L 107.227973 88.318725 
L 107.227973 91.532541 
L 108.245912 91.532541 
L 108.245912 83.297137 
L 109.26385 83.297137 
L 109.26385 76.534733 
L 110.281789 76.534733 
L 110.281789 64.750741 
L 111.299727 64.750741 
L 111.299727 59.52829 
L 112.317666 59.52829 
L 112.317666 52.029386 
L 113.335604 52.029386 
L 113.335604 47.744298 
L 114.353543 47.744298 
L 114.353543 38.370668 
L 115.371482 38.370668 
L 115.371482 39.241076 
L 116.38942 39.241076 
L 116.38942 29.800492 
L 117.407359 29.800492 
L 117.407359 29.934401 
L 118.425297 29.934401 
L 118.425297 17.28 
L 119.443236 17.28 
L 119.443236 19.221681 
L 120.461175 19.221681 
L 120.461175 20.092089 
L 121.479113 20.092089 
L 121.479113 19.690362 
L 122.497052 19.690362 
L 122.497052 28.394447 
L 123.51499 28.394447 
L 123.51499 18.485181 
L 124.532929 18.485181 
L 124.532929 30.001355 
L 125.550867 30.001355 
L 125.550867 35.089897 
L 126.568806 35.089897 
L 126.568806 26.720585 
L 127.586745 26.720585 
L 127.586745 35.089897 
L 128.604683 35.089897 
L 128.604683 33.817762 
L 129.622622 33.817762 
L 129.622622 41.986211 
L 130.64056 41.986211 
L 130.64056 43.057483 
L 131.658499 43.057483 
L 131.658499 53.033703 
L 132.676438 53.033703 
L 132.676438 60.800425 
L 133.694376 60.800425 
L 133.694376 74.459143 
L 134.712315 74.459143 
L 134.712315 85.707499 
L 135.730253 85.707499 
L 135.730253 99.165354 
L 136.748192 99.165354 
L 136.748192 109.811119 
L 137.76613 109.811119 
L 137.76613 125.813245 
L 138.784069 125.813245 
L 138.784069 130.700923 
L 139.802008 130.700923 
L 139.802008 138.869372 
L 140.819946 138.869372 
L 140.819946 147.841275 
L 141.837885 147.841275 
L 141.837885 162.571265 
L 142.855823 162.571265 
L 142.855823 169.400624 
L 143.873762 169.400624 
L 143.873762 182.389797 
L 144.891701 182.389797 
L 144.891701 188.817429 
L 145.909639 188.817429 
L 145.909639 198.659741 
L 146.927578 198.659741 
L 146.927578 204.417828 
L 147.945516 204.417828 
L 147.945516 179.242936 
L 148.963455 179.242936 
L 148.963455 137.932009 
L 149.981393 137.932009 
L 149.981393 97.893218 
L 150.999332 97.893218 
L 150.999332 82.225865 
L 152.017271 82.225865 
L 152.017271 81.824138 
L 153.035209 81.824138 
L 153.035209 82.694547 
L 154.053148 82.694547 
L 154.053148 90.193451 
L 155.071086 90.193451 
L 155.071086 90.92995 
L 156.089025 90.92995 
L 156.089025 91.934268 
L 157.106964 91.934268 
L 157.106964 93.60813 
L 158.124902 93.60813 
L 158.124902 88.452634 
L 159.142841 88.452634 
L 159.142841 96.955855 
L 160.160779 96.955855 
L 160.160779 98.161036 
L 161.178718 98.161036 
L 161.178718 101.709625 
L 162.196656 101.709625 
L 162.196656 102.580033 
L 163.214595 102.580033 
L 163.214595 104.923441 
L 164.232534 104.923441 
L 164.232534 108.739847 
L 165.250472 108.739847 
L 165.250472 110.346755 
L 166.268411 110.346755 
L 166.268411 112.891026 
L 167.286349 112.891026 
L 167.286349 111.819754 
L 168.304288 111.819754 
L 168.304288 114.564889 
L 169.322227 114.564889 
L 169.322227 113.359708 
L 170.340165 113.359708 
L 170.340165 118.582159 
L 171.358104 118.582159 
L 171.358104 119.385613 
L 172.376042 119.385613 
L 172.376042 120.523839 
L 173.393981 120.523839 
L 173.393981 122.867247 
L 174.411919 122.867247 
L 174.411919 124.608064 
L 175.429858 124.608064 
L 175.429858 133.044331 
L 176.447797 133.044331 
L 176.447797 129.495742 
L 177.465735 129.495742 
L 177.465735 127.152335 
L 178.483674 127.152335 
L 178.483674 133.981694 
L 179.501612 133.981694 
L 179.501612 129.16097 
L 180.519551 129.16097 
L 180.519551 128.826197 
L 181.53749 128.826197 
L 181.53749 135.85642 
L 182.555428 135.85642 
L 182.555428 142.752733 
L 183.573367 142.752733 
L 183.573367 140.744098 
L 185.609244 140.811053 
L 185.609244 148.711684 
L 186.627182 148.711684 
L 186.627182 151.389864 
L 188.66306 151.456818 
L 188.66306 164.044264 
L 189.680998 164.044264 
L 189.680998 168.664125 
L 190.698937 168.664125 
L 190.698937 164.914673 
L 191.716875 164.914673 
L 191.716875 151.992454 
L 192.734814 151.992454 
L 192.734814 132.374786 
L 193.752753 132.374786 
L 193.752753 129.562697 
L 194.770691 129.562697 
L 194.770691 127.687971 
L 195.78863 127.687971 
L 195.78863 129.094015 
L 196.806568 129.094015 
L 196.806568 143.690096 
L 198.842445 143.623142 
L 198.842445 148.577775 
L 199.860384 148.577775 
L 199.860384 155.407134 
L 200.878323 155.407134 
L 200.878323 151.9255 
L 201.896261 151.9255 
L 201.896261 151.389864 
L 202.9142 151.389864 
L 202.9142 154.60368 
L 203.932138 154.60368 
L 203.932138 157.147951 
L 204.950077 157.147951 
L 204.950077 155.474088 
L 205.968016 155.474088 
L 205.968016 160.629585 
L 206.985954 160.629585 
L 206.985954 163.106901 
L 208.003893 163.106901 
L 208.003893 159.893085 
L 209.021831 159.893085 
L 209.021831 160.361767 
L 210.03977 160.361767 
L 210.03977 161.90172 
L 211.057708 161.90172 
L 211.057708 162.839083 
L 212.075647 162.839083 
L 212.075647 166.454626 
L 213.093586 166.454626 
L 213.093586 166.588535 
L 214.111524 166.588535 
L 214.111524 166.990262 
L 215.129463 166.990262 
L 215.129463 171.610123 
L 216.147401 171.610123 
L 216.147401 172.480531 
L 217.16534 172.480531 
L 217.16534 177.569073 
L 218.183279 177.569073 
L 218.183279 176.564756 
L 219.201217 176.564756 
L 219.201217 179.443799 
L 220.219156 179.443799 
L 220.219156 182.657615 
L 221.237094 182.657615 
L 221.237094 186.340113 
L 222.255033 186.340113 
L 222.255033 186.206204 
L 223.272971 186.206204 
L 223.272971 187.880066 
L 224.29091 187.880066 
L 224.29091 191.562564 
L 225.308849 191.562564 
L 225.308849 193.236426 
L 226.326787 193.236426 
L 226.326787 194.575516 
L 227.344726 194.575516 
L 227.344726 198.258014 
L 228.362664 198.258014 
L 228.362664 201.404875 
L 229.380603 201.404875 
L 229.380603 198.659741 
L 230.398542 198.659741 
L 230.398542 197.923241 
L 231.41648 197.923241 
L 231.41648 189.687838 
L 232.434419 189.687838 
L 232.434419 184.733205 
L 233.452357 184.733205 
L 233.452357 179.510754 
L 234.470296 179.510754 
L 234.470296 182.925433 
L 235.488234 182.925433 
L 235.488234 185.871431 
L 236.506173 185.871431 
L 236.506173 190.558246 
L 237.524112 190.558246 
L 237.524112 187.880066 
L 238.54205 187.880066 
L 238.54205 193.504244 
L 239.559989 193.504244 
L 239.559989 196.249379 
L 240.577927 196.249379 
L 240.577927 193.905971 
L 241.595866 193.905971 
L 241.595866 192.767745 
L 242.613805 192.767745 
L 242.613805 196.316333 
L 243.631743 196.316333 
L 243.631743 199.463195 
L 244.649682 199.463195 
L 244.649682 201.003148 
L 245.66762 201.003148 
L 245.66762 201.605739 
L 246.685559 201.605739 
L 246.685559 203.681328 
L 248.721436 203.681328 
L 248.721436 202.409193 
L 249.739375 202.409193 
L 249.739375 205.154327 
L 250.757313 205.154327 
L 250.757313 204.819555 
L 251.775252 204.819555 
L 251.775252 206.426463 
L 252.79319 206.426463 
L 252.79319 205.823872 
L 253.811129 205.823872 
L 253.811129 208.234234 
L 254.829068 208.234234 
L 254.829068 209.305506 
L 255.847006 209.305506 
L 255.847006 210.376778 
L 256.864945 210.376778 
L 256.864945 209.908097 
L 257.882883 209.908097 
L 257.882883 209.774188 
L 258.900822 209.774188 
L 258.900822 210.510687 
L 259.91876 210.510687 
L 259.91876 212.385413 
L 261.954638 212.318459 
L 261.954638 214.327094 
L 262.972576 214.327094 
L 262.972576 214.193185 
L 263.990515 214.193185 
L 263.990515 215.063593 
L 265.008453 215.063593 
L 265.008453 214.86273 
L 266.026392 214.86273 
L 266.026392 216.134865 
L 267.044331 216.134865 
L 267.044331 212.117595 
L 268.062269 212.117595 
L 268.062269 209.305506 
L 269.080208 209.305506 
L 269.080208 207.832507 
L 270.098146 207.832507 
L 270.098146 202.677011 
L 271.116085 202.677011 
L 271.116085 203.480465 
L 272.134023 203.480465 
L 272.134023 206.359508 
L 273.151962 206.359508 
L 273.151962 203.212647 
L 274.169901 203.212647 
L 274.169901 206.694281 
L 275.187839 206.694281 
L 275.187839 207.631644 
L 276.205778 207.631644 
L 276.205778 209.171597 
L 278.241655 209.104643 
L 278.241655 208.76987 
L 279.259594 208.76987 
L 279.259594 207.899462 
L 280.277532 207.899462 
L 280.277532 209.305506 
L 281.295471 209.305506 
L 281.295471 211.44805 
L 282.313409 211.44805 
L 282.313409 209.640279 
L 283.331348 209.640279 
L 283.331348 211.648914 
L 284.349286 211.648914 
L 284.349286 210.912414 
L 285.367225 210.912414 
L 285.367225 211.046323 
L 286.385164 211.046323 
L 286.385164 212.653231 
L 287.403102 212.653231 
L 287.403102 213.724503 
L 288.421041 213.724503 
L 288.421041 212.78714 
L 289.438979 212.78714 
L 289.438979 214.12623 
L 290.456918 214.12623 
L 290.456918 213.791458 
L 291.474857 213.791458 
L 291.474857 215.666184 
L 292.492795 215.666184 
L 292.492795 214.260139 
L 293.510734 214.260139 
L 293.510734 216.067911 
L 295.546611 216.134865 
L 295.546611 216.469638 
L 297.582488 216.536592 
L 297.582488 216.603547 
L 298.600427 216.603547 
L 298.600427 217.005274 
L 299.618365 217.005274 
L 299.618365 217.607864 
L 300.636304 217.607864 
L 300.636304 217.808728 
L 301.654242 217.808728 
L 301.654242 218.076546 
L 302.672181 218.076546 
L 302.672181 217.808728 
L 303.69012 217.808728 
L 303.69012 216.20182 
L 304.708058 216.20182 
L 304.708058 213.657549 
L 305.725997 213.657549 
L 305.725997 212.251504 
L 306.743935 212.251504 
L 306.743935 208.569007 
L 307.761874 208.569007 
L 307.761874 207.832507 
L 308.779812 207.832507 
L 308.779812 203.547419 
L 310.81569 203.614374 
L 310.81569 203.145692 
L 311.833628 203.145692 
L 311.833628 204.083055 
L 312.851567 204.083055 
L 312.851567 202.275284 
L 313.869505 202.275284 
L 313.869505 204.685646 
L 314.887444 204.685646 
L 314.887444 201.672693 
L 315.905383 201.672693 
L 315.905383 202.944829 
L 317.94126 202.944829 
L 317.94126 205.756918 
L 318.959198 205.756918 
L 318.959198 204.15001 
L 320.995075 204.083055 
L 320.995075 203.681328 
L 322.013014 203.681328 
L 322.013014 205.355191 
L 323.030953 205.355191 
L 323.030953 203.882192 
L 324.048891 203.882192 
L 324.048891 204.083055 
L 325.06683 204.083055 
L 325.06683 204.417828 
L 326.084768 204.417828 
L 326.084768 203.882192 
L 327.102707 203.882192 
L 327.102707 207.631644 
L 328.120646 207.631644 
L 328.120646 206.694281 
L 330.156523 206.627326 
L 330.156523 207.162962 
L 331.174461 207.162962 
L 331.174461 208.301189 
L 333.210338 208.234234 
L 333.210338 208.970734 
L 334.228277 208.970734 
L 334.228277 209.238552 
L 335.246216 209.238552 
L 335.246216 209.975051 
L 336.264154 209.975051 
L 336.264154 210.10896 
L 337.282093 210.10896 
L 337.282093 209.439415 
L 338.300031 209.439415 
L 338.300031 212.452368 
L 339.31797 212.452368 
L 339.31797 211.515005 
L 340.335909 211.515005 
L 340.335909 211.314141 
L 341.353847 211.314141 
L 341.353847 213.590594 
L 342.371786 213.590594 
L 342.371786 214.594912 
L 343.389724 214.594912 
L 343.389724 214.86273 
L 344.407663 214.86273 
L 344.407663 214.996639 
L 345.425601 214.996639 
L 345.425601 215.934002 
L 346.44354 215.934002 
L 346.44354 216.80441 
L 347.461479 216.80441 
L 347.461479 218.612182 
L 348.479417 218.612182 
L 348.479417 218.88 
L 372.909943 218.88 
L 372.909943 218.88 
" clip-path="url(#p0f0d189197)" style="fill: none; stroke: #1f77b4; stroke-width: 1.5; stroke-linecap: square"/>
   </g>
  </g>
 </g>
 <defs>
  <clipPath id="p0f0d189197">
   <rect x="53.328125" y="7.2" width="334.8" height="221.76"/>
  </clipPath>
 </defs>
</svg>
