<?xml version="1.0" encoding="utf-8" standalone="no"?>
<!DOCTYPE svg PUBLIC "-//W3C//DTD SVG 1.1//EN"
  "http://www.w3.org/Graphics/SVG/1.1/DTD/svg11.dtd">
<svg xmlns:xlink="http://www.w3.org/1999/xlink" width="388.965625pt" height="268.200625pt" viewBox="0 0 388.965625 268.200625" xmlns="http://www.w3.org/2000/svg" version="1.1">
 <metadata>
  <rdf:RDF xmlns:dc="http://purl.org/dc/elements/1.1/" xmlns:cc="http://creativecommons.org/ns#" xmlns:rdf="http://www.w3.org/1999/02/22-rdf-syntax-ns#">
   <cc:Work>
    <dc:type rdf:resource="http://purl.org/dc/dcmitype/StillImage"/>
    <dc:date>2025-01-20T13:50:52.275380</dc:date>
    <dc:format>image/svg+xml</dc:format>
    <dc:creator>
     <cc:Agent>
      <dc:title>Matplotlib v3.7.3, https://matplotlib.org/</dc:title>
     </cc:Agent>
    </dc:creator>
   </cc:Work>
  </rdf:RDF>
 </metadata>
 <defs>
  <style type="text/css">*{stroke-linejoin: round; stroke-linecap: butt}</style>
 </defs>
 <g id="figure_1">
  <g id="patch_1">
   <path d="M 0 268.200625 
L 388.965625 268.200625 
L 388.965625 0 
L 0 0 
z
" style="fill: #ffffff"/>
  </g>
  <g id="axes_1">
   <g id="patch_2">
    <path d="M 46.965625 228.96 
L 381.765625 228.96 
L 381.765625 7.2 
L 46.965625 7.2 
z
" style="fill: #ffffff"/>
   </g>
   <g id="matplotlib.axis_1">
    <g id="xtick_1">
     <g id="line2d_1">
      <defs>
       <path id="m7cbcb70e61" d="M 0 0 
L 0 3.5 
" style="stroke: #000000; stroke-width: 0.8"/>
      </defs>
      <g>
       <use xlink:href="#m7cbcb70e61" x="78.202946" y="228.96" style="stroke: #000000; stroke-width: 0.8"/>
      </g>
     </g>
     <g id="text_1">
      <!-- 1.0 -->
      <g transform="translate(70.251383 243.558437) scale(0.1 -0.1)">
       <defs>
        <path id="DejaVuSans-31" d="M 794 531 
L 1825 531 
L 1825 4091 
L 703 3866 
L 703 4441 
L 1819 4666 
L 2450 4666 
L 2450 531 
L 3481 531 
L 3481 0 
L 794 0 
L 794 531 
z
" transform="scale(0.015625)"/>
        <path id="DejaVuSans-2e" d="M 684 794 
L 1344 794 
L 1344 0 
L 684 0 
L 684 794 
z
" transform="scale(0.015625)"/>
        <path id="DejaVuSans-30" d="M 2034 4250 
Q 1547 4250 1301 3770 
Q 1056 3291 1056 2328 
Q 1056 1369 1301 889 
Q 1547 409 2034 409 
Q 2525 409 2770 889 
Q 3016 1369 3016 2328 
Q 3016 3291 2770 3770 
Q 2525 4250 2034 4250 
z
M 2034 4750 
Q 2819 4750 3233 4129 
Q 3647 3509 3647 2328 
Q 3647 1150 3233 529 
Q 2819 -91 2034 -91 
Q 1250 -91 836 529 
Q 422 1150 422 2328 
Q 422 3509 836 4129 
Q 1250 4750 2034 4750 
z
" transform="scale(0.015625)"/>
       </defs>
       <use xlink:href="#DejaVuSans-31"/>
       <use xlink:href="#DejaVuSans-2e" x="63.623047"/>
       <use xlink:href="#DejaVuSans-30" x="95.410156"/>
      </g>
     </g>
    </g>
    <g id="xtick_2">
     <g id="line2d_2">
      <g>
       <use xlink:href="#m7cbcb70e61" x="118.250792" y="228.96" style="stroke: #000000; stroke-width: 0.8"/>
      </g>
     </g>
     <g id="text_2">
      <!-- 1.5 -->
      <g transform="translate(110.29923 243.558437) scale(0.1 -0.1)">
       <defs>
        <path id="DejaVuSans-35" d="M 691 4666 
L 3169 4666 
L 3169 4134 
L 1269 4134 
L 1269 2991 
Q 1406 3038 1543 3061 
Q 1681 3084 1819 3084 
Q 2600 3084 3056 2656 
Q 3513 2228 3513 1497 
Q 3513 744 3044 326 
Q 2575 -91 1722 -91 
Q 1428 -91 1123 -41 
Q 819 9 494 109 
L 494 744 
Q 775 591 1075 516 
Q 1375 441 1709 441 
Q 2250 441 2565 725 
Q 2881 1009 2881 1497 
Q 2881 1984 2565 2268 
Q 2250 2553 1709 2553 
Q 1456 2553 1204 2497 
Q 953 2441 691 2322 
L 691 4666 
z
" transform="scale(0.015625)"/>
       </defs>
       <use xlink:href="#DejaVuSans-31"/>
       <use xlink:href="#DejaVuSans-2e" x="63.623047"/>
       <use xlink:href="#DejaVuSans-35" x="95.410156"/>
      </g>
     </g>
    </g>
    <g id="xtick_3">
     <g id="line2d_3">
      <g>
       <use xlink:href="#m7cbcb70e61" x="158.298639" y="228.96" style="stroke: #000000; stroke-width: 0.8"/>
      </g>
     </g>
     <g id="text_3">
      <!-- 2.0 -->
      <g transform="translate(150.347077 243.558437) scale(0.1 -0.1)">
       <defs>
        <path id="DejaVuSans-32" d="M 1228 531 
L 3431 531 
L 3431 0 
L 469 0 
L 469 531 
Q 828 903 1448 1529 
Q 2069 2156 2228 2338 
Q 2531 2678 2651 2914 
Q 2772 3150 2772 3378 
Q 2772 3750 2511 3984 
Q 2250 4219 1831 4219 
Q 1534 4219 1204 4116 
Q 875 4013 500 3803 
L 500 4441 
Q 881 4594 1212 4672 
Q 1544 4750 1819 4750 
Q 2544 4750 2975 4387 
Q 3406 4025 3406 3419 
Q 3406 3131 3298 2873 
Q 3191 2616 2906 2266 
Q 2828 2175 2409 1742 
Q 1991 1309 1228 531 
z
" transform="scale(0.015625)"/>
       </defs>
       <use xlink:href="#DejaVuSans-32"/>
       <use xlink:href="#DejaVuSans-2e" x="63.623047"/>
       <use xlink:href="#DejaVuSans-30" x="95.410156"/>
      </g>
     </g>
    </g>
    <g id="xtick_4">
     <g id="line2d_4">
      <g>
       <use xlink:href="#m7cbcb70e61" x="198.346486" y="228.96" style="stroke: #000000; stroke-width: 0.8"/>
      </g>
     </g>
     <g id="text_4">
      <!-- 2.5 -->
      <g transform="translate(190.394924 243.558437) scale(0.1 -0.1)">
       <use xlink:href="#DejaVuSans-32"/>
       <use xlink:href="#DejaVuSans-2e" x="63.623047"/>
       <use xlink:href="#DejaVuSans-35" x="95.410156"/>
      </g>
     </g>
    </g>
    <g id="xtick_5">
     <g id="line2d_5">
      <g>
       <use xlink:href="#m7cbcb70e61" x="238.394333" y="228.96" style="stroke: #000000; stroke-width: 0.8"/>
      </g>
     </g>
     <g id="text_5">
      <!-- 3.0 -->
      <g transform="translate(230.442771 243.558437) scale(0.1 -0.1)">
       <defs>
        <path id="DejaVuSans-33" d="M 2597 2516 
Q 3050 2419 3304 2112 
Q 3559 1806 3559 1356 
Q 3559 666 3084 287 
Q 2609 -91 1734 -91 
Q 1441 -91 1130 -33 
Q 819 25 488 141 
L 488 750 
Q 750 597 1062 519 
Q 1375 441 1716 441 
Q 2309 441 2620 675 
Q 2931 909 2931 1356 
Q 2931 1769 2642 2001 
Q 2353 2234 1838 2234 
L 1294 2234 
L 1294 2753 
L 1863 2753 
Q 2328 2753 2575 2939 
Q 2822 3125 2822 3475 
Q 2822 3834 2567 4026 
Q 2313 4219 1838 4219 
Q 1578 4219 1281 4162 
Q 984 4106 628 3988 
L 628 4550 
Q 988 4650 1302 4700 
Q 1616 4750 1894 4750 
Q 2613 4750 3031 4423 
Q 3450 4097 3450 3541 
Q 3450 3153 3228 2886 
Q 3006 2619 2597 2516 
z
" transform="scale(0.015625)"/>
       </defs>
       <use xlink:href="#DejaVuSans-33"/>
       <use xlink:href="#DejaVuSans-2e" x="63.623047"/>
       <use xlink:href="#DejaVuSans-30" x="95.410156"/>
      </g>
     </g>
    </g>
    <g id="xtick_6">
     <g id="line2d_6">
      <g>
       <use xlink:href="#m7cbcb70e61" x="278.44218" y="228.96" style="stroke: #000000; stroke-width: 0.8"/>
      </g>
     </g>
     <g id="text_6">
      <!-- 3.5 -->
      <g transform="translate(270.490618 243.558437) scale(0.1 -0.1)">
       <use xlink:href="#DejaVuSans-33"/>
       <use xlink:href="#DejaVuSans-2e" x="63.623047"/>
       <use xlink:href="#DejaVuSans-35" x="95.410156"/>
      </g>
     </g>
    </g>
    <g id="xtick_7">
     <g id="line2d_7">
      <g>
       <use xlink:href="#m7cbcb70e61" x="318.490027" y="228.96" style="stroke: #000000; stroke-width: 0.8"/>
      </g>
     </g>
     <g id="text_7">
      <!-- 4.0 -->
      <g transform="translate(310.538464 243.558437) scale(0.1 -0.1)">
       <defs>
        <path id="DejaVuSans-34" d="M 2419 4116 
L 825 1625 
L 2419 1625 
L 2419 4116 
z
M 2253 4666 
L 3047 4666 
L 3047 1625 
L 3713 1625 
L 3713 1100 
L 3047 1100 
L 3047 0 
L 2419 0 
L 2419 1100 
L 313 1100 
L 313 1709 
L 2253 4666 
z
" transform="scale(0.015625)"/>
       </defs>
       <use xlink:href="#DejaVuSans-34"/>
       <use xlink:href="#DejaVuSans-2e" x="63.623047"/>
       <use xlink:href="#DejaVuSans-30" x="95.410156"/>
      </g>
     </g>
    </g>
    <g id="xtick_8">
     <g id="line2d_8">
      <g>
       <use xlink:href="#m7cbcb70e61" x="358.537874" y="228.96" style="stroke: #000000; stroke-width: 0.8"/>
      </g>
     </g>
     <g id="text_8">
      <!-- 4.5 -->
      <g transform="translate(350.586311 243.558437) scale(0.1 -0.1)">
       <use xlink:href="#DejaVuSans-34"/>
       <use xlink:href="#DejaVuSans-2e" x="63.623047"/>
       <use xlink:href="#DejaVuSans-35" x="95.410156"/>
      </g>
     </g>
    </g>
    <g id="text_9">
     <!-- wavelength [Å] -->
     <g transform="translate(176.328125 258.920937) scale(0.1 -0.1)">
      <defs>
       <path id="DejaVuSans-77" d="M 269 3500 
L 844 3500 
L 1563 769 
L 2278 3500 
L 2956 3500 
L 3675 769 
L 4391 3500 
L 4966 3500 
L 4050 0 
L 3372 0 
L 2619 2869 
L 1863 0 
L 1184 0 
L 269 3500 
z
" transform="scale(0.015625)"/>
       <path id="DejaVuSans-61" d="M 2194 1759 
Q 1497 1759 1228 1600 
Q 959 1441 959 1056 
Q 959 750 1161 570 
Q 1363 391 1709 391 
Q 2188 391 2477 730 
Q 2766 1069 2766 1631 
L 2766 1759 
L 2194 1759 
z
M 3341 1997 
L 3341 0 
L 2766 0 
L 2766 531 
Q 2569 213 2275 61 
Q 1981 -91 1556 -91 
Q 1019 -91 701 211 
Q 384 513 384 1019 
Q 384 1609 779 1909 
Q 1175 2209 1959 2209 
L 2766 2209 
L 2766 2266 
Q 2766 2663 2505 2880 
Q 2244 3097 1772 3097 
Q 1472 3097 1187 3025 
Q 903 2953 641 2809 
L 641 3341 
Q 956 3463 1253 3523 
Q 1550 3584 1831 3584 
Q 2591 3584 2966 3190 
Q 3341 2797 3341 1997 
z
" transform="scale(0.015625)"/>
       <path id="DejaVuSans-76" d="M 191 3500 
L 800 3500 
L 1894 563 
L 2988 3500 
L 3597 3500 
L 2284 0 
L 1503 0 
L 191 3500 
z
" transform="scale(0.015625)"/>
       <path id="DejaVuSans-65" d="M 3597 1894 
L 3597 1613 
L 953 1613 
Q 991 1019 1311 708 
Q 1631 397 2203 397 
Q 2534 397 2845 478 
Q 3156 559 3463 722 
L 3463 178 
Q 3153 47 2828 -22 
Q 2503 -91 2169 -91 
Q 1331 -91 842 396 
Q 353 884 353 1716 
Q 353 2575 817 3079 
Q 1281 3584 2069 3584 
Q 2775 3584 3186 3129 
Q 3597 2675 3597 1894 
z
M 3022 2063 
Q 3016 2534 2758 2815 
Q 2500 3097 2075 3097 
Q 1594 3097 1305 2825 
Q 1016 2553 972 2059 
L 3022 2063 
z
" transform="scale(0.015625)"/>
       <path id="DejaVuSans-6c" d="M 603 4863 
L 1178 4863 
L 1178 0 
L 603 0 
L 603 4863 
z
" transform="scale(0.015625)"/>
       <path id="DejaVuSans-6e" d="M 3513 2113 
L 3513 0 
L 2938 0 
L 2938 2094 
Q 2938 2591 2744 2837 
Q 2550 3084 2163 3084 
Q 1697 3084 1428 2787 
Q 1159 2491 1159 1978 
L 1159 0 
L 581 0 
L 581 3500 
L 1159 3500 
L 1159 2956 
Q 1366 3272 1645 3428 
Q 1925 3584 2291 3584 
Q 2894 3584 3203 3211 
Q 3513 2838 3513 2113 
z
" transform="scale(0.015625)"/>
       <path id="DejaVuSans-67" d="M 2906 1791 
Q 2906 2416 2648 2759 
Q 2391 3103 1925 3103 
Q 1463 3103 1205 2759 
Q 947 2416 947 1791 
Q 947 1169 1205 825 
Q 1463 481 1925 481 
Q 2391 481 2648 825 
Q 2906 1169 2906 1791 
z
M 3481 434 
Q 3481 -459 3084 -895 
Q 2688 -1331 1869 -1331 
Q 1566 -1331 1297 -1286 
Q 1028 -1241 775 -1147 
L 775 -588 
Q 1028 -725 1275 -790 
Q 1522 -856 1778 -856 
Q 2344 -856 2625 -561 
Q 2906 -266 2906 331 
L 2906 616 
Q 2728 306 2450 153 
Q 2172 0 1784 0 
Q 1141 0 747 490 
Q 353 981 353 1791 
Q 353 2603 747 3093 
Q 1141 3584 1784 3584 
Q 2172 3584 2450 3431 
Q 2728 3278 2906 2969 
L 2906 3500 
L 3481 3500 
L 3481 434 
z
" transform="scale(0.015625)"/>
       <path id="DejaVuSans-74" d="M 1172 4494 
L 1172 3500 
L 2356 3500 
L 2356 3053 
L 1172 3053 
L 1172 1153 
Q 1172 725 1289 603 
Q 1406 481 1766 481 
L 2356 481 
L 2356 0 
L 1766 0 
Q 1100 0 847 248 
Q 594 497 594 1153 
L 594 3053 
L 172 3053 
L 172 3500 
L 594 3500 
L 594 4494 
L 1172 4494 
z
" transform="scale(0.015625)"/>
       <path id="DejaVuSans-68" d="M 3513 2113 
L 3513 0 
L 2938 0 
L 2938 2094 
Q 2938 2591 2744 2837 
Q 2550 3084 2163 3084 
Q 1697 3084 1428 2787 
Q 1159 2491 1159 1978 
L 1159 0 
L 581 0 
L 581 4863 
L 1159 4863 
L 1159 2956 
Q 1366 3272 1645 3428 
Q 1925 3584 2291 3584 
Q 2894 3584 3203 3211 
Q 3513 2838 3513 2113 
z
" transform="scale(0.015625)"/>
       <path id="DejaVuSans-20" transform="scale(0.015625)"/>
       <path id="DejaVuSans-5b" d="M 550 4863 
L 1875 4863 
L 1875 4416 
L 1125 4416 
L 1125 -397 
L 1875 -397 
L 1875 -844 
L 550 -844 
L 550 4863 
z
" transform="scale(0.015625)"/>
       <path id="DejaVuSans-c5" d="M 2663 5081 
Q 2663 5278 2523 5417 
Q 2384 5556 2188 5556 
Q 1988 5556 1852 5420 
Q 1716 5284 1716 5081 
Q 1716 4884 1853 4746 
Q 1991 4609 2188 4609 
Q 2384 4609 2523 4746 
Q 2663 4884 2663 5081 
z
M 2188 4044 
L 1338 1722 
L 3041 1722 
L 2188 4044 
z
M 1716 4366 
Q 1525 4494 1428 4673 
Q 1331 4853 1331 5081 
Q 1331 5441 1579 5691 
Q 1828 5941 2188 5941 
Q 2544 5941 2795 5689 
Q 3047 5438 3047 5081 
Q 3047 4863 2948 4678 
Q 2850 4494 2663 4366 
L 4325 0 
L 3669 0 
L 3244 1197 
L 1141 1197 
L 716 0 
L 50 0 
L 1716 4366 
z
" transform="scale(0.015625)"/>
       <path id="DejaVuSans-5d" d="M 1947 4863 
L 1947 -844 
L 622 -844 
L 622 -397 
L 1369 -397 
L 1369 4416 
L 622 4416 
L 622 4863 
L 1947 4863 
z
" transform="scale(0.015625)"/>
      </defs>
      <use xlink:href="#DejaVuSans-77"/>
      <use xlink:href="#DejaVuSans-61" x="81.787109"/>
      <use xlink:href="#DejaVuSans-76" x="143.066406"/>
      <use xlink:href="#DejaVuSans-65" x="202.246094"/>
      <use xlink:href="#DejaVuSans-6c" x="263.769531"/>
      <use xlink:href="#DejaVuSans-65" x="291.552734"/>
      <use xlink:href="#DejaVuSans-6e" x="353.076172"/>
      <use xlink:href="#DejaVuSans-67" x="416.455078"/>
      <use xlink:href="#DejaVuSans-74" x="479.931641"/>
      <use xlink:href="#DejaVuSans-68" x="519.140625"/>
      <use xlink:href="#DejaVuSans-20" x="582.519531"/>
      <use xlink:href="#DejaVuSans-5b" x="614.306641"/>
      <use xlink:href="#DejaVuSans-c5" x="653.320312"/>
      <use xlink:href="#DejaVuSans-5d" x="721.728516"/>
     </g>
    </g>
   </g>
   <g id="matplotlib.axis_2">
    <g id="ytick_1">
     <g id="line2d_9">
      <defs>
       <path id="mfcc54ea090" d="M 0 0 
L -3.5 0 
" style="stroke: #000000; stroke-width: 0.8"/>
      </defs>
      <g>
       <use xlink:href="#mfcc54ea090" x="46.965625" y="218.88" style="stroke: #000000; stroke-width: 0.8"/>
      </g>
     </g>
     <g id="text_10">
      <!-- 0 -->
      <g transform="translate(33.603125 222.679219) scale(0.1 -0.1)">
       <use xlink:href="#DejaVuSans-30"/>
      </g>
     </g>
    </g>
    <g id="ytick_2">
     <g id="line2d_10">
      <g>
       <use xlink:href="#mfcc54ea090" x="46.965625" y="170.007273" style="stroke: #000000; stroke-width: 0.8"/>
      </g>
     </g>
     <g id="text_11">
      <!-- 200 -->
      <g transform="translate(20.878125 173.806491) scale(0.1 -0.1)">
       <use xlink:href="#DejaVuSans-32"/>
       <use xlink:href="#DejaVuSans-30" x="63.623047"/>
       <use xlink:href="#DejaVuSans-30" x="127.246094"/>
      </g>
     </g>
    </g>
    <g id="ytick_3">
     <g id="line2d_11">
      <g>
       <use xlink:href="#mfcc54ea090" x="46.965625" y="121.134545" style="stroke: #000000; stroke-width: 0.8"/>
      </g>
     </g>
     <g id="text_12">
      <!-- 400 -->
      <g transform="translate(20.878125 124.933764) scale(0.1 -0.1)">
       <use xlink:href="#DejaVuSans-34"/>
       <use xlink:href="#DejaVuSans-30" x="63.623047"/>
       <use xlink:href="#DejaVuSans-30" x="127.246094"/>
      </g>
     </g>
    </g>
    <g id="ytick_4">
     <g id="line2d_12">
      <g>
       <use xlink:href="#mfcc54ea090" x="46.965625" y="72.261818" style="stroke: #000000; stroke-width: 0.8"/>
      </g>
     </g>
     <g id="text_13">
      <!-- 600 -->
      <g transform="translate(20.878125 76.061037) scale(0.1 -0.1)">
       <defs>
        <path id="DejaVuSans-36" d="M 2113 2584 
Q 1688 2584 1439 2293 
Q 1191 2003 1191 1497 
Q 1191 994 1439 701 
Q 1688 409 2113 409 
Q 2538 409 2786 701 
Q 3034 994 3034 1497 
Q 3034 2003 2786 2293 
Q 2538 2584 2113 2584 
z
M 3366 4563 
L 3366 3988 
Q 3128 4100 2886 4159 
Q 2644 4219 2406 4219 
Q 1781 4219 1451 3797 
Q 1122 3375 1075 2522 
Q 1259 2794 1537 2939 
Q 1816 3084 2150 3084 
Q 2853 3084 3261 2657 
Q 3669 2231 3669 1497 
Q 3669 778 3244 343 
Q 2819 -91 2113 -91 
Q 1303 -91 875 529 
Q 447 1150 447 2328 
Q 447 3434 972 4092 
Q 1497 4750 2381 4750 
Q 2619 4750 2861 4703 
Q 3103 4656 3366 4563 
z
" transform="scale(0.015625)"/>
       </defs>
       <use xlink:href="#DejaVuSans-36"/>
       <use xlink:href="#DejaVuSans-30" x="63.623047"/>
       <use xlink:href="#DejaVuSans-30" x="127.246094"/>
      </g>
     </g>
    </g>
    <g id="ytick_5">
     <g id="line2d_13">
      <g>
       <use xlink:href="#mfcc54ea090" x="46.965625" y="23.389091" style="stroke: #000000; stroke-width: 0.8"/>
      </g>
     </g>
     <g id="text_14">
      <!-- 800 -->
      <g transform="translate(20.878125 27.18831) scale(0.1 -0.1)">
       <defs>
        <path id="DejaVuSans-38" d="M 2034 2216 
Q 1584 2216 1326 1975 
Q 1069 1734 1069 1313 
Q 1069 891 1326 650 
Q 1584 409 2034 409 
Q 2484 409 2743 651 
Q 3003 894 3003 1313 
Q 3003 1734 2745 1975 
Q 2488 2216 2034 2216 
z
M 1403 2484 
Q 997 2584 770 2862 
Q 544 3141 544 3541 
Q 544 4100 942 4425 
Q 1341 4750 2034 4750 
Q 2731 4750 3128 4425 
Q 3525 4100 3525 3541 
Q 3525 3141 3298 2862 
Q 3072 2584 2669 2484 
Q 3125 2378 3379 2068 
Q 3634 1759 3634 1313 
Q 3634 634 3220 271 
Q 2806 -91 2034 -91 
Q 1263 -91 848 271 
Q 434 634 434 1313 
Q 434 1759 690 2068 
Q 947 2378 1403 2484 
z
M 1172 3481 
Q 1172 3119 1398 2916 
Q 1625 2713 2034 2713 
Q 2441 2713 2670 2916 
Q 2900 3119 2900 3481 
Q 2900 3844 2670 4047 
Q 2441 4250 2034 4250 
Q 1625 4250 1398 4047 
Q 1172 3844 1172 3481 
z
" transform="scale(0.015625)"/>
       </defs>
       <use xlink:href="#DejaVuSans-38"/>
       <use xlink:href="#DejaVuSans-30" x="63.623047"/>
       <use xlink:href="#DejaVuSans-30" x="127.246094"/>
      </g>
     </g>
    </g>
    <g id="text_15">
     <!-- [counts] -->
     <g transform="translate(14.798438 138.6925) rotate(-90) scale(0.1 -0.1)">
      <defs>
       <path id="DejaVuSans-63" d="M 3122 3366 
L 3122 2828 
Q 2878 2963 2633 3030 
Q 2388 3097 2138 3097 
Q 1578 3097 1268 2742 
Q 959 2388 959 1747 
Q 959 1106 1268 751 
Q 1578 397 2138 397 
Q 2388 397 2633 464 
Q 2878 531 3122 666 
L 3122 134 
Q 2881 22 2623 -34 
Q 2366 -91 2075 -91 
Q 1284 -91 818 406 
Q 353 903 353 1747 
Q 353 2603 823 3093 
Q 1294 3584 2113 3584 
Q 2378 3584 2631 3529 
Q 2884 3475 3122 3366 
z
" transform="scale(0.015625)"/>
       <path id="DejaVuSans-6f" d="M 1959 3097 
Q 1497 3097 1228 2736 
Q 959 2375 959 1747 
Q 959 1119 1226 758 
Q 1494 397 1959 397 
Q 2419 397 2687 759 
Q 2956 1122 2956 1747 
Q 2956 2369 2687 2733 
Q 2419 3097 1959 3097 
z
M 1959 3584 
Q 2709 3584 3137 3096 
Q 3566 2609 3566 1747 
Q 3566 888 3137 398 
Q 2709 -91 1959 -91 
Q 1206 -91 779 398 
Q 353 888 353 1747 
Q 353 2609 779 3096 
Q 1206 3584 1959 3584 
z
" transform="scale(0.015625)"/>
       <path id="DejaVuSans-75" d="M 544 1381 
L 544 3500 
L 1119 3500 
L 1119 1403 
Q 1119 906 1312 657 
Q 1506 409 1894 409 
Q 2359 409 2629 706 
Q 2900 1003 2900 1516 
L 2900 3500 
L 3475 3500 
L 3475 0 
L 2900 0 
L 2900 538 
Q 2691 219 2414 64 
Q 2138 -91 1772 -91 
Q 1169 -91 856 284 
Q 544 659 544 1381 
z
M 1991 3584 
L 1991 3584 
z
" transform="scale(0.015625)"/>
       <path id="DejaVuSans-73" d="M 2834 3397 
L 2834 2853 
Q 2591 2978 2328 3040 
Q 2066 3103 1784 3103 
Q 1356 3103 1142 2972 
Q 928 2841 928 2578 
Q 928 2378 1081 2264 
Q 1234 2150 1697 2047 
L 1894 2003 
Q 2506 1872 2764 1633 
Q 3022 1394 3022 966 
Q 3022 478 2636 193 
Q 2250 -91 1575 -91 
Q 1294 -91 989 -36 
Q 684 19 347 128 
L 347 722 
Q 666 556 975 473 
Q 1284 391 1588 391 
Q 1994 391 2212 530 
Q 2431 669 2431 922 
Q 2431 1156 2273 1281 
Q 2116 1406 1581 1522 
L 1381 1569 
Q 847 1681 609 1914 
Q 372 2147 372 2553 
Q 372 3047 722 3315 
Q 1072 3584 1716 3584 
Q 2034 3584 2315 3537 
Q 2597 3491 2834 3397 
z
" transform="scale(0.015625)"/>
      </defs>
      <use xlink:href="#DejaVuSans-5b"/>
      <use xlink:href="#DejaVuSans-63" x="39.013672"/>
      <use xlink:href="#DejaVuSans-6f" x="93.994141"/>
      <use xlink:href="#DejaVuSans-75" x="155.175781"/>
      <use xlink:href="#DejaVuSans-6e" x="218.554688"/>
      <use xlink:href="#DejaVuSans-74" x="281.933594"/>
      <use xlink:href="#DejaVuSans-73" x="321.142578"/>
      <use xlink:href="#DejaVuSans-5d" x="373.242188"/>
     </g>
    </g>
   </g>
   <g id="patch_3">
    <path d="M 46.965625 228.96 
L 46.965625 7.2 
" style="fill: none; stroke: #000000; stroke-width: 0.8; stroke-linejoin: miter; stroke-linecap: square"/>
   </g>
   <g id="patch_4">
    <path d="M 381.765625 228.96 
L 381.765625 7.2 
" style="fill: none; stroke: #000000; stroke-width: 0.8; stroke-linejoin: miter; stroke-linecap: square"/>
   </g>
   <g id="patch_5">
    <path d="M 46.965625 228.96 
L 381.765625 228.96 
" style="fill: none; stroke: #000000; stroke-width: 0.8; stroke-linejoin: miter; stroke-linecap: square"/>
   </g>
   <g id="patch_6">
    <path d="M 46.965625 7.2 
L 381.765625 7.2 
" style="fill: none; stroke: #000000; stroke-width: 0.8; stroke-linejoin: miter; stroke-linecap: square"/>
   </g>
   <g id="legend_1">
    <g id="patch_7">
     <path d="M 277.7625 44.834375 
L 374.765625 44.834375 
Q 376.765625 44.834375 376.765625 42.834375 
L 376.765625 14.2 
Q 376.765625 12.2 374.765625 12.2 
L 277.7625 12.2 
Q 275.7625 12.2 275.7625 14.2 
L 275.7625 42.834375 
Q 275.7625 44.834375 277.7625 44.834375 
z
" style="fill: #ffffff; opacity: 0.8; stroke: #cccccc; stroke-linejoin: miter"/>
    </g>
    <g id="line2d_14">
     <path d="M 279.7625 20.298437 
L 279.7625 20.298437 
L 289.7625 20.298437 
L 289.7625 20.298437 
L 299.7625 20.298437 
" style="fill: none; stroke: #1f77b4; stroke-width: 1.5; stroke-linecap: square"/>
    </g>
    <g id="text_16">
     <!-- wfm -->
     <g transform="translate(307.7625 23.798437) scale(0.1 -0.1)">
      <defs>
       <path id="DejaVuSans-66" d="M 2375 4863 
L 2375 4384 
L 1825 4384 
Q 1516 4384 1395 4259 
Q 1275 4134 1275 3809 
L 1275 3500 
L 2222 3500 
L 2222 3053 
L 1275 3053 
L 1275 0 
L 697 0 
L 697 3053 
L 147 3053 
L 147 3500 
L 697 3500 
L 697 3744 
Q 697 4328 969 4595 
Q 1241 4863 1831 4863 
L 2375 4863 
z
" transform="scale(0.015625)"/>
       <path id="DejaVuSans-6d" d="M 3328 2828 
Q 3544 3216 3844 3400 
Q 4144 3584 4550 3584 
Q 5097 3584 5394 3201 
Q 5691 2819 5691 2113 
L 5691 0 
L 5113 0 
L 5113 2094 
Q 5113 2597 4934 2840 
Q 4756 3084 4391 3084 
Q 3944 3084 3684 2787 
Q 3425 2491 3425 1978 
L 3425 0 
L 2847 0 
L 2847 2094 
Q 2847 2600 2669 2842 
Q 2491 3084 2119 3084 
Q 1678 3084 1418 2786 
Q 1159 2488 1159 1978 
L 1159 0 
L 581 0 
L 581 3500 
L 1159 3500 
L 1159 2956 
Q 1356 3278 1631 3431 
Q 1906 3584 2284 3584 
Q 2666 3584 2933 3390 
Q 3200 3197 3328 2828 
z
" transform="scale(0.015625)"/>
      </defs>
      <use xlink:href="#DejaVuSans-77"/>
      <use xlink:href="#DejaVuSans-66" x="81.787109"/>
      <use xlink:href="#DejaVuSans-6d" x="116.992188"/>
     </g>
    </g>
    <g id="line2d_15">
     <path d="M 279.7625 34.976562 
L 279.7625 34.976562 
L 289.7625 34.976562 
L 289.7625 34.976562 
L 299.7625 34.976562 
" style="fill: none; stroke: #ff7f0e; stroke-width: 1.5; stroke-linecap: square"/>
    </g>
    <g id="text_17">
     <!-- ground_truth -->
     <g transform="translate(307.7625 38.476562) scale(0.1 -0.1)">
      <defs>
       <path id="DejaVuSans-72" d="M 2631 2963 
Q 2534 3019 2420 3045 
Q 2306 3072 2169 3072 
Q 1681 3072 1420 2755 
Q 1159 2438 1159 1844 
L 1159 0 
L 581 0 
L 581 3500 
L 1159 3500 
L 1159 2956 
Q 1341 3275 1631 3429 
Q 1922 3584 2338 3584 
Q 2397 3584 2469 3576 
Q 2541 3569 2628 3553 
L 2631 2963 
z
" transform="scale(0.015625)"/>
       <path id="DejaVuSans-64" d="M 2906 2969 
L 2906 4863 
L 3481 4863 
L 3481 0 
L 2906 0 
L 2906 525 
Q 2725 213 2448 61 
Q 2172 -91 1784 -91 
Q 1150 -91 751 415 
Q 353 922 353 1747 
Q 353 2572 751 3078 
Q 1150 3584 1784 3584 
Q 2172 3584 2448 3432 
Q 2725 3281 2906 2969 
z
M 947 1747 
Q 947 1113 1208 752 
Q 1469 391 1925 391 
Q 2381 391 2643 752 
Q 2906 1113 2906 1747 
Q 2906 2381 2643 2742 
Q 2381 3103 1925 3103 
Q 1469 3103 1208 2742 
Q 947 2381 947 1747 
z
" transform="scale(0.015625)"/>
       <path id="DejaVuSans-5f" d="M 3263 -1063 
L 3263 -1509 
L -63 -1509 
L -63 -1063 
L 3263 -1063 
z
" transform="scale(0.015625)"/>
      </defs>
      <use xlink:href="#DejaVuSans-67"/>
      <use xlink:href="#DejaVuSans-72" x="63.476562"/>
      <use xlink:href="#DejaVuSans-6f" x="102.339844"/>
      <use xlink:href="#DejaVuSans-75" x="163.521484"/>
      <use xlink:href="#DejaVuSans-6e" x="226.900391"/>
      <use xlink:href="#DejaVuSans-64" x="290.279297"/>
      <use xlink:href="#DejaVuSans-5f" x="353.755859"/>
      <use xlink:href="#DejaVuSans-74" x="403.755859"/>
      <use xlink:href="#DejaVuSans-72" x="442.964844"/>
      <use xlink:href="#DejaVuSans-75" x="484.078125"/>
      <use xlink:href="#DejaVuSans-74" x="547.457031"/>
      <use xlink:href="#DejaVuSans-68" x="586.666016"/>
     </g>
    </g>
   </g>
   <g id="line2d_16">
    <path d="M 62.183807 218.88 
L 71.314716 218.88 
L 71.314716 213.992727 
L 72.836534 213.992727 
L 72.836534 204.462545 
L 74.358352 204.462545 
L 74.358352 199.819636 
L 75.88017 199.819636 
L 75.88017 193.466182 
L 77.401989 193.466182 
L 77.401989 174.894545 
L 78.923807 174.894545 
L 78.923807 174.650182 
L 80.445625 174.650182 
L 80.445625 173.428364 
L 81.967443 173.428364 
L 81.967443 159.988364 
L 83.489261 159.988364 
L 83.489261 153.879273 
L 85.01108 153.879273 
L 85.01108 151.435636 
L 86.532898 151.435636 
L 86.532898 126.999273 
L 88.054716 126.999273 
L 88.054716 135.552 
L 89.576534 135.552 
L 89.576534 122.600727 
L 91.098352 122.600727 
L 91.098352 118.935273 
L 92.62017 118.935273 
L 92.62017 99.386182 
L 94.141989 99.386182 
L 94.141989 95.476364 
L 95.663807 95.476364 
L 95.663807 81.792 
L 97.185625 81.792 
L 97.185625 83.991273 
L 98.707443 83.991273 
L 98.707443 87.656727 
L 100.229261 87.656727 
L 100.229261 72.506182 
L 101.75108 72.506182 
L 101.75108 68.107636 
L 103.272898 68.107636 
L 103.272898 66.152727 
L 104.794716 66.152727 
L 104.794716 61.265455 
L 106.316534 61.265455 
L 106.316534 48.069818 
L 107.838352 48.069818 
L 107.838352 50.024727 
L 109.36017 50.024727 
L 109.36017 47.825455 
L 110.881989 47.825455 
L 110.881989 47.092364 
L 112.403807 47.092364 
L 112.403807 38.539636 
L 113.925625 38.539636 
L 113.925625 29.742545 
L 115.447443 29.742545 
L 115.447443 30.72 
L 116.969261 30.72 
L 116.969261 28.520727 
L 118.49108 28.520727 
L 118.49108 39.517091 
L 120.012898 39.517091 
L 120.012898 32.186182 
L 121.534716 32.186182 
L 121.534716 20.701091 
L 123.056534 20.701091 
L 123.056534 18.746182 
L 124.578352 18.746182 
L 124.578352 47.336727 
L 126.10017 47.336727 
L 126.10017 41.716364 
L 127.621989 41.716364 
L 127.621989 42.938182 
L 129.143807 42.938182 
L 129.143807 53.934545 
L 130.665625 53.934545 
L 130.665625 50.513455 
L 132.187443 50.513455 
L 132.187443 45.626182 
L 133.709261 45.626182 
L 133.709261 54.423273 
L 135.23108 54.423273 
L 135.23108 62.731636 
L 136.752898 62.731636 
L 136.752898 60.043636 
L 138.274716 60.043636 
L 138.274716 48.558545 
L 139.796534 48.558545 
L 139.796534 61.998545 
L 141.318352 61.998545 
L 141.318352 59.310545 
L 142.84017 59.310545 
L 142.84017 61.509818 
L 145.883807 61.509818 
L 145.883807 66.885818 
L 147.405625 66.885818 
L 147.405625 62.731636 
L 148.927443 62.731636 
L 148.927443 67.618909 
L 150.449261 67.618909 
L 150.449261 74.949818 
L 151.97108 74.949818 
L 151.97108 63.220364 
L 153.492898 63.220364 
L 153.492898 61.509818 
L 155.014716 61.509818 
L 155.014716 67.863273 
L 156.536534 67.863273 
L 156.536534 75.682909 
L 158.058352 75.682909 
L 158.058352 76.660364 
L 159.58017 76.660364 
L 159.58017 81.547636 
L 161.101989 81.547636 
L 161.101989 72.017455 
L 162.623807 72.017455 
L 162.623807 73.239273 
L 164.145625 73.239273 
L 164.145625 76.416 
L 165.667443 76.416 
L 165.667443 72.506182 
L 167.189261 72.506182 
L 167.189261 66.885818 
L 168.71108 66.885818 
L 168.71108 73.728 
L 170.232898 73.728 
L 170.232898 86.190545 
L 171.754716 86.190545 
L 171.754716 89.367273 
L 173.276534 89.367273 
L 173.276534 70.551273 
L 174.798352 70.551273 
L 174.798352 83.746909 
L 176.32017 83.746909 
L 176.32017 88.389818 
L 177.841989 88.389818 
L 177.841989 82.036364 
L 179.363807 82.036364 
L 179.363807 99.874909 
L 180.885625 99.874909 
L 180.885625 97.431273 
L 182.407443 97.431273 
L 182.407443 102.318545 
L 183.929261 102.318545 
L 183.929261 107.450182 
L 185.45108 107.450182 
L 185.45108 113.559273 
L 186.972898 113.559273 
L 186.972898 123.333818 
L 188.494716 123.333818 
L 188.494716 138.973091 
L 190.016534 138.973091 
L 190.016534 140.928 
L 191.538352 140.928 
L 191.538352 137.018182 
L 193.06017 137.018182 
L 193.06017 149.969455 
L 194.581989 149.969455 
L 194.581989 160.965818 
L 196.103807 160.965818 
L 196.103807 164.386909 
L 197.625625 164.386909 
L 197.625625 175.138909 
L 199.147443 175.138909 
L 199.147443 178.804364 
L 200.669261 178.804364 
L 200.669261 179.781818 
L 202.19108 179.781818 
L 202.19108 177.582545 
L 203.712898 177.582545 
L 203.712898 163.409455 
L 205.234716 163.409455 
L 205.234716 164.631273 
L 206.756534 164.631273 
L 206.756534 158.033455 
L 208.278352 158.033455 
L 208.278352 142.882909 
L 209.80017 142.882909 
L 209.80017 126.754909 
L 211.321989 126.754909 
L 211.321989 124.555636 
L 212.843807 124.555636 
L 212.843807 127.732364 
L 214.365625 127.732364 
L 214.365625 108.672 
L 215.887443 108.672 
L 215.887443 99.874909 
L 217.409261 99.874909 
L 217.409261 110.382545 
L 218.93108 110.382545 
L 218.93108 106.472727 
L 220.452898 106.472727 
L 220.452898 91.566545 
L 221.974716 91.566545 
L 221.974716 89.856 
L 223.496534 89.856 
L 223.496534 86.923636 
L 225.018352 86.923636 
L 225.018352 73.239273 
L 226.54017 73.239273 
L 226.54017 87.412364 
L 228.061989 87.412364 
L 228.061989 73.239273 
L 229.583807 73.239273 
L 229.583807 70.551273 
L 231.105625 70.551273 
L 231.105625 65.419636 
L 232.627443 65.419636 
L 232.627443 73.972364 
L 234.149261 73.972364 
L 234.149261 60.532364 
L 235.67108 60.532364 
L 235.67108 66.885818 
L 237.192898 66.885818 
L 237.192898 70.795636 
L 238.714716 70.795636 
L 238.714716 56.133818 
L 240.236534 56.133818 
L 240.236534 57.844364 
L 241.758352 57.844364 
L 241.758352 58.333091 
L 243.28017 58.333091 
L 243.28017 69.085091 
L 244.801989 69.085091 
L 244.801989 69.329455 
L 246.323807 69.329455 
L 246.323807 67.130182 
L 247.845625 67.130182 
L 247.845625 81.792 
L 249.367443 81.792 
L 249.367443 74.461091 
L 250.889261 74.461091 
L 250.889261 83.502545 
L 252.41108 83.502545 
L 252.41108 78.615273 
L 253.932898 78.615273 
L 253.932898 74.461091 
L 255.454716 74.461091 
L 255.454716 86.190545 
L 256.976534 86.190545 
L 256.976534 85.457455 
L 258.498352 85.457455 
L 258.498352 97.92 
L 260.02017 97.92 
L 260.02017 91.077818 
L 261.541989 91.077818 
L 261.541989 92.544 
L 263.063807 92.544 
L 263.063807 96.209455 
L 264.585625 96.209455 
L 264.585625 95.476364 
L 266.107443 95.476364 
L 266.107443 91.322182 
L 267.629261 91.322182 
L 267.629261 96.942545 
L 269.15108 96.942545 
L 269.15108 105.739636 
L 270.672898 105.739636 
L 270.672898 106.472727 
L 272.194716 106.472727 
L 272.194716 106.961455 
L 273.716534 106.961455 
L 273.716534 98.897455 
L 275.238352 98.897455 
L 275.238352 113.314909 
L 276.76017 113.314909 
L 276.76017 110.626909 
L 278.281989 110.626909 
L 278.281989 111.604364 
L 279.803807 111.604364 
L 279.803807 114.292364 
L 281.325625 114.292364 
L 281.325625 116.491636 
L 282.847443 116.491636 
L 282.847443 116.736 
L 284.369261 116.736 
L 284.369261 118.935273 
L 285.89108 118.935273 
L 285.89108 119.668364 
L 287.412898 119.668364 
L 287.412898 117.224727 
L 288.934716 117.224727 
L 288.934716 120.645818 
L 290.456534 120.645818 
L 290.456534 129.198545 
L 291.978352 129.198545 
L 291.978352 137.751273 
L 293.50017 137.751273 
L 293.50017 135.307636 
L 295.021989 135.307636 
L 295.021989 120.645818 
L 296.543807 120.645818 
L 296.543807 128.954182 
L 298.065625 128.954182 
L 298.065625 130.176 
L 299.587443 130.176 
L 299.587443 143.127273 
L 302.63108 143.127273 
L 302.63108 143.616 
L 304.152898 143.616 
L 304.152898 143.127273 
L 305.674716 143.127273 
L 305.674716 146.304 
L 307.196534 146.304 
L 307.196534 144.837818 
L 308.718352 144.837818 
L 308.718352 145.570909 
L 310.24017 145.570909 
L 310.24017 147.281455 
L 311.761989 147.281455 
L 311.761989 155.345455 
L 313.283807 155.345455 
L 313.283807 155.101091 
L 314.805625 155.101091 
L 314.805625 161.698909 
L 316.327443 161.698909 
L 316.327443 161.210182 
L 317.849261 161.210182 
L 317.849261 159.010909 
L 319.37108 159.010909 
L 319.37108 162.676364 
L 320.892898 162.676364 
L 320.892898 169.518545 
L 322.414716 169.518545 
L 322.414716 170.496 
L 323.936534 170.496 
L 323.936534 165.853091 
L 325.458352 165.853091 
L 325.458352 173.672727 
L 326.98017 173.672727 
L 326.98017 171.473455 
L 328.501989 171.473455 
L 328.501989 177.582545 
L 330.023807 177.582545 
L 330.023807 183.936 
L 331.545625 183.936 
L 331.545625 187.601455 
L 333.067443 187.601455 
L 333.067443 186.624 
L 334.589261 186.624 
L 334.589261 192 
L 336.11108 192 
L 336.11108 193.710545 
L 337.632898 193.710545 
L 337.632898 198.109091 
L 339.154716 198.109091 
L 339.154716 197.864727 
L 340.676534 197.864727 
L 340.676534 201.041455 
L 342.198352 201.041455 
L 342.198352 203.729455 
L 343.72017 203.729455 
L 343.72017 204.706909 
L 345.241989 204.706909 
L 345.241989 207.150545 
L 346.763807 207.150545 
L 346.763807 209.349818 
L 348.285625 209.349818 
L 348.285625 210.816 
L 349.807443 210.816 
L 349.807443 213.015273 
L 351.329261 213.015273 
L 351.329261 214.481455 
L 352.85108 214.481455 
L 352.85108 214.970182 
L 354.372898 214.970182 
L 354.372898 217.902545 
L 355.894716 217.902545 
L 355.894716 216.436364 
L 357.416534 216.436364 
L 357.416534 218.635636 
L 360.46017 218.635636 
L 360.46017 218.88 
L 366.547443 218.88 
L 366.547443 218.88 
" clip-path="url(#pf606ce2351)" style="fill: none; stroke: #1f77b4; stroke-width: 1.5; stroke-linecap: square"/>
   </g>
   <g id="line2d_17">
    <path d="M 62.183807 218.88 
L 69.792898 218.88 
L 69.792898 215.458909 
L 71.314716 215.458909 
L 71.314716 209.594182 
L 72.836534 209.594182 
L 72.836534 202.263273 
L 74.358352 202.263273 
L 74.358352 196.887273 
L 75.88017 196.887273 
L 75.88017 186.868364 
L 77.401989 186.868364 
L 77.401989 172.939636 
L 78.923807 172.939636 
L 78.923807 175.383273 
L 80.445625 175.383273 
L 80.445625 166.830545 
L 81.967443 166.830545 
L 81.967443 159.988364 
L 83.489261 159.988364 
L 83.489261 152.413091 
L 85.01108 152.413091 
L 85.01108 144.837818 
L 86.532898 144.837818 
L 86.532898 131.397818 
L 88.054716 131.397818 
L 88.054716 134.818909 
L 89.576534 134.818909 
L 89.576534 124.555636 
L 91.098352 124.555636 
L 91.098352 118.202182 
L 92.62017 118.202182 
L 92.62017 94.987636 
L 94.141989 94.987636 
L 94.141989 99.141818 
L 95.663807 99.141818 
L 95.663807 83.746909 
L 97.185625 83.746909 
L 97.185625 87.901091 
L 98.707443 87.901091 
L 98.707443 91.810909 
L 100.229261 91.810909 
L 100.229261 75.927273 
L 101.75108 75.927273 
L 101.75108 66.397091 
L 103.272898 66.397091 
L 103.272898 69.818182 
L 104.794716 69.818182 
L 104.794716 62.487273 
L 106.316534 62.487273 
L 106.316534 52.957091 
L 107.838352 52.957091 
L 107.838352 54.912 
L 109.36017 54.912 
L 109.36017 52.712727 
L 110.881989 52.712727 
L 110.881989 50.024727 
L 112.403807 50.024727 
L 112.403807 38.295273 
L 113.925625 38.295273 
L 113.925625 36.829091 
L 115.447443 36.829091 
L 115.447443 35.118545 
L 116.969261 35.118545 
L 116.969261 34.141091 
L 118.49108 34.141091 
L 118.49108 33.652364 
L 120.012898 33.652364 
L 120.012898 41.716364 
L 121.534716 41.716364 
L 121.534716 17.28 
L 123.056534 17.28 
L 123.056534 23.144727 
L 124.578352 23.144727 
L 124.578352 39.272727 
L 126.10017 39.272727 
L 126.10017 41.960727 
L 127.621989 41.960727 
L 127.621989 43.426909 
L 129.143807 43.426909 
L 129.143807 51.490909 
L 130.665625 51.490909 
L 130.665625 52.468364 
L 132.187443 52.468364 
L 132.187443 46.848 
L 133.709261 46.848 
L 133.709261 52.957091 
L 135.23108 52.957091 
L 135.23108 59.799273 
L 136.752898 59.799273 
L 136.752898 56.622545 
L 138.274716 56.622545 
L 138.274716 55.156364 
L 139.796534 55.156364 
L 139.796534 62.731636 
L 141.318352 62.731636 
L 141.318352 54.423273 
L 142.84017 54.423273 
L 142.84017 65.664 
L 144.361989 65.664 
L 144.361989 64.930909 
L 145.883807 64.930909 
L 145.883807 57.355636 
L 147.405625 57.355636 
L 147.405625 69.085091 
L 148.927443 69.085091 
L 148.927443 63.709091 
L 150.449261 63.709091 
L 150.449261 73.239273 
L 151.97108 73.239273 
L 151.97108 66.885818 
L 153.492898 66.885818 
L 153.492898 56.133818 
L 155.014716 56.133818 
L 155.014716 68.840727 
L 156.536534 68.840727 
L 156.536534 78.126545 
L 158.058352 78.126545 
L 158.058352 72.261818 
L 159.58017 72.261818 
L 159.58017 86.679273 
L 161.101989 86.679273 
L 161.101989 64.197818 
L 162.623807 64.197818 
L 162.623807 72.994909 
L 164.145625 72.994909 
L 164.145625 75.682909 
L 165.667443 75.682909 
L 165.667443 69.818182 
L 167.189261 69.818182 
L 167.189261 72.261818 
L 168.71108 72.261818 
L 168.71108 71.04 
L 170.232898 71.04 
L 170.232898 79.104 
L 171.754716 79.104 
L 171.754716 87.412364 
L 173.276534 87.412364 
L 173.276534 74.705455 
L 174.798352 74.705455 
L 174.798352 81.058909 
L 176.32017 81.058909 
L 176.32017 86.190545 
L 177.841989 86.190545 
L 177.841989 80.325818 
L 179.363807 80.325818 
L 179.363807 99.386182 
L 180.885625 99.386182 
L 180.885625 94.254545 
L 182.407443 94.254545 
L 182.407443 103.540364 
L 183.929261 103.540364 
L 183.929261 96.453818 
L 185.45108 96.453818 
L 185.45108 109.160727 
L 186.972898 109.160727 
L 186.972898 127.976727 
L 188.494716 127.976727 
L 188.494716 135.063273 
L 190.016534 135.063273 
L 190.016534 140.683636 
L 191.538352 140.683636 
L 191.538352 135.307636 
L 193.06017 135.307636 
L 193.06017 148.747636 
L 194.581989 148.747636 
L 194.581989 154.368 
L 196.103807 154.368 
L 196.103807 160.965818 
L 197.625625 160.965818 
L 197.625625 160.721455 
L 199.147443 160.721455 
L 199.147443 156.322909 
L 200.669261 156.322909 
L 200.669261 159.255273 
L 202.19108 159.255273 
L 202.19108 151.435636 
L 205.234716 151.435636 
L 205.234716 144.593455 
L 206.756534 144.593455 
L 206.756534 145.815273 
L 208.278352 145.815273 
L 208.278352 127.488 
L 209.80017 127.488 
L 209.80017 124.311273 
L 211.321989 124.311273 
L 211.321989 129.442909 
L 212.843807 129.442909 
L 212.843807 124.555636 
L 214.365625 124.555636 
L 214.365625 106.961455 
L 215.887443 106.961455 
L 215.887443 105.006545 
L 217.409261 105.006545 
L 217.409261 111.115636 
L 218.93108 111.115636 
L 218.93108 109.893818 
L 220.452898 109.893818 
L 220.452898 92.544 
L 221.974716 92.544 
L 221.974716 92.299636 
L 223.496534 92.299636 
L 223.496534 84.968727 
L 225.018352 84.968727 
L 225.018352 84.48 
L 226.54017 84.48 
L 226.54017 85.213091 
L 228.061989 85.213091 
L 228.061989 74.216727 
L 229.583807 74.216727 
L 229.583807 73.483636 
L 231.105625 73.483636 
L 231.105625 78.126545 
L 232.627443 78.126545 
L 232.627443 64.197818 
L 234.149261 64.197818 
L 234.149261 75.438545 
L 235.67108 75.438545 
L 235.67108 64.197818 
L 237.192898 64.197818 
L 237.192898 72.017455 
L 238.714716 72.017455 
L 238.714716 66.152727 
L 240.236534 66.152727 
L 240.236534 55.156364 
L 241.758352 55.156364 
L 241.758352 56.378182 
L 243.28017 56.378182 
L 243.28017 66.397091 
L 244.801989 66.397091 
L 244.801989 61.509818 
L 246.323807 61.509818 
L 246.323807 79.837091 
L 247.845625 79.837091 
L 247.845625 71.04 
L 249.367443 71.04 
L 249.367443 84.48 
L 250.889261 84.48 
L 250.889261 79.348364 
L 252.41108 79.348364 
L 252.41108 81.547636 
L 253.932898 81.547636 
L 253.932898 67.863273 
L 255.454716 67.863273 
L 255.454716 91.077818 
L 256.976534 91.077818 
L 256.976534 83.013818 
L 258.498352 83.013818 
L 258.498352 87.412364 
L 260.02017 87.412364 
L 260.02017 99.386182 
L 261.541989 99.386182 
L 261.541989 97.675636 
L 263.063807 97.675636 
L 263.063807 92.299636 
L 266.107443 92.299636 
L 266.107443 89.611636 
L 267.629261 89.611636 
L 267.629261 94.498909 
L 269.15108 94.498909 
L 269.15108 113.559273 
L 270.672898 113.559273 
L 270.672898 100.363636 
L 272.194716 100.363636 
L 272.194716 111.604364 
L 273.716534 111.604364 
L 273.716534 101.096727 
L 275.238352 101.096727 
L 275.238352 104.273455 
L 276.76017 104.273455 
L 276.76017 113.070545 
L 278.281989 113.070545 
L 278.281989 112.337455 
L 279.803807 112.337455 
L 279.803807 114.048 
L 281.325625 114.048 
L 281.325625 117.224727 
L 282.847443 117.224727 
L 282.847443 123.333818 
L 284.369261 123.333818 
L 284.369261 113.559273 
L 287.412898 113.559273 
L 287.412898 120.401455 
L 288.934716 120.401455 
L 288.934716 124.8 
L 290.456534 124.8 
L 290.456534 121.134545 
L 291.978352 121.134545 
L 291.978352 136.285091 
L 293.50017 136.285091 
L 293.50017 144.104727 
L 295.021989 144.104727 
L 295.021989 121.623273 
L 296.543807 121.623273 
L 296.543807 124.8 
L 298.065625 124.8 
L 298.065625 128.221091 
L 299.587443 128.221091 
L 299.587443 143.371636 
L 301.109261 143.371636 
L 301.109261 140.683636 
L 302.63108 140.683636 
L 302.63108 142.149818 
L 304.152898 142.149818 
L 304.152898 149.236364 
L 305.674716 149.236364 
L 305.674716 139.217455 
L 307.196534 139.217455 
L 307.196534 144.837818 
L 308.718352 144.837818 
L 308.718352 150.458182 
L 310.24017 150.458182 
L 310.24017 147.525818 
L 311.761989 147.525818 
L 311.761989 149.725091 
L 313.283807 149.725091 
L 313.283807 158.766545 
L 314.805625 158.766545 
L 314.805625 159.255273 
L 316.327443 159.255273 
L 316.327443 158.277818 
L 317.849261 158.277818 
L 317.849261 163.653818 
L 319.37108 163.653818 
L 319.37108 159.255273 
L 320.892898 159.255273 
L 320.892898 170.984727 
L 322.414716 170.984727 
L 322.414716 167.808 
L 323.936534 167.808 
L 323.936534 166.830545 
L 325.458352 166.830545 
L 325.458352 174.894545 
L 326.98017 174.894545 
L 326.98017 169.762909 
L 328.501989 169.762909 
L 328.501989 177.582545 
L 330.023807 177.582545 
L 330.023807 177.826909 
L 331.545625 177.826909 
L 331.545625 190.045091 
L 333.067443 190.045091 
L 333.067443 188.823273 
L 334.589261 188.823273 
L 334.589261 191.022545 
L 336.11108 191.022545 
L 336.11108 193.221818 
L 337.632898 193.221818 
L 337.632898 196.642909 
L 339.154716 196.642909 
L 339.154716 197.131636 
L 340.676534 197.131636 
L 340.676534 202.507636 
L 342.198352 202.507636 
L 342.198352 203.240727 
L 343.72017 203.240727 
L 343.72017 203.973818 
L 345.241989 203.973818 
L 345.241989 209.838545 
L 346.763807 209.838545 
L 346.763807 209.594182 
L 348.285625 209.594182 
L 348.285625 212.770909 
L 349.807443 212.770909 
L 349.807443 213.504 
L 352.85108 213.504 
L 352.85108 217.169455 
L 354.372898 217.169455 
L 354.372898 216.925091 
L 355.894716 216.925091 
L 355.894716 217.902545 
L 357.416534 217.902545 
L 357.416534 218.635636 
L 358.938352 218.635636 
L 358.938352 218.88 
L 366.547443 218.88 
L 366.547443 218.88 
" clip-path="url(#pf606ce2351)" style="fill: none; stroke: #ff7f0e; stroke-width: 1.5; stroke-linecap: square"/>
   </g>
  </g>
 </g>
 <defs>
  <clipPath id="pf606ce2351">
   <rect x="46.965625" y="7.2" width="334.8" height="221.76"/>
  </clipPath>
 </defs>
</svg>
