<?xml version="1.0" encoding="utf-8" standalone="no"?>
<!DOCTYPE svg PUBLIC "-//W3C//DTD SVG 1.1//EN"
  "http://www.w3.org/Graphics/SVG/1.1/DTD/svg11.dtd">
<svg xmlns:xlink="http://www.w3.org/1999/xlink" width="388.965625pt" height="266.794375pt" viewBox="0 0 388.965625 266.794375" xmlns="http://www.w3.org/2000/svg" version="1.1">
 <metadata>
  <rdf:RDF xmlns:dc="http://purl.org/dc/elements/1.1/" xmlns:cc="http://creativecommons.org/ns#" xmlns:rdf="http://www.w3.org/1999/02/22-rdf-syntax-ns#">
   <cc:Work>
    <dc:type rdf:resource="http://purl.org/dc/dcmitype/StillImage"/>
    <dc:date>2024-12-12T12:32:00.448381</dc:date>
    <dc:format>image/svg+xml</dc:format>
    <dc:creator>
     <cc:Agent>
      <dc:title>Matplotlib v3.7.3, https://matplotlib.org/</dc:title>
     </cc:Agent>
    </dc:creator>
   </cc:Work>
  </rdf:RDF>
 </metadata>
 <defs>
  <style type="text/css">*{stroke-linejoin: round; stroke-linecap: butt}</style>
 </defs>
 <g id="figure_1">
  <g id="patch_1">
   <path d="M 0 266.794375 
L 388.965625 266.794375 
L 388.965625 0 
L 0 0 
z
" style="fill: #ffffff"/>
  </g>
  <g id="axes_1">
   <g id="patch_2">
    <path d="M 46.965625 228.96 
L 381.765625 228.96 
L 381.765625 7.2 
L 46.965625 7.2 
z
" style="fill: #ffffff"/>
   </g>
   <g id="matplotlib.axis_1">
    <g id="xtick_1">
     <g id="line2d_1">
      <defs>
       <path id="m5570cf6a00" d="M 0 0 
L 0 3.5 
" style="stroke: #000000; stroke-width: 0.8"/>
      </defs>
      <g>
       <use xlink:href="#m5570cf6a00" x="62.1827" y="228.96" style="stroke: #000000; stroke-width: 0.8"/>
      </g>
     </g>
     <g id="text_1">
      <!-- 0.00 -->
      <g transform="translate(51.049887 243.558437) scale(0.1 -0.1)">
       <defs>
        <path id="DejaVuSans-30" d="M 2034 4250 
Q 1547 4250 1301 3770 
Q 1056 3291 1056 2328 
Q 1056 1369 1301 889 
Q 1547 409 2034 409 
Q 2525 409 2770 889 
Q 3016 1369 3016 2328 
Q 3016 3291 2770 3770 
Q 2525 4250 2034 4250 
z
M 2034 4750 
Q 2819 4750 3233 4129 
Q 3647 3509 3647 2328 
Q 3647 1150 3233 529 
Q 2819 -91 2034 -91 
Q 1250 -91 836 529 
Q 422 1150 422 2328 
Q 422 3509 836 4129 
Q 1250 4750 2034 4750 
z
" transform="scale(0.015625)"/>
        <path id="DejaVuSans-2e" d="M 684 794 
L 1344 794 
L 1344 0 
L 684 0 
L 684 794 
z
" transform="scale(0.015625)"/>
       </defs>
       <use xlink:href="#DejaVuSans-30"/>
       <use xlink:href="#DejaVuSans-2e" x="63.623047"/>
       <use xlink:href="#DejaVuSans-30" x="95.410156"/>
       <use xlink:href="#DejaVuSans-30" x="159.033203"/>
      </g>
     </g>
    </g>
    <g id="xtick_2">
     <g id="line2d_2">
      <g>
       <use xlink:href="#m5570cf6a00" x="104.794179" y="228.96" style="stroke: #000000; stroke-width: 0.8"/>
      </g>
     </g>
     <g id="text_2">
      <!-- 0.01 -->
      <g transform="translate(93.661366 243.558437) scale(0.1 -0.1)">
       <defs>
        <path id="DejaVuSans-31" d="M 794 531 
L 1825 531 
L 1825 4091 
L 703 3866 
L 703 4441 
L 1819 4666 
L 2450 4666 
L 2450 531 
L 3481 531 
L 3481 0 
L 794 0 
L 794 531 
z
" transform="scale(0.015625)"/>
       </defs>
       <use xlink:href="#DejaVuSans-30"/>
       <use xlink:href="#DejaVuSans-2e" x="63.623047"/>
       <use xlink:href="#DejaVuSans-30" x="95.410156"/>
       <use xlink:href="#DejaVuSans-31" x="159.033203"/>
      </g>
     </g>
    </g>
    <g id="xtick_3">
     <g id="line2d_3">
      <g>
       <use xlink:href="#m5570cf6a00" x="147.405657" y="228.96" style="stroke: #000000; stroke-width: 0.8"/>
      </g>
     </g>
     <g id="text_3">
      <!-- 0.02 -->
      <g transform="translate(136.272845 243.558437) scale(0.1 -0.1)">
       <defs>
        <path id="DejaVuSans-32" d="M 1228 531 
L 3431 531 
L 3431 0 
L 469 0 
L 469 531 
Q 828 903 1448 1529 
Q 2069 2156 2228 2338 
Q 2531 2678 2651 2914 
Q 2772 3150 2772 3378 
Q 2772 3750 2511 3984 
Q 2250 4219 1831 4219 
Q 1534 4219 1204 4116 
Q 875 4013 500 3803 
L 500 4441 
Q 881 4594 1212 4672 
Q 1544 4750 1819 4750 
Q 2544 4750 2975 4387 
Q 3406 4025 3406 3419 
Q 3406 3131 3298 2873 
Q 3191 2616 2906 2266 
Q 2828 2175 2409 1742 
Q 1991 1309 1228 531 
z
" transform="scale(0.015625)"/>
       </defs>
       <use xlink:href="#DejaVuSans-30"/>
       <use xlink:href="#DejaVuSans-2e" x="63.623047"/>
       <use xlink:href="#DejaVuSans-30" x="95.410156"/>
       <use xlink:href="#DejaVuSans-32" x="159.033203"/>
      </g>
     </g>
    </g>
    <g id="xtick_4">
     <g id="line2d_4">
      <g>
       <use xlink:href="#m5570cf6a00" x="190.017136" y="228.96" style="stroke: #000000; stroke-width: 0.8"/>
      </g>
     </g>
     <g id="text_4">
      <!-- 0.03 -->
      <g transform="translate(178.884323 243.558437) scale(0.1 -0.1)">
       <defs>
        <path id="DejaVuSans-33" d="M 2597 2516 
Q 3050 2419 3304 2112 
Q 3559 1806 3559 1356 
Q 3559 666 3084 287 
Q 2609 -91 1734 -91 
Q 1441 -91 1130 -33 
Q 819 25 488 141 
L 488 750 
Q 750 597 1062 519 
Q 1375 441 1716 441 
Q 2309 441 2620 675 
Q 2931 909 2931 1356 
Q 2931 1769 2642 2001 
Q 2353 2234 1838 2234 
L 1294 2234 
L 1294 2753 
L 1863 2753 
Q 2328 2753 2575 2939 
Q 2822 3125 2822 3475 
Q 2822 3834 2567 4026 
Q 2313 4219 1838 4219 
Q 1578 4219 1281 4162 
Q 984 4106 628 3988 
L 628 4550 
Q 988 4650 1302 4700 
Q 1616 4750 1894 4750 
Q 2613 4750 3031 4423 
Q 3450 4097 3450 3541 
Q 3450 3153 3228 2886 
Q 3006 2619 2597 2516 
z
" transform="scale(0.015625)"/>
       </defs>
       <use xlink:href="#DejaVuSans-30"/>
       <use xlink:href="#DejaVuSans-2e" x="63.623047"/>
       <use xlink:href="#DejaVuSans-30" x="95.410156"/>
       <use xlink:href="#DejaVuSans-33" x="159.033203"/>
      </g>
     </g>
    </g>
    <g id="xtick_5">
     <g id="line2d_5">
      <g>
       <use xlink:href="#m5570cf6a00" x="232.628614" y="228.96" style="stroke: #000000; stroke-width: 0.8"/>
      </g>
     </g>
     <g id="text_5">
      <!-- 0.04 -->
      <g transform="translate(221.495802 243.558437) scale(0.1 -0.1)">
       <defs>
        <path id="DejaVuSans-34" d="M 2419 4116 
L 825 1625 
L 2419 1625 
L 2419 4116 
z
M 2253 4666 
L 3047 4666 
L 3047 1625 
L 3713 1625 
L 3713 1100 
L 3047 1100 
L 3047 0 
L 2419 0 
L 2419 1100 
L 313 1100 
L 313 1709 
L 2253 4666 
z
" transform="scale(0.015625)"/>
       </defs>
       <use xlink:href="#DejaVuSans-30"/>
       <use xlink:href="#DejaVuSans-2e" x="63.623047"/>
       <use xlink:href="#DejaVuSans-30" x="95.410156"/>
       <use xlink:href="#DejaVuSans-34" x="159.033203"/>
      </g>
     </g>
    </g>
    <g id="xtick_6">
     <g id="line2d_6">
      <g>
       <use xlink:href="#m5570cf6a00" x="275.240093" y="228.96" style="stroke: #000000; stroke-width: 0.8"/>
      </g>
     </g>
     <g id="text_6">
      <!-- 0.05 -->
      <g transform="translate(264.107281 243.558437) scale(0.1 -0.1)">
       <defs>
        <path id="DejaVuSans-35" d="M 691 4666 
L 3169 4666 
L 3169 4134 
L 1269 4134 
L 1269 2991 
Q 1406 3038 1543 3061 
Q 1681 3084 1819 3084 
Q 2600 3084 3056 2656 
Q 3513 2228 3513 1497 
Q 3513 744 3044 326 
Q 2575 -91 1722 -91 
Q 1428 -91 1123 -41 
Q 819 9 494 109 
L 494 744 
Q 775 591 1075 516 
Q 1375 441 1709 441 
Q 2250 441 2565 725 
Q 2881 1009 2881 1497 
Q 2881 1984 2565 2268 
Q 2250 2553 1709 2553 
Q 1456 2553 1204 2497 
Q 953 2441 691 2322 
L 691 4666 
z
" transform="scale(0.015625)"/>
       </defs>
       <use xlink:href="#DejaVuSans-30"/>
       <use xlink:href="#DejaVuSans-2e" x="63.623047"/>
       <use xlink:href="#DejaVuSans-30" x="95.410156"/>
       <use xlink:href="#DejaVuSans-35" x="159.033203"/>
      </g>
     </g>
    </g>
    <g id="xtick_7">
     <g id="line2d_7">
      <g>
       <use xlink:href="#m5570cf6a00" x="317.851572" y="228.96" style="stroke: #000000; stroke-width: 0.8"/>
      </g>
     </g>
     <g id="text_7">
      <!-- 0.06 -->
      <g transform="translate(306.718759 243.558437) scale(0.1 -0.1)">
       <defs>
        <path id="DejaVuSans-36" d="M 2113 2584 
Q 1688 2584 1439 2293 
Q 1191 2003 1191 1497 
Q 1191 994 1439 701 
Q 1688 409 2113 409 
Q 2538 409 2786 701 
Q 3034 994 3034 1497 
Q 3034 2003 2786 2293 
Q 2538 2584 2113 2584 
z
M 3366 4563 
L 3366 3988 
Q 3128 4100 2886 4159 
Q 2644 4219 2406 4219 
Q 1781 4219 1451 3797 
Q 1122 3375 1075 2522 
Q 1259 2794 1537 2939 
Q 1816 3084 2150 3084 
Q 2853 3084 3261 2657 
Q 3669 2231 3669 1497 
Q 3669 778 3244 343 
Q 2819 -91 2113 -91 
Q 1303 -91 875 529 
Q 447 1150 447 2328 
Q 447 3434 972 4092 
Q 1497 4750 2381 4750 
Q 2619 4750 2861 4703 
Q 3103 4656 3366 4563 
z
" transform="scale(0.015625)"/>
       </defs>
       <use xlink:href="#DejaVuSans-30"/>
       <use xlink:href="#DejaVuSans-2e" x="63.623047"/>
       <use xlink:href="#DejaVuSans-30" x="95.410156"/>
       <use xlink:href="#DejaVuSans-36" x="159.033203"/>
      </g>
     </g>
    </g>
    <g id="xtick_8">
     <g id="line2d_8">
      <g>
       <use xlink:href="#m5570cf6a00" x="360.46305" y="228.96" style="stroke: #000000; stroke-width: 0.8"/>
      </g>
     </g>
     <g id="text_8">
      <!-- 0.07 -->
      <g transform="translate(349.330238 243.558437) scale(0.1 -0.1)">
       <defs>
        <path id="DejaVuSans-37" d="M 525 4666 
L 3525 4666 
L 3525 4397 
L 1831 0 
L 1172 0 
L 2766 4134 
L 525 4134 
L 525 4666 
z
" transform="scale(0.015625)"/>
       </defs>
       <use xlink:href="#DejaVuSans-30"/>
       <use xlink:href="#DejaVuSans-2e" x="63.623047"/>
       <use xlink:href="#DejaVuSans-30" x="95.410156"/>
       <use xlink:href="#DejaVuSans-37" x="159.033203"/>
      </g>
     </g>
    </g>
    <g id="text_9">
     <!-- event_time_offset [s] -->
     <g transform="translate(161.511719 257.236562) scale(0.1 -0.1)">
      <defs>
       <path id="DejaVuSans-65" d="M 3597 1894 
L 3597 1613 
L 953 1613 
Q 991 1019 1311 708 
Q 1631 397 2203 397 
Q 2534 397 2845 478 
Q 3156 559 3463 722 
L 3463 178 
Q 3153 47 2828 -22 
Q 2503 -91 2169 -91 
Q 1331 -91 842 396 
Q 353 884 353 1716 
Q 353 2575 817 3079 
Q 1281 3584 2069 3584 
Q 2775 3584 3186 3129 
Q 3597 2675 3597 1894 
z
M 3022 2063 
Q 3016 2534 2758 2815 
Q 2500 3097 2075 3097 
Q 1594 3097 1305 2825 
Q 1016 2553 972 2059 
L 3022 2063 
z
" transform="scale(0.015625)"/>
       <path id="DejaVuSans-76" d="M 191 3500 
L 800 3500 
L 1894 563 
L 2988 3500 
L 3597 3500 
L 2284 0 
L 1503 0 
L 191 3500 
z
" transform="scale(0.015625)"/>
       <path id="DejaVuSans-6e" d="M 3513 2113 
L 3513 0 
L 2938 0 
L 2938 2094 
Q 2938 2591 2744 2837 
Q 2550 3084 2163 3084 
Q 1697 3084 1428 2787 
Q 1159 2491 1159 1978 
L 1159 0 
L 581 0 
L 581 3500 
L 1159 3500 
L 1159 2956 
Q 1366 3272 1645 3428 
Q 1925 3584 2291 3584 
Q 2894 3584 3203 3211 
Q 3513 2838 3513 2113 
z
" transform="scale(0.015625)"/>
       <path id="DejaVuSans-74" d="M 1172 4494 
L 1172 3500 
L 2356 3500 
L 2356 3053 
L 1172 3053 
L 1172 1153 
Q 1172 725 1289 603 
Q 1406 481 1766 481 
L 2356 481 
L 2356 0 
L 1766 0 
Q 1100 0 847 248 
Q 594 497 594 1153 
L 594 3053 
L 172 3053 
L 172 3500 
L 594 3500 
L 594 4494 
L 1172 4494 
z
" transform="scale(0.015625)"/>
       <path id="DejaVuSans-5f" d="M 3263 -1063 
L 3263 -1509 
L -63 -1509 
L -63 -1063 
L 3263 -1063 
z
" transform="scale(0.015625)"/>
       <path id="DejaVuSans-69" d="M 603 3500 
L 1178 3500 
L 1178 0 
L 603 0 
L 603 3500 
z
M 603 4863 
L 1178 4863 
L 1178 4134 
L 603 4134 
L 603 4863 
z
" transform="scale(0.015625)"/>
       <path id="DejaVuSans-6d" d="M 3328 2828 
Q 3544 3216 3844 3400 
Q 4144 3584 4550 3584 
Q 5097 3584 5394 3201 
Q 5691 2819 5691 2113 
L 5691 0 
L 5113 0 
L 5113 2094 
Q 5113 2597 4934 2840 
Q 4756 3084 4391 3084 
Q 3944 3084 3684 2787 
Q 3425 2491 3425 1978 
L 3425 0 
L 2847 0 
L 2847 2094 
Q 2847 2600 2669 2842 
Q 2491 3084 2119 3084 
Q 1678 3084 1418 2786 
Q 1159 2488 1159 1978 
L 1159 0 
L 581 0 
L 581 3500 
L 1159 3500 
L 1159 2956 
Q 1356 3278 1631 3431 
Q 1906 3584 2284 3584 
Q 2666 3584 2933 3390 
Q 3200 3197 3328 2828 
z
" transform="scale(0.015625)"/>
       <path id="DejaVuSans-6f" d="M 1959 3097 
Q 1497 3097 1228 2736 
Q 959 2375 959 1747 
Q 959 1119 1226 758 
Q 1494 397 1959 397 
Q 2419 397 2687 759 
Q 2956 1122 2956 1747 
Q 2956 2369 2687 2733 
Q 2419 3097 1959 3097 
z
M 1959 3584 
Q 2709 3584 3137 3096 
Q 3566 2609 3566 1747 
Q 3566 888 3137 398 
Q 2709 -91 1959 -91 
Q 1206 -91 779 398 
Q 353 888 353 1747 
Q 353 2609 779 3096 
Q 1206 3584 1959 3584 
z
" transform="scale(0.015625)"/>
       <path id="DejaVuSans-66" d="M 2375 4863 
L 2375 4384 
L 1825 4384 
Q 1516 4384 1395 4259 
Q 1275 4134 1275 3809 
L 1275 3500 
L 2222 3500 
L 2222 3053 
L 1275 3053 
L 1275 0 
L 697 0 
L 697 3053 
L 147 3053 
L 147 3500 
L 697 3500 
L 697 3744 
Q 697 4328 969 4595 
Q 1241 4863 1831 4863 
L 2375 4863 
z
" transform="scale(0.015625)"/>
       <path id="DejaVuSans-73" d="M 2834 3397 
L 2834 2853 
Q 2591 2978 2328 3040 
Q 2066 3103 1784 3103 
Q 1356 3103 1142 2972 
Q 928 2841 928 2578 
Q 928 2378 1081 2264 
Q 1234 2150 1697 2047 
L 1894 2003 
Q 2506 1872 2764 1633 
Q 3022 1394 3022 966 
Q 3022 478 2636 193 
Q 2250 -91 1575 -91 
Q 1294 -91 989 -36 
Q 684 19 347 128 
L 347 722 
Q 666 556 975 473 
Q 1284 391 1588 391 
Q 1994 391 2212 530 
Q 2431 669 2431 922 
Q 2431 1156 2273 1281 
Q 2116 1406 1581 1522 
L 1381 1569 
Q 847 1681 609 1914 
Q 372 2147 372 2553 
Q 372 3047 722 3315 
Q 1072 3584 1716 3584 
Q 2034 3584 2315 3537 
Q 2597 3491 2834 3397 
z
" transform="scale(0.015625)"/>
       <path id="DejaVuSans-20" transform="scale(0.015625)"/>
       <path id="DejaVuSans-5b" d="M 550 4863 
L 1875 4863 
L 1875 4416 
L 1125 4416 
L 1125 -397 
L 1875 -397 
L 1875 -844 
L 550 -844 
L 550 4863 
z
" transform="scale(0.015625)"/>
       <path id="DejaVuSans-5d" d="M 1947 4863 
L 1947 -844 
L 622 -844 
L 622 -397 
L 1369 -397 
L 1369 4416 
L 622 4416 
L 622 4863 
L 1947 4863 
z
" transform="scale(0.015625)"/>
      </defs>
      <use xlink:href="#DejaVuSans-65"/>
      <use xlink:href="#DejaVuSans-76" x="61.523438"/>
      <use xlink:href="#DejaVuSans-65" x="120.703125"/>
      <use xlink:href="#DejaVuSans-6e" x="182.226562"/>
      <use xlink:href="#DejaVuSans-74" x="245.605469"/>
      <use xlink:href="#DejaVuSans-5f" x="284.814453"/>
      <use xlink:href="#DejaVuSans-74" x="334.814453"/>
      <use xlink:href="#DejaVuSans-69" x="374.023438"/>
      <use xlink:href="#DejaVuSans-6d" x="401.806641"/>
      <use xlink:href="#DejaVuSans-65" x="499.21875"/>
      <use xlink:href="#DejaVuSans-5f" x="560.742188"/>
      <use xlink:href="#DejaVuSans-6f" x="610.742188"/>
      <use xlink:href="#DejaVuSans-66" x="671.923828"/>
      <use xlink:href="#DejaVuSans-66" x="707.128906"/>
      <use xlink:href="#DejaVuSans-73" x="742.333984"/>
      <use xlink:href="#DejaVuSans-65" x="794.433594"/>
      <use xlink:href="#DejaVuSans-74" x="855.957031"/>
      <use xlink:href="#DejaVuSans-20" x="895.166016"/>
      <use xlink:href="#DejaVuSans-5b" x="926.953125"/>
      <use xlink:href="#DejaVuSans-73" x="965.966797"/>
      <use xlink:href="#DejaVuSans-5d" x="1018.066406"/>
     </g>
    </g>
   </g>
   <g id="matplotlib.axis_2">
    <g id="ytick_1">
     <g id="line2d_9">
      <defs>
       <path id="m41f59ca779" d="M 0 0 
L -3.5 0 
" style="stroke: #000000; stroke-width: 0.8"/>
      </defs>
      <g>
       <use xlink:href="#m41f59ca779" x="46.965625" y="218.88" style="stroke: #000000; stroke-width: 0.8"/>
      </g>
     </g>
     <g id="text_10">
      <!-- 0 -->
      <g transform="translate(33.603125 222.679219) scale(0.1 -0.1)">
       <use xlink:href="#DejaVuSans-30"/>
      </g>
     </g>
    </g>
    <g id="ytick_2">
     <g id="line2d_10">
      <g>
       <use xlink:href="#m41f59ca779" x="46.965625" y="184.768325" style="stroke: #000000; stroke-width: 0.8"/>
      </g>
     </g>
     <g id="text_11">
      <!-- 100 -->
      <g transform="translate(20.878125 188.567544) scale(0.1 -0.1)">
       <use xlink:href="#DejaVuSans-31"/>
       <use xlink:href="#DejaVuSans-30" x="63.623047"/>
       <use xlink:href="#DejaVuSans-30" x="127.246094"/>
      </g>
     </g>
    </g>
    <g id="ytick_3">
     <g id="line2d_11">
      <g>
       <use xlink:href="#m41f59ca779" x="46.965625" y="150.65665" style="stroke: #000000; stroke-width: 0.8"/>
      </g>
     </g>
     <g id="text_12">
      <!-- 200 -->
      <g transform="translate(20.878125 154.455868) scale(0.1 -0.1)">
       <use xlink:href="#DejaVuSans-32"/>
       <use xlink:href="#DejaVuSans-30" x="63.623047"/>
       <use xlink:href="#DejaVuSans-30" x="127.246094"/>
      </g>
     </g>
    </g>
    <g id="ytick_4">
     <g id="line2d_12">
      <g>
       <use xlink:href="#m41f59ca779" x="46.965625" y="116.544975" style="stroke: #000000; stroke-width: 0.8"/>
      </g>
     </g>
     <g id="text_13">
      <!-- 300 -->
      <g transform="translate(20.878125 120.344193) scale(0.1 -0.1)">
       <use xlink:href="#DejaVuSans-33"/>
       <use xlink:href="#DejaVuSans-30" x="63.623047"/>
       <use xlink:href="#DejaVuSans-30" x="127.246094"/>
      </g>
     </g>
    </g>
    <g id="ytick_5">
     <g id="line2d_13">
      <g>
       <use xlink:href="#m41f59ca779" x="46.965625" y="82.433299" style="stroke: #000000; stroke-width: 0.8"/>
      </g>
     </g>
     <g id="text_14">
      <!-- 400 -->
      <g transform="translate(20.878125 86.232518) scale(0.1 -0.1)">
       <use xlink:href="#DejaVuSans-34"/>
       <use xlink:href="#DejaVuSans-30" x="63.623047"/>
       <use xlink:href="#DejaVuSans-30" x="127.246094"/>
      </g>
     </g>
    </g>
    <g id="ytick_6">
     <g id="line2d_14">
      <g>
       <use xlink:href="#m41f59ca779" x="46.965625" y="48.321624" style="stroke: #000000; stroke-width: 0.8"/>
      </g>
     </g>
     <g id="text_15">
      <!-- 500 -->
      <g transform="translate(20.878125 52.120843) scale(0.1 -0.1)">
       <use xlink:href="#DejaVuSans-35"/>
       <use xlink:href="#DejaVuSans-30" x="63.623047"/>
       <use xlink:href="#DejaVuSans-30" x="127.246094"/>
      </g>
     </g>
    </g>
    <g id="ytick_7">
     <g id="line2d_15">
      <g>
       <use xlink:href="#m41f59ca779" x="46.965625" y="14.209949" style="stroke: #000000; stroke-width: 0.8"/>
      </g>
     </g>
     <g id="text_16">
      <!-- 600 -->
      <g transform="translate(20.878125 18.009168) scale(0.1 -0.1)">
       <use xlink:href="#DejaVuSans-36"/>
       <use xlink:href="#DejaVuSans-30" x="63.623047"/>
       <use xlink:href="#DejaVuSans-30" x="127.246094"/>
      </g>
     </g>
    </g>
    <g id="text_17">
     <!-- [counts] -->
     <g transform="translate(14.798438 138.6925) rotate(-90) scale(0.1 -0.1)">
      <defs>
       <path id="DejaVuSans-63" d="M 3122 3366 
L 3122 2828 
Q 2878 2963 2633 3030 
Q 2388 3097 2138 3097 
Q 1578 3097 1268 2742 
Q 959 2388 959 1747 
Q 959 1106 1268 751 
Q 1578 397 2138 397 
Q 2388 397 2633 464 
Q 2878 531 3122 666 
L 3122 134 
Q 2881 22 2623 -34 
Q 2366 -91 2075 -91 
Q 1284 -91 818 406 
Q 353 903 353 1747 
Q 353 2603 823 3093 
Q 1294 3584 2113 3584 
Q 2378 3584 2631 3529 
Q 2884 3475 3122 3366 
z
" transform="scale(0.015625)"/>
       <path id="DejaVuSans-75" d="M 544 1381 
L 544 3500 
L 1119 3500 
L 1119 1403 
Q 1119 906 1312 657 
Q 1506 409 1894 409 
Q 2359 409 2629 706 
Q 2900 1003 2900 1516 
L 2900 3500 
L 3475 3500 
L 3475 0 
L 2900 0 
L 2900 538 
Q 2691 219 2414 64 
Q 2138 -91 1772 -91 
Q 1169 -91 856 284 
Q 544 659 544 1381 
z
M 1991 3584 
L 1991 3584 
z
" transform="scale(0.015625)"/>
      </defs>
      <use xlink:href="#DejaVuSans-5b"/>
      <use xlink:href="#DejaVuSans-63" x="39.013672"/>
      <use xlink:href="#DejaVuSans-6f" x="93.994141"/>
      <use xlink:href="#DejaVuSans-75" x="155.175781"/>
      <use xlink:href="#DejaVuSans-6e" x="218.554688"/>
      <use xlink:href="#DejaVuSans-74" x="281.933594"/>
      <use xlink:href="#DejaVuSans-73" x="321.142578"/>
      <use xlink:href="#DejaVuSans-5d" x="373.242188"/>
     </g>
    </g>
   </g>
   <g id="patch_3">
    <path d="M 46.965625 228.96 
L 46.965625 7.2 
" style="fill: none; stroke: #000000; stroke-width: 0.8; stroke-linejoin: miter; stroke-linecap: square"/>
   </g>
   <g id="patch_4">
    <path d="M 381.765625 228.96 
L 381.765625 7.2 
" style="fill: none; stroke: #000000; stroke-width: 0.8; stroke-linejoin: miter; stroke-linecap: square"/>
   </g>
   <g id="patch_5">
    <path d="M 46.965625 228.96 
L 381.765625 228.96 
" style="fill: none; stroke: #000000; stroke-width: 0.8; stroke-linejoin: miter; stroke-linecap: square"/>
   </g>
   <g id="patch_6">
    <path d="M 46.965625 7.2 
L 381.765625 7.2 
" style="fill: none; stroke: #000000; stroke-width: 0.8; stroke-linejoin: miter; stroke-linecap: square"/>
   </g>
   <g id="legend_1">
    <g id="patch_7">
     <path d="M 246.957813 45.1125 
L 374.765625 45.1125 
Q 376.765625 45.1125 376.765625 43.1125 
L 376.765625 14.2 
Q 376.765625 12.2 374.765625 12.2 
L 246.957813 12.2 
Q 244.957813 12.2 244.957813 14.2 
L 244.957813 43.1125 
Q 244.957813 45.1125 246.957813 45.1125 
z
" style="fill: #ffffff; opacity: 0.8; stroke: #cccccc; stroke-linejoin: miter"/>
    </g>
    <g id="line2d_16">
     <path d="M 248.957813 20.298437 
L 248.957813 20.298437 
L 258.957813 20.298437 
L 258.957813 20.298437 
L 268.957813 20.298437 
" style="fill: none; stroke: #1f77b4; stroke-width: 1.5; stroke-linecap: square"/>
    </g>
    <g id="text_18">
     <!-- detector_number:0 -->
     <g transform="translate(276.957813 23.798437) scale(0.1 -0.1)">
      <defs>
       <path id="DejaVuSans-64" d="M 2906 2969 
L 2906 4863 
L 3481 4863 
L 3481 0 
L 2906 0 
L 2906 525 
Q 2725 213 2448 61 
Q 2172 -91 1784 -91 
Q 1150 -91 751 415 
Q 353 922 353 1747 
Q 353 2572 751 3078 
Q 1150 3584 1784 3584 
Q 2172 3584 2448 3432 
Q 2725 3281 2906 2969 
z
M 947 1747 
Q 947 1113 1208 752 
Q 1469 391 1925 391 
Q 2381 391 2643 752 
Q 2906 1113 2906 1747 
Q 2906 2381 2643 2742 
Q 2381 3103 1925 3103 
Q 1469 3103 1208 2742 
Q 947 2381 947 1747 
z
" transform="scale(0.015625)"/>
       <path id="DejaVuSans-72" d="M 2631 2963 
Q 2534 3019 2420 3045 
Q 2306 3072 2169 3072 
Q 1681 3072 1420 2755 
Q 1159 2438 1159 1844 
L 1159 0 
L 581 0 
L 581 3500 
L 1159 3500 
L 1159 2956 
Q 1341 3275 1631 3429 
Q 1922 3584 2338 3584 
Q 2397 3584 2469 3576 
Q 2541 3569 2628 3553 
L 2631 2963 
z
" transform="scale(0.015625)"/>
       <path id="DejaVuSans-62" d="M 3116 1747 
Q 3116 2381 2855 2742 
Q 2594 3103 2138 3103 
Q 1681 3103 1420 2742 
Q 1159 2381 1159 1747 
Q 1159 1113 1420 752 
Q 1681 391 2138 391 
Q 2594 391 2855 752 
Q 3116 1113 3116 1747 
z
M 1159 2969 
Q 1341 3281 1617 3432 
Q 1894 3584 2278 3584 
Q 2916 3584 3314 3078 
Q 3713 2572 3713 1747 
Q 3713 922 3314 415 
Q 2916 -91 2278 -91 
Q 1894 -91 1617 61 
Q 1341 213 1159 525 
L 1159 0 
L 581 0 
L 581 4863 
L 1159 4863 
L 1159 2969 
z
" transform="scale(0.015625)"/>
       <path id="DejaVuSans-3a" d="M 750 794 
L 1409 794 
L 1409 0 
L 750 0 
L 750 794 
z
M 750 3309 
L 1409 3309 
L 1409 2516 
L 750 2516 
L 750 3309 
z
" transform="scale(0.015625)"/>
      </defs>
      <use xlink:href="#DejaVuSans-64"/>
      <use xlink:href="#DejaVuSans-65" x="63.476562"/>
      <use xlink:href="#DejaVuSans-74" x="125"/>
      <use xlink:href="#DejaVuSans-65" x="164.208984"/>
      <use xlink:href="#DejaVuSans-63" x="225.732422"/>
      <use xlink:href="#DejaVuSans-74" x="280.712891"/>
      <use xlink:href="#DejaVuSans-6f" x="319.921875"/>
      <use xlink:href="#DejaVuSans-72" x="381.103516"/>
      <use xlink:href="#DejaVuSans-5f" x="422.216797"/>
      <use xlink:href="#DejaVuSans-6e" x="472.216797"/>
      <use xlink:href="#DejaVuSans-75" x="535.595703"/>
      <use xlink:href="#DejaVuSans-6d" x="598.974609"/>
      <use xlink:href="#DejaVuSans-62" x="696.386719"/>
      <use xlink:href="#DejaVuSans-65" x="759.863281"/>
      <use xlink:href="#DejaVuSans-72" x="821.386719"/>
      <use xlink:href="#DejaVuSans-3a" x="860.75"/>
      <use xlink:href="#DejaVuSans-30" x="894.441406"/>
     </g>
    </g>
    <g id="line2d_17">
     <path d="M 248.957813 35.254687 
L 248.957813 35.254687 
L 258.957813 35.254687 
L 258.957813 35.254687 
L 268.957813 35.254687 
" style="fill: none; stroke: #ff7f0e; stroke-width: 1.5; stroke-linecap: square"/>
    </g>
    <g id="text_19">
     <!-- detector_number:1 -->
     <g transform="translate(276.957813 38.754687) scale(0.1 -0.1)">
      <use xlink:href="#DejaVuSans-64"/>
      <use xlink:href="#DejaVuSans-65" x="63.476562"/>
      <use xlink:href="#DejaVuSans-74" x="125"/>
      <use xlink:href="#DejaVuSans-65" x="164.208984"/>
      <use xlink:href="#DejaVuSans-63" x="225.732422"/>
      <use xlink:href="#DejaVuSans-74" x="280.712891"/>
      <use xlink:href="#DejaVuSans-6f" x="319.921875"/>
      <use xlink:href="#DejaVuSans-72" x="381.103516"/>
      <use xlink:href="#DejaVuSans-5f" x="422.216797"/>
      <use xlink:href="#DejaVuSans-6e" x="472.216797"/>
      <use xlink:href="#DejaVuSans-75" x="535.595703"/>
      <use xlink:href="#DejaVuSans-6d" x="598.974609"/>
      <use xlink:href="#DejaVuSans-62" x="696.386719"/>
      <use xlink:href="#DejaVuSans-65" x="759.863281"/>
      <use xlink:href="#DejaVuSans-72" x="821.386719"/>
      <use xlink:href="#DejaVuSans-3a" x="860.75"/>
      <use xlink:href="#DejaVuSans-31" x="894.441406"/>
     </g>
    </g>
   </g>
   <g id="line2d_18">
    <path d="M 62.183807 127.460711 
L 63.198352 127.460711 
L 63.198352 122.002843 
L 64.212898 122.002843 
L 64.212898 123.708426 
L 65.227443 123.708426 
L 65.227443 127.801827 
L 66.241989 127.801827 
L 66.241989 122.002843 
L 67.256534 122.002843 
L 67.256534 125.072893 
L 68.27108 125.072893 
L 68.27108 127.119594 
L 69.285625 127.119594 
L 69.285625 129.507411 
L 70.30017 129.507411 
L 70.30017 130.530761 
L 71.314716 130.530761 
L 71.314716 118.250558 
L 72.329261 118.250558 
L 72.329261 123.026193 
L 73.343807 123.026193 
L 73.343807 141.787614 
L 74.358352 141.787614 
L 74.358352 143.493198 
L 75.372898 143.493198 
L 75.372898 139.399797 
L 76.387443 139.399797 
L 76.387443 132.577462 
L 77.401989 132.577462 
L 77.401989 142.469848 
L 78.416534 142.469848 
L 78.416534 138.03533 
L 79.43108 138.03533 
L 79.43108 143.493198 
L 80.445625 143.493198 
L 80.445625 132.918579 
L 81.46017 132.918579 
L 81.46017 147.586599 
L 82.474716 147.586599 
L 82.474716 147.245482 
L 83.489261 147.245482 
L 83.489261 150.315533 
L 84.503807 150.315533 
L 84.503807 143.152081 
L 85.518352 143.152081 
L 85.518352 138.376447 
L 86.532898 138.376447 
L 86.532898 146.222132 
L 87.547443 146.222132 
L 87.547443 153.726701 
L 88.561989 153.726701 
L 88.561989 155.773401 
L 89.576534 155.773401 
L 89.576534 159.525685 
L 90.59108 159.525685 
L 90.59108 154.408934 
L 91.605625 154.408934 
L 91.605625 162.595736 
L 92.62017 162.595736 
L 92.62017 160.549036 
L 93.634716 160.549036 
L 93.634716 157.137868 
L 94.649261 157.137868 
L 94.649261 158.502335 
L 95.663807 158.502335 
L 95.663807 158.843452 
L 96.678352 158.843452 
L 96.678352 167.371371 
L 97.692898 167.371371 
L 97.692898 168.394721 
L 98.707443 168.394721 
L 98.707443 171.464772 
L 99.721989 171.464772 
L 99.721989 171.123655 
L 100.736534 171.123655 
L 100.736534 172.488122 
L 101.75108 172.488122 
L 101.75108 169.418071 
L 102.765625 169.418071 
L 102.765625 175.899289 
L 103.78017 175.899289 
L 103.78017 172.829239 
L 104.794716 172.829239 
L 104.794716 182.039391 
L 105.809261 182.039391 
L 105.809261 178.287107 
L 106.823807 178.287107 
L 106.823807 180.674924 
L 107.838352 180.674924 
L 107.838352 183.403858 
L 108.852898 183.403858 
L 108.852898 193.63736 
L 109.867443 193.63736 
L 109.867443 191.249543 
L 110.881989 191.249543 
L 110.881989 194.660711 
L 111.896534 194.660711 
L 111.896534 196.025178 
L 112.91108 196.025178 
L 112.91108 198.071878 
L 113.925625 198.071878 
L 113.925625 198.412995 
L 114.94017 198.412995 
L 114.94017 196.707411 
L 115.954716 196.707411 
L 115.954716 199.436345 
L 116.969261 199.436345 
L 116.969261 200.459695 
L 117.983807 200.459695 
L 117.983807 201.483046 
L 118.998352 201.483046 
L 118.998352 201.141929 
L 120.012898 201.141929 
L 120.012898 208.305381 
L 121.027443 208.305381 
L 121.027443 207.964264 
L 122.041989 207.964264 
L 122.041989 208.987614 
L 123.056534 208.987614 
L 123.056534 210.693198 
L 124.07108 210.693198 
L 124.07108 210.352081 
L 125.085625 210.352081 
L 125.085625 210.010964 
L 126.10017 210.010964 
L 126.10017 209.669848 
L 127.114716 209.669848 
L 127.114716 213.081015 
L 128.129261 213.081015 
L 128.129261 215.809949 
L 129.143807 215.809949 
L 129.143807 215.468832 
L 130.158352 215.468832 
L 130.158352 216.833299 
L 131.172898 216.833299 
L 131.172898 217.515533 
L 132.187443 217.515533 
L 132.187443 218.197766 
L 134.216534 218.197766 
L 134.216534 218.538883 
L 135.23108 218.538883 
L 135.23108 218.88 
L 148.42017 218.88 
L 148.42017 218.538883 
L 149.434716 218.538883 
L 149.434716 216.833299 
L 150.449261 216.833299 
L 150.449261 211.716548 
L 151.463807 211.716548 
L 151.463807 204.21198 
L 152.478352 204.21198 
L 152.478352 201.483046 
L 153.492898 201.483046 
L 153.492898 193.978477 
L 154.507443 193.978477 
L 154.507443 184.086091 
L 155.521989 184.086091 
L 155.521989 180.333807 
L 156.536534 180.333807 
L 156.536534 179.310457 
L 157.55108 179.310457 
L 157.55108 178.287107 
L 158.565625 178.287107 
L 158.565625 160.890152 
L 159.58017 160.890152 
L 159.58017 163.27797 
L 160.594716 163.27797 
L 160.594716 157.820102 
L 161.609261 157.820102 
L 161.609261 151.338883 
L 162.623807 151.338883 
L 162.623807 147.245482 
L 163.638352 147.245482 
L 163.638352 140.08203 
L 164.652898 140.08203 
L 164.652898 135.306396 
L 165.667443 135.306396 
L 165.667443 134.283046 
L 166.681989 134.283046 
L 166.681989 130.530761 
L 167.696534 130.530761 
L 167.696534 117.227208 
L 168.71108 117.227208 
L 168.71108 116.544975 
L 169.725625 116.544975 
L 169.725625 101.194721 
L 170.74017 101.194721 
L 170.74017 106.311472 
L 171.754716 106.311472 
L 171.754716 100.512487 
L 172.769261 100.512487 
L 172.769261 97.442437 
L 173.783807 97.442437 
L 173.783807 97.10132 
L 174.798352 97.10132 
L 174.798352 86.867817 
L 175.812898 86.867817 
L 175.812898 92.325685 
L 176.827443 92.325685 
L 176.827443 75.952081 
L 177.841989 75.952081 
L 177.841989 90.620102 
L 178.856534 90.620102 
L 178.856534 84.821117 
L 179.87108 84.821117 
L 179.87108 62.648528 
L 180.885625 62.648528 
L 180.885625 59.919594 
L 181.90017 59.919594 
L 181.90017 55.826193 
L 182.914716 55.826193 
L 182.914716 74.587614 
L 183.929261 74.587614 
L 183.929261 65.377462 
L 184.943807 65.377462 
L 184.943807 60.601827 
L 185.958352 60.601827 
L 185.958352 49.003858 
L 186.972898 49.003858 
L 186.972898 43.54599 
L 187.987443 43.54599 
L 187.987443 56.16731 
L 189.001989 56.16731 
L 189.001989 32.630254 
L 190.016534 32.630254 
L 190.016534 58.21401 
L 191.03108 58.21401 
L 191.03108 38.770355 
L 192.045625 38.770355 
L 192.045625 32.630254 
L 193.06017 32.630254 
L 193.06017 26.149036 
L 194.074716 26.149036 
L 194.074716 29.219086 
L 195.089261 29.219086 
L 195.089261 26.831269 
L 196.103807 26.831269 
L 196.103807 38.770355 
L 197.118352 38.770355 
L 197.118352 55.826193 
L 198.132898 55.826193 
L 198.132898 50.027208 
L 199.147443 50.027208 
L 199.147443 29.90132 
L 200.161989 29.90132 
L 200.161989 46.616041 
L 201.176534 46.616041 
L 201.176534 46.274924 
L 203.205625 46.274924 
L 203.205625 49.003858 
L 204.22017 49.003858 
L 204.22017 52.073909 
L 205.234716 52.073909 
L 205.234716 55.485076 
L 206.249261 55.485076 
L 206.249261 43.54599 
L 207.263807 43.54599 
L 207.263807 47.298274 
L 208.278352 47.298274 
L 208.278352 65.036345 
L 209.292898 65.036345 
L 209.292898 55.143959 
L 210.307443 55.143959 
L 210.307443 57.531777 
L 211.321989 57.531777 
L 211.321989 70.153096 
L 212.336534 70.153096 
L 212.336534 66.741929 
L 214.365625 66.741929 
L 214.365625 62.989645 
L 215.38017 62.989645 
L 215.38017 71.85868 
L 216.394716 71.85868 
L 216.394716 62.307411 
L 217.409261 62.307411 
L 217.409261 58.21401 
L 218.423807 58.21401 
L 218.423807 65.718579 
L 219.438352 65.718579 
L 219.438352 66.059695 
L 220.452898 66.059695 
L 220.452898 61.625178 
L 221.467443 61.625178 
L 221.467443 69.81198 
L 222.481989 69.81198 
L 222.481989 61.284061 
L 223.496534 61.284061 
L 223.496534 67.083046 
L 224.51108 67.083046 
L 224.51108 71.85868 
L 225.525625 71.85868 
L 225.525625 71.517563 
L 226.54017 71.517563 
L 226.54017 75.610964 
L 227.554716 75.610964 
L 227.554716 84.48 
L 228.569261 84.48 
L 228.569261 79.022132 
L 229.583807 79.022132 
L 229.583807 76.293198 
L 230.598352 76.293198 
L 230.598352 73.223147 
L 231.612898 73.223147 
L 231.612898 76.293198 
L 232.627443 76.293198 
L 232.627443 85.50335 
L 233.641989 85.50335 
L 233.641989 77.657665 
L 234.656534 77.657665 
L 234.656534 70.494213 
L 235.67108 70.494213 
L 235.67108 74.246497 
L 236.685625 74.246497 
L 236.685625 79.704365 
L 237.70017 79.704365 
L 237.70017 67.083046 
L 238.714716 67.083046 
L 238.714716 69.81198 
L 239.729261 69.81198 
L 239.729261 83.797766 
L 240.743807 83.797766 
L 240.743807 93.007919 
L 241.758352 93.007919 
L 241.758352 78.681015 
L 242.772898 78.681015 
L 242.772898 83.45665 
L 243.787443 83.45665 
L 243.787443 87.550051 
L 244.801989 87.550051 
L 244.801989 90.961218 
L 245.816534 90.961218 
L 245.816534 92.325685 
L 246.83108 92.325685 
L 246.83108 93.349036 
L 247.845625 93.349036 
L 247.845625 81.751066 
L 248.86017 81.751066 
L 248.86017 86.185584 
L 250.889261 86.185584 
L 250.889261 95.054619 
L 251.903807 95.054619 
L 251.903807 89.596751 
L 252.918352 89.596751 
L 252.918352 103.582538 
L 253.932898 103.582538 
L 253.932898 93.349036 
L 255.961989 93.349036 
L 255.961989 107.675939 
L 256.976534 107.675939 
L 256.976534 112.451574 
L 257.99108 112.451574 
L 257.99108 115.862741 
L 259.005625 115.862741 
L 259.005625 106.993706 
L 260.02017 106.993706 
L 260.02017 131.554112 
L 261.034716 131.554112 
L 261.034716 133.259695 
L 262.049261 133.259695 
L 262.049261 137.353096 
L 263.063807 137.353096 
L 263.063807 126.43736 
L 264.078352 126.43736 
L 264.078352 149.974416 
L 265.092898 149.974416 
L 265.092898 139.740914 
L 266.107443 139.740914 
L 266.107443 150.315533 
L 267.121989 150.315533 
L 267.121989 157.820102 
L 268.136534 157.820102 
L 268.136534 155.773401 
L 269.15108 155.773401 
L 269.15108 165.665787 
L 270.165625 165.665787 
L 270.165625 166.689137 
L 271.18017 166.689137 
L 271.18017 172.147005 
L 272.194716 172.147005 
L 272.194716 179.99269 
L 273.209261 179.99269 
L 273.209261 178.287107 
L 274.223807 178.287107 
L 274.223807 192.955127 
L 275.238352 192.955127 
L 275.238352 182.039391 
L 276.252898 182.039391 
L 276.252898 195.684061 
L 277.267443 195.684061 
L 277.267443 197.389645 
L 278.281989 197.389645 
L 278.281989 200.800812 
L 279.296534 200.800812 
L 279.296534 204.21198 
L 280.31108 204.21198 
L 280.31108 208.646497 
L 281.325625 208.646497 
L 281.325625 206.940914 
L 282.34017 206.940914 
L 282.34017 211.034315 
L 283.354716 211.034315 
L 283.354716 215.127716 
L 284.369261 215.127716 
L 284.369261 215.809949 
L 285.383807 215.809949 
L 285.383807 217.85665 
L 287.412898 217.85665 
L 287.412898 218.88 
L 298.572898 218.88 
L 298.572898 216.151066 
L 299.587443 216.151066 
L 299.587443 213.422132 
L 300.601989 213.422132 
L 300.601989 205.576447 
L 301.616534 205.576447 
L 301.616534 198.412995 
L 302.63108 198.412995 
L 302.63108 201.483046 
L 303.645625 201.483046 
L 303.645625 195.001827 
L 304.66017 195.001827 
L 304.66017 181.357157 
L 305.674716 181.357157 
L 305.674716 181.016041 
L 306.689261 181.016041 
L 306.689261 179.99269 
L 307.703807 179.99269 
L 307.703807 176.92264 
L 308.718352 176.92264 
L 308.718352 170.441421 
L 309.732898 170.441421 
L 309.732898 169.418071 
L 310.747443 169.418071 
L 310.747443 159.184569 
L 311.761989 159.184569 
L 311.761989 156.114518 
L 312.776534 156.114518 
L 312.776534 160.207919 
L 313.79108 160.207919 
L 313.79108 160.890152 
L 314.805625 160.890152 
L 314.805625 158.161218 
L 315.82017 158.161218 
L 315.82017 146.563249 
L 316.834716 146.563249 
L 316.834716 151.68 
L 317.849261 151.68 
L 317.849261 141.446497 
L 318.863807 141.446497 
L 318.863807 139.05868 
L 319.878352 139.05868 
L 319.878352 137.694213 
L 320.892898 137.694213 
L 320.892898 132.236345 
L 321.907443 132.236345 
L 321.907443 136.329746 
L 322.921989 136.329746 
L 322.921989 122.685076 
L 323.936534 122.685076 
L 323.936534 127.460711 
L 324.95108 127.460711 
L 324.95108 128.484061 
L 325.965625 128.484061 
L 325.965625 136.670863 
L 326.98017 136.670863 
L 326.98017 117.909442 
L 327.994716 117.909442 
L 327.994716 122.343959 
L 329.009261 122.343959 
L 329.009261 108.699289 
L 330.023807 108.699289 
L 330.023807 117.909442 
L 331.038352 117.909442 
L 331.038352 104.264772 
L 332.052898 104.264772 
L 332.052898 108.699289 
L 333.067443 108.699289 
L 333.067443 108.017056 
L 334.081989 108.017056 
L 334.081989 95.054619 
L 335.096534 95.054619 
L 335.096534 98.12467 
L 336.11108 98.12467 
L 336.11108 96.07797 
L 337.125625 96.07797 
L 337.125625 91.302335 
L 338.14017 91.302335 
L 338.14017 89.255635 
L 339.154716 89.255635 
L 339.154716 98.12467 
L 340.169261 98.12467 
L 340.169261 96.760203 
L 341.183807 96.760203 
L 341.183807 88.232284 
L 342.198352 88.232284 
L 342.198352 84.48 
L 343.212898 84.48 
L 343.212898 97.442437 
L 344.227443 97.442437 
L 344.227443 96.760203 
L 345.241989 96.760203 
L 345.241989 106.993706 
L 346.256534 106.993706 
L 346.256534 95.736853 
L 347.27108 95.736853 
L 347.27108 95.395736 
L 349.30017 95.395736 
L 349.30017 96.07797 
L 350.314716 96.07797 
L 350.314716 98.465787 
L 351.329261 98.465787 
L 351.329261 101.876954 
L 352.343807 101.876954 
L 352.343807 111.76934 
L 353.358352 111.76934 
L 353.358352 116.544975 
L 354.372898 116.544975 
L 354.372898 110.74599 
L 355.387443 110.74599 
L 355.387443 105.629239 
L 356.401989 105.629239 
L 356.401989 109.381523 
L 357.416534 109.381523 
L 357.416534 106.993706 
L 358.43108 106.993706 
L 358.43108 116.203858 
L 359.445625 116.203858 
L 359.445625 118.250558 
L 360.46017 118.250558 
L 360.46017 124.049543 
L 361.474716 124.049543 
L 361.474716 118.250558 
L 362.489261 118.250558 
L 362.489261 115.862741 
L 363.503807 115.862741 
L 363.503807 109.040406 
L 364.518352 109.040406 
L 364.518352 121.661726 
L 365.532898 121.661726 
L 365.532898 112.451574 
L 366.547443 112.451574 
L 366.547443 112.451574 
" clip-path="url(#pa943be9372)" style="fill: none; stroke: #1f77b4; stroke-width: 1.5; stroke-linecap: square"/>
   </g>
   <g id="line2d_19">
    <path d="M 62.183807 123.026193 
L 63.198352 123.026193 
L 63.198352 130.189645 
L 64.212898 130.189645 
L 64.212898 122.685076 
L 65.227443 122.685076 
L 65.227443 114.839391 
L 66.241989 114.839391 
L 66.241989 139.399797 
L 67.256534 139.399797 
L 67.256534 135.306396 
L 68.27108 135.306396 
L 68.27108 143.493198 
L 69.285625 143.493198 
L 69.285625 132.918579 
L 70.30017 132.918579 
L 70.30017 139.399797 
L 71.314716 139.399797 
L 71.314716 133.941929 
L 72.329261 133.941929 
L 72.329261 140.764264 
L 73.343807 140.764264 
L 73.343807 135.306396 
L 74.358352 135.306396 
L 74.358352 142.128731 
L 75.372898 142.128731 
L 75.372898 141.787614 
L 76.387443 141.787614 
L 76.387443 151.68 
L 77.401989 151.68 
L 77.401989 140.764264 
L 78.416534 140.764264 
L 78.416534 136.329746 
L 79.43108 136.329746 
L 79.43108 143.493198 
L 80.445625 143.493198 
L 80.445625 152.021117 
L 81.46017 152.021117 
L 81.46017 154.750051 
L 82.474716 154.750051 
L 82.474716 157.820102 
L 83.489261 157.820102 
L 83.489261 152.70335 
L 84.503807 152.70335 
L 84.503807 161.913503 
L 85.518352 161.913503 
L 85.518352 159.184569 
L 86.532898 159.184569 
L 86.532898 157.478985 
L 87.547443 157.478985 
L 87.547443 152.70335 
L 88.561989 152.70335 
L 88.561989 161.913503 
L 89.576534 161.913503 
L 89.576534 164.983553 
L 90.59108 164.983553 
L 90.59108 168.053604 
L 91.605625 168.053604 
L 91.605625 173.852589 
L 92.62017 173.852589 
L 92.62017 165.665787 
L 93.634716 165.665787 
L 93.634716 172.829239 
L 94.649261 172.829239 
L 94.649261 168.735838 
L 95.663807 168.735838 
L 95.663807 176.92264 
L 96.678352 176.92264 
L 96.678352 173.170355 
L 97.692898 173.170355 
L 97.692898 179.99269 
L 98.707443 179.99269 
L 98.707443 177.604873 
L 99.721989 177.604873 
L 99.721989 182.039391 
L 100.736534 182.039391 
L 100.736534 185.450558 
L 101.75108 185.450558 
L 101.75108 192.272893 
L 102.765625 192.272893 
L 102.765625 190.226193 
L 103.78017 190.226193 
L 103.78017 193.978477 
L 104.794716 193.978477 
L 104.794716 201.141929 
L 105.809261 201.141929 
L 105.809261 193.63736 
L 106.823807 193.63736 
L 106.823807 200.459695 
L 107.838352 200.459695 
L 107.838352 196.366294 
L 108.852898 196.366294 
L 108.852898 199.095228 
L 109.867443 199.095228 
L 109.867443 202.165279 
L 110.881989 202.165279 
L 110.881989 200.800812 
L 111.896534 200.800812 
L 111.896534 205.23533 
L 112.91108 205.23533 
L 112.91108 206.940914 
L 113.925625 206.940914 
L 113.925625 209.669848 
L 114.94017 209.669848 
L 114.94017 209.328731 
L 115.954716 209.328731 
L 115.954716 210.010964 
L 116.969261 210.010964 
L 116.969261 210.352081 
L 117.983807 210.352081 
L 117.983807 210.010964 
L 118.998352 210.010964 
L 118.998352 211.716548 
L 120.012898 211.716548 
L 120.012898 215.809949 
L 121.027443 215.809949 
L 121.027443 215.468832 
L 122.041989 215.468832 
L 122.041989 216.492183 
L 123.056534 216.492183 
L 123.056534 217.85665 
L 125.085625 217.85665 
L 125.085625 218.197766 
L 126.10017 218.197766 
L 126.10017 218.538883 
L 127.114716 218.538883 
L 127.114716 218.88 
L 147.405625 218.88 
L 147.405625 217.515533 
L 148.42017 217.515533 
L 148.42017 215.127716 
L 149.434716 215.127716 
L 149.434716 205.576447 
L 150.449261 205.576447 
L 150.449261 200.459695 
L 151.463807 200.459695 
L 151.463807 197.730761 
L 152.478352 197.730761 
L 152.478352 185.450558 
L 153.492898 185.450558 
L 153.492898 181.698274 
L 154.507443 181.698274 
L 154.507443 176.581523 
L 155.521989 176.581523 
L 155.521989 179.651574 
L 156.536534 179.651574 
L 156.536534 159.525685 
L 157.55108 159.525685 
L 157.55108 163.960203 
L 158.565625 163.960203 
L 158.565625 153.726701 
L 159.58017 153.726701 
L 159.58017 152.70335 
L 160.594716 152.70335 
L 160.594716 144.175431 
L 161.609261 144.175431 
L 161.609261 141.105381 
L 162.623807 141.105381 
L 162.623807 132.236345 
L 163.638352 132.236345 
L 163.638352 132.918579 
L 164.652898 132.918579 
L 164.652898 126.778477 
L 165.667443 126.778477 
L 165.667443 113.474924 
L 166.681989 113.474924 
L 166.681989 114.157157 
L 167.696534 114.157157 
L 167.696534 98.465787 
L 168.71108 98.465787 
L 168.71108 103.923655 
L 169.725625 103.923655 
L 169.725625 97.10132 
L 170.74017 97.10132 
L 170.74017 94.713503 
L 171.754716 94.713503 
L 171.754716 89.596751 
L 172.769261 89.596751 
L 172.769261 85.844467 
L 173.783807 85.844467 
L 173.783807 93.007919 
L 174.798352 93.007919 
L 174.798352 66.059695 
L 175.812898 66.059695 
L 175.812898 84.48 
L 176.827443 84.48 
L 176.827443 84.138883 
L 177.841989 84.138883 
L 177.841989 56.849543 
L 178.856534 56.849543 
L 178.856534 50.027208 
L 179.87108 50.027208 
L 179.87108 59.23736 
L 180.885625 59.23736 
L 180.885625 64.012995 
L 181.90017 64.012995 
L 181.90017 64.354112 
L 182.914716 64.354112 
L 182.914716 50.027208 
L 183.929261 50.027208 
L 183.929261 35.700305 
L 184.943807 35.700305 
L 184.943807 53.097259 
L 185.958352 53.097259 
L 185.958352 39.452589 
L 186.972898 39.452589 
L 186.972898 43.204873 
L 187.987443 43.204873 
L 187.987443 40.134822 
L 189.001989 40.134822 
L 189.001989 33.653604 
L 190.016534 33.653604 
L 190.016534 17.621117 
L 191.03108 17.621117 
L 191.03108 31.606904 
L 192.045625 31.606904 
L 192.045625 17.28 
L 193.06017 17.28 
L 193.06017 29.90132 
L 194.074716 29.90132 
L 194.074716 51.732792 
L 195.089261 51.732792 
L 195.089261 44.56934 
L 196.103807 44.56934 
L 196.103807 26.490152 
L 197.118352 26.490152 
L 197.118352 42.52264 
L 198.132898 42.52264 
L 198.132898 40.475939 
L 199.147443 40.475939 
L 199.147443 41.158173 
L 200.161989 41.158173 
L 200.161989 46.274924 
L 201.176534 46.274924 
L 201.176534 49.686091 
L 202.19108 49.686091 
L 202.19108 48.321624 
L 203.205625 48.321624 
L 203.205625 42.52264 
L 204.22017 42.52264 
L 204.22017 43.204873 
L 205.234716 43.204873 
L 205.234716 59.578477 
L 206.249261 59.578477 
L 206.249261 51.732792 
L 207.263807 51.732792 
L 207.263807 53.097259 
L 208.278352 53.097259 
L 208.278352 68.788629 
L 209.292898 68.788629 
L 209.292898 65.377462 
L 210.307443 65.377462 
L 210.307443 59.578477 
L 211.321989 59.578477 
L 211.321989 62.989645 
L 212.336534 62.989645 
L 212.336534 65.718579 
L 213.35108 65.718579 
L 213.35108 54.802843 
L 214.365625 54.802843 
L 214.365625 56.508426 
L 215.38017 56.508426 
L 215.38017 61.625178 
L 216.394716 61.625178 
L 216.394716 61.966294 
L 217.409261 61.966294 
L 217.409261 61.625178 
L 218.423807 61.625178 
L 218.423807 61.966294 
L 219.438352 61.966294 
L 219.438352 61.625178 
L 220.452898 61.625178 
L 220.452898 60.260711 
L 221.467443 60.260711 
L 221.467443 75.610964 
L 222.481989 75.610964 
L 222.481989 72.199797 
L 223.496534 72.199797 
L 223.496534 66.741929 
L 224.51108 66.741929 
L 224.51108 82.433299 
L 225.525625 82.433299 
L 225.525625 69.81198 
L 226.54017 69.81198 
L 226.54017 80.045482 
L 227.554716 80.045482 
L 227.554716 67.424162 
L 228.569261 67.424162 
L 228.569261 77.998782 
L 229.583807 77.998782 
L 229.583807 73.223147 
L 230.598352 73.223147 
L 230.598352 76.975431 
L 231.612898 76.975431 
L 231.612898 61.284061 
L 232.627443 61.284061 
L 232.627443 76.634315 
L 233.641989 76.634315 
L 233.641989 73.564264 
L 234.656534 73.564264 
L 234.656534 60.260711 
L 235.67108 60.260711 
L 235.67108 78.681015 
L 236.685625 78.681015 
L 236.685625 86.185584 
L 237.70017 86.185584 
L 237.70017 79.704365 
L 238.714716 79.704365 
L 238.714716 81.409949 
L 239.729261 81.409949 
L 239.729261 80.386599 
L 240.743807 80.386599 
L 240.743807 88.914518 
L 241.758352 88.914518 
L 241.758352 86.185584 
L 242.772898 86.185584 
L 242.772898 89.596751 
L 243.787443 89.596751 
L 243.787443 85.844467 
L 244.801989 85.844467 
L 244.801989 78.339898 
L 245.816534 78.339898 
L 245.816534 83.115533 
L 246.83108 83.115533 
L 246.83108 91.984569 
L 247.845625 91.984569 
L 247.845625 88.232284 
L 248.86017 88.232284 
L 248.86017 100.171371 
L 249.874716 100.171371 
L 249.874716 90.278985 
L 250.889261 90.278985 
L 250.889261 91.643452 
L 251.903807 91.643452 
L 251.903807 106.652589 
L 252.918352 106.652589 
L 252.918352 107.675939 
L 253.932898 107.675939 
L 253.932898 115.180508 
L 254.947443 115.180508 
L 254.947443 103.923655 
L 255.961989 103.923655 
L 255.961989 134.283046 
L 256.976534 134.283046 
L 256.976534 131.895228 
L 257.99108 131.895228 
L 257.99108 133.259695 
L 259.005625 133.259695 
L 259.005625 127.801827 
L 260.02017 127.801827 
L 260.02017 146.222132 
L 261.034716 146.222132 
L 261.034716 140.08203 
L 262.049261 140.08203 
L 262.049261 155.773401 
L 263.063807 155.773401 
L 263.063807 152.362234 
L 264.078352 152.362234 
L 264.078352 157.137868 
L 265.092898 157.137868 
L 265.092898 165.665787 
L 266.107443 165.665787 
L 266.107443 165.32467 
L 267.121989 165.32467 
L 267.121989 176.240406 
L 268.136534 176.240406 
L 268.136534 177.604873 
L 269.15108 177.604873 
L 269.15108 185.450558 
L 270.165625 185.450558 
L 270.165625 193.296244 
L 271.18017 193.296244 
L 271.18017 183.403858 
L 272.194716 183.403858 
L 272.194716 196.366294 
L 273.209261 196.366294 
L 273.209261 199.095228 
L 274.223807 199.095228 
L 274.223807 203.188629 
L 275.238352 203.188629 
L 275.238352 206.940914 
L 276.252898 206.940914 
L 276.252898 205.23533 
L 277.267443 205.23533 
L 277.267443 208.987614 
L 278.281989 208.987614 
L 278.281989 214.445482 
L 279.296534 214.445482 
L 279.296534 216.151066 
L 280.31108 216.151066 
L 280.31108 217.515533 
L 282.34017 217.515533 
L 282.34017 218.88 
L 293.50017 218.88 
L 293.50017 217.174416 
L 294.514716 217.174416 
L 294.514716 213.763249 
L 295.529261 213.763249 
L 295.529261 205.23533 
L 296.543807 205.23533 
L 296.543807 201.141929 
L 297.558352 201.141929 
L 297.558352 199.095228 
L 298.572898 199.095228 
L 298.572898 195.342944 
L 299.587443 195.342944 
L 299.587443 183.062741 
L 300.601989 183.062741 
L 300.601989 178.628223 
L 301.616534 178.628223 
L 301.616534 179.310457 
L 302.63108 179.310457 
L 302.63108 176.581523 
L 303.645625 176.581523 
L 303.645625 168.735838 
L 305.674716 168.735838 
L 305.674716 157.137868 
L 306.689261 157.137868 
L 306.689261 155.432284 
L 307.703807 155.432284 
L 307.703807 155.091168 
L 308.718352 155.091168 
L 308.718352 164.642437 
L 309.732898 164.642437 
L 309.732898 151.68 
L 310.747443 151.68 
L 310.747443 145.198782 
L 311.761989 145.198782 
L 311.761989 146.904365 
L 312.776534 146.904365 
L 312.776534 142.469848 
L 313.79108 142.469848 
L 313.79108 138.03533 
L 314.805625 138.03533 
L 314.805625 127.801827 
L 315.82017 127.801827 
L 315.82017 134.283046 
L 316.834716 134.283046 
L 316.834716 131.554112 
L 317.849261 131.554112 
L 317.849261 118.250558 
L 318.863807 118.250558 
L 318.863807 127.119594 
L 319.878352 127.119594 
L 319.878352 124.39066 
L 320.892898 124.39066 
L 320.892898 130.871878 
L 321.907443 130.871878 
L 321.907443 119.956142 
L 322.921989 119.956142 
L 322.921989 115.862741 
L 323.936534 115.862741 
L 323.936534 105.288122 
L 324.95108 105.288122 
L 324.95108 111.76934 
L 325.965625 111.76934 
L 325.965625 99.14802 
L 326.98017 99.14802 
L 326.98017 109.72264 
L 327.994716 109.72264 
L 327.994716 92.325685 
L 329.009261 92.325685 
L 329.009261 95.736853 
L 330.023807 95.736853 
L 330.023807 91.643452 
L 331.038352 91.643452 
L 331.038352 89.937868 
L 332.052898 89.937868 
L 332.052898 93.349036 
L 333.067443 93.349036 
L 333.067443 90.278985 
L 334.081989 90.278985 
L 334.081989 89.937868 
L 335.096534 89.937868 
L 335.096534 92.666802 
L 336.11108 92.666802 
L 336.11108 77.316548 
L 337.125625 77.316548 
L 337.125625 90.961218 
L 338.14017 90.961218 
L 338.14017 98.465787 
L 339.154716 98.465787 
L 339.154716 103.582538 
L 340.169261 103.582538 
L 340.169261 91.643452 
L 341.183807 91.643452 
L 341.183807 90.961218 
L 342.198352 90.961218 
L 342.198352 95.054619 
L 343.212898 95.054619 
L 343.212898 93.007919 
L 344.227443 93.007919 
L 344.227443 96.760203 
L 345.241989 96.760203 
L 345.241989 97.783553 
L 346.256534 97.783553 
L 346.256534 108.699289 
L 347.27108 108.699289 
L 347.27108 115.180508 
L 348.285625 115.180508 
L 348.285625 107.334822 
L 349.30017 107.334822 
L 349.30017 102.559188 
L 350.314716 102.559188 
L 350.314716 109.381523 
L 351.329261 109.381523 
L 351.329261 102.218071 
L 352.343807 102.218071 
L 352.343807 113.133807 
L 353.358352 113.133807 
L 353.358352 117.909442 
L 354.372898 117.909442 
L 354.372898 122.685076 
L 355.387443 122.685076 
L 355.387443 112.110457 
L 356.401989 112.110457 
L 356.401989 117.227208 
L 357.416534 117.227208 
L 357.416534 105.288122 
L 358.43108 105.288122 
L 358.43108 118.591675 
L 359.445625 118.591675 
L 359.445625 110.404873 
L 360.46017 110.404873 
L 360.46017 129.166294 
L 361.474716 129.166294 
L 361.474716 113.474924 
L 362.489261 113.474924 
L 362.489261 129.166294 
L 363.503807 129.166294 
L 363.503807 125.072893 
L 364.518352 125.072893 
L 364.518352 122.002843 
L 365.532898 122.002843 
L 365.532898 119.273909 
L 366.547443 119.273909 
L 366.547443 119.273909 
" clip-path="url(#pa943be9372)" style="fill: none; stroke: #ff7f0e; stroke-width: 1.5; stroke-linecap: square"/>
   </g>
  </g>
 </g>
 <defs>
  <clipPath id="pa943be9372">
   <rect x="46.965625" y="7.2" width="334.8" height="221.76"/>
  </clipPath>
 </defs>
</svg>
