<?xml version="1.0" encoding="utf-8" standalone="no"?>
<!DOCTYPE svg PUBLIC "-//W3C//DTD SVG 1.1//EN"
  "http://www.w3.org/Graphics/SVG/1.1/DTD/svg11.dtd">
<svg xmlns:xlink="http://www.w3.org/1999/xlink" width="872.39952pt" height="296.39952pt" viewBox="0 0 872.39952 296.39952" xmlns="http://www.w3.org/2000/svg" version="1.1">
 <metadata>
  <rdf:RDF xmlns:dc="http://purl.org/dc/elements/1.1/" xmlns:cc="http://creativecommons.org/ns#" xmlns:rdf="http://www.w3.org/1999/02/22-rdf-syntax-ns#">
   <cc:Work>
    <dc:type rdf:resource="http://purl.org/dc/dcmitype/StillImage"/>
    <dc:date>2024-11-13T15:30:54.900982</dc:date>
    <dc:format>image/svg+xml</dc:format>
    <dc:creator>
     <cc:Agent>
      <dc:title>Matplotlib v3.9.2, https://matplotlib.org/</dc:title>
     </cc:Agent>
    </dc:creator>
   </cc:Work>
  </rdf:RDF>
 </metadata>
 <defs>
  <style type="text/css">*{stroke-linejoin: round; stroke-linecap: butt}</style>
 </defs>
 <g id="figure_1">
  <g id="patch_1">
   <path d="M 0 296.39952 
L 872.39952 296.39952 
L 872.39952 0 
L 0 0 
z
" style="fill: #ffffff"/>
  </g>
  <g id="axes_1">
   <g id="patch_2">
    <path d="M 53.328125 257.158895 
L 431.87976 257.158895 
L 431.87976 7.2 
L 53.328125 7.2 
z
" style="fill: #ffffff"/>
   </g>
   <g id="matplotlib.axis_1">
    <g id="xtick_1">
     <g id="line2d_1">
      <defs>
       <path id="m1342fc501c" d="M 0 0 
L 0 3.5 
" style="stroke: #000000; stroke-width: 0.8"/>
      </defs>
      <g>
       <use xlink:href="#m1342fc501c" x="69.608768" y="257.158895" style="stroke: #000000; stroke-width: 0.8"/>
      </g>
     </g>
     <g id="text_1">
      <!-- 0 -->
      <g transform="translate(66.427518 271.757332) scale(0.1 -0.1)">
       <defs>
        <path id="DejaVuSans-30" d="M 2034 4250 
Q 1547 4250 1301 3770 
Q 1056 3291 1056 2328 
Q 1056 1369 1301 889 
Q 1547 409 2034 409 
Q 2525 409 2770 889 
Q 3016 1369 3016 2328 
Q 3016 3291 2770 3770 
Q 2525 4250 2034 4250 
z
M 2034 4750 
Q 2819 4750 3233 4129 
Q 3647 3509 3647 2328 
Q 3647 1150 3233 529 
Q 2819 -91 2034 -91 
Q 1250 -91 836 529 
Q 422 1150 422 2328 
Q 422 3509 836 4129 
Q 1250 4750 2034 4750 
z
" transform="scale(0.015625)"/>
       </defs>
       <use xlink:href="#DejaVuSans-30"/>
      </g>
     </g>
    </g>
    <g id="xtick_2">
     <g id="line2d_2">
      <g>
       <use xlink:href="#m1342fc501c" x="138.79559" y="257.158895" style="stroke: #000000; stroke-width: 0.8"/>
      </g>
     </g>
     <g id="text_2">
      <!-- 1000 -->
      <g transform="translate(126.07059 271.757332) scale(0.1 -0.1)">
       <defs>
        <path id="DejaVuSans-31" d="M 794 531 
L 1825 531 
L 1825 4091 
L 703 3866 
L 703 4441 
L 1819 4666 
L 2450 4666 
L 2450 531 
L 3481 531 
L 3481 0 
L 794 0 
L 794 531 
z
" transform="scale(0.015625)"/>
       </defs>
       <use xlink:href="#DejaVuSans-31"/>
       <use xlink:href="#DejaVuSans-30" x="63.623047"/>
       <use xlink:href="#DejaVuSans-30" x="127.246094"/>
       <use xlink:href="#DejaVuSans-30" x="190.869141"/>
      </g>
     </g>
    </g>
    <g id="xtick_3">
     <g id="line2d_3">
      <g>
       <use xlink:href="#m1342fc501c" x="207.982412" y="257.158895" style="stroke: #000000; stroke-width: 0.8"/>
      </g>
     </g>
     <g id="text_3">
      <!-- 2000 -->
      <g transform="translate(195.257412 271.757332) scale(0.1 -0.1)">
       <defs>
        <path id="DejaVuSans-32" d="M 1228 531 
L 3431 531 
L 3431 0 
L 469 0 
L 469 531 
Q 828 903 1448 1529 
Q 2069 2156 2228 2338 
Q 2531 2678 2651 2914 
Q 2772 3150 2772 3378 
Q 2772 3750 2511 3984 
Q 2250 4219 1831 4219 
Q 1534 4219 1204 4116 
Q 875 4013 500 3803 
L 500 4441 
Q 881 4594 1212 4672 
Q 1544 4750 1819 4750 
Q 2544 4750 2975 4387 
Q 3406 4025 3406 3419 
Q 3406 3131 3298 2873 
Q 3191 2616 2906 2266 
Q 2828 2175 2409 1742 
Q 1991 1309 1228 531 
z
" transform="scale(0.015625)"/>
       </defs>
       <use xlink:href="#DejaVuSans-32"/>
       <use xlink:href="#DejaVuSans-30" x="63.623047"/>
       <use xlink:href="#DejaVuSans-30" x="127.246094"/>
       <use xlink:href="#DejaVuSans-30" x="190.869141"/>
      </g>
     </g>
    </g>
    <g id="xtick_4">
     <g id="line2d_4">
      <g>
       <use xlink:href="#m1342fc501c" x="277.169234" y="257.158895" style="stroke: #000000; stroke-width: 0.8"/>
      </g>
     </g>
     <g id="text_4">
      <!-- 3000 -->
      <g transform="translate(264.444234 271.757332) scale(0.1 -0.1)">
       <defs>
        <path id="DejaVuSans-33" d="M 2597 2516 
Q 3050 2419 3304 2112 
Q 3559 1806 3559 1356 
Q 3559 666 3084 287 
Q 2609 -91 1734 -91 
Q 1441 -91 1130 -33 
Q 819 25 488 141 
L 488 750 
Q 750 597 1062 519 
Q 1375 441 1716 441 
Q 2309 441 2620 675 
Q 2931 909 2931 1356 
Q 2931 1769 2642 2001 
Q 2353 2234 1838 2234 
L 1294 2234 
L 1294 2753 
L 1863 2753 
Q 2328 2753 2575 2939 
Q 2822 3125 2822 3475 
Q 2822 3834 2567 4026 
Q 2313 4219 1838 4219 
Q 1578 4219 1281 4162 
Q 984 4106 628 3988 
L 628 4550 
Q 988 4650 1302 4700 
Q 1616 4750 1894 4750 
Q 2613 4750 3031 4423 
Q 3450 4097 3450 3541 
Q 3450 3153 3228 2886 
Q 3006 2619 2597 2516 
z
" transform="scale(0.015625)"/>
       </defs>
       <use xlink:href="#DejaVuSans-33"/>
       <use xlink:href="#DejaVuSans-30" x="63.623047"/>
       <use xlink:href="#DejaVuSans-30" x="127.246094"/>
       <use xlink:href="#DejaVuSans-30" x="190.869141"/>
      </g>
     </g>
    </g>
    <g id="xtick_5">
     <g id="line2d_5">
      <g>
       <use xlink:href="#m1342fc501c" x="346.356056" y="257.158895" style="stroke: #000000; stroke-width: 0.8"/>
      </g>
     </g>
     <g id="text_5">
      <!-- 4000 -->
      <g transform="translate(333.631056 271.757332) scale(0.1 -0.1)">
       <defs>
        <path id="DejaVuSans-34" d="M 2419 4116 
L 825 1625 
L 2419 1625 
L 2419 4116 
z
M 2253 4666 
L 3047 4666 
L 3047 1625 
L 3713 1625 
L 3713 1100 
L 3047 1100 
L 3047 0 
L 2419 0 
L 2419 1100 
L 313 1100 
L 313 1709 
L 2253 4666 
z
" transform="scale(0.015625)"/>
       </defs>
       <use xlink:href="#DejaVuSans-34"/>
       <use xlink:href="#DejaVuSans-30" x="63.623047"/>
       <use xlink:href="#DejaVuSans-30" x="127.246094"/>
       <use xlink:href="#DejaVuSans-30" x="190.869141"/>
      </g>
     </g>
    </g>
    <g id="xtick_6">
     <g id="line2d_6">
      <g>
       <use xlink:href="#m1342fc501c" x="415.542878" y="257.158895" style="stroke: #000000; stroke-width: 0.8"/>
      </g>
     </g>
     <g id="text_6">
      <!-- 5000 -->
      <g transform="translate(402.817878 271.757332) scale(0.1 -0.1)">
       <defs>
        <path id="DejaVuSans-35" d="M 691 4666 
L 3169 4666 
L 3169 4134 
L 1269 4134 
L 1269 2991 
Q 1406 3038 1543 3061 
Q 1681 3084 1819 3084 
Q 2600 3084 3056 2656 
Q 3513 2228 3513 1497 
Q 3513 744 3044 326 
Q 2575 -91 1722 -91 
Q 1428 -91 1123 -41 
Q 819 9 494 109 
L 494 744 
Q 775 591 1075 516 
Q 1375 441 1709 441 
Q 2250 441 2565 725 
Q 2881 1009 2881 1497 
Q 2881 1984 2565 2268 
Q 2250 2553 1709 2553 
Q 1456 2553 1204 2497 
Q 953 2441 691 2322 
L 691 4666 
z
" transform="scale(0.015625)"/>
       </defs>
       <use xlink:href="#DejaVuSans-35"/>
       <use xlink:href="#DejaVuSans-30" x="63.623047"/>
       <use xlink:href="#DejaVuSans-30" x="127.246094"/>
       <use xlink:href="#DejaVuSans-30" x="190.869141"/>
      </g>
     </g>
    </g>
    <g id="text_7">
     <!-- time [µs] -->
     <g transform="translate(220.031286 285.435457) scale(0.1 -0.1)">
      <defs>
       <path id="DejaVuSans-74" d="M 1172 4494 
L 1172 3500 
L 2356 3500 
L 2356 3053 
L 1172 3053 
L 1172 1153 
Q 1172 725 1289 603 
Q 1406 481 1766 481 
L 2356 481 
L 2356 0 
L 1766 0 
Q 1100 0 847 248 
Q 594 497 594 1153 
L 594 3053 
L 172 3053 
L 172 3500 
L 594 3500 
L 594 4494 
L 1172 4494 
z
" transform="scale(0.015625)"/>
       <path id="DejaVuSans-69" d="M 603 3500 
L 1178 3500 
L 1178 0 
L 603 0 
L 603 3500 
z
M 603 4863 
L 1178 4863 
L 1178 4134 
L 603 4134 
L 603 4863 
z
" transform="scale(0.015625)"/>
       <path id="DejaVuSans-6d" d="M 3328 2828 
Q 3544 3216 3844 3400 
Q 4144 3584 4550 3584 
Q 5097 3584 5394 3201 
Q 5691 2819 5691 2113 
L 5691 0 
L 5113 0 
L 5113 2094 
Q 5113 2597 4934 2840 
Q 4756 3084 4391 3084 
Q 3944 3084 3684 2787 
Q 3425 2491 3425 1978 
L 3425 0 
L 2847 0 
L 2847 2094 
Q 2847 2600 2669 2842 
Q 2491 3084 2119 3084 
Q 1678 3084 1418 2786 
Q 1159 2488 1159 1978 
L 1159 0 
L 581 0 
L 581 3500 
L 1159 3500 
L 1159 2956 
Q 1356 3278 1631 3431 
Q 1906 3584 2284 3584 
Q 2666 3584 2933 3390 
Q 3200 3197 3328 2828 
z
" transform="scale(0.015625)"/>
       <path id="DejaVuSans-65" d="M 3597 1894 
L 3597 1613 
L 953 1613 
Q 991 1019 1311 708 
Q 1631 397 2203 397 
Q 2534 397 2845 478 
Q 3156 559 3463 722 
L 3463 178 
Q 3153 47 2828 -22 
Q 2503 -91 2169 -91 
Q 1331 -91 842 396 
Q 353 884 353 1716 
Q 353 2575 817 3079 
Q 1281 3584 2069 3584 
Q 2775 3584 3186 3129 
Q 3597 2675 3597 1894 
z
M 3022 2063 
Q 3016 2534 2758 2815 
Q 2500 3097 2075 3097 
Q 1594 3097 1305 2825 
Q 1016 2553 972 2059 
L 3022 2063 
z
" transform="scale(0.015625)"/>
       <path id="DejaVuSans-20" transform="scale(0.015625)"/>
       <path id="DejaVuSans-5b" d="M 550 4863 
L 1875 4863 
L 1875 4416 
L 1125 4416 
L 1125 -397 
L 1875 -397 
L 1875 -844 
L 550 -844 
L 550 4863 
z
" transform="scale(0.015625)"/>
       <path id="DejaVuSans-b5" d="M 544 -1331 
L 544 3500 
L 1119 3500 
L 1119 1325 
Q 1119 872 1334 640 
Q 1550 409 1972 409 
Q 2434 409 2667 671 
Q 2900 934 2900 1459 
L 2900 3500 
L 3475 3500 
L 3475 806 
Q 3475 619 3529 530 
Q 3584 441 3700 441 
Q 3728 441 3778 458 
Q 3828 475 3916 513 
L 3916 50 
Q 3788 -22 3673 -56 
Q 3559 -91 3450 -91 
Q 3234 -91 3106 31 
Q 2978 153 2931 403 
Q 2775 156 2548 32 
Q 2322 -91 2016 -91 
Q 1697 -91 1473 31 
Q 1250 153 1119 397 
L 1119 -1331 
L 544 -1331 
z
" transform="scale(0.015625)"/>
       <path id="DejaVuSans-73" d="M 2834 3397 
L 2834 2853 
Q 2591 2978 2328 3040 
Q 2066 3103 1784 3103 
Q 1356 3103 1142 2972 
Q 928 2841 928 2578 
Q 928 2378 1081 2264 
Q 1234 2150 1697 2047 
L 1894 2003 
Q 2506 1872 2764 1633 
Q 3022 1394 3022 966 
Q 3022 478 2636 193 
Q 2250 -91 1575 -91 
Q 1294 -91 989 -36 
Q 684 19 347 128 
L 347 722 
Q 666 556 975 473 
Q 1284 391 1588 391 
Q 1994 391 2212 530 
Q 2431 669 2431 922 
Q 2431 1156 2273 1281 
Q 2116 1406 1581 1522 
L 1381 1569 
Q 847 1681 609 1914 
Q 372 2147 372 2553 
Q 372 3047 722 3315 
Q 1072 3584 1716 3584 
Q 2034 3584 2315 3537 
Q 2597 3491 2834 3397 
z
" transform="scale(0.015625)"/>
       <path id="DejaVuSans-5d" d="M 1947 4863 
L 1947 -844 
L 622 -844 
L 622 -397 
L 1369 -397 
L 1369 4416 
L 622 4416 
L 622 4863 
L 1947 4863 
z
" transform="scale(0.015625)"/>
      </defs>
      <use xlink:href="#DejaVuSans-74"/>
      <use xlink:href="#DejaVuSans-69" x="39.208984"/>
      <use xlink:href="#DejaVuSans-6d" x="66.992188"/>
      <use xlink:href="#DejaVuSans-65" x="164.404297"/>
      <use xlink:href="#DejaVuSans-20" x="225.927734"/>
      <use xlink:href="#DejaVuSans-5b" x="257.714844"/>
      <use xlink:href="#DejaVuSans-b5" x="296.728516"/>
      <use xlink:href="#DejaVuSans-73" x="360.351562"/>
      <use xlink:href="#DejaVuSans-5d" x="412.451172"/>
     </g>
    </g>
   </g>
   <g id="matplotlib.axis_2">
    <g id="ytick_1">
     <g id="line2d_7">
      <defs>
       <path id="m587cfa608a" d="M 0 0 
L -3.5 0 
" style="stroke: #000000; stroke-width: 0.8"/>
      </defs>
      <g>
       <use xlink:href="#m587cfa608a" x="53.328125" y="245.797127" style="stroke: #000000; stroke-width: 0.8"/>
      </g>
     </g>
     <g id="text_8">
      <!-- 0 -->
      <g transform="translate(39.965625 249.596346) scale(0.1 -0.1)">
       <use xlink:href="#DejaVuSans-30"/>
      </g>
     </g>
    </g>
    <g id="ytick_2">
     <g id="line2d_8">
      <g>
       <use xlink:href="#m587cfa608a" x="53.328125" y="209.670679" style="stroke: #000000; stroke-width: 0.8"/>
      </g>
     </g>
     <g id="text_9">
      <!-- 200 -->
      <g transform="translate(27.240625 213.469898) scale(0.1 -0.1)">
       <use xlink:href="#DejaVuSans-32"/>
       <use xlink:href="#DejaVuSans-30" x="63.623047"/>
       <use xlink:href="#DejaVuSans-30" x="127.246094"/>
      </g>
     </g>
    </g>
    <g id="ytick_3">
     <g id="line2d_9">
      <g>
       <use xlink:href="#m587cfa608a" x="53.328125" y="173.544231" style="stroke: #000000; stroke-width: 0.8"/>
      </g>
     </g>
     <g id="text_10">
      <!-- 400 -->
      <g transform="translate(27.240625 177.343449) scale(0.1 -0.1)">
       <use xlink:href="#DejaVuSans-34"/>
       <use xlink:href="#DejaVuSans-30" x="63.623047"/>
       <use xlink:href="#DejaVuSans-30" x="127.246094"/>
      </g>
     </g>
    </g>
    <g id="ytick_4">
     <g id="line2d_10">
      <g>
       <use xlink:href="#m587cfa608a" x="53.328125" y="137.417782" style="stroke: #000000; stroke-width: 0.8"/>
      </g>
     </g>
     <g id="text_11">
      <!-- 600 -->
      <g transform="translate(27.240625 141.217001) scale(0.1 -0.1)">
       <defs>
        <path id="DejaVuSans-36" d="M 2113 2584 
Q 1688 2584 1439 2293 
Q 1191 2003 1191 1497 
Q 1191 994 1439 701 
Q 1688 409 2113 409 
Q 2538 409 2786 701 
Q 3034 994 3034 1497 
Q 3034 2003 2786 2293 
Q 2538 2584 2113 2584 
z
M 3366 4563 
L 3366 3988 
Q 3128 4100 2886 4159 
Q 2644 4219 2406 4219 
Q 1781 4219 1451 3797 
Q 1122 3375 1075 2522 
Q 1259 2794 1537 2939 
Q 1816 3084 2150 3084 
Q 2853 3084 3261 2657 
Q 3669 2231 3669 1497 
Q 3669 778 3244 343 
Q 2819 -91 2113 -91 
Q 1303 -91 875 529 
Q 447 1150 447 2328 
Q 447 3434 972 4092 
Q 1497 4750 2381 4750 
Q 2619 4750 2861 4703 
Q 3103 4656 3366 4563 
z
" transform="scale(0.015625)"/>
       </defs>
       <use xlink:href="#DejaVuSans-36"/>
       <use xlink:href="#DejaVuSans-30" x="63.623047"/>
       <use xlink:href="#DejaVuSans-30" x="127.246094"/>
      </g>
     </g>
    </g>
    <g id="ytick_5">
     <g id="line2d_11">
      <g>
       <use xlink:href="#m587cfa608a" x="53.328125" y="101.291334" style="stroke: #000000; stroke-width: 0.8"/>
      </g>
     </g>
     <g id="text_12">
      <!-- 800 -->
      <g transform="translate(27.240625 105.090553) scale(0.1 -0.1)">
       <defs>
        <path id="DejaVuSans-38" d="M 2034 2216 
Q 1584 2216 1326 1975 
Q 1069 1734 1069 1313 
Q 1069 891 1326 650 
Q 1584 409 2034 409 
Q 2484 409 2743 651 
Q 3003 894 3003 1313 
Q 3003 1734 2745 1975 
Q 2488 2216 2034 2216 
z
M 1403 2484 
Q 997 2584 770 2862 
Q 544 3141 544 3541 
Q 544 4100 942 4425 
Q 1341 4750 2034 4750 
Q 2731 4750 3128 4425 
Q 3525 4100 3525 3541 
Q 3525 3141 3298 2862 
Q 3072 2584 2669 2484 
Q 3125 2378 3379 2068 
Q 3634 1759 3634 1313 
Q 3634 634 3220 271 
Q 2806 -91 2034 -91 
Q 1263 -91 848 271 
Q 434 634 434 1313 
Q 434 1759 690 2068 
Q 947 2378 1403 2484 
z
M 1172 3481 
Q 1172 3119 1398 2916 
Q 1625 2713 2034 2713 
Q 2441 2713 2670 2916 
Q 2900 3119 2900 3481 
Q 2900 3844 2670 4047 
Q 2441 4250 2034 4250 
Q 1625 4250 1398 4047 
Q 1172 3844 1172 3481 
z
" transform="scale(0.015625)"/>
       </defs>
       <use xlink:href="#DejaVuSans-38"/>
       <use xlink:href="#DejaVuSans-30" x="63.623047"/>
       <use xlink:href="#DejaVuSans-30" x="127.246094"/>
      </g>
     </g>
    </g>
    <g id="ytick_6">
     <g id="line2d_12">
      <g>
       <use xlink:href="#m587cfa608a" x="53.328125" y="65.164886" style="stroke: #000000; stroke-width: 0.8"/>
      </g>
     </g>
     <g id="text_13">
      <!-- 1000 -->
      <g transform="translate(20.878125 68.964105) scale(0.1 -0.1)">
       <use xlink:href="#DejaVuSans-31"/>
       <use xlink:href="#DejaVuSans-30" x="63.623047"/>
       <use xlink:href="#DejaVuSans-30" x="127.246094"/>
       <use xlink:href="#DejaVuSans-30" x="190.869141"/>
      </g>
     </g>
    </g>
    <g id="ytick_7">
     <g id="line2d_13">
      <g>
       <use xlink:href="#m587cfa608a" x="53.328125" y="29.038438" style="stroke: #000000; stroke-width: 0.8"/>
      </g>
     </g>
     <g id="text_14">
      <!-- 1200 -->
      <g transform="translate(20.878125 32.837657) scale(0.1 -0.1)">
       <use xlink:href="#DejaVuSans-31"/>
       <use xlink:href="#DejaVuSans-32" x="63.623047"/>
       <use xlink:href="#DejaVuSans-30" x="127.246094"/>
       <use xlink:href="#DejaVuSans-30" x="190.869141"/>
      </g>
     </g>
    </g>
    <g id="text_15">
     <!-- [counts] -->
     <g transform="translate(14.798438 152.791947) rotate(-90) scale(0.1 -0.1)">
      <defs>
       <path id="DejaVuSans-63" d="M 3122 3366 
L 3122 2828 
Q 2878 2963 2633 3030 
Q 2388 3097 2138 3097 
Q 1578 3097 1268 2742 
Q 959 2388 959 1747 
Q 959 1106 1268 751 
Q 1578 397 2138 397 
Q 2388 397 2633 464 
Q 2878 531 3122 666 
L 3122 134 
Q 2881 22 2623 -34 
Q 2366 -91 2075 -91 
Q 1284 -91 818 406 
Q 353 903 353 1747 
Q 353 2603 823 3093 
Q 1294 3584 2113 3584 
Q 2378 3584 2631 3529 
Q 2884 3475 3122 3366 
z
" transform="scale(0.015625)"/>
       <path id="DejaVuSans-6f" d="M 1959 3097 
Q 1497 3097 1228 2736 
Q 959 2375 959 1747 
Q 959 1119 1226 758 
Q 1494 397 1959 397 
Q 2419 397 2687 759 
Q 2956 1122 2956 1747 
Q 2956 2369 2687 2733 
Q 2419 3097 1959 3097 
z
M 1959 3584 
Q 2709 3584 3137 3096 
Q 3566 2609 3566 1747 
Q 3566 888 3137 398 
Q 2709 -91 1959 -91 
Q 1206 -91 779 398 
Q 353 888 353 1747 
Q 353 2609 779 3096 
Q 1206 3584 1959 3584 
z
" transform="scale(0.015625)"/>
       <path id="DejaVuSans-75" d="M 544 1381 
L 544 3500 
L 1119 3500 
L 1119 1403 
Q 1119 906 1312 657 
Q 1506 409 1894 409 
Q 2359 409 2629 706 
Q 2900 1003 2900 1516 
L 2900 3500 
L 3475 3500 
L 3475 0 
L 2900 0 
L 2900 538 
Q 2691 219 2414 64 
Q 2138 -91 1772 -91 
Q 1169 -91 856 284 
Q 544 659 544 1381 
z
M 1991 3584 
L 1991 3584 
z
" transform="scale(0.015625)"/>
       <path id="DejaVuSans-6e" d="M 3513 2113 
L 3513 0 
L 2938 0 
L 2938 2094 
Q 2938 2591 2744 2837 
Q 2550 3084 2163 3084 
Q 1697 3084 1428 2787 
Q 1159 2491 1159 1978 
L 1159 0 
L 581 0 
L 581 3500 
L 1159 3500 
L 1159 2956 
Q 1366 3272 1645 3428 
Q 1925 3584 2291 3584 
Q 2894 3584 3203 3211 
Q 3513 2838 3513 2113 
z
" transform="scale(0.015625)"/>
      </defs>
      <use xlink:href="#DejaVuSans-5b"/>
      <use xlink:href="#DejaVuSans-63" x="39.013672"/>
      <use xlink:href="#DejaVuSans-6f" x="93.994141"/>
      <use xlink:href="#DejaVuSans-75" x="155.175781"/>
      <use xlink:href="#DejaVuSans-6e" x="218.554688"/>
      <use xlink:href="#DejaVuSans-74" x="281.933594"/>
      <use xlink:href="#DejaVuSans-73" x="321.142578"/>
      <use xlink:href="#DejaVuSans-5d" x="373.242188"/>
     </g>
    </g>
   </g>
   <g id="patch_3">
    <path d="M 53.328125 257.158895 
L 53.328125 7.2 
" style="fill: none; stroke: #000000; stroke-width: 0.8; stroke-linejoin: miter; stroke-linecap: square"/>
   </g>
   <g id="patch_4">
    <path d="M 431.87976 257.158895 
L 431.87976 7.2 
" style="fill: none; stroke: #000000; stroke-width: 0.8; stroke-linejoin: miter; stroke-linecap: square"/>
   </g>
   <g id="patch_5">
    <path d="M 53.328125 257.158895 
L 431.87976 257.158895 
" style="fill: none; stroke: #000000; stroke-width: 0.8; stroke-linejoin: miter; stroke-linecap: square"/>
   </g>
   <g id="patch_6">
    <path d="M 53.328125 7.2 
L 431.87976 7.2 
" style="fill: none; stroke: #000000; stroke-width: 0.8; stroke-linejoin: miter; stroke-linecap: square"/>
   </g>
   <g id="line2d_14">
    <path d="M 70.535017 234.056031 
L 71.682144 234.056031 
L 71.682144 227.011374 
L 72.82927 227.011374 
L 72.82927 220.508613 
L 73.976396 220.508613 
L 73.976396 210.754472 
L 75.123522 210.754472 
L 75.123522 202.264757 
L 76.270648 202.264757 
L 76.270648 190.162397 
L 77.417774 190.162397 
L 77.417774 186.730384 
L 78.564901 186.730384 
L 78.564901 179.505095 
L 79.712027 179.505095 
L 79.712027 169.750954 
L 80.859153 169.750954 
L 80.859153 163.609457 
L 82.006279 163.609457 
L 82.006279 156.203536 
L 83.153405 156.203536 
L 83.153405 145.004337 
L 84.300531 145.004337 
L 84.300531 143.017382 
L 85.447658 143.017382 
L 85.447658 136.514621 
L 86.594784 136.514621 
L 86.594784 123.5091 
L 87.74191 123.5091 
L 87.74191 124.773526 
L 88.889036 124.773526 
L 88.889036 119.173926 
L 90.036162 119.173926 
L 90.036162 114.296856 
L 91.183288 114.296856 
L 91.183288 112.490533 
L 92.330415 112.490533 
L 92.330415 109.239153 
L 93.477541 109.239153 
L 93.477541 103.278289 
L 94.624667 103.278289 
L 94.624667 101.110702 
L 95.771793 101.110702 
L 95.771793 103.820186 
L 96.918919 103.820186 
L 96.918919 90.814664 
L 98.066045 90.814664 
L 98.066045 94.427309 
L 99.213172 94.427309 
L 99.213172 83.770007 
L 100.360298 83.770007 
L 100.360298 83.408742 
L 101.507424 83.408742 
L 101.507424 82.144317 
L 102.65455 82.144317 
L 102.65455 76.364085 
L 103.801676 76.364085 
L 103.801676 81.241156 
L 104.948802 81.241156 
L 104.948802 77.989775 
L 106.095929 77.989775 
L 106.095929 68.958163 
L 107.243055 68.958163 
L 107.243055 82.144317 
L 108.390181 82.144317 
L 108.390181 80.157362 
L 109.537307 80.157362 
L 109.537307 71.12575 
L 110.684433 71.12575 
L 110.684433 71.667647 
L 111.831559 71.667647 
L 111.831559 64.442357 
L 112.978686 64.442357 
L 112.978686 50.17241 
L 114.125812 50.17241 
L 114.125812 60.107183 
L 115.272938 60.107183 
L 115.272938 63.177931 
L 116.420064 63.177931 
L 116.420064 53.965687 
L 117.56719 53.965687 
L 117.56719 50.714307 
L 118.714316 50.714307 
L 118.714316 63.358564 
L 119.861443 63.358564 
L 119.861443 57.036435 
L 121.008569 57.036435 
L 121.008569 47.824191 
L 122.155695 47.824191 
L 122.155695 55.591377 
L 123.302821 55.591377 
L 123.302821 50.894939 
L 124.449947 50.894939 
L 124.449947 55.591377 
L 125.597073 55.591377 
L 125.597073 45.114707 
L 126.7442 45.114707 
L 126.7442 48.54672 
L 127.891326 48.54672 
L 127.891326 54.326952 
L 129.038452 54.326952 
L 129.038452 55.77201 
L 130.185578 55.77201 
L 130.185578 45.29534 
L 131.332704 45.29534 
L 131.332704 42.94712 
L 132.47983 42.94712 
L 132.47983 47.101662 
L 133.626957 47.101662 
L 133.626957 47.282294 
L 134.774083 47.282294 
L 134.774083 45.475972 
L 137.068335 45.475972 
L 137.068335 46.017869 
L 138.215461 46.017869 
L 138.215461 52.159365 
L 139.362587 52.159365 
L 139.362587 34.457405 
L 140.509714 34.457405 
L 140.509714 43.308385 
L 141.65684 43.308385 
L 141.65684 44.753443 
L 142.803966 44.753443 
L 142.803966 40.418269 
L 143.951092 40.418269 
L 143.951092 50.17241 
L 145.098218 50.17241 
L 145.098218 35.902463 
L 146.245344 35.902463 
L 146.245344 40.779534 
L 147.392471 40.779534 
L 147.392471 34.638037 
L 148.539597 34.638037 
L 148.539597 38.431314 
L 149.686723 38.431314 
L 149.686723 39.876372 
L 150.833849 39.876372 
L 150.833849 49.269249 
L 151.980975 49.269249 
L 151.980975 46.017869 
L 153.128101 46.017869 
L 153.128101 30.84476 
L 154.275228 30.84476 
L 154.275228 40.237637 
L 155.422354 40.237637 
L 155.422354 35.179934 
L 156.56948 35.179934 
L 156.56948 36.44436 
L 157.716606 36.44436 
L 157.716606 42.224592 
L 158.863732 42.224592 
L 158.863732 44.030914 
L 160.010858 44.030914 
L 160.010858 26.870851 
L 161.157985 26.870851 
L 161.157985 40.598901 
L 162.305111 40.598901 
L 162.305111 32.651083 
L 163.452237 32.651083 
L 163.452237 42.585856 
L 164.599363 42.585856 
L 164.599363 40.057005 
L 165.746489 40.057005 
L 165.746489 33.012347 
L 166.893615 33.012347 
L 166.893615 42.405224 
L 168.040742 42.405224 
L 168.040742 44.030914 
L 169.187868 44.030914 
L 169.187868 31.747922 
L 170.334994 31.747922 
L 170.334994 33.734876 
L 171.48212 33.734876 
L 171.48212 37.166889 
L 172.629246 37.166889 
L 172.629246 39.515108 
L 173.776372 39.515108 
L 173.776372 40.057005 
L 174.923499 40.057005 
L 174.923499 41.32143 
L 176.070625 41.32143 
L 176.070625 53.243158 
L 177.217751 53.243158 
L 177.217751 28.857806 
L 178.364877 28.857806 
L 178.364877 37.889418 
L 179.512003 37.889418 
L 179.512003 38.250682 
L 180.659129 38.250682 
L 180.659129 34.638037 
L 181.806256 34.638037 
L 181.806256 38.250682 
L 182.953382 38.250682 
L 182.953382 45.837236 
L 184.100508 45.837236 
L 184.100508 23.800103 
L 185.247634 23.800103 
L 185.247634 50.17241 
L 186.39476 50.17241 
L 186.39476 38.973211 
L 187.541886 38.973211 
L 187.541886 40.960166 
L 188.689013 40.960166 
L 188.689013 39.876372 
L 189.836139 39.876372 
L 189.836139 44.572811 
L 190.983265 44.572811 
L 190.983265 28.135277 
L 192.130391 28.135277 
L 192.130391 40.237637 
L 193.277517 40.237637 
L 193.277517 43.127753 
L 194.424643 43.127753 
L 194.424643 20.187458 
L 195.57177 20.187458 
L 195.57177 34.81867 
L 196.718896 34.81867 
L 196.718896 35.360566 
L 197.866022 35.360566 
L 197.866022 32.651083 
L 199.013148 32.651083 
L 199.013148 38.973211 
L 200.160274 38.973211 
L 200.160274 35.179934 
L 201.3074 35.179934 
L 201.3074 36.805624 
L 202.454527 36.805624 
L 202.454527 34.81867 
L 203.601653 34.81867 
L 203.601653 30.664128 
L 204.748779 30.664128 
L 204.748779 38.611947 
L 205.895905 38.611947 
L 205.895905 31.386657 
L 207.043031 31.386657 
L 207.043031 37.708785 
L 208.190157 37.708785 
L 208.190157 30.664128 
L 209.337284 30.664128 
L 209.337284 39.153843 
L 210.48441 39.153843 
L 210.48441 34.457405 
L 211.631536 34.457405 
L 211.631536 43.308385 
L 212.778662 43.308385 
L 212.778662 44.211546 
L 213.925788 44.211546 
L 213.925788 28.496541 
L 215.072914 28.496541 
L 215.072914 40.779534 
L 216.220041 40.779534 
L 216.220041 46.017869 
L 217.367167 46.017869 
L 217.367167 51.075571 
L 218.514293 51.075571 
L 218.514293 32.831715 
L 219.661419 32.831715 
L 219.661419 41.502063 
L 220.808545 41.502063 
L 220.808545 39.334476 
L 221.955671 39.334476 
L 221.955671 43.489017 
L 223.102798 43.489017 
L 223.102798 41.32143 
L 224.249924 41.32143 
L 224.249924 46.379133 
L 225.39705 46.379133 
L 225.39705 37.528153 
L 226.544176 37.528153 
L 226.544176 35.541199 
L 227.691302 35.541199 
L 227.691302 39.334476 
L 228.838428 39.334476 
L 228.838428 45.837236 
L 229.985555 45.837236 
L 229.985555 33.373612 
L 231.132681 33.373612 
L 231.132681 32.289818 
L 232.279807 32.289818 
L 232.279807 24.161367 
L 233.426933 24.161367 
L 233.426933 36.986257 
L 234.574059 36.986257 
L 234.574059 28.677173 
L 235.721185 28.677173 
L 235.721185 44.572811 
L 236.868312 44.572811 
L 236.868312 36.263728 
L 238.015438 36.263728 
L 238.015438 43.850282 
L 239.162564 43.850282 
L 239.162564 41.32143 
L 240.30969 41.32143 
L 240.30969 18.561768 
L 241.456816 18.561768 
L 241.456816 37.166889 
L 242.603942 37.166889 
L 242.603942 33.192979 
L 243.751069 33.192979 
L 243.751069 26.509587 
L 244.898195 26.509587 
L 244.898195 38.250682 
L 246.045321 38.250682 
L 246.045321 36.263728 
L 247.192447 36.263728 
L 247.192447 37.166889 
L 248.339573 37.166889 
L 248.339573 34.276773 
L 249.486699 34.276773 
L 249.486699 40.598901 
L 250.633826 40.598901 
L 250.633826 37.528153 
L 251.780952 37.528153 
L 251.780952 43.669649 
L 252.928078 43.669649 
L 252.928078 46.740398 
L 254.075204 46.740398 
L 254.075204 37.528153 
L 255.22233 37.528153 
L 255.22233 37.889418 
L 256.369456 37.889418 
L 256.369456 32.831715 
L 257.516583 32.831715 
L 257.516583 38.431314 
L 258.663709 38.431314 
L 258.663709 27.774012 
L 259.810835 27.774012 
L 259.810835 40.057005 
L 260.957961 40.057005 
L 260.957961 27.59338 
L 262.105087 27.59338 
L 262.105087 24.342 
L 263.252213 24.342 
L 263.252213 41.682695 
L 264.39934 41.682695 
L 264.39934 33.373612 
L 265.546466 33.373612 
L 265.546466 44.030914 
L 266.693592 44.030914 
L 266.693592 38.611947 
L 267.840718 38.611947 
L 267.840718 33.373612 
L 268.987844 33.373612 
L 268.987844 57.578332 
L 270.13497 57.578332 
L 270.13497 54.688216 
L 271.282097 54.688216 
L 271.282097 62.816667 
L 272.429223 62.816667 
L 272.429223 84.8538 
L 273.576349 84.8538 
L 273.576349 83.589375 
L 274.723475 83.589375 
L 274.723475 89.008342 
L 275.870601 89.008342 
L 275.870601 94.788574 
L 277.017727 94.788574 
L 277.017727 105.445876 
L 278.164854 105.445876 
L 278.164854 121.341513 
L 279.31198 121.341513 
L 279.31198 119.896455 
L 280.459106 119.896455 
L 280.459106 133.624505 
L 281.606232 133.624505 
L 281.606232 136.695254 
L 282.753358 136.695254 
L 282.753358 139.766002 
L 283.900484 139.766002 
L 283.900484 142.83675 
L 285.047611 142.83675 
L 285.047611 157.106697 
L 286.194737 157.106697 
L 286.194737 163.428825 
L 287.341863 163.428825 
L 287.341863 155.661639 
L 288.488989 155.661639 
L 288.488989 169.931586 
L 289.636115 169.931586 
L 289.636115 174.26676 
L 290.783241 174.26676 
L 290.783241 180.227624 
L 291.930368 180.227624 
L 291.930368 177.879404 
L 293.077494 177.879404 
L 293.077494 186.007855 
L 294.22462 186.007855 
L 294.22462 187.452913 
L 295.371746 187.452913 
L 295.371746 189.078603 
L 296.518872 189.078603 
L 296.518872 191.065558 
L 297.665998 191.065558 
L 297.665998 202.987286 
L 298.813125 202.987286 
L 298.813125 205.516137 
L 299.960251 205.516137 
L 299.960251 201.000331 
L 301.107377 201.000331 
L 301.107377 201.72286 
L 302.254503 201.72286 
L 302.254503 207.683724 
L 303.401629 207.683724 
L 303.401629 212.560795 
L 304.548755 212.560795 
L 304.548755 205.877402 
L 305.695882 205.877402 
L 305.695882 211.477001 
L 306.843008 211.477001 
L 306.843008 213.283324 
L 307.990134 213.283324 
L 307.990134 214.728382 
L 309.13726 214.728382 
L 309.13726 217.257233 
L 310.284386 217.257233 
L 310.284386 216.715336 
L 311.431512 216.715336 
L 311.431512 219.244188 
L 312.578639 219.244188 
L 312.578639 221.231142 
L 313.725765 221.231142 
L 313.725765 223.398729 
L 314.872891 223.398729 
L 314.872891 222.6762 
L 316.020017 222.6762 
L 316.020017 223.398729 
L 317.167143 223.398729 
L 317.167143 227.733903 
L 318.314269 227.733903 
L 318.314269 227.011374 
L 319.461396 227.011374 
L 319.461396 226.288845 
L 320.608522 226.288845 
L 320.608522 227.372638 
L 321.755648 227.372638 
L 321.755648 232.069077 
L 322.902774 232.069077 
L 322.902774 230.624019 
L 324.0499 230.624019 
L 324.0499 231.707812 
L 325.197026 231.707812 
L 325.197026 230.082122 
L 326.344153 230.082122 
L 326.344153 233.333502 
L 327.491279 233.333502 
L 327.491279 233.694767 
L 328.638405 233.694767 
L 328.638405 236.584883 
L 329.785531 236.584883 
L 329.785531 231.165916 
L 330.932657 231.165916 
L 330.932657 238.029941 
L 332.079783 238.029941 
L 332.079783 235.139825 
L 333.22691 235.139825 
L 333.22691 236.404251 
L 334.374036 236.404251 
L 334.374036 235.862354 
L 335.521162 235.862354 
L 335.521162 237.126779 
L 336.668288 237.126779 
L 336.668288 236.584883 
L 337.815414 236.584883 
L 337.815414 238.029941 
L 338.96254 238.029941 
L 338.96254 239.655631 
L 340.109667 239.655631 
L 340.109667 234.959193 
L 341.256793 234.959193 
L 341.256793 238.391205 
L 342.403919 238.391205 
L 342.403919 239.836263 
L 343.551045 239.836263 
L 343.551045 240.197528 
L 344.698171 240.197528 
L 344.698171 241.642586 
L 345.845297 241.642586 
L 345.845297 240.37816 
L 346.992424 240.37816 
L 346.992424 240.016895 
L 348.13955 240.016895 
L 348.13955 241.281321 
L 349.286676 241.281321 
L 349.286676 240.739424 
L 350.433802 240.739424 
L 350.433802 241.823218 
L 352.728054 241.823218 
L 352.728054 241.461953 
L 353.875181 241.461953 
L 353.875181 241.100689 
L 355.022307 241.100689 
L 355.022307 242.726379 
L 357.316559 242.726379 
L 357.316559 241.642586 
L 358.463685 241.642586 
L 358.463685 242.907011 
L 359.610811 242.907011 
L 359.610811 242.365114 
L 361.905064 242.365114 
L 361.905064 243.990805 
L 363.05219 243.990805 
L 363.05219 242.545747 
L 364.199316 242.545747 
L 364.199316 244.171437 
L 365.346442 244.171437 
L 365.346442 244.532701 
L 366.493568 244.532701 
L 366.493568 244.713334 
L 367.640695 244.713334 
L 367.640695 243.990805 
L 369.934947 243.990805 
L 369.934947 244.532701 
L 371.082073 244.532701 
L 371.082073 243.990805 
L 373.376325 243.990805 
L 373.376325 244.532701 
L 374.523452 244.532701 
L 374.523452 243.990805 
L 375.670578 243.990805 
L 375.670578 245.074598 
L 376.817704 245.074598 
L 376.817704 245.25523 
L 377.96483 245.25523 
L 377.96483 244.532701 
L 379.111956 244.532701 
L 379.111956 244.352069 
L 381.406209 244.352069 
L 381.406209 244.893966 
L 382.553335 244.893966 
L 382.553335 245.074598 
L 383.700461 245.074598 
L 383.700461 244.352069 
L 384.847587 244.352069 
L 384.847587 245.074598 
L 388.288966 245.074598 
L 388.288966 245.25523 
L 389.436092 245.25523 
L 389.436092 245.435863 
L 390.583218 245.435863 
L 390.583218 245.616495 
L 391.730344 245.616495 
L 391.730344 245.25523 
L 392.87747 245.25523 
L 392.87747 244.713334 
L 394.024596 244.713334 
L 394.024596 244.532701 
L 395.171723 244.532701 
L 395.171723 244.352069 
L 396.318849 244.352069 
L 396.318849 245.074598 
L 397.465975 245.074598 
L 397.465975 245.797127 
L 398.613101 245.797127 
L 398.613101 245.25523 
L 399.760227 245.25523 
L 399.760227 245.074598 
L 400.907353 245.074598 
L 400.907353 245.25523 
L 402.05448 245.25523 
L 402.05448 245.074598 
L 403.201606 245.074598 
L 403.201606 245.435863 
L 405.495858 245.435863 
L 405.495858 245.616495 
L 406.642984 245.616495 
L 406.642984 245.435863 
L 407.79011 245.435863 
L 407.79011 245.616495 
L 408.937237 245.616495 
L 408.937237 245.797127 
L 410.084363 245.797127 
L 410.084363 245.616495 
L 411.231489 245.616495 
L 411.231489 245.074598 
L 412.378615 245.074598 
L 412.378615 245.616495 
L 413.525741 245.616495 
L 413.525741 245.25523 
L 414.672867 245.25523 
L 414.672867 245.25523 
" clip-path="url(#pf98ae80c89)" style="fill: none; stroke: #1f77b4; stroke-width: 1.5; stroke-linecap: square"/>
   </g>
  </g>
  <g id="axes_2">
   <g id="patch_7">
    <path d="M 486.647885 257.158895 
L 865.19952 257.158895 
L 865.19952 7.2 
L 486.647885 7.2 
z
" style="fill: #ffffff"/>
   </g>
   <g id="matplotlib.axis_3">
    <g id="xtick_7">
     <g id="line2d_15">
      <g>
       <use xlink:href="#m1342fc501c" x="500.384515" y="257.158895" style="stroke: #000000; stroke-width: 0.8"/>
      </g>
     </g>
     <g id="text_16">
      <!-- 0.0 -->
      <g transform="translate(492.432952 271.757332) scale(0.1 -0.1)">
       <defs>
        <path id="DejaVuSans-2e" d="M 684 794 
L 1344 794 
L 1344 0 
L 684 0 
L 684 794 
z
" transform="scale(0.015625)"/>
       </defs>
       <use xlink:href="#DejaVuSans-30"/>
       <use xlink:href="#DejaVuSans-2e" x="63.623047"/>
       <use xlink:href="#DejaVuSans-30" x="95.410156"/>
      </g>
     </g>
    </g>
    <g id="xtick_8">
     <g id="line2d_16">
      <g>
       <use xlink:href="#m1342fc501c" x="544.083136" y="257.158895" style="stroke: #000000; stroke-width: 0.8"/>
      </g>
     </g>
     <g id="text_17">
      <!-- 2.5 -->
      <g transform="translate(536.131574 271.757332) scale(0.1 -0.1)">
       <use xlink:href="#DejaVuSans-32"/>
       <use xlink:href="#DejaVuSans-2e" x="63.623047"/>
       <use xlink:href="#DejaVuSans-35" x="95.410156"/>
      </g>
     </g>
    </g>
    <g id="xtick_9">
     <g id="line2d_17">
      <g>
       <use xlink:href="#m1342fc501c" x="587.781758" y="257.158895" style="stroke: #000000; stroke-width: 0.8"/>
      </g>
     </g>
     <g id="text_18">
      <!-- 5.0 -->
      <g transform="translate(579.830195 271.757332) scale(0.1 -0.1)">
       <use xlink:href="#DejaVuSans-35"/>
       <use xlink:href="#DejaVuSans-2e" x="63.623047"/>
       <use xlink:href="#DejaVuSans-30" x="95.410156"/>
      </g>
     </g>
    </g>
    <g id="xtick_10">
     <g id="line2d_18">
      <g>
       <use xlink:href="#m1342fc501c" x="631.480379" y="257.158895" style="stroke: #000000; stroke-width: 0.8"/>
      </g>
     </g>
     <g id="text_19">
      <!-- 7.5 -->
      <g transform="translate(623.528816 271.757332) scale(0.1 -0.1)">
       <defs>
        <path id="DejaVuSans-37" d="M 525 4666 
L 3525 4666 
L 3525 4397 
L 1831 0 
L 1172 0 
L 2766 4134 
L 525 4134 
L 525 4666 
z
" transform="scale(0.015625)"/>
       </defs>
       <use xlink:href="#DejaVuSans-37"/>
       <use xlink:href="#DejaVuSans-2e" x="63.623047"/>
       <use xlink:href="#DejaVuSans-35" x="95.410156"/>
      </g>
     </g>
    </g>
    <g id="xtick_11">
     <g id="line2d_19">
      <g>
       <use xlink:href="#m1342fc501c" x="675.179" y="257.158895" style="stroke: #000000; stroke-width: 0.8"/>
      </g>
     </g>
     <g id="text_20">
      <!-- 10.0 -->
      <g transform="translate(664.046188 271.757332) scale(0.1 -0.1)">
       <use xlink:href="#DejaVuSans-31"/>
       <use xlink:href="#DejaVuSans-30" x="63.623047"/>
       <use xlink:href="#DejaVuSans-2e" x="127.246094"/>
       <use xlink:href="#DejaVuSans-30" x="159.033203"/>
      </g>
     </g>
    </g>
    <g id="xtick_12">
     <g id="line2d_20">
      <g>
       <use xlink:href="#m1342fc501c" x="718.877622" y="257.158895" style="stroke: #000000; stroke-width: 0.8"/>
      </g>
     </g>
     <g id="text_21">
      <!-- 12.5 -->
      <g transform="translate(707.744809 271.757332) scale(0.1 -0.1)">
       <use xlink:href="#DejaVuSans-31"/>
       <use xlink:href="#DejaVuSans-32" x="63.623047"/>
       <use xlink:href="#DejaVuSans-2e" x="127.246094"/>
       <use xlink:href="#DejaVuSans-35" x="159.033203"/>
      </g>
     </g>
    </g>
    <g id="xtick_13">
     <g id="line2d_21">
      <g>
       <use xlink:href="#m1342fc501c" x="762.576243" y="257.158895" style="stroke: #000000; stroke-width: 0.8"/>
      </g>
     </g>
     <g id="text_22">
      <!-- 15.0 -->
      <g transform="translate(751.443431 271.757332) scale(0.1 -0.1)">
       <use xlink:href="#DejaVuSans-31"/>
       <use xlink:href="#DejaVuSans-35" x="63.623047"/>
       <use xlink:href="#DejaVuSans-2e" x="127.246094"/>
       <use xlink:href="#DejaVuSans-30" x="159.033203"/>
      </g>
     </g>
    </g>
    <g id="xtick_14">
     <g id="line2d_22">
      <g>
       <use xlink:href="#m1342fc501c" x="806.274865" y="257.158895" style="stroke: #000000; stroke-width: 0.8"/>
      </g>
     </g>
     <g id="text_23">
      <!-- 17.5 -->
      <g transform="translate(795.142052 271.757332) scale(0.1 -0.1)">
       <use xlink:href="#DejaVuSans-31"/>
       <use xlink:href="#DejaVuSans-37" x="63.623047"/>
       <use xlink:href="#DejaVuSans-2e" x="127.246094"/>
       <use xlink:href="#DejaVuSans-35" x="159.033203"/>
      </g>
     </g>
    </g>
    <g id="xtick_15">
     <g id="line2d_23">
      <g>
       <use xlink:href="#m1342fc501c" x="849.973486" y="257.158895" style="stroke: #000000; stroke-width: 0.8"/>
      </g>
     </g>
     <g id="text_24">
      <!-- 20.0 -->
      <g transform="translate(838.840673 271.757332) scale(0.1 -0.1)">
       <use xlink:href="#DejaVuSans-32"/>
       <use xlink:href="#DejaVuSans-30" x="63.623047"/>
       <use xlink:href="#DejaVuSans-2e" x="127.246094"/>
       <use xlink:href="#DejaVuSans-30" x="159.033203"/>
      </g>
     </g>
    </g>
    <g id="text_25">
     <!-- wavelength [Å] -->
     <g transform="translate(637.886202 287.119832) scale(0.1 -0.1)">
      <defs>
       <path id="DejaVuSans-77" d="M 269 3500 
L 844 3500 
L 1563 769 
L 2278 3500 
L 2956 3500 
L 3675 769 
L 4391 3500 
L 4966 3500 
L 4050 0 
L 3372 0 
L 2619 2869 
L 1863 0 
L 1184 0 
L 269 3500 
z
" transform="scale(0.015625)"/>
       <path id="DejaVuSans-61" d="M 2194 1759 
Q 1497 1759 1228 1600 
Q 959 1441 959 1056 
Q 959 750 1161 570 
Q 1363 391 1709 391 
Q 2188 391 2477 730 
Q 2766 1069 2766 1631 
L 2766 1759 
L 2194 1759 
z
M 3341 1997 
L 3341 0 
L 2766 0 
L 2766 531 
Q 2569 213 2275 61 
Q 1981 -91 1556 -91 
Q 1019 -91 701 211 
Q 384 513 384 1019 
Q 384 1609 779 1909 
Q 1175 2209 1959 2209 
L 2766 2209 
L 2766 2266 
Q 2766 2663 2505 2880 
Q 2244 3097 1772 3097 
Q 1472 3097 1187 3025 
Q 903 2953 641 2809 
L 641 3341 
Q 956 3463 1253 3523 
Q 1550 3584 1831 3584 
Q 2591 3584 2966 3190 
Q 3341 2797 3341 1997 
z
" transform="scale(0.015625)"/>
       <path id="DejaVuSans-76" d="M 191 3500 
L 800 3500 
L 1894 563 
L 2988 3500 
L 3597 3500 
L 2284 0 
L 1503 0 
L 191 3500 
z
" transform="scale(0.015625)"/>
       <path id="DejaVuSans-6c" d="M 603 4863 
L 1178 4863 
L 1178 0 
L 603 0 
L 603 4863 
z
" transform="scale(0.015625)"/>
       <path id="DejaVuSans-67" d="M 2906 1791 
Q 2906 2416 2648 2759 
Q 2391 3103 1925 3103 
Q 1463 3103 1205 2759 
Q 947 2416 947 1791 
Q 947 1169 1205 825 
Q 1463 481 1925 481 
Q 2391 481 2648 825 
Q 2906 1169 2906 1791 
z
M 3481 434 
Q 3481 -459 3084 -895 
Q 2688 -1331 1869 -1331 
Q 1566 -1331 1297 -1286 
Q 1028 -1241 775 -1147 
L 775 -588 
Q 1028 -725 1275 -790 
Q 1522 -856 1778 -856 
Q 2344 -856 2625 -561 
Q 2906 -266 2906 331 
L 2906 616 
Q 2728 306 2450 153 
Q 2172 0 1784 0 
Q 1141 0 747 490 
Q 353 981 353 1791 
Q 353 2603 747 3093 
Q 1141 3584 1784 3584 
Q 2172 3584 2450 3431 
Q 2728 3278 2906 2969 
L 2906 3500 
L 3481 3500 
L 3481 434 
z
" transform="scale(0.015625)"/>
       <path id="DejaVuSans-68" d="M 3513 2113 
L 3513 0 
L 2938 0 
L 2938 2094 
Q 2938 2591 2744 2837 
Q 2550 3084 2163 3084 
Q 1697 3084 1428 2787 
Q 1159 2491 1159 1978 
L 1159 0 
L 581 0 
L 581 4863 
L 1159 4863 
L 1159 2956 
Q 1366 3272 1645 3428 
Q 1925 3584 2291 3584 
Q 2894 3584 3203 3211 
Q 3513 2838 3513 2113 
z
" transform="scale(0.015625)"/>
       <path id="DejaVuSans-c5" d="M 2663 5081 
Q 2663 5278 2523 5417 
Q 2384 5556 2188 5556 
Q 1988 5556 1852 5420 
Q 1716 5284 1716 5081 
Q 1716 4884 1853 4746 
Q 1991 4609 2188 4609 
Q 2384 4609 2523 4746 
Q 2663 4884 2663 5081 
z
M 2188 4044 
L 1338 1722 
L 3041 1722 
L 2188 4044 
z
M 1716 4366 
Q 1525 4494 1428 4673 
Q 1331 4853 1331 5081 
Q 1331 5441 1579 5691 
Q 1828 5941 2188 5941 
Q 2544 5941 2795 5689 
Q 3047 5438 3047 5081 
Q 3047 4863 2948 4678 
Q 2850 4494 2663 4366 
L 4325 0 
L 3669 0 
L 3244 1197 
L 1141 1197 
L 716 0 
L 50 0 
L 1716 4366 
z
" transform="scale(0.015625)"/>
      </defs>
      <use xlink:href="#DejaVuSans-77"/>
      <use xlink:href="#DejaVuSans-61" x="81.787109"/>
      <use xlink:href="#DejaVuSans-76" x="143.066406"/>
      <use xlink:href="#DejaVuSans-65" x="202.246094"/>
      <use xlink:href="#DejaVuSans-6c" x="263.769531"/>
      <use xlink:href="#DejaVuSans-65" x="291.552734"/>
      <use xlink:href="#DejaVuSans-6e" x="353.076172"/>
      <use xlink:href="#DejaVuSans-67" x="416.455078"/>
      <use xlink:href="#DejaVuSans-74" x="479.931641"/>
      <use xlink:href="#DejaVuSans-68" x="519.140625"/>
      <use xlink:href="#DejaVuSans-20" x="582.519531"/>
      <use xlink:href="#DejaVuSans-5b" x="614.306641"/>
      <use xlink:href="#DejaVuSans-c5" x="653.320312"/>
      <use xlink:href="#DejaVuSans-5d" x="721.728516"/>
     </g>
    </g>
   </g>
   <g id="matplotlib.axis_4">
    <g id="ytick_8">
     <g id="line2d_24">
      <g>
       <use xlink:href="#m587cfa608a" x="486.647885" y="245.797127" style="stroke: #000000; stroke-width: 0.8"/>
      </g>
     </g>
     <g id="text_26">
      <!-- 0 -->
      <g transform="translate(473.285385 249.596346) scale(0.1 -0.1)">
       <use xlink:href="#DejaVuSans-30"/>
      </g>
     </g>
    </g>
    <g id="ytick_9">
     <g id="line2d_25">
      <g>
       <use xlink:href="#m587cfa608a" x="486.647885" y="192.9148" style="stroke: #000000; stroke-width: 0.8"/>
      </g>
     </g>
     <g id="text_27">
      <!-- 1000 -->
      <g transform="translate(454.197885 196.714019) scale(0.1 -0.1)">
       <use xlink:href="#DejaVuSans-31"/>
       <use xlink:href="#DejaVuSans-30" x="63.623047"/>
       <use xlink:href="#DejaVuSans-30" x="127.246094"/>
       <use xlink:href="#DejaVuSans-30" x="190.869141"/>
      </g>
     </g>
    </g>
    <g id="ytick_10">
     <g id="line2d_26">
      <g>
       <use xlink:href="#m587cfa608a" x="486.647885" y="140.032473" style="stroke: #000000; stroke-width: 0.8"/>
      </g>
     </g>
     <g id="text_28">
      <!-- 2000 -->
      <g transform="translate(454.197885 143.831692) scale(0.1 -0.1)">
       <use xlink:href="#DejaVuSans-32"/>
       <use xlink:href="#DejaVuSans-30" x="63.623047"/>
       <use xlink:href="#DejaVuSans-30" x="127.246094"/>
       <use xlink:href="#DejaVuSans-30" x="190.869141"/>
      </g>
     </g>
    </g>
    <g id="ytick_11">
     <g id="line2d_27">
      <g>
       <use xlink:href="#m587cfa608a" x="486.647885" y="87.150146" style="stroke: #000000; stroke-width: 0.8"/>
      </g>
     </g>
     <g id="text_29">
      <!-- 3000 -->
      <g transform="translate(454.197885 90.949365) scale(0.1 -0.1)">
       <use xlink:href="#DejaVuSans-33"/>
       <use xlink:href="#DejaVuSans-30" x="63.623047"/>
       <use xlink:href="#DejaVuSans-30" x="127.246094"/>
       <use xlink:href="#DejaVuSans-30" x="190.869141"/>
      </g>
     </g>
    </g>
    <g id="ytick_12">
     <g id="line2d_28">
      <g>
       <use xlink:href="#m587cfa608a" x="486.647885" y="34.267819" style="stroke: #000000; stroke-width: 0.8"/>
      </g>
     </g>
     <g id="text_30">
      <!-- 4000 -->
      <g transform="translate(454.197885 38.067038) scale(0.1 -0.1)">
       <use xlink:href="#DejaVuSans-34"/>
       <use xlink:href="#DejaVuSans-30" x="63.623047"/>
       <use xlink:href="#DejaVuSans-30" x="127.246094"/>
       <use xlink:href="#DejaVuSans-30" x="190.869141"/>
      </g>
     </g>
    </g>
    <g id="text_31">
     <!-- [counts] -->
     <g transform="translate(448.118197 152.791947) rotate(-90) scale(0.1 -0.1)">
      <use xlink:href="#DejaVuSans-5b"/>
      <use xlink:href="#DejaVuSans-63" x="39.013672"/>
      <use xlink:href="#DejaVuSans-6f" x="93.994141"/>
      <use xlink:href="#DejaVuSans-75" x="155.175781"/>
      <use xlink:href="#DejaVuSans-6e" x="218.554688"/>
      <use xlink:href="#DejaVuSans-74" x="281.933594"/>
      <use xlink:href="#DejaVuSans-73" x="321.142578"/>
      <use xlink:href="#DejaVuSans-5d" x="373.242188"/>
     </g>
    </g>
   </g>
   <g id="patch_8">
    <path d="M 486.647885 257.158895 
L 486.647885 7.2 
" style="fill: none; stroke: #000000; stroke-width: 0.8; stroke-linejoin: miter; stroke-linecap: square"/>
   </g>
   <g id="patch_9">
    <path d="M 865.19952 257.158895 
L 865.19952 7.2 
" style="fill: none; stroke: #000000; stroke-width: 0.8; stroke-linejoin: miter; stroke-linecap: square"/>
   </g>
   <g id="patch_10">
    <path d="M 486.647885 257.158895 
L 865.19952 257.158895 
" style="fill: none; stroke: #000000; stroke-width: 0.8; stroke-linejoin: miter; stroke-linecap: square"/>
   </g>
   <g id="patch_11">
    <path d="M 486.647885 7.2 
L 865.19952 7.2 
" style="fill: none; stroke: #000000; stroke-width: 0.8; stroke-linejoin: miter; stroke-linecap: square"/>
   </g>
   <g id="line2d_29">
    <path d="M 503.854777 158.065347 
L 505.001904 158.065347 
L 505.001904 141.037237 
L 506.14903 141.037237 
L 506.14903 137.441239 
L 507.296156 137.441239 
L 507.296156 139.133473 
L 508.443282 139.133473 
L 508.443282 141.724708 
L 509.590408 141.724708 
L 509.590408 149.709939 
L 510.737534 149.709939 
L 510.737534 143.416942 
L 511.884661 143.416942 
L 511.884661 129.561772 
L 513.031787 129.561772 
L 513.031787 108.937665 
L 514.178913 108.937665 
L 514.178913 81.33309 
L 515.326039 81.33309 
L 515.326039 59.598454 
L 516.473165 59.598454 
L 516.473165 31.200644 
L 517.620291 31.200644 
L 517.620291 19.460768 
L 518.767418 19.460768 
L 518.767418 19.989591 
L 519.914544 19.989591 
L 519.914544 18.561768 
L 521.06167 18.561768 
L 521.06167 20.20112 
L 522.208796 20.20112 
L 522.208796 25.859529 
L 523.355922 25.859529 
L 523.355922 39.873346 
L 524.503048 39.873346 
L 524.503048 52.406457 
L 525.650175 52.406457 
L 525.650175 62.877158 
L 526.797301 62.877158 
L 526.797301 63.405981 
L 527.944427 63.405981 
L 527.944427 69.328802 
L 529.091553 69.328802 
L 529.091553 83.924324 
L 530.238679 83.924324 
L 530.238679 90.005792 
L 531.385805 90.005792 
L 531.385805 95.664201 
L 532.532932 95.664201 
L 532.532932 97.144906 
L 533.680058 97.144906 
L 533.680058 97.991023 
L 534.827184 97.991023 
L 534.827184 90.481733 
L 535.97431 90.481733 
L 535.97431 91.32785 
L 537.121436 91.32785 
L 537.121436 83.977206 
L 538.268562 83.977206 
L 538.268562 85.669441 
L 539.415689 85.669441 
L 539.415689 71.920036 
L 540.562815 71.920036 
L 540.562815 61.237806 
L 541.709941 61.237806 
L 541.709941 49.445047 
L 542.857067 49.445047 
L 542.857067 43.575109 
L 544.004193 43.575109 
L 544.004193 38.022464 
L 545.151319 38.022464 
L 545.151319 38.498405 
L 546.298446 38.498405 
L 546.298446 39.926228 
L 547.445572 39.926228 
L 547.445572 56.848573 
L 549.739824 56.954337 
L 549.739824 70.703742 
L 550.88695 70.703742 
L 550.88695 78.953385 
L 552.034076 78.953385 
L 552.034076 87.573205 
L 553.181203 87.573205 
L 553.181203 101.851433 
L 554.328329 101.851433 
L 554.328329 100.899551 
L 555.475455 100.899551 
L 555.475455 109.413606 
L 556.622581 109.413606 
L 556.622581 120.783306 
L 557.769707 120.783306 
L 557.769707 124.696598 
L 558.916833 124.696598 
L 558.916833 130.725184 
L 560.06396 130.725184 
L 560.06396 138.710415 
L 561.211086 138.710415 
L 561.211086 142.147766 
L 562.358212 142.147766 
L 562.358212 147.859057 
L 563.505338 147.859057 
L 563.505338 150.132998 
L 564.652464 150.132998 
L 564.652464 157.060582 
L 565.79959 157.060582 
L 565.79959 160.603698 
L 566.946717 160.603698 
L 566.946717 165.310225 
L 568.093843 165.310225 
L 568.093843 168.747577 
L 569.240969 168.747577 
L 569.240969 174.51175 
L 570.388095 174.51175 
L 570.388095 174.670397 
L 571.535221 174.670397 
L 571.535221 178.319278 
L 572.682347 178.319278 
L 572.682347 181.915276 
L 573.829474 181.915276 
L 573.829474 184.665157 
L 574.9766 184.665157 
L 574.9766 189.583213 
L 576.123726 189.583213 
L 576.123726 192.597506 
L 577.270852 192.597506 
L 577.270852 196.616563 
L 578.417978 196.616563 
L 578.417978 196.193504 
L 579.565104 196.193504 
L 579.565104 196.510798 
L 580.712231 196.510798 
L 580.712231 201.428855 
L 581.859357 201.428855 
L 581.859357 205.342147 
L 583.006483 205.342147 
L 583.006483 206.241146 
L 584.153609 206.241146 
L 584.153609 206.875734 
L 585.300735 206.875734 
L 585.300735 204.337383 
L 586.447861 204.337383 
L 586.447861 210.683262 
L 587.594988 210.683262 
L 587.594988 210.471733 
L 589.88924 210.41885 
L 589.88924 215.654201 
L 591.036366 215.654201 
L 591.036366 215.125377 
L 592.183492 215.125377 
L 592.183492 217.029141 
L 593.330618 217.029141 
L 593.330618 219.197317 
L 594.477745 219.197317 
L 594.477745 219.620375 
L 595.624871 219.620375 
L 595.624871 217.928141 
L 596.771997 217.928141 
L 596.771997 220.625139 
L 597.919123 220.625139 
L 597.919123 219.884787 
L 599.066249 219.884787 
L 599.066249 222.581785 
L 600.213375 222.581785 
L 600.213375 225.596078 
L 601.360502 225.596078 
L 601.360502 224.644196 
L 602.507628 224.644196 
L 602.507628 225.225902 
L 603.654754 225.225902 
L 603.654754 226.124901 
L 604.80188 226.124901 
L 604.80188 226.918136 
L 605.949006 226.918136 
L 605.949006 229.192076 
L 608.243259 229.297841 
L 608.243259 230.038194 
L 610.537511 230.091076 
L 610.537511 229.668017 
L 611.684637 229.668017 
L 611.684637 233.475545 
L 612.831763 233.475545 
L 612.831763 231.889075 
L 613.978889 231.889075 
L 613.978889 232.893839 
L 615.126016 232.893839 
L 615.126016 234.374544 
L 616.273142 234.374544 
L 616.273142 232.153487 
L 617.420268 232.153487 
L 617.420268 233.422663 
L 618.567394 233.422663 
L 618.567394 234.004368 
L 619.71452 234.004368 
L 619.71452 234.533191 
L 620.861646 234.533191 
L 620.861646 234.215897 
L 622.008773 234.215897 
L 622.008773 235.273544 
L 623.155899 235.273544 
L 623.155899 235.432191 
L 624.303025 235.432191 
L 624.303025 236.066779 
L 625.450151 236.066779 
L 625.450151 235.696603 
L 627.744403 235.590838 
L 627.744403 237.283072 
L 628.89153 237.283072 
L 628.89153 236.066779 
L 630.038656 236.066779 
L 630.038656 236.278308 
L 631.185782 236.278308 
L 631.185782 237.071543 
L 632.332908 237.071543 
L 632.332908 237.547484 
L 633.480034 237.547484 
L 633.480034 238.446484 
L 634.62716 238.446484 
L 634.62716 237.864778 
L 635.774287 237.864778 
L 635.774287 239.133954 
L 640.362791 239.186836 
L 640.362791 240.40313 
L 641.509917 240.40313 
L 641.509917 240.138718 
L 642.657044 240.138718 
L 642.657044 240.720424 
L 643.80417 240.720424 
L 643.80417 241.143482 
L 644.951296 241.143482 
L 644.951296 240.879071 
L 646.098422 240.879071 
L 646.098422 240.297365 
L 647.245548 240.297365 
L 647.245548 241.619423 
L 648.392674 241.619423 
L 648.392674 241.830953 
L 649.539801 241.830953 
L 649.539801 240.984835 
L 650.686927 240.984835 
L 650.686927 240.1916 
L 651.834053 240.1916 
L 651.834053 241.196365 
L 652.981179 241.196365 
L 652.981179 240.879071 
L 654.128305 240.879071 
L 654.128305 241.77807 
L 655.275431 241.77807 
L 655.275431 240.667541 
L 656.422558 240.667541 
L 656.422558 242.46554 
L 657.569684 242.46554 
L 657.569684 240.984835 
L 658.71681 240.984835 
L 658.71681 241.77807 
L 659.863936 241.77807 
L 659.863936 242.412658 
L 661.011062 242.412658 
L 661.011062 242.729952 
L 662.158188 242.729952 
L 662.158188 242.412658 
L 663.305315 242.412658 
L 663.305315 242.782834 
L 665.599567 242.888599 
L 665.599567 242.624187 
L 666.746693 242.624187 
L 666.746693 242.306893 
L 667.893819 242.306893 
L 667.893819 243.258775 
L 669.040945 243.258775 
L 669.040945 242.518423 
L 671.335198 242.46554 
L 671.335198 243.734716 
L 672.482324 243.734716 
L 672.482324 242.624187 
L 674.776576 242.518423 
L 674.776576 243.36454 
L 675.923702 243.36454 
L 675.923702 243.205893 
L 677.070829 243.205893 
L 677.070829 243.576069 
L 678.217955 243.576069 
L 678.217955 243.047246 
L 679.365081 243.047246 
L 679.365081 243.576069 
L 681.659333 243.576069 
L 681.659333 242.888599 
L 682.806459 242.888599 
L 682.806459 242.359776 
L 683.953586 242.359776 
L 683.953586 244.26354 
L 685.100712 244.26354 
L 685.100712 243.893363 
L 686.247838 243.893363 
L 686.247838 243.681834 
L 687.394964 243.681834 
L 687.394964 244.157775 
L 688.54209 244.157775 
L 688.54209 243.893363 
L 689.689216 243.893363 
L 689.689216 244.05201 
L 690.836343 244.05201 
L 690.836343 243.523187 
L 691.983469 243.523187 
L 691.983469 243.999128 
L 694.277721 244.05201 
L 694.277721 244.369304 
L 695.424847 244.369304 
L 695.424847 243.999128 
L 697.7191 244.104893 
L 697.7191 244.316422 
L 698.866226 244.316422 
L 698.866226 244.104893 
L 701.160478 244.104893 
L 701.160478 244.316422 
L 702.307604 244.316422 
L 702.307604 244.104893 
L 703.45473 244.104893 
L 703.45473 244.633716 
L 704.601857 244.633716 
L 704.601857 243.946246 
L 705.748983 243.946246 
L 705.748983 244.475069 
L 708.043235 244.369304 
L 708.043235 244.792363 
L 709.190361 244.792363 
L 709.190361 244.580834 
L 710.337487 244.580834 
L 710.337487 244.104893 
L 711.484614 244.104893 
L 711.484614 244.845245 
L 712.63174 244.845245 
L 712.63174 244.580834 
L 716.073118 244.527951 
L 716.073118 244.422187 
L 717.220244 244.422187 
L 717.220244 244.739481 
L 718.367371 244.739481 
L 718.367371 244.527951 
L 719.514497 244.527951 
L 719.514497 244.898127 
L 720.661623 244.898127 
L 720.661623 244.422187 
L 722.955875 244.422187 
L 722.955875 244.686598 
L 725.250128 244.792363 
L 725.250128 244.845245 
L 727.54438 244.845245 
L 727.54438 244.580834 
L 728.691506 244.580834 
L 728.691506 245.215421 
L 729.838632 245.215421 
L 729.838632 244.845245 
L 730.985758 244.845245 
L 730.985758 245.162539 
L 732.132885 245.162539 
L 732.132885 244.845245 
L 733.280011 244.845245 
L 733.280011 245.109657 
L 735.574263 245.215421 
L 735.574263 244.845245 
L 736.721389 244.845245 
L 736.721389 245.109657 
L 737.868515 245.109657 
L 737.868515 245.374068 
L 739.015642 245.374068 
L 739.015642 245.056774 
L 740.162768 245.056774 
L 740.162768 244.633716 
L 741.309894 244.633716 
L 741.309894 245.321186 
L 744.751272 245.321186 
L 744.751272 244.686598 
L 745.898399 244.686598 
L 745.898399 245.426951 
L 748.192651 245.426951 
L 748.192651 245.215421 
L 752.781156 245.268304 
L 752.781156 245.426951 
L 755.075408 245.374068 
L 755.075408 245.268304 
L 756.222534 245.268304 
L 756.222534 245.63848 
L 757.36966 245.63848 
L 757.36966 245.321186 
L 759.663913 245.426951 
L 759.663913 245.109657 
L 760.811039 245.109657 
L 760.811039 245.63848 
L 761.958165 245.63848 
L 761.958165 245.374068 
L 764.252417 245.479833 
L 764.252417 245.585598 
L 766.54667 245.532715 
L 766.54667 245.268304 
L 767.693796 245.268304 
L 767.693796 245.426951 
L 769.988048 245.426951 
L 769.988048 245.585598 
L 771.135174 245.585598 
L 771.135174 245.374068 
L 776.870805 245.479833 
L 776.870805 245.585598 
L 781.45931 245.585598 
L 781.45931 245.321186 
L 782.606436 245.321186 
L 782.606436 245.532715 
L 790.636319 245.63848 
L 790.636319 245.268304 
L 791.783445 245.268304 
L 791.783445 245.585598 
L 792.930571 245.585598 
L 792.930571 245.374068 
L 794.077698 245.374068 
L 794.077698 245.691362 
L 795.224824 245.691362 
L 795.224824 245.426951 
L 796.37195 245.426951 
L 796.37195 245.691362 
L 798.666202 245.797127 
L 798.666202 245.532715 
L 799.813328 245.532715 
L 799.813328 245.744245 
L 800.960455 245.744245 
L 800.960455 245.426951 
L 803.254707 245.374068 
L 803.254707 245.585598 
L 804.401833 245.585598 
L 804.401833 245.744245 
L 806.696085 245.63848 
L 806.696085 245.585598 
L 818.167347 245.585598 
L 818.167347 245.797127 
L 819.314473 245.797127 
L 819.314473 245.426951 
L 820.461599 245.426951 
L 820.461599 245.63848 
L 843.404123 245.532715 
L 843.404123 245.797127 
L 847.992627 245.744245 
L 847.992627 245.744245 
" clip-path="url(#pd8cfa1b851)" style="fill: none; stroke: #1f77b4; stroke-width: 1.5; stroke-linecap: square"/>
   </g>
  </g>
 </g>
 <defs>
  <clipPath id="pf98ae80c89">
   <rect x="53.328125" y="7.2" width="378.551635" height="249.958895"/>
  </clipPath>
  <clipPath id="pd8cfa1b851">
   <rect x="486.647885" y="7.2" width="378.551635" height="249.958895"/>
  </clipPath>
 </defs>
</svg>
