<?xml version="1.0" encoding="utf-8" standalone="no"?>
<!DOCTYPE svg PUBLIC "-//W3C//DTD SVG 1.1//EN"
  "http://www.w3.org/Graphics/SVG/1.1/DTD/svg11.dtd">
<svg xmlns:xlink="http://www.w3.org/1999/xlink" width="389.696524pt" height="266.51625pt" viewBox="0 0 389.696524 266.51625" xmlns="http://www.w3.org/2000/svg" version="1.1">
 <metadata>
  <rdf:RDF xmlns:dc="http://purl.org/dc/elements/1.1/" xmlns:cc="http://creativecommons.org/ns#" xmlns:rdf="http://www.w3.org/1999/02/22-rdf-syntax-ns#">
   <cc:Work>
    <dc:type rdf:resource="http://purl.org/dc/dcmitype/StillImage"/>
    <dc:date>2024-12-12T12:31:58.815082</dc:date>
    <dc:format>image/svg+xml</dc:format>
    <dc:creator>
     <cc:Agent>
      <dc:title>Matplotlib v3.7.3, https://matplotlib.org/</dc:title>
     </cc:Agent>
    </dc:creator>
   </cc:Work>
  </rdf:RDF>
 </metadata>
 <defs>
  <style type="text/css">*{stroke-linejoin: round; stroke-linecap: butt}</style>
 </defs>
 <g id="figure_1">
  <g id="patch_1">
   <path d="M 0 266.51625 
L 389.696524 266.51625 
L 389.696524 0 
L 0 0 
z
" style="fill: #ffffff"/>
  </g>
  <g id="axes_1">
   <g id="patch_2">
    <path d="M 46.965625 228.96 
L 381.765625 228.96 
L 381.765625 7.2 
L 46.965625 7.2 
z
" style="fill: #ffffff"/>
   </g>
   <g id="matplotlib.axis_1">
    <g id="xtick_1">
     <g id="line2d_1">
      <defs>
       <path id="md15a87bd06" d="M 0 0 
L 0 3.5 
" style="stroke: #000000; stroke-width: 0.8"/>
      </defs>
      <g>
       <use xlink:href="#md15a87bd06" x="71.081626" y="228.96" style="stroke: #000000; stroke-width: 0.8"/>
      </g>
     </g>
     <g id="text_1">
      <!-- 0.02 -->
      <g transform="translate(59.948813 243.558437) scale(0.1 -0.1)">
       <defs>
        <path id="DejaVuSans-30" d="M 2034 4250 
Q 1547 4250 1301 3770 
Q 1056 3291 1056 2328 
Q 1056 1369 1301 889 
Q 1547 409 2034 409 
Q 2525 409 2770 889 
Q 3016 1369 3016 2328 
Q 3016 3291 2770 3770 
Q 2525 4250 2034 4250 
z
M 2034 4750 
Q 2819 4750 3233 4129 
Q 3647 3509 3647 2328 
Q 3647 1150 3233 529 
Q 2819 -91 2034 -91 
Q 1250 -91 836 529 
Q 422 1150 422 2328 
Q 422 3509 836 4129 
Q 1250 4750 2034 4750 
z
" transform="scale(0.015625)"/>
        <path id="DejaVuSans-2e" d="M 684 794 
L 1344 794 
L 1344 0 
L 684 0 
L 684 794 
z
" transform="scale(0.015625)"/>
        <path id="DejaVuSans-32" d="M 1228 531 
L 3431 531 
L 3431 0 
L 469 0 
L 469 531 
Q 828 903 1448 1529 
Q 2069 2156 2228 2338 
Q 2531 2678 2651 2914 
Q 2772 3150 2772 3378 
Q 2772 3750 2511 3984 
Q 2250 4219 1831 4219 
Q 1534 4219 1204 4116 
Q 875 4013 500 3803 
L 500 4441 
Q 881 4594 1212 4672 
Q 1544 4750 1819 4750 
Q 2544 4750 2975 4387 
Q 3406 4025 3406 3419 
Q 3406 3131 3298 2873 
Q 3191 2616 2906 2266 
Q 2828 2175 2409 1742 
Q 1991 1309 1228 531 
z
" transform="scale(0.015625)"/>
       </defs>
       <use xlink:href="#DejaVuSans-30"/>
       <use xlink:href="#DejaVuSans-2e" x="63.623047"/>
       <use xlink:href="#DejaVuSans-30" x="95.410156"/>
       <use xlink:href="#DejaVuSans-32" x="159.033203"/>
      </g>
     </g>
    </g>
    <g id="xtick_2">
     <g id="line2d_2">
      <g>
       <use xlink:href="#md15a87bd06" x="113.979066" y="228.96" style="stroke: #000000; stroke-width: 0.8"/>
      </g>
     </g>
     <g id="text_2">
      <!-- 0.03 -->
      <g transform="translate(102.846254 243.558437) scale(0.1 -0.1)">
       <defs>
        <path id="DejaVuSans-33" d="M 2597 2516 
Q 3050 2419 3304 2112 
Q 3559 1806 3559 1356 
Q 3559 666 3084 287 
Q 2609 -91 1734 -91 
Q 1441 -91 1130 -33 
Q 819 25 488 141 
L 488 750 
Q 750 597 1062 519 
Q 1375 441 1716 441 
Q 2309 441 2620 675 
Q 2931 909 2931 1356 
Q 2931 1769 2642 2001 
Q 2353 2234 1838 2234 
L 1294 2234 
L 1294 2753 
L 1863 2753 
Q 2328 2753 2575 2939 
Q 2822 3125 2822 3475 
Q 2822 3834 2567 4026 
Q 2313 4219 1838 4219 
Q 1578 4219 1281 4162 
Q 984 4106 628 3988 
L 628 4550 
Q 988 4650 1302 4700 
Q 1616 4750 1894 4750 
Q 2613 4750 3031 4423 
Q 3450 4097 3450 3541 
Q 3450 3153 3228 2886 
Q 3006 2619 2597 2516 
z
" transform="scale(0.015625)"/>
       </defs>
       <use xlink:href="#DejaVuSans-30"/>
       <use xlink:href="#DejaVuSans-2e" x="63.623047"/>
       <use xlink:href="#DejaVuSans-30" x="95.410156"/>
       <use xlink:href="#DejaVuSans-33" x="159.033203"/>
      </g>
     </g>
    </g>
    <g id="xtick_3">
     <g id="line2d_3">
      <g>
       <use xlink:href="#md15a87bd06" x="156.876507" y="228.96" style="stroke: #000000; stroke-width: 0.8"/>
      </g>
     </g>
     <g id="text_3">
      <!-- 0.04 -->
      <g transform="translate(145.743695 243.558437) scale(0.1 -0.1)">
       <defs>
        <path id="DejaVuSans-34" d="M 2419 4116 
L 825 1625 
L 2419 1625 
L 2419 4116 
z
M 2253 4666 
L 3047 4666 
L 3047 1625 
L 3713 1625 
L 3713 1100 
L 3047 1100 
L 3047 0 
L 2419 0 
L 2419 1100 
L 313 1100 
L 313 1709 
L 2253 4666 
z
" transform="scale(0.015625)"/>
       </defs>
       <use xlink:href="#DejaVuSans-30"/>
       <use xlink:href="#DejaVuSans-2e" x="63.623047"/>
       <use xlink:href="#DejaVuSans-30" x="95.410156"/>
       <use xlink:href="#DejaVuSans-34" x="159.033203"/>
      </g>
     </g>
    </g>
    <g id="xtick_4">
     <g id="line2d_4">
      <g>
       <use xlink:href="#md15a87bd06" x="199.773948" y="228.96" style="stroke: #000000; stroke-width: 0.8"/>
      </g>
     </g>
     <g id="text_4">
      <!-- 0.05 -->
      <g transform="translate(188.641135 243.558437) scale(0.1 -0.1)">
       <defs>
        <path id="DejaVuSans-35" d="M 691 4666 
L 3169 4666 
L 3169 4134 
L 1269 4134 
L 1269 2991 
Q 1406 3038 1543 3061 
Q 1681 3084 1819 3084 
Q 2600 3084 3056 2656 
Q 3513 2228 3513 1497 
Q 3513 744 3044 326 
Q 2575 -91 1722 -91 
Q 1428 -91 1123 -41 
Q 819 9 494 109 
L 494 744 
Q 775 591 1075 516 
Q 1375 441 1709 441 
Q 2250 441 2565 725 
Q 2881 1009 2881 1497 
Q 2881 1984 2565 2268 
Q 2250 2553 1709 2553 
Q 1456 2553 1204 2497 
Q 953 2441 691 2322 
L 691 4666 
z
" transform="scale(0.015625)"/>
       </defs>
       <use xlink:href="#DejaVuSans-30"/>
       <use xlink:href="#DejaVuSans-2e" x="63.623047"/>
       <use xlink:href="#DejaVuSans-30" x="95.410156"/>
       <use xlink:href="#DejaVuSans-35" x="159.033203"/>
      </g>
     </g>
    </g>
    <g id="xtick_5">
     <g id="line2d_5">
      <g>
       <use xlink:href="#md15a87bd06" x="242.671389" y="228.96" style="stroke: #000000; stroke-width: 0.8"/>
      </g>
     </g>
     <g id="text_5">
      <!-- 0.06 -->
      <g transform="translate(231.538576 243.558437) scale(0.1 -0.1)">
       <defs>
        <path id="DejaVuSans-36" d="M 2113 2584 
Q 1688 2584 1439 2293 
Q 1191 2003 1191 1497 
Q 1191 994 1439 701 
Q 1688 409 2113 409 
Q 2538 409 2786 701 
Q 3034 994 3034 1497 
Q 3034 2003 2786 2293 
Q 2538 2584 2113 2584 
z
M 3366 4563 
L 3366 3988 
Q 3128 4100 2886 4159 
Q 2644 4219 2406 4219 
Q 1781 4219 1451 3797 
Q 1122 3375 1075 2522 
Q 1259 2794 1537 2939 
Q 1816 3084 2150 3084 
Q 2853 3084 3261 2657 
Q 3669 2231 3669 1497 
Q 3669 778 3244 343 
Q 2819 -91 2113 -91 
Q 1303 -91 875 529 
Q 447 1150 447 2328 
Q 447 3434 972 4092 
Q 1497 4750 2381 4750 
Q 2619 4750 2861 4703 
Q 3103 4656 3366 4563 
z
" transform="scale(0.015625)"/>
       </defs>
       <use xlink:href="#DejaVuSans-30"/>
       <use xlink:href="#DejaVuSans-2e" x="63.623047"/>
       <use xlink:href="#DejaVuSans-30" x="95.410156"/>
       <use xlink:href="#DejaVuSans-36" x="159.033203"/>
      </g>
     </g>
    </g>
    <g id="xtick_6">
     <g id="line2d_6">
      <g>
       <use xlink:href="#md15a87bd06" x="285.56883" y="228.96" style="stroke: #000000; stroke-width: 0.8"/>
      </g>
     </g>
     <g id="text_6">
      <!-- 0.07 -->
      <g transform="translate(274.436017 243.558437) scale(0.1 -0.1)">
       <defs>
        <path id="DejaVuSans-37" d="M 525 4666 
L 3525 4666 
L 3525 4397 
L 1831 0 
L 1172 0 
L 2766 4134 
L 525 4134 
L 525 4666 
z
" transform="scale(0.015625)"/>
       </defs>
       <use xlink:href="#DejaVuSans-30"/>
       <use xlink:href="#DejaVuSans-2e" x="63.623047"/>
       <use xlink:href="#DejaVuSans-30" x="95.410156"/>
       <use xlink:href="#DejaVuSans-37" x="159.033203"/>
      </g>
     </g>
    </g>
    <g id="xtick_7">
     <g id="line2d_7">
      <g>
       <use xlink:href="#md15a87bd06" x="328.46627" y="228.96" style="stroke: #000000; stroke-width: 0.8"/>
      </g>
     </g>
     <g id="text_7">
      <!-- 0.08 -->
      <g transform="translate(317.333458 243.558437) scale(0.1 -0.1)">
       <defs>
        <path id="DejaVuSans-38" d="M 2034 2216 
Q 1584 2216 1326 1975 
Q 1069 1734 1069 1313 
Q 1069 891 1326 650 
Q 1584 409 2034 409 
Q 2484 409 2743 651 
Q 3003 894 3003 1313 
Q 3003 1734 2745 1975 
Q 2488 2216 2034 2216 
z
M 1403 2484 
Q 997 2584 770 2862 
Q 544 3141 544 3541 
Q 544 4100 942 4425 
Q 1341 4750 2034 4750 
Q 2731 4750 3128 4425 
Q 3525 4100 3525 3541 
Q 3525 3141 3298 2862 
Q 3072 2584 2669 2484 
Q 3125 2378 3379 2068 
Q 3634 1759 3634 1313 
Q 3634 634 3220 271 
Q 2806 -91 2034 -91 
Q 1263 -91 848 271 
Q 434 634 434 1313 
Q 434 1759 690 2068 
Q 947 2378 1403 2484 
z
M 1172 3481 
Q 1172 3119 1398 2916 
Q 1625 2713 2034 2713 
Q 2441 2713 2670 2916 
Q 2900 3119 2900 3481 
Q 2900 3844 2670 4047 
Q 2441 4250 2034 4250 
Q 1625 4250 1398 4047 
Q 1172 3844 1172 3481 
z
" transform="scale(0.015625)"/>
       </defs>
       <use xlink:href="#DejaVuSans-30"/>
       <use xlink:href="#DejaVuSans-2e" x="63.623047"/>
       <use xlink:href="#DejaVuSans-30" x="95.410156"/>
       <use xlink:href="#DejaVuSans-38" x="159.033203"/>
      </g>
     </g>
    </g>
    <g id="xtick_8">
     <g id="line2d_8">
      <g>
       <use xlink:href="#md15a87bd06" x="371.363711" y="228.96" style="stroke: #000000; stroke-width: 0.8"/>
      </g>
     </g>
     <g id="text_8">
      <!-- 0.09 -->
      <g transform="translate(360.230899 243.558437) scale(0.1 -0.1)">
       <defs>
        <path id="DejaVuSans-39" d="M 703 97 
L 703 672 
Q 941 559 1184 500 
Q 1428 441 1663 441 
Q 2288 441 2617 861 
Q 2947 1281 2994 2138 
Q 2813 1869 2534 1725 
Q 2256 1581 1919 1581 
Q 1219 1581 811 2004 
Q 403 2428 403 3163 
Q 403 3881 828 4315 
Q 1253 4750 1959 4750 
Q 2769 4750 3195 4129 
Q 3622 3509 3622 2328 
Q 3622 1225 3098 567 
Q 2575 -91 1691 -91 
Q 1453 -91 1209 -44 
Q 966 3 703 97 
z
M 1959 2075 
Q 2384 2075 2632 2365 
Q 2881 2656 2881 3163 
Q 2881 3666 2632 3958 
Q 2384 4250 1959 4250 
Q 1534 4250 1286 3958 
Q 1038 3666 1038 3163 
Q 1038 2656 1286 2365 
Q 1534 2075 1959 2075 
z
" transform="scale(0.015625)"/>
       </defs>
       <use xlink:href="#DejaVuSans-30"/>
       <use xlink:href="#DejaVuSans-2e" x="63.623047"/>
       <use xlink:href="#DejaVuSans-30" x="95.410156"/>
       <use xlink:href="#DejaVuSans-39" x="159.033203"/>
      </g>
     </g>
    </g>
    <g id="text_9">
     <!-- tof [s] -->
     <g transform="translate(199.490625 257.236562) scale(0.1 -0.1)">
      <defs>
       <path id="DejaVuSans-74" d="M 1172 4494 
L 1172 3500 
L 2356 3500 
L 2356 3053 
L 1172 3053 
L 1172 1153 
Q 1172 725 1289 603 
Q 1406 481 1766 481 
L 2356 481 
L 2356 0 
L 1766 0 
Q 1100 0 847 248 
Q 594 497 594 1153 
L 594 3053 
L 172 3053 
L 172 3500 
L 594 3500 
L 594 4494 
L 1172 4494 
z
" transform="scale(0.015625)"/>
       <path id="DejaVuSans-6f" d="M 1959 3097 
Q 1497 3097 1228 2736 
Q 959 2375 959 1747 
Q 959 1119 1226 758 
Q 1494 397 1959 397 
Q 2419 397 2687 759 
Q 2956 1122 2956 1747 
Q 2956 2369 2687 2733 
Q 2419 3097 1959 3097 
z
M 1959 3584 
Q 2709 3584 3137 3096 
Q 3566 2609 3566 1747 
Q 3566 888 3137 398 
Q 2709 -91 1959 -91 
Q 1206 -91 779 398 
Q 353 888 353 1747 
Q 353 2609 779 3096 
Q 1206 3584 1959 3584 
z
" transform="scale(0.015625)"/>
       <path id="DejaVuSans-66" d="M 2375 4863 
L 2375 4384 
L 1825 4384 
Q 1516 4384 1395 4259 
Q 1275 4134 1275 3809 
L 1275 3500 
L 2222 3500 
L 2222 3053 
L 1275 3053 
L 1275 0 
L 697 0 
L 697 3053 
L 147 3053 
L 147 3500 
L 697 3500 
L 697 3744 
Q 697 4328 969 4595 
Q 1241 4863 1831 4863 
L 2375 4863 
z
" transform="scale(0.015625)"/>
       <path id="DejaVuSans-20" transform="scale(0.015625)"/>
       <path id="DejaVuSans-5b" d="M 550 4863 
L 1875 4863 
L 1875 4416 
L 1125 4416 
L 1125 -397 
L 1875 -397 
L 1875 -844 
L 550 -844 
L 550 4863 
z
" transform="scale(0.015625)"/>
       <path id="DejaVuSans-73" d="M 2834 3397 
L 2834 2853 
Q 2591 2978 2328 3040 
Q 2066 3103 1784 3103 
Q 1356 3103 1142 2972 
Q 928 2841 928 2578 
Q 928 2378 1081 2264 
Q 1234 2150 1697 2047 
L 1894 2003 
Q 2506 1872 2764 1633 
Q 3022 1394 3022 966 
Q 3022 478 2636 193 
Q 2250 -91 1575 -91 
Q 1294 -91 989 -36 
Q 684 19 347 128 
L 347 722 
Q 666 556 975 473 
Q 1284 391 1588 391 
Q 1994 391 2212 530 
Q 2431 669 2431 922 
Q 2431 1156 2273 1281 
Q 2116 1406 1581 1522 
L 1381 1569 
Q 847 1681 609 1914 
Q 372 2147 372 2553 
Q 372 3047 722 3315 
Q 1072 3584 1716 3584 
Q 2034 3584 2315 3537 
Q 2597 3491 2834 3397 
z
" transform="scale(0.015625)"/>
       <path id="DejaVuSans-5d" d="M 1947 4863 
L 1947 -844 
L 622 -844 
L 622 -397 
L 1369 -397 
L 1369 4416 
L 622 4416 
L 622 4863 
L 1947 4863 
z
" transform="scale(0.015625)"/>
      </defs>
      <use xlink:href="#DejaVuSans-74"/>
      <use xlink:href="#DejaVuSans-6f" x="39.208984"/>
      <use xlink:href="#DejaVuSans-66" x="100.390625"/>
      <use xlink:href="#DejaVuSans-20" x="135.595703"/>
      <use xlink:href="#DejaVuSans-5b" x="167.382812"/>
      <use xlink:href="#DejaVuSans-73" x="206.396484"/>
      <use xlink:href="#DejaVuSans-5d" x="258.496094"/>
     </g>
    </g>
   </g>
   <g id="matplotlib.axis_2">
    <g id="ytick_1">
     <g id="line2d_9">
      <defs>
       <path id="m760f030913" d="M 0 0 
L -3.5 0 
" style="stroke: #000000; stroke-width: 0.8"/>
      </defs>
      <g>
       <use xlink:href="#m760f030913" x="46.965625" y="219.258236" style="stroke: #000000; stroke-width: 0.8"/>
      </g>
     </g>
     <g id="text_10">
      <!-- 0 -->
      <g transform="translate(33.603125 223.057455) scale(0.1 -0.1)">
       <use xlink:href="#DejaVuSans-30"/>
      </g>
     </g>
    </g>
    <g id="ytick_2">
     <g id="line2d_10">
      <g>
       <use xlink:href="#m760f030913" x="46.965625" y="181.434597" style="stroke: #000000; stroke-width: 0.8"/>
      </g>
     </g>
     <g id="text_11">
      <!-- 100 -->
      <g transform="translate(20.878125 185.233815) scale(0.1 -0.1)">
       <defs>
        <path id="DejaVuSans-31" d="M 794 531 
L 1825 531 
L 1825 4091 
L 703 3866 
L 703 4441 
L 1819 4666 
L 2450 4666 
L 2450 531 
L 3481 531 
L 3481 0 
L 794 0 
L 794 531 
z
" transform="scale(0.015625)"/>
       </defs>
       <use xlink:href="#DejaVuSans-31"/>
       <use xlink:href="#DejaVuSans-30" x="63.623047"/>
       <use xlink:href="#DejaVuSans-30" x="127.246094"/>
      </g>
     </g>
    </g>
    <g id="ytick_3">
     <g id="line2d_11">
      <g>
       <use xlink:href="#m760f030913" x="46.965625" y="143.610957" style="stroke: #000000; stroke-width: 0.8"/>
      </g>
     </g>
     <g id="text_12">
      <!-- 200 -->
      <g transform="translate(20.878125 147.410176) scale(0.1 -0.1)">
       <use xlink:href="#DejaVuSans-32"/>
       <use xlink:href="#DejaVuSans-30" x="63.623047"/>
       <use xlink:href="#DejaVuSans-30" x="127.246094"/>
      </g>
     </g>
    </g>
    <g id="ytick_4">
     <g id="line2d_12">
      <g>
       <use xlink:href="#m760f030913" x="46.965625" y="105.787317" style="stroke: #000000; stroke-width: 0.8"/>
      </g>
     </g>
     <g id="text_13">
      <!-- 300 -->
      <g transform="translate(20.878125 109.586536) scale(0.1 -0.1)">
       <use xlink:href="#DejaVuSans-33"/>
       <use xlink:href="#DejaVuSans-30" x="63.623047"/>
       <use xlink:href="#DejaVuSans-30" x="127.246094"/>
      </g>
     </g>
    </g>
    <g id="ytick_5">
     <g id="line2d_13">
      <g>
       <use xlink:href="#m760f030913" x="46.965625" y="67.963677" style="stroke: #000000; stroke-width: 0.8"/>
      </g>
     </g>
     <g id="text_14">
      <!-- 400 -->
      <g transform="translate(20.878125 71.762896) scale(0.1 -0.1)">
       <use xlink:href="#DejaVuSans-34"/>
       <use xlink:href="#DejaVuSans-30" x="63.623047"/>
       <use xlink:href="#DejaVuSans-30" x="127.246094"/>
      </g>
     </g>
    </g>
    <g id="ytick_6">
     <g id="line2d_14">
      <g>
       <use xlink:href="#m760f030913" x="46.965625" y="30.140038" style="stroke: #000000; stroke-width: 0.8"/>
      </g>
     </g>
     <g id="text_15">
      <!-- 500 -->
      <g transform="translate(20.878125 33.939256) scale(0.1 -0.1)">
       <use xlink:href="#DejaVuSans-35"/>
       <use xlink:href="#DejaVuSans-30" x="63.623047"/>
       <use xlink:href="#DejaVuSans-30" x="127.246094"/>
      </g>
     </g>
    </g>
    <g id="text_16">
     <!-- [counts] -->
     <g transform="translate(14.798438 138.6925) rotate(-90) scale(0.1 -0.1)">
      <defs>
       <path id="DejaVuSans-63" d="M 3122 3366 
L 3122 2828 
Q 2878 2963 2633 3030 
Q 2388 3097 2138 3097 
Q 1578 3097 1268 2742 
Q 959 2388 959 1747 
Q 959 1106 1268 751 
Q 1578 397 2138 397 
Q 2388 397 2633 464 
Q 2878 531 3122 666 
L 3122 134 
Q 2881 22 2623 -34 
Q 2366 -91 2075 -91 
Q 1284 -91 818 406 
Q 353 903 353 1747 
Q 353 2603 823 3093 
Q 1294 3584 2113 3584 
Q 2378 3584 2631 3529 
Q 2884 3475 3122 3366 
z
" transform="scale(0.015625)"/>
       <path id="DejaVuSans-75" d="M 544 1381 
L 544 3500 
L 1119 3500 
L 1119 1403 
Q 1119 906 1312 657 
Q 1506 409 1894 409 
Q 2359 409 2629 706 
Q 2900 1003 2900 1516 
L 2900 3500 
L 3475 3500 
L 3475 0 
L 2900 0 
L 2900 538 
Q 2691 219 2414 64 
Q 2138 -91 1772 -91 
Q 1169 -91 856 284 
Q 544 659 544 1381 
z
M 1991 3584 
L 1991 3584 
z
" transform="scale(0.015625)"/>
       <path id="DejaVuSans-6e" d="M 3513 2113 
L 3513 0 
L 2938 0 
L 2938 2094 
Q 2938 2591 2744 2837 
Q 2550 3084 2163 3084 
Q 1697 3084 1428 2787 
Q 1159 2491 1159 1978 
L 1159 0 
L 581 0 
L 581 3500 
L 1159 3500 
L 1159 2956 
Q 1366 3272 1645 3428 
Q 1925 3584 2291 3584 
Q 2894 3584 3203 3211 
Q 3513 2838 3513 2113 
z
" transform="scale(0.015625)"/>
      </defs>
      <use xlink:href="#DejaVuSans-5b"/>
      <use xlink:href="#DejaVuSans-63" x="39.013672"/>
      <use xlink:href="#DejaVuSans-6f" x="93.994141"/>
      <use xlink:href="#DejaVuSans-75" x="155.175781"/>
      <use xlink:href="#DejaVuSans-6e" x="218.554688"/>
      <use xlink:href="#DejaVuSans-74" x="281.933594"/>
      <use xlink:href="#DejaVuSans-73" x="321.142578"/>
      <use xlink:href="#DejaVuSans-5d" x="373.242188"/>
     </g>
    </g>
   </g>
   <g id="patch_3">
    <path d="M 46.965625 228.96 
L 46.965625 7.2 
" style="fill: none; stroke: #000000; stroke-width: 0.8; stroke-linejoin: miter; stroke-linecap: square"/>
   </g>
   <g id="patch_4">
    <path d="M 381.765625 228.96 
L 381.765625 7.2 
" style="fill: none; stroke: #000000; stroke-width: 0.8; stroke-linejoin: miter; stroke-linecap: square"/>
   </g>
   <g id="patch_5">
    <path d="M 46.965625 228.96 
L 381.765625 228.96 
" style="fill: none; stroke: #000000; stroke-width: 0.8; stroke-linejoin: miter; stroke-linecap: square"/>
   </g>
   <g id="patch_6">
    <path d="M 46.965625 7.2 
L 381.765625 7.2 
" style="fill: none; stroke: #000000; stroke-width: 0.8; stroke-linejoin: miter; stroke-linecap: square"/>
   </g>
   <g id="line2d_15">
    <path d="M 62.183807 215.854109 
L 63.198352 215.854109 
L 63.198352 212.449981 
L 64.212898 212.449981 
L 64.212898 205.641726 
L 65.227443 205.641726 
L 65.227443 199.96818 
L 66.241989 199.96818 
L 66.241989 194.294634 
L 67.256534 194.294634 
L 67.256534 193.538161 
L 68.27108 193.538161 
L 68.27108 187.108143 
L 69.285625 187.108143 
L 69.285625 185.595197 
L 70.30017 185.595197 
L 70.30017 177.652233 
L 71.314716 177.652233 
L 71.314716 165.926904 
L 72.329261 165.926904 
L 72.329261 167.43985 
L 73.343807 167.43985 
L 73.343807 164.792195 
L 74.358352 164.792195 
L 74.358352 161.766304 
L 75.372898 161.766304 
L 75.372898 145.880375 
L 76.387443 145.880375 
L 76.387443 152.310394 
L 77.401989 152.310394 
L 77.401989 149.284503 
L 78.416534 149.284503 
L 78.416534 133.776811 
L 79.43108 133.776811 
L 79.43108 132.263865 
L 80.445625 132.263865 
L 80.445625 133.776811 
L 81.46017 133.776811 
L 81.46017 128.103265 
L 82.474716 128.103265 
L 82.474716 119.403827 
L 83.489261 119.403827 
L 83.489261 111.460863 
L 84.503807 111.460863 
L 84.503807 101.626717 
L 85.518352 101.626717 
L 85.518352 109.569681 
L 86.532898 109.569681 
L 86.532898 101.626717 
L 87.547443 101.626717 
L 87.547443 93.683752 
L 88.561989 93.683752 
L 88.561989 102.761426 
L 89.576534 102.761426 
L 89.576534 98.979062 
L 90.59108 98.979062 
L 90.59108 87.63197 
L 91.605625 87.63197 
L 91.605625 82.714897 
L 92.62017 82.714897 
L 92.62017 84.984315 
L 93.634716 84.984315 
L 93.634716 74.393696 
L 94.649261 74.393696 
L 94.649261 65.316023 
L 95.663807 65.316023 
L 95.663807 57.751295 
L 96.678352 57.751295 
L 96.678352 60.777186 
L 97.692898 60.777186 
L 97.692898 65.316023 
L 98.707443 65.316023 
L 98.707443 46.404203 
L 99.721989 46.404203 
L 99.721989 52.077749 
L 100.736534 52.077749 
L 100.736534 46.782439 
L 101.75108 46.782439 
L 101.75108 43.378311 
L 102.765625 43.378311 
L 102.765625 51.321276 
L 103.78017 51.321276 
L 103.78017 50.186567 
L 104.794716 50.186567 
L 104.794716 52.077749 
L 105.809261 52.077749 
L 105.809261 31.274747 
L 106.823807 31.274747 
L 106.823807 38.083002 
L 107.838352 38.083002 
L 107.838352 25.979437 
L 108.852898 25.979437 
L 108.852898 28.248856 
L 109.867443 28.248856 
L 109.867443 29.761801 
L 110.881989 29.761801 
L 110.881989 17.28 
L 111.896534 17.28 
L 111.896534 38.083002 
L 112.91108 38.083002 
L 112.91108 35.435347 
L 113.925625 35.435347 
L 113.925625 30.89651 
L 114.94017 30.89651 
L 114.94017 34.300638 
L 115.954716 34.300638 
L 115.954716 46.782439 
L 116.969261 46.782439 
L 116.969261 34.300638 
L 117.983807 34.300638 
L 117.983807 46.782439 
L 118.998352 46.782439 
L 118.998352 39.974184 
L 120.012898 39.974184 
L 120.012898 42.621839 
L 121.027443 42.621839 
L 121.027443 29.005328 
L 122.041989 29.005328 
L 122.041989 49.80833 
L 123.056534 49.80833 
L 123.056534 51.321276 
L 124.07108 51.321276 
L 124.07108 49.430094 
L 125.085625 49.430094 
L 125.085625 60.398949 
L 126.10017 60.398949 
L 126.10017 61.911895 
L 127.114716 61.911895 
L 127.114716 50.943039 
L 128.129261 50.943039 
L 128.129261 61.155422 
L 129.143807 61.155422 
L 129.143807 73.258987 
L 130.158352 73.258987 
L 130.158352 45.269493 
L 131.172898 45.269493 
L 131.172898 59.26424 
L 132.187443 59.26424 
L 132.187443 46.782439 
L 133.201989 46.782439 
L 133.201989 54.347167 
L 134.216534 54.347167 
L 134.216534 74.01546 
L 135.23108 74.01546 
L 135.23108 51.321276 
L 136.245625 51.321276 
L 136.245625 55.860113 
L 137.26017 55.860113 
L 137.26017 57.751295 
L 138.274716 57.751295 
L 138.274716 69.098386 
L 139.289261 69.098386 
L 139.289261 62.668368 
L 140.303807 62.668368 
L 140.303807 70.233096 
L 141.318352 70.233096 
L 141.318352 63.046604 
L 142.332898 63.046604 
L 142.332898 61.911895 
L 143.347443 61.911895 
L 143.347443 70.233096 
L 144.361989 70.233096 
L 144.361989 68.341914 
L 145.376534 68.341914 
L 145.376534 72.502514 
L 146.39108 72.502514 
L 146.39108 58.886004 
L 147.405625 58.886004 
L 147.405625 74.01546 
L 148.42017 74.01546 
L 148.42017 73.637223 
L 149.434716 73.637223 
L 149.434716 81.958424 
L 150.449261 81.958424 
L 150.449261 61.533659 
L 151.463807 61.533659 
L 151.463807 63.803077 
L 152.478352 63.803077 
L 152.478352 62.290131 
L 153.492898 62.290131 
L 153.492898 70.989568 
L 154.507443 70.989568 
L 154.507443 82.714897 
L 155.521989 82.714897 
L 155.521989 81.580188 
L 156.536534 81.580188 
L 156.536534 53.212458 
L 157.55108 53.212458 
L 157.55108 80.067242 
L 158.565625 80.067242 
L 158.565625 74.393696 
L 159.58017 74.393696 
L 159.58017 63.803077 
L 160.594716 63.803077 
L 160.594716 76.663114 
L 161.609261 76.663114 
L 161.609261 70.989568 
L 162.623807 70.989568 
L 162.623807 80.067242 
L 163.638352 80.067242 
L 163.638352 68.72015 
L 164.652898 68.72015 
L 164.652898 88.388443 
L 165.667443 88.388443 
L 165.667443 87.253734 
L 166.681989 87.253734 
L 166.681989 74.01546 
L 167.696534 74.01546 
L 167.696534 78.554296 
L 168.71108 78.554296 
L 168.71108 87.253734 
L 169.725625 87.253734 
L 169.725625 81.958424 
L 170.74017 81.958424 
L 170.74017 78.554296 
L 171.754716 78.554296 
L 171.754716 86.119024 
L 172.769261 86.119024 
L 172.769261 93.305516 
L 173.783807 93.305516 
L 173.783807 90.657861 
L 174.798352 90.657861 
L 174.798352 90.279625 
L 175.812898 90.279625 
L 175.812898 91.414334 
L 176.827443 91.414334 
L 176.827443 98.979062 
L 177.841989 98.979062 
L 177.841989 105.030844 
L 178.856534 105.030844 
L 178.856534 92.92728 
L 179.87108 92.92728 
L 179.87108 110.70439 
L 180.885625 110.70439 
L 180.885625 120.916773 
L 181.90017 120.916773 
L 181.90017 121.295009 
L 182.914716 121.295009 
L 182.914716 106.54379 
L 183.929261 106.54379 
L 183.929261 127.346792 
L 184.943807 127.346792 
L 184.943807 127.725028 
L 185.958352 127.725028 
L 185.958352 140.585066 
L 186.972898 140.585066 
L 186.972898 134.91152 
L 187.987443 134.91152 
L 187.987443 142.854484 
L 189.001989 142.854484 
L 189.001989 141.341538 
L 190.016534 141.341538 
L 190.016534 147.393321 
L 191.03108 147.393321 
L 191.03108 157.227467 
L 192.045625 157.227467 
L 192.045625 157.98394 
L 193.06017 157.98394 
L 193.06017 167.43985 
L 194.074716 167.43985 
L 194.074716 164.792195 
L 195.089261 164.792195 
L 195.089261 174.248105 
L 196.103807 174.248105 
L 196.103807 173.869869 
L 198.132898 173.869869 
L 198.132898 181.434597 
L 199.147443 181.434597 
L 199.147443 185.973433 
L 200.161989 185.973433 
L 200.161989 189.755797 
L 201.176534 189.755797 
L 201.176534 192.403452 
L 202.19108 192.403452 
L 202.19108 199.211707 
L 203.205625 199.211707 
L 203.205625 201.102889 
L 204.22017 201.102889 
L 204.22017 207.154672 
L 205.234716 207.154672 
L 205.234716 210.180563 
L 206.249261 210.180563 
L 206.249261 207.154672 
L 207.263807 207.154672 
L 207.263807 213.58469 
L 208.278352 213.58469 
L 208.278352 215.097636 
L 209.292898 215.097636 
L 209.292898 216.988818 
L 210.307443 216.988818 
L 210.307443 216.610582 
L 211.321989 216.610582 
L 211.321989 216.232345 
L 212.336534 216.232345 
L 212.336534 210.937036 
L 213.35108 210.937036 
L 213.35108 207.532908 
L 214.365625 207.532908 
L 214.365625 206.776435 
L 215.38017 206.776435 
L 215.38017 198.076998 
L 216.394716 198.076998 
L 216.394716 198.455235 
L 217.409261 198.455235 
L 217.409261 193.159925 
L 218.423807 193.159925 
L 218.423807 193.916398 
L 219.438352 193.916398 
L 219.438352 191.268743 
L 220.452898 191.268743 
L 220.452898 181.812833 
L 221.467443 181.812833 
L 221.467443 174.248105 
L 222.481989 174.248105 
L 222.481989 179.543415 
L 223.496534 179.543415 
L 223.496534 168.952795 
L 224.51108 168.952795 
L 224.51108 180.299887 
L 225.525625 180.299887 
L 225.525625 163.27925 
L 226.54017 163.27925 
L 226.54017 155.336285 
L 227.554716 155.336285 
L 227.554716 158.362176 
L 228.569261 158.362176 
L 228.569261 156.470994 
L 229.583807 156.470994 
L 229.583807 151.175685 
L 230.598352 151.175685 
L 230.598352 153.82334 
L 231.612898 153.82334 
L 231.612898 155.336285 
L 232.627443 155.336285 
L 232.627443 140.963302 
L 233.641989 140.963302 
L 233.641989 132.642101 
L 234.656534 132.642101 
L 234.656534 136.424465 
L 235.67108 136.424465 
L 235.67108 131.129156 
L 236.685625 131.129156 
L 236.685625 134.155047 
L 237.70017 134.155047 
L 237.70017 122.807955 
L 238.714716 122.807955 
L 238.714716 130.750919 
L 239.729261 130.750919 
L 239.729261 125.45561 
L 240.743807 125.45561 
L 240.743807 116.377936 
L 241.758352 116.377936 
L 241.758352 117.512645 
L 242.772898 117.512645 
L 242.772898 118.269118 
L 243.787443 118.269118 
L 243.787443 114.108518 
L 244.801989 114.108518 
L 244.801989 105.409081 
L 245.816534 105.409081 
L 245.816534 117.512645 
L 246.83108 117.512645 
L 246.83108 113.352045 
L 247.845625 113.352045 
L 247.845625 113.730281 
L 248.86017 113.730281 
L 248.86017 98.979062 
L 249.874716 98.979062 
L 249.874716 112.217336 
L 250.889261 112.217336 
L 250.889261 115.9997 
L 251.903807 115.9997 
L 251.903807 103.896135 
L 252.918352 103.896135 
L 252.918352 99.357298 
L 253.932898 99.357298 
L 253.932898 106.54379 
L 254.947443 106.54379 
L 254.947443 99.735535 
L 255.961989 99.735535 
L 255.961989 93.683752 
L 256.976534 93.683752 
L 256.976534 86.497261 
L 257.99108 86.497261 
L 257.99108 100.492008 
L 259.005625 100.492008 
L 259.005625 89.144916 
L 260.02017 89.144916 
L 260.02017 94.061989 
L 261.034716 94.061989 
L 261.034716 101.24848 
L 262.049261 101.24848 
L 262.049261 100.870244 
L 263.063807 100.870244 
L 263.063807 102.761426 
L 264.078352 102.761426 
L 264.078352 94.061989 
L 265.092898 94.061989 
L 265.092898 95.196698 
L 266.107443 95.196698 
L 266.107443 101.626717 
L 267.121989 101.626717 
L 267.121989 103.896135 
L 268.136534 103.896135 
L 268.136534 98.222589 
L 269.15108 98.222589 
L 269.15108 99.735535 
L 270.165625 99.735535 
L 270.165625 111.460863 
L 271.18017 111.460863 
L 271.18017 108.813208 
L 272.194716 108.813208 
L 272.194716 114.108518 
L 273.209261 114.108518 
L 273.209261 99.735535 
L 274.223807 99.735535 
L 274.223807 106.165553 
L 275.238352 106.165553 
L 275.238352 109.569681 
L 276.252898 109.569681 
L 276.252898 119.782064 
L 277.267443 119.782064 
L 277.267443 107.678499 
L 278.281989 107.678499 
L 278.281989 113.730281 
L 279.296534 113.730281 
L 279.296534 109.569681 
L 280.31108 109.569681 
L 280.31108 116.377936 
L 281.325625 116.377936 
L 281.325625 115.243227 
L 282.34017 115.243227 
L 282.34017 120.916773 
L 283.354716 120.916773 
L 283.354716 111.082627 
L 284.369261 111.082627 
L 284.369261 113.730281 
L 285.383807 113.730281 
L 285.383807 120.1603 
L 286.398352 120.1603 
L 286.398352 126.590319 
L 287.412898 126.590319 
L 287.412898 111.839099 
L 288.427443 111.839099 
L 288.427443 131.507392 
L 289.441989 131.507392 
L 289.441989 119.782064 
L 290.456534 119.782064 
L 290.456534 128.103265 
L 291.47108 128.103265 
L 291.47108 127.725028 
L 292.485625 127.725028 
L 292.485625 119.403827 
L 293.50017 119.403827 
L 293.50017 125.077373 
L 294.514716 125.077373 
L 294.514716 123.564428 
L 295.529261 123.564428 
L 295.529261 124.699137 
L 296.543807 124.699137 
L 296.543807 133.398574 
L 297.558352 133.398574 
L 297.558352 139.07212 
L 298.572898 139.07212 
L 298.572898 134.155047 
L 299.587443 134.155047 
L 299.587443 142.098011 
L 300.601989 142.098011 
L 300.601989 129.61621 
L 301.616534 129.61621 
L 301.616534 138.315647 
L 302.63108 138.315647 
L 302.63108 138.693884 
L 303.645625 138.693884 
L 303.645625 145.502139 
L 304.66017 145.502139 
L 304.66017 143.989193 
L 305.674716 143.989193 
L 305.674716 137.937411 
L 306.689261 137.937411 
L 306.689261 139.07212 
L 307.703807 139.07212 
L 307.703807 157.227467 
L 308.718352 157.227467 
L 308.718352 150.419212 
L 309.732898 150.419212 
L 309.732898 146.258612 
L 310.747443 146.258612 
L 310.747443 140.585066 
L 311.761989 140.585066 
L 311.761989 145.502139 
L 312.776534 145.502139 
L 312.776534 140.206829 
L 313.79108 140.206829 
L 313.79108 144.745666 
L 314.805625 144.745666 
L 314.805625 157.605704 
L 315.82017 157.605704 
L 315.82017 148.906266 
L 316.834716 148.906266 
L 316.834716 155.714522 
L 317.849261 155.714522 
L 317.849261 156.849231 
L 318.863807 156.849231 
L 318.863807 145.502139 
L 319.878352 145.502139 
L 319.878352 161.009831 
L 320.892898 161.009831 
L 320.892898 158.740413 
L 321.907443 158.740413 
L 321.907443 157.227467 
L 322.921989 157.227467 
L 322.921989 161.009831 
L 323.936534 161.009831 
L 323.936534 157.98394 
L 324.95108 157.98394 
L 324.95108 168.196323 
L 325.965625 168.196323 
L 325.965625 161.009831 
L 326.98017 161.009831 
L 326.98017 173.491632 
L 327.994716 173.491632 
L 327.994716 161.009831 
L 329.009261 161.009831 
L 329.009261 172.735159 
L 330.023807 172.735159 
L 330.023807 164.413959 
L 331.038352 164.413959 
L 331.038352 173.113396 
L 332.052898 173.113396 
L 332.052898 176.139287 
L 333.067443 176.139287 
L 333.067443 173.491632 
L 334.081989 173.491632 
L 334.081989 174.626341 
L 335.096534 174.626341 
L 335.096534 181.05636 
L 336.11108 181.05636 
L 336.11108 186.35167 
L 337.125625 186.35167 
L 337.125625 191.268743 
L 338.14017 191.268743 
L 338.14017 187.108143 
L 339.154716 187.108143 
L 339.154716 186.35167 
L 340.169261 186.35167 
L 340.169261 190.134034 
L 341.183807 190.134034 
L 341.183807 193.916398 
L 342.198352 193.916398 
L 342.198352 188.999325 
L 343.212898 188.999325 
L 343.212898 196.564053 
L 344.227443 196.564053 
L 344.227443 203.372308 
L 345.241989 203.372308 
L 345.241989 201.859362 
L 346.256534 201.859362 
L 346.256534 200.724653 
L 347.27108 200.724653 
L 347.27108 199.589944 
L 348.285625 199.589944 
L 348.285625 208.667617 
L 349.30017 208.667617 
L 349.30017 207.911144 
L 350.314716 207.911144 
L 350.314716 208.289381 
L 351.329261 208.289381 
L 351.329261 209.42409 
L 352.343807 209.42409 
L 352.343807 209.802326 
L 353.358352 209.802326 
L 353.358352 210.180563 
L 354.372898 210.180563 
L 354.372898 213.206454 
L 355.387443 213.206454 
L 355.387443 212.071745 
L 356.401989 212.071745 
L 356.401989 214.7194 
L 357.416534 214.7194 
L 357.416534 216.232345 
L 359.445625 216.232345 
L 359.445625 216.610582 
L 360.46017 216.610582 
L 360.46017 216.988818 
L 361.474716 216.988818 
L 361.474716 218.123527 
L 362.489261 218.123527 
L 362.489261 218.501764 
L 363.503807 218.501764 
L 363.503807 218.88 
L 364.518352 218.88 
L 364.518352 218.501764 
L 366.547443 218.501764 
L 366.547443 218.501764 
" clip-path="url(#p5e34b6d029)" style="fill: none; stroke: #1f77b4; stroke-width: 1.5; stroke-linecap: square"/>
   </g>
  </g>
 </g>
 <defs>
  <clipPath id="p5e34b6d029">
   <rect x="46.965625" y="7.2" width="334.8" height="221.76"/>
  </clipPath>
 </defs>
</svg>
