<?xml version="1.0" encoding="UTF-8" standalone="no"?>
<!DOCTYPE svg PUBLIC "-//W3C//DTD SVG 1.1//EN"
 "http://www.w3.org/Graphics/SVG/1.1/DTD/svg11.dtd">
<!-- Generated by graphviz version 7.1.0 (20230122.1345)
 -->
<!-- Pages: 1 -->
<svg width="228pt" height="90pt"
 viewBox="0.00 0.00 228.00 90.00" xmlns="http://www.w3.org/2000/svg" xmlns:xlink="http://www.w3.org/1999/xlink">
<g id="graph0" class="graph" transform="scale(1 1) rotate(0) translate(4 86)">
<polygon fill="white" stroke="none" points="-4,4 -4,-86 224,-86 224,4 -4,4"/>
<!-- source_position -->
<g id="node1" class="node">
<title>source_position</title>
<polygon fill="none" stroke="black" points="128,-82 0,-82 0,-59 128,-59 128,-82"/>
<text text-anchor="middle" x="64" y="-66.8" font-family="Times,serif" font-size="14.00">source_position</text>
</g>
<!-- Ltotal -->
<g id="node2" class="node">
<title>Ltotal</title>
<polygon fill="none" stroke="black" points="152.5,-23 93.5,-23 93.5,0 152.5,0 152.5,-23"/>
<text text-anchor="middle" x="123" y="-7.8" font-family="Times,serif" font-size="14.00">Ltotal</text>
</g>
<!-- source_position&#45;&gt;Ltotal -->
<g id="edge1" class="edge">
<title>source_position&#45;&gt;Ltotal</title>
<path fill="none" stroke="black" d="M75.38,-58.51C83.37,-50.78 94.28,-40.25 103.63,-31.21"/>
<polygon fill="black" stroke="black" points="105.81,-33.97 110.57,-24.51 100.95,-28.94 105.81,-33.97"/>
</g>
<!-- position -->
<g id="node3" class="node">
<title>position</title>
<polygon fill="none" stroke="black" points="220,-82 146,-82 146,-59 220,-59 220,-82"/>
<text text-anchor="middle" x="183" y="-66.8" font-family="Times,serif" font-size="14.00">position</text>
</g>
<!-- position&#45;&gt;Ltotal -->
<g id="edge2" class="edge">
<title>position&#45;&gt;Ltotal</title>
<path fill="none" stroke="black" d="M171.43,-58.51C163.3,-50.78 152.21,-40.25 142.7,-31.21"/>
<polygon fill="black" stroke="black" points="145.29,-28.85 135.63,-24.5 140.47,-33.92 145.29,-28.85"/>
</g>
</g>
</svg>
