<?xml version="1.0" encoding="UTF-8" standalone="no"?>
<!DOCTYPE svg PUBLIC "-//W3C//DTD SVG 1.1//EN"
 "http://www.w3.org/Graphics/SVG/1.1/DTD/svg11.dtd">
<!-- Generated by graphviz version 11.0.0 (20240519.1550)
 -->
<!-- Pages: 1 -->
<svg width="1129pt" height="447pt"
 viewBox="0.00 0.00 1129.19 447.25" xmlns="http://www.w3.org/2000/svg" xmlns:xlink="http://www.w3.org/1999/xlink">
<g id="graph0" class="graph" transform="scale(1 1) rotate(0) translate(4 443.25)">
<polygon fill="white" stroke="none" points="-4,4 -4,-443.25 1125.19,-443.25 1125.19,4 -4,4"/>
<!-- SourceWavelengthRange -->
<g id="node1" class="node">
<title>SourceWavelengthRange</title>
<polygon fill="none" stroke="black" points="194.5,-439.25 0,-439.25 0,-414 194.5,-414 194.5,-439.25"/>
<text text-anchor="middle" x="97.25" y="-421.95" font-family="Times,serif" font-size="14.00">SourceWavelengthRange</text>
</g>
<!-- ChopperCascadeFrames -->
<g id="node2" class="node">
<title>ChopperCascadeFrames</title>
<polygon fill="none" stroke="black" points="369.25,-378 179.25,-378 179.25,-345 369.25,-345 369.25,-378"/>
<text text-anchor="start" x="187.25" y="-361.7" font-family="Times,serif" font-size="14.00">ChopperCascadeFrames</text>
<text text-anchor="start" x="194.38" y="-350.55" font-family="Times,serif" font-size="11.00">via:</text>
<text text-anchor="start" x="214.62" y="-350.55" font-family="Times,serif" font-style="italic" font-size="11.00">chopper_cascade_frames</text>
</g>
<!-- SourceWavelengthRange&#45;&gt;ChopperCascadeFrames -->
<g id="edge1" class="edge">
<title>SourceWavelengthRange&#45;&gt;ChopperCascadeFrames</title>
<path fill="none" stroke="black" d="M130.96,-413.6C155.77,-404.75 190.06,-392.52 218.88,-382.25"/>
<polygon fill="black" stroke="black" points="219.95,-385.58 228.19,-378.93 217.6,-378.99 219.95,-385.58"/>
</g>
<!-- FrameAtDetector -->
<g id="node5" class="node">
<title>FrameAtDetector</title>
<polygon fill="none" stroke="black" points="425.5,-309 285,-309 285,-276 425.5,-276 425.5,-309"/>
<text text-anchor="start" x="293" y="-292.7" font-family="Times,serif" font-size="14.00">FrameAtDetector</text>
<text text-anchor="start" x="294.12" y="-281.55" font-family="Times,serif" font-size="11.00">via:</text>
<text text-anchor="start" x="314.38" y="-281.55" font-family="Times,serif" font-style="italic" font-size="11.00">frame_at_detector</text>
</g>
<!-- ChopperCascadeFrames&#45;&gt;FrameAtDetector -->
<g id="edge10" class="edge">
<title>ChopperCascadeFrames&#45;&gt;FrameAtDetector</title>
<path fill="none" stroke="black" d="M293.45,-344.62C303.56,-336.26 316.15,-325.84 327.33,-316.6"/>
<polygon fill="black" stroke="black" points="329.27,-319.53 334.74,-310.46 324.81,-314.14 329.27,-319.53"/>
</g>
<!-- CleanFrameAtDetector -->
<g id="node6" class="node">
<title>CleanFrameAtDetector</title>
<polygon fill="none" stroke="black" points="421.62,-240 206.88,-240 206.88,-207 421.62,-207 421.62,-240"/>
<text text-anchor="start" x="231.75" y="-223.7" font-family="Times,serif" font-size="14.00">CleanFrameAtDetector</text>
<text text-anchor="start" x="214.88" y="-212.55" font-family="Times,serif" font-size="11.00">via:</text>
<text text-anchor="start" x="235.12" y="-212.55" font-family="Times,serif" font-style="italic" font-size="11.00">maybe_clip_detector_subframes</text>
</g>
<!-- ChopperCascadeFrames&#45;&gt;CleanFrameAtDetector -->
<g id="edge6" class="edge">
<title>ChopperCascadeFrames&#45;&gt;CleanFrameAtDetector</title>
<path fill="none" stroke="black" d="M273.62,-344.79C273.4,-327.48 274.48,-299.04 282.25,-276 285.32,-266.88 290.28,-257.71 295.39,-249.68"/>
<polygon fill="black" stroke="black" points="298.24,-251.72 300.95,-241.48 292.44,-247.79 298.24,-251.72"/>
</g>
<!-- TimeOfFlightOrigin -->
<g id="node16" class="node">
<title>TimeOfFlightOrigin</title>
<polygon fill="none" stroke="black" points="404,-171 224.5,-171 224.5,-138 404,-138 404,-171"/>
<text text-anchor="start" x="244.5" y="-154.7" font-family="Times,serif" font-size="14.00">TimeOfFlightOrigin</text>
<text text-anchor="start" x="232.5" y="-143.55" font-family="Times,serif" font-size="11.00">via:</text>
<text text-anchor="start" x="252.75" y="-143.55" font-family="Times,serif" font-style="italic" font-size="11.00">time_of_flight_origin_wfm</text>
</g>
<!-- ChopperCascadeFrames&#45;&gt;TimeOfFlightOrigin -->
<g id="edge17" class="edge">
<title>ChopperCascadeFrames&#45;&gt;TimeOfFlightOrigin</title>
<path fill="none" stroke="black" d="M256.74,-344.52C227.41,-315.77 174.39,-253.96 204.25,-207 212.72,-193.68 225.64,-183.75 239.68,-176.36"/>
<polygon fill="black" stroke="black" points="241.16,-179.53 248.69,-172.07 238.15,-173.21 241.16,-179.53"/>
</g>
<!-- SourceTimeRange -->
<g id="node3" class="node">
<title>SourceTimeRange</title>
<polygon fill="none" stroke="black" points="347.12,-439.25 201.38,-439.25 201.38,-414 347.12,-414 347.12,-439.25"/>
<text text-anchor="middle" x="274.25" y="-421.95" font-family="Times,serif" font-size="14.00">SourceTimeRange</text>
</g>
<!-- SourceTimeRange&#45;&gt;ChopperCascadeFrames -->
<g id="edge2" class="edge">
<title>SourceTimeRange&#45;&gt;ChopperCascadeFrames</title>
<path fill="none" stroke="black" d="M274.25,-413.75C274.25,-406.95 274.25,-398.13 274.25,-389.72"/>
<polygon fill="black" stroke="black" points="277.75,-389.89 274.25,-379.89 270.75,-389.89 277.75,-389.89"/>
</g>
<!-- Choppers -->
<g id="node4" class="node">
<title>Choppers</title>
<polygon fill="none" stroke="black" points="438.38,-439.25 354.12,-439.25 354.12,-414 438.38,-414 438.38,-439.25"/>
<text text-anchor="middle" x="396.25" y="-421.95" font-family="Times,serif" font-size="14.00">Choppers</text>
</g>
<!-- Choppers&#45;&gt;ChopperCascadeFrames -->
<g id="edge3" class="edge">
<title>Choppers&#45;&gt;ChopperCascadeFrames</title>
<path fill="none" stroke="black" d="M373.02,-413.6C356.61,-405.11 334.19,-393.51 314.86,-383.51"/>
<polygon fill="black" stroke="black" points="316.62,-380.48 306.13,-378.99 313.4,-386.7 316.62,-380.48"/>
</g>
<!-- FrameAtDetector&#45;&gt;CleanFrameAtDetector -->
<g id="edge4" class="edge">
<title>FrameAtDetector&#45;&gt;CleanFrameAtDetector</title>
<path fill="none" stroke="black" d="M345.53,-275.62C340.84,-267.95 335.08,-258.54 329.8,-249.9"/>
<polygon fill="black" stroke="black" points="332.89,-248.26 324.69,-241.56 326.92,-251.91 332.89,-248.26"/>
</g>
<!-- FrameBounds -->
<g id="node10" class="node">
<title>FrameBounds</title>
<polygon fill="none" stroke="black" points="544.12,-240 428.38,-240 428.38,-207 544.12,-207 544.12,-240"/>
<text text-anchor="start" x="436.38" y="-223.7" font-family="Times,serif" font-size="14.00">FrameBounds</text>
<text text-anchor="start" x="437.12" y="-212.55" font-family="Times,serif" font-size="11.00">via:</text>
<text text-anchor="start" x="457.38" y="-212.55" font-family="Times,serif" font-style="italic" font-size="11.00">frame_bounds</text>
</g>
<!-- FrameAtDetector&#45;&gt;FrameBounds -->
<g id="edge12" class="edge">
<title>FrameAtDetector&#45;&gt;FrameBounds</title>
<path fill="none" stroke="black" d="M386.3,-275.62C403.79,-266.68 425.86,-255.39 444.81,-245.69"/>
<polygon fill="black" stroke="black" points="446.32,-248.86 453.63,-241.19 443.13,-242.62 446.32,-248.86"/>
</g>
<!-- CleanFrameAtDetector&#45;&gt;TimeOfFlightOrigin -->
<g id="edge18" class="edge">
<title>CleanFrameAtDetector&#45;&gt;TimeOfFlightOrigin</title>
<path fill="none" stroke="black" d="M314.25,-206.62C314.25,-199.45 314.25,-190.76 314.25,-182.6"/>
<polygon fill="black" stroke="black" points="317.75,-182.78 314.25,-172.78 310.75,-182.78 317.75,-182.78"/>
</g>
<!-- Ltotal -->
<g id="node7" class="node">
<title>Ltotal</title>
<polygon fill="none" stroke="black" points="465.25,-374.12 407.25,-374.12 407.25,-348.88 465.25,-348.88 465.25,-374.12"/>
<text text-anchor="middle" x="436.25" y="-356.82" font-family="Times,serif" font-size="14.00">Ltotal</text>
</g>
<!-- Ltotal&#45;&gt;FrameAtDetector -->
<g id="edge11" class="edge">
<title>Ltotal&#45;&gt;FrameAtDetector</title>
<path fill="none" stroke="black" d="M421.77,-348.52C411.05,-339.65 396.11,-327.29 383.1,-316.54"/>
<polygon fill="black" stroke="black" points="385.58,-314.05 375.65,-310.37 381.12,-319.44 385.58,-314.05"/>
</g>
<!-- Ltotal&#45;&gt;CleanFrameAtDetector -->
<g id="edge5" class="edge">
<title>Ltotal&#45;&gt;CleanFrameAtDetector</title>
<path fill="none" stroke="black" d="M438.59,-348.58C441.34,-330.96 443.76,-297.7 428.25,-276 418.66,-262.58 404.72,-252.58 389.86,-245.17"/>
<polygon fill="black" stroke="black" points="391.4,-242.02 380.84,-241.07 388.49,-248.39 391.4,-242.02"/>
</g>
<!-- TofData -->
<g id="node18" class="node">
<title>TofData</title>
<polygon fill="none" stroke="black" points="619.5,-33 491,-33 491,0 619.5,0 619.5,-33"/>
<text text-anchor="start" x="527.5" y="-16.7" font-family="Times,serif" font-size="14.00">TofData</text>
<text text-anchor="start" x="499" y="-5.55" font-family="Times,serif" font-size="11.00">via:</text>
<text text-anchor="start" x="519.25" y="-5.55" font-family="Times,serif" font-style="italic" font-size="11.00">to_time_of_flight</text>
</g>
<!-- Ltotal&#45;&gt;TofData -->
<g id="edge21" class="edge">
<title>Ltotal&#45;&gt;TofData</title>
<path fill="none" stroke="black" d="M458.35,-348.48C492.77,-327.96 555.25,-282.7 555.25,-224.5 555.25,-224.5 555.25,-224.5 555.25,-153.5 555.25,-115.83 555.25,-72.28 555.25,-44.82"/>
<polygon fill="black" stroke="black" points="558.75,-44.93 555.25,-34.93 551.75,-44.93 558.75,-44.93"/>
</g>
<!-- FrameWrappedTimeOffset -->
<g id="node8" class="node">
<title>FrameWrappedTimeOffset</title>
<polygon fill="none" stroke="black" points="770.38,-240 566.12,-240 566.12,-207 770.38,-207 770.38,-240"/>
<text text-anchor="start" x="574.12" y="-223.7" font-family="Times,serif" font-size="14.00">FrameWrappedTimeOffset</text>
<text text-anchor="start" x="580.88" y="-212.55" font-family="Times,serif" font-size="11.00">via:</text>
<text text-anchor="start" x="601.12" y="-212.55" font-family="Times,serif" font-style="italic" font-size="11.00">frame_wrapped_time_offset</text>
</g>
<!-- DeltaFromWrapped -->
<g id="node9" class="node">
<title>DeltaFromWrapped</title>
<polygon fill="none" stroke="black" points="746.38,-171 590.12,-171 590.12,-138 746.38,-138 746.38,-171"/>
<text text-anchor="start" x="598.12" y="-154.7" font-family="Times,serif" font-size="14.00">DeltaFromWrapped</text>
<text text-anchor="start" x="599.62" y="-143.55" font-family="Times,serif" font-size="11.00">via:</text>
<text text-anchor="start" x="619.88" y="-143.55" font-family="Times,serif" font-style="italic" font-size="11.00">offset_from_wrapped</text>
</g>
<!-- FrameWrappedTimeOffset&#45;&gt;DeltaFromWrapped -->
<g id="edge7" class="edge">
<title>FrameWrappedTimeOffset&#45;&gt;DeltaFromWrapped</title>
<path fill="none" stroke="black" d="M668.25,-206.62C668.25,-199.45 668.25,-190.76 668.25,-182.6"/>
<polygon fill="black" stroke="black" points="671.75,-182.78 668.25,-172.78 664.75,-182.78 671.75,-182.78"/>
</g>
<!-- UnwrappedData -->
<g id="node17" class="node">
<title>UnwrappedData</title>
<polygon fill="none" stroke="black" points="734.75,-102 601.75,-102 601.75,-69 734.75,-69 734.75,-102"/>
<text text-anchor="start" x="609.75" y="-85.7" font-family="Times,serif" font-size="14.00">UnwrappedData</text>
<text text-anchor="start" x="622.12" y="-74.55" font-family="Times,serif" font-size="11.00">via:</text>
<text text-anchor="start" x="642.38" y="-74.55" font-family="Times,serif" font-style="italic" font-size="11.00">unwrap_data</text>
</g>
<!-- DeltaFromWrapped&#45;&gt;UnwrappedData -->
<g id="edge23" class="edge">
<title>DeltaFromWrapped&#45;&gt;UnwrappedData</title>
<path fill="none" stroke="black" d="M668.25,-137.62C668.25,-130.45 668.25,-121.76 668.25,-113.6"/>
<polygon fill="black" stroke="black" points="671.75,-113.78 668.25,-103.78 664.75,-113.78 671.75,-113.78"/>
</g>
<!-- FrameBounds&#45;&gt;DeltaFromWrapped -->
<g id="edge8" class="edge">
<title>FrameBounds&#45;&gt;DeltaFromWrapped</title>
<path fill="none" stroke="black" d="M529.38,-206.62C554.81,-197.26 587.21,-185.34 614.31,-175.36"/>
<polygon fill="black" stroke="black" points="615.2,-178.76 623.38,-172.02 612.78,-172.19 615.2,-178.76"/>
</g>
<!-- FramePeriod -->
<g id="node11" class="node">
<title>FramePeriod</title>
<polygon fill="none" stroke="black" points="941.5,-240 831,-240 831,-207 941.5,-207 941.5,-240"/>
<text text-anchor="start" x="840.12" y="-223.7" font-family="Times,serif" font-size="14.00">FramePeriod</text>
<text text-anchor="start" x="839" y="-212.55" font-family="Times,serif" font-size="11.00">via:</text>
<text text-anchor="start" x="859.25" y="-212.55" font-family="Times,serif" font-style="italic" font-size="11.00">frame_period</text>
</g>
<!-- FramePeriod&#45;&gt;DeltaFromWrapped -->
<g id="edge9" class="edge">
<title>FramePeriod&#45;&gt;DeltaFromWrapped</title>
<path fill="none" stroke="black" d="M834.31,-206.54C803.31,-197.01 763.73,-184.84 730.99,-174.78"/>
<polygon fill="black" stroke="black" points="732.2,-171.49 721.62,-171.9 730.15,-178.18 732.2,-171.49"/>
</g>
<!-- PulsePeriod -->
<g id="node12" class="node">
<title>PulsePeriod</title>
<polygon fill="none" stroke="black" points="1110.62,-305.12 1009.88,-305.12 1009.88,-279.88 1110.62,-279.88 1110.62,-305.12"/>
<text text-anchor="middle" x="1060.25" y="-287.82" font-family="Times,serif" font-size="14.00">PulsePeriod</text>
</g>
<!-- PulsePeriod&#45;&gt;FramePeriod -->
<g id="edge13" class="edge">
<title>PulsePeriod&#45;&gt;FramePeriod</title>
<path fill="none" stroke="black" d="M1029.14,-279.52C1003.9,-269.8 967.76,-255.89 938.14,-244.48"/>
<polygon fill="black" stroke="black" points="939.56,-241.28 928.97,-240.95 937.04,-247.81 939.56,-241.28"/>
</g>
<!-- Union[PulseStride, NoneType] -->
<g id="node13" class="node">
<title>Union[PulseStride, NoneType]</title>
<polygon fill="none" stroke="black" points="1003,-305.12 769.5,-305.12 769.5,-279.88 1003,-279.88 1003,-305.12"/>
<text text-anchor="middle" x="886.25" y="-287.82" font-family="Times,serif" font-size="14.00">Union[PulseStride, NoneType]</text>
</g>
<!-- Union[PulseStride, NoneType]&#45;&gt;FramePeriod -->
<g id="edge14" class="edge">
<title>Union[PulseStride, NoneType]&#45;&gt;FramePeriod</title>
<path fill="none" stroke="black" d="M886.25,-279.52C886.25,-271.71 886.25,-261.19 886.25,-251.43"/>
<polygon fill="black" stroke="black" points="889.75,-251.67 886.25,-241.67 882.75,-251.67 889.75,-251.67"/>
</g>
<!-- PulseWrappedTimeOffset -->
<g id="node14" class="node">
<title>PulseWrappedTimeOffset</title>
<polygon fill="none" stroke="black" points="762.62,-309 565.88,-309 565.88,-276 762.62,-276 762.62,-309"/>
<text text-anchor="start" x="573.88" y="-292.7" font-family="Times,serif" font-size="14.00">PulseWrappedTimeOffset</text>
<text text-anchor="start" x="578.38" y="-281.55" font-family="Times,serif" font-size="11.00">via:</text>
<text text-anchor="start" x="598.62" y="-281.55" font-family="Times,serif" font-style="italic" font-size="11.00">pulse_wrapped_time_offset</text>
</g>
<!-- PulseWrappedTimeOffset&#45;&gt;FrameWrappedTimeOffset -->
<g id="edge15" class="edge">
<title>PulseWrappedTimeOffset&#45;&gt;FrameWrappedTimeOffset</title>
<path fill="none" stroke="black" d="M665.2,-275.62C665.63,-268.45 666.14,-259.76 666.63,-251.6"/>
<polygon fill="black" stroke="black" points="670.12,-251.97 667.22,-241.77 663.13,-251.55 670.12,-251.97"/>
</g>
<!-- RawData -->
<g id="node15" class="node">
<title>RawData</title>
<polygon fill="none" stroke="black" points="932.5,-374.12 852,-374.12 852,-348.88 932.5,-348.88 932.5,-374.12"/>
<text text-anchor="middle" x="892.25" y="-356.82" font-family="Times,serif" font-size="14.00">RawData</text>
</g>
<!-- RawData&#45;&gt;PulseWrappedTimeOffset -->
<g id="edge16" class="edge">
<title>RawData&#45;&gt;PulseWrappedTimeOffset</title>
<path fill="none" stroke="black" d="M851.75,-348.6C817.83,-338.63 768.77,-324.22 729.35,-312.63"/>
<polygon fill="black" stroke="black" points="730.54,-309.33 719.96,-309.87 728.56,-316.05 730.54,-309.33"/>
</g>
<!-- RawData&#45;&gt;UnwrappedData -->
<g id="edge22" class="edge">
<title>RawData&#45;&gt;UnwrappedData</title>
<path fill="none" stroke="black" d="M932.88,-359.72C1008.01,-356.69 1157.14,-342.39 1113.25,-276 1031.46,-152.27 850.7,-109.07 746.47,-94.17"/>
<polygon fill="black" stroke="black" points="746.96,-90.71 736.58,-92.82 746.01,-97.64 746.96,-90.71"/>
</g>
<!-- TimeOfFlightOrigin&#45;&gt;TofData -->
<g id="edge20" class="edge">
<title>TimeOfFlightOrigin&#45;&gt;TofData</title>
<path fill="none" stroke="black" d="M342.37,-137.63C385.61,-113.23 468.5,-66.45 517.11,-39.02"/>
<polygon fill="black" stroke="black" points="518.63,-42.18 525.62,-34.22 515.19,-36.09 518.63,-42.18"/>
</g>
<!-- UnwrappedData&#45;&gt;TofData -->
<g id="edge19" class="edge">
<title>UnwrappedData&#45;&gt;TofData</title>
<path fill="none" stroke="black" d="M641.47,-68.62C626.66,-59.84 608.04,-48.8 591.9,-39.23"/>
<polygon fill="black" stroke="black" points="593.92,-36.36 583.53,-34.27 590.35,-42.38 593.92,-36.36"/>
</g>
</g>
</svg>
