<?xml version="1.0" encoding="utf-8" standalone="no"?>
<!DOCTYPE svg PUBLIC "-//W3C//DTD SVG 1.1//EN"
  "http://www.w3.org/Graphics/SVG/1.1/DTD/svg11.dtd">
<svg xmlns:xlink="http://www.w3.org/1999/xlink" width="395.328125pt" height="268.200625pt" viewBox="0 0 395.328125 268.200625" xmlns="http://www.w3.org/2000/svg" version="1.1">
 <metadata>
  <rdf:RDF xmlns:dc="http://purl.org/dc/elements/1.1/" xmlns:cc="http://creativecommons.org/ns#" xmlns:rdf="http://www.w3.org/1999/02/22-rdf-syntax-ns#">
   <cc:Work>
    <dc:type rdf:resource="http://purl.org/dc/dcmitype/StillImage"/>
    <dc:date>2025-01-20T13:49:54.113249</dc:date>
    <dc:format>image/svg+xml</dc:format>
    <dc:creator>
     <cc:Agent>
      <dc:title>Matplotlib v3.7.3, https://matplotlib.org/</dc:title>
     </cc:Agent>
    </dc:creator>
   </cc:Work>
  </rdf:RDF>
 </metadata>
 <defs>
  <style type="text/css">*{stroke-linejoin: round; stroke-linecap: butt}</style>
 </defs>
 <g id="figure_1">
  <g id="patch_1">
   <path d="M 0 268.200625 
L 395.328125 268.200625 
L 395.328125 0 
L 0 0 
z
" style="fill: #ffffff"/>
  </g>
  <g id="axes_1">
   <g id="patch_2">
    <path d="M 53.328125 228.96 
L 388.128125 228.96 
L 388.128125 7.2 
L 53.328125 7.2 
z
" style="fill: #ffffff"/>
   </g>
   <g id="matplotlib.axis_1">
    <g id="xtick_1">
     <g id="line2d_1">
      <defs>
       <path id="md6fc511b2e" d="M 0 0 
L 0 3.5 
" style="stroke: #000000; stroke-width: 0.8"/>
      </defs>
      <g>
       <use xlink:href="#md6fc511b2e" x="68.546307" y="228.96" style="stroke: #000000; stroke-width: 0.8"/>
      </g>
     </g>
     <g id="text_1">
      <!-- 2 -->
      <g transform="translate(65.365057 243.558437) scale(0.1 -0.1)">
       <defs>
        <path id="DejaVuSans-32" d="M 1228 531 
L 3431 531 
L 3431 0 
L 469 0 
L 469 531 
Q 828 903 1448 1529 
Q 2069 2156 2228 2338 
Q 2531 2678 2651 2914 
Q 2772 3150 2772 3378 
Q 2772 3750 2511 3984 
Q 2250 4219 1831 4219 
Q 1534 4219 1204 4116 
Q 875 4013 500 3803 
L 500 4441 
Q 881 4594 1212 4672 
Q 1544 4750 1819 4750 
Q 2544 4750 2975 4387 
Q 3406 4025 3406 3419 
Q 3406 3131 3298 2873 
Q 3191 2616 2906 2266 
Q 2828 2175 2409 1742 
Q 1991 1309 1228 531 
z
" transform="scale(0.015625)"/>
       </defs>
       <use xlink:href="#DejaVuSans-32"/>
      </g>
     </g>
    </g>
    <g id="xtick_2">
     <g id="line2d_2">
      <g>
       <use xlink:href="#md6fc511b2e" x="129.419034" y="228.96" style="stroke: #000000; stroke-width: 0.8"/>
      </g>
     </g>
     <g id="text_2">
      <!-- 4 -->
      <g transform="translate(126.237784 243.558437) scale(0.1 -0.1)">
       <defs>
        <path id="DejaVuSans-34" d="M 2419 4116 
L 825 1625 
L 2419 1625 
L 2419 4116 
z
M 2253 4666 
L 3047 4666 
L 3047 1625 
L 3713 1625 
L 3713 1100 
L 3047 1100 
L 3047 0 
L 2419 0 
L 2419 1100 
L 313 1100 
L 313 1709 
L 2253 4666 
z
" transform="scale(0.015625)"/>
       </defs>
       <use xlink:href="#DejaVuSans-34"/>
      </g>
     </g>
    </g>
    <g id="xtick_3">
     <g id="line2d_3">
      <g>
       <use xlink:href="#md6fc511b2e" x="190.291761" y="228.96" style="stroke: #000000; stroke-width: 0.8"/>
      </g>
     </g>
     <g id="text_3">
      <!-- 6 -->
      <g transform="translate(187.110511 243.558437) scale(0.1 -0.1)">
       <defs>
        <path id="DejaVuSans-36" d="M 2113 2584 
Q 1688 2584 1439 2293 
Q 1191 2003 1191 1497 
Q 1191 994 1439 701 
Q 1688 409 2113 409 
Q 2538 409 2786 701 
Q 3034 994 3034 1497 
Q 3034 2003 2786 2293 
Q 2538 2584 2113 2584 
z
M 3366 4563 
L 3366 3988 
Q 3128 4100 2886 4159 
Q 2644 4219 2406 4219 
Q 1781 4219 1451 3797 
Q 1122 3375 1075 2522 
Q 1259 2794 1537 2939 
Q 1816 3084 2150 3084 
Q 2853 3084 3261 2657 
Q 3669 2231 3669 1497 
Q 3669 778 3244 343 
Q 2819 -91 2113 -91 
Q 1303 -91 875 529 
Q 447 1150 447 2328 
Q 447 3434 972 4092 
Q 1497 4750 2381 4750 
Q 2619 4750 2861 4703 
Q 3103 4656 3366 4563 
z
" transform="scale(0.015625)"/>
       </defs>
       <use xlink:href="#DejaVuSans-36"/>
      </g>
     </g>
    </g>
    <g id="xtick_4">
     <g id="line2d_4">
      <g>
       <use xlink:href="#md6fc511b2e" x="251.164489" y="228.96" style="stroke: #000000; stroke-width: 0.8"/>
      </g>
     </g>
     <g id="text_4">
      <!-- 8 -->
      <g transform="translate(247.983239 243.558437) scale(0.1 -0.1)">
       <defs>
        <path id="DejaVuSans-38" d="M 2034 2216 
Q 1584 2216 1326 1975 
Q 1069 1734 1069 1313 
Q 1069 891 1326 650 
Q 1584 409 2034 409 
Q 2484 409 2743 651 
Q 3003 894 3003 1313 
Q 3003 1734 2745 1975 
Q 2488 2216 2034 2216 
z
M 1403 2484 
Q 997 2584 770 2862 
Q 544 3141 544 3541 
Q 544 4100 942 4425 
Q 1341 4750 2034 4750 
Q 2731 4750 3128 4425 
Q 3525 4100 3525 3541 
Q 3525 3141 3298 2862 
Q 3072 2584 2669 2484 
Q 3125 2378 3379 2068 
Q 3634 1759 3634 1313 
Q 3634 634 3220 271 
Q 2806 -91 2034 -91 
Q 1263 -91 848 271 
Q 434 634 434 1313 
Q 434 1759 690 2068 
Q 947 2378 1403 2484 
z
M 1172 3481 
Q 1172 3119 1398 2916 
Q 1625 2713 2034 2713 
Q 2441 2713 2670 2916 
Q 2900 3119 2900 3481 
Q 2900 3844 2670 4047 
Q 2441 4250 2034 4250 
Q 1625 4250 1398 4047 
Q 1172 3844 1172 3481 
z
" transform="scale(0.015625)"/>
       </defs>
       <use xlink:href="#DejaVuSans-38"/>
      </g>
     </g>
    </g>
    <g id="xtick_5">
     <g id="line2d_5">
      <g>
       <use xlink:href="#md6fc511b2e" x="312.037216" y="228.96" style="stroke: #000000; stroke-width: 0.8"/>
      </g>
     </g>
     <g id="text_5">
      <!-- 10 -->
      <g transform="translate(305.674716 243.558437) scale(0.1 -0.1)">
       <defs>
        <path id="DejaVuSans-31" d="M 794 531 
L 1825 531 
L 1825 4091 
L 703 3866 
L 703 4441 
L 1819 4666 
L 2450 4666 
L 2450 531 
L 3481 531 
L 3481 0 
L 794 0 
L 794 531 
z
" transform="scale(0.015625)"/>
        <path id="DejaVuSans-30" d="M 2034 4250 
Q 1547 4250 1301 3770 
Q 1056 3291 1056 2328 
Q 1056 1369 1301 889 
Q 1547 409 2034 409 
Q 2525 409 2770 889 
Q 3016 1369 3016 2328 
Q 3016 3291 2770 3770 
Q 2525 4250 2034 4250 
z
M 2034 4750 
Q 2819 4750 3233 4129 
Q 3647 3509 3647 2328 
Q 3647 1150 3233 529 
Q 2819 -91 2034 -91 
Q 1250 -91 836 529 
Q 422 1150 422 2328 
Q 422 3509 836 4129 
Q 1250 4750 2034 4750 
z
" transform="scale(0.015625)"/>
       </defs>
       <use xlink:href="#DejaVuSans-31"/>
       <use xlink:href="#DejaVuSans-30" x="63.623047"/>
      </g>
     </g>
    </g>
    <g id="xtick_6">
     <g id="line2d_6">
      <g>
       <use xlink:href="#md6fc511b2e" x="372.909943" y="228.96" style="stroke: #000000; stroke-width: 0.8"/>
      </g>
     </g>
     <g id="text_6">
      <!-- 12 -->
      <g transform="translate(366.547443 243.558437) scale(0.1 -0.1)">
       <use xlink:href="#DejaVuSans-31"/>
       <use xlink:href="#DejaVuSans-32" x="63.623047"/>
      </g>
     </g>
    </g>
    <g id="text_7">
     <!-- wavelength [Å] -->
     <g transform="translate(182.690625 258.920937) scale(0.1 -0.1)">
      <defs>
       <path id="DejaVuSans-77" d="M 269 3500 
L 844 3500 
L 1563 769 
L 2278 3500 
L 2956 3500 
L 3675 769 
L 4391 3500 
L 4966 3500 
L 4050 0 
L 3372 0 
L 2619 2869 
L 1863 0 
L 1184 0 
L 269 3500 
z
" transform="scale(0.015625)"/>
       <path id="DejaVuSans-61" d="M 2194 1759 
Q 1497 1759 1228 1600 
Q 959 1441 959 1056 
Q 959 750 1161 570 
Q 1363 391 1709 391 
Q 2188 391 2477 730 
Q 2766 1069 2766 1631 
L 2766 1759 
L 2194 1759 
z
M 3341 1997 
L 3341 0 
L 2766 0 
L 2766 531 
Q 2569 213 2275 61 
Q 1981 -91 1556 -91 
Q 1019 -91 701 211 
Q 384 513 384 1019 
Q 384 1609 779 1909 
Q 1175 2209 1959 2209 
L 2766 2209 
L 2766 2266 
Q 2766 2663 2505 2880 
Q 2244 3097 1772 3097 
Q 1472 3097 1187 3025 
Q 903 2953 641 2809 
L 641 3341 
Q 956 3463 1253 3523 
Q 1550 3584 1831 3584 
Q 2591 3584 2966 3190 
Q 3341 2797 3341 1997 
z
" transform="scale(0.015625)"/>
       <path id="DejaVuSans-76" d="M 191 3500 
L 800 3500 
L 1894 563 
L 2988 3500 
L 3597 3500 
L 2284 0 
L 1503 0 
L 191 3500 
z
" transform="scale(0.015625)"/>
       <path id="DejaVuSans-65" d="M 3597 1894 
L 3597 1613 
L 953 1613 
Q 991 1019 1311 708 
Q 1631 397 2203 397 
Q 2534 397 2845 478 
Q 3156 559 3463 722 
L 3463 178 
Q 3153 47 2828 -22 
Q 2503 -91 2169 -91 
Q 1331 -91 842 396 
Q 353 884 353 1716 
Q 353 2575 817 3079 
Q 1281 3584 2069 3584 
Q 2775 3584 3186 3129 
Q 3597 2675 3597 1894 
z
M 3022 2063 
Q 3016 2534 2758 2815 
Q 2500 3097 2075 3097 
Q 1594 3097 1305 2825 
Q 1016 2553 972 2059 
L 3022 2063 
z
" transform="scale(0.015625)"/>
       <path id="DejaVuSans-6c" d="M 603 4863 
L 1178 4863 
L 1178 0 
L 603 0 
L 603 4863 
z
" transform="scale(0.015625)"/>
       <path id="DejaVuSans-6e" d="M 3513 2113 
L 3513 0 
L 2938 0 
L 2938 2094 
Q 2938 2591 2744 2837 
Q 2550 3084 2163 3084 
Q 1697 3084 1428 2787 
Q 1159 2491 1159 1978 
L 1159 0 
L 581 0 
L 581 3500 
L 1159 3500 
L 1159 2956 
Q 1366 3272 1645 3428 
Q 1925 3584 2291 3584 
Q 2894 3584 3203 3211 
Q 3513 2838 3513 2113 
z
" transform="scale(0.015625)"/>
       <path id="DejaVuSans-67" d="M 2906 1791 
Q 2906 2416 2648 2759 
Q 2391 3103 1925 3103 
Q 1463 3103 1205 2759 
Q 947 2416 947 1791 
Q 947 1169 1205 825 
Q 1463 481 1925 481 
Q 2391 481 2648 825 
Q 2906 1169 2906 1791 
z
M 3481 434 
Q 3481 -459 3084 -895 
Q 2688 -1331 1869 -1331 
Q 1566 -1331 1297 -1286 
Q 1028 -1241 775 -1147 
L 775 -588 
Q 1028 -725 1275 -790 
Q 1522 -856 1778 -856 
Q 2344 -856 2625 -561 
Q 2906 -266 2906 331 
L 2906 616 
Q 2728 306 2450 153 
Q 2172 0 1784 0 
Q 1141 0 747 490 
Q 353 981 353 1791 
Q 353 2603 747 3093 
Q 1141 3584 1784 3584 
Q 2172 3584 2450 3431 
Q 2728 3278 2906 2969 
L 2906 3500 
L 3481 3500 
L 3481 434 
z
" transform="scale(0.015625)"/>
       <path id="DejaVuSans-74" d="M 1172 4494 
L 1172 3500 
L 2356 3500 
L 2356 3053 
L 1172 3053 
L 1172 1153 
Q 1172 725 1289 603 
Q 1406 481 1766 481 
L 2356 481 
L 2356 0 
L 1766 0 
Q 1100 0 847 248 
Q 594 497 594 1153 
L 594 3053 
L 172 3053 
L 172 3500 
L 594 3500 
L 594 4494 
L 1172 4494 
z
" transform="scale(0.015625)"/>
       <path id="DejaVuSans-68" d="M 3513 2113 
L 3513 0 
L 2938 0 
L 2938 2094 
Q 2938 2591 2744 2837 
Q 2550 3084 2163 3084 
Q 1697 3084 1428 2787 
Q 1159 2491 1159 1978 
L 1159 0 
L 581 0 
L 581 4863 
L 1159 4863 
L 1159 2956 
Q 1366 3272 1645 3428 
Q 1925 3584 2291 3584 
Q 2894 3584 3203 3211 
Q 3513 2838 3513 2113 
z
" transform="scale(0.015625)"/>
       <path id="DejaVuSans-20" transform="scale(0.015625)"/>
       <path id="DejaVuSans-5b" d="M 550 4863 
L 1875 4863 
L 1875 4416 
L 1125 4416 
L 1125 -397 
L 1875 -397 
L 1875 -844 
L 550 -844 
L 550 4863 
z
" transform="scale(0.015625)"/>
       <path id="DejaVuSans-c5" d="M 2663 5081 
Q 2663 5278 2523 5417 
Q 2384 5556 2188 5556 
Q 1988 5556 1852 5420 
Q 1716 5284 1716 5081 
Q 1716 4884 1853 4746 
Q 1991 4609 2188 4609 
Q 2384 4609 2523 4746 
Q 2663 4884 2663 5081 
z
M 2188 4044 
L 1338 1722 
L 3041 1722 
L 2188 4044 
z
M 1716 4366 
Q 1525 4494 1428 4673 
Q 1331 4853 1331 5081 
Q 1331 5441 1579 5691 
Q 1828 5941 2188 5941 
Q 2544 5941 2795 5689 
Q 3047 5438 3047 5081 
Q 3047 4863 2948 4678 
Q 2850 4494 2663 4366 
L 4325 0 
L 3669 0 
L 3244 1197 
L 1141 1197 
L 716 0 
L 50 0 
L 1716 4366 
z
" transform="scale(0.015625)"/>
       <path id="DejaVuSans-5d" d="M 1947 4863 
L 1947 -844 
L 622 -844 
L 622 -397 
L 1369 -397 
L 1369 4416 
L 622 4416 
L 622 4863 
L 1947 4863 
z
" transform="scale(0.015625)"/>
      </defs>
      <use xlink:href="#DejaVuSans-77"/>
      <use xlink:href="#DejaVuSans-61" x="81.787109"/>
      <use xlink:href="#DejaVuSans-76" x="143.066406"/>
      <use xlink:href="#DejaVuSans-65" x="202.246094"/>
      <use xlink:href="#DejaVuSans-6c" x="263.769531"/>
      <use xlink:href="#DejaVuSans-65" x="291.552734"/>
      <use xlink:href="#DejaVuSans-6e" x="353.076172"/>
      <use xlink:href="#DejaVuSans-67" x="416.455078"/>
      <use xlink:href="#DejaVuSans-74" x="479.931641"/>
      <use xlink:href="#DejaVuSans-68" x="519.140625"/>
      <use xlink:href="#DejaVuSans-20" x="582.519531"/>
      <use xlink:href="#DejaVuSans-5b" x="614.306641"/>
      <use xlink:href="#DejaVuSans-c5" x="653.320312"/>
      <use xlink:href="#DejaVuSans-5d" x="721.728516"/>
     </g>
    </g>
   </g>
   <g id="matplotlib.axis_2">
    <g id="ytick_1">
     <g id="line2d_7">
      <defs>
       <path id="m0f8b837ffc" d="M 0 0 
L -3.5 0 
" style="stroke: #000000; stroke-width: 0.8"/>
      </defs>
      <g>
       <use xlink:href="#m0f8b837ffc" x="53.328125" y="218.88" style="stroke: #000000; stroke-width: 0.8"/>
      </g>
     </g>
     <g id="text_8">
      <!-- 0 -->
      <g transform="translate(39.965625 222.679219) scale(0.1 -0.1)">
       <use xlink:href="#DejaVuSans-30"/>
      </g>
     </g>
    </g>
    <g id="ytick_2">
     <g id="line2d_8">
      <g>
       <use xlink:href="#m0f8b837ffc" x="53.328125" y="178.680598" style="stroke: #000000; stroke-width: 0.8"/>
      </g>
     </g>
     <g id="text_9">
      <!-- 200 -->
      <g transform="translate(27.240625 182.479817) scale(0.1 -0.1)">
       <use xlink:href="#DejaVuSans-32"/>
       <use xlink:href="#DejaVuSans-30" x="63.623047"/>
       <use xlink:href="#DejaVuSans-30" x="127.246094"/>
      </g>
     </g>
    </g>
    <g id="ytick_3">
     <g id="line2d_9">
      <g>
       <use xlink:href="#m0f8b837ffc" x="53.328125" y="138.481196" style="stroke: #000000; stroke-width: 0.8"/>
      </g>
     </g>
     <g id="text_10">
      <!-- 400 -->
      <g transform="translate(27.240625 142.280415) scale(0.1 -0.1)">
       <use xlink:href="#DejaVuSans-34"/>
       <use xlink:href="#DejaVuSans-30" x="63.623047"/>
       <use xlink:href="#DejaVuSans-30" x="127.246094"/>
      </g>
     </g>
    </g>
    <g id="ytick_4">
     <g id="line2d_10">
      <g>
       <use xlink:href="#m0f8b837ffc" x="53.328125" y="98.281795" style="stroke: #000000; stroke-width: 0.8"/>
      </g>
     </g>
     <g id="text_11">
      <!-- 600 -->
      <g transform="translate(27.240625 102.081013) scale(0.1 -0.1)">
       <use xlink:href="#DejaVuSans-36"/>
       <use xlink:href="#DejaVuSans-30" x="63.623047"/>
       <use xlink:href="#DejaVuSans-30" x="127.246094"/>
      </g>
     </g>
    </g>
    <g id="ytick_5">
     <g id="line2d_11">
      <g>
       <use xlink:href="#m0f8b837ffc" x="53.328125" y="58.082393" style="stroke: #000000; stroke-width: 0.8"/>
      </g>
     </g>
     <g id="text_12">
      <!-- 800 -->
      <g transform="translate(27.240625 61.881612) scale(0.1 -0.1)">
       <use xlink:href="#DejaVuSans-38"/>
       <use xlink:href="#DejaVuSans-30" x="63.623047"/>
       <use xlink:href="#DejaVuSans-30" x="127.246094"/>
      </g>
     </g>
    </g>
    <g id="ytick_6">
     <g id="line2d_12">
      <g>
       <use xlink:href="#m0f8b837ffc" x="53.328125" y="17.882991" style="stroke: #000000; stroke-width: 0.8"/>
      </g>
     </g>
     <g id="text_13">
      <!-- 1000 -->
      <g transform="translate(20.878125 21.68221) scale(0.1 -0.1)">
       <use xlink:href="#DejaVuSans-31"/>
       <use xlink:href="#DejaVuSans-30" x="63.623047"/>
       <use xlink:href="#DejaVuSans-30" x="127.246094"/>
       <use xlink:href="#DejaVuSans-30" x="190.869141"/>
      </g>
     </g>
    </g>
    <g id="text_14">
     <!-- [counts] -->
     <g transform="translate(14.798438 138.6925) rotate(-90) scale(0.1 -0.1)">
      <defs>
       <path id="DejaVuSans-63" d="M 3122 3366 
L 3122 2828 
Q 2878 2963 2633 3030 
Q 2388 3097 2138 3097 
Q 1578 3097 1268 2742 
Q 959 2388 959 1747 
Q 959 1106 1268 751 
Q 1578 397 2138 397 
Q 2388 397 2633 464 
Q 2878 531 3122 666 
L 3122 134 
Q 2881 22 2623 -34 
Q 2366 -91 2075 -91 
Q 1284 -91 818 406 
Q 353 903 353 1747 
Q 353 2603 823 3093 
Q 1294 3584 2113 3584 
Q 2378 3584 2631 3529 
Q 2884 3475 3122 3366 
z
" transform="scale(0.015625)"/>
       <path id="DejaVuSans-6f" d="M 1959 3097 
Q 1497 3097 1228 2736 
Q 959 2375 959 1747 
Q 959 1119 1226 758 
Q 1494 397 1959 397 
Q 2419 397 2687 759 
Q 2956 1122 2956 1747 
Q 2956 2369 2687 2733 
Q 2419 3097 1959 3097 
z
M 1959 3584 
Q 2709 3584 3137 3096 
Q 3566 2609 3566 1747 
Q 3566 888 3137 398 
Q 2709 -91 1959 -91 
Q 1206 -91 779 398 
Q 353 888 353 1747 
Q 353 2609 779 3096 
Q 1206 3584 1959 3584 
z
" transform="scale(0.015625)"/>
       <path id="DejaVuSans-75" d="M 544 1381 
L 544 3500 
L 1119 3500 
L 1119 1403 
Q 1119 906 1312 657 
Q 1506 409 1894 409 
Q 2359 409 2629 706 
Q 2900 1003 2900 1516 
L 2900 3500 
L 3475 3500 
L 3475 0 
L 2900 0 
L 2900 538 
Q 2691 219 2414 64 
Q 2138 -91 1772 -91 
Q 1169 -91 856 284 
Q 544 659 544 1381 
z
M 1991 3584 
L 1991 3584 
z
" transform="scale(0.015625)"/>
       <path id="DejaVuSans-73" d="M 2834 3397 
L 2834 2853 
Q 2591 2978 2328 3040 
Q 2066 3103 1784 3103 
Q 1356 3103 1142 2972 
Q 928 2841 928 2578 
Q 928 2378 1081 2264 
Q 1234 2150 1697 2047 
L 1894 2003 
Q 2506 1872 2764 1633 
Q 3022 1394 3022 966 
Q 3022 478 2636 193 
Q 2250 -91 1575 -91 
Q 1294 -91 989 -36 
Q 684 19 347 128 
L 347 722 
Q 666 556 975 473 
Q 1284 391 1588 391 
Q 1994 391 2212 530 
Q 2431 669 2431 922 
Q 2431 1156 2273 1281 
Q 2116 1406 1581 1522 
L 1381 1569 
Q 847 1681 609 1914 
Q 372 2147 372 2553 
Q 372 3047 722 3315 
Q 1072 3584 1716 3584 
Q 2034 3584 2315 3537 
Q 2597 3491 2834 3397 
z
" transform="scale(0.015625)"/>
      </defs>
      <use xlink:href="#DejaVuSans-5b"/>
      <use xlink:href="#DejaVuSans-63" x="39.013672"/>
      <use xlink:href="#DejaVuSans-6f" x="93.994141"/>
      <use xlink:href="#DejaVuSans-75" x="155.175781"/>
      <use xlink:href="#DejaVuSans-6e" x="218.554688"/>
      <use xlink:href="#DejaVuSans-74" x="281.933594"/>
      <use xlink:href="#DejaVuSans-73" x="321.142578"/>
      <use xlink:href="#DejaVuSans-5d" x="373.242188"/>
     </g>
    </g>
   </g>
   <g id="patch_3">
    <path d="M 53.328125 228.96 
L 53.328125 7.2 
" style="fill: none; stroke: #000000; stroke-width: 0.8; stroke-linejoin: miter; stroke-linecap: square"/>
   </g>
   <g id="patch_4">
    <path d="M 388.128125 228.96 
L 388.128125 7.2 
" style="fill: none; stroke: #000000; stroke-width: 0.8; stroke-linejoin: miter; stroke-linecap: square"/>
   </g>
   <g id="patch_5">
    <path d="M 53.328125 228.96 
L 388.128125 228.96 
" style="fill: none; stroke: #000000; stroke-width: 0.8; stroke-linejoin: miter; stroke-linecap: square"/>
   </g>
   <g id="patch_6">
    <path d="M 53.328125 7.2 
L 388.128125 7.2 
" style="fill: none; stroke: #000000; stroke-width: 0.8; stroke-linejoin: miter; stroke-linecap: square"/>
   </g>
   <g id="legend_1">
    <g id="patch_7">
     <path d="M 327.689062 44.55625 
L 381.128125 44.55625 
Q 383.128125 44.55625 383.128125 42.55625 
L 383.128125 14.2 
Q 383.128125 12.2 381.128125 12.2 
L 327.689062 12.2 
Q 325.689062 12.2 325.689062 14.2 
L 325.689062 42.55625 
Q 325.689062 44.55625 327.689062 44.55625 
z
" style="fill: #ffffff; opacity: 0.8; stroke: #cccccc; stroke-linejoin: miter"/>
    </g>
    <g id="line2d_13">
     <path d="M 329.689062 20.298438 
L 329.689062 20.298438 
L 339.689062 20.298438 
L 339.689062 20.298438 
L 349.689062 20.298438 
" style="fill: none; stroke: #1f77b4; stroke-width: 1.5; stroke-linecap: square"/>
    </g>
    <g id="text_15">
     <!-- wfm -->
     <g transform="translate(357.689062 23.798438) scale(0.1 -0.1)">
      <defs>
       <path id="DejaVuSans-66" d="M 2375 4863 
L 2375 4384 
L 1825 4384 
Q 1516 4384 1395 4259 
Q 1275 4134 1275 3809 
L 1275 3500 
L 2222 3500 
L 2222 3053 
L 1275 3053 
L 1275 0 
L 697 0 
L 697 3053 
L 147 3053 
L 147 3500 
L 697 3500 
L 697 3744 
Q 697 4328 969 4595 
Q 1241 4863 1831 4863 
L 2375 4863 
z
" transform="scale(0.015625)"/>
       <path id="DejaVuSans-6d" d="M 3328 2828 
Q 3544 3216 3844 3400 
Q 4144 3584 4550 3584 
Q 5097 3584 5394 3201 
Q 5691 2819 5691 2113 
L 5691 0 
L 5113 0 
L 5113 2094 
Q 5113 2597 4934 2840 
Q 4756 3084 4391 3084 
Q 3944 3084 3684 2787 
Q 3425 2491 3425 1978 
L 3425 0 
L 2847 0 
L 2847 2094 
Q 2847 2600 2669 2842 
Q 2491 3084 2119 3084 
Q 1678 3084 1418 2786 
Q 1159 2488 1159 1978 
L 1159 0 
L 581 0 
L 581 3500 
L 1159 3500 
L 1159 2956 
Q 1356 3278 1631 3431 
Q 1906 3584 2284 3584 
Q 2666 3584 2933 3390 
Q 3200 3197 3328 2828 
z
" transform="scale(0.015625)"/>
      </defs>
      <use xlink:href="#DejaVuSans-77"/>
      <use xlink:href="#DejaVuSans-66" x="81.787109"/>
      <use xlink:href="#DejaVuSans-6d" x="116.992188"/>
     </g>
    </g>
    <g id="line2d_14">
     <path d="M 329.689062 34.976562 
L 329.689062 34.976562 
L 339.689062 34.976562 
L 339.689062 34.976562 
L 349.689062 34.976562 
" style="fill: none; stroke: #ff7f0e; stroke-width: 1.5; stroke-linecap: square"/>
    </g>
    <g id="text_16">
     <!-- true -->
     <g transform="translate(357.689062 38.476562) scale(0.1 -0.1)">
      <defs>
       <path id="DejaVuSans-72" d="M 2631 2963 
Q 2534 3019 2420 3045 
Q 2306 3072 2169 3072 
Q 1681 3072 1420 2755 
Q 1159 2438 1159 1844 
L 1159 0 
L 581 0 
L 581 3500 
L 1159 3500 
L 1159 2956 
Q 1341 3275 1631 3429 
Q 1922 3584 2338 3584 
Q 2397 3584 2469 3576 
Q 2541 3569 2628 3553 
L 2631 2963 
z
" transform="scale(0.015625)"/>
      </defs>
      <use xlink:href="#DejaVuSans-74"/>
      <use xlink:href="#DejaVuSans-72" x="39.208984"/>
      <use xlink:href="#DejaVuSans-75" x="80.322266"/>
      <use xlink:href="#DejaVuSans-65" x="143.701172"/>
     </g>
    </g>
   </g>
   <g id="line2d_15">
    <path d="M 68.546307 218.88 
L 83.00358 218.88 
L 83.00358 218.277009 
L 83.764489 218.277009 
L 83.764489 217.875015 
L 84.525398 217.875015 
L 84.525398 214.056072 
L 85.286307 214.056072 
L 85.286307 210.84012 
L 86.047216 210.84012 
L 86.047216 209.835135 
L 86.808125 209.835135 
L 86.808125 200.991266 
L 87.569034 200.991266 
L 87.569034 205.815194 
L 88.329943 205.815194 
L 88.329943 197.976311 
L 89.090852 197.976311 
L 89.090852 203.40323 
L 89.851761 203.40323 
L 89.851761 194.559362 
L 90.61267 194.559362 
L 90.61267 193.956371 
L 91.37358 193.956371 
L 91.37358 189.132443 
L 92.134489 189.132443 
L 92.134489 186.720479 
L 92.895398 186.720479 
L 92.895398 180.891565 
L 93.656307 180.891565 
L 93.656307 175.464646 
L 94.417216 175.464646 
L 94.417216 165.81679 
L 95.178125 165.81679 
L 95.178125 159.183888 
L 95.939034 159.183888 
L 95.939034 144.511107 
L 96.699943 144.511107 
L 96.699943 133.657268 
L 97.460852 133.657268 
L 97.460852 128.431346 
L 98.221761 128.431346 
L 98.221761 111.3466 
L 98.98267 111.3466 
L 98.98267 105.919681 
L 99.74358 105.919681 
L 99.74358 91.045902 
L 100.504489 91.045902 
L 100.504489 83.408016 
L 101.265398 83.408016 
L 101.265398 71.348195 
L 102.026307 71.348195 
L 102.026307 60.695354 
L 102.787216 60.695354 
L 102.787216 57.881396 
L 103.548125 57.881396 
L 103.548125 54.062453 
L 104.309034 54.062453 
L 104.309034 38.585683 
L 105.069943 38.585683 
L 105.069943 42.002632 
L 105.830852 42.002632 
L 105.830852 22.505922 
L 106.591761 22.505922 
L 106.591761 27.932841 
L 107.35267 27.932841 
L 107.35267 22.907916 
L 108.11358 22.907916 
L 108.11358 28.133838 
L 108.874489 28.133838 
L 108.874489 43.208614 
L 109.635398 43.208614 
L 109.635398 43.610608 
L 110.396307 43.610608 
L 110.396307 50.645503 
L 111.157216 50.645503 
L 111.157216 45.620578 
L 111.918125 45.620578 
L 111.918125 55.871426 
L 112.679034 55.871426 
L 112.679034 59.891366 
L 113.439943 59.891366 
L 113.439943 61.499342 
L 114.200852 61.499342 
L 114.200852 64.514297 
L 114.961761 64.514297 
L 114.961761 60.695354 
L 115.72267 60.695354 
L 115.72267 71.348195 
L 116.48358 71.348195 
L 116.48358 66.926261 
L 117.244489 66.926261 
L 117.244489 81.80004 
L 118.005398 81.80004 
L 118.005398 77.177109 
L 118.766307 77.177109 
L 118.766307 65.519282 
L 119.527216 65.519282 
L 119.527216 92.653878 
L 120.288125 92.653878 
L 120.288125 94.060857 
L 121.049034 94.060857 
L 121.049034 87.427956 
L 121.809943 87.427956 
L 121.809943 86.221974 
L 122.570852 86.221974 
L 122.570852 91.447896 
L 123.331761 91.447896 
L 123.331761 100.291765 
L 124.09267 100.291765 
L 124.09267 88.633938 
L 124.85358 88.633938 
L 124.85358 102.301735 
L 125.614489 102.301735 
L 125.614489 106.723669 
L 126.375398 106.723669 
L 126.375398 105.718684 
L 127.136307 105.718684 
L 127.136307 114.160558 
L 127.897216 114.160558 
L 127.897216 111.949591 
L 128.658125 111.949591 
L 128.658125 114.562552 
L 129.419034 114.562552 
L 129.419034 120.79346 
L 130.179943 120.79346 
L 130.179943 119.989472 
L 130.940852 119.989472 
L 130.940852 115.165543 
L 131.701761 115.165543 
L 131.701761 113.758564 
L 132.46267 113.758564 
L 132.46267 118.381496 
L 133.22358 118.381496 
L 133.22358 153.957966 
L 133.984489 153.957966 
L 133.984489 178.479601 
L 134.745398 178.479601 
L 134.745398 198.378305 
L 135.506307 198.378305 
L 135.506307 212.247099 
L 136.267216 212.247099 
L 136.267216 209.433141 
L 137.028125 209.433141 
L 137.028125 207.42317 
L 137.789034 207.42317 
L 137.789034 207.222173 
L 138.549943 207.222173 
L 138.549943 207.624167 
L 139.310852 207.624167 
L 139.310852 199.986281 
L 140.071761 199.986281 
L 140.071761 199.785284 
L 140.83267 199.785284 
L 140.83267 198.378305 
L 141.59358 198.378305 
L 141.59358 193.554377 
L 142.354489 193.554377 
L 142.354489 190.740419 
L 143.115398 190.740419 
L 143.115398 184.710508 
L 143.876307 184.710508 
L 143.876307 182.700538 
L 144.637216 182.700538 
L 144.637216 182.097547 
L 145.398125 182.097547 
L 145.398125 181.494556 
L 146.159034 181.494556 
L 146.159034 170.439721 
L 146.919943 170.439721 
L 146.919943 171.243709 
L 147.680852 171.243709 
L 147.680852 164.208814 
L 148.441761 164.208814 
L 148.441761 161.997846 
L 149.20267 161.997846 
L 149.20267 165.615793 
L 149.96358 165.615793 
L 149.96358 163.80682 
L 150.724489 163.80682 
L 150.724489 157.173918 
L 151.485398 157.173918 
L 151.485398 154.560957 
L 152.246307 154.560957 
L 152.246307 159.987876 
L 153.007216 159.987876 
L 153.007216 150.943011 
L 153.768125 150.943011 
L 153.768125 159.384885 
L 154.529034 159.384885 
L 154.529034 156.771924 
L 155.289943 156.771924 
L 155.289943 164.811805 
L 156.050852 164.811805 
L 156.050852 162.600837 
L 156.811761 162.600837 
L 156.811761 161.595852 
L 157.57267 161.595852 
L 157.57267 162.801834 
L 158.33358 162.801834 
L 158.33358 167.625763 
L 159.094489 167.625763 
L 159.094489 161.997846 
L 159.855398 161.997846 
L 159.855398 170.841715 
L 160.616307 170.841715 
L 160.616307 162.39984 
L 161.377216 162.39984 
L 161.377216 169.83673 
L 162.138125 169.83673 
L 162.138125 172.650688 
L 162.899034 172.650688 
L 162.899034 170.640718 
L 163.659943 170.640718 
L 163.659943 173.655673 
L 164.420852 173.655673 
L 164.420852 169.635733 
L 165.181761 169.635733 
L 165.181761 169.83673 
L 165.94267 169.83673 
L 165.94267 172.851685 
L 166.70358 172.851685 
L 166.70358 169.635733 
L 167.464489 169.635733 
L 167.464489 175.86664 
L 168.225398 175.86664 
L 168.225398 176.067637 
L 168.986307 176.067637 
L 168.986307 173.454676 
L 169.747216 173.454676 
L 169.747216 175.263649 
L 170.508125 175.263649 
L 170.508125 182.901535 
L 171.269034 182.901535 
L 171.269034 175.665643 
L 172.029943 175.665643 
L 172.029943 184.509511 
L 172.790852 184.509511 
L 172.790852 182.097547 
L 173.551761 182.097547 
L 173.551761 180.489571 
L 174.31267 180.489571 
L 174.31267 183.102532 
L 175.07358 183.102532 
L 175.07358 182.298544 
L 175.834489 182.298544 
L 175.834489 182.901535 
L 176.595398 182.901535 
L 176.595398 185.112502 
L 177.356307 185.112502 
L 177.356307 180.087577 
L 178.117216 180.087577 
L 178.117216 181.89655 
L 178.878125 181.89655 
L 178.878125 190.740419 
L 179.639034 190.740419 
L 179.639034 204.408215 
L 180.399943 204.408215 
L 180.399943 211.644108 
L 181.160852 211.644108 
L 181.160852 215.463051 
L 181.921761 215.463051 
L 181.921761 215.061057 
L 182.68267 215.061057 
L 182.68267 213.855075 
L 183.44358 213.855075 
L 183.44358 214.257069 
L 184.204489 214.257069 
L 184.204489 211.845105 
L 184.965398 211.845105 
L 184.965398 211.041117 
L 185.726307 211.041117 
L 185.726307 211.644108 
L 186.487216 211.644108 
L 186.487216 206.016191 
L 187.248125 206.016191 
L 187.248125 206.820179 
L 188.009034 206.820179 
L 188.009034 203.202233 
L 188.769943 203.202233 
L 188.769943 205.212203 
L 189.530852 205.212203 
L 189.530852 202.398245 
L 190.291761 202.398245 
L 190.291761 197.37332 
L 191.05267 197.37332 
L 191.05267 199.986281 
L 191.81358 199.986281 
L 191.81358 197.172323 
L 192.574489 197.172323 
L 192.574489 197.976311 
L 193.335398 197.976311 
L 193.335398 197.775314 
L 194.096307 197.775314 
L 194.096307 197.172323 
L 194.857216 197.172323 
L 194.857216 198.378305 
L 195.618125 198.378305 
L 195.618125 198.177308 
L 196.379034 198.177308 
L 196.379034 190.539422 
L 197.139943 190.539422 
L 197.139943 190.137428 
L 197.900852 190.137428 
L 197.900852 194.559362 
L 199.42267 194.559362 
L 199.42267 194.760359 
L 200.18358 194.760359 
L 200.18358 198.177308 
L 200.944489 198.177308 
L 200.944489 194.760359 
L 201.705398 194.760359 
L 201.705398 194.358365 
L 202.466307 194.358365 
L 202.466307 199.584287 
L 203.227216 199.584287 
L 203.227216 194.358365 
L 203.988125 194.358365 
L 203.988125 195.36335 
L 204.749034 195.36335 
L 204.749034 197.976311 
L 205.509943 197.976311 
L 205.509943 199.986281 
L 206.270852 199.986281 
L 206.270852 199.584287 
L 207.031761 199.584287 
L 207.031761 200.589272 
L 207.79267 200.589272 
L 207.79267 200.388275 
L 208.55358 200.388275 
L 208.55358 198.981296 
L 209.314489 198.981296 
L 209.314489 199.785284 
L 210.075398 199.785284 
L 210.075398 201.39326 
L 210.836307 201.39326 
L 210.836307 199.785284 
L 211.597216 199.785284 
L 211.597216 198.981296 
L 212.358125 198.981296 
L 212.358125 200.388275 
L 213.119034 200.388275 
L 213.119034 202.398245 
L 213.879943 202.398245 
L 213.879943 201.996251 
L 214.640852 201.996251 
L 214.640852 202.800239 
L 215.401761 202.800239 
L 215.401761 196.569332 
L 216.16267 196.569332 
L 216.16267 202.599242 
L 216.92358 202.599242 
L 216.92358 203.604227 
L 217.684489 203.604227 
L 217.684489 203.40323 
L 218.445398 203.40323 
L 218.445398 201.795254 
L 219.206307 201.795254 
L 219.206307 203.604227 
L 219.967216 203.604227 
L 219.967216 204.207218 
L 221.489034 204.207218 
L 221.489034 204.006221 
L 222.249943 204.006221 
L 222.249943 201.795254 
L 223.010852 201.795254 
L 223.010852 207.825165 
L 223.771761 207.825165 
L 223.771761 202.398245 
L 224.53267 202.398245 
L 224.53267 206.217188 
L 225.29358 206.217188 
L 225.29358 212.85009 
L 226.054489 212.85009 
L 226.054489 214.86006 
L 226.815398 214.86006 
L 226.815398 216.87003 
L 228.337216 216.87003 
L 228.337216 216.669033 
L 229.098125 216.669033 
L 229.098125 216.066042 
L 229.859034 216.066042 
L 229.859034 215.865045 
L 230.619943 215.865045 
L 230.619943 214.86006 
L 231.380852 214.86006 
L 231.380852 214.659063 
L 232.141761 214.659063 
L 232.141761 213.654078 
L 232.90267 213.654078 
L 232.90267 211.041117 
L 233.66358 211.041117 
L 233.66358 210.639123 
L 234.424489 210.639123 
L 234.424489 210.036132 
L 235.185398 210.036132 
L 235.185398 212.247099 
L 235.946307 212.247099 
L 235.946307 211.041117 
L 236.707216 211.041117 
L 236.707216 211.443111 
L 237.468125 211.443111 
L 237.468125 211.845105 
L 238.229034 211.845105 
L 238.229034 211.242114 
L 238.989943 211.242114 
L 238.989943 209.634138 
L 239.750852 209.634138 
L 239.750852 206.418185 
L 240.511761 206.418185 
L 240.511761 207.222173 
L 241.27267 207.222173 
L 241.27267 208.83015 
L 242.03358 208.83015 
L 242.03358 205.4132 
L 242.794489 205.4132 
L 242.794489 206.619182 
L 243.555398 206.619182 
L 243.555398 209.232144 
L 244.316307 209.232144 
L 244.316307 206.619182 
L 245.077216 206.619182 
L 245.077216 206.217188 
L 245.838125 206.217188 
L 245.838125 213.051087 
L 246.599034 213.051087 
L 246.599034 208.83015 
L 247.359943 208.83015 
L 247.359943 211.242114 
L 248.120852 211.242114 
L 248.120852 206.418185 
L 248.881761 206.418185 
L 248.881761 210.639123 
L 249.64267 210.639123 
L 249.64267 211.644108 
L 250.40358 211.644108 
L 250.40358 209.232144 
L 251.164489 209.232144 
L 251.164489 212.046102 
L 251.925398 212.046102 
L 251.925398 208.227159 
L 253.447216 208.227159 
L 253.447216 212.046102 
L 254.208125 212.046102 
L 254.208125 210.84012 
L 254.969034 210.84012 
L 254.969034 209.835135 
L 255.729943 209.835135 
L 255.729943 211.845105 
L 256.490852 211.845105 
L 256.490852 209.232144 
L 257.251761 209.232144 
L 257.251761 209.433141 
L 258.01267 209.433141 
L 258.01267 211.443111 
L 258.77358 211.443111 
L 258.77358 213.051087 
L 259.534489 213.051087 
L 259.534489 212.85009 
L 260.295398 212.85009 
L 260.295398 209.634138 
L 261.056307 209.634138 
L 261.056307 209.232144 
L 261.817216 209.232144 
L 261.817216 212.649093 
L 262.578125 212.649093 
L 262.578125 210.237129 
L 263.339034 210.237129 
L 263.339034 213.252084 
L 264.099943 213.252084 
L 264.099943 208.428156 
L 264.860852 208.428156 
L 264.860852 211.845105 
L 265.621761 211.845105 
L 265.621761 209.031147 
L 266.38267 209.031147 
L 266.38267 211.845105 
L 267.14358 211.845105 
L 267.14358 210.036132 
L 267.904489 210.036132 
L 267.904489 212.247099 
L 268.665398 212.247099 
L 268.665398 213.654078 
L 269.426307 213.654078 
L 269.426307 211.845105 
L 270.187216 211.845105 
L 270.187216 213.855075 
L 270.948125 213.855075 
L 270.948125 215.463051 
L 272.469943 215.463051 
L 272.469943 217.473021 
L 273.230852 217.473021 
L 273.230852 217.875015 
L 273.991761 217.875015 
L 273.991761 217.473021 
L 274.75267 217.473021 
L 274.75267 217.674018 
L 275.51358 217.674018 
L 275.51358 216.87003 
L 276.274489 216.87003 
L 276.274489 217.674018 
L 277.035398 217.674018 
L 277.035398 215.664048 
L 277.796307 215.664048 
L 277.796307 216.468036 
L 278.557216 216.468036 
L 278.557216 215.865045 
L 279.318125 215.865045 
L 279.318125 215.664048 
L 280.079034 215.664048 
L 280.079034 213.252084 
L 280.839943 213.252084 
L 280.839943 214.458066 
L 281.600852 214.458066 
L 281.600852 215.463051 
L 282.361761 215.463051 
L 282.361761 214.458066 
L 283.12267 214.458066 
L 283.12267 214.257069 
L 283.88358 214.257069 
L 283.88358 213.855075 
L 284.644489 213.855075 
L 284.644489 213.453081 
L 286.166307 213.453081 
L 286.166307 213.654078 
L 286.927216 213.654078 
L 286.927216 212.448096 
L 287.688125 212.448096 
L 287.688125 214.056072 
L 288.449034 214.056072 
L 288.449034 213.855075 
L 289.209943 213.855075 
L 289.209943 214.458066 
L 289.970852 214.458066 
L 289.970852 213.855075 
L 290.731761 213.855075 
L 290.731761 215.463051 
L 291.49267 215.463051 
L 291.49267 212.046102 
L 292.25358 212.046102 
L 292.25358 213.453081 
L 293.014489 213.453081 
L 293.014489 213.051087 
L 293.775398 213.051087 
L 293.775398 213.654078 
L 294.536307 213.654078 
L 294.536307 212.247099 
L 295.297216 212.247099 
L 295.297216 214.257069 
L 296.058125 214.257069 
L 296.058125 213.855075 
L 296.819034 213.855075 
L 296.819034 214.458066 
L 297.579943 214.458066 
L 297.579943 215.061057 
L 298.340852 215.061057 
L 298.340852 214.659063 
L 299.101761 214.659063 
L 299.101761 215.664048 
L 299.86267 215.664048 
L 299.86267 215.865045 
L 300.62358 215.865045 
L 300.62358 215.262054 
L 302.145398 215.262054 
L 302.145398 214.659063 
L 302.906307 214.659063 
L 302.906307 214.056072 
L 304.428125 214.056072 
L 304.428125 214.659063 
L 305.189034 214.659063 
L 305.189034 213.252084 
L 305.949943 213.252084 
L 305.949943 213.654078 
L 306.710852 213.654078 
L 306.710852 213.855075 
L 307.471761 213.855075 
L 307.471761 215.262054 
L 308.23267 215.262054 
L 308.23267 215.061057 
L 308.99358 215.061057 
L 308.99358 214.458066 
L 309.754489 214.458066 
L 309.754489 214.86006 
L 310.515398 214.86006 
L 310.515398 214.257069 
L 311.276307 214.257069 
L 311.276307 212.649093 
L 312.037216 212.649093 
L 312.037216 216.468036 
L 312.798125 216.468036 
L 312.798125 216.669033 
L 313.559034 216.669033 
L 313.559034 216.267039 
L 314.319943 216.267039 
L 314.319943 214.659063 
L 315.080852 214.659063 
L 315.080852 216.669033 
L 315.841761 216.669033 
L 315.841761 215.664048 
L 316.60267 215.664048 
L 316.60267 216.468036 
L 317.36358 216.468036 
L 317.36358 217.473021 
L 318.124489 217.473021 
L 318.124489 218.076012 
L 318.885398 218.076012 
L 318.885398 217.674018 
L 319.646307 217.674018 
L 319.646307 218.076012 
L 320.407216 218.076012 
L 320.407216 218.277009 
L 321.168125 218.277009 
L 321.168125 217.473021 
L 321.929034 217.473021 
L 321.929034 217.875015 
L 322.689943 217.875015 
L 322.689943 217.674018 
L 323.450852 217.674018 
L 323.450852 217.071027 
L 324.211761 217.071027 
L 324.211761 216.87003 
L 324.97267 216.87003 
L 324.97267 216.066042 
L 325.73358 216.066042 
L 325.73358 217.071027 
L 327.255398 217.071027 
L 327.255398 217.674018 
L 328.016307 217.674018 
L 328.016307 216.669033 
L 328.777216 216.669033 
L 328.777216 215.664048 
L 330.299034 215.664048 
L 330.299034 216.87003 
L 331.059943 216.87003 
L 331.059943 215.262054 
L 331.820852 215.262054 
L 331.820852 215.664048 
L 332.581761 215.664048 
L 332.581761 216.066042 
L 333.34267 216.066042 
L 333.34267 216.669033 
L 334.10358 216.669033 
L 334.10358 215.865045 
L 334.864489 215.865045 
L 334.864489 216.066042 
L 335.625398 216.066042 
L 335.625398 214.86006 
L 336.386307 214.86006 
L 336.386307 216.066042 
L 337.147216 216.066042 
L 337.147216 215.262054 
L 337.908125 215.262054 
L 337.908125 216.669033 
L 338.669034 216.669033 
L 338.669034 217.473021 
L 339.429943 217.473021 
L 339.429943 214.659063 
L 340.190852 214.659063 
L 340.190852 215.262054 
L 340.951761 215.262054 
L 340.951761 214.659063 
L 341.71267 214.659063 
L 341.71267 215.463051 
L 342.47358 215.463051 
L 342.47358 216.066042 
L 343.234489 216.066042 
L 343.234489 217.071027 
L 343.995398 217.071027 
L 343.995398 216.87003 
L 344.756307 216.87003 
L 344.756307 217.473021 
L 345.517216 217.473021 
L 345.517216 216.066042 
L 346.278125 216.066042 
L 346.278125 216.87003 
L 347.799943 216.87003 
L 347.799943 215.664048 
L 348.560852 215.664048 
L 348.560852 216.87003 
L 349.321761 216.87003 
L 349.321761 215.865045 
L 350.08267 215.865045 
L 350.08267 217.674018 
L 350.84358 217.674018 
L 350.84358 216.267039 
L 351.604489 216.267039 
L 351.604489 213.855075 
L 352.365398 213.855075 
L 352.365398 216.87003 
L 353.126307 216.87003 
L 353.126307 217.473021 
L 353.887216 217.473021 
L 353.887216 216.468036 
L 354.648125 216.468036 
L 354.648125 216.267039 
L 355.409034 216.267039 
L 355.409034 216.669033 
L 356.169943 216.669033 
L 356.169943 217.473021 
L 356.930852 217.473021 
L 356.930852 216.468036 
L 357.691761 216.468036 
L 357.691761 215.664048 
L 358.45267 215.664048 
L 358.45267 215.463051 
L 359.21358 215.463051 
L 359.21358 216.87003 
L 359.974489 216.87003 
L 359.974489 216.669033 
L 360.735398 216.669033 
L 360.735398 216.87003 
L 361.496307 216.87003 
L 361.496307 217.473021 
L 362.257216 217.473021 
L 362.257216 217.272024 
L 363.018125 217.272024 
L 363.018125 218.478006 
L 363.779034 218.478006 
L 363.779034 218.679003 
L 364.539943 218.679003 
L 364.539943 218.88 
L 372.909943 218.88 
L 372.909943 218.88 
" clip-path="url(#p35aa37f86d)" style="fill: none; stroke: #1f77b4; stroke-width: 1.5; stroke-linecap: square"/>
   </g>
   <g id="line2d_16">
    <path d="M 68.546307 218.88 
L 81.481761 218.88 
L 81.481761 218.679003 
L 82.24267 218.679003 
L 82.24267 218.076012 
L 83.00358 218.076012 
L 83.00358 217.875015 
L 83.764489 217.875015 
L 83.764489 217.272024 
L 84.525398 217.272024 
L 84.525398 216.669033 
L 85.286307 216.669033 
L 85.286307 215.664048 
L 86.047216 215.664048 
L 86.047216 210.237129 
L 86.808125 210.237129 
L 86.808125 206.016191 
L 87.569034 206.016191 
L 87.569034 206.217188 
L 88.329943 206.217188 
L 88.329943 202.599242 
L 89.090852 202.599242 
L 89.090852 200.388275 
L 89.851761 200.388275 
L 89.851761 198.579302 
L 90.61267 198.579302 
L 90.61267 196.167338 
L 91.37358 196.167338 
L 91.37358 193.35338 
L 92.134489 193.35338 
L 92.134489 191.142413 
L 92.895398 191.142413 
L 92.895398 184.911505 
L 93.656307 184.911505 
L 93.656307 178.278604 
L 94.417216 178.278604 
L 94.417216 173.052682 
L 95.178125 173.052682 
L 95.178125 163.80682 
L 95.939034 163.80682 
L 95.939034 158.3799 
L 96.699943 158.3799 
L 96.699943 142.099143 
L 97.460852 142.099143 
L 97.460852 138.079202 
L 98.221761 138.079202 
L 98.221761 119.788475 
L 98.98267 119.788475 
L 98.98267 103.105723 
L 99.74358 103.105723 
L 99.74358 92.050887 
L 100.504489 92.050887 
L 100.504489 83.006022 
L 101.265398 83.006022 
L 101.265398 59.891366 
L 102.026307 59.891366 
L 102.026307 54.464447 
L 102.787216 54.464447 
L 102.787216 49.238524 
L 103.548125 49.238524 
L 103.548125 39.791665 
L 104.309034 39.791665 
L 104.309034 40.997647 
L 105.069943 40.997647 
L 105.069943 17.480997 
L 105.830852 17.480997 
L 105.830852 17.28 
L 106.591761 17.28 
L 106.591761 22.103928 
L 107.35267 22.103928 
L 107.35267 20.294955 
L 108.11358 20.294955 
L 108.11358 24.113898 
L 108.874489 24.113898 
L 108.874489 37.178704 
L 109.635398 37.178704 
L 109.635398 49.439521 
L 110.396307 49.439521 
L 110.396307 44.615593 
L 111.157216 44.615593 
L 111.157216 54.062453 
L 111.918125 54.062453 
L 111.918125 49.037527 
L 112.679034 49.037527 
L 112.679034 56.675414 
L 113.439943 56.675414 
L 113.439943 62.30333 
L 114.200852 62.30333 
L 114.200852 59.288375 
L 114.961761 59.288375 
L 114.961761 61.700339 
L 115.72267 61.700339 
L 115.72267 61.499342 
L 116.48358 61.499342 
L 116.48358 76.172124 
L 117.244489 76.172124 
L 117.244489 74.564148 
L 118.005398 74.564148 
L 118.005398 75.971127 
L 118.766307 75.971127 
L 118.766307 81.398046 
L 119.527216 81.398046 
L 119.527216 90.241914 
L 120.288125 90.241914 
L 120.288125 93.658863 
L 121.049034 93.658863 
L 121.049034 82.604028 
L 121.809943 82.604028 
L 121.809943 82.805025 
L 122.570852 82.805025 
L 122.570852 92.653878 
L 123.331761 92.653878 
L 123.331761 92.251884 
L 124.09267 92.251884 
L 124.09267 105.718684 
L 124.85358 105.718684 
L 124.85358 91.447896 
L 125.614489 91.447896 
L 125.614489 108.733639 
L 126.375398 108.733639 
L 126.375398 106.522672 
L 127.136307 106.522672 
L 127.136307 109.537627 
L 127.897216 109.537627 
L 127.897216 112.552582 
L 128.658125 112.552582 
L 128.658125 115.969531 
L 129.419034 115.969531 
L 129.419034 115.567537 
L 130.179943 115.567537 
L 130.179943 118.984487 
L 130.940852 118.984487 
L 130.940852 122.401436 
L 131.701761 122.401436 
L 131.701761 129.838325 
L 132.46267 129.838325 
L 132.46267 148.33005 
L 133.22358 148.33005 
L 133.22358 157.977906 
L 133.984489 157.977906 
L 133.984489 176.670628 
L 134.745398 176.670628 
L 134.745398 189.735434 
L 135.506307 189.735434 
L 135.506307 192.348395 
L 136.267216 192.348395 
L 136.267216 207.021176 
L 137.028125 207.021176 
L 137.028125 209.634138 
L 137.789034 209.634138 
L 137.789034 209.232144 
L 138.549943 209.232144 
L 138.549943 208.227159 
L 139.310852 208.227159 
L 139.310852 203.001236 
L 140.071761 203.001236 
L 140.071761 203.40323 
L 140.83267 203.40323 
L 140.83267 199.182293 
L 141.59358 199.182293 
L 141.59358 195.564347 
L 142.354489 195.564347 
L 142.354489 192.750389 
L 143.115398 192.750389 
L 143.115398 190.137428 
L 143.876307 190.137428 
L 143.876307 180.087577 
L 144.637216 180.087577 
L 144.637216 180.288574 
L 145.398125 180.288574 
L 145.398125 173.655673 
L 146.159034 173.655673 
L 146.159034 179.283589 
L 146.919943 179.283589 
L 146.919943 167.625763 
L 147.680852 167.625763 
L 147.680852 163.404826 
L 148.441761 163.404826 
L 148.441761 157.776909 
L 149.20267 157.776909 
L 149.20267 160.590867 
L 149.96358 160.590867 
L 149.96358 155.163948 
L 150.724489 155.163948 
L 150.724489 155.364945 
L 152.246307 155.364945 
L 152.246307 152.952981 
L 153.007216 152.952981 
L 153.007216 153.153978 
L 153.768125 153.153978 
L 153.768125 162.39984 
L 154.529034 162.39984 
L 154.529034 166.017787 
L 155.289943 166.017787 
L 155.289943 156.36993 
L 156.050852 156.36993 
L 156.050852 160.188873 
L 156.811761 160.188873 
L 156.811761 164.610808 
L 157.57267 164.610808 
L 157.57267 158.781894 
L 158.33358 158.781894 
L 158.33358 167.022772 
L 159.094489 167.022772 
L 159.094489 167.424766 
L 159.855398 167.424766 
L 159.855398 165.012802 
L 160.616307 165.012802 
L 160.616307 166.419781 
L 161.377216 166.419781 
L 161.377216 168.831745 
L 162.138125 168.831745 
L 162.138125 169.032742 
L 162.899034 169.032742 
L 162.899034 170.841715 
L 163.659943 170.841715 
L 163.659943 172.047697 
L 164.420852 172.047697 
L 164.420852 170.037727 
L 165.181761 170.037727 
L 165.181761 171.8467 
L 165.94267 171.8467 
L 165.94267 174.459661 
L 166.70358 174.459661 
L 166.70358 172.449691 
L 167.464489 172.449691 
L 167.464489 172.047697 
L 168.225398 172.047697 
L 168.225398 174.459661 
L 168.986307 174.459661 
L 168.986307 174.258664 
L 169.747216 174.258664 
L 169.747216 178.479601 
L 170.508125 178.479601 
L 170.508125 178.881595 
L 171.269034 178.881595 
L 171.269034 178.479601 
L 172.029943 178.479601 
L 172.029943 180.288574 
L 172.790852 180.288574 
L 172.790852 179.685583 
L 173.551761 179.685583 
L 173.551761 181.494556 
L 174.31267 181.494556 
L 174.31267 184.107517 
L 175.07358 184.107517 
L 175.07358 183.102532 
L 175.834489 183.102532 
L 175.834489 179.283589 
L 176.595398 179.283589 
L 176.595398 184.509511 
L 177.356307 184.509511 
L 177.356307 189.534437 
L 178.117216 189.534437 
L 178.117216 192.750389 
L 178.878125 192.750389 
L 178.878125 196.167338 
L 179.639034 196.167338 
L 179.639034 201.39326 
L 180.399943 201.39326 
L 180.399943 207.825165 
L 181.160852 207.825165 
L 181.160852 209.835135 
L 181.921761 209.835135 
L 181.921761 214.056072 
L 182.68267 214.056072 
L 182.68267 216.267039 
L 183.44358 216.267039 
L 183.44358 214.056072 
L 184.204489 214.056072 
L 184.204489 212.448096 
L 184.965398 212.448096 
L 184.965398 210.84012 
L 185.726307 210.84012 
L 185.726307 211.041117 
L 186.487216 211.041117 
L 186.487216 208.629153 
L 187.248125 208.629153 
L 187.248125 209.433141 
L 188.009034 209.433141 
L 188.009034 204.207218 
L 188.769943 204.207218 
L 188.769943 205.212203 
L 189.530852 205.212203 
L 189.530852 201.795254 
L 190.291761 201.795254 
L 190.291761 198.579302 
L 191.05267 198.579302 
L 191.05267 199.584287 
L 191.81358 199.584287 
L 191.81358 197.775314 
L 192.574489 197.775314 
L 192.574489 195.36335 
L 194.096307 195.36335 
L 194.096307 198.177308 
L 194.857216 198.177308 
L 194.857216 197.775314 
L 195.618125 197.775314 
L 195.618125 189.534437 
L 196.379034 189.534437 
L 196.379034 191.142413 
L 197.139943 191.142413 
L 197.139943 193.956371 
L 197.900852 193.956371 
L 197.900852 194.559362 
L 198.661761 194.559362 
L 198.661761 192.750389 
L 199.42267 192.750389 
L 199.42267 195.36335 
L 200.18358 195.36335 
L 200.18358 195.162353 
L 200.944489 195.162353 
L 200.944489 195.36335 
L 201.705398 195.36335 
L 201.705398 195.765344 
L 202.466307 195.765344 
L 202.466307 197.574317 
L 203.227216 197.574317 
L 203.227216 195.765344 
L 203.988125 195.765344 
L 203.988125 197.172323 
L 204.749034 197.172323 
L 204.749034 193.956371 
L 205.509943 193.956371 
L 205.509943 200.589272 
L 206.270852 200.589272 
L 206.270852 202.398245 
L 207.031761 202.398245 
L 207.031761 200.388275 
L 207.79267 200.388275 
L 207.79267 199.785284 
L 208.55358 199.785284 
L 208.55358 199.584287 
L 209.314489 199.584287 
L 209.314489 197.37332 
L 210.075398 197.37332 
L 210.075398 201.39326 
L 210.836307 201.39326 
L 210.836307 199.182293 
L 211.597216 199.182293 
L 211.597216 200.790269 
L 212.358125 200.790269 
L 212.358125 200.589272 
L 213.119034 200.589272 
L 213.119034 199.38329 
L 213.879943 199.38329 
L 213.879943 199.986281 
L 214.640852 199.986281 
L 214.640852 201.594257 
L 215.401761 201.594257 
L 215.401761 199.584287 
L 216.16267 199.584287 
L 216.16267 204.006221 
L 216.92358 204.006221 
L 216.92358 202.599242 
L 217.684489 202.599242 
L 217.684489 203.604227 
L 218.445398 203.604227 
L 218.445398 203.202233 
L 219.206307 203.202233 
L 219.206307 203.001236 
L 219.967216 203.001236 
L 219.967216 203.604227 
L 220.728125 203.604227 
L 220.728125 203.40323 
L 221.489034 203.40323 
L 221.489034 205.011206 
L 222.249943 205.011206 
L 222.249943 204.810209 
L 223.771761 204.810209 
L 223.771761 207.021176 
L 224.53267 207.021176 
L 224.53267 210.036132 
L 225.29358 210.036132 
L 225.29358 211.242114 
L 226.054489 211.242114 
L 226.054489 213.855075 
L 226.815398 213.855075 
L 226.815398 216.267039 
L 228.337216 216.267039 
L 228.337216 216.066042 
L 229.098125 216.066042 
L 229.098125 216.267039 
L 229.859034 216.267039 
L 229.859034 216.468036 
L 230.619943 216.468036 
L 230.619943 216.267039 
L 231.380852 216.267039 
L 231.380852 215.664048 
L 232.141761 215.664048 
L 232.141761 213.252084 
L 232.90267 213.252084 
L 232.90267 211.845105 
L 233.66358 211.845105 
L 233.66358 210.84012 
L 234.424489 210.84012 
L 234.424489 211.644108 
L 235.185398 211.644108 
L 235.185398 209.634138 
L 235.946307 209.634138 
L 235.946307 211.443111 
L 236.707216 211.443111 
L 236.707216 211.242114 
L 237.468125 211.242114 
L 237.468125 210.036132 
L 238.229034 210.036132 
L 238.229034 208.83015 
L 238.989943 208.83015 
L 238.989943 210.237129 
L 239.750852 210.237129 
L 239.750852 207.825165 
L 240.511761 207.825165 
L 240.511761 206.418185 
L 241.27267 206.418185 
L 241.27267 205.011206 
L 242.03358 205.011206 
L 242.03358 207.624167 
L 242.794489 207.624167 
L 242.794489 207.021176 
L 243.555398 207.021176 
L 243.555398 208.629153 
L 244.316307 208.629153 
L 244.316307 207.825165 
L 245.077216 207.825165 
L 245.077216 206.820179 
L 245.838125 206.820179 
L 245.838125 208.428156 
L 246.599034 208.428156 
L 246.599034 211.041117 
L 247.359943 211.041117 
L 247.359943 209.031147 
L 248.120852 209.031147 
L 248.120852 210.84012 
L 248.881761 210.84012 
L 248.881761 210.036132 
L 249.64267 210.036132 
L 249.64267 211.242114 
L 250.40358 211.242114 
L 250.40358 209.433141 
L 251.164489 209.433141 
L 251.164489 209.232144 
L 251.925398 209.232144 
L 251.925398 210.237129 
L 252.686307 210.237129 
L 252.686307 209.634138 
L 253.447216 209.634138 
L 253.447216 210.639123 
L 254.208125 210.639123 
L 254.208125 210.84012 
L 254.969034 210.84012 
L 254.969034 208.428156 
L 255.729943 208.428156 
L 255.729943 210.438126 
L 256.490852 210.438126 
L 256.490852 212.85009 
L 257.251761 212.85009 
L 257.251761 209.232144 
L 258.01267 209.232144 
L 258.01267 211.644108 
L 258.77358 211.644108 
L 258.77358 212.046102 
L 260.295398 212.046102 
L 260.295398 210.036132 
L 261.056307 210.036132 
L 261.056307 210.237129 
L 261.817216 210.237129 
L 261.817216 209.634138 
L 262.578125 209.634138 
L 262.578125 211.041117 
L 263.339034 211.041117 
L 263.339034 212.448096 
L 264.099943 212.448096 
L 264.099943 211.443111 
L 264.860852 211.443111 
L 264.860852 209.634138 
L 265.621761 209.634138 
L 265.621761 210.036132 
L 266.38267 210.036132 
L 266.38267 211.242114 
L 267.14358 211.242114 
L 267.14358 212.046102 
L 267.904489 212.046102 
L 267.904489 213.252084 
L 268.665398 213.252084 
L 268.665398 212.046102 
L 269.426307 212.046102 
L 269.426307 214.458066 
L 270.187216 214.458066 
L 270.187216 213.654078 
L 270.948125 213.654078 
L 270.948125 216.066042 
L 272.469943 216.066042 
L 272.469943 215.865045 
L 273.230852 215.865045 
L 273.230852 217.071027 
L 273.991761 217.071027 
L 273.991761 217.272024 
L 274.75267 217.272024 
L 274.75267 218.076012 
L 275.51358 218.076012 
L 275.51358 216.87003 
L 276.274489 216.87003 
L 276.274489 217.272024 
L 277.035398 217.272024 
L 277.035398 217.674018 
L 277.796307 217.674018 
L 277.796307 216.066042 
L 278.557216 216.066042 
L 278.557216 215.865045 
L 279.318125 215.865045 
L 279.318125 215.463051 
L 280.079034 215.463051 
L 280.079034 213.453081 
L 280.839943 213.453081 
L 280.839943 215.061057 
L 281.600852 215.061057 
L 281.600852 213.453081 
L 282.361761 213.453081 
L 282.361761 214.458066 
L 283.12267 214.458066 
L 283.12267 215.664048 
L 283.88358 215.664048 
L 283.88358 212.247099 
L 284.644489 212.247099 
L 284.644489 213.051087 
L 285.405398 213.051087 
L 285.405398 213.855075 
L 286.166307 213.855075 
L 286.166307 213.453081 
L 286.927216 213.453081 
L 286.927216 213.855075 
L 287.688125 213.855075 
L 287.688125 213.252084 
L 288.449034 213.252084 
L 288.449034 213.453081 
L 289.209943 213.453081 
L 289.209943 213.855075 
L 289.970852 213.855075 
L 289.970852 214.257069 
L 290.731761 214.257069 
L 290.731761 214.056072 
L 291.49267 214.056072 
L 291.49267 214.257069 
L 292.25358 214.257069 
L 292.25358 212.046102 
L 293.014489 212.046102 
L 293.014489 211.644108 
L 293.775398 211.644108 
L 293.775398 214.056072 
L 294.536307 214.056072 
L 294.536307 214.458066 
L 295.297216 214.458066 
L 295.297216 212.448096 
L 296.058125 212.448096 
L 296.058125 213.453081 
L 296.819034 213.453081 
L 296.819034 215.262054 
L 297.579943 215.262054 
L 297.579943 217.071027 
L 298.340852 217.071027 
L 298.340852 215.664048 
L 299.101761 215.664048 
L 299.101761 212.649093 
L 299.86267 212.649093 
L 299.86267 215.463051 
L 301.384489 215.463051 
L 301.384489 213.855075 
L 302.145398 213.855075 
L 302.145398 215.061057 
L 302.906307 215.061057 
L 302.906307 213.654078 
L 303.667216 213.654078 
L 303.667216 215.262054 
L 304.428125 215.262054 
L 304.428125 214.257069 
L 305.189034 214.257069 
L 305.189034 213.453081 
L 305.949943 213.453081 
L 305.949943 214.056072 
L 306.710852 214.056072 
L 306.710852 214.659063 
L 308.23267 214.659063 
L 308.23267 215.061057 
L 308.99358 215.061057 
L 308.99358 214.659063 
L 309.754489 214.659063 
L 309.754489 213.654078 
L 310.515398 213.654078 
L 310.515398 213.453081 
L 311.276307 213.453081 
L 311.276307 214.659063 
L 312.037216 214.659063 
L 312.037216 215.865045 
L 312.798125 215.865045 
L 312.798125 216.267039 
L 313.559034 216.267039 
L 313.559034 215.865045 
L 314.319943 215.865045 
L 314.319943 216.267039 
L 315.080852 216.267039 
L 315.080852 216.669033 
L 315.841761 216.669033 
L 315.841761 216.468036 
L 316.60267 216.468036 
L 316.60267 217.674018 
L 317.36358 217.674018 
L 317.36358 217.071027 
L 318.124489 217.071027 
L 318.124489 217.473021 
L 318.885398 217.473021 
L 318.885398 217.272024 
L 319.646307 217.272024 
L 319.646307 218.076012 
L 321.929034 218.076012 
L 321.929034 217.674018 
L 322.689943 217.674018 
L 322.689943 217.473021 
L 323.450852 217.473021 
L 323.450852 217.875015 
L 324.211761 217.875015 
L 324.211761 216.87003 
L 324.97267 216.87003 
L 324.97267 215.463051 
L 325.73358 215.463051 
L 325.73358 216.87003 
L 326.494489 216.87003 
L 326.494489 217.071027 
L 327.255398 217.071027 
L 327.255398 217.473021 
L 328.016307 217.473021 
L 328.016307 215.262054 
L 328.777216 215.262054 
L 328.777216 216.066042 
L 330.299034 216.066042 
L 330.299034 216.87003 
L 331.059943 216.87003 
L 331.059943 215.262054 
L 332.581761 215.262054 
L 332.581761 216.468036 
L 333.34267 216.468036 
L 333.34267 216.066042 
L 334.10358 216.066042 
L 334.10358 216.267039 
L 334.864489 216.267039 
L 334.864489 215.061057 
L 335.625398 215.061057 
L 335.625398 215.463051 
L 336.386307 215.463051 
L 336.386307 216.468036 
L 337.147216 216.468036 
L 337.147216 215.865045 
L 337.908125 215.865045 
L 337.908125 217.071027 
L 338.669034 217.071027 
L 338.669034 215.664048 
L 339.429943 215.664048 
L 339.429943 215.061057 
L 340.190852 215.061057 
L 340.190852 214.86006 
L 340.951761 214.86006 
L 340.951761 215.262054 
L 341.71267 215.262054 
L 341.71267 216.87003 
L 342.47358 216.87003 
L 342.47358 215.463051 
L 343.234489 215.463051 
L 343.234489 216.267039 
L 343.995398 216.267039 
L 343.995398 217.473021 
L 344.756307 217.473021 
L 344.756307 216.669033 
L 346.278125 216.669033 
L 346.278125 217.071027 
L 347.039034 217.071027 
L 347.039034 216.87003 
L 347.799943 216.87003 
L 347.799943 215.061057 
L 348.560852 215.061057 
L 348.560852 216.267039 
L 350.08267 216.267039 
L 350.08267 216.669033 
L 352.365398 216.669033 
L 352.365398 217.272024 
L 353.126307 217.272024 
L 353.126307 215.262054 
L 353.887216 215.262054 
L 353.887216 216.267039 
L 354.648125 216.267039 
L 354.648125 217.875015 
L 355.409034 217.875015 
L 355.409034 215.865045 
L 356.169943 215.865045 
L 356.169943 214.458066 
L 356.930852 214.458066 
L 356.930852 217.875015 
L 357.691761 217.875015 
L 357.691761 215.865045 
L 358.45267 215.865045 
L 358.45267 216.669033 
L 359.21358 216.669033 
L 359.21358 215.865045 
L 359.974489 215.865045 
L 359.974489 216.669033 
L 360.735398 216.669033 
L 360.735398 217.674018 
L 361.496307 217.674018 
L 361.496307 218.277009 
L 362.257216 218.277009 
L 362.257216 217.473021 
L 363.018125 217.473021 
L 363.018125 217.674018 
L 363.779034 217.674018 
L 363.779034 218.478006 
L 364.539943 218.478006 
L 364.539943 218.88 
L 365.300852 218.88 
L 365.300852 218.679003 
L 366.061761 218.679003 
L 366.061761 218.88 
L 372.909943 218.88 
L 372.909943 218.88 
" clip-path="url(#p35aa37f86d)" style="fill: none; stroke: #ff7f0e; stroke-width: 1.5; stroke-linecap: square"/>
   </g>
  </g>
 </g>
 <defs>
  <clipPath id="p35aa37f86d">
   <rect x="53.328125" y="7.2" width="334.8" height="221.76"/>
  </clipPath>
 </defs>
</svg>
