<?xml version="1.0" encoding="UTF-8" standalone="no"?>
<!DOCTYPE svg PUBLIC "-//W3C//DTD SVG 1.1//EN"
 "http://www.w3.org/Graphics/SVG/1.1/DTD/svg11.dtd">
<!-- Generated by graphviz version 7.1.0 (20230122.1345)
 -->
<!-- Pages: 1 -->
<svg width="909pt" height="503pt"
 viewBox="0.00 0.00 909.00 503.00" xmlns="http://www.w3.org/2000/svg" xmlns:xlink="http://www.w3.org/1999/xlink">
<g id="graph0" class="graph" transform="scale(1 1) rotate(0) translate(4 499)">
<polygon fill="white" stroke="none" points="-4,4 -4,-499 905,-499 905,4 -4,4"/>
<!-- source_position -->
<g id="node1" class="node">
<title>source_position</title>
<polygon fill="none" stroke="black" points="458.5,-495 330.5,-495 330.5,-472 458.5,-472 458.5,-495"/>
<text text-anchor="middle" x="394.5" y="-479.8" font-family="Times,serif" font-size="14.00">source_position</text>
</g>
<!-- incident_beam -->
<g id="node2" class="node">
<title>incident_beam</title>
<polygon fill="none" stroke="black" points="519.5,-436 399.5,-436 399.5,-413 519.5,-413 519.5,-436"/>
<text text-anchor="middle" x="459.5" y="-420.8" font-family="Times,serif" font-size="14.00">incident_beam</text>
</g>
<!-- source_position&#45;&gt;incident_beam -->
<g id="edge1" class="edge">
<title>source_position&#45;&gt;incident_beam</title>
<path fill="none" stroke="black" d="M407.03,-471.51C415.93,-463.7 428.1,-453.03 438.48,-443.94"/>
<polygon fill="black" stroke="black" points="440.66,-446.68 445.87,-437.45 436.04,-441.42 440.66,-446.68"/>
</g>
<!-- L1 -->
<g id="node6" class="node">
<title>L1</title>
<polygon fill="none" stroke="black" points="374.5,-377 320.5,-377 320.5,-354 374.5,-354 374.5,-377"/>
<text text-anchor="middle" x="347.5" y="-361.8" font-family="Times,serif" font-size="14.00">L1</text>
</g>
<!-- incident_beam&#45;&gt;L1 -->
<g id="edge5" class="edge">
<title>incident_beam&#45;&gt;L1</title>
<path fill="none" stroke="black" d="M437.91,-412.51C421.25,-404.03 397.96,-392.18 379.19,-382.63"/>
<polygon fill="black" stroke="black" points="380.88,-379.56 370.38,-378.14 377.7,-385.8 380.88,-379.56"/>
</g>
<!-- two_theta -->
<g id="node8" class="node">
<title>two_theta</title>
<polygon fill="none" stroke="black" points="144,-318 57,-318 57,-295 144,-295 144,-318"/>
<text text-anchor="middle" x="100.5" y="-302.8" font-family="Times,serif" font-size="14.00">two_theta</text>
</g>
<!-- incident_beam&#45;&gt;two_theta -->
<g id="edge7" class="edge">
<title>incident_beam&#45;&gt;two_theta</title>
<path fill="none" stroke="black" d="M399.37,-414.92C354.74,-407.56 292.81,-395.21 240.5,-377 199.82,-362.84 155.77,-339.52 128.16,-323.85"/>
<polygon fill="black" stroke="black" points="130.15,-320.95 119.74,-319 126.66,-327.02 130.15,-320.95"/>
</g>
<!-- Qx -->
<g id="node21" class="node">
<title>Qx</title>
<polygon fill="none" stroke="black" points="649.5,-200 595.5,-200 595.5,-177 649.5,-177 649.5,-200"/>
<text text-anchor="middle" x="622.5" y="-184.8" font-family="Times,serif" font-size="14.00">Qx</text>
</g>
<!-- incident_beam&#45;&gt;Qx -->
<g id="edge26" class="edge">
<title>incident_beam&#45;&gt;Qx</title>
<path fill="none" stroke="black" d="M468.28,-412.56C475.7,-403.23 486.51,-389.4 495.5,-377 538.78,-317.28 586.83,-244.4 609.41,-209.72"/>
<polygon fill="black" stroke="black" points="612.23,-211.8 614.75,-201.5 606.36,-207.98 612.23,-211.8"/>
</g>
<!-- Qy -->
<g id="node22" class="node">
<title>Qy</title>
<polygon fill="none" stroke="black" points="503.5,-200 449.5,-200 449.5,-177 503.5,-177 503.5,-200"/>
<text text-anchor="middle" x="476.5" y="-184.8" font-family="Times,serif" font-size="14.00">Qy</text>
</g>
<!-- incident_beam&#45;&gt;Qy -->
<g id="edge29" class="edge">
<title>incident_beam&#45;&gt;Qy</title>
<path fill="none" stroke="black" d="M460.3,-412.53C462.92,-376.45 471.31,-260.99 474.87,-211.91"/>
<polygon fill="black" stroke="black" points="478.36,-212.19 475.59,-201.96 471.38,-211.68 478.36,-212.19"/>
</g>
<!-- Qz -->
<g id="node23" class="node">
<title>Qz</title>
<polygon fill="none" stroke="black" points="577.5,-200 523.5,-200 523.5,-177 577.5,-177 577.5,-200"/>
<text text-anchor="middle" x="550.5" y="-184.8" font-family="Times,serif" font-size="14.00">Qz</text>
</g>
<!-- incident_beam&#45;&gt;Qz -->
<g id="edge32" class="edge">
<title>incident_beam&#45;&gt;Qz</title>
<path fill="none" stroke="black" d="M463.77,-412.53C477.89,-376.22 523.27,-259.51 542.15,-210.98"/>
<polygon fill="black" stroke="black" points="545.33,-212.45 545.69,-201.86 538.81,-209.91 545.33,-212.45"/>
</g>
<!-- sample_position -->
<g id="node3" class="node">
<title>sample_position</title>
<polygon fill="none" stroke="black" points="608,-495 477,-495 477,-472 608,-472 608,-495"/>
<text text-anchor="middle" x="542.5" y="-479.8" font-family="Times,serif" font-size="14.00">sample_position</text>
</g>
<!-- sample_position&#45;&gt;incident_beam -->
<g id="edge2" class="edge">
<title>sample_position&#45;&gt;incident_beam</title>
<path fill="none" stroke="black" d="M526.5,-471.51C514.67,-463.39 498.33,-452.17 484.75,-442.84"/>
<polygon fill="black" stroke="black" points="486.93,-440.09 476.7,-437.31 482.96,-445.86 486.93,-440.09"/>
</g>
<!-- scattered_beam -->
<g id="node5" class="node">
<title>scattered_beam</title>
<polygon fill="none" stroke="black" points="667.5,-436 537.5,-436 537.5,-413 667.5,-413 667.5,-436"/>
<text text-anchor="middle" x="602.5" y="-420.8" font-family="Times,serif" font-size="14.00">scattered_beam</text>
</g>
<!-- sample_position&#45;&gt;scattered_beam -->
<g id="edge4" class="edge">
<title>sample_position&#45;&gt;scattered_beam</title>
<path fill="none" stroke="black" d="M554.07,-471.51C562.2,-463.78 573.29,-453.25 582.8,-444.21"/>
<polygon fill="black" stroke="black" points="585.03,-446.92 589.87,-437.5 580.21,-441.85 585.03,-446.92"/>
</g>
<!-- position -->
<g id="node4" class="node">
<title>position</title>
<polygon fill="none" stroke="black" points="700.5,-495 626.5,-495 626.5,-472 700.5,-472 700.5,-495"/>
<text text-anchor="middle" x="663.5" y="-479.8" font-family="Times,serif" font-size="14.00">position</text>
</g>
<!-- position&#45;&gt;scattered_beam -->
<g id="edge3" class="edge">
<title>position&#45;&gt;scattered_beam</title>
<path fill="none" stroke="black" d="M651.74,-471.51C643.47,-463.78 632.2,-453.25 622.53,-444.21"/>
<polygon fill="black" stroke="black" points="625.03,-441.76 615.33,-437.49 620.25,-446.87 625.03,-441.76"/>
</g>
<!-- L2 -->
<g id="node7" class="node">
<title>L2</title>
<polygon fill="none" stroke="black" points="446.5,-377 392.5,-377 392.5,-354 446.5,-354 446.5,-377"/>
<text text-anchor="middle" x="419.5" y="-361.8" font-family="Times,serif" font-size="14.00">L2</text>
</g>
<!-- scattered_beam&#45;&gt;L2 -->
<g id="edge6" class="edge">
<title>scattered_beam&#45;&gt;L2</title>
<path fill="none" stroke="black" d="M567.22,-412.51C535.81,-402.73 489.99,-388.45 457.72,-378.41"/>
<polygon fill="black" stroke="black" points="458.96,-375.12 448.37,-375.49 456.87,-381.81 458.96,-375.12"/>
</g>
<!-- scattered_beam&#45;&gt;two_theta -->
<g id="edge8" class="edge">
<title>scattered_beam&#45;&gt;two_theta</title>
<path fill="none" stroke="black" d="M537.01,-413.6C457.97,-401.57 332.97,-382.22 311.5,-377 250.26,-362.12 181.24,-337.92 139.31,-322.36"/>
<polygon fill="black" stroke="black" points="140.76,-319.17 130.17,-318.94 138.31,-325.72 140.76,-319.17"/>
</g>
<!-- scattered_beam&#45;&gt;Qx -->
<g id="edge27" class="edge">
<title>scattered_beam&#45;&gt;Qx</title>
<path fill="none" stroke="black" d="M615.06,-412.71C624.06,-404.09 635.46,-391.14 640.5,-377 661.55,-317.97 652.01,-297.6 640.5,-236 638.9,-227.42 635.77,-218.39 632.56,-210.6"/>
<polygon fill="black" stroke="black" points="635.84,-209.36 628.59,-201.63 629.44,-212.19 635.84,-209.36"/>
</g>
<!-- scattered_beam&#45;&gt;Qy -->
<g id="edge30" class="edge">
<title>scattered_beam&#45;&gt;Qy</title>
<path fill="none" stroke="black" d="M596.59,-412.53C576.96,-376.06 513.66,-258.52 487.74,-210.37"/>
<polygon fill="black" stroke="black" points="490.94,-208.93 483.11,-201.78 484.77,-212.25 490.94,-208.93"/>
</g>
<!-- scattered_beam&#45;&gt;Qz -->
<g id="edge33" class="edge">
<title>scattered_beam&#45;&gt;Qz</title>
<path fill="none" stroke="black" d="M604.14,-412.65C607.15,-390.29 612.42,-337.58 602.5,-295 595.12,-263.33 576.8,-230.24 564.01,-209.75"/>
<polygon fill="black" stroke="black" points="567.08,-208.05 558.73,-201.53 561.19,-211.83 567.08,-208.05"/>
</g>
<!-- Ltotal -->
<g id="node9" class="node">
<title>Ltotal</title>
<polygon fill="none" stroke="black" points="383,-318 324,-318 324,-295 383,-295 383,-318"/>
<text text-anchor="middle" x="353.5" y="-302.8" font-family="Times,serif" font-size="14.00">Ltotal</text>
</g>
<!-- L1&#45;&gt;Ltotal -->
<g id="edge9" class="edge">
<title>L1&#45;&gt;Ltotal</title>
<path fill="none" stroke="black" d="M348.66,-353.51C349.36,-346.81 350.29,-337.99 351.14,-329.88"/>
<polygon fill="black" stroke="black" points="354.62,-330.27 352.19,-319.96 347.66,-329.54 354.62,-330.27"/>
</g>
<!-- L2&#45;&gt;Ltotal -->
<g id="edge10" class="edge">
<title>L2&#45;&gt;Ltotal</title>
<path fill="none" stroke="black" d="M406.77,-353.51C397.74,-345.7 385.38,-335.03 374.85,-325.94"/>
<polygon fill="black" stroke="black" points="377.19,-323.33 367.33,-319.45 372.61,-328.63 377.19,-323.33"/>
</g>
<!-- time_at_sample -->
<g id="node26" class="node">
<title>time_at_sample</title>
<polygon fill="none" stroke="black" points="364.5,-200 236.5,-200 236.5,-177 364.5,-177 364.5,-200"/>
<text text-anchor="middle" x="300.5" y="-184.8" font-family="Times,serif" font-size="14.00">time_at_sample</text>
</g>
<!-- L2&#45;&gt;time_at_sample -->
<g id="edge38" class="edge">
<title>L2&#45;&gt;time_at_sample</title>
<path fill="none" stroke="black" d="M423,-353.66C429.94,-329.92 442.72,-272.54 417.5,-236 407.32,-221.25 391.66,-211.18 375.08,-204.3"/>
<polygon fill="black" stroke="black" points="376.68,-201.17 366.09,-200.95 374.24,-207.72 376.68,-201.17"/>
</g>
<!-- dspacing -->
<g id="node11" class="node">
<title>dspacing</title>
<polygon fill="none" stroke="black" points="140.5,-259 60.5,-259 60.5,-236 140.5,-236 140.5,-259"/>
<text text-anchor="middle" x="100.5" y="-243.8" font-family="Times,serif" font-size="14.00">dspacing</text>
</g>
<!-- two_theta&#45;&gt;dspacing -->
<g id="edge13" class="edge">
<title>two_theta&#45;&gt;dspacing</title>
<path fill="none" stroke="black" d="M100.5,-294.51C100.5,-287.81 100.5,-278.99 100.5,-270.88"/>
<polygon fill="black" stroke="black" points="104,-270.97 100.5,-260.97 97,-270.97 104,-270.97"/>
</g>
<!-- d_perp -->
<g id="node28" class="node">
<title>d_perp</title>
<polygon fill="none" stroke="black" points="65,-200 0,-200 0,-177 65,-177 65,-200"/>
<text text-anchor="middle" x="32.5" y="-184.8" font-family="Times,serif" font-size="14.00">d_perp</text>
</g>
<!-- two_theta&#45;&gt;d_perp -->
<g id="edge42" class="edge">
<title>two_theta&#45;&gt;d_perp</title>
<path fill="none" stroke="black" d="M85.09,-294.55C74.19,-286.03 60.05,-273.29 51.5,-259 42.76,-244.39 37.94,-225.67 35.35,-211.33"/>
<polygon fill="black" stroke="black" points="38.82,-210.92 33.83,-201.58 31.91,-212 38.82,-210.92"/>
</g>
<!-- Ltotal&#45;&gt;dspacing -->
<g id="edge12" class="edge">
<title>Ltotal&#45;&gt;dspacing</title>
<path fill="none" stroke="black" d="M323.98,-298.85C281.72,-289.33 203.37,-271.68 151.58,-260.01"/>
<polygon fill="black" stroke="black" points="152.64,-256.66 142.11,-257.88 151.1,-263.49 152.64,-256.66"/>
</g>
<!-- wavelength -->
<g id="node24" class="node">
<title>wavelength</title>
<polygon fill="none" stroke="black" points="408,-259 309,-259 309,-236 408,-236 408,-259"/>
<text text-anchor="middle" x="358.5" y="-243.8" font-family="Times,serif" font-size="14.00">wavelength</text>
</g>
<!-- Ltotal&#45;&gt;wavelength -->
<g id="edge35" class="edge">
<title>Ltotal&#45;&gt;wavelength</title>
<path fill="none" stroke="black" d="M354.46,-294.51C355.05,-287.81 355.83,-278.99 356.54,-270.88"/>
<polygon fill="black" stroke="black" points="360.02,-271.23 357.41,-260.96 353.05,-270.62 360.02,-271.23"/>
</g>
<!-- tof -->
<g id="node10" class="node">
<title>tof</title>
<polygon fill="none" stroke="black" points="216.5,-318 162.5,-318 162.5,-295 216.5,-295 216.5,-318"/>
<text text-anchor="middle" x="189.5" y="-302.8" font-family="Times,serif" font-size="14.00">tof</text>
</g>
<!-- tof&#45;&gt;dspacing -->
<g id="edge11" class="edge">
<title>tof&#45;&gt;dspacing</title>
<path fill="none" stroke="black" d="M172.34,-294.51C159.54,-286.31 141.8,-274.95 127.15,-265.57"/>
<polygon fill="black" stroke="black" points="129.19,-262.72 118.88,-260.27 125.42,-268.61 129.19,-262.72"/>
</g>
<!-- tof&#45;&gt;wavelength -->
<g id="edge34" class="edge">
<title>tof&#45;&gt;wavelength</title>
<path fill="none" stroke="black" d="M216.65,-296.34C243.28,-287.36 284.29,-273.53 315.37,-263.05"/>
<polygon fill="black" stroke="black" points="316.13,-266.49 324.48,-259.97 313.89,-259.85 316.13,-266.49"/>
</g>
<!-- tof&#45;&gt;time_at_sample -->
<g id="edge37" class="edge">
<title>tof&#45;&gt;time_at_sample</title>
<path fill="none" stroke="black" d="M185.57,-294.55C181.06,-279.88 175.68,-253.65 187.5,-236 197.28,-221.4 212.57,-211.38 228.77,-204.5"/>
<polygon fill="black" stroke="black" points="229.98,-207.78 238.09,-200.96 227.5,-201.24 229.98,-207.78"/>
</g>
<!-- d -->
<g id="node27" class="node">
<title>d</title>
<polygon fill="none" stroke="black" points="137.5,-200 83.5,-200 83.5,-177 137.5,-177 137.5,-200"/>
<text text-anchor="middle" x="110.5" y="-184.8" font-family="Times,serif" font-size="14.00">d</text>
</g>
<!-- dspacing&#45;&gt;d -->
<g id="edge40" class="edge">
<title>dspacing&#45;&gt;d</title>
<path fill="none" stroke="black" stroke-dasharray="5,2" d="M102.43,-235.51C103.62,-228.73 105.19,-219.79 106.62,-211.59"/>
<polygon fill="black" stroke="black" points="110.04,-212.4 108.32,-201.95 103.14,-211.19 110.04,-212.4"/>
</g>
<!-- Q_vec -->
<g id="node12" class="node">
<title>Q_vec</title>
<polygon fill="none" stroke="black" points="613,-141 554,-141 554,-118 613,-118 613,-141"/>
<text text-anchor="middle" x="583.5" y="-125.8" font-family="Times,serif" font-size="14.00">Q_vec</text>
</g>
<!-- hkl_vec -->
<g id="node13" class="node">
<title>hkl_vec</title>
<polygon fill="none" stroke="black" points="742,-82 673,-82 673,-59 742,-59 742,-82"/>
<text text-anchor="middle" x="707.5" y="-66.8" font-family="Times,serif" font-size="14.00">hkl_vec</text>
</g>
<!-- Q_vec&#45;&gt;hkl_vec -->
<g id="edge14" class="edge">
<title>Q_vec&#45;&gt;hkl_vec</title>
<path fill="none" stroke="black" d="M607.41,-117.51C626.11,-108.91 652.35,-96.85 673.28,-87.23"/>
<polygon fill="black" stroke="black" points="674.67,-90.45 682.29,-83.09 671.74,-84.09 674.67,-90.45"/>
</g>
<!-- h -->
<g id="node16" class="node">
<title>h</title>
<polygon fill="none" stroke="black" points="662.5,-23 608.5,-23 608.5,0 662.5,0 662.5,-23"/>
<text text-anchor="middle" x="635.5" y="-7.8" font-family="Times,serif" font-size="14.00">h</text>
</g>
<!-- hkl_vec&#45;&gt;h -->
<g id="edge17" class="edge">
<title>hkl_vec&#45;&gt;h</title>
<path fill="none" stroke="black" d="M693.62,-58.51C683.56,-50.55 669.73,-39.6 658.09,-30.39"/>
<polygon fill="black" stroke="black" points="660.54,-27.86 650.53,-24.4 656.19,-33.35 660.54,-27.86"/>
</g>
<!-- k -->
<g id="node17" class="node">
<title>k</title>
<polygon fill="none" stroke="black" points="734.5,-23 680.5,-23 680.5,0 734.5,0 734.5,-23"/>
<text text-anchor="middle" x="707.5" y="-7.8" font-family="Times,serif" font-size="14.00">k</text>
</g>
<!-- hkl_vec&#45;&gt;k -->
<g id="edge18" class="edge">
<title>hkl_vec&#45;&gt;k</title>
<path fill="none" stroke="black" d="M707.5,-58.51C707.5,-51.81 707.5,-42.99 707.5,-34.88"/>
<polygon fill="black" stroke="black" points="711,-34.97 707.5,-24.97 704,-34.97 711,-34.97"/>
</g>
<!-- l -->
<g id="node18" class="node">
<title>l</title>
<polygon fill="none" stroke="black" points="806.5,-23 752.5,-23 752.5,0 806.5,0 806.5,-23"/>
<text text-anchor="middle" x="779.5" y="-7.8" font-family="Times,serif" font-size="14.00">l</text>
</g>
<!-- hkl_vec&#45;&gt;l -->
<g id="edge19" class="edge">
<title>hkl_vec&#45;&gt;l</title>
<path fill="none" stroke="black" d="M721.38,-58.51C731.44,-50.55 745.27,-39.6 756.91,-30.39"/>
<polygon fill="black" stroke="black" points="758.81,-33.35 764.47,-24.4 754.46,-27.86 758.81,-33.35"/>
</g>
<!-- ub_matrix -->
<g id="node14" class="node">
<title>ub_matrix</title>
<polygon fill="none" stroke="black" points="752,-141 663,-141 663,-118 752,-118 752,-141"/>
<text text-anchor="middle" x="707.5" y="-125.8" font-family="Times,serif" font-size="14.00">ub_matrix</text>
</g>
<!-- ub_matrix&#45;&gt;hkl_vec -->
<g id="edge15" class="edge">
<title>ub_matrix&#45;&gt;hkl_vec</title>
<path fill="none" stroke="black" d="M707.5,-117.51C707.5,-110.81 707.5,-101.99 707.5,-93.88"/>
<polygon fill="black" stroke="black" points="711,-93.97 707.5,-83.97 704,-93.97 711,-93.97"/>
</g>
<!-- sample_rotation -->
<g id="node15" class="node">
<title>sample_rotation</title>
<polygon fill="none" stroke="black" points="901,-141 770,-141 770,-118 901,-118 901,-141"/>
<text text-anchor="middle" x="835.5" y="-125.8" font-family="Times,serif" font-size="14.00">sample_rotation</text>
</g>
<!-- sample_rotation&#45;&gt;hkl_vec -->
<g id="edge16" class="edge">
<title>sample_rotation&#45;&gt;hkl_vec</title>
<path fill="none" stroke="black" d="M810.82,-117.51C791.43,-108.88 764.18,-96.74 742.53,-87.1"/>
<polygon fill="black" stroke="black" points="744.05,-83.94 733.49,-83.07 741.2,-90.34 744.05,-83.94"/>
</g>
<!-- u_matrix -->
<g id="node19" class="node">
<title>u_matrix</title>
<polygon fill="none" stroke="black" points="747.5,-200 667.5,-200 667.5,-177 747.5,-177 747.5,-200"/>
<text text-anchor="middle" x="707.5" y="-184.8" font-family="Times,serif" font-size="14.00">u_matrix</text>
</g>
<!-- u_matrix&#45;&gt;ub_matrix -->
<g id="edge20" class="edge">
<title>u_matrix&#45;&gt;ub_matrix</title>
<path fill="none" stroke="black" d="M707.5,-176.51C707.5,-169.81 707.5,-160.99 707.5,-152.88"/>
<polygon fill="black" stroke="black" points="711,-152.97 707.5,-142.97 704,-152.97 711,-152.97"/>
</g>
<!-- b_matrix -->
<g id="node20" class="node">
<title>b_matrix</title>
<polygon fill="none" stroke="black" points="845.5,-200 765.5,-200 765.5,-177 845.5,-177 845.5,-200"/>
<text text-anchor="middle" x="805.5" y="-184.8" font-family="Times,serif" font-size="14.00">b_matrix</text>
</g>
<!-- b_matrix&#45;&gt;ub_matrix -->
<g id="edge21" class="edge">
<title>b_matrix&#45;&gt;ub_matrix</title>
<path fill="none" stroke="black" d="M786.6,-176.51C772.23,-168.15 752.22,-156.51 735.92,-147.03"/>
<polygon fill="black" stroke="black" points="738.05,-144.22 727.65,-142.22 734.53,-150.27 738.05,-144.22"/>
</g>
<!-- Qx&#45;&gt;Q_vec -->
<g id="edge22" class="edge">
<title>Qx&#45;&gt;Q_vec</title>
<path fill="none" stroke="black" d="M614.98,-176.51C610.02,-169.26 603.36,-159.53 597.45,-150.89"/>
<polygon fill="black" stroke="black" points="600.39,-148.98 591.85,-142.71 594.61,-152.94 600.39,-148.98"/>
</g>
<!-- Qy&#45;&gt;Q_vec -->
<g id="edge23" class="edge">
<title>Qy&#45;&gt;Q_vec</title>
<path fill="none" stroke="black" d="M497.13,-176.51C512.97,-168.07 535.08,-156.29 552.97,-146.76"/>
<polygon fill="black" stroke="black" points="554.42,-149.96 561.6,-142.17 551.13,-143.78 554.42,-149.96"/>
</g>
<!-- Qz&#45;&gt;Q_vec -->
<g id="edge24" class="edge">
<title>Qz&#45;&gt;Q_vec</title>
<path fill="none" stroke="black" d="M556.86,-176.51C561.02,-169.33 566.57,-159.74 571.53,-151.17"/>
<polygon fill="black" stroke="black" points="574.42,-153.17 576.4,-142.77 568.36,-149.67 574.42,-153.17"/>
</g>
<!-- wavelength&#45;&gt;Qx -->
<g id="edge25" class="edge">
<title>wavelength&#45;&gt;Qx</title>
<path fill="none" stroke="black" d="M408.13,-237.6C452.05,-229.45 518.1,-216.54 584.04,-200.47"/>
<polygon fill="black" stroke="black" points="584.7,-203.91 593.58,-198.12 583.03,-197.12 584.7,-203.91"/>
</g>
<!-- wavelength&#45;&gt;Qy -->
<g id="edge28" class="edge">
<title>wavelength&#45;&gt;Qy</title>
<path fill="none" stroke="black" d="M381.25,-235.51C398.96,-226.95 423.79,-214.96 443.66,-205.36"/>
<polygon fill="black" stroke="black" points="444.97,-208.62 452.46,-201.11 441.93,-202.31 444.97,-208.62"/>
</g>
<!-- wavelength&#45;&gt;Qz -->
<g id="edge31" class="edge">
<title>wavelength&#45;&gt;Qz</title>
<path fill="none" stroke="black" d="M395.52,-235.51C429.1,-225.54 478.4,-210.9 512.33,-200.83"/>
<polygon fill="black" stroke="black" points="513.17,-204.23 521.76,-198.03 511.17,-197.52 513.17,-204.23"/>
</g>
<!-- wavelength&#45;&gt;time_at_sample -->
<g id="edge39" class="edge">
<title>wavelength&#45;&gt;time_at_sample</title>
<path fill="none" stroke="black" d="M347.32,-235.51C339.53,-227.86 328.96,-217.46 319.82,-208.49"/>
<polygon fill="black" stroke="black" points="322.31,-206.03 312.73,-201.52 317.41,-211.02 322.31,-206.03"/>
</g>
<!-- wavelength&#45;&gt;d_perp -->
<g id="edge41" class="edge">
<title>wavelength&#45;&gt;d_perp</title>
<path fill="none" stroke="black" d="M308.62,-237.56C305.53,-237.03 302.47,-236.5 299.5,-236 203.15,-219.72 175.63,-220.24 76.57,-200.29"/>
<polygon fill="black" stroke="black" points="77.43,-196.89 66.94,-198.33 76.04,-203.75 77.43,-196.89"/>
</g>
<!-- pulse_time -->
<g id="node25" class="node">
<title>pulse_time</title>
<polygon fill="none" stroke="black" points="290.5,-259 196.5,-259 196.5,-236 290.5,-236 290.5,-259"/>
<text text-anchor="middle" x="243.5" y="-243.8" font-family="Times,serif" font-size="14.00">pulse_time</text>
</g>
<!-- pulse_time&#45;&gt;time_at_sample -->
<g id="edge36" class="edge">
<title>pulse_time&#45;&gt;time_at_sample</title>
<path fill="none" stroke="black" d="M254.49,-235.51C262.14,-227.86 272.54,-217.46 281.51,-208.49"/>
<polygon fill="black" stroke="black" points="283.88,-211.07 288.47,-201.53 278.93,-206.12 283.88,-211.07"/>
</g>
</g>
</svg>
