<?xml version="1.0" encoding="utf-8" standalone="no"?>
<!DOCTYPE svg PUBLIC "-//W3C//DTD SVG 1.1//EN"
  "http://www.w3.org/Graphics/SVG/1.1/DTD/svg11.dtd">
<svg xmlns:xlink="http://www.w3.org/1999/xlink" width="872.39952pt" height="296.39952pt" viewBox="0 0 872.39952 296.39952" xmlns="http://www.w3.org/2000/svg" version="1.1">
 <metadata>
  <rdf:RDF xmlns:dc="http://purl.org/dc/elements/1.1/" xmlns:cc="http://creativecommons.org/ns#" xmlns:rdf="http://www.w3.org/1999/02/22-rdf-syntax-ns#">
   <cc:Work>
    <dc:type rdf:resource="http://purl.org/dc/dcmitype/StillImage"/>
    <dc:date>2024-12-12T12:32:00.820177</dc:date>
    <dc:format>image/svg+xml</dc:format>
    <dc:creator>
     <cc:Agent>
      <dc:title>Matplotlib v3.7.3, https://matplotlib.org/</dc:title>
     </cc:Agent>
    </dc:creator>
   </cc:Work>
  </rdf:RDF>
 </metadata>
 <defs>
  <style type="text/css">*{stroke-linejoin: round; stroke-linecap: butt}</style>
 </defs>
 <g id="figure_1">
  <g id="patch_1">
   <path d="M 0 296.39952 
L 872.39952 296.39952 
L 872.39952 0 
L 0 0 
z
" style="fill: #ffffff"/>
  </g>
  <g id="axes_1">
   <g id="patch_2">
    <path d="M 46.965625 257.158895 
L 431.87976 257.158895 
L 431.87976 22.318125 
L 46.965625 22.318125 
z
" style="fill: #ffffff"/>
   </g>
   <g id="matplotlib.axis_1">
    <g id="xtick_1">
     <g id="line2d_1">
      <defs>
       <path id="m08dbcbedd9" d="M 0 0 
L 0 3.5 
" style="stroke: #000000; stroke-width: 0.8"/>
      </defs>
      <g>
       <use xlink:href="#m08dbcbedd9" x="82.878666" y="257.158895" style="stroke: #000000; stroke-width: 0.8"/>
      </g>
     </g>
     <g id="text_1">
      <!-- 1.0 -->
      <g transform="translate(74.927104 271.757332) scale(0.1 -0.1)">
       <defs>
        <path id="DejaVuSans-31" d="M 794 531 
L 1825 531 
L 1825 4091 
L 703 3866 
L 703 4441 
L 1819 4666 
L 2450 4666 
L 2450 531 
L 3481 531 
L 3481 0 
L 794 0 
L 794 531 
z
" transform="scale(0.015625)"/>
        <path id="DejaVuSans-2e" d="M 684 794 
L 1344 794 
L 1344 0 
L 684 0 
L 684 794 
z
" transform="scale(0.015625)"/>
        <path id="DejaVuSans-30" d="M 2034 4250 
Q 1547 4250 1301 3770 
Q 1056 3291 1056 2328 
Q 1056 1369 1301 889 
Q 1547 409 2034 409 
Q 2525 409 2770 889 
Q 3016 1369 3016 2328 
Q 3016 3291 2770 3770 
Q 2525 4250 2034 4250 
z
M 2034 4750 
Q 2819 4750 3233 4129 
Q 3647 3509 3647 2328 
Q 3647 1150 3233 529 
Q 2819 -91 2034 -91 
Q 1250 -91 836 529 
Q 422 1150 422 2328 
Q 422 3509 836 4129 
Q 1250 4750 2034 4750 
z
" transform="scale(0.015625)"/>
       </defs>
       <use xlink:href="#DejaVuSans-31"/>
       <use xlink:href="#DejaVuSans-2e" x="63.623047"/>
       <use xlink:href="#DejaVuSans-30" x="95.410156"/>
      </g>
     </g>
    </g>
    <g id="xtick_2">
     <g id="line2d_2">
      <g>
       <use xlink:href="#m08dbcbedd9" x="128.921027" y="257.158895" style="stroke: #000000; stroke-width: 0.8"/>
      </g>
     </g>
     <g id="text_2">
      <!-- 1.5 -->
      <g transform="translate(120.969464 271.757332) scale(0.1 -0.1)">
       <defs>
        <path id="DejaVuSans-35" d="M 691 4666 
L 3169 4666 
L 3169 4134 
L 1269 4134 
L 1269 2991 
Q 1406 3038 1543 3061 
Q 1681 3084 1819 3084 
Q 2600 3084 3056 2656 
Q 3513 2228 3513 1497 
Q 3513 744 3044 326 
Q 2575 -91 1722 -91 
Q 1428 -91 1123 -41 
Q 819 9 494 109 
L 494 744 
Q 775 591 1075 516 
Q 1375 441 1709 441 
Q 2250 441 2565 725 
Q 2881 1009 2881 1497 
Q 2881 1984 2565 2268 
Q 2250 2553 1709 2553 
Q 1456 2553 1204 2497 
Q 953 2441 691 2322 
L 691 4666 
z
" transform="scale(0.015625)"/>
       </defs>
       <use xlink:href="#DejaVuSans-31"/>
       <use xlink:href="#DejaVuSans-2e" x="63.623047"/>
       <use xlink:href="#DejaVuSans-35" x="95.410156"/>
      </g>
     </g>
    </g>
    <g id="xtick_3">
     <g id="line2d_3">
      <g>
       <use xlink:href="#m08dbcbedd9" x="174.963388" y="257.158895" style="stroke: #000000; stroke-width: 0.8"/>
      </g>
     </g>
     <g id="text_3">
      <!-- 2.0 -->
      <g transform="translate(167.011825 271.757332) scale(0.1 -0.1)">
       <defs>
        <path id="DejaVuSans-32" d="M 1228 531 
L 3431 531 
L 3431 0 
L 469 0 
L 469 531 
Q 828 903 1448 1529 
Q 2069 2156 2228 2338 
Q 2531 2678 2651 2914 
Q 2772 3150 2772 3378 
Q 2772 3750 2511 3984 
Q 2250 4219 1831 4219 
Q 1534 4219 1204 4116 
Q 875 4013 500 3803 
L 500 4441 
Q 881 4594 1212 4672 
Q 1544 4750 1819 4750 
Q 2544 4750 2975 4387 
Q 3406 4025 3406 3419 
Q 3406 3131 3298 2873 
Q 3191 2616 2906 2266 
Q 2828 2175 2409 1742 
Q 1991 1309 1228 531 
z
" transform="scale(0.015625)"/>
       </defs>
       <use xlink:href="#DejaVuSans-32"/>
       <use xlink:href="#DejaVuSans-2e" x="63.623047"/>
       <use xlink:href="#DejaVuSans-30" x="95.410156"/>
      </g>
     </g>
    </g>
    <g id="xtick_4">
     <g id="line2d_4">
      <g>
       <use xlink:href="#m08dbcbedd9" x="221.005748" y="257.158895" style="stroke: #000000; stroke-width: 0.8"/>
      </g>
     </g>
     <g id="text_4">
      <!-- 2.5 -->
      <g transform="translate(213.054186 271.757332) scale(0.1 -0.1)">
       <use xlink:href="#DejaVuSans-32"/>
       <use xlink:href="#DejaVuSans-2e" x="63.623047"/>
       <use xlink:href="#DejaVuSans-35" x="95.410156"/>
      </g>
     </g>
    </g>
    <g id="xtick_5">
     <g id="line2d_5">
      <g>
       <use xlink:href="#m08dbcbedd9" x="267.048109" y="257.158895" style="stroke: #000000; stroke-width: 0.8"/>
      </g>
     </g>
     <g id="text_5">
      <!-- 3.0 -->
      <g transform="translate(259.096546 271.757332) scale(0.1 -0.1)">
       <defs>
        <path id="DejaVuSans-33" d="M 2597 2516 
Q 3050 2419 3304 2112 
Q 3559 1806 3559 1356 
Q 3559 666 3084 287 
Q 2609 -91 1734 -91 
Q 1441 -91 1130 -33 
Q 819 25 488 141 
L 488 750 
Q 750 597 1062 519 
Q 1375 441 1716 441 
Q 2309 441 2620 675 
Q 2931 909 2931 1356 
Q 2931 1769 2642 2001 
Q 2353 2234 1838 2234 
L 1294 2234 
L 1294 2753 
L 1863 2753 
Q 2328 2753 2575 2939 
Q 2822 3125 2822 3475 
Q 2822 3834 2567 4026 
Q 2313 4219 1838 4219 
Q 1578 4219 1281 4162 
Q 984 4106 628 3988 
L 628 4550 
Q 988 4650 1302 4700 
Q 1616 4750 1894 4750 
Q 2613 4750 3031 4423 
Q 3450 4097 3450 3541 
Q 3450 3153 3228 2886 
Q 3006 2619 2597 2516 
z
" transform="scale(0.015625)"/>
       </defs>
       <use xlink:href="#DejaVuSans-33"/>
       <use xlink:href="#DejaVuSans-2e" x="63.623047"/>
       <use xlink:href="#DejaVuSans-30" x="95.410156"/>
      </g>
     </g>
    </g>
    <g id="xtick_6">
     <g id="line2d_6">
      <g>
       <use xlink:href="#m08dbcbedd9" x="313.09047" y="257.158895" style="stroke: #000000; stroke-width: 0.8"/>
      </g>
     </g>
     <g id="text_6">
      <!-- 3.5 -->
      <g transform="translate(305.138907 271.757332) scale(0.1 -0.1)">
       <use xlink:href="#DejaVuSans-33"/>
       <use xlink:href="#DejaVuSans-2e" x="63.623047"/>
       <use xlink:href="#DejaVuSans-35" x="95.410156"/>
      </g>
     </g>
    </g>
    <g id="xtick_7">
     <g id="line2d_7">
      <g>
       <use xlink:href="#m08dbcbedd9" x="359.13283" y="257.158895" style="stroke: #000000; stroke-width: 0.8"/>
      </g>
     </g>
     <g id="text_7">
      <!-- 4.0 -->
      <g transform="translate(351.181268 271.757332) scale(0.1 -0.1)">
       <defs>
        <path id="DejaVuSans-34" d="M 2419 4116 
L 825 1625 
L 2419 1625 
L 2419 4116 
z
M 2253 4666 
L 3047 4666 
L 3047 1625 
L 3713 1625 
L 3713 1100 
L 3047 1100 
L 3047 0 
L 2419 0 
L 2419 1100 
L 313 1100 
L 313 1709 
L 2253 4666 
z
" transform="scale(0.015625)"/>
       </defs>
       <use xlink:href="#DejaVuSans-34"/>
       <use xlink:href="#DejaVuSans-2e" x="63.623047"/>
       <use xlink:href="#DejaVuSans-30" x="95.410156"/>
      </g>
     </g>
    </g>
    <g id="xtick_8">
     <g id="line2d_8">
      <g>
       <use xlink:href="#m08dbcbedd9" x="405.175191" y="257.158895" style="stroke: #000000; stroke-width: 0.8"/>
      </g>
     </g>
     <g id="text_8">
      <!-- 4.5 -->
      <g transform="translate(397.223628 271.757332) scale(0.1 -0.1)">
       <use xlink:href="#DejaVuSans-34"/>
       <use xlink:href="#DejaVuSans-2e" x="63.623047"/>
       <use xlink:href="#DejaVuSans-35" x="95.410156"/>
      </g>
     </g>
    </g>
    <g id="text_9">
     <!-- wavelength [Å] -->
     <g transform="translate(201.385193 287.119832) scale(0.1 -0.1)">
      <defs>
       <path id="DejaVuSans-77" d="M 269 3500 
L 844 3500 
L 1563 769 
L 2278 3500 
L 2956 3500 
L 3675 769 
L 4391 3500 
L 4966 3500 
L 4050 0 
L 3372 0 
L 2619 2869 
L 1863 0 
L 1184 0 
L 269 3500 
z
" transform="scale(0.015625)"/>
       <path id="DejaVuSans-61" d="M 2194 1759 
Q 1497 1759 1228 1600 
Q 959 1441 959 1056 
Q 959 750 1161 570 
Q 1363 391 1709 391 
Q 2188 391 2477 730 
Q 2766 1069 2766 1631 
L 2766 1759 
L 2194 1759 
z
M 3341 1997 
L 3341 0 
L 2766 0 
L 2766 531 
Q 2569 213 2275 61 
Q 1981 -91 1556 -91 
Q 1019 -91 701 211 
Q 384 513 384 1019 
Q 384 1609 779 1909 
Q 1175 2209 1959 2209 
L 2766 2209 
L 2766 2266 
Q 2766 2663 2505 2880 
Q 2244 3097 1772 3097 
Q 1472 3097 1187 3025 
Q 903 2953 641 2809 
L 641 3341 
Q 956 3463 1253 3523 
Q 1550 3584 1831 3584 
Q 2591 3584 2966 3190 
Q 3341 2797 3341 1997 
z
" transform="scale(0.015625)"/>
       <path id="DejaVuSans-76" d="M 191 3500 
L 800 3500 
L 1894 563 
L 2988 3500 
L 3597 3500 
L 2284 0 
L 1503 0 
L 191 3500 
z
" transform="scale(0.015625)"/>
       <path id="DejaVuSans-65" d="M 3597 1894 
L 3597 1613 
L 953 1613 
Q 991 1019 1311 708 
Q 1631 397 2203 397 
Q 2534 397 2845 478 
Q 3156 559 3463 722 
L 3463 178 
Q 3153 47 2828 -22 
Q 2503 -91 2169 -91 
Q 1331 -91 842 396 
Q 353 884 353 1716 
Q 353 2575 817 3079 
Q 1281 3584 2069 3584 
Q 2775 3584 3186 3129 
Q 3597 2675 3597 1894 
z
M 3022 2063 
Q 3016 2534 2758 2815 
Q 2500 3097 2075 3097 
Q 1594 3097 1305 2825 
Q 1016 2553 972 2059 
L 3022 2063 
z
" transform="scale(0.015625)"/>
       <path id="DejaVuSans-6c" d="M 603 4863 
L 1178 4863 
L 1178 0 
L 603 0 
L 603 4863 
z
" transform="scale(0.015625)"/>
       <path id="DejaVuSans-6e" d="M 3513 2113 
L 3513 0 
L 2938 0 
L 2938 2094 
Q 2938 2591 2744 2837 
Q 2550 3084 2163 3084 
Q 1697 3084 1428 2787 
Q 1159 2491 1159 1978 
L 1159 0 
L 581 0 
L 581 3500 
L 1159 3500 
L 1159 2956 
Q 1366 3272 1645 3428 
Q 1925 3584 2291 3584 
Q 2894 3584 3203 3211 
Q 3513 2838 3513 2113 
z
" transform="scale(0.015625)"/>
       <path id="DejaVuSans-67" d="M 2906 1791 
Q 2906 2416 2648 2759 
Q 2391 3103 1925 3103 
Q 1463 3103 1205 2759 
Q 947 2416 947 1791 
Q 947 1169 1205 825 
Q 1463 481 1925 481 
Q 2391 481 2648 825 
Q 2906 1169 2906 1791 
z
M 3481 434 
Q 3481 -459 3084 -895 
Q 2688 -1331 1869 -1331 
Q 1566 -1331 1297 -1286 
Q 1028 -1241 775 -1147 
L 775 -588 
Q 1028 -725 1275 -790 
Q 1522 -856 1778 -856 
Q 2344 -856 2625 -561 
Q 2906 -266 2906 331 
L 2906 616 
Q 2728 306 2450 153 
Q 2172 0 1784 0 
Q 1141 0 747 490 
Q 353 981 353 1791 
Q 353 2603 747 3093 
Q 1141 3584 1784 3584 
Q 2172 3584 2450 3431 
Q 2728 3278 2906 2969 
L 2906 3500 
L 3481 3500 
L 3481 434 
z
" transform="scale(0.015625)"/>
       <path id="DejaVuSans-74" d="M 1172 4494 
L 1172 3500 
L 2356 3500 
L 2356 3053 
L 1172 3053 
L 1172 1153 
Q 1172 725 1289 603 
Q 1406 481 1766 481 
L 2356 481 
L 2356 0 
L 1766 0 
Q 1100 0 847 248 
Q 594 497 594 1153 
L 594 3053 
L 172 3053 
L 172 3500 
L 594 3500 
L 594 4494 
L 1172 4494 
z
" transform="scale(0.015625)"/>
       <path id="DejaVuSans-68" d="M 3513 2113 
L 3513 0 
L 2938 0 
L 2938 2094 
Q 2938 2591 2744 2837 
Q 2550 3084 2163 3084 
Q 1697 3084 1428 2787 
Q 1159 2491 1159 1978 
L 1159 0 
L 581 0 
L 581 4863 
L 1159 4863 
L 1159 2956 
Q 1366 3272 1645 3428 
Q 1925 3584 2291 3584 
Q 2894 3584 3203 3211 
Q 3513 2838 3513 2113 
z
" transform="scale(0.015625)"/>
       <path id="DejaVuSans-20" transform="scale(0.015625)"/>
       <path id="DejaVuSans-5b" d="M 550 4863 
L 1875 4863 
L 1875 4416 
L 1125 4416 
L 1125 -397 
L 1875 -397 
L 1875 -844 
L 550 -844 
L 550 4863 
z
" transform="scale(0.015625)"/>
       <path id="DejaVuSans-c5" d="M 2663 5081 
Q 2663 5278 2523 5417 
Q 2384 5556 2188 5556 
Q 1988 5556 1852 5420 
Q 1716 5284 1716 5081 
Q 1716 4884 1853 4746 
Q 1991 4609 2188 4609 
Q 2384 4609 2523 4746 
Q 2663 4884 2663 5081 
z
M 2188 4044 
L 1338 1722 
L 3041 1722 
L 2188 4044 
z
M 1716 4366 
Q 1525 4494 1428 4673 
Q 1331 4853 1331 5081 
Q 1331 5441 1579 5691 
Q 1828 5941 2188 5941 
Q 2544 5941 2795 5689 
Q 3047 5438 3047 5081 
Q 3047 4863 2948 4678 
Q 2850 4494 2663 4366 
L 4325 0 
L 3669 0 
L 3244 1197 
L 1141 1197 
L 716 0 
L 50 0 
L 1716 4366 
z
" transform="scale(0.015625)"/>
       <path id="DejaVuSans-5d" d="M 1947 4863 
L 1947 -844 
L 622 -844 
L 622 -397 
L 1369 -397 
L 1369 4416 
L 622 4416 
L 622 4863 
L 1947 4863 
z
" transform="scale(0.015625)"/>
      </defs>
      <use xlink:href="#DejaVuSans-77"/>
      <use xlink:href="#DejaVuSans-61" x="81.787109"/>
      <use xlink:href="#DejaVuSans-76" x="143.066406"/>
      <use xlink:href="#DejaVuSans-65" x="202.246094"/>
      <use xlink:href="#DejaVuSans-6c" x="263.769531"/>
      <use xlink:href="#DejaVuSans-65" x="291.552734"/>
      <use xlink:href="#DejaVuSans-6e" x="353.076172"/>
      <use xlink:href="#DejaVuSans-67" x="416.455078"/>
      <use xlink:href="#DejaVuSans-74" x="479.931641"/>
      <use xlink:href="#DejaVuSans-68" x="519.140625"/>
      <use xlink:href="#DejaVuSans-20" x="582.519531"/>
      <use xlink:href="#DejaVuSans-5b" x="614.306641"/>
      <use xlink:href="#DejaVuSans-c5" x="653.320312"/>
      <use xlink:href="#DejaVuSans-5d" x="721.728516"/>
     </g>
    </g>
   </g>
   <g id="matplotlib.axis_2">
    <g id="ytick_1">
     <g id="line2d_9">
      <defs>
       <path id="m04018ca390" d="M 0 0 
L -3.5 0 
" style="stroke: #000000; stroke-width: 0.8"/>
      </defs>
      <g>
       <use xlink:href="#m04018ca390" x="46.965625" y="246.484315" style="stroke: #000000; stroke-width: 0.8"/>
      </g>
     </g>
     <g id="text_10">
      <!-- 0 -->
      <g transform="translate(33.603125 250.283533) scale(0.1 -0.1)">
       <use xlink:href="#DejaVuSans-30"/>
      </g>
     </g>
    </g>
    <g id="ytick_2">
     <g id="line2d_10">
      <g>
       <use xlink:href="#m04018ca390" x="46.965625" y="194.978498" style="stroke: #000000; stroke-width: 0.8"/>
      </g>
     </g>
     <g id="text_11">
      <!-- 200 -->
      <g transform="translate(20.878125 198.777717) scale(0.1 -0.1)">
       <use xlink:href="#DejaVuSans-32"/>
       <use xlink:href="#DejaVuSans-30" x="63.623047"/>
       <use xlink:href="#DejaVuSans-30" x="127.246094"/>
      </g>
     </g>
    </g>
    <g id="ytick_3">
     <g id="line2d_11">
      <g>
       <use xlink:href="#m04018ca390" x="46.965625" y="143.472682" style="stroke: #000000; stroke-width: 0.8"/>
      </g>
     </g>
     <g id="text_12">
      <!-- 400 -->
      <g transform="translate(20.878125 147.2719) scale(0.1 -0.1)">
       <use xlink:href="#DejaVuSans-34"/>
       <use xlink:href="#DejaVuSans-30" x="63.623047"/>
       <use xlink:href="#DejaVuSans-30" x="127.246094"/>
      </g>
     </g>
    </g>
    <g id="ytick_4">
     <g id="line2d_12">
      <g>
       <use xlink:href="#m04018ca390" x="46.965625" y="91.966865" style="stroke: #000000; stroke-width: 0.8"/>
      </g>
     </g>
     <g id="text_13">
      <!-- 600 -->
      <g transform="translate(20.878125 95.766084) scale(0.1 -0.1)">
       <defs>
        <path id="DejaVuSans-36" d="M 2113 2584 
Q 1688 2584 1439 2293 
Q 1191 2003 1191 1497 
Q 1191 994 1439 701 
Q 1688 409 2113 409 
Q 2538 409 2786 701 
Q 3034 994 3034 1497 
Q 3034 2003 2786 2293 
Q 2538 2584 2113 2584 
z
M 3366 4563 
L 3366 3988 
Q 3128 4100 2886 4159 
Q 2644 4219 2406 4219 
Q 1781 4219 1451 3797 
Q 1122 3375 1075 2522 
Q 1259 2794 1537 2939 
Q 1816 3084 2150 3084 
Q 2853 3084 3261 2657 
Q 3669 2231 3669 1497 
Q 3669 778 3244 343 
Q 2819 -91 2113 -91 
Q 1303 -91 875 529 
Q 447 1150 447 2328 
Q 447 3434 972 4092 
Q 1497 4750 2381 4750 
Q 2619 4750 2861 4703 
Q 3103 4656 3366 4563 
z
" transform="scale(0.015625)"/>
       </defs>
       <use xlink:href="#DejaVuSans-36"/>
       <use xlink:href="#DejaVuSans-30" x="63.623047"/>
       <use xlink:href="#DejaVuSans-30" x="127.246094"/>
      </g>
     </g>
    </g>
    <g id="ytick_5">
     <g id="line2d_13">
      <g>
       <use xlink:href="#m04018ca390" x="46.965625" y="40.461049" style="stroke: #000000; stroke-width: 0.8"/>
      </g>
     </g>
     <g id="text_14">
      <!-- 800 -->
      <g transform="translate(20.878125 44.260268) scale(0.1 -0.1)">
       <defs>
        <path id="DejaVuSans-38" d="M 2034 2216 
Q 1584 2216 1326 1975 
Q 1069 1734 1069 1313 
Q 1069 891 1326 650 
Q 1584 409 2034 409 
Q 2484 409 2743 651 
Q 3003 894 3003 1313 
Q 3003 1734 2745 1975 
Q 2488 2216 2034 2216 
z
M 1403 2484 
Q 997 2584 770 2862 
Q 544 3141 544 3541 
Q 544 4100 942 4425 
Q 1341 4750 2034 4750 
Q 2731 4750 3128 4425 
Q 3525 4100 3525 3541 
Q 3525 3141 3298 2862 
Q 3072 2584 2669 2484 
Q 3125 2378 3379 2068 
Q 3634 1759 3634 1313 
Q 3634 634 3220 271 
Q 2806 -91 2034 -91 
Q 1263 -91 848 271 
Q 434 634 434 1313 
Q 434 1759 690 2068 
Q 947 2378 1403 2484 
z
M 1172 3481 
Q 1172 3119 1398 2916 
Q 1625 2713 2034 2713 
Q 2441 2713 2670 2916 
Q 2900 3119 2900 3481 
Q 2900 3844 2670 4047 
Q 2441 4250 2034 4250 
Q 1625 4250 1398 4047 
Q 1172 3844 1172 3481 
z
" transform="scale(0.015625)"/>
       </defs>
       <use xlink:href="#DejaVuSans-38"/>
       <use xlink:href="#DejaVuSans-30" x="63.623047"/>
       <use xlink:href="#DejaVuSans-30" x="127.246094"/>
      </g>
     </g>
    </g>
    <g id="text_15">
     <!-- [counts] -->
     <g transform="translate(14.798437 160.35101) rotate(-90) scale(0.1 -0.1)">
      <defs>
       <path id="DejaVuSans-63" d="M 3122 3366 
L 3122 2828 
Q 2878 2963 2633 3030 
Q 2388 3097 2138 3097 
Q 1578 3097 1268 2742 
Q 959 2388 959 1747 
Q 959 1106 1268 751 
Q 1578 397 2138 397 
Q 2388 397 2633 464 
Q 2878 531 3122 666 
L 3122 134 
Q 2881 22 2623 -34 
Q 2366 -91 2075 -91 
Q 1284 -91 818 406 
Q 353 903 353 1747 
Q 353 2603 823 3093 
Q 1294 3584 2113 3584 
Q 2378 3584 2631 3529 
Q 2884 3475 3122 3366 
z
" transform="scale(0.015625)"/>
       <path id="DejaVuSans-6f" d="M 1959 3097 
Q 1497 3097 1228 2736 
Q 959 2375 959 1747 
Q 959 1119 1226 758 
Q 1494 397 1959 397 
Q 2419 397 2687 759 
Q 2956 1122 2956 1747 
Q 2956 2369 2687 2733 
Q 2419 3097 1959 3097 
z
M 1959 3584 
Q 2709 3584 3137 3096 
Q 3566 2609 3566 1747 
Q 3566 888 3137 398 
Q 2709 -91 1959 -91 
Q 1206 -91 779 398 
Q 353 888 353 1747 
Q 353 2609 779 3096 
Q 1206 3584 1959 3584 
z
" transform="scale(0.015625)"/>
       <path id="DejaVuSans-75" d="M 544 1381 
L 544 3500 
L 1119 3500 
L 1119 1403 
Q 1119 906 1312 657 
Q 1506 409 1894 409 
Q 2359 409 2629 706 
Q 2900 1003 2900 1516 
L 2900 3500 
L 3475 3500 
L 3475 0 
L 2900 0 
L 2900 538 
Q 2691 219 2414 64 
Q 2138 -91 1772 -91 
Q 1169 -91 856 284 
Q 544 659 544 1381 
z
M 1991 3584 
L 1991 3584 
z
" transform="scale(0.015625)"/>
       <path id="DejaVuSans-73" d="M 2834 3397 
L 2834 2853 
Q 2591 2978 2328 3040 
Q 2066 3103 1784 3103 
Q 1356 3103 1142 2972 
Q 928 2841 928 2578 
Q 928 2378 1081 2264 
Q 1234 2150 1697 2047 
L 1894 2003 
Q 2506 1872 2764 1633 
Q 3022 1394 3022 966 
Q 3022 478 2636 193 
Q 2250 -91 1575 -91 
Q 1294 -91 989 -36 
Q 684 19 347 128 
L 347 722 
Q 666 556 975 473 
Q 1284 391 1588 391 
Q 1994 391 2212 530 
Q 2431 669 2431 922 
Q 2431 1156 2273 1281 
Q 2116 1406 1581 1522 
L 1381 1569 
Q 847 1681 609 1914 
Q 372 2147 372 2553 
Q 372 3047 722 3315 
Q 1072 3584 1716 3584 
Q 2034 3584 2315 3537 
Q 2597 3491 2834 3397 
z
" transform="scale(0.015625)"/>
      </defs>
      <use xlink:href="#DejaVuSans-5b"/>
      <use xlink:href="#DejaVuSans-63" x="39.013672"/>
      <use xlink:href="#DejaVuSans-6f" x="93.994141"/>
      <use xlink:href="#DejaVuSans-75" x="155.175781"/>
      <use xlink:href="#DejaVuSans-6e" x="218.554688"/>
      <use xlink:href="#DejaVuSans-74" x="281.933594"/>
      <use xlink:href="#DejaVuSans-73" x="321.142578"/>
      <use xlink:href="#DejaVuSans-5d" x="373.242188"/>
     </g>
    </g>
   </g>
   <g id="patch_3">
    <path d="M 46.965625 257.158895 
L 46.965625 22.318125 
" style="fill: none; stroke: #000000; stroke-width: 0.8; stroke-linejoin: miter; stroke-linecap: square"/>
   </g>
   <g id="patch_4">
    <path d="M 431.87976 257.158895 
L 431.87976 22.318125 
" style="fill: none; stroke: #000000; stroke-width: 0.8; stroke-linejoin: miter; stroke-linecap: square"/>
   </g>
   <g id="patch_5">
    <path d="M 46.965625 257.158895 
L 431.87976 257.158895 
" style="fill: none; stroke: #000000; stroke-width: 0.8; stroke-linejoin: miter; stroke-linecap: square"/>
   </g>
   <g id="patch_6">
    <path d="M 46.965625 22.318125 
L 431.87976 22.318125 
" style="fill: none; stroke: #000000; stroke-width: 0.8; stroke-linejoin: miter; stroke-linecap: square"/>
   </g>
   <g id="text_16">
    <!-- Pixel 1 -->
    <g transform="translate(219.82613 16.318125) scale(0.12 -0.12)">
     <defs>
      <path id="DejaVuSans-50" d="M 1259 4147 
L 1259 2394 
L 2053 2394 
Q 2494 2394 2734 2622 
Q 2975 2850 2975 3272 
Q 2975 3691 2734 3919 
Q 2494 4147 2053 4147 
L 1259 4147 
z
M 628 4666 
L 2053 4666 
Q 2838 4666 3239 4311 
Q 3641 3956 3641 3272 
Q 3641 2581 3239 2228 
Q 2838 1875 2053 1875 
L 1259 1875 
L 1259 0 
L 628 0 
L 628 4666 
z
" transform="scale(0.015625)"/>
      <path id="DejaVuSans-69" d="M 603 3500 
L 1178 3500 
L 1178 0 
L 603 0 
L 603 3500 
z
M 603 4863 
L 1178 4863 
L 1178 4134 
L 603 4134 
L 603 4863 
z
" transform="scale(0.015625)"/>
      <path id="DejaVuSans-78" d="M 3513 3500 
L 2247 1797 
L 3578 0 
L 2900 0 
L 1881 1375 
L 863 0 
L 184 0 
L 1544 1831 
L 300 3500 
L 978 3500 
L 1906 2253 
L 2834 3500 
L 3513 3500 
z
" transform="scale(0.015625)"/>
     </defs>
     <use xlink:href="#DejaVuSans-50"/>
     <use xlink:href="#DejaVuSans-69" x="58.052734"/>
     <use xlink:href="#DejaVuSans-78" x="85.835938"/>
     <use xlink:href="#DejaVuSans-65" x="141.890625"/>
     <use xlink:href="#DejaVuSans-6c" x="203.414062"/>
     <use xlink:href="#DejaVuSans-20" x="231.197266"/>
     <use xlink:href="#DejaVuSans-31" x="262.984375"/>
    </g>
   </g>
   <g id="legend_1">
    <g id="patch_7">
     <path d="M 327.876635 59.9525 
L 424.87976 59.9525 
Q 426.87976 59.9525 426.87976 57.9525 
L 426.87976 29.318125 
Q 426.87976 27.318125 424.87976 27.318125 
L 327.876635 27.318125 
Q 325.876635 27.318125 325.876635 29.318125 
L 325.876635 57.9525 
Q 325.876635 59.9525 327.876635 59.9525 
z
" style="fill: #ffffff; opacity: 0.8; stroke: #cccccc; stroke-linejoin: miter"/>
    </g>
    <g id="line2d_14">
     <path d="M 329.876635 35.416562 
L 329.876635 35.416562 
L 339.876635 35.416562 
L 339.876635 35.416562 
L 349.876635 35.416562 
" style="fill: none; stroke: #1f77b4; stroke-width: 1.5; stroke-linecap: square"/>
    </g>
    <g id="text_17">
     <!-- wfm -->
     <g transform="translate(357.876635 38.916562) scale(0.1 -0.1)">
      <defs>
       <path id="DejaVuSans-66" d="M 2375 4863 
L 2375 4384 
L 1825 4384 
Q 1516 4384 1395 4259 
Q 1275 4134 1275 3809 
L 1275 3500 
L 2222 3500 
L 2222 3053 
L 1275 3053 
L 1275 0 
L 697 0 
L 697 3053 
L 147 3053 
L 147 3500 
L 697 3500 
L 697 3744 
Q 697 4328 969 4595 
Q 1241 4863 1831 4863 
L 2375 4863 
z
" transform="scale(0.015625)"/>
       <path id="DejaVuSans-6d" d="M 3328 2828 
Q 3544 3216 3844 3400 
Q 4144 3584 4550 3584 
Q 5097 3584 5394 3201 
Q 5691 2819 5691 2113 
L 5691 0 
L 5113 0 
L 5113 2094 
Q 5113 2597 4934 2840 
Q 4756 3084 4391 3084 
Q 3944 3084 3684 2787 
Q 3425 2491 3425 1978 
L 3425 0 
L 2847 0 
L 2847 2094 
Q 2847 2600 2669 2842 
Q 2491 3084 2119 3084 
Q 1678 3084 1418 2786 
Q 1159 2488 1159 1978 
L 1159 0 
L 581 0 
L 581 3500 
L 1159 3500 
L 1159 2956 
Q 1356 3278 1631 3431 
Q 1906 3584 2284 3584 
Q 2666 3584 2933 3390 
Q 3200 3197 3328 2828 
z
" transform="scale(0.015625)"/>
      </defs>
      <use xlink:href="#DejaVuSans-77"/>
      <use xlink:href="#DejaVuSans-66" x="81.787109"/>
      <use xlink:href="#DejaVuSans-6d" x="116.992188"/>
     </g>
    </g>
    <g id="line2d_15">
     <path d="M 329.876635 50.094687 
L 329.876635 50.094687 
L 339.876635 50.094687 
L 339.876635 50.094687 
L 349.876635 50.094687 
" style="fill: none; stroke: #ff7f0e; stroke-width: 1.5; stroke-linecap: square"/>
    </g>
    <g id="text_18">
     <!-- ground_truth -->
     <g transform="translate(357.876635 53.594687) scale(0.1 -0.1)">
      <defs>
       <path id="DejaVuSans-72" d="M 2631 2963 
Q 2534 3019 2420 3045 
Q 2306 3072 2169 3072 
Q 1681 3072 1420 2755 
Q 1159 2438 1159 1844 
L 1159 0 
L 581 0 
L 581 3500 
L 1159 3500 
L 1159 2956 
Q 1341 3275 1631 3429 
Q 1922 3584 2338 3584 
Q 2397 3584 2469 3576 
Q 2541 3569 2628 3553 
L 2631 2963 
z
" transform="scale(0.015625)"/>
       <path id="DejaVuSans-64" d="M 2906 2969 
L 2906 4863 
L 3481 4863 
L 3481 0 
L 2906 0 
L 2906 525 
Q 2725 213 2448 61 
Q 2172 -91 1784 -91 
Q 1150 -91 751 415 
Q 353 922 353 1747 
Q 353 2572 751 3078 
Q 1150 3584 1784 3584 
Q 2172 3584 2448 3432 
Q 2725 3281 2906 2969 
z
M 947 1747 
Q 947 1113 1208 752 
Q 1469 391 1925 391 
Q 2381 391 2643 752 
Q 2906 1113 2906 1747 
Q 2906 2381 2643 2742 
Q 2381 3103 1925 3103 
Q 1469 3103 1208 2742 
Q 947 2381 947 1747 
z
" transform="scale(0.015625)"/>
       <path id="DejaVuSans-5f" d="M 3263 -1063 
L 3263 -1509 
L -63 -1509 
L -63 -1063 
L 3263 -1063 
z
" transform="scale(0.015625)"/>
      </defs>
      <use xlink:href="#DejaVuSans-67"/>
      <use xlink:href="#DejaVuSans-72" x="63.476562"/>
      <use xlink:href="#DejaVuSans-6f" x="102.339844"/>
      <use xlink:href="#DejaVuSans-75" x="163.521484"/>
      <use xlink:href="#DejaVuSans-6e" x="226.900391"/>
      <use xlink:href="#DejaVuSans-64" x="290.279297"/>
      <use xlink:href="#DejaVuSans-5f" x="353.755859"/>
      <use xlink:href="#DejaVuSans-74" x="403.755859"/>
      <use xlink:href="#DejaVuSans-72" x="442.964844"/>
      <use xlink:href="#DejaVuSans-75" x="484.078125"/>
      <use xlink:href="#DejaVuSans-74" x="547.457031"/>
      <use xlink:href="#DejaVuSans-68" x="586.666016"/>
     </g>
    </g>
   </g>
   <g id="line2d_16">
    <path d="M 64.461722 246.484315 
L 73.209771 246.484315 
L 73.209771 246.226785 
L 74.95938 246.226785 
L 74.95938 242.878907 
L 76.70899 242.878907 
L 76.70899 231.290099 
L 78.4586 231.290099 
L 78.4586 226.397046 
L 80.208209 226.397046 
L 80.208209 211.717888 
L 81.957819 211.717888 
L 81.957819 202.9619 
L 83.707429 202.9619 
L 83.707429 205.279661 
L 85.457039 205.279661 
L 85.457039 186.737567 
L 87.206648 186.737567 
L 87.206648 180.55687 
L 88.956258 180.55687 
L 88.956258 174.89123 
L 90.705868 174.89123 
L 90.705868 167.680415 
L 92.455477 167.680415 
L 92.455477 155.06149 
L 94.205087 155.06149 
L 94.205087 152.4862 
L 95.954697 152.4862 
L 95.954697 142.957624 
L 97.704306 142.957624 
L 97.704306 132.398931 
L 99.453916 132.398931 
L 99.453916 121.840239 
L 101.203526 121.840239 
L 101.203526 116.432128 
L 102.953136 116.432128 
L 102.953136 111.796605 
L 104.702745 111.796605 
L 104.702745 107.161081 
L 106.452355 107.161081 
L 106.452355 106.388494 
L 108.201965 106.388494 
L 108.201965 99.17768 
L 109.951574 99.17768 
L 109.951574 94.027098 
L 111.701184 94.027098 
L 111.701184 74.969946 
L 113.450794 74.969946 
L 113.450794 70.849481 
L 115.200403 70.849481 
L 115.200403 86.043696 
L 116.950013 86.043696 
L 116.950013 76.257591 
L 118.699623 76.257591 
L 118.699623 51.534799 
L 120.449233 51.534799 
L 120.449233 70.849481 
L 122.198842 70.849481 
L 122.198842 53.337503 
L 123.948452 53.337503 
L 123.948452 54.11009 
L 125.698062 54.11009 
L 125.698062 42.263752 
L 127.447671 42.263752 
L 127.447671 44.066456 
L 129.197281 44.066456 
L 129.197281 36.598113 
L 130.946891 36.598113 
L 130.946891 62.351021 
L 132.696501 62.351021 
L 132.696501 59.518201 
L 134.44611 59.518201 
L 134.44611 50.504683 
L 136.19572 50.504683 
L 136.19572 55.912794 
L 137.94533 55.912794 
L 137.94533 61.835963 
L 139.694939 61.835963 
L 139.694939 64.153724 
L 143.194159 64.153724 
L 143.194159 64.411253 
L 144.943768 64.411253 
L 144.943768 65.183841 
L 146.693378 65.183841 
L 146.693378 72.909713 
L 148.442988 72.909713 
L 148.442988 82.438289 
L 150.192598 82.438289 
L 150.192598 84.498522 
L 151.942207 84.498522 
L 151.942207 73.167242 
L 153.691817 73.167242 
L 153.691817 84.240993 
L 155.441427 84.240993 
L 155.441427 73.167242 
L 157.191036 73.167242 
L 157.191036 76.51512 
L 158.940646 76.51512 
L 158.940646 79.34794 
L 160.690256 79.34794 
L 160.690256 80.635586 
L 162.439866 80.635586 
L 162.439866 78.317824 
L 164.189475 78.317824 
L 164.189475 87.331342 
L 165.939085 87.331342 
L 165.939085 88.876516 
L 167.688695 88.876516 
L 167.688695 95.572272 
L 169.438304 95.572272 
L 169.438304 93.769569 
L 171.187914 93.769569 
L 171.187914 89.391574 
L 172.937524 89.391574 
L 172.937524 97.632505 
L 174.687133 97.632505 
L 174.687133 89.391574 
L 176.436743 89.391574 
L 176.436743 87.588871 
L 178.186353 87.588871 
L 178.186353 90.936749 
L 179.935963 90.936749 
L 179.935963 89.649104 
L 181.685572 89.649104 
L 181.685572 94.027098 
L 183.435182 94.027098 
L 183.435182 99.435209 
L 185.184792 99.435209 
L 185.184792 96.859918 
L 186.934401 96.859918 
L 186.934401 100.980383 
L 188.684011 100.980383 
L 188.684011 112.311663 
L 190.433621 112.311663 
L 190.433621 102.783087 
L 192.18323 102.783087 
L 192.18323 105.100848 
L 193.93284 105.100848 
L 193.93284 102.010499 
L 195.68245 102.010499 
L 195.68245 105.615907 
L 197.43206 105.615907 
L 197.43206 111.281546 
L 199.181669 111.281546 
L 199.181669 114.886954 
L 200.931279 114.886954 
L 200.931279 109.478843 
L 202.680889 109.478843 
L 202.680889 131.111286 
L 204.430498 131.111286 
L 204.430498 135.48928 
L 206.180108 135.48928 
L 206.180108 132.913989 
L 207.929718 132.913989 
L 207.929718 155.06149 
L 209.679328 155.06149 
L 209.679328 152.4862 
L 211.428937 152.4862 
L 211.428937 164.332537 
L 213.178547 164.332537 
L 213.178547 163.302421 
L 214.928157 163.302421 
L 214.928157 176.178875 
L 216.677766 176.178875 
L 216.677766 180.814399 
L 218.427376 180.814399 
L 218.427376 189.312858 
L 220.176986 189.312858 
L 220.176986 195.236027 
L 221.926595 195.236027 
L 221.926595 201.674254 
L 223.676205 201.674254 
L 223.676205 216.353412 
L 225.425815 216.353412 
L 225.425815 211.20283 
L 227.175425 211.20283 
L 227.175425 222.53411 
L 228.925034 222.53411 
L 228.925034 228.457279 
L 230.674644 228.457279 
L 230.674644 232.835273 
L 232.424254 232.835273 
L 232.424254 234.380448 
L 234.173863 234.380448 
L 234.173863 240.046087 
L 235.923473 240.046087 
L 235.923473 243.651495 
L 237.673083 243.651495 
L 237.673083 244.166553 
L 239.422693 244.166553 
L 239.422693 240.303617 
L 241.172302 240.303617 
L 241.172302 228.457279 
L 242.921912 228.457279 
L 242.921912 225.881988 
L 244.671522 225.881988 
L 244.671522 216.86847 
L 246.421131 216.86847 
L 246.421131 204.249545 
L 248.170741 204.249545 
L 248.170741 203.734487 
L 249.920351 203.734487 
L 249.920351 195.493556 
L 251.66996 195.493556 
L 251.66996 193.433324 
L 253.41957 193.433324 
L 253.41957 178.754166 
L 255.16918 178.754166 
L 255.16918 181.071928 
L 256.91879 181.071928 
L 256.91879 181.844515 
L 258.668399 181.844515 
L 258.668399 173.603584 
L 260.418009 173.603584 
L 260.418009 170.770764 
L 262.167619 170.770764 
L 262.167619 159.697014 
L 263.917228 159.697014 
L 263.917228 154.288903 
L 265.666838 154.288903 
L 265.666838 156.349136 
L 267.416448 156.349136 
L 267.416448 145.532914 
L 269.166057 145.532914 
L 269.166057 150.941025 
L 270.915667 150.941025 
L 270.915667 148.880792 
L 272.665277 148.880792 
L 272.665277 139.094687 
L 274.414887 139.094687 
L 274.414887 132.913989 
L 276.164496 132.913989 
L 276.164496 133.171518 
L 277.914106 133.171518 
L 277.914106 122.355297 
L 279.663716 122.355297 
L 279.663716 124.673059 
L 281.413325 124.673059 
L 281.413325 111.281546 
L 283.162935 111.281546 
L 283.162935 113.341779 
L 284.912545 113.341779 
L 284.912545 108.448727 
L 286.662155 108.448727 
L 286.662155 110.508959 
L 288.411764 110.508959 
L 288.411764 112.826721 
L 290.161374 112.826721 
L 290.161374 100.207796 
L 291.910984 100.207796 
L 291.910984 116.689657 
L 293.660593 116.689657 
L 293.660593 118.492361 
L 295.410203 118.492361 
L 295.410203 112.311663 
L 297.159813 112.311663 
L 297.159813 113.08425 
L 298.909422 113.08425 
L 298.909422 110.766488 
L 300.659032 110.766488 
L 300.659032 117.719773 
L 302.408642 117.719773 
L 302.408642 126.475762 
L 304.158252 126.475762 
L 304.158252 134.201635 
L 305.907861 134.201635 
L 305.907861 126.475762 
L 307.657471 126.475762 
L 307.657471 127.763408 
L 309.407081 127.763408 
L 309.407081 126.99082 
L 311.15669 126.99082 
L 311.15669 138.064571 
L 312.9063 138.064571 
L 312.9063 140.897391 
L 314.65591 140.897391 
L 314.65591 136.261867 
L 316.405519 136.261867 
L 316.405519 128.793524 
L 318.155129 128.793524 
L 318.155129 136.004338 
L 319.904739 136.004338 
L 319.904739 146.047973 
L 321.654349 146.047973 
L 321.654349 141.412449 
L 323.403958 141.412449 
L 323.403958 144.760327 
L 325.153568 144.760327 
L 325.153568 141.669978 
L 326.903178 141.669978 
L 326.903178 146.82056 
L 328.652787 146.82056 
L 328.652787 150.683496 
L 330.402397 150.683496 
L 330.402397 141.15492 
L 332.152007 141.15492 
L 332.152007 152.4862 
L 333.901617 152.4862 
L 333.901617 159.439485 
L 335.651226 159.439485 
L 335.651226 161.242188 
L 337.400836 161.242188 
L 337.400836 158.924427 
L 339.150446 158.924427 
L 339.150446 160.469601 
L 340.900055 160.469601 
L 340.900055 159.181956 
L 342.649665 159.181956 
L 342.649665 162.529834 
L 344.399275 162.529834 
L 344.399275 173.346055 
L 346.148884 173.346055 
L 346.148884 162.272305 
L 347.898494 162.272305 
L 347.898494 160.72713 
L 349.648104 160.72713 
L 349.648104 174.89123 
L 351.397714 174.89123 
L 351.397714 180.041811 
L 353.147323 180.041811 
L 353.147323 175.921346 
L 354.896933 175.921346 
L 354.896933 184.419806 
L 356.646543 184.419806 
L 356.646543 181.844515 
L 358.396152 181.844515 
L 358.396152 178.754166 
L 360.145762 178.754166 
L 360.145762 189.570387 
L 361.895372 189.570387 
L 361.895372 188.282742 
L 363.644982 188.282742 
L 363.644982 197.038731 
L 365.394591 197.038731 
L 365.394591 192.403207 
L 367.144201 192.403207 
L 367.144201 194.978498 
L 368.893811 194.978498 
L 368.893811 198.583905 
L 370.64342 198.583905 
L 370.64342 203.992016 
L 372.39303 203.992016 
L 372.39303 204.249545 
L 374.14264 204.249545 
L 374.14264 207.597423 
L 375.892249 207.597423 
L 375.892249 217.383528 
L 377.641859 217.383528 
L 377.641859 219.443761 
L 379.391469 219.443761 
L 379.391469 224.079284 
L 381.141079 224.079284 
L 381.141079 220.988935 
L 382.890688 220.988935 
L 382.890688 224.079284 
L 384.640298 224.079284 
L 384.640298 225.624459 
L 386.389908 225.624459 
L 386.389908 228.972337 
L 389.889127 228.972337 
L 389.889127 235.668093 
L 391.638737 235.668093 
L 391.638737 235.410564 
L 393.388347 235.410564 
L 393.388347 237.728326 
L 395.137956 237.728326 
L 395.137956 237.213268 
L 396.887566 237.213268 
L 396.887566 237.985855 
L 398.637176 237.985855 
L 398.637176 243.651495 
L 400.386785 243.651495 
L 400.386785 243.136436 
L 402.136395 243.136436 
L 402.136395 244.93914 
L 403.886005 244.93914 
L 403.886005 245.454198 
L 405.635614 245.454198 
L 405.635614 246.226785 
L 407.385224 246.226785 
L 407.385224 246.484315 
L 414.383663 246.484315 
L 414.383663 246.484315 
" clip-path="url(#p285eb17d52)" style="fill: none; stroke: #1f77b4; stroke-width: 1.5; stroke-linecap: square"/>
   </g>
   <g id="line2d_17">
    <path d="M 64.461722 246.484315 
L 73.209771 246.484315 
L 73.209771 244.424082 
L 74.95938 244.424082 
L 74.95938 235.668093 
L 76.70899 235.668093 
L 76.70899 230.259982 
L 78.4586 230.259982 
L 78.4586 217.383528 
L 80.208209 217.383528 
L 80.208209 209.142598 
L 81.957819 209.142598 
L 81.957819 204.249545 
L 83.707429 204.249545 
L 83.707429 196.781202 
L 85.457039 196.781202 
L 85.457039 185.707451 
L 87.206648 185.707451 
L 87.206648 178.496637 
L 88.956258 178.496637 
L 88.956258 176.951462 
L 90.705868 176.951462 
L 90.705868 164.075008 
L 92.455477 164.075008 
L 92.455477 156.864194 
L 94.205087 156.864194 
L 94.205087 146.563031 
L 95.954697 146.563031 
L 95.954697 144.760327 
L 97.704306 144.760327 
L 97.704306 130.338699 
L 99.453916 130.338699 
L 99.453916 124.673059 
L 101.203526 124.673059 
L 101.203526 117.204715 
L 102.953136 117.204715 
L 102.953136 119.522477 
L 104.702745 119.522477 
L 104.702745 109.993901 
L 106.452355 109.993901 
L 106.452355 102.525558 
L 108.201965 102.525558 
L 108.201965 100.207796 
L 109.951574 100.207796 
L 109.951574 101.75297 
L 111.701184 101.75297 
L 111.701184 73.167242 
L 113.450794 73.167242 
L 113.450794 87.073813 
L 115.200403 87.073813 
L 115.200403 79.34794 
L 116.950013 79.34794 
L 116.950013 79.090411 
L 118.699623 79.090411 
L 118.699623 66.729015 
L 120.449233 66.729015 
L 120.449233 65.698899 
L 122.198842 65.698899 
L 122.198842 61.578434 
L 123.948452 61.578434 
L 123.948452 60.033259 
L 125.698062 60.033259 
L 125.698062 55.655265 
L 127.447671 55.655265 
L 127.447671 43.03634 
L 129.197281 43.03634 
L 129.197281 32.992705 
L 130.946891 32.992705 
L 130.946891 59.003143 
L 132.696501 59.003143 
L 132.696501 68.27419 
L 134.44611 68.27419 
L 134.44611 46.899276 
L 136.19572 46.899276 
L 136.19572 47.929392 
L 137.94533 47.929392 
L 137.94533 59.260672 
L 139.694939 59.260672 
L 139.694939 75.742533 
L 141.444549 75.742533 
L 141.444549 54.625148 
L 143.194159 54.625148 
L 143.194159 65.698899 
L 144.943768 65.698899 
L 144.943768 65.183841 
L 146.693378 65.183841 
L 146.693378 75.227475 
L 148.442988 75.227475 
L 148.442988 78.832882 
L 150.192598 78.832882 
L 150.192598 77.287708 
L 151.942207 77.287708 
L 151.942207 81.923231 
L 153.691817 81.923231 
L 153.691817 82.18076 
L 155.441427 82.18076 
L 155.441427 68.016661 
L 157.191036 68.016661 
L 157.191036 79.090411 
L 158.940646 79.090411 
L 158.940646 82.18076 
L 160.690256 82.18076 
L 160.690256 84.240993 
L 162.439866 84.240993 
L 162.439866 69.046777 
L 164.189475 69.046777 
L 164.189475 92.996982 
L 165.939085 92.996982 
L 165.939085 81.408173 
L 167.688695 81.408173 
L 167.688695 94.542156 
L 169.438304 94.542156 
L 169.438304 97.632505 
L 171.187914 97.632505 
L 171.187914 85.528638 
L 172.937524 85.528638 
L 172.937524 96.087331 
L 174.687133 96.087331 
L 174.687133 98.147563 
L 176.436743 98.147563 
L 176.436743 86.816284 
L 178.186353 86.816284 
L 178.186353 80.893115 
L 179.935963 80.893115 
L 179.935963 89.906633 
L 181.685572 89.906633 
L 181.685572 91.451807 
L 183.435182 91.451807 
L 183.435182 104.58579 
L 185.184792 104.58579 
L 185.184792 93.254511 
L 186.934401 93.254511 
L 186.934401 96.087331 
L 188.684011 96.087331 
L 188.684011 111.281546 
L 190.433621 111.281546 
L 190.433621 104.843319 
L 193.93284 104.843319 
L 193.93284 95.829801 
L 195.68245 95.829801 
L 195.68245 102.783087 
L 197.43206 102.783087 
L 197.43206 115.91707 
L 199.181669 115.91707 
L 199.181669 109.736372 
L 200.931279 109.736372 
L 200.931279 107.161081 
L 202.680889 107.161081 
L 202.680889 126.475762 
L 204.430498 126.475762 
L 204.430498 124.930588 
L 206.180108 124.930588 
L 206.180108 141.669978 
L 207.929718 141.669978 
L 207.929718 148.365734 
L 209.679328 148.365734 
L 209.679328 150.683496 
L 211.428937 150.683496 
L 211.428937 164.075008 
L 213.178547 164.075008 
L 213.178547 167.422886 
L 214.928157 167.422886 
L 214.928157 170.255706 
L 216.677766 170.255706 
L 216.677766 186.737567 
L 218.427376 186.737567 
L 218.427376 186.480038 
L 220.176986 186.480038 
L 220.176986 200.386609 
L 221.926595 200.386609 
L 221.926595 205.53719 
L 223.676205 205.53719 
L 223.676205 210.172714 
L 225.425815 210.172714 
L 225.425815 218.413645 
L 227.175425 218.413645 
L 227.175425 226.139517 
L 228.925034 226.139517 
L 228.925034 231.805157 
L 230.674644 231.805157 
L 230.674644 232.320215 
L 232.424254 232.320215 
L 232.424254 237.728326 
L 234.173863 237.728326 
L 234.173863 243.136436 
L 235.923473 243.136436 
L 235.923473 244.681611 
L 237.673083 244.681611 
L 237.673083 242.878907 
L 239.422693 242.878907 
L 239.422693 233.60786 
L 241.172302 233.60786 
L 241.172302 226.654575 
L 242.921912 226.654575 
L 242.921912 224.079284 
L 244.671522 224.079284 
L 244.671522 207.854952 
L 246.421131 207.854952 
L 246.421131 208.112481 
L 248.170741 208.112481 
L 248.170741 199.871551 
L 249.920351 199.871551 
L 249.920351 196.781202 
L 251.66996 196.781202 
L 251.66996 184.934864 
L 253.41957 184.934864 
L 253.41957 183.904748 
L 255.16918 183.904748 
L 255.16918 179.269224 
L 256.91879 179.269224 
L 256.91879 185.707451 
L 258.668399 185.707451 
L 258.668399 171.543352 
L 260.418009 171.543352 
L 260.418009 172.315939 
L 262.167619 172.315939 
L 262.167619 158.151839 
L 263.917228 158.151839 
L 263.917228 153.258787 
L 265.666838 153.258787 
L 265.666838 158.924427 
L 267.416448 158.924427 
L 267.416448 149.395851 
L 269.166057 149.395851 
L 269.166057 147.593147 
L 270.915667 147.593147 
L 270.915667 157.121723 
L 272.665277 157.121723 
L 272.665277 138.837158 
L 274.414887 138.837158 
L 274.414887 137.807042 
L 276.164496 137.807042 
L 276.164496 133.171518 
L 277.914106 133.171518 
L 277.914106 128.535995 
L 279.663716 128.535995 
L 279.663716 123.900471 
L 281.413325 123.900471 
L 281.413325 116.947186 
L 283.162935 116.947186 
L 283.162935 116.689657 
L 284.912545 116.689657 
L 284.912545 111.281546 
L 286.662155 111.281546 
L 286.662155 117.462244 
L 288.411764 117.462244 
L 288.411764 114.886954 
L 290.161374 114.886954 
L 290.161374 101.237912 
L 291.910984 101.237912 
L 291.910984 113.341779 
L 293.660593 113.341779 
L 293.660593 114.629424 
L 295.410203 114.629424 
L 295.410203 110.508959 
L 297.159813 110.508959 
L 297.159813 119.264948 
L 298.909422 119.264948 
L 298.909422 113.856837 
L 300.659032 113.856837 
L 300.659032 108.448727 
L 302.408642 108.448727 
L 302.408642 133.171518 
L 304.158252 133.171518 
L 304.158252 125.703175 
L 305.907861 125.703175 
L 305.907861 131.368815 
L 307.657471 131.368815 
L 307.657471 125.445646 
L 309.407081 125.445646 
L 309.407081 129.82364 
L 311.15669 129.82364 
L 311.15669 136.004338 
L 312.9063 136.004338 
L 312.9063 137.291984 
L 314.65591 137.291984 
L 314.65591 136.261867 
L 316.405519 136.261867 
L 316.405519 133.686577 
L 318.155129 133.686577 
L 318.155129 135.231751 
L 319.904739 135.231751 
L 319.904739 142.185036 
L 321.654349 142.185036 
L 321.654349 139.609745 
L 323.403958 139.609745 
L 323.403958 144.502798 
L 325.153568 144.502798 
L 325.153568 147.593147 
L 326.903178 147.593147 
L 326.903178 145.790443 
L 328.652787 145.790443 
L 328.652787 147.593147 
L 330.402397 147.593147 
L 330.402397 141.927507 
L 332.152007 141.927507 
L 332.152007 147.593147 
L 333.901617 147.593147 
L 333.901617 159.954543 
L 335.651226 159.954543 
L 335.651226 163.817479 
L 337.400836 163.817479 
L 337.400836 155.06149 
L 339.150446 155.06149 
L 339.150446 158.924427 
L 340.900055 158.924427 
L 340.900055 167.680415 
L 342.649665 167.680415 
L 342.649665 157.121723 
L 344.399275 157.121723 
L 344.399275 172.830997 
L 346.148884 172.830997 
L 346.148884 163.817479 
L 347.898494 163.817479 
L 347.898494 160.984659 
L 349.648104 160.984659 
L 349.648104 169.740648 
L 351.397714 169.740648 
L 351.397714 179.784282 
L 353.147323 179.784282 
L 353.147323 179.526753 
L 354.896933 179.526753 
L 354.896933 179.784282 
L 356.646543 179.784282 
L 356.646543 181.844515 
L 358.396152 181.844515 
L 358.396152 180.814399 
L 360.145762 180.814399 
L 360.145762 186.737567 
L 361.895372 186.737567 
L 361.895372 191.115562 
L 363.644982 191.115562 
L 363.644982 196.523673 
L 365.394591 196.523673 
L 365.394591 189.570387 
L 367.144201 189.570387 
L 367.144201 192.660736 
L 368.893811 192.660736 
L 368.893811 199.614022 
L 370.64342 199.614022 
L 370.64342 202.189312 
L 372.39303 202.189312 
L 372.39303 202.9619 
L 374.14264 202.9619 
L 374.14264 209.915185 
L 375.892249 209.915185 
L 375.892249 215.065767 
L 377.641859 215.065767 
L 377.641859 219.186232 
L 379.391469 219.186232 
L 379.391469 223.306697 
L 381.141079 223.306697 
L 381.141079 222.019052 
L 382.890688 222.019052 
L 382.890688 222.276581 
L 384.640298 222.276581 
L 384.640298 228.714808 
L 386.389908 228.714808 
L 386.389908 225.624459 
L 388.139517 225.624459 
L 388.139517 231.03257 
L 389.889127 231.03257 
L 389.889127 236.955739 
L 393.388347 236.955739 
L 393.388347 236.44068 
L 396.887566 236.44068 
L 396.887566 242.10632 
L 398.637176 242.10632 
L 398.637176 242.878907 
L 400.386785 242.878907 
L 400.386785 244.424082 
L 402.136395 244.424082 
L 402.136395 245.711727 
L 405.635614 245.711727 
L 405.635614 246.484315 
L 414.383663 246.484315 
L 414.383663 246.484315 
" clip-path="url(#p285eb17d52)" style="fill: none; stroke: #ff7f0e; stroke-width: 1.5; stroke-linecap: square"/>
   </g>
  </g>
  <g id="axes_2">
   <g id="patch_8">
    <path d="M 480.285385 257.158895 
L 865.19952 257.158895 
L 865.19952 22.318125 
L 480.285385 22.318125 
z
" style="fill: #ffffff"/>
   </g>
   <g id="matplotlib.axis_3">
    <g id="xtick_9">
     <g id="line2d_18">
      <g>
       <use xlink:href="#m08dbcbedd9" x="516.198426" y="257.158895" style="stroke: #000000; stroke-width: 0.8"/>
      </g>
     </g>
     <g id="text_19">
      <!-- 1.0 -->
      <g transform="translate(508.246864 271.757332) scale(0.1 -0.1)">
       <use xlink:href="#DejaVuSans-31"/>
       <use xlink:href="#DejaVuSans-2e" x="63.623047"/>
       <use xlink:href="#DejaVuSans-30" x="95.410156"/>
      </g>
     </g>
    </g>
    <g id="xtick_10">
     <g id="line2d_19">
      <g>
       <use xlink:href="#m08dbcbedd9" x="562.240787" y="257.158895" style="stroke: #000000; stroke-width: 0.8"/>
      </g>
     </g>
     <g id="text_20">
      <!-- 1.5 -->
      <g transform="translate(554.289224 271.757332) scale(0.1 -0.1)">
       <use xlink:href="#DejaVuSans-31"/>
       <use xlink:href="#DejaVuSans-2e" x="63.623047"/>
       <use xlink:href="#DejaVuSans-35" x="95.410156"/>
      </g>
     </g>
    </g>
    <g id="xtick_11">
     <g id="line2d_20">
      <g>
       <use xlink:href="#m08dbcbedd9" x="608.283148" y="257.158895" style="stroke: #000000; stroke-width: 0.8"/>
      </g>
     </g>
     <g id="text_21">
      <!-- 2.0 -->
      <g transform="translate(600.331585 271.757332) scale(0.1 -0.1)">
       <use xlink:href="#DejaVuSans-32"/>
       <use xlink:href="#DejaVuSans-2e" x="63.623047"/>
       <use xlink:href="#DejaVuSans-30" x="95.410156"/>
      </g>
     </g>
    </g>
    <g id="xtick_12">
     <g id="line2d_21">
      <g>
       <use xlink:href="#m08dbcbedd9" x="654.325508" y="257.158895" style="stroke: #000000; stroke-width: 0.8"/>
      </g>
     </g>
     <g id="text_22">
      <!-- 2.5 -->
      <g transform="translate(646.373946 271.757332) scale(0.1 -0.1)">
       <use xlink:href="#DejaVuSans-32"/>
       <use xlink:href="#DejaVuSans-2e" x="63.623047"/>
       <use xlink:href="#DejaVuSans-35" x="95.410156"/>
      </g>
     </g>
    </g>
    <g id="xtick_13">
     <g id="line2d_22">
      <g>
       <use xlink:href="#m08dbcbedd9" x="700.367869" y="257.158895" style="stroke: #000000; stroke-width: 0.8"/>
      </g>
     </g>
     <g id="text_23">
      <!-- 3.0 -->
      <g transform="translate(692.416306 271.757332) scale(0.1 -0.1)">
       <use xlink:href="#DejaVuSans-33"/>
       <use xlink:href="#DejaVuSans-2e" x="63.623047"/>
       <use xlink:href="#DejaVuSans-30" x="95.410156"/>
      </g>
     </g>
    </g>
    <g id="xtick_14">
     <g id="line2d_23">
      <g>
       <use xlink:href="#m08dbcbedd9" x="746.41023" y="257.158895" style="stroke: #000000; stroke-width: 0.8"/>
      </g>
     </g>
     <g id="text_24">
      <!-- 3.5 -->
      <g transform="translate(738.458667 271.757332) scale(0.1 -0.1)">
       <use xlink:href="#DejaVuSans-33"/>
       <use xlink:href="#DejaVuSans-2e" x="63.623047"/>
       <use xlink:href="#DejaVuSans-35" x="95.410156"/>
      </g>
     </g>
    </g>
    <g id="xtick_15">
     <g id="line2d_24">
      <g>
       <use xlink:href="#m08dbcbedd9" x="792.45259" y="257.158895" style="stroke: #000000; stroke-width: 0.8"/>
      </g>
     </g>
     <g id="text_25">
      <!-- 4.0 -->
      <g transform="translate(784.501028 271.757332) scale(0.1 -0.1)">
       <use xlink:href="#DejaVuSans-34"/>
       <use xlink:href="#DejaVuSans-2e" x="63.623047"/>
       <use xlink:href="#DejaVuSans-30" x="95.410156"/>
      </g>
     </g>
    </g>
    <g id="xtick_16">
     <g id="line2d_25">
      <g>
       <use xlink:href="#m08dbcbedd9" x="838.494951" y="257.158895" style="stroke: #000000; stroke-width: 0.8"/>
      </g>
     </g>
     <g id="text_26">
      <!-- 4.5 -->
      <g transform="translate(830.543388 271.757332) scale(0.1 -0.1)">
       <use xlink:href="#DejaVuSans-34"/>
       <use xlink:href="#DejaVuSans-2e" x="63.623047"/>
       <use xlink:href="#DejaVuSans-35" x="95.410156"/>
      </g>
     </g>
    </g>
    <g id="text_27">
     <!-- wavelength [Å] -->
     <g transform="translate(634.704952 287.119832) scale(0.1 -0.1)">
      <use xlink:href="#DejaVuSans-77"/>
      <use xlink:href="#DejaVuSans-61" x="81.787109"/>
      <use xlink:href="#DejaVuSans-76" x="143.066406"/>
      <use xlink:href="#DejaVuSans-65" x="202.246094"/>
      <use xlink:href="#DejaVuSans-6c" x="263.769531"/>
      <use xlink:href="#DejaVuSans-65" x="291.552734"/>
      <use xlink:href="#DejaVuSans-6e" x="353.076172"/>
      <use xlink:href="#DejaVuSans-67" x="416.455078"/>
      <use xlink:href="#DejaVuSans-74" x="479.931641"/>
      <use xlink:href="#DejaVuSans-68" x="519.140625"/>
      <use xlink:href="#DejaVuSans-20" x="582.519531"/>
      <use xlink:href="#DejaVuSans-5b" x="614.306641"/>
      <use xlink:href="#DejaVuSans-c5" x="653.320312"/>
      <use xlink:href="#DejaVuSans-5d" x="721.728516"/>
     </g>
    </g>
   </g>
   <g id="matplotlib.axis_4">
    <g id="ytick_6">
     <g id="line2d_26">
      <g>
       <use xlink:href="#m04018ca390" x="480.285385" y="246.484315" style="stroke: #000000; stroke-width: 0.8"/>
      </g>
     </g>
     <g id="text_28">
      <!-- 0 -->
      <g transform="translate(466.922885 250.283533) scale(0.1 -0.1)">
       <use xlink:href="#DejaVuSans-30"/>
      </g>
     </g>
    </g>
    <g id="ytick_7">
     <g id="line2d_27">
      <g>
       <use xlink:href="#m04018ca390" x="480.285385" y="194.978498" style="stroke: #000000; stroke-width: 0.8"/>
      </g>
     </g>
     <g id="text_29">
      <!-- 200 -->
      <g transform="translate(454.197885 198.777717) scale(0.1 -0.1)">
       <use xlink:href="#DejaVuSans-32"/>
       <use xlink:href="#DejaVuSans-30" x="63.623047"/>
       <use xlink:href="#DejaVuSans-30" x="127.246094"/>
      </g>
     </g>
    </g>
    <g id="ytick_8">
     <g id="line2d_28">
      <g>
       <use xlink:href="#m04018ca390" x="480.285385" y="143.472682" style="stroke: #000000; stroke-width: 0.8"/>
      </g>
     </g>
     <g id="text_30">
      <!-- 400 -->
      <g transform="translate(454.197885 147.2719) scale(0.1 -0.1)">
       <use xlink:href="#DejaVuSans-34"/>
       <use xlink:href="#DejaVuSans-30" x="63.623047"/>
       <use xlink:href="#DejaVuSans-30" x="127.246094"/>
      </g>
     </g>
    </g>
    <g id="ytick_9">
     <g id="line2d_29">
      <g>
       <use xlink:href="#m04018ca390" x="480.285385" y="91.966865" style="stroke: #000000; stroke-width: 0.8"/>
      </g>
     </g>
     <g id="text_31">
      <!-- 600 -->
      <g transform="translate(454.197885 95.766084) scale(0.1 -0.1)">
       <use xlink:href="#DejaVuSans-36"/>
       <use xlink:href="#DejaVuSans-30" x="63.623047"/>
       <use xlink:href="#DejaVuSans-30" x="127.246094"/>
      </g>
     </g>
    </g>
    <g id="ytick_10">
     <g id="line2d_30">
      <g>
       <use xlink:href="#m04018ca390" x="480.285385" y="40.461049" style="stroke: #000000; stroke-width: 0.8"/>
      </g>
     </g>
     <g id="text_32">
      <!-- 800 -->
      <g transform="translate(454.197885 44.260268) scale(0.1 -0.1)">
       <use xlink:href="#DejaVuSans-38"/>
       <use xlink:href="#DejaVuSans-30" x="63.623047"/>
       <use xlink:href="#DejaVuSans-30" x="127.246094"/>
      </g>
     </g>
    </g>
    <g id="text_33">
     <!-- [counts] -->
     <g transform="translate(448.118198 160.35101) rotate(-90) scale(0.1 -0.1)">
      <use xlink:href="#DejaVuSans-5b"/>
      <use xlink:href="#DejaVuSans-63" x="39.013672"/>
      <use xlink:href="#DejaVuSans-6f" x="93.994141"/>
      <use xlink:href="#DejaVuSans-75" x="155.175781"/>
      <use xlink:href="#DejaVuSans-6e" x="218.554688"/>
      <use xlink:href="#DejaVuSans-74" x="281.933594"/>
      <use xlink:href="#DejaVuSans-73" x="321.142578"/>
      <use xlink:href="#DejaVuSans-5d" x="373.242188"/>
     </g>
    </g>
   </g>
   <g id="patch_9">
    <path d="M 480.285385 257.158895 
L 480.285385 22.318125 
" style="fill: none; stroke: #000000; stroke-width: 0.8; stroke-linejoin: miter; stroke-linecap: square"/>
   </g>
   <g id="patch_10">
    <path d="M 865.19952 257.158895 
L 865.19952 22.318125 
" style="fill: none; stroke: #000000; stroke-width: 0.8; stroke-linejoin: miter; stroke-linecap: square"/>
   </g>
   <g id="patch_11">
    <path d="M 480.285385 257.158895 
L 865.19952 257.158895 
" style="fill: none; stroke: #000000; stroke-width: 0.8; stroke-linejoin: miter; stroke-linecap: square"/>
   </g>
   <g id="patch_12">
    <path d="M 480.285385 22.318125 
L 865.19952 22.318125 
" style="fill: none; stroke: #000000; stroke-width: 0.8; stroke-linejoin: miter; stroke-linecap: square"/>
   </g>
   <g id="text_34">
    <!-- Pixel 2 -->
    <g transform="translate(653.14589 16.318125) scale(0.12 -0.12)">
     <use xlink:href="#DejaVuSans-50"/>
     <use xlink:href="#DejaVuSans-69" x="58.052734"/>
     <use xlink:href="#DejaVuSans-78" x="85.835938"/>
     <use xlink:href="#DejaVuSans-65" x="141.890625"/>
     <use xlink:href="#DejaVuSans-6c" x="203.414062"/>
     <use xlink:href="#DejaVuSans-20" x="231.197266"/>
     <use xlink:href="#DejaVuSans-32" x="262.984375"/>
    </g>
   </g>
   <g id="legend_2">
    <g id="patch_13">
     <path d="M 761.196395 59.9525 
L 858.19952 59.9525 
Q 860.19952 59.9525 860.19952 57.9525 
L 860.19952 29.318125 
Q 860.19952 27.318125 858.19952 27.318125 
L 761.196395 27.318125 
Q 759.196395 27.318125 759.196395 29.318125 
L 759.196395 57.9525 
Q 759.196395 59.9525 761.196395 59.9525 
z
" style="fill: #ffffff; opacity: 0.8; stroke: #cccccc; stroke-linejoin: miter"/>
    </g>
    <g id="line2d_31">
     <path d="M 763.196395 35.416562 
L 763.196395 35.416562 
L 773.196395 35.416562 
L 773.196395 35.416562 
L 783.196395 35.416562 
" style="fill: none; stroke: #1f77b4; stroke-width: 1.5; stroke-linecap: square"/>
    </g>
    <g id="text_35">
     <!-- wfm -->
     <g transform="translate(791.196395 38.916562) scale(0.1 -0.1)">
      <use xlink:href="#DejaVuSans-77"/>
      <use xlink:href="#DejaVuSans-66" x="81.787109"/>
      <use xlink:href="#DejaVuSans-6d" x="116.992188"/>
     </g>
    </g>
    <g id="line2d_32">
     <path d="M 763.196395 50.094687 
L 763.196395 50.094687 
L 773.196395 50.094687 
L 773.196395 50.094687 
L 783.196395 50.094687 
" style="fill: none; stroke: #ff7f0e; stroke-width: 1.5; stroke-linecap: square"/>
    </g>
    <g id="text_36">
     <!-- ground_truth -->
     <g transform="translate(791.196395 53.594687) scale(0.1 -0.1)">
      <use xlink:href="#DejaVuSans-67"/>
      <use xlink:href="#DejaVuSans-72" x="63.476562"/>
      <use xlink:href="#DejaVuSans-6f" x="102.339844"/>
      <use xlink:href="#DejaVuSans-75" x="163.521484"/>
      <use xlink:href="#DejaVuSans-6e" x="226.900391"/>
      <use xlink:href="#DejaVuSans-64" x="290.279297"/>
      <use xlink:href="#DejaVuSans-5f" x="353.755859"/>
      <use xlink:href="#DejaVuSans-74" x="403.755859"/>
      <use xlink:href="#DejaVuSans-72" x="442.964844"/>
      <use xlink:href="#DejaVuSans-75" x="484.078125"/>
      <use xlink:href="#DejaVuSans-74" x="547.457031"/>
      <use xlink:href="#DejaVuSans-68" x="586.666016"/>
     </g>
    </g>
   </g>
   <g id="line2d_33">
    <path d="M 497.781482 246.484315 
L 506.529531 246.484315 
L 506.529531 246.226785 
L 508.27914 246.226785 
L 508.27914 243.136436 
L 510.02875 243.136436 
L 510.02875 231.290099 
L 511.77836 231.290099 
L 511.77836 226.654575 
L 513.527969 226.654575 
L 513.527969 211.717888 
L 515.277579 211.717888 
L 515.277579 203.476958 
L 517.027189 203.476958 
L 517.027189 204.507074 
L 518.776799 204.507074 
L 518.776799 186.737567 
L 520.526408 186.737567 
L 520.526408 181.071928 
L 522.276018 181.071928 
L 522.276018 174.633701 
L 524.025628 174.633701 
L 524.025628 168.453003 
L 525.775237 168.453003 
L 525.775237 154.803961 
L 527.524847 154.803961 
L 527.524847 153.258787 
L 529.274457 153.258787 
L 529.274457 142.700094 
L 531.024066 142.700094 
L 531.024066 131.626344 
L 532.773676 131.626344 
L 532.773676 121.58271 
L 534.523286 121.58271 
L 534.523286 116.174599 
L 536.272896 116.174599 
L 536.272896 112.569192 
L 538.022505 112.569192 
L 538.022505 107.161081 
L 539.772115 107.161081 
L 539.772115 107.676139 
L 541.521725 107.676139 
L 541.521725 96.602389 
L 543.271334 96.602389 
L 543.271334 95.057214 
L 545.020944 95.057214 
L 545.020944 74.197359 
L 546.770554 74.197359 
L 546.770554 71.10701 
L 548.520163 71.10701 
L 548.520163 85.528638 
L 550.269773 85.528638 
L 550.269773 76.51512 
L 552.019383 76.51512 
L 552.019383 52.307387 
L 553.768993 52.307387 
L 553.768993 69.304306 
L 555.518602 69.304306 
L 555.518602 54.367619 
L 557.268212 54.367619 
L 557.268212 55.140207 
L 559.017822 55.140207 
L 559.017822 40.976107 
L 560.767431 40.976107 
L 560.767431 42.263752 
L 562.517041 42.263752 
L 562.517041 37.885758 
L 564.266651 37.885758 
L 564.266651 62.093492 
L 566.016261 62.093492 
L 566.016261 59.518201 
L 567.76587 59.518201 
L 567.76587 50.247154 
L 569.51548 50.247154 
L 569.51548 56.685381 
L 571.26509 56.685381 
L 571.26509 61.063375 
L 573.014699 61.063375 
L 573.014699 64.411253 
L 576.513919 64.411253 
L 576.513919 62.866079 
L 578.263528 62.866079 
L 578.263528 66.986544 
L 580.013138 66.986544 
L 580.013138 72.652184 
L 581.762748 72.652184 
L 581.762748 82.953347 
L 583.512358 82.953347 
L 583.512358 83.210876 
L 585.261967 83.210876 
L 585.261967 73.167242 
L 587.011577 73.167242 
L 587.011577 84.756051 
L 588.761187 84.756051 
L 588.761187 73.6823 
L 590.510796 73.6823 
L 590.510796 76.257591 
L 592.260406 76.257591 
L 592.260406 78.832882 
L 594.010016 78.832882 
L 594.010016 80.893115 
L 595.759626 80.893115 
L 595.759626 78.832882 
L 597.509235 78.832882 
L 597.509235 87.073813 
L 599.258845 87.073813 
L 599.258845 88.618987 
L 601.008455 88.618987 
L 601.008455 95.314743 
L 602.758064 95.314743 
L 602.758064 95.057214 
L 604.507674 95.057214 
L 604.507674 89.649104 
L 606.257284 89.649104 
L 606.257284 97.374976 
L 608.006893 97.374976 
L 608.006893 89.391574 
L 609.756503 89.391574 
L 609.756503 86.301225 
L 611.506113 86.301225 
L 611.506113 92.224394 
L 613.255723 92.224394 
L 613.255723 89.391574 
L 615.005332 89.391574 
L 615.005332 92.481923 
L 616.754942 92.481923 
L 616.754942 101.237912 
L 618.504552 101.237912 
L 618.504552 96.859918 
L 620.254161 96.859918 
L 620.254161 100.207796 
L 622.003771 100.207796 
L 622.003771 111.796605 
L 623.753381 111.796605 
L 623.753381 103.040616 
L 625.50299 103.040616 
L 625.50299 106.646023 
L 627.2526 106.646023 
L 627.2526 101.495441 
L 629.00221 101.495441 
L 629.00221 105.615907 
L 630.75182 105.615907 
L 630.75182 111.539076 
L 632.501429 111.539076 
L 632.501429 114.629424 
L 634.251039 114.629424 
L 634.251039 110.25143 
L 636.000649 110.25143 
L 636.000649 129.82364 
L 637.750258 129.82364 
L 637.750258 136.261867 
L 639.499868 136.261867 
L 639.499868 132.913989 
L 641.249478 132.913989 
L 641.249478 154.803961 
L 642.999088 154.803961 
L 642.999088 153.001258 
L 644.748697 153.001258 
L 644.748697 163.55995 
L 646.498307 163.55995 
L 646.498307 164.332537 
L 648.247917 164.332537 
L 648.247917 176.178875 
L 649.997526 176.178875 
L 649.997526 180.041811 
L 651.747136 180.041811 
L 651.747136 190.342975 
L 653.496746 190.342975 
L 653.496746 194.46344 
L 655.246355 194.46344 
L 655.246355 202.189312 
L 656.995965 202.189312 
L 656.995965 215.323296 
L 658.745575 215.323296 
L 658.745575 211.460359 
L 660.495185 211.460359 
L 660.495185 222.53411 
L 662.244794 222.53411 
L 662.244794 228.457279 
L 663.994404 228.457279 
L 663.994404 232.835273 
L 665.744014 232.835273 
L 665.744014 234.637977 
L 667.493623 234.637977 
L 667.493623 239.531029 
L 669.243233 239.531029 
L 669.243233 243.651495 
L 670.992843 243.651495 
L 670.992843 244.166553 
L 672.742453 244.166553 
L 672.742453 240.303617 
L 674.492062 240.303617 
L 674.492062 228.714808 
L 676.241672 228.714808 
L 676.241672 226.654575 
L 677.991282 226.654575 
L 677.991282 215.838354 
L 679.740891 215.838354 
L 679.740891 204.764603 
L 681.490501 204.764603 
L 681.490501 203.734487 
L 683.240111 203.734487 
L 683.240111 195.236027 
L 684.98972 195.236027 
L 684.98972 193.433324 
L 686.73933 193.433324 
L 686.73933 179.526753 
L 688.48894 179.526753 
L 688.48894 182.359573 
L 690.23855 182.359573 
L 690.23855 180.29934 
L 691.988159 180.29934 
L 691.988159 173.861113 
L 693.737769 173.861113 
L 693.737769 170.513235 
L 695.487379 170.513235 
L 695.487379 159.697014 
L 697.236988 159.697014 
L 697.236988 154.546432 
L 698.986598 154.546432 
L 698.986598 156.091607 
L 700.736208 156.091607 
L 700.736208 145.017856 
L 702.485817 145.017856 
L 702.485817 151.713612 
L 704.235427 151.713612 
L 704.235427 148.623263 
L 705.985037 148.623263 
L 705.985037 138.3221 
L 707.734647 138.3221 
L 707.734647 133.429047 
L 709.484256 133.429047 
L 709.484256 133.171518 
L 711.233866 133.171518 
L 711.233866 121.840239 
L 712.983476 121.840239 
L 712.983476 124.930588 
L 714.733085 124.930588 
L 714.733085 110.25143 
L 716.482695 110.25143 
L 716.482695 113.856837 
L 718.232305 113.856837 
L 718.232305 107.933668 
L 719.981915 107.933668 
L 719.981915 111.024017 
L 721.731524 111.024017 
L 721.731524 112.054134 
L 723.481134 112.054134 
L 723.481134 101.237912 
L 725.230744 101.237912 
L 725.230744 115.402012 
L 726.980353 115.402012 
L 726.980353 119.780006 
L 728.729963 119.780006 
L 728.729963 112.311663 
L 730.479573 112.311663 
L 730.479573 113.599308 
L 732.229182 113.599308 
L 732.229182 109.478843 
L 733.978792 109.478843 
L 733.978792 118.234832 
L 735.728402 118.234832 
L 735.728402 126.99082 
L 737.478012 126.99082 
L 737.478012 133.429047 
L 739.227621 133.429047 
L 739.227621 127.505879 
L 740.977231 127.505879 
L 740.977231 126.733291 
L 742.726841 126.733291 
L 742.726841 127.505879 
L 744.47645 127.505879 
L 744.47645 137.291984 
L 746.22606 137.291984 
L 746.22606 141.412449 
L 747.97567 141.412449 
L 747.97567 136.776926 
L 749.725279 136.776926 
L 749.725279 129.051053 
L 751.474889 129.051053 
L 751.474889 133.944106 
L 753.224499 133.944106 
L 753.224499 147.078089 
L 754.974109 147.078089 
L 754.974109 141.412449 
L 756.723718 141.412449 
L 756.723718 145.790443 
L 758.473328 145.790443 
L 758.473328 141.669978 
L 760.222938 141.669978 
L 760.222938 145.275385 
L 761.972547 145.275385 
L 761.972547 151.456083 
L 763.722157 151.456083 
L 763.722157 140.382333 
L 765.471767 140.382333 
L 765.471767 153.773845 
L 767.221377 153.773845 
L 767.221377 159.439485 
L 768.970986 159.439485 
L 768.970986 160.984659 
L 770.720596 160.984659 
L 770.720596 158.666898 
L 772.470206 158.666898 
L 772.470206 160.984659 
L 774.219815 160.984659 
L 774.219815 159.697014 
L 775.969425 159.697014 
L 775.969425 161.757247 
L 777.719035 161.757247 
L 777.719035 173.603584 
L 779.468644 173.603584 
L 779.468644 161.757247 
L 781.218254 161.757247 
L 781.218254 161.242188 
L 782.967864 161.242188 
L 782.967864 174.89123 
L 784.717474 174.89123 
L 784.717474 179.784282 
L 786.467083 179.784282 
L 786.467083 175.406288 
L 788.216693 175.406288 
L 788.216693 184.677335 
L 789.966303 184.677335 
L 789.966303 181.586986 
L 791.715912 181.586986 
L 791.715912 179.269224 
L 793.465522 179.269224 
L 793.465522 189.827916 
L 795.215132 189.827916 
L 795.215132 188.7978 
L 796.964742 188.7978 
L 796.964742 196.266144 
L 798.714351 196.266144 
L 798.714351 192.660736 
L 800.463961 192.660736 
L 800.463961 194.46344 
L 802.213571 194.46344 
L 802.213571 198.583905 
L 803.96318 198.583905 
L 803.96318 203.992016 
L 805.71279 203.992016 
L 805.71279 205.022132 
L 807.4624 205.022132 
L 807.4624 207.339894 
L 809.212009 207.339894 
L 809.212009 217.125999 
L 810.961619 217.125999 
L 810.961619 219.70129 
L 812.711229 219.70129 
L 812.711229 223.821755 
L 814.460839 223.821755 
L 814.460839 221.246464 
L 816.210448 221.246464 
L 816.210448 223.821755 
L 817.960058 223.821755 
L 817.960058 225.881988 
L 819.709668 225.881988 
L 819.709668 228.714808 
L 821.459277 228.714808 
L 821.459277 228.972337 
L 823.208887 228.972337 
L 823.208887 235.925622 
L 824.958497 235.925622 
L 824.958497 235.153035 
L 826.708106 235.153035 
L 826.708106 237.728326 
L 828.457716 237.728326 
L 828.457716 237.213268 
L 830.207326 237.213268 
L 830.207326 238.243384 
L 831.956936 238.243384 
L 831.956936 243.393966 
L 833.706545 243.393966 
L 833.706545 243.136436 
L 835.456155 243.136436 
L 835.456155 244.93914 
L 837.205765 244.93914 
L 837.205765 245.711727 
L 838.955374 245.711727 
L 838.955374 245.969256 
L 840.704984 245.969256 
L 840.704984 246.484315 
L 847.703423 246.484315 
L 847.703423 246.484315 
" clip-path="url(#pd1649853f7)" style="fill: none; stroke: #1f77b4; stroke-width: 1.5; stroke-linecap: square"/>
   </g>
   <g id="line2d_34">
    <path d="M 497.781482 246.484315 
L 506.529531 246.484315 
L 506.529531 244.424082 
L 508.27914 244.424082 
L 508.27914 235.668093 
L 510.02875 235.668093 
L 510.02875 230.259982 
L 511.77836 230.259982 
L 511.77836 217.383528 
L 513.527969 217.383528 
L 513.527969 209.142598 
L 515.277579 209.142598 
L 515.277579 204.249545 
L 517.027189 204.249545 
L 517.027189 196.781202 
L 518.776799 196.781202 
L 518.776799 185.707451 
L 520.526408 185.707451 
L 520.526408 178.496637 
L 522.276018 178.496637 
L 522.276018 176.951462 
L 524.025628 176.951462 
L 524.025628 164.075008 
L 525.775237 164.075008 
L 525.775237 156.864194 
L 527.524847 156.864194 
L 527.524847 146.563031 
L 529.274457 146.563031 
L 529.274457 144.760327 
L 531.024066 144.760327 
L 531.024066 130.338699 
L 532.773676 130.338699 
L 532.773676 124.673059 
L 534.523286 124.673059 
L 534.523286 117.204715 
L 536.272896 117.204715 
L 536.272896 119.522477 
L 538.022505 119.522477 
L 538.022505 109.993901 
L 539.772115 109.993901 
L 539.772115 102.525558 
L 541.521725 102.525558 
L 541.521725 100.207796 
L 543.271334 100.207796 
L 543.271334 101.75297 
L 545.020944 101.75297 
L 545.020944 73.167242 
L 546.770554 73.167242 
L 546.770554 87.073813 
L 548.520163 87.073813 
L 548.520163 79.34794 
L 550.269773 79.34794 
L 550.269773 79.090411 
L 552.019383 79.090411 
L 552.019383 66.729015 
L 553.768993 66.729015 
L 553.768993 65.698899 
L 555.518602 65.698899 
L 555.518602 61.578434 
L 557.268212 61.578434 
L 557.268212 60.033259 
L 559.017822 60.033259 
L 559.017822 55.655265 
L 560.767431 55.655265 
L 560.767431 43.03634 
L 562.517041 43.03634 
L 562.517041 32.992705 
L 564.266651 32.992705 
L 564.266651 59.003143 
L 566.016261 59.003143 
L 566.016261 68.27419 
L 567.76587 68.27419 
L 567.76587 46.899276 
L 569.51548 46.899276 
L 569.51548 47.929392 
L 571.26509 47.929392 
L 571.26509 59.260672 
L 573.014699 59.260672 
L 573.014699 75.742533 
L 574.764309 75.742533 
L 574.764309 54.625148 
L 576.513919 54.625148 
L 576.513919 65.698899 
L 578.263528 65.698899 
L 578.263528 65.183841 
L 580.013138 65.183841 
L 580.013138 75.227475 
L 581.762748 75.227475 
L 581.762748 78.832882 
L 583.512358 78.832882 
L 583.512358 77.287708 
L 585.261967 77.287708 
L 585.261967 81.923231 
L 587.011577 81.923231 
L 587.011577 82.18076 
L 588.761187 82.18076 
L 588.761187 68.016661 
L 590.510796 68.016661 
L 590.510796 79.090411 
L 592.260406 79.090411 
L 592.260406 82.18076 
L 594.010016 82.18076 
L 594.010016 84.240993 
L 595.759626 84.240993 
L 595.759626 69.046777 
L 597.509235 69.046777 
L 597.509235 92.996982 
L 599.258845 92.996982 
L 599.258845 81.408173 
L 601.008455 81.408173 
L 601.008455 94.542156 
L 602.758064 94.542156 
L 602.758064 97.632505 
L 604.507674 97.632505 
L 604.507674 85.528638 
L 606.257284 85.528638 
L 606.257284 96.087331 
L 608.006893 96.087331 
L 608.006893 98.147563 
L 609.756503 98.147563 
L 609.756503 86.816284 
L 611.506113 86.816284 
L 611.506113 80.893115 
L 613.255723 80.893115 
L 613.255723 89.906633 
L 615.005332 89.906633 
L 615.005332 91.451807 
L 616.754942 91.451807 
L 616.754942 104.58579 
L 618.504552 104.58579 
L 618.504552 93.254511 
L 620.254161 93.254511 
L 620.254161 96.087331 
L 622.003771 96.087331 
L 622.003771 111.281546 
L 623.753381 111.281546 
L 623.753381 104.843319 
L 627.2526 104.843319 
L 627.2526 95.829801 
L 629.00221 95.829801 
L 629.00221 102.783087 
L 630.75182 102.783087 
L 630.75182 115.91707 
L 632.501429 115.91707 
L 632.501429 109.736372 
L 634.251039 109.736372 
L 634.251039 107.161081 
L 636.000649 107.161081 
L 636.000649 126.475762 
L 637.750258 126.475762 
L 637.750258 124.930588 
L 639.499868 124.930588 
L 639.499868 141.669978 
L 641.249478 141.669978 
L 641.249478 148.365734 
L 642.999088 148.365734 
L 642.999088 150.683496 
L 644.748697 150.683496 
L 644.748697 164.075008 
L 646.498307 164.075008 
L 646.498307 167.422886 
L 648.247917 167.422886 
L 648.247917 170.255706 
L 649.997526 170.255706 
L 649.997526 186.737567 
L 651.747136 186.737567 
L 651.747136 186.480038 
L 653.496746 186.480038 
L 653.496746 200.386609 
L 655.246355 200.386609 
L 655.246355 205.53719 
L 656.995965 205.53719 
L 656.995965 210.172714 
L 658.745575 210.172714 
L 658.745575 218.413645 
L 660.495185 218.413645 
L 660.495185 226.139517 
L 662.244794 226.139517 
L 662.244794 231.805157 
L 663.994404 231.805157 
L 663.994404 232.320215 
L 665.744014 232.320215 
L 665.744014 237.728326 
L 667.493623 237.728326 
L 667.493623 243.136436 
L 669.243233 243.136436 
L 669.243233 244.681611 
L 670.992843 244.681611 
L 670.992843 242.878907 
L 672.742453 242.878907 
L 672.742453 233.60786 
L 674.492062 233.60786 
L 674.492062 226.654575 
L 676.241672 226.654575 
L 676.241672 224.079284 
L 677.991282 224.079284 
L 677.991282 207.854952 
L 679.740891 207.854952 
L 679.740891 208.112481 
L 681.490501 208.112481 
L 681.490501 199.871551 
L 683.240111 199.871551 
L 683.240111 196.781202 
L 684.98972 196.781202 
L 684.98972 184.934864 
L 686.73933 184.934864 
L 686.73933 183.904748 
L 688.48894 183.904748 
L 688.48894 179.269224 
L 690.23855 179.269224 
L 690.23855 185.707451 
L 691.988159 185.707451 
L 691.988159 171.543352 
L 693.737769 171.543352 
L 693.737769 172.315939 
L 695.487379 172.315939 
L 695.487379 158.151839 
L 697.236988 158.151839 
L 697.236988 153.258787 
L 698.986598 153.258787 
L 698.986598 158.924427 
L 700.736208 158.924427 
L 700.736208 149.395851 
L 702.485817 149.395851 
L 702.485817 147.593147 
L 704.235427 147.593147 
L 704.235427 157.121723 
L 705.985037 157.121723 
L 705.985037 138.837158 
L 707.734647 138.837158 
L 707.734647 137.807042 
L 709.484256 137.807042 
L 709.484256 133.171518 
L 711.233866 133.171518 
L 711.233866 128.535995 
L 712.983476 128.535995 
L 712.983476 123.900471 
L 714.733085 123.900471 
L 714.733085 116.947186 
L 716.482695 116.947186 
L 716.482695 116.689657 
L 718.232305 116.689657 
L 718.232305 111.281546 
L 719.981915 111.281546 
L 719.981915 117.462244 
L 721.731524 117.462244 
L 721.731524 114.886954 
L 723.481134 114.886954 
L 723.481134 101.237912 
L 725.230744 101.237912 
L 725.230744 113.341779 
L 726.980353 113.341779 
L 726.980353 114.629424 
L 728.729963 114.629424 
L 728.729963 110.508959 
L 730.479573 110.508959 
L 730.479573 119.264948 
L 732.229182 119.264948 
L 732.229182 113.856837 
L 733.978792 113.856837 
L 733.978792 108.448727 
L 735.728402 108.448727 
L 735.728402 133.171518 
L 737.478012 133.171518 
L 737.478012 125.703175 
L 739.227621 125.703175 
L 739.227621 131.368815 
L 740.977231 131.368815 
L 740.977231 125.445646 
L 742.726841 125.445646 
L 742.726841 129.82364 
L 744.47645 129.82364 
L 744.47645 136.004338 
L 746.22606 136.004338 
L 746.22606 137.291984 
L 747.97567 137.291984 
L 747.97567 136.261867 
L 749.725279 136.261867 
L 749.725279 133.686577 
L 751.474889 133.686577 
L 751.474889 135.231751 
L 753.224499 135.231751 
L 753.224499 142.185036 
L 754.974109 142.185036 
L 754.974109 139.609745 
L 756.723718 139.609745 
L 756.723718 144.502798 
L 758.473328 144.502798 
L 758.473328 147.593147 
L 760.222938 147.593147 
L 760.222938 145.790443 
L 761.972547 145.790443 
L 761.972547 147.593147 
L 763.722157 147.593147 
L 763.722157 141.927507 
L 765.471767 141.927507 
L 765.471767 147.593147 
L 767.221377 147.593147 
L 767.221377 159.954543 
L 768.970986 159.954543 
L 768.970986 163.817479 
L 770.720596 163.817479 
L 770.720596 155.06149 
L 772.470206 155.06149 
L 772.470206 158.924427 
L 774.219815 158.924427 
L 774.219815 167.680415 
L 775.969425 167.680415 
L 775.969425 157.121723 
L 777.719035 157.121723 
L 777.719035 172.830997 
L 779.468644 172.830997 
L 779.468644 163.817479 
L 781.218254 163.817479 
L 781.218254 160.984659 
L 782.967864 160.984659 
L 782.967864 169.740648 
L 784.717474 169.740648 
L 784.717474 179.784282 
L 786.467083 179.784282 
L 786.467083 179.526753 
L 788.216693 179.526753 
L 788.216693 179.784282 
L 789.966303 179.784282 
L 789.966303 181.844515 
L 791.715912 181.844515 
L 791.715912 180.814399 
L 793.465522 180.814399 
L 793.465522 186.737567 
L 795.215132 186.737567 
L 795.215132 191.115562 
L 796.964742 191.115562 
L 796.964742 196.523673 
L 798.714351 196.523673 
L 798.714351 189.570387 
L 800.463961 189.570387 
L 800.463961 192.660736 
L 802.213571 192.660736 
L 802.213571 199.614022 
L 803.96318 199.614022 
L 803.96318 202.189312 
L 805.71279 202.189312 
L 805.71279 202.9619 
L 807.4624 202.9619 
L 807.4624 209.915185 
L 809.212009 209.915185 
L 809.212009 215.065767 
L 810.961619 215.065767 
L 810.961619 219.186232 
L 812.711229 219.186232 
L 812.711229 223.306697 
L 814.460839 223.306697 
L 814.460839 222.019052 
L 816.210448 222.019052 
L 816.210448 222.276581 
L 817.960058 222.276581 
L 817.960058 228.714808 
L 819.709668 228.714808 
L 819.709668 225.624459 
L 821.459277 225.624459 
L 821.459277 231.03257 
L 823.208887 231.03257 
L 823.208887 236.955739 
L 826.708106 236.955739 
L 826.708106 236.44068 
L 830.207326 236.44068 
L 830.207326 242.10632 
L 831.956936 242.10632 
L 831.956936 242.878907 
L 833.706545 242.878907 
L 833.706545 244.424082 
L 835.456155 244.424082 
L 835.456155 245.711727 
L 838.955374 245.711727 
L 838.955374 246.484315 
L 847.703423 246.484315 
L 847.703423 246.484315 
" clip-path="url(#pd1649853f7)" style="fill: none; stroke: #ff7f0e; stroke-width: 1.5; stroke-linecap: square"/>
   </g>
  </g>
 </g>
 <defs>
  <clipPath id="p285eb17d52">
   <rect x="46.965625" y="22.318125" width="384.914135" height="234.84077"/>
  </clipPath>
  <clipPath id="pd1649853f7">
   <rect x="480.285385" y="22.318125" width="384.914135" height="234.84077"/>
  </clipPath>
 </defs>
</svg>
