<?xml version="1.0" encoding="UTF-8" standalone="no"?>
<!DOCTYPE svg PUBLIC "-//W3C//DTD SVG 1.1//EN"
 "http://www.w3.org/Graphics/SVG/1.1/DTD/svg11.dtd">
<!-- Generated by graphviz version 7.1.0 (20230122.1345)
 -->
<!-- Pages: 1 -->
<svg width="572pt" height="404pt"
 viewBox="0.00 0.00 572.38 404.00" xmlns="http://www.w3.org/2000/svg" xmlns:xlink="http://www.w3.org/1999/xlink">
<g id="graph0" class="graph" transform="scale(1 1) rotate(0) translate(4 400)">
<polygon fill="white" stroke="none" points="-4,4 -4,-400 568.38,-400 568.38,4 -4,4"/>
<!-- Choppers -->
<g id="node1" class="node">
<title>Choppers</title>
<polygon fill="none" stroke="red" stroke-dasharray="5,2" points="85,-324 0,-324 0,-288 85,-288 85,-324"/>
<text text-anchor="middle" x="42.5" y="-302.3" font-family="Times,serif" font-size="14.00" fill="red">Choppers</text>
</g>
<!-- scippneutron.tof.unwrap.source_chopper_SourceChopper -->
<g id="node2" class="node">
<title>scippneutron.tof.unwrap.source_chopper_SourceChopper</title>
<ellipse fill="none" stroke="black" cx="176.5" cy="-234" rx="83.39" ry="18"/>
<text text-anchor="middle" x="176.5" y="-230.3" font-family="Times,serif" font-size="14.00">source_chopper</text>
</g>
<!-- Choppers&#45;&gt;scippneutron.tof.unwrap.source_chopper_SourceChopper -->
<g id="edge1" class="edge">
<title>Choppers&#45;&gt;scippneutron.tof.unwrap.source_chopper_SourceChopper</title>
<path fill="none" stroke="black" d="M75.97,-287.52C94.1,-278.04 116.66,-266.26 135.8,-256.26"/>
<polygon fill="black" stroke="black" points="137.17,-259.5 144.41,-251.76 133.92,-253.29 137.17,-259.5"/>
</g>
<!-- SourceChopper -->
<g id="node5" class="node">
<title>SourceChopper</title>
<polygon fill="none" stroke="black" points="240,-180 113,-180 113,-144 240,-144 240,-180"/>
<text text-anchor="middle" x="176.5" y="-158.3" font-family="Times,serif" font-size="14.00">SourceChopper</text>
</g>
<!-- scippneutron.tof.unwrap.source_chopper_SourceChopper&#45;&gt;SourceChopper -->
<g id="edge4" class="edge">
<title>scippneutron.tof.unwrap.source_chopper_SourceChopper&#45;&gt;SourceChopper</title>
<path fill="none" stroke="black" d="M176.5,-215.7C176.5,-208.41 176.5,-199.73 176.5,-191.54"/>
<polygon fill="black" stroke="black" points="180,-191.62 176.5,-181.62 173,-191.62 180,-191.62"/>
</g>
<!-- SourceTimeRange -->
<g id="node3" class="node">
<title>SourceTimeRange</title>
<polygon fill="none" stroke="red" stroke-dasharray="5,2" points="249.5,-324 103.5,-324 103.5,-288 249.5,-288 249.5,-324"/>
<text text-anchor="middle" x="176.5" y="-302.3" font-family="Times,serif" font-size="14.00" fill="red">SourceTimeRange</text>
</g>
<!-- SourceTimeRange&#45;&gt;scippneutron.tof.unwrap.source_chopper_SourceChopper -->
<g id="edge2" class="edge">
<title>SourceTimeRange&#45;&gt;scippneutron.tof.unwrap.source_chopper_SourceChopper</title>
<path fill="none" stroke="black" d="M176.5,-287.7C176.5,-280.41 176.5,-271.73 176.5,-263.54"/>
<polygon fill="black" stroke="black" points="180,-263.62 176.5,-253.62 173,-263.62 180,-263.62"/>
</g>
<!-- SourceChopperName -->
<g id="node4" class="node">
<title>SourceChopperName</title>
<polygon fill="none" stroke="black" points="437,-324 268,-324 268,-288 437,-288 437,-324"/>
<text text-anchor="middle" x="352.5" y="-302.3" font-family="Times,serif" font-size="14.00">SourceChopperName</text>
</g>
<!-- SourceChopperName&#45;&gt;scippneutron.tof.unwrap.source_chopper_SourceChopper -->
<g id="edge3" class="edge">
<title>SourceChopperName&#45;&gt;scippneutron.tof.unwrap.source_chopper_SourceChopper</title>
<path fill="none" stroke="black" d="M308.54,-287.52C283.31,-277.48 251.56,-264.85 225.52,-254.5"/>
<polygon fill="black" stroke="black" points="227.11,-251.36 216.52,-250.92 224.52,-257.87 227.11,-251.36"/>
</g>
<!-- scippneutron.tof.unwrap.time_of_flight_origin_from_chopper_TimeOfFlightOrigin -->
<g id="node7" class="node">
<title>scippneutron.tof.unwrap.time_of_flight_origin_from_chopper_TimeOfFlightOrigin</title>
<ellipse fill="none" stroke="black" cx="176.5" cy="-90" rx="173.57" ry="18"/>
<text text-anchor="middle" x="176.5" y="-86.3" font-family="Times,serif" font-size="14.00">time_of_flight_origin_from_chopper</text>
</g>
<!-- SourceChopper&#45;&gt;scippneutron.tof.unwrap.time_of_flight_origin_from_chopper_TimeOfFlightOrigin -->
<g id="edge6" class="edge">
<title>SourceChopper&#45;&gt;scippneutron.tof.unwrap.time_of_flight_origin_from_chopper_TimeOfFlightOrigin</title>
<path fill="none" stroke="black" d="M176.5,-143.7C176.5,-136.41 176.5,-127.73 176.5,-119.54"/>
<polygon fill="black" stroke="black" points="180,-119.62 176.5,-109.62 173,-119.62 180,-119.62"/>
</g>
<!-- sciline.provide_none_SourceChopperName -->
<g id="node6" class="node">
<title>sciline.provide_none_SourceChopperName</title>
<ellipse fill="none" stroke="black" cx="352.5" cy="-378" rx="211.76" ry="18"/>
<text text-anchor="middle" x="352.5" y="-374.3" font-family="Times,serif" font-size="14.00">Provider.provide_none.&lt;locals&gt;.&lt;lambda&gt;</text>
</g>
<!-- sciline.provide_none_SourceChopperName&#45;&gt;SourceChopperName -->
<g id="edge5" class="edge">
<title>sciline.provide_none_SourceChopperName&#45;&gt;SourceChopperName</title>
<path fill="none" stroke="black" d="M352.5,-359.7C352.5,-352.41 352.5,-343.73 352.5,-335.54"/>
<polygon fill="black" stroke="black" points="356,-335.62 352.5,-325.62 349,-335.62 356,-335.62"/>
</g>
<!-- TimeOfFlightOrigin -->
<g id="node8" class="node">
<title>TimeOfFlightOrigin</title>
<polygon fill="none" stroke="black" points="254.5,-36 98.5,-36 98.5,0 254.5,0 254.5,-36"/>
<text text-anchor="middle" x="176.5" y="-14.3" font-family="Times,serif" font-size="14.00">TimeOfFlightOrigin</text>
</g>
<!-- scippneutron.tof.unwrap.time_of_flight_origin_from_chopper_TimeOfFlightOrigin&#45;&gt;TimeOfFlightOrigin -->
<g id="edge7" class="edge">
<title>scippneutron.tof.unwrap.time_of_flight_origin_from_chopper_TimeOfFlightOrigin&#45;&gt;TimeOfFlightOrigin</title>
<path fill="none" stroke="black" d="M176.5,-71.7C176.5,-64.41 176.5,-55.73 176.5,-47.54"/>
<polygon fill="black" stroke="black" points="180,-47.62 176.5,-37.62 173,-47.62 180,-47.62"/>
</g>
</g>
</svg>
