<?xml version="1.0" encoding="utf-8" standalone="no"?>
<!DOCTYPE svg PUBLIC "-//W3C//DTD SVG 1.1//EN"
  "http://www.w3.org/Graphics/SVG/1.1/DTD/svg11.dtd">
<svg xmlns:xlink="http://www.w3.org/1999/xlink" width="423.727916pt" height="278.216825pt" viewBox="0 0 423.727916 278.216825" xmlns="http://www.w3.org/2000/svg" version="1.1">
 <metadata>
  <rdf:RDF xmlns:dc="http://purl.org/dc/elements/1.1/" xmlns:cc="http://creativecommons.org/ns#" xmlns:rdf="http://www.w3.org/1999/02/22-rdf-syntax-ns#">
   <cc:Work>
    <dc:type rdf:resource="http://purl.org/dc/dcmitype/StillImage"/>
    <dc:date>2024-03-25T13:31:17.453228</dc:date>
    <dc:format>image/svg+xml</dc:format>
    <dc:creator>
     <cc:Agent>
      <dc:title>Matplotlib v3.8.2, https://matplotlib.org/</dc:title>
     </cc:Agent>
    </dc:creator>
   </cc:Work>
  </rdf:RDF>
 </metadata>
 <defs>
  <style type="text/css">*{stroke-linejoin: round; stroke-linecap: butt}</style>
 </defs>
 <g id="figure_1">
  <g id="patch_1">
   <path d="M 0 278.216825 
L 423.727916 278.216825 
L 423.727916 0 
L 0 0 
z
" style="fill: #ffffff"/>
  </g>
  <g id="axes_1">
   <g id="patch_2">
    <path d="M 45.478125 239.737138 
L 416.527916 239.737138 
L 416.527916 8.575394 
L 45.478125 8.575394 
z
" style="fill: #ffffff"/>
   </g>
   <g id="matplotlib.axis_1">
    <g id="xtick_1">
     <g id="line2d_1">
      <defs>
       <path id="m4ce6243544" d="M 0 0 
L 0 3.5 
" style="stroke: #000000; stroke-width: 0.8"/>
      </defs>
      <g>
       <use xlink:href="#m4ce6243544" x="62.344025" y="239.737138" style="stroke: #000000; stroke-width: 0.8"/>
      </g>
     </g>
     <g id="text_1">
      <!-- 0 -->
      <g transform="translate(59.162775 254.335575) scale(0.1 -0.1)">
       <defs>
        <path id="DejaVuSans-30" d="M 2034 4250 
Q 1547 4250 1301 3770 
Q 1056 3291 1056 2328 
Q 1056 1369 1301 889 
Q 1547 409 2034 409 
Q 2525 409 2770 889 
Q 3016 1369 3016 2328 
Q 3016 3291 2770 3770 
Q 2525 4250 2034 4250 
z
M 2034 4750 
Q 2819 4750 3233 4129 
Q 3647 3509 3647 2328 
Q 3647 1150 3233 529 
Q 2819 -91 2034 -91 
Q 1250 -91 836 529 
Q 422 1150 422 2328 
Q 422 3509 836 4129 
Q 1250 4750 2034 4750 
z
" transform="scale(0.015625)"/>
       </defs>
       <use xlink:href="#DejaVuSans-30"/>
      </g>
     </g>
    </g>
    <g id="xtick_2">
     <g id="line2d_2">
      <g>
       <use xlink:href="#m4ce6243544" x="107.319757" y="239.737138" style="stroke: #000000; stroke-width: 0.8"/>
      </g>
     </g>
     <g id="text_2">
      <!-- 2 -->
      <g transform="translate(104.138507 254.335575) scale(0.1 -0.1)">
       <defs>
        <path id="DejaVuSans-32" d="M 1228 531 
L 3431 531 
L 3431 0 
L 469 0 
L 469 531 
Q 828 903 1448 1529 
Q 2069 2156 2228 2338 
Q 2531 2678 2651 2914 
Q 2772 3150 2772 3378 
Q 2772 3750 2511 3984 
Q 2250 4219 1831 4219 
Q 1534 4219 1204 4116 
Q 875 4013 500 3803 
L 500 4441 
Q 881 4594 1212 4672 
Q 1544 4750 1819 4750 
Q 2544 4750 2975 4387 
Q 3406 4025 3406 3419 
Q 3406 3131 3298 2873 
Q 3191 2616 2906 2266 
Q 2828 2175 2409 1742 
Q 1991 1309 1228 531 
z
" transform="scale(0.015625)"/>
       </defs>
       <use xlink:href="#DejaVuSans-32"/>
      </g>
     </g>
    </g>
    <g id="xtick_3">
     <g id="line2d_3">
      <g>
       <use xlink:href="#m4ce6243544" x="152.295489" y="239.737138" style="stroke: #000000; stroke-width: 0.8"/>
      </g>
     </g>
     <g id="text_3">
      <!-- 4 -->
      <g transform="translate(149.114239 254.335575) scale(0.1 -0.1)">
       <defs>
        <path id="DejaVuSans-34" d="M 2419 4116 
L 825 1625 
L 2419 1625 
L 2419 4116 
z
M 2253 4666 
L 3047 4666 
L 3047 1625 
L 3713 1625 
L 3713 1100 
L 3047 1100 
L 3047 0 
L 2419 0 
L 2419 1100 
L 313 1100 
L 313 1709 
L 2253 4666 
z
" transform="scale(0.015625)"/>
       </defs>
       <use xlink:href="#DejaVuSans-34"/>
      </g>
     </g>
    </g>
    <g id="xtick_4">
     <g id="line2d_4">
      <g>
       <use xlink:href="#m4ce6243544" x="197.271221" y="239.737138" style="stroke: #000000; stroke-width: 0.8"/>
      </g>
     </g>
     <g id="text_4">
      <!-- 6 -->
      <g transform="translate(194.089971 254.335575) scale(0.1 -0.1)">
       <defs>
        <path id="DejaVuSans-36" d="M 2113 2584 
Q 1688 2584 1439 2293 
Q 1191 2003 1191 1497 
Q 1191 994 1439 701 
Q 1688 409 2113 409 
Q 2538 409 2786 701 
Q 3034 994 3034 1497 
Q 3034 2003 2786 2293 
Q 2538 2584 2113 2584 
z
M 3366 4563 
L 3366 3988 
Q 3128 4100 2886 4159 
Q 2644 4219 2406 4219 
Q 1781 4219 1451 3797 
Q 1122 3375 1075 2522 
Q 1259 2794 1537 2939 
Q 1816 3084 2150 3084 
Q 2853 3084 3261 2657 
Q 3669 2231 3669 1497 
Q 3669 778 3244 343 
Q 2819 -91 2113 -91 
Q 1303 -91 875 529 
Q 447 1150 447 2328 
Q 447 3434 972 4092 
Q 1497 4750 2381 4750 
Q 2619 4750 2861 4703 
Q 3103 4656 3366 4563 
z
" transform="scale(0.015625)"/>
       </defs>
       <use xlink:href="#DejaVuSans-36"/>
      </g>
     </g>
    </g>
    <g id="xtick_5">
     <g id="line2d_5">
      <g>
       <use xlink:href="#m4ce6243544" x="242.246953" y="239.737138" style="stroke: #000000; stroke-width: 0.8"/>
      </g>
     </g>
     <g id="text_5">
      <!-- 8 -->
      <g transform="translate(239.065703 254.335575) scale(0.1 -0.1)">
       <defs>
        <path id="DejaVuSans-38" d="M 2034 2216 
Q 1584 2216 1326 1975 
Q 1069 1734 1069 1313 
Q 1069 891 1326 650 
Q 1584 409 2034 409 
Q 2484 409 2743 651 
Q 3003 894 3003 1313 
Q 3003 1734 2745 1975 
Q 2488 2216 2034 2216 
z
M 1403 2484 
Q 997 2584 770 2862 
Q 544 3141 544 3541 
Q 544 4100 942 4425 
Q 1341 4750 2034 4750 
Q 2731 4750 3128 4425 
Q 3525 4100 3525 3541 
Q 3525 3141 3298 2862 
Q 3072 2584 2669 2484 
Q 3125 2378 3379 2068 
Q 3634 1759 3634 1313 
Q 3634 634 3220 271 
Q 2806 -91 2034 -91 
Q 1263 -91 848 271 
Q 434 634 434 1313 
Q 434 1759 690 2068 
Q 947 2378 1403 2484 
z
M 1172 3481 
Q 1172 3119 1398 2916 
Q 1625 2713 2034 2713 
Q 2441 2713 2670 2916 
Q 2900 3119 2900 3481 
Q 2900 3844 2670 4047 
Q 2441 4250 2034 4250 
Q 1625 4250 1398 4047 
Q 1172 3844 1172 3481 
z
" transform="scale(0.015625)"/>
       </defs>
       <use xlink:href="#DejaVuSans-38"/>
      </g>
     </g>
    </g>
    <g id="xtick_6">
     <g id="line2d_6">
      <g>
       <use xlink:href="#m4ce6243544" x="287.222686" y="239.737138" style="stroke: #000000; stroke-width: 0.8"/>
      </g>
     </g>
     <g id="text_6">
      <!-- 10 -->
      <g transform="translate(280.860186 254.335575) scale(0.1 -0.1)">
       <defs>
        <path id="DejaVuSans-31" d="M 794 531 
L 1825 531 
L 1825 4091 
L 703 3866 
L 703 4441 
L 1819 4666 
L 2450 4666 
L 2450 531 
L 3481 531 
L 3481 0 
L 794 0 
L 794 531 
z
" transform="scale(0.015625)"/>
       </defs>
       <use xlink:href="#DejaVuSans-31"/>
       <use xlink:href="#DejaVuSans-30" x="63.623047"/>
      </g>
     </g>
    </g>
    <g id="xtick_7">
     <g id="line2d_7">
      <g>
       <use xlink:href="#m4ce6243544" x="332.198418" y="239.737138" style="stroke: #000000; stroke-width: 0.8"/>
      </g>
     </g>
     <g id="text_7">
      <!-- 12 -->
      <g transform="translate(325.835918 254.335575) scale(0.1 -0.1)">
       <use xlink:href="#DejaVuSans-31"/>
       <use xlink:href="#DejaVuSans-32" x="63.623047"/>
      </g>
     </g>
    </g>
    <g id="xtick_8">
     <g id="line2d_8">
      <g>
       <use xlink:href="#m4ce6243544" x="377.17415" y="239.737138" style="stroke: #000000; stroke-width: 0.8"/>
      </g>
     </g>
     <g id="text_8">
      <!-- 14 -->
      <g transform="translate(370.81165 254.335575) scale(0.1 -0.1)">
       <use xlink:href="#DejaVuSans-31"/>
       <use xlink:href="#DejaVuSans-34" x="63.623047"/>
      </g>
     </g>
    </g>
    <g id="text_9">
     <!-- Q [1/Å] -->
     <g transform="translate(213.29052 268.937138) scale(0.1 -0.1)">
      <defs>
       <path id="DejaVuSans-51" d="M 2522 4238 
Q 1834 4238 1429 3725 
Q 1025 3213 1025 2328 
Q 1025 1447 1429 934 
Q 1834 422 2522 422 
Q 3209 422 3611 934 
Q 4013 1447 4013 2328 
Q 4013 3213 3611 3725 
Q 3209 4238 2522 4238 
z
M 3406 84 
L 4238 -825 
L 3475 -825 
L 2784 -78 
Q 2681 -84 2626 -87 
Q 2572 -91 2522 -91 
Q 1538 -91 948 567 
Q 359 1225 359 2328 
Q 359 3434 948 4092 
Q 1538 4750 2522 4750 
Q 3503 4750 4090 4092 
Q 4678 3434 4678 2328 
Q 4678 1516 4351 937 
Q 4025 359 3406 84 
z
" transform="scale(0.015625)"/>
       <path id="DejaVuSans-20" transform="scale(0.015625)"/>
       <path id="DejaVuSans-5b" d="M 550 4863 
L 1875 4863 
L 1875 4416 
L 1125 4416 
L 1125 -397 
L 1875 -397 
L 1875 -844 
L 550 -844 
L 550 4863 
z
" transform="scale(0.015625)"/>
       <path id="DejaVuSans-2f" d="M 1625 4666 
L 2156 4666 
L 531 -594 
L 0 -594 
L 1625 4666 
z
" transform="scale(0.015625)"/>
       <path id="DejaVuSans-c5" d="M 2663 5081 
Q 2663 5278 2523 5417 
Q 2384 5556 2188 5556 
Q 1988 5556 1852 5420 
Q 1716 5284 1716 5081 
Q 1716 4884 1853 4746 
Q 1991 4609 2188 4609 
Q 2384 4609 2523 4746 
Q 2663 4884 2663 5081 
z
M 2188 4044 
L 1338 1722 
L 3041 1722 
L 2188 4044 
z
M 1716 4366 
Q 1525 4494 1428 4673 
Q 1331 4853 1331 5081 
Q 1331 5441 1579 5691 
Q 1828 5941 2188 5941 
Q 2544 5941 2795 5689 
Q 3047 5438 3047 5081 
Q 3047 4863 2948 4678 
Q 2850 4494 2663 4366 
L 4325 0 
L 3669 0 
L 3244 1197 
L 1141 1197 
L 716 0 
L 50 0 
L 1716 4366 
z
" transform="scale(0.015625)"/>
       <path id="DejaVuSans-5d" d="M 1947 4863 
L 1947 -844 
L 622 -844 
L 622 -397 
L 1369 -397 
L 1369 4416 
L 622 4416 
L 622 4863 
L 1947 4863 
z
" transform="scale(0.015625)"/>
      </defs>
      <use xlink:href="#DejaVuSans-51"/>
      <use xlink:href="#DejaVuSans-20" x="78.710938"/>
      <use xlink:href="#DejaVuSans-5b" x="110.498047"/>
      <use xlink:href="#DejaVuSans-31" x="149.511719"/>
      <use xlink:href="#DejaVuSans-2f" x="213.134766"/>
      <use xlink:href="#DejaVuSans-c5" x="246.826172"/>
      <use xlink:href="#DejaVuSans-5d" x="315.234375"/>
     </g>
    </g>
   </g>
   <g id="matplotlib.axis_2">
    <g id="ytick_1">
     <g id="line2d_9">
      <defs>
       <path id="mc9414e1532" d="M 0 0 
L -3.5 0 
" style="stroke: #000000; stroke-width: 0.8"/>
      </defs>
      <g>
       <use xlink:href="#mc9414e1532" x="45.478125" y="208.081996" style="stroke: #000000; stroke-width: 0.8"/>
      </g>
     </g>
     <g id="text_10">
      <!-- $\mathdefault{10^{2}}$ -->
      <g transform="translate(20.878125 211.881215) scale(0.1 -0.1)">
       <use xlink:href="#DejaVuSans-31" transform="translate(0 0.765625)"/>
       <use xlink:href="#DejaVuSans-30" transform="translate(63.623047 0.765625)"/>
       <use xlink:href="#DejaVuSans-32" transform="translate(128.203125 39.046875) scale(0.7)"/>
      </g>
     </g>
    </g>
    <g id="ytick_2">
     <g id="line2d_10">
      <g>
       <use xlink:href="#mc9414e1532" x="45.478125" y="175.234866" style="stroke: #000000; stroke-width: 0.8"/>
      </g>
     </g>
     <g id="text_11">
      <!-- $\mathdefault{10^{3}}$ -->
      <g transform="translate(20.878125 179.034085) scale(0.1 -0.1)">
       <defs>
        <path id="DejaVuSans-33" d="M 2597 2516 
Q 3050 2419 3304 2112 
Q 3559 1806 3559 1356 
Q 3559 666 3084 287 
Q 2609 -91 1734 -91 
Q 1441 -91 1130 -33 
Q 819 25 488 141 
L 488 750 
Q 750 597 1062 519 
Q 1375 441 1716 441 
Q 2309 441 2620 675 
Q 2931 909 2931 1356 
Q 2931 1769 2642 2001 
Q 2353 2234 1838 2234 
L 1294 2234 
L 1294 2753 
L 1863 2753 
Q 2328 2753 2575 2939 
Q 2822 3125 2822 3475 
Q 2822 3834 2567 4026 
Q 2313 4219 1838 4219 
Q 1578 4219 1281 4162 
Q 984 4106 628 3988 
L 628 4550 
Q 988 4650 1302 4700 
Q 1616 4750 1894 4750 
Q 2613 4750 3031 4423 
Q 3450 4097 3450 3541 
Q 3450 3153 3228 2886 
Q 3006 2619 2597 2516 
z
" transform="scale(0.015625)"/>
       </defs>
       <use xlink:href="#DejaVuSans-31" transform="translate(0 0.765625)"/>
       <use xlink:href="#DejaVuSans-30" transform="translate(63.623047 0.765625)"/>
       <use xlink:href="#DejaVuSans-33" transform="translate(128.203125 39.046875) scale(0.7)"/>
      </g>
     </g>
    </g>
    <g id="ytick_3">
     <g id="line2d_11">
      <g>
       <use xlink:href="#mc9414e1532" x="45.478125" y="142.387737" style="stroke: #000000; stroke-width: 0.8"/>
      </g>
     </g>
     <g id="text_12">
      <!-- $\mathdefault{10^{4}}$ -->
      <g transform="translate(20.878125 146.186956) scale(0.1 -0.1)">
       <use xlink:href="#DejaVuSans-31" transform="translate(0 0.684375)"/>
       <use xlink:href="#DejaVuSans-30" transform="translate(63.623047 0.684375)"/>
       <use xlink:href="#DejaVuSans-34" transform="translate(128.203125 38.965625) scale(0.7)"/>
      </g>
     </g>
    </g>
    <g id="ytick_4">
     <g id="line2d_12">
      <g>
       <use xlink:href="#mc9414e1532" x="45.478125" y="109.540607" style="stroke: #000000; stroke-width: 0.8"/>
      </g>
     </g>
     <g id="text_13">
      <!-- $\mathdefault{10^{5}}$ -->
      <g transform="translate(20.878125 113.339826) scale(0.1 -0.1)">
       <defs>
        <path id="DejaVuSans-35" d="M 691 4666 
L 3169 4666 
L 3169 4134 
L 1269 4134 
L 1269 2991 
Q 1406 3038 1543 3061 
Q 1681 3084 1819 3084 
Q 2600 3084 3056 2656 
Q 3513 2228 3513 1497 
Q 3513 744 3044 326 
Q 2575 -91 1722 -91 
Q 1428 -91 1123 -41 
Q 819 9 494 109 
L 494 744 
Q 775 591 1075 516 
Q 1375 441 1709 441 
Q 2250 441 2565 725 
Q 2881 1009 2881 1497 
Q 2881 1984 2565 2268 
Q 2250 2553 1709 2553 
Q 1456 2553 1204 2497 
Q 953 2441 691 2322 
L 691 4666 
z
" transform="scale(0.015625)"/>
       </defs>
       <use xlink:href="#DejaVuSans-31" transform="translate(0 0.684375)"/>
       <use xlink:href="#DejaVuSans-30" transform="translate(63.623047 0.684375)"/>
       <use xlink:href="#DejaVuSans-35" transform="translate(128.203125 38.965625) scale(0.7)"/>
      </g>
     </g>
    </g>
    <g id="ytick_5">
     <g id="line2d_13">
      <g>
       <use xlink:href="#mc9414e1532" x="45.478125" y="76.693478" style="stroke: #000000; stroke-width: 0.8"/>
      </g>
     </g>
     <g id="text_14">
      <!-- $\mathdefault{10^{6}}$ -->
      <g transform="translate(20.878125 80.492697) scale(0.1 -0.1)">
       <use xlink:href="#DejaVuSans-31" transform="translate(0 0.765625)"/>
       <use xlink:href="#DejaVuSans-30" transform="translate(63.623047 0.765625)"/>
       <use xlink:href="#DejaVuSans-36" transform="translate(128.203125 39.046875) scale(0.7)"/>
      </g>
     </g>
    </g>
    <g id="ytick_6">
     <g id="line2d_14">
      <g>
       <use xlink:href="#mc9414e1532" x="45.478125" y="43.846348" style="stroke: #000000; stroke-width: 0.8"/>
      </g>
     </g>
     <g id="text_15">
      <!-- $\mathdefault{10^{7}}$ -->
      <g transform="translate(20.878125 47.645567) scale(0.1 -0.1)">
       <defs>
        <path id="DejaVuSans-37" d="M 525 4666 
L 3525 4666 
L 3525 4397 
L 1831 0 
L 1172 0 
L 2766 4134 
L 525 4134 
L 525 4666 
z
" transform="scale(0.015625)"/>
       </defs>
       <use xlink:href="#DejaVuSans-31" transform="translate(0 0.684375)"/>
       <use xlink:href="#DejaVuSans-30" transform="translate(63.623047 0.684375)"/>
       <use xlink:href="#DejaVuSans-37" transform="translate(128.203125 38.965625) scale(0.7)"/>
      </g>
     </g>
    </g>
    <g id="ytick_7">
     <g id="line2d_15">
      <g>
       <use xlink:href="#mc9414e1532" x="45.478125" y="10.999219" style="stroke: #000000; stroke-width: 0.8"/>
      </g>
     </g>
     <g id="text_16">
      <!-- $\mathdefault{10^{8}}$ -->
      <g transform="translate(20.878125 14.798438) scale(0.1 -0.1)">
       <use xlink:href="#DejaVuSans-31" transform="translate(0 0.765625)"/>
       <use xlink:href="#DejaVuSans-30" transform="translate(63.623047 0.765625)"/>
       <use xlink:href="#DejaVuSans-38" transform="translate(128.203125 39.046875) scale(0.7)"/>
      </g>
     </g>
    </g>
    <g id="ytick_8">
     <g id="line2d_16">
      <defs>
       <path id="me579c5cc6b" d="M 0 0 
L -2 0 
" style="stroke: #000000; stroke-width: 0.6"/>
      </defs>
      <g>
       <use xlink:href="#me579c5cc6b" x="45.478125" y="231.041154" style="stroke: #000000; stroke-width: 0.6"/>
      </g>
     </g>
    </g>
    <g id="ytick_9">
     <g id="line2d_17">
      <g>
       <use xlink:href="#me579c5cc6b" x="45.478125" y="225.257062" style="stroke: #000000; stroke-width: 0.6"/>
      </g>
     </g>
    </g>
    <g id="ytick_10">
     <g id="line2d_18">
      <g>
       <use xlink:href="#me579c5cc6b" x="45.478125" y="221.153183" style="stroke: #000000; stroke-width: 0.6"/>
      </g>
     </g>
    </g>
    <g id="ytick_11">
     <g id="line2d_19">
      <g>
       <use xlink:href="#me579c5cc6b" x="45.478125" y="217.969967" style="stroke: #000000; stroke-width: 0.6"/>
      </g>
     </g>
    </g>
    <g id="ytick_12">
     <g id="line2d_20">
      <g>
       <use xlink:href="#me579c5cc6b" x="45.478125" y="215.369091" style="stroke: #000000; stroke-width: 0.6"/>
      </g>
     </g>
    </g>
    <g id="ytick_13">
     <g id="line2d_21">
      <g>
       <use xlink:href="#me579c5cc6b" x="45.478125" y="213.170081" style="stroke: #000000; stroke-width: 0.6"/>
      </g>
     </g>
    </g>
    <g id="ytick_14">
     <g id="line2d_22">
      <g>
       <use xlink:href="#me579c5cc6b" x="45.478125" y="211.265212" style="stroke: #000000; stroke-width: 0.6"/>
      </g>
     </g>
    </g>
    <g id="ytick_15">
     <g id="line2d_23">
      <g>
       <use xlink:href="#me579c5cc6b" x="45.478125" y="209.584998" style="stroke: #000000; stroke-width: 0.6"/>
      </g>
     </g>
    </g>
    <g id="ytick_16">
     <g id="line2d_24">
      <g>
       <use xlink:href="#me579c5cc6b" x="45.478125" y="198.194025" style="stroke: #000000; stroke-width: 0.6"/>
      </g>
     </g>
    </g>
    <g id="ytick_17">
     <g id="line2d_25">
      <g>
       <use xlink:href="#me579c5cc6b" x="45.478125" y="192.409932" style="stroke: #000000; stroke-width: 0.6"/>
      </g>
     </g>
    </g>
    <g id="ytick_18">
     <g id="line2d_26">
      <g>
       <use xlink:href="#me579c5cc6b" x="45.478125" y="188.306053" style="stroke: #000000; stroke-width: 0.6"/>
      </g>
     </g>
    </g>
    <g id="ytick_19">
     <g id="line2d_27">
      <g>
       <use xlink:href="#me579c5cc6b" x="45.478125" y="185.122838" style="stroke: #000000; stroke-width: 0.6"/>
      </g>
     </g>
    </g>
    <g id="ytick_20">
     <g id="line2d_28">
      <g>
       <use xlink:href="#me579c5cc6b" x="45.478125" y="182.521961" style="stroke: #000000; stroke-width: 0.6"/>
      </g>
     </g>
    </g>
    <g id="ytick_21">
     <g id="line2d_29">
      <g>
       <use xlink:href="#me579c5cc6b" x="45.478125" y="180.322951" style="stroke: #000000; stroke-width: 0.6"/>
      </g>
     </g>
    </g>
    <g id="ytick_22">
     <g id="line2d_30">
      <g>
       <use xlink:href="#me579c5cc6b" x="45.478125" y="178.418082" style="stroke: #000000; stroke-width: 0.6"/>
      </g>
     </g>
    </g>
    <g id="ytick_23">
     <g id="line2d_31">
      <g>
       <use xlink:href="#me579c5cc6b" x="45.478125" y="176.737869" style="stroke: #000000; stroke-width: 0.6"/>
      </g>
     </g>
    </g>
    <g id="ytick_24">
     <g id="line2d_32">
      <g>
       <use xlink:href="#me579c5cc6b" x="45.478125" y="165.346895" style="stroke: #000000; stroke-width: 0.6"/>
      </g>
     </g>
    </g>
    <g id="ytick_25">
     <g id="line2d_33">
      <g>
       <use xlink:href="#me579c5cc6b" x="45.478125" y="159.562803" style="stroke: #000000; stroke-width: 0.6"/>
      </g>
     </g>
    </g>
    <g id="ytick_26">
     <g id="line2d_34">
      <g>
       <use xlink:href="#me579c5cc6b" x="45.478125" y="155.458924" style="stroke: #000000; stroke-width: 0.6"/>
      </g>
     </g>
    </g>
    <g id="ytick_27">
     <g id="line2d_35">
      <g>
       <use xlink:href="#me579c5cc6b" x="45.478125" y="152.275708" style="stroke: #000000; stroke-width: 0.6"/>
      </g>
     </g>
    </g>
    <g id="ytick_28">
     <g id="line2d_36">
      <g>
       <use xlink:href="#me579c5cc6b" x="45.478125" y="149.674832" style="stroke: #000000; stroke-width: 0.6"/>
      </g>
     </g>
    </g>
    <g id="ytick_29">
     <g id="line2d_37">
      <g>
       <use xlink:href="#me579c5cc6b" x="45.478125" y="147.475822" style="stroke: #000000; stroke-width: 0.6"/>
      </g>
     </g>
    </g>
    <g id="ytick_30">
     <g id="line2d_38">
      <g>
       <use xlink:href="#me579c5cc6b" x="45.478125" y="145.570953" style="stroke: #000000; stroke-width: 0.6"/>
      </g>
     </g>
    </g>
    <g id="ytick_31">
     <g id="line2d_39">
      <g>
       <use xlink:href="#me579c5cc6b" x="45.478125" y="143.890739" style="stroke: #000000; stroke-width: 0.6"/>
      </g>
     </g>
    </g>
    <g id="ytick_32">
     <g id="line2d_40">
      <g>
       <use xlink:href="#me579c5cc6b" x="45.478125" y="132.499766" style="stroke: #000000; stroke-width: 0.6"/>
      </g>
     </g>
    </g>
    <g id="ytick_33">
     <g id="line2d_41">
      <g>
       <use xlink:href="#me579c5cc6b" x="45.478125" y="126.715673" style="stroke: #000000; stroke-width: 0.6"/>
      </g>
     </g>
    </g>
    <g id="ytick_34">
     <g id="line2d_42">
      <g>
       <use xlink:href="#me579c5cc6b" x="45.478125" y="122.611794" style="stroke: #000000; stroke-width: 0.6"/>
      </g>
     </g>
    </g>
    <g id="ytick_35">
     <g id="line2d_43">
      <g>
       <use xlink:href="#me579c5cc6b" x="45.478125" y="119.428579" style="stroke: #000000; stroke-width: 0.6"/>
      </g>
     </g>
    </g>
    <g id="ytick_36">
     <g id="line2d_44">
      <g>
       <use xlink:href="#me579c5cc6b" x="45.478125" y="116.827702" style="stroke: #000000; stroke-width: 0.6"/>
      </g>
     </g>
    </g>
    <g id="ytick_37">
     <g id="line2d_45">
      <g>
       <use xlink:href="#me579c5cc6b" x="45.478125" y="114.628692" style="stroke: #000000; stroke-width: 0.6"/>
      </g>
     </g>
    </g>
    <g id="ytick_38">
     <g id="line2d_46">
      <g>
       <use xlink:href="#me579c5cc6b" x="45.478125" y="112.723823" style="stroke: #000000; stroke-width: 0.6"/>
      </g>
     </g>
    </g>
    <g id="ytick_39">
     <g id="line2d_47">
      <g>
       <use xlink:href="#me579c5cc6b" x="45.478125" y="111.04361" style="stroke: #000000; stroke-width: 0.6"/>
      </g>
     </g>
    </g>
    <g id="ytick_40">
     <g id="line2d_48">
      <g>
       <use xlink:href="#me579c5cc6b" x="45.478125" y="99.652636" style="stroke: #000000; stroke-width: 0.6"/>
      </g>
     </g>
    </g>
    <g id="ytick_41">
     <g id="line2d_49">
      <g>
       <use xlink:href="#me579c5cc6b" x="45.478125" y="93.868544" style="stroke: #000000; stroke-width: 0.6"/>
      </g>
     </g>
    </g>
    <g id="ytick_42">
     <g id="line2d_50">
      <g>
       <use xlink:href="#me579c5cc6b" x="45.478125" y="89.764665" style="stroke: #000000; stroke-width: 0.6"/>
      </g>
     </g>
    </g>
    <g id="ytick_43">
     <g id="line2d_51">
      <g>
       <use xlink:href="#me579c5cc6b" x="45.478125" y="86.581449" style="stroke: #000000; stroke-width: 0.6"/>
      </g>
     </g>
    </g>
    <g id="ytick_44">
     <g id="line2d_52">
      <g>
       <use xlink:href="#me579c5cc6b" x="45.478125" y="83.980572" style="stroke: #000000; stroke-width: 0.6"/>
      </g>
     </g>
    </g>
    <g id="ytick_45">
     <g id="line2d_53">
      <g>
       <use xlink:href="#me579c5cc6b" x="45.478125" y="81.781563" style="stroke: #000000; stroke-width: 0.6"/>
      </g>
     </g>
    </g>
    <g id="ytick_46">
     <g id="line2d_54">
      <g>
       <use xlink:href="#me579c5cc6b" x="45.478125" y="79.876694" style="stroke: #000000; stroke-width: 0.6"/>
      </g>
     </g>
    </g>
    <g id="ytick_47">
     <g id="line2d_55">
      <g>
       <use xlink:href="#me579c5cc6b" x="45.478125" y="78.19648" style="stroke: #000000; stroke-width: 0.6"/>
      </g>
     </g>
    </g>
    <g id="ytick_48">
     <g id="line2d_56">
      <g>
       <use xlink:href="#me579c5cc6b" x="45.478125" y="66.805507" style="stroke: #000000; stroke-width: 0.6"/>
      </g>
     </g>
    </g>
    <g id="ytick_49">
     <g id="line2d_57">
      <g>
       <use xlink:href="#me579c5cc6b" x="45.478125" y="61.021414" style="stroke: #000000; stroke-width: 0.6"/>
      </g>
     </g>
    </g>
    <g id="ytick_50">
     <g id="line2d_58">
      <g>
       <use xlink:href="#me579c5cc6b" x="45.478125" y="56.917535" style="stroke: #000000; stroke-width: 0.6"/>
      </g>
     </g>
    </g>
    <g id="ytick_51">
     <g id="line2d_59">
      <g>
       <use xlink:href="#me579c5cc6b" x="45.478125" y="53.73432" style="stroke: #000000; stroke-width: 0.6"/>
      </g>
     </g>
    </g>
    <g id="ytick_52">
     <g id="line2d_60">
      <g>
       <use xlink:href="#me579c5cc6b" x="45.478125" y="51.133443" style="stroke: #000000; stroke-width: 0.6"/>
      </g>
     </g>
    </g>
    <g id="ytick_53">
     <g id="line2d_61">
      <g>
       <use xlink:href="#me579c5cc6b" x="45.478125" y="48.934433" style="stroke: #000000; stroke-width: 0.6"/>
      </g>
     </g>
    </g>
    <g id="ytick_54">
     <g id="line2d_62">
      <g>
       <use xlink:href="#me579c5cc6b" x="45.478125" y="47.029564" style="stroke: #000000; stroke-width: 0.6"/>
      </g>
     </g>
    </g>
    <g id="ytick_55">
     <g id="line2d_63">
      <g>
       <use xlink:href="#me579c5cc6b" x="45.478125" y="45.349351" style="stroke: #000000; stroke-width: 0.6"/>
      </g>
     </g>
    </g>
    <g id="ytick_56">
     <g id="line2d_64">
      <g>
       <use xlink:href="#me579c5cc6b" x="45.478125" y="33.958377" style="stroke: #000000; stroke-width: 0.6"/>
      </g>
     </g>
    </g>
    <g id="ytick_57">
     <g id="line2d_65">
      <g>
       <use xlink:href="#me579c5cc6b" x="45.478125" y="28.174285" style="stroke: #000000; stroke-width: 0.6"/>
      </g>
     </g>
    </g>
    <g id="ytick_58">
     <g id="line2d_66">
      <g>
       <use xlink:href="#me579c5cc6b" x="45.478125" y="24.070406" style="stroke: #000000; stroke-width: 0.6"/>
      </g>
     </g>
    </g>
    <g id="ytick_59">
     <g id="line2d_67">
      <g>
       <use xlink:href="#me579c5cc6b" x="45.478125" y="20.88719" style="stroke: #000000; stroke-width: 0.6"/>
      </g>
     </g>
    </g>
    <g id="ytick_60">
     <g id="line2d_68">
      <g>
       <use xlink:href="#me579c5cc6b" x="45.478125" y="18.286313" style="stroke: #000000; stroke-width: 0.6"/>
      </g>
     </g>
    </g>
    <g id="ytick_61">
     <g id="line2d_69">
      <g>
       <use xlink:href="#me579c5cc6b" x="45.478125" y="16.087303" style="stroke: #000000; stroke-width: 0.6"/>
      </g>
     </g>
    </g>
    <g id="ytick_62">
     <g id="line2d_70">
      <g>
       <use xlink:href="#me579c5cc6b" x="45.478125" y="14.182435" style="stroke: #000000; stroke-width: 0.6"/>
      </g>
     </g>
    </g>
    <g id="ytick_63">
     <g id="line2d_71">
      <g>
       <use xlink:href="#me579c5cc6b" x="45.478125" y="12.502221" style="stroke: #000000; stroke-width: 0.6"/>
      </g>
     </g>
    </g>
    <g id="text_17">
     <!-- [counts] -->
     <g transform="translate(14.798438 144.768766) rotate(-90) scale(0.1 -0.1)">
      <defs>
       <path id="DejaVuSans-63" d="M 3122 3366 
L 3122 2828 
Q 2878 2963 2633 3030 
Q 2388 3097 2138 3097 
Q 1578 3097 1268 2742 
Q 959 2388 959 1747 
Q 959 1106 1268 751 
Q 1578 397 2138 397 
Q 2388 397 2633 464 
Q 2878 531 3122 666 
L 3122 134 
Q 2881 22 2623 -34 
Q 2366 -91 2075 -91 
Q 1284 -91 818 406 
Q 353 903 353 1747 
Q 353 2603 823 3093 
Q 1294 3584 2113 3584 
Q 2378 3584 2631 3529 
Q 2884 3475 3122 3366 
z
" transform="scale(0.015625)"/>
       <path id="DejaVuSans-6f" d="M 1959 3097 
Q 1497 3097 1228 2736 
Q 959 2375 959 1747 
Q 959 1119 1226 758 
Q 1494 397 1959 397 
Q 2419 397 2687 759 
Q 2956 1122 2956 1747 
Q 2956 2369 2687 2733 
Q 2419 3097 1959 3097 
z
M 1959 3584 
Q 2709 3584 3137 3096 
Q 3566 2609 3566 1747 
Q 3566 888 3137 398 
Q 2709 -91 1959 -91 
Q 1206 -91 779 398 
Q 353 888 353 1747 
Q 353 2609 779 3096 
Q 1206 3584 1959 3584 
z
" transform="scale(0.015625)"/>
       <path id="DejaVuSans-75" d="M 544 1381 
L 544 3500 
L 1119 3500 
L 1119 1403 
Q 1119 906 1312 657 
Q 1506 409 1894 409 
Q 2359 409 2629 706 
Q 2900 1003 2900 1516 
L 2900 3500 
L 3475 3500 
L 3475 0 
L 2900 0 
L 2900 538 
Q 2691 219 2414 64 
Q 2138 -91 1772 -91 
Q 1169 -91 856 284 
Q 544 659 544 1381 
z
M 1991 3584 
L 1991 3584 
z
" transform="scale(0.015625)"/>
       <path id="DejaVuSans-6e" d="M 3513 2113 
L 3513 0 
L 2938 0 
L 2938 2094 
Q 2938 2591 2744 2837 
Q 2550 3084 2163 3084 
Q 1697 3084 1428 2787 
Q 1159 2491 1159 1978 
L 1159 0 
L 581 0 
L 581 3500 
L 1159 3500 
L 1159 2956 
Q 1366 3272 1645 3428 
Q 1925 3584 2291 3584 
Q 2894 3584 3203 3211 
Q 3513 2838 3513 2113 
z
" transform="scale(0.015625)"/>
       <path id="DejaVuSans-74" d="M 1172 4494 
L 1172 3500 
L 2356 3500 
L 2356 3053 
L 1172 3053 
L 1172 1153 
Q 1172 725 1289 603 
Q 1406 481 1766 481 
L 2356 481 
L 2356 0 
L 1766 0 
Q 1100 0 847 248 
Q 594 497 594 1153 
L 594 3053 
L 172 3053 
L 172 3500 
L 594 3500 
L 594 4494 
L 1172 4494 
z
" transform="scale(0.015625)"/>
       <path id="DejaVuSans-73" d="M 2834 3397 
L 2834 2853 
Q 2591 2978 2328 3040 
Q 2066 3103 1784 3103 
Q 1356 3103 1142 2972 
Q 928 2841 928 2578 
Q 928 2378 1081 2264 
Q 1234 2150 1697 2047 
L 1894 2003 
Q 2506 1872 2764 1633 
Q 3022 1394 3022 966 
Q 3022 478 2636 193 
Q 2250 -91 1575 -91 
Q 1294 -91 989 -36 
Q 684 19 347 128 
L 347 722 
Q 666 556 975 473 
Q 1284 391 1588 391 
Q 1994 391 2212 530 
Q 2431 669 2431 922 
Q 2431 1156 2273 1281 
Q 2116 1406 1581 1522 
L 1381 1569 
Q 847 1681 609 1914 
Q 372 2147 372 2553 
Q 372 3047 722 3315 
Q 1072 3584 1716 3584 
Q 2034 3584 2315 3537 
Q 2597 3491 2834 3397 
z
" transform="scale(0.015625)"/>
      </defs>
      <use xlink:href="#DejaVuSans-5b"/>
      <use xlink:href="#DejaVuSans-63" x="39.013672"/>
      <use xlink:href="#DejaVuSans-6f" x="93.994141"/>
      <use xlink:href="#DejaVuSans-75" x="155.175781"/>
      <use xlink:href="#DejaVuSans-6e" x="218.554688"/>
      <use xlink:href="#DejaVuSans-74" x="281.933594"/>
      <use xlink:href="#DejaVuSans-73" x="321.142578"/>
      <use xlink:href="#DejaVuSans-5d" x="373.242188"/>
     </g>
    </g>
   </g>
   <g id="patch_3">
    <path d="M 45.478125 239.737138 
L 45.478125 8.575394 
" style="fill: none; stroke: #000000; stroke-width: 0.8; stroke-linejoin: miter; stroke-linecap: square"/>
   </g>
   <g id="patch_4">
    <path d="M 416.527916 239.737138 
L 416.527916 8.575394 
" style="fill: none; stroke: #000000; stroke-width: 0.8; stroke-linejoin: miter; stroke-linecap: square"/>
   </g>
   <g id="patch_5">
    <path d="M 45.478125 239.737138 
L 416.527916 239.737138 
" style="fill: none; stroke: #000000; stroke-width: 0.8; stroke-linejoin: miter; stroke-linecap: square"/>
   </g>
   <g id="patch_6">
    <path d="M 45.478125 8.575394 
L 416.527916 8.575394 
" style="fill: none; stroke: #000000; stroke-width: 0.8; stroke-linejoin: miter; stroke-linecap: square"/>
   </g>
   <g id="line2d_72">
    <path d="M 62.344025 19.08464 
L 65.751277 19.08464 
L 65.751277 73.530422 
L 69.158529 73.530422 
L 69.158529 109.02292 
L 72.565782 109.02292 
L 72.565782 129.431584 
L 75.973034 129.431584 
L 75.973034 143.12442 
L 79.380287 143.12442 
L 79.380287 154.569833 
L 82.787539 154.569833 
L 82.787539 165.857326 
L 86.194792 165.857326 
L 86.194792 174.046592 
L 89.602044 174.046592 
L 89.602044 178.241131 
L 93.009297 178.241131 
L 93.009297 180.757525 
L 96.416549 180.757525 
L 96.416549 181.939679 
L 99.823801 181.939679 
L 99.823801 182.956686 
L 106.638306 182.883451 
L 106.638306 185.73486 
L 110.045559 185.73486 
L 110.045559 184.952821 
L 113.452811 184.952821 
L 113.452811 188.740573 
L 116.860064 188.740573 
L 116.860064 187.678369 
L 120.267316 187.678369 
L 120.267316 188.704111 
L 123.674569 188.704111 
L 123.674569 190.540615 
L 127.081821 190.540615 
L 127.081821 191.356431 
L 130.489073 191.356431 
L 130.489073 194.616703 
L 133.896326 194.616703 
L 133.896326 193.343891 
L 137.303578 193.343891 
L 137.303578 195.183577 
L 140.710831 195.183577 
L 140.710831 196.834588 
L 147.525336 196.769876 
L 147.525336 196.965032 
L 150.932588 196.965032 
L 150.932588 197.296188 
L 154.33984 197.296188 
L 154.33984 197.163043 
L 157.747093 197.163043 
L 157.747093 197.982126 
L 161.154345 197.982126 
L 161.154345 198.123248 
L 171.376103 198.123408 
L 171.376103 201.288714 
L 174.783355 201.288714 
L 174.783355 201.557019 
L 178.190608 201.557019 
L 178.190608 200.42916 
L 181.59786 200.42916 
L 181.59786 202.586708 
L 185.005112 202.586708 
L 185.005112 203.488145 
L 188.412365 203.488145 
L 188.412365 203.282746 
L 191.819617 203.282746 
L 191.819617 204.230488 
L 195.22687 204.230488 
L 195.22687 204.561153 
L 198.634122 204.561153 
L 198.634122 203.696072 
L 202.041375 203.696072 
L 202.041375 206.723046 
L 205.448627 206.723046 
L 205.448627 204.899351 
L 208.85588 204.899351 
L 208.85588 204.785508 
L 212.263132 204.785508 
L 212.263132 206.465898 
L 215.670384 206.465898 
L 215.670384 207.522945 
L 219.077637 207.522945 
L 219.077637 207.386702 
L 222.484889 207.386702 
L 222.484889 208.814425 
L 225.892142 208.814425 
L 225.892142 208.517168 
L 229.299394 208.517168 
L 229.299394 207.386532 
L 232.706647 207.386532 
L 232.706647 207.660849 
L 236.113899 207.660849 
L 236.113899 209.906027 
L 239.521152 209.906027 
L 239.521152 209.117586 
L 242.928404 209.117586 
L 242.928404 209.90631 
L 246.335656 209.90631 
L 246.335656 212.186826 
L 249.742909 212.186826 
L 249.742909 211.627064 
L 253.150161 211.627064 
L 253.150161 211.265702 
L 256.557414 211.265702 
L 256.557414 210.069025 
L 259.964666 210.069025 
L 259.964666 213.795791 
L 263.371919 213.795791 
L 263.371919 209.117931 
L 266.779171 209.117931 
L 266.779171 212.572132 
L 270.186423 212.572132 
L 270.186423 215.609817 
L 273.593676 215.609817 
L 273.593676 209.74507 
L 277.000928 209.74507 
L 277.000928 216.872753 
L 280.408181 216.872753 
L 280.408181 213.584122 
L 283.815433 213.584122 
L 283.815433 214.227914 
L 287.222686 214.227914 
L 287.222686 213.795525 
L 290.629938 213.795525 
L 290.629938 213.375961 
L 294.037191 213.375961 
L 294.037191 216.353742 
L 297.444443 216.353742 
L 297.444443 211.445058 
L 300.851695 211.445058 
L 300.851695 216.610985 
L 304.258948 216.610985 
L 304.258948 215.853199 
L 307.6662 215.853199 
L 307.6662 212.76866 
L 311.073453 212.76866 
L 311.073453 218.853475 
L 314.480705 218.853475 
L 314.480705 213.584017 
L 317.887958 213.584017 
L 317.887958 216.610855 
L 324.702463 216.61105 
L 324.702463 215.133879 
L 328.109715 215.133879 
L 328.109715 216.872489 
L 331.516967 216.872489 
L 331.516967 217.41102 
L 338.331472 217.411088 
L 338.331472 219.473445 
L 341.738725 219.473445 
L 341.738725 215.609273 
L 345.145977 215.609273 
L 345.145977 217.688106 
L 348.55323 217.688106 
L 348.55323 218.25882 
L 351.960482 218.25882 
L 351.960482 217.687826 
L 355.367735 217.687826 
L 355.367735 220.457855 
L 362.182239 220.458024 
L 362.182239 217.687896 
L 365.589492 217.687896 
L 365.589492 222.266005 
L 368.996744 222.266005 
L 368.996744 218.258748 
L 372.403997 218.258748 
L 372.403997 221.154253 
L 375.811249 221.154253 
L 375.811249 222.266005 
L 379.218502 222.266005 
L 379.218502 221.885274 
L 382.625754 221.885274 
L 382.625754 219.159666 
L 386.033006 219.159666 
L 386.033006 224.790225 
L 389.440259 224.790225 
L 389.440259 220.801892 
L 392.847511 220.801892 
L 392.847511 226.24165 
L 396.254764 226.24165 
L 396.254764 223.058969 
L 399.662016 223.058969 
L 399.662016 223.058969 
" clip-path="url(#p1647324b21)" style="fill: none; stroke: #1f77b4; stroke-width: 1.5; stroke-linecap: square"/>
   </g>
   <g id="LineCollection_1">
    <path d="M 64.047651 19.086534 
L 64.047651 19.082746 
" clip-path="url(#p1647324b21)" style="fill: none; stroke: #1f77b4; stroke-width: 1.5"/>
    <path d="M 67.454903 73.543196 
L 67.454903 73.517659 
" clip-path="url(#p1647324b21)" style="fill: none; stroke: #1f77b4; stroke-width: 1.5"/>
    <path d="M 70.862156 109.067289 
L 70.862156 108.978689 
" clip-path="url(#p1647324b21)" style="fill: none; stroke: #1f77b4; stroke-width: 1.5"/>
    <path d="M 74.269408 129.522459 
L 74.269408 129.341284 
" clip-path="url(#p1647324b21)" style="fill: none; stroke: #1f77b4; stroke-width: 1.5"/>
    <path d="M 77.676661 143.271561 
L 77.676661 142.978782 
" clip-path="url(#p1647324b21)" style="fill: none; stroke: #1f77b4; stroke-width: 1.5"/>
    <path d="M 81.083913 154.79016 
L 81.083913 154.352858 
" clip-path="url(#p1647324b21)" style="fill: none; stroke: #1f77b4; stroke-width: 1.5"/>
    <path d="M 84.491165 166.18582 
L 84.491165 165.536226 
" clip-path="url(#p1647324b21)" style="fill: none; stroke: #1f77b4; stroke-width: 1.5"/>
    <path d="M 87.898418 174.485997 
L 87.898418 173.620318 
" clip-path="url(#p1647324b21)" style="fill: none; stroke: #1f77b4; stroke-width: 1.5"/>
    <path d="M 91.30567 178.751385 
L 91.30567 177.748498 
" clip-path="url(#p1647324b21)" style="fill: none; stroke: #1f77b4; stroke-width: 1.5"/>
    <path d="M 94.712923 181.31576 
L 94.712923 180.220314 
" clip-path="url(#p1647324b21)" style="fill: none; stroke: #1f77b4; stroke-width: 1.5"/>
    <path d="M 98.120175 182.522019 
L 98.120175 181.380182 
" clip-path="url(#p1647324b21)" style="fill: none; stroke: #1f77b4; stroke-width: 1.5"/>
    <path d="M 101.527428 183.560613 
L 101.527428 182.377292 
" clip-path="url(#p1647324b21)" style="fill: none; stroke: #1f77b4; stroke-width: 1.5"/>
    <path d="M 104.93468 183.485796 
L 104.93468 182.305512 
" clip-path="url(#p1647324b21)" style="fill: none; stroke: #1f77b4; stroke-width: 1.5"/>
    <path d="M 108.341933 186.402018 
L 108.341933 185.097514 
" clip-path="url(#p1647324b21)" style="fill: none; stroke: #1f77b4; stroke-width: 1.5"/>
    <path d="M 111.749185 185.601524 
L 111.749185 184.332338 
" clip-path="url(#p1647324b21)" style="fill: none; stroke: #1f77b4; stroke-width: 1.5"/>
    <path d="M 115.156437 189.483816 
L 115.156437 188.034144 
" clip-path="url(#p1647324b21)" style="fill: none; stroke: #1f77b4; stroke-width: 1.5"/>
    <path d="M 118.56369 188.393756 
L 118.56369 186.99715 
" clip-path="url(#p1647324b21)" style="fill: none; stroke: #1f77b4; stroke-width: 1.5"/>
    <path d="M 121.970942 189.446379 
L 121.970942 187.998562 
" clip-path="url(#p1647324b21)" style="fill: none; stroke: #1f77b4; stroke-width: 1.5"/>
    <path d="M 125.378195 191.33363 
L 125.378195 189.789371 
" clip-path="url(#p1647324b21)" style="fill: none; stroke: #1f77b4; stroke-width: 1.5"/>
    <path d="M 128.785447 192.17312 
L 128.785447 190.583976 
" clip-path="url(#p1647324b21)" style="fill: none; stroke: #1f77b4; stroke-width: 1.5"/>
    <path d="M 132.1927 195.535509 
L 132.1927 193.753512 
" clip-path="url(#p1647324b21)" style="fill: none; stroke: #1f77b4; stroke-width: 1.5"/>
    <path d="M 135.599952 194.221348 
L 135.599952 192.517292 
" clip-path="url(#p1647324b21)" style="fill: none; stroke: #1f77b4; stroke-width: 1.5"/>
    <path d="M 139.007205 196.12144 
L 139.007205 194.303587 
" clip-path="url(#p1647324b21)" style="fill: none; stroke: #1f77b4; stroke-width: 1.5"/>
    <path d="M 142.414457 197.83032 
L 142.414457 195.903848 
" clip-path="url(#p1647324b21)" style="fill: none; stroke: #1f77b4; stroke-width: 1.5"/>
    <path d="M 145.821709 197.763271 
L 145.821709 195.841177 
" clip-path="url(#p1647324b21)" style="fill: none; stroke: #1f77b4; stroke-width: 1.5"/>
    <path d="M 149.228962 197.96549 
L 149.228962 196.030163 
" clip-path="url(#p1647324b21)" style="fill: none; stroke: #1f77b4; stroke-width: 1.5"/>
    <path d="M 152.636214 198.30875 
L 152.636214 196.350758 
" clip-path="url(#p1647324b21)" style="fill: none; stroke: #1f77b4; stroke-width: 1.5"/>
    <path d="M 156.043467 198.170721 
L 156.043467 196.221874 
" clip-path="url(#p1647324b21)" style="fill: none; stroke: #1f77b4; stroke-width: 1.5"/>
    <path d="M 159.450719 199.020246 
L 159.450719 197.014454 
" clip-path="url(#p1647324b21)" style="fill: none; stroke: #1f77b4; stroke-width: 1.5"/>
    <path d="M 162.857972 199.166709 
L 162.857972 197.150938 
" clip-path="url(#p1647324b21)" style="fill: none; stroke: #1f77b4; stroke-width: 1.5"/>
    <path d="M 166.265224 199.166764 
L 166.265224 197.15099 
" clip-path="url(#p1647324b21)" style="fill: none; stroke: #1f77b4; stroke-width: 1.5"/>
    <path d="M 169.672476 199.166875 
L 169.672476 197.151093 
" clip-path="url(#p1647324b21)" style="fill: none; stroke: #1f77b4; stroke-width: 1.5"/>
    <path d="M 173.079729 202.459771 
L 173.079729 200.20654 
" clip-path="url(#p1647324b21)" style="fill: none; stroke: #1f77b4; stroke-width: 1.5"/>
    <path d="M 176.486981 202.739613 
L 176.486981 200.465002 
" clip-path="url(#p1647324b21)" style="fill: none; stroke: #1f77b4; stroke-width: 1.5"/>
    <path d="M 179.894234 201.564042 
L 179.894234 199.377948 
" clip-path="url(#p1647324b21)" style="fill: none; stroke: #1f77b4; stroke-width: 1.5"/>
    <path d="M 183.301486 203.814686 
L 183.301486 201.456109 
" clip-path="url(#p1647324b21)" style="fill: none; stroke: #1f77b4; stroke-width: 1.5"/>
    <path d="M 186.708739 204.757346 
L 186.708739 202.322697 
" clip-path="url(#p1647324b21)" style="fill: none; stroke: #1f77b4; stroke-width: 1.5"/>
    <path d="M 190.115991 204.542429 
L 190.115991 202.125329 
" clip-path="url(#p1647324b21)" style="fill: none; stroke: #1f77b4; stroke-width: 1.5"/>
    <path d="M 193.523244 205.534723 
L 193.523244 203.03557 
" clip-path="url(#p1647324b21)" style="fill: none; stroke: #1f77b4; stroke-width: 1.5"/>
    <path d="M 196.930496 205.881317 
L 196.930496 203.352879 
" clip-path="url(#p1647324b21)" style="fill: none; stroke: #1f77b4; stroke-width: 1.5"/>
    <path d="M 200.337748 204.974986 
L 200.337748 202.522441 
" clip-path="url(#p1647324b21)" style="fill: none; stroke: #1f77b4; stroke-width: 1.5"/>
    <path d="M 203.745001 208.152511 
L 203.745001 205.423865 
" clip-path="url(#p1647324b21)" style="fill: none; stroke: #1f77b4; stroke-width: 1.5"/>
    <path d="M 207.152253 206.236018 
L 207.152253 203.67727 
" clip-path="url(#p1647324b21)" style="fill: none; stroke: #1f77b4; stroke-width: 1.5"/>
    <path d="M 210.559506 206.116596 
L 210.559506 203.568091 
" clip-path="url(#p1647324b21)" style="fill: none; stroke: #1f77b4; stroke-width: 1.5"/>
    <path d="M 213.966758 207.881879 
L 213.966758 205.177864 
" clip-path="url(#p1647324b21)" style="fill: none; stroke: #1f77b4; stroke-width: 1.5"/>
    <path d="M 217.374011 208.995225 
L 217.374011 206.188501 
" clip-path="url(#p1647324b21)" style="fill: none; stroke: #1f77b4; stroke-width: 1.5"/>
    <path d="M 220.781263 208.851594 
L 220.781263 206.058327 
" clip-path="url(#p1647324b21)" style="fill: none; stroke: #1f77b4; stroke-width: 1.5"/>
    <path d="M 224.188516 210.358704 
L 224.188516 207.421111 
" clip-path="url(#p1647324b21)" style="fill: none; stroke: #1f77b4; stroke-width: 1.5"/>
    <path d="M 227.595768 210.044553 
L 227.595768 207.137619 
" clip-path="url(#p1647324b21)" style="fill: none; stroke: #1f77b4; stroke-width: 1.5"/>
    <path d="M 231.00302 208.851415 
L 231.00302 206.058165 
" clip-path="url(#p1647324b21)" style="fill: none; stroke: #1f77b4; stroke-width: 1.5"/>
    <path d="M 234.410273 209.140645 
L 234.410273 206.320234 
" clip-path="url(#p1647324b21)" style="fill: none; stroke: #1f77b4; stroke-width: 1.5"/>
    <path d="M 237.817525 211.514059 
L 237.817525 208.461033 
" clip-path="url(#p1647324b21)" style="fill: none; stroke: #1f77b4; stroke-width: 1.5"/>
    <path d="M 241.224778 210.679298 
L 241.224778 207.710098 
" clip-path="url(#p1647324b21)" style="fill: none; stroke: #1f77b4; stroke-width: 1.5"/>
    <path d="M 244.63203 211.51436 
L 244.63203 208.461303 
" clip-path="url(#p1647324b21)" style="fill: none; stroke: #1f77b4; stroke-width: 1.5"/>
    <path d="M 248.039283 213.937228 
L 248.039283 210.62792 
" clip-path="url(#p1647324b21)" style="fill: none; stroke: #1f77b4; stroke-width: 1.5"/>
    <path d="M 251.446535 213.34133 
L 251.446535 210.096879 
" clip-path="url(#p1647324b21)" style="fill: none; stroke: #1f77b4; stroke-width: 1.5"/>
    <path d="M 254.853787 212.957061 
L 254.853787 209.75379 
" clip-path="url(#p1647324b21)" style="fill: none; stroke: #1f77b4; stroke-width: 1.5"/>
    <path d="M 258.26104 211.686813 
L 258.26104 208.61616 
" clip-path="url(#p1647324b21)" style="fill: none; stroke: #1f77b4; stroke-width: 1.5"/>
    <path d="M 261.668292 215.654647 
L 261.668292 212.151469 
" clip-path="url(#p1647324b21)" style="fill: none; stroke: #1f77b4; stroke-width: 1.5"/>
    <path d="M 265.075545 210.679663 
L 265.075545 207.710427 
" clip-path="url(#p1647324b21)" style="fill: none; stroke: #1f77b4; stroke-width: 1.5"/>
    <path d="M 268.482797 214.347878 
L 268.482797 210.993162 
" clip-path="url(#p1647324b21)" style="fill: none; stroke: #1f77b4; stroke-width: 1.5"/>
    <path d="M 271.89005 217.599606 
L 271.89005 213.863902 
" clip-path="url(#p1647324b21)" style="fill: none; stroke: #1f77b4; stroke-width: 1.5"/>
    <path d="M 275.297302 211.34353 
L 275.297302 208.30781 
" clip-path="url(#p1647324b21)" style="fill: none; stroke: #1f77b4; stroke-width: 1.5"/>
    <path d="M 278.704555 218.959513 
L 278.704555 215.052655 
" clip-path="url(#p1647324b21)" style="fill: none; stroke: #1f77b4; stroke-width: 1.5"/>
    <path d="M 282.111807 215.42831 
L 282.111807 211.951284 
" clip-path="url(#p1647324b21)" style="fill: none; stroke: #1f77b4; stroke-width: 1.5"/>
    <path d="M 285.519059 216.117101 
L 285.519059 212.559909 
" clip-path="url(#p1647324b21)" style="fill: none; stroke: #1f77b4; stroke-width: 1.5"/>
    <path d="M 288.926312 215.654362 
L 288.926312 212.151217 
" clip-path="url(#p1647324b21)" style="fill: none; stroke: #1f77b4; stroke-width: 1.5"/>
    <path d="M 292.333564 215.205845 
L 292.333564 211.754343 
" clip-path="url(#p1647324b21)" style="fill: none; stroke: #1f77b4; stroke-width: 1.5"/>
    <path d="M 295.740817 218.400051 
L 295.740817 214.564481 
" clip-path="url(#p1647324b21)" style="fill: none; stroke: #1f77b4; stroke-width: 1.5"/>
    <path d="M 299.148069 213.147746 
L 299.148069 209.924102 
" clip-path="url(#p1647324b21)" style="fill: none; stroke: #1f77b4; stroke-width: 1.5"/>
    <path d="M 302.555322 218.677236 
L 302.555322 214.806502 
" clip-path="url(#p1647324b21)" style="fill: none; stroke: #1f77b4; stroke-width: 1.5"/>
    <path d="M 305.962574 217.861293 
L 305.962574 214.093213 
" clip-path="url(#p1647324b21)" style="fill: none; stroke: #1f77b4; stroke-width: 1.5"/>
    <path d="M 309.369827 214.557482 
L 309.369827 211.179362 
" clip-path="url(#p1647324b21)" style="fill: none; stroke: #1f77b4; stroke-width: 1.5"/>
    <path d="M 312.777079 221.102703 
L 312.777079 216.911058 
" clip-path="url(#p1647324b21)" style="fill: none; stroke: #1f77b4; stroke-width: 1.5"/>
    <path d="M 316.184331 215.428198 
L 316.184331 211.951185 
" clip-path="url(#p1647324b21)" style="fill: none; stroke: #1f77b4; stroke-width: 1.5"/>
    <path d="M 319.591584 218.677097 
L 319.591584 214.80638 
" clip-path="url(#p1647324b21)" style="fill: none; stroke: #1f77b4; stroke-width: 1.5"/>
    <path d="M 322.998836 218.677306 
L 322.998836 214.806563 
" clip-path="url(#p1647324b21)" style="fill: none; stroke: #1f77b4; stroke-width: 1.5"/>
    <path d="M 326.406089 217.088388 
L 326.406089 213.415176 
" clip-path="url(#p1647324b21)" style="fill: none; stroke: #1f77b4; stroke-width: 1.5"/>
    <path d="M 329.813341 218.959228 
L 329.813341 215.052407 
" clip-path="url(#p1647324b21)" style="fill: none; stroke: #1f77b4; stroke-width: 1.5"/>
    <path d="M 333.220594 219.540641 
L 333.220594 215.558414 
" clip-path="url(#p1647324b21)" style="fill: none; stroke: #1f77b4; stroke-width: 1.5"/>
    <path d="M 336.627846 219.540715 
L 336.627846 215.558479 
" clip-path="url(#p1647324b21)" style="fill: none; stroke: #1f77b4; stroke-width: 1.5"/>
    <path d="M 340.035099 221.776293 
L 340.035099 217.49119 
" clip-path="url(#p1647324b21)" style="fill: none; stroke: #1f77b4; stroke-width: 1.5"/>
    <path d="M 343.442351 217.599021 
L 343.442351 213.863389 
" clip-path="url(#p1647324b21)" style="fill: none; stroke: #1f77b4; stroke-width: 1.5"/>
    <path d="M 346.849603 219.840159 
L 346.849603 215.818555 
" clip-path="url(#p1647324b21)" style="fill: none; stroke: #1f77b4; stroke-width: 1.5"/>
    <path d="M 350.256856 220.457885 
L 350.256856 216.353911 
" clip-path="url(#p1647324b21)" style="fill: none; stroke: #1f77b4; stroke-width: 1.5"/>
    <path d="M 353.664108 219.839857 
L 353.664108 215.818293 
" clip-path="url(#p1647324b21)" style="fill: none; stroke: #1f77b4; stroke-width: 1.5"/>
    <path d="M 357.071361 222.848708 
L 357.071361 218.410778 
" clip-path="url(#p1647324b21)" style="fill: none; stroke: #1f77b4; stroke-width: 1.5"/>
    <path d="M 360.478613 222.848893 
L 360.478613 218.410936 
" clip-path="url(#p1647324b21)" style="fill: none; stroke: #1f77b4; stroke-width: 1.5"/>
    <path d="M 363.885866 219.839932 
L 363.885866 215.818359 
" clip-path="url(#p1647324b21)" style="fill: none; stroke: #1f77b4; stroke-width: 1.5"/>
    <path d="M 367.293118 224.828181 
L 367.293118 220.094702 
" clip-path="url(#p1647324b21)" style="fill: none; stroke: #1f77b4; stroke-width: 1.5"/>
    <path d="M 370.70037 220.457806 
L 370.70037 216.353842 
" clip-path="url(#p1647324b21)" style="fill: none; stroke: #1f77b4; stroke-width: 1.5"/>
    <path d="M 374.107623 223.609566 
L 374.107623 219.060134 
" clip-path="url(#p1647324b21)" style="fill: none; stroke: #1f77b4; stroke-width: 1.5"/>
    <path d="M 377.514875 224.828181 
L 377.514875 220.094702 
" clip-path="url(#p1647324b21)" style="fill: none; stroke: #1f77b4; stroke-width: 1.5"/>
    <path d="M 380.922128 224.410294 
L 380.922128 219.740696 
" clip-path="url(#p1647324b21)" style="fill: none; stroke: #1f77b4; stroke-width: 1.5"/>
    <path d="M 384.32938 221.435205 
L 384.32938 217.197668 
" clip-path="url(#p1647324b21)" style="fill: none; stroke: #1f77b4; stroke-width: 1.5"/>
    <path d="M 387.736633 227.614428 
L 387.736633 222.433809 
" clip-path="url(#p1647324b21)" style="fill: none; stroke: #1f77b4; stroke-width: 1.5"/>
    <path d="M 391.143885 223.224357 
L 391.143885 218.731699 
" clip-path="url(#p1647324b21)" style="fill: none; stroke: #1f77b4; stroke-width: 1.5"/>
    <path d="M 394.551138 229.229786 
L 394.551138 223.772324 
" clip-path="url(#p1647324b21)" style="fill: none; stroke: #1f77b4; stroke-width: 1.5"/>
    <path d="M 397.95839 225.700468 
L 397.95839 220.831014 
" clip-path="url(#p1647324b21)" style="fill: none; stroke: #1f77b4; stroke-width: 1.5"/>
   </g>
  </g>
 </g>
 <defs>
  <clipPath id="p1647324b21">
   <rect x="45.478125" y="8.575394" width="371.049791" height="231.161744"/>
  </clipPath>
 </defs>
</svg>
