<?xml version="1.0" encoding="utf-8" standalone="no"?>
<!DOCTYPE svg PUBLIC "-//W3C//DTD SVG 1.1//EN"
  "http://www.w3.org/Graphics/SVG/1.1/DTD/svg11.dtd">
<svg xmlns:xlink="http://www.w3.org/1999/xlink" width="656.387042pt" height="440.39952pt" viewBox="0 0 656.387042 440.39952" xmlns="http://www.w3.org/2000/svg" version="1.1">
 <metadata>
  <rdf:RDF xmlns:dc="http://purl.org/dc/elements/1.1/" xmlns:cc="http://creativecommons.org/ns#" xmlns:rdf="http://www.w3.org/1999/02/22-rdf-syntax-ns#">
   <cc:Work>
    <dc:type rdf:resource="http://purl.org/dc/dcmitype/StillImage"/>
    <dc:date>2024-12-12T12:30:58.356014</dc:date>
    <dc:format>image/svg+xml</dc:format>
    <dc:creator>
     <cc:Agent>
      <dc:title>Matplotlib v3.7.3, https://matplotlib.org/</dc:title>
     </cc:Agent>
    </dc:creator>
   </cc:Work>
  </rdf:RDF>
 </metadata>
 <defs>
  <style type="text/css">*{stroke-linejoin: round; stroke-linecap: butt}</style>
 </defs>
 <g id="figure_1">
  <g id="patch_1">
   <path d="M 0 440.39952 
L 656.387042 440.39952 
L 656.387042 0 
L 0 0 
z
" style="fill: #ffffff"/>
  </g>
  <g id="axes_1">
   <g id="patch_2">
    <path d="M 40.603125 186.565145 
L 320.101989 186.565145 
L 320.101989 22.318125 
L 40.603125 22.318125 
z
" style="fill: #ffffff"/>
   </g>
   <g id="matplotlib.axis_1">
    <g id="xtick_1">
     <g id="line2d_1">
      <defs>
       <path id="mf6872e4fd1" d="M 0 0 
L 0 3.5 
" style="stroke: #000000; stroke-width: 0.8"/>
      </defs>
      <g>
       <use xlink:href="#mf6872e4fd1" x="58.172992" y="186.565145" style="stroke: #000000; stroke-width: 0.8"/>
      </g>
     </g>
     <g id="text_1">
      <!-- 36000 -->
      <g transform="translate(42.266742 201.163582) scale(0.1 -0.1)">
       <defs>
        <path id="DejaVuSans-33" d="M 2597 2516 
Q 3050 2419 3304 2112 
Q 3559 1806 3559 1356 
Q 3559 666 3084 287 
Q 2609 -91 1734 -91 
Q 1441 -91 1130 -33 
Q 819 25 488 141 
L 488 750 
Q 750 597 1062 519 
Q 1375 441 1716 441 
Q 2309 441 2620 675 
Q 2931 909 2931 1356 
Q 2931 1769 2642 2001 
Q 2353 2234 1838 2234 
L 1294 2234 
L 1294 2753 
L 1863 2753 
Q 2328 2753 2575 2939 
Q 2822 3125 2822 3475 
Q 2822 3834 2567 4026 
Q 2313 4219 1838 4219 
Q 1578 4219 1281 4162 
Q 984 4106 628 3988 
L 628 4550 
Q 988 4650 1302 4700 
Q 1616 4750 1894 4750 
Q 2613 4750 3031 4423 
Q 3450 4097 3450 3541 
Q 3450 3153 3228 2886 
Q 3006 2619 2597 2516 
z
" transform="scale(0.015625)"/>
        <path id="DejaVuSans-36" d="M 2113 2584 
Q 1688 2584 1439 2293 
Q 1191 2003 1191 1497 
Q 1191 994 1439 701 
Q 1688 409 2113 409 
Q 2538 409 2786 701 
Q 3034 994 3034 1497 
Q 3034 2003 2786 2293 
Q 2538 2584 2113 2584 
z
M 3366 4563 
L 3366 3988 
Q 3128 4100 2886 4159 
Q 2644 4219 2406 4219 
Q 1781 4219 1451 3797 
Q 1122 3375 1075 2522 
Q 1259 2794 1537 2939 
Q 1816 3084 2150 3084 
Q 2853 3084 3261 2657 
Q 3669 2231 3669 1497 
Q 3669 778 3244 343 
Q 2819 -91 2113 -91 
Q 1303 -91 875 529 
Q 447 1150 447 2328 
Q 447 3434 972 4092 
Q 1497 4750 2381 4750 
Q 2619 4750 2861 4703 
Q 3103 4656 3366 4563 
z
" transform="scale(0.015625)"/>
        <path id="DejaVuSans-30" d="M 2034 4250 
Q 1547 4250 1301 3770 
Q 1056 3291 1056 2328 
Q 1056 1369 1301 889 
Q 1547 409 2034 409 
Q 2525 409 2770 889 
Q 3016 1369 3016 2328 
Q 3016 3291 2770 3770 
Q 2525 4250 2034 4250 
z
M 2034 4750 
Q 2819 4750 3233 4129 
Q 3647 3509 3647 2328 
Q 3647 1150 3233 529 
Q 2819 -91 2034 -91 
Q 1250 -91 836 529 
Q 422 1150 422 2328 
Q 422 3509 836 4129 
Q 1250 4750 2034 4750 
z
" transform="scale(0.015625)"/>
       </defs>
       <use xlink:href="#DejaVuSans-33"/>
       <use xlink:href="#DejaVuSans-36" x="63.623047"/>
       <use xlink:href="#DejaVuSans-30" x="127.246094"/>
       <use xlink:href="#DejaVuSans-30" x="190.869141"/>
       <use xlink:href="#DejaVuSans-30" x="254.492188"/>
      </g>
     </g>
    </g>
    <g id="xtick_2">
     <g id="line2d_2">
      <g>
       <use xlink:href="#mf6872e4fd1" x="91.098048" y="186.565145" style="stroke: #000000; stroke-width: 0.8"/>
      </g>
     </g>
     <g id="text_2">
      <!-- 37000 -->
      <g transform="translate(75.191798 201.163582) scale(0.1 -0.1)">
       <defs>
        <path id="DejaVuSans-37" d="M 525 4666 
L 3525 4666 
L 3525 4397 
L 1831 0 
L 1172 0 
L 2766 4134 
L 525 4134 
L 525 4666 
z
" transform="scale(0.015625)"/>
       </defs>
       <use xlink:href="#DejaVuSans-33"/>
       <use xlink:href="#DejaVuSans-37" x="63.623047"/>
       <use xlink:href="#DejaVuSans-30" x="127.246094"/>
       <use xlink:href="#DejaVuSans-30" x="190.869141"/>
       <use xlink:href="#DejaVuSans-30" x="254.492188"/>
      </g>
     </g>
    </g>
    <g id="xtick_3">
     <g id="line2d_3">
      <g>
       <use xlink:href="#mf6872e4fd1" x="124.023105" y="186.565145" style="stroke: #000000; stroke-width: 0.8"/>
      </g>
     </g>
     <g id="text_3">
      <!-- 38000 -->
      <g transform="translate(108.116855 201.163582) scale(0.1 -0.1)">
       <defs>
        <path id="DejaVuSans-38" d="M 2034 2216 
Q 1584 2216 1326 1975 
Q 1069 1734 1069 1313 
Q 1069 891 1326 650 
Q 1584 409 2034 409 
Q 2484 409 2743 651 
Q 3003 894 3003 1313 
Q 3003 1734 2745 1975 
Q 2488 2216 2034 2216 
z
M 1403 2484 
Q 997 2584 770 2862 
Q 544 3141 544 3541 
Q 544 4100 942 4425 
Q 1341 4750 2034 4750 
Q 2731 4750 3128 4425 
Q 3525 4100 3525 3541 
Q 3525 3141 3298 2862 
Q 3072 2584 2669 2484 
Q 3125 2378 3379 2068 
Q 3634 1759 3634 1313 
Q 3634 634 3220 271 
Q 2806 -91 2034 -91 
Q 1263 -91 848 271 
Q 434 634 434 1313 
Q 434 1759 690 2068 
Q 947 2378 1403 2484 
z
M 1172 3481 
Q 1172 3119 1398 2916 
Q 1625 2713 2034 2713 
Q 2441 2713 2670 2916 
Q 2900 3119 2900 3481 
Q 2900 3844 2670 4047 
Q 2441 4250 2034 4250 
Q 1625 4250 1398 4047 
Q 1172 3844 1172 3481 
z
" transform="scale(0.015625)"/>
       </defs>
       <use xlink:href="#DejaVuSans-33"/>
       <use xlink:href="#DejaVuSans-38" x="63.623047"/>
       <use xlink:href="#DejaVuSans-30" x="127.246094"/>
       <use xlink:href="#DejaVuSans-30" x="190.869141"/>
       <use xlink:href="#DejaVuSans-30" x="254.492188"/>
      </g>
     </g>
    </g>
    <g id="xtick_4">
     <g id="line2d_4">
      <g>
       <use xlink:href="#mf6872e4fd1" x="156.948162" y="186.565145" style="stroke: #000000; stroke-width: 0.8"/>
      </g>
     </g>
     <g id="text_4">
      <!-- 39000 -->
      <g transform="translate(141.041912 201.163582) scale(0.1 -0.1)">
       <defs>
        <path id="DejaVuSans-39" d="M 703 97 
L 703 672 
Q 941 559 1184 500 
Q 1428 441 1663 441 
Q 2288 441 2617 861 
Q 2947 1281 2994 2138 
Q 2813 1869 2534 1725 
Q 2256 1581 1919 1581 
Q 1219 1581 811 2004 
Q 403 2428 403 3163 
Q 403 3881 828 4315 
Q 1253 4750 1959 4750 
Q 2769 4750 3195 4129 
Q 3622 3509 3622 2328 
Q 3622 1225 3098 567 
Q 2575 -91 1691 -91 
Q 1453 -91 1209 -44 
Q 966 3 703 97 
z
M 1959 2075 
Q 2384 2075 2632 2365 
Q 2881 2656 2881 3163 
Q 2881 3666 2632 3958 
Q 2384 4250 1959 4250 
Q 1534 4250 1286 3958 
Q 1038 3666 1038 3163 
Q 1038 2656 1286 2365 
Q 1534 2075 1959 2075 
z
" transform="scale(0.015625)"/>
       </defs>
       <use xlink:href="#DejaVuSans-33"/>
       <use xlink:href="#DejaVuSans-39" x="63.623047"/>
       <use xlink:href="#DejaVuSans-30" x="127.246094"/>
       <use xlink:href="#DejaVuSans-30" x="190.869141"/>
       <use xlink:href="#DejaVuSans-30" x="254.492188"/>
      </g>
     </g>
    </g>
    <g id="xtick_5">
     <g id="line2d_5">
      <g>
       <use xlink:href="#mf6872e4fd1" x="189.873218" y="186.565145" style="stroke: #000000; stroke-width: 0.8"/>
      </g>
     </g>
     <g id="text_5">
      <!-- 40000 -->
      <g transform="translate(173.966968 201.163582) scale(0.1 -0.1)">
       <defs>
        <path id="DejaVuSans-34" d="M 2419 4116 
L 825 1625 
L 2419 1625 
L 2419 4116 
z
M 2253 4666 
L 3047 4666 
L 3047 1625 
L 3713 1625 
L 3713 1100 
L 3047 1100 
L 3047 0 
L 2419 0 
L 2419 1100 
L 313 1100 
L 313 1709 
L 2253 4666 
z
" transform="scale(0.015625)"/>
       </defs>
       <use xlink:href="#DejaVuSans-34"/>
       <use xlink:href="#DejaVuSans-30" x="63.623047"/>
       <use xlink:href="#DejaVuSans-30" x="127.246094"/>
       <use xlink:href="#DejaVuSans-30" x="190.869141"/>
       <use xlink:href="#DejaVuSans-30" x="254.492188"/>
      </g>
     </g>
    </g>
    <g id="xtick_6">
     <g id="line2d_6">
      <g>
       <use xlink:href="#mf6872e4fd1" x="222.798275" y="186.565145" style="stroke: #000000; stroke-width: 0.8"/>
      </g>
     </g>
     <g id="text_6">
      <!-- 41000 -->
      <g transform="translate(206.892025 201.163582) scale(0.1 -0.1)">
       <defs>
        <path id="DejaVuSans-31" d="M 794 531 
L 1825 531 
L 1825 4091 
L 703 3866 
L 703 4441 
L 1819 4666 
L 2450 4666 
L 2450 531 
L 3481 531 
L 3481 0 
L 794 0 
L 794 531 
z
" transform="scale(0.015625)"/>
       </defs>
       <use xlink:href="#DejaVuSans-34"/>
       <use xlink:href="#DejaVuSans-31" x="63.623047"/>
       <use xlink:href="#DejaVuSans-30" x="127.246094"/>
       <use xlink:href="#DejaVuSans-30" x="190.869141"/>
       <use xlink:href="#DejaVuSans-30" x="254.492188"/>
      </g>
     </g>
    </g>
    <g id="xtick_7">
     <g id="line2d_7">
      <g>
       <use xlink:href="#mf6872e4fd1" x="255.723332" y="186.565145" style="stroke: #000000; stroke-width: 0.8"/>
      </g>
     </g>
     <g id="text_7">
      <!-- 42000 -->
      <g transform="translate(239.817082 201.163582) scale(0.1 -0.1)">
       <defs>
        <path id="DejaVuSans-32" d="M 1228 531 
L 3431 531 
L 3431 0 
L 469 0 
L 469 531 
Q 828 903 1448 1529 
Q 2069 2156 2228 2338 
Q 2531 2678 2651 2914 
Q 2772 3150 2772 3378 
Q 2772 3750 2511 3984 
Q 2250 4219 1831 4219 
Q 1534 4219 1204 4116 
Q 875 4013 500 3803 
L 500 4441 
Q 881 4594 1212 4672 
Q 1544 4750 1819 4750 
Q 2544 4750 2975 4387 
Q 3406 4025 3406 3419 
Q 3406 3131 3298 2873 
Q 3191 2616 2906 2266 
Q 2828 2175 2409 1742 
Q 1991 1309 1228 531 
z
" transform="scale(0.015625)"/>
       </defs>
       <use xlink:href="#DejaVuSans-34"/>
       <use xlink:href="#DejaVuSans-32" x="63.623047"/>
       <use xlink:href="#DejaVuSans-30" x="127.246094"/>
       <use xlink:href="#DejaVuSans-30" x="190.869141"/>
       <use xlink:href="#DejaVuSans-30" x="254.492188"/>
      </g>
     </g>
    </g>
    <g id="xtick_8">
     <g id="line2d_8">
      <g>
       <use xlink:href="#mf6872e4fd1" x="288.648388" y="186.565145" style="stroke: #000000; stroke-width: 0.8"/>
      </g>
     </g>
     <g id="text_8">
      <!-- 43000 -->
      <g transform="translate(272.742138 201.163582) scale(0.1 -0.1)">
       <use xlink:href="#DejaVuSans-34"/>
       <use xlink:href="#DejaVuSans-33" x="63.623047"/>
       <use xlink:href="#DejaVuSans-30" x="127.246094"/>
       <use xlink:href="#DejaVuSans-30" x="190.869141"/>
       <use xlink:href="#DejaVuSans-30" x="254.492188"/>
      </g>
     </g>
    </g>
    <g id="text_9">
     <!-- event_time_offset [µs] -->
     <g transform="translate(124.317401 214.841707) scale(0.1 -0.1)">
      <defs>
       <path id="DejaVuSans-65" d="M 3597 1894 
L 3597 1613 
L 953 1613 
Q 991 1019 1311 708 
Q 1631 397 2203 397 
Q 2534 397 2845 478 
Q 3156 559 3463 722 
L 3463 178 
Q 3153 47 2828 -22 
Q 2503 -91 2169 -91 
Q 1331 -91 842 396 
Q 353 884 353 1716 
Q 353 2575 817 3079 
Q 1281 3584 2069 3584 
Q 2775 3584 3186 3129 
Q 3597 2675 3597 1894 
z
M 3022 2063 
Q 3016 2534 2758 2815 
Q 2500 3097 2075 3097 
Q 1594 3097 1305 2825 
Q 1016 2553 972 2059 
L 3022 2063 
z
" transform="scale(0.015625)"/>
       <path id="DejaVuSans-76" d="M 191 3500 
L 800 3500 
L 1894 563 
L 2988 3500 
L 3597 3500 
L 2284 0 
L 1503 0 
L 191 3500 
z
" transform="scale(0.015625)"/>
       <path id="DejaVuSans-6e" d="M 3513 2113 
L 3513 0 
L 2938 0 
L 2938 2094 
Q 2938 2591 2744 2837 
Q 2550 3084 2163 3084 
Q 1697 3084 1428 2787 
Q 1159 2491 1159 1978 
L 1159 0 
L 581 0 
L 581 3500 
L 1159 3500 
L 1159 2956 
Q 1366 3272 1645 3428 
Q 1925 3584 2291 3584 
Q 2894 3584 3203 3211 
Q 3513 2838 3513 2113 
z
" transform="scale(0.015625)"/>
       <path id="DejaVuSans-74" d="M 1172 4494 
L 1172 3500 
L 2356 3500 
L 2356 3053 
L 1172 3053 
L 1172 1153 
Q 1172 725 1289 603 
Q 1406 481 1766 481 
L 2356 481 
L 2356 0 
L 1766 0 
Q 1100 0 847 248 
Q 594 497 594 1153 
L 594 3053 
L 172 3053 
L 172 3500 
L 594 3500 
L 594 4494 
L 1172 4494 
z
" transform="scale(0.015625)"/>
       <path id="DejaVuSans-5f" d="M 3263 -1063 
L 3263 -1509 
L -63 -1509 
L -63 -1063 
L 3263 -1063 
z
" transform="scale(0.015625)"/>
       <path id="DejaVuSans-69" d="M 603 3500 
L 1178 3500 
L 1178 0 
L 603 0 
L 603 3500 
z
M 603 4863 
L 1178 4863 
L 1178 4134 
L 603 4134 
L 603 4863 
z
" transform="scale(0.015625)"/>
       <path id="DejaVuSans-6d" d="M 3328 2828 
Q 3544 3216 3844 3400 
Q 4144 3584 4550 3584 
Q 5097 3584 5394 3201 
Q 5691 2819 5691 2113 
L 5691 0 
L 5113 0 
L 5113 2094 
Q 5113 2597 4934 2840 
Q 4756 3084 4391 3084 
Q 3944 3084 3684 2787 
Q 3425 2491 3425 1978 
L 3425 0 
L 2847 0 
L 2847 2094 
Q 2847 2600 2669 2842 
Q 2491 3084 2119 3084 
Q 1678 3084 1418 2786 
Q 1159 2488 1159 1978 
L 1159 0 
L 581 0 
L 581 3500 
L 1159 3500 
L 1159 2956 
Q 1356 3278 1631 3431 
Q 1906 3584 2284 3584 
Q 2666 3584 2933 3390 
Q 3200 3197 3328 2828 
z
" transform="scale(0.015625)"/>
       <path id="DejaVuSans-6f" d="M 1959 3097 
Q 1497 3097 1228 2736 
Q 959 2375 959 1747 
Q 959 1119 1226 758 
Q 1494 397 1959 397 
Q 2419 397 2687 759 
Q 2956 1122 2956 1747 
Q 2956 2369 2687 2733 
Q 2419 3097 1959 3097 
z
M 1959 3584 
Q 2709 3584 3137 3096 
Q 3566 2609 3566 1747 
Q 3566 888 3137 398 
Q 2709 -91 1959 -91 
Q 1206 -91 779 398 
Q 353 888 353 1747 
Q 353 2609 779 3096 
Q 1206 3584 1959 3584 
z
" transform="scale(0.015625)"/>
       <path id="DejaVuSans-66" d="M 2375 4863 
L 2375 4384 
L 1825 4384 
Q 1516 4384 1395 4259 
Q 1275 4134 1275 3809 
L 1275 3500 
L 2222 3500 
L 2222 3053 
L 1275 3053 
L 1275 0 
L 697 0 
L 697 3053 
L 147 3053 
L 147 3500 
L 697 3500 
L 697 3744 
Q 697 4328 969 4595 
Q 1241 4863 1831 4863 
L 2375 4863 
z
" transform="scale(0.015625)"/>
       <path id="DejaVuSans-73" d="M 2834 3397 
L 2834 2853 
Q 2591 2978 2328 3040 
Q 2066 3103 1784 3103 
Q 1356 3103 1142 2972 
Q 928 2841 928 2578 
Q 928 2378 1081 2264 
Q 1234 2150 1697 2047 
L 1894 2003 
Q 2506 1872 2764 1633 
Q 3022 1394 3022 966 
Q 3022 478 2636 193 
Q 2250 -91 1575 -91 
Q 1294 -91 989 -36 
Q 684 19 347 128 
L 347 722 
Q 666 556 975 473 
Q 1284 391 1588 391 
Q 1994 391 2212 530 
Q 2431 669 2431 922 
Q 2431 1156 2273 1281 
Q 2116 1406 1581 1522 
L 1381 1569 
Q 847 1681 609 1914 
Q 372 2147 372 2553 
Q 372 3047 722 3315 
Q 1072 3584 1716 3584 
Q 2034 3584 2315 3537 
Q 2597 3491 2834 3397 
z
" transform="scale(0.015625)"/>
       <path id="DejaVuSans-20" transform="scale(0.015625)"/>
       <path id="DejaVuSans-5b" d="M 550 4863 
L 1875 4863 
L 1875 4416 
L 1125 4416 
L 1125 -397 
L 1875 -397 
L 1875 -844 
L 550 -844 
L 550 4863 
z
" transform="scale(0.015625)"/>
       <path id="DejaVuSans-b5" d="M 544 -1331 
L 544 3500 
L 1119 3500 
L 1119 1325 
Q 1119 872 1334 640 
Q 1550 409 1972 409 
Q 2434 409 2667 671 
Q 2900 934 2900 1459 
L 2900 3500 
L 3475 3500 
L 3475 806 
Q 3475 619 3529 530 
Q 3584 441 3700 441 
Q 3728 441 3778 458 
Q 3828 475 3916 513 
L 3916 50 
Q 3788 -22 3673 -56 
Q 3559 -91 3450 -91 
Q 3234 -91 3106 31 
Q 2978 153 2931 403 
Q 2775 156 2548 32 
Q 2322 -91 2016 -91 
Q 1697 -91 1473 31 
Q 1250 153 1119 397 
L 1119 -1331 
L 544 -1331 
z
" transform="scale(0.015625)"/>
       <path id="DejaVuSans-5d" d="M 1947 4863 
L 1947 -844 
L 622 -844 
L 622 -397 
L 1369 -397 
L 1369 4416 
L 622 4416 
L 622 4863 
L 1947 4863 
z
" transform="scale(0.015625)"/>
      </defs>
      <use xlink:href="#DejaVuSans-65"/>
      <use xlink:href="#DejaVuSans-76" x="61.523438"/>
      <use xlink:href="#DejaVuSans-65" x="120.703125"/>
      <use xlink:href="#DejaVuSans-6e" x="182.226562"/>
      <use xlink:href="#DejaVuSans-74" x="245.605469"/>
      <use xlink:href="#DejaVuSans-5f" x="284.814453"/>
      <use xlink:href="#DejaVuSans-74" x="334.814453"/>
      <use xlink:href="#DejaVuSans-69" x="374.023438"/>
      <use xlink:href="#DejaVuSans-6d" x="401.806641"/>
      <use xlink:href="#DejaVuSans-65" x="499.21875"/>
      <use xlink:href="#DejaVuSans-5f" x="560.742188"/>
      <use xlink:href="#DejaVuSans-6f" x="610.742188"/>
      <use xlink:href="#DejaVuSans-66" x="671.923828"/>
      <use xlink:href="#DejaVuSans-66" x="707.128906"/>
      <use xlink:href="#DejaVuSans-73" x="742.333984"/>
      <use xlink:href="#DejaVuSans-65" x="794.433594"/>
      <use xlink:href="#DejaVuSans-74" x="855.957031"/>
      <use xlink:href="#DejaVuSans-20" x="895.166016"/>
      <use xlink:href="#DejaVuSans-5b" x="926.953125"/>
      <use xlink:href="#DejaVuSans-b5" x="965.966797"/>
      <use xlink:href="#DejaVuSans-73" x="1029.589844"/>
      <use xlink:href="#DejaVuSans-5d" x="1081.689453"/>
     </g>
    </g>
   </g>
   <g id="matplotlib.axis_2">
    <g id="ytick_1">
     <g id="line2d_9">
      <defs>
       <path id="m7f176de826" d="M 0 0 
L -3.5 0 
" style="stroke: #000000; stroke-width: 0.8"/>
      </defs>
      <g>
       <use xlink:href="#m7f176de826" x="40.603125" y="179.099371" style="stroke: #000000; stroke-width: 0.8"/>
      </g>
     </g>
     <g id="text_10">
      <!-- 0 -->
      <g transform="translate(27.240625 182.89859) scale(0.1 -0.1)">
       <use xlink:href="#DejaVuSans-30"/>
      </g>
     </g>
    </g>
    <g id="ytick_2">
     <g id="line2d_10">
      <g>
       <use xlink:href="#m7f176de826" x="40.603125" y="153.355324" style="stroke: #000000; stroke-width: 0.8"/>
      </g>
     </g>
     <g id="text_11">
      <!-- 10 -->
      <g transform="translate(20.878125 157.154543) scale(0.1 -0.1)">
       <use xlink:href="#DejaVuSans-31"/>
       <use xlink:href="#DejaVuSans-30" x="63.623047"/>
      </g>
     </g>
    </g>
    <g id="ytick_3">
     <g id="line2d_11">
      <g>
       <use xlink:href="#m7f176de826" x="40.603125" y="127.611277" style="stroke: #000000; stroke-width: 0.8"/>
      </g>
     </g>
     <g id="text_12">
      <!-- 20 -->
      <g transform="translate(20.878125 131.410496) scale(0.1 -0.1)">
       <use xlink:href="#DejaVuSans-32"/>
       <use xlink:href="#DejaVuSans-30" x="63.623047"/>
      </g>
     </g>
    </g>
    <g id="ytick_4">
     <g id="line2d_12">
      <g>
       <use xlink:href="#m7f176de826" x="40.603125" y="101.86723" style="stroke: #000000; stroke-width: 0.8"/>
      </g>
     </g>
     <g id="text_13">
      <!-- 30 -->
      <g transform="translate(20.878125 105.666449) scale(0.1 -0.1)">
       <use xlink:href="#DejaVuSans-33"/>
       <use xlink:href="#DejaVuSans-30" x="63.623047"/>
      </g>
     </g>
    </g>
    <g id="ytick_5">
     <g id="line2d_13">
      <g>
       <use xlink:href="#m7f176de826" x="40.603125" y="76.123183" style="stroke: #000000; stroke-width: 0.8"/>
      </g>
     </g>
     <g id="text_14">
      <!-- 40 -->
      <g transform="translate(20.878125 79.922402) scale(0.1 -0.1)">
       <use xlink:href="#DejaVuSans-34"/>
       <use xlink:href="#DejaVuSans-30" x="63.623047"/>
      </g>
     </g>
    </g>
    <g id="ytick_6">
     <g id="line2d_14">
      <g>
       <use xlink:href="#m7f176de826" x="40.603125" y="50.379136" style="stroke: #000000; stroke-width: 0.8"/>
      </g>
     </g>
     <g id="text_15">
      <!-- 50 -->
      <g transform="translate(20.878125 54.178355) scale(0.1 -0.1)">
       <defs>
        <path id="DejaVuSans-35" d="M 691 4666 
L 3169 4666 
L 3169 4134 
L 1269 4134 
L 1269 2991 
Q 1406 3038 1543 3061 
Q 1681 3084 1819 3084 
Q 2600 3084 3056 2656 
Q 3513 2228 3513 1497 
Q 3513 744 3044 326 
Q 2575 -91 1722 -91 
Q 1428 -91 1123 -41 
Q 819 9 494 109 
L 494 744 
Q 775 591 1075 516 
Q 1375 441 1709 441 
Q 2250 441 2565 725 
Q 2881 1009 2881 1497 
Q 2881 1984 2565 2268 
Q 2250 2553 1709 2553 
Q 1456 2553 1204 2497 
Q 953 2441 691 2322 
L 691 4666 
z
" transform="scale(0.015625)"/>
       </defs>
       <use xlink:href="#DejaVuSans-35"/>
       <use xlink:href="#DejaVuSans-30" x="63.623047"/>
      </g>
     </g>
    </g>
    <g id="ytick_7">
     <g id="line2d_15">
      <g>
       <use xlink:href="#m7f176de826" x="40.603125" y="24.635089" style="stroke: #000000; stroke-width: 0.8"/>
      </g>
     </g>
     <g id="text_16">
      <!-- 60 -->
      <g transform="translate(20.878125 28.434308) scale(0.1 -0.1)">
       <use xlink:href="#DejaVuSans-36"/>
       <use xlink:href="#DejaVuSans-30" x="63.623047"/>
      </g>
     </g>
    </g>
    <g id="text_17">
     <!-- [counts] -->
     <g transform="translate(14.798438 125.054135) rotate(-90) scale(0.1 -0.1)">
      <defs>
       <path id="DejaVuSans-63" d="M 3122 3366 
L 3122 2828 
Q 2878 2963 2633 3030 
Q 2388 3097 2138 3097 
Q 1578 3097 1268 2742 
Q 959 2388 959 1747 
Q 959 1106 1268 751 
Q 1578 397 2138 397 
Q 2388 397 2633 464 
Q 2878 531 3122 666 
L 3122 134 
Q 2881 22 2623 -34 
Q 2366 -91 2075 -91 
Q 1284 -91 818 406 
Q 353 903 353 1747 
Q 353 2603 823 3093 
Q 1294 3584 2113 3584 
Q 2378 3584 2631 3529 
Q 2884 3475 3122 3366 
z
" transform="scale(0.015625)"/>
       <path id="DejaVuSans-75" d="M 544 1381 
L 544 3500 
L 1119 3500 
L 1119 1403 
Q 1119 906 1312 657 
Q 1506 409 1894 409 
Q 2359 409 2629 706 
Q 2900 1003 2900 1516 
L 2900 3500 
L 3475 3500 
L 3475 0 
L 2900 0 
L 2900 538 
Q 2691 219 2414 64 
Q 2138 -91 1772 -91 
Q 1169 -91 856 284 
Q 544 659 544 1381 
z
M 1991 3584 
L 1991 3584 
z
" transform="scale(0.015625)"/>
      </defs>
      <use xlink:href="#DejaVuSans-5b"/>
      <use xlink:href="#DejaVuSans-63" x="39.013672"/>
      <use xlink:href="#DejaVuSans-6f" x="93.994141"/>
      <use xlink:href="#DejaVuSans-75" x="155.175781"/>
      <use xlink:href="#DejaVuSans-6e" x="218.554688"/>
      <use xlink:href="#DejaVuSans-74" x="281.933594"/>
      <use xlink:href="#DejaVuSans-73" x="321.142578"/>
      <use xlink:href="#DejaVuSans-5d" x="373.242188"/>
     </g>
    </g>
   </g>
   <g id="line2d_16">
    <path d="M 53.307619 186.565145 
L 53.307619 22.318125 
" clip-path="url(#p54952db7d1)" style="fill: none; stroke-dasharray: 7.4,3.2; stroke-dashoffset: 0; stroke: #ff00ff; stroke-width: 2"/>
   </g>
   <g id="patch_3">
    <path d="M 40.603125 186.565145 
L 40.603125 22.318125 
" style="fill: none; stroke: #000000; stroke-width: 0.8; stroke-linejoin: miter; stroke-linecap: square"/>
   </g>
   <g id="patch_4">
    <path d="M 320.101989 186.565145 
L 320.101989 22.318125 
" style="fill: none; stroke: #000000; stroke-width: 0.8; stroke-linejoin: miter; stroke-linecap: square"/>
   </g>
   <g id="patch_5">
    <path d="M 40.603125 186.565145 
L 320.101989 186.565145 
" style="fill: none; stroke: #000000; stroke-width: 0.8; stroke-linejoin: miter; stroke-linecap: square"/>
   </g>
   <g id="patch_6">
    <path d="M 40.603125 22.318125 
L 320.101989 22.318125 
" style="fill: none; stroke: #000000; stroke-width: 0.8; stroke-linejoin: miter; stroke-linecap: square"/>
   </g>
   <g id="text_18">
    <!-- pivot time -->
    <g style="fill: #ff00ff" transform="translate(60.906056 129.690965) rotate(-90) scale(0.1 -0.1)">
     <defs>
      <path id="DejaVuSans-70" d="M 1159 525 
L 1159 -1331 
L 581 -1331 
L 581 3500 
L 1159 3500 
L 1159 2969 
Q 1341 3281 1617 3432 
Q 1894 3584 2278 3584 
Q 2916 3584 3314 3078 
Q 3713 2572 3713 1747 
Q 3713 922 3314 415 
Q 2916 -91 2278 -91 
Q 1894 -91 1617 61 
Q 1341 213 1159 525 
z
M 3116 1747 
Q 3116 2381 2855 2742 
Q 2594 3103 2138 3103 
Q 1681 3103 1420 2742 
Q 1159 2381 1159 1747 
Q 1159 1113 1420 752 
Q 1681 391 2138 391 
Q 2594 391 2855 752 
Q 3116 1113 3116 1747 
z
" transform="scale(0.015625)"/>
     </defs>
     <use xlink:href="#DejaVuSans-70"/>
     <use xlink:href="#DejaVuSans-69" x="63.476562"/>
     <use xlink:href="#DejaVuSans-76" x="91.259766"/>
     <use xlink:href="#DejaVuSans-6f" x="150.439453"/>
     <use xlink:href="#DejaVuSans-74" x="211.621094"/>
     <use xlink:href="#DejaVuSans-20" x="250.830078"/>
     <use xlink:href="#DejaVuSans-74" x="282.617188"/>
     <use xlink:href="#DejaVuSans-69" x="321.826172"/>
     <use xlink:href="#DejaVuSans-6d" x="349.609375"/>
     <use xlink:href="#DejaVuSans-65" x="447.021484"/>
    </g>
   </g>
   <g id="text_19">
    <!-- beam=20.0 m -->
    <g transform="translate(137.191932 16.318125) scale(0.12 -0.12)">
     <defs>
      <path id="DejaVuSans-62" d="M 3116 1747 
Q 3116 2381 2855 2742 
Q 2594 3103 2138 3103 
Q 1681 3103 1420 2742 
Q 1159 2381 1159 1747 
Q 1159 1113 1420 752 
Q 1681 391 2138 391 
Q 2594 391 2855 752 
Q 3116 1113 3116 1747 
z
M 1159 2969 
Q 1341 3281 1617 3432 
Q 1894 3584 2278 3584 
Q 2916 3584 3314 3078 
Q 3713 2572 3713 1747 
Q 3713 922 3314 415 
Q 2916 -91 2278 -91 
Q 1894 -91 1617 61 
Q 1341 213 1159 525 
L 1159 0 
L 581 0 
L 581 4863 
L 1159 4863 
L 1159 2969 
z
" transform="scale(0.015625)"/>
      <path id="DejaVuSans-61" d="M 2194 1759 
Q 1497 1759 1228 1600 
Q 959 1441 959 1056 
Q 959 750 1161 570 
Q 1363 391 1709 391 
Q 2188 391 2477 730 
Q 2766 1069 2766 1631 
L 2766 1759 
L 2194 1759 
z
M 3341 1997 
L 3341 0 
L 2766 0 
L 2766 531 
Q 2569 213 2275 61 
Q 1981 -91 1556 -91 
Q 1019 -91 701 211 
Q 384 513 384 1019 
Q 384 1609 779 1909 
Q 1175 2209 1959 2209 
L 2766 2209 
L 2766 2266 
Q 2766 2663 2505 2880 
Q 2244 3097 1772 3097 
Q 1472 3097 1187 3025 
Q 903 2953 641 2809 
L 641 3341 
Q 956 3463 1253 3523 
Q 1550 3584 1831 3584 
Q 2591 3584 2966 3190 
Q 3341 2797 3341 1997 
z
" transform="scale(0.015625)"/>
      <path id="DejaVuSans-3d" d="M 678 2906 
L 4684 2906 
L 4684 2381 
L 678 2381 
L 678 2906 
z
M 678 1631 
L 4684 1631 
L 4684 1100 
L 678 1100 
L 678 1631 
z
" transform="scale(0.015625)"/>
      <path id="DejaVuSans-2e" d="M 684 794 
L 1344 794 
L 1344 0 
L 684 0 
L 684 794 
z
" transform="scale(0.015625)"/>
     </defs>
     <use xlink:href="#DejaVuSans-62"/>
     <use xlink:href="#DejaVuSans-65" x="63.476562"/>
     <use xlink:href="#DejaVuSans-61" x="125"/>
     <use xlink:href="#DejaVuSans-6d" x="186.279297"/>
     <use xlink:href="#DejaVuSans-3d" x="283.691406"/>
     <use xlink:href="#DejaVuSans-32" x="367.480469"/>
     <use xlink:href="#DejaVuSans-30" x="431.103516"/>
     <use xlink:href="#DejaVuSans-2e" x="494.726562"/>
     <use xlink:href="#DejaVuSans-30" x="526.513672"/>
     <use xlink:href="#DejaVuSans-20" x="590.136719"/>
     <use xlink:href="#DejaVuSans-6d" x="621.923828"/>
    </g>
   </g>
   <g id="line2d_17">
    <path d="M 53.307619 176.524967 
L 57.118967 176.524967 
L 57.118967 179.099371 
L 58.389416 179.099371 
L 58.389416 176.524967 
L 59.659866 176.524967 
L 59.659866 179.099371 
L 63.471214 179.099371 
L 63.471214 173.950562 
L 64.741663 173.950562 
L 64.741663 176.524967 
L 68.553011 176.524967 
L 68.553011 179.099371 
L 71.09391 179.099371 
L 71.09391 171.376157 
L 72.36436 171.376157 
L 72.36436 176.524967 
L 76.175708 176.524967 
L 76.175708 173.950562 
L 77.446157 173.950562 
L 77.446157 168.801753 
L 78.716606 168.801753 
L 78.716606 176.524967 
L 79.987056 176.524967 
L 79.987056 168.801753 
L 81.257505 168.801753 
L 81.257505 173.950562 
L 82.527955 173.950562 
L 82.527955 176.524967 
L 85.068853 176.524967 
L 85.068853 173.950562 
L 86.339303 173.950562 
L 86.339303 171.376157 
L 88.880202 171.376157 
L 88.880202 173.950562 
L 90.150651 173.950562 
L 90.150651 176.524967 
L 91.4211 176.524967 
L 91.4211 161.078538 
L 92.69155 161.078538 
L 92.69155 179.099371 
L 93.961999 179.099371 
L 93.961999 166.227348 
L 95.232448 166.227348 
L 95.232448 163.652943 
L 96.502898 163.652943 
L 96.502898 176.524967 
L 97.773347 176.524967 
L 97.773347 163.652943 
L 99.043797 163.652943 
L 99.043797 166.227348 
L 100.314246 166.227348 
L 100.314246 168.801753 
L 101.584695 168.801753 
L 101.584695 166.227348 
L 102.855145 166.227348 
L 102.855145 150.78092 
L 104.125594 150.78092 
L 104.125594 158.504134 
L 105.396043 158.504134 
L 105.396043 163.652943 
L 107.936942 163.652943 
L 107.936942 155.929729 
L 109.207392 155.929729 
L 109.207392 168.801753 
L 110.477841 168.801753 
L 110.477841 145.63211 
L 111.74829 145.63211 
L 111.74829 158.504134 
L 113.01874 158.504134 
L 113.01874 130.185682 
L 114.289189 130.185682 
L 114.289189 148.206515 
L 115.559639 148.206515 
L 115.559639 132.760087 
L 118.100537 132.760087 
L 118.100537 145.63211 
L 119.370987 145.63211 
L 119.370987 135.334491 
L 120.641436 135.334491 
L 120.641436 117.313659 
L 121.911885 117.313659 
L 121.911885 107.01604 
L 123.182335 107.01604 
L 123.182335 112.164849 
L 124.452784 112.164849 
L 124.452784 122.462468 
L 125.723234 122.462468 
L 125.723234 109.590444 
L 126.993683 109.590444 
L 126.993683 119.888063 
L 128.264132 119.888063 
L 128.264132 104.441635 
L 129.534582 104.441635 
L 129.534582 99.292826 
L 130.805031 99.292826 
L 130.805031 101.86723 
L 132.075481 101.86723 
L 132.075481 94.144016 
L 133.34593 94.144016 
L 133.34593 91.569611 
L 134.616379 91.569611 
L 134.616379 73.548779 
L 135.886829 73.548779 
L 135.886829 81.271993 
L 137.157278 81.271993 
L 137.157278 96.718421 
L 138.427727 96.718421 
L 138.427727 88.995207 
L 139.698177 88.995207 
L 139.698177 60.676755 
L 140.968626 60.676755 
L 140.968626 70.974374 
L 142.239076 70.974374 
L 142.239076 83.846397 
L 143.509525 83.846397 
L 143.509525 70.974374 
L 144.779974 70.974374 
L 144.779974 52.953541 
L 146.050424 52.953541 
L 146.050424 47.804732 
L 147.320873 47.804732 
L 147.320873 58.10235 
L 148.591322 58.10235 
L 148.591322 29.783899 
L 149.861772 29.783899 
L 149.861772 47.804732 
L 152.402671 47.804732 
L 152.402671 40.081517 
L 153.67312 40.081517 
L 153.67312 50.379136 
L 154.943569 50.379136 
L 154.943569 34.932708 
L 156.214019 34.932708 
L 156.214019 32.358303 
L 157.484468 32.358303 
L 157.484468 34.932708 
L 158.754918 34.932708 
L 158.754918 65.825564 
L 160.025367 65.825564 
L 160.025367 73.548779 
L 161.295816 73.548779 
L 161.295816 42.655922 
L 163.836715 42.655922 
L 163.836715 55.527946 
L 165.107164 55.527946 
L 165.107164 47.804732 
L 166.377614 47.804732 
L 166.377614 32.358303 
L 167.648063 32.358303 
L 167.648063 76.123183 
L 168.918513 76.123183 
L 168.918513 45.230327 
L 170.188962 45.230327 
L 170.188962 55.527946 
L 171.459411 55.527946 
L 171.459411 45.230327 
L 172.729861 45.230327 
L 172.729861 81.271993 
L 174.00031 81.271993 
L 174.00031 73.548779 
L 175.27076 73.548779 
L 175.27076 55.527946 
L 176.541209 55.527946 
L 176.541209 68.399969 
L 177.811658 68.399969 
L 177.811658 60.676755 
L 179.082108 60.676755 
L 179.082108 32.358303 
L 180.352557 32.358303 
L 180.352557 63.25116 
L 181.623006 63.25116 
L 181.623006 58.10235 
L 182.893456 58.10235 
L 182.893456 91.569611 
L 184.163905 91.569611 
L 184.163905 52.953541 
L 185.434355 52.953541 
L 185.434355 68.399969 
L 186.704804 68.399969 
L 186.704804 47.804732 
L 187.975253 47.804732 
L 187.975253 73.548779 
L 189.245703 73.548779 
L 189.245703 65.825564 
L 191.786601 65.825564 
L 191.786601 96.718421 
L 193.057051 96.718421 
L 193.057051 88.995207 
L 194.3275 88.995207 
L 194.3275 73.548779 
L 195.59795 73.548779 
L 195.59795 37.507113 
L 196.868399 37.507113 
L 196.868399 91.569611 
L 198.138848 91.569611 
L 198.138848 68.399969 
L 199.409298 68.399969 
L 199.409298 58.10235 
L 200.679747 58.10235 
L 200.679747 88.995207 
L 201.950197 88.995207 
L 201.950197 83.846397 
L 203.220646 83.846397 
L 203.220646 47.804732 
L 204.491095 47.804732 
L 204.491095 76.123183 
L 205.761545 76.123183 
L 205.761545 63.25116 
L 207.031994 63.25116 
L 207.031994 81.271993 
L 208.302443 81.271993 
L 208.302443 42.655922 
L 209.572893 42.655922 
L 209.572893 60.676755 
L 210.843342 60.676755 
L 210.843342 45.230327 
L 212.113792 45.230327 
L 212.113792 94.144016 
L 213.384241 94.144016 
L 213.384241 83.846397 
L 214.65469 83.846397 
L 214.65469 81.271993 
L 215.92514 81.271993 
L 215.92514 112.164849 
L 217.195589 112.164849 
L 217.195589 76.123183 
L 218.466039 76.123183 
L 218.466039 104.441635 
L 219.736488 104.441635 
L 219.736488 73.548779 
L 221.006937 73.548779 
L 221.006937 88.995207 
L 223.547836 88.995207 
L 223.547836 73.548779 
L 224.818285 73.548779 
L 224.818285 91.569611 
L 226.088735 91.569611 
L 226.088735 83.846397 
L 227.359184 83.846397 
L 227.359184 81.271993 
L 228.629634 81.271993 
L 228.629634 112.164849 
L 229.900083 112.164849 
L 229.900083 68.399969 
L 231.170532 68.399969 
L 231.170532 91.569611 
L 233.711431 91.569611 
L 233.711431 99.292826 
L 234.98188 99.292826 
L 234.98188 73.548779 
L 236.25233 73.548779 
L 236.25233 96.718421 
L 237.522779 96.718421 
L 237.522779 109.590444 
L 238.793229 109.590444 
L 238.793229 70.974374 
L 240.063678 70.974374 
L 240.063678 83.846397 
L 241.334127 83.846397 
L 241.334127 114.739254 
L 242.604577 114.739254 
L 242.604577 119.888063 
L 243.875026 119.888063 
L 243.875026 127.611277 
L 245.145476 127.611277 
L 245.145476 94.144016 
L 246.415925 94.144016 
L 246.415925 96.718421 
L 247.686374 96.718421 
L 247.686374 91.569611 
L 248.956824 91.569611 
L 248.956824 78.697588 
L 250.227273 78.697588 
L 250.227273 104.441635 
L 251.497722 104.441635 
L 251.497722 122.462468 
L 252.768172 122.462468 
L 252.768172 96.718421 
L 254.038621 96.718421 
L 254.038621 117.313659 
L 255.309071 117.313659 
L 255.309071 112.164849 
L 256.57952 112.164849 
L 256.57952 86.420802 
L 257.849969 86.420802 
L 257.849969 107.01604 
L 259.120419 107.01604 
L 259.120419 137.908896 
L 260.390868 137.908896 
L 260.390868 132.760087 
L 261.661317 132.760087 
L 261.661317 130.185682 
L 262.931767 130.185682 
L 262.931767 114.739254 
L 264.202216 114.739254 
L 264.202216 158.504134 
L 265.472666 158.504134 
L 265.472666 122.462468 
L 266.743115 122.462468 
L 266.743115 127.611277 
L 268.013564 127.611277 
L 268.013564 143.057706 
L 269.284014 143.057706 
L 269.284014 140.483301 
L 270.554463 140.483301 
L 270.554463 137.908896 
L 271.824913 137.908896 
L 271.824913 127.611277 
L 273.095362 127.611277 
L 273.095362 145.63211 
L 274.365811 145.63211 
L 274.365811 166.227348 
L 275.636261 166.227348 
L 275.636261 140.483301 
L 276.90671 140.483301 
L 276.90671 153.355324 
L 278.177159 153.355324 
L 278.177159 143.057706 
L 279.447609 143.057706 
L 279.447609 158.504134 
L 280.718058 158.504134 
L 280.718058 166.227348 
L 281.988508 166.227348 
L 281.988508 163.652943 
L 283.258957 163.652943 
L 283.258957 171.376157 
L 284.529406 171.376157 
L 284.529406 173.950562 
L 285.799856 173.950562 
L 285.799856 163.652943 
L 287.070305 163.652943 
L 287.070305 166.227348 
L 288.340755 166.227348 
L 288.340755 155.929729 
L 289.611204 155.929729 
L 289.611204 163.652943 
L 290.881653 163.652943 
L 290.881653 166.227348 
L 292.152103 166.227348 
L 292.152103 171.376157 
L 293.422552 171.376157 
L 293.422552 176.524967 
L 294.693001 176.524967 
L 294.693001 166.227348 
L 295.963451 166.227348 
L 295.963451 171.376157 
L 298.50435 171.376157 
L 298.50435 176.524967 
L 299.774799 176.524967 
L 299.774799 179.099371 
L 302.315698 179.099371 
L 302.315698 176.524967 
L 304.856596 176.524967 
L 304.856596 179.099371 
L 306.127046 179.099371 
L 306.127046 176.524967 
L 307.397495 176.524967 
L 307.397495 176.524967 
" clip-path="url(#p54952db7d1)" style="fill: none; stroke: #1f77b4; stroke-width: 1.5; stroke-linecap: square"/>
   </g>
  </g>
  <g id="axes_2">
   <g id="patch_7">
    <path d="M 359.985114 186.565145 
L 639.483978 186.565145 
L 639.483978 22.318125 
L 359.985114 22.318125 
z
" style="fill: #ffffff"/>
   </g>
   <g id="matplotlib.axis_3">
    <g id="xtick_9">
     <g id="line2d_18">
      <g>
       <use xlink:href="#mf6872e4fd1" x="393.053669" y="186.565145" style="stroke: #000000; stroke-width: 0.8"/>
      </g>
     </g>
     <g id="text_20">
      <!-- 30000 -->
      <g transform="translate(377.147419 201.163582) scale(0.1 -0.1)">
       <use xlink:href="#DejaVuSans-33"/>
       <use xlink:href="#DejaVuSans-30" x="63.623047"/>
       <use xlink:href="#DejaVuSans-30" x="127.246094"/>
       <use xlink:href="#DejaVuSans-30" x="190.869141"/>
       <use xlink:href="#DejaVuSans-30" x="254.492188"/>
      </g>
     </g>
    </g>
    <g id="xtick_10">
     <g id="line2d_19">
      <g>
       <use xlink:href="#mf6872e4fd1" x="433.091523" y="186.565145" style="stroke: #000000; stroke-width: 0.8"/>
      </g>
     </g>
     <g id="text_21">
      <!-- 35000 -->
      <g transform="translate(417.185273 201.163582) scale(0.1 -0.1)">
       <use xlink:href="#DejaVuSans-33"/>
       <use xlink:href="#DejaVuSans-35" x="63.623047"/>
       <use xlink:href="#DejaVuSans-30" x="127.246094"/>
       <use xlink:href="#DejaVuSans-30" x="190.869141"/>
       <use xlink:href="#DejaVuSans-30" x="254.492188"/>
      </g>
     </g>
    </g>
    <g id="xtick_11">
     <g id="line2d_20">
      <g>
       <use xlink:href="#mf6872e4fd1" x="473.129377" y="186.565145" style="stroke: #000000; stroke-width: 0.8"/>
      </g>
     </g>
     <g id="text_22">
      <!-- 40000 -->
      <g transform="translate(457.223127 201.163582) scale(0.1 -0.1)">
       <use xlink:href="#DejaVuSans-34"/>
       <use xlink:href="#DejaVuSans-30" x="63.623047"/>
       <use xlink:href="#DejaVuSans-30" x="127.246094"/>
       <use xlink:href="#DejaVuSans-30" x="190.869141"/>
       <use xlink:href="#DejaVuSans-30" x="254.492188"/>
      </g>
     </g>
    </g>
    <g id="xtick_12">
     <g id="line2d_21">
      <g>
       <use xlink:href="#mf6872e4fd1" x="513.167231" y="186.565145" style="stroke: #000000; stroke-width: 0.8"/>
      </g>
     </g>
     <g id="text_23">
      <!-- 45000 -->
      <g transform="translate(497.260981 201.163582) scale(0.1 -0.1)">
       <use xlink:href="#DejaVuSans-34"/>
       <use xlink:href="#DejaVuSans-35" x="63.623047"/>
       <use xlink:href="#DejaVuSans-30" x="127.246094"/>
       <use xlink:href="#DejaVuSans-30" x="190.869141"/>
       <use xlink:href="#DejaVuSans-30" x="254.492188"/>
      </g>
     </g>
    </g>
    <g id="xtick_13">
     <g id="line2d_22">
      <g>
       <use xlink:href="#mf6872e4fd1" x="553.205085" y="186.565145" style="stroke: #000000; stroke-width: 0.8"/>
      </g>
     </g>
     <g id="text_24">
      <!-- 50000 -->
      <g transform="translate(537.298835 201.163582) scale(0.1 -0.1)">
       <use xlink:href="#DejaVuSans-35"/>
       <use xlink:href="#DejaVuSans-30" x="63.623047"/>
       <use xlink:href="#DejaVuSans-30" x="127.246094"/>
       <use xlink:href="#DejaVuSans-30" x="190.869141"/>
       <use xlink:href="#DejaVuSans-30" x="254.492188"/>
      </g>
     </g>
    </g>
    <g id="xtick_14">
     <g id="line2d_23">
      <g>
       <use xlink:href="#mf6872e4fd1" x="593.242938" y="186.565145" style="stroke: #000000; stroke-width: 0.8"/>
      </g>
     </g>
     <g id="text_25">
      <!-- 55000 -->
      <g transform="translate(577.336688 201.163582) scale(0.1 -0.1)">
       <use xlink:href="#DejaVuSans-35"/>
       <use xlink:href="#DejaVuSans-35" x="63.623047"/>
       <use xlink:href="#DejaVuSans-30" x="127.246094"/>
       <use xlink:href="#DejaVuSans-30" x="190.869141"/>
       <use xlink:href="#DejaVuSans-30" x="254.492188"/>
      </g>
     </g>
    </g>
    <g id="xtick_15">
     <g id="line2d_24">
      <g>
       <use xlink:href="#mf6872e4fd1" x="633.280792" y="186.565145" style="stroke: #000000; stroke-width: 0.8"/>
      </g>
     </g>
     <g id="text_26">
      <!-- 60000 -->
      <g transform="translate(617.374542 201.163582) scale(0.1 -0.1)">
       <use xlink:href="#DejaVuSans-36"/>
       <use xlink:href="#DejaVuSans-30" x="63.623047"/>
       <use xlink:href="#DejaVuSans-30" x="127.246094"/>
       <use xlink:href="#DejaVuSans-30" x="190.869141"/>
       <use xlink:href="#DejaVuSans-30" x="254.492188"/>
      </g>
     </g>
    </g>
    <g id="text_27">
     <!-- event_time_offset [µs] -->
     <g transform="translate(443.69939 214.841707) scale(0.1 -0.1)">
      <use xlink:href="#DejaVuSans-65"/>
      <use xlink:href="#DejaVuSans-76" x="61.523438"/>
      <use xlink:href="#DejaVuSans-65" x="120.703125"/>
      <use xlink:href="#DejaVuSans-6e" x="182.226562"/>
      <use xlink:href="#DejaVuSans-74" x="245.605469"/>
      <use xlink:href="#DejaVuSans-5f" x="284.814453"/>
      <use xlink:href="#DejaVuSans-74" x="334.814453"/>
      <use xlink:href="#DejaVuSans-69" x="374.023438"/>
      <use xlink:href="#DejaVuSans-6d" x="401.806641"/>
      <use xlink:href="#DejaVuSans-65" x="499.21875"/>
      <use xlink:href="#DejaVuSans-5f" x="560.742188"/>
      <use xlink:href="#DejaVuSans-6f" x="610.742188"/>
      <use xlink:href="#DejaVuSans-66" x="671.923828"/>
      <use xlink:href="#DejaVuSans-66" x="707.128906"/>
      <use xlink:href="#DejaVuSans-73" x="742.333984"/>
      <use xlink:href="#DejaVuSans-65" x="794.433594"/>
      <use xlink:href="#DejaVuSans-74" x="855.957031"/>
      <use xlink:href="#DejaVuSans-20" x="895.166016"/>
      <use xlink:href="#DejaVuSans-5b" x="926.953125"/>
      <use xlink:href="#DejaVuSans-b5" x="965.966797"/>
      <use xlink:href="#DejaVuSans-73" x="1029.589844"/>
      <use xlink:href="#DejaVuSans-5d" x="1081.689453"/>
     </g>
    </g>
   </g>
   <g id="matplotlib.axis_4">
    <g id="ytick_8">
     <g id="line2d_25">
      <g>
       <use xlink:href="#m7f176de826" x="359.985114" y="179.099371" style="stroke: #000000; stroke-width: 0.8"/>
      </g>
     </g>
     <g id="text_28">
      <!-- 0 -->
      <g transform="translate(346.622614 182.89859) scale(0.1 -0.1)">
       <use xlink:href="#DejaVuSans-30"/>
      </g>
     </g>
    </g>
    <g id="ytick_9">
     <g id="line2d_26">
      <g>
       <use xlink:href="#m7f176de826" x="359.985114" y="156.475815" style="stroke: #000000; stroke-width: 0.8"/>
      </g>
     </g>
     <g id="text_29">
      <!-- 10 -->
      <g transform="translate(340.260114 160.275034) scale(0.1 -0.1)">
       <use xlink:href="#DejaVuSans-31"/>
       <use xlink:href="#DejaVuSans-30" x="63.623047"/>
      </g>
     </g>
    </g>
    <g id="ytick_10">
     <g id="line2d_27">
      <g>
       <use xlink:href="#m7f176de826" x="359.985114" y="133.852258" style="stroke: #000000; stroke-width: 0.8"/>
      </g>
     </g>
     <g id="text_30">
      <!-- 20 -->
      <g transform="translate(340.260114 137.651477) scale(0.1 -0.1)">
       <use xlink:href="#DejaVuSans-32"/>
       <use xlink:href="#DejaVuSans-30" x="63.623047"/>
      </g>
     </g>
    </g>
    <g id="ytick_11">
     <g id="line2d_28">
      <g>
       <use xlink:href="#m7f176de826" x="359.985114" y="111.228702" style="stroke: #000000; stroke-width: 0.8"/>
      </g>
     </g>
     <g id="text_31">
      <!-- 30 -->
      <g transform="translate(340.260114 115.027921) scale(0.1 -0.1)">
       <use xlink:href="#DejaVuSans-33"/>
       <use xlink:href="#DejaVuSans-30" x="63.623047"/>
      </g>
     </g>
    </g>
    <g id="ytick_12">
     <g id="line2d_29">
      <g>
       <use xlink:href="#m7f176de826" x="359.985114" y="88.605145" style="stroke: #000000; stroke-width: 0.8"/>
      </g>
     </g>
     <g id="text_32">
      <!-- 40 -->
      <g transform="translate(340.260114 92.404364) scale(0.1 -0.1)">
       <use xlink:href="#DejaVuSans-34"/>
       <use xlink:href="#DejaVuSans-30" x="63.623047"/>
      </g>
     </g>
    </g>
    <g id="ytick_13">
     <g id="line2d_30">
      <g>
       <use xlink:href="#m7f176de826" x="359.985114" y="65.981589" style="stroke: #000000; stroke-width: 0.8"/>
      </g>
     </g>
     <g id="text_33">
      <!-- 50 -->
      <g transform="translate(340.260114 69.780808) scale(0.1 -0.1)">
       <use xlink:href="#DejaVuSans-35"/>
       <use xlink:href="#DejaVuSans-30" x="63.623047"/>
      </g>
     </g>
    </g>
    <g id="ytick_14">
     <g id="line2d_31">
      <g>
       <use xlink:href="#m7f176de826" x="359.985114" y="43.358033" style="stroke: #000000; stroke-width: 0.8"/>
      </g>
     </g>
     <g id="text_34">
      <!-- 60 -->
      <g transform="translate(340.260114 47.157251) scale(0.1 -0.1)">
       <use xlink:href="#DejaVuSans-36"/>
       <use xlink:href="#DejaVuSans-30" x="63.623047"/>
      </g>
     </g>
    </g>
    <g id="text_35">
     <!-- [counts] -->
     <g transform="translate(334.180427 125.054135) rotate(-90) scale(0.1 -0.1)">
      <use xlink:href="#DejaVuSans-5b"/>
      <use xlink:href="#DejaVuSans-63" x="39.013672"/>
      <use xlink:href="#DejaVuSans-6f" x="93.994141"/>
      <use xlink:href="#DejaVuSans-75" x="155.175781"/>
      <use xlink:href="#DejaVuSans-6e" x="218.554688"/>
      <use xlink:href="#DejaVuSans-74" x="281.933594"/>
      <use xlink:href="#DejaVuSans-73" x="321.142578"/>
      <use xlink:href="#DejaVuSans-5d" x="373.242188"/>
     </g>
    </g>
   </g>
   <g id="line2d_32">
    <path d="M 372.689608 186.565145 
L 372.689608 22.318125 
" clip-path="url(#pe76f00a8e2)" style="fill: none; stroke-dasharray: 7.4,3.2; stroke-dashoffset: 0; stroke: #ff00ff; stroke-width: 2"/>
   </g>
   <g id="patch_8">
    <path d="M 359.985114 186.565145 
L 359.985114 22.318125 
" style="fill: none; stroke: #000000; stroke-width: 0.8; stroke-linejoin: miter; stroke-linecap: square"/>
   </g>
   <g id="patch_9">
    <path d="M 639.483978 186.565145 
L 639.483978 22.318125 
" style="fill: none; stroke: #000000; stroke-width: 0.8; stroke-linejoin: miter; stroke-linecap: square"/>
   </g>
   <g id="patch_10">
    <path d="M 359.985114 186.565145 
L 639.483978 186.565145 
" style="fill: none; stroke: #000000; stroke-width: 0.8; stroke-linejoin: miter; stroke-linecap: square"/>
   </g>
   <g id="patch_11">
    <path d="M 359.985114 22.318125 
L 639.483978 22.318125 
" style="fill: none; stroke: #000000; stroke-width: 0.8; stroke-linejoin: miter; stroke-linecap: square"/>
   </g>
   <g id="text_36">
    <!-- pivot time -->
    <g style="fill: #ff00ff" transform="translate(380.288045 135.931946) rotate(-90) scale(0.1 -0.1)">
     <use xlink:href="#DejaVuSans-70"/>
     <use xlink:href="#DejaVuSans-69" x="63.476562"/>
     <use xlink:href="#DejaVuSans-76" x="91.259766"/>
     <use xlink:href="#DejaVuSans-6f" x="150.439453"/>
     <use xlink:href="#DejaVuSans-74" x="211.621094"/>
     <use xlink:href="#DejaVuSans-20" x="250.830078"/>
     <use xlink:href="#DejaVuSans-74" x="282.617188"/>
     <use xlink:href="#DejaVuSans-69" x="321.826172"/>
     <use xlink:href="#DejaVuSans-6d" x="349.609375"/>
     <use xlink:href="#DejaVuSans-65" x="447.021484"/>
    </g>
   </g>
   <g id="text_37">
    <!-- sample=60.0 m -->
    <g transform="translate(451.781421 16.318125) scale(0.12 -0.12)">
     <defs>
      <path id="DejaVuSans-6c" d="M 603 4863 
L 1178 4863 
L 1178 0 
L 603 0 
L 603 4863 
z
" transform="scale(0.015625)"/>
     </defs>
     <use xlink:href="#DejaVuSans-73"/>
     <use xlink:href="#DejaVuSans-61" x="52.099609"/>
     <use xlink:href="#DejaVuSans-6d" x="113.378906"/>
     <use xlink:href="#DejaVuSans-70" x="210.791016"/>
     <use xlink:href="#DejaVuSans-6c" x="274.267578"/>
     <use xlink:href="#DejaVuSans-65" x="302.050781"/>
     <use xlink:href="#DejaVuSans-3d" x="363.574219"/>
     <use xlink:href="#DejaVuSans-36" x="447.363281"/>
     <use xlink:href="#DejaVuSans-30" x="510.986328"/>
     <use xlink:href="#DejaVuSans-2e" x="574.609375"/>
     <use xlink:href="#DejaVuSans-30" x="606.396484"/>
     <use xlink:href="#DejaVuSans-20" x="670.019531"/>
     <use xlink:href="#DejaVuSans-6d" x="701.806641"/>
    </g>
   </g>
   <g id="line2d_33">
    <path d="M 372.689608 172.312304 
L 373.960057 172.312304 
L 373.960057 179.099371 
L 376.500956 179.099371 
L 376.500956 176.837016 
L 379.041855 176.837016 
L 379.041855 179.099371 
L 382.853203 179.099371 
L 382.853203 172.312304 
L 384.123652 172.312304 
L 384.123652 174.57466 
L 385.394102 174.57466 
L 385.394102 179.099371 
L 389.20545 179.099371 
L 389.20545 176.837016 
L 390.475899 176.837016 
L 390.475899 170.049949 
L 391.746349 170.049949 
L 391.746349 176.837016 
L 394.287247 176.837016 
L 394.287247 172.312304 
L 395.557697 172.312304 
L 395.557697 174.57466 
L 400.639494 174.57466 
L 400.639494 170.049949 
L 401.909944 170.049949 
L 401.909944 176.837016 
L 403.180393 176.837016 
L 403.180393 179.099371 
L 404.450842 179.099371 
L 404.450842 167.787593 
L 405.721292 167.787593 
L 405.721292 176.837016 
L 408.262191 176.837016 
L 408.262191 172.312304 
L 409.53264 172.312304 
L 409.53264 176.837016 
L 412.073539 176.837016 
L 412.073539 163.262882 
L 413.343988 163.262882 
L 413.343988 174.57466 
L 415.884887 174.57466 
L 415.884887 170.049949 
L 417.155336 170.049949 
L 417.155336 167.787593 
L 418.425786 167.787593 
L 418.425786 172.312304 
L 419.696235 172.312304 
L 419.696235 165.525237 
L 420.966684 165.525237 
L 420.966684 158.738171 
L 422.237134 158.738171 
L 422.237134 167.787593 
L 423.507583 167.787593 
L 423.507583 163.262882 
L 424.778033 163.262882 
L 424.778033 161.000526 
L 426.048482 161.000526 
L 426.048482 165.525237 
L 427.318931 165.525237 
L 427.318931 170.049949 
L 428.589381 170.049949 
L 428.589381 156.475815 
L 431.130279 156.475815 
L 431.130279 151.951104 
L 432.400729 151.951104 
L 432.400729 145.164037 
L 433.671178 145.164037 
L 433.671178 154.213459 
L 434.941628 154.213459 
L 434.941628 145.164037 
L 436.212077 145.164037 
L 436.212077 163.262882 
L 437.482526 163.262882 
L 437.482526 149.688748 
L 438.752976 149.688748 
L 438.752976 127.065191 
L 441.293875 127.065191 
L 441.293875 131.589903 
L 443.834773 131.589903 
L 443.834773 145.164037 
L 445.105223 145.164037 
L 445.105223 127.065191 
L 446.375672 127.065191 
L 446.375672 124.802836 
L 447.646121 124.802836 
L 447.646121 115.753413 
L 448.916571 115.753413 
L 448.916571 81.818079 
L 450.18702 81.818079 
L 450.18702 99.916924 
L 451.45747 99.916924 
L 451.45747 113.491058 
L 452.727919 113.491058 
L 452.727919 93.129857 
L 455.268818 93.129857 
L 455.268818 99.916924 
L 456.539267 99.916924 
L 456.539267 93.129857 
L 457.809716 93.129857 
L 457.809716 86.34279 
L 459.080166 86.34279 
L 459.080166 84.080434 
L 460.350615 84.080434 
L 460.350615 81.818079 
L 461.621065 81.818079 
L 461.621065 77.293367 
L 462.891514 77.293367 
L 462.891514 70.5063 
L 464.161963 70.5063 
L 464.161963 54.669811 
L 465.432413 54.669811 
L 465.432413 43.358033 
L 466.702862 43.358033 
L 466.702862 79.555723 
L 467.973312 79.555723 
L 467.973312 99.916924 
L 469.243761 99.916924 
L 469.243761 29.783899 
L 470.51421 29.783899 
L 470.51421 56.932166 
L 471.78466 56.932166 
L 471.78466 72.768656 
L 473.055109 72.768656 
L 473.055109 47.882744 
L 474.325558 47.882744 
L 474.325558 75.031012 
L 475.596008 75.031012 
L 475.596008 59.194522 
L 476.866457 59.194522 
L 476.866457 84.080434 
L 478.136907 84.080434 
L 478.136907 43.358033 
L 479.407356 43.358033 
L 479.407356 68.243945 
L 480.677805 68.243945 
L 480.677805 72.768656 
L 481.948255 72.768656 
L 481.948255 81.818079 
L 483.218704 81.818079 
L 483.218704 47.882744 
L 484.489154 47.882744 
L 484.489154 90.867501 
L 485.759603 90.867501 
L 485.759603 56.932166 
L 487.030052 56.932166 
L 487.030052 77.293367 
L 488.300502 77.293367 
L 488.300502 70.5063 
L 489.570951 70.5063 
L 489.570951 63.719233 
L 490.8414 63.719233 
L 490.8414 79.555723 
L 492.11185 79.555723 
L 492.11185 63.719233 
L 493.382299 63.719233 
L 493.382299 70.5063 
L 494.652749 70.5063 
L 494.652749 75.031012 
L 495.923198 75.031012 
L 495.923198 99.916924 
L 497.193647 99.916924 
L 497.193647 84.080434 
L 498.464097 84.080434 
L 498.464097 86.34279 
L 499.734546 86.34279 
L 499.734546 108.966346 
L 501.004995 108.966346 
L 501.004995 81.818079 
L 502.275445 81.818079 
L 502.275445 56.932166 
L 503.545894 56.932166 
L 503.545894 72.768656 
L 504.816344 72.768656 
L 504.816344 65.981589 
L 506.086793 65.981589 
L 506.086793 108.966346 
L 507.357242 108.966346 
L 507.357242 93.129857 
L 508.627692 93.129857 
L 508.627692 90.867501 
L 509.898141 90.867501 
L 509.898141 63.719233 
L 511.168591 63.719233 
L 511.168591 88.605145 
L 512.43904 88.605145 
L 512.43904 106.703991 
L 513.709489 106.703991 
L 513.709489 81.818079 
L 514.979939 81.818079 
L 514.979939 88.605145 
L 516.250388 88.605145 
L 516.250388 79.555723 
L 517.520837 79.555723 
L 517.520837 68.243945 
L 518.791287 68.243945 
L 518.791287 111.228702 
L 520.061736 111.228702 
L 520.061736 97.654568 
L 522.602635 97.654568 
L 522.602635 56.932166 
L 523.873084 56.932166 
L 523.873084 95.392212 
L 525.143534 95.392212 
L 525.143534 102.179279 
L 526.413983 102.179279 
L 526.413983 65.981589 
L 527.684433 65.981589 
L 527.684433 84.080434 
L 528.954882 84.080434 
L 528.954882 113.491058 
L 530.225331 113.491058 
L 530.225331 77.293367 
L 531.495781 77.293367 
L 531.495781 75.031012 
L 532.76623 75.031012 
L 532.76623 102.179279 
L 534.036679 102.179279 
L 534.036679 99.916924 
L 536.577578 99.916924 
L 536.577578 84.080434 
L 537.848028 84.080434 
L 537.848028 104.441635 
L 539.118477 104.441635 
L 539.118477 108.966346 
L 540.388926 108.966346 
L 540.388926 129.327547 
L 541.659376 129.327547 
L 541.659376 131.589903 
L 542.929825 131.589903 
L 542.929825 102.179279 
L 544.200274 102.179279 
L 544.200274 72.768656 
L 545.470724 72.768656 
L 545.470724 99.916924 
L 546.741173 99.916924 
L 546.741173 77.293367 
L 548.011623 77.293367 
L 548.011623 99.916924 
L 549.282072 99.916924 
L 549.282072 111.228702 
L 551.822971 111.228702 
L 551.822971 97.654568 
L 553.09342 97.654568 
L 553.09342 79.555723 
L 554.36387 79.555723 
L 554.36387 97.654568 
L 555.634319 97.654568 
L 555.634319 118.015769 
L 556.904768 118.015769 
L 556.904768 108.966346 
L 558.175218 108.966346 
L 558.175218 90.867501 
L 559.445667 90.867501 
L 559.445667 113.491058 
L 560.716116 113.491058 
L 560.716116 115.753413 
L 564.527465 115.753413 
L 564.527465 106.703991 
L 565.797914 106.703991 
L 565.797914 108.966346 
L 568.338813 108.966346 
L 568.338813 97.654568 
L 569.609262 97.654568 
L 569.609262 113.491058 
L 570.879712 113.491058 
L 570.879712 127.065191 
L 572.150161 127.065191 
L 572.150161 111.228702 
L 573.42061 111.228702 
L 573.42061 95.392212 
L 574.69106 95.392212 
L 574.69106 120.278125 
L 575.961509 120.278125 
L 575.961509 129.327547 
L 577.231958 129.327547 
L 577.231958 133.852258 
L 578.502408 133.852258 
L 578.502408 111.228702 
L 579.772857 111.228702 
L 579.772857 108.966346 
L 581.043307 108.966346 
L 581.043307 124.802836 
L 582.313756 124.802836 
L 582.313756 142.901681 
L 583.584205 142.901681 
L 583.584205 113.491058 
L 584.854655 113.491058 
L 584.854655 129.327547 
L 586.125104 129.327547 
L 586.125104 124.802836 
L 587.395553 124.802836 
L 587.395553 131.589903 
L 591.206902 131.589903 
L 591.206902 136.114614 
L 592.477351 136.114614 
L 592.477351 131.589903 
L 593.7478 131.589903 
L 593.7478 147.426392 
L 595.01825 147.426392 
L 595.01825 149.688748 
L 596.288699 149.688748 
L 596.288699 142.901681 
L 598.829598 142.901681 
L 598.829598 165.525237 
L 600.100047 165.525237 
L 600.100047 151.951104 
L 601.370497 151.951104 
L 601.370497 156.475815 
L 602.640946 156.475815 
L 602.640946 170.049949 
L 603.911395 170.049949 
L 603.911395 165.525237 
L 605.181845 165.525237 
L 605.181845 167.787593 
L 606.452294 167.787593 
L 606.452294 170.049949 
L 607.722744 170.049949 
L 607.722744 172.312304 
L 608.993193 172.312304 
L 608.993193 151.951104 
L 610.263642 151.951104 
L 610.263642 161.000526 
L 611.534092 161.000526 
L 611.534092 174.57466 
L 612.804541 174.57466 
L 612.804541 172.312304 
L 614.074991 172.312304 
L 614.074991 165.525237 
L 615.34544 165.525237 
L 615.34544 172.312304 
L 616.615889 172.312304 
L 616.615889 176.837016 
L 617.886339 176.837016 
L 617.886339 172.312304 
L 619.156788 172.312304 
L 619.156788 174.57466 
L 620.427237 174.57466 
L 620.427237 179.099371 
L 621.697687 179.099371 
L 621.697687 174.57466 
L 622.968136 174.57466 
L 622.968136 179.099371 
L 625.509035 179.099371 
L 625.509035 176.837016 
L 626.779484 176.837016 
L 626.779484 176.837016 
" clip-path="url(#pe76f00a8e2)" style="fill: none; stroke: #ff7f0e; stroke-width: 1.5; stroke-linecap: square"/>
   </g>
  </g>
  <g id="axes_3">
   <g id="patch_12">
    <path d="M 40.603125 402.565145 
L 320.101989 402.565145 
L 320.101989 238.318125 
L 40.603125 238.318125 
z
" style="fill: #ffffff"/>
   </g>
   <g id="matplotlib.axis_5">
    <g id="xtick_16">
     <g id="line2d_34">
      <g>
       <use xlink:href="#mf6872e4fd1" x="53.249372" y="402.565145" style="stroke: #000000; stroke-width: 0.8"/>
      </g>
     </g>
     <g id="text_38">
      <!-- 0 -->
      <g transform="translate(50.068122 417.163582) scale(0.1 -0.1)">
       <use xlink:href="#DejaVuSans-30"/>
      </g>
     </g>
    </g>
    <g id="xtick_17">
     <g id="line2d_35">
      <g>
       <use xlink:href="#mf6872e4fd1" x="88.834424" y="402.565145" style="stroke: #000000; stroke-width: 0.8"/>
      </g>
     </g>
     <g id="text_39">
      <!-- 10000 -->
      <g transform="translate(72.928174 417.163582) scale(0.1 -0.1)">
       <use xlink:href="#DejaVuSans-31"/>
       <use xlink:href="#DejaVuSans-30" x="63.623047"/>
       <use xlink:href="#DejaVuSans-30" x="127.246094"/>
       <use xlink:href="#DejaVuSans-30" x="190.869141"/>
       <use xlink:href="#DejaVuSans-30" x="254.492188"/>
      </g>
     </g>
    </g>
    <g id="xtick_18">
     <g id="line2d_36">
      <g>
       <use xlink:href="#mf6872e4fd1" x="124.419476" y="402.565145" style="stroke: #000000; stroke-width: 0.8"/>
      </g>
     </g>
     <g id="text_40">
      <!-- 20000 -->
      <g transform="translate(108.513226 417.163582) scale(0.1 -0.1)">
       <use xlink:href="#DejaVuSans-32"/>
       <use xlink:href="#DejaVuSans-30" x="63.623047"/>
       <use xlink:href="#DejaVuSans-30" x="127.246094"/>
       <use xlink:href="#DejaVuSans-30" x="190.869141"/>
       <use xlink:href="#DejaVuSans-30" x="254.492188"/>
      </g>
     </g>
    </g>
    <g id="xtick_19">
     <g id="line2d_37">
      <g>
       <use xlink:href="#mf6872e4fd1" x="160.004529" y="402.565145" style="stroke: #000000; stroke-width: 0.8"/>
      </g>
     </g>
     <g id="text_41">
      <!-- 30000 -->
      <g transform="translate(144.098279 417.163582) scale(0.1 -0.1)">
       <use xlink:href="#DejaVuSans-33"/>
       <use xlink:href="#DejaVuSans-30" x="63.623047"/>
       <use xlink:href="#DejaVuSans-30" x="127.246094"/>
       <use xlink:href="#DejaVuSans-30" x="190.869141"/>
       <use xlink:href="#DejaVuSans-30" x="254.492188"/>
      </g>
     </g>
    </g>
    <g id="xtick_20">
     <g id="line2d_38">
      <g>
       <use xlink:href="#mf6872e4fd1" x="195.589581" y="402.565145" style="stroke: #000000; stroke-width: 0.8"/>
      </g>
     </g>
     <g id="text_42">
      <!-- 40000 -->
      <g transform="translate(179.683331 417.163582) scale(0.1 -0.1)">
       <use xlink:href="#DejaVuSans-34"/>
       <use xlink:href="#DejaVuSans-30" x="63.623047"/>
       <use xlink:href="#DejaVuSans-30" x="127.246094"/>
       <use xlink:href="#DejaVuSans-30" x="190.869141"/>
       <use xlink:href="#DejaVuSans-30" x="254.492188"/>
      </g>
     </g>
    </g>
    <g id="xtick_21">
     <g id="line2d_39">
      <g>
       <use xlink:href="#mf6872e4fd1" x="231.174633" y="402.565145" style="stroke: #000000; stroke-width: 0.8"/>
      </g>
     </g>
     <g id="text_43">
      <!-- 50000 -->
      <g transform="translate(215.268383 417.163582) scale(0.1 -0.1)">
       <use xlink:href="#DejaVuSans-35"/>
       <use xlink:href="#DejaVuSans-30" x="63.623047"/>
       <use xlink:href="#DejaVuSans-30" x="127.246094"/>
       <use xlink:href="#DejaVuSans-30" x="190.869141"/>
       <use xlink:href="#DejaVuSans-30" x="254.492188"/>
      </g>
     </g>
    </g>
    <g id="xtick_22">
     <g id="line2d_40">
      <g>
       <use xlink:href="#mf6872e4fd1" x="266.759685" y="402.565145" style="stroke: #000000; stroke-width: 0.8"/>
      </g>
     </g>
     <g id="text_44">
      <!-- 60000 -->
      <g transform="translate(250.853435 417.163582) scale(0.1 -0.1)">
       <use xlink:href="#DejaVuSans-36"/>
       <use xlink:href="#DejaVuSans-30" x="63.623047"/>
       <use xlink:href="#DejaVuSans-30" x="127.246094"/>
       <use xlink:href="#DejaVuSans-30" x="190.869141"/>
       <use xlink:href="#DejaVuSans-30" x="254.492188"/>
      </g>
     </g>
    </g>
    <g id="xtick_23">
     <g id="line2d_41">
      <g>
       <use xlink:href="#mf6872e4fd1" x="302.344738" y="402.565145" style="stroke: #000000; stroke-width: 0.8"/>
      </g>
     </g>
     <g id="text_45">
      <!-- 70000 -->
      <g transform="translate(286.438488 417.163582) scale(0.1 -0.1)">
       <use xlink:href="#DejaVuSans-37"/>
       <use xlink:href="#DejaVuSans-30" x="63.623047"/>
       <use xlink:href="#DejaVuSans-30" x="127.246094"/>
       <use xlink:href="#DejaVuSans-30" x="190.869141"/>
       <use xlink:href="#DejaVuSans-30" x="254.492188"/>
      </g>
     </g>
    </g>
    <g id="text_46">
     <!-- event_time_offset [µs] -->
     <g transform="translate(124.317401 430.841707) scale(0.1 -0.1)">
      <use xlink:href="#DejaVuSans-65"/>
      <use xlink:href="#DejaVuSans-76" x="61.523438"/>
      <use xlink:href="#DejaVuSans-65" x="120.703125"/>
      <use xlink:href="#DejaVuSans-6e" x="182.226562"/>
      <use xlink:href="#DejaVuSans-74" x="245.605469"/>
      <use xlink:href="#DejaVuSans-5f" x="284.814453"/>
      <use xlink:href="#DejaVuSans-74" x="334.814453"/>
      <use xlink:href="#DejaVuSans-69" x="374.023438"/>
      <use xlink:href="#DejaVuSans-6d" x="401.806641"/>
      <use xlink:href="#DejaVuSans-65" x="499.21875"/>
      <use xlink:href="#DejaVuSans-5f" x="560.742188"/>
      <use xlink:href="#DejaVuSans-6f" x="610.742188"/>
      <use xlink:href="#DejaVuSans-66" x="671.923828"/>
      <use xlink:href="#DejaVuSans-66" x="707.128906"/>
      <use xlink:href="#DejaVuSans-73" x="742.333984"/>
      <use xlink:href="#DejaVuSans-65" x="794.433594"/>
      <use xlink:href="#DejaVuSans-74" x="855.957031"/>
      <use xlink:href="#DejaVuSans-20" x="895.166016"/>
      <use xlink:href="#DejaVuSans-5b" x="926.953125"/>
      <use xlink:href="#DejaVuSans-b5" x="965.966797"/>
      <use xlink:href="#DejaVuSans-73" x="1029.589844"/>
      <use xlink:href="#DejaVuSans-5d" x="1081.689453"/>
     </g>
    </g>
   </g>
   <g id="matplotlib.axis_6">
    <g id="ytick_15">
     <g id="line2d_42">
      <g>
       <use xlink:href="#m7f176de826" x="40.603125" y="395.099371" style="stroke: #000000; stroke-width: 0.8"/>
      </g>
     </g>
     <g id="text_47">
      <!-- 0 -->
      <g transform="translate(27.240625 398.89859) scale(0.1 -0.1)">
       <use xlink:href="#DejaVuSans-30"/>
      </g>
     </g>
    </g>
    <g id="ytick_16">
     <g id="line2d_43">
      <g>
       <use xlink:href="#m7f176de826" x="40.603125" y="361.918155" style="stroke: #000000; stroke-width: 0.8"/>
      </g>
     </g>
     <g id="text_48">
      <!-- 20 -->
      <g transform="translate(20.878125 365.717374) scale(0.1 -0.1)">
       <use xlink:href="#DejaVuSans-32"/>
       <use xlink:href="#DejaVuSans-30" x="63.623047"/>
      </g>
     </g>
    </g>
    <g id="ytick_17">
     <g id="line2d_44">
      <g>
       <use xlink:href="#m7f176de826" x="40.603125" y="328.736939" style="stroke: #000000; stroke-width: 0.8"/>
      </g>
     </g>
     <g id="text_49">
      <!-- 40 -->
      <g transform="translate(20.878125 332.536158) scale(0.1 -0.1)">
       <use xlink:href="#DejaVuSans-34"/>
       <use xlink:href="#DejaVuSans-30" x="63.623047"/>
      </g>
     </g>
    </g>
    <g id="ytick_18">
     <g id="line2d_45">
      <g>
       <use xlink:href="#m7f176de826" x="40.603125" y="295.555723" style="stroke: #000000; stroke-width: 0.8"/>
      </g>
     </g>
     <g id="text_50">
      <!-- 60 -->
      <g transform="translate(20.878125 299.354942) scale(0.1 -0.1)">
       <use xlink:href="#DejaVuSans-36"/>
       <use xlink:href="#DejaVuSans-30" x="63.623047"/>
      </g>
     </g>
    </g>
    <g id="ytick_19">
     <g id="line2d_46">
      <g>
       <use xlink:href="#m7f176de826" x="40.603125" y="262.374507" style="stroke: #000000; stroke-width: 0.8"/>
      </g>
     </g>
     <g id="text_51">
      <!-- 80 -->
      <g transform="translate(20.878125 266.173725) scale(0.1 -0.1)">
       <use xlink:href="#DejaVuSans-38"/>
       <use xlink:href="#DejaVuSans-30" x="63.623047"/>
      </g>
     </g>
    </g>
    <g id="text_52">
     <!-- [counts] -->
     <g transform="translate(14.798438 341.054135) rotate(-90) scale(0.1 -0.1)">
      <use xlink:href="#DejaVuSans-5b"/>
      <use xlink:href="#DejaVuSans-63" x="39.013672"/>
      <use xlink:href="#DejaVuSans-6f" x="93.994141"/>
      <use xlink:href="#DejaVuSans-75" x="155.175781"/>
      <use xlink:href="#DejaVuSans-6e" x="218.554688"/>
      <use xlink:href="#DejaVuSans-74" x="281.933594"/>
      <use xlink:href="#DejaVuSans-73" x="321.142578"/>
      <use xlink:href="#DejaVuSans-5d" x="373.242188"/>
     </g>
    </g>
   </g>
   <g id="line2d_47">
    <path d="M 263.037765 402.565145 
L 263.037765 238.318125 
" clip-path="url(#p11e3a497be)" style="fill: none; stroke-dasharray: 7.4,3.2; stroke-dashoffset: 0; stroke: #ff00ff; stroke-width: 2"/>
   </g>
   <g id="patch_13">
    <path d="M 40.603125 402.565145 
L 40.603125 238.318125 
" style="fill: none; stroke: #000000; stroke-width: 0.8; stroke-linejoin: miter; stroke-linecap: square"/>
   </g>
   <g id="patch_14">
    <path d="M 320.101989 402.565145 
L 320.101989 238.318125 
" style="fill: none; stroke: #000000; stroke-width: 0.8; stroke-linejoin: miter; stroke-linecap: square"/>
   </g>
   <g id="patch_15">
    <path d="M 40.603125 402.565145 
L 320.101989 402.565145 
" style="fill: none; stroke: #000000; stroke-width: 0.8; stroke-linejoin: miter; stroke-linecap: square"/>
   </g>
   <g id="patch_16">
    <path d="M 40.603125 238.318125 
L 320.101989 238.318125 
" style="fill: none; stroke: #000000; stroke-width: 0.8; stroke-linejoin: miter; stroke-linecap: square"/>
   </g>
   <g id="text_53">
    <!-- pivot time -->
    <g style="fill: #ff00ff" transform="translate(270.636202 363.997843) rotate(-90) scale(0.1 -0.1)">
     <use xlink:href="#DejaVuSans-70"/>
     <use xlink:href="#DejaVuSans-69" x="63.476562"/>
     <use xlink:href="#DejaVuSans-76" x="91.259766"/>
     <use xlink:href="#DejaVuSans-6f" x="150.439453"/>
     <use xlink:href="#DejaVuSans-74" x="211.621094"/>
     <use xlink:href="#DejaVuSans-20" x="250.830078"/>
     <use xlink:href="#DejaVuSans-74" x="282.617188"/>
     <use xlink:href="#DejaVuSans-69" x="321.826172"/>
     <use xlink:href="#DejaVuSans-6d" x="349.609375"/>
     <use xlink:href="#DejaVuSans-65" x="447.021484"/>
    </g>
   </g>
   <g id="text_54">
    <!-- monitor=80.0 m -->
    <g transform="translate(130.73912 232.318125) scale(0.12 -0.12)">
     <defs>
      <path id="DejaVuSans-72" d="M 2631 2963 
Q 2534 3019 2420 3045 
Q 2306 3072 2169 3072 
Q 1681 3072 1420 2755 
Q 1159 2438 1159 1844 
L 1159 0 
L 581 0 
L 581 3500 
L 1159 3500 
L 1159 2956 
Q 1341 3275 1631 3429 
Q 1922 3584 2338 3584 
Q 2397 3584 2469 3576 
Q 2541 3569 2628 3553 
L 2631 2963 
z
" transform="scale(0.015625)"/>
     </defs>
     <use xlink:href="#DejaVuSans-6d"/>
     <use xlink:href="#DejaVuSans-6f" x="97.412109"/>
     <use xlink:href="#DejaVuSans-6e" x="158.59375"/>
     <use xlink:href="#DejaVuSans-69" x="221.972656"/>
     <use xlink:href="#DejaVuSans-74" x="249.755859"/>
     <use xlink:href="#DejaVuSans-6f" x="288.964844"/>
     <use xlink:href="#DejaVuSans-72" x="350.146484"/>
     <use xlink:href="#DejaVuSans-3d" x="391.259766"/>
     <use xlink:href="#DejaVuSans-38" x="475.048828"/>
     <use xlink:href="#DejaVuSans-30" x="538.671875"/>
     <use xlink:href="#DejaVuSans-2e" x="602.294922"/>
     <use xlink:href="#DejaVuSans-30" x="634.082031"/>
     <use xlink:href="#DejaVuSans-20" x="697.705078"/>
     <use xlink:href="#DejaVuSans-6d" x="729.492188"/>
    </g>
   </g>
   <g id="line2d_48">
    <path d="M 53.307619 330.396 
L 54.578068 330.396 
L 54.578068 305.510088 
L 55.848518 305.510088 
L 55.848518 297.214784 
L 57.118967 297.214784 
L 57.118967 305.510088 
L 58.389416 305.510088 
L 58.389416 290.57854 
L 60.930315 290.57854 
L 60.930315 298.873844 
L 62.200764 298.873844 
L 62.200764 270.669811 
L 63.471214 270.669811 
L 63.471214 267.351689 
L 64.741663 267.351689 
L 64.741663 245.783899 
L 66.012113 245.783899 
L 66.012113 264.033568 
L 67.282562 264.033568 
L 67.282562 265.692628 
L 68.553011 265.692628 
L 68.553011 245.783899 
L 69.823461 245.783899 
L 69.823461 252.420142 
L 71.09391 252.420142 
L 71.09391 267.351689 
L 72.36436 267.351689 
L 72.36436 264.033568 
L 73.634809 264.033568 
L 73.634809 245.783899 
L 74.905258 245.783899 
L 74.905258 273.987932 
L 76.175708 273.987932 
L 76.175708 249.10202 
L 77.446157 249.10202 
L 77.446157 267.351689 
L 78.716606 267.351689 
L 78.716606 282.283236 
L 79.987056 282.283236 
L 79.987056 259.056385 
L 81.257505 259.056385 
L 81.257505 265.692628 
L 82.527955 265.692628 
L 82.527955 264.033568 
L 83.798404 264.033568 
L 83.798404 290.57854 
L 85.068853 290.57854 
L 85.068853 275.646993 
L 86.339303 275.646993 
L 86.339303 297.214784 
L 87.609752 297.214784 
L 87.609752 257.397324 
L 88.880202 257.397324 
L 88.880202 278.965115 
L 90.150651 278.965115 
L 90.150651 287.260419 
L 91.4211 287.260419 
L 91.4211 300.532905 
L 92.69155 300.532905 
L 92.69155 260.715446 
L 93.961999 260.715446 
L 93.961999 288.91948 
L 95.232448 288.91948 
L 95.232448 295.555723 
L 96.502898 295.555723 
L 96.502898 272.328872 
L 97.773347 272.328872 
L 97.773347 292.237601 
L 99.043797 292.237601 
L 99.043797 297.214784 
L 100.314246 297.214784 
L 100.314246 280.624176 
L 101.584695 280.624176 
L 101.584695 287.260419 
L 102.855145 287.260419 
L 102.855145 272.328872 
L 104.125594 272.328872 
L 104.125594 300.532905 
L 105.396043 300.532905 
L 105.396043 285.601358 
L 106.666493 285.601358 
L 106.666493 290.57854 
L 107.936942 290.57854 
L 107.936942 303.851027 
L 109.207392 303.851027 
L 109.207392 280.624176 
L 110.477841 280.624176 
L 110.477841 313.805392 
L 111.74829 313.805392 
L 111.74829 335.373182 
L 113.01874 335.373182 
L 113.01874 312.146331 
L 114.289189 312.146331 
L 114.289189 273.987932 
L 115.559639 273.987932 
L 115.559639 293.896662 
L 116.830088 293.896662 
L 116.830088 302.191966 
L 118.100537 302.191966 
L 118.100537 322.100696 
L 119.370987 322.100696 
L 119.370987 273.987932 
L 120.641436 273.987932 
L 120.641436 308.828209 
L 121.911885 308.828209 
L 121.911885 313.805392 
L 123.182335 313.805392 
L 123.182335 310.48727 
L 124.452784 310.48727 
L 124.452784 307.169149 
L 125.723234 307.169149 
L 125.723234 317.123513 
L 126.993683 317.123513 
L 126.993683 315.464453 
L 128.264132 315.464453 
L 128.264132 307.169149 
L 129.534582 307.169149 
L 129.534582 317.123513 
L 130.805031 317.123513 
L 130.805031 318.782574 
L 132.075481 318.782574 
L 132.075481 298.873844 
L 133.34593 298.873844 
L 133.34593 342.009426 
L 134.616379 342.009426 
L 134.616379 327.077878 
L 135.886829 327.077878 
L 135.886829 313.805392 
L 137.157278 313.805392 
L 137.157278 340.350365 
L 138.427727 340.350365 
L 138.427727 328.736939 
L 139.698177 328.736939 
L 139.698177 332.055061 
L 140.968626 332.055061 
L 140.968626 337.032243 
L 142.239076 337.032243 
L 142.239076 346.986608 
L 143.509525 346.986608 
L 143.509525 340.350365 
L 144.779974 340.350365 
L 144.779974 355.281912 
L 146.050424 355.281912 
L 146.050424 351.96379 
L 147.320873 351.96379 
L 147.320873 370.213459 
L 148.591322 370.213459 
L 148.591322 365.236277 
L 149.861772 365.236277 
L 149.861772 383.485946 
L 151.132221 383.485946 
L 151.132221 380.167824 
L 152.402671 380.167824 
L 152.402671 383.485946 
L 153.67312 383.485946 
L 153.67312 370.213459 
L 154.943569 370.213459 
L 154.943569 381.826885 
L 156.214019 381.826885 
L 156.214019 383.485946 
L 157.484468 383.485946 
L 157.484468 386.804067 
L 158.754918 386.804067 
L 158.754918 390.122189 
L 160.025367 390.122189 
L 160.025367 391.78125 
L 162.566266 391.78125 
L 162.566266 395.099371 
L 163.836715 395.099371 
L 163.836715 393.440311 
L 165.107164 393.440311 
L 165.107164 395.099371 
L 262.931767 395.099371 
L 262.931767 390.122189 
L 264.202216 390.122189 
L 264.202216 395.099371 
L 265.472666 395.099371 
L 265.472666 391.78125 
L 266.743115 391.78125 
L 266.743115 395.099371 
L 268.013564 395.099371 
L 268.013564 393.440311 
L 269.284014 393.440311 
L 269.284014 390.122189 
L 270.554463 390.122189 
L 270.554463 393.440311 
L 271.824913 393.440311 
L 271.824913 395.099371 
L 273.095362 395.099371 
L 273.095362 391.78125 
L 274.365811 391.78125 
L 274.365811 386.804067 
L 275.636261 386.804067 
L 275.636261 390.122189 
L 276.90671 390.122189 
L 276.90671 388.463128 
L 278.177159 388.463128 
L 278.177159 391.78125 
L 279.447609 391.78125 
L 279.447609 386.804067 
L 280.718058 386.804067 
L 280.718058 391.78125 
L 281.988508 391.78125 
L 281.988508 385.145007 
L 283.258957 385.145007 
L 283.258957 393.440311 
L 284.529406 393.440311 
L 284.529406 390.122189 
L 285.799856 390.122189 
L 285.799856 393.440311 
L 287.070305 393.440311 
L 287.070305 381.826885 
L 288.340755 381.826885 
L 288.340755 386.804067 
L 289.611204 386.804067 
L 289.611204 385.145007 
L 290.881653 385.145007 
L 290.881653 383.485946 
L 292.152103 383.485946 
L 292.152103 373.531581 
L 293.422552 373.531581 
L 293.422552 375.190642 
L 294.693001 375.190642 
L 294.693001 381.826885 
L 295.963451 381.826885 
L 295.963451 380.167824 
L 297.2339 380.167824 
L 297.2339 375.190642 
L 298.50435 375.190642 
L 298.50435 355.281912 
L 299.774799 355.281912 
L 299.774799 366.895338 
L 301.045248 366.895338 
L 301.045248 355.281912 
L 302.315698 355.281912 
L 302.315698 365.236277 
L 303.586147 365.236277 
L 303.586147 338.691304 
L 304.856596 338.691304 
L 304.856596 335.373182 
L 306.127046 335.373182 
L 306.127046 346.986608 
L 307.397495 346.986608 
L 307.397495 346.986608 
" clip-path="url(#p11e3a497be)" style="fill: none; stroke: #2ca02c; stroke-width: 1.5; stroke-linecap: square"/>
   </g>
  </g>
  <g id="axes_4">
   <g id="patch_17">
    <path d="M 359.985114 402.565145 
L 639.483978 402.565145 
L 639.483978 238.318125 
L 359.985114 238.318125 
z
" style="fill: #ffffff"/>
   </g>
   <g id="matplotlib.axis_7">
    <g id="xtick_24">
     <g id="line2d_49">
      <g>
       <use xlink:href="#mf6872e4fd1" x="372.678106" y="402.565145" style="stroke: #000000; stroke-width: 0.8"/>
      </g>
     </g>
     <g id="text_55">
      <!-- 0 -->
      <g transform="translate(369.496856 417.163582) scale(0.1 -0.1)">
       <use xlink:href="#DejaVuSans-30"/>
      </g>
     </g>
    </g>
    <g id="xtick_25">
     <g id="line2d_50">
      <g>
       <use xlink:href="#mf6872e4fd1" x="408.259488" y="402.565145" style="stroke: #000000; stroke-width: 0.8"/>
      </g>
     </g>
     <g id="text_56">
      <!-- 10000 -->
      <g transform="translate(392.353238 417.163582) scale(0.1 -0.1)">
       <use xlink:href="#DejaVuSans-31"/>
       <use xlink:href="#DejaVuSans-30" x="63.623047"/>
       <use xlink:href="#DejaVuSans-30" x="127.246094"/>
       <use xlink:href="#DejaVuSans-30" x="190.869141"/>
       <use xlink:href="#DejaVuSans-30" x="254.492188"/>
      </g>
     </g>
    </g>
    <g id="xtick_26">
     <g id="line2d_51">
      <g>
       <use xlink:href="#mf6872e4fd1" x="443.84087" y="402.565145" style="stroke: #000000; stroke-width: 0.8"/>
      </g>
     </g>
     <g id="text_57">
      <!-- 20000 -->
      <g transform="translate(427.93462 417.163582) scale(0.1 -0.1)">
       <use xlink:href="#DejaVuSans-32"/>
       <use xlink:href="#DejaVuSans-30" x="63.623047"/>
       <use xlink:href="#DejaVuSans-30" x="127.246094"/>
       <use xlink:href="#DejaVuSans-30" x="190.869141"/>
       <use xlink:href="#DejaVuSans-30" x="254.492188"/>
      </g>
     </g>
    </g>
    <g id="xtick_27">
     <g id="line2d_52">
      <g>
       <use xlink:href="#mf6872e4fd1" x="479.422252" y="402.565145" style="stroke: #000000; stroke-width: 0.8"/>
      </g>
     </g>
     <g id="text_58">
      <!-- 30000 -->
      <g transform="translate(463.516002 417.163582) scale(0.1 -0.1)">
       <use xlink:href="#DejaVuSans-33"/>
       <use xlink:href="#DejaVuSans-30" x="63.623047"/>
       <use xlink:href="#DejaVuSans-30" x="127.246094"/>
       <use xlink:href="#DejaVuSans-30" x="190.869141"/>
       <use xlink:href="#DejaVuSans-30" x="254.492188"/>
      </g>
     </g>
    </g>
    <g id="xtick_28">
     <g id="line2d_53">
      <g>
       <use xlink:href="#mf6872e4fd1" x="515.003634" y="402.565145" style="stroke: #000000; stroke-width: 0.8"/>
      </g>
     </g>
     <g id="text_59">
      <!-- 40000 -->
      <g transform="translate(499.097384 417.163582) scale(0.1 -0.1)">
       <use xlink:href="#DejaVuSans-34"/>
       <use xlink:href="#DejaVuSans-30" x="63.623047"/>
       <use xlink:href="#DejaVuSans-30" x="127.246094"/>
       <use xlink:href="#DejaVuSans-30" x="190.869141"/>
       <use xlink:href="#DejaVuSans-30" x="254.492188"/>
      </g>
     </g>
    </g>
    <g id="xtick_29">
     <g id="line2d_54">
      <g>
       <use xlink:href="#mf6872e4fd1" x="550.585016" y="402.565145" style="stroke: #000000; stroke-width: 0.8"/>
      </g>
     </g>
     <g id="text_60">
      <!-- 50000 -->
      <g transform="translate(534.678766 417.163582) scale(0.1 -0.1)">
       <use xlink:href="#DejaVuSans-35"/>
       <use xlink:href="#DejaVuSans-30" x="63.623047"/>
       <use xlink:href="#DejaVuSans-30" x="127.246094"/>
       <use xlink:href="#DejaVuSans-30" x="190.869141"/>
       <use xlink:href="#DejaVuSans-30" x="254.492188"/>
      </g>
     </g>
    </g>
    <g id="xtick_30">
     <g id="line2d_55">
      <g>
       <use xlink:href="#mf6872e4fd1" x="586.166399" y="402.565145" style="stroke: #000000; stroke-width: 0.8"/>
      </g>
     </g>
     <g id="text_61">
      <!-- 60000 -->
      <g transform="translate(570.260149 417.163582) scale(0.1 -0.1)">
       <use xlink:href="#DejaVuSans-36"/>
       <use xlink:href="#DejaVuSans-30" x="63.623047"/>
       <use xlink:href="#DejaVuSans-30" x="127.246094"/>
       <use xlink:href="#DejaVuSans-30" x="190.869141"/>
       <use xlink:href="#DejaVuSans-30" x="254.492188"/>
      </g>
     </g>
    </g>
    <g id="xtick_31">
     <g id="line2d_56">
      <g>
       <use xlink:href="#mf6872e4fd1" x="621.747781" y="402.565145" style="stroke: #000000; stroke-width: 0.8"/>
      </g>
     </g>
     <g id="text_62">
      <!-- 70000 -->
      <g transform="translate(605.841531 417.163582) scale(0.1 -0.1)">
       <use xlink:href="#DejaVuSans-37"/>
       <use xlink:href="#DejaVuSans-30" x="63.623047"/>
       <use xlink:href="#DejaVuSans-30" x="127.246094"/>
       <use xlink:href="#DejaVuSans-30" x="190.869141"/>
       <use xlink:href="#DejaVuSans-30" x="254.492188"/>
      </g>
     </g>
    </g>
    <g id="text_63">
     <!-- event_time_offset [µs] -->
     <g transform="translate(443.69939 430.841707) scale(0.1 -0.1)">
      <use xlink:href="#DejaVuSans-65"/>
      <use xlink:href="#DejaVuSans-76" x="61.523438"/>
      <use xlink:href="#DejaVuSans-65" x="120.703125"/>
      <use xlink:href="#DejaVuSans-6e" x="182.226562"/>
      <use xlink:href="#DejaVuSans-74" x="245.605469"/>
      <use xlink:href="#DejaVuSans-5f" x="284.814453"/>
      <use xlink:href="#DejaVuSans-74" x="334.814453"/>
      <use xlink:href="#DejaVuSans-69" x="374.023438"/>
      <use xlink:href="#DejaVuSans-6d" x="401.806641"/>
      <use xlink:href="#DejaVuSans-65" x="499.21875"/>
      <use xlink:href="#DejaVuSans-5f" x="560.742188"/>
      <use xlink:href="#DejaVuSans-6f" x="610.742188"/>
      <use xlink:href="#DejaVuSans-66" x="671.923828"/>
      <use xlink:href="#DejaVuSans-66" x="707.128906"/>
      <use xlink:href="#DejaVuSans-73" x="742.333984"/>
      <use xlink:href="#DejaVuSans-65" x="794.433594"/>
      <use xlink:href="#DejaVuSans-74" x="855.957031"/>
      <use xlink:href="#DejaVuSans-20" x="895.166016"/>
      <use xlink:href="#DejaVuSans-5b" x="926.953125"/>
      <use xlink:href="#DejaVuSans-b5" x="965.966797"/>
      <use xlink:href="#DejaVuSans-73" x="1029.589844"/>
      <use xlink:href="#DejaVuSans-5d" x="1081.689453"/>
     </g>
    </g>
   </g>
   <g id="matplotlib.axis_8">
    <g id="ytick_20">
     <g id="line2d_57">
      <g>
       <use xlink:href="#m7f176de826" x="359.985114" y="395.099371" style="stroke: #000000; stroke-width: 0.8"/>
      </g>
     </g>
     <g id="text_64">
      <!-- 0 -->
      <g transform="translate(346.622614 398.89859) scale(0.1 -0.1)">
       <use xlink:href="#DejaVuSans-30"/>
      </g>
     </g>
    </g>
    <g id="ytick_21">
     <g id="line2d_58">
      <g>
       <use xlink:href="#m7f176de826" x="359.985114" y="374.069023" style="stroke: #000000; stroke-width: 0.8"/>
      </g>
     </g>
     <g id="text_65">
      <!-- 10 -->
      <g transform="translate(340.260114 377.868242) scale(0.1 -0.1)">
       <use xlink:href="#DejaVuSans-31"/>
       <use xlink:href="#DejaVuSans-30" x="63.623047"/>
      </g>
     </g>
    </g>
    <g id="ytick_22">
     <g id="line2d_59">
      <g>
       <use xlink:href="#m7f176de826" x="359.985114" y="353.038675" style="stroke: #000000; stroke-width: 0.8"/>
      </g>
     </g>
     <g id="text_66">
      <!-- 20 -->
      <g transform="translate(340.260114 356.837894) scale(0.1 -0.1)">
       <use xlink:href="#DejaVuSans-32"/>
       <use xlink:href="#DejaVuSans-30" x="63.623047"/>
      </g>
     </g>
    </g>
    <g id="ytick_23">
     <g id="line2d_60">
      <g>
       <use xlink:href="#m7f176de826" x="359.985114" y="332.008327" style="stroke: #000000; stroke-width: 0.8"/>
      </g>
     </g>
     <g id="text_67">
      <!-- 30 -->
      <g transform="translate(340.260114 335.807545) scale(0.1 -0.1)">
       <use xlink:href="#DejaVuSans-33"/>
       <use xlink:href="#DejaVuSans-30" x="63.623047"/>
      </g>
     </g>
    </g>
    <g id="ytick_24">
     <g id="line2d_61">
      <g>
       <use xlink:href="#m7f176de826" x="359.985114" y="310.977978" style="stroke: #000000; stroke-width: 0.8"/>
      </g>
     </g>
     <g id="text_68">
      <!-- 40 -->
      <g transform="translate(340.260114 314.777197) scale(0.1 -0.1)">
       <use xlink:href="#DejaVuSans-34"/>
       <use xlink:href="#DejaVuSans-30" x="63.623047"/>
      </g>
     </g>
    </g>
    <g id="ytick_25">
     <g id="line2d_62">
      <g>
       <use xlink:href="#m7f176de826" x="359.985114" y="289.94763" style="stroke: #000000; stroke-width: 0.8"/>
      </g>
     </g>
     <g id="text_69">
      <!-- 50 -->
      <g transform="translate(340.260114 293.746849) scale(0.1 -0.1)">
       <use xlink:href="#DejaVuSans-35"/>
       <use xlink:href="#DejaVuSans-30" x="63.623047"/>
      </g>
     </g>
    </g>
    <g id="ytick_26">
     <g id="line2d_63">
      <g>
       <use xlink:href="#m7f176de826" x="359.985114" y="268.917282" style="stroke: #000000; stroke-width: 0.8"/>
      </g>
     </g>
     <g id="text_70">
      <!-- 60 -->
      <g transform="translate(340.260114 272.7165) scale(0.1 -0.1)">
       <use xlink:href="#DejaVuSans-36"/>
       <use xlink:href="#DejaVuSans-30" x="63.623047"/>
      </g>
     </g>
    </g>
    <g id="ytick_27">
     <g id="line2d_64">
      <g>
       <use xlink:href="#m7f176de826" x="359.985114" y="247.886933" style="stroke: #000000; stroke-width: 0.8"/>
      </g>
     </g>
     <g id="text_71">
      <!-- 70 -->
      <g transform="translate(340.260114 251.686152) scale(0.1 -0.1)">
       <use xlink:href="#DejaVuSans-37"/>
       <use xlink:href="#DejaVuSans-30" x="63.623047"/>
      </g>
     </g>
    </g>
    <g id="text_72">
     <!-- [counts] -->
     <g transform="translate(334.180427 341.054135) rotate(-90) scale(0.1 -0.1)">
      <use xlink:href="#DejaVuSans-5b"/>
      <use xlink:href="#DejaVuSans-63" x="39.013672"/>
      <use xlink:href="#DejaVuSans-6f" x="93.994141"/>
      <use xlink:href="#DejaVuSans-75" x="155.175781"/>
      <use xlink:href="#DejaVuSans-6e" x="218.554688"/>
      <use xlink:href="#DejaVuSans-74" x="281.933594"/>
      <use xlink:href="#DejaVuSans-73" x="321.142578"/>
      <use xlink:href="#DejaVuSans-5d" x="373.242188"/>
     </g>
    </g>
   </g>
   <g id="line2d_65">
    <path d="M 485.105127 402.565145 
L 485.105127 238.318125 
" clip-path="url(#p8e70e21948)" style="fill: none; stroke-dasharray: 7.4,3.2; stroke-dashoffset: 0; stroke: #ff00ff; stroke-width: 2"/>
   </g>
   <g id="patch_18">
    <path d="M 359.985114 402.565145 
L 359.985114 238.318125 
" style="fill: none; stroke: #000000; stroke-width: 0.8; stroke-linejoin: miter; stroke-linecap: square"/>
   </g>
   <g id="patch_19">
    <path d="M 639.483978 402.565145 
L 639.483978 238.318125 
" style="fill: none; stroke: #000000; stroke-width: 0.8; stroke-linejoin: miter; stroke-linecap: square"/>
   </g>
   <g id="patch_20">
    <path d="M 359.985114 402.565145 
L 639.483978 402.565145 
" style="fill: none; stroke: #000000; stroke-width: 0.8; stroke-linejoin: miter; stroke-linecap: square"/>
   </g>
   <g id="patch_21">
    <path d="M 359.985114 238.318125 
L 639.483978 238.318125 
" style="fill: none; stroke: #000000; stroke-width: 0.8; stroke-linejoin: miter; stroke-linecap: square"/>
   </g>
   <g id="text_73">
    <!-- pivot time -->
    <g style="fill: #ff00ff" transform="translate(492.703565 355.118362) rotate(-90) scale(0.1 -0.1)">
     <use xlink:href="#DejaVuSans-70"/>
     <use xlink:href="#DejaVuSans-69" x="63.476562"/>
     <use xlink:href="#DejaVuSans-76" x="91.259766"/>
     <use xlink:href="#DejaVuSans-6f" x="150.439453"/>
     <use xlink:href="#DejaVuSans-74" x="211.621094"/>
     <use xlink:href="#DejaVuSans-20" x="250.830078"/>
     <use xlink:href="#DejaVuSans-74" x="282.617188"/>
     <use xlink:href="#DejaVuSans-69" x="321.826172"/>
     <use xlink:href="#DejaVuSans-6d" x="349.609375"/>
     <use xlink:href="#DejaVuSans-65" x="447.021484"/>
    </g>
   </g>
   <g id="text_74">
    <!-- detector=108.0 m -->
    <g transform="translate(444.444546 232.318125) scale(0.12 -0.12)">
     <defs>
      <path id="DejaVuSans-64" d="M 2906 2969 
L 2906 4863 
L 3481 4863 
L 3481 0 
L 2906 0 
L 2906 525 
Q 2725 213 2448 61 
Q 2172 -91 1784 -91 
Q 1150 -91 751 415 
Q 353 922 353 1747 
Q 353 2572 751 3078 
Q 1150 3584 1784 3584 
Q 2172 3584 2448 3432 
Q 2725 3281 2906 2969 
z
M 947 1747 
Q 947 1113 1208 752 
Q 1469 391 1925 391 
Q 2381 391 2643 752 
Q 2906 1113 2906 1747 
Q 2906 2381 2643 2742 
Q 2381 3103 1925 3103 
Q 1469 3103 1208 2742 
Q 947 2381 947 1747 
z
" transform="scale(0.015625)"/>
     </defs>
     <use xlink:href="#DejaVuSans-64"/>
     <use xlink:href="#DejaVuSans-65" x="63.476562"/>
     <use xlink:href="#DejaVuSans-74" x="125"/>
     <use xlink:href="#DejaVuSans-65" x="164.208984"/>
     <use xlink:href="#DejaVuSans-63" x="225.732422"/>
     <use xlink:href="#DejaVuSans-74" x="280.712891"/>
     <use xlink:href="#DejaVuSans-6f" x="319.921875"/>
     <use xlink:href="#DejaVuSans-72" x="381.103516"/>
     <use xlink:href="#DejaVuSans-3d" x="422.216797"/>
     <use xlink:href="#DejaVuSans-31" x="506.005859"/>
     <use xlink:href="#DejaVuSans-30" x="569.628906"/>
     <use xlink:href="#DejaVuSans-38" x="633.251953"/>
     <use xlink:href="#DejaVuSans-2e" x="696.875"/>
     <use xlink:href="#DejaVuSans-30" x="728.662109"/>
     <use xlink:href="#DejaVuSans-20" x="792.285156"/>
     <use xlink:href="#DejaVuSans-6d" x="824.072266"/>
    </g>
   </g>
   <g id="line2d_66">
    <path d="M 372.689608 323.596187 
L 373.960057 323.596187 
L 373.960057 336.214396 
L 375.230507 336.214396 
L 375.230507 325.699222 
L 376.500956 325.699222 
L 376.500956 310.977978 
L 377.771405 310.977978 
L 377.771405 285.74156 
L 379.041855 285.74156 
L 379.041855 319.390118 
L 380.312304 319.390118 
L 380.312304 275.226386 
L 381.582754 275.226386 
L 381.582754 329.905292 
L 382.853203 329.905292 
L 382.853203 336.214396 
L 384.123652 336.214396 
L 384.123652 277.329421 
L 385.394102 277.329421 
L 385.394102 304.668874 
L 386.664551 304.668874 
L 386.664551 315.184048 
L 387.935 315.184048 
L 387.935 325.699222 
L 389.20545 325.699222 
L 389.20545 302.565839 
L 390.475899 302.565839 
L 390.475899 327.802257 
L 391.746349 327.802257 
L 391.746349 319.390118 
L 393.016798 319.390118 
L 393.016798 332.008327 
L 394.287247 332.008327 
L 394.287247 313.081013 
L 395.557697 313.081013 
L 395.557697 300.462804 
L 396.828146 300.462804 
L 396.828146 338.317431 
L 398.098596 338.317431 
L 398.098596 302.565839 
L 399.369045 302.565839 
L 399.369045 340.420466 
L 400.639494 340.420466 
L 400.639494 323.596187 
L 401.909944 323.596187 
L 401.909944 308.874943 
L 403.180393 308.874943 
L 403.180393 334.111361 
L 404.450842 334.111361 
L 404.450842 338.317431 
L 405.721292 338.317431 
L 405.721292 329.905292 
L 406.991741 329.905292 
L 406.991741 334.111361 
L 408.262191 334.111361 
L 408.262191 332.008327 
L 409.53264 332.008327 
L 409.53264 334.111361 
L 412.073539 334.111361 
L 412.073539 342.523501 
L 414.614438 342.523501 
L 414.614438 340.420466 
L 417.155336 340.420466 
L 417.155336 346.72957 
L 418.425786 346.72957 
L 418.425786 344.626536 
L 419.696235 344.626536 
L 419.696235 361.450814 
L 420.966684 361.450814 
L 420.966684 353.038675 
L 422.237134 353.038675 
L 422.237134 369.862953 
L 423.507583 369.862953 
L 423.507583 367.759919 
L 426.048482 367.759919 
L 426.048482 378.275093 
L 427.318931 378.275093 
L 427.318931 384.584197 
L 428.589381 384.584197 
L 428.589381 382.481162 
L 429.85983 382.481162 
L 429.85983 386.687232 
L 431.130279 386.687232 
L 431.130279 369.862953 
L 432.400729 369.862953 
L 432.400729 376.172058 
L 433.671178 376.172058 
L 433.671178 388.790267 
L 434.941628 388.790267 
L 434.941628 386.687232 
L 436.212077 386.687232 
L 436.212077 382.481162 
L 437.482526 382.481162 
L 437.482526 386.687232 
L 438.752976 386.687232 
L 438.752976 390.893302 
L 440.023425 390.893302 
L 440.023425 388.790267 
L 441.293875 388.790267 
L 441.293875 392.996337 
L 443.834773 392.996337 
L 443.834773 395.099371 
L 446.375672 395.099371 
L 446.375672 392.996337 
L 447.646121 392.996337 
L 447.646121 395.099371 
L 484.489154 395.099371 
L 484.489154 388.790267 
L 485.759603 388.790267 
L 485.759603 395.099371 
L 488.300502 395.099371 
L 488.300502 392.996337 
L 490.8414 392.996337 
L 490.8414 395.099371 
L 492.11185 395.099371 
L 492.11185 392.996337 
L 493.382299 392.996337 
L 493.382299 390.893302 
L 495.923198 390.893302 
L 495.923198 395.099371 
L 499.734546 395.099371 
L 499.734546 388.790267 
L 501.004995 388.790267 
L 501.004995 386.687232 
L 502.275445 386.687232 
L 502.275445 388.790267 
L 503.545894 388.790267 
L 503.545894 395.099371 
L 504.816344 395.099371 
L 504.816344 386.687232 
L 506.086793 386.687232 
L 506.086793 392.996337 
L 507.357242 392.996337 
L 507.357242 388.790267 
L 508.627692 388.790267 
L 508.627692 386.687232 
L 509.898141 386.687232 
L 509.898141 392.996337 
L 511.168591 392.996337 
L 511.168591 390.893302 
L 512.43904 390.893302 
L 512.43904 386.687232 
L 513.709489 386.687232 
L 513.709489 390.893302 
L 514.979939 390.893302 
L 514.979939 392.996337 
L 516.250388 392.996337 
L 516.250388 390.893302 
L 517.520837 390.893302 
L 517.520837 392.996337 
L 518.791287 392.996337 
L 518.791287 382.481162 
L 520.061736 382.481162 
L 520.061736 388.790267 
L 521.332186 388.790267 
L 521.332186 386.687232 
L 522.602635 386.687232 
L 522.602635 384.584197 
L 523.873084 384.584197 
L 523.873084 382.481162 
L 526.413983 382.481162 
L 526.413983 374.069023 
L 528.954882 374.069023 
L 528.954882 388.790267 
L 530.225331 388.790267 
L 530.225331 380.378128 
L 532.76623 380.378128 
L 532.76623 374.069023 
L 534.036679 374.069023 
L 534.036679 359.347779 
L 535.307129 359.347779 
L 535.307129 365.656884 
L 537.848028 365.656884 
L 537.848028 353.038675 
L 539.118477 353.038675 
L 539.118477 376.172058 
L 540.388926 376.172058 
L 540.388926 365.656884 
L 541.659376 365.656884 
L 541.659376 344.626536 
L 542.929825 344.626536 
L 542.929825 336.214396 
L 544.200274 336.214396 
L 544.200274 346.72957 
L 545.470724 346.72957 
L 545.470724 353.038675 
L 546.741173 353.038675 
L 546.741173 338.317431 
L 548.011623 338.317431 
L 548.011623 329.905292 
L 549.282072 329.905292 
L 549.282072 304.668874 
L 550.552521 304.668874 
L 550.552521 308.874943 
L 551.822971 308.874943 
L 551.822971 315.184048 
L 553.09342 315.184048 
L 553.09342 298.359769 
L 554.36387 298.359769 
L 554.36387 306.771909 
L 555.634319 306.771909 
L 555.634319 296.256734 
L 556.904768 296.256734 
L 556.904768 300.462804 
L 558.175218 300.462804 
L 558.175218 294.1537 
L 559.445667 294.1537 
L 559.445667 283.638526 
L 560.716116 283.638526 
L 560.716116 279.432456 
L 561.986566 279.432456 
L 561.986566 285.74156 
L 563.257015 285.74156 
L 563.257015 245.783899 
L 564.527465 245.783899 
L 564.527465 268.917282 
L 565.797914 268.917282 
L 565.797914 285.74156 
L 567.068363 285.74156 
L 567.068363 258.402108 
L 568.338813 258.402108 
L 568.338813 266.814247 
L 570.879712 266.814247 
L 570.879712 268.917282 
L 572.150161 268.917282 
L 572.150161 277.329421 
L 573.42061 277.329421 
L 573.42061 262.608177 
L 575.961509 262.608177 
L 575.961509 281.535491 
L 577.231958 281.535491 
L 577.231958 279.432456 
L 578.502408 279.432456 
L 578.502408 277.329421 
L 579.772857 277.329421 
L 579.772857 260.505142 
L 581.043307 260.505142 
L 581.043307 275.226386 
L 582.313756 275.226386 
L 582.313756 302.565839 
L 583.584205 302.565839 
L 583.584205 266.814247 
L 584.854655 266.814247 
L 584.854655 283.638526 
L 586.125104 283.638526 
L 586.125104 264.711212 
L 587.395553 264.711212 
L 587.395553 271.020317 
L 588.666003 271.020317 
L 588.666003 289.94763 
L 589.936452 289.94763 
L 589.936452 300.462804 
L 591.206902 300.462804 
L 591.206902 292.050665 
L 592.477351 292.050665 
L 592.477351 304.668874 
L 593.7478 304.668874 
L 593.7478 300.462804 
L 595.01825 300.462804 
L 595.01825 264.711212 
L 596.288699 264.711212 
L 596.288699 281.535491 
L 597.559149 281.535491 
L 597.559149 279.432456 
L 598.829598 279.432456 
L 598.829598 315.184048 
L 600.100047 315.184048 
L 600.100047 310.977978 
L 601.370497 310.977978 
L 601.370497 277.329421 
L 602.640946 277.329421 
L 602.640946 283.638526 
L 603.911395 283.638526 
L 603.911395 285.74156 
L 605.181845 285.74156 
L 605.181845 321.493152 
L 606.452294 321.493152 
L 606.452294 279.432456 
L 607.722744 279.432456 
L 607.722744 281.535491 
L 608.993193 281.535491 
L 608.993193 308.874943 
L 611.534092 308.874943 
L 611.534092 296.256734 
L 612.804541 296.256734 
L 612.804541 292.050665 
L 616.615889 292.050665 
L 616.615889 279.432456 
L 617.886339 279.432456 
L 617.886339 329.905292 
L 619.156788 329.905292 
L 619.156788 285.74156 
L 620.427237 285.74156 
L 620.427237 292.050665 
L 621.697687 292.050665 
L 621.697687 317.287083 
L 622.968136 317.287083 
L 622.968136 310.977978 
L 624.238586 310.977978 
L 624.238586 294.1537 
L 625.509035 294.1537 
L 625.509035 296.256734 
L 626.779484 296.256734 
L 626.779484 296.256734 
" clip-path="url(#p8e70e21948)" style="fill: none; stroke: #d62728; stroke-width: 1.5; stroke-linecap: square"/>
   </g>
  </g>
 </g>
 <defs>
  <clipPath id="p54952db7d1">
   <rect x="40.603125" y="22.318125" width="279.498864" height="164.24702"/>
  </clipPath>
  <clipPath id="pe76f00a8e2">
   <rect x="359.985114" y="22.318125" width="279.498864" height="164.24702"/>
  </clipPath>
  <clipPath id="p11e3a497be">
   <rect x="40.603125" y="238.318125" width="279.498864" height="164.24702"/>
  </clipPath>
  <clipPath id="p8e70e21948">
   <rect x="359.985114" y="238.318125" width="279.498864" height="164.24702"/>
  </clipPath>
 </defs>
</svg>
