<?xml version="1.0" encoding="utf-8" standalone="no"?>
<!DOCTYPE svg PUBLIC "-//W3C//DTD SVG 1.1//EN"
  "http://www.w3.org/Graphics/SVG/1.1/DTD/svg11.dtd">
<svg xmlns:xlink="http://www.w3.org/1999/xlink" width="395.328125pt" height="268.200625pt" viewBox="0 0 395.328125 268.200625" xmlns="http://www.w3.org/2000/svg" version="1.1">
 <metadata>
  <rdf:RDF xmlns:dc="http://purl.org/dc/elements/1.1/" xmlns:cc="http://creativecommons.org/ns#" xmlns:rdf="http://www.w3.org/1999/02/22-rdf-syntax-ns#">
   <cc:Work>
    <dc:type rdf:resource="http://purl.org/dc/dcmitype/StillImage"/>
    <dc:date>2025-01-20T13:49:52.066807</dc:date>
    <dc:format>image/svg+xml</dc:format>
    <dc:creator>
     <cc:Agent>
      <dc:title>Matplotlib v3.7.3, https://matplotlib.org/</dc:title>
     </cc:Agent>
    </dc:creator>
   </cc:Work>
  </rdf:RDF>
 </metadata>
 <defs>
  <style type="text/css">*{stroke-linejoin: round; stroke-linecap: butt}</style>
 </defs>
 <g id="figure_1">
  <g id="patch_1">
   <path d="M 0 268.200625 
L 395.328125 268.200625 
L 395.328125 0 
L 0 0 
z
" style="fill: #ffffff"/>
  </g>
  <g id="axes_1">
   <g id="patch_2">
    <path d="M 53.328125 228.96 
L 388.128125 228.96 
L 388.128125 7.2 
L 53.328125 7.2 
z
" style="fill: #ffffff"/>
   </g>
   <g id="matplotlib.axis_1">
    <g id="xtick_1">
     <g id="line2d_1">
      <defs>
       <path id="me71586acfe" d="M 0 0 
L 0 3.5 
" style="stroke: #000000; stroke-width: 0.8"/>
      </defs>
      <g>
       <use xlink:href="#me71586acfe" x="68.546307" y="228.96" style="stroke: #000000; stroke-width: 0.8"/>
      </g>
     </g>
     <g id="text_1">
      <!-- 1 -->
      <g transform="translate(65.365057 243.558437) scale(0.1 -0.1)">
       <defs>
        <path id="DejaVuSans-31" d="M 794 531 
L 1825 531 
L 1825 4091 
L 703 3866 
L 703 4441 
L 1819 4666 
L 2450 4666 
L 2450 531 
L 3481 531 
L 3481 0 
L 794 0 
L 794 531 
z
" transform="scale(0.015625)"/>
       </defs>
       <use xlink:href="#DejaVuSans-31"/>
      </g>
     </g>
    </g>
    <g id="xtick_2">
     <g id="line2d_2">
      <g>
       <use xlink:href="#me71586acfe" x="112.026826" y="228.96" style="stroke: #000000; stroke-width: 0.8"/>
      </g>
     </g>
     <g id="text_2">
      <!-- 2 -->
      <g transform="translate(108.845576 243.558437) scale(0.1 -0.1)">
       <defs>
        <path id="DejaVuSans-32" d="M 1228 531 
L 3431 531 
L 3431 0 
L 469 0 
L 469 531 
Q 828 903 1448 1529 
Q 2069 2156 2228 2338 
Q 2531 2678 2651 2914 
Q 2772 3150 2772 3378 
Q 2772 3750 2511 3984 
Q 2250 4219 1831 4219 
Q 1534 4219 1204 4116 
Q 875 4013 500 3803 
L 500 4441 
Q 881 4594 1212 4672 
Q 1544 4750 1819 4750 
Q 2544 4750 2975 4387 
Q 3406 4025 3406 3419 
Q 3406 3131 3298 2873 
Q 3191 2616 2906 2266 
Q 2828 2175 2409 1742 
Q 1991 1309 1228 531 
z
" transform="scale(0.015625)"/>
       </defs>
       <use xlink:href="#DejaVuSans-32"/>
      </g>
     </g>
    </g>
    <g id="xtick_3">
     <g id="line2d_3">
      <g>
       <use xlink:href="#me71586acfe" x="155.507346" y="228.96" style="stroke: #000000; stroke-width: 0.8"/>
      </g>
     </g>
     <g id="text_3">
      <!-- 3 -->
      <g transform="translate(152.326096 243.558437) scale(0.1 -0.1)">
       <defs>
        <path id="DejaVuSans-33" d="M 2597 2516 
Q 3050 2419 3304 2112 
Q 3559 1806 3559 1356 
Q 3559 666 3084 287 
Q 2609 -91 1734 -91 
Q 1441 -91 1130 -33 
Q 819 25 488 141 
L 488 750 
Q 750 597 1062 519 
Q 1375 441 1716 441 
Q 2309 441 2620 675 
Q 2931 909 2931 1356 
Q 2931 1769 2642 2001 
Q 2353 2234 1838 2234 
L 1294 2234 
L 1294 2753 
L 1863 2753 
Q 2328 2753 2575 2939 
Q 2822 3125 2822 3475 
Q 2822 3834 2567 4026 
Q 2313 4219 1838 4219 
Q 1578 4219 1281 4162 
Q 984 4106 628 3988 
L 628 4550 
Q 988 4650 1302 4700 
Q 1616 4750 1894 4750 
Q 2613 4750 3031 4423 
Q 3450 4097 3450 3541 
Q 3450 3153 3228 2886 
Q 3006 2619 2597 2516 
z
" transform="scale(0.015625)"/>
       </defs>
       <use xlink:href="#DejaVuSans-33"/>
      </g>
     </g>
    </g>
    <g id="xtick_4">
     <g id="line2d_4">
      <g>
       <use xlink:href="#me71586acfe" x="198.987865" y="228.96" style="stroke: #000000; stroke-width: 0.8"/>
      </g>
     </g>
     <g id="text_4">
      <!-- 4 -->
      <g transform="translate(195.806615 243.558437) scale(0.1 -0.1)">
       <defs>
        <path id="DejaVuSans-34" d="M 2419 4116 
L 825 1625 
L 2419 1625 
L 2419 4116 
z
M 2253 4666 
L 3047 4666 
L 3047 1625 
L 3713 1625 
L 3713 1100 
L 3047 1100 
L 3047 0 
L 2419 0 
L 2419 1100 
L 313 1100 
L 313 1709 
L 2253 4666 
z
" transform="scale(0.015625)"/>
       </defs>
       <use xlink:href="#DejaVuSans-34"/>
      </g>
     </g>
    </g>
    <g id="xtick_5">
     <g id="line2d_5">
      <g>
       <use xlink:href="#me71586acfe" x="242.468385" y="228.96" style="stroke: #000000; stroke-width: 0.8"/>
      </g>
     </g>
     <g id="text_5">
      <!-- 5 -->
      <g transform="translate(239.287135 243.558437) scale(0.1 -0.1)">
       <defs>
        <path id="DejaVuSans-35" d="M 691 4666 
L 3169 4666 
L 3169 4134 
L 1269 4134 
L 1269 2991 
Q 1406 3038 1543 3061 
Q 1681 3084 1819 3084 
Q 2600 3084 3056 2656 
Q 3513 2228 3513 1497 
Q 3513 744 3044 326 
Q 2575 -91 1722 -91 
Q 1428 -91 1123 -41 
Q 819 9 494 109 
L 494 744 
Q 775 591 1075 516 
Q 1375 441 1709 441 
Q 2250 441 2565 725 
Q 2881 1009 2881 1497 
Q 2881 1984 2565 2268 
Q 2250 2553 1709 2553 
Q 1456 2553 1204 2497 
Q 953 2441 691 2322 
L 691 4666 
z
" transform="scale(0.015625)"/>
       </defs>
       <use xlink:href="#DejaVuSans-35"/>
      </g>
     </g>
    </g>
    <g id="xtick_6">
     <g id="line2d_6">
      <g>
       <use xlink:href="#me71586acfe" x="285.948904" y="228.96" style="stroke: #000000; stroke-width: 0.8"/>
      </g>
     </g>
     <g id="text_6">
      <!-- 6 -->
      <g transform="translate(282.767654 243.558437) scale(0.1 -0.1)">
       <defs>
        <path id="DejaVuSans-36" d="M 2113 2584 
Q 1688 2584 1439 2293 
Q 1191 2003 1191 1497 
Q 1191 994 1439 701 
Q 1688 409 2113 409 
Q 2538 409 2786 701 
Q 3034 994 3034 1497 
Q 3034 2003 2786 2293 
Q 2538 2584 2113 2584 
z
M 3366 4563 
L 3366 3988 
Q 3128 4100 2886 4159 
Q 2644 4219 2406 4219 
Q 1781 4219 1451 3797 
Q 1122 3375 1075 2522 
Q 1259 2794 1537 2939 
Q 1816 3084 2150 3084 
Q 2853 3084 3261 2657 
Q 3669 2231 3669 1497 
Q 3669 778 3244 343 
Q 2819 -91 2113 -91 
Q 1303 -91 875 529 
Q 447 1150 447 2328 
Q 447 3434 972 4092 
Q 1497 4750 2381 4750 
Q 2619 4750 2861 4703 
Q 3103 4656 3366 4563 
z
" transform="scale(0.015625)"/>
       </defs>
       <use xlink:href="#DejaVuSans-36"/>
      </g>
     </g>
    </g>
    <g id="xtick_7">
     <g id="line2d_7">
      <g>
       <use xlink:href="#me71586acfe" x="329.429424" y="228.96" style="stroke: #000000; stroke-width: 0.8"/>
      </g>
     </g>
     <g id="text_7">
      <!-- 7 -->
      <g transform="translate(326.248174 243.558437) scale(0.1 -0.1)">
       <defs>
        <path id="DejaVuSans-37" d="M 525 4666 
L 3525 4666 
L 3525 4397 
L 1831 0 
L 1172 0 
L 2766 4134 
L 525 4134 
L 525 4666 
z
" transform="scale(0.015625)"/>
       </defs>
       <use xlink:href="#DejaVuSans-37"/>
      </g>
     </g>
    </g>
    <g id="xtick_8">
     <g id="line2d_8">
      <g>
       <use xlink:href="#me71586acfe" x="372.909943" y="228.96" style="stroke: #000000; stroke-width: 0.8"/>
      </g>
     </g>
     <g id="text_8">
      <!-- 8 -->
      <g transform="translate(369.728693 243.558437) scale(0.1 -0.1)">
       <defs>
        <path id="DejaVuSans-38" d="M 2034 2216 
Q 1584 2216 1326 1975 
Q 1069 1734 1069 1313 
Q 1069 891 1326 650 
Q 1584 409 2034 409 
Q 2484 409 2743 651 
Q 3003 894 3003 1313 
Q 3003 1734 2745 1975 
Q 2488 2216 2034 2216 
z
M 1403 2484 
Q 997 2584 770 2862 
Q 544 3141 544 3541 
Q 544 4100 942 4425 
Q 1341 4750 2034 4750 
Q 2731 4750 3128 4425 
Q 3525 4100 3525 3541 
Q 3525 3141 3298 2862 
Q 3072 2584 2669 2484 
Q 3125 2378 3379 2068 
Q 3634 1759 3634 1313 
Q 3634 634 3220 271 
Q 2806 -91 2034 -91 
Q 1263 -91 848 271 
Q 434 634 434 1313 
Q 434 1759 690 2068 
Q 947 2378 1403 2484 
z
M 1172 3481 
Q 1172 3119 1398 2916 
Q 1625 2713 2034 2713 
Q 2441 2713 2670 2916 
Q 2900 3119 2900 3481 
Q 2900 3844 2670 4047 
Q 2441 4250 2034 4250 
Q 1625 4250 1398 4047 
Q 1172 3844 1172 3481 
z
" transform="scale(0.015625)"/>
       </defs>
       <use xlink:href="#DejaVuSans-38"/>
      </g>
     </g>
    </g>
    <g id="text_9">
     <!-- wavelength [Å] -->
     <g transform="translate(182.690625 258.920937) scale(0.1 -0.1)">
      <defs>
       <path id="DejaVuSans-77" d="M 269 3500 
L 844 3500 
L 1563 769 
L 2278 3500 
L 2956 3500 
L 3675 769 
L 4391 3500 
L 4966 3500 
L 4050 0 
L 3372 0 
L 2619 2869 
L 1863 0 
L 1184 0 
L 269 3500 
z
" transform="scale(0.015625)"/>
       <path id="DejaVuSans-61" d="M 2194 1759 
Q 1497 1759 1228 1600 
Q 959 1441 959 1056 
Q 959 750 1161 570 
Q 1363 391 1709 391 
Q 2188 391 2477 730 
Q 2766 1069 2766 1631 
L 2766 1759 
L 2194 1759 
z
M 3341 1997 
L 3341 0 
L 2766 0 
L 2766 531 
Q 2569 213 2275 61 
Q 1981 -91 1556 -91 
Q 1019 -91 701 211 
Q 384 513 384 1019 
Q 384 1609 779 1909 
Q 1175 2209 1959 2209 
L 2766 2209 
L 2766 2266 
Q 2766 2663 2505 2880 
Q 2244 3097 1772 3097 
Q 1472 3097 1187 3025 
Q 903 2953 641 2809 
L 641 3341 
Q 956 3463 1253 3523 
Q 1550 3584 1831 3584 
Q 2591 3584 2966 3190 
Q 3341 2797 3341 1997 
z
" transform="scale(0.015625)"/>
       <path id="DejaVuSans-76" d="M 191 3500 
L 800 3500 
L 1894 563 
L 2988 3500 
L 3597 3500 
L 2284 0 
L 1503 0 
L 191 3500 
z
" transform="scale(0.015625)"/>
       <path id="DejaVuSans-65" d="M 3597 1894 
L 3597 1613 
L 953 1613 
Q 991 1019 1311 708 
Q 1631 397 2203 397 
Q 2534 397 2845 478 
Q 3156 559 3463 722 
L 3463 178 
Q 3153 47 2828 -22 
Q 2503 -91 2169 -91 
Q 1331 -91 842 396 
Q 353 884 353 1716 
Q 353 2575 817 3079 
Q 1281 3584 2069 3584 
Q 2775 3584 3186 3129 
Q 3597 2675 3597 1894 
z
M 3022 2063 
Q 3016 2534 2758 2815 
Q 2500 3097 2075 3097 
Q 1594 3097 1305 2825 
Q 1016 2553 972 2059 
L 3022 2063 
z
" transform="scale(0.015625)"/>
       <path id="DejaVuSans-6c" d="M 603 4863 
L 1178 4863 
L 1178 0 
L 603 0 
L 603 4863 
z
" transform="scale(0.015625)"/>
       <path id="DejaVuSans-6e" d="M 3513 2113 
L 3513 0 
L 2938 0 
L 2938 2094 
Q 2938 2591 2744 2837 
Q 2550 3084 2163 3084 
Q 1697 3084 1428 2787 
Q 1159 2491 1159 1978 
L 1159 0 
L 581 0 
L 581 3500 
L 1159 3500 
L 1159 2956 
Q 1366 3272 1645 3428 
Q 1925 3584 2291 3584 
Q 2894 3584 3203 3211 
Q 3513 2838 3513 2113 
z
" transform="scale(0.015625)"/>
       <path id="DejaVuSans-67" d="M 2906 1791 
Q 2906 2416 2648 2759 
Q 2391 3103 1925 3103 
Q 1463 3103 1205 2759 
Q 947 2416 947 1791 
Q 947 1169 1205 825 
Q 1463 481 1925 481 
Q 2391 481 2648 825 
Q 2906 1169 2906 1791 
z
M 3481 434 
Q 3481 -459 3084 -895 
Q 2688 -1331 1869 -1331 
Q 1566 -1331 1297 -1286 
Q 1028 -1241 775 -1147 
L 775 -588 
Q 1028 -725 1275 -790 
Q 1522 -856 1778 -856 
Q 2344 -856 2625 -561 
Q 2906 -266 2906 331 
L 2906 616 
Q 2728 306 2450 153 
Q 2172 0 1784 0 
Q 1141 0 747 490 
Q 353 981 353 1791 
Q 353 2603 747 3093 
Q 1141 3584 1784 3584 
Q 2172 3584 2450 3431 
Q 2728 3278 2906 2969 
L 2906 3500 
L 3481 3500 
L 3481 434 
z
" transform="scale(0.015625)"/>
       <path id="DejaVuSans-74" d="M 1172 4494 
L 1172 3500 
L 2356 3500 
L 2356 3053 
L 1172 3053 
L 1172 1153 
Q 1172 725 1289 603 
Q 1406 481 1766 481 
L 2356 481 
L 2356 0 
L 1766 0 
Q 1100 0 847 248 
Q 594 497 594 1153 
L 594 3053 
L 172 3053 
L 172 3500 
L 594 3500 
L 594 4494 
L 1172 4494 
z
" transform="scale(0.015625)"/>
       <path id="DejaVuSans-68" d="M 3513 2113 
L 3513 0 
L 2938 0 
L 2938 2094 
Q 2938 2591 2744 2837 
Q 2550 3084 2163 3084 
Q 1697 3084 1428 2787 
Q 1159 2491 1159 1978 
L 1159 0 
L 581 0 
L 581 4863 
L 1159 4863 
L 1159 2956 
Q 1366 3272 1645 3428 
Q 1925 3584 2291 3584 
Q 2894 3584 3203 3211 
Q 3513 2838 3513 2113 
z
" transform="scale(0.015625)"/>
       <path id="DejaVuSans-20" transform="scale(0.015625)"/>
       <path id="DejaVuSans-5b" d="M 550 4863 
L 1875 4863 
L 1875 4416 
L 1125 4416 
L 1125 -397 
L 1875 -397 
L 1875 -844 
L 550 -844 
L 550 4863 
z
" transform="scale(0.015625)"/>
       <path id="DejaVuSans-c5" d="M 2663 5081 
Q 2663 5278 2523 5417 
Q 2384 5556 2188 5556 
Q 1988 5556 1852 5420 
Q 1716 5284 1716 5081 
Q 1716 4884 1853 4746 
Q 1991 4609 2188 4609 
Q 2384 4609 2523 4746 
Q 2663 4884 2663 5081 
z
M 2188 4044 
L 1338 1722 
L 3041 1722 
L 2188 4044 
z
M 1716 4366 
Q 1525 4494 1428 4673 
Q 1331 4853 1331 5081 
Q 1331 5441 1579 5691 
Q 1828 5941 2188 5941 
Q 2544 5941 2795 5689 
Q 3047 5438 3047 5081 
Q 3047 4863 2948 4678 
Q 2850 4494 2663 4366 
L 4325 0 
L 3669 0 
L 3244 1197 
L 1141 1197 
L 716 0 
L 50 0 
L 1716 4366 
z
" transform="scale(0.015625)"/>
       <path id="DejaVuSans-5d" d="M 1947 4863 
L 1947 -844 
L 622 -844 
L 622 -397 
L 1369 -397 
L 1369 4416 
L 622 4416 
L 622 4863 
L 1947 4863 
z
" transform="scale(0.015625)"/>
      </defs>
      <use xlink:href="#DejaVuSans-77"/>
      <use xlink:href="#DejaVuSans-61" x="81.787109"/>
      <use xlink:href="#DejaVuSans-76" x="143.066406"/>
      <use xlink:href="#DejaVuSans-65" x="202.246094"/>
      <use xlink:href="#DejaVuSans-6c" x="263.769531"/>
      <use xlink:href="#DejaVuSans-65" x="291.552734"/>
      <use xlink:href="#DejaVuSans-6e" x="353.076172"/>
      <use xlink:href="#DejaVuSans-67" x="416.455078"/>
      <use xlink:href="#DejaVuSans-74" x="479.931641"/>
      <use xlink:href="#DejaVuSans-68" x="519.140625"/>
      <use xlink:href="#DejaVuSans-20" x="582.519531"/>
      <use xlink:href="#DejaVuSans-5b" x="614.306641"/>
      <use xlink:href="#DejaVuSans-c5" x="653.320312"/>
      <use xlink:href="#DejaVuSans-5d" x="721.728516"/>
     </g>
    </g>
   </g>
   <g id="matplotlib.axis_2">
    <g id="ytick_1">
     <g id="line2d_9">
      <defs>
       <path id="m6d094526f8" d="M 0 0 
L -3.5 0 
" style="stroke: #000000; stroke-width: 0.8"/>
      </defs>
      <g>
       <use xlink:href="#m6d094526f8" x="53.328125" y="218.88" style="stroke: #000000; stroke-width: 0.8"/>
      </g>
     </g>
     <g id="text_10">
      <!-- 0 -->
      <g transform="translate(39.965625 222.679219) scale(0.1 -0.1)">
       <defs>
        <path id="DejaVuSans-30" d="M 2034 4250 
Q 1547 4250 1301 3770 
Q 1056 3291 1056 2328 
Q 1056 1369 1301 889 
Q 1547 409 2034 409 
Q 2525 409 2770 889 
Q 3016 1369 3016 2328 
Q 3016 3291 2770 3770 
Q 2525 4250 2034 4250 
z
M 2034 4750 
Q 2819 4750 3233 4129 
Q 3647 3509 3647 2328 
Q 3647 1150 3233 529 
Q 2819 -91 2034 -91 
Q 1250 -91 836 529 
Q 422 1150 422 2328 
Q 422 3509 836 4129 
Q 1250 4750 2034 4750 
z
" transform="scale(0.015625)"/>
       </defs>
       <use xlink:href="#DejaVuSans-30"/>
      </g>
     </g>
    </g>
    <g id="ytick_2">
     <g id="line2d_10">
      <g>
       <use xlink:href="#m6d094526f8" x="53.328125" y="193.604173" style="stroke: #000000; stroke-width: 0.8"/>
      </g>
     </g>
     <g id="text_11">
      <!-- 250 -->
      <g transform="translate(27.240625 197.403391) scale(0.1 -0.1)">
       <use xlink:href="#DejaVuSans-32"/>
       <use xlink:href="#DejaVuSans-35" x="63.623047"/>
       <use xlink:href="#DejaVuSans-30" x="127.246094"/>
      </g>
     </g>
    </g>
    <g id="ytick_3">
     <g id="line2d_11">
      <g>
       <use xlink:href="#m6d094526f8" x="53.328125" y="168.328345" style="stroke: #000000; stroke-width: 0.8"/>
      </g>
     </g>
     <g id="text_12">
      <!-- 500 -->
      <g transform="translate(27.240625 172.127564) scale(0.1 -0.1)">
       <use xlink:href="#DejaVuSans-35"/>
       <use xlink:href="#DejaVuSans-30" x="63.623047"/>
       <use xlink:href="#DejaVuSans-30" x="127.246094"/>
      </g>
     </g>
    </g>
    <g id="ytick_4">
     <g id="line2d_12">
      <g>
       <use xlink:href="#m6d094526f8" x="53.328125" y="143.052518" style="stroke: #000000; stroke-width: 0.8"/>
      </g>
     </g>
     <g id="text_13">
      <!-- 750 -->
      <g transform="translate(27.240625 146.851736) scale(0.1 -0.1)">
       <use xlink:href="#DejaVuSans-37"/>
       <use xlink:href="#DejaVuSans-35" x="63.623047"/>
       <use xlink:href="#DejaVuSans-30" x="127.246094"/>
      </g>
     </g>
    </g>
    <g id="ytick_5">
     <g id="line2d_13">
      <g>
       <use xlink:href="#m6d094526f8" x="53.328125" y="117.77669" style="stroke: #000000; stroke-width: 0.8"/>
      </g>
     </g>
     <g id="text_14">
      <!-- 1000 -->
      <g transform="translate(20.878125 121.575909) scale(0.1 -0.1)">
       <use xlink:href="#DejaVuSans-31"/>
       <use xlink:href="#DejaVuSans-30" x="63.623047"/>
       <use xlink:href="#DejaVuSans-30" x="127.246094"/>
       <use xlink:href="#DejaVuSans-30" x="190.869141"/>
      </g>
     </g>
    </g>
    <g id="ytick_6">
     <g id="line2d_14">
      <g>
       <use xlink:href="#m6d094526f8" x="53.328125" y="92.500863" style="stroke: #000000; stroke-width: 0.8"/>
      </g>
     </g>
     <g id="text_15">
      <!-- 1250 -->
      <g transform="translate(20.878125 96.300081) scale(0.1 -0.1)">
       <use xlink:href="#DejaVuSans-31"/>
       <use xlink:href="#DejaVuSans-32" x="63.623047"/>
       <use xlink:href="#DejaVuSans-35" x="127.246094"/>
       <use xlink:href="#DejaVuSans-30" x="190.869141"/>
      </g>
     </g>
    </g>
    <g id="ytick_7">
     <g id="line2d_15">
      <g>
       <use xlink:href="#m6d094526f8" x="53.328125" y="67.225035" style="stroke: #000000; stroke-width: 0.8"/>
      </g>
     </g>
     <g id="text_16">
      <!-- 1500 -->
      <g transform="translate(20.878125 71.024254) scale(0.1 -0.1)">
       <use xlink:href="#DejaVuSans-31"/>
       <use xlink:href="#DejaVuSans-35" x="63.623047"/>
       <use xlink:href="#DejaVuSans-30" x="127.246094"/>
       <use xlink:href="#DejaVuSans-30" x="190.869141"/>
      </g>
     </g>
    </g>
    <g id="ytick_8">
     <g id="line2d_16">
      <g>
       <use xlink:href="#m6d094526f8" x="53.328125" y="41.949208" style="stroke: #000000; stroke-width: 0.8"/>
      </g>
     </g>
     <g id="text_17">
      <!-- 1750 -->
      <g transform="translate(20.878125 45.748426) scale(0.1 -0.1)">
       <use xlink:href="#DejaVuSans-31"/>
       <use xlink:href="#DejaVuSans-37" x="63.623047"/>
       <use xlink:href="#DejaVuSans-35" x="127.246094"/>
       <use xlink:href="#DejaVuSans-30" x="190.869141"/>
      </g>
     </g>
    </g>
    <g id="ytick_9">
     <g id="line2d_17">
      <g>
       <use xlink:href="#m6d094526f8" x="53.328125" y="16.67338" style="stroke: #000000; stroke-width: 0.8"/>
      </g>
     </g>
     <g id="text_18">
      <!-- 2000 -->
      <g transform="translate(20.878125 20.472599) scale(0.1 -0.1)">
       <use xlink:href="#DejaVuSans-32"/>
       <use xlink:href="#DejaVuSans-30" x="63.623047"/>
       <use xlink:href="#DejaVuSans-30" x="127.246094"/>
       <use xlink:href="#DejaVuSans-30" x="190.869141"/>
      </g>
     </g>
    </g>
    <g id="text_19">
     <!-- [counts] -->
     <g transform="translate(14.798438 138.6925) rotate(-90) scale(0.1 -0.1)">
      <defs>
       <path id="DejaVuSans-63" d="M 3122 3366 
L 3122 2828 
Q 2878 2963 2633 3030 
Q 2388 3097 2138 3097 
Q 1578 3097 1268 2742 
Q 959 2388 959 1747 
Q 959 1106 1268 751 
Q 1578 397 2138 397 
Q 2388 397 2633 464 
Q 2878 531 3122 666 
L 3122 134 
Q 2881 22 2623 -34 
Q 2366 -91 2075 -91 
Q 1284 -91 818 406 
Q 353 903 353 1747 
Q 353 2603 823 3093 
Q 1294 3584 2113 3584 
Q 2378 3584 2631 3529 
Q 2884 3475 3122 3366 
z
" transform="scale(0.015625)"/>
       <path id="DejaVuSans-6f" d="M 1959 3097 
Q 1497 3097 1228 2736 
Q 959 2375 959 1747 
Q 959 1119 1226 758 
Q 1494 397 1959 397 
Q 2419 397 2687 759 
Q 2956 1122 2956 1747 
Q 2956 2369 2687 2733 
Q 2419 3097 1959 3097 
z
M 1959 3584 
Q 2709 3584 3137 3096 
Q 3566 2609 3566 1747 
Q 3566 888 3137 398 
Q 2709 -91 1959 -91 
Q 1206 -91 779 398 
Q 353 888 353 1747 
Q 353 2609 779 3096 
Q 1206 3584 1959 3584 
z
" transform="scale(0.015625)"/>
       <path id="DejaVuSans-75" d="M 544 1381 
L 544 3500 
L 1119 3500 
L 1119 1403 
Q 1119 906 1312 657 
Q 1506 409 1894 409 
Q 2359 409 2629 706 
Q 2900 1003 2900 1516 
L 2900 3500 
L 3475 3500 
L 3475 0 
L 2900 0 
L 2900 538 
Q 2691 219 2414 64 
Q 2138 -91 1772 -91 
Q 1169 -91 856 284 
Q 544 659 544 1381 
z
M 1991 3584 
L 1991 3584 
z
" transform="scale(0.015625)"/>
       <path id="DejaVuSans-73" d="M 2834 3397 
L 2834 2853 
Q 2591 2978 2328 3040 
Q 2066 3103 1784 3103 
Q 1356 3103 1142 2972 
Q 928 2841 928 2578 
Q 928 2378 1081 2264 
Q 1234 2150 1697 2047 
L 1894 2003 
Q 2506 1872 2764 1633 
Q 3022 1394 3022 966 
Q 3022 478 2636 193 
Q 2250 -91 1575 -91 
Q 1294 -91 989 -36 
Q 684 19 347 128 
L 347 722 
Q 666 556 975 473 
Q 1284 391 1588 391 
Q 1994 391 2212 530 
Q 2431 669 2431 922 
Q 2431 1156 2273 1281 
Q 2116 1406 1581 1522 
L 1381 1569 
Q 847 1681 609 1914 
Q 372 2147 372 2553 
Q 372 3047 722 3315 
Q 1072 3584 1716 3584 
Q 2034 3584 2315 3537 
Q 2597 3491 2834 3397 
z
" transform="scale(0.015625)"/>
      </defs>
      <use xlink:href="#DejaVuSans-5b"/>
      <use xlink:href="#DejaVuSans-63" x="39.013672"/>
      <use xlink:href="#DejaVuSans-6f" x="93.994141"/>
      <use xlink:href="#DejaVuSans-75" x="155.175781"/>
      <use xlink:href="#DejaVuSans-6e" x="218.554688"/>
      <use xlink:href="#DejaVuSans-74" x="281.933594"/>
      <use xlink:href="#DejaVuSans-73" x="321.142578"/>
      <use xlink:href="#DejaVuSans-5d" x="373.242188"/>
     </g>
    </g>
   </g>
   <g id="patch_3">
    <path d="M 53.328125 228.96 
L 53.328125 7.2 
" style="fill: none; stroke: #000000; stroke-width: 0.8; stroke-linejoin: miter; stroke-linecap: square"/>
   </g>
   <g id="patch_4">
    <path d="M 388.128125 228.96 
L 388.128125 7.2 
" style="fill: none; stroke: #000000; stroke-width: 0.8; stroke-linejoin: miter; stroke-linecap: square"/>
   </g>
   <g id="patch_5">
    <path d="M 53.328125 228.96 
L 388.128125 228.96 
" style="fill: none; stroke: #000000; stroke-width: 0.8; stroke-linejoin: miter; stroke-linecap: square"/>
   </g>
   <g id="patch_6">
    <path d="M 53.328125 7.2 
L 388.128125 7.2 
" style="fill: none; stroke: #000000; stroke-width: 0.8; stroke-linejoin: miter; stroke-linecap: square"/>
   </g>
   <g id="legend_1">
    <g id="patch_7">
     <path d="M 306.904688 59.234375 
L 381.128125 59.234375 
Q 383.128125 59.234375 383.128125 57.234375 
L 383.128125 14.2 
Q 383.128125 12.2 381.128125 12.2 
L 306.904688 12.2 
Q 304.904688 12.2 304.904688 14.2 
L 304.904688 57.234375 
Q 304.904688 59.234375 306.904688 59.234375 
z
" style="fill: #ffffff; opacity: 0.8; stroke: #cccccc; stroke-linejoin: miter"/>
    </g>
    <g id="line2d_18">
     <path d="M 308.904688 20.298438 
L 308.904688 20.298438 
L 318.904688 20.298438 
L 318.904688 20.298438 
L 328.904688 20.298438 
" style="fill: none; stroke: #1f77b4; stroke-width: 1.5; stroke-linecap: square"/>
    </g>
    <g id="text_20">
     <!-- monitor -->
     <g transform="translate(336.904688 23.798438) scale(0.1 -0.1)">
      <defs>
       <path id="DejaVuSans-6d" d="M 3328 2828 
Q 3544 3216 3844 3400 
Q 4144 3584 4550 3584 
Q 5097 3584 5394 3201 
Q 5691 2819 5691 2113 
L 5691 0 
L 5113 0 
L 5113 2094 
Q 5113 2597 4934 2840 
Q 4756 3084 4391 3084 
Q 3944 3084 3684 2787 
Q 3425 2491 3425 1978 
L 3425 0 
L 2847 0 
L 2847 2094 
Q 2847 2600 2669 2842 
Q 2491 3084 2119 3084 
Q 1678 3084 1418 2786 
Q 1159 2488 1159 1978 
L 1159 0 
L 581 0 
L 581 3500 
L 1159 3500 
L 1159 2956 
Q 1356 3278 1631 3431 
Q 1906 3584 2284 3584 
Q 2666 3584 2933 3390 
Q 3200 3197 3328 2828 
z
" transform="scale(0.015625)"/>
       <path id="DejaVuSans-69" d="M 603 3500 
L 1178 3500 
L 1178 0 
L 603 0 
L 603 3500 
z
M 603 4863 
L 1178 4863 
L 1178 4134 
L 603 4134 
L 603 4863 
z
" transform="scale(0.015625)"/>
       <path id="DejaVuSans-72" d="M 2631 2963 
Q 2534 3019 2420 3045 
Q 2306 3072 2169 3072 
Q 1681 3072 1420 2755 
Q 1159 2438 1159 1844 
L 1159 0 
L 581 0 
L 581 3500 
L 1159 3500 
L 1159 2956 
Q 1341 3275 1631 3429 
Q 1922 3584 2338 3584 
Q 2397 3584 2469 3576 
Q 2541 3569 2628 3553 
L 2631 2963 
z
" transform="scale(0.015625)"/>
      </defs>
      <use xlink:href="#DejaVuSans-6d"/>
      <use xlink:href="#DejaVuSans-6f" x="97.412109"/>
      <use xlink:href="#DejaVuSans-6e" x="158.59375"/>
      <use xlink:href="#DejaVuSans-69" x="221.972656"/>
      <use xlink:href="#DejaVuSans-74" x="249.755859"/>
      <use xlink:href="#DejaVuSans-6f" x="288.964844"/>
      <use xlink:href="#DejaVuSans-72" x="350.146484"/>
     </g>
    </g>
    <g id="line2d_19">
     <path d="M 308.904688 34.976562 
L 308.904688 34.976562 
L 318.904688 34.976562 
L 318.904688 34.976562 
L 328.904688 34.976562 
" style="fill: none; stroke: #ff7f0e; stroke-width: 1.5; stroke-linecap: square"/>
    </g>
    <g id="text_21">
     <!-- detector -->
     <g transform="translate(336.904688 38.476562) scale(0.1 -0.1)">
      <defs>
       <path id="DejaVuSans-64" d="M 2906 2969 
L 2906 4863 
L 3481 4863 
L 3481 0 
L 2906 0 
L 2906 525 
Q 2725 213 2448 61 
Q 2172 -91 1784 -91 
Q 1150 -91 751 415 
Q 353 922 353 1747 
Q 353 2572 751 3078 
Q 1150 3584 1784 3584 
Q 2172 3584 2448 3432 
Q 2725 3281 2906 2969 
z
M 947 1747 
Q 947 1113 1208 752 
Q 1469 391 1925 391 
Q 2381 391 2643 752 
Q 2906 1113 2906 1747 
Q 2906 2381 2643 2742 
Q 2381 3103 1925 3103 
Q 1469 3103 1208 2742 
Q 947 2381 947 1747 
z
" transform="scale(0.015625)"/>
      </defs>
      <use xlink:href="#DejaVuSans-64"/>
      <use xlink:href="#DejaVuSans-65" x="63.476562"/>
      <use xlink:href="#DejaVuSans-74" x="125"/>
      <use xlink:href="#DejaVuSans-65" x="164.208984"/>
      <use xlink:href="#DejaVuSans-63" x="225.732422"/>
      <use xlink:href="#DejaVuSans-74" x="280.712891"/>
      <use xlink:href="#DejaVuSans-6f" x="319.921875"/>
      <use xlink:href="#DejaVuSans-72" x="381.103516"/>
     </g>
    </g>
    <g id="line2d_20">
     <path d="M 308.904688 49.654688 
L 308.904688 49.654688 
L 318.904688 49.654688 
L 318.904688 49.654688 
L 328.904688 49.654688 
" style="fill: none; stroke: #2ca02c; stroke-width: 1.5; stroke-linecap: square"/>
    </g>
    <g id="text_22">
     <!-- true -->
     <g transform="translate(336.904688 53.154688) scale(0.1 -0.1)">
      <use xlink:href="#DejaVuSans-74"/>
      <use xlink:href="#DejaVuSans-72" x="39.208984"/>
      <use xlink:href="#DejaVuSans-75" x="80.322266"/>
      <use xlink:href="#DejaVuSans-65" x="143.701172"/>
     </g>
    </g>
   </g>
   <g id="line2d_21">
    <path d="M 68.546307 218.88 
L 73.111761 218.778897 
L 73.111761 218.677793 
L 76.155398 218.778897 
L 76.155398 218.88 
L 77.677216 218.88 
L 77.677216 218.677793 
L 83.00358 218.57669 
L 83.00358 218.071174 
L 83.764489 218.071174 
L 83.764489 218.778897 
L 84.525398 218.778897 
L 84.525398 218.27338 
L 85.286307 218.27338 
L 85.286307 218.677793 
L 87.569034 218.57669 
L 87.569034 218.172277 
L 88.329943 218.172277 
L 88.329943 218.57669 
L 89.090852 218.57669 
L 89.090852 218.071174 
L 90.61267 218.172277 
L 90.61267 217.66676 
L 91.37358 217.66676 
L 91.37358 217.36345 
L 95.178125 217.36345 
L 95.178125 216.857934 
L 95.939034 216.857934 
L 95.939034 215.846901 
L 96.699943 215.846901 
L 96.699943 216.75683 
L 97.460852 216.75683 
L 97.460852 215.543591 
L 98.221761 215.543591 
L 98.221761 214.532558 
L 98.98267 214.532558 
L 98.98267 215.745797 
L 99.74358 215.745797 
L 99.74358 212.813801 
L 100.504489 212.813801 
L 100.504489 214.229248 
L 102.026307 214.330351 
L 102.026307 213.016008 
L 102.787216 213.016008 
L 102.787216 212.106078 
L 103.548125 212.106078 
L 103.548125 208.971876 
L 104.309034 208.971876 
L 104.309034 208.365256 
L 105.069943 208.365256 
L 105.069943 209.275186 
L 105.830852 209.275186 
L 105.830852 206.03988 
L 106.591761 206.03988 
L 106.591761 204.725537 
L 107.35267 204.725537 
L 107.35267 203.107884 
L 108.11358 203.107884 
L 108.11358 202.905677 
L 108.874489 202.905677 
L 108.874489 199.468164 
L 109.635398 199.468164 
L 109.635398 197.243892 
L 110.396307 197.243892 
L 110.396307 194.210792 
L 111.918125 194.109689 
L 111.918125 185.414804 
L 112.679034 185.414804 
L 112.679034 183.493842 
L 113.439943 183.493842 
L 113.439943 175.911093 
L 114.200852 175.911093 
L 114.200852 178.034263 
L 114.961761 178.034263 
L 114.961761 174.697854 
L 115.72267 174.697854 
L 115.72267 165.800762 
L 116.48358 165.800762 
L 116.48358 167.418415 
L 117.244489 167.418415 
L 117.244489 161.655527 
L 118.005398 161.655527 
L 118.005398 155.083811 
L 118.766307 155.083811 
L 118.766307 152.151815 
L 119.527216 152.151815 
L 119.527216 150.736369 
L 120.288125 150.736369 
L 120.288125 142.041484 
L 121.049034 142.041484 
L 121.049034 137.390732 
L 121.809943 137.390732 
L 121.809943 129.504674 
L 123.331761 129.605777 
L 123.331761 123.438475 
L 124.09267 123.438475 
L 124.09267 122.023029 
L 124.85358 122.023029 
L 124.85358 115.249107 
L 125.614489 115.249107 
L 125.614489 112.013801 
L 126.375398 112.013801 
L 126.375398 103.925537 
L 127.136307 103.925537 
L 127.136307 92.096449 
L 127.897216 92.096449 
L 127.897216 83.805978 
L 128.658125 83.805978 
L 128.658125 84.109288 
L 129.419034 84.109288 
L 129.419034 82.188325 
L 130.179943 82.188325 
L 130.179943 69.044895 
L 130.940852 69.044895 
L 130.940852 73.695647 
L 131.701761 73.695647 
L 131.701761 72.077994 
L 132.46267 72.077994 
L 132.46267 57.418014 
L 133.22358 57.418014 
L 133.22358 64.293039 
L 133.984489 64.293039 
L 133.984489 53.171675 
L 135.506307 53.272778 
L 135.506307 49.430853 
L 136.267216 49.430853 
L 136.267216 44.881204 
L 137.789034 44.7801 
L 137.789034 27.996951 
L 138.549943 27.996951 
L 138.549943 34.366459 
L 139.310852 34.366459 
L 139.310852 32.5466 
L 140.071761 32.5466 
L 140.071761 25.368265 
L 140.83267 25.368265 
L 140.83267 32.142187 
L 141.59358 32.142187 
L 141.59358 33.355426 
L 142.354489 33.355426 
L 142.354489 28.906881 
L 143.115398 28.906881 
L 143.115398 20.616409 
L 143.876307 20.616409 
L 143.876307 25.064955 
L 144.637216 25.064955 
L 144.637216 41.140381 
L 145.398125 41.140381 
L 145.398125 27.794744 
L 146.159034 27.794744 
L 146.159034 22.941785 
L 146.919943 22.941785 
L 146.919943 29.007984 
L 147.680852 29.007984 
L 147.680852 27.087021 
L 148.441761 27.087021 
L 148.441761 30.625637 
L 149.20267 30.625637 
L 149.20267 19.807583 
L 149.96358 19.807583 
L 149.96358 24.458335 
L 150.724489 24.458335 
L 150.724489 29.715707 
L 151.485398 29.715707 
L 151.485398 25.267161 
L 152.246307 25.267161 
L 152.246307 17.987723 
L 153.007216 17.987723 
L 153.007216 17.28 
L 153.768125 17.28 
L 153.768125 32.647703 
L 154.529034 32.647703 
L 154.529034 23.447302 
L 155.289943 23.447302 
L 155.289943 25.873781 
L 156.050852 25.873781 
L 156.050852 21.930752 
L 156.811761 21.930752 
L 156.811761 31.232257 
L 157.57267 31.232257 
L 157.57267 23.346199 
L 158.33358 23.346199 
L 158.33358 22.132959 
L 159.094489 22.132959 
L 159.094489 32.748806 
L 159.855398 32.748806 
L 159.855398 29.412397 
L 160.616307 29.412397 
L 160.616307 21.627442 
L 161.377216 21.627442 
L 161.377216 36.085216 
L 162.138125 36.085216 
L 162.138125 41.039278 
L 162.899034 41.039278 
L 162.899034 35.883009 
L 163.659943 35.883009 
L 163.659943 28.704674 
L 164.420852 28.704674 
L 164.420852 40.533761 
L 165.181761 40.533761 
L 165.181761 45.38672 
L 165.94267 45.38672 
L 165.94267 43.566861 
L 166.70358 43.566861 
L 166.70358 45.99334 
L 167.464489 45.99334 
L 167.464489 42.454724 
L 168.225398 42.454724 
L 168.225398 58.732357 
L 168.986307 58.732357 
L 168.986307 51.048506 
L 169.747216 51.048506 
L 169.747216 57.013601 
L 170.508125 57.013601 
L 170.508125 54.587121 
L 171.269034 54.587121 
L 171.269034 62.270973 
L 172.029943 62.270973 
L 172.029943 60.754423 
L 172.790852 60.754423 
L 172.790852 64.394142 
L 173.551761 64.394142 
L 173.551761 61.967663 
L 174.31267 61.967663 
L 174.31267 66.214002 
L 175.07358 66.214002 
L 175.07358 67.326138 
L 175.834489 67.326138 
L 175.834489 73.594544 
L 176.595398 73.594544 
L 176.595398 66.719519 
L 177.356307 66.719519 
L 177.356307 78.548606 
L 178.117216 78.548606 
L 178.117216 73.594544 
L 178.878125 73.594544 
L 178.878125 85.221424 
L 179.639034 85.221424 
L 179.639034 77.537573 
L 180.399943 77.537573 
L 180.399943 82.087222 
L 181.160852 82.087222 
L 181.160852 86.333561 
L 181.921761 86.333561 
L 181.921761 81.379498 
L 182.68267 81.379498 
L 182.68267 89.66997 
L 183.44358 89.66997 
L 183.44358 81.581705 
L 184.204489 81.581705 
L 184.204489 90.074383 
L 184.965398 90.074383 
L 184.965398 94.219619 
L 185.726307 94.219619 
L 185.726307 98.567061 
L 186.487216 98.567061 
L 186.487216 89.771073 
L 187.248125 89.771073 
L 187.248125 96.949408 
L 188.009034 96.949408 
L 188.009034 97.657131 
L 188.769943 97.657131 
L 188.769943 98.971474 
L 189.530852 98.971474 
L 189.530852 97.960441 
L 190.291761 97.960441 
L 190.291761 104.02664 
L 191.05267 104.02664 
L 191.05267 105.54319 
L 191.81358 105.54319 
L 191.81358 109.587322 
L 192.574489 109.587322 
L 192.574489 108.677392 
L 193.335398 108.677392 
L 193.335398 104.734363 
L 194.096307 104.734363 
L 194.096307 107.565256 
L 194.857216 107.565256 
L 194.857216 111.204975 
L 195.618125 111.204975 
L 195.618125 110.901665 
L 196.379034 110.901665 
L 196.379034 114.238074 
L 197.139943 114.238074 
L 197.139943 116.664554 
L 197.900852 116.664554 
L 197.900852 114.035868 
L 198.661761 114.035868 
L 198.661761 120.809789 
L 199.42267 120.809789 
L 199.42267 117.574483 
L 200.18358 117.574483 
L 200.18358 118.888826 
L 200.944489 118.888826 
L 200.944489 118.08 
L 201.705398 118.08 
L 201.705398 118.282207 
L 202.466307 118.282207 
L 202.466307 121.011996 
L 203.227216 121.011996 
L 203.227216 120.506479 
L 203.988125 120.506479 
L 203.988125 121.315306 
L 204.749034 121.315306 
L 204.749034 132.537773 
L 205.509943 132.537773 
L 205.509943 125.966058 
L 206.270852 125.966058 
L 206.270852 125.460542 
L 207.031761 125.460542 
L 207.031761 130.010191 
L 207.79267 130.010191 
L 207.79267 132.43667 
L 208.55358 132.43667 
L 208.55358 126.370471 
L 209.314489 126.370471 
L 209.314489 131.021224 
L 210.075398 131.021224 
L 210.075398 134.25653 
L 210.836307 134.25653 
L 210.836307 132.43667 
L 211.597216 132.43667 
L 211.597216 135.368666 
L 212.358125 135.368666 
L 212.358125 139.412798 
L 213.119034 139.412798 
L 213.119034 137.289629 
L 213.879943 137.289629 
L 213.879943 142.041484 
L 214.640852 142.041484 
L 214.640852 140.019418 
L 215.401761 140.019418 
L 215.401761 139.817212 
L 216.16267 139.817212 
L 216.16267 146.894443 
L 216.92358 146.894443 
L 216.92358 143.659137 
L 217.684489 143.659137 
L 217.684489 142.547001 
L 218.445398 142.547001 
L 218.445398 141.434865 
L 219.206307 141.434865 
L 219.206307 145.175687 
L 219.967216 145.175687 
L 219.967216 148.91651 
L 220.728125 148.91651 
L 220.728125 146.995547 
L 221.489034 146.995547 
L 221.489034 146.085617 
L 222.249943 146.085617 
L 222.249943 152.455125 
L 223.010852 152.455125 
L 223.010852 144.872377 
L 223.771761 144.872377 
L 223.771761 148.91651 
L 224.53267 148.91651 
L 224.53267 150.736369 
L 225.29358 150.736369 
L 225.29358 152.859539 
L 226.054489 152.859539 
L 226.054489 149.624233 
L 226.815398 149.624233 
L 226.815398 159.33015 
L 227.576307 159.33015 
L 227.576307 154.477192 
L 228.337216 154.477192 
L 228.337216 158.622427 
L 229.098125 158.622427 
L 229.098125 158.116911 
L 229.859034 158.116911 
L 229.859034 155.690431 
L 230.619943 155.690431 
L 230.619943 155.488225 
L 231.380852 155.488225 
L 231.380852 154.881605 
L 232.141761 154.881605 
L 232.141761 156.802568 
L 232.90267 156.802568 
L 232.90267 158.420221 
L 233.66358 158.420221 
L 233.66358 159.734564 
L 234.424489 159.734564 
L 234.424489 163.677593 
L 235.185398 163.677593 
L 235.185398 162.05994 
L 235.946307 162.05994 
L 235.946307 162.36325 
L 236.707216 162.36325 
L 236.707216 159.026841 
L 237.468125 159.026841 
L 237.468125 159.734564 
L 238.229034 159.734564 
L 238.229034 163.778696 
L 238.989943 163.778696 
L 238.989943 162.464353 
L 239.750852 162.464353 
L 239.750852 165.194142 
L 240.511761 165.194142 
L 240.511761 166.710692 
L 241.27267 166.710692 
L 241.27267 165.295246 
L 242.03358 165.295246 
L 242.03358 169.339378 
L 242.794489 169.339378 
L 242.794489 166.912899 
L 243.555398 166.912899 
L 243.555398 166.508485 
L 244.316307 166.508485 
L 244.316307 172.372477 
L 245.077216 172.372477 
L 245.077216 172.675787 
L 245.838125 172.675787 
L 245.838125 170.047101 
L 246.599034 170.047101 
L 246.599034 168.429448 
L 247.359943 168.429448 
L 247.359943 171.664754 
L 248.120852 171.664754 
L 248.120852 173.787924 
L 248.881761 173.787924 
L 248.881761 170.552618 
L 249.64267 170.552618 
L 249.64267 173.080201 
L 250.40358 173.080201 
L 250.40358 171.664754 
L 251.164489 171.664754 
L 251.164489 173.585717 
L 251.925398 173.585717 
L 251.925398 174.697854 
L 252.686307 174.697854 
L 252.686307 177.528746 
L 253.447216 177.528746 
L 253.447216 176.315507 
L 254.208125 176.315507 
L 254.208125 178.034263 
L 254.969034 178.034263 
L 254.969034 178.438676 
L 255.729943 178.438676 
L 255.729943 180.561846 
L 256.490852 180.561846 
L 256.490852 179.146399 
L 257.251761 179.146399 
L 257.251761 181.370672 
L 258.01267 181.370672 
L 258.01267 183.696048 
L 258.77358 183.696048 
L 258.77358 184.302668 
L 259.534489 184.302668 
L 259.534489 185.414804 
L 260.295398 185.414804 
L 260.295398 182.482808 
L 261.056307 182.482808 
L 261.056307 185.111494 
L 261.817216 185.111494 
L 261.817216 183.392738 
L 262.578125 183.392738 
L 262.578125 187.032457 
L 263.339034 187.032457 
L 263.339034 190.874383 
L 264.099943 190.874383 
L 264.099943 191.3799 
L 264.860852 191.3799 
L 264.860852 191.784313 
L 265.621761 191.784313 
L 265.621761 190.46997 
L 266.38267 190.46997 
L 266.38267 193.806379 
L 267.14358 193.806379 
L 267.14358 192.390933 
L 267.904489 192.390933 
L 267.904489 195.929549 
L 268.665398 195.929549 
L 268.665398 196.131755 
L 269.426307 196.131755 
L 269.426307 197.344995 
L 270.187216 197.344995 
L 270.187216 197.749408 
L 270.948125 197.749408 
L 270.948125 198.153821 
L 271.709034 198.153821 
L 271.709034 198.861545 
L 272.469943 198.861545 
L 272.469943 197.243892 
L 274.75267 197.344995 
L 274.75267 200.378094 
L 275.51358 200.378094 
L 275.51358 201.793541 
L 276.274489 201.793541 
L 276.274489 202.501264 
L 277.035398 202.501264 
L 277.035398 201.288024 
L 277.796307 201.288024 
L 277.796307 202.905677 
L 278.557216 202.905677 
L 278.557216 203.815607 
L 279.318125 203.815607 
L 279.318125 204.22002 
L 280.079034 204.22002 
L 280.079034 207.556429 
L 280.839943 207.556429 
L 280.839943 204.624433 
L 281.600852 204.624433 
L 281.600852 204.927743 
L 282.361761 204.927743 
L 282.361761 206.848706 
L 283.12267 206.848706 
L 283.12267 205.43326 
L 283.88358 205.43326 
L 283.88358 208.264152 
L 284.644489 208.264152 
L 284.644489 208.567462 
L 286.166307 208.466359 
L 286.166307 209.679599 
L 286.927216 209.679599 
L 286.927216 210.084012 
L 287.688125 210.084012 
L 287.688125 211.297252 
L 288.449034 211.297252 
L 288.449034 208.466359 
L 289.209943 208.466359 
L 289.209943 212.409388 
L 289.970852 212.409388 
L 289.970852 210.892839 
L 290.731761 210.892839 
L 290.731761 212.510491 
L 291.49267 212.510491 
L 291.49267 212.914905 
L 292.25358 212.914905 
L 292.25358 212.409388 
L 293.014489 212.409388 
L 293.014489 213.319318 
L 293.775398 213.319318 
L 293.775398 213.622628 
L 295.297216 213.723731 
L 295.297216 213.824835 
L 296.058125 213.824835 
L 296.058125 215.341384 
L 296.819034 215.341384 
L 296.819034 213.925938 
L 297.579943 213.925938 
L 297.579943 214.633661 
L 298.340852 214.633661 
L 298.340852 214.936971 
L 299.101761 214.936971 
L 299.101761 216.049107 
L 299.86267 216.049107 
L 299.86267 215.341384 
L 300.62358 215.341384 
L 300.62358 216.251314 
L 302.145398 216.150211 
L 302.145398 217.262347 
L 302.906307 217.262347 
L 302.906307 217.06014 
L 303.667216 217.06014 
L 303.667216 216.75683 
L 304.428125 216.75683 
L 304.428125 217.464554 
L 305.189034 217.464554 
L 305.189034 217.06014 
L 305.949943 217.06014 
L 305.949943 218.27338 
L 306.710852 218.27338 
L 306.710852 217.66676 
L 307.471761 217.66676 
L 307.471761 218.374483 
L 309.754489 218.374483 
L 309.754489 218.88 
L 372.909943 218.88 
L 372.909943 218.88 
" clip-path="url(#pa851548e98)" style="fill: none; stroke: #1f77b4; stroke-width: 1.5; stroke-linecap: square"/>
   </g>
   <g id="line2d_22">
    <path d="M 68.546307 218.88 
L 73.111761 218.778897 
L 73.111761 218.677793 
L 75.394489 218.778897 
L 75.394489 218.88 
L 76.916307 218.88 
L 76.916307 218.677793 
L 78.438125 218.778897 
L 78.438125 218.88 
L 79.199034 218.88 
L 79.199034 218.475587 
L 79.959943 218.475587 
L 79.959943 218.88 
L 80.720852 218.88 
L 80.720852 218.677793 
L 82.24267 218.57669 
L 82.24267 218.27338 
L 83.00358 218.27338 
L 83.00358 218.677793 
L 83.764489 218.677793 
L 83.764489 218.27338 
L 84.525398 218.27338 
L 84.525398 218.677793 
L 86.047216 218.57669 
L 86.047216 218.475587 
L 89.090852 218.475587 
L 89.090852 217.767864 
L 89.851761 217.767864 
L 89.851761 218.27338 
L 90.61267 218.27338 
L 90.61267 217.66676 
L 91.37358 217.66676 
L 91.37358 217.262347 
L 92.134489 217.262347 
L 92.134489 217.66676 
L 92.895398 217.66676 
L 92.895398 217.868967 
L 93.656307 217.868967 
L 93.656307 216.857934 
L 94.417216 216.857934 
L 94.417216 217.36345 
L 95.178125 217.36345 
L 95.178125 216.857934 
L 96.699943 216.75683 
L 96.699943 216.150211 
L 97.460852 216.150211 
L 97.460852 215.745797 
L 98.221761 215.745797 
L 98.221761 215.038074 
L 99.74358 215.038074 
L 99.74358 214.330351 
L 100.504489 214.330351 
L 100.504489 213.521525 
L 101.265398 213.521525 
L 101.265398 214.734764 
L 102.026307 214.734764 
L 102.026307 213.824835 
L 102.787216 213.824835 
L 102.787216 212.207182 
L 103.548125 212.207182 
L 103.548125 210.993942 
L 104.309034 210.993942 
L 104.309034 208.668566 
L 105.069943 208.668566 
L 105.069943 209.982909 
L 105.830852 209.982909 
L 105.830852 207.758636 
L 106.591761 207.758636 
L 106.591761 205.332156 
L 107.35267 205.332156 
L 107.35267 204.82664 
L 108.11358 204.82664 
L 108.11358 204.017813 
L 108.874489 204.017813 
L 108.874489 201.793541 
L 109.635398 201.793541 
L 109.635398 200.984714 
L 110.396307 200.984714 
L 110.396307 196.839478 
L 111.157216 196.839478 
L 111.157216 195.828445 
L 111.918125 195.828445 
L 111.918125 193.098656 
L 112.679034 193.098656 
L 112.679034 188.144594 
L 113.439943 188.144594 
L 113.439943 181.876189 
L 114.200852 181.876189 
L 114.200852 180.056329 
L 114.961761 180.056329 
L 114.961761 176.71992 
L 115.72267 176.71992 
L 115.72267 174.90006 
L 116.48358 174.90006 
L 116.48358 168.328345 
L 117.244489 168.328345 
L 117.244489 165.901866 
L 118.005398 165.901866 
L 118.005398 163.27318 
L 118.766307 163.27318 
L 118.766307 156.701464 
L 119.527216 156.701464 
L 119.527216 153.668365 
L 120.288125 153.668365 
L 120.288125 151.342989 
L 121.049034 151.342989 
L 121.049034 143.558034 
L 121.809943 143.558034 
L 121.809943 141.637071 
L 122.570852 141.637071 
L 122.570852 132.537773 
L 123.331761 132.537773 
L 123.331761 127.381505 
L 124.09267 127.381505 
L 124.09267 128.594744 
L 124.85358 128.594744 
L 124.85358 123.842889 
L 125.614489 123.842889 
L 125.614489 117.574483 
L 126.375398 117.574483 
L 126.375398 109.587322 
L 127.136307 109.587322 
L 127.136307 108.576289 
L 127.897216 108.576289 
L 127.897216 97.050512 
L 128.658125 97.050512 
L 128.658125 88.254524 
L 129.419034 88.254524 
L 129.419034 87.344594 
L 130.179943 87.344594 
L 130.179943 82.997151 
L 130.940852 82.997151 
L 130.940852 75.111093 
L 131.701761 75.111093 
L 131.701761 71.572477 
L 132.46267 71.572477 
L 132.46267 82.794945 
L 133.22358 82.794945 
L 133.22358 64.293039 
L 133.984489 64.293039 
L 133.984489 62.978696 
L 134.745398 62.978696 
L 134.745398 54.991535 
L 135.506307 54.991535 
L 135.506307 56.508084 
L 136.267216 56.508084 
L 136.267216 54.587121 
L 137.028125 54.587121 
L 137.028125 53.272778 
L 137.789034 53.272778 
L 137.789034 36.995145 
L 138.549943 36.995145 
L 138.549943 39.623831 
L 139.310852 39.623831 
L 139.310852 41.645898 
L 140.071761 41.645898 
L 140.071761 30.12012 
L 140.83267 30.12012 
L 140.83267 30.928947 
L 141.59358 30.928947 
L 141.59358 28.704674 
L 142.354489 28.704674 
L 142.354489 33.962046 
L 143.115398 33.962046 
L 143.115398 30.42343 
L 143.876307 30.42343 
L 143.876307 28.906881 
L 144.637216 28.906881 
L 144.637216 29.210191 
L 145.398125 29.210191 
L 145.398125 35.984112 
L 146.159034 35.984112 
L 146.159034 33.254323 
L 146.919943 33.254323 
L 146.919943 29.614604 
L 147.680852 29.614604 
L 147.680852 29.412397 
L 148.441761 29.412397 
L 148.441761 29.81681 
L 149.20267 29.81681 
L 149.20267 26.278195 
L 149.96358 26.278195 
L 149.96358 27.592538 
L 150.724489 27.592538 
L 150.724489 27.794744 
L 151.485398 27.794744 
L 151.485398 30.221224 
L 152.246307 30.221224 
L 152.246307 21.324132 
L 153.007216 21.324132 
L 153.007216 23.851715 
L 153.768125 23.851715 
L 153.768125 27.087021 
L 154.529034 27.087021 
L 154.529034 22.739579 
L 155.289943 22.739579 
L 155.289943 25.570471 
L 156.050852 25.570471 
L 156.050852 29.109087 
L 156.811761 29.109087 
L 156.811761 24.256128 
L 157.57267 24.256128 
L 157.57267 30.827844 
L 158.33358 30.827844 
L 158.33358 26.278195 
L 159.094489 26.278195 
L 159.094489 31.33336 
L 159.855398 31.33336 
L 159.855398 28.502467 
L 160.616307 28.502467 
L 160.616307 30.12012 
L 161.377216 30.12012 
L 161.377216 31.63667 
L 162.138125 31.63667 
L 162.138125 27.592538 
L 162.899034 27.592538 
L 162.899034 35.984112 
L 163.659943 35.984112 
L 163.659943 31.434463 
L 164.420852 31.434463 
L 164.420852 34.568666 
L 165.181761 34.568666 
L 165.181761 34.063149 
L 165.94267 34.063149 
L 165.94267 32.24329 
L 166.70358 32.24329 
L 166.70358 39.724935 
L 167.464489 39.724935 
L 167.464489 40.533761 
L 168.225398 40.533761 
L 168.225398 46.397753 
L 168.986307 46.397753 
L 168.986307 45.588927 
L 169.747216 45.588927 
L 169.747216 53.171675 
L 170.508125 53.171675 
L 170.508125 53.778295 
L 171.269034 53.778295 
L 171.269034 60.0467 
L 172.029943 60.0467 
L 172.029943 48.925336 
L 172.790852 48.925336 
L 172.790852 60.248907 
L 173.551761 60.248907 
L 173.551761 55.497051 
L 174.31267 55.497051 
L 174.31267 58.024634 
L 175.07358 58.024634 
L 175.07358 67.730552 
L 175.834489 67.730552 
L 175.834489 62.270973 
L 176.595398 62.270973 
L 176.595398 66.416209 
L 177.356307 66.416209 
L 177.356307 68.943791 
L 178.117216 68.943791 
L 178.117216 71.673581 
L 178.878125 71.673581 
L 178.878125 68.842688 
L 179.639034 68.842688 
L 179.639034 76.52654 
L 180.399943 76.52654 
L 180.399943 84.614804 
L 181.160852 84.614804 
L 181.160852 82.289428 
L 181.921761 82.289428 
L 181.921761 76.22323 
L 182.68267 76.22323 
L 182.68267 80.368465 
L 183.44358 80.368465 
L 183.44358 82.896048 
L 184.204489 82.896048 
L 184.204489 84.210391 
L 184.965398 84.210391 
L 184.965398 80.469569 
L 185.726307 80.469569 
L 185.726307 99.072578 
L 186.487216 99.072578 
L 186.487216 90.681003 
L 187.248125 90.681003 
L 187.248125 89.872177 
L 188.009034 89.872177 
L 188.009034 96.949408 
L 188.769943 96.949408 
L 188.769943 94.927342 
L 189.530852 94.927342 
L 189.530852 98.263751 
L 190.291761 98.263751 
L 190.291761 94.826239 
L 191.05267 94.826239 
L 191.05267 102.712297 
L 191.81358 102.712297 
L 191.81358 106.352016 
L 192.574489 106.352016 
L 192.574489 103.11671 
L 193.335398 103.11671 
L 193.335398 99.982508 
L 194.096307 99.982508 
L 194.096307 104.835466 
L 194.857216 104.835466 
L 194.857216 113.227041 
L 195.618125 113.227041 
L 195.618125 104.127743 
L 196.379034 104.127743 
L 196.379034 110.497252 
L 197.139943 110.497252 
L 197.139943 112.721525 
L 197.900852 112.721525 
L 197.900852 110.092839 
L 198.661761 110.092839 
L 198.661761 117.675587 
L 199.42267 117.675587 
L 199.42267 120.910893 
L 200.18358 120.910893 
L 200.18358 116.56345 
L 200.944489 116.56345 
L 200.944489 108.171876 
L 201.705398 108.171876 
L 201.705398 115.855727 
L 202.466307 115.855727 
L 202.466307 122.831856 
L 203.227216 122.831856 
L 203.227216 117.978897 
L 203.988125 117.978897 
L 203.988125 116.967864 
L 204.749034 116.967864 
L 204.749034 126.067161 
L 205.509943 126.067161 
L 205.509943 123.135165 
L 206.270852 123.135165 
L 206.270852 127.280401 
L 207.031761 127.280401 
L 207.031761 124.955025 
L 207.79267 124.955025 
L 207.79267 128.999157 
L 208.55358 128.999157 
L 208.55358 123.640682 
L 209.314489 123.640682 
L 209.314489 132.73998 
L 210.075398 132.73998 
L 210.075398 130.212397 
L 210.836307 130.212397 
L 210.836307 135.570873 
L 211.597216 135.570873 
L 211.597216 130.717914 
L 212.358125 130.717914 
L 212.358125 135.166459 
L 213.119034 135.166459 
L 213.119034 139.311695 
L 213.879943 139.311695 
L 213.879943 136.683009 
L 214.640852 136.683009 
L 214.640852 135.874183 
L 215.401761 135.874183 
L 215.401761 142.749208 
L 216.16267 142.749208 
L 216.16267 141.333761 
L 216.92358 141.333761 
L 216.92358 144.872377 
L 217.684489 144.872377 
L 217.684489 140.221625 
L 218.445398 140.221625 
L 218.445398 143.861344 
L 219.206307 143.861344 
L 219.206307 139.615005 
L 219.967216 139.615005 
L 219.967216 145.478997 
L 220.728125 145.478997 
L 220.728125 146.591133 
L 221.489034 146.591133 
L 221.489034 144.670171 
L 222.249943 144.670171 
L 222.249943 145.27679 
L 223.010852 145.27679 
L 223.010852 149.118716 
L 223.771761 149.118716 
L 223.771761 150.938576 
L 224.53267 150.938576 
L 224.53267 145.074584 
L 225.29358 145.074584 
L 225.29358 148.714303 
L 226.054489 148.714303 
L 226.054489 152.960642 
L 226.815398 152.960642 
L 226.815398 153.466158 
L 227.576307 153.466158 
L 227.576307 156.398154 
L 228.337216 156.398154 
L 228.337216 156.802568 
L 229.098125 156.802568 
L 229.098125 153.466158 
L 229.859034 153.466158 
L 229.859034 155.184915 
L 230.619943 155.184915 
L 230.619943 156.094845 
L 231.380852 156.094845 
L 231.380852 154.376088 
L 232.141761 154.376088 
L 232.141761 153.769468 
L 232.90267 153.769468 
L 232.90267 159.532357 
L 233.66358 159.532357 
L 233.66358 162.66656 
L 234.424489 162.66656 
L 234.424489 156.398154 
L 235.185398 156.398154 
L 235.185398 158.521324 
L 235.946307 158.521324 
L 235.946307 160.8467 
L 236.707216 160.8467 
L 236.707216 162.767663 
L 237.468125 162.767663 
L 237.468125 159.127944 
L 238.229034 159.127944 
L 238.229034 163.374283 
L 238.989943 163.374283 
L 238.989943 158.319117 
L 239.750852 158.319117 
L 239.750852 163.27318 
L 240.511761 163.27318 
L 240.511761 169.137172 
L 241.27267 169.137172 
L 241.27267 166.306279 
L 242.03358 166.306279 
L 242.03358 165.598556 
L 242.794489 165.598556 
L 242.794489 169.642688 
L 243.555398 169.642688 
L 243.555398 164.890832 
L 244.316307 164.890832 
L 244.316307 165.699659 
L 245.077216 165.699659 
L 245.077216 170.754824 
L 245.838125 170.754824 
L 245.838125 172.069168 
L 246.599034 172.069168 
L 246.599034 176.71992 
L 247.359943 176.71992 
L 247.359943 165.699659 
L 248.120852 165.699659 
L 248.120852 170.957031 
L 248.881761 170.957031 
L 248.881761 171.260341 
L 249.64267 171.260341 
L 249.64267 171.563651 
L 250.40358 171.563651 
L 250.40358 176.214403 
L 251.164489 176.214403 
L 251.164489 173.585717 
L 251.925398 173.585717 
L 251.925398 174.091234 
L 252.686307 174.091234 
L 252.686307 175.405577 
L 253.447216 175.405577 
L 253.447216 178.539779 
L 254.208125 178.539779 
L 254.208125 178.337573 
L 255.729943 178.236469 
L 255.729943 180.865155 
L 256.490852 180.865155 
L 256.490852 178.640883 
L 257.251761 178.640883 
L 257.251761 183.696048 
L 258.01267 183.696048 
L 258.01267 185.313701 
L 258.77358 185.313701 
L 258.77358 183.493842 
L 259.534489 183.493842 
L 259.534489 186.122528 
L 260.295398 186.122528 
L 260.295398 183.898255 
L 261.056307 183.898255 
L 261.056307 185.010391 
L 261.817216 185.010391 
L 261.817216 183.999358 
L 262.578125 183.999358 
L 262.578125 187.032457 
L 263.339034 187.032457 
L 263.339034 189.357834 
L 264.099943 189.357834 
L 264.099943 193.300863 
L 264.860852 193.300863 
L 264.860852 190.77328 
L 266.38267 190.77328 
L 266.38267 194.918516 
L 267.904489 194.918516 
L 267.904489 196.030652 
L 269.426307 196.030652 
L 269.426307 197.243892 
L 270.187216 197.243892 
L 270.187216 198.760441 
L 270.948125 198.760441 
L 270.948125 196.435065 
L 271.709034 196.435065 
L 271.709034 198.254925 
L 272.469943 198.254925 
L 272.469943 198.558235 
L 273.991761 198.457131 
L 273.991761 197.850512 
L 274.75267 197.850512 
L 274.75267 198.760441 
L 275.51358 198.760441 
L 275.51358 201.894644 
L 276.274489 201.894644 
L 276.274489 203.208987 
L 277.035398 203.208987 
L 277.035398 202.501264 
L 277.796307 202.501264 
L 277.796307 201.692437 
L 278.557216 201.692437 
L 278.557216 202.905677 
L 279.318125 202.905677 
L 279.318125 204.82664 
L 280.079034 204.82664 
L 280.079034 206.949809 
L 280.839943 206.949809 
L 280.839943 206.140983 
L 281.600852 206.140983 
L 281.600852 204.927743 
L 282.361761 204.927743 
L 282.361761 205.837673 
L 283.12267 205.837673 
L 283.12267 207.354223 
L 283.88358 207.354223 
L 283.88358 205.938776 
L 284.644489 205.938776 
L 284.644489 208.163049 
L 285.405398 208.163049 
L 285.405398 208.971876 
L 286.166307 208.971876 
L 286.166307 209.780702 
L 286.927216 209.780702 
L 286.927216 210.084012 
L 287.688125 210.084012 
L 287.688125 211.095045 
L 288.449034 211.095045 
L 288.449034 209.376289 
L 289.209943 209.376289 
L 289.209943 211.802768 
L 289.970852 211.802768 
L 289.970852 210.791735 
L 290.731761 210.791735 
L 290.731761 211.802768 
L 291.49267 211.802768 
L 291.49267 213.218215 
L 292.25358 213.218215 
L 292.25358 212.712698 
L 293.014489 212.712698 
L 293.014489 211.499458 
L 293.775398 211.499458 
L 293.775398 213.824835 
L 294.536307 213.824835 
L 294.536307 213.521525 
L 295.297216 213.521525 
L 295.297216 214.835868 
L 296.058125 214.835868 
L 296.058125 214.229248 
L 296.819034 214.229248 
L 296.819034 214.431454 
L 297.579943 214.431454 
L 297.579943 214.835868 
L 299.101761 214.936971 
L 299.101761 215.341384 
L 300.62358 215.341384 
L 300.62358 215.846901 
L 301.384489 215.846901 
L 301.384489 216.352417 
L 302.145398 216.352417 
L 302.145398 216.049107 
L 302.906307 216.049107 
L 302.906307 217.36345 
L 304.428125 217.464554 
L 304.428125 216.75683 
L 305.189034 216.75683 
L 305.189034 217.36345 
L 306.710852 217.262347 
L 306.710852 218.172277 
L 307.471761 218.172277 
L 307.471761 217.565657 
L 308.23267 217.565657 
L 308.23267 218.57669 
L 308.99358 218.57669 
L 308.99358 218.374483 
L 310.515398 218.374483 
L 310.515398 218.88 
L 372.909943 218.88 
L 372.909943 218.88 
" clip-path="url(#pa851548e98)" style="fill: none; stroke: #ff7f0e; stroke-width: 1.5; stroke-linecap: square"/>
   </g>
   <g id="line2d_23">
    <path d="M 68.546307 218.88 
L 72.350852 218.778897 
L 72.350852 218.677793 
L 74.63358 218.778897 
L 74.63358 218.88 
L 76.155398 218.88 
L 76.155398 218.677793 
L 77.677216 218.778897 
L 77.677216 218.88 
L 78.438125 218.88 
L 78.438125 218.57669 
L 79.199034 218.57669 
L 79.199034 218.778897 
L 80.720852 218.88 
L 80.720852 218.475587 
L 81.481761 218.475587 
L 81.481761 218.677793 
L 82.24267 218.677793 
L 82.24267 218.27338 
L 83.00358 218.27338 
L 83.00358 218.57669 
L 83.764489 218.57669 
L 83.764489 218.374483 
L 84.525398 218.374483 
L 84.525398 218.677793 
L 85.286307 218.677793 
L 85.286307 218.475587 
L 86.808125 218.374483 
L 86.808125 218.677793 
L 87.569034 218.677793 
L 87.569034 218.374483 
L 89.090852 218.374483 
L 89.090852 217.565657 
L 89.851761 217.565657 
L 89.851761 218.475587 
L 90.61267 218.475587 
L 90.61267 217.767864 
L 92.134489 217.767864 
L 92.134489 217.464554 
L 92.895398 217.464554 
L 92.895398 217.767864 
L 93.656307 217.767864 
L 93.656307 217.161244 
L 95.939034 217.262347 
L 95.939034 216.655727 
L 96.699943 216.655727 
L 96.699943 216.453521 
L 98.221761 216.453521 
L 98.221761 214.734764 
L 98.98267 214.734764 
L 98.98267 215.644694 
L 99.74358 215.644694 
L 99.74358 215.240281 
L 100.504489 215.240281 
L 100.504489 214.128144 
L 101.265398 214.128144 
L 101.265398 214.330351 
L 102.026307 214.330351 
L 102.026307 213.521525 
L 102.787216 213.521525 
L 102.787216 213.925938 
L 103.548125 213.925938 
L 103.548125 212.510491 
L 104.309034 212.510491 
L 104.309034 211.701665 
L 105.069943 211.701665 
L 105.069943 209.072979 
L 105.830852 209.072979 
L 105.830852 209.578495 
L 106.591761 209.578495 
L 106.591761 208.264152 
L 107.35267 208.264152 
L 107.35267 206.747603 
L 108.11358 206.747603 
L 108.11358 205.231053 
L 108.874489 205.231053 
L 108.874489 205.635466 
L 109.635398 205.635466 
L 109.635398 201.490231 
L 110.396307 201.490231 
L 110.396307 205.028847 
L 111.157216 205.028847 
L 111.157216 198.861545 
L 111.918125 198.861545 
L 111.918125 197.142788 
L 112.679034 197.142788 
L 112.679034 194.514102 
L 113.439943 194.514102 
L 113.439943 192.795346 
L 114.200852 192.795346 
L 114.200852 186.729147 
L 114.961761 186.729147 
L 114.961761 180.460742 
L 115.72267 180.460742 
L 115.72267 180.865155 
L 116.48358 180.865155 
L 116.48358 176.517713 
L 117.244489 176.517713 
L 117.244489 174.697854 
L 118.005398 174.697854 
L 118.005398 168.530552 
L 118.766307 168.530552 
L 118.766307 166.609589 
L 119.527216 166.609589 
L 119.527216 162.767663 
L 120.288125 162.767663 
L 120.288125 157.510291 
L 121.049034 157.510291 
L 121.049034 155.184915 
L 121.809943 155.184915 
L 121.809943 152.960642 
L 122.570852 152.960642 
L 122.570852 139.513902 
L 123.331761 139.513902 
L 123.331761 144.063551 
L 124.09267 144.063551 
L 124.09267 134.25653 
L 124.85358 134.25653 
L 124.85358 126.269368 
L 125.614489 126.269368 
L 125.614489 129.100261 
L 126.375398 129.100261 
L 126.375398 124.449509 
L 127.136307 124.449509 
L 127.136307 111.912698 
L 127.897216 111.912698 
L 127.897216 112.923731 
L 128.658125 112.923731 
L 128.658125 110.092839 
L 129.419034 110.092839 
L 129.419034 100.184714 
L 130.179943 100.184714 
L 130.179943 95.432859 
L 130.940852 95.432859 
L 130.940852 87.85011 
L 131.701761 87.85011 
L 131.701761 89.265557 
L 132.46267 89.265557 
L 132.46267 75.111093 
L 133.22358 75.111093 
L 133.22358 77.032056 
L 133.984489 77.032056 
L 133.984489 81.076189 
L 134.745398 81.076189 
L 134.745398 70.561444 
L 135.506307 70.561444 
L 135.506307 57.013601 
L 136.267216 57.013601 
L 136.267216 58.732357 
L 137.028125 58.732357 
L 137.028125 61.56325 
L 137.789034 61.56325 
L 137.789034 57.418014 
L 138.549943 57.418014 
L 138.549943 50.037472 
L 139.310852 50.037472 
L 139.310852 53.474985 
L 140.071761 53.474985 
L 140.071761 38.815005 
L 140.83267 38.815005 
L 140.83267 37.197352 
L 141.59358 37.197352 
L 141.59358 37.500662 
L 142.354489 37.500662 
L 142.354489 33.658736 
L 143.115398 33.658736 
L 143.115398 30.42343 
L 143.876307 30.42343 
L 143.876307 36.085216 
L 144.637216 36.085216 
L 144.637216 32.142187 
L 145.398125 32.142187 
L 145.398125 34.467563 
L 146.159034 34.467563 
L 146.159034 31.232257 
L 146.919943 31.232257 
L 146.919943 39.219418 
L 147.680852 39.219418 
L 147.680852 32.041083 
L 148.441761 32.041083 
L 148.441761 33.254323 
L 149.20267 33.254323 
L 149.20267 29.917914 
L 149.96358 29.917914 
L 149.96358 33.860943 
L 150.724489 33.860943 
L 150.724489 37.197352 
L 151.485398 37.197352 
L 151.485398 26.581505 
L 152.246307 26.581505 
L 152.246307 30.221224 
L 153.007216 30.221224 
L 153.007216 24.357232 
L 153.768125 24.357232 
L 153.768125 26.379298 
L 154.529034 26.379298 
L 154.529034 31.232257 
L 155.289943 31.232257 
L 155.289943 22.234062 
L 156.050852 22.234062 
L 156.050852 29.109087 
L 156.811761 29.109087 
L 156.811761 23.750612 
L 157.57267 23.750612 
L 157.57267 31.131153 
L 158.33358 31.131153 
L 158.33358 29.109087 
L 159.094489 29.109087 
L 159.094489 31.93998 
L 159.855398 31.93998 
L 159.855398 29.81681 
L 160.616307 29.81681 
L 160.616307 36.186319 
L 161.377216 36.186319 
L 161.377216 30.42343 
L 162.138125 30.42343 
L 162.138125 37.197352 
L 162.899034 37.197352 
L 162.899034 27.491434 
L 163.659943 27.491434 
L 163.659943 29.007984 
L 164.420852 29.007984 
L 164.420852 32.142187 
L 165.181761 32.142187 
L 165.181761 31.434463 
L 165.94267 31.434463 
L 165.94267 33.355426 
L 166.70358 33.355426 
L 166.70358 29.007984 
L 167.464489 29.007984 
L 167.464489 33.557633 
L 168.225398 33.557633 
L 168.225398 35.984112 
L 168.986307 35.984112 
L 168.986307 35.175286 
L 169.747216 35.175286 
L 169.747216 41.241484 
L 170.508125 41.241484 
L 170.508125 45.38672 
L 171.269034 45.38672 
L 171.269034 45.588927 
L 172.029943 45.588927 
L 172.029943 43.263551 
L 172.790852 43.263551 
L 172.790852 45.791133 
L 173.551761 45.791133 
L 173.551761 58.83346 
L 174.31267 58.83346 
L 174.31267 54.991535 
L 175.07358 54.991535 
L 175.07358 53.576088 
L 175.834489 53.576088 
L 175.834489 52.160642 
L 176.595398 52.160642 
L 176.595398 57.923531 
L 177.356307 57.923531 
L 177.356307 60.754423 
L 178.117216 60.754423 
L 178.117216 61.765456 
L 178.878125 61.765456 
L 178.878125 66.315105 
L 179.639034 66.315105 
L 179.639034 65.202969 
L 180.399943 65.202969 
L 180.399943 70.763651 
L 181.160852 70.763651 
L 181.160852 72.179097 
L 181.921761 72.179097 
L 181.921761 74.605577 
L 182.68267 74.605577 
L 182.68267 71.774684 
L 183.44358 71.774684 
L 183.44358 73.79675 
L 184.204489 73.79675 
L 184.204489 75.818816 
L 184.965398 75.818816 
L 184.965398 80.166259 
L 185.726307 80.166259 
L 185.726307 82.592738 
L 186.487216 82.592738 
L 186.487216 81.177292 
L 187.248125 81.177292 
L 187.248125 89.97328 
L 188.009034 89.97328 
L 188.009034 85.929147 
L 188.769943 85.929147 
L 188.769943 95.938375 
L 189.530852 95.938375 
L 189.530852 91.18652 
L 190.291761 91.18652 
L 190.291761 97.859338 
L 191.05267 97.859338 
L 191.05267 93.309689 
L 191.81358 93.309689 
L 191.81358 92.096449 
L 192.574489 92.096449 
L 192.574489 99.881404 
L 193.335398 99.881404 
L 193.335398 93.107482 
L 194.096307 93.107482 
L 194.096307 100.892437 
L 194.857216 100.892437 
L 194.857216 103.824433 
L 195.618125 103.824433 
L 195.618125 103.318917 
L 196.379034 103.318917 
L 196.379034 100.892437 
L 197.139943 100.892437 
L 197.139943 107.059739 
L 197.900852 107.059739 
L 197.900852 111.002768 
L 198.661761 111.002768 
L 198.661761 111.306078 
L 199.42267 111.306078 
L 199.42267 109.890632 
L 200.18358 109.890632 
L 200.18358 114.035868 
L 200.944489 114.035868 
L 200.944489 108.576289 
L 201.705398 108.576289 
L 201.705398 111.609388 
L 202.466307 111.609388 
L 202.466307 113.227041 
L 203.227216 113.227041 
L 203.227216 115.855727 
L 203.988125 115.855727 
L 203.988125 120.910893 
L 204.749034 120.910893 
L 204.749034 117.77669 
L 205.509943 117.77669 
L 205.509943 118.08 
L 206.270852 118.08 
L 206.270852 122.629649 
L 207.031761 122.629649 
L 207.031761 117.271174 
L 207.79267 117.271174 
L 207.79267 119.798756 
L 208.55358 119.798756 
L 208.55358 128.089228 
L 209.314489 128.089228 
L 209.314489 125.359438 
L 210.075398 125.359438 
L 210.075398 123.337372 
L 210.836307 123.337372 
L 210.836307 132.43667 
L 211.597216 132.43667 
L 211.597216 131.627844 
L 212.358125 131.627844 
L 212.358125 134.357633 
L 213.119034 134.357633 
L 213.119034 130.92012 
L 213.879943 130.92012 
L 213.879943 135.671976 
L 214.640852 135.671976 
L 214.640852 142.850311 
L 215.401761 142.850311 
L 215.401761 137.087422 
L 216.16267 137.087422 
L 216.16267 138.199559 
L 216.92358 138.199559 
L 216.92358 134.762046 
L 217.684489 134.762046 
L 217.684489 139.008385 
L 218.445398 139.008385 
L 218.445398 143.861344 
L 219.206307 143.861344 
L 219.206307 136.480802 
L 219.967216 136.480802 
L 219.967216 142.243691 
L 221.489034 142.142588 
L 221.489034 146.388927 
L 222.249943 146.388927 
L 222.249943 144.569067 
L 223.010852 144.569067 
L 223.010852 142.749208 
L 224.53267 142.648104 
L 224.53267 147.804373 
L 226.054489 147.905476 
L 226.054489 151.646299 
L 226.815398 151.646299 
L 226.815398 150.837472 
L 227.576307 150.837472 
L 227.576307 150.129749 
L 228.337216 150.129749 
L 228.337216 152.758435 
L 229.098125 152.758435 
L 229.098125 148.91651 
L 229.859034 148.91651 
L 229.859034 155.589328 
L 230.619943 155.589328 
L 230.619943 153.466158 
L 231.380852 153.466158 
L 231.380852 158.420221 
L 232.141761 158.420221 
L 232.141761 154.274985 
L 232.90267 154.274985 
L 232.90267 156.094845 
L 233.66358 156.094845 
L 233.66358 153.162849 
L 234.424489 153.162849 
L 234.424489 159.229047 
L 235.946307 159.127944 
L 235.946307 155.993741 
L 236.707216 155.993741 
L 236.707216 163.172076 
L 237.468125 163.172076 
L 237.468125 157.409188 
L 238.229034 157.409188 
L 238.229034 160.54339 
L 238.989943 160.54339 
L 238.989943 160.341184 
L 239.750852 160.341184 
L 239.750852 167.014002 
L 240.511761 167.014002 
L 240.511761 163.879799 
L 241.27267 163.879799 
L 241.27267 159.127944 
L 242.03358 159.127944 
L 242.03358 164.183109 
L 242.794489 164.183109 
L 242.794489 166.609589 
L 243.555398 166.609589 
L 243.555398 169.339378 
L 244.316307 169.339378 
L 244.316307 168.934965 
L 245.838125 168.833862 
L 245.838125 167.014002 
L 246.599034 167.014002 
L 246.599034 171.765858 
L 247.359943 171.765858 
L 247.359943 170.148205 
L 248.120852 170.148205 
L 248.120852 170.855928 
L 248.881761 170.855928 
L 248.881761 171.159238 
L 249.64267 171.159238 
L 249.64267 175.20337 
L 250.40358 175.20337 
L 250.40358 172.877994 
L 251.164489 172.877994 
L 251.164489 175.80999 
L 251.925398 175.80999 
L 251.925398 172.877994 
L 252.686307 172.877994 
L 252.686307 176.618816 
L 253.447216 176.618816 
L 253.447216 178.438676 
L 254.208125 178.438676 
L 254.208125 179.247503 
L 254.969034 179.247503 
L 254.969034 180.359639 
L 255.729943 180.359639 
L 255.729943 182.786118 
L 256.490852 182.786118 
L 256.490852 180.966259 
L 257.251761 180.966259 
L 257.251761 181.673982 
L 258.01267 181.673982 
L 258.01267 184.605978 
L 258.77358 184.605978 
L 258.77358 186.223631 
L 259.534489 186.223631 
L 259.534489 185.718114 
L 260.295398 185.718114 
L 260.295398 183.999358 
L 261.056307 183.999358 
L 261.056307 183.594945 
L 261.817216 183.594945 
L 261.817216 188.549007 
L 262.578125 188.549007 
L 262.578125 189.964453 
L 263.339034 189.964453 
L 263.339034 188.3468 
L 264.099943 188.3468 
L 264.099943 191.07659 
L 264.860852 191.07659 
L 264.860852 189.964453 
L 265.621761 189.964453 
L 265.621761 193.907482 
L 266.38267 193.907482 
L 266.38267 195.322929 
L 267.14358 195.322929 
L 267.14358 195.120722 
L 267.904489 195.120722 
L 267.904489 195.828445 
L 268.665398 195.828445 
L 268.665398 196.940582 
L 269.426307 196.940582 
L 269.426307 197.850512 
L 270.187216 197.850512 
L 270.187216 198.558235 
L 270.948125 198.558235 
L 270.948125 194.514102 
L 271.709034 194.514102 
L 271.709034 198.052718 
L 272.469943 198.052718 
L 272.469943 199.265958 
L 273.230852 199.265958 
L 273.230852 197.648305 
L 273.991761 197.648305 
L 273.991761 200.074784 
L 274.75267 200.074784 
L 274.75267 201.389127 
L 275.51358 201.389127 
L 275.51358 201.085817 
L 276.274489 201.085817 
L 276.274489 201.490231 
L 277.035398 201.490231 
L 277.035398 200.984714 
L 277.796307 200.984714 
L 277.796307 205.635466 
L 278.557216 205.635466 
L 278.557216 203.208987 
L 279.318125 203.208987 
L 279.318125 204.321123 
L 280.079034 204.321123 
L 280.079034 204.927743 
L 280.839943 204.927743 
L 280.839943 206.140983 
L 281.600852 206.140983 
L 281.600852 206.545396 
L 282.361761 206.545396 
L 282.361761 205.73657 
L 283.12267 205.73657 
L 283.12267 208.264152 
L 283.88358 208.264152 
L 283.88358 205.635466 
L 284.644489 205.635466 
L 284.644489 207.455326 
L 285.405398 207.455326 
L 285.405398 209.275186 
L 286.166307 209.275186 
L 286.166307 209.072979 
L 286.927216 209.072979 
L 286.927216 210.084012 
L 287.688125 210.084012 
L 287.688125 210.488425 
L 288.449034 210.488425 
L 288.449034 211.297252 
L 289.209943 211.297252 
L 289.209943 209.982909 
L 289.970852 209.982909 
L 289.970852 212.510491 
L 290.731761 212.510491 
L 290.731761 211.499458 
L 291.49267 211.499458 
L 291.49267 212.712698 
L 293.014489 212.712698 
L 293.014489 212.106078 
L 293.775398 212.106078 
L 293.775398 212.611595 
L 294.536307 212.611595 
L 294.536307 213.521525 
L 295.297216 213.521525 
L 295.297216 214.936971 
L 296.058125 214.936971 
L 296.058125 214.229248 
L 297.579943 214.128144 
L 297.579943 214.027041 
L 298.340852 214.027041 
L 298.340852 215.543591 
L 299.101761 215.543591 
L 299.101761 215.240281 
L 300.62358 215.139178 
L 300.62358 215.948004 
L 301.384489 215.948004 
L 301.384489 216.655727 
L 302.145398 216.655727 
L 302.145398 215.543591 
L 302.906307 215.543591 
L 302.906307 216.655727 
L 303.667216 216.655727 
L 303.667216 217.262347 
L 305.189034 217.262347 
L 305.189034 216.959037 
L 305.949943 216.959037 
L 305.949943 217.36345 
L 306.710852 217.36345 
L 306.710852 217.66676 
L 307.471761 217.66676 
L 307.471761 217.868967 
L 308.99358 217.767864 
L 308.99358 218.374483 
L 311.276307 218.374483 
L 311.276307 218.88 
L 372.909943 218.88 
L 372.909943 218.88 
" clip-path="url(#pa851548e98)" style="fill: none; stroke: #2ca02c; stroke-width: 1.5; stroke-linecap: square"/>
   </g>
  </g>
 </g>
 <defs>
  <clipPath id="pa851548e98">
   <rect x="53.328125" y="7.2" width="334.8" height="221.76"/>
  </clipPath>
 </defs>
</svg>
