<?xml version="1.0" encoding="utf-8" standalone="no"?>
<!DOCTYPE svg PUBLIC "-//W3C//DTD SVG 1.1//EN"
  "http://www.w3.org/Graphics/SVG/1.1/DTD/svg11.dtd">
<svg xmlns:xlink="http://www.w3.org/1999/xlink" width="388.965625pt" height="268.200625pt" viewBox="0 0 388.965625 268.200625" xmlns="http://www.w3.org/2000/svg" version="1.1">
 <metadata>
  <rdf:RDF xmlns:dc="http://purl.org/dc/elements/1.1/" xmlns:cc="http://creativecommons.org/ns#" xmlns:rdf="http://www.w3.org/1999/02/22-rdf-syntax-ns#">
   <cc:Work>
    <dc:type rdf:resource="http://purl.org/dc/dcmitype/StillImage"/>
    <dc:date>2024-12-12T12:32:03.289310</dc:date>
    <dc:format>image/svg+xml</dc:format>
    <dc:creator>
     <cc:Agent>
      <dc:title>Matplotlib v3.7.3, https://matplotlib.org/</dc:title>
     </cc:Agent>
    </dc:creator>
   </cc:Work>
  </rdf:RDF>
 </metadata>
 <defs>
  <style type="text/css">*{stroke-linejoin: round; stroke-linecap: butt}</style>
 </defs>
 <g id="figure_1">
  <g id="patch_1">
   <path d="M 0 268.200625 
L 388.965625 268.200625 
L 388.965625 0 
L 0 0 
z
" style="fill: #ffffff"/>
  </g>
  <g id="axes_1">
   <g id="patch_2">
    <path d="M 46.965625 228.96 
L 381.765625 228.96 
L 381.765625 7.2 
L 46.965625 7.2 
z
" style="fill: #ffffff"/>
   </g>
   <g id="matplotlib.axis_1">
    <g id="xtick_1">
     <g id="line2d_1">
      <defs>
       <path id="m227ec0c074" d="M 0 0 
L 0 3.5 
" style="stroke: #000000; stroke-width: 0.8"/>
      </defs>
      <g>
       <use xlink:href="#m227ec0c074" x="78.202946" y="228.96" style="stroke: #000000; stroke-width: 0.8"/>
      </g>
     </g>
     <g id="text_1">
      <!-- 1.0 -->
      <g transform="translate(70.251383 243.558437) scale(0.1 -0.1)">
       <defs>
        <path id="DejaVuSans-31" d="M 794 531 
L 1825 531 
L 1825 4091 
L 703 3866 
L 703 4441 
L 1819 4666 
L 2450 4666 
L 2450 531 
L 3481 531 
L 3481 0 
L 794 0 
L 794 531 
z
" transform="scale(0.015625)"/>
        <path id="DejaVuSans-2e" d="M 684 794 
L 1344 794 
L 1344 0 
L 684 0 
L 684 794 
z
" transform="scale(0.015625)"/>
        <path id="DejaVuSans-30" d="M 2034 4250 
Q 1547 4250 1301 3770 
Q 1056 3291 1056 2328 
Q 1056 1369 1301 889 
Q 1547 409 2034 409 
Q 2525 409 2770 889 
Q 3016 1369 3016 2328 
Q 3016 3291 2770 3770 
Q 2525 4250 2034 4250 
z
M 2034 4750 
Q 2819 4750 3233 4129 
Q 3647 3509 3647 2328 
Q 3647 1150 3233 529 
Q 2819 -91 2034 -91 
Q 1250 -91 836 529 
Q 422 1150 422 2328 
Q 422 3509 836 4129 
Q 1250 4750 2034 4750 
z
" transform="scale(0.015625)"/>
       </defs>
       <use xlink:href="#DejaVuSans-31"/>
       <use xlink:href="#DejaVuSans-2e" x="63.623047"/>
       <use xlink:href="#DejaVuSans-30" x="95.410156"/>
      </g>
     </g>
    </g>
    <g id="xtick_2">
     <g id="line2d_2">
      <g>
       <use xlink:href="#m227ec0c074" x="118.250792" y="228.96" style="stroke: #000000; stroke-width: 0.8"/>
      </g>
     </g>
     <g id="text_2">
      <!-- 1.5 -->
      <g transform="translate(110.29923 243.558437) scale(0.1 -0.1)">
       <defs>
        <path id="DejaVuSans-35" d="M 691 4666 
L 3169 4666 
L 3169 4134 
L 1269 4134 
L 1269 2991 
Q 1406 3038 1543 3061 
Q 1681 3084 1819 3084 
Q 2600 3084 3056 2656 
Q 3513 2228 3513 1497 
Q 3513 744 3044 326 
Q 2575 -91 1722 -91 
Q 1428 -91 1123 -41 
Q 819 9 494 109 
L 494 744 
Q 775 591 1075 516 
Q 1375 441 1709 441 
Q 2250 441 2565 725 
Q 2881 1009 2881 1497 
Q 2881 1984 2565 2268 
Q 2250 2553 1709 2553 
Q 1456 2553 1204 2497 
Q 953 2441 691 2322 
L 691 4666 
z
" transform="scale(0.015625)"/>
       </defs>
       <use xlink:href="#DejaVuSans-31"/>
       <use xlink:href="#DejaVuSans-2e" x="63.623047"/>
       <use xlink:href="#DejaVuSans-35" x="95.410156"/>
      </g>
     </g>
    </g>
    <g id="xtick_3">
     <g id="line2d_3">
      <g>
       <use xlink:href="#m227ec0c074" x="158.298639" y="228.96" style="stroke: #000000; stroke-width: 0.8"/>
      </g>
     </g>
     <g id="text_3">
      <!-- 2.0 -->
      <g transform="translate(150.347077 243.558437) scale(0.1 -0.1)">
       <defs>
        <path id="DejaVuSans-32" d="M 1228 531 
L 3431 531 
L 3431 0 
L 469 0 
L 469 531 
Q 828 903 1448 1529 
Q 2069 2156 2228 2338 
Q 2531 2678 2651 2914 
Q 2772 3150 2772 3378 
Q 2772 3750 2511 3984 
Q 2250 4219 1831 4219 
Q 1534 4219 1204 4116 
Q 875 4013 500 3803 
L 500 4441 
Q 881 4594 1212 4672 
Q 1544 4750 1819 4750 
Q 2544 4750 2975 4387 
Q 3406 4025 3406 3419 
Q 3406 3131 3298 2873 
Q 3191 2616 2906 2266 
Q 2828 2175 2409 1742 
Q 1991 1309 1228 531 
z
" transform="scale(0.015625)"/>
       </defs>
       <use xlink:href="#DejaVuSans-32"/>
       <use xlink:href="#DejaVuSans-2e" x="63.623047"/>
       <use xlink:href="#DejaVuSans-30" x="95.410156"/>
      </g>
     </g>
    </g>
    <g id="xtick_4">
     <g id="line2d_4">
      <g>
       <use xlink:href="#m227ec0c074" x="198.346486" y="228.96" style="stroke: #000000; stroke-width: 0.8"/>
      </g>
     </g>
     <g id="text_4">
      <!-- 2.5 -->
      <g transform="translate(190.394924 243.558437) scale(0.1 -0.1)">
       <use xlink:href="#DejaVuSans-32"/>
       <use xlink:href="#DejaVuSans-2e" x="63.623047"/>
       <use xlink:href="#DejaVuSans-35" x="95.410156"/>
      </g>
     </g>
    </g>
    <g id="xtick_5">
     <g id="line2d_5">
      <g>
       <use xlink:href="#m227ec0c074" x="238.394333" y="228.96" style="stroke: #000000; stroke-width: 0.8"/>
      </g>
     </g>
     <g id="text_5">
      <!-- 3.0 -->
      <g transform="translate(230.442771 243.558437) scale(0.1 -0.1)">
       <defs>
        <path id="DejaVuSans-33" d="M 2597 2516 
Q 3050 2419 3304 2112 
Q 3559 1806 3559 1356 
Q 3559 666 3084 287 
Q 2609 -91 1734 -91 
Q 1441 -91 1130 -33 
Q 819 25 488 141 
L 488 750 
Q 750 597 1062 519 
Q 1375 441 1716 441 
Q 2309 441 2620 675 
Q 2931 909 2931 1356 
Q 2931 1769 2642 2001 
Q 2353 2234 1838 2234 
L 1294 2234 
L 1294 2753 
L 1863 2753 
Q 2328 2753 2575 2939 
Q 2822 3125 2822 3475 
Q 2822 3834 2567 4026 
Q 2313 4219 1838 4219 
Q 1578 4219 1281 4162 
Q 984 4106 628 3988 
L 628 4550 
Q 988 4650 1302 4700 
Q 1616 4750 1894 4750 
Q 2613 4750 3031 4423 
Q 3450 4097 3450 3541 
Q 3450 3153 3228 2886 
Q 3006 2619 2597 2516 
z
" transform="scale(0.015625)"/>
       </defs>
       <use xlink:href="#DejaVuSans-33"/>
       <use xlink:href="#DejaVuSans-2e" x="63.623047"/>
       <use xlink:href="#DejaVuSans-30" x="95.410156"/>
      </g>
     </g>
    </g>
    <g id="xtick_6">
     <g id="line2d_6">
      <g>
       <use xlink:href="#m227ec0c074" x="278.44218" y="228.96" style="stroke: #000000; stroke-width: 0.8"/>
      </g>
     </g>
     <g id="text_6">
      <!-- 3.5 -->
      <g transform="translate(270.490618 243.558437) scale(0.1 -0.1)">
       <use xlink:href="#DejaVuSans-33"/>
       <use xlink:href="#DejaVuSans-2e" x="63.623047"/>
       <use xlink:href="#DejaVuSans-35" x="95.410156"/>
      </g>
     </g>
    </g>
    <g id="xtick_7">
     <g id="line2d_7">
      <g>
       <use xlink:href="#m227ec0c074" x="318.490027" y="228.96" style="stroke: #000000; stroke-width: 0.8"/>
      </g>
     </g>
     <g id="text_7">
      <!-- 4.0 -->
      <g transform="translate(310.538464 243.558437) scale(0.1 -0.1)">
       <defs>
        <path id="DejaVuSans-34" d="M 2419 4116 
L 825 1625 
L 2419 1625 
L 2419 4116 
z
M 2253 4666 
L 3047 4666 
L 3047 1625 
L 3713 1625 
L 3713 1100 
L 3047 1100 
L 3047 0 
L 2419 0 
L 2419 1100 
L 313 1100 
L 313 1709 
L 2253 4666 
z
" transform="scale(0.015625)"/>
       </defs>
       <use xlink:href="#DejaVuSans-34"/>
       <use xlink:href="#DejaVuSans-2e" x="63.623047"/>
       <use xlink:href="#DejaVuSans-30" x="95.410156"/>
      </g>
     </g>
    </g>
    <g id="xtick_8">
     <g id="line2d_8">
      <g>
       <use xlink:href="#m227ec0c074" x="358.537874" y="228.96" style="stroke: #000000; stroke-width: 0.8"/>
      </g>
     </g>
     <g id="text_8">
      <!-- 4.5 -->
      <g transform="translate(350.586311 243.558437) scale(0.1 -0.1)">
       <use xlink:href="#DejaVuSans-34"/>
       <use xlink:href="#DejaVuSans-2e" x="63.623047"/>
       <use xlink:href="#DejaVuSans-35" x="95.410156"/>
      </g>
     </g>
    </g>
    <g id="text_9">
     <!-- wavelength [Å] -->
     <g transform="translate(176.328125 258.920937) scale(0.1 -0.1)">
      <defs>
       <path id="DejaVuSans-77" d="M 269 3500 
L 844 3500 
L 1563 769 
L 2278 3500 
L 2956 3500 
L 3675 769 
L 4391 3500 
L 4966 3500 
L 4050 0 
L 3372 0 
L 2619 2869 
L 1863 0 
L 1184 0 
L 269 3500 
z
" transform="scale(0.015625)"/>
       <path id="DejaVuSans-61" d="M 2194 1759 
Q 1497 1759 1228 1600 
Q 959 1441 959 1056 
Q 959 750 1161 570 
Q 1363 391 1709 391 
Q 2188 391 2477 730 
Q 2766 1069 2766 1631 
L 2766 1759 
L 2194 1759 
z
M 3341 1997 
L 3341 0 
L 2766 0 
L 2766 531 
Q 2569 213 2275 61 
Q 1981 -91 1556 -91 
Q 1019 -91 701 211 
Q 384 513 384 1019 
Q 384 1609 779 1909 
Q 1175 2209 1959 2209 
L 2766 2209 
L 2766 2266 
Q 2766 2663 2505 2880 
Q 2244 3097 1772 3097 
Q 1472 3097 1187 3025 
Q 903 2953 641 2809 
L 641 3341 
Q 956 3463 1253 3523 
Q 1550 3584 1831 3584 
Q 2591 3584 2966 3190 
Q 3341 2797 3341 1997 
z
" transform="scale(0.015625)"/>
       <path id="DejaVuSans-76" d="M 191 3500 
L 800 3500 
L 1894 563 
L 2988 3500 
L 3597 3500 
L 2284 0 
L 1503 0 
L 191 3500 
z
" transform="scale(0.015625)"/>
       <path id="DejaVuSans-65" d="M 3597 1894 
L 3597 1613 
L 953 1613 
Q 991 1019 1311 708 
Q 1631 397 2203 397 
Q 2534 397 2845 478 
Q 3156 559 3463 722 
L 3463 178 
Q 3153 47 2828 -22 
Q 2503 -91 2169 -91 
Q 1331 -91 842 396 
Q 353 884 353 1716 
Q 353 2575 817 3079 
Q 1281 3584 2069 3584 
Q 2775 3584 3186 3129 
Q 3597 2675 3597 1894 
z
M 3022 2063 
Q 3016 2534 2758 2815 
Q 2500 3097 2075 3097 
Q 1594 3097 1305 2825 
Q 1016 2553 972 2059 
L 3022 2063 
z
" transform="scale(0.015625)"/>
       <path id="DejaVuSans-6c" d="M 603 4863 
L 1178 4863 
L 1178 0 
L 603 0 
L 603 4863 
z
" transform="scale(0.015625)"/>
       <path id="DejaVuSans-6e" d="M 3513 2113 
L 3513 0 
L 2938 0 
L 2938 2094 
Q 2938 2591 2744 2837 
Q 2550 3084 2163 3084 
Q 1697 3084 1428 2787 
Q 1159 2491 1159 1978 
L 1159 0 
L 581 0 
L 581 3500 
L 1159 3500 
L 1159 2956 
Q 1366 3272 1645 3428 
Q 1925 3584 2291 3584 
Q 2894 3584 3203 3211 
Q 3513 2838 3513 2113 
z
" transform="scale(0.015625)"/>
       <path id="DejaVuSans-67" d="M 2906 1791 
Q 2906 2416 2648 2759 
Q 2391 3103 1925 3103 
Q 1463 3103 1205 2759 
Q 947 2416 947 1791 
Q 947 1169 1205 825 
Q 1463 481 1925 481 
Q 2391 481 2648 825 
Q 2906 1169 2906 1791 
z
M 3481 434 
Q 3481 -459 3084 -895 
Q 2688 -1331 1869 -1331 
Q 1566 -1331 1297 -1286 
Q 1028 -1241 775 -1147 
L 775 -588 
Q 1028 -725 1275 -790 
Q 1522 -856 1778 -856 
Q 2344 -856 2625 -561 
Q 2906 -266 2906 331 
L 2906 616 
Q 2728 306 2450 153 
Q 2172 0 1784 0 
Q 1141 0 747 490 
Q 353 981 353 1791 
Q 353 2603 747 3093 
Q 1141 3584 1784 3584 
Q 2172 3584 2450 3431 
Q 2728 3278 2906 2969 
L 2906 3500 
L 3481 3500 
L 3481 434 
z
" transform="scale(0.015625)"/>
       <path id="DejaVuSans-74" d="M 1172 4494 
L 1172 3500 
L 2356 3500 
L 2356 3053 
L 1172 3053 
L 1172 1153 
Q 1172 725 1289 603 
Q 1406 481 1766 481 
L 2356 481 
L 2356 0 
L 1766 0 
Q 1100 0 847 248 
Q 594 497 594 1153 
L 594 3053 
L 172 3053 
L 172 3500 
L 594 3500 
L 594 4494 
L 1172 4494 
z
" transform="scale(0.015625)"/>
       <path id="DejaVuSans-68" d="M 3513 2113 
L 3513 0 
L 2938 0 
L 2938 2094 
Q 2938 2591 2744 2837 
Q 2550 3084 2163 3084 
Q 1697 3084 1428 2787 
Q 1159 2491 1159 1978 
L 1159 0 
L 581 0 
L 581 4863 
L 1159 4863 
L 1159 2956 
Q 1366 3272 1645 3428 
Q 1925 3584 2291 3584 
Q 2894 3584 3203 3211 
Q 3513 2838 3513 2113 
z
" transform="scale(0.015625)"/>
       <path id="DejaVuSans-20" transform="scale(0.015625)"/>
       <path id="DejaVuSans-5b" d="M 550 4863 
L 1875 4863 
L 1875 4416 
L 1125 4416 
L 1125 -397 
L 1875 -397 
L 1875 -844 
L 550 -844 
L 550 4863 
z
" transform="scale(0.015625)"/>
       <path id="DejaVuSans-c5" d="M 2663 5081 
Q 2663 5278 2523 5417 
Q 2384 5556 2188 5556 
Q 1988 5556 1852 5420 
Q 1716 5284 1716 5081 
Q 1716 4884 1853 4746 
Q 1991 4609 2188 4609 
Q 2384 4609 2523 4746 
Q 2663 4884 2663 5081 
z
M 2188 4044 
L 1338 1722 
L 3041 1722 
L 2188 4044 
z
M 1716 4366 
Q 1525 4494 1428 4673 
Q 1331 4853 1331 5081 
Q 1331 5441 1579 5691 
Q 1828 5941 2188 5941 
Q 2544 5941 2795 5689 
Q 3047 5438 3047 5081 
Q 3047 4863 2948 4678 
Q 2850 4494 2663 4366 
L 4325 0 
L 3669 0 
L 3244 1197 
L 1141 1197 
L 716 0 
L 50 0 
L 1716 4366 
z
" transform="scale(0.015625)"/>
       <path id="DejaVuSans-5d" d="M 1947 4863 
L 1947 -844 
L 622 -844 
L 622 -397 
L 1369 -397 
L 1369 4416 
L 622 4416 
L 622 4863 
L 1947 4863 
z
" transform="scale(0.015625)"/>
      </defs>
      <use xlink:href="#DejaVuSans-77"/>
      <use xlink:href="#DejaVuSans-61" x="81.787109"/>
      <use xlink:href="#DejaVuSans-76" x="143.066406"/>
      <use xlink:href="#DejaVuSans-65" x="202.246094"/>
      <use xlink:href="#DejaVuSans-6c" x="263.769531"/>
      <use xlink:href="#DejaVuSans-65" x="291.552734"/>
      <use xlink:href="#DejaVuSans-6e" x="353.076172"/>
      <use xlink:href="#DejaVuSans-67" x="416.455078"/>
      <use xlink:href="#DejaVuSans-74" x="479.931641"/>
      <use xlink:href="#DejaVuSans-68" x="519.140625"/>
      <use xlink:href="#DejaVuSans-20" x="582.519531"/>
      <use xlink:href="#DejaVuSans-5b" x="614.306641"/>
      <use xlink:href="#DejaVuSans-c5" x="653.320312"/>
      <use xlink:href="#DejaVuSans-5d" x="721.728516"/>
     </g>
    </g>
   </g>
   <g id="matplotlib.axis_2">
    <g id="ytick_1">
     <g id="line2d_9">
      <defs>
       <path id="md1aa9cb25a" d="M 0 0 
L -3.5 0 
" style="stroke: #000000; stroke-width: 0.8"/>
      </defs>
      <g>
       <use xlink:href="#md1aa9cb25a" x="46.965625" y="218.88" style="stroke: #000000; stroke-width: 0.8"/>
      </g>
     </g>
     <g id="text_10">
      <!-- 0 -->
      <g transform="translate(33.603125 222.679219) scale(0.1 -0.1)">
       <use xlink:href="#DejaVuSans-30"/>
      </g>
     </g>
    </g>
    <g id="ytick_2">
     <g id="line2d_10">
      <g>
       <use xlink:href="#md1aa9cb25a" x="46.965625" y="193.393274" style="stroke: #000000; stroke-width: 0.8"/>
      </g>
     </g>
     <g id="text_11">
      <!-- 100 -->
      <g transform="translate(20.878125 197.192493) scale(0.1 -0.1)">
       <use xlink:href="#DejaVuSans-31"/>
       <use xlink:href="#DejaVuSans-30" x="63.623047"/>
       <use xlink:href="#DejaVuSans-30" x="127.246094"/>
      </g>
     </g>
    </g>
    <g id="ytick_3">
     <g id="line2d_11">
      <g>
       <use xlink:href="#md1aa9cb25a" x="46.965625" y="167.906549" style="stroke: #000000; stroke-width: 0.8"/>
      </g>
     </g>
     <g id="text_12">
      <!-- 200 -->
      <g transform="translate(20.878125 171.705767) scale(0.1 -0.1)">
       <use xlink:href="#DejaVuSans-32"/>
       <use xlink:href="#DejaVuSans-30" x="63.623047"/>
       <use xlink:href="#DejaVuSans-30" x="127.246094"/>
      </g>
     </g>
    </g>
    <g id="ytick_4">
     <g id="line2d_12">
      <g>
       <use xlink:href="#md1aa9cb25a" x="46.965625" y="142.419823" style="stroke: #000000; stroke-width: 0.8"/>
      </g>
     </g>
     <g id="text_13">
      <!-- 300 -->
      <g transform="translate(20.878125 146.219042) scale(0.1 -0.1)">
       <use xlink:href="#DejaVuSans-33"/>
       <use xlink:href="#DejaVuSans-30" x="63.623047"/>
       <use xlink:href="#DejaVuSans-30" x="127.246094"/>
      </g>
     </g>
    </g>
    <g id="ytick_5">
     <g id="line2d_13">
      <g>
       <use xlink:href="#md1aa9cb25a" x="46.965625" y="116.933097" style="stroke: #000000; stroke-width: 0.8"/>
      </g>
     </g>
     <g id="text_14">
      <!-- 400 -->
      <g transform="translate(20.878125 120.732316) scale(0.1 -0.1)">
       <use xlink:href="#DejaVuSans-34"/>
       <use xlink:href="#DejaVuSans-30" x="63.623047"/>
       <use xlink:href="#DejaVuSans-30" x="127.246094"/>
      </g>
     </g>
    </g>
    <g id="ytick_6">
     <g id="line2d_14">
      <g>
       <use xlink:href="#md1aa9cb25a" x="46.965625" y="91.446372" style="stroke: #000000; stroke-width: 0.8"/>
      </g>
     </g>
     <g id="text_15">
      <!-- 500 -->
      <g transform="translate(20.878125 95.24559) scale(0.1 -0.1)">
       <use xlink:href="#DejaVuSans-35"/>
       <use xlink:href="#DejaVuSans-30" x="63.623047"/>
       <use xlink:href="#DejaVuSans-30" x="127.246094"/>
      </g>
     </g>
    </g>
    <g id="ytick_7">
     <g id="line2d_15">
      <g>
       <use xlink:href="#md1aa9cb25a" x="46.965625" y="65.959646" style="stroke: #000000; stroke-width: 0.8"/>
      </g>
     </g>
     <g id="text_16">
      <!-- 600 -->
      <g transform="translate(20.878125 69.758865) scale(0.1 -0.1)">
       <defs>
        <path id="DejaVuSans-36" d="M 2113 2584 
Q 1688 2584 1439 2293 
Q 1191 2003 1191 1497 
Q 1191 994 1439 701 
Q 1688 409 2113 409 
Q 2538 409 2786 701 
Q 3034 994 3034 1497 
Q 3034 2003 2786 2293 
Q 2538 2584 2113 2584 
z
M 3366 4563 
L 3366 3988 
Q 3128 4100 2886 4159 
Q 2644 4219 2406 4219 
Q 1781 4219 1451 3797 
Q 1122 3375 1075 2522 
Q 1259 2794 1537 2939 
Q 1816 3084 2150 3084 
Q 2853 3084 3261 2657 
Q 3669 2231 3669 1497 
Q 3669 778 3244 343 
Q 2819 -91 2113 -91 
Q 1303 -91 875 529 
Q 447 1150 447 2328 
Q 447 3434 972 4092 
Q 1497 4750 2381 4750 
Q 2619 4750 2861 4703 
Q 3103 4656 3366 4563 
z
" transform="scale(0.015625)"/>
       </defs>
       <use xlink:href="#DejaVuSans-36"/>
       <use xlink:href="#DejaVuSans-30" x="63.623047"/>
       <use xlink:href="#DejaVuSans-30" x="127.246094"/>
      </g>
     </g>
    </g>
    <g id="ytick_8">
     <g id="line2d_16">
      <g>
       <use xlink:href="#md1aa9cb25a" x="46.965625" y="40.47292" style="stroke: #000000; stroke-width: 0.8"/>
      </g>
     </g>
     <g id="text_17">
      <!-- 700 -->
      <g transform="translate(20.878125 44.272139) scale(0.1 -0.1)">
       <defs>
        <path id="DejaVuSans-37" d="M 525 4666 
L 3525 4666 
L 3525 4397 
L 1831 0 
L 1172 0 
L 2766 4134 
L 525 4134 
L 525 4666 
z
" transform="scale(0.015625)"/>
       </defs>
       <use xlink:href="#DejaVuSans-37"/>
       <use xlink:href="#DejaVuSans-30" x="63.623047"/>
       <use xlink:href="#DejaVuSans-30" x="127.246094"/>
      </g>
     </g>
    </g>
    <g id="ytick_9">
     <g id="line2d_17">
      <g>
       <use xlink:href="#md1aa9cb25a" x="46.965625" y="14.986195" style="stroke: #000000; stroke-width: 0.8"/>
      </g>
     </g>
     <g id="text_18">
      <!-- 800 -->
      <g transform="translate(20.878125 18.785413) scale(0.1 -0.1)">
       <defs>
        <path id="DejaVuSans-38" d="M 2034 2216 
Q 1584 2216 1326 1975 
Q 1069 1734 1069 1313 
Q 1069 891 1326 650 
Q 1584 409 2034 409 
Q 2484 409 2743 651 
Q 3003 894 3003 1313 
Q 3003 1734 2745 1975 
Q 2488 2216 2034 2216 
z
M 1403 2484 
Q 997 2584 770 2862 
Q 544 3141 544 3541 
Q 544 4100 942 4425 
Q 1341 4750 2034 4750 
Q 2731 4750 3128 4425 
Q 3525 4100 3525 3541 
Q 3525 3141 3298 2862 
Q 3072 2584 2669 2484 
Q 3125 2378 3379 2068 
Q 3634 1759 3634 1313 
Q 3634 634 3220 271 
Q 2806 -91 2034 -91 
Q 1263 -91 848 271 
Q 434 634 434 1313 
Q 434 1759 690 2068 
Q 947 2378 1403 2484 
z
M 1172 3481 
Q 1172 3119 1398 2916 
Q 1625 2713 2034 2713 
Q 2441 2713 2670 2916 
Q 2900 3119 2900 3481 
Q 2900 3844 2670 4047 
Q 2441 4250 2034 4250 
Q 1625 4250 1398 4047 
Q 1172 3844 1172 3481 
z
" transform="scale(0.015625)"/>
       </defs>
       <use xlink:href="#DejaVuSans-38"/>
       <use xlink:href="#DejaVuSans-30" x="63.623047"/>
       <use xlink:href="#DejaVuSans-30" x="127.246094"/>
      </g>
     </g>
    </g>
    <g id="text_19">
     <!-- [counts] -->
     <g transform="translate(14.798438 138.6925) rotate(-90) scale(0.1 -0.1)">
      <defs>
       <path id="DejaVuSans-63" d="M 3122 3366 
L 3122 2828 
Q 2878 2963 2633 3030 
Q 2388 3097 2138 3097 
Q 1578 3097 1268 2742 
Q 959 2388 959 1747 
Q 959 1106 1268 751 
Q 1578 397 2138 397 
Q 2388 397 2633 464 
Q 2878 531 3122 666 
L 3122 134 
Q 2881 22 2623 -34 
Q 2366 -91 2075 -91 
Q 1284 -91 818 406 
Q 353 903 353 1747 
Q 353 2603 823 3093 
Q 1294 3584 2113 3584 
Q 2378 3584 2631 3529 
Q 2884 3475 3122 3366 
z
" transform="scale(0.015625)"/>
       <path id="DejaVuSans-6f" d="M 1959 3097 
Q 1497 3097 1228 2736 
Q 959 2375 959 1747 
Q 959 1119 1226 758 
Q 1494 397 1959 397 
Q 2419 397 2687 759 
Q 2956 1122 2956 1747 
Q 2956 2369 2687 2733 
Q 2419 3097 1959 3097 
z
M 1959 3584 
Q 2709 3584 3137 3096 
Q 3566 2609 3566 1747 
Q 3566 888 3137 398 
Q 2709 -91 1959 -91 
Q 1206 -91 779 398 
Q 353 888 353 1747 
Q 353 2609 779 3096 
Q 1206 3584 1959 3584 
z
" transform="scale(0.015625)"/>
       <path id="DejaVuSans-75" d="M 544 1381 
L 544 3500 
L 1119 3500 
L 1119 1403 
Q 1119 906 1312 657 
Q 1506 409 1894 409 
Q 2359 409 2629 706 
Q 2900 1003 2900 1516 
L 2900 3500 
L 3475 3500 
L 3475 0 
L 2900 0 
L 2900 538 
Q 2691 219 2414 64 
Q 2138 -91 1772 -91 
Q 1169 -91 856 284 
Q 544 659 544 1381 
z
M 1991 3584 
L 1991 3584 
z
" transform="scale(0.015625)"/>
       <path id="DejaVuSans-73" d="M 2834 3397 
L 2834 2853 
Q 2591 2978 2328 3040 
Q 2066 3103 1784 3103 
Q 1356 3103 1142 2972 
Q 928 2841 928 2578 
Q 928 2378 1081 2264 
Q 1234 2150 1697 2047 
L 1894 2003 
Q 2506 1872 2764 1633 
Q 3022 1394 3022 966 
Q 3022 478 2636 193 
Q 2250 -91 1575 -91 
Q 1294 -91 989 -36 
Q 684 19 347 128 
L 347 722 
Q 666 556 975 473 
Q 1284 391 1588 391 
Q 1994 391 2212 530 
Q 2431 669 2431 922 
Q 2431 1156 2273 1281 
Q 2116 1406 1581 1522 
L 1381 1569 
Q 847 1681 609 1914 
Q 372 2147 372 2553 
Q 372 3047 722 3315 
Q 1072 3584 1716 3584 
Q 2034 3584 2315 3537 
Q 2597 3491 2834 3397 
z
" transform="scale(0.015625)"/>
      </defs>
      <use xlink:href="#DejaVuSans-5b"/>
      <use xlink:href="#DejaVuSans-63" x="39.013672"/>
      <use xlink:href="#DejaVuSans-6f" x="93.994141"/>
      <use xlink:href="#DejaVuSans-75" x="155.175781"/>
      <use xlink:href="#DejaVuSans-6e" x="218.554688"/>
      <use xlink:href="#DejaVuSans-74" x="281.933594"/>
      <use xlink:href="#DejaVuSans-73" x="321.142578"/>
      <use xlink:href="#DejaVuSans-5d" x="373.242188"/>
     </g>
    </g>
   </g>
   <g id="patch_3">
    <path d="M 46.965625 228.96 
L 46.965625 7.2 
" style="fill: none; stroke: #000000; stroke-width: 0.8; stroke-linejoin: miter; stroke-linecap: square"/>
   </g>
   <g id="patch_4">
    <path d="M 381.765625 228.96 
L 381.765625 7.2 
" style="fill: none; stroke: #000000; stroke-width: 0.8; stroke-linejoin: miter; stroke-linecap: square"/>
   </g>
   <g id="patch_5">
    <path d="M 46.965625 228.96 
L 381.765625 228.96 
" style="fill: none; stroke: #000000; stroke-width: 0.8; stroke-linejoin: miter; stroke-linecap: square"/>
   </g>
   <g id="patch_6">
    <path d="M 46.965625 7.2 
L 381.765625 7.2 
" style="fill: none; stroke: #000000; stroke-width: 0.8; stroke-linejoin: miter; stroke-linecap: square"/>
   </g>
   <g id="legend_1">
    <g id="patch_7">
     <path d="M 277.7625 44.834375 
L 374.765625 44.834375 
Q 376.765625 44.834375 376.765625 42.834375 
L 376.765625 14.2 
Q 376.765625 12.2 374.765625 12.2 
L 277.7625 12.2 
Q 275.7625 12.2 275.7625 14.2 
L 275.7625 42.834375 
Q 275.7625 44.834375 277.7625 44.834375 
z
" style="fill: #ffffff; opacity: 0.8; stroke: #cccccc; stroke-linejoin: miter"/>
    </g>
    <g id="line2d_18">
     <path d="M 279.7625 20.298437 
L 279.7625 20.298437 
L 289.7625 20.298437 
L 289.7625 20.298437 
L 299.7625 20.298437 
" style="fill: none; stroke: #1f77b4; stroke-width: 1.5; stroke-linecap: square"/>
    </g>
    <g id="text_20">
     <!-- wfm -->
     <g transform="translate(307.7625 23.798437) scale(0.1 -0.1)">
      <defs>
       <path id="DejaVuSans-66" d="M 2375 4863 
L 2375 4384 
L 1825 4384 
Q 1516 4384 1395 4259 
Q 1275 4134 1275 3809 
L 1275 3500 
L 2222 3500 
L 2222 3053 
L 1275 3053 
L 1275 0 
L 697 0 
L 697 3053 
L 147 3053 
L 147 3500 
L 697 3500 
L 697 3744 
Q 697 4328 969 4595 
Q 1241 4863 1831 4863 
L 2375 4863 
z
" transform="scale(0.015625)"/>
       <path id="DejaVuSans-6d" d="M 3328 2828 
Q 3544 3216 3844 3400 
Q 4144 3584 4550 3584 
Q 5097 3584 5394 3201 
Q 5691 2819 5691 2113 
L 5691 0 
L 5113 0 
L 5113 2094 
Q 5113 2597 4934 2840 
Q 4756 3084 4391 3084 
Q 3944 3084 3684 2787 
Q 3425 2491 3425 1978 
L 3425 0 
L 2847 0 
L 2847 2094 
Q 2847 2600 2669 2842 
Q 2491 3084 2119 3084 
Q 1678 3084 1418 2786 
Q 1159 2488 1159 1978 
L 1159 0 
L 581 0 
L 581 3500 
L 1159 3500 
L 1159 2956 
Q 1356 3278 1631 3431 
Q 1906 3584 2284 3584 
Q 2666 3584 2933 3390 
Q 3200 3197 3328 2828 
z
" transform="scale(0.015625)"/>
      </defs>
      <use xlink:href="#DejaVuSans-77"/>
      <use xlink:href="#DejaVuSans-66" x="81.787109"/>
      <use xlink:href="#DejaVuSans-6d" x="116.992188"/>
     </g>
    </g>
    <g id="line2d_19">
     <path d="M 279.7625 34.976562 
L 279.7625 34.976562 
L 289.7625 34.976562 
L 289.7625 34.976562 
L 299.7625 34.976562 
" style="fill: none; stroke: #ff7f0e; stroke-width: 1.5; stroke-linecap: square"/>
    </g>
    <g id="text_21">
     <!-- ground_truth -->
     <g transform="translate(307.7625 38.476562) scale(0.1 -0.1)">
      <defs>
       <path id="DejaVuSans-72" d="M 2631 2963 
Q 2534 3019 2420 3045 
Q 2306 3072 2169 3072 
Q 1681 3072 1420 2755 
Q 1159 2438 1159 1844 
L 1159 0 
L 581 0 
L 581 3500 
L 1159 3500 
L 1159 2956 
Q 1341 3275 1631 3429 
Q 1922 3584 2338 3584 
Q 2397 3584 2469 3576 
Q 2541 3569 2628 3553 
L 2631 2963 
z
" transform="scale(0.015625)"/>
       <path id="DejaVuSans-64" d="M 2906 2969 
L 2906 4863 
L 3481 4863 
L 3481 0 
L 2906 0 
L 2906 525 
Q 2725 213 2448 61 
Q 2172 -91 1784 -91 
Q 1150 -91 751 415 
Q 353 922 353 1747 
Q 353 2572 751 3078 
Q 1150 3584 1784 3584 
Q 2172 3584 2448 3432 
Q 2725 3281 2906 2969 
z
M 947 1747 
Q 947 1113 1208 752 
Q 1469 391 1925 391 
Q 2381 391 2643 752 
Q 2906 1113 2906 1747 
Q 2906 2381 2643 2742 
Q 2381 3103 1925 3103 
Q 1469 3103 1208 2742 
Q 947 2381 947 1747 
z
" transform="scale(0.015625)"/>
       <path id="DejaVuSans-5f" d="M 3263 -1063 
L 3263 -1509 
L -63 -1509 
L -63 -1063 
L 3263 -1063 
z
" transform="scale(0.015625)"/>
      </defs>
      <use xlink:href="#DejaVuSans-67"/>
      <use xlink:href="#DejaVuSans-72" x="63.476562"/>
      <use xlink:href="#DejaVuSans-6f" x="102.339844"/>
      <use xlink:href="#DejaVuSans-75" x="163.521484"/>
      <use xlink:href="#DejaVuSans-6e" x="226.900391"/>
      <use xlink:href="#DejaVuSans-64" x="290.279297"/>
      <use xlink:href="#DejaVuSans-5f" x="353.755859"/>
      <use xlink:href="#DejaVuSans-74" x="403.755859"/>
      <use xlink:href="#DejaVuSans-72" x="442.964844"/>
      <use xlink:href="#DejaVuSans-75" x="484.078125"/>
      <use xlink:href="#DejaVuSans-74" x="547.457031"/>
      <use xlink:href="#DejaVuSans-68" x="586.666016"/>
     </g>
    </g>
   </g>
   <g id="line2d_20">
    <path d="M 62.183807 218.88 
L 71.314716 218.88 
L 71.314716 214.802124 
L 72.836534 214.802124 
L 72.836534 208.68531 
L 74.358352 208.68531 
L 74.358352 190.844602 
L 75.88017 190.844602 
L 75.88017 191.354336 
L 77.401989 191.354336 
L 77.401989 181.924248 
L 78.923807 181.924248 
L 78.923807 172.494159 
L 80.445625 172.494159 
L 80.445625 166.377345 
L 81.967443 166.377345 
L 81.967443 157.966726 
L 83.489261 157.966726 
L 83.489261 152.869381 
L 85.01108 152.869381 
L 85.01108 145.987965 
L 86.532898 145.987965 
L 86.532898 129.166726 
L 89.576534 129.166726 
L 89.576534 108.267611 
L 91.098352 108.267611 
L 91.098352 97.818053 
L 92.62017 97.818053 
L 92.62017 95.014513 
L 94.141989 95.014513 
L 94.141989 93.230442 
L 95.663807 93.230442 
L 95.663807 88.387965 
L 97.185625 88.387965 
L 97.185625 82.780885 
L 98.707443 82.780885 
L 98.707443 78.448142 
L 100.229261 78.448142 
L 100.229261 71.311858 
L 101.75108 71.311858 
L 101.75108 58.823363 
L 103.272898 58.823363 
L 103.272898 55.000354 
L 104.794716 55.000354 
L 104.794716 37.414513 
L 106.316534 37.414513 
L 106.316534 42.766726 
L 107.838352 42.766726 
L 107.838352 27.729558 
L 109.36017 27.729558 
L 109.36017 43.531327 
L 110.881989 43.531327 
L 110.881989 20.338407 
L 112.403807 20.338407 
L 112.403807 34.356106 
L 113.925625 34.356106 
L 113.925625 19.064071 
L 115.447443 19.064071 
L 115.447443 24.416283 
L 118.49108 24.416283 
L 118.49108 23.906549 
L 120.012898 23.906549 
L 120.012898 19.064071 
L 121.534716 19.064071 
L 121.534716 29.768496 
L 123.056534 29.768496 
L 123.056534 20.848142 
L 124.578352 20.848142 
L 124.578352 31.042832 
L 126.10017 31.042832 
L 126.10017 26.964956 
L 127.621989 26.964956 
L 127.621989 41.747257 
L 129.143807 41.747257 
L 129.143807 35.630442 
L 130.665625 35.630442 
L 130.665625 42.256991 
L 132.187443 42.256991 
L 132.187443 27.729558 
L 133.709261 27.729558 
L 133.709261 48.628673 
L 135.23108 48.628673 
L 135.23108 45.570265 
L 136.752898 45.570265 
L 136.752898 40.727788 
L 138.274716 40.727788 
L 138.274716 46.589735 
L 139.796534 46.589735 
L 139.796534 59.842832 
L 141.318352 59.842832 
L 141.318352 45.060531 
L 142.84017 45.060531 
L 142.84017 47.099469 
L 144.361989 47.099469 
L 144.361989 56.529558 
L 145.883807 56.529558 
L 145.883807 53.47115 
L 147.405625 53.47115 
L 147.405625 49.903009 
L 148.927443 49.903009 
L 148.927443 61.626903 
L 150.449261 61.626903 
L 150.449261 56.019823 
L 151.97108 56.019823 
L 151.97108 62.646372 
L 153.492898 62.646372 
L 153.492898 66.724248 
L 155.014716 66.724248 
L 155.014716 59.587965 
L 156.536534 59.587965 
L 156.536534 63.410973 
L 158.058352 63.410973 
L 158.058352 77.173805 
L 159.58017 77.173805 
L 159.58017 68.253451 
L 161.101989 68.253451 
L 161.101989 58.058761 
L 162.623807 58.058761 
L 162.623807 66.469381 
L 164.145625 66.469381 
L 164.145625 70.037522 
L 165.667443 70.037522 
L 165.667443 71.566726 
L 167.189261 71.566726 
L 167.189261 78.703009 
L 168.71108 78.703009 
L 168.71108 81.761416 
L 170.232898 81.761416 
L 170.232898 65.449912 
L 171.754716 65.449912 
L 171.754716 76.154336 
L 173.276534 76.154336 
L 173.276534 71.311858 
L 174.798352 71.311858 
L 174.798352 89.407434 
L 176.32017 89.407434 
L 176.32017 86.603894 
L 177.841989 86.603894 
L 177.841989 92.975575 
L 179.363807 92.975575 
L 179.363807 76.409204 
L 180.885625 76.409204 
L 180.885625 100.366726 
L 182.407443 100.366726 
L 182.407443 103.68 
L 183.929261 103.68 
L 183.929261 110.051681 
L 185.45108 110.051681 
L 185.45108 112.345487 
L 186.972898 112.345487 
L 186.972898 113.364956 
L 188.494716 113.364956 
L 188.494716 129.931327 
L 190.016534 129.931327 
L 190.016534 136.812743 
L 191.538352 136.812743 
L 191.538352 142.67469 
L 193.06017 142.67469 
L 193.06017 143.949027 
L 194.581989 143.949027 
L 194.581989 158.731327 
L 196.103807 158.731327 
L 196.103807 160.770265 
L 197.625625 160.770265 
L 197.625625 169.945487 
L 199.147443 169.945487 
L 199.147443 169.180885 
L 200.669261 169.180885 
L 200.669261 180.904779 
L 202.19108 180.904779 
L 202.19108 177.591504 
L 203.712898 177.591504 
L 203.712898 157.711858 
L 205.234716 157.711858 
L 205.234716 162.299469 
L 206.756534 162.299469 
L 206.756534 155.927788 
L 208.278352 155.927788 
L 208.278352 137.322478 
L 209.80017 137.322478 
L 209.80017 130.441062 
L 211.321989 130.441062 
L 211.321989 113.87469 
L 212.843807 113.87469 
L 212.843807 106.228673 
L 214.365625 106.228673 
L 214.365625 104.954336 
L 215.887443 104.954336 
L 215.887443 100.366726 
L 217.409261 100.366726 
L 217.409261 96.798584 
L 218.93108 96.798584 
L 218.93108 85.584425 
L 220.452898 85.584425 
L 220.452898 91.701239 
L 221.974716 91.701239 
L 221.974716 85.07469 
L 223.496534 85.07469 
L 223.496534 73.605664 
L 225.018352 73.605664 
L 225.018352 76.918938 
L 226.54017 76.918938 
L 226.54017 67.48885 
L 228.061989 67.48885 
L 228.061989 60.607434 
L 229.583807 60.607434 
L 229.583807 61.626903 
L 231.105625 61.626903 
L 231.105625 67.998584 
L 232.627443 67.998584 
L 232.627443 56.784425 
L 234.149261 56.784425 
L 234.149261 60.352566 
L 235.67108 60.352566 
L 235.67108 52.961416 
L 237.192898 52.961416 
L 237.192898 43.531327 
L 238.714716 43.531327 
L 238.714716 42.511858 
L 240.236534 42.511858 
L 240.236534 55.764956 
L 241.758352 55.764956 
L 241.758352 56.27469 
L 243.28017 56.27469 
L 243.28017 64.68531 
L 244.801989 64.68531 
L 244.801989 60.352566 
L 246.323807 60.352566 
L 246.323807 73.860531 
L 247.845625 73.860531 
L 247.845625 72.331327 
L 249.367443 72.331327 
L 249.367443 61.88177 
L 250.889261 61.88177 
L 250.889261 79.722478 
L 252.41108 79.722478 
L 252.41108 73.095929 
L 253.932898 73.095929 
L 253.932898 86.858761 
L 255.454716 86.858761 
L 255.454716 83.800354 
L 256.976534 83.800354 
L 256.976534 76.918938 
L 258.498352 76.918938 
L 258.498352 84.055221 
L 260.02017 84.055221 
L 260.02017 80.996814 
L 261.541989 80.996814 
L 261.541989 85.839292 
L 263.063807 85.839292 
L 263.063807 84.564956 
L 264.585625 84.564956 
L 264.585625 93.740177 
L 266.107443 93.740177 
L 266.107443 96.28885 
L 267.629261 96.28885 
L 267.629261 94.249912 
L 269.15108 94.249912 
L 269.15108 90.172035 
L 270.672898 90.172035 
L 270.672898 102.915398 
L 272.194716 102.915398 
L 272.194716 95.014513 
L 273.716534 95.014513 
L 273.716534 107.503009 
L 275.238352 107.503009 
L 275.238352 97.563186 
L 276.76017 97.563186 
L 276.76017 105.464071 
L 278.281989 105.464071 
L 278.281989 107.248142 
L 279.803807 107.248142 
L 279.803807 112.090619 
L 281.325625 112.090619 
L 281.325625 114.384425 
L 282.847443 114.384425 
L 282.847443 114.639292 
L 284.369261 114.639292 
L 284.369261 114.894159 
L 285.89108 114.894159 
L 285.89108 117.442832 
L 287.412898 117.442832 
L 287.412898 130.695929 
L 288.934716 130.695929 
L 288.934716 115.658761 
L 290.456534 115.658761 
L 290.456534 116.67823 
L 291.978352 116.67823 
L 291.978352 118.972035 
L 293.50017 118.972035 
L 293.50017 123.049912 
L 295.021989 123.049912 
L 295.021989 122.28531 
L 296.543807 122.28531 
L 296.543807 129.166726 
L 298.065625 129.166726 
L 298.065625 131.715398 
L 299.587443 131.715398 
L 299.587443 126.108319 
L 301.109261 126.108319 
L 301.109261 134.009204 
L 302.63108 134.009204 
L 302.63108 136.303009 
L 304.152898 136.303009 
L 304.152898 138.851681 
L 305.674716 138.851681 
L 305.674716 137.067611 
L 307.196534 137.067611 
L 307.196534 143.184425 
L 308.718352 143.184425 
L 308.718352 144.968496 
L 311.761989 144.968496 
L 311.761989 144.203894 
L 313.283807 144.203894 
L 313.283807 150.065841 
L 314.805625 150.065841 
L 314.805625 154.653451 
L 316.327443 154.653451 
L 316.327443 149.301239 
L 317.849261 149.301239 
L 317.849261 156.437522 
L 319.37108 156.437522 
L 319.37108 156.947257 
L 320.892898 156.947257 
L 320.892898 150.320708 
L 322.414716 150.320708 
L 322.414716 161.025133 
L 323.936534 161.025133 
L 323.936534 173.003894 
L 325.458352 173.003894 
L 325.458352 175.807434 
L 326.98017 175.807434 
L 326.98017 171.219823 
L 328.501989 171.219823 
L 328.501989 171.47469 
L 330.023807 171.47469 
L 330.023807 174.533097 
L 331.545625 174.533097 
L 331.545625 179.375575 
L 333.067443 179.375575 
L 333.067443 185.492389 
L 334.589261 185.492389 
L 334.589261 179.375575 
L 336.11108 179.375575 
L 336.11108 192.373805 
L 337.632898 192.373805 
L 337.632898 200.27469 
L 340.676534 200.27469 
L 340.676534 200.019823 
L 342.198352 200.019823 
L 342.198352 204.862301 
L 343.72017 204.862301 
L 343.72017 205.372035 
L 345.241989 205.372035 
L 345.241989 206.391504 
L 346.763807 206.391504 
L 346.763807 208.940177 
L 348.285625 208.940177 
L 348.285625 210.979115 
L 349.807443 210.979115 
L 349.807443 213.782655 
L 351.329261 213.782655 
L 351.329261 213.27292 
L 352.85108 213.27292 
L 352.85108 214.547257 
L 354.372898 214.547257 
L 354.372898 217.095929 
L 355.894716 217.095929 
L 355.894716 216.586195 
L 357.416534 216.586195 
L 357.416534 217.860531 
L 358.938352 217.860531 
L 358.938352 218.115398 
L 360.46017 218.115398 
L 360.46017 218.625133 
L 361.981989 218.625133 
L 361.981989 218.88 
L 366.547443 218.88 
L 366.547443 218.88 
" clip-path="url(#p4d3371cc11)" style="fill: none; stroke: #1f77b4; stroke-width: 1.5; stroke-linecap: square"/>
   </g>
   <g id="line2d_21">
    <path d="M 62.183807 218.88 
L 69.792898 218.88 
L 69.792898 217.350796 
L 71.314716 217.350796 
L 71.314716 209.704779 
L 72.836534 209.704779 
L 72.836534 197.980885 
L 74.358352 197.980885 
L 74.358352 191.864071 
L 75.88017 191.864071 
L 75.88017 187.786195 
L 77.401989 187.786195 
L 77.401989 176.572035 
L 78.923807 176.572035 
L 78.923807 171.47469 
L 80.445625 171.47469 
L 80.445625 167.396814 
L 81.967443 167.396814 
L 81.967443 154.908319 
L 83.489261 154.908319 
L 83.489261 150.575575 
L 85.01108 150.575575 
L 85.01108 142.929558 
L 86.532898 142.929558 
L 86.532898 132.225133 
L 88.054716 132.225133 
L 88.054716 124.833982 
L 89.576534 124.833982 
L 89.576534 103.934867 
L 91.098352 103.934867 
L 91.098352 101.895929 
L 92.62017 101.895929 
L 92.62017 96.543717 
L 94.141989 96.543717 
L 94.141989 91.956106 
L 95.663807 91.956106 
L 95.663807 94.504779 
L 97.185625 94.504779 
L 97.185625 86.349027 
L 98.707443 86.349027 
L 98.707443 77.938407 
L 100.229261 77.938407 
L 100.229261 72.841062 
L 101.75108 72.841062 
L 101.75108 62.136637 
L 103.272898 62.136637 
L 103.272898 57.803894 
L 104.794716 57.803894 
L 104.794716 46.589735 
L 106.316534 46.589735 
L 106.316534 41.747257 
L 107.838352 41.747257 
L 107.838352 34.610973 
L 109.36017 34.610973 
L 109.36017 44.295929 
L 110.881989 44.295929 
L 110.881989 27.47469 
L 112.403807 27.47469 
L 112.403807 35.375575 
L 113.925625 35.375575 
L 113.925625 29.513628 
L 115.447443 29.513628 
L 115.447443 27.729558 
L 116.969261 27.729558 
L 116.969261 28.749027 
L 118.49108 28.749027 
L 118.49108 24.67115 
L 120.012898 24.67115 
L 120.012898 26.455221 
L 121.534716 26.455221 
L 121.534716 26.200354 
L 123.056534 26.200354 
L 123.056534 17.28 
L 124.578352 17.28 
L 124.578352 28.239292 
L 126.10017 28.239292 
L 126.10017 30.533097 
L 127.621989 30.533097 
L 127.621989 31.552566 
L 129.143807 31.552566 
L 129.143807 43.531327 
L 130.665625 43.531327 
L 130.665625 37.159646 
L 132.187443 37.159646 
L 132.187443 25.180885 
L 133.709261 25.180885 
L 133.709261 55.764956 
L 135.23108 55.764956 
L 135.23108 36.140177 
L 136.752898 36.140177 
L 136.752898 48.628673 
L 138.274716 48.628673 
L 138.274716 42.002124 
L 139.796534 42.002124 
L 139.796534 56.019823 
L 141.318352 56.019823 
L 141.318352 46.844602 
L 142.84017 46.844602 
L 142.84017 47.354336 
L 144.361989 47.354336 
L 144.361989 53.47115 
L 145.883807 53.47115 
L 145.883807 55.764956 
L 147.405625 55.764956 
L 147.405625 52.706549 
L 150.449261 52.706549 
L 150.449261 64.68531 
L 151.97108 64.68531 
L 151.97108 66.724248 
L 153.492898 66.724248 
L 153.492898 51.177345 
L 155.014716 51.177345 
L 155.014716 59.07823 
L 156.536534 59.07823 
L 156.536534 75.389735 
L 158.058352 75.389735 
L 158.058352 69.27292 
L 159.58017 69.27292 
L 159.58017 64.430442 
L 161.101989 64.430442 
L 161.101989 61.117168 
L 162.623807 61.117168 
L 162.623807 67.998584 
L 164.145625 67.998584 
L 164.145625 70.292389 
L 167.189261 70.292389 
L 167.189261 73.860531 
L 168.71108 73.860531 
L 168.71108 79.212743 
L 170.232898 79.212743 
L 170.232898 67.48885 
L 171.754716 67.48885 
L 171.754716 78.703009 
L 173.276534 78.703009 
L 173.276534 69.27292 
L 174.798352 69.27292 
L 174.798352 81.506549 
L 176.32017 81.506549 
L 176.32017 86.094159 
L 177.841989 86.094159 
L 177.841989 88.387965 
L 179.363807 88.387965 
L 179.363807 81.761416 
L 180.885625 81.761416 
L 180.885625 95.269381 
L 182.407443 95.269381 
L 182.407443 93.48531 
L 183.929261 93.48531 
L 183.929261 111.07115 
L 185.45108 111.07115 
L 185.45108 108.522478 
L 186.972898 108.522478 
L 186.972898 113.110088 
L 188.494716 113.110088 
L 188.494716 131.715398 
L 190.016534 131.715398 
L 190.016534 135.028673 
L 191.538352 135.028673 
L 191.538352 137.832212 
L 193.06017 137.832212 
L 193.06017 145.223363 
L 194.581989 145.223363 
L 194.581989 151.340177 
L 196.103807 151.340177 
L 196.103807 144.203894 
L 197.625625 144.203894 
L 197.625625 152.104779 
L 199.147443 152.104779 
L 199.147443 151.08531 
L 200.669261 151.08531 
L 200.669261 155.67292 
L 202.19108 155.67292 
L 202.19108 152.614513 
L 203.712898 152.614513 
L 203.712898 149.301239 
L 205.234716 149.301239 
L 205.234716 145.223363 
L 206.756534 145.223363 
L 206.756534 135.793274 
L 208.278352 135.793274 
L 208.278352 125.08885 
L 209.80017 125.08885 
L 209.80017 129.421593 
L 211.321989 129.421593 
L 211.321989 109.28708 
L 212.843807 109.28708 
L 212.843807 108.522478 
L 214.365625 108.522478 
L 214.365625 113.619823 
L 215.887443 113.619823 
L 215.887443 95.014513 
L 217.409261 95.014513 
L 217.409261 103.934867 
L 218.93108 103.934867 
L 218.93108 84.310088 
L 220.452898 84.310088 
L 220.452898 92.465841 
L 221.974716 92.465841 
L 221.974716 89.662301 
L 223.496534 89.662301 
L 223.496534 81.761416 
L 225.018352 81.761416 
L 225.018352 73.860531 
L 226.54017 73.860531 
L 226.54017 72.07646 
L 228.061989 72.07646 
L 228.061989 63.410973 
L 229.583807 63.410973 
L 229.583807 71.056991 
L 231.105625 71.056991 
L 231.105625 58.313628 
L 232.627443 58.313628 
L 232.627443 71.566726 
L 234.149261 71.566726 
L 234.149261 52.451681 
L 235.67108 52.451681 
L 235.67108 63.410973 
L 237.192898 63.410973 
L 237.192898 47.354336 
L 238.714716 47.354336 
L 238.714716 48.118938 
L 240.236534 48.118938 
L 240.236534 55.764956 
L 241.758352 55.764956 
L 241.758352 57.549027 
L 243.28017 57.549027 
L 243.28017 55.510088 
L 244.801989 55.510088 
L 244.801989 63.156106 
L 246.323807 63.156106 
L 246.323807 70.802124 
L 247.845625 70.802124 
L 247.845625 66.979115 
L 249.367443 66.979115 
L 249.367443 74.115398 
L 250.889261 74.115398 
L 250.889261 75.644602 
L 252.41108 75.644602 
L 252.41108 76.409204 
L 253.932898 76.409204 
L 253.932898 78.448142 
L 255.454716 78.448142 
L 255.454716 84.819823 
L 256.976534 84.819823 
L 256.976534 78.957876 
L 258.498352 78.957876 
L 258.498352 83.545487 
L 260.02017 83.545487 
L 260.02017 79.977345 
L 261.541989 79.977345 
L 261.541989 85.839292 
L 263.063807 85.839292 
L 263.063807 89.152566 
L 264.585625 89.152566 
L 264.585625 91.956106 
L 266.107443 91.956106 
L 266.107443 86.858761 
L 267.629261 86.858761 
L 267.629261 98.07292 
L 269.15108 98.07292 
L 269.15108 89.662301 
L 270.672898 89.662301 
L 270.672898 98.837522 
L 272.194716 98.837522 
L 272.194716 98.582655 
L 273.716534 98.582655 
L 273.716534 100.621593 
L 275.238352 100.621593 
L 275.238352 106.738407 
L 276.76017 106.738407 
L 276.76017 103.170265 
L 278.281989 103.170265 
L 278.281989 108.777345 
L 279.803807 108.777345 
L 279.803807 100.366726 
L 281.325625 100.366726 
L 281.325625 124.069381 
L 282.847443 124.069381 
L 282.847443 114.384425 
L 284.369261 114.384425 
L 284.369261 112.600354 
L 285.89108 112.600354 
L 285.89108 115.913628 
L 287.412898 115.913628 
L 287.412898 125.343717 
L 288.934716 125.343717 
L 288.934716 121.775575 
L 290.456534 121.775575 
L 290.456534 118.462301 
L 293.50017 118.462301 
L 293.50017 120.501239 
L 295.021989 120.501239 
L 295.021989 129.67646 
L 296.543807 129.67646 
L 296.543807 122.030442 
L 298.065625 122.030442 
L 298.065625 126.87292 
L 299.587443 126.87292 
L 299.587443 132.48 
L 301.109261 132.48 
L 301.109261 130.950796 
L 302.63108 130.950796 
L 302.63108 142.419823 
L 304.152898 142.419823 
L 304.152898 135.793274 
L 305.674716 135.793274 
L 305.674716 132.989735 
L 307.196534 132.989735 
L 307.196534 144.713628 
L 308.718352 144.713628 
L 308.718352 142.67469 
L 310.24017 142.67469 
L 310.24017 147.517168 
L 311.761989 147.517168 
L 311.761989 148.026903 
L 313.283807 148.026903 
L 313.283807 144.713628 
L 314.805625 144.713628 
L 314.805625 153.633982 
L 316.327443 153.633982 
L 316.327443 152.869381 
L 319.37108 152.869381 
L 319.37108 154.653451 
L 322.414716 154.653451 
L 322.414716 158.47646 
L 323.936534 158.47646 
L 323.936534 170.200354 
L 325.458352 170.200354 
L 325.458352 174.787965 
L 326.98017 174.787965 
L 326.98017 173.003894 
L 328.501989 173.003894 
L 328.501989 168.161416 
L 330.023807 168.161416 
L 330.023807 173.768496 
L 331.545625 173.768496 
L 331.545625 180.904779 
L 333.067443 180.904779 
L 333.067443 183.708319 
L 334.589261 183.708319 
L 334.589261 178.101239 
L 336.11108 178.101239 
L 336.11108 194.157876 
L 337.632898 194.157876 
L 337.632898 200.27469 
L 339.154716 200.27469 
L 339.154716 200.784425 
L 340.676534 200.784425 
L 340.676534 199.255221 
L 342.198352 199.255221 
L 342.198352 205.117168 
L 343.72017 205.117168 
L 343.72017 206.136637 
L 346.763807 206.136637 
L 346.763807 209.704779 
L 348.285625 209.704779 
L 348.285625 213.527788 
L 349.807443 213.527788 
L 349.807443 212.508319 
L 351.329261 212.508319 
L 351.329261 213.527788 
L 352.85108 213.527788 
L 352.85108 216.331327 
L 354.372898 216.331327 
L 354.372898 217.605664 
L 355.894716 217.605664 
L 355.894716 216.841062 
L 357.416534 216.841062 
L 357.416534 217.860531 
L 358.938352 217.860531 
L 358.938352 218.370265 
L 360.46017 218.370265 
L 360.46017 218.88 
L 366.547443 218.88 
L 366.547443 218.88 
" clip-path="url(#p4d3371cc11)" style="fill: none; stroke: #ff7f0e; stroke-width: 1.5; stroke-linecap: square"/>
   </g>
  </g>
 </g>
 <defs>
  <clipPath id="p4d3371cc11">
   <rect x="46.965625" y="7.2" width="334.8" height="221.76"/>
  </clipPath>
 </defs>
</svg>
