<?xml version="1.0" encoding="utf-8" standalone="no"?>
<!DOCTYPE svg PUBLIC "-//W3C//DTD SVG 1.1//EN"
  "http://www.w3.org/Graphics/SVG/1.1/DTD/svg11.dtd">
<svg xmlns:xlink="http://www.w3.org/1999/xlink" width="388.965625pt" height="266.794375pt" viewBox="0 0 388.965625 266.794375" xmlns="http://www.w3.org/2000/svg" version="1.1">
 <metadata>
  <rdf:RDF xmlns:dc="http://purl.org/dc/elements/1.1/" xmlns:cc="http://creativecommons.org/ns#" xmlns:rdf="http://www.w3.org/1999/02/22-rdf-syntax-ns#">
   <cc:Work>
    <dc:type rdf:resource="http://purl.org/dc/dcmitype/StillImage"/>
    <dc:date>2024-11-13T15:30:57.974149</dc:date>
    <dc:format>image/svg+xml</dc:format>
    <dc:creator>
     <cc:Agent>
      <dc:title>Matplotlib v3.9.2, https://matplotlib.org/</dc:title>
     </cc:Agent>
    </dc:creator>
   </cc:Work>
  </rdf:RDF>
 </metadata>
 <defs>
  <style type="text/css">*{stroke-linejoin: round; stroke-linecap: butt}</style>
 </defs>
 <g id="figure_1">
  <g id="patch_1">
   <path d="M 0 266.794375 
L 388.965625 266.794375 
L 388.965625 0 
L 0 0 
z
" style="fill: #ffffff"/>
  </g>
  <g id="axes_1">
   <g id="patch_2">
    <path d="M 46.965625 228.96 
L 381.765625 228.96 
L 381.765625 7.2 
L 46.965625 7.2 
z
" style="fill: #ffffff"/>
   </g>
   <g id="matplotlib.axis_1">
    <g id="xtick_1">
     <g id="line2d_1">
      <defs>
       <path id="mcbbe0c5b55" d="M 0 0 
L 0 3.5 
" style="stroke: #000000; stroke-width: 0.8"/>
      </defs>
      <g>
       <use xlink:href="#mcbbe0c5b55" x="62.18336" y="228.96" style="stroke: #000000; stroke-width: 0.8"/>
      </g>
     </g>
     <g id="text_1">
      <!-- 0.00 -->
      <g transform="translate(51.050547 243.558437) scale(0.1 -0.1)">
       <defs>
        <path id="DejaVuSans-30" d="M 2034 4250 
Q 1547 4250 1301 3770 
Q 1056 3291 1056 2328 
Q 1056 1369 1301 889 
Q 1547 409 2034 409 
Q 2525 409 2770 889 
Q 3016 1369 3016 2328 
Q 3016 3291 2770 3770 
Q 2525 4250 2034 4250 
z
M 2034 4750 
Q 2819 4750 3233 4129 
Q 3647 3509 3647 2328 
Q 3647 1150 3233 529 
Q 2819 -91 2034 -91 
Q 1250 -91 836 529 
Q 422 1150 422 2328 
Q 422 3509 836 4129 
Q 1250 4750 2034 4750 
z
" transform="scale(0.015625)"/>
        <path id="DejaVuSans-2e" d="M 684 794 
L 1344 794 
L 1344 0 
L 684 0 
L 684 794 
z
" transform="scale(0.015625)"/>
       </defs>
       <use xlink:href="#DejaVuSans-30"/>
       <use xlink:href="#DejaVuSans-2e" x="63.623047"/>
       <use xlink:href="#DejaVuSans-30" x="95.410156"/>
       <use xlink:href="#DejaVuSans-30" x="159.033203"/>
      </g>
     </g>
    </g>
    <g id="xtick_2">
     <g id="line2d_2">
      <g>
       <use xlink:href="#mcbbe0c5b55" x="104.794898" y="228.96" style="stroke: #000000; stroke-width: 0.8"/>
      </g>
     </g>
     <g id="text_2">
      <!-- 0.01 -->
      <g transform="translate(93.662086 243.558437) scale(0.1 -0.1)">
       <defs>
        <path id="DejaVuSans-31" d="M 794 531 
L 1825 531 
L 1825 4091 
L 703 3866 
L 703 4441 
L 1819 4666 
L 2450 4666 
L 2450 531 
L 3481 531 
L 3481 0 
L 794 0 
L 794 531 
z
" transform="scale(0.015625)"/>
       </defs>
       <use xlink:href="#DejaVuSans-30"/>
       <use xlink:href="#DejaVuSans-2e" x="63.623047"/>
       <use xlink:href="#DejaVuSans-30" x="95.410156"/>
       <use xlink:href="#DejaVuSans-31" x="159.033203"/>
      </g>
     </g>
    </g>
    <g id="xtick_3">
     <g id="line2d_3">
      <g>
       <use xlink:href="#mcbbe0c5b55" x="147.406436" y="228.96" style="stroke: #000000; stroke-width: 0.8"/>
      </g>
     </g>
     <g id="text_3">
      <!-- 0.02 -->
      <g transform="translate(136.273624 243.558437) scale(0.1 -0.1)">
       <defs>
        <path id="DejaVuSans-32" d="M 1228 531 
L 3431 531 
L 3431 0 
L 469 0 
L 469 531 
Q 828 903 1448 1529 
Q 2069 2156 2228 2338 
Q 2531 2678 2651 2914 
Q 2772 3150 2772 3378 
Q 2772 3750 2511 3984 
Q 2250 4219 1831 4219 
Q 1534 4219 1204 4116 
Q 875 4013 500 3803 
L 500 4441 
Q 881 4594 1212 4672 
Q 1544 4750 1819 4750 
Q 2544 4750 2975 4387 
Q 3406 4025 3406 3419 
Q 3406 3131 3298 2873 
Q 3191 2616 2906 2266 
Q 2828 2175 2409 1742 
Q 1991 1309 1228 531 
z
" transform="scale(0.015625)"/>
       </defs>
       <use xlink:href="#DejaVuSans-30"/>
       <use xlink:href="#DejaVuSans-2e" x="63.623047"/>
       <use xlink:href="#DejaVuSans-30" x="95.410156"/>
       <use xlink:href="#DejaVuSans-32" x="159.033203"/>
      </g>
     </g>
    </g>
    <g id="xtick_4">
     <g id="line2d_4">
      <g>
       <use xlink:href="#mcbbe0c5b55" x="190.017974" y="228.96" style="stroke: #000000; stroke-width: 0.8"/>
      </g>
     </g>
     <g id="text_4">
      <!-- 0.03 -->
      <g transform="translate(178.885162 243.558437) scale(0.1 -0.1)">
       <defs>
        <path id="DejaVuSans-33" d="M 2597 2516 
Q 3050 2419 3304 2112 
Q 3559 1806 3559 1356 
Q 3559 666 3084 287 
Q 2609 -91 1734 -91 
Q 1441 -91 1130 -33 
Q 819 25 488 141 
L 488 750 
Q 750 597 1062 519 
Q 1375 441 1716 441 
Q 2309 441 2620 675 
Q 2931 909 2931 1356 
Q 2931 1769 2642 2001 
Q 2353 2234 1838 2234 
L 1294 2234 
L 1294 2753 
L 1863 2753 
Q 2328 2753 2575 2939 
Q 2822 3125 2822 3475 
Q 2822 3834 2567 4026 
Q 2313 4219 1838 4219 
Q 1578 4219 1281 4162 
Q 984 4106 628 3988 
L 628 4550 
Q 988 4650 1302 4700 
Q 1616 4750 1894 4750 
Q 2613 4750 3031 4423 
Q 3450 4097 3450 3541 
Q 3450 3153 3228 2886 
Q 3006 2619 2597 2516 
z
" transform="scale(0.015625)"/>
       </defs>
       <use xlink:href="#DejaVuSans-30"/>
       <use xlink:href="#DejaVuSans-2e" x="63.623047"/>
       <use xlink:href="#DejaVuSans-30" x="95.410156"/>
       <use xlink:href="#DejaVuSans-33" x="159.033203"/>
      </g>
     </g>
    </g>
    <g id="xtick_5">
     <g id="line2d_5">
      <g>
       <use xlink:href="#mcbbe0c5b55" x="232.629513" y="228.96" style="stroke: #000000; stroke-width: 0.8"/>
      </g>
     </g>
     <g id="text_5">
      <!-- 0.04 -->
      <g transform="translate(221.4967 243.558437) scale(0.1 -0.1)">
       <defs>
        <path id="DejaVuSans-34" d="M 2419 4116 
L 825 1625 
L 2419 1625 
L 2419 4116 
z
M 2253 4666 
L 3047 4666 
L 3047 1625 
L 3713 1625 
L 3713 1100 
L 3047 1100 
L 3047 0 
L 2419 0 
L 2419 1100 
L 313 1100 
L 313 1709 
L 2253 4666 
z
" transform="scale(0.015625)"/>
       </defs>
       <use xlink:href="#DejaVuSans-30"/>
       <use xlink:href="#DejaVuSans-2e" x="63.623047"/>
       <use xlink:href="#DejaVuSans-30" x="95.410156"/>
       <use xlink:href="#DejaVuSans-34" x="159.033203"/>
      </g>
     </g>
    </g>
    <g id="xtick_6">
     <g id="line2d_6">
      <g>
       <use xlink:href="#mcbbe0c5b55" x="275.241051" y="228.96" style="stroke: #000000; stroke-width: 0.8"/>
      </g>
     </g>
     <g id="text_6">
      <!-- 0.05 -->
      <g transform="translate(264.108238 243.558437) scale(0.1 -0.1)">
       <defs>
        <path id="DejaVuSans-35" d="M 691 4666 
L 3169 4666 
L 3169 4134 
L 1269 4134 
L 1269 2991 
Q 1406 3038 1543 3061 
Q 1681 3084 1819 3084 
Q 2600 3084 3056 2656 
Q 3513 2228 3513 1497 
Q 3513 744 3044 326 
Q 2575 -91 1722 -91 
Q 1428 -91 1123 -41 
Q 819 9 494 109 
L 494 744 
Q 775 591 1075 516 
Q 1375 441 1709 441 
Q 2250 441 2565 725 
Q 2881 1009 2881 1497 
Q 2881 1984 2565 2268 
Q 2250 2553 1709 2553 
Q 1456 2553 1204 2497 
Q 953 2441 691 2322 
L 691 4666 
z
" transform="scale(0.015625)"/>
       </defs>
       <use xlink:href="#DejaVuSans-30"/>
       <use xlink:href="#DejaVuSans-2e" x="63.623047"/>
       <use xlink:href="#DejaVuSans-30" x="95.410156"/>
       <use xlink:href="#DejaVuSans-35" x="159.033203"/>
      </g>
     </g>
    </g>
    <g id="xtick_7">
     <g id="line2d_7">
      <g>
       <use xlink:href="#mcbbe0c5b55" x="317.852589" y="228.96" style="stroke: #000000; stroke-width: 0.8"/>
      </g>
     </g>
     <g id="text_7">
      <!-- 0.06 -->
      <g transform="translate(306.719777 243.558437) scale(0.1 -0.1)">
       <defs>
        <path id="DejaVuSans-36" d="M 2113 2584 
Q 1688 2584 1439 2293 
Q 1191 2003 1191 1497 
Q 1191 994 1439 701 
Q 1688 409 2113 409 
Q 2538 409 2786 701 
Q 3034 994 3034 1497 
Q 3034 2003 2786 2293 
Q 2538 2584 2113 2584 
z
M 3366 4563 
L 3366 3988 
Q 3128 4100 2886 4159 
Q 2644 4219 2406 4219 
Q 1781 4219 1451 3797 
Q 1122 3375 1075 2522 
Q 1259 2794 1537 2939 
Q 1816 3084 2150 3084 
Q 2853 3084 3261 2657 
Q 3669 2231 3669 1497 
Q 3669 778 3244 343 
Q 2819 -91 2113 -91 
Q 1303 -91 875 529 
Q 447 1150 447 2328 
Q 447 3434 972 4092 
Q 1497 4750 2381 4750 
Q 2619 4750 2861 4703 
Q 3103 4656 3366 4563 
z
" transform="scale(0.015625)"/>
       </defs>
       <use xlink:href="#DejaVuSans-30"/>
       <use xlink:href="#DejaVuSans-2e" x="63.623047"/>
       <use xlink:href="#DejaVuSans-30" x="95.410156"/>
       <use xlink:href="#DejaVuSans-36" x="159.033203"/>
      </g>
     </g>
    </g>
    <g id="xtick_8">
     <g id="line2d_8">
      <g>
       <use xlink:href="#mcbbe0c5b55" x="360.464127" y="228.96" style="stroke: #000000; stroke-width: 0.8"/>
      </g>
     </g>
     <g id="text_8">
      <!-- 0.07 -->
      <g transform="translate(349.331315 243.558437) scale(0.1 -0.1)">
       <defs>
        <path id="DejaVuSans-37" d="M 525 4666 
L 3525 4666 
L 3525 4397 
L 1831 0 
L 1172 0 
L 2766 4134 
L 525 4134 
L 525 4666 
z
" transform="scale(0.015625)"/>
       </defs>
       <use xlink:href="#DejaVuSans-30"/>
       <use xlink:href="#DejaVuSans-2e" x="63.623047"/>
       <use xlink:href="#DejaVuSans-30" x="95.410156"/>
       <use xlink:href="#DejaVuSans-37" x="159.033203"/>
      </g>
     </g>
    </g>
    <g id="text_9">
     <!-- event_time_offset [s] -->
     <g transform="translate(161.511719 257.236562) scale(0.1 -0.1)">
      <defs>
       <path id="DejaVuSans-65" d="M 3597 1894 
L 3597 1613 
L 953 1613 
Q 991 1019 1311 708 
Q 1631 397 2203 397 
Q 2534 397 2845 478 
Q 3156 559 3463 722 
L 3463 178 
Q 3153 47 2828 -22 
Q 2503 -91 2169 -91 
Q 1331 -91 842 396 
Q 353 884 353 1716 
Q 353 2575 817 3079 
Q 1281 3584 2069 3584 
Q 2775 3584 3186 3129 
Q 3597 2675 3597 1894 
z
M 3022 2063 
Q 3016 2534 2758 2815 
Q 2500 3097 2075 3097 
Q 1594 3097 1305 2825 
Q 1016 2553 972 2059 
L 3022 2063 
z
" transform="scale(0.015625)"/>
       <path id="DejaVuSans-76" d="M 191 3500 
L 800 3500 
L 1894 563 
L 2988 3500 
L 3597 3500 
L 2284 0 
L 1503 0 
L 191 3500 
z
" transform="scale(0.015625)"/>
       <path id="DejaVuSans-6e" d="M 3513 2113 
L 3513 0 
L 2938 0 
L 2938 2094 
Q 2938 2591 2744 2837 
Q 2550 3084 2163 3084 
Q 1697 3084 1428 2787 
Q 1159 2491 1159 1978 
L 1159 0 
L 581 0 
L 581 3500 
L 1159 3500 
L 1159 2956 
Q 1366 3272 1645 3428 
Q 1925 3584 2291 3584 
Q 2894 3584 3203 3211 
Q 3513 2838 3513 2113 
z
" transform="scale(0.015625)"/>
       <path id="DejaVuSans-74" d="M 1172 4494 
L 1172 3500 
L 2356 3500 
L 2356 3053 
L 1172 3053 
L 1172 1153 
Q 1172 725 1289 603 
Q 1406 481 1766 481 
L 2356 481 
L 2356 0 
L 1766 0 
Q 1100 0 847 248 
Q 594 497 594 1153 
L 594 3053 
L 172 3053 
L 172 3500 
L 594 3500 
L 594 4494 
L 1172 4494 
z
" transform="scale(0.015625)"/>
       <path id="DejaVuSans-5f" d="M 3263 -1063 
L 3263 -1509 
L -63 -1509 
L -63 -1063 
L 3263 -1063 
z
" transform="scale(0.015625)"/>
       <path id="DejaVuSans-69" d="M 603 3500 
L 1178 3500 
L 1178 0 
L 603 0 
L 603 3500 
z
M 603 4863 
L 1178 4863 
L 1178 4134 
L 603 4134 
L 603 4863 
z
" transform="scale(0.015625)"/>
       <path id="DejaVuSans-6d" d="M 3328 2828 
Q 3544 3216 3844 3400 
Q 4144 3584 4550 3584 
Q 5097 3584 5394 3201 
Q 5691 2819 5691 2113 
L 5691 0 
L 5113 0 
L 5113 2094 
Q 5113 2597 4934 2840 
Q 4756 3084 4391 3084 
Q 3944 3084 3684 2787 
Q 3425 2491 3425 1978 
L 3425 0 
L 2847 0 
L 2847 2094 
Q 2847 2600 2669 2842 
Q 2491 3084 2119 3084 
Q 1678 3084 1418 2786 
Q 1159 2488 1159 1978 
L 1159 0 
L 581 0 
L 581 3500 
L 1159 3500 
L 1159 2956 
Q 1356 3278 1631 3431 
Q 1906 3584 2284 3584 
Q 2666 3584 2933 3390 
Q 3200 3197 3328 2828 
z
" transform="scale(0.015625)"/>
       <path id="DejaVuSans-6f" d="M 1959 3097 
Q 1497 3097 1228 2736 
Q 959 2375 959 1747 
Q 959 1119 1226 758 
Q 1494 397 1959 397 
Q 2419 397 2687 759 
Q 2956 1122 2956 1747 
Q 2956 2369 2687 2733 
Q 2419 3097 1959 3097 
z
M 1959 3584 
Q 2709 3584 3137 3096 
Q 3566 2609 3566 1747 
Q 3566 888 3137 398 
Q 2709 -91 1959 -91 
Q 1206 -91 779 398 
Q 353 888 353 1747 
Q 353 2609 779 3096 
Q 1206 3584 1959 3584 
z
" transform="scale(0.015625)"/>
       <path id="DejaVuSans-66" d="M 2375 4863 
L 2375 4384 
L 1825 4384 
Q 1516 4384 1395 4259 
Q 1275 4134 1275 3809 
L 1275 3500 
L 2222 3500 
L 2222 3053 
L 1275 3053 
L 1275 0 
L 697 0 
L 697 3053 
L 147 3053 
L 147 3500 
L 697 3500 
L 697 3744 
Q 697 4328 969 4595 
Q 1241 4863 1831 4863 
L 2375 4863 
z
" transform="scale(0.015625)"/>
       <path id="DejaVuSans-73" d="M 2834 3397 
L 2834 2853 
Q 2591 2978 2328 3040 
Q 2066 3103 1784 3103 
Q 1356 3103 1142 2972 
Q 928 2841 928 2578 
Q 928 2378 1081 2264 
Q 1234 2150 1697 2047 
L 1894 2003 
Q 2506 1872 2764 1633 
Q 3022 1394 3022 966 
Q 3022 478 2636 193 
Q 2250 -91 1575 -91 
Q 1294 -91 989 -36 
Q 684 19 347 128 
L 347 722 
Q 666 556 975 473 
Q 1284 391 1588 391 
Q 1994 391 2212 530 
Q 2431 669 2431 922 
Q 2431 1156 2273 1281 
Q 2116 1406 1581 1522 
L 1381 1569 
Q 847 1681 609 1914 
Q 372 2147 372 2553 
Q 372 3047 722 3315 
Q 1072 3584 1716 3584 
Q 2034 3584 2315 3537 
Q 2597 3491 2834 3397 
z
" transform="scale(0.015625)"/>
       <path id="DejaVuSans-20" transform="scale(0.015625)"/>
       <path id="DejaVuSans-5b" d="M 550 4863 
L 1875 4863 
L 1875 4416 
L 1125 4416 
L 1125 -397 
L 1875 -397 
L 1875 -844 
L 550 -844 
L 550 4863 
z
" transform="scale(0.015625)"/>
       <path id="DejaVuSans-5d" d="M 1947 4863 
L 1947 -844 
L 622 -844 
L 622 -397 
L 1369 -397 
L 1369 4416 
L 622 4416 
L 622 4863 
L 1947 4863 
z
" transform="scale(0.015625)"/>
      </defs>
      <use xlink:href="#DejaVuSans-65"/>
      <use xlink:href="#DejaVuSans-76" x="61.523438"/>
      <use xlink:href="#DejaVuSans-65" x="120.703125"/>
      <use xlink:href="#DejaVuSans-6e" x="182.226562"/>
      <use xlink:href="#DejaVuSans-74" x="245.605469"/>
      <use xlink:href="#DejaVuSans-5f" x="284.814453"/>
      <use xlink:href="#DejaVuSans-74" x="334.814453"/>
      <use xlink:href="#DejaVuSans-69" x="374.023438"/>
      <use xlink:href="#DejaVuSans-6d" x="401.806641"/>
      <use xlink:href="#DejaVuSans-65" x="499.21875"/>
      <use xlink:href="#DejaVuSans-5f" x="560.742188"/>
      <use xlink:href="#DejaVuSans-6f" x="610.742188"/>
      <use xlink:href="#DejaVuSans-66" x="671.923828"/>
      <use xlink:href="#DejaVuSans-66" x="707.128906"/>
      <use xlink:href="#DejaVuSans-73" x="742.333984"/>
      <use xlink:href="#DejaVuSans-65" x="794.433594"/>
      <use xlink:href="#DejaVuSans-74" x="855.957031"/>
      <use xlink:href="#DejaVuSans-20" x="895.166016"/>
      <use xlink:href="#DejaVuSans-5b" x="926.953125"/>
      <use xlink:href="#DejaVuSans-73" x="965.966797"/>
      <use xlink:href="#DejaVuSans-5d" x="1018.066406"/>
     </g>
    </g>
   </g>
   <g id="matplotlib.axis_2">
    <g id="ytick_1">
     <g id="line2d_9">
      <defs>
       <path id="m300f106e66" d="M 0 0 
L -3.5 0 
" style="stroke: #000000; stroke-width: 0.8"/>
      </defs>
      <g>
       <use xlink:href="#m300f106e66" x="46.965625" y="218.88" style="stroke: #000000; stroke-width: 0.8"/>
      </g>
     </g>
     <g id="text_10">
      <!-- 0 -->
      <g transform="translate(33.603125 222.679219) scale(0.1 -0.1)">
       <use xlink:href="#DejaVuSans-30"/>
      </g>
     </g>
    </g>
    <g id="ytick_2">
     <g id="line2d_10">
      <g>
       <use xlink:href="#m300f106e66" x="46.965625" y="183.071829" style="stroke: #000000; stroke-width: 0.8"/>
      </g>
     </g>
     <g id="text_11">
      <!-- 100 -->
      <g transform="translate(20.878125 186.871048) scale(0.1 -0.1)">
       <use xlink:href="#DejaVuSans-31"/>
       <use xlink:href="#DejaVuSans-30" x="63.623047"/>
       <use xlink:href="#DejaVuSans-30" x="127.246094"/>
      </g>
     </g>
    </g>
    <g id="ytick_3">
     <g id="line2d_11">
      <g>
       <use xlink:href="#m300f106e66" x="46.965625" y="147.263659" style="stroke: #000000; stroke-width: 0.8"/>
      </g>
     </g>
     <g id="text_12">
      <!-- 200 -->
      <g transform="translate(20.878125 151.062878) scale(0.1 -0.1)">
       <use xlink:href="#DejaVuSans-32"/>
       <use xlink:href="#DejaVuSans-30" x="63.623047"/>
       <use xlink:href="#DejaVuSans-30" x="127.246094"/>
      </g>
     </g>
    </g>
    <g id="ytick_4">
     <g id="line2d_12">
      <g>
       <use xlink:href="#m300f106e66" x="46.965625" y="111.455488" style="stroke: #000000; stroke-width: 0.8"/>
      </g>
     </g>
     <g id="text_13">
      <!-- 300 -->
      <g transform="translate(20.878125 115.254707) scale(0.1 -0.1)">
       <use xlink:href="#DejaVuSans-33"/>
       <use xlink:href="#DejaVuSans-30" x="63.623047"/>
       <use xlink:href="#DejaVuSans-30" x="127.246094"/>
      </g>
     </g>
    </g>
    <g id="ytick_5">
     <g id="line2d_13">
      <g>
       <use xlink:href="#m300f106e66" x="46.965625" y="75.647318" style="stroke: #000000; stroke-width: 0.8"/>
      </g>
     </g>
     <g id="text_14">
      <!-- 400 -->
      <g transform="translate(20.878125 79.446537) scale(0.1 -0.1)">
       <use xlink:href="#DejaVuSans-34"/>
       <use xlink:href="#DejaVuSans-30" x="63.623047"/>
       <use xlink:href="#DejaVuSans-30" x="127.246094"/>
      </g>
     </g>
    </g>
    <g id="ytick_6">
     <g id="line2d_14">
      <g>
       <use xlink:href="#m300f106e66" x="46.965625" y="39.839147" style="stroke: #000000; stroke-width: 0.8"/>
      </g>
     </g>
     <g id="text_15">
      <!-- 500 -->
      <g transform="translate(20.878125 43.638366) scale(0.1 -0.1)">
       <use xlink:href="#DejaVuSans-35"/>
       <use xlink:href="#DejaVuSans-30" x="63.623047"/>
       <use xlink:href="#DejaVuSans-30" x="127.246094"/>
      </g>
     </g>
    </g>
    <g id="text_16">
     <!-- [counts] -->
     <g transform="translate(14.798438 138.6925) rotate(-90) scale(0.1 -0.1)">
      <defs>
       <path id="DejaVuSans-63" d="M 3122 3366 
L 3122 2828 
Q 2878 2963 2633 3030 
Q 2388 3097 2138 3097 
Q 1578 3097 1268 2742 
Q 959 2388 959 1747 
Q 959 1106 1268 751 
Q 1578 397 2138 397 
Q 2388 397 2633 464 
Q 2878 531 3122 666 
L 3122 134 
Q 2881 22 2623 -34 
Q 2366 -91 2075 -91 
Q 1284 -91 818 406 
Q 353 903 353 1747 
Q 353 2603 823 3093 
Q 1294 3584 2113 3584 
Q 2378 3584 2631 3529 
Q 2884 3475 3122 3366 
z
" transform="scale(0.015625)"/>
       <path id="DejaVuSans-75" d="M 544 1381 
L 544 3500 
L 1119 3500 
L 1119 1403 
Q 1119 906 1312 657 
Q 1506 409 1894 409 
Q 2359 409 2629 706 
Q 2900 1003 2900 1516 
L 2900 3500 
L 3475 3500 
L 3475 0 
L 2900 0 
L 2900 538 
Q 2691 219 2414 64 
Q 2138 -91 1772 -91 
Q 1169 -91 856 284 
Q 544 659 544 1381 
z
M 1991 3584 
L 1991 3584 
z
" transform="scale(0.015625)"/>
      </defs>
      <use xlink:href="#DejaVuSans-5b"/>
      <use xlink:href="#DejaVuSans-63" x="39.013672"/>
      <use xlink:href="#DejaVuSans-6f" x="93.994141"/>
      <use xlink:href="#DejaVuSans-75" x="155.175781"/>
      <use xlink:href="#DejaVuSans-6e" x="218.554688"/>
      <use xlink:href="#DejaVuSans-74" x="281.933594"/>
      <use xlink:href="#DejaVuSans-73" x="321.142578"/>
      <use xlink:href="#DejaVuSans-5d" x="373.242188"/>
     </g>
    </g>
   </g>
   <g id="patch_3">
    <path d="M 46.965625 228.96 
L 46.965625 7.2 
" style="fill: none; stroke: #000000; stroke-width: 0.8; stroke-linejoin: miter; stroke-linecap: square"/>
   </g>
   <g id="patch_4">
    <path d="M 381.765625 228.96 
L 381.765625 7.2 
" style="fill: none; stroke: #000000; stroke-width: 0.8; stroke-linejoin: miter; stroke-linecap: square"/>
   </g>
   <g id="patch_5">
    <path d="M 46.965625 228.96 
L 381.765625 228.96 
" style="fill: none; stroke: #000000; stroke-width: 0.8; stroke-linejoin: miter; stroke-linecap: square"/>
   </g>
   <g id="patch_6">
    <path d="M 46.965625 7.2 
L 381.765625 7.2 
" style="fill: none; stroke: #000000; stroke-width: 0.8; stroke-linejoin: miter; stroke-linecap: square"/>
   </g>
   <g id="legend_1">
    <g id="patch_7">
     <path d="M 246.957813 45.1125 
L 374.765625 45.1125 
Q 376.765625 45.1125 376.765625 43.1125 
L 376.765625 14.2 
Q 376.765625 12.2 374.765625 12.2 
L 246.957813 12.2 
Q 244.957813 12.2 244.957813 14.2 
L 244.957813 43.1125 
Q 244.957813 45.1125 246.957813 45.1125 
z
" style="fill: #ffffff; opacity: 0.8; stroke: #cccccc; stroke-linejoin: miter"/>
    </g>
    <g id="line2d_15">
     <path d="M 248.957813 20.298437 
L 248.957813 20.298437 
L 258.957813 20.298437 
L 258.957813 20.298437 
L 268.957813 20.298437 
" style="fill: none; stroke: #1f77b4; stroke-width: 1.5; stroke-linecap: square"/>
    </g>
    <g id="text_17">
     <!-- detector_number:0 -->
     <g transform="translate(276.957813 23.798437) scale(0.1 -0.1)">
      <defs>
       <path id="DejaVuSans-64" d="M 2906 2969 
L 2906 4863 
L 3481 4863 
L 3481 0 
L 2906 0 
L 2906 525 
Q 2725 213 2448 61 
Q 2172 -91 1784 -91 
Q 1150 -91 751 415 
Q 353 922 353 1747 
Q 353 2572 751 3078 
Q 1150 3584 1784 3584 
Q 2172 3584 2448 3432 
Q 2725 3281 2906 2969 
z
M 947 1747 
Q 947 1113 1208 752 
Q 1469 391 1925 391 
Q 2381 391 2643 752 
Q 2906 1113 2906 1747 
Q 2906 2381 2643 2742 
Q 2381 3103 1925 3103 
Q 1469 3103 1208 2742 
Q 947 2381 947 1747 
z
" transform="scale(0.015625)"/>
       <path id="DejaVuSans-72" d="M 2631 2963 
Q 2534 3019 2420 3045 
Q 2306 3072 2169 3072 
Q 1681 3072 1420 2755 
Q 1159 2438 1159 1844 
L 1159 0 
L 581 0 
L 581 3500 
L 1159 3500 
L 1159 2956 
Q 1341 3275 1631 3429 
Q 1922 3584 2338 3584 
Q 2397 3584 2469 3576 
Q 2541 3569 2628 3553 
L 2631 2963 
z
" transform="scale(0.015625)"/>
       <path id="DejaVuSans-62" d="M 3116 1747 
Q 3116 2381 2855 2742 
Q 2594 3103 2138 3103 
Q 1681 3103 1420 2742 
Q 1159 2381 1159 1747 
Q 1159 1113 1420 752 
Q 1681 391 2138 391 
Q 2594 391 2855 752 
Q 3116 1113 3116 1747 
z
M 1159 2969 
Q 1341 3281 1617 3432 
Q 1894 3584 2278 3584 
Q 2916 3584 3314 3078 
Q 3713 2572 3713 1747 
Q 3713 922 3314 415 
Q 2916 -91 2278 -91 
Q 1894 -91 1617 61 
Q 1341 213 1159 525 
L 1159 0 
L 581 0 
L 581 4863 
L 1159 4863 
L 1159 2969 
z
" transform="scale(0.015625)"/>
       <path id="DejaVuSans-3a" d="M 750 794 
L 1409 794 
L 1409 0 
L 750 0 
L 750 794 
z
M 750 3309 
L 1409 3309 
L 1409 2516 
L 750 2516 
L 750 3309 
z
" transform="scale(0.015625)"/>
      </defs>
      <use xlink:href="#DejaVuSans-64"/>
      <use xlink:href="#DejaVuSans-65" x="63.476562"/>
      <use xlink:href="#DejaVuSans-74" x="125"/>
      <use xlink:href="#DejaVuSans-65" x="164.208984"/>
      <use xlink:href="#DejaVuSans-63" x="225.732422"/>
      <use xlink:href="#DejaVuSans-74" x="280.712891"/>
      <use xlink:href="#DejaVuSans-6f" x="319.921875"/>
      <use xlink:href="#DejaVuSans-72" x="381.103516"/>
      <use xlink:href="#DejaVuSans-5f" x="422.216797"/>
      <use xlink:href="#DejaVuSans-6e" x="472.216797"/>
      <use xlink:href="#DejaVuSans-75" x="535.595703"/>
      <use xlink:href="#DejaVuSans-6d" x="598.974609"/>
      <use xlink:href="#DejaVuSans-62" x="696.386719"/>
      <use xlink:href="#DejaVuSans-65" x="759.863281"/>
      <use xlink:href="#DejaVuSans-72" x="821.386719"/>
      <use xlink:href="#DejaVuSans-3a" x="860.75"/>
      <use xlink:href="#DejaVuSans-30" x="894.441406"/>
     </g>
    </g>
    <g id="line2d_16">
     <path d="M 248.957813 35.254687 
L 248.957813 35.254687 
L 258.957813 35.254687 
L 258.957813 35.254687 
L 268.957813 35.254687 
" style="fill: none; stroke: #ff7f0e; stroke-width: 1.5; stroke-linecap: square"/>
    </g>
    <g id="text_18">
     <!-- detector_number:1 -->
     <g transform="translate(276.957813 38.754687) scale(0.1 -0.1)">
      <use xlink:href="#DejaVuSans-64"/>
      <use xlink:href="#DejaVuSans-65" x="63.476562"/>
      <use xlink:href="#DejaVuSans-74" x="125"/>
      <use xlink:href="#DejaVuSans-65" x="164.208984"/>
      <use xlink:href="#DejaVuSans-63" x="225.732422"/>
      <use xlink:href="#DejaVuSans-74" x="280.712891"/>
      <use xlink:href="#DejaVuSans-6f" x="319.921875"/>
      <use xlink:href="#DejaVuSans-72" x="381.103516"/>
      <use xlink:href="#DejaVuSans-5f" x="422.216797"/>
      <use xlink:href="#DejaVuSans-6e" x="472.216797"/>
      <use xlink:href="#DejaVuSans-75" x="535.595703"/>
      <use xlink:href="#DejaVuSans-6d" x="598.974609"/>
      <use xlink:href="#DejaVuSans-62" x="696.386719"/>
      <use xlink:href="#DejaVuSans-65" x="759.863281"/>
      <use xlink:href="#DejaVuSans-72" x="821.386719"/>
      <use xlink:href="#DejaVuSans-3a" x="860.75"/>
      <use xlink:href="#DejaVuSans-31" x="894.441406"/>
     </g>
    </g>
   </g>
   <g id="line2d_17">
    <path d="M 62.183807 110.381243 
L 63.198352 110.381243 
L 63.198352 117.900959 
L 64.212898 117.900959 
L 64.212898 109.306998 
L 65.227443 109.306998 
L 65.227443 121.839858 
L 66.241989 121.839858 
L 66.241989 120.765613 
L 67.256534 120.765613 
L 67.256534 126.136838 
L 68.27108 126.136838 
L 68.27108 132.582309 
L 69.285625 132.582309 
L 69.285625 128.285329 
L 70.30017 128.285329 
L 70.30017 127.569165 
L 71.314716 127.569165 
L 71.314716 136.521208 
L 72.329261 136.521208 
L 72.329261 126.136838 
L 73.343807 126.136838 
L 73.343807 131.866146 
L 74.358352 131.866146 
L 74.358352 131.149982 
L 75.372898 131.149982 
L 75.372898 126.49492 
L 76.387443 126.49492 
L 76.387443 136.163126 
L 77.401989 136.163126 
L 77.401989 139.743943 
L 78.416534 139.743943 
L 78.416534 135.446963 
L 79.43108 135.446963 
L 79.43108 141.17627 
L 80.445625 141.17627 
L 80.445625 132.582309 
L 81.46017 132.582309 
L 81.46017 141.17627 
L 82.474716 141.17627 
L 82.474716 139.743943 
L 83.489261 139.743943 
L 83.489261 138.669698 
L 84.503807 138.669698 
L 84.503807 144.040924 
L 85.518352 144.040924 
L 85.518352 135.446963 
L 86.532898 135.446963 
L 86.532898 146.905577 
L 87.547443 146.905577 
L 87.547443 148.695986 
L 88.561989 148.695986 
L 88.561989 142.608597 
L 89.576534 142.608597 
L 89.576534 147.263659 
L 90.59108 147.263659 
L 90.59108 159.796519 
L 91.605625 159.796519 
L 91.605625 145.47325 
L 92.62017 145.47325 
L 92.62017 153.351048 
L 93.634716 153.351048 
L 93.634716 154.425293 
L 94.649261 154.425293 
L 94.649261 157.648028 
L 95.663807 157.648028 
L 95.663807 162.303091 
L 96.678352 162.303091 
L 96.678352 163.019254 
L 97.692898 163.019254 
L 97.692898 155.141456 
L 98.707443 155.141456 
L 98.707443 161.586927 
L 99.721989 161.586927 
L 99.721989 166.241989 
L 100.736534 166.241989 
L 100.736534 168.032398 
L 101.75108 168.032398 
L 101.75108 175.910195 
L 102.765625 175.910195 
L 102.765625 168.748561 
L 103.78017 168.748561 
L 103.78017 171.255133 
L 104.794716 171.255133 
L 104.794716 173.761705 
L 105.809261 173.761705 
L 105.809261 181.281421 
L 106.823807 181.281421 
L 106.823807 183.429911 
L 107.838352 183.429911 
L 107.838352 187.010728 
L 108.852898 187.010728 
L 108.852898 185.22032 
L 109.867443 185.22032 
L 109.867443 186.652647 
L 110.881989 186.652647 
L 110.881989 194.172362 
L 111.896534 194.172362 
L 111.896534 190.949627 
L 112.91108 190.949627 
L 112.91108 192.740036 
L 113.925625 192.740036 
L 113.925625 199.185506 
L 114.94017 199.185506 
L 114.94017 198.827425 
L 115.954716 198.827425 
L 115.954716 196.320853 
L 116.969261 196.320853 
L 116.969261 199.543588 
L 117.983807 199.543588 
L 117.983807 200.975915 
L 118.998352 200.975915 
L 118.998352 202.408242 
L 120.012898 202.408242 
L 120.012898 208.495631 
L 121.027443 208.495631 
L 121.027443 208.137549 
L 122.041989 208.137549 
L 122.041989 210.644121 
L 123.056534 210.644121 
L 123.056534 209.927957 
L 124.07108 209.927957 
L 124.07108 213.150693 
L 125.085625 213.150693 
L 125.085625 211.002202 
L 126.10017 211.002202 
L 126.10017 216.015346 
L 127.114716 216.015346 
L 127.114716 213.866856 
L 128.129261 213.866856 
L 128.129261 213.508774 
L 129.143807 213.508774 
L 129.143807 216.373428 
L 130.158352 216.373428 
L 130.158352 217.089591 
L 132.187443 217.089591 
L 132.187443 218.521918 
L 134.216534 218.521918 
L 134.216534 218.163837 
L 135.23108 218.163837 
L 135.23108 218.88 
L 149.434716 218.88 
L 149.434716 217.447673 
L 150.449261 217.447673 
L 150.449261 210.286039 
L 151.463807 210.286039 
L 151.463807 204.556732 
L 152.478352 204.556732 
L 152.478352 204.19865 
L 153.492898 204.19865 
L 153.492898 198.111261 
L 154.507443 198.111261 
L 154.507443 189.5173 
L 155.521989 189.5173 
L 155.521989 181.639503 
L 156.536534 181.639503 
L 156.536534 177.342522 
L 157.55108 177.342522 
L 157.55108 163.735417 
L 158.565625 163.735417 
L 158.565625 166.241989 
L 159.58017 166.241989 
L 159.58017 162.303091 
L 160.594716 162.303091 
L 160.594716 155.499538 
L 161.609261 155.499538 
L 161.609261 151.202558 
L 162.623807 151.202558 
L 162.623807 142.250515 
L 163.638352 142.250515 
L 163.638352 132.224227 
L 164.652898 132.224227 
L 164.652898 129.717655 
L 165.667443 129.717655 
L 165.667443 133.298472 
L 166.681989 133.298472 
L 166.681989 129.359574 
L 167.696534 129.359574 
L 167.696534 107.158508 
L 168.71108 107.158508 
L 168.71108 119.691368 
L 169.725625 119.691368 
L 169.725625 111.81357 
L 170.74017 111.81357 
L 170.74017 98.564547 
L 171.754716 98.564547 
L 171.754716 90.328668 
L 172.769261 90.328668 
L 172.769261 92.477158 
L 173.783807 92.477158 
L 173.783807 73.140746 
L 174.798352 73.140746 
L 174.798352 74.573073 
L 175.812898 74.573073 
L 175.812898 84.599361 
L 176.827443 84.599361 
L 176.827443 75.289236 
L 177.841989 75.289236 
L 177.841989 72.424583 
L 178.856534 72.424583 
L 178.856534 64.904867 
L 179.87108 64.904867 
L 179.87108 49.865435 
L 180.885625 49.865435 
L 180.885625 51.655844 
L 181.90017 51.655844 
L 181.90017 52.372007 
L 182.914716 52.372007 
L 182.914716 58.459396 
L 183.929261 58.459396 
L 183.929261 41.629556 
L 184.943807 41.629556 
L 184.943807 52.013925 
L 185.958352 52.013925 
L 185.958352 40.555311 
L 186.972898 40.555311 
L 186.972898 36.25833 
L 187.987443 36.25833 
L 187.987443 38.048739 
L 189.001989 38.048739 
L 189.001989 26.232043 
L 190.016534 26.232043 
L 190.016534 34.467922 
L 191.03108 34.467922 
L 191.03108 26.948206 
L 192.045625 26.948206 
L 192.045625 28.022451 
L 193.06017 28.022451 
L 193.06017 20.502735 
L 194.074716 20.502735 
L 194.074716 22.293144 
L 195.089261 22.293144 
L 195.089261 29.096696 
L 196.103807 29.096696 
L 196.103807 44.136128 
L 197.118352 44.136128 
L 197.118352 21.935062 
L 198.132898 21.935062 
L 198.132898 26.948206 
L 199.147443 26.948206 
L 199.147443 28.380533 
L 200.161989 28.380533 
L 200.161989 41.987638 
L 201.176534 41.987638 
L 201.176534 39.122984 
L 202.19108 39.122984 
L 202.19108 33.035595 
L 203.205625 33.035595 
L 203.205625 36.974494 
L 204.22017 36.974494 
L 204.22017 49.865435 
L 205.234716 49.865435 
L 205.234716 34.10984 
L 206.249261 34.10984 
L 206.249261 28.380533 
L 207.263807 28.380533 
L 207.263807 59.891723 
L 208.278352 59.891723 
L 208.278352 64.188703 
L 209.292898 64.188703 
L 209.292898 71.708419 
L 210.307443 71.708419 
L 210.307443 49.149272 
L 211.321989 49.149272 
L 211.321989 61.682131 
L 212.336534 61.682131 
L 212.336534 44.852291 
L 213.35108 44.852291 
L 213.35108 57.743233 
L 214.365625 57.743233 
L 214.365625 49.865435 
L 215.38017 49.865435 
L 215.38017 63.47254 
L 216.394716 63.47254 
L 216.394716 67.411439 
L 217.409261 67.411439 
L 217.409261 58.817478 
L 218.423807 58.817478 
L 218.423807 57.743233 
L 219.438352 57.743233 
L 219.438352 69.918011 
L 220.452898 69.918011 
L 220.452898 59.533641 
L 221.467443 59.533641 
L 221.467443 60.607886 
L 222.481989 60.607886 
L 222.481989 66.695275 
L 223.496534 66.695275 
L 223.496534 58.817478 
L 224.51108 58.817478 
L 224.51108 69.918011 
L 225.525625 69.918011 
L 225.525625 73.498828 
L 226.54017 73.498828 
L 226.54017 64.188703 
L 227.554716 64.188703 
L 227.554716 59.891723 
L 228.569261 59.891723 
L 228.569261 83.525115 
L 229.583807 83.525115 
L 229.583807 71.350337 
L 230.598352 71.350337 
L 230.598352 72.782664 
L 231.612898 72.782664 
L 231.612898 60.249805 
L 232.627443 60.249805 
L 232.627443 86.031687 
L 233.641989 86.031687 
L 233.641989 58.459396 
L 234.656534 58.459396 
L 234.656534 72.066501 
L 235.67108 72.066501 
L 235.67108 71.708419 
L 236.685625 71.708419 
L 236.685625 58.459396 
L 237.70017 58.459396 
L 237.70017 68.485684 
L 238.714716 68.485684 
L 238.714716 69.918011 
L 239.729261 69.918011 
L 239.729261 76.0054 
L 240.743807 76.0054 
L 240.743807 73.856909 
L 241.758352 73.856909 
L 241.758352 71.708419 
L 242.772898 71.708419 
L 242.772898 86.031687 
L 243.787443 86.031687 
L 243.787443 74.214991 
L 244.801989 74.214991 
L 244.801989 69.918011 
L 245.816534 69.918011 
L 245.816534 81.018544 
L 246.83108 81.018544 
L 246.83108 81.734707 
L 247.845625 81.734707 
L 247.845625 79.944298 
L 248.86017 79.944298 
L 248.86017 84.599361 
L 249.874716 84.599361 
L 249.874716 83.525115 
L 250.889261 83.525115 
L 250.889261 86.747851 
L 251.903807 86.747851 
L 251.903807 87.105933 
L 252.918352 87.105933 
L 252.918352 91.402913 
L 253.932898 91.402913 
L 253.932898 95.341812 
L 254.947443 95.341812 
L 254.947443 114.320142 
L 255.961989 114.320142 
L 255.961989 106.084263 
L 256.976534 106.084263 
L 256.976534 102.861528 
L 257.99108 102.861528 
L 257.99108 108.948917 
L 259.005625 108.948917 
L 259.005625 107.874671 
L 260.02017 107.874671 
L 260.02017 115.036306 
L 261.034716 115.036306 
L 261.034716 130.433819 
L 262.049261 130.433819 
L 262.049261 132.940391 
L 263.063807 132.940391 
L 263.063807 123.630266 
L 264.078352 123.630266 
L 264.078352 145.831332 
L 265.092898 145.831332 
L 265.092898 135.446963 
L 266.107443 135.446963 
L 266.107443 153.351048 
L 267.121989 153.351048 
L 267.121989 148.695986 
L 268.136534 148.695986 
L 268.136534 159.796519 
L 269.15108 159.796519 
L 269.15108 159.438437 
L 270.165625 159.438437 
L 270.165625 169.106643 
L 271.18017 169.106643 
L 271.18017 167.316234 
L 272.194716 167.316234 
L 272.194716 182.355666 
L 273.209261 182.355666 
L 273.209261 180.565258 
L 274.223807 180.565258 
L 274.223807 188.084973 
L 275.238352 188.084973 
L 275.238352 193.814281 
L 276.252898 193.814281 
L 276.252898 191.66579 
L 277.267443 191.66579 
L 277.267443 199.543588 
L 278.281989 199.543588 
L 278.281989 197.395098 
L 279.296534 197.395098 
L 279.296534 204.19865 
L 280.31108 204.19865 
L 280.31108 208.495631 
L 281.325625 208.495631 
L 281.325625 209.927957 
L 282.34017 209.927957 
L 282.34017 211.360284 
L 283.354716 211.360284 
L 283.354716 211.718366 
L 284.369261 211.718366 
L 284.369261 217.447673 
L 286.398352 217.447673 
L 286.398352 218.163837 
L 287.412898 218.163837 
L 287.412898 218.88 
L 297.558352 218.88 
L 297.558352 217.805755 
L 298.572898 217.805755 
L 298.572898 212.792611 
L 299.587443 212.792611 
L 299.587443 209.211794 
L 300.601989 209.211794 
L 300.601989 206.34714 
L 301.616534 206.34714 
L 301.616534 202.766323 
L 302.63108 202.766323 
L 302.63108 192.740036 
L 304.66017 192.740036 
L 304.66017 186.652647 
L 305.674716 186.652647 
L 305.674716 183.071829 
L 306.689261 183.071829 
L 306.689261 175.194032 
L 307.703807 175.194032 
L 307.703807 172.68746 
L 308.718352 172.68746 
L 308.718352 170.180888 
L 309.732898 170.180888 
L 309.732898 170.53897 
L 310.747443 170.53897 
L 310.747443 163.377336 
L 311.761989 163.377336 
L 311.761989 160.512682 
L 312.776534 160.512682 
L 312.776534 154.783375 
L 313.79108 154.783375 
L 313.79108 149.054067 
L 315.82017 149.054067 
L 315.82017 136.521208 
L 316.834716 136.521208 
L 316.834716 144.757087 
L 317.849261 144.757087 
L 317.849261 139.743943 
L 318.863807 139.743943 
L 318.863807 130.791901 
L 319.878352 130.791901 
L 319.878352 131.508064 
L 320.892898 131.508064 
L 320.892898 134.014636 
L 321.907443 134.014636 
L 321.907443 128.285329 
L 322.921989 128.285329 
L 322.921989 125.420675 
L 323.936534 125.420675 
L 323.936534 126.49492 
L 324.95108 126.49492 
L 324.95108 115.394387 
L 325.965625 115.394387 
L 325.965625 114.320142 
L 326.98017 114.320142 
L 326.98017 107.158508 
L 327.994716 107.158508 
L 327.994716 112.529734 
L 329.009261 112.529734 
L 329.009261 104.293854 
L 330.023807 104.293854 
L 330.023807 113.245897 
L 331.038352 113.245897 
L 331.038352 95.699893 
L 332.052898 95.699893 
L 332.052898 104.293854 
L 333.067443 104.293854 
L 333.067443 99.996874 
L 334.081989 99.996874 
L 334.081989 101.787282 
L 335.096534 101.787282 
L 335.096534 85.673606 
L 336.11108 85.673606 
L 336.11108 95.699893 
L 337.125625 95.699893 
L 337.125625 94.625648 
L 338.14017 94.625648 
L 338.14017 97.848384 
L 339.154716 97.848384 
L 339.154716 101.071119 
L 340.169261 101.071119 
L 340.169261 88.896341 
L 341.183807 88.896341 
L 341.183807 79.944298 
L 342.198352 79.944298 
L 342.198352 81.734707 
L 343.212898 81.734707 
L 343.212898 80.30238 
L 344.227443 80.30238 
L 344.227443 97.848384 
L 345.241989 97.848384 
L 345.241989 90.328668 
L 346.256534 90.328668 
L 346.256534 81.734707 
L 347.27108 81.734707 
L 347.27108 103.935773 
L 348.285625 103.935773 
L 348.285625 84.599361 
L 349.30017 84.599361 
L 349.30017 76.0054 
L 350.314716 76.0054 
L 350.314716 82.808952 
L 351.329261 82.808952 
L 351.329261 102.503446 
L 352.343807 102.503446 
L 352.343807 97.490302 
L 353.358352 97.490302 
L 353.358352 96.416057 
L 354.372898 96.416057 
L 354.372898 101.787282 
L 356.401989 101.787282 
L 356.401989 103.935773 
L 357.416534 103.935773 
L 357.416534 114.678224 
L 358.43108 114.678224 
L 358.43108 109.66508 
L 359.445625 109.66508 
L 359.445625 102.503446 
L 360.46017 102.503446 
L 360.46017 122.914103 
L 361.474716 122.914103 
L 361.474716 112.171652 
L 362.489261 112.171652 
L 362.489261 110.381243 
L 363.503807 110.381243 
L 363.503807 111.455488 
L 364.518352 111.455488 
L 364.518352 108.948917 
L 365.532898 108.948917 
L 365.532898 123.988348 
L 366.547443 123.988348 
L 366.547443 123.988348 
" clip-path="url(#p16d82e4098)" style="fill: none; stroke: #1f77b4; stroke-width: 1.5; stroke-linecap: square"/>
   </g>
   <g id="line2d_18">
    <path d="M 62.183807 127.927247 
L 63.198352 127.927247 
L 63.198352 125.420675 
L 64.212898 125.420675 
L 64.212898 132.224227 
L 65.227443 132.224227 
L 65.227443 131.866146 
L 66.241989 131.866146 
L 66.241989 126.853002 
L 67.256534 126.853002 
L 67.256534 127.569165 
L 68.27108 127.569165 
L 68.27108 123.988348 
L 69.285625 123.988348 
L 69.285625 137.237371 
L 70.30017 137.237371 
L 70.30017 130.075737 
L 71.314716 130.075737 
L 71.314716 134.014636 
L 72.329261 134.014636 
L 72.329261 143.32476 
L 73.343807 143.32476 
L 73.343807 134.730799 
L 74.358352 134.730799 
L 74.358352 133.298472 
L 75.372898 133.298472 
L 75.372898 140.102025 
L 76.387443 140.102025 
L 76.387443 134.372718 
L 77.401989 134.372718 
L 77.401989 142.966679 
L 78.416534 142.966679 
L 78.416534 135.446963 
L 79.43108 135.446963 
L 79.43108 144.757087 
L 80.445625 144.757087 
L 80.445625 144.399005 
L 81.46017 144.399005 
L 81.46017 141.17627 
L 82.474716 141.17627 
L 82.474716 145.115169 
L 83.489261 145.115169 
L 83.489261 157.648028 
L 84.503807 157.648028 
L 84.503807 144.399005 
L 85.518352 144.399005 
L 85.518352 152.276803 
L 86.532898 152.276803 
L 86.532898 154.425293 
L 87.547443 154.425293 
L 87.547443 157.648028 
L 88.561989 157.648028 
L 88.561989 158.00611 
L 89.576534 158.00611 
L 89.576534 159.080355 
L 90.59108 159.080355 
L 90.59108 152.276803 
L 91.605625 152.276803 
L 91.605625 166.958153 
L 92.62017 166.958153 
L 92.62017 164.809663 
L 93.634716 164.809663 
L 93.634716 168.748561 
L 94.649261 168.748561 
L 94.649261 175.552114 
L 95.663807 175.552114 
L 95.663807 161.945009 
L 96.678352 161.945009 
L 96.678352 174.477869 
L 97.692898 174.477869 
L 97.692898 175.194032 
L 98.707443 175.194032 
L 98.707443 181.281421 
L 99.721989 181.281421 
L 99.721989 187.726892 
L 100.736534 187.726892 
L 100.736534 181.997584 
L 101.75108 181.997584 
L 101.75108 187.726892 
L 102.765625 187.726892 
L 102.765625 186.652647 
L 103.78017 186.652647 
L 103.78017 191.66579 
L 104.794716 191.66579 
L 104.794716 191.307709 
L 105.809261 191.307709 
L 105.809261 197.037016 
L 106.823807 197.037016 
L 106.823807 195.604689 
L 107.838352 195.604689 
L 107.838352 196.678934 
L 108.852898 196.678934 
L 108.852898 200.617833 
L 109.867443 200.617833 
L 109.867443 199.543588 
L 110.881989 199.543588 
L 110.881989 201.692078 
L 111.896534 201.692078 
L 111.896534 204.914813 
L 112.91108 204.914813 
L 112.91108 209.569876 
L 113.925625 209.569876 
L 113.925625 209.927957 
L 114.94017 209.927957 
L 114.94017 208.495631 
L 115.954716 208.495631 
L 115.954716 213.150693 
L 116.969261 213.150693 
L 116.969261 213.508774 
L 117.983807 213.508774 
L 117.983807 213.150693 
L 118.998352 213.150693 
L 118.998352 213.508774 
L 120.012898 213.508774 
L 120.012898 214.224938 
L 121.027443 214.224938 
L 121.027443 216.015346 
L 122.041989 216.015346 
L 122.041989 216.73151 
L 123.056534 216.73151 
L 123.056534 217.089591 
L 124.07108 217.089591 
L 124.07108 218.521918 
L 126.10017 218.521918 
L 126.10017 218.163837 
L 127.114716 218.163837 
L 127.114716 218.88 
L 148.42017 218.88 
L 148.42017 212.434529 
L 149.434716 212.434529 
L 149.434716 205.989059 
L 150.449261 205.989059 
L 150.449261 202.05016 
L 151.463807 202.05016 
L 151.463807 203.124405 
L 152.478352 203.124405 
L 152.478352 188.443055 
L 153.492898 188.443055 
L 153.492898 182.713748 
L 154.507443 182.713748 
L 154.507443 176.98444 
L 155.521989 176.98444 
L 155.521989 166.600071 
L 156.536534 166.600071 
L 156.536534 164.451581 
L 157.55108 164.451581 
L 157.55108 161.586927 
L 158.565625 161.586927 
L 158.565625 155.499538 
L 159.58017 155.499538 
L 159.58017 150.844476 
L 160.594716 150.844476 
L 160.594716 138.669698 
L 161.609261 138.669698 
L 161.609261 134.014636 
L 162.623807 134.014636 
L 162.623807 125.062593 
L 163.638352 125.062593 
L 163.638352 131.149982 
L 164.652898 131.149982 
L 164.652898 126.49492 
L 165.667443 126.49492 
L 165.667443 105.368099 
L 166.681989 105.368099 
L 166.681989 116.110551 
L 167.696534 116.110551 
L 167.696534 106.800426 
L 168.71108 106.800426 
L 168.71108 95.341812 
L 169.725625 95.341812 
L 169.725625 88.180178 
L 170.74017 88.180178 
L 170.74017 83.525115 
L 171.754716 83.525115 
L 171.754716 74.573073 
L 172.769261 74.573073 
L 172.769261 70.634174 
L 173.783807 70.634174 
L 173.783807 77.437726 
L 174.798352 77.437726 
L 174.798352 67.76952 
L 175.812898 67.76952 
L 175.812898 65.262948 
L 176.827443 65.262948 
L 176.827443 62.756377 
L 177.841989 62.756377 
L 177.841989 47.000782 
L 178.856534 47.000782 
L 178.856534 46.6427 
L 179.87108 46.6427 
L 179.87108 55.594742 
L 180.885625 55.594742 
L 180.885625 42.703801 
L 181.90017 42.703801 
L 181.90017 44.49421 
L 182.914716 44.49421 
L 182.914716 36.974494 
L 183.929261 36.974494 
L 183.929261 34.10984 
L 184.943807 34.10984 
L 184.943807 28.022451 
L 185.958352 28.022451 
L 185.958352 28.380533 
L 186.972898 28.380533 
L 186.972898 28.738615 
L 187.987443 28.738615 
L 187.987443 30.529023 
L 189.001989 30.529023 
L 189.001989 24.799716 
L 190.016534 24.799716 
L 190.016534 18.712327 
L 191.03108 18.712327 
L 191.03108 18.354245 
L 192.045625 18.354245 
L 192.045625 17.28 
L 193.06017 17.28 
L 193.06017 35.542167 
L 194.074716 35.542167 
L 194.074716 21.935062 
L 195.089261 21.935062 
L 195.089261 21.57698 
L 196.103807 21.57698 
L 196.103807 17.996163 
L 197.118352 17.996163 
L 197.118352 36.974494 
L 198.132898 36.974494 
L 198.132898 36.25833 
L 199.147443 36.25833 
L 199.147443 31.96135 
L 200.161989 31.96135 
L 200.161989 31.603268 
L 201.176534 31.603268 
L 201.176534 43.061883 
L 202.19108 43.061883 
L 202.19108 33.035595 
L 203.205625 33.035595 
L 203.205625 25.515879 
L 204.22017 25.515879 
L 204.22017 55.236661 
L 205.234716 55.236661 
L 205.234716 57.385151 
L 206.249261 57.385151 
L 206.249261 67.76952 
L 207.263807 67.76952 
L 207.263807 48.433108 
L 208.278352 48.433108 
L 208.278352 53.088171 
L 209.292898 53.088171 
L 209.292898 44.49421 
L 210.307443 44.49421 
L 210.307443 46.284618 
L 211.321989 46.284618 
L 211.321989 58.101314 
L 213.35108 58.101314 
L 213.35108 57.743233 
L 214.365625 57.743233 
L 214.365625 56.668988 
L 215.38017 56.668988 
L 215.38017 58.817478 
L 217.409261 58.817478 
L 217.409261 57.743233 
L 218.423807 57.743233 
L 218.423807 58.459396 
L 219.438352 58.459396 
L 219.438352 60.607886 
L 220.452898 60.607886 
L 220.452898 68.485684 
L 221.467443 68.485684 
L 221.467443 58.101314 
L 222.481989 58.101314 
L 222.481989 70.276092 
L 223.496534 70.276092 
L 223.496534 62.398295 
L 224.51108 62.398295 
L 224.51108 59.17556 
L 225.525625 59.17556 
L 225.525625 77.437726 
L 226.54017 77.437726 
L 226.54017 57.385151 
L 227.554716 57.385151 
L 227.554716 79.228135 
L 228.569261 79.228135 
L 228.569261 64.904867 
L 229.583807 64.904867 
L 229.583807 71.350337 
L 230.598352 71.350337 
L 230.598352 54.878579 
L 231.612898 54.878579 
L 231.612898 68.843766 
L 232.627443 68.843766 
L 232.627443 65.262948 
L 233.641989 65.262948 
L 233.641989 56.668988 
L 234.656534 56.668988 
L 234.656534 72.782664 
L 235.67108 72.782664 
L 235.67108 62.040213 
L 236.685625 62.040213 
L 236.685625 71.350337 
L 237.70017 71.350337 
L 237.70017 74.573073 
L 238.714716 74.573073 
L 238.714716 77.079645 
L 239.729261 77.079645 
L 239.729261 70.992256 
L 240.743807 70.992256 
L 240.743807 73.498828 
L 241.758352 73.498828 
L 241.758352 72.782664 
L 242.772898 72.782664 
L 242.772898 78.870053 
L 243.787443 78.870053 
L 243.787443 75.647318 
L 244.801989 75.647318 
L 244.801989 81.018544 
L 245.816534 81.018544 
L 245.816534 79.944298 
L 246.83108 79.944298 
L 246.83108 83.167034 
L 247.845625 83.167034 
L 247.845625 84.957442 
L 248.86017 84.957442 
L 248.86017 86.389769 
L 249.874716 86.389769 
L 249.874716 96.057975 
L 250.889261 96.057975 
L 250.889261 108.948917 
L 251.903807 108.948917 
L 251.903807 106.800426 
L 252.918352 106.800426 
L 252.918352 98.922629 
L 253.932898 98.922629 
L 253.932898 101.429201 
L 254.947443 101.429201 
L 254.947443 116.826714 
L 255.961989 116.826714 
L 255.961989 111.455488 
L 256.976534 111.455488 
L 256.976534 123.988348 
L 257.99108 123.988348 
L 257.99108 133.298472 
L 259.005625 133.298472 
L 259.005625 125.420675 
L 260.02017 125.420675 
L 260.02017 145.831332 
L 261.034716 145.831332 
L 261.034716 136.163126 
L 262.049261 136.163126 
L 262.049261 146.547496 
L 263.063807 146.547496 
L 263.063807 152.276803 
L 264.078352 152.276803 
L 264.078352 156.573783 
L 265.092898 156.573783 
L 265.092898 163.735417 
L 266.107443 163.735417 
L 266.107443 166.241989 
L 267.121989 166.241989 
L 267.121989 177.700604 
L 268.136534 177.700604 
L 268.136534 175.194032 
L 269.15108 175.194032 
L 269.15108 187.36881 
L 270.165625 187.36881 
L 270.165625 189.875382 
L 271.18017 189.875382 
L 271.18017 190.949627 
L 272.194716 190.949627 
L 272.194716 197.395098 
L 273.209261 197.395098 
L 273.209261 195.246607 
L 274.223807 195.246607 
L 274.223807 203.482487 
L 275.238352 203.482487 
L 275.238352 204.556732 
L 276.252898 204.556732 
L 276.252898 210.644121 
L 277.267443 210.644121 
L 277.267443 209.569876 
L 278.281989 209.569876 
L 278.281989 212.076448 
L 279.296534 212.076448 
L 279.296534 216.015346 
L 280.31108 216.015346 
L 280.31108 217.447673 
L 281.325625 217.447673 
L 281.325625 217.805755 
L 282.34017 217.805755 
L 282.34017 218.88 
L 292.485625 218.88 
L 292.485625 218.521918 
L 293.50017 218.521918 
L 293.50017 213.508774 
L 294.514716 213.508774 
L 294.514716 209.569876 
L 295.529261 209.569876 
L 295.529261 208.853712 
L 296.543807 208.853712 
L 296.543807 202.408242 
L 297.558352 202.408242 
L 297.558352 190.233464 
L 298.572898 190.233464 
L 298.572898 194.530444 
L 299.587443 194.530444 
L 299.587443 185.578401 
L 300.601989 185.578401 
L 300.601989 182.355666 
L 301.616534 182.355666 
L 301.616534 174.119787 
L 302.63108 174.119787 
L 302.63108 171.971297 
L 303.645625 171.971297 
L 303.645625 169.822806 
L 305.674716 169.822806 
L 305.674716 160.512682 
L 306.689261 160.512682 
L 306.689261 157.289947 
L 307.703807 157.289947 
L 307.703807 154.067211 
L 308.718352 154.067211 
L 308.718352 147.263659 
L 309.732898 147.263659 
L 309.732898 142.608597 
L 310.747443 142.608597 
L 310.747443 137.595453 
L 311.761989 137.595453 
L 311.761989 139.385861 
L 312.776534 139.385861 
L 312.776534 133.298472 
L 313.79108 133.298472 
L 313.79108 131.866146 
L 314.805625 131.866146 
L 314.805625 135.088881 
L 315.82017 135.088881 
L 315.82017 125.778757 
L 316.834716 125.778757 
L 316.834716 121.123694 
L 317.849261 121.123694 
L 317.849261 129.359574 
L 318.863807 129.359574 
L 318.863807 116.110551 
L 319.878352 116.110551 
L 319.878352 120.049449 
L 320.892898 120.049449 
L 320.892898 108.232753 
L 321.907443 108.232753 
L 321.907443 105.726181 
L 322.921989 105.726181 
L 322.921989 102.861528 
L 323.936534 102.861528 
L 323.936534 112.887815 
L 324.95108 112.887815 
L 324.95108 92.477158 
L 325.965625 92.477158 
L 325.965625 102.861528 
L 326.98017 102.861528 
L 326.98017 98.922629 
L 327.994716 98.922629 
L 327.994716 92.83524 
L 329.009261 92.83524 
L 329.009261 86.747851 
L 330.023807 86.747851 
L 330.023807 94.98373 
L 331.038352 94.98373 
L 331.038352 91.402913 
L 332.052898 91.402913 
L 332.052898 90.328668 
L 333.067443 90.328668 
L 333.067443 101.787282 
L 334.081989 101.787282 
L 334.081989 84.241279 
L 335.096534 84.241279 
L 335.096534 80.30238 
L 336.11108 80.30238 
L 336.11108 79.228135 
L 337.125625 79.228135 
L 337.125625 81.734707 
L 338.14017 81.734707 
L 338.14017 88.180178 
L 339.154716 88.180178 
L 339.154716 83.525115 
L 340.169261 83.525115 
L 340.169261 84.241279 
L 341.183807 84.241279 
L 341.183807 100.354956 
L 342.198352 100.354956 
L 342.198352 81.376625 
L 343.212898 81.376625 
L 343.212898 70.634174 
L 344.227443 70.634174 
L 344.227443 81.018544 
L 345.241989 81.018544 
L 345.241989 100.354956 
L 346.256534 100.354956 
L 346.256534 92.119076 
L 347.27108 92.119076 
L 347.27108 95.699893 
L 348.285625 95.699893 
L 348.285625 97.848384 
L 349.30017 97.848384 
L 349.30017 99.638792 
L 350.314716 99.638792 
L 350.314716 102.145364 
L 351.329261 102.145364 
L 351.329261 110.023162 
L 352.343807 110.023162 
L 352.343807 108.948917 
L 353.358352 108.948917 
L 353.358352 99.28071 
L 354.372898 99.28071 
L 354.372898 120.407531 
L 355.387443 120.407531 
L 355.387443 112.529734 
L 356.401989 112.529734 
L 356.401989 105.368099 
L 357.416534 105.368099 
L 357.416534 112.171652 
L 358.43108 112.171652 
L 358.43108 111.81357 
L 359.445625 111.81357 
L 359.445625 113.96206 
L 360.46017 113.96206 
L 360.46017 103.219609 
L 361.474716 103.219609 
L 361.474716 121.839858 
L 362.489261 121.839858 
L 362.489261 108.232753 
L 363.503807 108.232753 
L 363.503807 121.123694 
L 364.518352 121.123694 
L 364.518352 116.468632 
L 365.532898 116.468632 
L 365.532898 127.211083 
L 366.547443 127.211083 
L 366.547443 127.211083 
" clip-path="url(#p16d82e4098)" style="fill: none; stroke: #ff7f0e; stroke-width: 1.5; stroke-linecap: square"/>
   </g>
  </g>
 </g>
 <defs>
  <clipPath id="p16d82e4098">
   <rect x="46.965625" y="7.2" width="334.8" height="221.76"/>
  </clipPath>
 </defs>
</svg>
