<?xml version="1.0" encoding="utf-8" standalone="no"?>
<!DOCTYPE svg PUBLIC "-//W3C//DTD SVG 1.1//EN"
  "http://www.w3.org/Graphics/SVG/1.1/DTD/svg11.dtd">
<svg xmlns:xlink="http://www.w3.org/1999/xlink" width="401.403367pt" height="266.51625pt" viewBox="0 0 401.403367 266.51625" xmlns="http://www.w3.org/2000/svg" version="1.1">
 <metadata>
  <rdf:RDF xmlns:dc="http://purl.org/dc/elements/1.1/" xmlns:cc="http://creativecommons.org/ns#" xmlns:rdf="http://www.w3.org/1999/02/22-rdf-syntax-ns#">
   <cc:Work>
    <dc:type rdf:resource="http://purl.org/dc/dcmitype/StillImage"/>
    <dc:date>2025-01-20T13:49:53.997589</dc:date>
    <dc:format>image/svg+xml</dc:format>
    <dc:creator>
     <cc:Agent>
      <dc:title>Matplotlib v3.7.3, https://matplotlib.org/</dc:title>
     </cc:Agent>
    </dc:creator>
   </cc:Work>
  </rdf:RDF>
 </metadata>
 <defs>
  <style type="text/css">*{stroke-linejoin: round; stroke-linecap: butt}</style>
 </defs>
 <g id="figure_1">
  <g id="patch_1">
   <path d="M 0 266.51625 
L 401.403367 266.51625 
L 401.403367 0 
L 0 0 
z
" style="fill: #ffffff"/>
  </g>
  <g id="axes_1">
   <g id="patch_2">
    <path d="M 53.328125 228.96 
L 388.128125 228.96 
L 388.128125 7.2 
L 53.328125 7.2 
z
" style="fill: #ffffff"/>
   </g>
   <g id="matplotlib.axis_1">
    <g id="xtick_1">
     <g id="line2d_1">
      <defs>
       <path id="mbf78dbc32d" d="M 0 0 
L 0 3.5 
" style="stroke: #000000; stroke-width: 0.8"/>
      </defs>
      <g>
       <use xlink:href="#mbf78dbc32d" x="73.58495" y="228.96" style="stroke: #000000; stroke-width: 0.8"/>
      </g>
     </g>
     <g id="text_1">
      <!-- 20000 -->
      <g transform="translate(57.6787 243.558437) scale(0.1 -0.1)">
       <defs>
        <path id="DejaVuSans-32" d="M 1228 531 
L 3431 531 
L 3431 0 
L 469 0 
L 469 531 
Q 828 903 1448 1529 
Q 2069 2156 2228 2338 
Q 2531 2678 2651 2914 
Q 2772 3150 2772 3378 
Q 2772 3750 2511 3984 
Q 2250 4219 1831 4219 
Q 1534 4219 1204 4116 
Q 875 4013 500 3803 
L 500 4441 
Q 881 4594 1212 4672 
Q 1544 4750 1819 4750 
Q 2544 4750 2975 4387 
Q 3406 4025 3406 3419 
Q 3406 3131 3298 2873 
Q 3191 2616 2906 2266 
Q 2828 2175 2409 1742 
Q 1991 1309 1228 531 
z
" transform="scale(0.015625)"/>
        <path id="DejaVuSans-30" d="M 2034 4250 
Q 1547 4250 1301 3770 
Q 1056 3291 1056 2328 
Q 1056 1369 1301 889 
Q 1547 409 2034 409 
Q 2525 409 2770 889 
Q 3016 1369 3016 2328 
Q 3016 3291 2770 3770 
Q 2525 4250 2034 4250 
z
M 2034 4750 
Q 2819 4750 3233 4129 
Q 3647 3509 3647 2328 
Q 3647 1150 3233 529 
Q 2819 -91 2034 -91 
Q 1250 -91 836 529 
Q 422 1150 422 2328 
Q 422 3509 836 4129 
Q 1250 4750 2034 4750 
z
" transform="scale(0.015625)"/>
       </defs>
       <use xlink:href="#DejaVuSans-32"/>
       <use xlink:href="#DejaVuSans-30" x="63.623047"/>
       <use xlink:href="#DejaVuSans-30" x="127.246094"/>
       <use xlink:href="#DejaVuSans-30" x="190.869141"/>
       <use xlink:href="#DejaVuSans-30" x="254.492188"/>
      </g>
     </g>
    </g>
    <g id="xtick_2">
     <g id="line2d_2">
      <g>
       <use xlink:href="#mbf78dbc32d" x="117.11526" y="228.96" style="stroke: #000000; stroke-width: 0.8"/>
      </g>
     </g>
     <g id="text_2">
      <!-- 30000 -->
      <g transform="translate(101.20901 243.558437) scale(0.1 -0.1)">
       <defs>
        <path id="DejaVuSans-33" d="M 2597 2516 
Q 3050 2419 3304 2112 
Q 3559 1806 3559 1356 
Q 3559 666 3084 287 
Q 2609 -91 1734 -91 
Q 1441 -91 1130 -33 
Q 819 25 488 141 
L 488 750 
Q 750 597 1062 519 
Q 1375 441 1716 441 
Q 2309 441 2620 675 
Q 2931 909 2931 1356 
Q 2931 1769 2642 2001 
Q 2353 2234 1838 2234 
L 1294 2234 
L 1294 2753 
L 1863 2753 
Q 2328 2753 2575 2939 
Q 2822 3125 2822 3475 
Q 2822 3834 2567 4026 
Q 2313 4219 1838 4219 
Q 1578 4219 1281 4162 
Q 984 4106 628 3988 
L 628 4550 
Q 988 4650 1302 4700 
Q 1616 4750 1894 4750 
Q 2613 4750 3031 4423 
Q 3450 4097 3450 3541 
Q 3450 3153 3228 2886 
Q 3006 2619 2597 2516 
z
" transform="scale(0.015625)"/>
       </defs>
       <use xlink:href="#DejaVuSans-33"/>
       <use xlink:href="#DejaVuSans-30" x="63.623047"/>
       <use xlink:href="#DejaVuSans-30" x="127.246094"/>
       <use xlink:href="#DejaVuSans-30" x="190.869141"/>
       <use xlink:href="#DejaVuSans-30" x="254.492188"/>
      </g>
     </g>
    </g>
    <g id="xtick_3">
     <g id="line2d_3">
      <g>
       <use xlink:href="#mbf78dbc32d" x="160.645569" y="228.96" style="stroke: #000000; stroke-width: 0.8"/>
      </g>
     </g>
     <g id="text_3">
      <!-- 40000 -->
      <g transform="translate(144.739319 243.558437) scale(0.1 -0.1)">
       <defs>
        <path id="DejaVuSans-34" d="M 2419 4116 
L 825 1625 
L 2419 1625 
L 2419 4116 
z
M 2253 4666 
L 3047 4666 
L 3047 1625 
L 3713 1625 
L 3713 1100 
L 3047 1100 
L 3047 0 
L 2419 0 
L 2419 1100 
L 313 1100 
L 313 1709 
L 2253 4666 
z
" transform="scale(0.015625)"/>
       </defs>
       <use xlink:href="#DejaVuSans-34"/>
       <use xlink:href="#DejaVuSans-30" x="63.623047"/>
       <use xlink:href="#DejaVuSans-30" x="127.246094"/>
       <use xlink:href="#DejaVuSans-30" x="190.869141"/>
       <use xlink:href="#DejaVuSans-30" x="254.492188"/>
      </g>
     </g>
    </g>
    <g id="xtick_4">
     <g id="line2d_4">
      <g>
       <use xlink:href="#mbf78dbc32d" x="204.175879" y="228.96" style="stroke: #000000; stroke-width: 0.8"/>
      </g>
     </g>
     <g id="text_4">
      <!-- 50000 -->
      <g transform="translate(188.269629 243.558437) scale(0.1 -0.1)">
       <defs>
        <path id="DejaVuSans-35" d="M 691 4666 
L 3169 4666 
L 3169 4134 
L 1269 4134 
L 1269 2991 
Q 1406 3038 1543 3061 
Q 1681 3084 1819 3084 
Q 2600 3084 3056 2656 
Q 3513 2228 3513 1497 
Q 3513 744 3044 326 
Q 2575 -91 1722 -91 
Q 1428 -91 1123 -41 
Q 819 9 494 109 
L 494 744 
Q 775 591 1075 516 
Q 1375 441 1709 441 
Q 2250 441 2565 725 
Q 2881 1009 2881 1497 
Q 2881 1984 2565 2268 
Q 2250 2553 1709 2553 
Q 1456 2553 1204 2497 
Q 953 2441 691 2322 
L 691 4666 
z
" transform="scale(0.015625)"/>
       </defs>
       <use xlink:href="#DejaVuSans-35"/>
       <use xlink:href="#DejaVuSans-30" x="63.623047"/>
       <use xlink:href="#DejaVuSans-30" x="127.246094"/>
       <use xlink:href="#DejaVuSans-30" x="190.869141"/>
       <use xlink:href="#DejaVuSans-30" x="254.492188"/>
      </g>
     </g>
    </g>
    <g id="xtick_5">
     <g id="line2d_5">
      <g>
       <use xlink:href="#mbf78dbc32d" x="247.706188" y="228.96" style="stroke: #000000; stroke-width: 0.8"/>
      </g>
     </g>
     <g id="text_5">
      <!-- 60000 -->
      <g transform="translate(231.799938 243.558437) scale(0.1 -0.1)">
       <defs>
        <path id="DejaVuSans-36" d="M 2113 2584 
Q 1688 2584 1439 2293 
Q 1191 2003 1191 1497 
Q 1191 994 1439 701 
Q 1688 409 2113 409 
Q 2538 409 2786 701 
Q 3034 994 3034 1497 
Q 3034 2003 2786 2293 
Q 2538 2584 2113 2584 
z
M 3366 4563 
L 3366 3988 
Q 3128 4100 2886 4159 
Q 2644 4219 2406 4219 
Q 1781 4219 1451 3797 
Q 1122 3375 1075 2522 
Q 1259 2794 1537 2939 
Q 1816 3084 2150 3084 
Q 2853 3084 3261 2657 
Q 3669 2231 3669 1497 
Q 3669 778 3244 343 
Q 2819 -91 2113 -91 
Q 1303 -91 875 529 
Q 447 1150 447 2328 
Q 447 3434 972 4092 
Q 1497 4750 2381 4750 
Q 2619 4750 2861 4703 
Q 3103 4656 3366 4563 
z
" transform="scale(0.015625)"/>
       </defs>
       <use xlink:href="#DejaVuSans-36"/>
       <use xlink:href="#DejaVuSans-30" x="63.623047"/>
       <use xlink:href="#DejaVuSans-30" x="127.246094"/>
       <use xlink:href="#DejaVuSans-30" x="190.869141"/>
       <use xlink:href="#DejaVuSans-30" x="254.492188"/>
      </g>
     </g>
    </g>
    <g id="xtick_6">
     <g id="line2d_6">
      <g>
       <use xlink:href="#mbf78dbc32d" x="291.236498" y="228.96" style="stroke: #000000; stroke-width: 0.8"/>
      </g>
     </g>
     <g id="text_6">
      <!-- 70000 -->
      <g transform="translate(275.330248 243.558437) scale(0.1 -0.1)">
       <defs>
        <path id="DejaVuSans-37" d="M 525 4666 
L 3525 4666 
L 3525 4397 
L 1831 0 
L 1172 0 
L 2766 4134 
L 525 4134 
L 525 4666 
z
" transform="scale(0.015625)"/>
       </defs>
       <use xlink:href="#DejaVuSans-37"/>
       <use xlink:href="#DejaVuSans-30" x="63.623047"/>
       <use xlink:href="#DejaVuSans-30" x="127.246094"/>
       <use xlink:href="#DejaVuSans-30" x="190.869141"/>
       <use xlink:href="#DejaVuSans-30" x="254.492188"/>
      </g>
     </g>
    </g>
    <g id="xtick_7">
     <g id="line2d_7">
      <g>
       <use xlink:href="#mbf78dbc32d" x="334.766807" y="228.96" style="stroke: #000000; stroke-width: 0.8"/>
      </g>
     </g>
     <g id="text_7">
      <!-- 80000 -->
      <g transform="translate(318.860557 243.558437) scale(0.1 -0.1)">
       <defs>
        <path id="DejaVuSans-38" d="M 2034 2216 
Q 1584 2216 1326 1975 
Q 1069 1734 1069 1313 
Q 1069 891 1326 650 
Q 1584 409 2034 409 
Q 2484 409 2743 651 
Q 3003 894 3003 1313 
Q 3003 1734 2745 1975 
Q 2488 2216 2034 2216 
z
M 1403 2484 
Q 997 2584 770 2862 
Q 544 3141 544 3541 
Q 544 4100 942 4425 
Q 1341 4750 2034 4750 
Q 2731 4750 3128 4425 
Q 3525 4100 3525 3541 
Q 3525 3141 3298 2862 
Q 3072 2584 2669 2484 
Q 3125 2378 3379 2068 
Q 3634 1759 3634 1313 
Q 3634 634 3220 271 
Q 2806 -91 2034 -91 
Q 1263 -91 848 271 
Q 434 634 434 1313 
Q 434 1759 690 2068 
Q 947 2378 1403 2484 
z
M 1172 3481 
Q 1172 3119 1398 2916 
Q 1625 2713 2034 2713 
Q 2441 2713 2670 2916 
Q 2900 3119 2900 3481 
Q 2900 3844 2670 4047 
Q 2441 4250 2034 4250 
Q 1625 4250 1398 4047 
Q 1172 3844 1172 3481 
z
" transform="scale(0.015625)"/>
       </defs>
       <use xlink:href="#DejaVuSans-38"/>
       <use xlink:href="#DejaVuSans-30" x="63.623047"/>
       <use xlink:href="#DejaVuSans-30" x="127.246094"/>
       <use xlink:href="#DejaVuSans-30" x="190.869141"/>
       <use xlink:href="#DejaVuSans-30" x="254.492188"/>
      </g>
     </g>
    </g>
    <g id="xtick_8">
     <g id="line2d_8">
      <g>
       <use xlink:href="#mbf78dbc32d" x="378.297117" y="228.96" style="stroke: #000000; stroke-width: 0.8"/>
      </g>
     </g>
     <g id="text_8">
      <!-- 90000 -->
      <g transform="translate(362.390867 243.558437) scale(0.1 -0.1)">
       <defs>
        <path id="DejaVuSans-39" d="M 703 97 
L 703 672 
Q 941 559 1184 500 
Q 1428 441 1663 441 
Q 2288 441 2617 861 
Q 2947 1281 2994 2138 
Q 2813 1869 2534 1725 
Q 2256 1581 1919 1581 
Q 1219 1581 811 2004 
Q 403 2428 403 3163 
Q 403 3881 828 4315 
Q 1253 4750 1959 4750 
Q 2769 4750 3195 4129 
Q 3622 3509 3622 2328 
Q 3622 1225 3098 567 
Q 2575 -91 1691 -91 
Q 1453 -91 1209 -44 
Q 966 3 703 97 
z
M 1959 2075 
Q 2384 2075 2632 2365 
Q 2881 2656 2881 3163 
Q 2881 3666 2632 3958 
Q 2384 4250 1959 4250 
Q 1534 4250 1286 3958 
Q 1038 3666 1038 3163 
Q 1038 2656 1286 2365 
Q 1534 2075 1959 2075 
z
" transform="scale(0.015625)"/>
       </defs>
       <use xlink:href="#DejaVuSans-39"/>
       <use xlink:href="#DejaVuSans-30" x="63.623047"/>
       <use xlink:href="#DejaVuSans-30" x="127.246094"/>
       <use xlink:href="#DejaVuSans-30" x="190.869141"/>
       <use xlink:href="#DejaVuSans-30" x="254.492188"/>
      </g>
     </g>
    </g>
    <g id="text_9">
     <!-- tof [µs] -->
     <g transform="translate(202.671875 257.236562) scale(0.1 -0.1)">
      <defs>
       <path id="DejaVuSans-74" d="M 1172 4494 
L 1172 3500 
L 2356 3500 
L 2356 3053 
L 1172 3053 
L 1172 1153 
Q 1172 725 1289 603 
Q 1406 481 1766 481 
L 2356 481 
L 2356 0 
L 1766 0 
Q 1100 0 847 248 
Q 594 497 594 1153 
L 594 3053 
L 172 3053 
L 172 3500 
L 594 3500 
L 594 4494 
L 1172 4494 
z
" transform="scale(0.015625)"/>
       <path id="DejaVuSans-6f" d="M 1959 3097 
Q 1497 3097 1228 2736 
Q 959 2375 959 1747 
Q 959 1119 1226 758 
Q 1494 397 1959 397 
Q 2419 397 2687 759 
Q 2956 1122 2956 1747 
Q 2956 2369 2687 2733 
Q 2419 3097 1959 3097 
z
M 1959 3584 
Q 2709 3584 3137 3096 
Q 3566 2609 3566 1747 
Q 3566 888 3137 398 
Q 2709 -91 1959 -91 
Q 1206 -91 779 398 
Q 353 888 353 1747 
Q 353 2609 779 3096 
Q 1206 3584 1959 3584 
z
" transform="scale(0.015625)"/>
       <path id="DejaVuSans-66" d="M 2375 4863 
L 2375 4384 
L 1825 4384 
Q 1516 4384 1395 4259 
Q 1275 4134 1275 3809 
L 1275 3500 
L 2222 3500 
L 2222 3053 
L 1275 3053 
L 1275 0 
L 697 0 
L 697 3053 
L 147 3053 
L 147 3500 
L 697 3500 
L 697 3744 
Q 697 4328 969 4595 
Q 1241 4863 1831 4863 
L 2375 4863 
z
" transform="scale(0.015625)"/>
       <path id="DejaVuSans-20" transform="scale(0.015625)"/>
       <path id="DejaVuSans-5b" d="M 550 4863 
L 1875 4863 
L 1875 4416 
L 1125 4416 
L 1125 -397 
L 1875 -397 
L 1875 -844 
L 550 -844 
L 550 4863 
z
" transform="scale(0.015625)"/>
       <path id="DejaVuSans-b5" d="M 544 -1331 
L 544 3500 
L 1119 3500 
L 1119 1325 
Q 1119 872 1334 640 
Q 1550 409 1972 409 
Q 2434 409 2667 671 
Q 2900 934 2900 1459 
L 2900 3500 
L 3475 3500 
L 3475 806 
Q 3475 619 3529 530 
Q 3584 441 3700 441 
Q 3728 441 3778 458 
Q 3828 475 3916 513 
L 3916 50 
Q 3788 -22 3673 -56 
Q 3559 -91 3450 -91 
Q 3234 -91 3106 31 
Q 2978 153 2931 403 
Q 2775 156 2548 32 
Q 2322 -91 2016 -91 
Q 1697 -91 1473 31 
Q 1250 153 1119 397 
L 1119 -1331 
L 544 -1331 
z
" transform="scale(0.015625)"/>
       <path id="DejaVuSans-73" d="M 2834 3397 
L 2834 2853 
Q 2591 2978 2328 3040 
Q 2066 3103 1784 3103 
Q 1356 3103 1142 2972 
Q 928 2841 928 2578 
Q 928 2378 1081 2264 
Q 1234 2150 1697 2047 
L 1894 2003 
Q 2506 1872 2764 1633 
Q 3022 1394 3022 966 
Q 3022 478 2636 193 
Q 2250 -91 1575 -91 
Q 1294 -91 989 -36 
Q 684 19 347 128 
L 347 722 
Q 666 556 975 473 
Q 1284 391 1588 391 
Q 1994 391 2212 530 
Q 2431 669 2431 922 
Q 2431 1156 2273 1281 
Q 2116 1406 1581 1522 
L 1381 1569 
Q 847 1681 609 1914 
Q 372 2147 372 2553 
Q 372 3047 722 3315 
Q 1072 3584 1716 3584 
Q 2034 3584 2315 3537 
Q 2597 3491 2834 3397 
z
" transform="scale(0.015625)"/>
       <path id="DejaVuSans-5d" d="M 1947 4863 
L 1947 -844 
L 622 -844 
L 622 -397 
L 1369 -397 
L 1369 4416 
L 622 4416 
L 622 4863 
L 1947 4863 
z
" transform="scale(0.015625)"/>
      </defs>
      <use xlink:href="#DejaVuSans-74"/>
      <use xlink:href="#DejaVuSans-6f" x="39.208984"/>
      <use xlink:href="#DejaVuSans-66" x="100.390625"/>
      <use xlink:href="#DejaVuSans-20" x="135.595703"/>
      <use xlink:href="#DejaVuSans-5b" x="167.382812"/>
      <use xlink:href="#DejaVuSans-b5" x="206.396484"/>
      <use xlink:href="#DejaVuSans-73" x="270.019531"/>
      <use xlink:href="#DejaVuSans-5d" x="322.119141"/>
     </g>
    </g>
   </g>
   <g id="matplotlib.axis_2">
    <g id="ytick_1">
     <g id="line2d_9">
      <defs>
       <path id="mcb7104d62d" d="M 0 0 
L -3.5 0 
" style="stroke: #000000; stroke-width: 0.8"/>
      </defs>
      <g>
       <use xlink:href="#mcb7104d62d" x="53.328125" y="219.389091" style="stroke: #000000; stroke-width: 0.8"/>
      </g>
     </g>
     <g id="text_10">
      <!-- 0 -->
      <g transform="translate(39.965625 223.18831) scale(0.1 -0.1)">
       <use xlink:href="#DejaVuSans-30"/>
      </g>
     </g>
    </g>
    <g id="ytick_2">
     <g id="line2d_10">
      <g>
       <use xlink:href="#mcb7104d62d" x="53.328125" y="185.449697" style="stroke: #000000; stroke-width: 0.8"/>
      </g>
     </g>
     <g id="text_11">
      <!-- 200 -->
      <g transform="translate(27.240625 189.248916) scale(0.1 -0.1)">
       <use xlink:href="#DejaVuSans-32"/>
       <use xlink:href="#DejaVuSans-30" x="63.623047"/>
       <use xlink:href="#DejaVuSans-30" x="127.246094"/>
      </g>
     </g>
    </g>
    <g id="ytick_3">
     <g id="line2d_11">
      <g>
       <use xlink:href="#mcb7104d62d" x="53.328125" y="151.510303" style="stroke: #000000; stroke-width: 0.8"/>
      </g>
     </g>
     <g id="text_12">
      <!-- 400 -->
      <g transform="translate(27.240625 155.309522) scale(0.1 -0.1)">
       <use xlink:href="#DejaVuSans-34"/>
       <use xlink:href="#DejaVuSans-30" x="63.623047"/>
       <use xlink:href="#DejaVuSans-30" x="127.246094"/>
      </g>
     </g>
    </g>
    <g id="ytick_4">
     <g id="line2d_12">
      <g>
       <use xlink:href="#mcb7104d62d" x="53.328125" y="117.570909" style="stroke: #000000; stroke-width: 0.8"/>
      </g>
     </g>
     <g id="text_13">
      <!-- 600 -->
      <g transform="translate(27.240625 121.370128) scale(0.1 -0.1)">
       <use xlink:href="#DejaVuSans-36"/>
       <use xlink:href="#DejaVuSans-30" x="63.623047"/>
       <use xlink:href="#DejaVuSans-30" x="127.246094"/>
      </g>
     </g>
    </g>
    <g id="ytick_5">
     <g id="line2d_13">
      <g>
       <use xlink:href="#mcb7104d62d" x="53.328125" y="83.631515" style="stroke: #000000; stroke-width: 0.8"/>
      </g>
     </g>
     <g id="text_14">
      <!-- 800 -->
      <g transform="translate(27.240625 87.430734) scale(0.1 -0.1)">
       <use xlink:href="#DejaVuSans-38"/>
       <use xlink:href="#DejaVuSans-30" x="63.623047"/>
       <use xlink:href="#DejaVuSans-30" x="127.246094"/>
      </g>
     </g>
    </g>
    <g id="ytick_6">
     <g id="line2d_14">
      <g>
       <use xlink:href="#mcb7104d62d" x="53.328125" y="49.692121" style="stroke: #000000; stroke-width: 0.8"/>
      </g>
     </g>
     <g id="text_15">
      <!-- 1000 -->
      <g transform="translate(20.878125 53.49134) scale(0.1 -0.1)">
       <defs>
        <path id="DejaVuSans-31" d="M 794 531 
L 1825 531 
L 1825 4091 
L 703 3866 
L 703 4441 
L 1819 4666 
L 2450 4666 
L 2450 531 
L 3481 531 
L 3481 0 
L 794 0 
L 794 531 
z
" transform="scale(0.015625)"/>
       </defs>
       <use xlink:href="#DejaVuSans-31"/>
       <use xlink:href="#DejaVuSans-30" x="63.623047"/>
       <use xlink:href="#DejaVuSans-30" x="127.246094"/>
       <use xlink:href="#DejaVuSans-30" x="190.869141"/>
      </g>
     </g>
    </g>
    <g id="ytick_7">
     <g id="line2d_15">
      <g>
       <use xlink:href="#mcb7104d62d" x="53.328125" y="15.752727" style="stroke: #000000; stroke-width: 0.8"/>
      </g>
     </g>
     <g id="text_16">
      <!-- 1200 -->
      <g transform="translate(20.878125 19.551946) scale(0.1 -0.1)">
       <use xlink:href="#DejaVuSans-31"/>
       <use xlink:href="#DejaVuSans-32" x="63.623047"/>
       <use xlink:href="#DejaVuSans-30" x="127.246094"/>
       <use xlink:href="#DejaVuSans-30" x="190.869141"/>
      </g>
     </g>
    </g>
    <g id="text_17">
     <!-- [counts] -->
     <g transform="translate(14.798438 138.6925) rotate(-90) scale(0.1 -0.1)">
      <defs>
       <path id="DejaVuSans-63" d="M 3122 3366 
L 3122 2828 
Q 2878 2963 2633 3030 
Q 2388 3097 2138 3097 
Q 1578 3097 1268 2742 
Q 959 2388 959 1747 
Q 959 1106 1268 751 
Q 1578 397 2138 397 
Q 2388 397 2633 464 
Q 2878 531 3122 666 
L 3122 134 
Q 2881 22 2623 -34 
Q 2366 -91 2075 -91 
Q 1284 -91 818 406 
Q 353 903 353 1747 
Q 353 2603 823 3093 
Q 1294 3584 2113 3584 
Q 2378 3584 2631 3529 
Q 2884 3475 3122 3366 
z
" transform="scale(0.015625)"/>
       <path id="DejaVuSans-75" d="M 544 1381 
L 544 3500 
L 1119 3500 
L 1119 1403 
Q 1119 906 1312 657 
Q 1506 409 1894 409 
Q 2359 409 2629 706 
Q 2900 1003 2900 1516 
L 2900 3500 
L 3475 3500 
L 3475 0 
L 2900 0 
L 2900 538 
Q 2691 219 2414 64 
Q 2138 -91 1772 -91 
Q 1169 -91 856 284 
Q 544 659 544 1381 
z
M 1991 3584 
L 1991 3584 
z
" transform="scale(0.015625)"/>
       <path id="DejaVuSans-6e" d="M 3513 2113 
L 3513 0 
L 2938 0 
L 2938 2094 
Q 2938 2591 2744 2837 
Q 2550 3084 2163 3084 
Q 1697 3084 1428 2787 
Q 1159 2491 1159 1978 
L 1159 0 
L 581 0 
L 581 3500 
L 1159 3500 
L 1159 2956 
Q 1366 3272 1645 3428 
Q 1925 3584 2291 3584 
Q 2894 3584 3203 3211 
Q 3513 2838 3513 2113 
z
" transform="scale(0.015625)"/>
      </defs>
      <use xlink:href="#DejaVuSans-5b"/>
      <use xlink:href="#DejaVuSans-63" x="39.013672"/>
      <use xlink:href="#DejaVuSans-6f" x="93.994141"/>
      <use xlink:href="#DejaVuSans-75" x="155.175781"/>
      <use xlink:href="#DejaVuSans-6e" x="218.554688"/>
      <use xlink:href="#DejaVuSans-74" x="281.933594"/>
      <use xlink:href="#DejaVuSans-73" x="321.142578"/>
      <use xlink:href="#DejaVuSans-5d" x="373.242188"/>
     </g>
    </g>
   </g>
   <g id="patch_3">
    <path d="M 53.328125 228.96 
L 53.328125 7.2 
" style="fill: none; stroke: #000000; stroke-width: 0.8; stroke-linejoin: miter; stroke-linecap: square"/>
   </g>
   <g id="patch_4">
    <path d="M 388.128125 228.96 
L 388.128125 7.2 
" style="fill: none; stroke: #000000; stroke-width: 0.8; stroke-linejoin: miter; stroke-linecap: square"/>
   </g>
   <g id="patch_5">
    <path d="M 53.328125 228.96 
L 388.128125 228.96 
" style="fill: none; stroke: #000000; stroke-width: 0.8; stroke-linejoin: miter; stroke-linecap: square"/>
   </g>
   <g id="patch_6">
    <path d="M 53.328125 7.2 
L 388.128125 7.2 
" style="fill: none; stroke: #000000; stroke-width: 0.8; stroke-linejoin: miter; stroke-linecap: square"/>
   </g>
   <g id="line2d_16">
    <path d="M 68.546307 218.540606 
L 69.560852 218.540606 
L 69.560852 215.655758 
L 70.575398 215.655758 
L 70.575398 211.413333 
L 71.589943 211.413333 
L 71.589943 207.340606 
L 72.604489 207.340606 
L 72.604489 202.419394 
L 73.619034 202.419394 
L 73.619034 200.892121 
L 74.63358 200.892121 
L 74.63358 202.758788 
L 75.648125 202.758788 
L 75.648125 193.425455 
L 77.677216 193.425455 
L 77.677216 185.619394 
L 78.691761 185.619394 
L 78.691761 182.395152 
L 79.706307 182.395152 
L 79.706307 172.892121 
L 80.720852 172.892121 
L 80.720852 162.370909 
L 81.735398 162.370909 
L 81.735398 152.189091 
L 82.749943 152.189091 
L 82.749943 133.352727 
L 83.764489 133.352727 
L 83.764489 124.189091 
L 84.779034 124.189091 
L 84.779034 105.18303 
L 85.79358 105.18303 
L 85.79358 97.546667 
L 86.808125 97.546667 
L 86.808125 85.328485 
L 87.82267 85.328485 
L 87.82267 64.795152 
L 88.837216 64.795152 
L 88.837216 57.158788 
L 89.851761 57.158788 
L 89.851761 48.334545 
L 90.866307 48.334545 
L 90.866307 39.68 
L 91.880852 39.68 
L 91.880852 37.643636 
L 92.895398 37.643636 
L 92.895398 17.958788 
L 93.909943 17.958788 
L 93.909943 17.28 
L 94.924489 17.28 
L 94.924489 18.637576 
L 95.939034 18.637576 
L 95.939034 30.855758 
L 96.95358 30.855758 
L 96.95358 38.152727 
L 97.968125 38.152727 
L 97.968125 49.013333 
L 98.98267 49.013333 
L 98.98267 35.098182 
L 99.997216 35.098182 
L 99.997216 58.686061 
L 101.011761 58.686061 
L 101.011761 54.273939 
L 102.026307 54.273939 
L 102.026307 56.989091 
L 103.040852 56.989091 
L 103.040852 60.552727 
L 104.055398 60.552727 
L 104.055398 62.08 
L 105.069943 62.08 
L 105.069943 72.940606 
L 106.084489 72.940606 
L 106.084489 74.298182 
L 107.099034 74.298182 
L 107.099034 65.813333 
L 108.11358 65.813333 
L 108.11358 88.38303 
L 109.128125 88.38303 
L 109.128125 83.970909 
L 110.14267 83.970909 
L 110.14267 84.310303 
L 111.157216 84.310303 
L 111.157216 90.249697 
L 112.171761 90.249697 
L 112.171761 93.304242 
L 113.186307 93.304242 
L 113.186307 91.098182 
L 114.200852 91.098182 
L 114.200852 99.752727 
L 115.215398 99.752727 
L 115.215398 103.316364 
L 116.229943 103.316364 
L 116.229943 110.273939 
L 117.244489 110.273939 
L 117.244489 110.104242 
L 118.259034 110.104242 
L 118.259034 115.704242 
L 119.27358 115.704242 
L 119.27358 114.516364 
L 120.288125 114.516364 
L 120.288125 111.461818 
L 121.30267 111.461818 
L 121.30267 110.104242 
L 122.317216 110.104242 
L 122.317216 140.48 
L 123.331761 140.48 
L 123.331761 174.589091 
L 124.346307 174.589091 
L 124.346307 200.552727 
L 125.360852 200.552727 
L 125.360852 211.922424 
L 126.375398 211.922424 
L 126.375398 208.019394 
L 127.389943 208.019394 
L 127.389943 207.68 
L 128.404489 207.68 
L 128.404489 205.643636 
L 129.419034 205.643636 
L 129.419034 202.249697 
L 130.43358 202.249697 
L 130.43358 197.498182 
L 131.448125 197.498182 
L 131.448125 195.292121 
L 132.46267 195.292121 
L 132.46267 189.013333 
L 133.477216 189.013333 
L 133.477216 185.449697 
L 134.491761 185.449697 
L 134.491761 178.831515 
L 135.506307 178.831515 
L 135.506307 182.225455 
L 136.520852 182.225455 
L 136.520852 171.025455 
L 137.535398 171.025455 
L 137.535398 168.989091 
L 138.549943 168.989091 
L 138.549943 161.013333 
L 139.564489 161.013333 
L 139.564489 164.237576 
L 140.579034 164.237576 
L 140.579034 162.031515 
L 141.59358 162.031515 
L 141.59358 154.904242 
L 143.62267 154.904242 
L 143.62267 154.564848 
L 144.637216 154.564848 
L 144.637216 152.189091 
L 145.651761 152.189091 
L 145.651761 157.449697 
L 146.666307 157.449697 
L 146.666307 161.861818 
L 147.680852 161.861818 
L 147.680852 160.673939 
L 148.695398 160.673939 
L 148.695398 161.18303 
L 149.709943 161.18303 
L 149.709943 164.916364 
L 150.724489 164.916364 
L 150.724489 163.049697 
L 151.739034 163.049697 
L 151.739034 167.122424 
L 152.75358 167.122424 
L 152.75358 163.219394 
L 153.768125 163.219394 
L 153.768125 169.498182 
L 154.78267 169.498182 
L 154.78267 172.38303 
L 155.797216 172.38303 
L 155.797216 169.837576 
L 156.811761 169.837576 
L 156.811761 169.158788 
L 157.826307 169.158788 
L 157.826307 170.516364 
L 158.840852 170.516364 
L 158.840852 167.801212 
L 159.855398 167.801212 
L 159.855398 174.758788 
L 160.869943 174.758788 
L 160.869943 175.098182 
L 161.884489 175.098182 
L 161.884489 174.249697 
L 162.899034 174.249697 
L 162.899034 177.473939 
L 163.91358 177.473939 
L 163.91358 177.304242 
L 164.928125 177.304242 
L 164.928125 182.734545 
L 165.94267 182.734545 
L 165.94267 178.831515 
L 166.957216 178.831515 
L 166.957216 184.261818 
L 167.971761 184.261818 
L 167.971761 180.867879 
L 168.986307 180.867879 
L 168.986307 182.225455 
L 170.000852 182.225455 
L 170.000852 181.546667 
L 171.015398 181.546667 
L 171.015398 179.001212 
L 172.029943 179.001212 
L 172.029943 189.861818 
L 173.044489 189.861818 
L 173.044489 205.134545 
L 174.059034 205.134545 
L 174.059034 213.789091 
L 175.07358 213.789091 
L 175.07358 215.825455 
L 176.088125 215.825455 
L 176.088125 215.146667 
L 177.10267 215.146667 
L 177.10267 214.128485 
L 178.117216 214.128485 
L 178.117216 212.092121 
L 179.131761 212.092121 
L 179.131761 211.413333 
L 180.146307 211.413333 
L 180.146307 207.001212 
L 181.160852 207.001212 
L 181.160852 206.492121 
L 182.175398 206.492121 
L 182.175398 204.116364 
L 183.189943 204.116364 
L 183.189943 205.98303 
L 184.204489 205.98303 
L 184.204489 197.837576 
L 185.219034 197.837576 
L 185.219034 198.686061 
L 186.23358 198.686061 
L 186.23358 196.989091 
L 187.248125 196.989091 
L 187.248125 196.649697 
L 188.26267 196.649697 
L 188.26267 198.007273 
L 189.277216 198.007273 
L 189.277216 197.328485 
L 190.291761 197.328485 
L 190.291761 198.346667 
L 191.306307 198.346667 
L 191.306307 187.825455 
L 192.320852 187.825455 
L 192.320852 191.898182 
L 193.335398 191.898182 
L 193.335398 194.273939 
L 194.349943 194.273939 
L 194.349943 195.292121 
L 195.364489 195.292121 
L 195.364489 195.122424 
L 196.379034 195.122424 
L 196.379034 196.989091 
L 197.39358 196.989091 
L 197.39358 195.631515 
L 198.408125 195.631515 
L 198.408125 195.461818 
L 199.42267 195.461818 
L 199.42267 195.292121 
L 200.437216 195.292121 
L 200.437216 199.025455 
L 201.451761 199.025455 
L 201.451761 198.516364 
L 202.466307 198.516364 
L 202.466307 201.570909 
L 203.480852 201.570909 
L 203.480852 199.195152 
L 204.495398 199.195152 
L 204.495398 200.213333 
L 205.509943 200.213333 
L 205.509943 198.855758 
L 206.524489 198.855758 
L 206.524489 199.704242 
L 208.55358 199.704242 
L 208.55358 201.061818 
L 209.568125 201.061818 
L 209.568125 202.419394 
L 210.58267 202.419394 
L 210.58267 201.061818 
L 211.597216 201.061818 
L 211.597216 198.17697 
L 212.611761 198.17697 
L 212.611761 202.419394 
L 213.626307 202.419394 
L 213.626307 204.286061 
L 214.640852 204.286061 
L 214.640852 202.08 
L 215.655398 202.08 
L 215.655398 203.098182 
L 216.669943 203.098182 
L 216.669943 203.267879 
L 217.684489 203.267879 
L 217.684489 205.473939 
L 218.699034 205.473939 
L 218.699034 202.08 
L 219.71358 202.08 
L 219.71358 206.661818 
L 220.728125 206.661818 
L 220.728125 202.249697 
L 221.74267 202.249697 
L 221.74267 207.510303 
L 222.757216 207.510303 
L 222.757216 213.449697 
L 223.771761 213.449697 
L 223.771761 217.013333 
L 224.786307 217.013333 
L 224.786307 217.352727 
L 226.815398 217.352727 
L 226.815398 215.655758 
L 227.829943 215.655758 
L 227.829943 216.164848 
L 228.844489 216.164848 
L 228.844489 214.97697 
L 229.859034 214.97697 
L 229.859034 214.467879 
L 230.87358 214.467879 
L 230.87358 210.904242 
L 231.888125 210.904242 
L 231.888125 210.055758 
L 232.90267 210.055758 
L 232.90267 212.092121 
L 233.917216 212.092121 
L 233.917216 211.413333 
L 234.931761 211.413333 
L 234.931761 212.261818 
L 235.946307 212.261818 
L 235.946307 210.564848 
L 236.960852 210.564848 
L 236.960852 211.413333 
L 237.975398 211.413333 
L 237.975398 207.340606 
L 238.989943 207.340606 
L 238.989943 207.510303 
L 240.004489 207.510303 
L 240.004489 208.019394 
L 241.019034 208.019394 
L 241.019034 206.152727 
L 242.03358 206.152727 
L 242.03358 208.189091 
L 243.048125 208.189091 
L 243.048125 206.492121 
L 244.06267 206.492121 
L 244.06267 208.528485 
L 245.077216 208.528485 
L 245.077216 209.886061 
L 246.091761 209.886061 
L 246.091761 211.752727 
L 247.106307 211.752727 
L 247.106307 207.340606 
L 248.120852 207.340606 
L 248.120852 211.073939 
L 249.135398 211.073939 
L 249.135398 211.243636 
L 250.149943 211.243636 
L 250.149943 210.734545 
L 251.164489 210.734545 
L 251.164489 209.037576 
L 252.179034 209.037576 
L 252.179034 209.37697 
L 253.19358 209.37697 
L 253.19358 212.092121 
L 254.208125 212.092121 
L 254.208125 210.225455 
L 255.22267 210.225455 
L 255.22267 211.073939 
L 256.237216 211.073939 
L 256.237216 210.055758 
L 257.251761 210.055758 
L 257.251761 210.225455 
L 258.266307 210.225455 
L 258.266307 212.261818 
L 259.280852 212.261818 
L 259.280852 212.431515 
L 260.295398 212.431515 
L 260.295398 211.243636 
L 261.309943 211.243636 
L 261.309943 209.716364 
L 262.324489 209.716364 
L 262.324489 212.770909 
L 263.339034 212.770909 
L 263.339034 210.734545 
L 264.35358 210.734545 
L 264.35358 210.395152 
L 265.368125 210.395152 
L 265.368125 212.261818 
L 266.38267 212.261818 
L 266.38267 209.546667 
L 267.397216 209.546667 
L 267.397216 211.413333 
L 268.411761 211.413333 
L 268.411761 211.073939 
L 269.426307 211.073939 
L 269.426307 214.128485 
L 270.440852 214.128485 
L 270.440852 212.431515 
L 271.455398 212.431515 
L 271.455398 214.807273 
L 272.469943 214.807273 
L 272.469943 215.825455 
L 273.484489 215.825455 
L 273.484489 217.522424 
L 274.499034 217.522424 
L 274.499034 218.370909 
L 275.51358 218.370909 
L 275.51358 217.861818 
L 277.54267 217.861818 
L 277.54267 217.692121 
L 278.557216 217.692121 
L 278.557216 216.334545 
L 279.571761 216.334545 
L 279.571761 217.522424 
L 280.586307 217.522424 
L 280.586307 215.486061 
L 281.600852 215.486061 
L 281.600852 214.637576 
L 282.615398 214.637576 
L 282.615398 214.128485 
L 283.629943 214.128485 
L 283.629943 215.995152 
L 284.644489 215.995152 
L 284.644489 214.637576 
L 285.659034 214.637576 
L 285.659034 214.97697 
L 286.67358 214.97697 
L 286.67358 213.110303 
L 287.688125 213.110303 
L 287.688125 213.449697 
L 288.70267 213.449697 
L 288.70267 214.467879 
L 289.717216 214.467879 
L 289.717216 213.110303 
L 290.731761 213.110303 
L 290.731761 214.637576 
L 291.746307 214.637576 
L 291.746307 214.298182 
L 292.760852 214.298182 
L 292.760852 214.97697 
L 293.775398 214.97697 
L 293.775398 213.619394 
L 295.804489 213.619394 
L 295.804489 213.28 
L 296.819034 213.28 
L 296.819034 213.619394 
L 297.83358 213.619394 
L 297.83358 213.789091 
L 299.86267 213.789091 
L 299.86267 214.97697 
L 301.891761 214.97697 
L 301.891761 215.316364 
L 302.906307 215.316364 
L 302.906307 215.995152 
L 303.920852 215.995152 
L 303.920852 215.825455 
L 304.935398 215.825455 
L 304.935398 216.164848 
L 305.949943 216.164848 
L 305.949943 213.619394 
L 306.964489 213.619394 
L 306.964489 215.655758 
L 307.979034 215.655758 
L 307.979034 215.316364 
L 308.99358 215.316364 
L 308.99358 213.110303 
L 310.008125 213.110303 
L 310.008125 213.958788 
L 311.02267 213.958788 
L 311.02267 215.146667 
L 312.037216 215.146667 
L 312.037216 215.655758 
L 313.051761 215.655758 
L 313.051761 214.298182 
L 314.066307 214.298182 
L 314.066307 214.807273 
L 315.080852 214.807273 
L 315.080852 213.958788 
L 316.095398 213.958788 
L 316.095398 214.637576 
L 317.109943 214.637576 
L 317.109943 217.522424 
L 318.124489 217.522424 
L 318.124489 216.673939 
L 319.139034 216.673939 
L 319.139034 215.486061 
L 320.15358 215.486061 
L 320.15358 217.013333 
L 321.168125 217.013333 
L 321.168125 216.334545 
L 322.18267 216.334545 
L 322.18267 217.861818 
L 323.197216 217.861818 
L 323.197216 218.201212 
L 325.226307 218.201212 
L 325.226307 218.88 
L 326.240852 218.88 
L 326.240852 218.370909 
L 327.255398 218.370909 
L 327.255398 218.031515 
L 328.269943 218.031515 
L 328.269943 218.201212 
L 329.284489 218.201212 
L 329.284489 217.352727 
L 330.299034 217.352727 
L 330.299034 216.504242 
L 331.31358 216.504242 
L 331.31358 217.522424 
L 333.34267 217.522424 
L 333.34267 217.352727 
L 335.371761 217.352727 
L 335.371761 215.486061 
L 336.386307 215.486061 
L 336.386307 217.352727 
L 337.400852 217.352727 
L 337.400852 215.655758 
L 338.415398 215.655758 
L 338.415398 216.164848 
L 339.429943 216.164848 
L 339.429943 217.522424 
L 340.444489 217.522424 
L 340.444489 215.995152 
L 341.459034 215.995152 
L 341.459034 215.146667 
L 342.47358 215.146667 
L 342.47358 216.164848 
L 343.488125 216.164848 
L 343.488125 215.995152 
L 344.50267 215.995152 
L 344.50267 217.18303 
L 345.517216 217.18303 
L 345.517216 217.522424 
L 346.531761 217.522424 
L 346.531761 215.655758 
L 347.546307 215.655758 
L 347.546307 214.467879 
L 348.560852 214.467879 
L 348.560852 215.825455 
L 349.575398 215.825455 
L 349.575398 216.843636 
L 350.589943 216.843636 
L 350.589943 217.18303 
L 351.604489 217.18303 
L 351.604489 217.522424 
L 352.619034 217.522424 
L 352.619034 217.352727 
L 353.63358 217.352727 
L 353.63358 217.013333 
L 354.648125 217.013333 
L 354.648125 217.18303 
L 355.66267 217.18303 
L 355.66267 216.334545 
L 356.677216 216.334545 
L 356.677216 216.504242 
L 357.691761 216.504242 
L 357.691761 217.861818 
L 358.706307 217.861818 
L 358.706307 215.655758 
L 360.735398 215.655758 
L 360.735398 217.861818 
L 361.749943 217.861818 
L 361.749943 217.352727 
L 362.764489 217.352727 
L 362.764489 216.334545 
L 363.779034 216.334545 
L 363.779034 217.18303 
L 364.79358 217.18303 
L 364.79358 218.201212 
L 365.808125 218.201212 
L 365.808125 215.655758 
L 366.82267 215.655758 
L 366.82267 216.334545 
L 367.837216 216.334545 
L 367.837216 217.18303 
L 368.851761 217.18303 
L 368.851761 216.843636 
L 369.866307 216.843636 
L 369.866307 218.031515 
L 370.880852 218.031515 
L 370.880852 217.692121 
L 371.895398 217.692121 
L 371.895398 218.88 
L 372.909943 218.88 
L 372.909943 218.88 
" clip-path="url(#p4cb7b5ee71)" style="fill: none; stroke: #1f77b4; stroke-width: 1.5; stroke-linecap: square"/>
   </g>
  </g>
 </g>
 <defs>
  <clipPath id="p4cb7b5ee71">
   <rect x="53.328125" y="7.2" width="334.8" height="221.76"/>
  </clipPath>
 </defs>
</svg>
