<?xml version="1.0" encoding="utf-8" standalone="no"?>
<!DOCTYPE svg PUBLIC "-//W3C//DTD SVG 1.1//EN"
  "http://www.w3.org/Graphics/SVG/1.1/DTD/svg11.dtd">
<svg xmlns:xlink="http://www.w3.org/1999/xlink" width="656.390331pt" height="440.39952pt" viewBox="0 0 656.390331 440.39952" xmlns="http://www.w3.org/2000/svg" version="1.1">
 <metadata>
  <rdf:RDF xmlns:dc="http://purl.org/dc/elements/1.1/" xmlns:cc="http://creativecommons.org/ns#" xmlns:rdf="http://www.w3.org/1999/02/22-rdf-syntax-ns#">
   <cc:Work>
    <dc:type rdf:resource="http://purl.org/dc/dcmitype/StillImage"/>
    <dc:date>2025-01-20T13:49:47.874960</dc:date>
    <dc:format>image/svg+xml</dc:format>
    <dc:creator>
     <cc:Agent>
      <dc:title>Matplotlib v3.7.3, https://matplotlib.org/</dc:title>
     </cc:Agent>
    </dc:creator>
   </cc:Work>
  </rdf:RDF>
 </metadata>
 <defs>
  <style type="text/css">*{stroke-linejoin: round; stroke-linecap: butt}</style>
 </defs>
 <g id="figure_1">
  <g id="patch_1">
   <path d="M 0 440.39952 
L 656.390331 440.39952 
L 656.390331 0 
L 0 0 
z
" style="fill: #ffffff"/>
  </g>
  <g id="axes_1">
   <g id="patch_2">
    <path d="M 40.603125 186.565145 
L 319.668835 186.565145 
L 319.668835 22.318125 
L 40.603125 22.318125 
z
" style="fill: #ffffff"/>
   </g>
   <g id="matplotlib.axis_1">
    <g id="xtick_1">
     <g id="line2d_1">
      <defs>
       <path id="mca57f49b4a" d="M 0 0 
L 0 3.5 
" style="stroke: #000000; stroke-width: 0.8"/>
      </defs>
      <g>
       <use xlink:href="#mca57f49b4a" x="42.027908" y="186.565145" style="stroke: #000000; stroke-width: 0.8"/>
      </g>
     </g>
     <g id="text_1">
      <!-- 35000 -->
      <g transform="translate(26.121658 201.163582) scale(0.1 -0.1)">
       <defs>
        <path id="DejaVuSans-33" d="M 2597 2516 
Q 3050 2419 3304 2112 
Q 3559 1806 3559 1356 
Q 3559 666 3084 287 
Q 2609 -91 1734 -91 
Q 1441 -91 1130 -33 
Q 819 25 488 141 
L 488 750 
Q 750 597 1062 519 
Q 1375 441 1716 441 
Q 2309 441 2620 675 
Q 2931 909 2931 1356 
Q 2931 1769 2642 2001 
Q 2353 2234 1838 2234 
L 1294 2234 
L 1294 2753 
L 1863 2753 
Q 2328 2753 2575 2939 
Q 2822 3125 2822 3475 
Q 2822 3834 2567 4026 
Q 2313 4219 1838 4219 
Q 1578 4219 1281 4162 
Q 984 4106 628 3988 
L 628 4550 
Q 988 4650 1302 4700 
Q 1616 4750 1894 4750 
Q 2613 4750 3031 4423 
Q 3450 4097 3450 3541 
Q 3450 3153 3228 2886 
Q 3006 2619 2597 2516 
z
" transform="scale(0.015625)"/>
        <path id="DejaVuSans-35" d="M 691 4666 
L 3169 4666 
L 3169 4134 
L 1269 4134 
L 1269 2991 
Q 1406 3038 1543 3061 
Q 1681 3084 1819 3084 
Q 2600 3084 3056 2656 
Q 3513 2228 3513 1497 
Q 3513 744 3044 326 
Q 2575 -91 1722 -91 
Q 1428 -91 1123 -41 
Q 819 9 494 109 
L 494 744 
Q 775 591 1075 516 
Q 1375 441 1709 441 
Q 2250 441 2565 725 
Q 2881 1009 2881 1497 
Q 2881 1984 2565 2268 
Q 2250 2553 1709 2553 
Q 1456 2553 1204 2497 
Q 953 2441 691 2322 
L 691 4666 
z
" transform="scale(0.015625)"/>
        <path id="DejaVuSans-30" d="M 2034 4250 
Q 1547 4250 1301 3770 
Q 1056 3291 1056 2328 
Q 1056 1369 1301 889 
Q 1547 409 2034 409 
Q 2525 409 2770 889 
Q 3016 1369 3016 2328 
Q 3016 3291 2770 3770 
Q 2525 4250 2034 4250 
z
M 2034 4750 
Q 2819 4750 3233 4129 
Q 3647 3509 3647 2328 
Q 3647 1150 3233 529 
Q 2819 -91 2034 -91 
Q 1250 -91 836 529 
Q 422 1150 422 2328 
Q 422 3509 836 4129 
Q 1250 4750 2034 4750 
z
" transform="scale(0.015625)"/>
       </defs>
       <use xlink:href="#DejaVuSans-33"/>
       <use xlink:href="#DejaVuSans-35" x="63.623047"/>
       <use xlink:href="#DejaVuSans-30" x="127.246094"/>
       <use xlink:href="#DejaVuSans-30" x="190.869141"/>
       <use xlink:href="#DejaVuSans-30" x="254.492188"/>
      </g>
     </g>
    </g>
    <g id="xtick_2">
     <g id="line2d_2">
      <g>
       <use xlink:href="#mca57f49b4a" x="73.096364" y="186.565145" style="stroke: #000000; stroke-width: 0.8"/>
      </g>
     </g>
     <g id="text_2">
      <!-- 36000 -->
      <g transform="translate(57.190114 201.163582) scale(0.1 -0.1)">
       <defs>
        <path id="DejaVuSans-36" d="M 2113 2584 
Q 1688 2584 1439 2293 
Q 1191 2003 1191 1497 
Q 1191 994 1439 701 
Q 1688 409 2113 409 
Q 2538 409 2786 701 
Q 3034 994 3034 1497 
Q 3034 2003 2786 2293 
Q 2538 2584 2113 2584 
z
M 3366 4563 
L 3366 3988 
Q 3128 4100 2886 4159 
Q 2644 4219 2406 4219 
Q 1781 4219 1451 3797 
Q 1122 3375 1075 2522 
Q 1259 2794 1537 2939 
Q 1816 3084 2150 3084 
Q 2853 3084 3261 2657 
Q 3669 2231 3669 1497 
Q 3669 778 3244 343 
Q 2819 -91 2113 -91 
Q 1303 -91 875 529 
Q 447 1150 447 2328 
Q 447 3434 972 4092 
Q 1497 4750 2381 4750 
Q 2619 4750 2861 4703 
Q 3103 4656 3366 4563 
z
" transform="scale(0.015625)"/>
       </defs>
       <use xlink:href="#DejaVuSans-33"/>
       <use xlink:href="#DejaVuSans-36" x="63.623047"/>
       <use xlink:href="#DejaVuSans-30" x="127.246094"/>
       <use xlink:href="#DejaVuSans-30" x="190.869141"/>
       <use xlink:href="#DejaVuSans-30" x="254.492188"/>
      </g>
     </g>
    </g>
    <g id="xtick_3">
     <g id="line2d_3">
      <g>
       <use xlink:href="#mca57f49b4a" x="104.164821" y="186.565145" style="stroke: #000000; stroke-width: 0.8"/>
      </g>
     </g>
     <g id="text_3">
      <!-- 37000 -->
      <g transform="translate(88.258571 201.163582) scale(0.1 -0.1)">
       <defs>
        <path id="DejaVuSans-37" d="M 525 4666 
L 3525 4666 
L 3525 4397 
L 1831 0 
L 1172 0 
L 2766 4134 
L 525 4134 
L 525 4666 
z
" transform="scale(0.015625)"/>
       </defs>
       <use xlink:href="#DejaVuSans-33"/>
       <use xlink:href="#DejaVuSans-37" x="63.623047"/>
       <use xlink:href="#DejaVuSans-30" x="127.246094"/>
       <use xlink:href="#DejaVuSans-30" x="190.869141"/>
       <use xlink:href="#DejaVuSans-30" x="254.492188"/>
      </g>
     </g>
    </g>
    <g id="xtick_4">
     <g id="line2d_4">
      <g>
       <use xlink:href="#mca57f49b4a" x="135.233277" y="186.565145" style="stroke: #000000; stroke-width: 0.8"/>
      </g>
     </g>
     <g id="text_4">
      <!-- 38000 -->
      <g transform="translate(119.327027 201.163582) scale(0.1 -0.1)">
       <defs>
        <path id="DejaVuSans-38" d="M 2034 2216 
Q 1584 2216 1326 1975 
Q 1069 1734 1069 1313 
Q 1069 891 1326 650 
Q 1584 409 2034 409 
Q 2484 409 2743 651 
Q 3003 894 3003 1313 
Q 3003 1734 2745 1975 
Q 2488 2216 2034 2216 
z
M 1403 2484 
Q 997 2584 770 2862 
Q 544 3141 544 3541 
Q 544 4100 942 4425 
Q 1341 4750 2034 4750 
Q 2731 4750 3128 4425 
Q 3525 4100 3525 3541 
Q 3525 3141 3298 2862 
Q 3072 2584 2669 2484 
Q 3125 2378 3379 2068 
Q 3634 1759 3634 1313 
Q 3634 634 3220 271 
Q 2806 -91 2034 -91 
Q 1263 -91 848 271 
Q 434 634 434 1313 
Q 434 1759 690 2068 
Q 947 2378 1403 2484 
z
M 1172 3481 
Q 1172 3119 1398 2916 
Q 1625 2713 2034 2713 
Q 2441 2713 2670 2916 
Q 2900 3119 2900 3481 
Q 2900 3844 2670 4047 
Q 2441 4250 2034 4250 
Q 1625 4250 1398 4047 
Q 1172 3844 1172 3481 
z
" transform="scale(0.015625)"/>
       </defs>
       <use xlink:href="#DejaVuSans-33"/>
       <use xlink:href="#DejaVuSans-38" x="63.623047"/>
       <use xlink:href="#DejaVuSans-30" x="127.246094"/>
       <use xlink:href="#DejaVuSans-30" x="190.869141"/>
       <use xlink:href="#DejaVuSans-30" x="254.492188"/>
      </g>
     </g>
    </g>
    <g id="xtick_5">
     <g id="line2d_5">
      <g>
       <use xlink:href="#mca57f49b4a" x="166.301734" y="186.565145" style="stroke: #000000; stroke-width: 0.8"/>
      </g>
     </g>
     <g id="text_5">
      <!-- 39000 -->
      <g transform="translate(150.395484 201.163582) scale(0.1 -0.1)">
       <defs>
        <path id="DejaVuSans-39" d="M 703 97 
L 703 672 
Q 941 559 1184 500 
Q 1428 441 1663 441 
Q 2288 441 2617 861 
Q 2947 1281 2994 2138 
Q 2813 1869 2534 1725 
Q 2256 1581 1919 1581 
Q 1219 1581 811 2004 
Q 403 2428 403 3163 
Q 403 3881 828 4315 
Q 1253 4750 1959 4750 
Q 2769 4750 3195 4129 
Q 3622 3509 3622 2328 
Q 3622 1225 3098 567 
Q 2575 -91 1691 -91 
Q 1453 -91 1209 -44 
Q 966 3 703 97 
z
M 1959 2075 
Q 2384 2075 2632 2365 
Q 2881 2656 2881 3163 
Q 2881 3666 2632 3958 
Q 2384 4250 1959 4250 
Q 1534 4250 1286 3958 
Q 1038 3666 1038 3163 
Q 1038 2656 1286 2365 
Q 1534 2075 1959 2075 
z
" transform="scale(0.015625)"/>
       </defs>
       <use xlink:href="#DejaVuSans-33"/>
       <use xlink:href="#DejaVuSans-39" x="63.623047"/>
       <use xlink:href="#DejaVuSans-30" x="127.246094"/>
       <use xlink:href="#DejaVuSans-30" x="190.869141"/>
       <use xlink:href="#DejaVuSans-30" x="254.492188"/>
      </g>
     </g>
    </g>
    <g id="xtick_6">
     <g id="line2d_6">
      <g>
       <use xlink:href="#mca57f49b4a" x="197.37019" y="186.565145" style="stroke: #000000; stroke-width: 0.8"/>
      </g>
     </g>
     <g id="text_6">
      <!-- 40000 -->
      <g transform="translate(181.46394 201.163582) scale(0.1 -0.1)">
       <defs>
        <path id="DejaVuSans-34" d="M 2419 4116 
L 825 1625 
L 2419 1625 
L 2419 4116 
z
M 2253 4666 
L 3047 4666 
L 3047 1625 
L 3713 1625 
L 3713 1100 
L 3047 1100 
L 3047 0 
L 2419 0 
L 2419 1100 
L 313 1100 
L 313 1709 
L 2253 4666 
z
" transform="scale(0.015625)"/>
       </defs>
       <use xlink:href="#DejaVuSans-34"/>
       <use xlink:href="#DejaVuSans-30" x="63.623047"/>
       <use xlink:href="#DejaVuSans-30" x="127.246094"/>
       <use xlink:href="#DejaVuSans-30" x="190.869141"/>
       <use xlink:href="#DejaVuSans-30" x="254.492188"/>
      </g>
     </g>
    </g>
    <g id="xtick_7">
     <g id="line2d_7">
      <g>
       <use xlink:href="#mca57f49b4a" x="228.438647" y="186.565145" style="stroke: #000000; stroke-width: 0.8"/>
      </g>
     </g>
     <g id="text_7">
      <!-- 41000 -->
      <g transform="translate(212.532397 201.163582) scale(0.1 -0.1)">
       <defs>
        <path id="DejaVuSans-31" d="M 794 531 
L 1825 531 
L 1825 4091 
L 703 3866 
L 703 4441 
L 1819 4666 
L 2450 4666 
L 2450 531 
L 3481 531 
L 3481 0 
L 794 0 
L 794 531 
z
" transform="scale(0.015625)"/>
       </defs>
       <use xlink:href="#DejaVuSans-34"/>
       <use xlink:href="#DejaVuSans-31" x="63.623047"/>
       <use xlink:href="#DejaVuSans-30" x="127.246094"/>
       <use xlink:href="#DejaVuSans-30" x="190.869141"/>
       <use xlink:href="#DejaVuSans-30" x="254.492188"/>
      </g>
     </g>
    </g>
    <g id="xtick_8">
     <g id="line2d_8">
      <g>
       <use xlink:href="#mca57f49b4a" x="259.507103" y="186.565145" style="stroke: #000000; stroke-width: 0.8"/>
      </g>
     </g>
     <g id="text_8">
      <!-- 42000 -->
      <g transform="translate(243.600853 201.163582) scale(0.1 -0.1)">
       <defs>
        <path id="DejaVuSans-32" d="M 1228 531 
L 3431 531 
L 3431 0 
L 469 0 
L 469 531 
Q 828 903 1448 1529 
Q 2069 2156 2228 2338 
Q 2531 2678 2651 2914 
Q 2772 3150 2772 3378 
Q 2772 3750 2511 3984 
Q 2250 4219 1831 4219 
Q 1534 4219 1204 4116 
Q 875 4013 500 3803 
L 500 4441 
Q 881 4594 1212 4672 
Q 1544 4750 1819 4750 
Q 2544 4750 2975 4387 
Q 3406 4025 3406 3419 
Q 3406 3131 3298 2873 
Q 3191 2616 2906 2266 
Q 2828 2175 2409 1742 
Q 1991 1309 1228 531 
z
" transform="scale(0.015625)"/>
       </defs>
       <use xlink:href="#DejaVuSans-34"/>
       <use xlink:href="#DejaVuSans-32" x="63.623047"/>
       <use xlink:href="#DejaVuSans-30" x="127.246094"/>
       <use xlink:href="#DejaVuSans-30" x="190.869141"/>
       <use xlink:href="#DejaVuSans-30" x="254.492188"/>
      </g>
     </g>
    </g>
    <g id="xtick_9">
     <g id="line2d_9">
      <g>
       <use xlink:href="#mca57f49b4a" x="290.57556" y="186.565145" style="stroke: #000000; stroke-width: 0.8"/>
      </g>
     </g>
     <g id="text_9">
      <!-- 43000 -->
      <g transform="translate(274.66931 201.163582) scale(0.1 -0.1)">
       <use xlink:href="#DejaVuSans-34"/>
       <use xlink:href="#DejaVuSans-33" x="63.623047"/>
       <use xlink:href="#DejaVuSans-30" x="127.246094"/>
       <use xlink:href="#DejaVuSans-30" x="190.869141"/>
       <use xlink:href="#DejaVuSans-30" x="254.492188"/>
      </g>
     </g>
    </g>
    <g id="text_10">
     <!-- event_time_offset [µs] -->
     <g transform="translate(124.100824 214.841707) scale(0.1 -0.1)">
      <defs>
       <path id="DejaVuSans-65" d="M 3597 1894 
L 3597 1613 
L 953 1613 
Q 991 1019 1311 708 
Q 1631 397 2203 397 
Q 2534 397 2845 478 
Q 3156 559 3463 722 
L 3463 178 
Q 3153 47 2828 -22 
Q 2503 -91 2169 -91 
Q 1331 -91 842 396 
Q 353 884 353 1716 
Q 353 2575 817 3079 
Q 1281 3584 2069 3584 
Q 2775 3584 3186 3129 
Q 3597 2675 3597 1894 
z
M 3022 2063 
Q 3016 2534 2758 2815 
Q 2500 3097 2075 3097 
Q 1594 3097 1305 2825 
Q 1016 2553 972 2059 
L 3022 2063 
z
" transform="scale(0.015625)"/>
       <path id="DejaVuSans-76" d="M 191 3500 
L 800 3500 
L 1894 563 
L 2988 3500 
L 3597 3500 
L 2284 0 
L 1503 0 
L 191 3500 
z
" transform="scale(0.015625)"/>
       <path id="DejaVuSans-6e" d="M 3513 2113 
L 3513 0 
L 2938 0 
L 2938 2094 
Q 2938 2591 2744 2837 
Q 2550 3084 2163 3084 
Q 1697 3084 1428 2787 
Q 1159 2491 1159 1978 
L 1159 0 
L 581 0 
L 581 3500 
L 1159 3500 
L 1159 2956 
Q 1366 3272 1645 3428 
Q 1925 3584 2291 3584 
Q 2894 3584 3203 3211 
Q 3513 2838 3513 2113 
z
" transform="scale(0.015625)"/>
       <path id="DejaVuSans-74" d="M 1172 4494 
L 1172 3500 
L 2356 3500 
L 2356 3053 
L 1172 3053 
L 1172 1153 
Q 1172 725 1289 603 
Q 1406 481 1766 481 
L 2356 481 
L 2356 0 
L 1766 0 
Q 1100 0 847 248 
Q 594 497 594 1153 
L 594 3053 
L 172 3053 
L 172 3500 
L 594 3500 
L 594 4494 
L 1172 4494 
z
" transform="scale(0.015625)"/>
       <path id="DejaVuSans-5f" d="M 3263 -1063 
L 3263 -1509 
L -63 -1509 
L -63 -1063 
L 3263 -1063 
z
" transform="scale(0.015625)"/>
       <path id="DejaVuSans-69" d="M 603 3500 
L 1178 3500 
L 1178 0 
L 603 0 
L 603 3500 
z
M 603 4863 
L 1178 4863 
L 1178 4134 
L 603 4134 
L 603 4863 
z
" transform="scale(0.015625)"/>
       <path id="DejaVuSans-6d" d="M 3328 2828 
Q 3544 3216 3844 3400 
Q 4144 3584 4550 3584 
Q 5097 3584 5394 3201 
Q 5691 2819 5691 2113 
L 5691 0 
L 5113 0 
L 5113 2094 
Q 5113 2597 4934 2840 
Q 4756 3084 4391 3084 
Q 3944 3084 3684 2787 
Q 3425 2491 3425 1978 
L 3425 0 
L 2847 0 
L 2847 2094 
Q 2847 2600 2669 2842 
Q 2491 3084 2119 3084 
Q 1678 3084 1418 2786 
Q 1159 2488 1159 1978 
L 1159 0 
L 581 0 
L 581 3500 
L 1159 3500 
L 1159 2956 
Q 1356 3278 1631 3431 
Q 1906 3584 2284 3584 
Q 2666 3584 2933 3390 
Q 3200 3197 3328 2828 
z
" transform="scale(0.015625)"/>
       <path id="DejaVuSans-6f" d="M 1959 3097 
Q 1497 3097 1228 2736 
Q 959 2375 959 1747 
Q 959 1119 1226 758 
Q 1494 397 1959 397 
Q 2419 397 2687 759 
Q 2956 1122 2956 1747 
Q 2956 2369 2687 2733 
Q 2419 3097 1959 3097 
z
M 1959 3584 
Q 2709 3584 3137 3096 
Q 3566 2609 3566 1747 
Q 3566 888 3137 398 
Q 2709 -91 1959 -91 
Q 1206 -91 779 398 
Q 353 888 353 1747 
Q 353 2609 779 3096 
Q 1206 3584 1959 3584 
z
" transform="scale(0.015625)"/>
       <path id="DejaVuSans-66" d="M 2375 4863 
L 2375 4384 
L 1825 4384 
Q 1516 4384 1395 4259 
Q 1275 4134 1275 3809 
L 1275 3500 
L 2222 3500 
L 2222 3053 
L 1275 3053 
L 1275 0 
L 697 0 
L 697 3053 
L 147 3053 
L 147 3500 
L 697 3500 
L 697 3744 
Q 697 4328 969 4595 
Q 1241 4863 1831 4863 
L 2375 4863 
z
" transform="scale(0.015625)"/>
       <path id="DejaVuSans-73" d="M 2834 3397 
L 2834 2853 
Q 2591 2978 2328 3040 
Q 2066 3103 1784 3103 
Q 1356 3103 1142 2972 
Q 928 2841 928 2578 
Q 928 2378 1081 2264 
Q 1234 2150 1697 2047 
L 1894 2003 
Q 2506 1872 2764 1633 
Q 3022 1394 3022 966 
Q 3022 478 2636 193 
Q 2250 -91 1575 -91 
Q 1294 -91 989 -36 
Q 684 19 347 128 
L 347 722 
Q 666 556 975 473 
Q 1284 391 1588 391 
Q 1994 391 2212 530 
Q 2431 669 2431 922 
Q 2431 1156 2273 1281 
Q 2116 1406 1581 1522 
L 1381 1569 
Q 847 1681 609 1914 
Q 372 2147 372 2553 
Q 372 3047 722 3315 
Q 1072 3584 1716 3584 
Q 2034 3584 2315 3537 
Q 2597 3491 2834 3397 
z
" transform="scale(0.015625)"/>
       <path id="DejaVuSans-20" transform="scale(0.015625)"/>
       <path id="DejaVuSans-5b" d="M 550 4863 
L 1875 4863 
L 1875 4416 
L 1125 4416 
L 1125 -397 
L 1875 -397 
L 1875 -844 
L 550 -844 
L 550 4863 
z
" transform="scale(0.015625)"/>
       <path id="DejaVuSans-b5" d="M 544 -1331 
L 544 3500 
L 1119 3500 
L 1119 1325 
Q 1119 872 1334 640 
Q 1550 409 1972 409 
Q 2434 409 2667 671 
Q 2900 934 2900 1459 
L 2900 3500 
L 3475 3500 
L 3475 806 
Q 3475 619 3529 530 
Q 3584 441 3700 441 
Q 3728 441 3778 458 
Q 3828 475 3916 513 
L 3916 50 
Q 3788 -22 3673 -56 
Q 3559 -91 3450 -91 
Q 3234 -91 3106 31 
Q 2978 153 2931 403 
Q 2775 156 2548 32 
Q 2322 -91 2016 -91 
Q 1697 -91 1473 31 
Q 1250 153 1119 397 
L 1119 -1331 
L 544 -1331 
z
" transform="scale(0.015625)"/>
       <path id="DejaVuSans-5d" d="M 1947 4863 
L 1947 -844 
L 622 -844 
L 622 -397 
L 1369 -397 
L 1369 4416 
L 622 4416 
L 622 4863 
L 1947 4863 
z
" transform="scale(0.015625)"/>
      </defs>
      <use xlink:href="#DejaVuSans-65"/>
      <use xlink:href="#DejaVuSans-76" x="61.523438"/>
      <use xlink:href="#DejaVuSans-65" x="120.703125"/>
      <use xlink:href="#DejaVuSans-6e" x="182.226562"/>
      <use xlink:href="#DejaVuSans-74" x="245.605469"/>
      <use xlink:href="#DejaVuSans-5f" x="284.814453"/>
      <use xlink:href="#DejaVuSans-74" x="334.814453"/>
      <use xlink:href="#DejaVuSans-69" x="374.023438"/>
      <use xlink:href="#DejaVuSans-6d" x="401.806641"/>
      <use xlink:href="#DejaVuSans-65" x="499.21875"/>
      <use xlink:href="#DejaVuSans-5f" x="560.742188"/>
      <use xlink:href="#DejaVuSans-6f" x="610.742188"/>
      <use xlink:href="#DejaVuSans-66" x="671.923828"/>
      <use xlink:href="#DejaVuSans-66" x="707.128906"/>
      <use xlink:href="#DejaVuSans-73" x="742.333984"/>
      <use xlink:href="#DejaVuSans-65" x="794.433594"/>
      <use xlink:href="#DejaVuSans-74" x="855.957031"/>
      <use xlink:href="#DejaVuSans-20" x="895.166016"/>
      <use xlink:href="#DejaVuSans-5b" x="926.953125"/>
      <use xlink:href="#DejaVuSans-b5" x="965.966797"/>
      <use xlink:href="#DejaVuSans-73" x="1029.589844"/>
      <use xlink:href="#DejaVuSans-5d" x="1081.689453"/>
     </g>
    </g>
   </g>
   <g id="matplotlib.axis_2">
    <g id="ytick_1">
     <g id="line2d_10">
      <defs>
       <path id="mdfbf1d9479" d="M 0 0 
L -3.5 0 
" style="stroke: #000000; stroke-width: 0.8"/>
      </defs>
      <g>
       <use xlink:href="#mdfbf1d9479" x="40.603125" y="179.099371" style="stroke: #000000; stroke-width: 0.8"/>
      </g>
     </g>
     <g id="text_11">
      <!-- 0 -->
      <g transform="translate(27.240625 182.89859) scale(0.1 -0.1)">
       <use xlink:href="#DejaVuSans-30"/>
      </g>
     </g>
    </g>
    <g id="ytick_2">
     <g id="line2d_11">
      <g>
       <use xlink:href="#mdfbf1d9479" x="40.603125" y="156.475815" style="stroke: #000000; stroke-width: 0.8"/>
      </g>
     </g>
     <g id="text_12">
      <!-- 10 -->
      <g transform="translate(20.878125 160.275034) scale(0.1 -0.1)">
       <use xlink:href="#DejaVuSans-31"/>
       <use xlink:href="#DejaVuSans-30" x="63.623047"/>
      </g>
     </g>
    </g>
    <g id="ytick_3">
     <g id="line2d_12">
      <g>
       <use xlink:href="#mdfbf1d9479" x="40.603125" y="133.852258" style="stroke: #000000; stroke-width: 0.8"/>
      </g>
     </g>
     <g id="text_13">
      <!-- 20 -->
      <g transform="translate(20.878125 137.651477) scale(0.1 -0.1)">
       <use xlink:href="#DejaVuSans-32"/>
       <use xlink:href="#DejaVuSans-30" x="63.623047"/>
      </g>
     </g>
    </g>
    <g id="ytick_4">
     <g id="line2d_13">
      <g>
       <use xlink:href="#mdfbf1d9479" x="40.603125" y="111.228702" style="stroke: #000000; stroke-width: 0.8"/>
      </g>
     </g>
     <g id="text_14">
      <!-- 30 -->
      <g transform="translate(20.878125 115.027921) scale(0.1 -0.1)">
       <use xlink:href="#DejaVuSans-33"/>
       <use xlink:href="#DejaVuSans-30" x="63.623047"/>
      </g>
     </g>
    </g>
    <g id="ytick_5">
     <g id="line2d_14">
      <g>
       <use xlink:href="#mdfbf1d9479" x="40.603125" y="88.605145" style="stroke: #000000; stroke-width: 0.8"/>
      </g>
     </g>
     <g id="text_15">
      <!-- 40 -->
      <g transform="translate(20.878125 92.404364) scale(0.1 -0.1)">
       <use xlink:href="#DejaVuSans-34"/>
       <use xlink:href="#DejaVuSans-30" x="63.623047"/>
      </g>
     </g>
    </g>
    <g id="ytick_6">
     <g id="line2d_15">
      <g>
       <use xlink:href="#mdfbf1d9479" x="40.603125" y="65.981589" style="stroke: #000000; stroke-width: 0.8"/>
      </g>
     </g>
     <g id="text_16">
      <!-- 50 -->
      <g transform="translate(20.878125 69.780808) scale(0.1 -0.1)">
       <use xlink:href="#DejaVuSans-35"/>
       <use xlink:href="#DejaVuSans-30" x="63.623047"/>
      </g>
     </g>
    </g>
    <g id="ytick_7">
     <g id="line2d_16">
      <g>
       <use xlink:href="#mdfbf1d9479" x="40.603125" y="43.358033" style="stroke: #000000; stroke-width: 0.8"/>
      </g>
     </g>
     <g id="text_17">
      <!-- 60 -->
      <g transform="translate(20.878125 47.157251) scale(0.1 -0.1)">
       <use xlink:href="#DejaVuSans-36"/>
       <use xlink:href="#DejaVuSans-30" x="63.623047"/>
      </g>
     </g>
    </g>
    <g id="text_18">
     <!-- [counts] -->
     <g transform="translate(14.798438 125.054135) rotate(-90) scale(0.1 -0.1)">
      <defs>
       <path id="DejaVuSans-63" d="M 3122 3366 
L 3122 2828 
Q 2878 2963 2633 3030 
Q 2388 3097 2138 3097 
Q 1578 3097 1268 2742 
Q 959 2388 959 1747 
Q 959 1106 1268 751 
Q 1578 397 2138 397 
Q 2388 397 2633 464 
Q 2878 531 3122 666 
L 3122 134 
Q 2881 22 2623 -34 
Q 2366 -91 2075 -91 
Q 1284 -91 818 406 
Q 353 903 353 1747 
Q 353 2603 823 3093 
Q 1294 3584 2113 3584 
Q 2378 3584 2631 3529 
Q 2884 3475 3122 3366 
z
" transform="scale(0.015625)"/>
       <path id="DejaVuSans-75" d="M 544 1381 
L 544 3500 
L 1119 3500 
L 1119 1403 
Q 1119 906 1312 657 
Q 1506 409 1894 409 
Q 2359 409 2629 706 
Q 2900 1003 2900 1516 
L 2900 3500 
L 3475 3500 
L 3475 0 
L 2900 0 
L 2900 538 
Q 2691 219 2414 64 
Q 2138 -91 1772 -91 
Q 1169 -91 856 284 
Q 544 659 544 1381 
z
M 1991 3584 
L 1991 3584 
z
" transform="scale(0.015625)"/>
      </defs>
      <use xlink:href="#DejaVuSans-5b"/>
      <use xlink:href="#DejaVuSans-63" x="39.013672"/>
      <use xlink:href="#DejaVuSans-6f" x="93.994141"/>
      <use xlink:href="#DejaVuSans-75" x="155.175781"/>
      <use xlink:href="#DejaVuSans-6e" x="218.554688"/>
      <use xlink:href="#DejaVuSans-74" x="281.933594"/>
      <use xlink:href="#DejaVuSans-73" x="321.142578"/>
      <use xlink:href="#DejaVuSans-5d" x="373.242188"/>
     </g>
    </g>
   </g>
   <g id="line2d_17">
    <path d="M 53.28793 186.565145 
L 53.28793 22.318125 
" clip-path="url(#p72b29fc67b)" style="fill: none; stroke-dasharray: 7.4,3.2; stroke-dashoffset: 0; stroke: #ff00ff; stroke-width: 2"/>
   </g>
   <g id="patch_3">
    <path d="M 40.603125 186.565145 
L 40.603125 22.318125 
" style="fill: none; stroke: #000000; stroke-width: 0.8; stroke-linejoin: miter; stroke-linecap: square"/>
   </g>
   <g id="patch_4">
    <path d="M 319.668835 186.565145 
L 319.668835 22.318125 
" style="fill: none; stroke: #000000; stroke-width: 0.8; stroke-linejoin: miter; stroke-linecap: square"/>
   </g>
   <g id="patch_5">
    <path d="M 40.603125 186.565145 
L 319.668835 186.565145 
" style="fill: none; stroke: #000000; stroke-width: 0.8; stroke-linejoin: miter; stroke-linecap: square"/>
   </g>
   <g id="patch_6">
    <path d="M 40.603125 22.318125 
L 319.668835 22.318125 
" style="fill: none; stroke: #000000; stroke-width: 0.8; stroke-linejoin: miter; stroke-linecap: square"/>
   </g>
   <g id="text_19">
    <!-- pivot time -->
    <g style="fill: #ff00ff" transform="translate(60.886368 135.931946) rotate(-90) scale(0.1 -0.1)">
     <defs>
      <path id="DejaVuSans-70" d="M 1159 525 
L 1159 -1331 
L 581 -1331 
L 581 3500 
L 1159 3500 
L 1159 2969 
Q 1341 3281 1617 3432 
Q 1894 3584 2278 3584 
Q 2916 3584 3314 3078 
Q 3713 2572 3713 1747 
Q 3713 922 3314 415 
Q 2916 -91 2278 -91 
Q 1894 -91 1617 61 
Q 1341 213 1159 525 
z
M 3116 1747 
Q 3116 2381 2855 2742 
Q 2594 3103 2138 3103 
Q 1681 3103 1420 2742 
Q 1159 2381 1159 1747 
Q 1159 1113 1420 752 
Q 1681 391 2138 391 
Q 2594 391 2855 752 
Q 3116 1113 3116 1747 
z
" transform="scale(0.015625)"/>
     </defs>
     <use xlink:href="#DejaVuSans-70"/>
     <use xlink:href="#DejaVuSans-69" x="63.476562"/>
     <use xlink:href="#DejaVuSans-76" x="91.259766"/>
     <use xlink:href="#DejaVuSans-6f" x="150.439453"/>
     <use xlink:href="#DejaVuSans-74" x="211.621094"/>
     <use xlink:href="#DejaVuSans-20" x="250.830078"/>
     <use xlink:href="#DejaVuSans-74" x="282.617188"/>
     <use xlink:href="#DejaVuSans-69" x="321.826172"/>
     <use xlink:href="#DejaVuSans-6d" x="349.609375"/>
     <use xlink:href="#DejaVuSans-65" x="447.021484"/>
    </g>
   </g>
   <g id="text_20">
    <!-- beam=20.0 m -->
    <g transform="translate(136.975355 16.318125) scale(0.12 -0.12)">
     <defs>
      <path id="DejaVuSans-62" d="M 3116 1747 
Q 3116 2381 2855 2742 
Q 2594 3103 2138 3103 
Q 1681 3103 1420 2742 
Q 1159 2381 1159 1747 
Q 1159 1113 1420 752 
Q 1681 391 2138 391 
Q 2594 391 2855 752 
Q 3116 1113 3116 1747 
z
M 1159 2969 
Q 1341 3281 1617 3432 
Q 1894 3584 2278 3584 
Q 2916 3584 3314 3078 
Q 3713 2572 3713 1747 
Q 3713 922 3314 415 
Q 2916 -91 2278 -91 
Q 1894 -91 1617 61 
Q 1341 213 1159 525 
L 1159 0 
L 581 0 
L 581 4863 
L 1159 4863 
L 1159 2969 
z
" transform="scale(0.015625)"/>
      <path id="DejaVuSans-61" d="M 2194 1759 
Q 1497 1759 1228 1600 
Q 959 1441 959 1056 
Q 959 750 1161 570 
Q 1363 391 1709 391 
Q 2188 391 2477 730 
Q 2766 1069 2766 1631 
L 2766 1759 
L 2194 1759 
z
M 3341 1997 
L 3341 0 
L 2766 0 
L 2766 531 
Q 2569 213 2275 61 
Q 1981 -91 1556 -91 
Q 1019 -91 701 211 
Q 384 513 384 1019 
Q 384 1609 779 1909 
Q 1175 2209 1959 2209 
L 2766 2209 
L 2766 2266 
Q 2766 2663 2505 2880 
Q 2244 3097 1772 3097 
Q 1472 3097 1187 3025 
Q 903 2953 641 2809 
L 641 3341 
Q 956 3463 1253 3523 
Q 1550 3584 1831 3584 
Q 2591 3584 2966 3190 
Q 3341 2797 3341 1997 
z
" transform="scale(0.015625)"/>
      <path id="DejaVuSans-3d" d="M 678 2906 
L 4684 2906 
L 4684 2381 
L 678 2381 
L 678 2906 
z
M 678 1631 
L 4684 1631 
L 4684 1100 
L 678 1100 
L 678 1631 
z
" transform="scale(0.015625)"/>
      <path id="DejaVuSans-2e" d="M 684 794 
L 1344 794 
L 1344 0 
L 684 0 
L 684 794 
z
" transform="scale(0.015625)"/>
     </defs>
     <use xlink:href="#DejaVuSans-62"/>
     <use xlink:href="#DejaVuSans-65" x="63.476562"/>
     <use xlink:href="#DejaVuSans-61" x="125"/>
     <use xlink:href="#DejaVuSans-6d" x="186.279297"/>
     <use xlink:href="#DejaVuSans-3d" x="283.691406"/>
     <use xlink:href="#DejaVuSans-32" x="367.480469"/>
     <use xlink:href="#DejaVuSans-30" x="431.103516"/>
     <use xlink:href="#DejaVuSans-2e" x="494.726562"/>
     <use xlink:href="#DejaVuSans-30" x="526.513672"/>
     <use xlink:href="#DejaVuSans-20" x="590.136719"/>
     <use xlink:href="#DejaVuSans-6d" x="621.923828"/>
    </g>
   </g>
   <g id="line2d_18">
    <path d="M 53.28793 176.837016 
L 54.556411 176.837016 
L 54.556411 179.099371 
L 58.361852 179.099371 
L 58.361852 174.57466 
L 59.630333 174.57466 
L 59.630333 179.099371 
L 60.898813 179.099371 
L 60.898813 176.837016 
L 62.167294 176.837016 
L 62.167294 174.57466 
L 63.435774 174.57466 
L 63.435774 176.837016 
L 64.704255 176.837016 
L 64.704255 179.099371 
L 68.509696 179.099371 
L 68.509696 176.837016 
L 71.046657 176.837016 
L 71.046657 179.099371 
L 72.315138 179.099371 
L 72.315138 176.837016 
L 76.120579 176.837016 
L 76.120579 179.099371 
L 77.38906 179.099371 
L 77.38906 176.837016 
L 83.731462 176.837016 
L 83.731462 174.57466 
L 84.999943 174.57466 
L 84.999943 179.099371 
L 86.268423 179.099371 
L 86.268423 176.837016 
L 88.805384 176.837016 
L 88.805384 174.57466 
L 90.073865 174.57466 
L 90.073865 179.099371 
L 92.610826 179.099371 
L 92.610826 170.049949 
L 93.879306 170.049949 
L 93.879306 176.837016 
L 95.147787 176.837016 
L 95.147787 174.57466 
L 96.416267 174.57466 
L 96.416267 172.312304 
L 97.684748 172.312304 
L 97.684748 176.837016 
L 98.953228 176.837016 
L 98.953228 172.312304 
L 101.490189 172.312304 
L 101.490189 167.787593 
L 102.75867 167.787593 
L 102.75867 170.049949 
L 104.02715 170.049949 
L 104.02715 158.738171 
L 105.295631 158.738171 
L 105.295631 165.525237 
L 106.564111 165.525237 
L 106.564111 161.000526 
L 107.832592 161.000526 
L 107.832592 170.049949 
L 110.369553 170.049949 
L 110.369553 172.312304 
L 111.638033 172.312304 
L 111.638033 170.049949 
L 112.906514 170.049949 
L 112.906514 167.787593 
L 114.174994 167.787593 
L 114.174994 163.262882 
L 115.443475 163.262882 
L 115.443475 165.525237 
L 116.711955 165.525237 
L 116.711955 158.738171 
L 117.980436 158.738171 
L 117.980436 165.525237 
L 119.248916 165.525237 
L 119.248916 158.738171 
L 120.517397 158.738171 
L 120.517397 161.000526 
L 121.785877 161.000526 
L 121.785877 149.688748 
L 123.054358 149.688748 
L 123.054358 170.049949 
L 124.322838 170.049949 
L 124.322838 145.164037 
L 125.591319 145.164037 
L 125.591319 149.688748 
L 126.859799 149.688748 
L 126.859799 131.589903 
L 128.12828 131.589903 
L 128.12828 151.951104 
L 129.39676 151.951104 
L 129.39676 138.37697 
L 130.665241 138.37697 
L 130.665241 127.065191 
L 131.933721 127.065191 
L 131.933721 97.654568 
L 133.202202 97.654568 
L 133.202202 124.802836 
L 137.007643 124.802836 
L 137.007643 108.966346 
L 138.276124 108.966346 
L 138.276124 118.015769 
L 139.544604 118.015769 
L 139.544604 84.080434 
L 140.813085 84.080434 
L 140.813085 104.441635 
L 142.081565 104.441635 
L 142.081565 99.916924 
L 143.350046 99.916924 
L 143.350046 102.179279 
L 144.618526 102.179279 
L 144.618526 108.966346 
L 145.887007 108.966346 
L 145.887007 111.228702 
L 147.155487 111.228702 
L 147.155487 102.179279 
L 148.423968 102.179279 
L 148.423968 61.456878 
L 149.692448 61.456878 
L 149.692448 106.703991 
L 150.960929 106.703991 
L 150.960929 77.293367 
L 152.229409 77.293367 
L 152.229409 95.392212 
L 153.49789 95.392212 
L 153.49789 86.34279 
L 154.76637 86.34279 
L 154.76637 90.867501 
L 156.034851 90.867501 
L 156.034851 88.605145 
L 157.303331 88.605145 
L 157.303331 77.293367 
L 158.571812 77.293367 
L 158.571812 75.031012 
L 159.840292 75.031012 
L 159.840292 63.719233 
L 161.108773 63.719233 
L 161.108773 84.080434 
L 162.377253 84.080434 
L 162.377253 86.34279 
L 163.645734 86.34279 
L 163.645734 52.407455 
L 164.914214 52.407455 
L 164.914214 79.555723 
L 166.182695 79.555723 
L 166.182695 41.095677 
L 171.256617 41.095677 
L 171.256617 52.407455 
L 172.525097 52.407455 
L 172.525097 29.783899 
L 173.793578 29.783899 
L 173.793578 59.194522 
L 175.062058 59.194522 
L 175.062058 63.719233 
L 176.330539 63.719233 
L 176.330539 84.080434 
L 177.599019 84.080434 
L 177.599019 32.046254 
L 178.8675 32.046254 
L 178.8675 61.456878 
L 180.13598 61.456878 
L 180.13598 68.243945 
L 181.404461 68.243945 
L 181.404461 59.194522 
L 182.672941 59.194522 
L 182.672941 65.981589 
L 183.941422 65.981589 
L 183.941422 72.768656 
L 185.209902 72.768656 
L 185.209902 61.456878 
L 186.478383 61.456878 
L 186.478383 68.243945 
L 187.746863 68.243945 
L 187.746863 50.145099 
L 189.015344 50.145099 
L 189.015344 86.34279 
L 190.283824 86.34279 
L 190.283824 90.867501 
L 191.552305 90.867501 
L 191.552305 97.654568 
L 192.820785 97.654568 
L 192.820785 52.407455 
L 194.089266 52.407455 
L 194.089266 104.441635 
L 195.357746 104.441635 
L 195.357746 65.981589 
L 196.626227 65.981589 
L 196.626227 54.669811 
L 197.894707 54.669811 
L 197.894707 70.5063 
L 199.163188 70.5063 
L 199.163188 63.719233 
L 200.431668 63.719233 
L 200.431668 68.243945 
L 201.700149 68.243945 
L 201.700149 79.555723 
L 202.968629 79.555723 
L 202.968629 84.080434 
L 204.23711 84.080434 
L 204.23711 75.031012 
L 205.50559 75.031012 
L 205.50559 79.555723 
L 206.774071 79.555723 
L 206.774071 50.145099 
L 208.042551 50.145099 
L 208.042551 88.605145 
L 209.311032 88.605145 
L 209.311032 95.392212 
L 210.579512 95.392212 
L 210.579512 90.867501 
L 211.847993 90.867501 
L 211.847993 79.555723 
L 213.116473 79.555723 
L 213.116473 75.031012 
L 214.384954 75.031012 
L 214.384954 84.080434 
L 215.653434 84.080434 
L 215.653434 75.031012 
L 216.921915 75.031012 
L 216.921915 90.867501 
L 218.190395 90.867501 
L 218.190395 63.719233 
L 219.458876 63.719233 
L 219.458876 86.34279 
L 220.727356 86.34279 
L 220.727356 106.703991 
L 221.995837 106.703991 
L 221.995837 127.065191 
L 223.264317 127.065191 
L 223.264317 99.916924 
L 224.532798 99.916924 
L 224.532798 95.392212 
L 225.801278 95.392212 
L 225.801278 108.966346 
L 227.069759 108.966346 
L 227.069759 93.129857 
L 228.338239 93.129857 
L 228.338239 77.293367 
L 229.60672 77.293367 
L 229.60672 97.654568 
L 230.8752 97.654568 
L 230.8752 88.605145 
L 232.143681 88.605145 
L 232.143681 95.392212 
L 233.412161 95.392212 
L 233.412161 102.179279 
L 234.680642 102.179279 
L 234.680642 122.54048 
L 235.949122 122.54048 
L 235.949122 95.392212 
L 237.217603 95.392212 
L 237.217603 90.867501 
L 238.486083 90.867501 
L 238.486083 75.031012 
L 239.754564 75.031012 
L 239.754564 102.179279 
L 241.023044 102.179279 
L 241.023044 72.768656 
L 242.291525 72.768656 
L 242.291525 104.441635 
L 243.560005 104.441635 
L 243.560005 99.916924 
L 244.828486 99.916924 
L 244.828486 93.129857 
L 246.096966 93.129857 
L 246.096966 120.278125 
L 247.365447 120.278125 
L 247.365447 90.867501 
L 248.633927 90.867501 
L 248.633927 122.54048 
L 249.902408 122.54048 
L 249.902408 88.605145 
L 251.170888 88.605145 
L 251.170888 124.802836 
L 252.439369 124.802836 
L 252.439369 81.818079 
L 253.707849 81.818079 
L 253.707849 113.491058 
L 254.97633 113.491058 
L 254.97633 97.654568 
L 256.24481 97.654568 
L 256.24481 131.589903 
L 257.513291 131.589903 
L 257.513291 108.966346 
L 258.781771 108.966346 
L 258.781771 138.37697 
L 260.050252 138.37697 
L 260.050252 133.852258 
L 262.587213 133.852258 
L 262.587213 129.327547 
L 263.855693 129.327547 
L 263.855693 133.852258 
L 265.124174 133.852258 
L 265.124174 136.114614 
L 266.392654 136.114614 
L 266.392654 129.327547 
L 267.661135 129.327547 
L 267.661135 136.114614 
L 268.929615 136.114614 
L 268.929615 127.065191 
L 270.198096 127.065191 
L 270.198096 142.901681 
L 271.466576 142.901681 
L 271.466576 131.589903 
L 272.735057 131.589903 
L 272.735057 151.951104 
L 274.003537 151.951104 
L 274.003537 156.475815 
L 275.272018 156.475815 
L 275.272018 131.589903 
L 276.540498 131.589903 
L 276.540498 151.951104 
L 279.077459 151.951104 
L 279.077459 140.639325 
L 280.34594 140.639325 
L 280.34594 154.213459 
L 282.882901 154.213459 
L 282.882901 156.475815 
L 284.151381 156.475815 
L 284.151381 147.426392 
L 285.419862 147.426392 
L 285.419862 167.787593 
L 286.688342 167.787593 
L 286.688342 165.525237 
L 287.956823 165.525237 
L 287.956823 174.57466 
L 289.225303 174.57466 
L 289.225303 165.525237 
L 290.493784 165.525237 
L 290.493784 163.262882 
L 293.030745 163.262882 
L 293.030745 174.57466 
L 294.299225 174.57466 
L 294.299225 176.837016 
L 295.567706 176.837016 
L 295.567706 165.525237 
L 296.836186 165.525237 
L 296.836186 167.787593 
L 298.104667 167.787593 
L 298.104667 174.57466 
L 299.373147 174.57466 
L 299.373147 179.099371 
L 300.641628 179.099371 
L 300.641628 174.57466 
L 301.910108 174.57466 
L 301.910108 179.099371 
L 303.178589 179.099371 
L 303.178589 176.837016 
L 306.98403 176.837016 
L 306.98403 176.837016 
" clip-path="url(#p72b29fc67b)" style="fill: none; stroke: #1f77b4; stroke-width: 1.5; stroke-linecap: square"/>
   </g>
  </g>
  <g id="axes_2">
   <g id="patch_7">
    <path d="M 359.55196 186.565145 
L 638.61767 186.565145 
L 638.61767 22.318125 
L 359.55196 22.318125 
z
" style="fill: #ffffff"/>
   </g>
   <g id="matplotlib.axis_3">
    <g id="xtick_10">
     <g id="line2d_19">
      <g>
       <use xlink:href="#mca57f49b4a" x="370.603993" y="186.565145" style="stroke: #000000; stroke-width: 0.8"/>
      </g>
     </g>
     <g id="text_21">
      <!-- 25000 -->
      <g transform="translate(354.697743 201.163582) scale(0.1 -0.1)">
       <use xlink:href="#DejaVuSans-32"/>
       <use xlink:href="#DejaVuSans-35" x="63.623047"/>
       <use xlink:href="#DejaVuSans-30" x="127.246094"/>
       <use xlink:href="#DejaVuSans-30" x="190.869141"/>
       <use xlink:href="#DejaVuSans-30" x="254.492188"/>
      </g>
     </g>
    </g>
    <g id="xtick_11">
     <g id="line2d_20">
      <g>
       <use xlink:href="#mca57f49b4a" x="408.12972" y="186.565145" style="stroke: #000000; stroke-width: 0.8"/>
      </g>
     </g>
     <g id="text_22">
      <!-- 30000 -->
      <g transform="translate(392.22347 201.163582) scale(0.1 -0.1)">
       <use xlink:href="#DejaVuSans-33"/>
       <use xlink:href="#DejaVuSans-30" x="63.623047"/>
       <use xlink:href="#DejaVuSans-30" x="127.246094"/>
       <use xlink:href="#DejaVuSans-30" x="190.869141"/>
       <use xlink:href="#DejaVuSans-30" x="254.492188"/>
      </g>
     </g>
    </g>
    <g id="xtick_12">
     <g id="line2d_21">
      <g>
       <use xlink:href="#mca57f49b4a" x="445.655447" y="186.565145" style="stroke: #000000; stroke-width: 0.8"/>
      </g>
     </g>
     <g id="text_23">
      <!-- 35000 -->
      <g transform="translate(429.749197 201.163582) scale(0.1 -0.1)">
       <use xlink:href="#DejaVuSans-33"/>
       <use xlink:href="#DejaVuSans-35" x="63.623047"/>
       <use xlink:href="#DejaVuSans-30" x="127.246094"/>
       <use xlink:href="#DejaVuSans-30" x="190.869141"/>
       <use xlink:href="#DejaVuSans-30" x="254.492188"/>
      </g>
     </g>
    </g>
    <g id="xtick_13">
     <g id="line2d_22">
      <g>
       <use xlink:href="#mca57f49b4a" x="483.181174" y="186.565145" style="stroke: #000000; stroke-width: 0.8"/>
      </g>
     </g>
     <g id="text_24">
      <!-- 40000 -->
      <g transform="translate(467.274924 201.163582) scale(0.1 -0.1)">
       <use xlink:href="#DejaVuSans-34"/>
       <use xlink:href="#DejaVuSans-30" x="63.623047"/>
       <use xlink:href="#DejaVuSans-30" x="127.246094"/>
       <use xlink:href="#DejaVuSans-30" x="190.869141"/>
       <use xlink:href="#DejaVuSans-30" x="254.492188"/>
      </g>
     </g>
    </g>
    <g id="xtick_14">
     <g id="line2d_23">
      <g>
       <use xlink:href="#mca57f49b4a" x="520.7069" y="186.565145" style="stroke: #000000; stroke-width: 0.8"/>
      </g>
     </g>
     <g id="text_25">
      <!-- 45000 -->
      <g transform="translate(504.80065 201.163582) scale(0.1 -0.1)">
       <use xlink:href="#DejaVuSans-34"/>
       <use xlink:href="#DejaVuSans-35" x="63.623047"/>
       <use xlink:href="#DejaVuSans-30" x="127.246094"/>
       <use xlink:href="#DejaVuSans-30" x="190.869141"/>
       <use xlink:href="#DejaVuSans-30" x="254.492188"/>
      </g>
     </g>
    </g>
    <g id="xtick_15">
     <g id="line2d_24">
      <g>
       <use xlink:href="#mca57f49b4a" x="558.232627" y="186.565145" style="stroke: #000000; stroke-width: 0.8"/>
      </g>
     </g>
     <g id="text_26">
      <!-- 50000 -->
      <g transform="translate(542.326377 201.163582) scale(0.1 -0.1)">
       <use xlink:href="#DejaVuSans-35"/>
       <use xlink:href="#DejaVuSans-30" x="63.623047"/>
       <use xlink:href="#DejaVuSans-30" x="127.246094"/>
       <use xlink:href="#DejaVuSans-30" x="190.869141"/>
       <use xlink:href="#DejaVuSans-30" x="254.492188"/>
      </g>
     </g>
    </g>
    <g id="xtick_16">
     <g id="line2d_25">
      <g>
       <use xlink:href="#mca57f49b4a" x="595.758354" y="186.565145" style="stroke: #000000; stroke-width: 0.8"/>
      </g>
     </g>
     <g id="text_27">
      <!-- 55000 -->
      <g transform="translate(579.852104 201.163582) scale(0.1 -0.1)">
       <use xlink:href="#DejaVuSans-35"/>
       <use xlink:href="#DejaVuSans-35" x="63.623047"/>
       <use xlink:href="#DejaVuSans-30" x="127.246094"/>
       <use xlink:href="#DejaVuSans-30" x="190.869141"/>
       <use xlink:href="#DejaVuSans-30" x="254.492188"/>
      </g>
     </g>
    </g>
    <g id="xtick_17">
     <g id="line2d_26">
      <g>
       <use xlink:href="#mca57f49b4a" x="633.284081" y="186.565145" style="stroke: #000000; stroke-width: 0.8"/>
      </g>
     </g>
     <g id="text_28">
      <!-- 60000 -->
      <g transform="translate(617.377831 201.163582) scale(0.1 -0.1)">
       <use xlink:href="#DejaVuSans-36"/>
       <use xlink:href="#DejaVuSans-30" x="63.623047"/>
       <use xlink:href="#DejaVuSans-30" x="127.246094"/>
       <use xlink:href="#DejaVuSans-30" x="190.869141"/>
       <use xlink:href="#DejaVuSans-30" x="254.492188"/>
      </g>
     </g>
    </g>
    <g id="text_29">
     <!-- event_time_offset [µs] -->
     <g transform="translate(443.049659 214.841707) scale(0.1 -0.1)">
      <use xlink:href="#DejaVuSans-65"/>
      <use xlink:href="#DejaVuSans-76" x="61.523438"/>
      <use xlink:href="#DejaVuSans-65" x="120.703125"/>
      <use xlink:href="#DejaVuSans-6e" x="182.226562"/>
      <use xlink:href="#DejaVuSans-74" x="245.605469"/>
      <use xlink:href="#DejaVuSans-5f" x="284.814453"/>
      <use xlink:href="#DejaVuSans-74" x="334.814453"/>
      <use xlink:href="#DejaVuSans-69" x="374.023438"/>
      <use xlink:href="#DejaVuSans-6d" x="401.806641"/>
      <use xlink:href="#DejaVuSans-65" x="499.21875"/>
      <use xlink:href="#DejaVuSans-5f" x="560.742188"/>
      <use xlink:href="#DejaVuSans-6f" x="610.742188"/>
      <use xlink:href="#DejaVuSans-66" x="671.923828"/>
      <use xlink:href="#DejaVuSans-66" x="707.128906"/>
      <use xlink:href="#DejaVuSans-73" x="742.333984"/>
      <use xlink:href="#DejaVuSans-65" x="794.433594"/>
      <use xlink:href="#DejaVuSans-74" x="855.957031"/>
      <use xlink:href="#DejaVuSans-20" x="895.166016"/>
      <use xlink:href="#DejaVuSans-5b" x="926.953125"/>
      <use xlink:href="#DejaVuSans-b5" x="965.966797"/>
      <use xlink:href="#DejaVuSans-73" x="1029.589844"/>
      <use xlink:href="#DejaVuSans-5d" x="1081.689453"/>
     </g>
    </g>
   </g>
   <g id="matplotlib.axis_4">
    <g id="ytick_8">
     <g id="line2d_27">
      <g>
       <use xlink:href="#mdfbf1d9479" x="359.55196" y="179.099371" style="stroke: #000000; stroke-width: 0.8"/>
      </g>
     </g>
     <g id="text_30">
      <!-- 0 -->
      <g transform="translate(346.18946 182.89859) scale(0.1 -0.1)">
       <use xlink:href="#DejaVuSans-30"/>
      </g>
     </g>
    </g>
    <g id="ytick_9">
     <g id="line2d_28">
      <g>
       <use xlink:href="#mdfbf1d9479" x="359.55196" y="155.398503" style="stroke: #000000; stroke-width: 0.8"/>
      </g>
     </g>
     <g id="text_31">
      <!-- 10 -->
      <g transform="translate(339.82696 159.197721) scale(0.1 -0.1)">
       <use xlink:href="#DejaVuSans-31"/>
       <use xlink:href="#DejaVuSans-30" x="63.623047"/>
      </g>
     </g>
    </g>
    <g id="ytick_10">
     <g id="line2d_29">
      <g>
       <use xlink:href="#mdfbf1d9479" x="359.55196" y="131.697634" style="stroke: #000000; stroke-width: 0.8"/>
      </g>
     </g>
     <g id="text_32">
      <!-- 20 -->
      <g transform="translate(339.82696 135.496853) scale(0.1 -0.1)">
       <use xlink:href="#DejaVuSans-32"/>
       <use xlink:href="#DejaVuSans-30" x="63.623047"/>
      </g>
     </g>
    </g>
    <g id="ytick_11">
     <g id="line2d_30">
      <g>
       <use xlink:href="#mdfbf1d9479" x="359.55196" y="107.996765" style="stroke: #000000; stroke-width: 0.8"/>
      </g>
     </g>
     <g id="text_33">
      <!-- 30 -->
      <g transform="translate(339.82696 111.795984) scale(0.1 -0.1)">
       <use xlink:href="#DejaVuSans-33"/>
       <use xlink:href="#DejaVuSans-30" x="63.623047"/>
      </g>
     </g>
    </g>
    <g id="ytick_12">
     <g id="line2d_31">
      <g>
       <use xlink:href="#mdfbf1d9479" x="359.55196" y="84.295897" style="stroke: #000000; stroke-width: 0.8"/>
      </g>
     </g>
     <g id="text_34">
      <!-- 40 -->
      <g transform="translate(339.82696 88.095115) scale(0.1 -0.1)">
       <use xlink:href="#DejaVuSans-34"/>
       <use xlink:href="#DejaVuSans-30" x="63.623047"/>
      </g>
     </g>
    </g>
    <g id="ytick_13">
     <g id="line2d_32">
      <g>
       <use xlink:href="#mdfbf1d9479" x="359.55196" y="60.595028" style="stroke: #000000; stroke-width: 0.8"/>
      </g>
     </g>
     <g id="text_35">
      <!-- 50 -->
      <g transform="translate(339.82696 64.394247) scale(0.1 -0.1)">
       <use xlink:href="#DejaVuSans-35"/>
       <use xlink:href="#DejaVuSans-30" x="63.623047"/>
      </g>
     </g>
    </g>
    <g id="ytick_14">
     <g id="line2d_33">
      <g>
       <use xlink:href="#mdfbf1d9479" x="359.55196" y="36.894159" style="stroke: #000000; stroke-width: 0.8"/>
      </g>
     </g>
     <g id="text_36">
      <!-- 60 -->
      <g transform="translate(339.82696 40.693378) scale(0.1 -0.1)">
       <use xlink:href="#DejaVuSans-36"/>
       <use xlink:href="#DejaVuSans-30" x="63.623047"/>
      </g>
     </g>
    </g>
    <g id="text_37">
     <!-- [counts] -->
     <g transform="translate(333.747273 125.054135) rotate(-90) scale(0.1 -0.1)">
      <use xlink:href="#DejaVuSans-5b"/>
      <use xlink:href="#DejaVuSans-63" x="39.013672"/>
      <use xlink:href="#DejaVuSans-6f" x="93.994141"/>
      <use xlink:href="#DejaVuSans-75" x="155.175781"/>
      <use xlink:href="#DejaVuSans-6e" x="218.554688"/>
      <use xlink:href="#DejaVuSans-74" x="281.933594"/>
      <use xlink:href="#DejaVuSans-73" x="321.142578"/>
      <use xlink:href="#DejaVuSans-5d" x="373.242188"/>
     </g>
    </g>
   </g>
   <g id="line2d_34">
    <path d="M 372.236765 186.565145 
L 372.236765 22.318125 
" clip-path="url(#pcdc095bb37)" style="fill: none; stroke-dasharray: 7.4,3.2; stroke-dashoffset: 0; stroke: #ff00ff; stroke-width: 2"/>
   </g>
   <g id="patch_8">
    <path d="M 359.55196 186.565145 
L 359.55196 22.318125 
" style="fill: none; stroke: #000000; stroke-width: 0.8; stroke-linejoin: miter; stroke-linecap: square"/>
   </g>
   <g id="patch_9">
    <path d="M 638.61767 186.565145 
L 638.61767 22.318125 
" style="fill: none; stroke: #000000; stroke-width: 0.8; stroke-linejoin: miter; stroke-linecap: square"/>
   </g>
   <g id="patch_10">
    <path d="M 359.55196 186.565145 
L 638.61767 186.565145 
" style="fill: none; stroke: #000000; stroke-width: 0.8; stroke-linejoin: miter; stroke-linecap: square"/>
   </g>
   <g id="patch_11">
    <path d="M 359.55196 22.318125 
L 638.61767 22.318125 
" style="fill: none; stroke: #000000; stroke-width: 0.8; stroke-linejoin: miter; stroke-linecap: square"/>
   </g>
   <g id="text_38">
    <!-- pivot time -->
    <g style="fill: #ff00ff" transform="translate(379.835203 133.777321) rotate(-90) scale(0.1 -0.1)">
     <use xlink:href="#DejaVuSans-70"/>
     <use xlink:href="#DejaVuSans-69" x="63.476562"/>
     <use xlink:href="#DejaVuSans-76" x="91.259766"/>
     <use xlink:href="#DejaVuSans-6f" x="150.439453"/>
     <use xlink:href="#DejaVuSans-74" x="211.621094"/>
     <use xlink:href="#DejaVuSans-20" x="250.830078"/>
     <use xlink:href="#DejaVuSans-74" x="282.617188"/>
     <use xlink:href="#DejaVuSans-69" x="321.826172"/>
     <use xlink:href="#DejaVuSans-6d" x="349.609375"/>
     <use xlink:href="#DejaVuSans-65" x="447.021484"/>
    </g>
   </g>
   <g id="text_39">
    <!-- sample=60.0 m -->
    <g transform="translate(451.13169 16.318125) scale(0.12 -0.12)">
     <defs>
      <path id="DejaVuSans-6c" d="M 603 4863 
L 1178 4863 
L 1178 0 
L 603 0 
L 603 4863 
z
" transform="scale(0.015625)"/>
     </defs>
     <use xlink:href="#DejaVuSans-73"/>
     <use xlink:href="#DejaVuSans-61" x="52.099609"/>
     <use xlink:href="#DejaVuSans-6d" x="113.378906"/>
     <use xlink:href="#DejaVuSans-70" x="210.791016"/>
     <use xlink:href="#DejaVuSans-6c" x="274.267578"/>
     <use xlink:href="#DejaVuSans-65" x="302.050781"/>
     <use xlink:href="#DejaVuSans-3d" x="363.574219"/>
     <use xlink:href="#DejaVuSans-36" x="447.363281"/>
     <use xlink:href="#DejaVuSans-30" x="510.986328"/>
     <use xlink:href="#DejaVuSans-2e" x="574.609375"/>
     <use xlink:href="#DejaVuSans-30" x="606.396484"/>
     <use xlink:href="#DejaVuSans-20" x="670.019531"/>
     <use xlink:href="#DejaVuSans-6d" x="701.806641"/>
    </g>
   </g>
   <g id="line2d_35">
    <path d="M 372.236765 174.359198 
L 373.505246 174.359198 
L 373.505246 176.729284 
L 376.042207 176.729284 
L 376.042207 179.099371 
L 378.579168 179.099371 
L 378.579168 176.729284 
L 379.847648 176.729284 
L 379.847648 179.099371 
L 381.116129 179.099371 
L 381.116129 176.729284 
L 382.384609 176.729284 
L 382.384609 179.099371 
L 384.92157 179.099371 
L 384.92157 176.729284 
L 386.190051 176.729284 
L 386.190051 179.099371 
L 391.263973 179.099371 
L 391.263973 174.359198 
L 392.532453 174.359198 
L 392.532453 179.099371 
L 393.800934 179.099371 
L 393.800934 171.989111 
L 395.069414 171.989111 
L 395.069414 179.099371 
L 396.337895 179.099371 
L 396.337895 176.729284 
L 397.606375 176.729284 
L 397.606375 179.099371 
L 398.874856 179.099371 
L 398.874856 176.729284 
L 400.143336 176.729284 
L 400.143336 169.619024 
L 401.411817 169.619024 
L 401.411817 179.099371 
L 402.680297 179.099371 
L 402.680297 176.729284 
L 403.948778 176.729284 
L 403.948778 179.099371 
L 405.217258 179.099371 
L 405.217258 176.729284 
L 406.485739 176.729284 
L 406.485739 171.989111 
L 407.754219 171.989111 
L 407.754219 176.729284 
L 410.29118 176.729284 
L 410.29118 179.099371 
L 412.828141 179.099371 
L 412.828141 174.359198 
L 414.096622 174.359198 
L 414.096622 176.729284 
L 415.365102 176.729284 
L 415.365102 169.619024 
L 417.902063 169.619024 
L 417.902063 174.359198 
L 420.439024 174.359198 
L 420.439024 169.619024 
L 421.707505 169.619024 
L 421.707505 171.989111 
L 422.975985 171.989111 
L 422.975985 169.619024 
L 425.512946 169.619024 
L 425.512946 164.87885 
L 426.781427 164.87885 
L 426.781427 157.76859 
L 428.049907 157.76859 
L 428.049907 167.248937 
L 429.318388 167.248937 
L 429.318388 162.508763 
L 430.586868 162.508763 
L 430.586868 174.359198 
L 431.855349 174.359198 
L 431.855349 164.87885 
L 433.123829 164.87885 
L 433.123829 171.989111 
L 434.39231 171.989111 
L 434.39231 160.138676 
L 435.66079 160.138676 
L 435.66079 164.87885 
L 436.929271 164.87885 
L 436.929271 169.619024 
L 438.197751 169.619024 
L 438.197751 160.138676 
L 439.466232 160.138676 
L 439.466232 145.918155 
L 440.734712 145.918155 
L 440.734712 157.76859 
L 442.003193 157.76859 
L 442.003193 153.028416 
L 443.271673 153.028416 
L 443.271673 155.398503 
L 444.540154 155.398503 
L 444.540154 150.658329 
L 445.808634 150.658329 
L 445.808634 162.508763 
L 447.077115 162.508763 
L 447.077115 148.288242 
L 448.345595 148.288242 
L 448.345595 131.697634 
L 449.614076 131.697634 
L 449.614076 153.028416 
L 450.882556 153.028416 
L 450.882556 129.327547 
L 452.151037 129.327547 
L 452.151037 112.736939 
L 453.419517 112.736939 
L 453.419517 138.807895 
L 454.687998 138.807895 
L 454.687998 107.996765 
L 455.956478 107.996765 
L 455.956478 122.217287 
L 457.224959 122.217287 
L 457.224959 86.665983 
L 458.493439 86.665983 
L 458.493439 126.95746 
L 459.76192 126.95746 
L 459.76192 122.217287 
L 461.0304 122.217287 
L 461.0304 81.92581 
L 462.298881 81.92581 
L 462.298881 100.886505 
L 463.567361 100.886505 
L 463.567361 93.776244 
L 464.835842 93.776244 
L 464.835842 86.665983 
L 466.104322 86.665983 
L 466.104322 91.406157 
L 467.372803 91.406157 
L 467.372803 93.776244 
L 468.641283 93.776244 
L 468.641283 89.03607 
L 469.909764 89.03607 
L 469.909764 93.776244 
L 471.178244 93.776244 
L 471.178244 72.445462 
L 472.446725 72.445462 
L 472.446725 81.92581 
L 473.715205 81.92581 
L 473.715205 79.555723 
L 474.983686 79.555723 
L 474.983686 46.374507 
L 476.252166 46.374507 
L 476.252166 55.854854 
L 477.520647 55.854854 
L 477.520647 77.185636 
L 478.789127 77.185636 
L 478.789127 51.11468 
L 480.057608 51.11468 
L 480.057608 84.295897 
L 481.326088 84.295897 
L 481.326088 62.965115 
L 482.594569 62.965115 
L 482.594569 44.00442 
L 483.863049 44.00442 
L 483.863049 51.11468 
L 485.13153 51.11468 
L 485.13153 55.854854 
L 486.40001 55.854854 
L 486.40001 60.595028 
L 487.668491 60.595028 
L 487.668491 41.634333 
L 488.936971 41.634333 
L 488.936971 48.744594 
L 490.205452 48.744594 
L 490.205452 58.224941 
L 491.473932 58.224941 
L 491.473932 29.783899 
L 492.742413 29.783899 
L 492.742413 67.705289 
L 494.010893 67.705289 
L 494.010893 29.783899 
L 495.279374 29.783899 
L 495.279374 70.075375 
L 496.547854 70.075375 
L 496.547854 51.11468 
L 499.084815 51.11468 
L 499.084815 55.854854 
L 500.353296 55.854854 
L 500.353296 65.335202 
L 501.621776 65.335202 
L 501.621776 48.744594 
L 502.890257 48.744594 
L 502.890257 70.075375 
L 504.158737 70.075375 
L 504.158737 58.224941 
L 505.427218 58.224941 
L 505.427218 86.665983 
L 506.695698 86.665983 
L 506.695698 100.886505 
L 507.964179 100.886505 
L 507.964179 81.92581 
L 509.232659 81.92581 
L 509.232659 62.965115 
L 510.50114 62.965115 
L 510.50114 81.92581 
L 511.76962 81.92581 
L 511.76962 53.484767 
L 513.038101 53.484767 
L 513.038101 55.854854 
L 514.306581 55.854854 
L 514.306581 72.445462 
L 515.575062 72.445462 
L 515.575062 62.965115 
L 516.843542 62.965115 
L 516.843542 91.406157 
L 518.112023 91.406157 
L 518.112023 98.516418 
L 519.380503 98.516418 
L 519.380503 55.854854 
L 520.648984 55.854854 
L 520.648984 74.815549 
L 521.917464 74.815549 
L 521.917464 84.295897 
L 523.185945 84.295897 
L 523.185945 58.224941 
L 524.454425 58.224941 
L 524.454425 115.107026 
L 525.722906 115.107026 
L 525.722906 70.075375 
L 526.991386 70.075375 
L 526.991386 72.445462 
L 528.259867 72.445462 
L 528.259867 34.524072 
L 529.528347 34.524072 
L 529.528347 74.815549 
L 530.796828 74.815549 
L 530.796828 93.776244 
L 532.065308 93.776244 
L 532.065308 89.03607 
L 533.333789 89.03607 
L 533.333789 60.595028 
L 534.602269 60.595028 
L 534.602269 89.03607 
L 535.87075 89.03607 
L 535.87075 93.776244 
L 537.13923 93.776244 
L 537.13923 72.445462 
L 538.407711 72.445462 
L 538.407711 117.477113 
L 539.676191 117.477113 
L 539.676191 77.185636 
L 540.944672 77.185636 
L 540.944672 86.665983 
L 542.213152 86.665983 
L 542.213152 79.555723 
L 543.481633 79.555723 
L 543.481633 98.516418 
L 544.750113 98.516418 
L 544.750113 93.776244 
L 546.018594 93.776244 
L 546.018594 89.03607 
L 547.287074 89.03607 
L 547.287074 86.665983 
L 548.555555 86.665983 
L 548.555555 117.477113 
L 549.824035 117.477113 
L 549.824035 84.295897 
L 551.092516 84.295897 
L 551.092516 98.516418 
L 552.360996 98.516418 
L 552.360996 93.776244 
L 553.629477 93.776244 
L 553.629477 84.295897 
L 554.897957 84.295897 
L 554.897957 119.8472 
L 556.166438 119.8472 
L 556.166438 86.665983 
L 557.434918 86.665983 
L 557.434918 103.256592 
L 558.703399 103.256592 
L 558.703399 74.815549 
L 559.971879 74.815549 
L 559.971879 100.886505 
L 561.24036 100.886505 
L 561.24036 96.146331 
L 562.50884 96.146331 
L 562.50884 74.815549 
L 563.777321 74.815549 
L 563.777321 112.736939 
L 565.045801 112.736939 
L 565.045801 100.886505 
L 566.314282 100.886505 
L 566.314282 98.516418 
L 567.582762 98.516418 
L 567.582762 86.665983 
L 568.851243 86.665983 
L 568.851243 98.516418 
L 570.119723 98.516418 
L 570.119723 117.477113 
L 571.388204 117.477113 
L 571.388204 93.776244 
L 572.656684 93.776244 
L 572.656684 91.406157 
L 573.925165 91.406157 
L 573.925165 117.477113 
L 576.462126 117.477113 
L 576.462126 105.626678 
L 577.730606 105.626678 
L 577.730606 100.886505 
L 578.999087 100.886505 
L 578.999087 112.736939 
L 580.267567 112.736939 
L 580.267567 96.146331 
L 581.536048 96.146331 
L 581.536048 136.437808 
L 582.804528 136.437808 
L 582.804528 117.477113 
L 584.073009 117.477113 
L 584.073009 129.327547 
L 585.341489 129.327547 
L 585.341489 122.217287 
L 586.60997 122.217287 
L 586.60997 134.067721 
L 587.87845 134.067721 
L 587.87845 124.587373 
L 589.146931 124.587373 
L 589.146931 129.327547 
L 590.415411 129.327547 
L 590.415411 112.736939 
L 591.683892 112.736939 
L 591.683892 136.437808 
L 592.952372 136.437808 
L 592.952372 141.177981 
L 594.220853 141.177981 
L 594.220853 145.918155 
L 595.489333 145.918155 
L 595.489333 143.548068 
L 596.757814 143.548068 
L 596.757814 136.437808 
L 598.026294 136.437808 
L 598.026294 138.807895 
L 600.563255 138.807895 
L 600.563255 143.548068 
L 601.831736 143.548068 
L 601.831736 160.138676 
L 603.100216 160.138676 
L 603.100216 141.177981 
L 604.368697 141.177981 
L 604.368697 155.398503 
L 605.637177 155.398503 
L 605.637177 160.138676 
L 606.905658 160.138676 
L 606.905658 153.028416 
L 608.174138 153.028416 
L 608.174138 162.508763 
L 609.442619 162.508763 
L 609.442619 169.619024 
L 610.711099 169.619024 
L 610.711099 162.508763 
L 611.97958 162.508763 
L 611.97958 157.76859 
L 613.24806 157.76859 
L 613.24806 176.729284 
L 614.516541 176.729284 
L 614.516541 169.619024 
L 615.785021 169.619024 
L 615.785021 160.138676 
L 617.053502 160.138676 
L 617.053502 174.359198 
L 618.321982 174.359198 
L 618.321982 171.989111 
L 619.590463 171.989111 
L 619.590463 179.099371 
L 620.858943 179.099371 
L 620.858943 176.729284 
L 625.932865 176.729284 
L 625.932865 176.729284 
" clip-path="url(#pcdc095bb37)" style="fill: none; stroke: #ff7f0e; stroke-width: 1.5; stroke-linecap: square"/>
   </g>
  </g>
  <g id="axes_3">
   <g id="patch_12">
    <path d="M 40.603125 402.565145 
L 319.668835 402.565145 
L 319.668835 238.318125 
L 40.603125 238.318125 
z
" style="fill: #ffffff"/>
   </g>
   <g id="matplotlib.axis_5">
    <g id="xtick_18">
     <g id="line2d_36">
      <g>
       <use xlink:href="#mca57f49b4a" x="53.22453" y="402.565145" style="stroke: #000000; stroke-width: 0.8"/>
      </g>
     </g>
     <g id="text_40">
      <!-- 0 -->
      <g transform="translate(50.04328 417.163582) scale(0.1 -0.1)">
       <use xlink:href="#DejaVuSans-30"/>
      </g>
     </g>
    </g>
    <g id="xtick_19">
     <g id="line2d_37">
      <g>
       <use xlink:href="#mca57f49b4a" x="88.752307" y="402.565145" style="stroke: #000000; stroke-width: 0.8"/>
      </g>
     </g>
     <g id="text_41">
      <!-- 10000 -->
      <g transform="translate(72.846057 417.163582) scale(0.1 -0.1)">
       <use xlink:href="#DejaVuSans-31"/>
       <use xlink:href="#DejaVuSans-30" x="63.623047"/>
       <use xlink:href="#DejaVuSans-30" x="127.246094"/>
       <use xlink:href="#DejaVuSans-30" x="190.869141"/>
       <use xlink:href="#DejaVuSans-30" x="254.492188"/>
      </g>
     </g>
    </g>
    <g id="xtick_20">
     <g id="line2d_38">
      <g>
       <use xlink:href="#mca57f49b4a" x="124.280083" y="402.565145" style="stroke: #000000; stroke-width: 0.8"/>
      </g>
     </g>
     <g id="text_42">
      <!-- 20000 -->
      <g transform="translate(108.373833 417.163582) scale(0.1 -0.1)">
       <use xlink:href="#DejaVuSans-32"/>
       <use xlink:href="#DejaVuSans-30" x="63.623047"/>
       <use xlink:href="#DejaVuSans-30" x="127.246094"/>
       <use xlink:href="#DejaVuSans-30" x="190.869141"/>
       <use xlink:href="#DejaVuSans-30" x="254.492188"/>
      </g>
     </g>
    </g>
    <g id="xtick_21">
     <g id="line2d_39">
      <g>
       <use xlink:href="#mca57f49b4a" x="159.807859" y="402.565145" style="stroke: #000000; stroke-width: 0.8"/>
      </g>
     </g>
     <g id="text_43">
      <!-- 30000 -->
      <g transform="translate(143.901609 417.163582) scale(0.1 -0.1)">
       <use xlink:href="#DejaVuSans-33"/>
       <use xlink:href="#DejaVuSans-30" x="63.623047"/>
       <use xlink:href="#DejaVuSans-30" x="127.246094"/>
       <use xlink:href="#DejaVuSans-30" x="190.869141"/>
       <use xlink:href="#DejaVuSans-30" x="254.492188"/>
      </g>
     </g>
    </g>
    <g id="xtick_22">
     <g id="line2d_40">
      <g>
       <use xlink:href="#mca57f49b4a" x="195.335635" y="402.565145" style="stroke: #000000; stroke-width: 0.8"/>
      </g>
     </g>
     <g id="text_44">
      <!-- 40000 -->
      <g transform="translate(179.429385 417.163582) scale(0.1 -0.1)">
       <use xlink:href="#DejaVuSans-34"/>
       <use xlink:href="#DejaVuSans-30" x="63.623047"/>
       <use xlink:href="#DejaVuSans-30" x="127.246094"/>
       <use xlink:href="#DejaVuSans-30" x="190.869141"/>
       <use xlink:href="#DejaVuSans-30" x="254.492188"/>
      </g>
     </g>
    </g>
    <g id="xtick_23">
     <g id="line2d_41">
      <g>
       <use xlink:href="#mca57f49b4a" x="230.863411" y="402.565145" style="stroke: #000000; stroke-width: 0.8"/>
      </g>
     </g>
     <g id="text_45">
      <!-- 50000 -->
      <g transform="translate(214.957161 417.163582) scale(0.1 -0.1)">
       <use xlink:href="#DejaVuSans-35"/>
       <use xlink:href="#DejaVuSans-30" x="63.623047"/>
       <use xlink:href="#DejaVuSans-30" x="127.246094"/>
       <use xlink:href="#DejaVuSans-30" x="190.869141"/>
       <use xlink:href="#DejaVuSans-30" x="254.492188"/>
      </g>
     </g>
    </g>
    <g id="xtick_24">
     <g id="line2d_42">
      <g>
       <use xlink:href="#mca57f49b4a" x="266.391187" y="402.565145" style="stroke: #000000; stroke-width: 0.8"/>
      </g>
     </g>
     <g id="text_46">
      <!-- 60000 -->
      <g transform="translate(250.484937 417.163582) scale(0.1 -0.1)">
       <use xlink:href="#DejaVuSans-36"/>
       <use xlink:href="#DejaVuSans-30" x="63.623047"/>
       <use xlink:href="#DejaVuSans-30" x="127.246094"/>
       <use xlink:href="#DejaVuSans-30" x="190.869141"/>
       <use xlink:href="#DejaVuSans-30" x="254.492188"/>
      </g>
     </g>
    </g>
    <g id="xtick_25">
     <g id="line2d_43">
      <g>
       <use xlink:href="#mca57f49b4a" x="301.918963" y="402.565145" style="stroke: #000000; stroke-width: 0.8"/>
      </g>
     </g>
     <g id="text_47">
      <!-- 70000 -->
      <g transform="translate(286.012713 417.163582) scale(0.1 -0.1)">
       <use xlink:href="#DejaVuSans-37"/>
       <use xlink:href="#DejaVuSans-30" x="63.623047"/>
       <use xlink:href="#DejaVuSans-30" x="127.246094"/>
       <use xlink:href="#DejaVuSans-30" x="190.869141"/>
       <use xlink:href="#DejaVuSans-30" x="254.492188"/>
      </g>
     </g>
    </g>
    <g id="text_48">
     <!-- event_time_offset [µs] -->
     <g transform="translate(124.100824 430.841707) scale(0.1 -0.1)">
      <use xlink:href="#DejaVuSans-65"/>
      <use xlink:href="#DejaVuSans-76" x="61.523438"/>
      <use xlink:href="#DejaVuSans-65" x="120.703125"/>
      <use xlink:href="#DejaVuSans-6e" x="182.226562"/>
      <use xlink:href="#DejaVuSans-74" x="245.605469"/>
      <use xlink:href="#DejaVuSans-5f" x="284.814453"/>
      <use xlink:href="#DejaVuSans-74" x="334.814453"/>
      <use xlink:href="#DejaVuSans-69" x="374.023438"/>
      <use xlink:href="#DejaVuSans-6d" x="401.806641"/>
      <use xlink:href="#DejaVuSans-65" x="499.21875"/>
      <use xlink:href="#DejaVuSans-5f" x="560.742188"/>
      <use xlink:href="#DejaVuSans-6f" x="610.742188"/>
      <use xlink:href="#DejaVuSans-66" x="671.923828"/>
      <use xlink:href="#DejaVuSans-66" x="707.128906"/>
      <use xlink:href="#DejaVuSans-73" x="742.333984"/>
      <use xlink:href="#DejaVuSans-65" x="794.433594"/>
      <use xlink:href="#DejaVuSans-74" x="855.957031"/>
      <use xlink:href="#DejaVuSans-20" x="895.166016"/>
      <use xlink:href="#DejaVuSans-5b" x="926.953125"/>
      <use xlink:href="#DejaVuSans-b5" x="965.966797"/>
      <use xlink:href="#DejaVuSans-73" x="1029.589844"/>
      <use xlink:href="#DejaVuSans-5d" x="1081.689453"/>
     </g>
    </g>
   </g>
   <g id="matplotlib.axis_6">
    <g id="ytick_15">
     <g id="line2d_44">
      <g>
       <use xlink:href="#mdfbf1d9479" x="40.603125" y="395.099371" style="stroke: #000000; stroke-width: 0.8"/>
      </g>
     </g>
     <g id="text_49">
      <!-- 0 -->
      <g transform="translate(27.240625 398.89859) scale(0.1 -0.1)">
       <use xlink:href="#DejaVuSans-30"/>
      </g>
     </g>
    </g>
    <g id="ytick_16">
     <g id="line2d_45">
      <g>
       <use xlink:href="#mdfbf1d9479" x="40.603125" y="361.164037" style="stroke: #000000; stroke-width: 0.8"/>
      </g>
     </g>
     <g id="text_50">
      <!-- 20 -->
      <g transform="translate(20.878125 364.963255) scale(0.1 -0.1)">
       <use xlink:href="#DejaVuSans-32"/>
       <use xlink:href="#DejaVuSans-30" x="63.623047"/>
      </g>
     </g>
    </g>
    <g id="ytick_17">
     <g id="line2d_46">
      <g>
       <use xlink:href="#mdfbf1d9479" x="40.603125" y="327.228702" style="stroke: #000000; stroke-width: 0.8"/>
      </g>
     </g>
     <g id="text_51">
      <!-- 40 -->
      <g transform="translate(20.878125 331.027921) scale(0.1 -0.1)">
       <use xlink:href="#DejaVuSans-34"/>
       <use xlink:href="#DejaVuSans-30" x="63.623047"/>
      </g>
     </g>
    </g>
    <g id="ytick_18">
     <g id="line2d_47">
      <g>
       <use xlink:href="#mdfbf1d9479" x="40.603125" y="293.293367" style="stroke: #000000; stroke-width: 0.8"/>
      </g>
     </g>
     <g id="text_52">
      <!-- 60 -->
      <g transform="translate(20.878125 297.092586) scale(0.1 -0.1)">
       <use xlink:href="#DejaVuSans-36"/>
       <use xlink:href="#DejaVuSans-30" x="63.623047"/>
      </g>
     </g>
    </g>
    <g id="ytick_19">
     <g id="line2d_48">
      <g>
       <use xlink:href="#mdfbf1d9479" x="40.603125" y="259.358033" style="stroke: #000000; stroke-width: 0.8"/>
      </g>
     </g>
     <g id="text_53">
      <!-- 80 -->
      <g transform="translate(20.878125 263.157251) scale(0.1 -0.1)">
       <use xlink:href="#DejaVuSans-38"/>
       <use xlink:href="#DejaVuSans-30" x="63.623047"/>
      </g>
     </g>
    </g>
    <g id="text_54">
     <!-- [counts] -->
     <g transform="translate(14.798438 341.054135) rotate(-90) scale(0.1 -0.1)">
      <use xlink:href="#DejaVuSans-5b"/>
      <use xlink:href="#DejaVuSans-63" x="39.013672"/>
      <use xlink:href="#DejaVuSans-6f" x="93.994141"/>
      <use xlink:href="#DejaVuSans-75" x="155.175781"/>
      <use xlink:href="#DejaVuSans-6e" x="218.554688"/>
      <use xlink:href="#DejaVuSans-74" x="281.933594"/>
      <use xlink:href="#DejaVuSans-73" x="321.142578"/>
      <use xlink:href="#DejaVuSans-5d" x="373.242188"/>
     </g>
    </g>
   </g>
   <g id="line2d_49">
    <path d="M 251.680567 402.565145 
L 251.680567 238.318125 
" clip-path="url(#pc70c388b54)" style="fill: none; stroke-dasharray: 7.4,3.2; stroke-dashoffset: 0; stroke: #ff00ff; stroke-width: 2"/>
   </g>
   <g id="patch_13">
    <path d="M 40.603125 402.565145 
L 40.603125 238.318125 
" style="fill: none; stroke: #000000; stroke-width: 0.8; stroke-linejoin: miter; stroke-linecap: square"/>
   </g>
   <g id="patch_14">
    <path d="M 319.668835 402.565145 
L 319.668835 238.318125 
" style="fill: none; stroke: #000000; stroke-width: 0.8; stroke-linejoin: miter; stroke-linecap: square"/>
   </g>
   <g id="patch_15">
    <path d="M 40.603125 402.565145 
L 319.668835 402.565145 
" style="fill: none; stroke: #000000; stroke-width: 0.8; stroke-linejoin: miter; stroke-linecap: square"/>
   </g>
   <g id="patch_16">
    <path d="M 40.603125 238.318125 
L 319.668835 238.318125 
" style="fill: none; stroke: #000000; stroke-width: 0.8; stroke-linejoin: miter; stroke-linecap: square"/>
   </g>
   <g id="text_55">
    <!-- pivot time -->
    <g style="fill: #ff00ff" transform="translate(259.279005 363.243724) rotate(-90) scale(0.1 -0.1)">
     <use xlink:href="#DejaVuSans-70"/>
     <use xlink:href="#DejaVuSans-69" x="63.476562"/>
     <use xlink:href="#DejaVuSans-76" x="91.259766"/>
     <use xlink:href="#DejaVuSans-6f" x="150.439453"/>
     <use xlink:href="#DejaVuSans-74" x="211.621094"/>
     <use xlink:href="#DejaVuSans-20" x="250.830078"/>
     <use xlink:href="#DejaVuSans-74" x="282.617188"/>
     <use xlink:href="#DejaVuSans-69" x="321.826172"/>
     <use xlink:href="#DejaVuSans-6d" x="349.609375"/>
     <use xlink:href="#DejaVuSans-65" x="447.021484"/>
    </g>
   </g>
   <g id="text_56">
    <!-- monitor=80.0 m -->
    <g transform="translate(130.522543 232.318125) scale(0.12 -0.12)">
     <defs>
      <path id="DejaVuSans-72" d="M 2631 2963 
Q 2534 3019 2420 3045 
Q 2306 3072 2169 3072 
Q 1681 3072 1420 2755 
Q 1159 2438 1159 1844 
L 1159 0 
L 581 0 
L 581 3500 
L 1159 3500 
L 1159 2956 
Q 1341 3275 1631 3429 
Q 1922 3584 2338 3584 
Q 2397 3584 2469 3576 
Q 2541 3569 2628 3553 
L 2631 2963 
z
" transform="scale(0.015625)"/>
     </defs>
     <use xlink:href="#DejaVuSans-6d"/>
     <use xlink:href="#DejaVuSans-6f" x="97.412109"/>
     <use xlink:href="#DejaVuSans-6e" x="158.59375"/>
     <use xlink:href="#DejaVuSans-69" x="221.972656"/>
     <use xlink:href="#DejaVuSans-74" x="249.755859"/>
     <use xlink:href="#DejaVuSans-6f" x="288.964844"/>
     <use xlink:href="#DejaVuSans-72" x="350.146484"/>
     <use xlink:href="#DejaVuSans-3d" x="391.259766"/>
     <use xlink:href="#DejaVuSans-38" x="475.048828"/>
     <use xlink:href="#DejaVuSans-30" x="538.671875"/>
     <use xlink:href="#DejaVuSans-2e" x="602.294922"/>
     <use xlink:href="#DejaVuSans-30" x="634.082031"/>
     <use xlink:href="#DejaVuSans-20" x="697.705078"/>
     <use xlink:href="#DejaVuSans-6d" x="729.492188"/>
    </g>
   </g>
   <g id="line2d_50">
    <path d="M 53.28793 311.957801 
L 54.556411 311.957801 
L 54.556411 330.622235 
L 55.824891 330.622235 
L 55.824891 303.473968 
L 57.093372 303.473968 
L 57.093372 306.867501 
L 58.361852 306.867501 
L 58.361852 286.5063 
L 59.630333 286.5063 
L 59.630333 306.867501 
L 60.898813 306.867501 
L 60.898813 291.5966 
L 62.167294 291.5966 
L 62.167294 289.899834 
L 64.704255 289.899834 
L 64.704255 250.874199 
L 65.972735 250.874199 
L 65.972735 266.145099 
L 67.241216 266.145099 
L 67.241216 274.628933 
L 68.509696 274.628933 
L 68.509696 272.932166 
L 69.778177 272.932166 
L 69.778177 254.267732 
L 71.046657 254.267732 
L 71.046657 255.964499 
L 72.315138 255.964499 
L 72.315138 259.358033 
L 73.583618 259.358033 
L 73.583618 254.267732 
L 74.852099 254.267732 
L 74.852099 249.177432 
L 76.120579 249.177432 
L 76.120579 269.538633 
L 77.38906 269.538633 
L 77.38906 245.783899 
L 78.65754 245.783899 
L 78.65754 250.874199 
L 79.926021 250.874199 
L 79.926021 261.054799 
L 81.194501 261.054799 
L 81.194501 271.2354 
L 82.462982 271.2354 
L 82.462982 250.874199 
L 83.731462 250.874199 
L 83.731462 279.719233 
L 84.999943 279.719233 
L 84.999943 298.383667 
L 86.268423 298.383667 
L 86.268423 289.899834 
L 87.536904 289.899834 
L 87.536904 269.538633 
L 88.805384 269.538633 
L 88.805384 283.112767 
L 90.073865 283.112767 
L 90.073865 255.964499 
L 91.342345 255.964499 
L 91.342345 271.2354 
L 92.610826 271.2354 
L 92.610826 301.777201 
L 93.879306 301.777201 
L 93.879306 281.416 
L 95.147787 281.416 
L 95.147787 289.899834 
L 96.416267 289.899834 
L 96.416267 267.841866 
L 97.684748 267.841866 
L 97.684748 311.957801 
L 98.953228 311.957801 
L 98.953228 266.145099 
L 100.221709 266.145099 
L 100.221709 249.177432 
L 101.490189 249.177432 
L 101.490189 301.777201 
L 102.75867 301.777201 
L 102.75867 286.5063 
L 104.02715 286.5063 
L 104.02715 291.5966 
L 106.564111 291.5966 
L 106.564111 325.531935 
L 107.832592 325.531935 
L 107.832592 278.022467 
L 109.101072 278.022467 
L 109.101072 294.990134 
L 110.369553 294.990134 
L 110.369553 300.080434 
L 111.638033 300.080434 
L 111.638033 293.293367 
L 112.906514 293.293367 
L 112.906514 310.261035 
L 114.174994 310.261035 
L 114.174994 308.564268 
L 115.443475 308.564268 
L 115.443475 294.990134 
L 116.711955 294.990134 
L 116.711955 311.957801 
L 117.980436 311.957801 
L 117.980436 301.777201 
L 119.248916 301.777201 
L 119.248916 300.080434 
L 120.517397 300.080434 
L 120.517397 305.170734 
L 121.785877 305.170734 
L 121.785877 293.293367 
L 123.054358 293.293367 
L 123.054358 308.564268 
L 124.322838 308.564268 
L 124.322838 306.867501 
L 125.591319 306.867501 
L 125.591319 301.777201 
L 126.859799 301.777201 
L 126.859799 320.441635 
L 128.12828 320.441635 
L 128.12828 303.473968 
L 129.39676 303.473968 
L 129.39676 320.441635 
L 130.665241 320.441635 
L 130.665241 315.351335 
L 131.933721 315.351335 
L 131.933721 311.957801 
L 133.202202 311.957801 
L 133.202202 322.138402 
L 134.470682 322.138402 
L 134.470682 327.228702 
L 135.739163 327.228702 
L 135.739163 335.712536 
L 138.276124 335.712536 
L 138.276124 340.802836 
L 139.544604 340.802836 
L 139.544604 337.409302 
L 140.813085 337.409302 
L 140.813085 334.015769 
L 142.081565 334.015769 
L 142.081565 354.37697 
L 143.350046 354.37697 
L 143.350046 361.164037 
L 144.618526 361.164037 
L 144.618526 347.589903 
L 145.887007 347.589903 
L 145.887007 352.680203 
L 147.155487 352.680203 
L 147.155487 357.770503 
L 148.423968 357.770503 
L 148.423968 361.164037 
L 149.692448 361.164037 
L 149.692448 369.64787 
L 150.960929 369.64787 
L 150.960929 373.041404 
L 152.229409 373.041404 
L 152.229409 378.131704 
L 153.49789 378.131704 
L 153.49789 374.738171 
L 154.76637 374.738171 
L 154.76637 384.918771 
L 156.034851 384.918771 
L 156.034851 383.222004 
L 158.571812 383.222004 
L 158.571812 390.009071 
L 159.840292 390.009071 
L 159.840292 395.099371 
L 161.108773 395.099371 
L 161.108773 390.009071 
L 162.377253 390.009071 
L 162.377253 393.402605 
L 163.645734 393.402605 
L 163.645734 395.099371 
L 251.170888 395.099371 
L 251.170888 391.705838 
L 253.707849 391.705838 
L 253.707849 395.099371 
L 254.97633 395.099371 
L 254.97633 393.402605 
L 256.24481 393.402605 
L 256.24481 395.099371 
L 257.513291 395.099371 
L 257.513291 393.402605 
L 258.781771 393.402605 
L 258.781771 395.099371 
L 260.050252 395.099371 
L 260.050252 393.402605 
L 261.318732 393.402605 
L 261.318732 395.099371 
L 263.855693 395.099371 
L 263.855693 391.705838 
L 267.661135 391.705838 
L 267.661135 395.099371 
L 268.929615 395.099371 
L 268.929615 388.312304 
L 270.198096 388.312304 
L 270.198096 393.402605 
L 274.003537 393.402605 
L 274.003537 388.312304 
L 275.272018 388.312304 
L 275.272018 393.402605 
L 276.540498 393.402605 
L 276.540498 395.099371 
L 277.808979 395.099371 
L 277.808979 391.705838 
L 279.077459 391.705838 
L 279.077459 388.312304 
L 280.34594 388.312304 
L 280.34594 386.615538 
L 281.61442 386.615538 
L 281.61442 388.312304 
L 284.151381 388.312304 
L 284.151381 384.918771 
L 286.688342 384.918771 
L 286.688342 376.434937 
L 287.956823 376.434937 
L 287.956823 378.131704 
L 289.225303 378.131704 
L 289.225303 383.222004 
L 291.762264 383.222004 
L 291.762264 379.828471 
L 293.030745 379.828471 
L 293.030745 383.222004 
L 294.299225 383.222004 
L 294.299225 378.131704 
L 295.567706 378.131704 
L 295.567706 362.860803 
L 296.836186 362.860803 
L 296.836186 366.254337 
L 298.104667 366.254337 
L 298.104667 364.55757 
L 299.373147 364.55757 
L 299.373147 371.344637 
L 300.641628 371.344637 
L 300.641628 357.770503 
L 301.910108 357.770503 
L 301.910108 350.983436 
L 303.178589 350.983436 
L 303.178589 344.196369 
L 304.447069 344.196369 
L 304.447069 335.712536 
L 305.71555 335.712536 
L 305.71555 323.835168 
L 306.98403 323.835168 
L 306.98403 323.835168 
" clip-path="url(#pc70c388b54)" style="fill: none; stroke: #2ca02c; stroke-width: 1.5; stroke-linecap: square"/>
   </g>
  </g>
  <g id="axes_4">
   <g id="patch_17">
    <path d="M 359.55196 402.565145 
L 638.61767 402.565145 
L 638.61767 238.318125 
L 359.55196 238.318125 
z
" style="fill: #ffffff"/>
   </g>
   <g id="matplotlib.axis_7">
    <g id="xtick_26">
     <g id="line2d_51">
      <g>
       <use xlink:href="#mca57f49b4a" x="372.219206" y="402.565145" style="stroke: #000000; stroke-width: 0.8"/>
      </g>
     </g>
     <g id="text_57">
      <!-- 0 -->
      <g transform="translate(369.037956 417.163582) scale(0.1 -0.1)">
       <use xlink:href="#DejaVuSans-30"/>
      </g>
     </g>
    </g>
    <g id="xtick_27">
     <g id="line2d_52">
      <g>
       <use xlink:href="#mca57f49b4a" x="407.742572" y="402.565145" style="stroke: #000000; stroke-width: 0.8"/>
      </g>
     </g>
     <g id="text_58">
      <!-- 10000 -->
      <g transform="translate(391.836322 417.163582) scale(0.1 -0.1)">
       <use xlink:href="#DejaVuSans-31"/>
       <use xlink:href="#DejaVuSans-30" x="63.623047"/>
       <use xlink:href="#DejaVuSans-30" x="127.246094"/>
       <use xlink:href="#DejaVuSans-30" x="190.869141"/>
       <use xlink:href="#DejaVuSans-30" x="254.492188"/>
      </g>
     </g>
    </g>
    <g id="xtick_28">
     <g id="line2d_53">
      <g>
       <use xlink:href="#mca57f49b4a" x="443.265937" y="402.565145" style="stroke: #000000; stroke-width: 0.8"/>
      </g>
     </g>
     <g id="text_59">
      <!-- 20000 -->
      <g transform="translate(427.359687 417.163582) scale(0.1 -0.1)">
       <use xlink:href="#DejaVuSans-32"/>
       <use xlink:href="#DejaVuSans-30" x="63.623047"/>
       <use xlink:href="#DejaVuSans-30" x="127.246094"/>
       <use xlink:href="#DejaVuSans-30" x="190.869141"/>
       <use xlink:href="#DejaVuSans-30" x="254.492188"/>
      </g>
     </g>
    </g>
    <g id="xtick_29">
     <g id="line2d_54">
      <g>
       <use xlink:href="#mca57f49b4a" x="478.789303" y="402.565145" style="stroke: #000000; stroke-width: 0.8"/>
      </g>
     </g>
     <g id="text_60">
      <!-- 30000 -->
      <g transform="translate(462.883053 417.163582) scale(0.1 -0.1)">
       <use xlink:href="#DejaVuSans-33"/>
       <use xlink:href="#DejaVuSans-30" x="63.623047"/>
       <use xlink:href="#DejaVuSans-30" x="127.246094"/>
       <use xlink:href="#DejaVuSans-30" x="190.869141"/>
       <use xlink:href="#DejaVuSans-30" x="254.492188"/>
      </g>
     </g>
    </g>
    <g id="xtick_30">
     <g id="line2d_55">
      <g>
       <use xlink:href="#mca57f49b4a" x="514.312669" y="402.565145" style="stroke: #000000; stroke-width: 0.8"/>
      </g>
     </g>
     <g id="text_61">
      <!-- 40000 -->
      <g transform="translate(498.406419 417.163582) scale(0.1 -0.1)">
       <use xlink:href="#DejaVuSans-34"/>
       <use xlink:href="#DejaVuSans-30" x="63.623047"/>
       <use xlink:href="#DejaVuSans-30" x="127.246094"/>
       <use xlink:href="#DejaVuSans-30" x="190.869141"/>
       <use xlink:href="#DejaVuSans-30" x="254.492188"/>
      </g>
     </g>
    </g>
    <g id="xtick_31">
     <g id="line2d_56">
      <g>
       <use xlink:href="#mca57f49b4a" x="549.836034" y="402.565145" style="stroke: #000000; stroke-width: 0.8"/>
      </g>
     </g>
     <g id="text_62">
      <!-- 50000 -->
      <g transform="translate(533.929784 417.163582) scale(0.1 -0.1)">
       <use xlink:href="#DejaVuSans-35"/>
       <use xlink:href="#DejaVuSans-30" x="63.623047"/>
       <use xlink:href="#DejaVuSans-30" x="127.246094"/>
       <use xlink:href="#DejaVuSans-30" x="190.869141"/>
       <use xlink:href="#DejaVuSans-30" x="254.492188"/>
      </g>
     </g>
    </g>
    <g id="xtick_32">
     <g id="line2d_57">
      <g>
       <use xlink:href="#mca57f49b4a" x="585.3594" y="402.565145" style="stroke: #000000; stroke-width: 0.8"/>
      </g>
     </g>
     <g id="text_63">
      <!-- 60000 -->
      <g transform="translate(569.45315 417.163582) scale(0.1 -0.1)">
       <use xlink:href="#DejaVuSans-36"/>
       <use xlink:href="#DejaVuSans-30" x="63.623047"/>
       <use xlink:href="#DejaVuSans-30" x="127.246094"/>
       <use xlink:href="#DejaVuSans-30" x="190.869141"/>
       <use xlink:href="#DejaVuSans-30" x="254.492188"/>
      </g>
     </g>
    </g>
    <g id="xtick_33">
     <g id="line2d_58">
      <g>
       <use xlink:href="#mca57f49b4a" x="620.882766" y="402.565145" style="stroke: #000000; stroke-width: 0.8"/>
      </g>
     </g>
     <g id="text_64">
      <!-- 70000 -->
      <g transform="translate(604.976516 417.163582) scale(0.1 -0.1)">
       <use xlink:href="#DejaVuSans-37"/>
       <use xlink:href="#DejaVuSans-30" x="63.623047"/>
       <use xlink:href="#DejaVuSans-30" x="127.246094"/>
       <use xlink:href="#DejaVuSans-30" x="190.869141"/>
       <use xlink:href="#DejaVuSans-30" x="254.492188"/>
      </g>
     </g>
    </g>
    <g id="text_65">
     <!-- event_time_offset [µs] -->
     <g transform="translate(443.049659 430.841707) scale(0.1 -0.1)">
      <use xlink:href="#DejaVuSans-65"/>
      <use xlink:href="#DejaVuSans-76" x="61.523438"/>
      <use xlink:href="#DejaVuSans-65" x="120.703125"/>
      <use xlink:href="#DejaVuSans-6e" x="182.226562"/>
      <use xlink:href="#DejaVuSans-74" x="245.605469"/>
      <use xlink:href="#DejaVuSans-5f" x="284.814453"/>
      <use xlink:href="#DejaVuSans-74" x="334.814453"/>
      <use xlink:href="#DejaVuSans-69" x="374.023438"/>
      <use xlink:href="#DejaVuSans-6d" x="401.806641"/>
      <use xlink:href="#DejaVuSans-65" x="499.21875"/>
      <use xlink:href="#DejaVuSans-5f" x="560.742188"/>
      <use xlink:href="#DejaVuSans-6f" x="610.742188"/>
      <use xlink:href="#DejaVuSans-66" x="671.923828"/>
      <use xlink:href="#DejaVuSans-66" x="707.128906"/>
      <use xlink:href="#DejaVuSans-73" x="742.333984"/>
      <use xlink:href="#DejaVuSans-65" x="794.433594"/>
      <use xlink:href="#DejaVuSans-74" x="855.957031"/>
      <use xlink:href="#DejaVuSans-20" x="895.166016"/>
      <use xlink:href="#DejaVuSans-5b" x="926.953125"/>
      <use xlink:href="#DejaVuSans-b5" x="965.966797"/>
      <use xlink:href="#DejaVuSans-73" x="1029.589844"/>
      <use xlink:href="#DejaVuSans-5d" x="1081.689453"/>
     </g>
    </g>
   </g>
   <g id="matplotlib.axis_8">
    <g id="ytick_20">
     <g id="line2d_59">
      <g>
       <use xlink:href="#mdfbf1d9479" x="359.55196" y="395.099371" style="stroke: #000000; stroke-width: 0.8"/>
      </g>
     </g>
     <g id="text_66">
      <!-- 0 -->
      <g transform="translate(346.18946 398.89859) scale(0.1 -0.1)">
       <use xlink:href="#DejaVuSans-30"/>
      </g>
     </g>
    </g>
    <g id="ytick_21">
     <g id="line2d_60">
      <g>
       <use xlink:href="#mdfbf1d9479" x="359.55196" y="374.361111" style="stroke: #000000; stroke-width: 0.8"/>
      </g>
     </g>
     <g id="text_67">
      <!-- 10 -->
      <g transform="translate(339.82696 378.16033) scale(0.1 -0.1)">
       <use xlink:href="#DejaVuSans-31"/>
       <use xlink:href="#DejaVuSans-30" x="63.623047"/>
      </g>
     </g>
    </g>
    <g id="ytick_22">
     <g id="line2d_61">
      <g>
       <use xlink:href="#mdfbf1d9479" x="359.55196" y="353.622851" style="stroke: #000000; stroke-width: 0.8"/>
      </g>
     </g>
     <g id="text_68">
      <!-- 20 -->
      <g transform="translate(339.82696 357.42207) scale(0.1 -0.1)">
       <use xlink:href="#DejaVuSans-32"/>
       <use xlink:href="#DejaVuSans-30" x="63.623047"/>
      </g>
     </g>
    </g>
    <g id="ytick_23">
     <g id="line2d_62">
      <g>
       <use xlink:href="#mdfbf1d9479" x="359.55196" y="332.884591" style="stroke: #000000; stroke-width: 0.8"/>
      </g>
     </g>
     <g id="text_69">
      <!-- 30 -->
      <g transform="translate(339.82696 336.68381) scale(0.1 -0.1)">
       <use xlink:href="#DejaVuSans-33"/>
       <use xlink:href="#DejaVuSans-30" x="63.623047"/>
      </g>
     </g>
    </g>
    <g id="ytick_24">
     <g id="line2d_63">
      <g>
       <use xlink:href="#mdfbf1d9479" x="359.55196" y="312.146331" style="stroke: #000000; stroke-width: 0.8"/>
      </g>
     </g>
     <g id="text_70">
      <!-- 40 -->
      <g transform="translate(339.82696 315.94555) scale(0.1 -0.1)">
       <use xlink:href="#DejaVuSans-34"/>
       <use xlink:href="#DejaVuSans-30" x="63.623047"/>
      </g>
     </g>
    </g>
    <g id="ytick_25">
     <g id="line2d_64">
      <g>
       <use xlink:href="#mdfbf1d9479" x="359.55196" y="291.408071" style="stroke: #000000; stroke-width: 0.8"/>
      </g>
     </g>
     <g id="text_71">
      <!-- 50 -->
      <g transform="translate(339.82696 295.20729) scale(0.1 -0.1)">
       <use xlink:href="#DejaVuSans-35"/>
       <use xlink:href="#DejaVuSans-30" x="63.623047"/>
      </g>
     </g>
    </g>
    <g id="ytick_26">
     <g id="line2d_65">
      <g>
       <use xlink:href="#mdfbf1d9479" x="359.55196" y="270.669811" style="stroke: #000000; stroke-width: 0.8"/>
      </g>
     </g>
     <g id="text_72">
      <!-- 60 -->
      <g transform="translate(339.82696 274.46903) scale(0.1 -0.1)">
       <use xlink:href="#DejaVuSans-36"/>
       <use xlink:href="#DejaVuSans-30" x="63.623047"/>
      </g>
     </g>
    </g>
    <g id="ytick_27">
     <g id="line2d_66">
      <g>
       <use xlink:href="#mdfbf1d9479" x="359.55196" y="249.931551" style="stroke: #000000; stroke-width: 0.8"/>
      </g>
     </g>
     <g id="text_73">
      <!-- 70 -->
      <g transform="translate(339.82696 253.730769) scale(0.1 -0.1)">
       <use xlink:href="#DejaVuSans-37"/>
       <use xlink:href="#DejaVuSans-30" x="63.623047"/>
      </g>
     </g>
    </g>
    <g id="text_74">
     <!-- [counts] -->
     <g transform="translate(333.747273 341.054135) rotate(-90) scale(0.1 -0.1)">
      <use xlink:href="#DejaVuSans-5b"/>
      <use xlink:href="#DejaVuSans-63" x="39.013672"/>
      <use xlink:href="#DejaVuSans-6f" x="93.994141"/>
      <use xlink:href="#DejaVuSans-75" x="155.175781"/>
      <use xlink:href="#DejaVuSans-6e" x="218.554688"/>
      <use xlink:href="#DejaVuSans-74" x="281.933594"/>
      <use xlink:href="#DejaVuSans-73" x="321.142578"/>
      <use xlink:href="#DejaVuSans-5d" x="373.242188"/>
     </g>
    </g>
   </g>
   <g id="line2d_67">
    <path d="M 469.088728 402.565145 
L 469.088728 238.318125 
" clip-path="url(#p9c1067803b)" style="fill: none; stroke-dasharray: 7.4,3.2; stroke-dashoffset: 0; stroke: #ff00ff; stroke-width: 2"/>
   </g>
   <g id="patch_18">
    <path d="M 359.55196 402.565145 
L 359.55196 238.318125 
" style="fill: none; stroke: #000000; stroke-width: 0.8; stroke-linejoin: miter; stroke-linecap: square"/>
   </g>
   <g id="patch_19">
    <path d="M 638.61767 402.565145 
L 638.61767 238.318125 
" style="fill: none; stroke: #000000; stroke-width: 0.8; stroke-linejoin: miter; stroke-linecap: square"/>
   </g>
   <g id="patch_20">
    <path d="M 359.55196 402.565145 
L 638.61767 402.565145 
" style="fill: none; stroke: #000000; stroke-width: 0.8; stroke-linejoin: miter; stroke-linecap: square"/>
   </g>
   <g id="patch_21">
    <path d="M 359.55196 238.318125 
L 638.61767 238.318125 
" style="fill: none; stroke: #000000; stroke-width: 0.8; stroke-linejoin: miter; stroke-linecap: square"/>
   </g>
   <g id="text_75">
    <!-- pivot time -->
    <g style="fill: #ff00ff" transform="translate(476.687165 355.702539) rotate(-90) scale(0.1 -0.1)">
     <use xlink:href="#DejaVuSans-70"/>
     <use xlink:href="#DejaVuSans-69" x="63.476562"/>
     <use xlink:href="#DejaVuSans-76" x="91.259766"/>
     <use xlink:href="#DejaVuSans-6f" x="150.439453"/>
     <use xlink:href="#DejaVuSans-74" x="211.621094"/>
     <use xlink:href="#DejaVuSans-20" x="250.830078"/>
     <use xlink:href="#DejaVuSans-74" x="282.617188"/>
     <use xlink:href="#DejaVuSans-69" x="321.826172"/>
     <use xlink:href="#DejaVuSans-6d" x="349.609375"/>
     <use xlink:href="#DejaVuSans-65" x="447.021484"/>
    </g>
   </g>
   <g id="text_76">
    <!-- detector=108.0 m -->
    <g transform="translate(443.794815 232.318125) scale(0.12 -0.12)">
     <defs>
      <path id="DejaVuSans-64" d="M 2906 2969 
L 2906 4863 
L 3481 4863 
L 3481 0 
L 2906 0 
L 2906 525 
Q 2725 213 2448 61 
Q 2172 -91 1784 -91 
Q 1150 -91 751 415 
Q 353 922 353 1747 
Q 353 2572 751 3078 
Q 1150 3584 1784 3584 
Q 2172 3584 2448 3432 
Q 2725 3281 2906 2969 
z
M 947 1747 
Q 947 1113 1208 752 
Q 1469 391 1925 391 
Q 2381 391 2643 752 
Q 2906 1113 2906 1747 
Q 2906 2381 2643 2742 
Q 2381 3103 1925 3103 
Q 1469 3103 1208 2742 
Q 947 2381 947 1747 
z
" transform="scale(0.015625)"/>
     </defs>
     <use xlink:href="#DejaVuSans-64"/>
     <use xlink:href="#DejaVuSans-65" x="63.476562"/>
     <use xlink:href="#DejaVuSans-74" x="125"/>
     <use xlink:href="#DejaVuSans-65" x="164.208984"/>
     <use xlink:href="#DejaVuSans-63" x="225.732422"/>
     <use xlink:href="#DejaVuSans-74" x="280.712891"/>
     <use xlink:href="#DejaVuSans-6f" x="319.921875"/>
     <use xlink:href="#DejaVuSans-72" x="381.103516"/>
     <use xlink:href="#DejaVuSans-3d" x="422.216797"/>
     <use xlink:href="#DejaVuSans-31" x="506.005859"/>
     <use xlink:href="#DejaVuSans-30" x="569.628906"/>
     <use xlink:href="#DejaVuSans-38" x="633.251953"/>
     <use xlink:href="#DejaVuSans-2e" x="696.875"/>
     <use xlink:href="#DejaVuSans-30" x="728.662109"/>
     <use xlink:href="#DejaVuSans-20" x="792.285156"/>
     <use xlink:href="#DejaVuSans-6d" x="824.072266"/>
    </g>
   </g>
   <g id="line2d_68">
    <path d="M 372.236765 287.260419 
L 373.505246 287.260419 
L 373.505246 297.629549 
L 374.773726 297.629549 
L 374.773726 330.810765 
L 376.042207 330.810765 
L 376.042207 305.924853 
L 377.310687 305.924853 
L 377.310687 326.663113 
L 378.579168 326.663113 
L 378.579168 297.629549 
L 379.847648 297.629549 
L 379.847648 320.441635 
L 381.116129 320.441635 
L 381.116129 316.293983 
L 382.384609 316.293983 
L 382.384609 324.589287 
L 383.65309 324.589287 
L 383.65309 301.777201 
L 384.92157 301.777201 
L 384.92157 307.998679 
L 386.190051 307.998679 
L 386.190051 326.663113 
L 387.458531 326.663113 
L 387.458531 305.924853 
L 389.995492 305.924853 
L 389.995492 326.663113 
L 391.263973 326.663113 
L 391.263973 322.515461 
L 392.532453 322.515461 
L 392.532453 310.072505 
L 393.800934 310.072505 
L 393.800934 322.515461 
L 395.069414 322.515461 
L 395.069414 326.663113 
L 396.337895 326.663113 
L 396.337895 305.924853 
L 397.606375 305.924853 
L 397.606375 320.441635 
L 398.874856 320.441635 
L 398.874856 349.475199 
L 400.143336 349.475199 
L 400.143336 307.998679 
L 401.411817 307.998679 
L 401.411817 332.884591 
L 402.680297 332.884591 
L 402.680297 330.810765 
L 403.948778 330.810765 
L 403.948778 326.663113 
L 405.217258 326.663113 
L 405.217258 337.032243 
L 406.485739 337.032243 
L 406.485739 334.958417 
L 407.754219 334.958417 
L 407.754219 337.032243 
L 409.0227 337.032243 
L 409.0227 353.622851 
L 410.29118 353.622851 
L 410.29118 357.770503 
L 411.559661 357.770503 
L 411.559661 328.736939 
L 412.828141 328.736939 
L 412.828141 349.475199 
L 414.096622 349.475199 
L 414.096622 339.106069 
L 415.365102 339.106069 
L 415.365102 351.549025 
L 416.633583 351.549025 
L 416.633583 366.065807 
L 419.170544 366.065807 
L 419.170544 355.696677 
L 420.439024 355.696677 
L 420.439024 345.327547 
L 421.707505 345.327547 
L 421.707505 363.991981 
L 422.975985 363.991981 
L 422.975985 366.065807 
L 424.244466 366.065807 
L 424.244466 361.918155 
L 425.512946 361.918155 
L 425.512946 366.065807 
L 426.781427 366.065807 
L 426.781427 382.656415 
L 428.049907 382.656415 
L 428.049907 370.213459 
L 429.318388 370.213459 
L 429.318388 378.508763 
L 430.586868 378.508763 
L 430.586868 380.582589 
L 431.855349 380.582589 
L 431.855349 378.508763 
L 433.123829 378.508763 
L 433.123829 384.730241 
L 434.39231 384.730241 
L 434.39231 386.804067 
L 435.66079 386.804067 
L 435.66079 384.730241 
L 438.197751 384.730241 
L 438.197751 388.877893 
L 439.466232 388.877893 
L 439.466232 395.099371 
L 440.734712 395.099371 
L 440.734712 393.025545 
L 442.003193 393.025545 
L 442.003193 390.951719 
L 443.271673 390.951719 
L 443.271673 395.099371 
L 444.540154 395.099371 
L 444.540154 393.025545 
L 445.808634 393.025545 
L 445.808634 395.099371 
L 468.641283 395.099371 
L 468.641283 390.951719 
L 471.178244 390.951719 
L 471.178244 395.099371 
L 474.983686 395.099371 
L 474.983686 393.025545 
L 476.252166 393.025545 
L 476.252166 395.099371 
L 477.520647 395.099371 
L 477.520647 393.025545 
L 478.789127 393.025545 
L 478.789127 395.099371 
L 481.326088 395.099371 
L 481.326088 393.025545 
L 482.594569 393.025545 
L 482.594569 395.099371 
L 486.40001 395.099371 
L 486.40001 393.025545 
L 488.936971 393.025545 
L 488.936971 388.877893 
L 490.205452 388.877893 
L 490.205452 393.025545 
L 491.473932 393.025545 
L 491.473932 395.099371 
L 492.742413 395.099371 
L 492.742413 393.025545 
L 494.010893 393.025545 
L 494.010893 386.804067 
L 495.279374 386.804067 
L 495.279374 395.099371 
L 497.816335 395.099371 
L 497.816335 390.951719 
L 499.084815 390.951719 
L 499.084815 393.025545 
L 500.353296 393.025545 
L 500.353296 390.951719 
L 501.621776 390.951719 
L 501.621776 393.025545 
L 504.158737 393.025545 
L 504.158737 395.099371 
L 505.427218 395.099371 
L 505.427218 393.025545 
L 506.695698 393.025545 
L 506.695698 388.877893 
L 507.964179 388.877893 
L 507.964179 390.951719 
L 509.232659 390.951719 
L 509.232659 384.730241 
L 510.50114 384.730241 
L 510.50114 388.877893 
L 511.76962 388.877893 
L 511.76962 390.951719 
L 513.038101 390.951719 
L 513.038101 388.877893 
L 514.306581 388.877893 
L 514.306581 386.804067 
L 515.575062 386.804067 
L 515.575062 382.656415 
L 516.843542 382.656415 
L 516.843542 388.877893 
L 518.112023 388.877893 
L 518.112023 378.508763 
L 519.380503 378.508763 
L 519.380503 380.582589 
L 520.648984 380.582589 
L 520.648984 384.730241 
L 521.917464 384.730241 
L 521.917464 378.508763 
L 523.185945 378.508763 
L 523.185945 388.877893 
L 524.454425 388.877893 
L 524.454425 378.508763 
L 526.991386 378.508763 
L 526.991386 386.804067 
L 529.528347 386.804067 
L 529.528347 366.065807 
L 530.796828 366.065807 
L 530.796828 370.213459 
L 532.065308 370.213459 
L 532.065308 366.065807 
L 533.333789 366.065807 
L 533.333789 376.434937 
L 534.602269 376.434937 
L 534.602269 368.139633 
L 535.87075 368.139633 
L 535.87075 370.213459 
L 537.13923 370.213459 
L 537.13923 372.287285 
L 538.407711 372.287285 
L 538.407711 353.622851 
L 539.676191 353.622851 
L 539.676191 355.696677 
L 540.944672 355.696677 
L 540.944672 351.549025 
L 542.213152 351.549025 
L 542.213152 334.958417 
L 543.481633 334.958417 
L 543.481633 355.696677 
L 544.750113 355.696677 
L 544.750113 322.515461 
L 546.018594 322.515461 
L 546.018594 318.367809 
L 547.287074 318.367809 
L 547.287074 339.106069 
L 548.555555 339.106069 
L 548.555555 343.253721 
L 549.824035 343.253721 
L 549.824035 314.220157 
L 551.092516 314.220157 
L 551.092516 301.777201 
L 552.360996 301.777201 
L 552.360996 305.924853 
L 553.629477 305.924853 
L 553.629477 314.220157 
L 554.897957 314.220157 
L 554.897957 312.146331 
L 556.166438 312.146331 
L 556.166438 305.924853 
L 557.434918 305.924853 
L 557.434918 303.851027 
L 558.703399 303.851027 
L 558.703399 310.072505 
L 559.971879 310.072505 
L 559.971879 299.703375 
L 561.24036 299.703375 
L 561.24036 289.334245 
L 562.50884 289.334245 
L 562.50884 256.153029 
L 563.777321 256.153029 
L 563.777321 289.334245 
L 565.045801 289.334245 
L 565.045801 297.629549 
L 566.314282 297.629549 
L 566.314282 270.669811 
L 567.582762 270.669811 
L 567.582762 276.891289 
L 568.851243 276.891289 
L 568.851243 274.817463 
L 570.119723 274.817463 
L 570.119723 270.669811 
L 571.388204 270.669811 
L 571.388204 285.186593 
L 572.656684 285.186593 
L 572.656684 260.300681 
L 573.925165 260.300681 
L 573.925165 295.555723 
L 575.193645 295.555723 
L 575.193645 252.005377 
L 576.462126 252.005377 
L 576.462126 283.112767 
L 577.730606 283.112767 
L 577.730606 276.891289 
L 578.999087 276.891289 
L 578.999087 245.783899 
L 580.267567 245.783899 
L 580.267567 289.334245 
L 581.536048 289.334245 
L 581.536048 260.300681 
L 582.804528 260.300681 
L 582.804528 281.038941 
L 584.073009 281.038941 
L 584.073009 287.260419 
L 585.341489 287.260419 
L 585.341489 264.448333 
L 586.60997 264.448333 
L 586.60997 289.334245 
L 587.87845 289.334245 
L 587.87845 276.891289 
L 589.146931 276.891289 
L 589.146931 293.481897 
L 590.415411 293.481897 
L 590.415411 312.146331 
L 591.683892 312.146331 
L 591.683892 307.998679 
L 592.952372 307.998679 
L 592.952372 287.260419 
L 594.220853 287.260419 
L 594.220853 283.112767 
L 595.489333 283.112767 
L 595.489333 310.072505 
L 596.757814 310.072505 
L 596.757814 272.743637 
L 598.026294 272.743637 
L 598.026294 270.669811 
L 599.294775 270.669811 
L 599.294775 283.112767 
L 600.563255 283.112767 
L 600.563255 326.663113 
L 601.831736 326.663113 
L 601.831736 299.703375 
L 603.100216 299.703375 
L 603.100216 285.186593 
L 604.368697 285.186593 
L 604.368697 312.146331 
L 605.637177 312.146331 
L 605.637177 281.038941 
L 606.905658 281.038941 
L 606.905658 322.515461 
L 608.174138 322.515461 
L 608.174138 307.998679 
L 609.442619 307.998679 
L 609.442619 268.595985 
L 610.711099 268.595985 
L 610.711099 270.669811 
L 611.97958 270.669811 
L 611.97958 301.777201 
L 613.24806 301.777201 
L 613.24806 297.629549 
L 614.516541 297.629549 
L 614.516541 312.146331 
L 615.785021 312.146331 
L 615.785021 295.555723 
L 618.321982 295.555723 
L 618.321982 301.777201 
L 619.590463 301.777201 
L 619.590463 332.884591 
L 620.858943 332.884591 
L 620.858943 314.220157 
L 622.127424 314.220157 
L 622.127424 291.408071 
L 623.395904 291.408071 
L 623.395904 303.851027 
L 624.664385 303.851027 
L 624.664385 339.106069 
L 625.932865 339.106069 
L 625.932865 339.106069 
" clip-path="url(#p9c1067803b)" style="fill: none; stroke: #d62728; stroke-width: 1.5; stroke-linecap: square"/>
   </g>
  </g>
 </g>
 <defs>
  <clipPath id="p72b29fc67b">
   <rect x="40.603125" y="22.318125" width="279.06571" height="164.24702"/>
  </clipPath>
  <clipPath id="pcdc095bb37">
   <rect x="359.55196" y="22.318125" width="279.06571" height="164.24702"/>
  </clipPath>
  <clipPath id="pc70c388b54">
   <rect x="40.603125" y="238.318125" width="279.06571" height="164.24702"/>
  </clipPath>
  <clipPath id="p9c1067803b">
   <rect x="359.55196" y="238.318125" width="279.06571" height="164.24702"/>
  </clipPath>
 </defs>
</svg>
