<?xml version="1.0" encoding="utf-8" standalone="no"?>
<!DOCTYPE svg PUBLIC "-//W3C//DTD SVG 1.1//EN"
  "http://www.w3.org/Graphics/SVG/1.1/DTD/svg11.dtd">
<svg xmlns:xlink="http://www.w3.org/1999/xlink" width="391.230087pt" height="266.51625pt" viewBox="0 0 391.230087 266.51625" xmlns="http://www.w3.org/2000/svg" version="1.1">
 <metadata>
  <rdf:RDF xmlns:dc="http://purl.org/dc/elements/1.1/" xmlns:cc="http://creativecommons.org/ns#" xmlns:rdf="http://www.w3.org/1999/02/22-rdf-syntax-ns#">
   <cc:Work>
    <dc:type rdf:resource="http://purl.org/dc/dcmitype/StillImage"/>
    <dc:date>2025-01-20T13:50:47.741982</dc:date>
    <dc:format>image/svg+xml</dc:format>
    <dc:creator>
     <cc:Agent>
      <dc:title>Matplotlib v3.7.3, https://matplotlib.org/</dc:title>
     </cc:Agent>
    </dc:creator>
   </cc:Work>
  </rdf:RDF>
 </metadata>
 <defs>
  <style type="text/css">*{stroke-linejoin: round; stroke-linecap: butt}</style>
 </defs>
 <g id="figure_1">
  <g id="patch_1">
   <path d="M 0 266.51625 
L 391.230087 266.51625 
L 391.230087 0 
L 0 0 
z
" style="fill: #ffffff"/>
  </g>
  <g id="axes_1">
   <g id="patch_2">
    <path d="M 46.965625 228.96 
L 381.765625 228.96 
L 381.765625 7.2 
L 46.965625 7.2 
z
" style="fill: #ffffff"/>
   </g>
   <g id="matplotlib.axis_1">
    <g id="xtick_1">
     <g id="line2d_1">
      <defs>
       <path id="m8d192c85d8" d="M 0 0 
L 0 3.5 
" style="stroke: #000000; stroke-width: 0.8"/>
      </defs>
      <g>
       <use xlink:href="#m8d192c85d8" x="71.184551" y="228.96" style="stroke: #000000; stroke-width: 0.8"/>
      </g>
     </g>
     <g id="text_1">
      <!-- 0.02 -->
      <g transform="translate(60.051739 243.558437) scale(0.1 -0.1)">
       <defs>
        <path id="DejaVuSans-30" d="M 2034 4250 
Q 1547 4250 1301 3770 
Q 1056 3291 1056 2328 
Q 1056 1369 1301 889 
Q 1547 409 2034 409 
Q 2525 409 2770 889 
Q 3016 1369 3016 2328 
Q 3016 3291 2770 3770 
Q 2525 4250 2034 4250 
z
M 2034 4750 
Q 2819 4750 3233 4129 
Q 3647 3509 3647 2328 
Q 3647 1150 3233 529 
Q 2819 -91 2034 -91 
Q 1250 -91 836 529 
Q 422 1150 422 2328 
Q 422 3509 836 4129 
Q 1250 4750 2034 4750 
z
" transform="scale(0.015625)"/>
        <path id="DejaVuSans-2e" d="M 684 794 
L 1344 794 
L 1344 0 
L 684 0 
L 684 794 
z
" transform="scale(0.015625)"/>
        <path id="DejaVuSans-32" d="M 1228 531 
L 3431 531 
L 3431 0 
L 469 0 
L 469 531 
Q 828 903 1448 1529 
Q 2069 2156 2228 2338 
Q 2531 2678 2651 2914 
Q 2772 3150 2772 3378 
Q 2772 3750 2511 3984 
Q 2250 4219 1831 4219 
Q 1534 4219 1204 4116 
Q 875 4013 500 3803 
L 500 4441 
Q 881 4594 1212 4672 
Q 1544 4750 1819 4750 
Q 2544 4750 2975 4387 
Q 3406 4025 3406 3419 
Q 3406 3131 3298 2873 
Q 3191 2616 2906 2266 
Q 2828 2175 2409 1742 
Q 1991 1309 1228 531 
z
" transform="scale(0.015625)"/>
       </defs>
       <use xlink:href="#DejaVuSans-30"/>
       <use xlink:href="#DejaVuSans-2e" x="63.623047"/>
       <use xlink:href="#DejaVuSans-30" x="95.410156"/>
       <use xlink:href="#DejaVuSans-32" x="159.033203"/>
      </g>
     </g>
    </g>
    <g id="xtick_2">
     <g id="line2d_2">
      <g>
       <use xlink:href="#m8d192c85d8" x="114.286369" y="228.96" style="stroke: #000000; stroke-width: 0.8"/>
      </g>
     </g>
     <g id="text_2">
      <!-- 0.03 -->
      <g transform="translate(103.153556 243.558437) scale(0.1 -0.1)">
       <defs>
        <path id="DejaVuSans-33" d="M 2597 2516 
Q 3050 2419 3304 2112 
Q 3559 1806 3559 1356 
Q 3559 666 3084 287 
Q 2609 -91 1734 -91 
Q 1441 -91 1130 -33 
Q 819 25 488 141 
L 488 750 
Q 750 597 1062 519 
Q 1375 441 1716 441 
Q 2309 441 2620 675 
Q 2931 909 2931 1356 
Q 2931 1769 2642 2001 
Q 2353 2234 1838 2234 
L 1294 2234 
L 1294 2753 
L 1863 2753 
Q 2328 2753 2575 2939 
Q 2822 3125 2822 3475 
Q 2822 3834 2567 4026 
Q 2313 4219 1838 4219 
Q 1578 4219 1281 4162 
Q 984 4106 628 3988 
L 628 4550 
Q 988 4650 1302 4700 
Q 1616 4750 1894 4750 
Q 2613 4750 3031 4423 
Q 3450 4097 3450 3541 
Q 3450 3153 3228 2886 
Q 3006 2619 2597 2516 
z
" transform="scale(0.015625)"/>
       </defs>
       <use xlink:href="#DejaVuSans-30"/>
       <use xlink:href="#DejaVuSans-2e" x="63.623047"/>
       <use xlink:href="#DejaVuSans-30" x="95.410156"/>
       <use xlink:href="#DejaVuSans-33" x="159.033203"/>
      </g>
     </g>
    </g>
    <g id="xtick_3">
     <g id="line2d_3">
      <g>
       <use xlink:href="#m8d192c85d8" x="157.388186" y="228.96" style="stroke: #000000; stroke-width: 0.8"/>
      </g>
     </g>
     <g id="text_3">
      <!-- 0.04 -->
      <g transform="translate(146.255374 243.558437) scale(0.1 -0.1)">
       <defs>
        <path id="DejaVuSans-34" d="M 2419 4116 
L 825 1625 
L 2419 1625 
L 2419 4116 
z
M 2253 4666 
L 3047 4666 
L 3047 1625 
L 3713 1625 
L 3713 1100 
L 3047 1100 
L 3047 0 
L 2419 0 
L 2419 1100 
L 313 1100 
L 313 1709 
L 2253 4666 
z
" transform="scale(0.015625)"/>
       </defs>
       <use xlink:href="#DejaVuSans-30"/>
       <use xlink:href="#DejaVuSans-2e" x="63.623047"/>
       <use xlink:href="#DejaVuSans-30" x="95.410156"/>
       <use xlink:href="#DejaVuSans-34" x="159.033203"/>
      </g>
     </g>
    </g>
    <g id="xtick_4">
     <g id="line2d_4">
      <g>
       <use xlink:href="#m8d192c85d8" x="200.490004" y="228.96" style="stroke: #000000; stroke-width: 0.8"/>
      </g>
     </g>
     <g id="text_4">
      <!-- 0.05 -->
      <g transform="translate(189.357192 243.558437) scale(0.1 -0.1)">
       <defs>
        <path id="DejaVuSans-35" d="M 691 4666 
L 3169 4666 
L 3169 4134 
L 1269 4134 
L 1269 2991 
Q 1406 3038 1543 3061 
Q 1681 3084 1819 3084 
Q 2600 3084 3056 2656 
Q 3513 2228 3513 1497 
Q 3513 744 3044 326 
Q 2575 -91 1722 -91 
Q 1428 -91 1123 -41 
Q 819 9 494 109 
L 494 744 
Q 775 591 1075 516 
Q 1375 441 1709 441 
Q 2250 441 2565 725 
Q 2881 1009 2881 1497 
Q 2881 1984 2565 2268 
Q 2250 2553 1709 2553 
Q 1456 2553 1204 2497 
Q 953 2441 691 2322 
L 691 4666 
z
" transform="scale(0.015625)"/>
       </defs>
       <use xlink:href="#DejaVuSans-30"/>
       <use xlink:href="#DejaVuSans-2e" x="63.623047"/>
       <use xlink:href="#DejaVuSans-30" x="95.410156"/>
       <use xlink:href="#DejaVuSans-35" x="159.033203"/>
      </g>
     </g>
    </g>
    <g id="xtick_5">
     <g id="line2d_5">
      <g>
       <use xlink:href="#m8d192c85d8" x="243.591822" y="228.96" style="stroke: #000000; stroke-width: 0.8"/>
      </g>
     </g>
     <g id="text_5">
      <!-- 0.06 -->
      <g transform="translate(232.459009 243.558437) scale(0.1 -0.1)">
       <defs>
        <path id="DejaVuSans-36" d="M 2113 2584 
Q 1688 2584 1439 2293 
Q 1191 2003 1191 1497 
Q 1191 994 1439 701 
Q 1688 409 2113 409 
Q 2538 409 2786 701 
Q 3034 994 3034 1497 
Q 3034 2003 2786 2293 
Q 2538 2584 2113 2584 
z
M 3366 4563 
L 3366 3988 
Q 3128 4100 2886 4159 
Q 2644 4219 2406 4219 
Q 1781 4219 1451 3797 
Q 1122 3375 1075 2522 
Q 1259 2794 1537 2939 
Q 1816 3084 2150 3084 
Q 2853 3084 3261 2657 
Q 3669 2231 3669 1497 
Q 3669 778 3244 343 
Q 2819 -91 2113 -91 
Q 1303 -91 875 529 
Q 447 1150 447 2328 
Q 447 3434 972 4092 
Q 1497 4750 2381 4750 
Q 2619 4750 2861 4703 
Q 3103 4656 3366 4563 
z
" transform="scale(0.015625)"/>
       </defs>
       <use xlink:href="#DejaVuSans-30"/>
       <use xlink:href="#DejaVuSans-2e" x="63.623047"/>
       <use xlink:href="#DejaVuSans-30" x="95.410156"/>
       <use xlink:href="#DejaVuSans-36" x="159.033203"/>
      </g>
     </g>
    </g>
    <g id="xtick_6">
     <g id="line2d_6">
      <g>
       <use xlink:href="#m8d192c85d8" x="286.693639" y="228.96" style="stroke: #000000; stroke-width: 0.8"/>
      </g>
     </g>
     <g id="text_6">
      <!-- 0.07 -->
      <g transform="translate(275.560827 243.558437) scale(0.1 -0.1)">
       <defs>
        <path id="DejaVuSans-37" d="M 525 4666 
L 3525 4666 
L 3525 4397 
L 1831 0 
L 1172 0 
L 2766 4134 
L 525 4134 
L 525 4666 
z
" transform="scale(0.015625)"/>
       </defs>
       <use xlink:href="#DejaVuSans-30"/>
       <use xlink:href="#DejaVuSans-2e" x="63.623047"/>
       <use xlink:href="#DejaVuSans-30" x="95.410156"/>
       <use xlink:href="#DejaVuSans-37" x="159.033203"/>
      </g>
     </g>
    </g>
    <g id="xtick_7">
     <g id="line2d_7">
      <g>
       <use xlink:href="#m8d192c85d8" x="329.795457" y="228.96" style="stroke: #000000; stroke-width: 0.8"/>
      </g>
     </g>
     <g id="text_7">
      <!-- 0.08 -->
      <g transform="translate(318.662645 243.558437) scale(0.1 -0.1)">
       <defs>
        <path id="DejaVuSans-38" d="M 2034 2216 
Q 1584 2216 1326 1975 
Q 1069 1734 1069 1313 
Q 1069 891 1326 650 
Q 1584 409 2034 409 
Q 2484 409 2743 651 
Q 3003 894 3003 1313 
Q 3003 1734 2745 1975 
Q 2488 2216 2034 2216 
z
M 1403 2484 
Q 997 2584 770 2862 
Q 544 3141 544 3541 
Q 544 4100 942 4425 
Q 1341 4750 2034 4750 
Q 2731 4750 3128 4425 
Q 3525 4100 3525 3541 
Q 3525 3141 3298 2862 
Q 3072 2584 2669 2484 
Q 3125 2378 3379 2068 
Q 3634 1759 3634 1313 
Q 3634 634 3220 271 
Q 2806 -91 2034 -91 
Q 1263 -91 848 271 
Q 434 634 434 1313 
Q 434 1759 690 2068 
Q 947 2378 1403 2484 
z
M 1172 3481 
Q 1172 3119 1398 2916 
Q 1625 2713 2034 2713 
Q 2441 2713 2670 2916 
Q 2900 3119 2900 3481 
Q 2900 3844 2670 4047 
Q 2441 4250 2034 4250 
Q 1625 4250 1398 4047 
Q 1172 3844 1172 3481 
z
" transform="scale(0.015625)"/>
       </defs>
       <use xlink:href="#DejaVuSans-30"/>
       <use xlink:href="#DejaVuSans-2e" x="63.623047"/>
       <use xlink:href="#DejaVuSans-30" x="95.410156"/>
       <use xlink:href="#DejaVuSans-38" x="159.033203"/>
      </g>
     </g>
    </g>
    <g id="xtick_8">
     <g id="line2d_8">
      <g>
       <use xlink:href="#m8d192c85d8" x="372.897275" y="228.96" style="stroke: #000000; stroke-width: 0.8"/>
      </g>
     </g>
     <g id="text_8">
      <!-- 0.09 -->
      <g transform="translate(361.764462 243.558437) scale(0.1 -0.1)">
       <defs>
        <path id="DejaVuSans-39" d="M 703 97 
L 703 672 
Q 941 559 1184 500 
Q 1428 441 1663 441 
Q 2288 441 2617 861 
Q 2947 1281 2994 2138 
Q 2813 1869 2534 1725 
Q 2256 1581 1919 1581 
Q 1219 1581 811 2004 
Q 403 2428 403 3163 
Q 403 3881 828 4315 
Q 1253 4750 1959 4750 
Q 2769 4750 3195 4129 
Q 3622 3509 3622 2328 
Q 3622 1225 3098 567 
Q 2575 -91 1691 -91 
Q 1453 -91 1209 -44 
Q 966 3 703 97 
z
M 1959 2075 
Q 2384 2075 2632 2365 
Q 2881 2656 2881 3163 
Q 2881 3666 2632 3958 
Q 2384 4250 1959 4250 
Q 1534 4250 1286 3958 
Q 1038 3666 1038 3163 
Q 1038 2656 1286 2365 
Q 1534 2075 1959 2075 
z
" transform="scale(0.015625)"/>
       </defs>
       <use xlink:href="#DejaVuSans-30"/>
       <use xlink:href="#DejaVuSans-2e" x="63.623047"/>
       <use xlink:href="#DejaVuSans-30" x="95.410156"/>
       <use xlink:href="#DejaVuSans-39" x="159.033203"/>
      </g>
     </g>
    </g>
    <g id="text_9">
     <!-- tof [s] -->
     <g transform="translate(199.490625 257.236562) scale(0.1 -0.1)">
      <defs>
       <path id="DejaVuSans-74" d="M 1172 4494 
L 1172 3500 
L 2356 3500 
L 2356 3053 
L 1172 3053 
L 1172 1153 
Q 1172 725 1289 603 
Q 1406 481 1766 481 
L 2356 481 
L 2356 0 
L 1766 0 
Q 1100 0 847 248 
Q 594 497 594 1153 
L 594 3053 
L 172 3053 
L 172 3500 
L 594 3500 
L 594 4494 
L 1172 4494 
z
" transform="scale(0.015625)"/>
       <path id="DejaVuSans-6f" d="M 1959 3097 
Q 1497 3097 1228 2736 
Q 959 2375 959 1747 
Q 959 1119 1226 758 
Q 1494 397 1959 397 
Q 2419 397 2687 759 
Q 2956 1122 2956 1747 
Q 2956 2369 2687 2733 
Q 2419 3097 1959 3097 
z
M 1959 3584 
Q 2709 3584 3137 3096 
Q 3566 2609 3566 1747 
Q 3566 888 3137 398 
Q 2709 -91 1959 -91 
Q 1206 -91 779 398 
Q 353 888 353 1747 
Q 353 2609 779 3096 
Q 1206 3584 1959 3584 
z
" transform="scale(0.015625)"/>
       <path id="DejaVuSans-66" d="M 2375 4863 
L 2375 4384 
L 1825 4384 
Q 1516 4384 1395 4259 
Q 1275 4134 1275 3809 
L 1275 3500 
L 2222 3500 
L 2222 3053 
L 1275 3053 
L 1275 0 
L 697 0 
L 697 3053 
L 147 3053 
L 147 3500 
L 697 3500 
L 697 3744 
Q 697 4328 969 4595 
Q 1241 4863 1831 4863 
L 2375 4863 
z
" transform="scale(0.015625)"/>
       <path id="DejaVuSans-20" transform="scale(0.015625)"/>
       <path id="DejaVuSans-5b" d="M 550 4863 
L 1875 4863 
L 1875 4416 
L 1125 4416 
L 1125 -397 
L 1875 -397 
L 1875 -844 
L 550 -844 
L 550 4863 
z
" transform="scale(0.015625)"/>
       <path id="DejaVuSans-73" d="M 2834 3397 
L 2834 2853 
Q 2591 2978 2328 3040 
Q 2066 3103 1784 3103 
Q 1356 3103 1142 2972 
Q 928 2841 928 2578 
Q 928 2378 1081 2264 
Q 1234 2150 1697 2047 
L 1894 2003 
Q 2506 1872 2764 1633 
Q 3022 1394 3022 966 
Q 3022 478 2636 193 
Q 2250 -91 1575 -91 
Q 1294 -91 989 -36 
Q 684 19 347 128 
L 347 722 
Q 666 556 975 473 
Q 1284 391 1588 391 
Q 1994 391 2212 530 
Q 2431 669 2431 922 
Q 2431 1156 2273 1281 
Q 2116 1406 1581 1522 
L 1381 1569 
Q 847 1681 609 1914 
Q 372 2147 372 2553 
Q 372 3047 722 3315 
Q 1072 3584 1716 3584 
Q 2034 3584 2315 3537 
Q 2597 3491 2834 3397 
z
" transform="scale(0.015625)"/>
       <path id="DejaVuSans-5d" d="M 1947 4863 
L 1947 -844 
L 622 -844 
L 622 -397 
L 1369 -397 
L 1369 4416 
L 622 4416 
L 622 4863 
L 1947 4863 
z
" transform="scale(0.015625)"/>
      </defs>
      <use xlink:href="#DejaVuSans-74"/>
      <use xlink:href="#DejaVuSans-6f" x="39.208984"/>
      <use xlink:href="#DejaVuSans-66" x="100.390625"/>
      <use xlink:href="#DejaVuSans-20" x="135.595703"/>
      <use xlink:href="#DejaVuSans-5b" x="167.382812"/>
      <use xlink:href="#DejaVuSans-73" x="206.396484"/>
      <use xlink:href="#DejaVuSans-5d" x="258.496094"/>
     </g>
    </g>
   </g>
   <g id="matplotlib.axis_2">
    <g id="ytick_1">
     <g id="line2d_9">
      <defs>
       <path id="m631a894fd0" d="M 0 0 
L -3.5 0 
" style="stroke: #000000; stroke-width: 0.8"/>
      </defs>
      <g>
       <use xlink:href="#m631a894fd0" x="46.965625" y="219.284819" style="stroke: #000000; stroke-width: 0.8"/>
      </g>
     </g>
     <g id="text_10">
      <!-- 0 -->
      <g transform="translate(33.603125 223.084038) scale(0.1 -0.1)">
       <use xlink:href="#DejaVuSans-30"/>
      </g>
     </g>
    </g>
    <g id="ytick_2">
     <g id="line2d_10">
      <g>
       <use xlink:href="#m631a894fd0" x="46.965625" y="178.802892" style="stroke: #000000; stroke-width: 0.8"/>
      </g>
     </g>
     <g id="text_11">
      <!-- 100 -->
      <g transform="translate(20.878125 182.60211) scale(0.1 -0.1)">
       <defs>
        <path id="DejaVuSans-31" d="M 794 531 
L 1825 531 
L 1825 4091 
L 703 3866 
L 703 4441 
L 1819 4666 
L 2450 4666 
L 2450 531 
L 3481 531 
L 3481 0 
L 794 0 
L 794 531 
z
" transform="scale(0.015625)"/>
       </defs>
       <use xlink:href="#DejaVuSans-31"/>
       <use xlink:href="#DejaVuSans-30" x="63.623047"/>
       <use xlink:href="#DejaVuSans-30" x="127.246094"/>
      </g>
     </g>
    </g>
    <g id="ytick_3">
     <g id="line2d_11">
      <g>
       <use xlink:href="#m631a894fd0" x="46.965625" y="138.320964" style="stroke: #000000; stroke-width: 0.8"/>
      </g>
     </g>
     <g id="text_12">
      <!-- 200 -->
      <g transform="translate(20.878125 142.120183) scale(0.1 -0.1)">
       <use xlink:href="#DejaVuSans-32"/>
       <use xlink:href="#DejaVuSans-30" x="63.623047"/>
       <use xlink:href="#DejaVuSans-30" x="127.246094"/>
      </g>
     </g>
    </g>
    <g id="ytick_4">
     <g id="line2d_12">
      <g>
       <use xlink:href="#m631a894fd0" x="46.965625" y="97.839036" style="stroke: #000000; stroke-width: 0.8"/>
      </g>
     </g>
     <g id="text_13">
      <!-- 300 -->
      <g transform="translate(20.878125 101.638255) scale(0.1 -0.1)">
       <use xlink:href="#DejaVuSans-33"/>
       <use xlink:href="#DejaVuSans-30" x="63.623047"/>
       <use xlink:href="#DejaVuSans-30" x="127.246094"/>
      </g>
     </g>
    </g>
    <g id="ytick_5">
     <g id="line2d_13">
      <g>
       <use xlink:href="#m631a894fd0" x="46.965625" y="57.357108" style="stroke: #000000; stroke-width: 0.8"/>
      </g>
     </g>
     <g id="text_14">
      <!-- 400 -->
      <g transform="translate(20.878125 61.156327) scale(0.1 -0.1)">
       <use xlink:href="#DejaVuSans-34"/>
       <use xlink:href="#DejaVuSans-30" x="63.623047"/>
       <use xlink:href="#DejaVuSans-30" x="127.246094"/>
      </g>
     </g>
    </g>
    <g id="ytick_6">
     <g id="line2d_14">
      <g>
       <use xlink:href="#m631a894fd0" x="46.965625" y="16.875181" style="stroke: #000000; stroke-width: 0.8"/>
      </g>
     </g>
     <g id="text_15">
      <!-- 500 -->
      <g transform="translate(20.878125 20.674399) scale(0.1 -0.1)">
       <use xlink:href="#DejaVuSans-35"/>
       <use xlink:href="#DejaVuSans-30" x="63.623047"/>
       <use xlink:href="#DejaVuSans-30" x="127.246094"/>
      </g>
     </g>
    </g>
    <g id="text_16">
     <!-- [counts] -->
     <g transform="translate(14.798438 138.6925) rotate(-90) scale(0.1 -0.1)">
      <defs>
       <path id="DejaVuSans-63" d="M 3122 3366 
L 3122 2828 
Q 2878 2963 2633 3030 
Q 2388 3097 2138 3097 
Q 1578 3097 1268 2742 
Q 959 2388 959 1747 
Q 959 1106 1268 751 
Q 1578 397 2138 397 
Q 2388 397 2633 464 
Q 2878 531 3122 666 
L 3122 134 
Q 2881 22 2623 -34 
Q 2366 -91 2075 -91 
Q 1284 -91 818 406 
Q 353 903 353 1747 
Q 353 2603 823 3093 
Q 1294 3584 2113 3584 
Q 2378 3584 2631 3529 
Q 2884 3475 3122 3366 
z
" transform="scale(0.015625)"/>
       <path id="DejaVuSans-75" d="M 544 1381 
L 544 3500 
L 1119 3500 
L 1119 1403 
Q 1119 906 1312 657 
Q 1506 409 1894 409 
Q 2359 409 2629 706 
Q 2900 1003 2900 1516 
L 2900 3500 
L 3475 3500 
L 3475 0 
L 2900 0 
L 2900 538 
Q 2691 219 2414 64 
Q 2138 -91 1772 -91 
Q 1169 -91 856 284 
Q 544 659 544 1381 
z
M 1991 3584 
L 1991 3584 
z
" transform="scale(0.015625)"/>
       <path id="DejaVuSans-6e" d="M 3513 2113 
L 3513 0 
L 2938 0 
L 2938 2094 
Q 2938 2591 2744 2837 
Q 2550 3084 2163 3084 
Q 1697 3084 1428 2787 
Q 1159 2491 1159 1978 
L 1159 0 
L 581 0 
L 581 3500 
L 1159 3500 
L 1159 2956 
Q 1366 3272 1645 3428 
Q 1925 3584 2291 3584 
Q 2894 3584 3203 3211 
Q 3513 2838 3513 2113 
z
" transform="scale(0.015625)"/>
      </defs>
      <use xlink:href="#DejaVuSans-5b"/>
      <use xlink:href="#DejaVuSans-63" x="39.013672"/>
      <use xlink:href="#DejaVuSans-6f" x="93.994141"/>
      <use xlink:href="#DejaVuSans-75" x="155.175781"/>
      <use xlink:href="#DejaVuSans-6e" x="218.554688"/>
      <use xlink:href="#DejaVuSans-74" x="281.933594"/>
      <use xlink:href="#DejaVuSans-73" x="321.142578"/>
      <use xlink:href="#DejaVuSans-5d" x="373.242188"/>
     </g>
    </g>
   </g>
   <g id="patch_3">
    <path d="M 46.965625 228.96 
L 46.965625 7.2 
" style="fill: none; stroke: #000000; stroke-width: 0.8; stroke-linejoin: miter; stroke-linecap: square"/>
   </g>
   <g id="patch_4">
    <path d="M 381.765625 228.96 
L 381.765625 7.2 
" style="fill: none; stroke: #000000; stroke-width: 0.8; stroke-linejoin: miter; stroke-linecap: square"/>
   </g>
   <g id="patch_5">
    <path d="M 46.965625 228.96 
L 381.765625 228.96 
" style="fill: none; stroke: #000000; stroke-width: 0.8; stroke-linejoin: miter; stroke-linecap: square"/>
   </g>
   <g id="patch_6">
    <path d="M 46.965625 7.2 
L 381.765625 7.2 
" style="fill: none; stroke: #000000; stroke-width: 0.8; stroke-linejoin: miter; stroke-linecap: square"/>
   </g>
   <g id="line2d_15">
    <path d="M 62.183807 213.21253 
L 63.198352 213.21253 
L 63.198352 213.617349 
L 64.212898 213.617349 
L 64.212898 204.306506 
L 65.227443 204.306506 
L 65.227443 201.067952 
L 66.241989 201.067952 
L 66.241989 200.663133 
L 67.256534 200.663133 
L 67.256534 189.733012 
L 68.27108 189.733012 
L 68.27108 191.757108 
L 69.285625 191.757108 
L 69.285625 174.34988 
L 70.30017 174.34988 
L 70.30017 173.540241 
L 71.314716 173.540241 
L 71.314716 172.730602 
L 72.329261 172.730602 
L 72.329261 159.776386 
L 73.343807 159.776386 
L 73.343807 161.800482 
L 74.358352 161.800482 
L 74.358352 157.34747 
L 75.372898 157.34747 
L 75.372898 151.68 
L 76.387443 151.68 
L 76.387443 149.251084 
L 77.401989 149.251084 
L 77.401989 141.964337 
L 78.416534 141.964337 
L 78.416534 136.296867 
L 79.43108 136.296867 
L 79.43108 122.128193 
L 80.445625 122.128193 
L 80.445625 117.675181 
L 81.46017 117.675181 
L 81.46017 118.484819 
L 82.474716 118.484819 
L 82.474716 110.388434 
L 83.489261 110.388434 
L 83.489261 122.533012 
L 84.503807 122.533012 
L 84.503807 101.887229 
L 85.518352 101.887229 
L 85.518352 95.005301 
L 86.532898 95.005301 
L 86.532898 86.099277 
L 87.547443 86.099277 
L 87.547443 93.386024 
L 88.561989 93.386024 
L 88.561989 84.884819 
L 89.576534 84.884819 
L 89.576534 69.096867 
L 90.59108 69.096867 
L 90.59108 96.624578 
L 91.605625 96.624578 
L 91.605625 68.287229 
L 92.62017 68.287229 
L 92.62017 71.525783 
L 93.634716 71.525783 
L 93.634716 70.716145 
L 94.649261 70.716145 
L 94.649261 66.263133 
L 95.663807 66.263133 
L 95.663807 66.667952 
L 96.678352 66.667952 
L 96.678352 53.308916 
L 97.692898 53.308916 
L 97.692898 62.619759 
L 98.707443 62.619759 
L 98.707443 48.451084 
L 99.721989 48.451084 
L 99.721989 43.593253 
L 100.736534 43.593253 
L 100.736534 47.641446 
L 101.75108 47.641446 
L 101.75108 41.569157 
L 102.765625 41.569157 
L 102.765625 45.21253 
L 103.78017 45.21253 
L 103.78017 31.853494 
L 104.794716 31.853494 
L 104.794716 33.87759 
L 105.809261 33.87759 
L 105.809261 29.424578 
L 106.823807 29.424578 
L 106.823807 17.28 
L 107.838352 17.28 
L 107.838352 32.258313 
L 108.852898 32.258313 
L 108.852898 23.352289 
L 109.867443 23.352289 
L 109.867443 24.566747 
L 110.881989 24.566747 
L 110.881989 27.400482 
L 111.896534 27.400482 
L 111.896534 25.781205 
L 112.91108 25.781205 
L 112.91108 31.448675 
L 113.925625 31.448675 
L 113.925625 24.566747 
L 114.94017 24.566747 
L 114.94017 30.234217 
L 115.954716 30.234217 
L 115.954716 21.733012 
L 116.969261 21.733012 
L 116.969261 39.140241 
L 117.983807 39.140241 
L 117.983807 24.566747 
L 118.998352 24.566747 
L 118.998352 25.376386 
L 120.012898 25.376386 
L 120.012898 41.164337 
L 121.027443 41.164337 
L 121.027443 30.639036 
L 122.041989 30.639036 
L 122.041989 34.687229 
L 123.056534 34.687229 
L 123.056534 31.043855 
L 124.07108 31.043855 
L 124.07108 48.451084 
L 125.085625 48.451084 
L 125.085625 38.330602 
L 126.10017 38.330602 
L 126.10017 48.451084 
L 127.114716 48.451084 
L 127.114716 46.426988 
L 128.129261 46.426988 
L 128.129261 42.783614 
L 129.143807 42.783614 
L 129.143807 61.000482 
L 130.158352 61.000482 
L 130.158352 48.451084 
L 131.172898 48.451084 
L 131.172898 43.593253 
L 133.201989 43.593253 
L 133.201989 53.713735 
L 134.216534 53.713735 
L 134.216534 55.737831 
L 135.23108 55.737831 
L 135.23108 53.713735 
L 136.245625 53.713735 
L 136.245625 43.188434 
L 137.26017 43.188434 
L 137.26017 51.689639 
L 138.274716 51.689639 
L 138.274716 60.595663 
L 139.289261 60.595663 
L 139.289261 52.904096 
L 140.303807 52.904096 
L 140.303807 48.855904 
L 141.318352 48.855904 
L 141.318352 53.308916 
L 142.332898 53.308916 
L 142.332898 56.54747 
L 143.347443 56.54747 
L 143.347443 65.858313 
L 144.361989 65.858313 
L 144.361989 58.571566 
L 145.376534 58.571566 
L 145.376534 73.14506 
L 146.39108 73.14506 
L 146.39108 52.904096 
L 147.405625 52.904096 
L 147.405625 61.000482 
L 148.42017 61.000482 
L 148.42017 60.595663 
L 149.434716 60.595663 
L 149.434716 52.499277 
L 150.449261 52.499277 
L 150.449261 69.501687 
L 151.463807 69.501687 
L 151.463807 49.665542 
L 152.478352 49.665542 
L 152.478352 71.930602 
L 153.492898 71.930602 
L 153.492898 62.21494 
L 154.507443 62.21494 
L 154.507443 67.88241 
L 155.521989 67.88241 
L 155.521989 69.501687 
L 156.536534 69.501687 
L 156.536534 68.287229 
L 157.55108 68.287229 
L 157.55108 65.858313 
L 158.565625 65.858313 
L 158.565625 73.54988 
L 159.58017 73.54988 
L 159.58017 64.239036 
L 160.594716 64.239036 
L 160.594716 71.930602 
L 161.609261 71.930602 
L 161.609261 73.14506 
L 162.623807 73.14506 
L 162.623807 72.740241 
L 163.638352 72.740241 
L 163.638352 73.14506 
L 164.652898 73.14506 
L 164.652898 78.81253 
L 165.667443 78.81253 
L 165.667443 71.930602 
L 166.681989 71.930602 
L 166.681989 81.646265 
L 167.696534 81.646265 
L 167.696534 65.453494 
L 168.71108 65.453494 
L 168.71108 75.978795 
L 169.725625 75.978795 
L 169.725625 74.359518 
L 170.74017 74.359518 
L 170.74017 85.289639 
L 171.754716 85.289639 
L 171.754716 86.099277 
L 172.769261 86.099277 
L 172.769261 80.026988 
L 173.783807 80.026988 
L 173.783807 79.217349 
L 174.798352 79.217349 
L 174.798352 86.908916 
L 175.812898 86.908916 
L 175.812898 80.431807 
L 176.827443 80.431807 
L 176.827443 86.504096 
L 177.841989 86.504096 
L 177.841989 95.41012 
L 178.856534 95.41012 
L 178.856534 99.863133 
L 179.87108 99.863133 
L 179.87108 104.720964 
L 180.885625 104.720964 
L 180.885625 98.243855 
L 181.90017 98.243855 
L 181.90017 108.769157 
L 182.914716 108.769157 
L 182.914716 114.436627 
L 183.929261 114.436627 
L 183.929261 126.176386 
L 184.943807 126.176386 
L 184.943807 114.031807 
L 185.958352 114.031807 
L 185.958352 121.723373 
L 186.972898 121.723373 
L 186.972898 126.581205 
L 187.987443 126.581205 
L 187.987443 134.272771 
L 189.001989 134.272771 
L 189.001989 144.798072 
L 190.016534 144.798072 
L 190.016534 142.773976 
L 191.03108 142.773976 
L 191.03108 139.130602 
L 192.045625 139.130602 
L 192.045625 141.964337 
L 193.06017 141.964337 
L 193.06017 158.966747 
L 194.074716 158.966747 
L 194.074716 168.68241 
L 195.089261 168.68241 
L 195.089261 169.087229 
L 196.103807 169.087229 
L 196.103807 172.325783 
L 197.118352 172.325783 
L 197.118352 178.802892 
L 198.132898 178.802892 
L 198.132898 178.398072 
L 199.147443 178.398072 
L 199.147443 173.94506 
L 200.161989 173.94506 
L 200.161989 192.161928 
L 201.176534 192.161928 
L 201.176534 188.923373 
L 202.19108 188.923373 
L 202.19108 190.542651 
L 203.205625 190.542651 
L 203.205625 196.61494 
L 204.22017 196.61494 
L 204.22017 194.995663 
L 205.234716 194.995663 
L 205.234716 203.496867 
L 206.249261 203.496867 
L 206.249261 209.973976 
L 207.263807 209.973976 
L 207.263807 211.593253 
L 208.278352 211.593253 
L 208.278352 212.807711 
L 209.292898 212.807711 
L 209.292898 215.236627 
L 210.307443 215.236627 
L 210.307443 215.641446 
L 211.321989 215.641446 
L 211.321989 217.260723 
L 212.336534 217.260723 
L 212.336534 216.451084 
L 213.35108 216.451084 
L 213.35108 211.593253 
L 214.365625 211.593253 
L 214.365625 208.759518 
L 215.38017 208.759518 
L 215.38017 201.87759 
L 216.394716 201.87759 
L 216.394716 201.472771 
L 217.409261 201.472771 
L 217.409261 194.995663 
L 218.423807 194.995663 
L 218.423807 189.328193 
L 219.438352 189.328193 
L 219.438352 188.518554 
L 220.452898 188.518554 
L 220.452898 180.017349 
L 221.467443 180.017349 
L 221.467443 172.730602 
L 222.481989 172.730602 
L 222.481989 171.920964 
L 223.496534 171.920964 
L 223.496534 173.135422 
L 224.51108 173.135422 
L 224.51108 162.61012 
L 225.525625 162.61012 
L 225.525625 164.634217 
L 226.54017 164.634217 
L 226.54017 161.800482 
L 228.569261 161.800482 
L 228.569261 144.393253 
L 229.583807 144.393253 
L 229.583807 147.631807 
L 230.598352 147.631807 
L 230.598352 143.988434 
L 231.612898 143.988434 
L 231.612898 145.607711 
L 232.627443 145.607711 
L 232.627443 142.369157 
L 233.641989 142.369157 
L 233.641989 147.226988 
L 234.656534 147.226988 
L 234.656534 127.795663 
L 235.67108 127.795663 
L 235.67108 133.867952 
L 236.685625 133.867952 
L 236.685625 124.961928 
L 237.70017 124.961928 
L 237.70017 127.795663 
L 238.714716 127.795663 
L 238.714716 115.246265 
L 239.729261 115.246265 
L 239.729261 122.937831 
L 240.743807 122.937831 
L 240.743807 116.865542 
L 241.758352 116.865542 
L 241.758352 124.152289 
L 242.772898 124.152289 
L 242.772898 121.318554 
L 243.787443 121.318554 
L 243.787443 119.699277 
L 244.801989 119.699277 
L 244.801989 113.626988 
L 245.816534 113.626988 
L 245.816534 105.125783 
L 246.83108 105.125783 
L 246.83108 122.128193 
L 247.845625 122.128193 
L 247.845625 114.436627 
L 248.86017 114.436627 
L 248.86017 103.101687 
L 249.874716 103.101687 
L 249.874716 84.075181 
L 250.889261 84.075181 
L 250.889261 93.386024 
L 251.903807 93.386024 
L 251.903807 94.600482 
L 252.918352 94.600482 
L 252.918352 90.957108 
L 253.932898 90.957108 
L 253.932898 103.911325 
L 254.947443 103.911325 
L 254.947443 71.525783 
L 255.961989 71.525783 
L 255.961989 86.504096 
L 256.976534 86.504096 
L 256.976534 92.171566 
L 257.99108 92.171566 
L 257.99108 86.908916 
L 259.005625 86.908916 
L 259.005625 86.504096 
L 261.034716 86.504096 
L 261.034716 85.694458 
L 262.049261 85.694458 
L 262.049261 76.788434 
L 263.063807 76.788434 
L 263.063807 99.863133 
L 264.078352 99.863133 
L 264.078352 83.670361 
L 265.092898 83.670361 
L 265.092898 97.029398 
L 266.107443 97.029398 
L 266.107443 89.337831 
L 267.121989 89.337831 
L 267.121989 91.361928 
L 268.136534 91.361928 
L 268.136534 91.766747 
L 269.15108 91.766747 
L 269.15108 84.884819 
L 270.165625 84.884819 
L 270.165625 89.742651 
L 271.18017 89.742651 
L 271.18017 100.267952 
L 272.194716 100.267952 
L 272.194716 97.839036 
L 273.209261 97.839036 
L 273.209261 109.173976 
L 274.223807 109.173976 
L 274.223807 103.506506 
L 275.238352 103.506506 
L 275.238352 95.41012 
L 276.252898 95.41012 
L 276.252898 106.340241 
L 277.267443 106.340241 
L 277.267443 107.554699 
L 278.281989 107.554699 
L 278.281989 103.911325 
L 279.296534 103.911325 
L 279.296534 96.219759 
L 280.31108 96.219759 
L 280.31108 104.316145 
L 281.325625 104.316145 
L 281.325625 107.959518 
L 282.34017 107.959518 
L 282.34017 100.672771 
L 284.369261 100.672771 
L 284.369261 100.267952 
L 285.383807 100.267952 
L 285.383807 105.935422 
L 286.398352 105.935422 
L 286.398352 114.436627 
L 287.412898 114.436627 
L 287.412898 118.484819 
L 288.427443 118.484819 
L 288.427443 110.388434 
L 289.441989 110.388434 
L 289.441989 120.913735 
L 290.456534 120.913735 
L 290.456534 118.889639 
L 291.47108 118.889639 
L 291.47108 124.557108 
L 292.485625 124.557108 
L 292.485625 122.128193 
L 293.50017 122.128193 
L 293.50017 122.533012 
L 294.514716 122.533012 
L 294.514716 115.651084 
L 295.529261 115.651084 
L 295.529261 118.484819 
L 296.543807 118.484819 
L 296.543807 126.176386 
L 297.558352 126.176386 
L 297.558352 128.200482 
L 298.572898 128.200482 
L 298.572898 133.867952 
L 299.587443 133.867952 
L 299.587443 144.798072 
L 300.601989 144.798072 
L 300.601989 128.605301 
L 301.616534 128.605301 
L 301.616534 134.67759 
L 302.63108 134.67759 
L 302.63108 125.771566 
L 303.645625 125.771566 
L 303.645625 140.34506 
L 304.66017 140.34506 
L 304.66017 137.511325 
L 305.674716 137.511325 
L 305.674716 129.819759 
L 306.689261 129.819759 
L 306.689261 140.34506 
L 307.703807 140.34506 
L 307.703807 137.106506 
L 308.718352 137.106506 
L 308.718352 124.961928 
L 309.732898 124.961928 
L 309.732898 139.940241 
L 310.747443 139.940241 
L 310.747443 141.559518 
L 311.761989 141.559518 
L 311.761989 144.798072 
L 312.776534 144.798072 
L 312.776534 139.940241 
L 313.79108 139.940241 
L 313.79108 146.417349 
L 314.805625 146.417349 
L 314.805625 150.060723 
L 316.834716 150.060723 
L 316.834716 139.130602 
L 317.849261 139.130602 
L 317.849261 157.752289 
L 318.863807 157.752289 
L 318.863807 152.894458 
L 319.878352 152.894458 
L 319.878352 149.251084 
L 320.892898 149.251084 
L 320.892898 153.299277 
L 321.907443 153.299277 
L 321.907443 158.157108 
L 322.921989 158.157108 
L 322.921989 148.036627 
L 323.936534 148.036627 
L 323.936534 158.157108 
L 324.95108 158.157108 
L 324.95108 168.27759 
L 325.965625 168.27759 
L 325.965625 162.61012 
L 326.98017 162.61012 
L 326.98017 157.34747 
L 327.994716 157.34747 
L 327.994716 161.395663 
L 329.009261 161.395663 
L 329.009261 168.27759 
L 330.023807 168.27759 
L 330.023807 166.253494 
L 331.038352 166.253494 
L 331.038352 166.658313 
L 332.052898 166.658313 
L 332.052898 171.920964 
L 333.067443 171.920964 
L 333.067443 176.778795 
L 334.081989 176.778795 
L 334.081989 169.087229 
L 335.096534 169.087229 
L 335.096534 179.207711 
L 336.11108 179.207711 
L 336.11108 180.422169 
L 337.125625 180.422169 
L 337.125625 177.588434 
L 338.14017 177.588434 
L 338.14017 180.017349 
L 339.154716 180.017349 
L 339.154716 181.636627 
L 340.169261 181.636627 
L 340.169261 192.566747 
L 341.183807 192.566747 
L 341.183807 187.708916 
L 342.198352 187.708916 
L 342.198352 194.186024 
L 343.212898 194.186024 
L 343.212898 189.733012 
L 344.227443 189.733012 
L 344.227443 200.258313 
L 345.241989 200.258313 
L 345.241989 196.61494 
L 346.256534 196.61494 
L 346.256534 198.639036 
L 347.27108 198.639036 
L 347.27108 203.901687 
L 348.285625 203.901687 
L 348.285625 204.306506 
L 349.30017 204.306506 
L 349.30017 206.735422 
L 351.329261 206.735422 
L 351.329261 207.94988 
L 352.343807 207.94988 
L 352.343807 211.998072 
L 353.358352 211.998072 
L 353.358352 212.807711 
L 354.372898 212.807711 
L 354.372898 209.569157 
L 355.387443 209.569157 
L 355.387443 211.998072 
L 356.401989 211.998072 
L 356.401989 209.569157 
L 357.416534 209.569157 
L 357.416534 212.402892 
L 358.43108 212.402892 
L 358.43108 216.855904 
L 359.445625 216.855904 
L 359.445625 214.426988 
L 360.46017 214.426988 
L 360.46017 217.665542 
L 361.474716 217.665542 
L 361.474716 217.260723 
L 364.518352 217.260723 
L 364.518352 218.475181 
L 365.532898 218.475181 
L 365.532898 218.88 
L 366.547443 218.88 
L 366.547443 218.88 
" clip-path="url(#p9cb4f067f8)" style="fill: none; stroke: #1f77b4; stroke-width: 1.5; stroke-linecap: square"/>
   </g>
  </g>
 </g>
 <defs>
  <clipPath id="p9cb4f067f8">
   <rect x="46.965625" y="7.2" width="334.8" height="221.76"/>
  </clipPath>
 </defs>
</svg>
