<?xml version="1.0" encoding="UTF-8" standalone="no"?>
<!DOCTYPE svg PUBLIC "-//W3C//DTD SVG 1.1//EN"
 "http://www.w3.org/Graphics/SVG/1.1/DTD/svg11.dtd">
<!-- Generated by graphviz version 7.1.0 (20230122.1345)
 -->
<!-- Pages: 1 -->
<svg width="328pt" height="90pt"
 viewBox="0.00 0.00 328.00 90.00" xmlns="http://www.w3.org/2000/svg" xmlns:xlink="http://www.w3.org/1999/xlink">
<g id="graph0" class="graph" transform="scale(1 1) rotate(0) translate(4 86)">
<polygon fill="white" stroke="none" points="-4,4 -4,-86 324,-86 324,4 -4,4"/>
<!-- tof -->
<g id="node1" class="node">
<title>tof</title>
<polygon fill="none" stroke="black" points="54,-82 0,-82 0,-59 54,-59 54,-82"/>
<text text-anchor="middle" x="27" y="-66.8" font-family="Times,serif" font-size="14.00">tof</text>
</g>
<!-- energy_transfer -->
<g id="node2" class="node">
<title>energy_transfer</title>
<polygon fill="none" stroke="black" points="200.5,-23 69.5,-23 69.5,0 200.5,0 200.5,-23"/>
<text text-anchor="middle" x="135" y="-7.8" font-family="Times,serif" font-size="14.00">energy_transfer</text>
</g>
<!-- tof&#45;&gt;energy_transfer -->
<g id="edge1" class="edge">
<title>tof&#45;&gt;energy_transfer</title>
<path fill="none" stroke="black" d="M47.82,-58.51C63.81,-50.07 86.13,-38.29 104.18,-28.76"/>
<polygon fill="black" stroke="black" points="105.69,-31.93 112.9,-24.16 102.42,-25.74 105.69,-31.93"/>
</g>
<!-- L1 -->
<g id="node3" class="node">
<title>L1</title>
<polygon fill="none" stroke="black" points="126,-82 72,-82 72,-59 126,-59 126,-82"/>
<text text-anchor="middle" x="99" y="-66.8" font-family="Times,serif" font-size="14.00">L1</text>
</g>
<!-- L1&#45;&gt;energy_transfer -->
<g id="edge2" class="edge">
<title>L1&#45;&gt;energy_transfer</title>
<path fill="none" stroke="black" d="M105.94,-58.51C110.47,-51.33 116.53,-41.74 121.94,-33.17"/>
<polygon fill="black" stroke="black" points="124.89,-35.06 127.27,-24.74 118.97,-31.32 124.89,-35.06"/>
</g>
<!-- L2 -->
<g id="node4" class="node">
<title>L2</title>
<polygon fill="none" stroke="black" points="198,-82 144,-82 144,-59 198,-59 198,-82"/>
<text text-anchor="middle" x="171" y="-66.8" font-family="Times,serif" font-size="14.00">L2</text>
</g>
<!-- L2&#45;&gt;energy_transfer -->
<g id="edge3" class="edge">
<title>L2&#45;&gt;energy_transfer</title>
<path fill="none" stroke="black" d="M164.06,-58.51C159.53,-51.33 153.47,-41.74 148.06,-33.17"/>
<polygon fill="black" stroke="black" points="151.03,-31.32 142.73,-24.74 145.11,-35.06 151.03,-31.32"/>
</g>
<!-- final_energy -->
<g id="node5" class="node">
<title>final_energy</title>
<polygon fill="none" stroke="black" points="320,-82 216,-82 216,-59 320,-59 320,-82"/>
<text text-anchor="middle" x="268" y="-66.8" font-family="Times,serif" font-size="14.00">final_energy</text>
</g>
<!-- final_energy&#45;&gt;energy_transfer -->
<g id="edge4" class="edge">
<title>final_energy&#45;&gt;energy_transfer</title>
<path fill="none" stroke="black" d="M242.36,-58.51C222.12,-49.84 193.63,-37.63 171.09,-27.97"/>
<polygon fill="black" stroke="black" points="172.53,-24.77 161.96,-24.05 169.77,-31.21 172.53,-24.77"/>
</g>
</g>
</svg>
