<?xml version="1.0" encoding="utf-8" standalone="no"?>
<!DOCTYPE svg PUBLIC "-//W3C//DTD SVG 1.1//EN"
  "http://www.w3.org/Graphics/SVG/1.1/DTD/svg11.dtd">
<svg xmlns:xlink="http://www.w3.org/1999/xlink" width="395.328125pt" height="266.51625pt" viewBox="0 0 395.328125 266.51625" xmlns="http://www.w3.org/2000/svg" version="1.1">
 <metadata>
  <rdf:RDF xmlns:dc="http://purl.org/dc/elements/1.1/" xmlns:cc="http://creativecommons.org/ns#" xmlns:rdf="http://www.w3.org/1999/02/22-rdf-syntax-ns#">
   <cc:Work>
    <dc:type rdf:resource="http://purl.org/dc/dcmitype/StillImage"/>
    <dc:date>2024-12-12T12:31:02.362463</dc:date>
    <dc:format>image/svg+xml</dc:format>
    <dc:creator>
     <cc:Agent>
      <dc:title>Matplotlib v3.7.3, https://matplotlib.org/</dc:title>
     </cc:Agent>
    </dc:creator>
   </cc:Work>
  </rdf:RDF>
 </metadata>
 <defs>
  <style type="text/css">*{stroke-linejoin: round; stroke-linecap: butt}</style>
 </defs>
 <g id="figure_1">
  <g id="patch_1">
   <path d="M 0 266.51625 
L 395.328125 266.51625 
L 395.328125 0 
L 0 0 
z
" style="fill: #ffffff"/>
  </g>
  <g id="axes_1">
   <g id="patch_2">
    <path d="M 53.328125 228.96 
L 388.128125 228.96 
L 388.128125 7.2 
L 53.328125 7.2 
z
" style="fill: #ffffff"/>
   </g>
   <g id="matplotlib.axis_1">
    <g id="xtick_1">
     <g id="line2d_1">
      <defs>
       <path id="m634f52a509" d="M 0 0 
L 0 3.5 
" style="stroke: #000000; stroke-width: 0.8"/>
      </defs>
      <g>
       <use xlink:href="#m634f52a509" x="69.129714" y="228.96" style="stroke: #000000; stroke-width: 0.8"/>
      </g>
     </g>
     <g id="text_1">
      <!-- 20000 -->
      <g transform="translate(53.223464 243.558437) scale(0.1 -0.1)">
       <defs>
        <path id="DejaVuSans-32" d="M 1228 531 
L 3431 531 
L 3431 0 
L 469 0 
L 469 531 
Q 828 903 1448 1529 
Q 2069 2156 2228 2338 
Q 2531 2678 2651 2914 
Q 2772 3150 2772 3378 
Q 2772 3750 2511 3984 
Q 2250 4219 1831 4219 
Q 1534 4219 1204 4116 
Q 875 4013 500 3803 
L 500 4441 
Q 881 4594 1212 4672 
Q 1544 4750 1819 4750 
Q 2544 4750 2975 4387 
Q 3406 4025 3406 3419 
Q 3406 3131 3298 2873 
Q 3191 2616 2906 2266 
Q 2828 2175 2409 1742 
Q 1991 1309 1228 531 
z
" transform="scale(0.015625)"/>
        <path id="DejaVuSans-30" d="M 2034 4250 
Q 1547 4250 1301 3770 
Q 1056 3291 1056 2328 
Q 1056 1369 1301 889 
Q 1547 409 2034 409 
Q 2525 409 2770 889 
Q 3016 1369 3016 2328 
Q 3016 3291 2770 3770 
Q 2525 4250 2034 4250 
z
M 2034 4750 
Q 2819 4750 3233 4129 
Q 3647 3509 3647 2328 
Q 3647 1150 3233 529 
Q 2819 -91 2034 -91 
Q 1250 -91 836 529 
Q 422 1150 422 2328 
Q 422 3509 836 4129 
Q 1250 4750 2034 4750 
z
" transform="scale(0.015625)"/>
       </defs>
       <use xlink:href="#DejaVuSans-32"/>
       <use xlink:href="#DejaVuSans-30" x="63.623047"/>
       <use xlink:href="#DejaVuSans-30" x="127.246094"/>
       <use xlink:href="#DejaVuSans-30" x="190.869141"/>
       <use xlink:href="#DejaVuSans-30" x="254.492188"/>
      </g>
     </g>
    </g>
    <g id="xtick_2">
     <g id="line2d_2">
      <g>
       <use xlink:href="#m634f52a509" x="110.379497" y="228.96" style="stroke: #000000; stroke-width: 0.8"/>
      </g>
     </g>
     <g id="text_2">
      <!-- 40000 -->
      <g transform="translate(94.473247 243.558437) scale(0.1 -0.1)">
       <defs>
        <path id="DejaVuSans-34" d="M 2419 4116 
L 825 1625 
L 2419 1625 
L 2419 4116 
z
M 2253 4666 
L 3047 4666 
L 3047 1625 
L 3713 1625 
L 3713 1100 
L 3047 1100 
L 3047 0 
L 2419 0 
L 2419 1100 
L 313 1100 
L 313 1709 
L 2253 4666 
z
" transform="scale(0.015625)"/>
       </defs>
       <use xlink:href="#DejaVuSans-34"/>
       <use xlink:href="#DejaVuSans-30" x="63.623047"/>
       <use xlink:href="#DejaVuSans-30" x="127.246094"/>
       <use xlink:href="#DejaVuSans-30" x="190.869141"/>
       <use xlink:href="#DejaVuSans-30" x="254.492188"/>
      </g>
     </g>
    </g>
    <g id="xtick_3">
     <g id="line2d_3">
      <g>
       <use xlink:href="#m634f52a509" x="151.62928" y="228.96" style="stroke: #000000; stroke-width: 0.8"/>
      </g>
     </g>
     <g id="text_3">
      <!-- 60000 -->
      <g transform="translate(135.72303 243.558437) scale(0.1 -0.1)">
       <defs>
        <path id="DejaVuSans-36" d="M 2113 2584 
Q 1688 2584 1439 2293 
Q 1191 2003 1191 1497 
Q 1191 994 1439 701 
Q 1688 409 2113 409 
Q 2538 409 2786 701 
Q 3034 994 3034 1497 
Q 3034 2003 2786 2293 
Q 2538 2584 2113 2584 
z
M 3366 4563 
L 3366 3988 
Q 3128 4100 2886 4159 
Q 2644 4219 2406 4219 
Q 1781 4219 1451 3797 
Q 1122 3375 1075 2522 
Q 1259 2794 1537 2939 
Q 1816 3084 2150 3084 
Q 2853 3084 3261 2657 
Q 3669 2231 3669 1497 
Q 3669 778 3244 343 
Q 2819 -91 2113 -91 
Q 1303 -91 875 529 
Q 447 1150 447 2328 
Q 447 3434 972 4092 
Q 1497 4750 2381 4750 
Q 2619 4750 2861 4703 
Q 3103 4656 3366 4563 
z
" transform="scale(0.015625)"/>
       </defs>
       <use xlink:href="#DejaVuSans-36"/>
       <use xlink:href="#DejaVuSans-30" x="63.623047"/>
       <use xlink:href="#DejaVuSans-30" x="127.246094"/>
       <use xlink:href="#DejaVuSans-30" x="190.869141"/>
       <use xlink:href="#DejaVuSans-30" x="254.492188"/>
      </g>
     </g>
    </g>
    <g id="xtick_4">
     <g id="line2d_4">
      <g>
       <use xlink:href="#m634f52a509" x="192.879063" y="228.96" style="stroke: #000000; stroke-width: 0.8"/>
      </g>
     </g>
     <g id="text_4">
      <!-- 80000 -->
      <g transform="translate(176.972813 243.558437) scale(0.1 -0.1)">
       <defs>
        <path id="DejaVuSans-38" d="M 2034 2216 
Q 1584 2216 1326 1975 
Q 1069 1734 1069 1313 
Q 1069 891 1326 650 
Q 1584 409 2034 409 
Q 2484 409 2743 651 
Q 3003 894 3003 1313 
Q 3003 1734 2745 1975 
Q 2488 2216 2034 2216 
z
M 1403 2484 
Q 997 2584 770 2862 
Q 544 3141 544 3541 
Q 544 4100 942 4425 
Q 1341 4750 2034 4750 
Q 2731 4750 3128 4425 
Q 3525 4100 3525 3541 
Q 3525 3141 3298 2862 
Q 3072 2584 2669 2484 
Q 3125 2378 3379 2068 
Q 3634 1759 3634 1313 
Q 3634 634 3220 271 
Q 2806 -91 2034 -91 
Q 1263 -91 848 271 
Q 434 634 434 1313 
Q 434 1759 690 2068 
Q 947 2378 1403 2484 
z
M 1172 3481 
Q 1172 3119 1398 2916 
Q 1625 2713 2034 2713 
Q 2441 2713 2670 2916 
Q 2900 3119 2900 3481 
Q 2900 3844 2670 4047 
Q 2441 4250 2034 4250 
Q 1625 4250 1398 4047 
Q 1172 3844 1172 3481 
z
" transform="scale(0.015625)"/>
       </defs>
       <use xlink:href="#DejaVuSans-38"/>
       <use xlink:href="#DejaVuSans-30" x="63.623047"/>
       <use xlink:href="#DejaVuSans-30" x="127.246094"/>
       <use xlink:href="#DejaVuSans-30" x="190.869141"/>
       <use xlink:href="#DejaVuSans-30" x="254.492188"/>
      </g>
     </g>
    </g>
    <g id="xtick_5">
     <g id="line2d_5">
      <g>
       <use xlink:href="#m634f52a509" x="234.128846" y="228.96" style="stroke: #000000; stroke-width: 0.8"/>
      </g>
     </g>
     <g id="text_5">
      <!-- 100000 -->
      <g transform="translate(215.041346 243.558437) scale(0.1 -0.1)">
       <defs>
        <path id="DejaVuSans-31" d="M 794 531 
L 1825 531 
L 1825 4091 
L 703 3866 
L 703 4441 
L 1819 4666 
L 2450 4666 
L 2450 531 
L 3481 531 
L 3481 0 
L 794 0 
L 794 531 
z
" transform="scale(0.015625)"/>
       </defs>
       <use xlink:href="#DejaVuSans-31"/>
       <use xlink:href="#DejaVuSans-30" x="63.623047"/>
       <use xlink:href="#DejaVuSans-30" x="127.246094"/>
       <use xlink:href="#DejaVuSans-30" x="190.869141"/>
       <use xlink:href="#DejaVuSans-30" x="254.492188"/>
       <use xlink:href="#DejaVuSans-30" x="318.115234"/>
      </g>
     </g>
    </g>
    <g id="xtick_6">
     <g id="line2d_6">
      <g>
       <use xlink:href="#m634f52a509" x="275.378629" y="228.96" style="stroke: #000000; stroke-width: 0.8"/>
      </g>
     </g>
     <g id="text_6">
      <!-- 120000 -->
      <g transform="translate(256.291129 243.558437) scale(0.1 -0.1)">
       <use xlink:href="#DejaVuSans-31"/>
       <use xlink:href="#DejaVuSans-32" x="63.623047"/>
       <use xlink:href="#DejaVuSans-30" x="127.246094"/>
       <use xlink:href="#DejaVuSans-30" x="190.869141"/>
       <use xlink:href="#DejaVuSans-30" x="254.492188"/>
       <use xlink:href="#DejaVuSans-30" x="318.115234"/>
      </g>
     </g>
    </g>
    <g id="xtick_7">
     <g id="line2d_7">
      <g>
       <use xlink:href="#m634f52a509" x="316.628412" y="228.96" style="stroke: #000000; stroke-width: 0.8"/>
      </g>
     </g>
     <g id="text_7">
      <!-- 140000 -->
      <g transform="translate(297.540912 243.558437) scale(0.1 -0.1)">
       <use xlink:href="#DejaVuSans-31"/>
       <use xlink:href="#DejaVuSans-34" x="63.623047"/>
       <use xlink:href="#DejaVuSans-30" x="127.246094"/>
       <use xlink:href="#DejaVuSans-30" x="190.869141"/>
       <use xlink:href="#DejaVuSans-30" x="254.492188"/>
       <use xlink:href="#DejaVuSans-30" x="318.115234"/>
      </g>
     </g>
    </g>
    <g id="xtick_8">
     <g id="line2d_8">
      <g>
       <use xlink:href="#m634f52a509" x="357.878195" y="228.96" style="stroke: #000000; stroke-width: 0.8"/>
      </g>
     </g>
     <g id="text_8">
      <!-- 160000 -->
      <g transform="translate(338.790695 243.558437) scale(0.1 -0.1)">
       <use xlink:href="#DejaVuSans-31"/>
       <use xlink:href="#DejaVuSans-36" x="63.623047"/>
       <use xlink:href="#DejaVuSans-30" x="127.246094"/>
       <use xlink:href="#DejaVuSans-30" x="190.869141"/>
       <use xlink:href="#DejaVuSans-30" x="254.492188"/>
       <use xlink:href="#DejaVuSans-30" x="318.115234"/>
      </g>
     </g>
    </g>
    <g id="text_9">
     <!-- tof [µs] -->
     <g transform="translate(202.671875 257.236562) scale(0.1 -0.1)">
      <defs>
       <path id="DejaVuSans-74" d="M 1172 4494 
L 1172 3500 
L 2356 3500 
L 2356 3053 
L 1172 3053 
L 1172 1153 
Q 1172 725 1289 603 
Q 1406 481 1766 481 
L 2356 481 
L 2356 0 
L 1766 0 
Q 1100 0 847 248 
Q 594 497 594 1153 
L 594 3053 
L 172 3053 
L 172 3500 
L 594 3500 
L 594 4494 
L 1172 4494 
z
" transform="scale(0.015625)"/>
       <path id="DejaVuSans-6f" d="M 1959 3097 
Q 1497 3097 1228 2736 
Q 959 2375 959 1747 
Q 959 1119 1226 758 
Q 1494 397 1959 397 
Q 2419 397 2687 759 
Q 2956 1122 2956 1747 
Q 2956 2369 2687 2733 
Q 2419 3097 1959 3097 
z
M 1959 3584 
Q 2709 3584 3137 3096 
Q 3566 2609 3566 1747 
Q 3566 888 3137 398 
Q 2709 -91 1959 -91 
Q 1206 -91 779 398 
Q 353 888 353 1747 
Q 353 2609 779 3096 
Q 1206 3584 1959 3584 
z
" transform="scale(0.015625)"/>
       <path id="DejaVuSans-66" d="M 2375 4863 
L 2375 4384 
L 1825 4384 
Q 1516 4384 1395 4259 
Q 1275 4134 1275 3809 
L 1275 3500 
L 2222 3500 
L 2222 3053 
L 1275 3053 
L 1275 0 
L 697 0 
L 697 3053 
L 147 3053 
L 147 3500 
L 697 3500 
L 697 3744 
Q 697 4328 969 4595 
Q 1241 4863 1831 4863 
L 2375 4863 
z
" transform="scale(0.015625)"/>
       <path id="DejaVuSans-20" transform="scale(0.015625)"/>
       <path id="DejaVuSans-5b" d="M 550 4863 
L 1875 4863 
L 1875 4416 
L 1125 4416 
L 1125 -397 
L 1875 -397 
L 1875 -844 
L 550 -844 
L 550 4863 
z
" transform="scale(0.015625)"/>
       <path id="DejaVuSans-b5" d="M 544 -1331 
L 544 3500 
L 1119 3500 
L 1119 1325 
Q 1119 872 1334 640 
Q 1550 409 1972 409 
Q 2434 409 2667 671 
Q 2900 934 2900 1459 
L 2900 3500 
L 3475 3500 
L 3475 806 
Q 3475 619 3529 530 
Q 3584 441 3700 441 
Q 3728 441 3778 458 
Q 3828 475 3916 513 
L 3916 50 
Q 3788 -22 3673 -56 
Q 3559 -91 3450 -91 
Q 3234 -91 3106 31 
Q 2978 153 2931 403 
Q 2775 156 2548 32 
Q 2322 -91 2016 -91 
Q 1697 -91 1473 31 
Q 1250 153 1119 397 
L 1119 -1331 
L 544 -1331 
z
" transform="scale(0.015625)"/>
       <path id="DejaVuSans-73" d="M 2834 3397 
L 2834 2853 
Q 2591 2978 2328 3040 
Q 2066 3103 1784 3103 
Q 1356 3103 1142 2972 
Q 928 2841 928 2578 
Q 928 2378 1081 2264 
Q 1234 2150 1697 2047 
L 1894 2003 
Q 2506 1872 2764 1633 
Q 3022 1394 3022 966 
Q 3022 478 2636 193 
Q 2250 -91 1575 -91 
Q 1294 -91 989 -36 
Q 684 19 347 128 
L 347 722 
Q 666 556 975 473 
Q 1284 391 1588 391 
Q 1994 391 2212 530 
Q 2431 669 2431 922 
Q 2431 1156 2273 1281 
Q 2116 1406 1581 1522 
L 1381 1569 
Q 847 1681 609 1914 
Q 372 2147 372 2553 
Q 372 3047 722 3315 
Q 1072 3584 1716 3584 
Q 2034 3584 2315 3537 
Q 2597 3491 2834 3397 
z
" transform="scale(0.015625)"/>
       <path id="DejaVuSans-5d" d="M 1947 4863 
L 1947 -844 
L 622 -844 
L 622 -397 
L 1369 -397 
L 1369 4416 
L 622 4416 
L 622 4863 
L 1947 4863 
z
" transform="scale(0.015625)"/>
      </defs>
      <use xlink:href="#DejaVuSans-74"/>
      <use xlink:href="#DejaVuSans-6f" x="39.208984"/>
      <use xlink:href="#DejaVuSans-66" x="100.390625"/>
      <use xlink:href="#DejaVuSans-20" x="135.595703"/>
      <use xlink:href="#DejaVuSans-5b" x="167.382812"/>
      <use xlink:href="#DejaVuSans-b5" x="206.396484"/>
      <use xlink:href="#DejaVuSans-73" x="270.019531"/>
      <use xlink:href="#DejaVuSans-5d" x="322.119141"/>
     </g>
    </g>
   </g>
   <g id="matplotlib.axis_2">
    <g id="ytick_1">
     <g id="line2d_9">
      <defs>
       <path id="mac88ade556" d="M 0 0 
L -3.5 0 
" style="stroke: #000000; stroke-width: 0.8"/>
      </defs>
      <g>
       <use xlink:href="#mac88ade556" x="53.328125" y="218.933067" style="stroke: #000000; stroke-width: 0.8"/>
      </g>
     </g>
     <g id="text_10">
      <!-- 0 -->
      <g transform="translate(39.965625 222.732285) scale(0.1 -0.1)">
       <use xlink:href="#DejaVuSans-30"/>
      </g>
     </g>
    </g>
    <g id="ytick_2">
     <g id="line2d_10">
      <g>
       <use xlink:href="#mac88ade556" x="53.328125" y="192.399768" style="stroke: #000000; stroke-width: 0.8"/>
      </g>
     </g>
     <g id="text_11">
      <!-- 500 -->
      <g transform="translate(27.240625 196.198987) scale(0.1 -0.1)">
       <defs>
        <path id="DejaVuSans-35" d="M 691 4666 
L 3169 4666 
L 3169 4134 
L 1269 4134 
L 1269 2991 
Q 1406 3038 1543 3061 
Q 1681 3084 1819 3084 
Q 2600 3084 3056 2656 
Q 3513 2228 3513 1497 
Q 3513 744 3044 326 
Q 2575 -91 1722 -91 
Q 1428 -91 1123 -41 
Q 819 9 494 109 
L 494 744 
Q 775 591 1075 516 
Q 1375 441 1709 441 
Q 2250 441 2565 725 
Q 2881 1009 2881 1497 
Q 2881 1984 2565 2268 
Q 2250 2553 1709 2553 
Q 1456 2553 1204 2497 
Q 953 2441 691 2322 
L 691 4666 
z
" transform="scale(0.015625)"/>
       </defs>
       <use xlink:href="#DejaVuSans-35"/>
       <use xlink:href="#DejaVuSans-30" x="63.623047"/>
       <use xlink:href="#DejaVuSans-30" x="127.246094"/>
      </g>
     </g>
    </g>
    <g id="ytick_3">
     <g id="line2d_11">
      <g>
       <use xlink:href="#mac88ade556" x="53.328125" y="165.86647" style="stroke: #000000; stroke-width: 0.8"/>
      </g>
     </g>
     <g id="text_12">
      <!-- 1000 -->
      <g transform="translate(20.878125 169.665689) scale(0.1 -0.1)">
       <use xlink:href="#DejaVuSans-31"/>
       <use xlink:href="#DejaVuSans-30" x="63.623047"/>
       <use xlink:href="#DejaVuSans-30" x="127.246094"/>
       <use xlink:href="#DejaVuSans-30" x="190.869141"/>
      </g>
     </g>
    </g>
    <g id="ytick_4">
     <g id="line2d_12">
      <g>
       <use xlink:href="#mac88ade556" x="53.328125" y="139.333172" style="stroke: #000000; stroke-width: 0.8"/>
      </g>
     </g>
     <g id="text_13">
      <!-- 1500 -->
      <g transform="translate(20.878125 143.132391) scale(0.1 -0.1)">
       <use xlink:href="#DejaVuSans-31"/>
       <use xlink:href="#DejaVuSans-35" x="63.623047"/>
       <use xlink:href="#DejaVuSans-30" x="127.246094"/>
       <use xlink:href="#DejaVuSans-30" x="190.869141"/>
      </g>
     </g>
    </g>
    <g id="ytick_5">
     <g id="line2d_13">
      <g>
       <use xlink:href="#mac88ade556" x="53.328125" y="112.799874" style="stroke: #000000; stroke-width: 0.8"/>
      </g>
     </g>
     <g id="text_14">
      <!-- 2000 -->
      <g transform="translate(20.878125 116.599092) scale(0.1 -0.1)">
       <use xlink:href="#DejaVuSans-32"/>
       <use xlink:href="#DejaVuSans-30" x="63.623047"/>
       <use xlink:href="#DejaVuSans-30" x="127.246094"/>
       <use xlink:href="#DejaVuSans-30" x="190.869141"/>
      </g>
     </g>
    </g>
    <g id="ytick_6">
     <g id="line2d_14">
      <g>
       <use xlink:href="#mac88ade556" x="53.328125" y="86.266575" style="stroke: #000000; stroke-width: 0.8"/>
      </g>
     </g>
     <g id="text_15">
      <!-- 2500 -->
      <g transform="translate(20.878125 90.065794) scale(0.1 -0.1)">
       <use xlink:href="#DejaVuSans-32"/>
       <use xlink:href="#DejaVuSans-35" x="63.623047"/>
       <use xlink:href="#DejaVuSans-30" x="127.246094"/>
       <use xlink:href="#DejaVuSans-30" x="190.869141"/>
      </g>
     </g>
    </g>
    <g id="ytick_7">
     <g id="line2d_15">
      <g>
       <use xlink:href="#mac88ade556" x="53.328125" y="59.733277" style="stroke: #000000; stroke-width: 0.8"/>
      </g>
     </g>
     <g id="text_16">
      <!-- 3000 -->
      <g transform="translate(20.878125 63.532496) scale(0.1 -0.1)">
       <defs>
        <path id="DejaVuSans-33" d="M 2597 2516 
Q 3050 2419 3304 2112 
Q 3559 1806 3559 1356 
Q 3559 666 3084 287 
Q 2609 -91 1734 -91 
Q 1441 -91 1130 -33 
Q 819 25 488 141 
L 488 750 
Q 750 597 1062 519 
Q 1375 441 1716 441 
Q 2309 441 2620 675 
Q 2931 909 2931 1356 
Q 2931 1769 2642 2001 
Q 2353 2234 1838 2234 
L 1294 2234 
L 1294 2753 
L 1863 2753 
Q 2328 2753 2575 2939 
Q 2822 3125 2822 3475 
Q 2822 3834 2567 4026 
Q 2313 4219 1838 4219 
Q 1578 4219 1281 4162 
Q 984 4106 628 3988 
L 628 4550 
Q 988 4650 1302 4700 
Q 1616 4750 1894 4750 
Q 2613 4750 3031 4423 
Q 3450 4097 3450 3541 
Q 3450 3153 3228 2886 
Q 3006 2619 2597 2516 
z
" transform="scale(0.015625)"/>
       </defs>
       <use xlink:href="#DejaVuSans-33"/>
       <use xlink:href="#DejaVuSans-30" x="63.623047"/>
       <use xlink:href="#DejaVuSans-30" x="127.246094"/>
       <use xlink:href="#DejaVuSans-30" x="190.869141"/>
      </g>
     </g>
    </g>
    <g id="ytick_8">
     <g id="line2d_16">
      <g>
       <use xlink:href="#mac88ade556" x="53.328125" y="33.199979" style="stroke: #000000; stroke-width: 0.8"/>
      </g>
     </g>
     <g id="text_17">
      <!-- 3500 -->
      <g transform="translate(20.878125 36.999198) scale(0.1 -0.1)">
       <use xlink:href="#DejaVuSans-33"/>
       <use xlink:href="#DejaVuSans-35" x="63.623047"/>
       <use xlink:href="#DejaVuSans-30" x="127.246094"/>
       <use xlink:href="#DejaVuSans-30" x="190.869141"/>
      </g>
     </g>
    </g>
    <g id="text_18">
     <!-- [counts] -->
     <g transform="translate(14.798438 138.6925) rotate(-90) scale(0.1 -0.1)">
      <defs>
       <path id="DejaVuSans-63" d="M 3122 3366 
L 3122 2828 
Q 2878 2963 2633 3030 
Q 2388 3097 2138 3097 
Q 1578 3097 1268 2742 
Q 959 2388 959 1747 
Q 959 1106 1268 751 
Q 1578 397 2138 397 
Q 2388 397 2633 464 
Q 2878 531 3122 666 
L 3122 134 
Q 2881 22 2623 -34 
Q 2366 -91 2075 -91 
Q 1284 -91 818 406 
Q 353 903 353 1747 
Q 353 2603 823 3093 
Q 1294 3584 2113 3584 
Q 2378 3584 2631 3529 
Q 2884 3475 3122 3366 
z
" transform="scale(0.015625)"/>
       <path id="DejaVuSans-75" d="M 544 1381 
L 544 3500 
L 1119 3500 
L 1119 1403 
Q 1119 906 1312 657 
Q 1506 409 1894 409 
Q 2359 409 2629 706 
Q 2900 1003 2900 1516 
L 2900 3500 
L 3475 3500 
L 3475 0 
L 2900 0 
L 2900 538 
Q 2691 219 2414 64 
Q 2138 -91 1772 -91 
Q 1169 -91 856 284 
Q 544 659 544 1381 
z
M 1991 3584 
L 1991 3584 
z
" transform="scale(0.015625)"/>
       <path id="DejaVuSans-6e" d="M 3513 2113 
L 3513 0 
L 2938 0 
L 2938 2094 
Q 2938 2591 2744 2837 
Q 2550 3084 2163 3084 
Q 1697 3084 1428 2787 
Q 1159 2491 1159 1978 
L 1159 0 
L 581 0 
L 581 3500 
L 1159 3500 
L 1159 2956 
Q 1366 3272 1645 3428 
Q 1925 3584 2291 3584 
Q 2894 3584 3203 3211 
Q 3513 2838 3513 2113 
z
" transform="scale(0.015625)"/>
      </defs>
      <use xlink:href="#DejaVuSans-5b"/>
      <use xlink:href="#DejaVuSans-63" x="39.013672"/>
      <use xlink:href="#DejaVuSans-6f" x="93.994141"/>
      <use xlink:href="#DejaVuSans-75" x="155.175781"/>
      <use xlink:href="#DejaVuSans-6e" x="218.554688"/>
      <use xlink:href="#DejaVuSans-74" x="281.933594"/>
      <use xlink:href="#DejaVuSans-73" x="321.142578"/>
      <use xlink:href="#DejaVuSans-5d" x="373.242188"/>
     </g>
    </g>
   </g>
   <g id="patch_3">
    <path d="M 53.328125 228.96 
L 53.328125 7.2 
" style="fill: none; stroke: #000000; stroke-width: 0.8; stroke-linejoin: miter; stroke-linecap: square"/>
   </g>
   <g id="patch_4">
    <path d="M 388.128125 228.96 
L 388.128125 7.2 
" style="fill: none; stroke: #000000; stroke-width: 0.8; stroke-linejoin: miter; stroke-linecap: square"/>
   </g>
   <g id="patch_5">
    <path d="M 53.328125 228.96 
L 388.128125 228.96 
" style="fill: none; stroke: #000000; stroke-width: 0.8; stroke-linejoin: miter; stroke-linecap: square"/>
   </g>
   <g id="patch_6">
    <path d="M 53.328125 7.2 
L 388.128125 7.2 
" style="fill: none; stroke: #000000; stroke-width: 0.8; stroke-linejoin: miter; stroke-linecap: square"/>
   </g>
   <g id="legend_1">
    <g id="patch_7">
     <path d="M 306.904688 44.55625 
L 381.128125 44.55625 
Q 383.128125 44.55625 383.128125 42.55625 
L 383.128125 14.2 
Q 383.128125 12.2 381.128125 12.2 
L 306.904688 12.2 
Q 304.904688 12.2 304.904688 14.2 
L 304.904688 42.55625 
Q 304.904688 44.55625 306.904688 44.55625 
z
" style="fill: #ffffff; opacity: 0.8; stroke: #cccccc; stroke-linejoin: miter"/>
    </g>
    <g id="line2d_17">
     <path d="M 308.904688 20.298437 
L 308.904688 20.298437 
L 318.904688 20.298437 
L 318.904688 20.298437 
L 328.904688 20.298437 
" style="fill: none; stroke: #1f77b4; stroke-width: 1.5; stroke-linecap: square"/>
    </g>
    <g id="text_19">
     <!-- monitor -->
     <g transform="translate(336.904688 23.798437) scale(0.1 -0.1)">
      <defs>
       <path id="DejaVuSans-6d" d="M 3328 2828 
Q 3544 3216 3844 3400 
Q 4144 3584 4550 3584 
Q 5097 3584 5394 3201 
Q 5691 2819 5691 2113 
L 5691 0 
L 5113 0 
L 5113 2094 
Q 5113 2597 4934 2840 
Q 4756 3084 4391 3084 
Q 3944 3084 3684 2787 
Q 3425 2491 3425 1978 
L 3425 0 
L 2847 0 
L 2847 2094 
Q 2847 2600 2669 2842 
Q 2491 3084 2119 3084 
Q 1678 3084 1418 2786 
Q 1159 2488 1159 1978 
L 1159 0 
L 581 0 
L 581 3500 
L 1159 3500 
L 1159 2956 
Q 1356 3278 1631 3431 
Q 1906 3584 2284 3584 
Q 2666 3584 2933 3390 
Q 3200 3197 3328 2828 
z
" transform="scale(0.015625)"/>
       <path id="DejaVuSans-69" d="M 603 3500 
L 1178 3500 
L 1178 0 
L 603 0 
L 603 3500 
z
M 603 4863 
L 1178 4863 
L 1178 4134 
L 603 4134 
L 603 4863 
z
" transform="scale(0.015625)"/>
       <path id="DejaVuSans-72" d="M 2631 2963 
Q 2534 3019 2420 3045 
Q 2306 3072 2169 3072 
Q 1681 3072 1420 2755 
Q 1159 2438 1159 1844 
L 1159 0 
L 581 0 
L 581 3500 
L 1159 3500 
L 1159 2956 
Q 1341 3275 1631 3429 
Q 1922 3584 2338 3584 
Q 2397 3584 2469 3576 
Q 2541 3569 2628 3553 
L 2631 2963 
z
" transform="scale(0.015625)"/>
      </defs>
      <use xlink:href="#DejaVuSans-6d"/>
      <use xlink:href="#DejaVuSans-6f" x="97.412109"/>
      <use xlink:href="#DejaVuSans-6e" x="158.59375"/>
      <use xlink:href="#DejaVuSans-69" x="221.972656"/>
      <use xlink:href="#DejaVuSans-74" x="249.755859"/>
      <use xlink:href="#DejaVuSans-6f" x="288.964844"/>
      <use xlink:href="#DejaVuSans-72" x="350.146484"/>
     </g>
    </g>
    <g id="line2d_18">
     <path d="M 308.904688 34.976562 
L 308.904688 34.976562 
L 318.904688 34.976562 
L 318.904688 34.976562 
L 328.904688 34.976562 
" style="fill: none; stroke: #ff7f0e; stroke-width: 1.5; stroke-linecap: square"/>
    </g>
    <g id="text_20">
     <!-- detector -->
     <g transform="translate(336.904688 38.476562) scale(0.1 -0.1)">
      <defs>
       <path id="DejaVuSans-64" d="M 2906 2969 
L 2906 4863 
L 3481 4863 
L 3481 0 
L 2906 0 
L 2906 525 
Q 2725 213 2448 61 
Q 2172 -91 1784 -91 
Q 1150 -91 751 415 
Q 353 922 353 1747 
Q 353 2572 751 3078 
Q 1150 3584 1784 3584 
Q 2172 3584 2448 3432 
Q 2725 3281 2906 2969 
z
M 947 1747 
Q 947 1113 1208 752 
Q 1469 391 1925 391 
Q 2381 391 2643 752 
Q 2906 1113 2906 1747 
Q 2906 2381 2643 2742 
Q 2381 3103 1925 3103 
Q 1469 3103 1208 2742 
Q 947 2381 947 1747 
z
" transform="scale(0.015625)"/>
       <path id="DejaVuSans-65" d="M 3597 1894 
L 3597 1613 
L 953 1613 
Q 991 1019 1311 708 
Q 1631 397 2203 397 
Q 2534 397 2845 478 
Q 3156 559 3463 722 
L 3463 178 
Q 3153 47 2828 -22 
Q 2503 -91 2169 -91 
Q 1331 -91 842 396 
Q 353 884 353 1716 
Q 353 2575 817 3079 
Q 1281 3584 2069 3584 
Q 2775 3584 3186 3129 
Q 3597 2675 3597 1894 
z
M 3022 2063 
Q 3016 2534 2758 2815 
Q 2500 3097 2075 3097 
Q 1594 3097 1305 2825 
Q 1016 2553 972 2059 
L 3022 2063 
z
" transform="scale(0.015625)"/>
      </defs>
      <use xlink:href="#DejaVuSans-64"/>
      <use xlink:href="#DejaVuSans-65" x="63.476562"/>
      <use xlink:href="#DejaVuSans-74" x="125"/>
      <use xlink:href="#DejaVuSans-65" x="164.208984"/>
      <use xlink:href="#DejaVuSans-63" x="225.732422"/>
      <use xlink:href="#DejaVuSans-74" x="280.712891"/>
      <use xlink:href="#DejaVuSans-6f" x="319.921875"/>
      <use xlink:href="#DejaVuSans-72" x="381.103516"/>
     </g>
    </g>
   </g>
   <g id="line2d_19">
    <path d="M 61.990579 218.88 
L 64.053069 218.773867 
L 64.053069 218.7208 
L 66.115558 218.7208 
L 66.115558 218.88 
L 68.178047 218.773867 
L 68.178047 218.614667 
L 71.271781 218.614667 
L 71.271781 218.349334 
L 72.303025 218.349334 
L 72.303025 217.924801 
L 74.365514 217.871735 
L 74.365514 218.190134 
L 75.396759 218.190134 
L 75.396759 217.659468 
L 76.428003 217.659468 
L 76.428003 217.075736 
L 77.459248 217.075736 
L 77.459248 217.288002 
L 78.490493 217.288002 
L 78.490493 216.438937 
L 79.521737 216.438937 
L 79.521737 216.598136 
L 80.552982 216.598136 
L 80.552982 215.908271 
L 81.584226 215.908271 
L 81.584226 214.316273 
L 82.615471 214.316273 
L 82.615471 213.785607 
L 83.646715 213.785607 
L 83.646715 211.928276 
L 84.67796 211.928276 
L 84.67796 209.911745 
L 85.709205 209.911745 
L 85.709205 205.507218 
L 86.740449 205.507218 
L 86.740449 204.021353 
L 87.771694 204.021353 
L 87.771694 200.359758 
L 88.802938 200.359758 
L 88.802938 193.9387 
L 89.834183 193.9387 
L 89.834183 189.321906 
L 90.865428 189.321906 
L 90.865428 181.786449 
L 91.896672 181.786449 
L 91.896672 177.381922 
L 92.927917 177.381922 
L 92.927917 168.625933 
L 93.959161 168.625933 
L 93.959161 165.176604 
L 94.990406 165.176604 
L 94.990406 154.404085 
L 96.02165 154.404085 
L 96.02165 143.5785 
L 97.052895 143.5785 
L 97.052895 139.227039 
L 98.08414 139.227039 
L 98.08414 129.091319 
L 99.115384 129.091319 
L 99.115384 119.857731 
L 100.146629 119.857731 
L 100.146629 109.456678 
L 101.177873 109.456678 
L 101.177873 95.71243 
L 102.209118 95.71243 
L 102.209118 86.584975 
L 103.240362 86.584975 
L 103.240362 78.147386 
L 104.271607 78.147386 
L 104.271607 61.696741 
L 105.302852 61.696741 
L 105.302852 59.308744 
L 106.334096 59.308744 
L 106.334096 52.091687 
L 107.365341 52.091687 
L 107.365341 41.319168 
L 108.396585 41.319168 
L 108.396585 34.791977 
L 109.42783 34.791977 
L 109.42783 38.665838 
L 110.459074 38.665838 
L 110.459074 36.543175 
L 111.490319 36.543175 
L 111.490319 34.791977 
L 112.521564 34.791977 
L 112.521564 31.077315 
L 113.552808 31.077315 
L 113.552808 29.432251 
L 114.584053 29.432251 
L 114.584053 21.896794 
L 115.615297 21.896794 
L 115.615297 26.513588 
L 116.646542 26.513588 
L 116.646542 24.178658 
L 117.677786 24.178658 
L 117.677786 26.142122 
L 118.709031 26.142122 
L 118.709031 24.019458 
L 119.740276 24.019458 
L 119.740276 25.558389 
L 120.77152 25.558389 
L 120.77152 17.28 
L 121.802765 17.28 
L 121.802765 32.138647 
L 122.834009 32.138647 
L 122.834009 25.186923 
L 123.865254 25.186923 
L 123.865254 32.881579 
L 124.896498 32.881579 
L 124.896498 29.273051 
L 125.927743 29.273051 
L 125.927743 27.73412 
L 126.958988 27.73412 
L 126.958988 33.889845 
L 127.990232 33.889845 
L 127.990232 38.188239 
L 129.021477 38.188239 
L 129.021477 48.854625 
L 130.052721 48.854625 
L 130.052721 46.785028 
L 131.083966 46.785028 
L 131.083966 53.418352 
L 132.115211 53.418352 
L 132.115211 55.381816 
L 133.146455 55.381816 
L 133.146455 57.929013 
L 134.1777 57.929013 
L 134.1777 67.056467 
L 135.208944 67.056467 
L 135.208944 71.142595 
L 136.240189 71.142595 
L 136.240189 72.256994 
L 137.271433 72.256994 
L 137.271433 77.45752 
L 138.302678 77.45752 
L 138.302678 79.633251 
L 139.333923 79.633251 
L 139.333923 87.646307 
L 140.365167 87.646307 
L 140.365167 84.462311 
L 141.396412 84.462311 
L 141.396412 91.573235 
L 142.427656 91.573235 
L 142.427656 98.418826 
L 143.458901 98.418826 
L 143.458901 97.251361 
L 144.490145 97.251361 
L 144.490145 99.798558 
L 145.52139 99.798558 
L 145.52139 103.03562 
L 146.552635 103.03562 
L 146.552635 106.060416 
L 147.583879 106.060416 
L 147.583879 103.03562 
L 148.615124 103.03562 
L 148.615124 107.493214 
L 149.646368 107.493214 
L 149.646368 117.204401 
L 150.677613 117.204401 
L 150.677613 117.947334 
L 151.708857 117.947334 
L 151.708857 116.886002 
L 152.740102 116.886002 
L 152.740102 119.327065 
L 153.771347 119.327065 
L 153.771347 124.421458 
L 154.802591 124.421458 
L 154.802591 123.360126 
L 155.833836 123.360126 
L 155.833836 124.580658 
L 156.86508 124.580658 
L 156.86508 126.331856 
L 157.896325 126.331856 
L 157.896325 126.119589 
L 158.927569 126.119589 
L 158.927569 132.487581 
L 159.958814 132.487581 
L 159.958814 136.839042 
L 160.990059 136.839042 
L 160.990059 130.205717 
L 162.021303 130.205717 
L 162.021303 138.43104 
L 163.052548 138.43104 
L 163.052548 140.341437 
L 164.083792 140.341437 
L 164.083792 144.003032 
L 165.115037 144.003032 
L 165.115037 143.366233 
L 166.146281 143.366233 
L 166.146281 146.337963 
L 167.177526 146.337963 
L 167.177526 145.966496 
L 168.208771 145.966496 
L 168.208771 146.125696 
L 169.240015 146.125696 
L 169.240015 148.08916 
L 170.27126 148.08916 
L 170.27126 147.240095 
L 171.302504 147.240095 
L 171.302504 149.415825 
L 172.333749 149.415825 
L 172.333749 154.032619 
L 173.364994 154.032619 
L 173.364994 157.747281 
L 174.396238 157.747281 
L 174.396238 156.898215 
L 175.427483 156.898215 
L 175.427483 155.518484 
L 176.458727 155.518484 
L 176.458727 159.869945 
L 178.521216 159.923011 
L 178.521216 159.127012 
L 179.552461 159.127012 
L 179.552461 165.388871 
L 180.583706 165.388871 
L 180.583706 169.528065 
L 181.61495 169.528065 
L 181.61495 163.903006 
L 182.646195 163.903006 
L 182.646195 163.53154 
L 183.677439 163.53154 
L 183.677439 167.936067 
L 184.708684 167.936067 
L 184.708684 169.103533 
L 185.739928 169.103533 
L 185.739928 170.217931 
L 186.771173 170.217931 
L 186.771173 172.552861 
L 187.802418 172.552861 
L 187.802418 174.091793 
L 188.833662 174.091793 
L 188.833662 175.736857 
L 189.864907 175.736857 
L 189.864907 176.055257 
L 190.896151 176.055257 
L 190.896151 176.745122 
L 191.927396 176.745122 
L 191.927396 179.769918 
L 192.95864 179.769918 
L 192.95864 178.284054 
L 193.989885 178.284054 
L 193.989885 182.635515 
L 195.02113 182.635515 
L 195.02113 184.280579 
L 196.052374 184.280579 
L 196.052374 183.431514 
L 197.083619 183.431514 
L 197.083619 185.925644 
L 198.114863 185.925644 
L 198.114863 190.224038 
L 199.146108 190.224038 
L 199.146108 187.836041 
L 200.177352 187.836041 
L 200.177352 193.408034 
L 201.208597 193.408034 
L 201.208597 193.991766 
L 202.239842 193.991766 
L 202.239842 194.310166 
L 203.271086 194.310166 
L 203.271086 195.106165 
L 204.302331 195.106165 
L 204.302331 197.812561 
L 205.333575 197.812561 
L 205.333575 199.616825 
L 206.36482 199.616825 
L 206.36482 198.60856 
L 207.396064 198.60856 
L 207.396064 201.898689 
L 208.427309 201.898689 
L 208.427309 200.306691 
L 209.458554 200.306691 
L 209.458554 204.286686 
L 210.489798 204.286686 
L 210.489798 204.711219 
L 212.552287 204.711219 
L 212.552287 205.613351 
L 213.583532 205.613351 
L 213.583532 207.099216 
L 214.614776 207.099216 
L 214.614776 208.850413 
L 215.646021 208.850413 
L 215.646021 208.054414 
L 216.677266 208.054414 
L 216.677266 210.017878 
L 217.70851 210.017878 
L 217.70851 211.981342 
L 219.770999 212.087476 
L 219.770999 212.140542 
L 220.802244 212.140542 
L 220.802244 212.883475 
L 221.833489 212.883475 
L 221.833489 214.528539 
L 222.864733 214.528539 
L 222.864733 213.73254 
L 223.895978 213.73254 
L 223.895978 216.22667 
L 224.927222 216.22667 
L 224.927222 215.536804 
L 225.958467 215.536804 
L 225.958467 216.54507 
L 226.989711 216.54507 
L 226.989711 216.863469 
L 228.020956 216.863469 
L 228.020956 217.394135 
L 229.052201 217.394135 
L 229.052201 217.924801 
L 230.083445 217.924801 
L 230.083445 218.243201 
L 232.145934 218.296267 
L 232.145934 218.826933 
L 235.239668 218.773867 
L 235.239668 218.773867 
" clip-path="url(#p9ceded5586)" style="fill: none; stroke: #1f77b4; stroke-width: 1.5; stroke-linecap: square"/>
   </g>
   <g id="line2d_20">
    <path d="M 83.859413 218.88 
L 95.203104 218.826933 
L 95.203104 218.667734 
L 96.234348 218.667734 
L 96.234348 218.88 
L 97.265593 218.88 
L 97.265593 218.614667 
L 98.296837 218.614667 
L 98.296837 218.88 
L 99.328082 218.88 
L 99.328082 218.5616 
L 102.421816 218.508534 
L 102.421816 218.190134 
L 103.45306 218.190134 
L 103.45306 218.349334 
L 105.515549 218.296267 
L 105.515549 218.7208 
L 106.546794 218.7208 
L 106.546794 218.349334 
L 107.578038 218.349334 
L 107.578038 217.765601 
L 108.609283 217.765601 
L 108.609283 218.190134 
L 109.640528 218.190134 
L 109.640528 217.818668 
L 110.671772 217.818668 
L 110.671772 218.243201 
L 111.703017 218.243201 
L 111.703017 217.394135 
L 113.765506 217.447202 
L 113.765506 217.712535 
L 115.827995 217.606402 
L 115.827995 217.394135 
L 116.85924 217.394135 
L 116.85924 216.651203 
L 117.890484 216.651203 
L 117.890484 216.438937 
L 118.921729 216.438937 
L 118.921729 215.855204 
L 119.952973 215.855204 
L 119.952973 216.173604 
L 120.984218 216.173604 
L 120.984218 214.740805 
L 122.015462 214.740805 
L 122.015462 214.581606 
L 123.046707 214.581606 
L 123.046707 214.05094 
L 124.077952 214.05094 
L 124.077952 212.565075 
L 125.109196 212.565075 
L 125.109196 211.503743 
L 126.140441 211.503743 
L 126.140441 209.858679 
L 127.171685 209.858679 
L 127.171685 211.132277 
L 128.20293 211.132277 
L 128.20293 208.478947 
L 129.234174 208.478947 
L 129.234174 208.054414 
L 130.265419 208.054414 
L 130.265419 204.923485 
L 131.296664 204.923485 
L 131.296664 202.906954 
L 133.359153 203.013088 
L 133.359153 197.334962 
L 134.390397 197.334962 
L 134.390397 196.11443 
L 135.421642 196.11443 
L 135.421642 195.106165 
L 136.452887 195.106165 
L 136.452887 192.505902 
L 137.484131 192.505902 
L 137.484131 189.162706 
L 138.515376 189.162706 
L 138.515376 188.738173 
L 139.54662 188.738173 
L 139.54662 186.562443 
L 140.577865 186.562443 
L 140.577865 180.778184 
L 141.609109 180.778184 
L 141.609109 180.247518 
L 142.640354 180.247518 
L 142.640354 175.949123 
L 143.671599 175.949123 
L 143.671599 171.916062 
L 145.734088 171.969129 
L 145.734088 169.740332 
L 146.765332 169.740332 
L 146.765332 162.045675 
L 147.796577 162.045675 
L 147.796577 163.266207 
L 148.827821 163.266207 
L 148.827821 157.800347 
L 149.859066 157.800347 
L 149.859066 151.644622 
L 150.890311 151.644622 
L 150.890311 149.946491 
L 151.921555 149.946491 
L 151.921555 145.488897 
L 152.9528 145.488897 
L 152.9528 142.357968 
L 153.984044 142.357968 
L 153.984044 135.989976 
L 156.046533 136.043043 
L 156.046533 131.320116 
L 157.077778 131.320116 
L 157.077778 124.315325 
L 158.109023 124.315325 
L 158.109023 125.270524 
L 159.140267 125.270524 
L 159.140267 122.617194 
L 160.171512 122.617194 
L 160.171512 120.49453 
L 161.202756 120.49453 
L 161.202756 115.718536 
L 162.234001 115.718536 
L 162.234001 111.367076 
L 163.265245 111.367076 
L 163.265245 110.040411 
L 164.29649 110.040411 
L 164.29649 113.861206 
L 165.327735 113.861206 
L 165.327735 109.775078 
L 166.358979 109.775078 
L 166.358979 110.995609 
L 167.390224 110.995609 
L 167.390224 110.83641 
L 168.421468 110.83641 
L 168.421468 111.791608 
L 169.452713 111.791608 
L 169.452713 105.635883 
L 170.483957 105.635883 
L 170.483957 108.130013 
L 171.515202 108.130013 
L 171.515202 104.362285 
L 172.546447 104.362285 
L 172.546447 107.068681 
L 173.577691 107.068681 
L 173.577691 102.823354 
L 174.608936 102.823354 
L 174.608936 110.093477 
L 175.64018 110.093477 
L 175.64018 97.72896 
L 176.671425 97.72896 
L 176.671425 106.644148 
L 177.70267 106.644148 
L 177.70267 101.708955 
L 178.733914 101.708955 
L 178.733914 101.231356 
L 179.765159 101.231356 
L 179.765159 105.105217 
L 180.796403 105.105217 
L 180.796403 106.113482 
L 181.827648 106.113482 
L 181.827648 104.203085 
L 182.858892 104.203085 
L 182.858892 101.337489 
L 183.890137 101.337489 
L 183.890137 100.116957 
L 184.921382 100.116957 
L 184.921382 105.901216 
L 185.952626 105.901216 
L 185.952626 102.982553 
L 186.983871 102.982553 
L 186.983871 109.881211 
L 188.015115 109.881211 
L 188.015115 102.451887 
L 189.04636 102.451887 
L 189.04636 106.060416 
L 190.077604 106.060416 
L 190.077604 104.786818 
L 191.108849 104.786818 
L 191.108849 106.803348 
L 192.140094 106.803348 
L 192.140094 104.309218 
L 193.171338 104.309218 
L 193.171338 105.52975 
L 194.202583 105.52975 
L 194.202583 107.599347 
L 195.233827 107.599347 
L 195.233827 103.937752 
L 196.265072 103.937752 
L 196.265072 110.942543 
L 197.296316 110.942543 
L 197.296316 111.473209 
L 198.327561 111.473209 
L 198.327561 113.436673 
L 199.358806 113.436673 
L 199.358806 113.277473 
L 200.39005 113.277473 
L 200.39005 116.939068 
L 201.421295 116.939068 
L 201.421295 116.143069 
L 202.452539 116.143069 
L 202.452539 121.025196 
L 203.483784 121.025196 
L 203.483784 122.82946 
L 204.515028 122.82946 
L 204.515028 114.657205 
L 205.546273 114.657205 
L 205.546273 123.46626 
L 206.577518 123.46626 
L 206.577518 126.013456 
L 207.608762 126.013456 
L 207.608762 128.083053 
L 208.640007 128.083053 
L 208.640007 127.287054 
L 209.671251 127.287054 
L 209.671251 129.144385 
L 210.702496 129.144385 
L 210.702496 129.728118 
L 211.73374 129.728118 
L 211.73374 133.230513 
L 212.764985 133.230513 
L 212.764985 131.691582 
L 213.79623 131.691582 
L 213.79623 135.93691 
L 214.827474 135.93691 
L 214.827474 138.324907 
L 215.858719 138.324907 
L 215.858719 137.263575 
L 216.889963 137.263575 
L 216.889963 138.324907 
L 217.921208 138.324907 
L 217.921208 139.704638 
L 218.952453 139.704638 
L 218.952453 141.296636 
L 219.983697 141.296636 
L 219.983697 144.905165 
L 221.014942 144.905165 
L 221.014942 144.427565 
L 222.046186 144.427565 
L 222.046186 143.790766 
L 223.077431 143.790766 
L 223.077431 147.399295 
L 224.108675 147.399295 
L 224.108675 146.921695 
L 225.13992 146.921695 
L 225.13992 147.080895 
L 226.171165 147.080895 
L 226.171165 147.399295 
L 227.202409 147.399295 
L 227.202409 152.705954 
L 228.233654 152.705954 
L 228.233654 148.938226 
L 229.264898 148.938226 
L 229.264898 150.264891 
L 230.296143 150.264891 
L 230.296143 152.069155 
L 231.327387 152.069155 
L 231.327387 152.493688 
L 232.358632 152.493688 
L 232.358632 155.040884 
L 233.389877 155.040884 
L 233.389877 157.641148 
L 234.421121 157.641148 
L 234.421121 157.216615 
L 235.452366 157.216615 
L 235.452366 154.934751 
L 236.48361 154.934751 
L 236.48361 157.906481 
L 237.514855 157.906481 
L 237.514855 162.151808 
L 238.546099 162.151808 
L 238.546099 161.992609 
L 239.577344 161.992609 
L 239.577344 157.535014 
L 240.608589 157.535014 
L 240.608589 159.286212 
L 242.671078 159.339279 
L 242.671078 161.515009 
L 243.702322 161.515009 
L 243.702322 164.592872 
L 244.733567 164.592872 
L 244.733567 161.461943 
L 245.764811 161.461943 
L 245.764811 166.821669 
L 247.827301 166.715536 
L 247.827301 164.964338 
L 249.88979 164.911271 
L 249.88979 168.095267 
L 250.921034 168.095267 
L 250.921034 167.033935 
L 251.952279 167.033935 
L 251.952279 167.193135 
L 252.983523 167.193135 
L 252.983523 167.458468 
L 254.014768 167.458468 
L 254.014768 173.083527 
L 255.046013 173.083527 
L 255.046013 172.499795 
L 256.077257 172.499795 
L 256.077257 173.295794 
L 257.108502 173.295794 
L 257.108502 173.879526 
L 258.139746 173.879526 
L 258.139746 174.091793 
L 259.170991 174.091793 
L 259.170991 173.295794 
L 260.202235 173.295794 
L 260.202235 173.50806 
L 261.23348 173.50806 
L 261.23348 174.569392 
L 263.295969 174.622459 
L 263.295969 177.541121 
L 264.327214 177.541121 
L 264.327214 173.614193 
L 265.358458 173.614193 
L 265.358458 174.940858 
L 266.389703 174.940858 
L 266.389703 176.267523 
L 267.420948 176.267523 
L 267.420948 176.904322 
L 268.452192 176.904322 
L 268.452192 179.557652 
L 269.483437 179.557652 
L 269.483437 176.851256 
L 270.514681 176.851256 
L 270.514681 181.468049 
L 271.545926 181.468049 
L 271.545926 179.929118 
L 272.57717 179.929118 
L 272.57717 182.582448 
L 273.608415 182.582448 
L 273.608415 179.769918 
L 274.63966 179.769918 
L 274.63966 181.945649 
L 275.670904 181.945649 
L 275.670904 181.30885 
L 276.702149 181.30885 
L 276.702149 182.900848 
L 277.733393 182.900848 
L 277.733393 183.64378 
L 278.764638 183.64378 
L 278.764638 181.14965 
L 279.795882 181.14965 
L 279.795882 184.068313 
L 280.827127 184.068313 
L 280.827127 187.093109 
L 281.858372 187.093109 
L 281.858372 187.358442 
L 282.889616 187.358442 
L 282.889616 184.864312 
L 283.920861 184.864312 
L 283.920861 187.252309 
L 284.952105 187.252309 
L 284.952105 185.660311 
L 285.98335 185.660311 
L 285.98335 186.721643 
L 287.014594 186.721643 
L 287.014594 187.942174 
L 288.045839 187.942174 
L 288.045839 187.464575 
L 289.077084 187.464575 
L 289.077084 186.13791 
L 290.108328 186.13791 
L 290.108328 189.003506 
L 291.139573 189.003506 
L 291.139573 190.648571 
L 292.170817 190.648571 
L 292.170817 191.073103 
L 293.202062 191.073103 
L 293.202062 189.534172 
L 294.233306 189.534172 
L 294.233306 190.170971 
L 295.264551 190.170971 
L 295.264551 194.681632 
L 296.295796 194.681632 
L 296.295796 194.363232 
L 297.32704 194.363232 
L 297.32704 191.603769 
L 298.358285 191.603769 
L 298.358285 192.877368 
L 300.420774 192.930434 
L 300.420774 196.379763 
L 301.452018 196.379763 
L 301.452018 192.718168 
L 302.483263 192.718168 
L 302.483263 195.583764 
L 303.514508 195.583764 
L 303.514508 195.159231 
L 304.545752 195.159231 
L 304.545752 196.220563 
L 305.576997 196.220563 
L 305.576997 197.494162 
L 306.608241 197.494162 
L 306.608241 198.237094 
L 308.670731 198.290161 
L 308.670731 199.722959 
L 309.701975 199.722959 
L 309.701975 198.714693 
L 310.73322 198.714693 
L 310.73322 199.351492 
L 311.764464 199.351492 
L 311.764464 199.882158 
L 312.795709 199.882158 
L 312.795709 202.110956 
L 314.858198 202.164022 
L 314.858198 202.641621 
L 315.889443 202.641621 
L 315.889443 203.862153 
L 316.920687 203.862153 
L 316.920687 203.384554 
L 317.951932 203.384554 
L 317.951932 203.702953 
L 318.983176 203.702953 
L 318.983176 205.082685 
L 320.014421 205.082685 
L 320.014421 205.825617 
L 321.045665 205.825617 
L 321.045665 204.711219 
L 322.07691 204.711219 
L 322.07691 206.56855 
L 323.108155 206.56855 
L 323.108155 206.356283 
L 324.139399 206.356283 
L 324.139399 208.054414 
L 325.170644 208.054414 
L 325.170644 206.780816 
L 326.201888 206.780816 
L 326.201888 206.621616 
L 327.233133 206.621616 
L 327.233133 208.372814 
L 328.264377 208.372814 
L 328.264377 208.638147 
L 330.326867 208.58508 
L 330.326867 208.956546 
L 331.358111 208.956546 
L 331.358111 210.601611 
L 332.389356 210.601611 
L 332.389356 209.858679 
L 333.4206 209.858679 
L 333.4206 210.070945 
L 334.451845 210.070945 
L 334.451845 210.973077 
L 335.483089 210.973077 
L 335.483089 211.132277 
L 336.514334 211.132277 
L 336.514334 211.503743 
L 338.576823 211.39761 
L 338.576823 212.246675 
L 339.608068 212.246675 
L 339.608068 213.095741 
L 340.639312 213.095741 
L 340.639312 212.087476 
L 341.670557 212.087476 
L 341.670557 212.512008 
L 342.701801 212.512008 
L 342.701801 213.254941 
L 343.733046 213.254941 
L 343.733046 213.89174 
L 344.764291 213.89174 
L 344.764291 215.165338 
L 345.795535 215.165338 
L 345.795535 214.793872 
L 347.858024 214.687739 
L 347.858024 215.112272 
L 350.951758 215.218405 
L 350.951758 215.536804 
L 351.983003 215.536804 
L 351.983003 216.06747 
L 354.045492 216.014404 
L 354.045492 215.802137 
L 355.076736 215.802137 
L 355.076736 217.606402 
L 356.107981 217.606402 
L 356.107981 217.022669 
L 357.139226 217.022669 
L 357.139226 216.810403 
L 359.201715 216.916536 
L 359.201715 217.924801 
L 360.232959 217.924801 
L 360.232959 217.765601 
L 361.264204 217.765601 
L 361.264204 217.606402 
L 362.295448 217.606402 
L 362.295448 217.924801 
L 363.326693 217.924801 
L 363.326693 218.137068 
L 364.357938 218.137068 
L 364.357938 218.349334 
L 365.389182 218.349334 
L 365.389182 218.508534 
L 369.51416 218.614667 
L 369.51416 218.88 
L 373.639139 218.773867 
L 373.639139 218.773867 
" clip-path="url(#p9ceded5586)" style="fill: none; stroke: #ff7f0e; stroke-width: 1.5; stroke-linecap: square"/>
   </g>
  </g>
 </g>
 <defs>
  <clipPath id="p9ceded5586">
   <rect x="53.328125" y="7.2" width="334.8" height="221.76"/>
  </clipPath>
 </defs>
</svg>
