<?xml version="1.0" encoding="utf-8" standalone="no"?>
<!DOCTYPE svg PUBLIC "-//W3C//DTD SVG 1.1//EN"
  "http://www.w3.org/Graphics/SVG/1.1/DTD/svg11.dtd">
<svg xmlns:xlink="http://www.w3.org/1999/xlink" width="395.328125pt" height="268.200625pt" viewBox="0 0 395.328125 268.200625" xmlns="http://www.w3.org/2000/svg" version="1.1">
 <metadata>
  <rdf:RDF xmlns:dc="http://purl.org/dc/elements/1.1/" xmlns:cc="http://creativecommons.org/ns#" xmlns:rdf="http://www.w3.org/1999/02/22-rdf-syntax-ns#">
   <cc:Work>
    <dc:type rdf:resource="http://purl.org/dc/dcmitype/StillImage"/>
    <dc:date>2024-11-13T15:31:14.133230</dc:date>
    <dc:format>image/svg+xml</dc:format>
    <dc:creator>
     <cc:Agent>
      <dc:title>Matplotlib v3.9.2, https://matplotlib.org/</dc:title>
     </cc:Agent>
    </dc:creator>
   </cc:Work>
  </rdf:RDF>
 </metadata>
 <defs>
  <style type="text/css">*{stroke-linejoin: round; stroke-linecap: butt}</style>
 </defs>
 <g id="figure_1">
  <g id="patch_1">
   <path d="M 0 268.200625 
L 395.328125 268.200625 
L 395.328125 0 
L 0 0 
z
" style="fill: #ffffff"/>
  </g>
  <g id="axes_1">
   <g id="patch_2">
    <path d="M 53.328125 228.96 
L 388.128125 228.96 
L 388.128125 7.2 
L 53.328125 7.2 
z
" style="fill: #ffffff"/>
   </g>
   <g id="matplotlib.axis_1">
    <g id="xtick_1">
     <g id="line2d_1">
      <defs>
       <path id="m57b27cfa90" d="M 0 0 
L 0 3.5 
" style="stroke: #000000; stroke-width: 0.8"/>
      </defs>
      <g>
       <use xlink:href="#m57b27cfa90" x="68.546307" y="228.96" style="stroke: #000000; stroke-width: 0.8"/>
      </g>
     </g>
     <g id="text_1">
      <!-- 2 -->
      <g transform="translate(65.365057 243.558437) scale(0.1 -0.1)">
       <defs>
        <path id="DejaVuSans-32" d="M 1228 531 
L 3431 531 
L 3431 0 
L 469 0 
L 469 531 
Q 828 903 1448 1529 
Q 2069 2156 2228 2338 
Q 2531 2678 2651 2914 
Q 2772 3150 2772 3378 
Q 2772 3750 2511 3984 
Q 2250 4219 1831 4219 
Q 1534 4219 1204 4116 
Q 875 4013 500 3803 
L 500 4441 
Q 881 4594 1212 4672 
Q 1544 4750 1819 4750 
Q 2544 4750 2975 4387 
Q 3406 4025 3406 3419 
Q 3406 3131 3298 2873 
Q 3191 2616 2906 2266 
Q 2828 2175 2409 1742 
Q 1991 1309 1228 531 
z
" transform="scale(0.015625)"/>
       </defs>
       <use xlink:href="#DejaVuSans-32"/>
      </g>
     </g>
    </g>
    <g id="xtick_2">
     <g id="line2d_2">
      <g>
       <use xlink:href="#m57b27cfa90" x="106.591761" y="228.96" style="stroke: #000000; stroke-width: 0.8"/>
      </g>
     </g>
     <g id="text_2">
      <!-- 3 -->
      <g transform="translate(103.410511 243.558437) scale(0.1 -0.1)">
       <defs>
        <path id="DejaVuSans-33" d="M 2597 2516 
Q 3050 2419 3304 2112 
Q 3559 1806 3559 1356 
Q 3559 666 3084 287 
Q 2609 -91 1734 -91 
Q 1441 -91 1130 -33 
Q 819 25 488 141 
L 488 750 
Q 750 597 1062 519 
Q 1375 441 1716 441 
Q 2309 441 2620 675 
Q 2931 909 2931 1356 
Q 2931 1769 2642 2001 
Q 2353 2234 1838 2234 
L 1294 2234 
L 1294 2753 
L 1863 2753 
Q 2328 2753 2575 2939 
Q 2822 3125 2822 3475 
Q 2822 3834 2567 4026 
Q 2313 4219 1838 4219 
Q 1578 4219 1281 4162 
Q 984 4106 628 3988 
L 628 4550 
Q 988 4650 1302 4700 
Q 1616 4750 1894 4750 
Q 2613 4750 3031 4423 
Q 3450 4097 3450 3541 
Q 3450 3153 3228 2886 
Q 3006 2619 2597 2516 
z
" transform="scale(0.015625)"/>
       </defs>
       <use xlink:href="#DejaVuSans-33"/>
      </g>
     </g>
    </g>
    <g id="xtick_3">
     <g id="line2d_3">
      <g>
       <use xlink:href="#m57b27cfa90" x="144.637216" y="228.96" style="stroke: #000000; stroke-width: 0.8"/>
      </g>
     </g>
     <g id="text_3">
      <!-- 4 -->
      <g transform="translate(141.455966 243.558437) scale(0.1 -0.1)">
       <defs>
        <path id="DejaVuSans-34" d="M 2419 4116 
L 825 1625 
L 2419 1625 
L 2419 4116 
z
M 2253 4666 
L 3047 4666 
L 3047 1625 
L 3713 1625 
L 3713 1100 
L 3047 1100 
L 3047 0 
L 2419 0 
L 2419 1100 
L 313 1100 
L 313 1709 
L 2253 4666 
z
" transform="scale(0.015625)"/>
       </defs>
       <use xlink:href="#DejaVuSans-34"/>
      </g>
     </g>
    </g>
    <g id="xtick_4">
     <g id="line2d_4">
      <g>
       <use xlink:href="#m57b27cfa90" x="182.68267" y="228.96" style="stroke: #000000; stroke-width: 0.8"/>
      </g>
     </g>
     <g id="text_4">
      <!-- 5 -->
      <g transform="translate(179.50142 243.558437) scale(0.1 -0.1)">
       <defs>
        <path id="DejaVuSans-35" d="M 691 4666 
L 3169 4666 
L 3169 4134 
L 1269 4134 
L 1269 2991 
Q 1406 3038 1543 3061 
Q 1681 3084 1819 3084 
Q 2600 3084 3056 2656 
Q 3513 2228 3513 1497 
Q 3513 744 3044 326 
Q 2575 -91 1722 -91 
Q 1428 -91 1123 -41 
Q 819 9 494 109 
L 494 744 
Q 775 591 1075 516 
Q 1375 441 1709 441 
Q 2250 441 2565 725 
Q 2881 1009 2881 1497 
Q 2881 1984 2565 2268 
Q 2250 2553 1709 2553 
Q 1456 2553 1204 2497 
Q 953 2441 691 2322 
L 691 4666 
z
" transform="scale(0.015625)"/>
       </defs>
       <use xlink:href="#DejaVuSans-35"/>
      </g>
     </g>
    </g>
    <g id="xtick_5">
     <g id="line2d_5">
      <g>
       <use xlink:href="#m57b27cfa90" x="220.728125" y="228.96" style="stroke: #000000; stroke-width: 0.8"/>
      </g>
     </g>
     <g id="text_5">
      <!-- 6 -->
      <g transform="translate(217.546875 243.558437) scale(0.1 -0.1)">
       <defs>
        <path id="DejaVuSans-36" d="M 2113 2584 
Q 1688 2584 1439 2293 
Q 1191 2003 1191 1497 
Q 1191 994 1439 701 
Q 1688 409 2113 409 
Q 2538 409 2786 701 
Q 3034 994 3034 1497 
Q 3034 2003 2786 2293 
Q 2538 2584 2113 2584 
z
M 3366 4563 
L 3366 3988 
Q 3128 4100 2886 4159 
Q 2644 4219 2406 4219 
Q 1781 4219 1451 3797 
Q 1122 3375 1075 2522 
Q 1259 2794 1537 2939 
Q 1816 3084 2150 3084 
Q 2853 3084 3261 2657 
Q 3669 2231 3669 1497 
Q 3669 778 3244 343 
Q 2819 -91 2113 -91 
Q 1303 -91 875 529 
Q 447 1150 447 2328 
Q 447 3434 972 4092 
Q 1497 4750 2381 4750 
Q 2619 4750 2861 4703 
Q 3103 4656 3366 4563 
z
" transform="scale(0.015625)"/>
       </defs>
       <use xlink:href="#DejaVuSans-36"/>
      </g>
     </g>
    </g>
    <g id="xtick_6">
     <g id="line2d_6">
      <g>
       <use xlink:href="#m57b27cfa90" x="258.77358" y="228.96" style="stroke: #000000; stroke-width: 0.8"/>
      </g>
     </g>
     <g id="text_6">
      <!-- 7 -->
      <g transform="translate(255.59233 243.558437) scale(0.1 -0.1)">
       <defs>
        <path id="DejaVuSans-37" d="M 525 4666 
L 3525 4666 
L 3525 4397 
L 1831 0 
L 1172 0 
L 2766 4134 
L 525 4134 
L 525 4666 
z
" transform="scale(0.015625)"/>
       </defs>
       <use xlink:href="#DejaVuSans-37"/>
      </g>
     </g>
    </g>
    <g id="xtick_7">
     <g id="line2d_7">
      <g>
       <use xlink:href="#m57b27cfa90" x="296.819034" y="228.96" style="stroke: #000000; stroke-width: 0.8"/>
      </g>
     </g>
     <g id="text_7">
      <!-- 8 -->
      <g transform="translate(293.637784 243.558437) scale(0.1 -0.1)">
       <defs>
        <path id="DejaVuSans-38" d="M 2034 2216 
Q 1584 2216 1326 1975 
Q 1069 1734 1069 1313 
Q 1069 891 1326 650 
Q 1584 409 2034 409 
Q 2484 409 2743 651 
Q 3003 894 3003 1313 
Q 3003 1734 2745 1975 
Q 2488 2216 2034 2216 
z
M 1403 2484 
Q 997 2584 770 2862 
Q 544 3141 544 3541 
Q 544 4100 942 4425 
Q 1341 4750 2034 4750 
Q 2731 4750 3128 4425 
Q 3525 4100 3525 3541 
Q 3525 3141 3298 2862 
Q 3072 2584 2669 2484 
Q 3125 2378 3379 2068 
Q 3634 1759 3634 1313 
Q 3634 634 3220 271 
Q 2806 -91 2034 -91 
Q 1263 -91 848 271 
Q 434 634 434 1313 
Q 434 1759 690 2068 
Q 947 2378 1403 2484 
z
M 1172 3481 
Q 1172 3119 1398 2916 
Q 1625 2713 2034 2713 
Q 2441 2713 2670 2916 
Q 2900 3119 2900 3481 
Q 2900 3844 2670 4047 
Q 2441 4250 2034 4250 
Q 1625 4250 1398 4047 
Q 1172 3844 1172 3481 
z
" transform="scale(0.015625)"/>
       </defs>
       <use xlink:href="#DejaVuSans-38"/>
      </g>
     </g>
    </g>
    <g id="xtick_8">
     <g id="line2d_8">
      <g>
       <use xlink:href="#m57b27cfa90" x="334.864489" y="228.96" style="stroke: #000000; stroke-width: 0.8"/>
      </g>
     </g>
     <g id="text_8">
      <!-- 9 -->
      <g transform="translate(331.683239 243.558437) scale(0.1 -0.1)">
       <defs>
        <path id="DejaVuSans-39" d="M 703 97 
L 703 672 
Q 941 559 1184 500 
Q 1428 441 1663 441 
Q 2288 441 2617 861 
Q 2947 1281 2994 2138 
Q 2813 1869 2534 1725 
Q 2256 1581 1919 1581 
Q 1219 1581 811 2004 
Q 403 2428 403 3163 
Q 403 3881 828 4315 
Q 1253 4750 1959 4750 
Q 2769 4750 3195 4129 
Q 3622 3509 3622 2328 
Q 3622 1225 3098 567 
Q 2575 -91 1691 -91 
Q 1453 -91 1209 -44 
Q 966 3 703 97 
z
M 1959 2075 
Q 2384 2075 2632 2365 
Q 2881 2656 2881 3163 
Q 2881 3666 2632 3958 
Q 2384 4250 1959 4250 
Q 1534 4250 1286 3958 
Q 1038 3666 1038 3163 
Q 1038 2656 1286 2365 
Q 1534 2075 1959 2075 
z
" transform="scale(0.015625)"/>
       </defs>
       <use xlink:href="#DejaVuSans-39"/>
      </g>
     </g>
    </g>
    <g id="xtick_9">
     <g id="line2d_9">
      <g>
       <use xlink:href="#m57b27cfa90" x="372.909943" y="228.96" style="stroke: #000000; stroke-width: 0.8"/>
      </g>
     </g>
     <g id="text_9">
      <!-- 10 -->
      <g transform="translate(366.547443 243.558437) scale(0.1 -0.1)">
       <defs>
        <path id="DejaVuSans-31" d="M 794 531 
L 1825 531 
L 1825 4091 
L 703 3866 
L 703 4441 
L 1819 4666 
L 2450 4666 
L 2450 531 
L 3481 531 
L 3481 0 
L 794 0 
L 794 531 
z
" transform="scale(0.015625)"/>
        <path id="DejaVuSans-30" d="M 2034 4250 
Q 1547 4250 1301 3770 
Q 1056 3291 1056 2328 
Q 1056 1369 1301 889 
Q 1547 409 2034 409 
Q 2525 409 2770 889 
Q 3016 1369 3016 2328 
Q 3016 3291 2770 3770 
Q 2525 4250 2034 4250 
z
M 2034 4750 
Q 2819 4750 3233 4129 
Q 3647 3509 3647 2328 
Q 3647 1150 3233 529 
Q 2819 -91 2034 -91 
Q 1250 -91 836 529 
Q 422 1150 422 2328 
Q 422 3509 836 4129 
Q 1250 4750 2034 4750 
z
" transform="scale(0.015625)"/>
       </defs>
       <use xlink:href="#DejaVuSans-31"/>
       <use xlink:href="#DejaVuSans-30" x="63.623047"/>
      </g>
     </g>
    </g>
    <g id="text_10">
     <!-- wavelength [Å] -->
     <g transform="translate(182.690625 258.920937) scale(0.1 -0.1)">
      <defs>
       <path id="DejaVuSans-77" d="M 269 3500 
L 844 3500 
L 1563 769 
L 2278 3500 
L 2956 3500 
L 3675 769 
L 4391 3500 
L 4966 3500 
L 4050 0 
L 3372 0 
L 2619 2869 
L 1863 0 
L 1184 0 
L 269 3500 
z
" transform="scale(0.015625)"/>
       <path id="DejaVuSans-61" d="M 2194 1759 
Q 1497 1759 1228 1600 
Q 959 1441 959 1056 
Q 959 750 1161 570 
Q 1363 391 1709 391 
Q 2188 391 2477 730 
Q 2766 1069 2766 1631 
L 2766 1759 
L 2194 1759 
z
M 3341 1997 
L 3341 0 
L 2766 0 
L 2766 531 
Q 2569 213 2275 61 
Q 1981 -91 1556 -91 
Q 1019 -91 701 211 
Q 384 513 384 1019 
Q 384 1609 779 1909 
Q 1175 2209 1959 2209 
L 2766 2209 
L 2766 2266 
Q 2766 2663 2505 2880 
Q 2244 3097 1772 3097 
Q 1472 3097 1187 3025 
Q 903 2953 641 2809 
L 641 3341 
Q 956 3463 1253 3523 
Q 1550 3584 1831 3584 
Q 2591 3584 2966 3190 
Q 3341 2797 3341 1997 
z
" transform="scale(0.015625)"/>
       <path id="DejaVuSans-76" d="M 191 3500 
L 800 3500 
L 1894 563 
L 2988 3500 
L 3597 3500 
L 2284 0 
L 1503 0 
L 191 3500 
z
" transform="scale(0.015625)"/>
       <path id="DejaVuSans-65" d="M 3597 1894 
L 3597 1613 
L 953 1613 
Q 991 1019 1311 708 
Q 1631 397 2203 397 
Q 2534 397 2845 478 
Q 3156 559 3463 722 
L 3463 178 
Q 3153 47 2828 -22 
Q 2503 -91 2169 -91 
Q 1331 -91 842 396 
Q 353 884 353 1716 
Q 353 2575 817 3079 
Q 1281 3584 2069 3584 
Q 2775 3584 3186 3129 
Q 3597 2675 3597 1894 
z
M 3022 2063 
Q 3016 2534 2758 2815 
Q 2500 3097 2075 3097 
Q 1594 3097 1305 2825 
Q 1016 2553 972 2059 
L 3022 2063 
z
" transform="scale(0.015625)"/>
       <path id="DejaVuSans-6c" d="M 603 4863 
L 1178 4863 
L 1178 0 
L 603 0 
L 603 4863 
z
" transform="scale(0.015625)"/>
       <path id="DejaVuSans-6e" d="M 3513 2113 
L 3513 0 
L 2938 0 
L 2938 2094 
Q 2938 2591 2744 2837 
Q 2550 3084 2163 3084 
Q 1697 3084 1428 2787 
Q 1159 2491 1159 1978 
L 1159 0 
L 581 0 
L 581 3500 
L 1159 3500 
L 1159 2956 
Q 1366 3272 1645 3428 
Q 1925 3584 2291 3584 
Q 2894 3584 3203 3211 
Q 3513 2838 3513 2113 
z
" transform="scale(0.015625)"/>
       <path id="DejaVuSans-67" d="M 2906 1791 
Q 2906 2416 2648 2759 
Q 2391 3103 1925 3103 
Q 1463 3103 1205 2759 
Q 947 2416 947 1791 
Q 947 1169 1205 825 
Q 1463 481 1925 481 
Q 2391 481 2648 825 
Q 2906 1169 2906 1791 
z
M 3481 434 
Q 3481 -459 3084 -895 
Q 2688 -1331 1869 -1331 
Q 1566 -1331 1297 -1286 
Q 1028 -1241 775 -1147 
L 775 -588 
Q 1028 -725 1275 -790 
Q 1522 -856 1778 -856 
Q 2344 -856 2625 -561 
Q 2906 -266 2906 331 
L 2906 616 
Q 2728 306 2450 153 
Q 2172 0 1784 0 
Q 1141 0 747 490 
Q 353 981 353 1791 
Q 353 2603 747 3093 
Q 1141 3584 1784 3584 
Q 2172 3584 2450 3431 
Q 2728 3278 2906 2969 
L 2906 3500 
L 3481 3500 
L 3481 434 
z
" transform="scale(0.015625)"/>
       <path id="DejaVuSans-74" d="M 1172 4494 
L 1172 3500 
L 2356 3500 
L 2356 3053 
L 1172 3053 
L 1172 1153 
Q 1172 725 1289 603 
Q 1406 481 1766 481 
L 2356 481 
L 2356 0 
L 1766 0 
Q 1100 0 847 248 
Q 594 497 594 1153 
L 594 3053 
L 172 3053 
L 172 3500 
L 594 3500 
L 594 4494 
L 1172 4494 
z
" transform="scale(0.015625)"/>
       <path id="DejaVuSans-68" d="M 3513 2113 
L 3513 0 
L 2938 0 
L 2938 2094 
Q 2938 2591 2744 2837 
Q 2550 3084 2163 3084 
Q 1697 3084 1428 2787 
Q 1159 2491 1159 1978 
L 1159 0 
L 581 0 
L 581 4863 
L 1159 4863 
L 1159 2956 
Q 1366 3272 1645 3428 
Q 1925 3584 2291 3584 
Q 2894 3584 3203 3211 
Q 3513 2838 3513 2113 
z
" transform="scale(0.015625)"/>
       <path id="DejaVuSans-20" transform="scale(0.015625)"/>
       <path id="DejaVuSans-5b" d="M 550 4863 
L 1875 4863 
L 1875 4416 
L 1125 4416 
L 1125 -397 
L 1875 -397 
L 1875 -844 
L 550 -844 
L 550 4863 
z
" transform="scale(0.015625)"/>
       <path id="DejaVuSans-c5" d="M 2663 5081 
Q 2663 5278 2523 5417 
Q 2384 5556 2188 5556 
Q 1988 5556 1852 5420 
Q 1716 5284 1716 5081 
Q 1716 4884 1853 4746 
Q 1991 4609 2188 4609 
Q 2384 4609 2523 4746 
Q 2663 4884 2663 5081 
z
M 2188 4044 
L 1338 1722 
L 3041 1722 
L 2188 4044 
z
M 1716 4366 
Q 1525 4494 1428 4673 
Q 1331 4853 1331 5081 
Q 1331 5441 1579 5691 
Q 1828 5941 2188 5941 
Q 2544 5941 2795 5689 
Q 3047 5438 3047 5081 
Q 3047 4863 2948 4678 
Q 2850 4494 2663 4366 
L 4325 0 
L 3669 0 
L 3244 1197 
L 1141 1197 
L 716 0 
L 50 0 
L 1716 4366 
z
" transform="scale(0.015625)"/>
       <path id="DejaVuSans-5d" d="M 1947 4863 
L 1947 -844 
L 622 -844 
L 622 -397 
L 1369 -397 
L 1369 4416 
L 622 4416 
L 622 4863 
L 1947 4863 
z
" transform="scale(0.015625)"/>
      </defs>
      <use xlink:href="#DejaVuSans-77"/>
      <use xlink:href="#DejaVuSans-61" x="81.787109"/>
      <use xlink:href="#DejaVuSans-76" x="143.066406"/>
      <use xlink:href="#DejaVuSans-65" x="202.246094"/>
      <use xlink:href="#DejaVuSans-6c" x="263.769531"/>
      <use xlink:href="#DejaVuSans-65" x="291.552734"/>
      <use xlink:href="#DejaVuSans-6e" x="353.076172"/>
      <use xlink:href="#DejaVuSans-67" x="416.455078"/>
      <use xlink:href="#DejaVuSans-74" x="479.931641"/>
      <use xlink:href="#DejaVuSans-68" x="519.140625"/>
      <use xlink:href="#DejaVuSans-20" x="582.519531"/>
      <use xlink:href="#DejaVuSans-5b" x="614.306641"/>
      <use xlink:href="#DejaVuSans-c5" x="653.320312"/>
      <use xlink:href="#DejaVuSans-5d" x="721.728516"/>
     </g>
    </g>
   </g>
   <g id="matplotlib.axis_2">
    <g id="ytick_1">
     <g id="line2d_10">
      <defs>
       <path id="mddfaf4ef9e" d="M 0 0 
L -3.5 0 
" style="stroke: #000000; stroke-width: 0.8"/>
      </defs>
      <g>
       <use xlink:href="#mddfaf4ef9e" x="53.328125" y="218.88" style="stroke: #000000; stroke-width: 0.8"/>
      </g>
     </g>
     <g id="text_11">
      <!-- 0 -->
      <g transform="translate(39.965625 222.679219) scale(0.1 -0.1)">
       <use xlink:href="#DejaVuSans-30"/>
      </g>
     </g>
    </g>
    <g id="ytick_2">
     <g id="line2d_11">
      <g>
       <use xlink:href="#mddfaf4ef9e" x="53.328125" y="180.799154" style="stroke: #000000; stroke-width: 0.8"/>
      </g>
     </g>
     <g id="text_12">
      <!-- 500 -->
      <g transform="translate(27.240625 184.598373) scale(0.1 -0.1)">
       <use xlink:href="#DejaVuSans-35"/>
       <use xlink:href="#DejaVuSans-30" x="63.623047"/>
       <use xlink:href="#DejaVuSans-30" x="127.246094"/>
      </g>
     </g>
    </g>
    <g id="ytick_3">
     <g id="line2d_12">
      <g>
       <use xlink:href="#mddfaf4ef9e" x="53.328125" y="142.718308" style="stroke: #000000; stroke-width: 0.8"/>
      </g>
     </g>
     <g id="text_13">
      <!-- 1000 -->
      <g transform="translate(20.878125 146.517526) scale(0.1 -0.1)">
       <use xlink:href="#DejaVuSans-31"/>
       <use xlink:href="#DejaVuSans-30" x="63.623047"/>
       <use xlink:href="#DejaVuSans-30" x="127.246094"/>
       <use xlink:href="#DejaVuSans-30" x="190.869141"/>
      </g>
     </g>
    </g>
    <g id="ytick_4">
     <g id="line2d_13">
      <g>
       <use xlink:href="#mddfaf4ef9e" x="53.328125" y="104.637461" style="stroke: #000000; stroke-width: 0.8"/>
      </g>
     </g>
     <g id="text_14">
      <!-- 1500 -->
      <g transform="translate(20.878125 108.43668) scale(0.1 -0.1)">
       <use xlink:href="#DejaVuSans-31"/>
       <use xlink:href="#DejaVuSans-35" x="63.623047"/>
       <use xlink:href="#DejaVuSans-30" x="127.246094"/>
       <use xlink:href="#DejaVuSans-30" x="190.869141"/>
      </g>
     </g>
    </g>
    <g id="ytick_5">
     <g id="line2d_14">
      <g>
       <use xlink:href="#mddfaf4ef9e" x="53.328125" y="66.556615" style="stroke: #000000; stroke-width: 0.8"/>
      </g>
     </g>
     <g id="text_15">
      <!-- 2000 -->
      <g transform="translate(20.878125 70.355834) scale(0.1 -0.1)">
       <use xlink:href="#DejaVuSans-32"/>
       <use xlink:href="#DejaVuSans-30" x="63.623047"/>
       <use xlink:href="#DejaVuSans-30" x="127.246094"/>
       <use xlink:href="#DejaVuSans-30" x="190.869141"/>
      </g>
     </g>
    </g>
    <g id="ytick_6">
     <g id="line2d_15">
      <g>
       <use xlink:href="#mddfaf4ef9e" x="53.328125" y="28.475769" style="stroke: #000000; stroke-width: 0.8"/>
      </g>
     </g>
     <g id="text_16">
      <!-- 2500 -->
      <g transform="translate(20.878125 32.274988) scale(0.1 -0.1)">
       <use xlink:href="#DejaVuSans-32"/>
       <use xlink:href="#DejaVuSans-35" x="63.623047"/>
       <use xlink:href="#DejaVuSans-30" x="127.246094"/>
       <use xlink:href="#DejaVuSans-30" x="190.869141"/>
      </g>
     </g>
    </g>
    <g id="text_17">
     <!-- [counts] -->
     <g transform="translate(14.798438 138.6925) rotate(-90) scale(0.1 -0.1)">
      <defs>
       <path id="DejaVuSans-63" d="M 3122 3366 
L 3122 2828 
Q 2878 2963 2633 3030 
Q 2388 3097 2138 3097 
Q 1578 3097 1268 2742 
Q 959 2388 959 1747 
Q 959 1106 1268 751 
Q 1578 397 2138 397 
Q 2388 397 2633 464 
Q 2878 531 3122 666 
L 3122 134 
Q 2881 22 2623 -34 
Q 2366 -91 2075 -91 
Q 1284 -91 818 406 
Q 353 903 353 1747 
Q 353 2603 823 3093 
Q 1294 3584 2113 3584 
Q 2378 3584 2631 3529 
Q 2884 3475 3122 3366 
z
" transform="scale(0.015625)"/>
       <path id="DejaVuSans-6f" d="M 1959 3097 
Q 1497 3097 1228 2736 
Q 959 2375 959 1747 
Q 959 1119 1226 758 
Q 1494 397 1959 397 
Q 2419 397 2687 759 
Q 2956 1122 2956 1747 
Q 2956 2369 2687 2733 
Q 2419 3097 1959 3097 
z
M 1959 3584 
Q 2709 3584 3137 3096 
Q 3566 2609 3566 1747 
Q 3566 888 3137 398 
Q 2709 -91 1959 -91 
Q 1206 -91 779 398 
Q 353 888 353 1747 
Q 353 2609 779 3096 
Q 1206 3584 1959 3584 
z
" transform="scale(0.015625)"/>
       <path id="DejaVuSans-75" d="M 544 1381 
L 544 3500 
L 1119 3500 
L 1119 1403 
Q 1119 906 1312 657 
Q 1506 409 1894 409 
Q 2359 409 2629 706 
Q 2900 1003 2900 1516 
L 2900 3500 
L 3475 3500 
L 3475 0 
L 2900 0 
L 2900 538 
Q 2691 219 2414 64 
Q 2138 -91 1772 -91 
Q 1169 -91 856 284 
Q 544 659 544 1381 
z
M 1991 3584 
L 1991 3584 
z
" transform="scale(0.015625)"/>
       <path id="DejaVuSans-73" d="M 2834 3397 
L 2834 2853 
Q 2591 2978 2328 3040 
Q 2066 3103 1784 3103 
Q 1356 3103 1142 2972 
Q 928 2841 928 2578 
Q 928 2378 1081 2264 
Q 1234 2150 1697 2047 
L 1894 2003 
Q 2506 1872 2764 1633 
Q 3022 1394 3022 966 
Q 3022 478 2636 193 
Q 2250 -91 1575 -91 
Q 1294 -91 989 -36 
Q 684 19 347 128 
L 347 722 
Q 666 556 975 473 
Q 1284 391 1588 391 
Q 1994 391 2212 530 
Q 2431 669 2431 922 
Q 2431 1156 2273 1281 
Q 2116 1406 1581 1522 
L 1381 1569 
Q 847 1681 609 1914 
Q 372 2147 372 2553 
Q 372 3047 722 3315 
Q 1072 3584 1716 3584 
Q 2034 3584 2315 3537 
Q 2597 3491 2834 3397 
z
" transform="scale(0.015625)"/>
      </defs>
      <use xlink:href="#DejaVuSans-5b"/>
      <use xlink:href="#DejaVuSans-63" x="39.013672"/>
      <use xlink:href="#DejaVuSans-6f" x="93.994141"/>
      <use xlink:href="#DejaVuSans-75" x="155.175781"/>
      <use xlink:href="#DejaVuSans-6e" x="218.554688"/>
      <use xlink:href="#DejaVuSans-74" x="281.933594"/>
      <use xlink:href="#DejaVuSans-73" x="321.142578"/>
      <use xlink:href="#DejaVuSans-5d" x="373.242188"/>
     </g>
    </g>
   </g>
   <g id="patch_3">
    <path d="M 53.328125 228.96 
L 53.328125 7.2 
" style="fill: none; stroke: #000000; stroke-width: 0.8; stroke-linejoin: miter; stroke-linecap: square"/>
   </g>
   <g id="patch_4">
    <path d="M 388.128125 228.96 
L 388.128125 7.2 
" style="fill: none; stroke: #000000; stroke-width: 0.8; stroke-linejoin: miter; stroke-linecap: square"/>
   </g>
   <g id="patch_5">
    <path d="M 53.328125 228.96 
L 388.128125 228.96 
" style="fill: none; stroke: #000000; stroke-width: 0.8; stroke-linejoin: miter; stroke-linecap: square"/>
   </g>
   <g id="patch_6">
    <path d="M 53.328125 7.2 
L 388.128125 7.2 
" style="fill: none; stroke: #000000; stroke-width: 0.8; stroke-linejoin: miter; stroke-linecap: square"/>
   </g>
   <g id="legend_1">
    <g id="patch_7">
     <path d="M 284.125 44.834375 
L 381.128125 44.834375 
Q 383.128125 44.834375 383.128125 42.834375 
L 383.128125 14.2 
Q 383.128125 12.2 381.128125 12.2 
L 284.125 12.2 
Q 282.125 12.2 282.125 14.2 
L 282.125 42.834375 
Q 282.125 44.834375 284.125 44.834375 
z
" style="fill: #ffffff; opacity: 0.8; stroke: #cccccc; stroke-linejoin: miter"/>
    </g>
    <g id="line2d_16">
     <path d="M 286.125 20.298437 
L 286.125 20.298437 
L 296.125 20.298437 
L 296.125 20.298437 
L 306.125 20.298437 
" style="fill: none; stroke: #1f77b4; stroke-width: 1.5; stroke-linecap: square"/>
    </g>
    <g id="text_18">
     <!-- wfm -->
     <g transform="translate(314.125 23.798437) scale(0.1 -0.1)">
      <defs>
       <path id="DejaVuSans-66" d="M 2375 4863 
L 2375 4384 
L 1825 4384 
Q 1516 4384 1395 4259 
Q 1275 4134 1275 3809 
L 1275 3500 
L 2222 3500 
L 2222 3053 
L 1275 3053 
L 1275 0 
L 697 0 
L 697 3053 
L 147 3053 
L 147 3500 
L 697 3500 
L 697 3744 
Q 697 4328 969 4595 
Q 1241 4863 1831 4863 
L 2375 4863 
z
" transform="scale(0.015625)"/>
       <path id="DejaVuSans-6d" d="M 3328 2828 
Q 3544 3216 3844 3400 
Q 4144 3584 4550 3584 
Q 5097 3584 5394 3201 
Q 5691 2819 5691 2113 
L 5691 0 
L 5113 0 
L 5113 2094 
Q 5113 2597 4934 2840 
Q 4756 3084 4391 3084 
Q 3944 3084 3684 2787 
Q 3425 2491 3425 1978 
L 3425 0 
L 2847 0 
L 2847 2094 
Q 2847 2600 2669 2842 
Q 2491 3084 2119 3084 
Q 1678 3084 1418 2786 
Q 1159 2488 1159 1978 
L 1159 0 
L 581 0 
L 581 3500 
L 1159 3500 
L 1159 2956 
Q 1356 3278 1631 3431 
Q 1906 3584 2284 3584 
Q 2666 3584 2933 3390 
Q 3200 3197 3328 2828 
z
" transform="scale(0.015625)"/>
      </defs>
      <use xlink:href="#DejaVuSans-77"/>
      <use xlink:href="#DejaVuSans-66" x="81.787109"/>
      <use xlink:href="#DejaVuSans-6d" x="116.992188"/>
     </g>
    </g>
    <g id="line2d_17">
     <path d="M 286.125 34.976562 
L 286.125 34.976562 
L 296.125 34.976562 
L 296.125 34.976562 
L 306.125 34.976562 
" style="fill: none; stroke: #ff7f0e; stroke-width: 1.5; stroke-linecap: square"/>
    </g>
    <g id="text_19">
     <!-- ground_truth -->
     <g transform="translate(314.125 38.476562) scale(0.1 -0.1)">
      <defs>
       <path id="DejaVuSans-72" d="M 2631 2963 
Q 2534 3019 2420 3045 
Q 2306 3072 2169 3072 
Q 1681 3072 1420 2755 
Q 1159 2438 1159 1844 
L 1159 0 
L 581 0 
L 581 3500 
L 1159 3500 
L 1159 2956 
Q 1341 3275 1631 3429 
Q 1922 3584 2338 3584 
Q 2397 3584 2469 3576 
Q 2541 3569 2628 3553 
L 2631 2963 
z
" transform="scale(0.015625)"/>
       <path id="DejaVuSans-64" d="M 2906 2969 
L 2906 4863 
L 3481 4863 
L 3481 0 
L 2906 0 
L 2906 525 
Q 2725 213 2448 61 
Q 2172 -91 1784 -91 
Q 1150 -91 751 415 
Q 353 922 353 1747 
Q 353 2572 751 3078 
Q 1150 3584 1784 3584 
Q 2172 3584 2448 3432 
Q 2725 3281 2906 2969 
z
M 947 1747 
Q 947 1113 1208 752 
Q 1469 391 1925 391 
Q 2381 391 2643 752 
Q 2906 1113 2906 1747 
Q 2906 2381 2643 2742 
Q 2381 3103 1925 3103 
Q 1469 3103 1208 2742 
Q 947 2381 947 1747 
z
" transform="scale(0.015625)"/>
       <path id="DejaVuSans-5f" d="M 3263 -1063 
L 3263 -1509 
L -63 -1509 
L -63 -1063 
L 3263 -1063 
z
" transform="scale(0.015625)"/>
      </defs>
      <use xlink:href="#DejaVuSans-67"/>
      <use xlink:href="#DejaVuSans-72" x="63.476562"/>
      <use xlink:href="#DejaVuSans-6f" x="102.339844"/>
      <use xlink:href="#DejaVuSans-75" x="163.521484"/>
      <use xlink:href="#DejaVuSans-6e" x="226.900391"/>
      <use xlink:href="#DejaVuSans-64" x="290.279297"/>
      <use xlink:href="#DejaVuSans-5f" x="353.755859"/>
      <use xlink:href="#DejaVuSans-74" x="403.755859"/>
      <use xlink:href="#DejaVuSans-72" x="442.964844"/>
      <use xlink:href="#DejaVuSans-75" x="484.078125"/>
      <use xlink:href="#DejaVuSans-74" x="547.457031"/>
      <use xlink:href="#DejaVuSans-68" x="586.666016"/>
     </g>
    </g>
   </g>
   <g id="line2d_18">
    <path d="M 68.546307 218.88 
L 69.560852 218.88 
L 69.560852 218.575353 
L 70.575398 218.575353 
L 70.575398 187.653706 
L 71.589943 187.653706 
L 71.589943 136.396887 
L 72.604489 136.396887 
L 72.604489 101.667155 
L 73.619034 101.667155 
L 73.619034 98.544526 
L 74.63358 98.544526 
L 74.63358 88.262697 
L 75.648125 88.262697 
L 75.648125 92.375429 
L 76.66267 92.375429 
L 76.66267 87.958051 
L 77.677216 87.958051 
L 77.677216 77.752384 
L 78.691761 77.752384 
L 78.691761 73.335006 
L 79.706307 73.335006 
L 79.706307 65.794998 
L 80.720852 65.794998 
L 80.720852 56.42711 
L 81.735398 56.42711 
L 81.735398 53.761451 
L 82.749943 53.761451 
L 82.749943 48.430132 
L 83.764489 48.430132 
L 83.764489 40.128508 
L 84.779034 40.128508 
L 84.779034 42.641844 
L 85.79358 42.641844 
L 85.79358 32.055368 
L 86.808125 32.055368 
L 86.808125 30.075164 
L 87.82267 30.075164 
L 87.82267 31.598398 
L 88.837216 31.598398 
L 88.837216 19.488689 
L 89.851761 19.488689 
L 89.851761 23.220612 
L 90.866307 23.220612 
L 90.866307 20.783438 
L 91.880852 20.783438 
L 91.880852 22.458995 
L 92.895398 22.458995 
L 92.895398 29.085062 
L 93.909943 29.085062 
L 93.909943 24.820008 
L 94.924489 24.820008 
L 94.924489 25.276978 
L 95.939034 25.276978 
L 95.939034 32.664662 
L 96.95358 32.664662 
L 96.95358 39.290729 
L 97.968125 39.290729 
L 97.968125 27.104858 
L 98.98267 27.104858 
L 98.98267 37.234363 
L 99.997216 37.234363 
L 99.997216 36.853555 
L 101.011761 36.853555 
L 101.011761 40.052346 
L 102.026307 40.052346 
L 102.026307 47.973162 
L 103.040852 47.973162 
L 103.040852 43.174975 
L 104.055398 43.174975 
L 104.055398 56.731757 
L 105.069943 56.731757 
L 105.069943 70.897832 
L 106.084489 70.897832 
L 106.084489 73.182682 
L 107.099034 73.182682 
L 107.099034 86.434817 
L 108.11358 86.434817 
L 108.11358 95.955028 
L 109.128125 95.955028 
L 109.128125 107.226959 
L 110.14267 107.226959 
L 110.14267 120.631417 
L 111.157216 120.631417 
L 111.157216 128.171424 
L 112.171761 128.171424 
L 112.171761 133.731228 
L 113.186307 133.731228 
L 113.186307 140.58578 
L 114.200852 140.58578 
L 114.200852 149.344375 
L 115.215398 149.344375 
L 115.215398 161.377922 
L 116.229943 161.377922 
L 116.229943 169.451062 
L 117.244489 169.451062 
L 117.244489 176.000967 
L 118.259034 176.000967 
L 118.259034 185.825825 
L 119.27358 185.825825 
L 119.27358 192.147246 
L 120.288125 192.147246 
L 120.288125 199.763415 
L 121.30267 199.763415 
L 121.30267 205.475542 
L 122.317216 205.475542 
L 122.317216 184.531077 
L 123.331761 184.531077 
L 123.331761 144.241541 
L 124.346307 144.241541 
L 124.346307 113.091409 
L 125.360852 113.091409 
L 125.360852 84.378451 
L 126.375398 84.378451 
L 126.375398 82.702894 
L 127.389943 82.702894 
L 127.389943 83.692996 
L 128.404489 83.692996 
L 128.404489 86.58714 
L 129.419034 86.58714 
L 129.419034 91.689974 
L 130.43358 91.689974 
L 130.43358 91.842297 
L 131.448125 91.842297 
L 131.448125 95.345735 
L 132.46267 95.345735 
L 132.46267 94.431794 
L 133.477216 94.431794 
L 133.477216 89.70977 
L 134.491761 89.70977 
L 134.491761 92.146944 
L 135.506307 92.146944 
L 135.506307 101.89564 
L 136.520852 101.89564 
L 136.520852 97.4021 
L 137.535398 97.4021 
L 137.535398 104.180491 
L 138.549943 104.180491 
L 138.549943 102.581096 
L 139.564489 102.581096 
L 139.564489 107.303121 
L 140.579034 107.303121 
L 140.579034 106.769989 
L 141.59358 106.769989 
L 141.59358 113.091409 
L 142.608125 113.091409 
L 142.608125 110.501912 
L 143.62267 110.501912 
L 143.62267 114.766966 
L 144.637216 114.766966 
L 144.637216 112.634439 
L 145.651761 112.634439 
L 145.651761 114.690805 
L 146.666307 114.690805 
L 146.666307 118.194243 
L 147.680852 118.194243 
L 147.680852 115.604745 
L 148.695398 115.604745 
L 148.695398 122.383136 
L 149.709943 122.383136 
L 149.709943 118.955859 
L 150.724489 118.955859 
L 150.724489 121.393034 
L 151.739034 121.393034 
L 151.739034 124.972633 
L 152.75358 124.972633 
L 152.75358 126.343544 
L 153.768125 126.343544 
L 153.768125 131.370215 
L 154.78267 131.370215 
L 154.78267 131.827185 
L 155.797216 131.827185 
L 155.797216 129.923143 
L 156.811761 129.923143 
L 156.811761 130.532437 
L 157.826307 130.532437 
L 157.826307 133.502743 
L 158.840852 133.502743 
L 158.840852 131.294054 
L 159.855398 131.294054 
L 159.855398 130.075467 
L 160.869943 130.075467 
L 160.869943 135.330623 
L 161.884489 135.330623 
L 161.884489 141.04275 
L 162.899034 141.04275 
L 162.899034 144.62235 
L 163.91358 144.62235 
L 163.91358 142.794469 
L 164.928125 142.794469 
L 164.928125 144.013056 
L 165.94267 144.013056 
L 165.94267 150.334477 
L 166.957216 150.334477 
L 166.957216 153.228621 
L 167.971761 153.228621 
L 167.971761 151.40074 
L 168.986307 151.40074 
L 168.986307 163.358126 
L 170.000852 163.358126 
L 170.000852 169.451062 
L 171.015398 169.451062 
L 171.015398 168.080151 
L 172.029943 168.080151 
L 172.029943 158.483778 
L 173.044489 158.483778 
L 173.044489 146.45023 
L 174.059034 146.45023 
L 174.059034 130.608598 
L 175.07358 130.608598 
L 175.07358 132.055671 
L 176.088125 132.055671 
L 176.088125 126.419705 
L 177.10267 126.419705 
L 177.10267 133.274258 
L 178.117216 133.274258 
L 178.117216 139.595678 
L 179.131761 139.595678 
L 179.131761 144.16538 
L 180.146307 144.16538 
L 180.146307 145.383967 
L 181.160852 145.383967 
L 181.160852 152.695489 
L 182.175398 152.695489 
L 182.175398 155.43731 
L 183.189943 155.43731 
L 183.189943 152.923974 
L 184.204489 152.923974 
L 184.204489 150.562962 
L 185.219034 150.562962 
L 185.219034 154.371046 
L 186.23358 154.371046 
L 186.23358 157.950646 
L 187.248125 157.950646 
L 187.248125 160.083173 
L 188.26267 160.083173 
L 188.26267 154.0664 
L 189.277216 154.0664 
L 189.277216 162.824994 
L 190.291761 162.824994 
L 190.291761 164.119743 
L 191.306307 164.119743 
L 191.306307 161.606407 
L 192.320852 161.606407 
L 192.320852 160.768629 
L 193.335398 160.768629 
L 193.335398 163.281964 
L 194.349943 163.281964 
L 194.349943 161.530246 
L 195.364489 161.530246 
L 195.364489 165.490654 
L 196.379034 165.490654 
L 196.379034 167.090049 
L 197.39358 167.090049 
L 197.39358 167.851666 
L 198.408125 167.851666 
L 198.408125 166.861564 
L 199.42267 166.861564 
L 199.42267 171.659751 
L 200.437216 171.659751 
L 200.437216 173.716116 
L 201.451761 173.716116 
L 201.451761 177.067231 
L 203.480852 177.067231 
L 203.480852 178.742788 
L 204.495398 178.742788 
L 204.495398 180.18986 
L 205.509943 180.18986 
L 205.509943 183.693298 
L 206.524489 183.693298 
L 206.524489 186.892089 
L 207.539034 186.892089 
L 207.539034 187.501383 
L 208.55358 187.501383 
L 208.55358 187.349059 
L 209.568125 187.349059 
L 209.568125 189.253102 
L 210.58267 189.253102 
L 210.58267 192.680378 
L 211.597216 192.680378 
L 211.597216 194.965229 
L 212.611761 194.965229 
L 212.611761 195.803007 
L 213.626307 195.803007 
L 213.626307 198.773313 
L 214.640852 198.773313 
L 214.640852 202.505236 
L 215.655398 202.505236 
L 215.655398 199.382607 
L 216.669943 199.382607 
L 216.669943 198.087858 
L 217.684489 198.087858 
L 217.684489 194.508258 
L 218.699034 194.508258 
L 218.699034 187.349059 
L 219.71358 187.349059 
L 219.71358 181.713094 
L 220.728125 181.713094 
L 220.728125 179.73289 
L 221.74267 179.73289 
L 221.74267 184.378753 
L 222.757216 184.378753 
L 222.757216 186.282796 
L 223.771761 186.282796 
L 223.771761 189.938557 
L 224.786307 189.938557 
L 224.786307 188.567646 
L 225.800852 188.567646 
L 225.800852 192.299569 
L 226.815398 192.299569 
L 226.815398 194.508258 
L 227.829943 194.508258 
L 227.829943 196.259977 
L 228.844489 196.259977 
L 228.844489 194.051288 
L 229.859034 194.051288 
L 229.859034 193.061186 
L 230.87358 193.061186 
L 230.87358 196.107654 
L 231.888125 196.107654 
L 231.888125 199.306445 
L 232.90267 199.306445 
L 232.90267 200.829679 
L 233.917216 200.829679 
L 233.917216 201.438972 
L 234.931761 201.438972 
L 234.931761 202.200589 
L 235.946307 202.200589 
L 235.946307 204.48544 
L 236.960852 204.48544 
L 236.960852 204.02847 
L 237.975398 204.02847 
L 237.975398 201.972104 
L 238.989943 201.972104 
L 238.989943 204.866249 
L 240.004489 204.866249 
L 240.004489 205.704027 
L 241.019034 205.704027 
L 241.019034 204.790087 
L 242.03358 204.790087 
L 242.03358 207.227261 
L 243.048125 207.227261 
L 243.048125 206.617968 
L 244.06267 206.617968 
L 244.06267 208.141201 
L 245.077216 208.141201 
L 245.077216 209.816759 
L 246.091761 209.816759 
L 246.091761 210.273729 
L 247.106307 210.273729 
L 247.106307 210.578376 
L 248.120852 210.578376 
L 248.120852 208.97898 
L 249.135398 208.97898 
L 249.135398 211.111507 
L 250.149943 211.111507 
L 250.149943 210.806861 
L 251.164489 210.806861 
L 251.164489 212.939388 
L 252.179034 212.939388 
L 252.179034 212.406256 
L 253.19358 212.406256 
L 253.19358 214.767269 
L 254.208125 214.767269 
L 254.208125 213.47252 
L 255.22267 213.47252 
L 255.22267 215.3004 
L 256.237216 215.3004 
L 256.237216 214.462622 
L 257.251761 214.462622 
L 257.251761 216.290502 
L 258.266307 216.290502 
L 258.266307 215.376562 
L 259.280852 215.376562 
L 259.280852 211.263831 
L 260.295398 211.263831 
L 260.295398 209.207465 
L 261.309943 209.207465 
L 261.309943 207.760393 
L 262.324489 207.760393 
L 262.324489 203.495338 
L 263.339034 203.495338 
L 263.339034 202.581398 
L 264.35358 202.581398 
L 264.35358 205.704027 
L 265.368125 205.704027 
L 265.368125 205.551704 
L 266.38267 205.551704 
L 266.38267 204.02847 
L 267.397216 204.02847 
L 267.397216 207.151099 
L 268.411761 207.151099 
L 268.411761 208.217363 
L 269.426307 208.217363 
L 269.426307 208.97898 
L 271.455398 208.97898 
L 271.455398 208.674333 
L 274.499034 208.750495 
L 274.499034 209.816759 
L 275.51358 209.816759 
L 275.51358 211.263831 
L 276.528125 211.263831 
L 276.528125 210.045244 
L 277.54267 210.045244 
L 277.54267 211.720801 
L 278.557216 211.720801 
L 278.557216 210.578376 
L 279.571761 210.578376 
L 279.571761 211.492316 
L 280.586307 211.492316 
L 280.586307 211.949286 
L 281.600852 211.949286 
L 281.600852 213.01555 
L 282.615398 213.01555 
L 282.615398 213.853328 
L 283.629943 213.853328 
L 283.629943 212.939388 
L 284.644489 212.939388 
L 284.644489 214.234137 
L 285.659034 214.234137 
L 285.659034 213.777167 
L 286.67358 213.777167 
L 286.67358 215.148077 
L 287.688125 215.148077 
L 287.688125 214.919592 
L 289.717216 214.995754 
L 289.717216 216.138179 
L 291.746307 216.214341 
L 291.746307 216.442826 
L 292.760852 216.442826 
L 292.760852 216.747473 
L 293.775398 216.747473 
L 293.775398 216.062017 
L 294.789943 216.062017 
L 294.789943 217.356766 
L 295.804489 217.356766 
L 295.804489 217.128281 
L 296.819034 217.128281 
L 296.819034 217.96606 
L 297.83358 217.96606 
L 297.83358 217.737575 
L 298.848125 217.737575 
L 298.848125 217.96606 
L 299.86267 217.96606 
L 299.86267 218.118383 
L 300.877216 218.118383 
L 300.877216 216.671311 
L 301.891761 216.671311 
L 301.891761 213.853328 
L 302.906307 213.853328 
L 302.906307 213.47252 
L 303.920852 213.47252 
L 303.920852 210.502214 
L 304.935398 210.502214 
L 304.935398 207.988878 
L 305.949943 207.988878 
L 305.949943 207.760393 
L 306.964489 207.760393 
L 306.964489 203.343015 
L 307.979034 203.343015 
L 307.979034 203.495338 
L 308.99358 203.495338 
L 308.99358 204.104632 
L 310.008125 204.104632 
L 310.008125 203.5715 
L 311.02267 203.5715 
L 311.02267 204.02847 
L 312.037216 204.02847 
L 312.037216 203.266853 
L 313.051761 203.266853 
L 313.051761 204.790087 
L 314.066307 204.790087 
L 314.066307 200.525032 
L 315.080852 200.525032 
L 315.080852 203.343015 
L 316.095398 203.343015 
L 316.095398 204.104632 
L 318.124489 204.180793 
L 318.124489 204.713925 
L 319.139034 204.713925 
L 319.139034 205.627866 
L 320.15358 205.627866 
L 320.15358 203.038368 
L 321.168125 203.038368 
L 321.168125 204.104632 
L 322.18267 204.104632 
L 322.18267 205.627866 
L 323.197216 205.627866 
L 323.197216 204.180793 
L 324.211761 204.180793 
L 324.211761 203.495338 
L 325.226307 203.495338 
L 325.226307 204.48544 
L 326.240852 204.48544 
L 326.240852 204.180793 
L 327.255398 204.180793 
L 327.255398 206.237159 
L 328.269943 206.237159 
L 328.269943 207.303423 
L 329.284489 207.303423 
L 329.284489 206.770291 
L 330.299034 206.770291 
L 330.299034 207.151099 
L 331.31358 207.151099 
L 331.31358 207.531908 
L 332.328125 207.531908 
L 332.328125 207.684231 
L 333.34267 207.684231 
L 333.34267 209.359788 
L 334.357216 209.359788 
L 334.357216 207.760393 
L 335.371761 207.760393 
L 335.371761 209.283627 
L 337.400852 209.283627 
L 337.400852 210.502214 
L 339.429943 210.426052 
L 339.429943 209.207465 
L 340.444489 209.207465 
L 340.444489 211.949286 
L 341.459034 211.949286 
L 341.459034 211.644639 
L 342.47358 211.644639 
L 342.47358 211.492316 
L 343.488125 211.492316 
L 343.488125 212.634741 
L 344.50267 212.634741 
L 344.50267 213.777167 
L 345.517216 213.777167 
L 345.517216 214.614945 
L 346.531761 214.614945 
L 346.531761 214.919592 
L 347.546307 214.919592 
L 347.546307 215.452724 
L 349.575398 215.528886 
L 349.575398 215.909694 
L 350.589943 215.909694 
L 350.589943 217.96606 
L 351.604489 217.96606 
L 351.604489 218.651515 
L 352.619034 218.651515 
L 352.619034 218.88 
L 372.909943 218.88 
L 372.909943 218.88 
" clip-path="url(#p8e36f1c357)" style="fill: none; stroke: #1f77b4; stroke-width: 1.5; stroke-linecap: square"/>
   </g>
   <g id="line2d_19">
    <path d="M 68.546307 211.339992 
L 69.560852 211.339992 
L 69.560852 184.378753 
L 70.575398 184.378753 
L 70.575398 159.626203 
L 71.589943 159.626203 
L 71.589943 131.294054 
L 72.604489 131.294054 
L 72.604489 101.362509 
L 73.619034 101.362509 
L 73.619034 94.964926 
L 74.63358 94.964926 
L 74.63358 90.62371 
L 75.648125 90.62371 
L 75.648125 91.461488 
L 76.66267 91.461488 
L 76.66267 82.55057 
L 77.677216 82.55057 
L 77.677216 79.275618 
L 78.691761 79.275618 
L 78.691761 69.90773 
L 79.706307 69.90773 
L 79.706307 63.129339 
L 80.720852 63.129339 
L 80.720852 59.778224 
L 81.735398 59.778224 
L 81.735398 47.973162 
L 82.749943 47.973162 
L 82.749943 53.761451 
L 83.764489 53.761451 
L 83.764489 43.174975 
L 84.779034 43.174975 
L 84.779034 42.641844 
L 85.79358 42.641844 
L 85.79358 34.264057 
L 86.808125 34.264057 
L 86.808125 29.008901 
L 87.82267 29.008901 
L 87.82267 29.846679 
L 88.837216 29.846679 
L 88.837216 26.038595 
L 89.851761 26.038595 
L 89.851761 17.28 
L 90.866307 17.28 
L 90.866307 24.820008 
L 91.880852 24.820008 
L 91.880852 30.532134 
L 92.895398 30.532134 
L 92.895398 23.982229 
L 93.909943 23.982229 
L 93.909943 29.237386 
L 94.924489 29.237386 
L 94.924489 30.836781 
L 95.939034 30.836781 
L 95.939034 34.264057 
L 96.95358 34.264057 
L 96.95358 31.369913 
L 97.968125 31.369913 
L 97.968125 36.320423 
L 98.98267 36.320423 
L 98.98267 40.66164 
L 99.997216 40.66164 
L 99.997216 37.08204 
L 101.011761 37.08204 
L 101.011761 43.555784 
L 102.026307 43.555784 
L 102.026307 55.51317 
L 103.040852 55.51317 
L 103.040852 65.261866 
L 104.055398 65.261866 
L 104.055398 71.202478 
L 105.069943 71.202478 
L 105.069943 77.447737 
L 106.084489 77.447737 
L 106.084489 86.358655 
L 107.099034 86.358655 
L 107.099034 93.594016 
L 108.11358 93.594016 
L 108.11358 103.038066 
L 109.128125 103.038066 
L 109.128125 111.33969 
L 110.14267 111.33969 
L 110.14267 125.27728 
L 111.157216 125.27728 
L 111.157216 132.512641 
L 112.171761 132.512641 
L 112.171761 134.645168 
L 113.186307 134.645168 
L 113.186307 143.099116 
L 114.200852 143.099116 
L 114.200852 150.715285 
L 115.215398 150.715285 
L 115.215398 157.189029 
L 116.229943 157.189029 
L 116.229943 166.480756 
L 117.244489 166.480756 
L 117.244489 174.553895 
L 118.259034 174.553895 
L 118.259034 181.941579 
L 119.27358 181.941579 
L 119.27358 181.789256 
L 120.288125 181.789256 
L 120.288125 177.067231 
L 121.30267 177.067231 
L 121.30267 158.788425 
L 122.317216 158.788425 
L 122.317216 145.53629 
L 123.331761 145.53629 
L 123.331761 131.751024 
L 124.346307 131.751024 
L 124.346307 113.624541 
L 125.360852 113.624541 
L 125.360852 100.220083 
L 126.375398 100.220083 
L 126.375398 83.845319 
L 127.389943 83.845319 
L 127.389943 90.62371 
L 128.404489 90.62371 
L 128.404489 89.405123 
L 129.419034 89.405123 
L 129.419034 94.431794 
L 130.43358 94.431794 
L 130.43358 95.11725 
L 131.448125 95.11725 
L 131.448125 96.335837 
L 132.46267 96.335837 
L 132.46267 94.127148 
L 133.477216 94.127148 
L 133.477216 93.517854 
L 134.491761 93.517854 
L 134.491761 96.640484 
L 135.506307 96.640484 
L 135.506307 100.600892 
L 137.535398 100.677053 
L 137.535398 104.865946 
L 138.549943 104.865946 
L 138.549943 102.124125 
L 139.564489 102.124125 
L 139.564489 114.157673 
L 140.579034 114.157673 
L 140.579034 108.750193 
L 141.59358 108.750193 
L 141.59358 111.187367 
L 142.608125 111.187367 
L 142.608125 110.730397 
L 143.62267 110.730397 
L 143.62267 116.214039 
L 144.637216 116.214039 
L 144.637216 113.396056 
L 145.651761 113.396056 
L 145.651761 117.051817 
L 146.666307 117.051817 
L 146.666307 118.803536 
L 147.680852 118.803536 
L 147.680852 119.336668 
L 148.695398 119.336668 
L 148.695398 120.402932 
L 149.709943 120.402932 
L 149.709943 123.601723 
L 150.724489 123.601723 
L 150.724489 129.77082 
L 151.739034 129.77082 
L 151.739034 123.982531 
L 152.75358 123.982531 
L 152.75358 126.038897 
L 153.768125 126.038897 
L 153.768125 131.903347 
L 154.78267 131.903347 
L 154.78267 130.075467 
L 155.797216 130.075467 
L 155.797216 134.340521 
L 156.811761 134.340521 
L 156.811761 128.780718 
L 157.826307 128.780718 
L 157.826307 138.148606 
L 158.840852 138.148606 
L 158.840852 133.350419 
L 159.855398 133.350419 
L 159.855398 135.939917 
L 160.869943 135.939917 
L 160.869943 140.509618 
L 161.884489 140.509618 
L 161.884489 136.54921 
L 162.899034 136.54921 
L 162.899034 140.509618 
L 163.91358 140.509618 
L 163.91358 147.288009 
L 164.928125 147.288009 
L 164.928125 146.907201 
L 165.94267 146.907201 
L 165.94267 153.228621 
L 166.957216 153.228621 
L 166.957216 152.695489 
L 167.971761 152.695489 
L 167.971761 156.579736 
L 168.986307 156.579736 
L 168.986307 158.483778 
L 170.000852 158.483778 
L 170.000852 158.255293 
L 171.015398 158.255293 
L 171.015398 149.039728 
L 172.029943 149.039728 
L 172.029943 145.764775 
L 173.044489 145.764775 
L 173.044489 135.711432 
L 174.059034 135.711432 
L 174.059034 135.254462 
L 175.07358 135.254462 
L 175.07358 137.234666 
L 176.088125 137.234666 
L 176.088125 138.7579 
L 177.10267 138.7579 
L 177.10267 132.436479 
L 178.117216 132.436479 
L 178.117216 140.58578 
L 179.131761 140.58578 
L 179.131761 146.145584 
L 180.146307 146.145584 
L 180.146307 152.771651 
L 181.160852 152.771651 
L 181.160852 150.791447 
L 182.175398 150.791447 
L 182.175398 154.218723 
L 183.189943 154.218723 
L 183.189943 152.543166 
L 184.204489 152.543166 
L 184.204489 155.970442 
L 185.219034 155.970442 
L 185.219034 154.447208 
L 186.23358 154.447208 
L 186.23358 157.341352 
L 187.248125 157.341352 
L 187.248125 159.093071 
L 188.26267 159.093071 
L 188.26267 160.311658 
L 189.277216 160.311658 
L 189.277216 161.454084 
L 190.291761 161.454084 
L 190.291761 159.702365 
L 191.306307 159.702365 
L 191.306307 160.84479 
L 192.320852 160.84479 
L 192.320852 166.176109 
L 193.335398 166.176109 
L 193.335398 167.851666 
L 194.349943 167.851666 
L 194.349943 165.7953 
L 195.364489 165.7953 
L 195.364489 170.441164 
L 196.379034 170.441164 
L 196.379034 169.755708 
L 197.39358 169.755708 
L 197.39358 171.355104 
L 198.408125 171.355104 
L 198.408125 172.421368 
L 199.42267 172.421368 
L 199.42267 175.620159 
L 200.437216 175.620159 
L 200.437216 176.305614 
L 201.451761 176.305614 
L 201.451761 178.209656 
L 202.466307 178.209656 
L 202.466307 180.570669 
L 203.480852 180.570669 
L 203.480852 179.809052 
L 204.495398 179.809052 
L 204.495398 184.378753 
L 205.509943 184.378753 
L 205.509943 185.521179 
L 206.524489 185.521179 
L 206.524489 188.339161 
L 207.539034 188.339161 
L 207.539034 189.024617 
L 208.55358 189.024617 
L 208.55358 190.928659 
L 209.568125 190.928659 
L 209.568125 189.17694 
L 210.58267 189.17694 
L 210.58267 191.385629 
L 211.597216 191.385629 
L 211.597216 194.508258 
L 212.611761 194.508258 
L 212.611761 196.564624 
L 213.626307 196.564624 
L 213.626307 195.346037 
L 214.640852 195.346037 
L 214.640852 194.432097 
L 215.655398 194.432097 
L 215.655398 191.766437 
L 216.669943 191.766437 
L 216.669943 191.537952 
L 217.684489 191.537952 
L 217.684489 188.948455 
L 218.699034 188.948455 
L 218.699034 187.882191 
L 219.71358 187.882191 
L 219.71358 185.901987 
L 220.728125 185.901987 
L 220.728125 186.054311 
L 221.74267 186.054311 
L 221.74267 185.749664 
L 222.757216 185.749664 
L 222.757216 187.349059 
L 223.771761 187.349059 
L 223.771761 186.206634 
L 224.786307 186.206634 
L 224.786307 192.375731 
L 226.815398 192.299569 
L 226.815398 197.021594 
L 227.829943 197.021594 
L 227.829943 194.965229 
L 228.844489 194.965229 
L 228.844489 199.763415 
L 229.859034 199.763415 
L 229.859034 196.183816 
L 231.888125 196.107654 
L 231.888125 197.326241 
L 232.90267 197.326241 
L 232.90267 200.829679 
L 233.917216 200.829679 
L 233.917216 201.591296 
L 234.931761 201.591296 
L 234.931761 202.200589 
L 235.946307 202.200589 
L 235.946307 204.790087 
L 236.960852 204.790087 
L 236.960852 203.647662 
L 237.975398 203.647662 
L 237.975398 205.856351 
L 238.989943 205.856351 
L 238.989943 205.704027 
L 240.004489 205.704027 
L 240.004489 203.799985 
L 241.019034 203.799985 
L 241.019034 204.637764 
L 242.03358 204.637764 
L 242.03358 208.750495 
L 243.048125 208.750495 
L 243.048125 206.541806 
L 244.06267 206.541806 
L 244.06267 208.674333 
L 245.077216 208.674333 
L 245.077216 207.988878 
L 246.091761 207.988878 
L 246.091761 209.588274 
L 247.106307 209.588274 
L 247.106307 211.111507 
L 248.120852 211.111507 
L 248.120852 211.339992 
L 249.135398 211.339992 
L 249.135398 209.89292 
L 250.149943 209.89292 
L 250.149943 211.263831 
L 251.164489 211.263831 
L 251.164489 211.949286 
L 252.179034 211.949286 
L 252.179034 210.34989 
L 253.19358 210.34989 
L 253.19358 212.863226 
L 254.208125 212.863226 
L 254.208125 213.167873 
L 255.22267 213.167873 
L 255.22267 213.548682 
L 256.237216 213.548682 
L 256.237216 212.482418 
L 257.251761 212.482418 
L 257.251761 211.796963 
L 258.266307 211.796963 
L 258.266307 209.512112 
L 259.280852 209.512112 
L 259.280852 210.045244 
L 260.295398 210.045244 
L 260.295398 209.207465 
L 261.309943 209.207465 
L 261.309943 206.846453 
L 262.324489 206.846453 
L 262.324489 205.780189 
L 263.339034 205.780189 
L 263.339034 206.389482 
L 264.35358 206.389482 
L 264.35358 205.551704 
L 265.368125 205.551704 
L 265.368125 204.866249 
L 266.38267 204.866249 
L 266.38267 207.151099 
L 267.397216 207.151099 
L 267.397216 207.60807 
L 268.411761 207.60807 
L 268.411761 207.151099 
L 269.426307 207.151099 
L 269.426307 209.740597 
L 270.440852 209.740597 
L 270.440852 209.359788 
L 271.455398 209.359788 
L 271.455398 209.969082 
L 272.469943 209.969082 
L 272.469943 209.588274 
L 273.484489 209.588274 
L 273.484489 208.97898 
L 274.499034 208.97898 
L 274.499034 210.045244 
L 275.51358 210.045244 
L 275.51358 211.568478 
L 276.528125 211.568478 
L 276.528125 210.273729 
L 277.54267 210.273729 
L 277.54267 211.644639 
L 278.557216 211.644639 
L 278.557216 211.416154 
L 279.571761 211.416154 
L 279.571761 211.720801 
L 280.586307 211.720801 
L 280.586307 212.330094 
L 281.600852 212.330094 
L 281.600852 212.863226 
L 282.615398 212.863226 
L 282.615398 211.644639 
L 283.629943 211.644639 
L 283.629943 214.919592 
L 284.644489 214.919592 
L 284.644489 213.01555 
L 285.659034 213.01555 
L 285.659034 214.462622 
L 286.67358 214.462622 
L 286.67358 214.84343 
L 287.688125 214.84343 
L 287.688125 213.777167 
L 288.70267 213.777167 
L 288.70267 215.528886 
L 291.746307 215.605047 
L 291.746307 216.062017 
L 292.760852 216.062017 
L 292.760852 215.833532 
L 293.775398 215.833532 
L 293.775398 216.823634 
L 295.804489 216.823634 
L 295.804489 216.138179 
L 297.83358 216.214341 
L 297.83358 215.452724 
L 299.86267 215.528886 
L 299.86267 214.081813 
L 300.877216 214.081813 
L 300.877216 213.92949 
L 301.891761 213.92949 
L 301.891761 212.101609 
L 302.906307 212.101609 
L 302.906307 210.654537 
L 303.920852 210.654537 
L 303.920852 209.588274 
L 304.935398 209.588274 
L 304.935398 208.826657 
L 306.964489 208.750495 
L 306.964489 206.922614 
L 307.979034 206.922614 
L 307.979034 205.39938 
L 308.99358 205.39938 
L 308.99358 204.333117 
L 310.008125 204.333117 
L 310.008125 205.247057 
L 311.02267 205.247057 
L 311.02267 200.372709 
L 312.037216 200.372709 
L 312.037216 205.018572 
L 313.051761 205.018572 
L 313.051761 204.256955 
L 314.066307 204.256955 
L 314.066307 204.637764 
L 315.080852 204.637764 
L 315.080852 203.952308 
L 316.095398 203.952308 
L 316.095398 203.799985 
L 317.109943 203.799985 
L 317.109943 201.895943 
L 318.124489 201.895943 
L 318.124489 204.790087 
L 319.139034 204.790087 
L 319.139034 205.323219 
L 320.15358 205.323219 
L 320.15358 203.038368 
L 321.168125 203.038368 
L 321.168125 206.084836 
L 323.197216 206.008674 
L 323.197216 205.170895 
L 324.211761 205.170895 
L 324.211761 205.39938 
L 325.226307 205.39938 
L 325.226307 205.018572 
L 326.240852 205.018572 
L 326.240852 205.39938 
L 327.255398 205.39938 
L 327.255398 207.379584 
L 328.269943 207.379584 
L 328.269943 207.836555 
L 329.284489 207.836555 
L 329.284489 207.455746 
L 332.328125 207.379584 
L 332.328125 209.664435 
L 333.34267 209.664435 
L 333.34267 207.531908 
L 334.357216 207.531908 
L 334.357216 209.588274 
L 335.371761 209.588274 
L 335.371761 209.740597 
L 336.386307 209.740597 
L 336.386307 210.197567 
L 337.400852 210.197567 
L 337.400852 209.89292 
L 338.415398 209.89292 
L 338.415398 211.492316 
L 339.429943 211.492316 
L 339.429943 209.207465 
L 340.444489 209.207465 
L 340.444489 211.492316 
L 341.459034 211.492316 
L 341.459034 211.111507 
L 342.47358 211.111507 
L 342.47358 211.796963 
L 343.488125 211.796963 
L 343.488125 211.263831 
L 344.50267 211.263831 
L 344.50267 212.787065 
L 345.517216 212.787065 
L 345.517216 213.701005 
L 346.531761 213.701005 
L 346.531761 214.005652 
L 347.546307 214.005652 
L 347.546307 215.605047 
L 348.560852 215.605047 
L 348.560852 215.071915 
L 349.575398 215.071915 
L 349.575398 216.442826 
L 350.589943 216.442826 
L 350.589943 216.899796 
L 351.604489 216.899796 
L 351.604489 217.889898 
L 352.619034 217.889898 
L 352.619034 218.651515 
L 353.63358 218.651515 
L 353.63358 218.803838 
L 372.909943 218.88 
L 372.909943 218.88 
" clip-path="url(#p8e36f1c357)" style="fill: none; stroke: #ff7f0e; stroke-width: 1.5; stroke-linecap: square"/>
   </g>
  </g>
 </g>
 <defs>
  <clipPath id="p8e36f1c357">
   <rect x="53.328125" y="7.2" width="334.8" height="221.76"/>
  </clipPath>
 </defs>
</svg>
