<?xml version="1.0" encoding="utf-8" standalone="no"?>
<!DOCTYPE svg PUBLIC "-//W3C//DTD SVG 1.1//EN"
  "http://www.w3.org/Graphics/SVG/1.1/DTD/svg11.dtd">
<svg xmlns:xlink="http://www.w3.org/1999/xlink" width="388.965625pt" height="266.794375pt" viewBox="0 0 388.965625 266.794375" xmlns="http://www.w3.org/2000/svg" version="1.1">
 <metadata>
  <rdf:RDF xmlns:dc="http://purl.org/dc/elements/1.1/" xmlns:cc="http://creativecommons.org/ns#" xmlns:rdf="http://www.w3.org/1999/02/22-rdf-syntax-ns#">
   <cc:Work>
    <dc:type rdf:resource="http://purl.org/dc/dcmitype/StillImage"/>
    <dc:date>2025-01-20T13:50:49.389584</dc:date>
    <dc:format>image/svg+xml</dc:format>
    <dc:creator>
     <cc:Agent>
      <dc:title>Matplotlib v3.7.3, https://matplotlib.org/</dc:title>
     </cc:Agent>
    </dc:creator>
   </cc:Work>
  </rdf:RDF>
 </metadata>
 <defs>
  <style type="text/css">*{stroke-linejoin: round; stroke-linecap: butt}</style>
 </defs>
 <g id="figure_1">
  <g id="patch_1">
   <path d="M 0 266.794375 
L 388.965625 266.794375 
L 388.965625 0 
L 0 0 
z
" style="fill: #ffffff"/>
  </g>
  <g id="axes_1">
   <g id="patch_2">
    <path d="M 46.965625 228.96 
L 381.765625 228.96 
L 381.765625 7.2 
L 46.965625 7.2 
z
" style="fill: #ffffff"/>
   </g>
   <g id="matplotlib.axis_1">
    <g id="xtick_1">
     <g id="line2d_1">
      <defs>
       <path id="m730b04a5d4" d="M 0 0 
L 0 3.5 
" style="stroke: #000000; stroke-width: 0.8"/>
      </defs>
      <g>
       <use xlink:href="#m730b04a5d4" x="62.182731" y="228.96" style="stroke: #000000; stroke-width: 0.8"/>
      </g>
     </g>
     <g id="text_1">
      <!-- 0.00 -->
      <g transform="translate(51.049919 243.558437) scale(0.1 -0.1)">
       <defs>
        <path id="DejaVuSans-30" d="M 2034 4250 
Q 1547 4250 1301 3770 
Q 1056 3291 1056 2328 
Q 1056 1369 1301 889 
Q 1547 409 2034 409 
Q 2525 409 2770 889 
Q 3016 1369 3016 2328 
Q 3016 3291 2770 3770 
Q 2525 4250 2034 4250 
z
M 2034 4750 
Q 2819 4750 3233 4129 
Q 3647 3509 3647 2328 
Q 3647 1150 3233 529 
Q 2819 -91 2034 -91 
Q 1250 -91 836 529 
Q 422 1150 422 2328 
Q 422 3509 836 4129 
Q 1250 4750 2034 4750 
z
" transform="scale(0.015625)"/>
        <path id="DejaVuSans-2e" d="M 684 794 
L 1344 794 
L 1344 0 
L 684 0 
L 684 794 
z
" transform="scale(0.015625)"/>
       </defs>
       <use xlink:href="#DejaVuSans-30"/>
       <use xlink:href="#DejaVuSans-2e" x="63.623047"/>
       <use xlink:href="#DejaVuSans-30" x="95.410156"/>
       <use xlink:href="#DejaVuSans-30" x="159.033203"/>
      </g>
     </g>
    </g>
    <g id="xtick_2">
     <g id="line2d_2">
      <g>
       <use xlink:href="#m730b04a5d4" x="104.794183" y="228.96" style="stroke: #000000; stroke-width: 0.8"/>
      </g>
     </g>
     <g id="text_2">
      <!-- 0.01 -->
      <g transform="translate(93.661371 243.558437) scale(0.1 -0.1)">
       <defs>
        <path id="DejaVuSans-31" d="M 794 531 
L 1825 531 
L 1825 4091 
L 703 3866 
L 703 4441 
L 1819 4666 
L 2450 4666 
L 2450 531 
L 3481 531 
L 3481 0 
L 794 0 
L 794 531 
z
" transform="scale(0.015625)"/>
       </defs>
       <use xlink:href="#DejaVuSans-30"/>
       <use xlink:href="#DejaVuSans-2e" x="63.623047"/>
       <use xlink:href="#DejaVuSans-30" x="95.410156"/>
       <use xlink:href="#DejaVuSans-31" x="159.033203"/>
      </g>
     </g>
    </g>
    <g id="xtick_3">
     <g id="line2d_3">
      <g>
       <use xlink:href="#m730b04a5d4" x="147.405635" y="228.96" style="stroke: #000000; stroke-width: 0.8"/>
      </g>
     </g>
     <g id="text_3">
      <!-- 0.02 -->
      <g transform="translate(136.272823 243.558437) scale(0.1 -0.1)">
       <defs>
        <path id="DejaVuSans-32" d="M 1228 531 
L 3431 531 
L 3431 0 
L 469 0 
L 469 531 
Q 828 903 1448 1529 
Q 2069 2156 2228 2338 
Q 2531 2678 2651 2914 
Q 2772 3150 2772 3378 
Q 2772 3750 2511 3984 
Q 2250 4219 1831 4219 
Q 1534 4219 1204 4116 
Q 875 4013 500 3803 
L 500 4441 
Q 881 4594 1212 4672 
Q 1544 4750 1819 4750 
Q 2544 4750 2975 4387 
Q 3406 4025 3406 3419 
Q 3406 3131 3298 2873 
Q 3191 2616 2906 2266 
Q 2828 2175 2409 1742 
Q 1991 1309 1228 531 
z
" transform="scale(0.015625)"/>
       </defs>
       <use xlink:href="#DejaVuSans-30"/>
       <use xlink:href="#DejaVuSans-2e" x="63.623047"/>
       <use xlink:href="#DejaVuSans-30" x="95.410156"/>
       <use xlink:href="#DejaVuSans-32" x="159.033203"/>
      </g>
     </g>
    </g>
    <g id="xtick_4">
     <g id="line2d_4">
      <g>
       <use xlink:href="#m730b04a5d4" x="190.017088" y="228.96" style="stroke: #000000; stroke-width: 0.8"/>
      </g>
     </g>
     <g id="text_4">
      <!-- 0.03 -->
      <g transform="translate(178.884275 243.558437) scale(0.1 -0.1)">
       <defs>
        <path id="DejaVuSans-33" d="M 2597 2516 
Q 3050 2419 3304 2112 
Q 3559 1806 3559 1356 
Q 3559 666 3084 287 
Q 2609 -91 1734 -91 
Q 1441 -91 1130 -33 
Q 819 25 488 141 
L 488 750 
Q 750 597 1062 519 
Q 1375 441 1716 441 
Q 2309 441 2620 675 
Q 2931 909 2931 1356 
Q 2931 1769 2642 2001 
Q 2353 2234 1838 2234 
L 1294 2234 
L 1294 2753 
L 1863 2753 
Q 2328 2753 2575 2939 
Q 2822 3125 2822 3475 
Q 2822 3834 2567 4026 
Q 2313 4219 1838 4219 
Q 1578 4219 1281 4162 
Q 984 4106 628 3988 
L 628 4550 
Q 988 4650 1302 4700 
Q 1616 4750 1894 4750 
Q 2613 4750 3031 4423 
Q 3450 4097 3450 3541 
Q 3450 3153 3228 2886 
Q 3006 2619 2597 2516 
z
" transform="scale(0.015625)"/>
       </defs>
       <use xlink:href="#DejaVuSans-30"/>
       <use xlink:href="#DejaVuSans-2e" x="63.623047"/>
       <use xlink:href="#DejaVuSans-30" x="95.410156"/>
       <use xlink:href="#DejaVuSans-33" x="159.033203"/>
      </g>
     </g>
    </g>
    <g id="xtick_5">
     <g id="line2d_5">
      <g>
       <use xlink:href="#m730b04a5d4" x="232.62854" y="228.96" style="stroke: #000000; stroke-width: 0.8"/>
      </g>
     </g>
     <g id="text_5">
      <!-- 0.04 -->
      <g transform="translate(221.495727 243.558437) scale(0.1 -0.1)">
       <defs>
        <path id="DejaVuSans-34" d="M 2419 4116 
L 825 1625 
L 2419 1625 
L 2419 4116 
z
M 2253 4666 
L 3047 4666 
L 3047 1625 
L 3713 1625 
L 3713 1100 
L 3047 1100 
L 3047 0 
L 2419 0 
L 2419 1100 
L 313 1100 
L 313 1709 
L 2253 4666 
z
" transform="scale(0.015625)"/>
       </defs>
       <use xlink:href="#DejaVuSans-30"/>
       <use xlink:href="#DejaVuSans-2e" x="63.623047"/>
       <use xlink:href="#DejaVuSans-30" x="95.410156"/>
       <use xlink:href="#DejaVuSans-34" x="159.033203"/>
      </g>
     </g>
    </g>
    <g id="xtick_6">
     <g id="line2d_6">
      <g>
       <use xlink:href="#m730b04a5d4" x="275.239992" y="228.96" style="stroke: #000000; stroke-width: 0.8"/>
      </g>
     </g>
     <g id="text_6">
      <!-- 0.05 -->
      <g transform="translate(264.107179 243.558437) scale(0.1 -0.1)">
       <defs>
        <path id="DejaVuSans-35" d="M 691 4666 
L 3169 4666 
L 3169 4134 
L 1269 4134 
L 1269 2991 
Q 1406 3038 1543 3061 
Q 1681 3084 1819 3084 
Q 2600 3084 3056 2656 
Q 3513 2228 3513 1497 
Q 3513 744 3044 326 
Q 2575 -91 1722 -91 
Q 1428 -91 1123 -41 
Q 819 9 494 109 
L 494 744 
Q 775 591 1075 516 
Q 1375 441 1709 441 
Q 2250 441 2565 725 
Q 2881 1009 2881 1497 
Q 2881 1984 2565 2268 
Q 2250 2553 1709 2553 
Q 1456 2553 1204 2497 
Q 953 2441 691 2322 
L 691 4666 
z
" transform="scale(0.015625)"/>
       </defs>
       <use xlink:href="#DejaVuSans-30"/>
       <use xlink:href="#DejaVuSans-2e" x="63.623047"/>
       <use xlink:href="#DejaVuSans-30" x="95.410156"/>
       <use xlink:href="#DejaVuSans-35" x="159.033203"/>
      </g>
     </g>
    </g>
    <g id="xtick_7">
     <g id="line2d_7">
      <g>
       <use xlink:href="#m730b04a5d4" x="317.851444" y="228.96" style="stroke: #000000; stroke-width: 0.8"/>
      </g>
     </g>
     <g id="text_7">
      <!-- 0.06 -->
      <g transform="translate(306.718631 243.558437) scale(0.1 -0.1)">
       <defs>
        <path id="DejaVuSans-36" d="M 2113 2584 
Q 1688 2584 1439 2293 
Q 1191 2003 1191 1497 
Q 1191 994 1439 701 
Q 1688 409 2113 409 
Q 2538 409 2786 701 
Q 3034 994 3034 1497 
Q 3034 2003 2786 2293 
Q 2538 2584 2113 2584 
z
M 3366 4563 
L 3366 3988 
Q 3128 4100 2886 4159 
Q 2644 4219 2406 4219 
Q 1781 4219 1451 3797 
Q 1122 3375 1075 2522 
Q 1259 2794 1537 2939 
Q 1816 3084 2150 3084 
Q 2853 3084 3261 2657 
Q 3669 2231 3669 1497 
Q 3669 778 3244 343 
Q 2819 -91 2113 -91 
Q 1303 -91 875 529 
Q 447 1150 447 2328 
Q 447 3434 972 4092 
Q 1497 4750 2381 4750 
Q 2619 4750 2861 4703 
Q 3103 4656 3366 4563 
z
" transform="scale(0.015625)"/>
       </defs>
       <use xlink:href="#DejaVuSans-30"/>
       <use xlink:href="#DejaVuSans-2e" x="63.623047"/>
       <use xlink:href="#DejaVuSans-30" x="95.410156"/>
       <use xlink:href="#DejaVuSans-36" x="159.033203"/>
      </g>
     </g>
    </g>
    <g id="xtick_8">
     <g id="line2d_8">
      <g>
       <use xlink:href="#m730b04a5d4" x="360.462896" y="228.96" style="stroke: #000000; stroke-width: 0.8"/>
      </g>
     </g>
     <g id="text_8">
      <!-- 0.07 -->
      <g transform="translate(349.330083 243.558437) scale(0.1 -0.1)">
       <defs>
        <path id="DejaVuSans-37" d="M 525 4666 
L 3525 4666 
L 3525 4397 
L 1831 0 
L 1172 0 
L 2766 4134 
L 525 4134 
L 525 4666 
z
" transform="scale(0.015625)"/>
       </defs>
       <use xlink:href="#DejaVuSans-30"/>
       <use xlink:href="#DejaVuSans-2e" x="63.623047"/>
       <use xlink:href="#DejaVuSans-30" x="95.410156"/>
       <use xlink:href="#DejaVuSans-37" x="159.033203"/>
      </g>
     </g>
    </g>
    <g id="text_9">
     <!-- event_time_offset [s] -->
     <g transform="translate(161.511719 257.236562) scale(0.1 -0.1)">
      <defs>
       <path id="DejaVuSans-65" d="M 3597 1894 
L 3597 1613 
L 953 1613 
Q 991 1019 1311 708 
Q 1631 397 2203 397 
Q 2534 397 2845 478 
Q 3156 559 3463 722 
L 3463 178 
Q 3153 47 2828 -22 
Q 2503 -91 2169 -91 
Q 1331 -91 842 396 
Q 353 884 353 1716 
Q 353 2575 817 3079 
Q 1281 3584 2069 3584 
Q 2775 3584 3186 3129 
Q 3597 2675 3597 1894 
z
M 3022 2063 
Q 3016 2534 2758 2815 
Q 2500 3097 2075 3097 
Q 1594 3097 1305 2825 
Q 1016 2553 972 2059 
L 3022 2063 
z
" transform="scale(0.015625)"/>
       <path id="DejaVuSans-76" d="M 191 3500 
L 800 3500 
L 1894 563 
L 2988 3500 
L 3597 3500 
L 2284 0 
L 1503 0 
L 191 3500 
z
" transform="scale(0.015625)"/>
       <path id="DejaVuSans-6e" d="M 3513 2113 
L 3513 0 
L 2938 0 
L 2938 2094 
Q 2938 2591 2744 2837 
Q 2550 3084 2163 3084 
Q 1697 3084 1428 2787 
Q 1159 2491 1159 1978 
L 1159 0 
L 581 0 
L 581 3500 
L 1159 3500 
L 1159 2956 
Q 1366 3272 1645 3428 
Q 1925 3584 2291 3584 
Q 2894 3584 3203 3211 
Q 3513 2838 3513 2113 
z
" transform="scale(0.015625)"/>
       <path id="DejaVuSans-74" d="M 1172 4494 
L 1172 3500 
L 2356 3500 
L 2356 3053 
L 1172 3053 
L 1172 1153 
Q 1172 725 1289 603 
Q 1406 481 1766 481 
L 2356 481 
L 2356 0 
L 1766 0 
Q 1100 0 847 248 
Q 594 497 594 1153 
L 594 3053 
L 172 3053 
L 172 3500 
L 594 3500 
L 594 4494 
L 1172 4494 
z
" transform="scale(0.015625)"/>
       <path id="DejaVuSans-5f" d="M 3263 -1063 
L 3263 -1509 
L -63 -1509 
L -63 -1063 
L 3263 -1063 
z
" transform="scale(0.015625)"/>
       <path id="DejaVuSans-69" d="M 603 3500 
L 1178 3500 
L 1178 0 
L 603 0 
L 603 3500 
z
M 603 4863 
L 1178 4863 
L 1178 4134 
L 603 4134 
L 603 4863 
z
" transform="scale(0.015625)"/>
       <path id="DejaVuSans-6d" d="M 3328 2828 
Q 3544 3216 3844 3400 
Q 4144 3584 4550 3584 
Q 5097 3584 5394 3201 
Q 5691 2819 5691 2113 
L 5691 0 
L 5113 0 
L 5113 2094 
Q 5113 2597 4934 2840 
Q 4756 3084 4391 3084 
Q 3944 3084 3684 2787 
Q 3425 2491 3425 1978 
L 3425 0 
L 2847 0 
L 2847 2094 
Q 2847 2600 2669 2842 
Q 2491 3084 2119 3084 
Q 1678 3084 1418 2786 
Q 1159 2488 1159 1978 
L 1159 0 
L 581 0 
L 581 3500 
L 1159 3500 
L 1159 2956 
Q 1356 3278 1631 3431 
Q 1906 3584 2284 3584 
Q 2666 3584 2933 3390 
Q 3200 3197 3328 2828 
z
" transform="scale(0.015625)"/>
       <path id="DejaVuSans-6f" d="M 1959 3097 
Q 1497 3097 1228 2736 
Q 959 2375 959 1747 
Q 959 1119 1226 758 
Q 1494 397 1959 397 
Q 2419 397 2687 759 
Q 2956 1122 2956 1747 
Q 2956 2369 2687 2733 
Q 2419 3097 1959 3097 
z
M 1959 3584 
Q 2709 3584 3137 3096 
Q 3566 2609 3566 1747 
Q 3566 888 3137 398 
Q 2709 -91 1959 -91 
Q 1206 -91 779 398 
Q 353 888 353 1747 
Q 353 2609 779 3096 
Q 1206 3584 1959 3584 
z
" transform="scale(0.015625)"/>
       <path id="DejaVuSans-66" d="M 2375 4863 
L 2375 4384 
L 1825 4384 
Q 1516 4384 1395 4259 
Q 1275 4134 1275 3809 
L 1275 3500 
L 2222 3500 
L 2222 3053 
L 1275 3053 
L 1275 0 
L 697 0 
L 697 3053 
L 147 3053 
L 147 3500 
L 697 3500 
L 697 3744 
Q 697 4328 969 4595 
Q 1241 4863 1831 4863 
L 2375 4863 
z
" transform="scale(0.015625)"/>
       <path id="DejaVuSans-73" d="M 2834 3397 
L 2834 2853 
Q 2591 2978 2328 3040 
Q 2066 3103 1784 3103 
Q 1356 3103 1142 2972 
Q 928 2841 928 2578 
Q 928 2378 1081 2264 
Q 1234 2150 1697 2047 
L 1894 2003 
Q 2506 1872 2764 1633 
Q 3022 1394 3022 966 
Q 3022 478 2636 193 
Q 2250 -91 1575 -91 
Q 1294 -91 989 -36 
Q 684 19 347 128 
L 347 722 
Q 666 556 975 473 
Q 1284 391 1588 391 
Q 1994 391 2212 530 
Q 2431 669 2431 922 
Q 2431 1156 2273 1281 
Q 2116 1406 1581 1522 
L 1381 1569 
Q 847 1681 609 1914 
Q 372 2147 372 2553 
Q 372 3047 722 3315 
Q 1072 3584 1716 3584 
Q 2034 3584 2315 3537 
Q 2597 3491 2834 3397 
z
" transform="scale(0.015625)"/>
       <path id="DejaVuSans-20" transform="scale(0.015625)"/>
       <path id="DejaVuSans-5b" d="M 550 4863 
L 1875 4863 
L 1875 4416 
L 1125 4416 
L 1125 -397 
L 1875 -397 
L 1875 -844 
L 550 -844 
L 550 4863 
z
" transform="scale(0.015625)"/>
       <path id="DejaVuSans-5d" d="M 1947 4863 
L 1947 -844 
L 622 -844 
L 622 -397 
L 1369 -397 
L 1369 4416 
L 622 4416 
L 622 4863 
L 1947 4863 
z
" transform="scale(0.015625)"/>
      </defs>
      <use xlink:href="#DejaVuSans-65"/>
      <use xlink:href="#DejaVuSans-76" x="61.523438"/>
      <use xlink:href="#DejaVuSans-65" x="120.703125"/>
      <use xlink:href="#DejaVuSans-6e" x="182.226562"/>
      <use xlink:href="#DejaVuSans-74" x="245.605469"/>
      <use xlink:href="#DejaVuSans-5f" x="284.814453"/>
      <use xlink:href="#DejaVuSans-74" x="334.814453"/>
      <use xlink:href="#DejaVuSans-69" x="374.023438"/>
      <use xlink:href="#DejaVuSans-6d" x="401.806641"/>
      <use xlink:href="#DejaVuSans-65" x="499.21875"/>
      <use xlink:href="#DejaVuSans-5f" x="560.742188"/>
      <use xlink:href="#DejaVuSans-6f" x="610.742188"/>
      <use xlink:href="#DejaVuSans-66" x="671.923828"/>
      <use xlink:href="#DejaVuSans-66" x="707.128906"/>
      <use xlink:href="#DejaVuSans-73" x="742.333984"/>
      <use xlink:href="#DejaVuSans-65" x="794.433594"/>
      <use xlink:href="#DejaVuSans-74" x="855.957031"/>
      <use xlink:href="#DejaVuSans-20" x="895.166016"/>
      <use xlink:href="#DejaVuSans-5b" x="926.953125"/>
      <use xlink:href="#DejaVuSans-73" x="965.966797"/>
      <use xlink:href="#DejaVuSans-5d" x="1018.066406"/>
     </g>
    </g>
   </g>
   <g id="matplotlib.axis_2">
    <g id="ytick_1">
     <g id="line2d_9">
      <defs>
       <path id="m2e7cefbbd8" d="M 0 0 
L -3.5 0 
" style="stroke: #000000; stroke-width: 0.8"/>
      </defs>
      <g>
       <use xlink:href="#m2e7cefbbd8" x="46.965625" y="218.88" style="stroke: #000000; stroke-width: 0.8"/>
      </g>
     </g>
     <g id="text_10">
      <!-- 0 -->
      <g transform="translate(33.603125 222.679219) scale(0.1 -0.1)">
       <use xlink:href="#DejaVuSans-30"/>
      </g>
     </g>
    </g>
    <g id="ytick_2">
     <g id="line2d_10">
      <g>
       <use xlink:href="#m2e7cefbbd8" x="46.965625" y="184.30024" style="stroke: #000000; stroke-width: 0.8"/>
      </g>
     </g>
     <g id="text_11">
      <!-- 100 -->
      <g transform="translate(20.878125 188.099459) scale(0.1 -0.1)">
       <use xlink:href="#DejaVuSans-31"/>
       <use xlink:href="#DejaVuSans-30" x="63.623047"/>
       <use xlink:href="#DejaVuSans-30" x="127.246094"/>
      </g>
     </g>
    </g>
    <g id="ytick_3">
     <g id="line2d_11">
      <g>
       <use xlink:href="#m2e7cefbbd8" x="46.965625" y="149.72048" style="stroke: #000000; stroke-width: 0.8"/>
      </g>
     </g>
     <g id="text_12">
      <!-- 200 -->
      <g transform="translate(20.878125 153.519699) scale(0.1 -0.1)">
       <use xlink:href="#DejaVuSans-32"/>
       <use xlink:href="#DejaVuSans-30" x="63.623047"/>
       <use xlink:href="#DejaVuSans-30" x="127.246094"/>
      </g>
     </g>
    </g>
    <g id="ytick_4">
     <g id="line2d_12">
      <g>
       <use xlink:href="#m2e7cefbbd8" x="46.965625" y="115.14072" style="stroke: #000000; stroke-width: 0.8"/>
      </g>
     </g>
     <g id="text_13">
      <!-- 300 -->
      <g transform="translate(20.878125 118.939939) scale(0.1 -0.1)">
       <use xlink:href="#DejaVuSans-33"/>
       <use xlink:href="#DejaVuSans-30" x="63.623047"/>
       <use xlink:href="#DejaVuSans-30" x="127.246094"/>
      </g>
     </g>
    </g>
    <g id="ytick_5">
     <g id="line2d_13">
      <g>
       <use xlink:href="#m2e7cefbbd8" x="46.965625" y="80.560961" style="stroke: #000000; stroke-width: 0.8"/>
      </g>
     </g>
     <g id="text_14">
      <!-- 400 -->
      <g transform="translate(20.878125 84.360179) scale(0.1 -0.1)">
       <use xlink:href="#DejaVuSans-34"/>
       <use xlink:href="#DejaVuSans-30" x="63.623047"/>
       <use xlink:href="#DejaVuSans-30" x="127.246094"/>
      </g>
     </g>
    </g>
    <g id="ytick_6">
     <g id="line2d_14">
      <g>
       <use xlink:href="#m2e7cefbbd8" x="46.965625" y="45.981201" style="stroke: #000000; stroke-width: 0.8"/>
      </g>
     </g>
     <g id="text_15">
      <!-- 500 -->
      <g transform="translate(20.878125 49.780419) scale(0.1 -0.1)">
       <use xlink:href="#DejaVuSans-35"/>
       <use xlink:href="#DejaVuSans-30" x="63.623047"/>
       <use xlink:href="#DejaVuSans-30" x="127.246094"/>
      </g>
     </g>
    </g>
    <g id="ytick_7">
     <g id="line2d_15">
      <g>
       <use xlink:href="#m2e7cefbbd8" x="46.965625" y="11.401441" style="stroke: #000000; stroke-width: 0.8"/>
      </g>
     </g>
     <g id="text_16">
      <!-- 600 -->
      <g transform="translate(20.878125 15.20066) scale(0.1 -0.1)">
       <use xlink:href="#DejaVuSans-36"/>
       <use xlink:href="#DejaVuSans-30" x="63.623047"/>
       <use xlink:href="#DejaVuSans-30" x="127.246094"/>
      </g>
     </g>
    </g>
    <g id="text_17">
     <!-- [counts] -->
     <g transform="translate(14.798438 138.6925) rotate(-90) scale(0.1 -0.1)">
      <defs>
       <path id="DejaVuSans-63" d="M 3122 3366 
L 3122 2828 
Q 2878 2963 2633 3030 
Q 2388 3097 2138 3097 
Q 1578 3097 1268 2742 
Q 959 2388 959 1747 
Q 959 1106 1268 751 
Q 1578 397 2138 397 
Q 2388 397 2633 464 
Q 2878 531 3122 666 
L 3122 134 
Q 2881 22 2623 -34 
Q 2366 -91 2075 -91 
Q 1284 -91 818 406 
Q 353 903 353 1747 
Q 353 2603 823 3093 
Q 1294 3584 2113 3584 
Q 2378 3584 2631 3529 
Q 2884 3475 3122 3366 
z
" transform="scale(0.015625)"/>
       <path id="DejaVuSans-75" d="M 544 1381 
L 544 3500 
L 1119 3500 
L 1119 1403 
Q 1119 906 1312 657 
Q 1506 409 1894 409 
Q 2359 409 2629 706 
Q 2900 1003 2900 1516 
L 2900 3500 
L 3475 3500 
L 3475 0 
L 2900 0 
L 2900 538 
Q 2691 219 2414 64 
Q 2138 -91 1772 -91 
Q 1169 -91 856 284 
Q 544 659 544 1381 
z
M 1991 3584 
L 1991 3584 
z
" transform="scale(0.015625)"/>
      </defs>
      <use xlink:href="#DejaVuSans-5b"/>
      <use xlink:href="#DejaVuSans-63" x="39.013672"/>
      <use xlink:href="#DejaVuSans-6f" x="93.994141"/>
      <use xlink:href="#DejaVuSans-75" x="155.175781"/>
      <use xlink:href="#DejaVuSans-6e" x="218.554688"/>
      <use xlink:href="#DejaVuSans-74" x="281.933594"/>
      <use xlink:href="#DejaVuSans-73" x="321.142578"/>
      <use xlink:href="#DejaVuSans-5d" x="373.242188"/>
     </g>
    </g>
   </g>
   <g id="patch_3">
    <path d="M 46.965625 228.96 
L 46.965625 7.2 
" style="fill: none; stroke: #000000; stroke-width: 0.8; stroke-linejoin: miter; stroke-linecap: square"/>
   </g>
   <g id="patch_4">
    <path d="M 381.765625 228.96 
L 381.765625 7.2 
" style="fill: none; stroke: #000000; stroke-width: 0.8; stroke-linejoin: miter; stroke-linecap: square"/>
   </g>
   <g id="patch_5">
    <path d="M 46.965625 228.96 
L 381.765625 228.96 
" style="fill: none; stroke: #000000; stroke-width: 0.8; stroke-linejoin: miter; stroke-linecap: square"/>
   </g>
   <g id="patch_6">
    <path d="M 46.965625 7.2 
L 381.765625 7.2 
" style="fill: none; stroke: #000000; stroke-width: 0.8; stroke-linejoin: miter; stroke-linecap: square"/>
   </g>
   <g id="legend_1">
    <g id="patch_7">
     <path d="M 246.957813 45.1125 
L 374.765625 45.1125 
Q 376.765625 45.1125 376.765625 43.1125 
L 376.765625 14.2 
Q 376.765625 12.2 374.765625 12.2 
L 246.957813 12.2 
Q 244.957813 12.2 244.957813 14.2 
L 244.957813 43.1125 
Q 244.957813 45.1125 246.957813 45.1125 
z
" style="fill: #ffffff; opacity: 0.8; stroke: #cccccc; stroke-linejoin: miter"/>
    </g>
    <g id="line2d_16">
     <path d="M 248.957813 20.298437 
L 248.957813 20.298437 
L 258.957813 20.298437 
L 258.957813 20.298437 
L 268.957813 20.298437 
" style="fill: none; stroke: #1f77b4; stroke-width: 1.5; stroke-linecap: square"/>
    </g>
    <g id="text_18">
     <!-- detector_number:0 -->
     <g transform="translate(276.957813 23.798437) scale(0.1 -0.1)">
      <defs>
       <path id="DejaVuSans-64" d="M 2906 2969 
L 2906 4863 
L 3481 4863 
L 3481 0 
L 2906 0 
L 2906 525 
Q 2725 213 2448 61 
Q 2172 -91 1784 -91 
Q 1150 -91 751 415 
Q 353 922 353 1747 
Q 353 2572 751 3078 
Q 1150 3584 1784 3584 
Q 2172 3584 2448 3432 
Q 2725 3281 2906 2969 
z
M 947 1747 
Q 947 1113 1208 752 
Q 1469 391 1925 391 
Q 2381 391 2643 752 
Q 2906 1113 2906 1747 
Q 2906 2381 2643 2742 
Q 2381 3103 1925 3103 
Q 1469 3103 1208 2742 
Q 947 2381 947 1747 
z
" transform="scale(0.015625)"/>
       <path id="DejaVuSans-72" d="M 2631 2963 
Q 2534 3019 2420 3045 
Q 2306 3072 2169 3072 
Q 1681 3072 1420 2755 
Q 1159 2438 1159 1844 
L 1159 0 
L 581 0 
L 581 3500 
L 1159 3500 
L 1159 2956 
Q 1341 3275 1631 3429 
Q 1922 3584 2338 3584 
Q 2397 3584 2469 3576 
Q 2541 3569 2628 3553 
L 2631 2963 
z
" transform="scale(0.015625)"/>
       <path id="DejaVuSans-62" d="M 3116 1747 
Q 3116 2381 2855 2742 
Q 2594 3103 2138 3103 
Q 1681 3103 1420 2742 
Q 1159 2381 1159 1747 
Q 1159 1113 1420 752 
Q 1681 391 2138 391 
Q 2594 391 2855 752 
Q 3116 1113 3116 1747 
z
M 1159 2969 
Q 1341 3281 1617 3432 
Q 1894 3584 2278 3584 
Q 2916 3584 3314 3078 
Q 3713 2572 3713 1747 
Q 3713 922 3314 415 
Q 2916 -91 2278 -91 
Q 1894 -91 1617 61 
Q 1341 213 1159 525 
L 1159 0 
L 581 0 
L 581 4863 
L 1159 4863 
L 1159 2969 
z
" transform="scale(0.015625)"/>
       <path id="DejaVuSans-3a" d="M 750 794 
L 1409 794 
L 1409 0 
L 750 0 
L 750 794 
z
M 750 3309 
L 1409 3309 
L 1409 2516 
L 750 2516 
L 750 3309 
z
" transform="scale(0.015625)"/>
      </defs>
      <use xlink:href="#DejaVuSans-64"/>
      <use xlink:href="#DejaVuSans-65" x="63.476562"/>
      <use xlink:href="#DejaVuSans-74" x="125"/>
      <use xlink:href="#DejaVuSans-65" x="164.208984"/>
      <use xlink:href="#DejaVuSans-63" x="225.732422"/>
      <use xlink:href="#DejaVuSans-74" x="280.712891"/>
      <use xlink:href="#DejaVuSans-6f" x="319.921875"/>
      <use xlink:href="#DejaVuSans-72" x="381.103516"/>
      <use xlink:href="#DejaVuSans-5f" x="422.216797"/>
      <use xlink:href="#DejaVuSans-6e" x="472.216797"/>
      <use xlink:href="#DejaVuSans-75" x="535.595703"/>
      <use xlink:href="#DejaVuSans-6d" x="598.974609"/>
      <use xlink:href="#DejaVuSans-62" x="696.386719"/>
      <use xlink:href="#DejaVuSans-65" x="759.863281"/>
      <use xlink:href="#DejaVuSans-72" x="821.386719"/>
      <use xlink:href="#DejaVuSans-3a" x="860.75"/>
      <use xlink:href="#DejaVuSans-30" x="894.441406"/>
     </g>
    </g>
    <g id="line2d_17">
     <path d="M 248.957813 35.254687 
L 248.957813 35.254687 
L 258.957813 35.254687 
L 258.957813 35.254687 
L 268.957813 35.254687 
" style="fill: none; stroke: #ff7f0e; stroke-width: 1.5; stroke-linecap: square"/>
    </g>
    <g id="text_19">
     <!-- detector_number:1 -->
     <g transform="translate(276.957813 38.754687) scale(0.1 -0.1)">
      <use xlink:href="#DejaVuSans-64"/>
      <use xlink:href="#DejaVuSans-65" x="63.476562"/>
      <use xlink:href="#DejaVuSans-74" x="125"/>
      <use xlink:href="#DejaVuSans-65" x="164.208984"/>
      <use xlink:href="#DejaVuSans-63" x="225.732422"/>
      <use xlink:href="#DejaVuSans-74" x="280.712891"/>
      <use xlink:href="#DejaVuSans-6f" x="319.921875"/>
      <use xlink:href="#DejaVuSans-72" x="381.103516"/>
      <use xlink:href="#DejaVuSans-5f" x="422.216797"/>
      <use xlink:href="#DejaVuSans-6e" x="472.216797"/>
      <use xlink:href="#DejaVuSans-75" x="535.595703"/>
      <use xlink:href="#DejaVuSans-6d" x="598.974609"/>
      <use xlink:href="#DejaVuSans-62" x="696.386719"/>
      <use xlink:href="#DejaVuSans-65" x="759.863281"/>
      <use xlink:href="#DejaVuSans-72" x="821.386719"/>
      <use xlink:href="#DejaVuSans-3a" x="860.75"/>
      <use xlink:href="#DejaVuSans-31" x="894.441406"/>
     </g>
    </g>
   </g>
   <g id="line2d_18">
    <path d="M 62.183807 126.552041 
L 63.198352 126.552041 
L 63.198352 130.355815 
L 64.212898 130.355815 
L 64.212898 121.01928 
L 65.227443 121.01928 
L 65.227443 123.094065 
L 66.241989 123.094065 
L 66.241989 132.4306 
L 67.256534 132.4306 
L 67.256534 127.935232 
L 68.27108 127.935232 
L 68.27108 123.439863 
L 69.285625 123.439863 
L 69.285625 134.159588 
L 70.30017 134.159588 
L 70.30017 131.739005 
L 71.314716 131.739005 
L 71.314716 120.673482 
L 72.329261 120.673482 
L 72.329261 137.617564 
L 73.343807 137.617564 
L 73.343807 138.654957 
L 74.358352 138.654957 
L 74.358352 141.07554 
L 75.372898 141.07554 
L 75.372898 142.804528 
L 76.387443 142.804528 
L 76.387443 135.196981 
L 77.401989 135.196981 
L 77.401989 134.505386 
L 78.416534 134.505386 
L 78.416534 138.654957 
L 80.445625 138.654957 
L 80.445625 145.225111 
L 81.46017 145.225111 
L 81.46017 151.795266 
L 82.474716 151.795266 
L 82.474716 136.580172 
L 83.489261 136.580172 
L 83.489261 141.421338 
L 84.503807 141.421338 
L 84.503807 145.225111 
L 85.518352 145.225111 
L 85.518352 152.486861 
L 86.532898 152.486861 
L 86.532898 147.645695 
L 87.547443 147.645695 
L 87.547443 153.178456 
L 88.561989 153.178456 
L 88.561989 152.141063 
L 89.576534 152.141063 
L 89.576534 150.757873 
L 90.59108 150.757873 
L 90.59108 161.823396 
L 91.605625 161.823396 
L 91.605625 165.62717 
L 92.62017 165.62717 
L 92.62017 151.449468 
L 93.634716 151.449468 
L 93.634716 156.98223 
L 94.649261 156.98223 
L 94.649261 163.206587 
L 95.663807 163.206587 
L 95.663807 159.057015 
L 96.678352 159.057015 
L 96.678352 162.169194 
L 97.692898 162.169194 
L 97.692898 170.122539 
L 98.707443 170.122539 
L 98.707443 162.169194 
L 99.721989 162.169194 
L 99.721989 175.309503 
L 100.736534 175.309503 
L 100.736534 161.477599 
L 101.75108 161.477599 
L 101.75108 172.888919 
L 102.765625 172.888919 
L 102.765625 180.150669 
L 103.78017 180.150669 
L 103.78017 174.617907 
L 104.794716 174.617907 
L 104.794716 182.91705 
L 105.809261 182.91705 
L 105.809261 179.459074 
L 106.823807 179.459074 
L 106.823807 190.524597 
L 107.838352 190.524597 
L 107.838352 186.375026 
L 108.852898 186.375026 
L 108.852898 187.758216 
L 109.867443 187.758216 
L 109.867443 193.290978 
L 110.881989 193.290978 
L 110.881989 196.403156 
L 112.91108 196.403156 
L 112.91108 191.907787 
L 113.925625 191.907787 
L 113.925625 193.982573 
L 114.94017 193.982573 
L 114.94017 201.59012 
L 116.969261 201.59012 
L 116.969261 200.898525 
L 117.983807 200.898525 
L 117.983807 201.59012 
L 118.998352 201.59012 
L 118.998352 206.777084 
L 120.012898 206.777084 
L 120.012898 208.160274 
L 121.027443 208.160274 
L 121.027443 208.85187 
L 122.041989 208.85187 
L 122.041989 207.814477 
L 123.056534 207.814477 
L 123.056534 211.964048 
L 124.07108 211.964048 
L 124.07108 212.655643 
L 125.085625 212.655643 
L 125.085625 212.309846 
L 126.10017 212.309846 
L 126.10017 214.384631 
L 127.114716 214.384631 
L 127.114716 215.422024 
L 128.129261 215.422024 
L 128.129261 216.805214 
L 129.143807 216.805214 
L 129.143807 217.151012 
L 130.158352 217.151012 
L 130.158352 217.842607 
L 131.172898 217.842607 
L 131.172898 217.151012 
L 132.187443 217.151012 
L 132.187443 218.88 
L 133.201989 218.88 
L 133.201989 218.534202 
L 135.23108 218.534202 
L 135.23108 218.88 
L 148.42017 218.88 
L 148.42017 218.534202 
L 149.434716 218.534202 
L 149.434716 214.038834 
L 150.449261 214.038834 
L 150.449261 209.889262 
L 151.463807 209.889262 
L 151.463807 206.777084 
L 152.478352 206.777084 
L 152.478352 199.861132 
L 153.492898 199.861132 
L 153.492898 197.094751 
L 154.507443 197.094751 
L 154.507443 196.748954 
L 155.521989 196.748954 
L 155.521989 187.412419 
L 156.536534 187.412419 
L 156.536534 182.571252 
L 157.55108 182.571252 
L 157.55108 173.926312 
L 158.565625 173.926312 
L 158.565625 164.589777 
L 159.58017 164.589777 
L 159.58017 168.393551 
L 160.594716 168.393551 
L 160.594716 159.748611 
L 161.609261 159.748611 
L 161.609261 137.963362 
L 162.623807 137.963362 
L 162.623807 147.299897 
L 163.638352 147.299897 
L 163.638352 135.888576 
L 164.652898 135.888576 
L 164.652898 135.196981 
L 165.667443 135.196981 
L 165.667443 126.897839 
L 166.681989 126.897839 
L 166.681989 122.40247 
L 167.696534 122.40247 
L 167.696534 123.439863 
L 168.71108 123.439863 
L 168.71108 101.308816 
L 169.725625 101.308816 
L 169.725625 115.832316 
L 170.74017 115.832316 
L 170.74017 114.449125 
L 171.754716 114.449125 
L 171.754716 105.11259 
L 172.769261 105.11259 
L 172.769261 93.009674 
L 173.783807 93.009674 
L 173.783807 80.906758 
L 174.798352 80.906758 
L 174.798352 100.617221 
L 175.812898 100.617221 
L 175.812898 99.234031 
L 176.827443 99.234031 
L 176.827443 78.486175 
L 177.841989 78.486175 
L 177.841989 66.729057 
L 178.856534 66.729057 
L 178.856534 72.607616 
L 179.87108 72.607616 
L 179.87108 76.411389 
L 180.885625 76.411389 
L 180.885625 75.373997 
L 181.90017 75.373997 
L 181.90017 63.616878 
L 182.914716 63.616878 
L 182.914716 69.14964 
L 183.929261 69.14964 
L 183.929261 58.775712 
L 184.943807 58.775712 
L 184.943807 47.018593 
L 185.958352 47.018593 
L 185.958352 43.21482 
L 186.972898 43.21482 
L 186.972898 53.24295 
L 187.987443 53.24295 
L 187.987443 28.691321 
L 189.001989 28.691321 
L 189.001989 41.140034 
L 190.016534 41.140034 
L 190.016534 42.177427 
L 191.03108 42.177427 
L 191.03108 33.532487 
L 192.045625 33.532487 
L 192.045625 34.915678 
L 193.06017 34.915678 
L 193.06017 25.233345 
L 194.074716 25.233345 
L 194.074716 22.812762 
L 195.089261 22.812762 
L 195.089261 31.803499 
L 196.103807 31.803499 
L 196.103807 34.915678 
L 197.118352 34.915678 
L 197.118352 25.233345 
L 198.132898 25.233345 
L 198.132898 35.95307 
L 199.147443 35.95307 
L 199.147443 28.345523 
L 201.176534 28.345523 
L 201.176534 52.897153 
L 202.19108 52.897153 
L 202.19108 50.822367 
L 203.205625 50.822367 
L 203.205625 53.24295 
L 204.22017 53.24295 
L 204.22017 46.326998 
L 205.234716 46.326998 
L 205.234716 47.710189 
L 206.249261 47.710189 
L 206.249261 49.439177 
L 207.263807 49.439177 
L 207.263807 44.59801 
L 208.278352 44.59801 
L 208.278352 41.83163 
L 209.292898 41.83163 
L 209.292898 63.271081 
L 210.307443 63.271081 
L 210.307443 52.897153 
L 211.321989 52.897153 
L 211.321989 64.308473 
L 212.336534 64.308473 
L 212.336534 67.074854 
L 213.35108 67.074854 
L 213.35108 55.663533 
L 214.365625 55.663533 
L 214.365625 66.729057 
L 215.38017 66.729057 
L 215.38017 48.747581 
L 216.394716 48.747581 
L 216.394716 63.962676 
L 217.409261 63.962676 
L 217.409261 70.187033 
L 218.423807 70.187033 
L 218.423807 59.121509 
L 219.438352 59.121509 
L 219.438352 65.000069 
L 220.452898 65.000069 
L 220.452898 49.439177 
L 221.467443 49.439177 
L 221.467443 76.757187 
L 222.481989 76.757187 
L 222.481989 74.336604 
L 223.496534 74.336604 
L 223.496534 75.028199 
L 224.51108 75.028199 
L 224.51108 70.878628 
L 225.525625 70.878628 
L 225.525625 71.224425 
L 226.54017 71.224425 
L 226.54017 69.14964 
L 227.554716 69.14964 
L 227.554716 76.065592 
L 228.569261 76.065592 
L 228.569261 76.411389 
L 229.583807 76.411389 
L 229.583807 83.327341 
L 230.598352 83.327341 
L 230.598352 69.14964 
L 231.612898 69.14964 
L 231.612898 68.112247 
L 232.627443 68.112247 
L 232.627443 66.037461 
L 233.641989 66.037461 
L 233.641989 67.766449 
L 234.656534 67.766449 
L 234.656534 77.79458 
L 235.67108 77.79458 
L 235.67108 82.981544 
L 236.685625 82.981544 
L 236.685625 73.990806 
L 237.70017 73.990806 
L 237.70017 76.411389 
L 238.714716 76.411389 
L 238.714716 75.719794 
L 239.729261 75.719794 
L 239.729261 84.018937 
L 240.743807 84.018937 
L 240.743807 78.140377 
L 241.758352 78.140377 
L 241.758352 77.102985 
L 242.772898 77.102985 
L 242.772898 79.869365 
L 243.787443 79.869365 
L 243.787443 78.486175 
L 244.801989 78.486175 
L 244.801989 89.897496 
L 245.816534 89.897496 
L 245.816534 85.402127 
L 246.83108 85.402127 
L 246.83108 94.738662 
L 247.845625 94.738662 
L 247.845625 88.860103 
L 248.86017 88.860103 
L 248.86017 85.402127 
L 249.874716 85.402127 
L 249.874716 87.131115 
L 250.889261 87.131115 
L 250.889261 75.719794 
L 251.903807 75.719794 
L 251.903807 86.785317 
L 252.918352 86.785317 
L 252.918352 93.355472 
L 253.932898 93.355472 
L 253.932898 102.346209 
L 254.947443 102.346209 
L 254.947443 110.645352 
L 255.961989 110.645352 
L 255.961989 108.570566 
L 256.976534 108.570566 
L 256.976534 95.430257 
L 257.99108 95.430257 
L 257.99108 117.215506 
L 259.005625 117.215506 
L 259.005625 116.869708 
L 260.02017 116.869708 
L 260.02017 119.290292 
L 261.034716 119.290292 
L 261.034716 122.40247 
L 262.049261 122.40247 
L 262.049261 134.505386 
L 263.063807 134.505386 
L 263.063807 129.318422 
L 264.078352 129.318422 
L 264.078352 144.187719 
L 265.092898 144.187719 
L 265.092898 146.954099 
L 266.107443 146.954099 
L 266.107443 148.33729 
L 267.121989 148.33729 
L 267.121989 151.103671 
L 268.136534 151.103671 
L 268.136534 160.440206 
L 269.15108 160.440206 
L 269.15108 164.935575 
L 270.165625 164.935575 
L 270.165625 166.664563 
L 271.18017 166.664563 
L 271.18017 177.730086 
L 272.194716 177.730086 
L 272.194716 178.421681 
L 273.209261 178.421681 
L 273.209261 177.384288 
L 274.223807 177.384288 
L 274.223807 179.459074 
L 275.238352 179.459074 
L 275.238352 189.141407 
L 276.252898 189.141407 
L 276.252898 183.954443 
L 277.267443 183.954443 
L 277.267443 195.365763 
L 278.281989 195.365763 
L 278.281989 198.477942 
L 279.296534 198.477942 
L 279.296534 202.281715 
L 280.31108 202.281715 
L 280.31108 206.777084 
L 281.325625 206.777084 
L 281.325625 207.468679 
L 283.354716 207.468679 
L 283.354716 215.076226 
L 284.369261 215.076226 
L 284.369261 216.459417 
L 285.383807 216.459417 
L 285.383807 218.534202 
L 286.398352 218.534202 
L 286.398352 218.88 
L 287.412898 218.88 
L 287.412898 218.534202 
L 288.427443 218.534202 
L 288.427443 218.88 
L 298.572898 218.88 
L 298.572898 216.113619 
L 299.587443 216.113619 
L 299.587443 211.272453 
L 300.601989 211.272453 
L 300.601989 206.085489 
L 301.616534 206.085489 
L 301.616534 200.552727 
L 302.63108 200.552727 
L 302.63108 199.861132 
L 303.645625 199.861132 
L 303.645625 193.636775 
L 304.66017 193.636775 
L 304.66017 191.216192 
L 305.674716 191.216192 
L 305.674716 184.991835 
L 306.689261 184.991835 
L 306.689261 177.384288 
L 307.703807 177.384288 
L 307.703807 183.954443 
L 308.718352 183.954443 
L 308.718352 174.27211 
L 309.732898 174.27211 
L 309.732898 169.776741 
L 310.747443 169.776741 
L 310.747443 160.786003 
L 311.761989 160.786003 
L 311.761989 165.972967 
L 312.776534 165.972967 
L 312.776534 163.206587 
L 313.79108 163.206587 
L 313.79108 150.412075 
L 314.805625 150.412075 
L 314.805625 152.832659 
L 315.82017 152.832659 
L 315.82017 146.262504 
L 316.834716 146.262504 
L 316.834716 144.533516 
L 317.849261 144.533516 
L 317.849261 141.421338 
L 318.863807 141.421338 
L 318.863807 137.617564 
L 319.878352 137.617564 
L 319.878352 136.580172 
L 320.892898 136.580172 
L 320.892898 130.701612 
L 321.907443 130.701612 
L 321.907443 133.467993 
L 322.921989 133.467993 
L 322.921989 126.206244 
L 323.936534 126.206244 
L 323.936534 123.094065 
L 324.95108 123.094065 
L 324.95108 123.439863 
L 325.965625 123.439863 
L 325.965625 126.897839 
L 326.98017 126.897839 
L 326.98017 125.168851 
L 327.994716 125.168851 
L 327.994716 120.673482 
L 329.009261 120.673482 
L 329.009261 112.028542 
L 330.023807 112.028542 
L 330.023807 99.925626 
L 331.038352 99.925626 
L 331.038352 107.187376 
L 332.052898 107.187376 
L 332.052898 105.11259 
L 333.067443 105.11259 
L 333.067443 105.804185 
L 334.081989 105.804185 
L 334.081989 101.308816 
L 335.096534 101.308816 
L 335.096534 103.383602 
L 336.11108 103.383602 
L 336.11108 96.813448 
L 337.125625 96.813448 
L 337.125625 114.449125 
L 338.14017 114.449125 
L 338.14017 92.318079 
L 339.154716 92.318079 
L 339.154716 87.82271 
L 340.169261 87.82271 
L 340.169261 96.121852 
L 341.183807 96.121852 
L 341.183807 83.673139 
L 342.198352 83.673139 
L 342.198352 85.402127 
L 343.212898 85.402127 
L 343.212898 93.701269 
L 344.227443 93.701269 
L 344.227443 98.542436 
L 345.241989 98.542436 
L 345.241989 90.589091 
L 346.256534 90.589091 
L 346.256534 91.626484 
L 347.27108 91.626484 
L 347.27108 109.607959 
L 348.285625 109.607959 
L 348.285625 100.271424 
L 349.30017 100.271424 
L 349.30017 99.925626 
L 350.314716 99.925626 
L 350.314716 97.85084 
L 351.329261 97.85084 
L 351.329261 100.963019 
L 352.343807 100.963019 
L 352.343807 95.08446 
L 353.358352 95.08446 
L 353.358352 97.159245 
L 354.372898 97.159245 
L 354.372898 124.477256 
L 355.387443 124.477256 
L 355.387443 105.804185 
L 356.401989 105.804185 
L 356.401989 98.888233 
L 357.416534 98.888233 
L 357.416534 106.49578 
L 358.43108 106.49578 
L 358.43108 102.692007 
L 359.445625 102.692007 
L 359.445625 106.49578 
L 360.46017 106.49578 
L 360.46017 108.916364 
L 361.474716 108.916364 
L 361.474716 114.103328 
L 362.489261 114.103328 
L 362.489261 113.411732 
L 363.503807 113.411732 
L 363.503807 110.299554 
L 364.518352 110.299554 
L 364.518352 115.14072 
L 365.532898 115.14072 
L 365.532898 121.710875 
L 366.547443 121.710875 
L 366.547443 121.710875 
" clip-path="url(#p2bebbe8640)" style="fill: none; stroke: #1f77b4; stroke-width: 1.5; stroke-linecap: square"/>
   </g>
   <g id="line2d_19">
    <path d="M 62.183807 128.626827 
L 63.198352 128.626827 
L 63.198352 124.477256 
L 64.212898 124.477256 
L 64.212898 131.739005 
L 65.227443 131.739005 
L 65.227443 126.552041 
L 66.241989 126.552041 
L 66.241989 134.159588 
L 67.256534 134.159588 
L 67.256534 138.654957 
L 68.27108 138.654957 
L 68.27108 141.767136 
L 69.285625 141.767136 
L 69.285625 136.234374 
L 70.30017 136.234374 
L 70.30017 135.888576 
L 71.314716 135.888576 
L 71.314716 129.66422 
L 72.329261 129.66422 
L 72.329261 139.346552 
L 73.343807 139.346552 
L 73.343807 136.234374 
L 74.358352 136.234374 
L 74.358352 153.870051 
L 75.372898 153.870051 
L 75.372898 135.542779 
L 76.387443 135.542779 
L 76.387443 137.963362 
L 77.401989 137.963362 
L 77.401989 150.066278 
L 78.416534 150.066278 
L 78.416534 145.570909 
L 79.43108 145.570909 
L 79.43108 145.916707 
L 80.445625 145.916707 
L 80.445625 152.832659 
L 81.46017 152.832659 
L 81.46017 150.757873 
L 82.474716 150.757873 
L 82.474716 148.33729 
L 83.489261 148.33729 
L 83.489261 161.477599 
L 84.503807 161.477599 
L 84.503807 163.206587 
L 85.518352 163.206587 
L 85.518352 151.103671 
L 86.532898 151.103671 
L 86.532898 155.944837 
L 87.547443 155.944837 
L 87.547443 160.440206 
L 88.561989 160.440206 
L 88.561989 157.328027 
L 89.576534 157.328027 
L 89.576534 164.935575 
L 90.59108 164.935575 
L 90.59108 164.243979 
L 91.605625 164.243979 
L 91.605625 163.552384 
L 92.62017 163.552384 
L 92.62017 170.814134 
L 93.634716 170.814134 
L 93.634716 168.393551 
L 94.649261 168.393551 
L 94.649261 169.085146 
L 95.663807 169.085146 
L 95.663807 178.767479 
L 96.678352 178.767479 
L 96.678352 177.730086 
L 97.692898 177.730086 
L 97.692898 180.496467 
L 99.721989 180.496467 
L 99.721989 188.795609 
L 100.736534 188.795609 
L 100.736534 183.608645 
L 101.75108 183.608645 
L 101.75108 194.674168 
L 102.765625 194.674168 
L 102.765625 191.216192 
L 103.78017 191.216192 
L 103.78017 197.094751 
L 104.794716 197.094751 
L 104.794716 194.674168 
L 105.809261 194.674168 
L 105.809261 191.907787 
L 106.823807 191.907787 
L 106.823807 193.982573 
L 107.838352 193.982573 
L 107.838352 203.319108 
L 108.852898 203.319108 
L 108.852898 200.20693 
L 109.867443 200.20693 
L 109.867443 201.935918 
L 110.881989 201.935918 
L 110.881989 206.431286 
L 111.896534 206.431286 
L 111.896534 206.085489 
L 112.91108 206.085489 
L 112.91108 208.85187 
L 113.925625 208.85187 
L 113.925625 207.122882 
L 114.94017 207.122882 
L 114.94017 211.272453 
L 115.954716 211.272453 
L 115.954716 212.309846 
L 116.969261 212.309846 
L 116.969261 212.655643 
L 117.983807 212.655643 
L 117.983807 213.693036 
L 118.998352 213.693036 
L 118.998352 214.384631 
L 120.012898 214.384631 
L 120.012898 217.151012 
L 121.027443 217.151012 
L 121.027443 216.805214 
L 122.041989 216.805214 
L 122.041989 217.842607 
L 123.056534 217.842607 
L 123.056534 217.151012 
L 124.07108 217.151012 
L 124.07108 218.88 
L 125.085625 218.88 
L 125.085625 218.534202 
L 127.114716 218.534202 
L 127.114716 218.88 
L 147.405625 218.88 
L 147.405625 215.422024 
L 148.42017 215.422024 
L 148.42017 213.001441 
L 149.434716 213.001441 
L 149.434716 207.122882 
L 150.449261 207.122882 
L 150.449261 201.59012 
L 151.463807 201.59012 
L 151.463807 197.440549 
L 152.478352 197.440549 
L 152.478352 196.057358 
L 153.492898 196.057358 
L 153.492898 189.833002 
L 154.507443 189.833002 
L 154.507443 181.533859 
L 155.521989 181.533859 
L 155.521989 174.617907 
L 156.536534 174.617907 
L 156.536534 165.281372 
L 157.55108 165.281372 
L 157.55108 166.318765 
L 158.565625 166.318765 
L 158.565625 160.786003 
L 159.58017 160.786003 
L 159.58017 137.963362 
L 160.594716 137.963362 
L 160.594716 144.879314 
L 161.609261 144.879314 
L 161.609261 132.4306 
L 162.623807 132.4306 
L 162.623807 133.467993 
L 163.638352 133.467993 
L 163.638352 125.860446 
L 164.652898 125.860446 
L 164.652898 120.673482 
L 166.681989 120.673482 
L 166.681989 97.505043 
L 167.696534 97.505043 
L 167.696534 110.645352 
L 168.71108 110.645352 
L 168.71108 109.953756 
L 169.725625 109.953756 
L 169.725625 102.692007 
L 170.74017 102.692007 
L 170.74017 88.514305 
L 171.754716 88.514305 
L 171.754716 85.056329 
L 172.769261 85.056329 
L 172.769261 96.121852 
L 173.783807 96.121852 
L 173.783807 81.944151 
L 174.798352 81.944151 
L 174.798352 75.373997 
L 175.812898 75.373997 
L 175.812898 73.990806 
L 176.827443 73.990806 
L 176.827443 63.271081 
L 177.841989 63.271081 
L 177.841989 80.560961 
L 178.856534 80.560961 
L 178.856534 64.654271 
L 179.87108 64.654271 
L 179.87108 56.009331 
L 180.885625 56.009331 
L 180.885625 57.738319 
L 181.90017 57.738319 
L 181.90017 53.934545 
L 182.914716 53.934545 
L 182.914716 40.102642 
L 183.929261 40.102642 
L 183.929261 48.055986 
L 184.943807 48.055986 
L 184.943807 39.411046 
L 185.958352 39.411046 
L 185.958352 21.775369 
L 186.972898 21.775369 
L 186.972898 41.140034 
L 187.987443 41.140034 
L 187.987443 35.95307 
L 189.001989 35.95307 
L 189.001989 30.420309 
L 190.016534 30.420309 
L 190.016534 21.429571 
L 191.03108 21.429571 
L 191.03108 17.28 
L 192.045625 17.28 
L 192.045625 25.233345 
L 194.074716 25.233345 
L 194.074716 23.850154 
L 195.089261 23.850154 
L 195.089261 30.766106 
L 196.103807 30.766106 
L 196.103807 29.382916 
L 197.118352 29.382916 
L 197.118352 22.121166 
L 198.132898 22.121166 
L 198.132898 41.485832 
L 199.147443 41.485832 
L 199.147443 51.168165 
L 200.161989 51.168165 
L 200.161989 45.635403 
L 201.176534 45.635403 
L 201.176534 46.672796 
L 202.19108 46.672796 
L 202.19108 41.140034 
L 203.205625 41.140034 
L 203.205625 43.21482 
L 204.22017 43.21482 
L 204.22017 43.906415 
L 205.234716 43.906415 
L 205.234716 34.224082 
L 206.249261 34.224082 
L 206.249261 59.467307 
L 207.263807 59.467307 
L 207.263807 48.747581 
L 208.278352 48.747581 
L 208.278352 60.158902 
L 209.292898 60.158902 
L 209.292898 70.187033 
L 210.307443 70.187033 
L 210.307443 49.093379 
L 211.321989 49.093379 
L 211.321989 58.084117 
L 212.336534 58.084117 
L 212.336534 44.943808 
L 213.35108 44.943808 
L 213.35108 67.766449 
L 214.365625 67.766449 
L 214.365625 60.850497 
L 215.38017 60.850497 
L 215.38017 56.700926 
L 216.394716 56.700926 
L 216.394716 61.542093 
L 217.409261 61.542093 
L 217.409261 48.747581 
L 218.423807 48.747581 
L 218.423807 73.990806 
L 219.438352 73.990806 
L 219.438352 75.028199 
L 220.452898 75.028199 
L 220.452898 60.5047 
L 221.467443 60.5047 
L 221.467443 79.523568 
L 222.481989 79.523568 
L 222.481989 57.738319 
L 223.496534 57.738319 
L 223.496534 77.102985 
L 224.51108 77.102985 
L 224.51108 70.187033 
L 225.525625 70.187033 
L 225.525625 76.411389 
L 226.54017 76.411389 
L 226.54017 68.803842 
L 227.554716 68.803842 
L 227.554716 67.074854 
L 228.569261 67.074854 
L 228.569261 58.084117 
L 229.583807 58.084117 
L 229.583807 65.345866 
L 230.598352 65.345866 
L 230.598352 73.299211 
L 231.612898 73.299211 
L 231.612898 74.336604 
L 232.627443 74.336604 
L 232.627443 72.953413 
L 233.641989 72.953413 
L 233.641989 73.990806 
L 234.656534 73.990806 
L 234.656534 72.261818 
L 235.67108 72.261818 
L 235.67108 80.560961 
L 236.685625 80.560961 
L 236.685625 74.336604 
L 237.70017 74.336604 
L 237.70017 76.065592 
L 238.714716 76.065592 
L 238.714716 79.17777 
L 239.729261 79.17777 
L 239.729261 72.261818 
L 240.743807 72.261818 
L 240.743807 80.560961 
L 241.758352 80.560961 
L 241.758352 85.402127 
L 242.772898 85.402127 
L 242.772898 89.897496 
L 244.801989 89.897496 
L 244.801989 79.869365 
L 245.816534 79.869365 
L 245.816534 83.673139 
L 246.83108 83.673139 
L 246.83108 73.645009 
L 247.845625 73.645009 
L 247.845625 84.710532 
L 248.86017 84.710532 
L 248.86017 90.934889 
L 249.874716 90.934889 
L 249.874716 98.542436 
L 250.889261 98.542436 
L 250.889261 108.224768 
L 251.903807 108.224768 
L 251.903807 106.49578 
L 252.918352 106.49578 
L 252.918352 91.280686 
L 253.932898 91.280686 
L 253.932898 116.178113 
L 254.947443 116.178113 
L 254.947443 117.907101 
L 255.961989 117.907101 
L 255.961989 115.14072 
L 256.976534 115.14072 
L 256.976534 121.710875 
L 257.99108 121.710875 
L 257.99108 129.318422 
L 259.005625 129.318422 
L 259.005625 131.739005 
L 260.02017 131.739005 
L 260.02017 144.879314 
L 261.034716 144.879314 
L 261.034716 146.954099 
L 262.049261 146.954099 
L 262.049261 148.33729 
L 263.063807 148.33729 
L 263.063807 152.832659 
L 264.078352 152.832659 
L 264.078352 161.823396 
L 265.092898 161.823396 
L 265.092898 163.898182 
L 266.107443 163.898182 
L 266.107443 174.963705 
L 267.121989 174.963705 
L 267.121989 172.197324 
L 268.136534 172.197324 
L 268.136534 177.730086 
L 269.15108 177.730086 
L 269.15108 174.27211 
L 270.165625 174.27211 
L 270.165625 183.954443 
L 271.18017 183.954443 
L 271.18017 187.066621 
L 272.194716 187.066621 
L 272.194716 191.216192 
L 273.209261 191.216192 
L 273.209261 195.019966 
L 274.223807 195.019966 
L 274.223807 202.281715 
L 275.238352 202.281715 
L 275.238352 203.319108 
L 276.252898 203.319108 
L 276.252898 205.393894 
L 277.267443 205.393894 
L 277.267443 207.468679 
L 278.281989 207.468679 
L 278.281989 213.001441 
L 279.296534 213.001441 
L 279.296534 217.49681 
L 280.31108 217.49681 
L 280.31108 216.805214 
L 281.325625 216.805214 
L 281.325625 218.88 
L 282.34017 218.88 
L 282.34017 218.534202 
L 283.354716 218.534202 
L 283.354716 218.88 
L 293.50017 218.88 
L 293.50017 216.805214 
L 294.514716 216.805214 
L 294.514716 211.964048 
L 295.529261 211.964048 
L 295.529261 207.122882 
L 296.543807 207.122882 
L 296.543807 200.552727 
L 297.558352 200.552727 
L 297.558352 198.823739 
L 298.572898 198.823739 
L 298.572898 195.019966 
L 299.587443 195.019966 
L 299.587443 190.524597 
L 300.601989 190.524597 
L 300.601989 184.30024 
L 301.616534 184.30024 
L 301.616534 178.075883 
L 302.63108 178.075883 
L 302.63108 181.879657 
L 303.645625 181.879657 
L 303.645625 173.234717 
L 304.66017 173.234717 
L 304.66017 168.393551 
L 305.674716 168.393551 
L 305.674716 159.057015 
L 306.689261 159.057015 
L 306.689261 166.664563 
L 307.703807 166.664563 
L 307.703807 159.402813 
L 308.718352 159.402813 
L 308.718352 148.683087 
L 309.732898 148.683087 
L 309.732898 149.374683 
L 310.747443 149.374683 
L 310.747443 143.841921 
L 311.761989 143.841921 
L 311.761989 141.767136 
L 312.776534 141.767136 
L 312.776534 143.150326 
L 313.79108 143.150326 
L 313.79108 130.701612 
L 314.805625 130.701612 
L 314.805625 132.776398 
L 315.82017 132.776398 
L 315.82017 128.972624 
L 316.834716 128.972624 
L 316.834716 132.776398 
L 317.849261 132.776398 
L 317.849261 117.215506 
L 318.863807 117.215506 
L 318.863807 125.514648 
L 319.878352 125.514648 
L 319.878352 123.78566 
L 320.892898 123.78566 
L 320.892898 119.636089 
L 321.907443 119.636089 
L 321.907443 126.552041 
L 322.921989 126.552041 
L 322.921989 107.878971 
L 323.936534 107.878971 
L 323.936534 103.7294 
L 324.95108 103.7294 
L 324.95108 99.579828 
L 325.965625 99.579828 
L 325.965625 102.346209 
L 326.98017 102.346209 
L 326.98017 100.271424 
L 327.994716 100.271424 
L 327.994716 106.841578 
L 329.009261 106.841578 
L 329.009261 99.579828 
L 330.023807 99.579828 
L 330.023807 97.159245 
L 331.038352 97.159245 
L 331.038352 100.963019 
L 332.052898 100.963019 
L 332.052898 97.85084 
L 333.067443 97.85084 
L 333.067443 88.514305 
L 334.081989 88.514305 
L 334.081989 90.934889 
L 335.096534 90.934889 
L 335.096534 87.131115 
L 336.11108 87.131115 
L 336.11108 77.102985 
L 337.125625 77.102985 
L 337.125625 91.972281 
L 338.14017 91.972281 
L 338.14017 92.318079 
L 339.154716 92.318079 
L 339.154716 87.476913 
L 340.169261 87.476913 
L 340.169261 85.402127 
L 341.183807 85.402127 
L 341.183807 108.570566 
L 342.198352 108.570566 
L 342.198352 99.579828 
L 343.212898 99.579828 
L 343.212898 95.430257 
L 344.227443 95.430257 
L 344.227443 95.08446 
L 345.241989 95.08446 
L 345.241989 95.776055 
L 346.256534 95.776055 
L 346.256534 91.972281 
L 347.27108 91.972281 
L 347.27108 100.617221 
L 348.285625 100.617221 
L 348.285625 117.215506 
L 349.30017 117.215506 
L 349.30017 103.7294 
L 350.314716 103.7294 
L 350.314716 95.776055 
L 351.329261 95.776055 
L 351.329261 103.7294 
L 352.343807 103.7294 
L 352.343807 104.766792 
L 353.358352 104.766792 
L 353.358352 103.7294 
L 354.372898 103.7294 
L 354.372898 108.916364 
L 355.387443 108.916364 
L 355.387443 105.458388 
L 356.401989 105.458388 
L 356.401989 110.645352 
L 357.416534 110.645352 
L 357.416534 104.075197 
L 358.43108 104.075197 
L 358.43108 124.131458 
L 359.445625 124.131458 
L 359.445625 117.215506 
L 360.46017 117.215506 
L 360.46017 130.701612 
L 361.474716 130.701612 
L 361.474716 123.094065 
L 362.489261 123.094065 
L 362.489261 117.561304 
L 363.503807 117.561304 
L 363.503807 127.243636 
L 364.518352 127.243636 
L 364.518352 124.823053 
L 365.532898 124.823053 
L 365.532898 122.056672 
L 366.547443 122.056672 
L 366.547443 122.056672 
" clip-path="url(#p2bebbe8640)" style="fill: none; stroke: #ff7f0e; stroke-width: 1.5; stroke-linecap: square"/>
   </g>
  </g>
 </g>
 <defs>
  <clipPath id="p2bebbe8640">
   <rect x="46.965625" y="7.2" width="334.8" height="221.76"/>
  </clipPath>
 </defs>
</svg>
