<?xml version="1.0" encoding="utf-8" standalone="no"?>
<!DOCTYPE svg PUBLIC "-//W3C//DTD SVG 1.1//EN"
  "http://www.w3.org/Graphics/SVG/1.1/DTD/svg11.dtd">
<svg xmlns:xlink="http://www.w3.org/1999/xlink" width="395.328125pt" height="266.51625pt" viewBox="0 0 395.328125 266.51625" xmlns="http://www.w3.org/2000/svg" version="1.1">
 <metadata>
  <rdf:RDF xmlns:dc="http://purl.org/dc/elements/1.1/" xmlns:cc="http://creativecommons.org/ns#" xmlns:rdf="http://www.w3.org/1999/02/22-rdf-syntax-ns#">
   <cc:Work>
    <dc:type rdf:resource="http://purl.org/dc/dcmitype/StillImage"/>
    <dc:date>2025-01-20T13:49:51.828015</dc:date>
    <dc:format>image/svg+xml</dc:format>
    <dc:creator>
     <cc:Agent>
      <dc:title>Matplotlib v3.7.3, https://matplotlib.org/</dc:title>
     </cc:Agent>
    </dc:creator>
   </cc:Work>
  </rdf:RDF>
 </metadata>
 <defs>
  <style type="text/css">*{stroke-linejoin: round; stroke-linecap: butt}</style>
 </defs>
 <g id="figure_1">
  <g id="patch_1">
   <path d="M 0 266.51625 
L 395.328125 266.51625 
L 395.328125 0 
L 0 0 
z
" style="fill: #ffffff"/>
  </g>
  <g id="axes_1">
   <g id="patch_2">
    <path d="M 53.328125 228.96 
L 388.128125 228.96 
L 388.128125 7.2 
L 53.328125 7.2 
z
" style="fill: #ffffff"/>
   </g>
   <g id="matplotlib.axis_1">
    <g id="xtick_1">
     <g id="line2d_1">
      <defs>
       <path id="maac0e37ab1" d="M 0 0 
L 0 3.5 
" style="stroke: #000000; stroke-width: 0.8"/>
      </defs>
      <g>
       <use xlink:href="#maac0e37ab1" x="70.046327" y="228.96" style="stroke: #000000; stroke-width: 0.8"/>
      </g>
     </g>
     <g id="text_1">
      <!-- 20000 -->
      <g transform="translate(54.140077 243.558438) scale(0.1 -0.1)">
       <defs>
        <path id="DejaVuSans-32" d="M 1228 531 
L 3431 531 
L 3431 0 
L 469 0 
L 469 531 
Q 828 903 1448 1529 
Q 2069 2156 2228 2338 
Q 2531 2678 2651 2914 
Q 2772 3150 2772 3378 
Q 2772 3750 2511 3984 
Q 2250 4219 1831 4219 
Q 1534 4219 1204 4116 
Q 875 4013 500 3803 
L 500 4441 
Q 881 4594 1212 4672 
Q 1544 4750 1819 4750 
Q 2544 4750 2975 4387 
Q 3406 4025 3406 3419 
Q 3406 3131 3298 2873 
Q 3191 2616 2906 2266 
Q 2828 2175 2409 1742 
Q 1991 1309 1228 531 
z
" transform="scale(0.015625)"/>
        <path id="DejaVuSans-30" d="M 2034 4250 
Q 1547 4250 1301 3770 
Q 1056 3291 1056 2328 
Q 1056 1369 1301 889 
Q 1547 409 2034 409 
Q 2525 409 2770 889 
Q 3016 1369 3016 2328 
Q 3016 3291 2770 3770 
Q 2525 4250 2034 4250 
z
M 2034 4750 
Q 2819 4750 3233 4129 
Q 3647 3509 3647 2328 
Q 3647 1150 3233 529 
Q 2819 -91 2034 -91 
Q 1250 -91 836 529 
Q 422 1150 422 2328 
Q 422 3509 836 4129 
Q 1250 4750 2034 4750 
z
" transform="scale(0.015625)"/>
       </defs>
       <use xlink:href="#DejaVuSans-32"/>
       <use xlink:href="#DejaVuSans-30" x="63.623047"/>
       <use xlink:href="#DejaVuSans-30" x="127.246094"/>
       <use xlink:href="#DejaVuSans-30" x="190.869141"/>
       <use xlink:href="#DejaVuSans-30" x="254.492188"/>
      </g>
     </g>
    </g>
    <g id="xtick_2">
     <g id="line2d_2">
      <g>
       <use xlink:href="#maac0e37ab1" x="111.255429" y="228.96" style="stroke: #000000; stroke-width: 0.8"/>
      </g>
     </g>
     <g id="text_2">
      <!-- 40000 -->
      <g transform="translate(95.349179 243.558438) scale(0.1 -0.1)">
       <defs>
        <path id="DejaVuSans-34" d="M 2419 4116 
L 825 1625 
L 2419 1625 
L 2419 4116 
z
M 2253 4666 
L 3047 4666 
L 3047 1625 
L 3713 1625 
L 3713 1100 
L 3047 1100 
L 3047 0 
L 2419 0 
L 2419 1100 
L 313 1100 
L 313 1709 
L 2253 4666 
z
" transform="scale(0.015625)"/>
       </defs>
       <use xlink:href="#DejaVuSans-34"/>
       <use xlink:href="#DejaVuSans-30" x="63.623047"/>
       <use xlink:href="#DejaVuSans-30" x="127.246094"/>
       <use xlink:href="#DejaVuSans-30" x="190.869141"/>
       <use xlink:href="#DejaVuSans-30" x="254.492188"/>
      </g>
     </g>
    </g>
    <g id="xtick_3">
     <g id="line2d_3">
      <g>
       <use xlink:href="#maac0e37ab1" x="152.464532" y="228.96" style="stroke: #000000; stroke-width: 0.8"/>
      </g>
     </g>
     <g id="text_3">
      <!-- 60000 -->
      <g transform="translate(136.558282 243.558438) scale(0.1 -0.1)">
       <defs>
        <path id="DejaVuSans-36" d="M 2113 2584 
Q 1688 2584 1439 2293 
Q 1191 2003 1191 1497 
Q 1191 994 1439 701 
Q 1688 409 2113 409 
Q 2538 409 2786 701 
Q 3034 994 3034 1497 
Q 3034 2003 2786 2293 
Q 2538 2584 2113 2584 
z
M 3366 4563 
L 3366 3988 
Q 3128 4100 2886 4159 
Q 2644 4219 2406 4219 
Q 1781 4219 1451 3797 
Q 1122 3375 1075 2522 
Q 1259 2794 1537 2939 
Q 1816 3084 2150 3084 
Q 2853 3084 3261 2657 
Q 3669 2231 3669 1497 
Q 3669 778 3244 343 
Q 2819 -91 2113 -91 
Q 1303 -91 875 529 
Q 447 1150 447 2328 
Q 447 3434 972 4092 
Q 1497 4750 2381 4750 
Q 2619 4750 2861 4703 
Q 3103 4656 3366 4563 
z
" transform="scale(0.015625)"/>
       </defs>
       <use xlink:href="#DejaVuSans-36"/>
       <use xlink:href="#DejaVuSans-30" x="63.623047"/>
       <use xlink:href="#DejaVuSans-30" x="127.246094"/>
       <use xlink:href="#DejaVuSans-30" x="190.869141"/>
       <use xlink:href="#DejaVuSans-30" x="254.492188"/>
      </g>
     </g>
    </g>
    <g id="xtick_4">
     <g id="line2d_4">
      <g>
       <use xlink:href="#maac0e37ab1" x="193.673635" y="228.96" style="stroke: #000000; stroke-width: 0.8"/>
      </g>
     </g>
     <g id="text_4">
      <!-- 80000 -->
      <g transform="translate(177.767385 243.558438) scale(0.1 -0.1)">
       <defs>
        <path id="DejaVuSans-38" d="M 2034 2216 
Q 1584 2216 1326 1975 
Q 1069 1734 1069 1313 
Q 1069 891 1326 650 
Q 1584 409 2034 409 
Q 2484 409 2743 651 
Q 3003 894 3003 1313 
Q 3003 1734 2745 1975 
Q 2488 2216 2034 2216 
z
M 1403 2484 
Q 997 2584 770 2862 
Q 544 3141 544 3541 
Q 544 4100 942 4425 
Q 1341 4750 2034 4750 
Q 2731 4750 3128 4425 
Q 3525 4100 3525 3541 
Q 3525 3141 3298 2862 
Q 3072 2584 2669 2484 
Q 3125 2378 3379 2068 
Q 3634 1759 3634 1313 
Q 3634 634 3220 271 
Q 2806 -91 2034 -91 
Q 1263 -91 848 271 
Q 434 634 434 1313 
Q 434 1759 690 2068 
Q 947 2378 1403 2484 
z
M 1172 3481 
Q 1172 3119 1398 2916 
Q 1625 2713 2034 2713 
Q 2441 2713 2670 2916 
Q 2900 3119 2900 3481 
Q 2900 3844 2670 4047 
Q 2441 4250 2034 4250 
Q 1625 4250 1398 4047 
Q 1172 3844 1172 3481 
z
" transform="scale(0.015625)"/>
       </defs>
       <use xlink:href="#DejaVuSans-38"/>
       <use xlink:href="#DejaVuSans-30" x="63.623047"/>
       <use xlink:href="#DejaVuSans-30" x="127.246094"/>
       <use xlink:href="#DejaVuSans-30" x="190.869141"/>
       <use xlink:href="#DejaVuSans-30" x="254.492188"/>
      </g>
     </g>
    </g>
    <g id="xtick_5">
     <g id="line2d_5">
      <g>
       <use xlink:href="#maac0e37ab1" x="234.882737" y="228.96" style="stroke: #000000; stroke-width: 0.8"/>
      </g>
     </g>
     <g id="text_5">
      <!-- 100000 -->
      <g transform="translate(215.795237 243.558438) scale(0.1 -0.1)">
       <defs>
        <path id="DejaVuSans-31" d="M 794 531 
L 1825 531 
L 1825 4091 
L 703 3866 
L 703 4441 
L 1819 4666 
L 2450 4666 
L 2450 531 
L 3481 531 
L 3481 0 
L 794 0 
L 794 531 
z
" transform="scale(0.015625)"/>
       </defs>
       <use xlink:href="#DejaVuSans-31"/>
       <use xlink:href="#DejaVuSans-30" x="63.623047"/>
       <use xlink:href="#DejaVuSans-30" x="127.246094"/>
       <use xlink:href="#DejaVuSans-30" x="190.869141"/>
       <use xlink:href="#DejaVuSans-30" x="254.492188"/>
       <use xlink:href="#DejaVuSans-30" x="318.115234"/>
      </g>
     </g>
    </g>
    <g id="xtick_6">
     <g id="line2d_6">
      <g>
       <use xlink:href="#maac0e37ab1" x="276.09184" y="228.96" style="stroke: #000000; stroke-width: 0.8"/>
      </g>
     </g>
     <g id="text_6">
      <!-- 120000 -->
      <g transform="translate(257.00434 243.558438) scale(0.1 -0.1)">
       <use xlink:href="#DejaVuSans-31"/>
       <use xlink:href="#DejaVuSans-32" x="63.623047"/>
       <use xlink:href="#DejaVuSans-30" x="127.246094"/>
       <use xlink:href="#DejaVuSans-30" x="190.869141"/>
       <use xlink:href="#DejaVuSans-30" x="254.492188"/>
       <use xlink:href="#DejaVuSans-30" x="318.115234"/>
      </g>
     </g>
    </g>
    <g id="xtick_7">
     <g id="line2d_7">
      <g>
       <use xlink:href="#maac0e37ab1" x="317.300943" y="228.96" style="stroke: #000000; stroke-width: 0.8"/>
      </g>
     </g>
     <g id="text_7">
      <!-- 140000 -->
      <g transform="translate(298.213443 243.558438) scale(0.1 -0.1)">
       <use xlink:href="#DejaVuSans-31"/>
       <use xlink:href="#DejaVuSans-34" x="63.623047"/>
       <use xlink:href="#DejaVuSans-30" x="127.246094"/>
       <use xlink:href="#DejaVuSans-30" x="190.869141"/>
       <use xlink:href="#DejaVuSans-30" x="254.492188"/>
       <use xlink:href="#DejaVuSans-30" x="318.115234"/>
      </g>
     </g>
    </g>
    <g id="xtick_8">
     <g id="line2d_8">
      <g>
       <use xlink:href="#maac0e37ab1" x="358.510045" y="228.96" style="stroke: #000000; stroke-width: 0.8"/>
      </g>
     </g>
     <g id="text_8">
      <!-- 160000 -->
      <g transform="translate(339.422545 243.558438) scale(0.1 -0.1)">
       <use xlink:href="#DejaVuSans-31"/>
       <use xlink:href="#DejaVuSans-36" x="63.623047"/>
       <use xlink:href="#DejaVuSans-30" x="127.246094"/>
       <use xlink:href="#DejaVuSans-30" x="190.869141"/>
       <use xlink:href="#DejaVuSans-30" x="254.492188"/>
       <use xlink:href="#DejaVuSans-30" x="318.115234"/>
      </g>
     </g>
    </g>
    <g id="text_9">
     <!-- tof [µs] -->
     <g transform="translate(202.671875 257.236562) scale(0.1 -0.1)">
      <defs>
       <path id="DejaVuSans-74" d="M 1172 4494 
L 1172 3500 
L 2356 3500 
L 2356 3053 
L 1172 3053 
L 1172 1153 
Q 1172 725 1289 603 
Q 1406 481 1766 481 
L 2356 481 
L 2356 0 
L 1766 0 
Q 1100 0 847 248 
Q 594 497 594 1153 
L 594 3053 
L 172 3053 
L 172 3500 
L 594 3500 
L 594 4494 
L 1172 4494 
z
" transform="scale(0.015625)"/>
       <path id="DejaVuSans-6f" d="M 1959 3097 
Q 1497 3097 1228 2736 
Q 959 2375 959 1747 
Q 959 1119 1226 758 
Q 1494 397 1959 397 
Q 2419 397 2687 759 
Q 2956 1122 2956 1747 
Q 2956 2369 2687 2733 
Q 2419 3097 1959 3097 
z
M 1959 3584 
Q 2709 3584 3137 3096 
Q 3566 2609 3566 1747 
Q 3566 888 3137 398 
Q 2709 -91 1959 -91 
Q 1206 -91 779 398 
Q 353 888 353 1747 
Q 353 2609 779 3096 
Q 1206 3584 1959 3584 
z
" transform="scale(0.015625)"/>
       <path id="DejaVuSans-66" d="M 2375 4863 
L 2375 4384 
L 1825 4384 
Q 1516 4384 1395 4259 
Q 1275 4134 1275 3809 
L 1275 3500 
L 2222 3500 
L 2222 3053 
L 1275 3053 
L 1275 0 
L 697 0 
L 697 3053 
L 147 3053 
L 147 3500 
L 697 3500 
L 697 3744 
Q 697 4328 969 4595 
Q 1241 4863 1831 4863 
L 2375 4863 
z
" transform="scale(0.015625)"/>
       <path id="DejaVuSans-20" transform="scale(0.015625)"/>
       <path id="DejaVuSans-5b" d="M 550 4863 
L 1875 4863 
L 1875 4416 
L 1125 4416 
L 1125 -397 
L 1875 -397 
L 1875 -844 
L 550 -844 
L 550 4863 
z
" transform="scale(0.015625)"/>
       <path id="DejaVuSans-b5" d="M 544 -1331 
L 544 3500 
L 1119 3500 
L 1119 1325 
Q 1119 872 1334 640 
Q 1550 409 1972 409 
Q 2434 409 2667 671 
Q 2900 934 2900 1459 
L 2900 3500 
L 3475 3500 
L 3475 806 
Q 3475 619 3529 530 
Q 3584 441 3700 441 
Q 3728 441 3778 458 
Q 3828 475 3916 513 
L 3916 50 
Q 3788 -22 3673 -56 
Q 3559 -91 3450 -91 
Q 3234 -91 3106 31 
Q 2978 153 2931 403 
Q 2775 156 2548 32 
Q 2322 -91 2016 -91 
Q 1697 -91 1473 31 
Q 1250 153 1119 397 
L 1119 -1331 
L 544 -1331 
z
" transform="scale(0.015625)"/>
       <path id="DejaVuSans-73" d="M 2834 3397 
L 2834 2853 
Q 2591 2978 2328 3040 
Q 2066 3103 1784 3103 
Q 1356 3103 1142 2972 
Q 928 2841 928 2578 
Q 928 2378 1081 2264 
Q 1234 2150 1697 2047 
L 1894 2003 
Q 2506 1872 2764 1633 
Q 3022 1394 3022 966 
Q 3022 478 2636 193 
Q 2250 -91 1575 -91 
Q 1294 -91 989 -36 
Q 684 19 347 128 
L 347 722 
Q 666 556 975 473 
Q 1284 391 1588 391 
Q 1994 391 2212 530 
Q 2431 669 2431 922 
Q 2431 1156 2273 1281 
Q 2116 1406 1581 1522 
L 1381 1569 
Q 847 1681 609 1914 
Q 372 2147 372 2553 
Q 372 3047 722 3315 
Q 1072 3584 1716 3584 
Q 2034 3584 2315 3537 
Q 2597 3491 2834 3397 
z
" transform="scale(0.015625)"/>
       <path id="DejaVuSans-5d" d="M 1947 4863 
L 1947 -844 
L 622 -844 
L 622 -397 
L 1369 -397 
L 1369 4416 
L 622 4416 
L 622 4863 
L 1947 4863 
z
" transform="scale(0.015625)"/>
      </defs>
      <use xlink:href="#DejaVuSans-74"/>
      <use xlink:href="#DejaVuSans-6f" x="39.208984"/>
      <use xlink:href="#DejaVuSans-66" x="100.390625"/>
      <use xlink:href="#DejaVuSans-20" x="135.595703"/>
      <use xlink:href="#DejaVuSans-5b" x="167.382812"/>
      <use xlink:href="#DejaVuSans-b5" x="206.396484"/>
      <use xlink:href="#DejaVuSans-73" x="270.019531"/>
      <use xlink:href="#DejaVuSans-5d" x="322.119141"/>
     </g>
    </g>
   </g>
   <g id="matplotlib.axis_2">
    <g id="ytick_1">
     <g id="line2d_9">
      <defs>
       <path id="m3575ac9153" d="M 0 0 
L -3.5 0 
" style="stroke: #000000; stroke-width: 0.8"/>
      </defs>
      <g>
       <use xlink:href="#m3575ac9153" x="53.328125" y="218.935097" style="stroke: #000000; stroke-width: 0.8"/>
      </g>
     </g>
     <g id="text_10">
      <!-- 0 -->
      <g transform="translate(39.965625 222.734316) scale(0.1 -0.1)">
       <use xlink:href="#DejaVuSans-30"/>
      </g>
     </g>
    </g>
    <g id="ytick_2">
     <g id="line2d_10">
      <g>
       <use xlink:href="#m3575ac9153" x="53.328125" y="191.386586" style="stroke: #000000; stroke-width: 0.8"/>
      </g>
     </g>
     <g id="text_11">
      <!-- 500 -->
      <g transform="translate(27.240625 195.185805) scale(0.1 -0.1)">
       <defs>
        <path id="DejaVuSans-35" d="M 691 4666 
L 3169 4666 
L 3169 4134 
L 1269 4134 
L 1269 2991 
Q 1406 3038 1543 3061 
Q 1681 3084 1819 3084 
Q 2600 3084 3056 2656 
Q 3513 2228 3513 1497 
Q 3513 744 3044 326 
Q 2575 -91 1722 -91 
Q 1428 -91 1123 -41 
Q 819 9 494 109 
L 494 744 
Q 775 591 1075 516 
Q 1375 441 1709 441 
Q 2250 441 2565 725 
Q 2881 1009 2881 1497 
Q 2881 1984 2565 2268 
Q 2250 2553 1709 2553 
Q 1456 2553 1204 2497 
Q 953 2441 691 2322 
L 691 4666 
z
" transform="scale(0.015625)"/>
       </defs>
       <use xlink:href="#DejaVuSans-35"/>
       <use xlink:href="#DejaVuSans-30" x="63.623047"/>
       <use xlink:href="#DejaVuSans-30" x="127.246094"/>
      </g>
     </g>
    </g>
    <g id="ytick_3">
     <g id="line2d_11">
      <g>
       <use xlink:href="#m3575ac9153" x="53.328125" y="163.838076" style="stroke: #000000; stroke-width: 0.8"/>
      </g>
     </g>
     <g id="text_12">
      <!-- 1000 -->
      <g transform="translate(20.878125 167.637295) scale(0.1 -0.1)">
       <use xlink:href="#DejaVuSans-31"/>
       <use xlink:href="#DejaVuSans-30" x="63.623047"/>
       <use xlink:href="#DejaVuSans-30" x="127.246094"/>
       <use xlink:href="#DejaVuSans-30" x="190.869141"/>
      </g>
     </g>
    </g>
    <g id="ytick_4">
     <g id="line2d_12">
      <g>
       <use xlink:href="#m3575ac9153" x="53.328125" y="136.289565" style="stroke: #000000; stroke-width: 0.8"/>
      </g>
     </g>
     <g id="text_13">
      <!-- 1500 -->
      <g transform="translate(20.878125 140.088784) scale(0.1 -0.1)">
       <use xlink:href="#DejaVuSans-31"/>
       <use xlink:href="#DejaVuSans-35" x="63.623047"/>
       <use xlink:href="#DejaVuSans-30" x="127.246094"/>
       <use xlink:href="#DejaVuSans-30" x="190.869141"/>
      </g>
     </g>
    </g>
    <g id="ytick_5">
     <g id="line2d_13">
      <g>
       <use xlink:href="#m3575ac9153" x="53.328125" y="108.741055" style="stroke: #000000; stroke-width: 0.8"/>
      </g>
     </g>
     <g id="text_14">
      <!-- 2000 -->
      <g transform="translate(20.878125 112.540274) scale(0.1 -0.1)">
       <use xlink:href="#DejaVuSans-32"/>
       <use xlink:href="#DejaVuSans-30" x="63.623047"/>
       <use xlink:href="#DejaVuSans-30" x="127.246094"/>
       <use xlink:href="#DejaVuSans-30" x="190.869141"/>
      </g>
     </g>
    </g>
    <g id="ytick_6">
     <g id="line2d_14">
      <g>
       <use xlink:href="#m3575ac9153" x="53.328125" y="81.192544" style="stroke: #000000; stroke-width: 0.8"/>
      </g>
     </g>
     <g id="text_15">
      <!-- 2500 -->
      <g transform="translate(20.878125 84.991763) scale(0.1 -0.1)">
       <use xlink:href="#DejaVuSans-32"/>
       <use xlink:href="#DejaVuSans-35" x="63.623047"/>
       <use xlink:href="#DejaVuSans-30" x="127.246094"/>
       <use xlink:href="#DejaVuSans-30" x="190.869141"/>
      </g>
     </g>
    </g>
    <g id="ytick_7">
     <g id="line2d_15">
      <g>
       <use xlink:href="#m3575ac9153" x="53.328125" y="53.644034" style="stroke: #000000; stroke-width: 0.8"/>
      </g>
     </g>
     <g id="text_16">
      <!-- 3000 -->
      <g transform="translate(20.878125 57.443253) scale(0.1 -0.1)">
       <defs>
        <path id="DejaVuSans-33" d="M 2597 2516 
Q 3050 2419 3304 2112 
Q 3559 1806 3559 1356 
Q 3559 666 3084 287 
Q 2609 -91 1734 -91 
Q 1441 -91 1130 -33 
Q 819 25 488 141 
L 488 750 
Q 750 597 1062 519 
Q 1375 441 1716 441 
Q 2309 441 2620 675 
Q 2931 909 2931 1356 
Q 2931 1769 2642 2001 
Q 2353 2234 1838 2234 
L 1294 2234 
L 1294 2753 
L 1863 2753 
Q 2328 2753 2575 2939 
Q 2822 3125 2822 3475 
Q 2822 3834 2567 4026 
Q 2313 4219 1838 4219 
Q 1578 4219 1281 4162 
Q 984 4106 628 3988 
L 628 4550 
Q 988 4650 1302 4700 
Q 1616 4750 1894 4750 
Q 2613 4750 3031 4423 
Q 3450 4097 3450 3541 
Q 3450 3153 3228 2886 
Q 3006 2619 2597 2516 
z
" transform="scale(0.015625)"/>
       </defs>
       <use xlink:href="#DejaVuSans-33"/>
       <use xlink:href="#DejaVuSans-30" x="63.623047"/>
       <use xlink:href="#DejaVuSans-30" x="127.246094"/>
       <use xlink:href="#DejaVuSans-30" x="190.869141"/>
      </g>
     </g>
    </g>
    <g id="ytick_8">
     <g id="line2d_16">
      <g>
       <use xlink:href="#m3575ac9153" x="53.328125" y="26.095523" style="stroke: #000000; stroke-width: 0.8"/>
      </g>
     </g>
     <g id="text_17">
      <!-- 3500 -->
      <g transform="translate(20.878125 29.894742) scale(0.1 -0.1)">
       <use xlink:href="#DejaVuSans-33"/>
       <use xlink:href="#DejaVuSans-35" x="63.623047"/>
       <use xlink:href="#DejaVuSans-30" x="127.246094"/>
       <use xlink:href="#DejaVuSans-30" x="190.869141"/>
      </g>
     </g>
    </g>
    <g id="text_18">
     <!-- [counts] -->
     <g transform="translate(14.798438 138.6925) rotate(-90) scale(0.1 -0.1)">
      <defs>
       <path id="DejaVuSans-63" d="M 3122 3366 
L 3122 2828 
Q 2878 2963 2633 3030 
Q 2388 3097 2138 3097 
Q 1578 3097 1268 2742 
Q 959 2388 959 1747 
Q 959 1106 1268 751 
Q 1578 397 2138 397 
Q 2388 397 2633 464 
Q 2878 531 3122 666 
L 3122 134 
Q 2881 22 2623 -34 
Q 2366 -91 2075 -91 
Q 1284 -91 818 406 
Q 353 903 353 1747 
Q 353 2603 823 3093 
Q 1294 3584 2113 3584 
Q 2378 3584 2631 3529 
Q 2884 3475 3122 3366 
z
" transform="scale(0.015625)"/>
       <path id="DejaVuSans-75" d="M 544 1381 
L 544 3500 
L 1119 3500 
L 1119 1403 
Q 1119 906 1312 657 
Q 1506 409 1894 409 
Q 2359 409 2629 706 
Q 2900 1003 2900 1516 
L 2900 3500 
L 3475 3500 
L 3475 0 
L 2900 0 
L 2900 538 
Q 2691 219 2414 64 
Q 2138 -91 1772 -91 
Q 1169 -91 856 284 
Q 544 659 544 1381 
z
M 1991 3584 
L 1991 3584 
z
" transform="scale(0.015625)"/>
       <path id="DejaVuSans-6e" d="M 3513 2113 
L 3513 0 
L 2938 0 
L 2938 2094 
Q 2938 2591 2744 2837 
Q 2550 3084 2163 3084 
Q 1697 3084 1428 2787 
Q 1159 2491 1159 1978 
L 1159 0 
L 581 0 
L 581 3500 
L 1159 3500 
L 1159 2956 
Q 1366 3272 1645 3428 
Q 1925 3584 2291 3584 
Q 2894 3584 3203 3211 
Q 3513 2838 3513 2113 
z
" transform="scale(0.015625)"/>
      </defs>
      <use xlink:href="#DejaVuSans-5b"/>
      <use xlink:href="#DejaVuSans-63" x="39.013672"/>
      <use xlink:href="#DejaVuSans-6f" x="93.994141"/>
      <use xlink:href="#DejaVuSans-75" x="155.175781"/>
      <use xlink:href="#DejaVuSans-6e" x="218.554688"/>
      <use xlink:href="#DejaVuSans-74" x="281.933594"/>
      <use xlink:href="#DejaVuSans-73" x="321.142578"/>
      <use xlink:href="#DejaVuSans-5d" x="373.242188"/>
     </g>
    </g>
   </g>
   <g id="patch_3">
    <path d="M 53.328125 228.96 
L 53.328125 7.2 
" style="fill: none; stroke: #000000; stroke-width: 0.8; stroke-linejoin: miter; stroke-linecap: square"/>
   </g>
   <g id="patch_4">
    <path d="M 388.128125 228.96 
L 388.128125 7.2 
" style="fill: none; stroke: #000000; stroke-width: 0.8; stroke-linejoin: miter; stroke-linecap: square"/>
   </g>
   <g id="patch_5">
    <path d="M 53.328125 228.96 
L 388.128125 228.96 
" style="fill: none; stroke: #000000; stroke-width: 0.8; stroke-linejoin: miter; stroke-linecap: square"/>
   </g>
   <g id="patch_6">
    <path d="M 53.328125 7.2 
L 388.128125 7.2 
" style="fill: none; stroke: #000000; stroke-width: 0.8; stroke-linejoin: miter; stroke-linecap: square"/>
   </g>
   <g id="legend_1">
    <g id="patch_7">
     <path d="M 306.904688 44.55625 
L 381.128125 44.55625 
Q 383.128125 44.55625 383.128125 42.55625 
L 383.128125 14.2 
Q 383.128125 12.2 381.128125 12.2 
L 306.904688 12.2 
Q 304.904688 12.2 304.904688 14.2 
L 304.904688 42.55625 
Q 304.904688 44.55625 306.904688 44.55625 
z
" style="fill: #ffffff; opacity: 0.8; stroke: #cccccc; stroke-linejoin: miter"/>
    </g>
    <g id="line2d_17">
     <path d="M 308.904688 20.298438 
L 308.904688 20.298438 
L 318.904688 20.298438 
L 318.904688 20.298438 
L 328.904688 20.298438 
" style="fill: none; stroke: #1f77b4; stroke-width: 1.5; stroke-linecap: square"/>
    </g>
    <g id="text_19">
     <!-- monitor -->
     <g transform="translate(336.904688 23.798438) scale(0.1 -0.1)">
      <defs>
       <path id="DejaVuSans-6d" d="M 3328 2828 
Q 3544 3216 3844 3400 
Q 4144 3584 4550 3584 
Q 5097 3584 5394 3201 
Q 5691 2819 5691 2113 
L 5691 0 
L 5113 0 
L 5113 2094 
Q 5113 2597 4934 2840 
Q 4756 3084 4391 3084 
Q 3944 3084 3684 2787 
Q 3425 2491 3425 1978 
L 3425 0 
L 2847 0 
L 2847 2094 
Q 2847 2600 2669 2842 
Q 2491 3084 2119 3084 
Q 1678 3084 1418 2786 
Q 1159 2488 1159 1978 
L 1159 0 
L 581 0 
L 581 3500 
L 1159 3500 
L 1159 2956 
Q 1356 3278 1631 3431 
Q 1906 3584 2284 3584 
Q 2666 3584 2933 3390 
Q 3200 3197 3328 2828 
z
" transform="scale(0.015625)"/>
       <path id="DejaVuSans-69" d="M 603 3500 
L 1178 3500 
L 1178 0 
L 603 0 
L 603 3500 
z
M 603 4863 
L 1178 4863 
L 1178 4134 
L 603 4134 
L 603 4863 
z
" transform="scale(0.015625)"/>
       <path id="DejaVuSans-72" d="M 2631 2963 
Q 2534 3019 2420 3045 
Q 2306 3072 2169 3072 
Q 1681 3072 1420 2755 
Q 1159 2438 1159 1844 
L 1159 0 
L 581 0 
L 581 3500 
L 1159 3500 
L 1159 2956 
Q 1341 3275 1631 3429 
Q 1922 3584 2338 3584 
Q 2397 3584 2469 3576 
Q 2541 3569 2628 3553 
L 2631 2963 
z
" transform="scale(0.015625)"/>
      </defs>
      <use xlink:href="#DejaVuSans-6d"/>
      <use xlink:href="#DejaVuSans-6f" x="97.412109"/>
      <use xlink:href="#DejaVuSans-6e" x="158.59375"/>
      <use xlink:href="#DejaVuSans-69" x="221.972656"/>
      <use xlink:href="#DejaVuSans-74" x="249.755859"/>
      <use xlink:href="#DejaVuSans-6f" x="288.964844"/>
      <use xlink:href="#DejaVuSans-72" x="350.146484"/>
     </g>
    </g>
    <g id="line2d_18">
     <path d="M 308.904688 34.976562 
L 308.904688 34.976562 
L 318.904688 34.976562 
L 318.904688 34.976562 
L 328.904688 34.976562 
" style="fill: none; stroke: #ff7f0e; stroke-width: 1.5; stroke-linecap: square"/>
    </g>
    <g id="text_20">
     <!-- detector -->
     <g transform="translate(336.904688 38.476562) scale(0.1 -0.1)">
      <defs>
       <path id="DejaVuSans-64" d="M 2906 2969 
L 2906 4863 
L 3481 4863 
L 3481 0 
L 2906 0 
L 2906 525 
Q 2725 213 2448 61 
Q 2172 -91 1784 -91 
Q 1150 -91 751 415 
Q 353 922 353 1747 
Q 353 2572 751 3078 
Q 1150 3584 1784 3584 
Q 2172 3584 2448 3432 
Q 2725 3281 2906 2969 
z
M 947 1747 
Q 947 1113 1208 752 
Q 1469 391 1925 391 
Q 2381 391 2643 752 
Q 2906 1113 2906 1747 
Q 2906 2381 2643 2742 
Q 2381 3103 1925 3103 
Q 1469 3103 1208 2742 
Q 947 2381 947 1747 
z
" transform="scale(0.015625)"/>
       <path id="DejaVuSans-65" d="M 3597 1894 
L 3597 1613 
L 953 1613 
Q 991 1019 1311 708 
Q 1631 397 2203 397 
Q 2534 397 2845 478 
Q 3156 559 3463 722 
L 3463 178 
Q 3153 47 2828 -22 
Q 2503 -91 2169 -91 
Q 1331 -91 842 396 
Q 353 884 353 1716 
Q 353 2575 817 3079 
Q 1281 3584 2069 3584 
Q 2775 3584 3186 3129 
Q 3597 2675 3597 1894 
z
M 3022 2063 
Q 3016 2534 2758 2815 
Q 2500 3097 2075 3097 
Q 1594 3097 1305 2825 
Q 1016 2553 972 2059 
L 3022 2063 
z
" transform="scale(0.015625)"/>
      </defs>
      <use xlink:href="#DejaVuSans-64"/>
      <use xlink:href="#DejaVuSans-65" x="63.476562"/>
      <use xlink:href="#DejaVuSans-74" x="125"/>
      <use xlink:href="#DejaVuSans-65" x="164.208984"/>
      <use xlink:href="#DejaVuSans-63" x="225.732422"/>
      <use xlink:href="#DejaVuSans-74" x="280.712891"/>
      <use xlink:href="#DejaVuSans-6f" x="319.921875"/>
      <use xlink:href="#DejaVuSans-72" x="381.103516"/>
     </g>
    </g>
   </g>
   <g id="line2d_19">
    <path d="M 61.982037 218.769806 
L 70.223857 218.714709 
L 70.223857 218.439224 
L 72.284312 218.549418 
L 72.284312 218.604515 
L 73.31454 218.604515 
L 73.31454 218.439224 
L 75.374995 218.32903 
L 75.374995 218.053545 
L 76.405222 218.053545 
L 76.405222 217.282186 
L 77.43545 217.282186 
L 77.43545 217.557671 
L 78.465678 217.557671 
L 78.465678 217.227089 
L 79.495905 217.227089 
L 79.495905 216.29044 
L 80.526133 216.29044 
L 80.526133 215.684373 
L 81.55636 215.684373 
L 81.55636 214.968112 
L 82.586588 214.968112 
L 82.586588 213.590686 
L 84.647043 213.590686 
L 84.647043 210.615447 
L 85.677271 210.615447 
L 85.677271 209.127827 
L 86.707498 209.127827 
L 86.707498 205.491424 
L 87.737726 205.491424 
L 87.737726 202.901864 
L 88.767953 202.901864 
L 88.767953 200.422498 
L 89.798181 200.422498 
L 89.798181 194.47202 
L 90.828408 194.47202 
L 90.828408 188.025668 
L 91.858636 188.025668 
L 91.858636 178.714272 
L 92.888864 178.714272 
L 92.888864 174.912577 
L 93.919091 174.912577 
L 93.919091 165.711375 
L 94.949319 165.711375 
L 94.949319 158.714053 
L 95.979546 158.714053 
L 95.979546 150.4495 
L 97.009774 150.4495 
L 97.009774 141.799268 
L 98.040001 141.799268 
L 98.040001 130.008505 
L 99.070229 130.008505 
L 99.070229 122.735698 
L 100.100457 122.735698 
L 100.100457 115.903668 
L 101.130684 115.903668 
L 101.130684 105.765816 
L 102.160912 105.765816 
L 102.160912 83.837201 
L 103.191139 83.837201 
L 103.191139 80.035507 
L 104.221367 80.035507 
L 104.221367 69.567073 
L 105.251594 69.567073 
L 105.251594 66.095961 
L 106.281822 66.095961 
L 106.281822 55.18675 
L 107.312049 55.18675 
L 107.312049 47.142585 
L 108.342277 47.142585 
L 108.342277 42.349145 
L 109.372505 42.349145 
L 109.372505 31.550128 
L 110.402732 31.550128 
L 110.402732 28.795277 
L 111.43296 28.795277 
L 111.43296 25.820038 
L 112.463187 25.820038 
L 112.463187 24.663001 
L 113.493415 24.663001 
L 113.493415 18.822717 
L 114.523642 18.822717 
L 114.523642 28.629986 
L 115.55387 28.629986 
L 115.55387 20.696015 
L 116.584098 20.696015 
L 116.584098 22.789702 
L 117.614325 22.789702 
L 117.614325 19.704269 
L 118.644553 19.704269 
L 118.644553 21.467374 
L 119.67478 21.467374 
L 119.67478 17.28 
L 120.705008 17.28 
L 120.705008 18.547231 
L 121.735235 18.547231 
L 121.735235 20.916403 
L 122.765463 20.916403 
L 122.765463 20.310336 
L 123.795691 20.310336 
L 123.795691 18.326843 
L 124.825918 18.326843 
L 124.825918 24.773195 
L 125.856146 24.773195 
L 125.856146 21.522471 
L 126.886373 21.522471 
L 126.886373 32.81736 
L 127.916601 32.81736 
L 127.916601 26.591397 
L 128.946828 26.591397 
L 128.946828 38.051577 
L 129.977056 38.051577 
L 129.977056 40.310555 
L 131.007284 40.310555 
L 131.007284 43.72657 
L 132.037511 43.72657 
L 132.037511 49.897436 
L 133.067739 49.897436 
L 133.067739 52.376802 
L 134.097966 52.376802 
L 134.097966 55.847915 
L 135.128194 55.847915 
L 135.128194 59.374124 
L 136.158421 59.374124 
L 136.158421 64.222662 
L 137.188649 64.222662 
L 137.188649 66.371446 
L 138.218876 66.371446 
L 138.218876 72.817797 
L 139.249104 72.817797 
L 139.249104 78.107111 
L 140.279332 78.107111 
L 140.279332 77.556141 
L 141.309559 77.556141 
L 141.309559 81.908806 
L 142.339787 81.908806 
L 142.339787 81.46803 
L 143.370014 81.46803 
L 143.370014 89.457098 
L 144.400242 89.457098 
L 144.400242 89.952971 
L 145.430469 89.952971 
L 145.430469 93.919956 
L 146.460697 93.919956 
L 146.460697 95.076994 
L 147.490925 95.076994 
L 147.490925 101.578442 
L 148.521152 101.578442 
L 148.521152 104.994458 
L 149.55138 104.994458 
L 149.55138 104.443487 
L 150.581607 104.443487 
L 150.581607 107.694212 
L 151.611835 107.694212 
L 151.611835 110.50416 
L 153.67229 110.614354 
L 153.67229 118.162646 
L 154.702518 118.162646 
L 154.702518 115.903668 
L 155.732745 115.903668 
L 155.732745 116.179153 
L 156.762973 116.179153 
L 156.762973 119.595168 
L 157.7932 119.595168 
L 157.7932 124.498803 
L 158.823428 124.498803 
L 158.823428 125.215064 
L 159.853655 125.215064 
L 159.853655 128.961662 
L 160.883883 128.961662 
L 160.883883 126.702684 
L 161.91411 126.702684 
L 161.91411 131.441028 
L 162.944338 131.441028 
L 162.944338 135.132528 
L 163.974566 135.132528 
L 163.974566 137.060924 
L 165.004793 137.060924 
L 165.004793 139.264805 
L 166.035021 139.264805 
L 166.035021 140.917715 
L 167.065248 140.917715 
L 167.065248 142.515529 
L 168.095476 142.515529 
L 168.095476 141.303394 
L 169.125703 141.303394 
L 169.125703 147.30897 
L 170.155931 147.30897 
L 170.155931 147.088582 
L 171.186159 147.088582 
L 171.186159 144.939798 
L 172.216386 144.939798 
L 172.216386 150.063821 
L 173.246614 150.063821 
L 173.246614 152.543187 
L 174.276841 152.543187 
L 174.276841 154.416485 
L 175.307069 154.416485 
L 175.307069 155.187844 
L 176.337296 155.187844 
L 176.337296 154.747068 
L 177.367524 154.747068 
L 177.367524 154.912359 
L 178.397752 154.912359 
L 178.397752 157.777404 
L 179.427979 157.777404 
L 179.427979 160.642449 
L 180.458207 160.642449 
L 180.458207 160.146576 
L 181.488434 160.146576 
L 181.488434 159.430314 
L 182.518662 159.430314 
L 182.518662 162.295359 
L 183.548889 162.295359 
L 183.548889 164.995113 
L 184.579117 164.995113 
L 184.579117 165.490987 
L 185.609345 165.490987 
L 185.609345 167.584673 
L 186.639572 167.584673 
L 186.639572 171.110883 
L 187.6698 171.110883 
L 187.6698 168.135644 
L 188.700027 168.135644 
L 188.700027 171.827144 
L 189.730255 171.827144 
L 189.730255 170.670107 
L 190.760482 170.670107 
L 190.760482 171.276174 
L 191.79071 171.276174 
L 191.79071 174.85748 
L 192.820937 174.85748 
L 192.820937 175.022771 
L 193.851165 175.022771 
L 193.851165 178.493884 
L 195.91162 178.548981 
L 195.91162 181.964996 
L 196.941848 181.964996 
L 196.941848 184.499459 
L 197.972075 184.499459 
L 197.972075 182.956742 
L 199.002303 182.956742 
L 199.002303 184.444362 
L 200.03253 184.444362 
L 200.03253 189.733676 
L 201.062758 189.733676 
L 201.062758 189.898967 
L 202.092986 189.898967 
L 202.092986 193.314982 
L 203.123213 193.314982 
L 203.123213 195.243378 
L 204.153441 195.243378 
L 204.153441 195.849445 
L 205.183668 195.849445 
L 205.183668 197.392162 
L 207.244123 197.392162 
L 207.244123 197.006483 
L 208.274351 197.006483 
L 208.274351 200.642886 
L 209.304579 200.642886 
L 209.304579 202.130506 
L 211.365034 202.075409 
L 211.365034 204.83026 
L 212.395261 204.83026 
L 212.395261 205.105745 
L 213.425489 205.105745 
L 213.425489 206.042394 
L 214.455716 206.042394 
L 214.455716 206.703558 
L 215.485944 206.703558 
L 215.485944 207.97079 
L 216.516172 207.97079 
L 216.516172 209.788992 
L 217.546399 209.788992 
L 217.546399 210.229768 
L 218.576627 210.229768 
L 218.576627 211.001126 
L 219.606854 211.001126 
L 219.606854 211.827581 
L 220.637082 211.827581 
L 220.637082 212.543843 
L 221.667309 212.543843 
L 221.667309 213.755977 
L 223.727764 213.811074 
L 223.727764 214.857917 
L 224.757992 214.857917 
L 224.757992 214.527335 
L 225.78822 214.527335 
L 225.78822 215.629276 
L 226.818447 215.629276 
L 226.818447 216.180246 
L 227.848675 216.180246 
L 227.848675 217.006701 
L 229.90913 217.116895 
L 229.90913 217.557671 
L 231.969585 217.667866 
L 231.969585 218.604515 
L 234.03004 218.714709 
L 234.03004 218.824903 
L 235.060268 218.824903 
L 235.060268 218.824903 
" clip-path="url(#pdf8be2b55c)" style="fill: none; stroke: #1f77b4; stroke-width: 1.5; stroke-linecap: square"/>
   </g>
   <g id="line2d_20">
    <path d="M 83.077743 218.88 
L 97.500929 218.769806 
L 97.500929 218.549418 
L 98.531156 218.549418 
L 98.531156 218.824903 
L 99.561384 218.824903 
L 99.561384 218.549418 
L 100.591611 218.549418 
L 100.591611 218.824903 
L 102.652066 218.714709 
L 102.652066 218.659612 
L 105.742749 218.604515 
L 105.742749 218.218836 
L 106.772977 218.218836 
L 106.772977 218.604515 
L 107.803204 218.604515 
L 107.803204 218.053545 
L 109.863659 218.053545 
L 109.863659 218.32903 
L 110.893887 218.32903 
L 110.893887 217.722963 
L 111.924114 217.722963 
L 111.924114 217.943351 
L 113.98457 217.833157 
L 113.98457 217.006701 
L 115.014797 217.006701 
L 115.014797 217.722963 
L 116.045025 217.722963 
L 116.045025 216.621022 
L 117.075252 216.621022 
L 117.075252 216.455731 
L 118.10548 216.455731 
L 118.10548 216.125149 
L 119.135707 216.125149 
L 119.135707 215.849664 
L 120.165935 215.849664 
L 120.165935 216.29044 
L 121.196163 216.29044 
L 121.196163 215.629276 
L 122.22639 215.629276 
L 122.22639 214.417141 
L 123.256618 214.417141 
L 123.256618 213.205007 
L 125.317073 213.094813 
L 125.317073 212.543843 
L 126.3473 212.543843 
L 126.3473 210.725641 
L 127.377528 210.725641 
L 127.377528 210.56035 
L 128.407756 210.56035 
L 128.407756 209.127827 
L 129.437983 209.127827 
L 129.437983 208.907439 
L 130.468211 208.907439 
L 130.468211 206.538267 
L 131.498438 206.538267 
L 131.498438 205.38123 
L 132.528666 205.38123 
L 132.528666 203.012058 
L 133.558893 203.012058 
L 133.558893 200.697983 
L 134.589121 200.697983 
L 134.589121 196.675901 
L 135.619348 196.675901 
L 135.619348 194.857699 
L 136.649576 194.857699 
L 136.649576 192.378333 
L 137.679804 192.378333 
L 137.679804 191.111101 
L 138.710031 191.111101 
L 138.710031 186.427855 
L 139.740259 186.427855 
L 139.740259 184.995332 
L 140.770486 184.995332 
L 140.770486 182.515966 
L 141.800714 182.515966 
L 141.800714 178.879563 
L 142.830941 178.879563 
L 142.830941 177.336846 
L 143.861169 177.336846 
L 143.861169 172.984181 
L 144.891397 172.984181 
L 144.891397 169.898748 
L 145.921624 169.898748 
L 145.921624 163.838076 
L 146.951852 163.838076 
L 146.951852 164.829822 
L 147.982079 164.829822 
L 147.982079 158.989538 
L 149.012307 158.989538 
L 149.012307 157.832501 
L 150.042534 157.832501 
L 150.042534 152.047313 
L 151.072762 152.047313 
L 151.072762 150.724985 
L 152.10299 150.724985 
L 152.10299 142.570626 
L 153.133217 142.570626 
L 153.133217 139.209708 
L 154.163445 139.209708 
L 154.163445 138.107767 
L 155.193672 138.107767 
L 155.193672 132.432774 
L 156.2239 132.432774 
L 156.2239 127.033266 
L 157.254127 127.033266 
L 157.254127 134.636655 
L 158.284355 134.636655 
L 158.284355 124.388609 
L 159.314583 124.388609 
L 159.314583 121.96434 
L 160.34481 121.96434 
L 160.34481 118.658519 
L 161.375038 118.658519 
L 161.375038 117.391287 
L 162.405265 117.391287 
L 162.405265 118.603422 
L 163.435493 118.603422 
L 163.435493 110.283772 
L 164.46572 110.283772 
L 164.46572 108.134988 
L 165.495948 108.134988 
L 165.495948 109.402219 
L 166.526175 109.402219 
L 166.526175 103.396644 
L 167.556403 103.396644 
L 167.556403 102.184509 
L 168.586631 102.184509 
L 168.586631 105.104652 
L 169.616858 105.104652 
L 169.616858 101.633539 
L 170.647086 101.633539 
L 170.647086 101.79883 
L 171.677313 101.79883 
L 171.677313 103.121159 
L 172.707541 103.121159 
L 172.707541 104.718972 
L 173.737768 104.718972 
L 173.737768 105.765816 
L 174.767996 105.765816 
L 174.767996 100.972375 
L 175.798224 100.972375 
L 175.798224 104.112905 
L 176.828451 104.112905 
L 176.828451 101.468248 
L 178.888906 101.358054 
L 178.888906 101.743733 
L 179.919134 101.743733 
L 179.919134 99.980629 
L 180.949361 99.980629 
L 180.949361 101.137666 
L 181.979589 101.137666 
L 181.979589 96.729904 
L 183.009817 96.729904 
L 183.009817 102.074315 
L 184.040044 102.074315 
L 184.040044 97.060486 
L 185.070272 97.060486 
L 185.070272 99.870435 
L 186.100499 99.870435 
L 186.100499 101.964121 
L 187.130727 101.964121 
L 187.130727 101.578442 
L 188.160954 101.578442 
L 188.160954 100.69689 
L 189.191182 100.69689 
L 189.191182 102.459995 
L 190.22141 102.459995 
L 190.22141 101.027472 
L 191.251637 101.027472 
L 191.251637 104.002711 
L 192.281865 104.002711 
L 192.281865 103.727226 
L 193.312092 103.727226 
L 193.312092 100.69689 
L 194.34232 100.69689 
L 194.34232 107.52892 
L 195.372547 107.52892 
L 195.372547 103.561935 
L 196.402775 103.561935 
L 196.402775 105.87601 
L 197.433002 105.87601 
L 197.433002 102.515092 
L 198.46323 102.515092 
L 198.46323 109.071637 
L 199.493458 109.071637 
L 199.493458 107.859503 
L 200.523685 107.859503 
L 200.523685 114.030369 
L 201.553913 114.030369 
L 201.553913 115.187406 
L 202.58414 115.187406 
L 202.58414 118.383034 
L 203.614368 118.383034 
L 203.614368 117.501481 
L 204.644595 117.501481 
L 204.644595 116.730123 
L 205.674823 116.730123 
L 205.674823 120.035944 
L 206.705051 120.035944 
L 206.705051 117.88716 
L 207.735278 117.88716 
L 207.735278 122.735698 
L 208.765506 122.735698 
L 208.765506 123.286668 
L 210.825961 123.176474 
L 210.825961 125.986423 
L 211.856188 125.986423 
L 211.856188 129.347341 
L 212.886416 129.347341 
L 212.886416 126.482296 
L 213.916644 126.482296 
L 213.916644 130.394184 
L 214.946871 130.394184 
L 214.946871 135.683498 
L 215.977099 135.683498 
L 215.977099 134.801946 
L 217.007326 134.801946 
L 217.007326 131.385931 
L 218.037554 131.385931 
L 218.037554 134.636655 
L 219.067781 134.636655 
L 219.067781 137.446603 
L 220.098009 137.446603 
L 220.098009 133.975491 
L 221.128236 133.975491 
L 221.128236 141.854365 
L 222.158464 141.854365 
L 222.158464 140.862618 
L 223.188692 140.862618 
L 223.188692 139.760678 
L 224.218919 139.760678 
L 224.218919 143.892954 
L 225.249147 143.892954 
L 225.249147 142.735917 
L 226.279374 142.735917 
L 226.279374 143.948051 
L 227.309602 143.948051 
L 227.309602 145.600962 
L 228.339829 145.600962 
L 228.339829 150.4495 
L 229.370057 150.4495 
L 229.370057 146.37232 
L 230.400285 146.37232 
L 230.400285 145.656059 
L 231.430512 145.656059 
L 231.430512 150.229112 
L 232.46074 150.229112 
L 232.46074 152.047313 
L 233.490967 152.047313 
L 233.490967 150.559694 
L 234.521195 150.559694 
L 234.521195 152.212605 
L 235.551422 152.212605 
L 235.551422 151.661634 
L 236.58165 151.661634 
L 236.58165 156.289784 
L 237.611878 156.289784 
L 237.611878 158.383471 
L 238.642105 158.383471 
L 238.642105 156.510172 
L 239.672333 156.510172 
L 239.672333 150.559694 
L 240.70256 150.559694 
L 240.70256 156.455075 
L 241.732788 156.455075 
L 241.732788 160.25677 
L 242.763015 160.25677 
L 242.763015 155.07765 
L 243.793243 155.07765 
L 243.793243 160.366964 
L 244.823471 160.366964 
L 244.823471 159.926187 
L 245.853698 159.926187 
L 245.853698 163.287106 
L 246.883926 163.287106 
L 246.883926 161.028128 
L 247.914153 161.028128 
L 247.914153 162.515747 
L 248.944381 162.515747 
L 248.944381 162.130068 
L 249.974608 162.130068 
L 249.974608 165.270599 
L 251.004836 165.270599 
L 251.004836 165.546084 
L 252.035063 165.546084 
L 252.035063 166.758218 
L 254.095519 166.758218 
L 254.095519 169.347778 
L 255.125746 169.347778 
L 255.125746 169.623263 
L 256.155974 169.623263 
L 256.155974 167.419382 
L 257.186201 167.419382 
L 257.186201 172.984181 
L 258.216429 172.984181 
L 258.216429 171.661853 
L 259.246656 171.661853 
L 259.246656 172.047532 
L 260.276884 172.047532 
L 260.276884 172.873987 
L 261.307112 172.873987 
L 261.307112 169.568166 
L 262.337339 169.568166 
L 262.337339 174.416704 
L 263.367567 174.416704 
L 263.367567 172.433211 
L 264.397794 172.433211 
L 264.397794 174.637092 
L 265.428022 174.637092 
L 265.428022 174.416704 
L 266.458249 174.416704 
L 266.458249 176.179809 
L 267.488477 176.179809 
L 267.488477 174.912577 
L 268.518705 174.912577 
L 268.518705 174.692189 
L 269.548932 174.692189 
L 269.548932 178.824466 
L 271.609387 178.879563 
L 271.609387 180.642667 
L 272.639615 180.642667 
L 272.639615 180.256988 
L 273.669842 180.256988 
L 273.669842 177.777622 
L 274.70007 177.777622 
L 274.70007 181.414026 
L 275.730298 181.414026 
L 275.730298 178.93466 
L 276.760525 178.93466 
L 276.760525 179.099951 
L 277.790753 179.099951 
L 277.790753 183.066936 
L 279.851208 183.17713 
L 279.851208 181.028347 
L 280.881435 181.028347 
L 280.881435 181.854802 
L 281.911663 181.854802 
L 281.911663 184.609653 
L 282.94189 184.609653 
L 282.94189 182.515966 
L 283.972118 182.515966 
L 283.972118 184.334168 
L 285.002346 184.334168 
L 285.002346 182.130287 
L 286.032573 182.130287 
L 286.032573 185.325914 
L 287.062801 185.325914 
L 287.062801 187.089019 
L 288.093028 187.089019 
L 288.093028 186.372758 
L 289.123256 186.372758 
L 289.123256 187.860377 
L 290.153483 187.860377 
L 290.153483 185.987078 
L 291.183711 185.987078 
L 291.183711 186.70334 
L 292.213939 186.70334 
L 292.213939 188.962318 
L 293.244166 188.962318 
L 293.244166 190.229549 
L 294.274394 190.229549 
L 294.274394 192.213042 
L 295.304621 192.213042 
L 295.304621 185.876884 
L 296.334849 185.876884 
L 296.334849 189.733676 
L 298.395304 189.84387 
L 298.395304 192.543624 
L 299.425532 192.543624 
L 299.425532 190.284646 
L 300.455759 190.284646 
L 300.455759 191.606975 
L 301.485987 191.606975 
L 301.485987 192.488527 
L 302.516214 192.488527 
L 302.516214 195.02299 
L 303.546442 195.02299 
L 303.546442 191.717169 
L 304.576669 191.717169 
L 304.576669 195.684154 
L 305.606897 195.684154 
L 305.606897 194.196535 
L 306.637125 194.196535 
L 306.637125 197.226871 
L 307.667352 197.226871 
L 307.667352 197.61255 
L 308.69758 197.61255 
L 308.69758 197.392162 
L 309.727807 197.392162 
L 309.727807 198.604296 
L 310.758035 198.604296 
L 310.758035 197.667647 
L 311.788262 197.667647 
L 311.788262 197.171774 
L 312.81849 197.171774 
L 312.81849 198.989975 
L 313.848717 198.989975 
L 313.848717 200.422498 
L 314.878945 200.422498 
L 314.878945 202.901864 
L 315.909173 202.901864 
L 315.909173 200.75308 
L 316.9394 200.75308 
L 316.9394 202.185603 
L 317.969628 202.185603 
L 317.969628 204.775163 
L 318.999855 204.775163 
L 318.999855 204.334386 
L 321.06031 204.44458 
L 321.06031 204.995551 
L 322.090538 204.995551 
L 322.090538 206.428073 
L 323.120766 206.428073 
L 323.120766 205.656715 
L 324.150993 205.656715 
L 324.150993 205.987297 
L 325.181221 205.987297 
L 325.181221 205.546521 
L 326.211448 205.546521 
L 326.211448 206.813752 
L 327.241676 206.813752 
L 327.241676 206.152588 
L 328.271903 206.152588 
L 328.271903 207.199432 
L 329.302131 207.199432 
L 329.302131 209.844089 
L 330.332359 209.844089 
L 330.332359 208.742148 
L 331.362586 208.742148 
L 331.362586 208.301372 
L 332.392814 208.301372 
L 332.392814 208.797245 
L 333.423041 208.797245 
L 333.423041 210.835835 
L 335.483496 210.946029 
L 335.483496 211.056223 
L 336.513724 211.056223 
L 336.513724 210.064477 
L 337.543951 210.064477 
L 337.543951 211.882678 
L 338.574179 211.882678 
L 338.574179 211.166417 
L 339.604407 211.166417 
L 339.604407 212.21326 
L 340.634634 212.21326 
L 340.634634 212.819328 
L 341.664862 212.819328 
L 341.664862 213.480492 
L 342.695089 213.480492 
L 342.695089 213.315201 
L 343.725317 213.315201 
L 343.725317 214.362044 
L 344.755544 214.362044 
L 344.755544 213.645783 
L 345.785772 213.645783 
L 345.785772 214.196753 
L 346.816 214.196753 
L 346.816 214.362044 
L 347.846227 214.362044 
L 347.846227 215.243597 
L 349.906682 215.243597 
L 349.906682 214.692626 
L 350.93691 214.692626 
L 350.93691 215.73947 
L 351.967137 215.73947 
L 351.967137 216.014955 
L 352.997365 216.014955 
L 352.997365 216.180246 
L 354.027593 216.180246 
L 354.027593 216.014955 
L 355.05782 216.014955 
L 355.05782 216.565925 
L 358.148503 216.676119 
L 358.148503 216.786313 
L 359.17873 216.786313 
L 359.17873 217.447477 
L 360.208958 217.447477 
L 360.208958 217.061798 
L 361.239186 217.061798 
L 361.239186 217.833157 
L 362.269413 217.833157 
L 362.269413 217.998448 
L 363.299641 217.998448 
L 363.299641 217.557671 
L 364.329868 217.557671 
L 364.329868 217.998448 
L 365.360096 217.998448 
L 365.360096 218.163739 
L 366.390323 218.163739 
L 366.390323 218.439224 
L 367.420551 218.439224 
L 367.420551 218.163739 
L 368.450778 218.163739 
L 368.450778 218.769806 
L 369.481006 218.769806 
L 369.481006 218.549418 
L 370.511234 218.549418 
L 370.511234 218.935097 
L 373.601916 218.88 
L 373.601916 218.88 
" clip-path="url(#pdf8be2b55c)" style="fill: none; stroke: #ff7f0e; stroke-width: 1.5; stroke-linecap: square"/>
   </g>
  </g>
 </g>
 <defs>
  <clipPath id="pdf8be2b55c">
   <rect x="53.328125" y="7.2" width="334.8" height="221.76"/>
  </clipPath>
 </defs>
</svg>
