<?xml version="1.0" encoding="utf-8" standalone="no"?>
<!DOCTYPE svg PUBLIC "-//W3C//DTD SVG 1.1//EN"
  "http://www.w3.org/Graphics/SVG/1.1/DTD/svg11.dtd">
<svg xmlns:xlink="http://www.w3.org/1999/xlink" width="388.965625pt" height="268.200625pt" viewBox="0 0 388.965625 268.200625" xmlns="http://www.w3.org/2000/svg" version="1.1">
 <metadata>
  <rdf:RDF xmlns:dc="http://purl.org/dc/elements/1.1/" xmlns:cc="http://creativecommons.org/ns#" xmlns:rdf="http://www.w3.org/1999/02/22-rdf-syntax-ns#">
   <cc:Work>
    <dc:type rdf:resource="http://purl.org/dc/dcmitype/StillImage"/>
    <dc:date>2024-12-12T12:30:59.940865</dc:date>
    <dc:format>image/svg+xml</dc:format>
    <dc:creator>
     <cc:Agent>
      <dc:title>Matplotlib v3.7.3, https://matplotlib.org/</dc:title>
     </cc:Agent>
    </dc:creator>
   </cc:Work>
  </rdf:RDF>
 </metadata>
 <defs>
  <style type="text/css">*{stroke-linejoin: round; stroke-linecap: butt}</style>
 </defs>
 <g id="figure_1">
  <g id="patch_1">
   <path d="M 0 268.200625 
L 388.965625 268.200625 
L 388.965625 0 
L 0 0 
z
" style="fill: #ffffff"/>
  </g>
  <g id="axes_1">
   <g id="patch_2">
    <path d="M 46.965625 228.96 
L 381.765625 228.96 
L 381.765625 7.2 
L 46.965625 7.2 
z
" style="fill: #ffffff"/>
   </g>
   <g id="matplotlib.axis_1">
    <g id="xtick_1">
     <g id="line2d_1">
      <defs>
       <path id="m63517c8010" d="M 0 0 
L 0 3.5 
" style="stroke: #000000; stroke-width: 0.8"/>
      </defs>
      <g>
       <use xlink:href="#m63517c8010" x="62.183807" y="228.96" style="stroke: #000000; stroke-width: 0.8"/>
      </g>
     </g>
     <g id="text_1">
      <!-- 6.0 -->
      <g transform="translate(54.232244 243.558437) scale(0.1 -0.1)">
       <defs>
        <path id="DejaVuSans-36" d="M 2113 2584 
Q 1688 2584 1439 2293 
Q 1191 2003 1191 1497 
Q 1191 994 1439 701 
Q 1688 409 2113 409 
Q 2538 409 2786 701 
Q 3034 994 3034 1497 
Q 3034 2003 2786 2293 
Q 2538 2584 2113 2584 
z
M 3366 4563 
L 3366 3988 
Q 3128 4100 2886 4159 
Q 2644 4219 2406 4219 
Q 1781 4219 1451 3797 
Q 1122 3375 1075 2522 
Q 1259 2794 1537 2939 
Q 1816 3084 2150 3084 
Q 2853 3084 3261 2657 
Q 3669 2231 3669 1497 
Q 3669 778 3244 343 
Q 2819 -91 2113 -91 
Q 1303 -91 875 529 
Q 447 1150 447 2328 
Q 447 3434 972 4092 
Q 1497 4750 2381 4750 
Q 2619 4750 2861 4703 
Q 3103 4656 3366 4563 
z
" transform="scale(0.015625)"/>
        <path id="DejaVuSans-2e" d="M 684 794 
L 1344 794 
L 1344 0 
L 684 0 
L 684 794 
z
" transform="scale(0.015625)"/>
        <path id="DejaVuSans-30" d="M 2034 4250 
Q 1547 4250 1301 3770 
Q 1056 3291 1056 2328 
Q 1056 1369 1301 889 
Q 1547 409 2034 409 
Q 2525 409 2770 889 
Q 3016 1369 3016 2328 
Q 3016 3291 2770 3770 
Q 2525 4250 2034 4250 
z
M 2034 4750 
Q 2819 4750 3233 4129 
Q 3647 3509 3647 2328 
Q 3647 1150 3233 529 
Q 2819 -91 2034 -91 
Q 1250 -91 836 529 
Q 422 1150 422 2328 
Q 422 3509 836 4129 
Q 1250 4750 2034 4750 
z
" transform="scale(0.015625)"/>
       </defs>
       <use xlink:href="#DejaVuSans-36"/>
       <use xlink:href="#DejaVuSans-2e" x="63.623047"/>
       <use xlink:href="#DejaVuSans-30" x="95.410156"/>
      </g>
     </g>
    </g>
    <g id="xtick_2">
     <g id="line2d_2">
      <g>
       <use xlink:href="#m63517c8010" x="112.91108" y="228.96" style="stroke: #000000; stroke-width: 0.8"/>
      </g>
     </g>
     <g id="text_2">
      <!-- 6.5 -->
      <g transform="translate(104.959517 243.558437) scale(0.1 -0.1)">
       <defs>
        <path id="DejaVuSans-35" d="M 691 4666 
L 3169 4666 
L 3169 4134 
L 1269 4134 
L 1269 2991 
Q 1406 3038 1543 3061 
Q 1681 3084 1819 3084 
Q 2600 3084 3056 2656 
Q 3513 2228 3513 1497 
Q 3513 744 3044 326 
Q 2575 -91 1722 -91 
Q 1428 -91 1123 -41 
Q 819 9 494 109 
L 494 744 
Q 775 591 1075 516 
Q 1375 441 1709 441 
Q 2250 441 2565 725 
Q 2881 1009 2881 1497 
Q 2881 1984 2565 2268 
Q 2250 2553 1709 2553 
Q 1456 2553 1204 2497 
Q 953 2441 691 2322 
L 691 4666 
z
" transform="scale(0.015625)"/>
       </defs>
       <use xlink:href="#DejaVuSans-36"/>
       <use xlink:href="#DejaVuSans-2e" x="63.623047"/>
       <use xlink:href="#DejaVuSans-35" x="95.410156"/>
      </g>
     </g>
    </g>
    <g id="xtick_3">
     <g id="line2d_3">
      <g>
       <use xlink:href="#m63517c8010" x="163.638352" y="228.96" style="stroke: #000000; stroke-width: 0.8"/>
      </g>
     </g>
     <g id="text_3">
      <!-- 7.0 -->
      <g transform="translate(155.68679 243.558437) scale(0.1 -0.1)">
       <defs>
        <path id="DejaVuSans-37" d="M 525 4666 
L 3525 4666 
L 3525 4397 
L 1831 0 
L 1172 0 
L 2766 4134 
L 525 4134 
L 525 4666 
z
" transform="scale(0.015625)"/>
       </defs>
       <use xlink:href="#DejaVuSans-37"/>
       <use xlink:href="#DejaVuSans-2e" x="63.623047"/>
       <use xlink:href="#DejaVuSans-30" x="95.410156"/>
      </g>
     </g>
    </g>
    <g id="xtick_4">
     <g id="line2d_4">
      <g>
       <use xlink:href="#m63517c8010" x="214.365625" y="228.96" style="stroke: #000000; stroke-width: 0.8"/>
      </g>
     </g>
     <g id="text_4">
      <!-- 7.5 -->
      <g transform="translate(206.414063 243.558437) scale(0.1 -0.1)">
       <use xlink:href="#DejaVuSans-37"/>
       <use xlink:href="#DejaVuSans-2e" x="63.623047"/>
       <use xlink:href="#DejaVuSans-35" x="95.410156"/>
      </g>
     </g>
    </g>
    <g id="xtick_5">
     <g id="line2d_5">
      <g>
       <use xlink:href="#m63517c8010" x="265.092898" y="228.96" style="stroke: #000000; stroke-width: 0.8"/>
      </g>
     </g>
     <g id="text_5">
      <!-- 8.0 -->
      <g transform="translate(257.141335 243.558437) scale(0.1 -0.1)">
       <defs>
        <path id="DejaVuSans-38" d="M 2034 2216 
Q 1584 2216 1326 1975 
Q 1069 1734 1069 1313 
Q 1069 891 1326 650 
Q 1584 409 2034 409 
Q 2484 409 2743 651 
Q 3003 894 3003 1313 
Q 3003 1734 2745 1975 
Q 2488 2216 2034 2216 
z
M 1403 2484 
Q 997 2584 770 2862 
Q 544 3141 544 3541 
Q 544 4100 942 4425 
Q 1341 4750 2034 4750 
Q 2731 4750 3128 4425 
Q 3525 4100 3525 3541 
Q 3525 3141 3298 2862 
Q 3072 2584 2669 2484 
Q 3125 2378 3379 2068 
Q 3634 1759 3634 1313 
Q 3634 634 3220 271 
Q 2806 -91 2034 -91 
Q 1263 -91 848 271 
Q 434 634 434 1313 
Q 434 1759 690 2068 
Q 947 2378 1403 2484 
z
M 1172 3481 
Q 1172 3119 1398 2916 
Q 1625 2713 2034 2713 
Q 2441 2713 2670 2916 
Q 2900 3119 2900 3481 
Q 2900 3844 2670 4047 
Q 2441 4250 2034 4250 
Q 1625 4250 1398 4047 
Q 1172 3844 1172 3481 
z
" transform="scale(0.015625)"/>
       </defs>
       <use xlink:href="#DejaVuSans-38"/>
       <use xlink:href="#DejaVuSans-2e" x="63.623047"/>
       <use xlink:href="#DejaVuSans-30" x="95.410156"/>
      </g>
     </g>
    </g>
    <g id="xtick_6">
     <g id="line2d_6">
      <g>
       <use xlink:href="#m63517c8010" x="315.82017" y="228.96" style="stroke: #000000; stroke-width: 0.8"/>
      </g>
     </g>
     <g id="text_6">
      <!-- 8.5 -->
      <g transform="translate(307.868608 243.558437) scale(0.1 -0.1)">
       <use xlink:href="#DejaVuSans-38"/>
       <use xlink:href="#DejaVuSans-2e" x="63.623047"/>
       <use xlink:href="#DejaVuSans-35" x="95.410156"/>
      </g>
     </g>
    </g>
    <g id="xtick_7">
     <g id="line2d_7">
      <g>
       <use xlink:href="#m63517c8010" x="366.547443" y="228.96" style="stroke: #000000; stroke-width: 0.8"/>
      </g>
     </g>
     <g id="text_7">
      <!-- 9.0 -->
      <g transform="translate(358.595881 243.558437) scale(0.1 -0.1)">
       <defs>
        <path id="DejaVuSans-39" d="M 703 97 
L 703 672 
Q 941 559 1184 500 
Q 1428 441 1663 441 
Q 2288 441 2617 861 
Q 2947 1281 2994 2138 
Q 2813 1869 2534 1725 
Q 2256 1581 1919 1581 
Q 1219 1581 811 2004 
Q 403 2428 403 3163 
Q 403 3881 828 4315 
Q 1253 4750 1959 4750 
Q 2769 4750 3195 4129 
Q 3622 3509 3622 2328 
Q 3622 1225 3098 567 
Q 2575 -91 1691 -91 
Q 1453 -91 1209 -44 
Q 966 3 703 97 
z
M 1959 2075 
Q 2384 2075 2632 2365 
Q 2881 2656 2881 3163 
Q 2881 3666 2632 3958 
Q 2384 4250 1959 4250 
Q 1534 4250 1286 3958 
Q 1038 3666 1038 3163 
Q 1038 2656 1286 2365 
Q 1534 2075 1959 2075 
z
" transform="scale(0.015625)"/>
       </defs>
       <use xlink:href="#DejaVuSans-39"/>
       <use xlink:href="#DejaVuSans-2e" x="63.623047"/>
       <use xlink:href="#DejaVuSans-30" x="95.410156"/>
      </g>
     </g>
    </g>
    <g id="text_8">
     <!-- wavelength [Å] -->
     <g transform="translate(176.328125 258.920937) scale(0.1 -0.1)">
      <defs>
       <path id="DejaVuSans-77" d="M 269 3500 
L 844 3500 
L 1563 769 
L 2278 3500 
L 2956 3500 
L 3675 769 
L 4391 3500 
L 4966 3500 
L 4050 0 
L 3372 0 
L 2619 2869 
L 1863 0 
L 1184 0 
L 269 3500 
z
" transform="scale(0.015625)"/>
       <path id="DejaVuSans-61" d="M 2194 1759 
Q 1497 1759 1228 1600 
Q 959 1441 959 1056 
Q 959 750 1161 570 
Q 1363 391 1709 391 
Q 2188 391 2477 730 
Q 2766 1069 2766 1631 
L 2766 1759 
L 2194 1759 
z
M 3341 1997 
L 3341 0 
L 2766 0 
L 2766 531 
Q 2569 213 2275 61 
Q 1981 -91 1556 -91 
Q 1019 -91 701 211 
Q 384 513 384 1019 
Q 384 1609 779 1909 
Q 1175 2209 1959 2209 
L 2766 2209 
L 2766 2266 
Q 2766 2663 2505 2880 
Q 2244 3097 1772 3097 
Q 1472 3097 1187 3025 
Q 903 2953 641 2809 
L 641 3341 
Q 956 3463 1253 3523 
Q 1550 3584 1831 3584 
Q 2591 3584 2966 3190 
Q 3341 2797 3341 1997 
z
" transform="scale(0.015625)"/>
       <path id="DejaVuSans-76" d="M 191 3500 
L 800 3500 
L 1894 563 
L 2988 3500 
L 3597 3500 
L 2284 0 
L 1503 0 
L 191 3500 
z
" transform="scale(0.015625)"/>
       <path id="DejaVuSans-65" d="M 3597 1894 
L 3597 1613 
L 953 1613 
Q 991 1019 1311 708 
Q 1631 397 2203 397 
Q 2534 397 2845 478 
Q 3156 559 3463 722 
L 3463 178 
Q 3153 47 2828 -22 
Q 2503 -91 2169 -91 
Q 1331 -91 842 396 
Q 353 884 353 1716 
Q 353 2575 817 3079 
Q 1281 3584 2069 3584 
Q 2775 3584 3186 3129 
Q 3597 2675 3597 1894 
z
M 3022 2063 
Q 3016 2534 2758 2815 
Q 2500 3097 2075 3097 
Q 1594 3097 1305 2825 
Q 1016 2553 972 2059 
L 3022 2063 
z
" transform="scale(0.015625)"/>
       <path id="DejaVuSans-6c" d="M 603 4863 
L 1178 4863 
L 1178 0 
L 603 0 
L 603 4863 
z
" transform="scale(0.015625)"/>
       <path id="DejaVuSans-6e" d="M 3513 2113 
L 3513 0 
L 2938 0 
L 2938 2094 
Q 2938 2591 2744 2837 
Q 2550 3084 2163 3084 
Q 1697 3084 1428 2787 
Q 1159 2491 1159 1978 
L 1159 0 
L 581 0 
L 581 3500 
L 1159 3500 
L 1159 2956 
Q 1366 3272 1645 3428 
Q 1925 3584 2291 3584 
Q 2894 3584 3203 3211 
Q 3513 2838 3513 2113 
z
" transform="scale(0.015625)"/>
       <path id="DejaVuSans-67" d="M 2906 1791 
Q 2906 2416 2648 2759 
Q 2391 3103 1925 3103 
Q 1463 3103 1205 2759 
Q 947 2416 947 1791 
Q 947 1169 1205 825 
Q 1463 481 1925 481 
Q 2391 481 2648 825 
Q 2906 1169 2906 1791 
z
M 3481 434 
Q 3481 -459 3084 -895 
Q 2688 -1331 1869 -1331 
Q 1566 -1331 1297 -1286 
Q 1028 -1241 775 -1147 
L 775 -588 
Q 1028 -725 1275 -790 
Q 1522 -856 1778 -856 
Q 2344 -856 2625 -561 
Q 2906 -266 2906 331 
L 2906 616 
Q 2728 306 2450 153 
Q 2172 0 1784 0 
Q 1141 0 747 490 
Q 353 981 353 1791 
Q 353 2603 747 3093 
Q 1141 3584 1784 3584 
Q 2172 3584 2450 3431 
Q 2728 3278 2906 2969 
L 2906 3500 
L 3481 3500 
L 3481 434 
z
" transform="scale(0.015625)"/>
       <path id="DejaVuSans-74" d="M 1172 4494 
L 1172 3500 
L 2356 3500 
L 2356 3053 
L 1172 3053 
L 1172 1153 
Q 1172 725 1289 603 
Q 1406 481 1766 481 
L 2356 481 
L 2356 0 
L 1766 0 
Q 1100 0 847 248 
Q 594 497 594 1153 
L 594 3053 
L 172 3053 
L 172 3500 
L 594 3500 
L 594 4494 
L 1172 4494 
z
" transform="scale(0.015625)"/>
       <path id="DejaVuSans-68" d="M 3513 2113 
L 3513 0 
L 2938 0 
L 2938 2094 
Q 2938 2591 2744 2837 
Q 2550 3084 2163 3084 
Q 1697 3084 1428 2787 
Q 1159 2491 1159 1978 
L 1159 0 
L 581 0 
L 581 4863 
L 1159 4863 
L 1159 2956 
Q 1366 3272 1645 3428 
Q 1925 3584 2291 3584 
Q 2894 3584 3203 3211 
Q 3513 2838 3513 2113 
z
" transform="scale(0.015625)"/>
       <path id="DejaVuSans-20" transform="scale(0.015625)"/>
       <path id="DejaVuSans-5b" d="M 550 4863 
L 1875 4863 
L 1875 4416 
L 1125 4416 
L 1125 -397 
L 1875 -397 
L 1875 -844 
L 550 -844 
L 550 4863 
z
" transform="scale(0.015625)"/>
       <path id="DejaVuSans-c5" d="M 2663 5081 
Q 2663 5278 2523 5417 
Q 2384 5556 2188 5556 
Q 1988 5556 1852 5420 
Q 1716 5284 1716 5081 
Q 1716 4884 1853 4746 
Q 1991 4609 2188 4609 
Q 2384 4609 2523 4746 
Q 2663 4884 2663 5081 
z
M 2188 4044 
L 1338 1722 
L 3041 1722 
L 2188 4044 
z
M 1716 4366 
Q 1525 4494 1428 4673 
Q 1331 4853 1331 5081 
Q 1331 5441 1579 5691 
Q 1828 5941 2188 5941 
Q 2544 5941 2795 5689 
Q 3047 5438 3047 5081 
Q 3047 4863 2948 4678 
Q 2850 4494 2663 4366 
L 4325 0 
L 3669 0 
L 3244 1197 
L 1141 1197 
L 716 0 
L 50 0 
L 1716 4366 
z
" transform="scale(0.015625)"/>
       <path id="DejaVuSans-5d" d="M 1947 4863 
L 1947 -844 
L 622 -844 
L 622 -397 
L 1369 -397 
L 1369 4416 
L 622 4416 
L 622 4863 
L 1947 4863 
z
" transform="scale(0.015625)"/>
      </defs>
      <use xlink:href="#DejaVuSans-77"/>
      <use xlink:href="#DejaVuSans-61" x="81.787109"/>
      <use xlink:href="#DejaVuSans-76" x="143.066406"/>
      <use xlink:href="#DejaVuSans-65" x="202.246094"/>
      <use xlink:href="#DejaVuSans-6c" x="263.769531"/>
      <use xlink:href="#DejaVuSans-65" x="291.552734"/>
      <use xlink:href="#DejaVuSans-6e" x="353.076172"/>
      <use xlink:href="#DejaVuSans-67" x="416.455078"/>
      <use xlink:href="#DejaVuSans-74" x="479.931641"/>
      <use xlink:href="#DejaVuSans-68" x="519.140625"/>
      <use xlink:href="#DejaVuSans-20" x="582.519531"/>
      <use xlink:href="#DejaVuSans-5b" x="614.306641"/>
      <use xlink:href="#DejaVuSans-c5" x="653.320312"/>
      <use xlink:href="#DejaVuSans-5d" x="721.728516"/>
     </g>
    </g>
   </g>
   <g id="matplotlib.axis_2">
    <g id="ytick_1">
     <g id="line2d_8">
      <defs>
       <path id="ma4b19ad04e" d="M 0 0 
L -3.5 0 
" style="stroke: #000000; stroke-width: 0.8"/>
      </defs>
      <g>
       <use xlink:href="#ma4b19ad04e" x="46.965625" y="218.88" style="stroke: #000000; stroke-width: 0.8"/>
      </g>
     </g>
     <g id="text_9">
      <!-- 0 -->
      <g transform="translate(33.603125 222.679219) scale(0.1 -0.1)">
       <use xlink:href="#DejaVuSans-30"/>
      </g>
     </g>
    </g>
    <g id="ytick_2">
     <g id="line2d_9">
      <g>
       <use xlink:href="#ma4b19ad04e" x="46.965625" y="190.284255" style="stroke: #000000; stroke-width: 0.8"/>
      </g>
     </g>
     <g id="text_10">
      <!-- 20 -->
      <g transform="translate(27.240625 194.083474) scale(0.1 -0.1)">
       <defs>
        <path id="DejaVuSans-32" d="M 1228 531 
L 3431 531 
L 3431 0 
L 469 0 
L 469 531 
Q 828 903 1448 1529 
Q 2069 2156 2228 2338 
Q 2531 2678 2651 2914 
Q 2772 3150 2772 3378 
Q 2772 3750 2511 3984 
Q 2250 4219 1831 4219 
Q 1534 4219 1204 4116 
Q 875 4013 500 3803 
L 500 4441 
Q 881 4594 1212 4672 
Q 1544 4750 1819 4750 
Q 2544 4750 2975 4387 
Q 3406 4025 3406 3419 
Q 3406 3131 3298 2873 
Q 3191 2616 2906 2266 
Q 2828 2175 2409 1742 
Q 1991 1309 1228 531 
z
" transform="scale(0.015625)"/>
       </defs>
       <use xlink:href="#DejaVuSans-32"/>
       <use xlink:href="#DejaVuSans-30" x="63.623047"/>
      </g>
     </g>
    </g>
    <g id="ytick_3">
     <g id="line2d_10">
      <g>
       <use xlink:href="#ma4b19ad04e" x="46.965625" y="161.688511" style="stroke: #000000; stroke-width: 0.8"/>
      </g>
     </g>
     <g id="text_11">
      <!-- 40 -->
      <g transform="translate(27.240625 165.487729) scale(0.1 -0.1)">
       <defs>
        <path id="DejaVuSans-34" d="M 2419 4116 
L 825 1625 
L 2419 1625 
L 2419 4116 
z
M 2253 4666 
L 3047 4666 
L 3047 1625 
L 3713 1625 
L 3713 1100 
L 3047 1100 
L 3047 0 
L 2419 0 
L 2419 1100 
L 313 1100 
L 313 1709 
L 2253 4666 
z
" transform="scale(0.015625)"/>
       </defs>
       <use xlink:href="#DejaVuSans-34"/>
       <use xlink:href="#DejaVuSans-30" x="63.623047"/>
      </g>
     </g>
    </g>
    <g id="ytick_4">
     <g id="line2d_11">
      <g>
       <use xlink:href="#ma4b19ad04e" x="46.965625" y="133.092766" style="stroke: #000000; stroke-width: 0.8"/>
      </g>
     </g>
     <g id="text_12">
      <!-- 60 -->
      <g transform="translate(27.240625 136.891985) scale(0.1 -0.1)">
       <use xlink:href="#DejaVuSans-36"/>
       <use xlink:href="#DejaVuSans-30" x="63.623047"/>
      </g>
     </g>
    </g>
    <g id="ytick_5">
     <g id="line2d_12">
      <g>
       <use xlink:href="#ma4b19ad04e" x="46.965625" y="104.497021" style="stroke: #000000; stroke-width: 0.8"/>
      </g>
     </g>
     <g id="text_13">
      <!-- 80 -->
      <g transform="translate(27.240625 108.29624) scale(0.1 -0.1)">
       <use xlink:href="#DejaVuSans-38"/>
       <use xlink:href="#DejaVuSans-30" x="63.623047"/>
      </g>
     </g>
    </g>
    <g id="ytick_6">
     <g id="line2d_13">
      <g>
       <use xlink:href="#ma4b19ad04e" x="46.965625" y="75.901277" style="stroke: #000000; stroke-width: 0.8"/>
      </g>
     </g>
     <g id="text_14">
      <!-- 100 -->
      <g transform="translate(20.878125 79.700495) scale(0.1 -0.1)">
       <defs>
        <path id="DejaVuSans-31" d="M 794 531 
L 1825 531 
L 1825 4091 
L 703 3866 
L 703 4441 
L 1819 4666 
L 2450 4666 
L 2450 531 
L 3481 531 
L 3481 0 
L 794 0 
L 794 531 
z
" transform="scale(0.015625)"/>
       </defs>
       <use xlink:href="#DejaVuSans-31"/>
       <use xlink:href="#DejaVuSans-30" x="63.623047"/>
       <use xlink:href="#DejaVuSans-30" x="127.246094"/>
      </g>
     </g>
    </g>
    <g id="ytick_7">
     <g id="line2d_14">
      <g>
       <use xlink:href="#ma4b19ad04e" x="46.965625" y="47.305532" style="stroke: #000000; stroke-width: 0.8"/>
      </g>
     </g>
     <g id="text_15">
      <!-- 120 -->
      <g transform="translate(20.878125 51.104751) scale(0.1 -0.1)">
       <use xlink:href="#DejaVuSans-31"/>
       <use xlink:href="#DejaVuSans-32" x="63.623047"/>
       <use xlink:href="#DejaVuSans-30" x="127.246094"/>
      </g>
     </g>
    </g>
    <g id="ytick_8">
     <g id="line2d_15">
      <g>
       <use xlink:href="#ma4b19ad04e" x="46.965625" y="18.709787" style="stroke: #000000; stroke-width: 0.8"/>
      </g>
     </g>
     <g id="text_16">
      <!-- 140 -->
      <g transform="translate(20.878125 22.509006) scale(0.1 -0.1)">
       <use xlink:href="#DejaVuSans-31"/>
       <use xlink:href="#DejaVuSans-34" x="63.623047"/>
       <use xlink:href="#DejaVuSans-30" x="127.246094"/>
      </g>
     </g>
    </g>
    <g id="text_17">
     <!-- [counts] -->
     <g transform="translate(14.798438 138.6925) rotate(-90) scale(0.1 -0.1)">
      <defs>
       <path id="DejaVuSans-63" d="M 3122 3366 
L 3122 2828 
Q 2878 2963 2633 3030 
Q 2388 3097 2138 3097 
Q 1578 3097 1268 2742 
Q 959 2388 959 1747 
Q 959 1106 1268 751 
Q 1578 397 2138 397 
Q 2388 397 2633 464 
Q 2878 531 3122 666 
L 3122 134 
Q 2881 22 2623 -34 
Q 2366 -91 2075 -91 
Q 1284 -91 818 406 
Q 353 903 353 1747 
Q 353 2603 823 3093 
Q 1294 3584 2113 3584 
Q 2378 3584 2631 3529 
Q 2884 3475 3122 3366 
z
" transform="scale(0.015625)"/>
       <path id="DejaVuSans-6f" d="M 1959 3097 
Q 1497 3097 1228 2736 
Q 959 2375 959 1747 
Q 959 1119 1226 758 
Q 1494 397 1959 397 
Q 2419 397 2687 759 
Q 2956 1122 2956 1747 
Q 2956 2369 2687 2733 
Q 2419 3097 1959 3097 
z
M 1959 3584 
Q 2709 3584 3137 3096 
Q 3566 2609 3566 1747 
Q 3566 888 3137 398 
Q 2709 -91 1959 -91 
Q 1206 -91 779 398 
Q 353 888 353 1747 
Q 353 2609 779 3096 
Q 1206 3584 1959 3584 
z
" transform="scale(0.015625)"/>
       <path id="DejaVuSans-75" d="M 544 1381 
L 544 3500 
L 1119 3500 
L 1119 1403 
Q 1119 906 1312 657 
Q 1506 409 1894 409 
Q 2359 409 2629 706 
Q 2900 1003 2900 1516 
L 2900 3500 
L 3475 3500 
L 3475 0 
L 2900 0 
L 2900 538 
Q 2691 219 2414 64 
Q 2138 -91 1772 -91 
Q 1169 -91 856 284 
Q 544 659 544 1381 
z
M 1991 3584 
L 1991 3584 
z
" transform="scale(0.015625)"/>
       <path id="DejaVuSans-73" d="M 2834 3397 
L 2834 2853 
Q 2591 2978 2328 3040 
Q 2066 3103 1784 3103 
Q 1356 3103 1142 2972 
Q 928 2841 928 2578 
Q 928 2378 1081 2264 
Q 1234 2150 1697 2047 
L 1894 2003 
Q 2506 1872 2764 1633 
Q 3022 1394 3022 966 
Q 3022 478 2636 193 
Q 2250 -91 1575 -91 
Q 1294 -91 989 -36 
Q 684 19 347 128 
L 347 722 
Q 666 556 975 473 
Q 1284 391 1588 391 
Q 1994 391 2212 530 
Q 2431 669 2431 922 
Q 2431 1156 2273 1281 
Q 2116 1406 1581 1522 
L 1381 1569 
Q 847 1681 609 1914 
Q 372 2147 372 2553 
Q 372 3047 722 3315 
Q 1072 3584 1716 3584 
Q 2034 3584 2315 3537 
Q 2597 3491 2834 3397 
z
" transform="scale(0.015625)"/>
      </defs>
      <use xlink:href="#DejaVuSans-5b"/>
      <use xlink:href="#DejaVuSans-63" x="39.013672"/>
      <use xlink:href="#DejaVuSans-6f" x="93.994141"/>
      <use xlink:href="#DejaVuSans-75" x="155.175781"/>
      <use xlink:href="#DejaVuSans-6e" x="218.554688"/>
      <use xlink:href="#DejaVuSans-74" x="281.933594"/>
      <use xlink:href="#DejaVuSans-73" x="321.142578"/>
      <use xlink:href="#DejaVuSans-5d" x="373.242188"/>
     </g>
    </g>
   </g>
   <g id="patch_3">
    <path d="M 46.965625 228.96 
L 46.965625 7.2 
" style="fill: none; stroke: #000000; stroke-width: 0.8; stroke-linejoin: miter; stroke-linecap: square"/>
   </g>
   <g id="patch_4">
    <path d="M 381.765625 228.96 
L 381.765625 7.2 
" style="fill: none; stroke: #000000; stroke-width: 0.8; stroke-linejoin: miter; stroke-linecap: square"/>
   </g>
   <g id="patch_5">
    <path d="M 46.965625 228.96 
L 381.765625 228.96 
" style="fill: none; stroke: #000000; stroke-width: 0.8; stroke-linejoin: miter; stroke-linecap: square"/>
   </g>
   <g id="patch_6">
    <path d="M 46.965625 7.2 
L 381.765625 7.2 
" style="fill: none; stroke: #000000; stroke-width: 0.8; stroke-linejoin: miter; stroke-linecap: square"/>
   </g>
   <g id="legend_1">
    <g id="patch_7">
     <path d="M 300.542188 88.590625 
L 374.765625 88.590625 
Q 376.765625 88.590625 376.765625 86.590625 
L 376.765625 14.2 
Q 376.765625 12.2 374.765625 12.2 
L 300.542188 12.2 
Q 298.542188 12.2 298.542188 14.2 
L 298.542188 86.590625 
Q 298.542188 88.590625 300.542188 88.590625 
z
" style="fill: #ffffff; opacity: 0.8; stroke: #cccccc; stroke-linejoin: miter"/>
    </g>
    <g id="line2d_16">
     <path d="M 302.542188 20.298437 
L 302.542188 20.298437 
L 312.542188 20.298437 
L 312.542188 20.298437 
L 322.542188 20.298437 
" style="fill: none; stroke: #1f77b4; stroke-width: 1.5; stroke-linecap: square"/>
    </g>
    <g id="text_18">
     <!-- beam -->
     <g transform="translate(330.542188 23.798437) scale(0.1 -0.1)">
      <defs>
       <path id="DejaVuSans-62" d="M 3116 1747 
Q 3116 2381 2855 2742 
Q 2594 3103 2138 3103 
Q 1681 3103 1420 2742 
Q 1159 2381 1159 1747 
Q 1159 1113 1420 752 
Q 1681 391 2138 391 
Q 2594 391 2855 752 
Q 3116 1113 3116 1747 
z
M 1159 2969 
Q 1341 3281 1617 3432 
Q 1894 3584 2278 3584 
Q 2916 3584 3314 3078 
Q 3713 2572 3713 1747 
Q 3713 922 3314 415 
Q 2916 -91 2278 -91 
Q 1894 -91 1617 61 
Q 1341 213 1159 525 
L 1159 0 
L 581 0 
L 581 4863 
L 1159 4863 
L 1159 2969 
z
" transform="scale(0.015625)"/>
       <path id="DejaVuSans-6d" d="M 3328 2828 
Q 3544 3216 3844 3400 
Q 4144 3584 4550 3584 
Q 5097 3584 5394 3201 
Q 5691 2819 5691 2113 
L 5691 0 
L 5113 0 
L 5113 2094 
Q 5113 2597 4934 2840 
Q 4756 3084 4391 3084 
Q 3944 3084 3684 2787 
Q 3425 2491 3425 1978 
L 3425 0 
L 2847 0 
L 2847 2094 
Q 2847 2600 2669 2842 
Q 2491 3084 2119 3084 
Q 1678 3084 1418 2786 
Q 1159 2488 1159 1978 
L 1159 0 
L 581 0 
L 581 3500 
L 1159 3500 
L 1159 2956 
Q 1356 3278 1631 3431 
Q 1906 3584 2284 3584 
Q 2666 3584 2933 3390 
Q 3200 3197 3328 2828 
z
" transform="scale(0.015625)"/>
      </defs>
      <use xlink:href="#DejaVuSans-62"/>
      <use xlink:href="#DejaVuSans-65" x="63.476562"/>
      <use xlink:href="#DejaVuSans-61" x="125"/>
      <use xlink:href="#DejaVuSans-6d" x="186.279297"/>
     </g>
    </g>
    <g id="line2d_17">
     <path d="M 302.542188 34.976562 
L 302.542188 34.976562 
L 312.542188 34.976562 
L 312.542188 34.976562 
L 322.542188 34.976562 
" style="fill: none; stroke: #ff7f0e; stroke-width: 1.5; stroke-linecap: square"/>
    </g>
    <g id="text_19">
     <!-- sample -->
     <g transform="translate(330.542188 38.476562) scale(0.1 -0.1)">
      <defs>
       <path id="DejaVuSans-70" d="M 1159 525 
L 1159 -1331 
L 581 -1331 
L 581 3500 
L 1159 3500 
L 1159 2969 
Q 1341 3281 1617 3432 
Q 1894 3584 2278 3584 
Q 2916 3584 3314 3078 
Q 3713 2572 3713 1747 
Q 3713 922 3314 415 
Q 2916 -91 2278 -91 
Q 1894 -91 1617 61 
Q 1341 213 1159 525 
z
M 3116 1747 
Q 3116 2381 2855 2742 
Q 2594 3103 2138 3103 
Q 1681 3103 1420 2742 
Q 1159 2381 1159 1747 
Q 1159 1113 1420 752 
Q 1681 391 2138 391 
Q 2594 391 2855 752 
Q 3116 1113 3116 1747 
z
" transform="scale(0.015625)"/>
      </defs>
      <use xlink:href="#DejaVuSans-73"/>
      <use xlink:href="#DejaVuSans-61" x="52.099609"/>
      <use xlink:href="#DejaVuSans-6d" x="113.378906"/>
      <use xlink:href="#DejaVuSans-70" x="210.791016"/>
      <use xlink:href="#DejaVuSans-6c" x="274.267578"/>
      <use xlink:href="#DejaVuSans-65" x="302.050781"/>
     </g>
    </g>
    <g id="line2d_18">
     <path d="M 302.542188 49.654687 
L 302.542188 49.654687 
L 312.542188 49.654687 
L 312.542188 49.654687 
L 322.542188 49.654687 
" style="fill: none; stroke: #2ca02c; stroke-width: 1.5; stroke-linecap: square"/>
    </g>
    <g id="text_20">
     <!-- monitor -->
     <g transform="translate(330.542188 53.154687) scale(0.1 -0.1)">
      <defs>
       <path id="DejaVuSans-69" d="M 603 3500 
L 1178 3500 
L 1178 0 
L 603 0 
L 603 3500 
z
M 603 4863 
L 1178 4863 
L 1178 4134 
L 603 4134 
L 603 4863 
z
" transform="scale(0.015625)"/>
       <path id="DejaVuSans-72" d="M 2631 2963 
Q 2534 3019 2420 3045 
Q 2306 3072 2169 3072 
Q 1681 3072 1420 2755 
Q 1159 2438 1159 1844 
L 1159 0 
L 581 0 
L 581 3500 
L 1159 3500 
L 1159 2956 
Q 1341 3275 1631 3429 
Q 1922 3584 2338 3584 
Q 2397 3584 2469 3576 
Q 2541 3569 2628 3553 
L 2631 2963 
z
" transform="scale(0.015625)"/>
      </defs>
      <use xlink:href="#DejaVuSans-6d"/>
      <use xlink:href="#DejaVuSans-6f" x="97.412109"/>
      <use xlink:href="#DejaVuSans-6e" x="158.59375"/>
      <use xlink:href="#DejaVuSans-69" x="221.972656"/>
      <use xlink:href="#DejaVuSans-74" x="249.755859"/>
      <use xlink:href="#DejaVuSans-6f" x="288.964844"/>
      <use xlink:href="#DejaVuSans-72" x="350.146484"/>
     </g>
    </g>
    <g id="line2d_19">
     <path d="M 302.542188 64.332812 
L 302.542188 64.332812 
L 312.542188 64.332812 
L 312.542188 64.332812 
L 322.542188 64.332812 
" style="fill: none; stroke: #d62728; stroke-width: 1.5; stroke-linecap: square"/>
    </g>
    <g id="text_21">
     <!-- detector -->
     <g transform="translate(330.542188 67.832812) scale(0.1 -0.1)">
      <defs>
       <path id="DejaVuSans-64" d="M 2906 2969 
L 2906 4863 
L 3481 4863 
L 3481 0 
L 2906 0 
L 2906 525 
Q 2725 213 2448 61 
Q 2172 -91 1784 -91 
Q 1150 -91 751 415 
Q 353 922 353 1747 
Q 353 2572 751 3078 
Q 1150 3584 1784 3584 
Q 2172 3584 2448 3432 
Q 2725 3281 2906 2969 
z
M 947 1747 
Q 947 1113 1208 752 
Q 1469 391 1925 391 
Q 2381 391 2643 752 
Q 2906 1113 2906 1747 
Q 2906 2381 2643 2742 
Q 2381 3103 1925 3103 
Q 1469 3103 1208 2742 
Q 947 2381 947 1747 
z
" transform="scale(0.015625)"/>
      </defs>
      <use xlink:href="#DejaVuSans-64"/>
      <use xlink:href="#DejaVuSans-65" x="63.476562"/>
      <use xlink:href="#DejaVuSans-74" x="125"/>
      <use xlink:href="#DejaVuSans-65" x="164.208984"/>
      <use xlink:href="#DejaVuSans-63" x="225.732422"/>
      <use xlink:href="#DejaVuSans-74" x="280.712891"/>
      <use xlink:href="#DejaVuSans-6f" x="319.921875"/>
      <use xlink:href="#DejaVuSans-72" x="381.103516"/>
     </g>
    </g>
    <g id="line2d_20">
     <path d="M 302.542188 79.010937 
L 302.542188 79.010937 
L 312.542188 79.010937 
L 312.542188 79.010937 
L 322.542188 79.010937 
" style="fill: none; stroke: #9467bd; stroke-width: 1.5; stroke-linecap: square"/>
    </g>
    <g id="text_22">
     <!-- true -->
     <g transform="translate(330.542188 82.510937) scale(0.1 -0.1)">
      <use xlink:href="#DejaVuSans-74"/>
      <use xlink:href="#DejaVuSans-72" x="39.208984"/>
      <use xlink:href="#DejaVuSans-75" x="80.322266"/>
      <use xlink:href="#DejaVuSans-65" x="143.701172"/>
     </g>
    </g>
   </g>
   <g id="line2d_21">
    <path d="M 62.183807 218.88 
L 77.401989 218.88 
L 77.401989 217.450213 
L 80.445625 217.450213 
L 80.445625 216.020426 
L 83.489261 216.020426 
L 83.489261 217.450213 
L 86.532898 217.450213 
L 86.532898 218.88 
L 89.576534 218.88 
L 89.576534 214.590638 
L 92.62017 214.590638 
L 92.62017 216.020426 
L 98.707443 216.020426 
L 98.707443 214.590638 
L 101.75108 214.590638 
L 101.75108 211.731064 
L 116.969261 211.731064 
L 116.969261 206.011915 
L 120.012898 206.011915 
L 120.012898 203.15234 
L 123.056534 203.15234 
L 123.056534 207.441702 
L 126.10017 207.441702 
L 126.10017 204.582128 
L 129.143807 204.582128 
L 129.143807 188.854468 
L 132.187443 188.854468 
L 132.187443 196.003404 
L 135.23108 196.003404 
L 135.23108 191.714043 
L 138.274716 191.714043 
L 138.274716 173.126809 
L 141.318352 173.126809 
L 141.318352 164.548085 
L 144.361989 164.548085 
L 144.361989 168.837447 
L 147.405625 168.837447 
L 147.405625 130.233191 
L 150.449261 130.233191 
L 150.449261 135.95234 
L 153.492898 135.95234 
L 153.492898 123.084255 
L 156.536534 123.084255 
L 156.536534 114.505532 
L 159.58017 114.505532 
L 159.58017 97.348085 
L 162.623807 97.348085 
L 162.623807 95.918298 
L 165.667443 95.918298 
L 165.667443 83.050213 
L 168.71108 83.050213 
L 168.71108 77.331064 
L 171.754716 77.331064 
L 171.754716 34.437447 
L 174.798352 34.437447 
L 174.798352 51.594894 
L 177.841989 51.594894 
L 177.841989 47.305532 
L 180.885625 47.305532 
L 180.885625 30.148085 
L 183.929261 30.148085 
L 183.929261 40.156596 
L 186.972898 40.156596 
L 186.972898 64.462979 
L 190.016534 64.462979 
L 190.016534 40.156596 
L 193.06017 40.156596 
L 193.06017 47.305532 
L 199.147443 47.305532 
L 199.147443 74.471489 
L 202.19108 74.471489 
L 202.19108 61.603404 
L 205.234716 61.603404 
L 205.234716 50.165106 
L 208.278352 50.165106 
L 208.278352 74.471489 
L 211.321989 74.471489 
L 211.321989 51.594894 
L 214.365625 51.594894 
L 214.365625 74.471489 
L 217.409261 74.471489 
L 217.409261 91.628936 
L 220.452898 91.628936 
L 220.452898 71.611915 
L 223.496534 71.611915 
L 223.496534 77.331064 
L 226.54017 77.331064 
L 226.54017 74.471489 
L 229.583807 74.471489 
L 229.583807 78.760851 
L 232.627443 78.760851 
L 232.627443 64.462979 
L 235.67108 64.462979 
L 235.67108 53.024681 
L 238.714716 53.024681 
L 238.714716 95.918298 
L 241.758352 95.918298 
L 241.758352 101.637447 
L 247.845625 101.637447 
L 247.845625 84.48 
L 250.889261 84.48 
L 250.889261 110.21617 
L 253.932898 110.21617 
L 253.932898 94.488511 
L 256.976534 94.488511 
L 256.976534 81.620426 
L 260.02017 81.620426 
L 260.02017 104.497021 
L 263.063807 104.497021 
L 263.063807 103.067234 
L 266.107443 103.067234 
L 266.107443 104.497021 
L 269.15108 104.497021 
L 269.15108 143.101277 
L 272.194716 143.101277 
L 272.194716 111.645957 
L 275.238352 111.645957 
L 275.238352 95.918298 
L 278.281989 95.918298 
L 278.281989 128.803404 
L 281.325625 128.803404 
L 281.325625 121.654468 
L 284.369261 121.654468 
L 284.369261 138.811915 
L 287.412898 138.811915 
L 287.412898 153.109787 
L 290.456534 153.109787 
L 290.456534 155.969362 
L 293.50017 155.969362 
L 293.50017 161.688511 
L 296.543807 161.688511 
L 296.543807 163.118298 
L 299.587443 163.118298 
L 299.587443 181.705532 
L 302.63108 181.705532 
L 302.63108 175.986383 
L 305.674716 175.986383 
L 305.674716 187.424681 
L 308.718352 187.424681 
L 308.718352 206.011915 
L 311.761989 206.011915 
L 311.761989 203.15234 
L 314.805625 203.15234 
L 314.805625 194.573617 
L 317.849261 194.573617 
L 317.849261 206.011915 
L 320.892898 206.011915 
L 320.892898 210.301277 
L 326.98017 210.301277 
L 326.98017 217.450213 
L 336.11108 217.450213 
L 336.11108 218.88 
L 366.547443 218.88 
L 366.547443 218.88 
" clip-path="url(#paa103fb636)" style="fill: none; stroke: #1f77b4; stroke-width: 1.5; stroke-linecap: square"/>
   </g>
   <g id="line2d_22">
    <path d="M 62.183807 218.88 
L 83.489261 218.88 
L 83.489261 214.590638 
L 86.532898 214.590638 
L 86.532898 217.450213 
L 92.62017 217.450213 
L 92.62017 213.160851 
L 95.663807 213.160851 
L 95.663807 217.450213 
L 101.75108 217.450213 
L 101.75108 210.301277 
L 107.838352 210.301277 
L 107.838352 213.160851 
L 110.881989 213.160851 
L 110.881989 210.301277 
L 116.969261 210.301277 
L 116.969261 213.160851 
L 120.012898 213.160851 
L 120.012898 210.301277 
L 123.056534 210.301277 
L 123.056534 208.871489 
L 126.10017 208.871489 
L 126.10017 201.722553 
L 129.143807 201.722553 
L 129.143807 197.433191 
L 132.187443 197.433191 
L 132.187443 196.003404 
L 135.23108 196.003404 
L 135.23108 198.862979 
L 138.274716 198.862979 
L 138.274716 181.705532 
L 141.318352 181.705532 
L 141.318352 173.126809 
L 144.361989 173.126809 
L 144.361989 175.986383 
L 147.405625 175.986383 
L 147.405625 145.960851 
L 150.449261 145.960851 
L 150.449261 150.250213 
L 153.492898 150.250213 
L 153.492898 138.811915 
L 156.536534 138.811915 
L 156.536534 91.628936 
L 159.58017 91.628936 
L 159.58017 100.20766 
L 162.623807 100.20766 
L 162.623807 81.620426 
L 165.667443 81.620426 
L 165.667443 80.190638 
L 168.71108 80.190638 
L 168.71108 54.454468 
L 171.754716 54.454468 
L 171.754716 28.718298 
L 174.798352 28.718298 
L 174.798352 58.74383 
L 177.841989 58.74383 
L 177.841989 25.858723 
L 183.929261 25.858723 
L 183.929261 47.305532 
L 186.972898 47.305532 
L 186.972898 53.024681 
L 190.016534 53.024681 
L 190.016534 37.297021 
L 193.06017 37.297021 
L 193.06017 54.454468 
L 196.103807 54.454468 
L 196.103807 47.305532 
L 199.147443 47.305532 
L 199.147443 37.297021 
L 202.19108 37.297021 
L 202.19108 87.339574 
L 205.234716 87.339574 
L 205.234716 81.620426 
L 208.278352 81.620426 
L 208.278352 37.297021 
L 211.321989 37.297021 
L 211.321989 80.190638 
L 214.365625 80.190638 
L 214.365625 70.182128 
L 217.409261 70.182128 
L 217.409261 78.760851 
L 220.452898 78.760851 
L 220.452898 68.75234 
L 223.496534 68.75234 
L 223.496534 84.48 
L 226.54017 84.48 
L 226.54017 63.033191 
L 229.583807 63.033191 
L 229.583807 84.48 
L 232.627443 84.48 
L 232.627443 71.611915 
L 235.67108 71.611915 
L 235.67108 70.182128 
L 238.714716 70.182128 
L 238.714716 101.637447 
L 241.758352 101.637447 
L 241.758352 81.620426 
L 244.801989 81.620426 
L 244.801989 131.662979 
L 247.845625 131.662979 
L 247.845625 77.331064 
L 250.889261 77.331064 
L 250.889261 88.769362 
L 253.932898 88.769362 
L 253.932898 110.21617 
L 256.976534 110.21617 
L 256.976534 70.182128 
L 260.02017 70.182128 
L 260.02017 113.075745 
L 263.063807 113.075745 
L 263.063807 110.21617 
L 266.107443 110.21617 
L 266.107443 113.075745 
L 269.15108 113.075745 
L 269.15108 107.356596 
L 272.194716 107.356596 
L 272.194716 103.067234 
L 275.238352 103.067234 
L 275.238352 117.365106 
L 278.281989 117.365106 
L 278.281989 128.803404 
L 281.325625 128.803404 
L 281.325625 121.654468 
L 284.369261 121.654468 
L 284.369261 137.382128 
L 287.412898 137.382128 
L 287.412898 135.95234 
L 290.456534 135.95234 
L 290.456534 140.241702 
L 293.50017 140.241702 
L 293.50017 147.390638 
L 296.543807 147.390638 
L 296.543807 163.118298 
L 299.587443 163.118298 
L 299.587443 170.267234 
L 302.63108 170.267234 
L 302.63108 185.994894 
L 305.674716 185.994894 
L 305.674716 198.862979 
L 308.718352 198.862979 
L 308.718352 207.441702 
L 311.761989 207.441702 
L 311.761989 188.854468 
L 314.805625 188.854468 
L 314.805625 204.582128 
L 317.849261 204.582128 
L 317.849261 210.301277 
L 320.892898 210.301277 
L 320.892898 214.590638 
L 323.936534 214.590638 
L 323.936534 216.020426 
L 326.98017 216.020426 
L 326.98017 217.450213 
L 330.023807 217.450213 
L 330.023807 218.88 
L 366.547443 218.88 
L 366.547443 218.88 
" clip-path="url(#paa103fb636)" style="fill: none; stroke: #ff7f0e; stroke-width: 1.5; stroke-linecap: square"/>
   </g>
   <g id="line2d_23">
    <path d="M 62.183807 218.88 
L 83.489261 218.88 
L 83.489261 214.590638 
L 86.532898 214.590638 
L 86.532898 217.450213 
L 92.62017 217.450213 
L 92.62017 214.590638 
L 95.663807 214.590638 
L 95.663807 216.020426 
L 98.707443 216.020426 
L 98.707443 217.450213 
L 101.75108 217.450213 
L 101.75108 210.301277 
L 107.838352 210.301277 
L 107.838352 214.590638 
L 110.881989 214.590638 
L 110.881989 208.871489 
L 113.925625 208.871489 
L 113.925625 210.301277 
L 116.969261 210.301277 
L 116.969261 214.590638 
L 120.012898 214.590638 
L 120.012898 211.731064 
L 123.056534 211.731064 
L 123.056534 206.011915 
L 126.10017 206.011915 
L 126.10017 203.15234 
L 129.143807 203.15234 
L 129.143807 196.003404 
L 132.187443 196.003404 
L 132.187443 198.862979 
L 135.23108 198.862979 
L 135.23108 197.433191 
L 138.274716 197.433191 
L 138.274716 181.705532 
L 141.318352 181.705532 
L 141.318352 177.41617 
L 144.361989 177.41617 
L 144.361989 174.556596 
L 147.405625 174.556596 
L 147.405625 148.820426 
L 150.449261 148.820426 
L 150.449261 147.390638 
L 153.492898 147.390638 
L 153.492898 148.820426 
L 156.536534 148.820426 
L 156.536534 88.769362 
L 159.58017 88.769362 
L 159.58017 93.058723 
L 162.623807 93.058723 
L 162.623807 81.620426 
L 165.667443 81.620426 
L 165.667443 75.901277 
L 168.71108 75.901277 
L 168.71108 55.884255 
L 171.754716 55.884255 
L 171.754716 30.148085 
L 174.798352 30.148085 
L 174.798352 60.173617 
L 177.841989 60.173617 
L 177.841989 18.709787 
L 180.885625 18.709787 
L 180.885625 34.437447 
L 183.929261 34.437447 
L 183.929261 47.305532 
L 190.016534 47.305532 
L 190.016534 34.437447 
L 193.06017 34.437447 
L 193.06017 60.173617 
L 196.103807 60.173617 
L 196.103807 41.586383 
L 199.147443 41.586383 
L 199.147443 44.445957 
L 202.19108 44.445957 
L 202.19108 77.331064 
L 205.234716 77.331064 
L 205.234716 84.48 
L 208.278352 84.48 
L 208.278352 47.305532 
L 211.321989 47.305532 
L 211.321989 75.901277 
L 214.365625 75.901277 
L 214.365625 67.322553 
L 217.409261 67.322553 
L 217.409261 65.892766 
L 220.452898 65.892766 
L 220.452898 75.901277 
L 223.496534 75.901277 
L 223.496534 84.48 
L 226.54017 84.48 
L 226.54017 78.760851 
L 229.583807 78.760851 
L 229.583807 73.041702 
L 232.627443 73.041702 
L 232.627443 75.901277 
L 235.67108 75.901277 
L 235.67108 68.75234 
L 238.714716 68.75234 
L 238.714716 100.20766 
L 241.758352 100.20766 
L 241.758352 78.760851 
L 244.801989 78.760851 
L 244.801989 133.092766 
L 247.845625 133.092766 
L 247.845625 88.769362 
L 250.889261 88.769362 
L 250.889261 71.611915 
L 253.932898 71.611915 
L 253.932898 123.084255 
L 256.976534 123.084255 
L 256.976534 67.322553 
L 260.02017 67.322553 
L 260.02017 113.075745 
L 263.063807 113.075745 
L 263.063807 111.645957 
L 266.107443 111.645957 
L 266.107443 107.356596 
L 269.15108 107.356596 
L 269.15108 105.926809 
L 272.194716 105.926809 
L 272.194716 111.645957 
L 275.238352 111.645957 
L 275.238352 113.075745 
L 278.281989 113.075745 
L 278.281989 127.373617 
L 281.325625 127.373617 
L 281.325625 125.94383 
L 284.369261 125.94383 
L 284.369261 131.662979 
L 287.412898 131.662979 
L 287.412898 137.382128 
L 290.456534 137.382128 
L 290.456534 138.811915 
L 293.50017 138.811915 
L 293.50017 147.390638 
L 296.543807 147.390638 
L 296.543807 163.118298 
L 299.587443 163.118298 
L 299.587443 171.697021 
L 302.63108 171.697021 
L 302.63108 185.994894 
L 305.674716 185.994894 
L 305.674716 198.862979 
L 308.718352 198.862979 
L 308.718352 203.15234 
L 311.761989 203.15234 
L 311.761989 193.14383 
L 314.805625 193.14383 
L 314.805625 204.582128 
L 317.849261 204.582128 
L 317.849261 208.871489 
L 320.892898 208.871489 
L 320.892898 214.590638 
L 323.936534 214.590638 
L 323.936534 217.450213 
L 330.023807 217.450213 
L 330.023807 218.88 
L 366.547443 218.88 
L 366.547443 218.88 
" clip-path="url(#paa103fb636)" style="fill: none; stroke: #2ca02c; stroke-width: 1.5; stroke-linecap: square"/>
   </g>
   <g id="line2d_24">
    <path d="M 62.183807 218.88 
L 83.489261 218.88 
L 83.489261 214.590638 
L 86.532898 214.590638 
L 86.532898 218.88 
L 89.576534 218.88 
L 89.576534 216.020426 
L 92.62017 216.020426 
L 92.62017 214.590638 
L 95.663807 214.590638 
L 95.663807 216.020426 
L 98.707443 216.020426 
L 98.707443 217.450213 
L 101.75108 217.450213 
L 101.75108 210.301277 
L 104.794716 210.301277 
L 104.794716 208.871489 
L 107.838352 208.871489 
L 107.838352 216.020426 
L 110.881989 216.020426 
L 110.881989 210.301277 
L 113.925625 210.301277 
L 113.925625 208.871489 
L 116.969261 208.871489 
L 116.969261 214.590638 
L 120.012898 214.590638 
L 120.012898 211.731064 
L 123.056534 211.731064 
L 123.056534 206.011915 
L 129.143807 206.011915 
L 129.143807 196.003404 
L 135.23108 196.003404 
L 135.23108 197.433191 
L 138.274716 197.433191 
L 138.274716 183.135319 
L 141.318352 183.135319 
L 141.318352 173.126809 
L 144.361989 173.126809 
L 144.361989 177.41617 
L 147.405625 177.41617 
L 147.405625 157.399149 
L 150.449261 157.399149 
L 150.449261 140.241702 
L 153.492898 140.241702 
L 153.492898 147.390638 
L 156.536534 147.390638 
L 156.536534 95.918298 
L 159.58017 95.918298 
L 159.58017 91.628936 
L 162.623807 91.628936 
L 162.623807 85.909787 
L 165.667443 85.909787 
L 165.667443 68.75234 
L 168.71108 68.75234 
L 168.71108 53.024681 
L 171.754716 53.024681 
L 171.754716 30.148085 
L 174.798352 30.148085 
L 174.798352 57.314043 
L 177.841989 57.314043 
L 177.841989 17.28 
L 180.885625 17.28 
L 180.885625 45.875745 
L 183.929261 45.875745 
L 183.929261 34.437447 
L 186.972898 34.437447 
L 186.972898 54.454468 
L 190.016534 54.454468 
L 190.016534 35.867234 
L 193.06017 35.867234 
L 193.06017 61.603404 
L 196.103807 61.603404 
L 196.103807 31.577872 
L 199.147443 31.577872 
L 199.147443 55.884255 
L 202.19108 55.884255 
L 202.19108 74.471489 
L 208.278352 74.471489 
L 208.278352 54.454468 
L 211.321989 54.454468 
L 211.321989 75.901277 
L 214.365625 75.901277 
L 214.365625 68.75234 
L 217.409261 68.75234 
L 217.409261 65.892766 
L 220.452898 65.892766 
L 220.452898 74.471489 
L 223.496534 74.471489 
L 223.496534 88.769362 
L 226.54017 88.769362 
L 226.54017 78.760851 
L 229.583807 78.760851 
L 229.583807 64.462979 
L 232.627443 64.462979 
L 232.627443 78.760851 
L 235.67108 78.760851 
L 235.67108 71.611915 
L 238.714716 71.611915 
L 238.714716 103.067234 
L 241.758352 103.067234 
L 241.758352 75.901277 
L 244.801989 75.901277 
L 244.801989 128.803404 
L 247.845625 128.803404 
L 247.845625 95.918298 
L 250.889261 95.918298 
L 250.889261 70.182128 
L 253.932898 70.182128 
L 253.932898 118.794894 
L 256.976534 118.794894 
L 256.976534 77.331064 
L 260.02017 77.331064 
L 260.02017 113.075745 
L 263.063807 113.075745 
L 263.063807 100.20766 
L 266.107443 100.20766 
L 266.107443 107.356596 
L 269.15108 107.356596 
L 269.15108 110.21617 
L 272.194716 110.21617 
L 272.194716 115.935319 
L 275.238352 115.935319 
L 275.238352 108.786383 
L 278.281989 108.786383 
L 278.281989 121.654468 
L 281.325625 121.654468 
L 281.325625 130.233191 
L 284.369261 130.233191 
L 284.369261 134.522553 
L 287.412898 134.522553 
L 287.412898 131.662979 
L 290.456534 131.662979 
L 290.456534 138.811915 
L 293.50017 138.811915 
L 293.50017 151.68 
L 296.543807 151.68 
L 296.543807 158.828936 
L 299.587443 158.828936 
L 299.587443 177.41617 
L 302.63108 177.41617 
L 302.63108 180.275745 
L 305.674716 180.275745 
L 305.674716 201.722553 
L 308.718352 201.722553 
L 308.718352 196.003404 
L 311.761989 196.003404 
L 311.761989 198.862979 
L 314.805625 198.862979 
L 314.805625 204.582128 
L 317.849261 204.582128 
L 317.849261 210.301277 
L 320.892898 210.301277 
L 320.892898 214.590638 
L 323.936534 214.590638 
L 323.936534 217.450213 
L 330.023807 217.450213 
L 330.023807 218.88 
L 366.547443 218.88 
L 366.547443 218.88 
" clip-path="url(#paa103fb636)" style="fill: none; stroke: #d62728; stroke-width: 1.5; stroke-linecap: square"/>
   </g>
   <g id="line2d_25">
    <path d="M 62.183807 218.88 
L 83.489261 218.88 
L 83.489261 214.590638 
L 86.532898 214.590638 
L 86.532898 218.88 
L 89.576534 218.88 
L 89.576534 214.590638 
L 92.62017 214.590638 
L 92.62017 216.020426 
L 98.707443 216.020426 
L 98.707443 218.88 
L 101.75108 218.88 
L 101.75108 208.871489 
L 104.794716 208.871489 
L 104.794716 211.731064 
L 107.838352 211.731064 
L 107.838352 213.160851 
L 110.881989 213.160851 
L 110.881989 210.301277 
L 113.925625 210.301277 
L 113.925625 208.871489 
L 116.969261 208.871489 
L 116.969261 216.020426 
L 120.012898 216.020426 
L 120.012898 213.160851 
L 123.056534 213.160851 
L 123.056534 204.582128 
L 126.10017 204.582128 
L 126.10017 206.011915 
L 129.143807 206.011915 
L 129.143807 196.003404 
L 135.23108 196.003404 
L 135.23108 203.15234 
L 138.274716 203.15234 
L 138.274716 180.275745 
L 141.318352 180.275745 
L 141.318352 174.556596 
L 144.361989 174.556596 
L 144.361989 177.41617 
L 147.405625 177.41617 
L 147.405625 163.118298 
L 150.449261 163.118298 
L 150.449261 145.960851 
L 153.492898 145.960851 
L 153.492898 137.382128 
L 156.536534 137.382128 
L 156.536534 105.926809 
L 159.58017 105.926809 
L 159.58017 80.190638 
L 162.623807 80.190638 
L 162.623807 81.620426 
L 165.667443 81.620426 
L 165.667443 77.331064 
L 168.71108 77.331064 
L 168.71108 50.165106 
L 171.754716 50.165106 
L 171.754716 38.726809 
L 174.798352 38.726809 
L 174.798352 41.586383 
L 177.841989 41.586383 
L 177.841989 25.858723 
L 180.885625 25.858723 
L 180.885625 35.867234 
L 183.929261 35.867234 
L 183.929261 34.437447 
L 186.972898 34.437447 
L 186.972898 44.445957 
L 190.016534 44.445957 
L 190.016534 38.726809 
L 193.06017 38.726809 
L 193.06017 74.471489 
L 196.103807 74.471489 
L 196.103807 28.718298 
L 199.147443 28.718298 
L 199.147443 61.603404 
L 202.19108 61.603404 
L 202.19108 65.892766 
L 205.234716 65.892766 
L 205.234716 68.75234 
L 208.278352 68.75234 
L 208.278352 67.322553 
L 211.321989 67.322553 
L 211.321989 65.892766 
L 214.365625 65.892766 
L 214.365625 73.041702 
L 217.409261 73.041702 
L 217.409261 63.033191 
L 220.452898 63.033191 
L 220.452898 80.190638 
L 223.496534 80.190638 
L 223.496534 73.041702 
L 226.54017 73.041702 
L 226.54017 83.050213 
L 229.583807 83.050213 
L 229.583807 67.322553 
L 232.627443 67.322553 
L 232.627443 88.769362 
L 235.67108 88.769362 
L 235.67108 77.331064 
L 238.714716 77.331064 
L 238.714716 88.769362 
L 241.758352 88.769362 
L 241.758352 87.339574 
L 244.801989 87.339574 
L 244.801989 118.794894 
L 247.845625 118.794894 
L 247.845625 98.777872 
L 250.889261 98.777872 
L 250.889261 85.909787 
L 253.932898 85.909787 
L 253.932898 101.637447 
L 256.976534 101.637447 
L 256.976534 83.050213 
L 260.02017 83.050213 
L 260.02017 105.926809 
L 263.063807 105.926809 
L 263.063807 108.786383 
L 266.107443 108.786383 
L 266.107443 104.497021 
L 269.15108 104.497021 
L 269.15108 101.637447 
L 272.194716 101.637447 
L 272.194716 124.514043 
L 275.238352 124.514043 
L 275.238352 107.356596 
L 278.281989 107.356596 
L 278.281989 124.514043 
L 284.369261 124.514043 
L 284.369261 134.522553 
L 287.412898 134.522553 
L 287.412898 130.233191 
L 290.456534 130.233191 
L 290.456534 145.960851 
L 293.50017 145.960851 
L 293.50017 147.390638 
L 296.543807 147.390638 
L 296.543807 151.68 
L 299.587443 151.68 
L 299.587443 183.135319 
L 302.63108 183.135319 
L 302.63108 181.705532 
L 305.674716 181.705532 
L 305.674716 198.862979 
L 308.718352 198.862979 
L 308.718352 191.714043 
L 311.761989 191.714043 
L 311.761989 206.011915 
L 314.805625 206.011915 
L 314.805625 201.722553 
L 317.849261 201.722553 
L 317.849261 211.731064 
L 320.892898 211.731064 
L 320.892898 214.590638 
L 323.936534 214.590638 
L 323.936534 217.450213 
L 326.98017 217.450213 
L 326.98017 218.88 
L 366.547443 218.88 
L 366.547443 218.88 
" clip-path="url(#paa103fb636)" style="fill: none; stroke: #9467bd; stroke-width: 1.5; stroke-linecap: square"/>
   </g>
  </g>
 </g>
 <defs>
  <clipPath id="paa103fb636">
   <rect x="46.965625" y="7.2" width="334.8" height="221.76"/>
  </clipPath>
 </defs>
</svg>
