<?xml version="1.0" encoding="utf-8" standalone="no"?>
<!DOCTYPE svg PUBLIC "-//W3C//DTD SVG 1.1//EN"
  "http://www.w3.org/Graphics/SVG/1.1/DTD/svg11.dtd">
<svg xmlns:xlink="http://www.w3.org/1999/xlink" width="388.965625pt" height="266.51625pt" viewBox="0 0 388.965625 266.51625" xmlns="http://www.w3.org/2000/svg" version="1.1">
 <metadata>
  <rdf:RDF xmlns:dc="http://purl.org/dc/elements/1.1/" xmlns:cc="http://creativecommons.org/ns#" xmlns:rdf="http://www.w3.org/1999/02/22-rdf-syntax-ns#">
   <cc:Work>
    <dc:type rdf:resource="http://purl.org/dc/dcmitype/StillImage"/>
    <dc:date>2025-01-20T13:49:49.263234</dc:date>
    <dc:format>image/svg+xml</dc:format>
    <dc:creator>
     <cc:Agent>
      <dc:title>Matplotlib v3.7.3, https://matplotlib.org/</dc:title>
     </cc:Agent>
    </dc:creator>
   </cc:Work>
  </rdf:RDF>
 </metadata>
 <defs>
  <style type="text/css">*{stroke-linejoin: round; stroke-linecap: butt}</style>
 </defs>
 <g id="figure_1">
  <g id="patch_1">
   <path d="M 0 266.51625 
L 388.965625 266.51625 
L 388.965625 0 
L 0 0 
z
" style="fill: #ffffff"/>
  </g>
  <g id="axes_1">
   <g id="patch_2">
    <path d="M 46.965625 228.96 
L 381.765625 228.96 
L 381.765625 7.2 
L 46.965625 7.2 
z
" style="fill: #ffffff"/>
   </g>
   <g id="matplotlib.axis_1">
    <g id="xtick_1">
     <g id="line2d_1">
      <defs>
       <path id="m406c05ca35" d="M 0 0 
L 0 3.5 
" style="stroke: #000000; stroke-width: 0.8"/>
      </defs>
      <g>
       <use xlink:href="#m406c05ca35" x="79.399351" y="228.96" style="stroke: #000000; stroke-width: 0.8"/>
      </g>
     </g>
     <g id="text_1">
      <!-- 50000 -->
      <g transform="translate(63.493101 243.558437) scale(0.1 -0.1)">
       <defs>
        <path id="DejaVuSans-35" d="M 691 4666 
L 3169 4666 
L 3169 4134 
L 1269 4134 
L 1269 2991 
Q 1406 3038 1543 3061 
Q 1681 3084 1819 3084 
Q 2600 3084 3056 2656 
Q 3513 2228 3513 1497 
Q 3513 744 3044 326 
Q 2575 -91 1722 -91 
Q 1428 -91 1123 -41 
Q 819 9 494 109 
L 494 744 
Q 775 591 1075 516 
Q 1375 441 1709 441 
Q 2250 441 2565 725 
Q 2881 1009 2881 1497 
Q 2881 1984 2565 2268 
Q 2250 2553 1709 2553 
Q 1456 2553 1204 2497 
Q 953 2441 691 2322 
L 691 4666 
z
" transform="scale(0.015625)"/>
        <path id="DejaVuSans-30" d="M 2034 4250 
Q 1547 4250 1301 3770 
Q 1056 3291 1056 2328 
Q 1056 1369 1301 889 
Q 1547 409 2034 409 
Q 2525 409 2770 889 
Q 3016 1369 3016 2328 
Q 3016 3291 2770 3770 
Q 2525 4250 2034 4250 
z
M 2034 4750 
Q 2819 4750 3233 4129 
Q 3647 3509 3647 2328 
Q 3647 1150 3233 529 
Q 2819 -91 2034 -91 
Q 1250 -91 836 529 
Q 422 1150 422 2328 
Q 422 3509 836 4129 
Q 1250 4750 2034 4750 
z
" transform="scale(0.015625)"/>
       </defs>
       <use xlink:href="#DejaVuSans-35"/>
       <use xlink:href="#DejaVuSans-30" x="63.623047"/>
       <use xlink:href="#DejaVuSans-30" x="127.246094"/>
       <use xlink:href="#DejaVuSans-30" x="190.869141"/>
       <use xlink:href="#DejaVuSans-30" x="254.492188"/>
      </g>
     </g>
    </g>
    <g id="xtick_2">
     <g id="line2d_2">
      <g>
       <use xlink:href="#m406c05ca35" x="119.449952" y="228.96" style="stroke: #000000; stroke-width: 0.8"/>
      </g>
     </g>
     <g id="text_2">
      <!-- 75000 -->
      <g transform="translate(103.543702 243.558437) scale(0.1 -0.1)">
       <defs>
        <path id="DejaVuSans-37" d="M 525 4666 
L 3525 4666 
L 3525 4397 
L 1831 0 
L 1172 0 
L 2766 4134 
L 525 4134 
L 525 4666 
z
" transform="scale(0.015625)"/>
       </defs>
       <use xlink:href="#DejaVuSans-37"/>
       <use xlink:href="#DejaVuSans-35" x="63.623047"/>
       <use xlink:href="#DejaVuSans-30" x="127.246094"/>
       <use xlink:href="#DejaVuSans-30" x="190.869141"/>
       <use xlink:href="#DejaVuSans-30" x="254.492188"/>
      </g>
     </g>
    </g>
    <g id="xtick_3">
     <g id="line2d_3">
      <g>
       <use xlink:href="#m406c05ca35" x="159.500553" y="228.96" style="stroke: #000000; stroke-width: 0.8"/>
      </g>
     </g>
     <g id="text_3">
      <!-- 100000 -->
      <g transform="translate(140.413053 243.558437) scale(0.1 -0.1)">
       <defs>
        <path id="DejaVuSans-31" d="M 794 531 
L 1825 531 
L 1825 4091 
L 703 3866 
L 703 4441 
L 1819 4666 
L 2450 4666 
L 2450 531 
L 3481 531 
L 3481 0 
L 794 0 
L 794 531 
z
" transform="scale(0.015625)"/>
       </defs>
       <use xlink:href="#DejaVuSans-31"/>
       <use xlink:href="#DejaVuSans-30" x="63.623047"/>
       <use xlink:href="#DejaVuSans-30" x="127.246094"/>
       <use xlink:href="#DejaVuSans-30" x="190.869141"/>
       <use xlink:href="#DejaVuSans-30" x="254.492188"/>
       <use xlink:href="#DejaVuSans-30" x="318.115234"/>
      </g>
     </g>
    </g>
    <g id="xtick_4">
     <g id="line2d_4">
      <g>
       <use xlink:href="#m406c05ca35" x="199.551153" y="228.96" style="stroke: #000000; stroke-width: 0.8"/>
      </g>
     </g>
     <g id="text_4">
      <!-- 125000 -->
      <g transform="translate(180.463653 243.558437) scale(0.1 -0.1)">
       <defs>
        <path id="DejaVuSans-32" d="M 1228 531 
L 3431 531 
L 3431 0 
L 469 0 
L 469 531 
Q 828 903 1448 1529 
Q 2069 2156 2228 2338 
Q 2531 2678 2651 2914 
Q 2772 3150 2772 3378 
Q 2772 3750 2511 3984 
Q 2250 4219 1831 4219 
Q 1534 4219 1204 4116 
Q 875 4013 500 3803 
L 500 4441 
Q 881 4594 1212 4672 
Q 1544 4750 1819 4750 
Q 2544 4750 2975 4387 
Q 3406 4025 3406 3419 
Q 3406 3131 3298 2873 
Q 3191 2616 2906 2266 
Q 2828 2175 2409 1742 
Q 1991 1309 1228 531 
z
" transform="scale(0.015625)"/>
       </defs>
       <use xlink:href="#DejaVuSans-31"/>
       <use xlink:href="#DejaVuSans-32" x="63.623047"/>
       <use xlink:href="#DejaVuSans-35" x="127.246094"/>
       <use xlink:href="#DejaVuSans-30" x="190.869141"/>
       <use xlink:href="#DejaVuSans-30" x="254.492188"/>
       <use xlink:href="#DejaVuSans-30" x="318.115234"/>
      </g>
     </g>
    </g>
    <g id="xtick_5">
     <g id="line2d_5">
      <g>
       <use xlink:href="#m406c05ca35" x="239.601754" y="228.96" style="stroke: #000000; stroke-width: 0.8"/>
      </g>
     </g>
     <g id="text_5">
      <!-- 150000 -->
      <g transform="translate(220.514254 243.558437) scale(0.1 -0.1)">
       <use xlink:href="#DejaVuSans-31"/>
       <use xlink:href="#DejaVuSans-35" x="63.623047"/>
       <use xlink:href="#DejaVuSans-30" x="127.246094"/>
       <use xlink:href="#DejaVuSans-30" x="190.869141"/>
       <use xlink:href="#DejaVuSans-30" x="254.492188"/>
       <use xlink:href="#DejaVuSans-30" x="318.115234"/>
      </g>
     </g>
    </g>
    <g id="xtick_6">
     <g id="line2d_6">
      <g>
       <use xlink:href="#m406c05ca35" x="279.652355" y="228.96" style="stroke: #000000; stroke-width: 0.8"/>
      </g>
     </g>
     <g id="text_6">
      <!-- 175000 -->
      <g transform="translate(260.564855 243.558437) scale(0.1 -0.1)">
       <use xlink:href="#DejaVuSans-31"/>
       <use xlink:href="#DejaVuSans-37" x="63.623047"/>
       <use xlink:href="#DejaVuSans-35" x="127.246094"/>
       <use xlink:href="#DejaVuSans-30" x="190.869141"/>
       <use xlink:href="#DejaVuSans-30" x="254.492188"/>
       <use xlink:href="#DejaVuSans-30" x="318.115234"/>
      </g>
     </g>
    </g>
    <g id="xtick_7">
     <g id="line2d_7">
      <g>
       <use xlink:href="#m406c05ca35" x="319.702955" y="228.96" style="stroke: #000000; stroke-width: 0.8"/>
      </g>
     </g>
     <g id="text_7">
      <!-- 200000 -->
      <g transform="translate(300.615455 243.558437) scale(0.1 -0.1)">
       <use xlink:href="#DejaVuSans-32"/>
       <use xlink:href="#DejaVuSans-30" x="63.623047"/>
       <use xlink:href="#DejaVuSans-30" x="127.246094"/>
       <use xlink:href="#DejaVuSans-30" x="190.869141"/>
       <use xlink:href="#DejaVuSans-30" x="254.492188"/>
       <use xlink:href="#DejaVuSans-30" x="318.115234"/>
      </g>
     </g>
    </g>
    <g id="xtick_8">
     <g id="line2d_8">
      <g>
       <use xlink:href="#m406c05ca35" x="359.753556" y="228.96" style="stroke: #000000; stroke-width: 0.8"/>
      </g>
     </g>
     <g id="text_8">
      <!-- 225000 -->
      <g transform="translate(340.666056 243.558437) scale(0.1 -0.1)">
       <use xlink:href="#DejaVuSans-32"/>
       <use xlink:href="#DejaVuSans-32" x="63.623047"/>
       <use xlink:href="#DejaVuSans-35" x="127.246094"/>
       <use xlink:href="#DejaVuSans-30" x="190.869141"/>
       <use xlink:href="#DejaVuSans-30" x="254.492188"/>
       <use xlink:href="#DejaVuSans-30" x="318.115234"/>
      </g>
     </g>
    </g>
    <g id="text_9">
     <!-- tof [µs] -->
     <g transform="translate(196.309375 257.236562) scale(0.1 -0.1)">
      <defs>
       <path id="DejaVuSans-74" d="M 1172 4494 
L 1172 3500 
L 2356 3500 
L 2356 3053 
L 1172 3053 
L 1172 1153 
Q 1172 725 1289 603 
Q 1406 481 1766 481 
L 2356 481 
L 2356 0 
L 1766 0 
Q 1100 0 847 248 
Q 594 497 594 1153 
L 594 3053 
L 172 3053 
L 172 3500 
L 594 3500 
L 594 4494 
L 1172 4494 
z
" transform="scale(0.015625)"/>
       <path id="DejaVuSans-6f" d="M 1959 3097 
Q 1497 3097 1228 2736 
Q 959 2375 959 1747 
Q 959 1119 1226 758 
Q 1494 397 1959 397 
Q 2419 397 2687 759 
Q 2956 1122 2956 1747 
Q 2956 2369 2687 2733 
Q 2419 3097 1959 3097 
z
M 1959 3584 
Q 2709 3584 3137 3096 
Q 3566 2609 3566 1747 
Q 3566 888 3137 398 
Q 2709 -91 1959 -91 
Q 1206 -91 779 398 
Q 353 888 353 1747 
Q 353 2609 779 3096 
Q 1206 3584 1959 3584 
z
" transform="scale(0.015625)"/>
       <path id="DejaVuSans-66" d="M 2375 4863 
L 2375 4384 
L 1825 4384 
Q 1516 4384 1395 4259 
Q 1275 4134 1275 3809 
L 1275 3500 
L 2222 3500 
L 2222 3053 
L 1275 3053 
L 1275 0 
L 697 0 
L 697 3053 
L 147 3053 
L 147 3500 
L 697 3500 
L 697 3744 
Q 697 4328 969 4595 
Q 1241 4863 1831 4863 
L 2375 4863 
z
" transform="scale(0.015625)"/>
       <path id="DejaVuSans-20" transform="scale(0.015625)"/>
       <path id="DejaVuSans-5b" d="M 550 4863 
L 1875 4863 
L 1875 4416 
L 1125 4416 
L 1125 -397 
L 1875 -397 
L 1875 -844 
L 550 -844 
L 550 4863 
z
" transform="scale(0.015625)"/>
       <path id="DejaVuSans-b5" d="M 544 -1331 
L 544 3500 
L 1119 3500 
L 1119 1325 
Q 1119 872 1334 640 
Q 1550 409 1972 409 
Q 2434 409 2667 671 
Q 2900 934 2900 1459 
L 2900 3500 
L 3475 3500 
L 3475 806 
Q 3475 619 3529 530 
Q 3584 441 3700 441 
Q 3728 441 3778 458 
Q 3828 475 3916 513 
L 3916 50 
Q 3788 -22 3673 -56 
Q 3559 -91 3450 -91 
Q 3234 -91 3106 31 
Q 2978 153 2931 403 
Q 2775 156 2548 32 
Q 2322 -91 2016 -91 
Q 1697 -91 1473 31 
Q 1250 153 1119 397 
L 1119 -1331 
L 544 -1331 
z
" transform="scale(0.015625)"/>
       <path id="DejaVuSans-73" d="M 2834 3397 
L 2834 2853 
Q 2591 2978 2328 3040 
Q 2066 3103 1784 3103 
Q 1356 3103 1142 2972 
Q 928 2841 928 2578 
Q 928 2378 1081 2264 
Q 1234 2150 1697 2047 
L 1894 2003 
Q 2506 1872 2764 1633 
Q 3022 1394 3022 966 
Q 3022 478 2636 193 
Q 2250 -91 1575 -91 
Q 1294 -91 989 -36 
Q 684 19 347 128 
L 347 722 
Q 666 556 975 473 
Q 1284 391 1588 391 
Q 1994 391 2212 530 
Q 2431 669 2431 922 
Q 2431 1156 2273 1281 
Q 2116 1406 1581 1522 
L 1381 1569 
Q 847 1681 609 1914 
Q 372 2147 372 2553 
Q 372 3047 722 3315 
Q 1072 3584 1716 3584 
Q 2034 3584 2315 3537 
Q 2597 3491 2834 3397 
z
" transform="scale(0.015625)"/>
       <path id="DejaVuSans-5d" d="M 1947 4863 
L 1947 -844 
L 622 -844 
L 622 -397 
L 1369 -397 
L 1369 4416 
L 622 4416 
L 622 4863 
L 1947 4863 
z
" transform="scale(0.015625)"/>
      </defs>
      <use xlink:href="#DejaVuSans-74"/>
      <use xlink:href="#DejaVuSans-6f" x="39.208984"/>
      <use xlink:href="#DejaVuSans-66" x="100.390625"/>
      <use xlink:href="#DejaVuSans-20" x="135.595703"/>
      <use xlink:href="#DejaVuSans-5b" x="167.382812"/>
      <use xlink:href="#DejaVuSans-b5" x="206.396484"/>
      <use xlink:href="#DejaVuSans-73" x="270.019531"/>
      <use xlink:href="#DejaVuSans-5d" x="322.119141"/>
     </g>
    </g>
   </g>
   <g id="matplotlib.axis_2">
    <g id="ytick_1">
     <g id="line2d_9">
      <defs>
       <path id="m1b4daef2ec" d="M 0 0 
L -3.5 0 
" style="stroke: #000000; stroke-width: 0.8"/>
      </defs>
      <g>
       <use xlink:href="#m1b4daef2ec" x="46.965625" y="220.260822" style="stroke: #000000; stroke-width: 0.8"/>
      </g>
     </g>
     <g id="text_10">
      <!-- 0 -->
      <g transform="translate(33.603125 224.060041) scale(0.1 -0.1)">
       <use xlink:href="#DejaVuSans-30"/>
      </g>
     </g>
    </g>
    <g id="ytick_2">
     <g id="line2d_10">
      <g>
       <use xlink:href="#m1b4daef2ec" x="46.965625" y="174.233425" style="stroke: #000000; stroke-width: 0.8"/>
      </g>
     </g>
     <g id="text_11">
      <!-- 100 -->
      <g transform="translate(20.878125 178.032643) scale(0.1 -0.1)">
       <use xlink:href="#DejaVuSans-31"/>
       <use xlink:href="#DejaVuSans-30" x="63.623047"/>
       <use xlink:href="#DejaVuSans-30" x="127.246094"/>
      </g>
     </g>
    </g>
    <g id="ytick_3">
     <g id="line2d_11">
      <g>
       <use xlink:href="#m1b4daef2ec" x="46.965625" y="128.206027" style="stroke: #000000; stroke-width: 0.8"/>
      </g>
     </g>
     <g id="text_12">
      <!-- 200 -->
      <g transform="translate(20.878125 132.005246) scale(0.1 -0.1)">
       <use xlink:href="#DejaVuSans-32"/>
       <use xlink:href="#DejaVuSans-30" x="63.623047"/>
       <use xlink:href="#DejaVuSans-30" x="127.246094"/>
      </g>
     </g>
    </g>
    <g id="ytick_4">
     <g id="line2d_12">
      <g>
       <use xlink:href="#m1b4daef2ec" x="46.965625" y="82.17863" style="stroke: #000000; stroke-width: 0.8"/>
      </g>
     </g>
     <g id="text_13">
      <!-- 300 -->
      <g transform="translate(20.878125 85.977849) scale(0.1 -0.1)">
       <defs>
        <path id="DejaVuSans-33" d="M 2597 2516 
Q 3050 2419 3304 2112 
Q 3559 1806 3559 1356 
Q 3559 666 3084 287 
Q 2609 -91 1734 -91 
Q 1441 -91 1130 -33 
Q 819 25 488 141 
L 488 750 
Q 750 597 1062 519 
Q 1375 441 1716 441 
Q 2309 441 2620 675 
Q 2931 909 2931 1356 
Q 2931 1769 2642 2001 
Q 2353 2234 1838 2234 
L 1294 2234 
L 1294 2753 
L 1863 2753 
Q 2328 2753 2575 2939 
Q 2822 3125 2822 3475 
Q 2822 3834 2567 4026 
Q 2313 4219 1838 4219 
Q 1578 4219 1281 4162 
Q 984 4106 628 3988 
L 628 4550 
Q 988 4650 1302 4700 
Q 1616 4750 1894 4750 
Q 2613 4750 3031 4423 
Q 3450 4097 3450 3541 
Q 3450 3153 3228 2886 
Q 3006 2619 2597 2516 
z
" transform="scale(0.015625)"/>
       </defs>
       <use xlink:href="#DejaVuSans-33"/>
       <use xlink:href="#DejaVuSans-30" x="63.623047"/>
       <use xlink:href="#DejaVuSans-30" x="127.246094"/>
      </g>
     </g>
    </g>
    <g id="ytick_5">
     <g id="line2d_13">
      <g>
       <use xlink:href="#m1b4daef2ec" x="46.965625" y="36.151233" style="stroke: #000000; stroke-width: 0.8"/>
      </g>
     </g>
     <g id="text_14">
      <!-- 400 -->
      <g transform="translate(20.878125 39.950452) scale(0.1 -0.1)">
       <defs>
        <path id="DejaVuSans-34" d="M 2419 4116 
L 825 1625 
L 2419 1625 
L 2419 4116 
z
M 2253 4666 
L 3047 4666 
L 3047 1625 
L 3713 1625 
L 3713 1100 
L 3047 1100 
L 3047 0 
L 2419 0 
L 2419 1100 
L 313 1100 
L 313 1709 
L 2253 4666 
z
" transform="scale(0.015625)"/>
       </defs>
       <use xlink:href="#DejaVuSans-34"/>
       <use xlink:href="#DejaVuSans-30" x="63.623047"/>
       <use xlink:href="#DejaVuSans-30" x="127.246094"/>
      </g>
     </g>
    </g>
    <g id="text_15">
     <!-- [counts] -->
     <g transform="translate(14.798438 138.6925) rotate(-90) scale(0.1 -0.1)">
      <defs>
       <path id="DejaVuSans-63" d="M 3122 3366 
L 3122 2828 
Q 2878 2963 2633 3030 
Q 2388 3097 2138 3097 
Q 1578 3097 1268 2742 
Q 959 2388 959 1747 
Q 959 1106 1268 751 
Q 1578 397 2138 397 
Q 2388 397 2633 464 
Q 2878 531 3122 666 
L 3122 134 
Q 2881 22 2623 -34 
Q 2366 -91 2075 -91 
Q 1284 -91 818 406 
Q 353 903 353 1747 
Q 353 2603 823 3093 
Q 1294 3584 2113 3584 
Q 2378 3584 2631 3529 
Q 2884 3475 3122 3366 
z
" transform="scale(0.015625)"/>
       <path id="DejaVuSans-75" d="M 544 1381 
L 544 3500 
L 1119 3500 
L 1119 1403 
Q 1119 906 1312 657 
Q 1506 409 1894 409 
Q 2359 409 2629 706 
Q 2900 1003 2900 1516 
L 2900 3500 
L 3475 3500 
L 3475 0 
L 2900 0 
L 2900 538 
Q 2691 219 2414 64 
Q 2138 -91 1772 -91 
Q 1169 -91 856 284 
Q 544 659 544 1381 
z
M 1991 3584 
L 1991 3584 
z
" transform="scale(0.015625)"/>
       <path id="DejaVuSans-6e" d="M 3513 2113 
L 3513 0 
L 2938 0 
L 2938 2094 
Q 2938 2591 2744 2837 
Q 2550 3084 2163 3084 
Q 1697 3084 1428 2787 
Q 1159 2491 1159 1978 
L 1159 0 
L 581 0 
L 581 3500 
L 1159 3500 
L 1159 2956 
Q 1366 3272 1645 3428 
Q 1925 3584 2291 3584 
Q 2894 3584 3203 3211 
Q 3513 2838 3513 2113 
z
" transform="scale(0.015625)"/>
      </defs>
      <use xlink:href="#DejaVuSans-5b"/>
      <use xlink:href="#DejaVuSans-63" x="39.013672"/>
      <use xlink:href="#DejaVuSans-6f" x="93.994141"/>
      <use xlink:href="#DejaVuSans-75" x="155.175781"/>
      <use xlink:href="#DejaVuSans-6e" x="218.554688"/>
      <use xlink:href="#DejaVuSans-74" x="281.933594"/>
      <use xlink:href="#DejaVuSans-73" x="321.142578"/>
      <use xlink:href="#DejaVuSans-5d" x="373.242188"/>
     </g>
    </g>
   </g>
   <g id="patch_3">
    <path d="M 46.965625 228.96 
L 46.965625 7.2 
" style="fill: none; stroke: #000000; stroke-width: 0.8; stroke-linejoin: miter; stroke-linecap: square"/>
   </g>
   <g id="patch_4">
    <path d="M 381.765625 228.96 
L 381.765625 7.2 
" style="fill: none; stroke: #000000; stroke-width: 0.8; stroke-linejoin: miter; stroke-linecap: square"/>
   </g>
   <g id="patch_5">
    <path d="M 46.965625 228.96 
L 381.765625 228.96 
" style="fill: none; stroke: #000000; stroke-width: 0.8; stroke-linejoin: miter; stroke-linecap: square"/>
   </g>
   <g id="patch_6">
    <path d="M 46.965625 7.2 
L 381.765625 7.2 
" style="fill: none; stroke: #000000; stroke-width: 0.8; stroke-linejoin: miter; stroke-linecap: square"/>
   </g>
   <g id="legend_1">
    <g id="patch_7">
     <path d="M 300.542188 73.9125 
L 374.765625 73.9125 
Q 376.765625 73.9125 376.765625 71.9125 
L 376.765625 14.2 
Q 376.765625 12.2 374.765625 12.2 
L 300.542188 12.2 
Q 298.542188 12.2 298.542188 14.2 
L 298.542188 71.9125 
Q 298.542188 73.9125 300.542188 73.9125 
z
" style="fill: #ffffff; opacity: 0.8; stroke: #cccccc; stroke-linejoin: miter"/>
    </g>
    <g id="line2d_14">
     <path d="M 302.542188 20.298437 
L 302.542188 20.298437 
L 312.542188 20.298437 
L 312.542188 20.298437 
L 322.542188 20.298437 
" style="fill: none; stroke: #1f77b4; stroke-width: 1.5; stroke-linecap: square"/>
    </g>
    <g id="text_16">
     <!-- beam -->
     <g transform="translate(330.542188 23.798437) scale(0.1 -0.1)">
      <defs>
       <path id="DejaVuSans-62" d="M 3116 1747 
Q 3116 2381 2855 2742 
Q 2594 3103 2138 3103 
Q 1681 3103 1420 2742 
Q 1159 2381 1159 1747 
Q 1159 1113 1420 752 
Q 1681 391 2138 391 
Q 2594 391 2855 752 
Q 3116 1113 3116 1747 
z
M 1159 2969 
Q 1341 3281 1617 3432 
Q 1894 3584 2278 3584 
Q 2916 3584 3314 3078 
Q 3713 2572 3713 1747 
Q 3713 922 3314 415 
Q 2916 -91 2278 -91 
Q 1894 -91 1617 61 
Q 1341 213 1159 525 
L 1159 0 
L 581 0 
L 581 4863 
L 1159 4863 
L 1159 2969 
z
" transform="scale(0.015625)"/>
       <path id="DejaVuSans-65" d="M 3597 1894 
L 3597 1613 
L 953 1613 
Q 991 1019 1311 708 
Q 1631 397 2203 397 
Q 2534 397 2845 478 
Q 3156 559 3463 722 
L 3463 178 
Q 3153 47 2828 -22 
Q 2503 -91 2169 -91 
Q 1331 -91 842 396 
Q 353 884 353 1716 
Q 353 2575 817 3079 
Q 1281 3584 2069 3584 
Q 2775 3584 3186 3129 
Q 3597 2675 3597 1894 
z
M 3022 2063 
Q 3016 2534 2758 2815 
Q 2500 3097 2075 3097 
Q 1594 3097 1305 2825 
Q 1016 2553 972 2059 
L 3022 2063 
z
" transform="scale(0.015625)"/>
       <path id="DejaVuSans-61" d="M 2194 1759 
Q 1497 1759 1228 1600 
Q 959 1441 959 1056 
Q 959 750 1161 570 
Q 1363 391 1709 391 
Q 2188 391 2477 730 
Q 2766 1069 2766 1631 
L 2766 1759 
L 2194 1759 
z
M 3341 1997 
L 3341 0 
L 2766 0 
L 2766 531 
Q 2569 213 2275 61 
Q 1981 -91 1556 -91 
Q 1019 -91 701 211 
Q 384 513 384 1019 
Q 384 1609 779 1909 
Q 1175 2209 1959 2209 
L 2766 2209 
L 2766 2266 
Q 2766 2663 2505 2880 
Q 2244 3097 1772 3097 
Q 1472 3097 1187 3025 
Q 903 2953 641 2809 
L 641 3341 
Q 956 3463 1253 3523 
Q 1550 3584 1831 3584 
Q 2591 3584 2966 3190 
Q 3341 2797 3341 1997 
z
" transform="scale(0.015625)"/>
       <path id="DejaVuSans-6d" d="M 3328 2828 
Q 3544 3216 3844 3400 
Q 4144 3584 4550 3584 
Q 5097 3584 5394 3201 
Q 5691 2819 5691 2113 
L 5691 0 
L 5113 0 
L 5113 2094 
Q 5113 2597 4934 2840 
Q 4756 3084 4391 3084 
Q 3944 3084 3684 2787 
Q 3425 2491 3425 1978 
L 3425 0 
L 2847 0 
L 2847 2094 
Q 2847 2600 2669 2842 
Q 2491 3084 2119 3084 
Q 1678 3084 1418 2786 
Q 1159 2488 1159 1978 
L 1159 0 
L 581 0 
L 581 3500 
L 1159 3500 
L 1159 2956 
Q 1356 3278 1631 3431 
Q 1906 3584 2284 3584 
Q 2666 3584 2933 3390 
Q 3200 3197 3328 2828 
z
" transform="scale(0.015625)"/>
      </defs>
      <use xlink:href="#DejaVuSans-62"/>
      <use xlink:href="#DejaVuSans-65" x="63.476562"/>
      <use xlink:href="#DejaVuSans-61" x="125"/>
      <use xlink:href="#DejaVuSans-6d" x="186.279297"/>
     </g>
    </g>
    <g id="line2d_15">
     <path d="M 302.542188 34.976562 
L 302.542188 34.976562 
L 312.542188 34.976562 
L 312.542188 34.976562 
L 322.542188 34.976562 
" style="fill: none; stroke: #ff7f0e; stroke-width: 1.5; stroke-linecap: square"/>
    </g>
    <g id="text_17">
     <!-- sample -->
     <g transform="translate(330.542188 38.476562) scale(0.1 -0.1)">
      <defs>
       <path id="DejaVuSans-70" d="M 1159 525 
L 1159 -1331 
L 581 -1331 
L 581 3500 
L 1159 3500 
L 1159 2969 
Q 1341 3281 1617 3432 
Q 1894 3584 2278 3584 
Q 2916 3584 3314 3078 
Q 3713 2572 3713 1747 
Q 3713 922 3314 415 
Q 2916 -91 2278 -91 
Q 1894 -91 1617 61 
Q 1341 213 1159 525 
z
M 3116 1747 
Q 3116 2381 2855 2742 
Q 2594 3103 2138 3103 
Q 1681 3103 1420 2742 
Q 1159 2381 1159 1747 
Q 1159 1113 1420 752 
Q 1681 391 2138 391 
Q 2594 391 2855 752 
Q 3116 1113 3116 1747 
z
" transform="scale(0.015625)"/>
       <path id="DejaVuSans-6c" d="M 603 4863 
L 1178 4863 
L 1178 0 
L 603 0 
L 603 4863 
z
" transform="scale(0.015625)"/>
      </defs>
      <use xlink:href="#DejaVuSans-73"/>
      <use xlink:href="#DejaVuSans-61" x="52.099609"/>
      <use xlink:href="#DejaVuSans-6d" x="113.378906"/>
      <use xlink:href="#DejaVuSans-70" x="210.791016"/>
      <use xlink:href="#DejaVuSans-6c" x="274.267578"/>
      <use xlink:href="#DejaVuSans-65" x="302.050781"/>
     </g>
    </g>
    <g id="line2d_16">
     <path d="M 302.542188 49.654687 
L 302.542188 49.654687 
L 312.542188 49.654687 
L 312.542188 49.654687 
L 322.542188 49.654687 
" style="fill: none; stroke: #2ca02c; stroke-width: 1.5; stroke-linecap: square"/>
    </g>
    <g id="text_18">
     <!-- monitor -->
     <g transform="translate(330.542188 53.154687) scale(0.1 -0.1)">
      <defs>
       <path id="DejaVuSans-69" d="M 603 3500 
L 1178 3500 
L 1178 0 
L 603 0 
L 603 3500 
z
M 603 4863 
L 1178 4863 
L 1178 4134 
L 603 4134 
L 603 4863 
z
" transform="scale(0.015625)"/>
       <path id="DejaVuSans-72" d="M 2631 2963 
Q 2534 3019 2420 3045 
Q 2306 3072 2169 3072 
Q 1681 3072 1420 2755 
Q 1159 2438 1159 1844 
L 1159 0 
L 581 0 
L 581 3500 
L 1159 3500 
L 1159 2956 
Q 1341 3275 1631 3429 
Q 1922 3584 2338 3584 
Q 2397 3584 2469 3576 
Q 2541 3569 2628 3553 
L 2631 2963 
z
" transform="scale(0.015625)"/>
      </defs>
      <use xlink:href="#DejaVuSans-6d"/>
      <use xlink:href="#DejaVuSans-6f" x="97.412109"/>
      <use xlink:href="#DejaVuSans-6e" x="158.59375"/>
      <use xlink:href="#DejaVuSans-69" x="221.972656"/>
      <use xlink:href="#DejaVuSans-74" x="249.755859"/>
      <use xlink:href="#DejaVuSans-6f" x="288.964844"/>
      <use xlink:href="#DejaVuSans-72" x="350.146484"/>
     </g>
    </g>
    <g id="line2d_17">
     <path d="M 302.542188 64.332812 
L 302.542188 64.332812 
L 312.542188 64.332812 
L 312.542188 64.332812 
L 322.542188 64.332812 
" style="fill: none; stroke: #d62728; stroke-width: 1.5; stroke-linecap: square"/>
    </g>
    <g id="text_19">
     <!-- detector -->
     <g transform="translate(330.542188 67.832812) scale(0.1 -0.1)">
      <defs>
       <path id="DejaVuSans-64" d="M 2906 2969 
L 2906 4863 
L 3481 4863 
L 3481 0 
L 2906 0 
L 2906 525 
Q 2725 213 2448 61 
Q 2172 -91 1784 -91 
Q 1150 -91 751 415 
Q 353 922 353 1747 
Q 353 2572 751 3078 
Q 1150 3584 1784 3584 
Q 2172 3584 2448 3432 
Q 2725 3281 2906 2969 
z
M 947 1747 
Q 947 1113 1208 752 
Q 1469 391 1925 391 
Q 2381 391 2643 752 
Q 2906 1113 2906 1747 
Q 2906 2381 2643 2742 
Q 2381 3103 1925 3103 
Q 1469 3103 1208 2742 
Q 947 2381 947 1747 
z
" transform="scale(0.015625)"/>
      </defs>
      <use xlink:href="#DejaVuSans-64"/>
      <use xlink:href="#DejaVuSans-65" x="63.476562"/>
      <use xlink:href="#DejaVuSans-74" x="125"/>
      <use xlink:href="#DejaVuSans-65" x="164.208984"/>
      <use xlink:href="#DejaVuSans-63" x="225.732422"/>
      <use xlink:href="#DejaVuSans-74" x="280.712891"/>
      <use xlink:href="#DejaVuSans-6f" x="319.921875"/>
      <use xlink:href="#DejaVuSans-72" x="381.103516"/>
     </g>
    </g>
   </g>
   <g id="line2d_18">
    <path d="M 48.046991 217.499178 
L 48.046991 217.499178 
L 48.848003 217.499178 
L 48.848003 218.88 
L 49.649015 218.88 
L 49.649015 217.499178 
L 50.450027 217.499178 
L 50.450027 216.57863 
L 51.251039 216.57863 
L 51.251039 213.356712 
L 52.052051 213.356712 
L 52.052051 201.849863 
L 52.853063 201.849863 
L 52.853063 198.627945 
L 53.654075 198.627945 
L 53.654075 181.597808 
L 54.455087 181.597808 
L 54.455087 133.729315 
L 55.256099 133.729315 
L 55.256099 104.271781 
L 56.057111 104.271781 
L 56.057111 81.718356 
L 56.858123 81.718356 
L 56.858123 58.244384 
L 57.659135 58.244384 
L 57.659135 17.28 
L 58.460147 17.28 
L 58.460147 45.816986 
L 59.261159 45.816986 
L 59.261159 64.227945 
L 60.062171 64.227945 
L 60.062171 56.863562 
L 60.863183 56.863562 
L 60.863183 68.370411 
L 61.664195 68.370411 
L 61.664195 85.860822 
L 62.465207 85.860822 
L 62.465207 91.38411 
L 63.266219 91.38411 
L 63.266219 91.38411 
L 64.067231 91.38411 
L 64.067231 107.493699 
L 64.868244 107.493699 
L 64.868244 123.603288 
L 65.669256 123.603288 
L 65.669256 151.219726 
L 66.470268 151.219726 
L 66.470268 167.789589 
L 67.27128 167.789589 
L 67.27128 192.644384 
L 68.072292 192.644384 
L 68.072292 205.532055 
L 68.873304 205.532055 
L 68.873304 217.959452 
L 69.674316 217.959452 
" clip-path="url(#peafadbaff5)" style="fill: none; stroke: #1f77b4; stroke-width: 1.5; stroke-linecap: square"/>
   </g>
   <g id="line2d_19">
    <path d="M 146.29512 218.419726 
L 147.096132 218.419726 
L 147.096132 220.260822 
L 147.897144 220.260822 
L 147.897144 219.340274 
L 148.698156 219.340274 
L 148.698156 220.260822 
L 149.499168 220.260822 
L 149.499168 219.800548 
L 151.101192 219.800548 
L 151.101192 218.419726 
L 151.902204 218.419726 
L 151.902204 219.800548 
L 152.703216 219.800548 
L 152.703216 217.959452 
L 153.504228 217.959452 
L 153.504228 219.800548 
L 154.30524 219.800548 
L 154.30524 218.419726 
L 155.106252 218.419726 
L 155.106252 219.340274 
L 155.907264 219.340274 
L 155.907264 218.88 
L 156.708276 218.88 
L 156.708276 216.57863 
L 157.509288 216.57863 
L 157.509288 217.499178 
L 158.3103 217.499178 
L 158.3103 216.118356 
L 159.111312 216.118356 
L 159.111312 212.436164 
L 159.912324 212.436164 
L 159.912324 213.356712 
L 160.713336 213.356712 
L 160.713336 215.658082 
L 161.514348 215.658082 
L 161.514348 213.816986 
L 162.31536 213.816986 
L 162.31536 208.293699 
L 163.116372 208.293699 
L 163.116372 209.214247 
L 163.917384 209.214247 
L 163.917384 207.833425 
L 164.718397 207.833425 
L 164.718397 202.770411 
L 165.519409 202.770411 
L 165.519409 193.104658 
L 166.320421 193.104658 
L 166.320421 191.723836 
L 167.121433 191.723836 
L 167.121433 186.200548 
L 167.922445 186.200548 
L 167.922445 180.216986 
L 168.723457 180.216986 
L 168.723457 176.534795 
L 170.325481 176.534795 
L 170.325481 170.090959 
L 171.126493 170.090959 
L 171.126493 165.027945 
L 171.927505 165.027945 
L 171.927505 163.647123 
L 172.728517 163.647123 
L 172.728517 160.885479 
L 173.529529 160.885479 
L 173.529529 158.123836 
L 174.330541 158.123836 
L 174.330541 158.58411 
L 175.131553 158.58411 
L 175.131553 151.68 
L 175.932565 151.68 
L 175.932565 158.58411 
L 176.733577 158.58411 
L 176.733577 155.822466 
L 177.534589 155.822466 
L 177.534589 160.885479 
L 178.335601 160.885479 
L 178.335601 163.186849 
L 179.136613 163.186849 
L 179.136613 176.074521 
L 179.937625 176.074521 
L 179.937625 165.948493 
L 180.738637 165.948493 
L 180.738637 161.345753 
L 181.539649 161.345753 
L 181.539649 170.551233 
L 182.340661 170.551233 
L 182.340661 168.249863 
L 183.141673 168.249863 
L 183.141673 171.932055 
L 183.942685 171.932055 
L 183.942685 169.170411 
L 184.743697 169.170411 
L 184.743697 163.647123 
L 185.544709 163.647123 
L 185.544709 169.170411 
L 186.345721 169.170411 
L 186.345721 174.233425 
L 187.146733 174.233425 
L 187.146733 177.915616 
L 187.947745 177.915616 
L 187.947745 176.995068 
L 188.748757 176.995068 
L 188.748757 174.233425 
L 189.549769 174.233425 
L 189.549769 178.836164 
L 190.350781 178.836164 
L 190.350781 177.455342 
L 191.151793 177.455342 
L 191.151793 180.216986 
L 191.952805 180.216986 
L 191.952805 178.37589 
L 192.753817 178.37589 
L 192.753817 177.455342 
L 193.554829 177.455342 
L 193.554829 180.67726 
L 194.355841 180.67726 
L 194.355841 180.216986 
L 195.156853 180.216986 
L 195.156853 180.67726 
L 195.957865 180.67726 
L 195.957865 186.660822 
L 196.758877 186.660822 
L 196.758877 184.359452 
L 197.559889 184.359452 
L 197.559889 189.422466 
L 198.360901 189.422466 
L 198.360901 196.786849 
L 199.161913 196.786849 
L 199.161913 191.723836 
L 199.962925 191.723836 
L 199.962925 197.707397 
L 200.763937 197.707397 
L 200.763937 202.310137 
L 201.564949 202.310137 
L 201.564949 200.469041 
L 202.365961 200.469041 
L 202.365961 204.151233 
L 203.166973 204.151233 
L 203.166973 207.373151 
L 203.967985 207.373151 
L 203.967985 212.436164 
L 204.768997 212.436164 
L 204.768997 211.97589 
L 205.570009 211.97589 
L 205.570009 215.658082 
L 206.371021 215.658082 
L 206.371021 216.57863 
L 207.172033 216.57863 
L 207.172033 219.340274 
L 208.774057 219.340274 
L 208.774057 219.340274 
" clip-path="url(#peafadbaff5)" style="fill: none; stroke: #ff7f0e; stroke-width: 1.5; stroke-linecap: square"/>
   </g>
   <g id="line2d_20">
    <path d="M 195.391357 218.419726 
L 196.192369 218.419726 
L 196.192369 220.260822 
L 196.993381 220.260822 
L 196.993381 219.800548 
L 197.794393 219.800548 
L 197.794393 220.260822 
L 198.595405 220.260822 
L 198.595405 219.800548 
L 200.197429 219.800548 
L 200.197429 220.260822 
L 201.799454 220.260822 
L 201.799454 218.88 
L 203.401478 218.88 
L 203.401478 219.800548 
L 204.20249 219.800548 
L 204.20249 218.419726 
L 205.003502 218.419726 
L 205.003502 219.800548 
L 205.804514 219.800548 
L 205.804514 219.340274 
L 206.605526 219.340274 
L 206.605526 218.88 
L 207.406538 218.88 
L 207.406538 219.800548 
L 209.008562 219.800548 
L 209.008562 217.959452 
L 209.809574 217.959452 
L 209.809574 217.038904 
L 210.610586 217.038904 
L 210.610586 217.499178 
L 212.21261 217.499178 
L 212.21261 217.038904 
L 213.013622 217.038904 
L 213.013622 214.27726 
L 214.615646 214.27726 
L 214.615646 216.57863 
L 215.416658 216.57863 
L 215.416658 215.197808 
L 216.21767 215.197808 
L 216.21767 216.118356 
L 217.018682 216.118356 
L 217.018682 210.595068 
L 218.620706 210.595068 
L 218.620706 209.674521 
L 219.421718 209.674521 
L 219.421718 212.896438 
L 220.22273 212.896438 
L 220.22273 204.611507 
L 221.023742 204.611507 
L 221.023742 200.929315 
L 221.824754 200.929315 
L 221.824754 202.770411 
L 222.625766 202.770411 
L 222.625766 191.263562 
L 223.426778 191.263562 
L 223.426778 196.326575 
L 224.22779 196.326575 
L 224.22779 191.723836 
L 225.028802 191.723836 
L 225.028802 185.28 
L 225.829814 185.28 
L 225.829814 188.501918 
L 226.630826 188.501918 
L 226.630826 186.660822 
L 227.431838 186.660822 
L 227.431838 182.97863 
L 228.23285 182.97863 
L 228.23285 185.740274 
L 229.033862 185.740274 
L 229.033862 171.011507 
L 229.834874 171.011507 
L 229.834874 176.534795 
L 230.635886 176.534795 
L 230.635886 177.915616 
L 231.436898 177.915616 
L 231.436898 173.312877 
L 232.23791 173.312877 
L 232.23791 171.471781 
L 233.038922 171.471781 
L 233.038922 173.773151 
L 233.839934 173.773151 
L 233.839934 168.249863 
L 234.640946 168.249863 
L 234.640946 170.551233 
L 235.441958 170.551233 
L 235.441958 180.67726 
L 236.24297 180.67726 
L 236.24297 169.170411 
L 237.043982 169.170411 
L 237.043982 172.392329 
L 237.844994 172.392329 
L 237.844994 179.756712 
L 238.646006 179.756712 
L 238.646006 184.359452 
L 239.447018 184.359452 
L 239.447018 184.819726 
L 240.24803 184.819726 
L 240.24803 176.995068 
L 241.049042 176.995068 
L 241.049042 176.074521 
L 241.850054 176.074521 
L 241.850054 177.915616 
L 242.651066 177.915616 
L 242.651066 188.501918 
L 243.452078 188.501918 
L 243.452078 176.534795 
L 244.25309 176.534795 
L 244.25309 182.518356 
L 245.054102 182.518356 
L 245.054102 190.343014 
L 245.855114 190.343014 
L 245.855114 174.693699 
L 246.656126 174.693699 
L 246.656126 177.455342 
L 247.457138 177.455342 
L 247.457138 186.200548 
L 248.25815 186.200548 
L 248.25815 182.518356 
L 249.059162 182.518356 
L 249.059162 185.28 
L 249.860174 185.28 
L 249.860174 189.88274 
L 250.661186 189.88274 
L 250.661186 185.28 
L 251.462198 185.28 
L 251.462198 188.501918 
L 252.26321 188.501918 
L 252.26321 187.58137 
L 253.064222 187.58137 
L 253.064222 188.501918 
L 253.865234 188.501918 
L 253.865234 188.041644 
L 254.666246 188.041644 
L 254.666246 191.723836 
L 255.467258 191.723836 
L 255.467258 189.422466 
L 256.26827 189.422466 
L 256.26827 185.740274 
L 257.069282 185.740274 
L 257.069282 188.041644 
L 257.870294 188.041644 
L 257.870294 189.422466 
L 258.671306 189.422466 
L 258.671306 192.18411 
L 259.472319 192.18411 
L 259.472319 189.422466 
L 260.273331 189.422466 
L 260.273331 192.18411 
L 261.074343 192.18411 
L 261.074343 193.104658 
L 261.875355 193.104658 
L 261.875355 189.422466 
L 262.676367 189.422466 
L 262.676367 199.548493 
L 263.477379 199.548493 
L 263.477379 194.485479 
L 264.278391 194.485479 
L 264.278391 198.167671 
L 265.079403 198.167671 
L 265.079403 203.230685 
L 265.880415 203.230685 
L 265.880415 200.469041 
L 266.681427 200.469041 
L 266.681427 197.707397 
L 267.482439 197.707397 
L 267.482439 205.992329 
L 268.283451 205.992329 
L 268.283451 207.373151 
L 269.084463 207.373151 
L 269.084463 204.611507 
L 269.885475 204.611507 
L 269.885475 207.833425 
L 270.686487 207.833425 
L 270.686487 208.293699 
L 271.487499 208.293699 
L 271.487499 212.896438 
L 272.288511 212.896438 
L 272.288511 213.816986 
L 273.089523 213.816986 
L 273.089523 213.356712 
L 273.890535 213.356712 
L 273.890535 217.959452 
L 274.691547 217.959452 
L 274.691547 214.737534 
L 275.492559 214.737534 
L 275.492559 217.959452 
L 276.293571 217.959452 
L 276.293571 219.800548 
L 277.094583 219.800548 
L 277.094583 219.340274 
L 277.895595 219.340274 
L 277.895595 219.800548 
L 278.696607 219.800548 
L 278.696607 219.800548 
" clip-path="url(#peafadbaff5)" style="fill: none; stroke: #2ca02c; stroke-width: 1.5; stroke-linecap: square"/>
   </g>
   <g id="line2d_21">
    <path d="M 264.016859 218.88 
L 264.817871 218.88 
L 264.817871 219.800548 
L 265.618883 219.800548 
L 265.618883 220.260822 
L 266.419895 220.260822 
L 266.419895 219.800548 
L 267.220907 219.800548 
L 267.220907 220.260822 
L 268.021919 220.260822 
L 268.021919 219.800548 
L 268.822931 219.800548 
L 268.822931 220.260822 
L 269.623943 220.260822 
L 269.623943 219.800548 
L 270.424955 219.800548 
L 270.424955 220.260822 
L 272.827991 220.260822 
L 272.827991 219.340274 
L 273.629003 219.340274 
L 273.629003 218.88 
L 274.430015 218.88 
L 274.430015 219.800548 
L 276.032039 219.800548 
L 276.032039 218.419726 
L 276.833051 218.419726 
L 276.833051 220.260822 
L 277.634063 220.260822 
L 277.634063 219.800548 
L 278.435075 219.800548 
L 278.435075 219.340274 
L 279.236087 219.340274 
L 279.236087 218.88 
L 280.037099 218.88 
L 280.037099 219.800548 
L 280.838111 219.800548 
L 280.838111 220.260822 
L 281.639123 220.260822 
L 281.639123 219.800548 
L 282.440135 219.800548 
L 282.440135 218.88 
L 283.241147 218.88 
L 283.241147 217.038904 
L 284.042159 217.038904 
L 284.042159 218.88 
L 285.644183 218.88 
L 285.644183 217.499178 
L 287.246207 217.499178 
L 287.246207 217.959452 
L 288.047219 217.959452 
L 288.047219 215.197808 
L 288.848231 215.197808 
L 288.848231 217.038904 
L 289.649243 217.038904 
L 289.649243 216.118356 
L 290.450255 216.118356 
L 290.450255 217.959452 
L 291.251267 217.959452 
L 291.251267 216.57863 
L 292.052279 216.57863 
L 292.052279 216.118356 
L 292.853291 216.118356 
L 292.853291 216.57863 
L 293.654303 216.57863 
L 293.654303 212.436164 
L 294.455315 212.436164 
L 294.455315 211.515616 
L 295.256328 211.515616 
L 295.256328 214.27726 
L 296.05734 214.27726 
L 296.05734 213.816986 
L 296.858352 213.816986 
L 296.858352 212.436164 
L 297.659364 212.436164 
L 297.659364 209.674521 
L 298.460376 209.674521 
L 298.460376 208.753973 
L 299.261388 208.753973 
L 299.261388 204.151233 
L 300.0624 204.151233 
L 300.0624 208.293699 
L 300.863412 208.293699 
L 300.863412 198.627945 
L 301.664424 198.627945 
L 301.664424 201.389589 
L 302.465436 201.389589 
L 302.465436 204.151233 
L 303.266448 204.151233 
L 303.266448 195.406027 
L 304.06746 195.406027 
L 304.06746 197.247123 
L 304.868472 197.247123 
L 304.868472 193.104658 
L 305.669484 193.104658 
L 305.669484 197.707397 
L 306.470496 197.707397 
L 306.470496 193.564932 
L 307.271508 193.564932 
L 307.271508 194.025205 
L 308.07252 194.025205 
L 308.07252 194.485479 
L 308.873532 194.485479 
L 308.873532 187.121096 
L 309.674544 187.121096 
L 309.674544 184.359452 
L 310.475556 184.359452 
L 310.475556 192.18411 
L 311.276568 192.18411 
L 311.276568 182.058082 
L 312.07758 182.058082 
L 312.07758 188.041644 
L 312.878592 188.041644 
L 312.878592 184.359452 
L 313.679604 184.359452 
L 313.679604 187.121096 
L 314.480616 187.121096 
L 314.480616 186.200548 
L 315.281628 186.200548 
L 315.281628 183.438904 
L 316.08264 183.438904 
L 316.08264 186.660822 
L 317.684664 186.660822 
L 317.684664 181.597808 
L 318.485676 181.597808 
L 318.485676 187.121096 
L 319.286688 187.121096 
L 319.286688 183.438904 
L 320.0877 183.438904 
L 320.0877 185.28 
L 320.888712 185.28 
L 320.888712 188.962192 
L 321.689724 188.962192 
L 321.689724 187.58137 
L 322.490736 187.58137 
L 322.490736 192.644384 
L 323.291748 192.644384 
L 323.291748 196.326575 
L 324.09276 196.326575 
L 324.09276 189.422466 
L 324.893772 189.422466 
L 324.893772 188.501918 
L 325.694784 188.501918 
L 325.694784 193.564932 
L 326.495796 193.564932 
L 326.495796 183.438904 
L 327.296808 183.438904 
L 327.296808 189.422466 
L 328.09782 189.422466 
L 328.09782 196.326575 
L 328.898832 196.326575 
L 328.898832 192.18411 
L 329.699844 192.18411 
L 329.699844 194.025205 
L 330.500856 194.025205 
L 330.500856 188.962192 
L 331.301868 188.962192 
L 331.301868 199.088219 
L 332.10288 199.088219 
L 332.10288 185.740274 
L 332.903892 185.740274 
L 332.903892 186.660822 
L 333.704904 186.660822 
L 333.704904 190.803288 
L 334.505916 190.803288 
L 334.505916 195.866301 
L 335.306928 195.866301 
L 335.306928 191.723836 
L 336.10794 191.723836 
L 336.10794 196.786849 
L 336.908952 196.786849 
L 336.908952 194.025205 
L 337.709964 194.025205 
L 337.709964 198.627945 
L 338.510976 198.627945 
L 338.510976 193.564932 
L 339.311988 193.564932 
L 339.311988 197.707397 
L 340.113 197.707397 
L 340.113 194.025205 
L 340.914012 194.025205 
L 340.914012 194.945753 
L 341.715024 194.945753 
L 341.715024 197.247123 
L 342.516036 197.247123 
L 342.516036 197.707397 
L 343.317048 197.707397 
L 343.317048 195.866301 
L 344.11806 195.866301 
L 344.11806 199.088219 
L 344.919072 199.088219 
L 344.919072 198.167671 
L 345.720084 198.167671 
L 345.720084 193.564932 
L 346.521096 193.564932 
L 346.521096 196.326575 
L 348.12312 196.326575 
L 348.12312 196.786849 
L 348.924132 196.786849 
L 348.924132 199.548493 
L 349.725144 199.548493 
L 349.725144 197.707397 
L 350.526156 197.707397 
L 350.526156 198.167671 
L 351.327168 198.167671 
L 351.327168 198.627945 
L 352.12818 198.627945 
L 352.12818 197.247123 
L 352.929193 197.247123 
L 352.929193 203.230685 
L 353.730205 203.230685 
L 353.730205 197.707397 
L 354.531217 197.707397 
L 354.531217 200.929315 
L 355.332229 200.929315 
L 355.332229 205.532055 
L 356.133241 205.532055 
L 356.133241 198.627945 
L 356.934253 198.627945 
L 356.934253 205.071781 
L 357.735265 205.071781 
L 357.735265 203.230685 
L 358.536277 203.230685 
L 358.536277 209.214247 
L 359.337289 209.214247 
L 359.337289 204.151233 
L 360.138301 204.151233 
L 360.138301 203.690959 
L 360.939313 203.690959 
L 360.939313 207.833425 
L 361.740325 207.833425 
L 361.740325 211.055342 
L 362.541337 211.055342 
L 362.541337 210.595068 
L 363.342349 210.595068 
L 363.342349 208.293699 
L 364.143361 208.293699 
L 364.143361 209.674521 
L 364.944373 209.674521 
L 364.944373 211.515616 
L 365.745385 211.515616 
L 365.745385 211.97589 
L 366.546397 211.97589 
L 366.546397 214.27726 
L 367.347409 214.27726 
L 367.347409 213.816986 
L 368.148421 213.816986 
L 368.148421 215.658082 
L 369.750445 215.658082 
L 369.750445 216.57863 
L 370.551457 216.57863 
L 370.551457 218.419726 
L 371.352469 218.419726 
L 371.352469 216.118356 
L 372.153481 216.118356 
L 372.153481 218.419726 
L 372.954493 218.419726 
L 372.954493 220.260822 
L 373.755505 220.260822 
L 373.755505 219.340274 
L 374.556517 219.340274 
L 374.556517 219.800548 
L 376.158541 219.800548 
L 376.158541 219.800548 
" clip-path="url(#peafadbaff5)" style="fill: none; stroke: #d62728; stroke-width: 1.5; stroke-linecap: square"/>
   </g>
  </g>
 </g>
 <defs>
  <clipPath id="peafadbaff5">
   <rect x="46.965625" y="7.2" width="334.8" height="221.76"/>
  </clipPath>
 </defs>
</svg>
