<?xml version="1.0" encoding="utf-8" standalone="no"?>
<!DOCTYPE svg PUBLIC "-//W3C//DTD SVG 1.1//EN"
  "http://www.w3.org/Graphics/SVG/1.1/DTD/svg11.dtd">
<svg xmlns:xlink="http://www.w3.org/1999/xlink" width="395.328125pt" height="266.794375pt" viewBox="0 0 395.328125 266.794375" xmlns="http://www.w3.org/2000/svg" version="1.1">
 <metadata>
  <rdf:RDF xmlns:dc="http://purl.org/dc/elements/1.1/" xmlns:cc="http://creativecommons.org/ns#" xmlns:rdf="http://www.w3.org/1999/02/22-rdf-syntax-ns#">
   <cc:Work>
    <dc:type rdf:resource="http://purl.org/dc/dcmitype/StillImage"/>
    <dc:date>2024-12-12T12:32:15.674950</dc:date>
    <dc:format>image/svg+xml</dc:format>
    <dc:creator>
     <cc:Agent>
      <dc:title>Matplotlib v3.7.3, https://matplotlib.org/</dc:title>
     </cc:Agent>
    </dc:creator>
   </cc:Work>
  </rdf:RDF>
 </metadata>
 <defs>
  <style type="text/css">*{stroke-linejoin: round; stroke-linecap: butt}</style>
 </defs>
 <g id="figure_1">
  <g id="patch_1">
   <path d="M 0 266.794375 
L 395.328125 266.794375 
L 395.328125 0 
L 0 0 
z
" style="fill: #ffffff"/>
  </g>
  <g id="axes_1">
   <g id="patch_2">
    <path d="M 53.328125 228.96 
L 388.128125 228.96 
L 388.128125 7.2 
L 53.328125 7.2 
z
" style="fill: #ffffff"/>
   </g>
   <g id="matplotlib.axis_1">
    <g id="xtick_1">
     <g id="line2d_1">
      <defs>
       <path id="m946caf3478" d="M 0 0 
L 0 3.5 
" style="stroke: #000000; stroke-width: 0.8"/>
      </defs>
      <g>
       <use xlink:href="#m946caf3478" x="94.288142" y="228.96" style="stroke: #000000; stroke-width: 0.8"/>
      </g>
     </g>
     <g id="text_1">
      <!-- 0.02 -->
      <g transform="translate(83.155329 243.558437) scale(0.1 -0.1)">
       <defs>
        <path id="DejaVuSans-30" d="M 2034 4250 
Q 1547 4250 1301 3770 
Q 1056 3291 1056 2328 
Q 1056 1369 1301 889 
Q 1547 409 2034 409 
Q 2525 409 2770 889 
Q 3016 1369 3016 2328 
Q 3016 3291 2770 3770 
Q 2525 4250 2034 4250 
z
M 2034 4750 
Q 2819 4750 3233 4129 
Q 3647 3509 3647 2328 
Q 3647 1150 3233 529 
Q 2819 -91 2034 -91 
Q 1250 -91 836 529 
Q 422 1150 422 2328 
Q 422 3509 836 4129 
Q 1250 4750 2034 4750 
z
" transform="scale(0.015625)"/>
        <path id="DejaVuSans-2e" d="M 684 794 
L 1344 794 
L 1344 0 
L 684 0 
L 684 794 
z
" transform="scale(0.015625)"/>
        <path id="DejaVuSans-32" d="M 1228 531 
L 3431 531 
L 3431 0 
L 469 0 
L 469 531 
Q 828 903 1448 1529 
Q 2069 2156 2228 2338 
Q 2531 2678 2651 2914 
Q 2772 3150 2772 3378 
Q 2772 3750 2511 3984 
Q 2250 4219 1831 4219 
Q 1534 4219 1204 4116 
Q 875 4013 500 3803 
L 500 4441 
Q 881 4594 1212 4672 
Q 1544 4750 1819 4750 
Q 2544 4750 2975 4387 
Q 3406 4025 3406 3419 
Q 3406 3131 3298 2873 
Q 3191 2616 2906 2266 
Q 2828 2175 2409 1742 
Q 1991 1309 1228 531 
z
" transform="scale(0.015625)"/>
       </defs>
       <use xlink:href="#DejaVuSans-30"/>
       <use xlink:href="#DejaVuSans-2e" x="63.623047"/>
       <use xlink:href="#DejaVuSans-30" x="95.410156"/>
       <use xlink:href="#DejaVuSans-32" x="159.033203"/>
      </g>
     </g>
    </g>
    <g id="xtick_2">
     <g id="line2d_2">
      <g>
       <use xlink:href="#m946caf3478" x="159.83422" y="228.96" style="stroke: #000000; stroke-width: 0.8"/>
      </g>
     </g>
     <g id="text_2">
      <!-- 0.03 -->
      <g transform="translate(148.701407 243.558437) scale(0.1 -0.1)">
       <defs>
        <path id="DejaVuSans-33" d="M 2597 2516 
Q 3050 2419 3304 2112 
Q 3559 1806 3559 1356 
Q 3559 666 3084 287 
Q 2609 -91 1734 -91 
Q 1441 -91 1130 -33 
Q 819 25 488 141 
L 488 750 
Q 750 597 1062 519 
Q 1375 441 1716 441 
Q 2309 441 2620 675 
Q 2931 909 2931 1356 
Q 2931 1769 2642 2001 
Q 2353 2234 1838 2234 
L 1294 2234 
L 1294 2753 
L 1863 2753 
Q 2328 2753 2575 2939 
Q 2822 3125 2822 3475 
Q 2822 3834 2567 4026 
Q 2313 4219 1838 4219 
Q 1578 4219 1281 4162 
Q 984 4106 628 3988 
L 628 4550 
Q 988 4650 1302 4700 
Q 1616 4750 1894 4750 
Q 2613 4750 3031 4423 
Q 3450 4097 3450 3541 
Q 3450 3153 3228 2886 
Q 3006 2619 2597 2516 
z
" transform="scale(0.015625)"/>
       </defs>
       <use xlink:href="#DejaVuSans-30"/>
       <use xlink:href="#DejaVuSans-2e" x="63.623047"/>
       <use xlink:href="#DejaVuSans-30" x="95.410156"/>
       <use xlink:href="#DejaVuSans-33" x="159.033203"/>
      </g>
     </g>
    </g>
    <g id="xtick_3">
     <g id="line2d_3">
      <g>
       <use xlink:href="#m946caf3478" x="225.380298" y="228.96" style="stroke: #000000; stroke-width: 0.8"/>
      </g>
     </g>
     <g id="text_3">
      <!-- 0.04 -->
      <g transform="translate(214.247486 243.558437) scale(0.1 -0.1)">
       <defs>
        <path id="DejaVuSans-34" d="M 2419 4116 
L 825 1625 
L 2419 1625 
L 2419 4116 
z
M 2253 4666 
L 3047 4666 
L 3047 1625 
L 3713 1625 
L 3713 1100 
L 3047 1100 
L 3047 0 
L 2419 0 
L 2419 1100 
L 313 1100 
L 313 1709 
L 2253 4666 
z
" transform="scale(0.015625)"/>
       </defs>
       <use xlink:href="#DejaVuSans-30"/>
       <use xlink:href="#DejaVuSans-2e" x="63.623047"/>
       <use xlink:href="#DejaVuSans-30" x="95.410156"/>
       <use xlink:href="#DejaVuSans-34" x="159.033203"/>
      </g>
     </g>
    </g>
    <g id="xtick_4">
     <g id="line2d_4">
      <g>
       <use xlink:href="#m946caf3478" x="290.926377" y="228.96" style="stroke: #000000; stroke-width: 0.8"/>
      </g>
     </g>
     <g id="text_4">
      <!-- 0.05 -->
      <g transform="translate(279.793564 243.558437) scale(0.1 -0.1)">
       <defs>
        <path id="DejaVuSans-35" d="M 691 4666 
L 3169 4666 
L 3169 4134 
L 1269 4134 
L 1269 2991 
Q 1406 3038 1543 3061 
Q 1681 3084 1819 3084 
Q 2600 3084 3056 2656 
Q 3513 2228 3513 1497 
Q 3513 744 3044 326 
Q 2575 -91 1722 -91 
Q 1428 -91 1123 -41 
Q 819 9 494 109 
L 494 744 
Q 775 591 1075 516 
Q 1375 441 1709 441 
Q 2250 441 2565 725 
Q 2881 1009 2881 1497 
Q 2881 1984 2565 2268 
Q 2250 2553 1709 2553 
Q 1456 2553 1204 2497 
Q 953 2441 691 2322 
L 691 4666 
z
" transform="scale(0.015625)"/>
       </defs>
       <use xlink:href="#DejaVuSans-30"/>
       <use xlink:href="#DejaVuSans-2e" x="63.623047"/>
       <use xlink:href="#DejaVuSans-30" x="95.410156"/>
       <use xlink:href="#DejaVuSans-35" x="159.033203"/>
      </g>
     </g>
    </g>
    <g id="xtick_5">
     <g id="line2d_5">
      <g>
       <use xlink:href="#m946caf3478" x="356.472455" y="228.96" style="stroke: #000000; stroke-width: 0.8"/>
      </g>
     </g>
     <g id="text_5">
      <!-- 0.06 -->
      <g transform="translate(345.339642 243.558437) scale(0.1 -0.1)">
       <defs>
        <path id="DejaVuSans-36" d="M 2113 2584 
Q 1688 2584 1439 2293 
Q 1191 2003 1191 1497 
Q 1191 994 1439 701 
Q 1688 409 2113 409 
Q 2538 409 2786 701 
Q 3034 994 3034 1497 
Q 3034 2003 2786 2293 
Q 2538 2584 2113 2584 
z
M 3366 4563 
L 3366 3988 
Q 3128 4100 2886 4159 
Q 2644 4219 2406 4219 
Q 1781 4219 1451 3797 
Q 1122 3375 1075 2522 
Q 1259 2794 1537 2939 
Q 1816 3084 2150 3084 
Q 2853 3084 3261 2657 
Q 3669 2231 3669 1497 
Q 3669 778 3244 343 
Q 2819 -91 2113 -91 
Q 1303 -91 875 529 
Q 447 1150 447 2328 
Q 447 3434 972 4092 
Q 1497 4750 2381 4750 
Q 2619 4750 2861 4703 
Q 3103 4656 3366 4563 
z
" transform="scale(0.015625)"/>
       </defs>
       <use xlink:href="#DejaVuSans-30"/>
       <use xlink:href="#DejaVuSans-2e" x="63.623047"/>
       <use xlink:href="#DejaVuSans-30" x="95.410156"/>
       <use xlink:href="#DejaVuSans-36" x="159.033203"/>
      </g>
     </g>
    </g>
    <g id="text_6">
     <!-- event_time_offset [s] -->
     <g transform="translate(167.874219 257.236562) scale(0.1 -0.1)">
      <defs>
       <path id="DejaVuSans-65" d="M 3597 1894 
L 3597 1613 
L 953 1613 
Q 991 1019 1311 708 
Q 1631 397 2203 397 
Q 2534 397 2845 478 
Q 3156 559 3463 722 
L 3463 178 
Q 3153 47 2828 -22 
Q 2503 -91 2169 -91 
Q 1331 -91 842 396 
Q 353 884 353 1716 
Q 353 2575 817 3079 
Q 1281 3584 2069 3584 
Q 2775 3584 3186 3129 
Q 3597 2675 3597 1894 
z
M 3022 2063 
Q 3016 2534 2758 2815 
Q 2500 3097 2075 3097 
Q 1594 3097 1305 2825 
Q 1016 2553 972 2059 
L 3022 2063 
z
" transform="scale(0.015625)"/>
       <path id="DejaVuSans-76" d="M 191 3500 
L 800 3500 
L 1894 563 
L 2988 3500 
L 3597 3500 
L 2284 0 
L 1503 0 
L 191 3500 
z
" transform="scale(0.015625)"/>
       <path id="DejaVuSans-6e" d="M 3513 2113 
L 3513 0 
L 2938 0 
L 2938 2094 
Q 2938 2591 2744 2837 
Q 2550 3084 2163 3084 
Q 1697 3084 1428 2787 
Q 1159 2491 1159 1978 
L 1159 0 
L 581 0 
L 581 3500 
L 1159 3500 
L 1159 2956 
Q 1366 3272 1645 3428 
Q 1925 3584 2291 3584 
Q 2894 3584 3203 3211 
Q 3513 2838 3513 2113 
z
" transform="scale(0.015625)"/>
       <path id="DejaVuSans-74" d="M 1172 4494 
L 1172 3500 
L 2356 3500 
L 2356 3053 
L 1172 3053 
L 1172 1153 
Q 1172 725 1289 603 
Q 1406 481 1766 481 
L 2356 481 
L 2356 0 
L 1766 0 
Q 1100 0 847 248 
Q 594 497 594 1153 
L 594 3053 
L 172 3053 
L 172 3500 
L 594 3500 
L 594 4494 
L 1172 4494 
z
" transform="scale(0.015625)"/>
       <path id="DejaVuSans-5f" d="M 3263 -1063 
L 3263 -1509 
L -63 -1509 
L -63 -1063 
L 3263 -1063 
z
" transform="scale(0.015625)"/>
       <path id="DejaVuSans-69" d="M 603 3500 
L 1178 3500 
L 1178 0 
L 603 0 
L 603 3500 
z
M 603 4863 
L 1178 4863 
L 1178 4134 
L 603 4134 
L 603 4863 
z
" transform="scale(0.015625)"/>
       <path id="DejaVuSans-6d" d="M 3328 2828 
Q 3544 3216 3844 3400 
Q 4144 3584 4550 3584 
Q 5097 3584 5394 3201 
Q 5691 2819 5691 2113 
L 5691 0 
L 5113 0 
L 5113 2094 
Q 5113 2597 4934 2840 
Q 4756 3084 4391 3084 
Q 3944 3084 3684 2787 
Q 3425 2491 3425 1978 
L 3425 0 
L 2847 0 
L 2847 2094 
Q 2847 2600 2669 2842 
Q 2491 3084 2119 3084 
Q 1678 3084 1418 2786 
Q 1159 2488 1159 1978 
L 1159 0 
L 581 0 
L 581 3500 
L 1159 3500 
L 1159 2956 
Q 1356 3278 1631 3431 
Q 1906 3584 2284 3584 
Q 2666 3584 2933 3390 
Q 3200 3197 3328 2828 
z
" transform="scale(0.015625)"/>
       <path id="DejaVuSans-6f" d="M 1959 3097 
Q 1497 3097 1228 2736 
Q 959 2375 959 1747 
Q 959 1119 1226 758 
Q 1494 397 1959 397 
Q 2419 397 2687 759 
Q 2956 1122 2956 1747 
Q 2956 2369 2687 2733 
Q 2419 3097 1959 3097 
z
M 1959 3584 
Q 2709 3584 3137 3096 
Q 3566 2609 3566 1747 
Q 3566 888 3137 398 
Q 2709 -91 1959 -91 
Q 1206 -91 779 398 
Q 353 888 353 1747 
Q 353 2609 779 3096 
Q 1206 3584 1959 3584 
z
" transform="scale(0.015625)"/>
       <path id="DejaVuSans-66" d="M 2375 4863 
L 2375 4384 
L 1825 4384 
Q 1516 4384 1395 4259 
Q 1275 4134 1275 3809 
L 1275 3500 
L 2222 3500 
L 2222 3053 
L 1275 3053 
L 1275 0 
L 697 0 
L 697 3053 
L 147 3053 
L 147 3500 
L 697 3500 
L 697 3744 
Q 697 4328 969 4595 
Q 1241 4863 1831 4863 
L 2375 4863 
z
" transform="scale(0.015625)"/>
       <path id="DejaVuSans-73" d="M 2834 3397 
L 2834 2853 
Q 2591 2978 2328 3040 
Q 2066 3103 1784 3103 
Q 1356 3103 1142 2972 
Q 928 2841 928 2578 
Q 928 2378 1081 2264 
Q 1234 2150 1697 2047 
L 1894 2003 
Q 2506 1872 2764 1633 
Q 3022 1394 3022 966 
Q 3022 478 2636 193 
Q 2250 -91 1575 -91 
Q 1294 -91 989 -36 
Q 684 19 347 128 
L 347 722 
Q 666 556 975 473 
Q 1284 391 1588 391 
Q 1994 391 2212 530 
Q 2431 669 2431 922 
Q 2431 1156 2273 1281 
Q 2116 1406 1581 1522 
L 1381 1569 
Q 847 1681 609 1914 
Q 372 2147 372 2553 
Q 372 3047 722 3315 
Q 1072 3584 1716 3584 
Q 2034 3584 2315 3537 
Q 2597 3491 2834 3397 
z
" transform="scale(0.015625)"/>
       <path id="DejaVuSans-20" transform="scale(0.015625)"/>
       <path id="DejaVuSans-5b" d="M 550 4863 
L 1875 4863 
L 1875 4416 
L 1125 4416 
L 1125 -397 
L 1875 -397 
L 1875 -844 
L 550 -844 
L 550 4863 
z
" transform="scale(0.015625)"/>
       <path id="DejaVuSans-5d" d="M 1947 4863 
L 1947 -844 
L 622 -844 
L 622 -397 
L 1369 -397 
L 1369 4416 
L 622 4416 
L 622 4863 
L 1947 4863 
z
" transform="scale(0.015625)"/>
      </defs>
      <use xlink:href="#DejaVuSans-65"/>
      <use xlink:href="#DejaVuSans-76" x="61.523438"/>
      <use xlink:href="#DejaVuSans-65" x="120.703125"/>
      <use xlink:href="#DejaVuSans-6e" x="182.226562"/>
      <use xlink:href="#DejaVuSans-74" x="245.605469"/>
      <use xlink:href="#DejaVuSans-5f" x="284.814453"/>
      <use xlink:href="#DejaVuSans-74" x="334.814453"/>
      <use xlink:href="#DejaVuSans-69" x="374.023438"/>
      <use xlink:href="#DejaVuSans-6d" x="401.806641"/>
      <use xlink:href="#DejaVuSans-65" x="499.21875"/>
      <use xlink:href="#DejaVuSans-5f" x="560.742188"/>
      <use xlink:href="#DejaVuSans-6f" x="610.742188"/>
      <use xlink:href="#DejaVuSans-66" x="671.923828"/>
      <use xlink:href="#DejaVuSans-66" x="707.128906"/>
      <use xlink:href="#DejaVuSans-73" x="742.333984"/>
      <use xlink:href="#DejaVuSans-65" x="794.433594"/>
      <use xlink:href="#DejaVuSans-74" x="855.957031"/>
      <use xlink:href="#DejaVuSans-20" x="895.166016"/>
      <use xlink:href="#DejaVuSans-5b" x="926.953125"/>
      <use xlink:href="#DejaVuSans-73" x="965.966797"/>
      <use xlink:href="#DejaVuSans-5d" x="1018.066406"/>
     </g>
    </g>
   </g>
   <g id="matplotlib.axis_2">
    <g id="ytick_1">
     <g id="line2d_6">
      <defs>
       <path id="m823dcafc38" d="M 0 0 
L -3.5 0 
" style="stroke: #000000; stroke-width: 0.8"/>
      </defs>
      <g>
       <use xlink:href="#m823dcafc38" x="53.328125" y="218.88" style="stroke: #000000; stroke-width: 0.8"/>
      </g>
     </g>
     <g id="text_7">
      <!-- 0 -->
      <g transform="translate(39.965625 222.679219) scale(0.1 -0.1)">
       <use xlink:href="#DejaVuSans-30"/>
      </g>
     </g>
    </g>
    <g id="ytick_2">
     <g id="line2d_7">
      <g>
       <use xlink:href="#m823dcafc38" x="53.328125" y="187.797669" style="stroke: #000000; stroke-width: 0.8"/>
      </g>
     </g>
     <g id="text_8">
      <!-- 500 -->
      <g transform="translate(27.240625 191.596888) scale(0.1 -0.1)">
       <use xlink:href="#DejaVuSans-35"/>
       <use xlink:href="#DejaVuSans-30" x="63.623047"/>
       <use xlink:href="#DejaVuSans-30" x="127.246094"/>
      </g>
     </g>
    </g>
    <g id="ytick_3">
     <g id="line2d_8">
      <g>
       <use xlink:href="#m823dcafc38" x="53.328125" y="156.715338" style="stroke: #000000; stroke-width: 0.8"/>
      </g>
     </g>
     <g id="text_9">
      <!-- 1000 -->
      <g transform="translate(20.878125 160.514556) scale(0.1 -0.1)">
       <defs>
        <path id="DejaVuSans-31" d="M 794 531 
L 1825 531 
L 1825 4091 
L 703 3866 
L 703 4441 
L 1819 4666 
L 2450 4666 
L 2450 531 
L 3481 531 
L 3481 0 
L 794 0 
L 794 531 
z
" transform="scale(0.015625)"/>
       </defs>
       <use xlink:href="#DejaVuSans-31"/>
       <use xlink:href="#DejaVuSans-30" x="63.623047"/>
       <use xlink:href="#DejaVuSans-30" x="127.246094"/>
       <use xlink:href="#DejaVuSans-30" x="190.869141"/>
      </g>
     </g>
    </g>
    <g id="ytick_4">
     <g id="line2d_9">
      <g>
       <use xlink:href="#m823dcafc38" x="53.328125" y="125.633006" style="stroke: #000000; stroke-width: 0.8"/>
      </g>
     </g>
     <g id="text_10">
      <!-- 1500 -->
      <g transform="translate(20.878125 129.432225) scale(0.1 -0.1)">
       <use xlink:href="#DejaVuSans-31"/>
       <use xlink:href="#DejaVuSans-35" x="63.623047"/>
       <use xlink:href="#DejaVuSans-30" x="127.246094"/>
       <use xlink:href="#DejaVuSans-30" x="190.869141"/>
      </g>
     </g>
    </g>
    <g id="ytick_5">
     <g id="line2d_10">
      <g>
       <use xlink:href="#m823dcafc38" x="53.328125" y="94.550675" style="stroke: #000000; stroke-width: 0.8"/>
      </g>
     </g>
     <g id="text_11">
      <!-- 2000 -->
      <g transform="translate(20.878125 98.349894) scale(0.1 -0.1)">
       <use xlink:href="#DejaVuSans-32"/>
       <use xlink:href="#DejaVuSans-30" x="63.623047"/>
       <use xlink:href="#DejaVuSans-30" x="127.246094"/>
       <use xlink:href="#DejaVuSans-30" x="190.869141"/>
      </g>
     </g>
    </g>
    <g id="ytick_6">
     <g id="line2d_11">
      <g>
       <use xlink:href="#m823dcafc38" x="53.328125" y="63.468344" style="stroke: #000000; stroke-width: 0.8"/>
      </g>
     </g>
     <g id="text_12">
      <!-- 2500 -->
      <g transform="translate(20.878125 67.267563) scale(0.1 -0.1)">
       <use xlink:href="#DejaVuSans-32"/>
       <use xlink:href="#DejaVuSans-35" x="63.623047"/>
       <use xlink:href="#DejaVuSans-30" x="127.246094"/>
       <use xlink:href="#DejaVuSans-30" x="190.869141"/>
      </g>
     </g>
    </g>
    <g id="ytick_7">
     <g id="line2d_12">
      <g>
       <use xlink:href="#m823dcafc38" x="53.328125" y="32.386013" style="stroke: #000000; stroke-width: 0.8"/>
      </g>
     </g>
     <g id="text_13">
      <!-- 3000 -->
      <g transform="translate(20.878125 36.185232) scale(0.1 -0.1)">
       <use xlink:href="#DejaVuSans-33"/>
       <use xlink:href="#DejaVuSans-30" x="63.623047"/>
       <use xlink:href="#DejaVuSans-30" x="127.246094"/>
       <use xlink:href="#DejaVuSans-30" x="190.869141"/>
      </g>
     </g>
    </g>
    <g id="text_14">
     <!-- [counts] -->
     <g transform="translate(14.798438 138.6925) rotate(-90) scale(0.1 -0.1)">
      <defs>
       <path id="DejaVuSans-63" d="M 3122 3366 
L 3122 2828 
Q 2878 2963 2633 3030 
Q 2388 3097 2138 3097 
Q 1578 3097 1268 2742 
Q 959 2388 959 1747 
Q 959 1106 1268 751 
Q 1578 397 2138 397 
Q 2388 397 2633 464 
Q 2878 531 3122 666 
L 3122 134 
Q 2881 22 2623 -34 
Q 2366 -91 2075 -91 
Q 1284 -91 818 406 
Q 353 903 353 1747 
Q 353 2603 823 3093 
Q 1294 3584 2113 3584 
Q 2378 3584 2631 3529 
Q 2884 3475 3122 3366 
z
" transform="scale(0.015625)"/>
       <path id="DejaVuSans-75" d="M 544 1381 
L 544 3500 
L 1119 3500 
L 1119 1403 
Q 1119 906 1312 657 
Q 1506 409 1894 409 
Q 2359 409 2629 706 
Q 2900 1003 2900 1516 
L 2900 3500 
L 3475 3500 
L 3475 0 
L 2900 0 
L 2900 538 
Q 2691 219 2414 64 
Q 2138 -91 1772 -91 
Q 1169 -91 856 284 
Q 544 659 544 1381 
z
M 1991 3584 
L 1991 3584 
z
" transform="scale(0.015625)"/>
      </defs>
      <use xlink:href="#DejaVuSans-5b"/>
      <use xlink:href="#DejaVuSans-63" x="39.013672"/>
      <use xlink:href="#DejaVuSans-6f" x="93.994141"/>
      <use xlink:href="#DejaVuSans-75" x="155.175781"/>
      <use xlink:href="#DejaVuSans-6e" x="218.554688"/>
      <use xlink:href="#DejaVuSans-74" x="281.933594"/>
      <use xlink:href="#DejaVuSans-73" x="321.142578"/>
      <use xlink:href="#DejaVuSans-5d" x="373.242188"/>
     </g>
    </g>
   </g>
   <g id="patch_3">
    <path d="M 53.328125 228.96 
L 53.328125 7.2 
" style="fill: none; stroke: #000000; stroke-width: 0.8; stroke-linejoin: miter; stroke-linecap: square"/>
   </g>
   <g id="patch_4">
    <path d="M 388.128125 228.96 
L 388.128125 7.2 
" style="fill: none; stroke: #000000; stroke-width: 0.8; stroke-linejoin: miter; stroke-linecap: square"/>
   </g>
   <g id="patch_5">
    <path d="M 53.328125 228.96 
L 388.128125 228.96 
" style="fill: none; stroke: #000000; stroke-width: 0.8; stroke-linejoin: miter; stroke-linecap: square"/>
   </g>
   <g id="patch_6">
    <path d="M 53.328125 7.2 
L 388.128125 7.2 
" style="fill: none; stroke: #000000; stroke-width: 0.8; stroke-linejoin: miter; stroke-linecap: square"/>
   </g>
   <g id="line2d_13">
    <path d="M 68.546307 182.016355 
L 69.560852 182.016355 
L 69.560852 125.01136 
L 70.575398 125.01136 
L 70.575398 104.621351 
L 71.589943 104.621351 
L 71.589943 94.550675 
L 72.604489 94.550675 
L 72.604489 96.353451 
L 73.619034 96.353451 
L 73.619034 85.474635 
L 74.63358 85.474635 
L 74.63358 82.490731 
L 75.648125 82.490731 
L 75.648125 75.341795 
L 76.66267 75.341795 
L 76.66267 69.125328 
L 77.677216 69.125328 
L 77.677216 65.208955 
L 78.691761 65.208955 
L 78.691761 55.94642 
L 79.706307 55.94642 
L 79.706307 57.065384 
L 80.720852 57.065384 
L 80.720852 46.808215 
L 81.735398 46.808215 
L 81.735398 43.94864 
L 82.749943 43.94864 
L 82.749943 32.261684 
L 83.764489 32.261684 
L 83.764489 30.521073 
L 84.779034 30.521073 
L 84.779034 27.350675 
L 85.79358 27.350675 
L 85.79358 17.28 
L 86.808125 17.28 
L 86.808125 29.339944 
L 87.82267 29.339944 
L 87.82267 32.759001 
L 88.837216 32.759001 
L 88.837216 29.775097 
L 89.851761 29.775097 
L 89.851761 28.034487 
L 90.866307 28.034487 
L 90.866307 36.488881 
L 91.880852 36.488881 
L 91.880852 43.01617 
L 92.895398 43.01617 
L 92.895398 42.643182 
L 93.909943 42.643182 
L 93.909943 40.34309 
L 94.924489 40.34309 
L 94.924489 51.843552 
L 95.939034 51.843552 
L 95.939034 54.205809 
L 96.95358 54.205809 
L 96.95358 62.971027 
L 97.968125 62.971027 
L 97.968125 74.720148 
L 98.98267 74.720148 
L 98.98267 91.318113 
L 99.997216 91.318113 
L 99.997216 99.213025 
L 101.011761 99.213025 
L 101.011761 109.594524 
L 102.026307 109.594524 
L 102.026307 122.835597 
L 103.040852 122.835597 
L 103.040852 130.979167 
L 104.055398 130.979167 
L 104.055398 140.428196 
L 105.069943 140.428196 
L 105.069943 154.850398 
L 106.084489 154.850398 
L 106.084489 160.631711 
L 107.099034 160.631711 
L 107.099034 164.050768 
L 108.11358 164.050768 
L 108.11358 174.432266 
L 109.128125 174.432266 
L 109.128125 190.657243 
L 110.14267 190.657243 
L 110.14267 197.68185 
L 111.157216 197.68185 
L 111.157216 205.763256 
L 112.171761 205.763256 
L 112.171761 211.793228 
L 113.186307 211.793228 
L 113.186307 217.761036 
L 114.200852 217.761036 
L 114.200852 218.817835 
L 126.375398 218.88 
L 126.375398 218.693506 
L 127.389943 218.693506 
L 127.389943 192.957336 
L 128.404489 192.957336 
L 128.404489 149.939389 
L 129.419034 149.939389 
L 129.419034 107.356596 
L 130.43358 107.356596 
L 130.43358 86.842257 
L 131.448125 86.842257 
L 131.448125 93.431711 
L 132.46267 93.431711 
L 132.46267 92.685735 
L 133.477216 92.685735 
L 133.477216 96.850768 
L 134.491761 96.850768 
L 134.491761 94.115523 
L 135.506307 94.115523 
L 135.506307 102.632081 
L 136.520852 102.632081 
L 136.520852 101.0158 
L 137.535398 101.0158 
L 137.535398 104.932174 
L 138.549943 104.932174 
L 138.549943 109.2837 
L 139.564489 109.2837 
L 139.564489 103.440222 
L 140.579034 103.440222 
L 140.579034 106.299796 
L 141.59358 106.299796 
L 141.59358 109.656688 
L 142.608125 109.656688 
L 142.608125 114.008215 
L 143.62267 114.008215 
L 143.62267 108.226901 
L 144.637216 108.226901 
L 144.637216 118.359741 
L 145.651761 118.359741 
L 145.651761 116.183978 
L 146.666307 116.183978 
L 146.666307 117.986753 
L 147.680852 117.986753 
L 147.680852 118.421906 
L 148.695398 118.421906 
L 148.695398 121.219315 
L 149.709943 121.219315 
L 149.709943 126.378982 
L 150.724489 126.378982 
L 150.724489 126.565476 
L 151.739034 126.565476 
L 151.739034 127.497946 
L 152.75358 127.497946 
L 152.75358 129.735874 
L 154.78267 129.67371 
L 154.78267 132.719778 
L 155.797216 132.719778 
L 155.797216 131.289991 
L 156.811761 131.289991 
L 156.811761 133.714413 
L 157.826307 133.714413 
L 157.826307 131.103497 
L 158.840852 131.103497 
L 158.840852 140.241702 
L 159.855398 140.241702 
L 159.855398 139.371397 
L 160.869943 139.371397 
L 160.869943 137.94161 
L 161.884489 137.94161 
L 161.884489 142.044477 
L 162.899034 142.044477 
L 162.899034 150.125883 
L 163.91358 150.125883 
L 163.91358 146.333839 
L 164.928125 146.333839 
L 164.928125 152.301647 
L 165.94267 152.301647 
L 165.94267 157.896466 
L 166.957216 157.896466 
L 166.957216 163.429121 
L 167.971761 163.429121 
L 167.971761 172.007845 
L 168.986307 172.007845 
L 168.986307 174.121443 
L 170.000852 174.121443 
L 170.000852 182.700167 
L 171.015398 182.700167 
L 171.015398 189.476115 
L 172.029943 189.476115 
L 172.029943 195.692581 
L 173.044489 195.692581 
L 173.044489 200.292766 
L 174.059034 200.292766 
L 174.059034 205.514598 
L 175.07358 205.514598 
L 175.07358 210.674265 
L 176.088125 210.674265 
L 176.088125 214.652803 
L 177.10267 214.652803 
L 177.10267 217.450213 
L 178.117216 217.450213 
L 178.117216 218.88 
L 182.175398 218.88 
L 182.175398 218.258353 
L 183.189943 218.258353 
L 183.189943 208.125513 
L 184.204489 208.125513 
L 184.204489 192.522183 
L 185.219034 192.522183 
L 185.219034 173.064644 
L 186.23358 173.064644 
L 186.23358 153.855763 
L 187.248125 153.855763 
L 187.248125 151.431341 
L 188.26267 151.431341 
L 188.26267 148.820426 
L 189.277216 148.820426 
L 189.277216 151.742165 
L 190.291761 151.742165 
L 190.291761 154.47741 
L 191.306307 154.47741 
L 191.306307 153.420611 
L 192.320852 153.420611 
L 192.320852 154.912562 
L 193.335398 154.912562 
L 193.335398 158.828936 
L 194.349943 158.828936 
L 194.349943 161.066864 
L 195.364489 161.066864 
L 195.364489 160.693876 
L 196.379034 160.693876 
L 196.379034 161.937169 
L 197.39358 161.937169 
L 197.39358 162.807475 
L 198.408125 162.807475 
L 198.408125 161.999334 
L 199.42267 161.999334 
L 199.42267 160.942535 
L 200.437216 160.942535 
L 200.437216 164.423756 
L 201.451761 164.423756 
L 201.451761 161.253358 
L 202.466307 161.253358 
L 202.466307 167.221166 
L 203.480852 167.221166 
L 203.480852 166.226531 
L 204.495398 166.226531 
L 204.495398 167.469824 
L 205.509943 167.469824 
L 205.509943 167.842812 
L 206.524489 167.842812 
L 206.524489 172.070009 
L 207.539034 172.070009 
L 207.539034 178.34864 
L 208.55358 178.34864 
L 208.55358 176.545865 
L 209.568125 176.545865 
L 209.568125 178.721628 
L 210.58267 178.721628 
L 210.58267 180.959556 
L 211.597216 180.959556 
L 211.597216 182.513673 
L 212.611761 182.513673 
L 212.611761 189.724773 
L 213.626307 189.724773 
L 213.626307 189.973432 
L 214.640852 189.973432 
L 214.640852 191.714043 
L 215.655398 191.714043 
L 215.655398 191.465384 
L 216.669943 191.465384 
L 216.669943 191.030231 
L 217.684489 191.030231 
L 217.684489 194.324958 
L 218.699034 194.324958 
L 218.699034 197.433191 
L 219.71358 197.433191 
L 219.71358 199.422461 
L 220.728125 199.422461 
L 220.728125 202.3442 
L 221.74267 202.3442 
L 221.74267 204.892951 
L 222.757216 204.892951 
L 222.757216 206.633562 
L 223.771761 206.633562 
L 223.771761 208.995819 
L 224.786307 208.995819 
L 224.786307 212.166216 
L 225.800852 212.166216 
L 225.800852 213.782498 
L 226.815398 213.782498 
L 226.815398 216.517743 
L 227.829943 216.517743 
L 227.829943 218.817835 
L 233.917216 218.88 
L 233.917216 216.08259 
L 234.931761 216.08259 
L 234.931761 210.922923 
L 235.946307 210.922923 
L 235.946307 203.214505 
L 236.960852 203.214505 
L 236.960852 195.630416 
L 237.975398 195.630416 
L 237.975398 188.854468 
L 238.989943 188.854468 
L 238.989943 190.719408 
L 240.004489 190.719408 
L 240.004489 191.527549 
L 241.019034 191.527549 
L 241.019034 191.403219 
L 242.03358 191.403219 
L 242.03358 193.765476 
L 243.048125 193.765476 
L 243.048125 194.946605 
L 244.06267 194.946605 
L 244.06267 195.257428 
L 245.077216 195.257428 
L 245.077216 197.495356 
L 246.091761 197.495356 
L 246.091761 198.427826 
L 247.106307 198.427826 
L 247.106307 199.857613 
L 248.120852 199.857613 
L 248.120852 200.106272 
L 249.135398 200.106272 
L 249.135398 200.292766 
L 250.149943 200.292766 
L 250.149943 201.536059 
L 251.164489 201.536059 
L 251.164489 201.660389 
L 252.179034 201.660389 
L 252.179034 204.271304 
L 253.19358 204.271304 
L 253.19358 205.079445 
L 254.208125 205.079445 
L 254.208125 204.519963 
L 255.22267 204.519963 
L 255.22267 206.384903 
L 256.237216 206.384903 
L 256.237216 207.006549 
L 258.266307 206.944385 
L 258.266307 207.503867 
L 259.280852 207.503867 
L 259.280852 209.803959 
L 260.295398 209.803959 
L 260.295398 210.239112 
L 261.309943 210.239112 
L 261.309943 210.363441 
L 262.324489 210.363441 
L 262.324489 211.358076 
L 263.339034 211.358076 
L 263.339034 212.912192 
L 264.35358 212.912192 
L 264.35358 213.098686 
L 265.368125 213.098686 
L 265.368125 213.720333 
L 266.38267 213.720333 
L 266.38267 214.901462 
L 267.397216 214.901462 
L 267.397216 215.336614 
L 268.411761 215.336614 
L 268.411761 215.771767 
L 269.426307 215.771767 
L 269.426307 216.020426 
L 270.440852 216.020426 
L 270.440852 217.077225 
L 271.455398 217.077225 
L 271.455398 217.201554 
L 272.469943 217.201554 
L 272.469943 217.94753 
L 273.484489 217.94753 
L 273.484489 218.631341 
L 274.499034 218.631341 
L 274.499034 218.817835 
L 280.586307 218.88 
L 280.586307 218.444847 
L 281.600852 218.444847 
L 281.600852 215.833932 
L 282.615398 215.833932 
L 282.615398 211.606735 
L 283.629943 211.606735 
L 283.629943 209.493136 
L 284.644489 209.493136 
L 284.644489 206.509232 
L 285.659034 206.509232 
L 285.659034 204.146975 
L 286.67358 204.146975 
L 286.67358 205.390268 
L 287.688125 205.390268 
L 287.688125 205.079445 
L 288.70267 205.079445 
L 288.70267 205.94975 
L 289.717216 205.94975 
L 289.717216 206.07408 
L 290.731761 206.07408 
L 290.731761 208.933654 
L 291.746307 208.933654 
L 291.746307 208.622831 
L 292.760852 208.622831 
L 292.760852 208.312007 
L 293.775398 208.312007 
L 293.775398 209.741795 
L 294.789943 209.741795 
L 294.789943 209.928289 
L 295.804489 209.928289 
L 295.804489 210.176947 
L 296.819034 210.176947 
L 296.819034 211.047253 
L 297.83358 211.047253 
L 297.83358 212.912192 
L 298.848125 212.912192 
L 298.848125 211.855393 
L 299.86267 211.855393 
L 299.86267 212.166216 
L 300.877216 212.166216 
L 300.877216 213.098686 
L 301.891761 213.098686 
L 301.891761 212.974357 
L 302.906307 212.974357 
L 302.906307 213.720333 
L 303.920852 213.720333 
L 303.920852 214.279815 
L 304.935398 214.279815 
L 304.935398 214.404144 
L 305.949943 214.404144 
L 305.949943 214.652803 
L 306.964489 214.652803 
L 306.964489 215.15012 
L 307.979034 215.15012 
L 307.979034 216.455578 
L 308.99358 216.455578 
L 308.99358 215.958261 
L 310.008125 215.958261 
L 310.008125 216.20692 
L 311.02267 216.20692 
L 311.02267 217.201554 
L 313.051761 217.201554 
L 313.051761 217.388048 
L 314.066307 217.388048 
L 314.066307 217.94753 
L 315.080852 217.94753 
L 315.080852 217.574542 
L 316.095398 217.574542 
L 316.095398 218.071859 
L 317.109943 218.071859 
L 317.109943 218.444847 
L 319.139034 218.507012 
L 319.139034 218.817835 
L 328.269943 218.88 
L 328.269943 218.631341 
L 329.284489 218.631341 
L 329.284489 217.636707 
L 330.299034 217.636707 
L 330.299034 215.27445 
L 331.31358 215.27445 
L 331.31358 213.968992 
L 332.328125 213.968992 
L 332.328125 209.866124 
L 333.34267 209.866124 
L 333.34267 206.944385 
L 334.357216 206.944385 
L 334.357216 204.768622 
L 335.371761 204.768622 
L 335.371761 201.100907 
L 336.386307 201.100907 
L 336.386307 203.400999 
L 337.400852 203.400999 
L 337.400852 201.473895 
L 338.415398 201.473895 
L 338.415398 202.965846 
L 339.429943 202.965846 
L 339.429943 204.022646 
L 340.444489 204.022646 
L 340.444489 204.146975 
L 341.459034 204.146975 
L 341.459034 203.338834 
L 342.47358 203.338834 
L 342.47358 205.203774 
L 343.488125 205.203774 
L 343.488125 203.090176 
L 344.50267 203.090176 
L 344.50267 206.633562 
L 345.517216 206.633562 
L 345.517216 204.08481 
L 346.531761 204.08481 
L 346.531761 203.711822 
L 347.546307 203.711822 
L 347.546307 205.01728 
L 348.560852 205.01728 
L 348.560852 204.892951 
L 349.575398 204.892951 
L 349.575398 206.136244 
L 350.589943 206.136244 
L 350.589943 205.825421 
L 351.604489 205.825421 
L 351.604489 205.638927 
L 352.619034 205.638927 
L 352.619034 208.063349 
L 353.63358 208.063349 
L 353.63358 207.379537 
L 354.648125 207.379537 
L 354.648125 208.684995 
L 355.66267 208.684995 
L 355.66267 205.94975 
L 356.677216 205.94975 
L 356.677216 208.312007 
L 357.691761 208.312007 
L 357.691761 208.125513 
L 358.706307 208.125513 
L 358.706307 209.493136 
L 359.720852 209.493136 
L 359.720852 210.674265 
L 360.735398 210.674265 
L 360.735398 208.622831 
L 361.749943 208.622831 
L 361.749943 211.233747 
L 362.764489 211.233747 
L 362.764489 211.482405 
L 363.779034 211.482405 
L 363.779034 211.917558 
L 364.79358 211.917558 
L 364.79358 212.787863 
L 365.808125 212.787863 
L 365.808125 212.47704 
L 366.82267 212.47704 
L 366.82267 213.968992 
L 367.837216 213.968992 
L 367.837216 214.279815 
L 368.851761 214.279815 
L 368.851761 214.901462 
L 369.866307 214.901462 
L 369.866307 215.523108 
L 370.880852 215.523108 
L 370.880852 217.01506 
L 371.895398 217.01506 
L 371.895398 218.444847 
L 372.909943 218.444847 
L 372.909943 218.444847 
" clip-path="url(#p479828ec78)" style="fill: none; stroke: #1f77b4; stroke-width: 1.5; stroke-linecap: square"/>
   </g>
  </g>
 </g>
 <defs>
  <clipPath id="p479828ec78">
   <rect x="53.328125" y="7.2" width="334.8" height="221.76"/>
  </clipPath>
 </defs>
</svg>
