<?xml version="1.0" encoding="UTF-8" standalone="no"?>
<!DOCTYPE svg PUBLIC "-//W3C//DTD SVG 1.1//EN"
 "http://www.w3.org/Graphics/SVG/1.1/DTD/svg11.dtd">
<!-- Generated by graphviz version 7.1.0 (20230122.1345)
 -->
<!-- Pages: 1 -->
<svg width="1213pt" height="764pt"
 viewBox="0.00 0.00 1212.84 764.00" xmlns="http://www.w3.org/2000/svg" xmlns:xlink="http://www.w3.org/1999/xlink">
<g id="graph0" class="graph" transform="scale(1 1) rotate(0) translate(4 760)">
<polygon fill="white" stroke="none" points="-4,4 -4,-760 1208.84,-760 1208.84,4 -4,4"/>
<!-- Choppers -->
<g id="node1" class="node">
<title>Choppers</title>
<polygon fill="none" stroke="red" stroke-dasharray="5,2" points="963.34,-612 878.34,-612 878.34,-576 963.34,-576 963.34,-612"/>
<text text-anchor="middle" x="920.84" y="-590.3" font-family="Times,serif" font-size="14.00" fill="red">Choppers</text>
</g>
<!-- scippneutron.tof.unwrap.frame_at_detector_FrameAtDetector -->
<g id="node7" class="node">
<title>scippneutron.tof.unwrap.frame_at_detector_FrameAtDetector</title>
<ellipse fill="none" stroke="black" cx="832.84" cy="-522" rx="94.78" ry="18"/>
<text text-anchor="middle" x="832.84" y="-518.3" font-family="Times,serif" font-size="14.00">frame_at_detector</text>
</g>
<!-- Choppers&#45;&gt;scippneutron.tof.unwrap.frame_at_detector_FrameAtDetector -->
<g id="edge7" class="edge">
<title>Choppers&#45;&gt;scippneutron.tof.unwrap.frame_at_detector_FrameAtDetector</title>
<path fill="none" stroke="black" d="M899.09,-575.7C888.13,-566.99 874.69,-556.29 862.78,-546.82"/>
<polygon fill="black" stroke="black" points="865.23,-544.29 855.22,-540.81 860.87,-549.77 865.23,-544.29"/>
</g>
<!-- scippneutron.tof.unwrap.offset_from_wrapped_DeltaFromWrapped -->
<g id="node2" class="node">
<title>scippneutron.tof.unwrap.offset_from_wrapped_DeltaFromWrapped</title>
<ellipse fill="none" stroke="black" cx="727.84" cy="-234" rx="107.78" ry="18"/>
<text text-anchor="middle" x="727.84" y="-230.3" font-family="Times,serif" font-size="14.00">offset_from_wrapped</text>
</g>
<!-- DeltaFromWrapped -->
<g id="node6" class="node">
<title>DeltaFromWrapped</title>
<polygon fill="none" stroke="black" points="1043.34,-180 886.34,-180 886.34,-144 1043.34,-144 1043.34,-180"/>
<text text-anchor="middle" x="964.84" y="-158.3" font-family="Times,serif" font-size="14.00">DeltaFromWrapped</text>
</g>
<!-- scippneutron.tof.unwrap.offset_from_wrapped_DeltaFromWrapped&#45;&gt;DeltaFromWrapped -->
<g id="edge4" class="edge">
<title>scippneutron.tof.unwrap.offset_from_wrapped_DeltaFromWrapped&#45;&gt;DeltaFromWrapped</title>
<path fill="none" stroke="black" d="M779.26,-217.81C813.21,-207.78 858.12,-194.52 895.25,-183.55"/>
<polygon fill="black" stroke="black" points="895.95,-187 904.55,-180.81 893.97,-180.28 895.95,-187"/>
</g>
<!-- FrameWrappedTimeOffset -->
<g id="node3" class="node">
<title>FrameWrappedTimeOffset</title>
<polygon fill="none" stroke="black" points="595.34,-324 390.34,-324 390.34,-288 595.34,-288 595.34,-324"/>
<text text-anchor="middle" x="492.84" y="-302.3" font-family="Times,serif" font-size="14.00">FrameWrappedTimeOffset</text>
</g>
<!-- FrameWrappedTimeOffset&#45;&gt;scippneutron.tof.unwrap.offset_from_wrapped_DeltaFromWrapped -->
<g id="edge1" class="edge">
<title>FrameWrappedTimeOffset&#45;&gt;scippneutron.tof.unwrap.offset_from_wrapped_DeltaFromWrapped</title>
<path fill="none" stroke="black" d="M551.53,-287.52C586.4,-277.13 630.57,-263.97 665.98,-253.43"/>
<polygon fill="black" stroke="black" points="666.63,-256.88 675.22,-250.67 664.64,-250.17 666.63,-256.88"/>
</g>
<!-- FrameBounds -->
<g id="node4" class="node">
<title>FrameBounds</title>
<polygon fill="none" stroke="black" points="859.84,-324 743.84,-324 743.84,-288 859.84,-288 859.84,-324"/>
<text text-anchor="middle" x="801.84" y="-302.3" font-family="Times,serif" font-size="14.00">FrameBounds</text>
</g>
<!-- FrameBounds&#45;&gt;scippneutron.tof.unwrap.offset_from_wrapped_DeltaFromWrapped -->
<g id="edge2" class="edge">
<title>FrameBounds&#45;&gt;scippneutron.tof.unwrap.offset_from_wrapped_DeltaFromWrapped</title>
<path fill="none" stroke="black" d="M783.55,-287.7C774.67,-279.3 763.86,-269.07 754.12,-259.86"/>
<polygon fill="black" stroke="black" points="756.69,-257.47 747.02,-253.14 751.88,-262.56 756.69,-257.47"/>
</g>
<!-- FramePeriod -->
<g id="node5" class="node">
<title>FramePeriod</title>
<polygon fill="none" stroke="black" points="738.34,-396 629.34,-396 629.34,-360 738.34,-360 738.34,-396"/>
<text text-anchor="middle" x="683.84" y="-374.3" font-family="Times,serif" font-size="14.00">FramePeriod</text>
</g>
<!-- FramePeriod&#45;&gt;scippneutron.tof.unwrap.offset_from_wrapped_DeltaFromWrapped -->
<g id="edge3" class="edge">
<title>FramePeriod&#45;&gt;scippneutron.tof.unwrap.offset_from_wrapped_DeltaFromWrapped</title>
<path fill="none" stroke="black" d="M689.23,-359.59C696.7,-335.5 710.25,-291.75 719.15,-263.03"/>
<polygon fill="black" stroke="black" points="722.47,-264.14 722.09,-253.56 715.79,-262.07 722.47,-264.14"/>
</g>
<!-- scippneutron.tof.unwrap.unwrap_data_UnwrappedData -->
<g id="node25" class="node">
<title>scippneutron.tof.unwrap.unwrap_data_UnwrappedData</title>
<ellipse fill="none" stroke="black" cx="1017.84" cy="-90" rx="70.69" ry="18"/>
<text text-anchor="middle" x="1017.84" y="-86.3" font-family="Times,serif" font-size="14.00">unwrap_data</text>
</g>
<!-- DeltaFromWrapped&#45;&gt;scippneutron.tof.unwrap.unwrap_data_UnwrappedData -->
<g id="edge28" class="edge">
<title>DeltaFromWrapped&#45;&gt;scippneutron.tof.unwrap.unwrap_data_UnwrappedData</title>
<path fill="none" stroke="black" d="M977.94,-143.7C983.97,-135.73 991.26,-126.1 997.95,-117.26"/>
<polygon fill="black" stroke="black" points="1000.73,-119.4 1003.97,-109.31 995.15,-115.17 1000.73,-119.4"/>
</g>
<!-- FrameAtDetector -->
<g id="node11" class="node">
<title>FrameAtDetector</title>
<polygon fill="none" stroke="black" points="903.34,-468 762.34,-468 762.34,-432 903.34,-432 903.34,-468"/>
<text text-anchor="middle" x="832.84" y="-446.3" font-family="Times,serif" font-size="14.00">FrameAtDetector</text>
</g>
<!-- scippneutron.tof.unwrap.frame_at_detector_FrameAtDetector&#45;&gt;FrameAtDetector -->
<g id="edge9" class="edge">
<title>scippneutron.tof.unwrap.frame_at_detector_FrameAtDetector&#45;&gt;FrameAtDetector</title>
<path fill="none" stroke="black" d="M832.84,-503.7C832.84,-496.41 832.84,-487.73 832.84,-479.54"/>
<polygon fill="black" stroke="black" points="836.34,-479.62 832.84,-469.62 829.34,-479.62 836.34,-479.62"/>
</g>
<!-- SourceWavelengthRange -->
<g id="node8" class="node">
<title>SourceWavelengthRange</title>
<polygon fill="none" stroke="red" stroke-dasharray="5,2" points="1176.34,-612 981.34,-612 981.34,-576 1176.34,-576 1176.34,-612"/>
<text text-anchor="middle" x="1078.84" y="-590.3" font-family="Times,serif" font-size="14.00" fill="red">SourceWavelengthRange</text>
</g>
<!-- SourceWavelengthRange&#45;&gt;scippneutron.tof.unwrap.frame_at_detector_FrameAtDetector -->
<g id="edge5" class="edge">
<title>SourceWavelengthRange&#45;&gt;scippneutron.tof.unwrap.frame_at_detector_FrameAtDetector</title>
<path fill="none" stroke="black" d="M1017.4,-575.52C979.96,-564.86 932.28,-551.3 894.76,-540.62"/>
<polygon fill="black" stroke="black" points="896,-537.33 885.42,-537.96 894.08,-544.07 896,-537.33"/>
</g>
<!-- SourceTimeRange -->
<g id="node9" class="node">
<title>SourceTimeRange</title>
<polygon fill="none" stroke="red" stroke-dasharray="5,2" points="782.84,-612 636.84,-612 636.84,-576 782.84,-576 782.84,-612"/>
<text text-anchor="middle" x="709.84" y="-590.3" font-family="Times,serif" font-size="14.00" fill="red">SourceTimeRange</text>
</g>
<!-- SourceTimeRange&#45;&gt;scippneutron.tof.unwrap.frame_at_detector_FrameAtDetector -->
<g id="edge6" class="edge">
<title>SourceTimeRange&#45;&gt;scippneutron.tof.unwrap.frame_at_detector_FrameAtDetector</title>
<path fill="none" stroke="black" d="M740.56,-575.52C756.74,-566.31 776.75,-554.92 793.99,-545.11"/>
<polygon fill="black" stroke="black" points="795.5,-548.28 802.46,-540.29 792.04,-542.19 795.5,-548.28"/>
</g>
<!-- Ltotal -->
<g id="node10" class="node">
<title>Ltotal</title>
<polygon fill="none" stroke="red" stroke-dasharray="5,2" points="860.34,-612 801.34,-612 801.34,-576 860.34,-576 860.34,-612"/>
<text text-anchor="middle" x="830.84" y="-590.3" font-family="Times,serif" font-size="14.00" fill="red">Ltotal</text>
</g>
<!-- Ltotal&#45;&gt;scippneutron.tof.unwrap.frame_at_detector_FrameAtDetector -->
<g id="edge8" class="edge">
<title>Ltotal&#45;&gt;scippneutron.tof.unwrap.frame_at_detector_FrameAtDetector</title>
<path fill="none" stroke="black" d="M831.33,-575.7C831.54,-568.41 831.79,-559.73 832.02,-551.54"/>
<polygon fill="black" stroke="black" points="835.52,-551.71 832.31,-541.62 828.52,-551.51 835.52,-551.71"/>
</g>
<!-- scippneutron.tof.unwrap.frame_bounds_FrameBounds -->
<g id="node12" class="node">
<title>scippneutron.tof.unwrap.frame_bounds_FrameBounds</title>
<ellipse fill="none" stroke="black" cx="832.84" cy="-378" rx="76.09" ry="18"/>
<text text-anchor="middle" x="832.84" y="-374.3" font-family="Times,serif" font-size="14.00">frame_bounds</text>
</g>
<!-- FrameAtDetector&#45;&gt;scippneutron.tof.unwrap.frame_bounds_FrameBounds -->
<g id="edge10" class="edge">
<title>FrameAtDetector&#45;&gt;scippneutron.tof.unwrap.frame_bounds_FrameBounds</title>
<path fill="none" stroke="black" d="M832.84,-431.7C832.84,-424.41 832.84,-415.73 832.84,-407.54"/>
<polygon fill="black" stroke="black" points="836.34,-407.62 832.84,-397.62 829.34,-407.62 836.34,-407.62"/>
</g>
<!-- scippneutron.tof.unwrap.frame_bounds_FrameBounds&#45;&gt;FrameBounds -->
<g id="edge11" class="edge">
<title>scippneutron.tof.unwrap.frame_bounds_FrameBounds&#45;&gt;FrameBounds</title>
<path fill="none" stroke="black" d="M825.18,-359.7C821.8,-352.07 817.74,-342.92 813.97,-334.4"/>
<polygon fill="black" stroke="black" points="817.28,-333.21 810.03,-325.49 810.87,-336.05 817.28,-333.21"/>
</g>
<!-- scippneutron.tof.unwrap.frame_period_FramePeriod -->
<g id="node13" class="node">
<title>scippneutron.tof.unwrap.frame_period_FramePeriod</title>
<ellipse fill="none" stroke="black" cx="568.84" cy="-522" rx="72.29" ry="18"/>
<text text-anchor="middle" x="568.84" y="-518.3" font-family="Times,serif" font-size="14.00">frame_period</text>
</g>
<!-- scippneutron.tof.unwrap.frame_period_FramePeriod&#45;&gt;FramePeriod -->
<g id="edge14" class="edge">
<title>scippneutron.tof.unwrap.frame_period_FramePeriod&#45;&gt;FramePeriod</title>
<path fill="none" stroke="black" d="M582.71,-503.87C602.65,-479.24 639.59,-433.64 662.88,-404.88"/>
<polygon fill="black" stroke="black" points="665.39,-407.34 668.96,-397.37 659.95,-402.93 665.39,-407.34"/>
</g>
<!-- PulsePeriod -->
<g id="node14" class="node">
<title>PulsePeriod</title>
<polygon fill="none" stroke="red" stroke-dasharray="5,2" points="500.34,-612 399.34,-612 399.34,-576 500.34,-576 500.34,-612"/>
<text text-anchor="middle" x="449.84" y="-590.3" font-family="Times,serif" font-size="14.00" fill="red">PulsePeriod</text>
</g>
<!-- PulsePeriod&#45;&gt;scippneutron.tof.unwrap.frame_period_FramePeriod -->
<g id="edge12" class="edge">
<title>PulsePeriod&#45;&gt;scippneutron.tof.unwrap.frame_period_FramePeriod</title>
<path fill="none" stroke="black" d="M479.56,-575.52C495.44,-566.17 515.14,-554.59 531.99,-544.68"/>
<polygon fill="black" stroke="black" points="533.38,-547.92 540.23,-539.83 529.83,-541.88 533.38,-547.92"/>
</g>
<!-- scippneutron.tof.unwrap.pulse_offset_PulseOffset -->
<g id="node19" class="node">
<title>scippneutron.tof.unwrap.pulse_offset_PulseOffset</title>
<ellipse fill="none" stroke="black" cx="406.84" cy="-522" rx="65.79" ry="18"/>
<text text-anchor="middle" x="406.84" y="-518.3" font-family="Times,serif" font-size="14.00">pulse_offset</text>
</g>
<!-- PulsePeriod&#45;&gt;scippneutron.tof.unwrap.pulse_offset_PulseOffset -->
<g id="edge18" class="edge">
<title>PulsePeriod&#45;&gt;scippneutron.tof.unwrap.pulse_offset_PulseOffset</title>
<path fill="none" stroke="black" d="M439.21,-575.7C434.42,-567.9 428.65,-558.51 423.32,-549.83"/>
<polygon fill="black" stroke="black" points="426.35,-548.08 418.14,-541.39 420.39,-551.75 426.35,-548.08"/>
</g>
<!-- PulseStride -->
<g id="node15" class="node">
<title>PulseStride</title>
<polygon fill="none" stroke="black" points="618.84,-612 518.84,-612 518.84,-576 618.84,-576 618.84,-612"/>
<text text-anchor="middle" x="568.84" y="-590.3" font-family="Times,serif" font-size="14.00">PulseStride</text>
</g>
<!-- PulseStride&#45;&gt;scippneutron.tof.unwrap.frame_period_FramePeriod -->
<g id="edge13" class="edge">
<title>PulseStride&#45;&gt;scippneutron.tof.unwrap.frame_period_FramePeriod</title>
<path fill="none" stroke="black" d="M568.84,-575.7C568.84,-568.41 568.84,-559.73 568.84,-551.54"/>
<polygon fill="black" stroke="black" points="572.34,-551.62 568.84,-541.62 565.34,-551.62 572.34,-551.62"/>
</g>
<!-- PulseStride&#45;&gt;scippneutron.tof.unwrap.pulse_offset_PulseOffset -->
<g id="edge19" class="edge">
<title>PulseStride&#45;&gt;scippneutron.tof.unwrap.pulse_offset_PulseOffset</title>
<path fill="none" stroke="black" d="M528.38,-575.52C504.95,-565.39 475.42,-552.63 451.34,-542.23"/>
<polygon fill="black" stroke="black" points="453,-539.13 442.43,-538.38 450.22,-545.56 453,-539.13"/>
</g>
<!-- scippneutron.tof.unwrap.frame_wrapped_time_offset_pulse_skipping_FrameWrappedTimeOffset -->
<g id="node16" class="node">
<title>scippneutron.tof.unwrap.frame_wrapped_time_offset_pulse_skipping_FrameWrappedTimeOffset</title>
<ellipse fill="none" stroke="black" cx="399.84" cy="-378" rx="211.76" ry="18"/>
<text text-anchor="middle" x="399.84" y="-374.3" font-family="Times,serif" font-size="14.00">frame_wrapped_time_offset_pulse_skipping</text>
</g>
<!-- scippneutron.tof.unwrap.frame_wrapped_time_offset_pulse_skipping_FrameWrappedTimeOffset&#45;&gt;FrameWrappedTimeOffset -->
<g id="edge17" class="edge">
<title>scippneutron.tof.unwrap.frame_wrapped_time_offset_pulse_skipping_FrameWrappedTimeOffset&#45;&gt;FrameWrappedTimeOffset</title>
<path fill="none" stroke="black" d="M422.83,-359.7C434.23,-351.11 448.19,-340.61 460.64,-331.24"/>
<polygon fill="black" stroke="black" points="462.7,-334.07 468.58,-325.26 458.49,-328.47 462.7,-334.07"/>
</g>
<!-- PulseWrappedTimeOffset -->
<g id="node17" class="node">
<title>PulseWrappedTimeOffset</title>
<polygon fill="none" stroke="black" points="310.34,-540 113.34,-540 113.34,-504 310.34,-504 310.34,-540"/>
<text text-anchor="middle" x="211.84" y="-518.3" font-family="Times,serif" font-size="14.00">PulseWrappedTimeOffset</text>
</g>
<!-- PulseWrappedTimeOffset&#45;&gt;scippneutron.tof.unwrap.frame_wrapped_time_offset_pulse_skipping_FrameWrappedTimeOffset -->
<g id="edge15" class="edge">
<title>PulseWrappedTimeOffset&#45;&gt;scippneutron.tof.unwrap.frame_wrapped_time_offset_pulse_skipping_FrameWrappedTimeOffset</title>
<path fill="none" stroke="black" d="M234.89,-503.59C268.24,-478.4 330.09,-431.68 367.84,-403.17"/>
<polygon fill="black" stroke="black" points="369.81,-406.06 375.68,-397.24 365.59,-400.48 369.81,-406.06"/>
</g>
<!-- PulseOffset -->
<g id="node18" class="node">
<title>PulseOffset</title>
<polygon fill="none" stroke="black" points="451.84,-468 353.84,-468 353.84,-432 451.84,-432 451.84,-468"/>
<text text-anchor="middle" x="402.84" y="-446.3" font-family="Times,serif" font-size="14.00">PulseOffset</text>
</g>
<!-- PulseOffset&#45;&gt;scippneutron.tof.unwrap.frame_wrapped_time_offset_pulse_skipping_FrameWrappedTimeOffset -->
<g id="edge16" class="edge">
<title>PulseOffset&#45;&gt;scippneutron.tof.unwrap.frame_wrapped_time_offset_pulse_skipping_FrameWrappedTimeOffset</title>
<path fill="none" stroke="black" d="M402.1,-431.7C401.78,-424.41 401.41,-415.73 401.06,-407.54"/>
<polygon fill="black" stroke="black" points="404.56,-407.46 400.64,-397.62 397.57,-407.76 404.56,-407.46"/>
</g>
<!-- scippneutron.tof.unwrap.pulse_offset_PulseOffset&#45;&gt;PulseOffset -->
<g id="edge21" class="edge">
<title>scippneutron.tof.unwrap.pulse_offset_PulseOffset&#45;&gt;PulseOffset</title>
<path fill="none" stroke="black" d="M405.85,-503.7C405.43,-496.41 404.94,-487.73 404.47,-479.54"/>
<polygon fill="black" stroke="black" points="407.97,-479.4 403.9,-469.62 400.98,-479.8 407.97,-479.4"/>
</g>
<!-- TimeZero -->
<g id="node20" class="node">
<title>TimeZero</title>
<polygon fill="none" stroke="black" points="381.34,-612 296.34,-612 296.34,-576 381.34,-576 381.34,-612"/>
<text text-anchor="middle" x="338.84" y="-590.3" font-family="Times,serif" font-size="14.00">TimeZero</text>
</g>
<!-- TimeZero&#45;&gt;scippneutron.tof.unwrap.pulse_offset_PulseOffset -->
<g id="edge20" class="edge">
<title>TimeZero&#45;&gt;scippneutron.tof.unwrap.pulse_offset_PulseOffset</title>
<path fill="none" stroke="black" d="M355.65,-575.7C363.84,-567.27 373.83,-556.97 382.81,-547.73"/>
<polygon fill="black" stroke="black" points="385.18,-550.32 389.64,-540.71 380.16,-545.44 385.18,-550.32"/>
</g>
<!-- sciline.provide_none_PulseStride -->
<g id="node21" class="node">
<title>sciline.provide_none_PulseStride</title>
<ellipse fill="none" stroke="black" cx="631.84" cy="-666" rx="211.76" ry="18"/>
<text text-anchor="middle" x="631.84" y="-662.3" font-family="Times,serif" font-size="14.00">Provider.provide_none.&lt;locals&gt;.&lt;lambda&gt;</text>
</g>
<!-- sciline.provide_none_PulseStride&#45;&gt;PulseStride -->
<g id="edge22" class="edge">
<title>sciline.provide_none_PulseStride&#45;&gt;PulseStride</title>
<path fill="none" stroke="black" d="M616.26,-647.7C608.86,-639.47 599.87,-629.48 591.72,-620.42"/>
<polygon fill="black" stroke="black" points="594.54,-618.32 585.24,-613.23 589.33,-623 594.54,-618.32"/>
</g>
<!-- scippneutron.tof.unwrap.pulse_wrapped_time_offset_PulseWrappedTimeOffset -->
<g id="node22" class="node">
<title>scippneutron.tof.unwrap.pulse_wrapped_time_offset_PulseWrappedTimeOffset</title>
<ellipse fill="none" stroke="black" cx="135.84" cy="-666" rx="135.68" ry="18"/>
<text text-anchor="middle" x="135.84" y="-662.3" font-family="Times,serif" font-size="14.00">pulse_wrapped_time_offset</text>
</g>
<!-- scippneutron.tof.unwrap.pulse_wrapped_time_offset_PulseWrappedTimeOffset&#45;&gt;PulseWrappedTimeOffset -->
<g id="edge24" class="edge">
<title>scippneutron.tof.unwrap.pulse_wrapped_time_offset_PulseWrappedTimeOffset&#45;&gt;PulseWrappedTimeOffset</title>
<path fill="none" stroke="black" d="M145.16,-647.59C158.22,-623.18 182.09,-578.58 197.44,-549.89"/>
<polygon fill="black" stroke="black" points="200.33,-551.91 201.97,-541.45 194.16,-548.61 200.33,-551.91"/>
</g>
<!-- RawData -->
<g id="node23" class="node">
<title>RawData</title>
<polygon fill="none" stroke="red" stroke-dasharray="5,2" points="386.34,-756 305.34,-756 305.34,-720 386.34,-720 386.34,-756"/>
<text text-anchor="middle" x="345.84" y="-734.3" font-family="Times,serif" font-size="14.00" fill="red">RawData</text>
</g>
<!-- RawData&#45;&gt;scippneutron.tof.unwrap.pulse_wrapped_time_offset_PulseWrappedTimeOffset -->
<g id="edge23" class="edge">
<title>RawData&#45;&gt;scippneutron.tof.unwrap.pulse_wrapped_time_offset_PulseWrappedTimeOffset</title>
<path fill="none" stroke="black" d="M304.85,-723.34C273.59,-712.92 230.08,-698.42 195.04,-686.73"/>
<polygon fill="black" stroke="black" points="196.49,-683.53 185.9,-683.69 194.28,-690.17 196.49,-683.53"/>
</g>
<!-- scippneutron.tof.unwrap.time_zero_TimeZero -->
<g id="node24" class="node">
<title>scippneutron.tof.unwrap.time_zero_TimeZero</title>
<ellipse fill="none" stroke="black" cx="345.84" cy="-666" rx="55.79" ry="18"/>
<text text-anchor="middle" x="345.84" y="-662.3" font-family="Times,serif" font-size="14.00">time_zero</text>
</g>
<!-- RawData&#45;&gt;scippneutron.tof.unwrap.time_zero_TimeZero -->
<g id="edge25" class="edge">
<title>RawData&#45;&gt;scippneutron.tof.unwrap.time_zero_TimeZero</title>
<path fill="none" stroke="black" d="M345.84,-719.7C345.84,-712.41 345.84,-703.73 345.84,-695.54"/>
<polygon fill="black" stroke="black" points="349.34,-695.62 345.84,-685.62 342.34,-695.62 349.34,-695.62"/>
</g>
<!-- RawData&#45;&gt;scippneutron.tof.unwrap.unwrap_data_UnwrappedData -->
<g id="edge27" class="edge">
<title>RawData&#45;&gt;scippneutron.tof.unwrap.unwrap_data_UnwrappedData</title>
<path fill="none" stroke="black" d="M386.69,-734.63C557.4,-724.17 1204.84,-678.99 1204.84,-595 1204.84,-595 1204.84,-595 1204.84,-233 1204.84,-166.88 1129.78,-127.55 1074.77,-107.6"/>
<polygon fill="black" stroke="black" points="1076.09,-104.35 1065.49,-104.36 1073.78,-110.96 1076.09,-104.35"/>
</g>
<!-- scippneutron.tof.unwrap.time_zero_TimeZero&#45;&gt;TimeZero -->
<g id="edge26" class="edge">
<title>scippneutron.tof.unwrap.time_zero_TimeZero&#45;&gt;TimeZero</title>
<path fill="none" stroke="black" d="M344.11,-647.7C343.38,-640.41 342.51,-631.73 341.69,-623.54"/>
<polygon fill="black" stroke="black" points="345.18,-623.21 340.7,-613.61 338.21,-623.91 345.18,-623.21"/>
</g>
<!-- UnwrappedData -->
<g id="node26" class="node">
<title>UnwrappedData</title>
<polygon fill="none" stroke="black" points="1084.84,-36 950.84,-36 950.84,0 1084.84,0 1084.84,-36"/>
<text text-anchor="middle" x="1017.84" y="-14.3" font-family="Times,serif" font-size="14.00">UnwrappedData</text>
</g>
<!-- scippneutron.tof.unwrap.unwrap_data_UnwrappedData&#45;&gt;UnwrappedData -->
<g id="edge29" class="edge">
<title>scippneutron.tof.unwrap.unwrap_data_UnwrappedData&#45;&gt;UnwrappedData</title>
<path fill="none" stroke="black" d="M1017.84,-71.7C1017.84,-64.41 1017.84,-55.73 1017.84,-47.54"/>
<polygon fill="black" stroke="black" points="1021.34,-47.62 1017.84,-37.62 1014.34,-47.62 1021.34,-47.62"/>
</g>
</g>
</svg>
