<?xml version="1.0" encoding="UTF-8" standalone="no"?>
<!DOCTYPE svg PUBLIC "-//W3C//DTD SVG 1.1//EN"
 "http://www.w3.org/Graphics/SVG/1.1/DTD/svg11.dtd">
<!-- Generated by graphviz version 11.0.0 (20240519.1550)
 -->
<!-- Pages: 1 -->
<svg width="881pt" height="378pt"
 viewBox="0.00 0.00 880.62 378.25" xmlns="http://www.w3.org/2000/svg" xmlns:xlink="http://www.w3.org/1999/xlink">
<g id="graph0" class="graph" transform="scale(1 1) rotate(0) translate(4 374.25)">
<polygon fill="white" stroke="none" points="-4,4 -4,-374.25 876.62,-374.25 876.62,4 -4,4"/>
<!-- SourceWavelengthRange -->
<g id="node1" class="node">
<title>SourceWavelengthRange</title>
<polygon fill="none" stroke="red" stroke-dasharray="5,2" points="628.75,-370.25 434.25,-370.25 434.25,-345 628.75,-345 628.75,-370.25"/>
<text text-anchor="middle" x="531.5" y="-352.95" font-family="Times,serif" font-size="14.00" fill="red">SourceWavelengthRange</text>
</g>
<!-- ChopperCascadeFrames -->
<g id="node2" class="node">
<title>ChopperCascadeFrames</title>
<polygon fill="none" stroke="black" points="803.5,-309 613.5,-309 613.5,-276 803.5,-276 803.5,-309"/>
<text text-anchor="start" x="621.5" y="-292.7" font-family="Times,serif" font-size="14.00">ChopperCascadeFrames</text>
<text text-anchor="start" x="628.62" y="-281.55" font-family="Times,serif" font-size="11.00">via:</text>
<text text-anchor="start" x="648.88" y="-281.55" font-family="Times,serif" font-style="italic" font-size="11.00">chopper_cascade_frames</text>
</g>
<!-- SourceWavelengthRange&#45;&gt;ChopperCascadeFrames -->
<g id="edge1" class="edge">
<title>SourceWavelengthRange&#45;&gt;ChopperCascadeFrames</title>
<path fill="none" stroke="black" d="M565.21,-344.6C590.02,-335.75 624.31,-323.52 653.13,-313.25"/>
<polygon fill="black" stroke="black" points="654.2,-316.58 662.44,-309.93 651.85,-309.99 654.2,-316.58"/>
</g>
<!-- FrameAtDetector -->
<g id="node9" class="node">
<title>FrameAtDetector</title>
<polygon fill="none" stroke="black" points="713.75,-240 573.25,-240 573.25,-207 713.75,-207 713.75,-240"/>
<text text-anchor="start" x="581.25" y="-223.7" font-family="Times,serif" font-size="14.00">FrameAtDetector</text>
<text text-anchor="start" x="582.38" y="-212.55" font-family="Times,serif" font-size="11.00">via:</text>
<text text-anchor="start" x="602.62" y="-212.55" font-family="Times,serif" font-style="italic" font-size="11.00">frame_at_detector</text>
</g>
<!-- ChopperCascadeFrames&#45;&gt;FrameAtDetector -->
<g id="edge7" class="edge">
<title>ChopperCascadeFrames&#45;&gt;FrameAtDetector</title>
<path fill="none" stroke="black" d="M693.1,-275.62C685.24,-267.53 675.53,-257.52 666.79,-248.5"/>
<polygon fill="black" stroke="black" points="669.32,-246.09 659.85,-241.35 664.3,-250.96 669.32,-246.09"/>
</g>
<!-- SourceTimeRange -->
<g id="node3" class="node">
<title>SourceTimeRange</title>
<polygon fill="none" stroke="red" stroke-dasharray="5,2" points="781.38,-370.25 635.62,-370.25 635.62,-345 781.38,-345 781.38,-370.25"/>
<text text-anchor="middle" x="708.5" y="-352.95" font-family="Times,serif" font-size="14.00" fill="red">SourceTimeRange</text>
</g>
<!-- SourceTimeRange&#45;&gt;ChopperCascadeFrames -->
<g id="edge2" class="edge">
<title>SourceTimeRange&#45;&gt;ChopperCascadeFrames</title>
<path fill="none" stroke="black" d="M708.5,-344.75C708.5,-337.95 708.5,-329.13 708.5,-320.72"/>
<polygon fill="black" stroke="black" points="712,-320.89 708.5,-310.89 705,-320.89 712,-320.89"/>
</g>
<!-- Choppers -->
<g id="node4" class="node">
<title>Choppers</title>
<polygon fill="none" stroke="red" stroke-dasharray="5,2" points="872.62,-370.25 788.38,-370.25 788.38,-345 872.62,-345 872.62,-370.25"/>
<text text-anchor="middle" x="830.5" y="-352.95" font-family="Times,serif" font-size="14.00" fill="red">Choppers</text>
</g>
<!-- Choppers&#45;&gt;ChopperCascadeFrames -->
<g id="edge3" class="edge">
<title>Choppers&#45;&gt;ChopperCascadeFrames</title>
<path fill="none" stroke="black" d="M807.27,-344.6C790.86,-336.11 768.44,-324.51 749.11,-314.51"/>
<polygon fill="black" stroke="black" points="750.87,-311.48 740.38,-309.99 747.65,-317.7 750.87,-311.48"/>
</g>
<!-- FrameWrappedTimeOffset -->
<g id="node5" class="node">
<title>FrameWrappedTimeOffset</title>
<polygon fill="none" stroke="black" points="225.62,-171 21.37,-171 21.37,-138 225.62,-138 225.62,-171"/>
<text text-anchor="start" x="29.38" y="-154.7" font-family="Times,serif" font-size="14.00">FrameWrappedTimeOffset</text>
<text text-anchor="start" x="36.12" y="-143.55" font-family="Times,serif" font-size="11.00">via:</text>
<text text-anchor="start" x="56.38" y="-143.55" font-family="Times,serif" font-style="italic" font-size="11.00">frame_wrapped_time_offset</text>
</g>
<!-- DeltaFromWrapped -->
<g id="node6" class="node">
<title>DeltaFromWrapped</title>
<polygon fill="none" stroke="black" points="283.62,-102 127.38,-102 127.38,-69 283.62,-69 283.62,-102"/>
<text text-anchor="start" x="135.38" y="-85.7" font-family="Times,serif" font-size="14.00">DeltaFromWrapped</text>
<text text-anchor="start" x="136.88" y="-74.55" font-family="Times,serif" font-size="11.00">via:</text>
<text text-anchor="start" x="157.12" y="-74.55" font-family="Times,serif" font-style="italic" font-size="11.00">offset_from_wrapped</text>
</g>
<!-- FrameWrappedTimeOffset&#45;&gt;DeltaFromWrapped -->
<g id="edge4" class="edge">
<title>FrameWrappedTimeOffset&#45;&gt;DeltaFromWrapped</title>
<path fill="none" stroke="black" d="M142.93,-137.62C153.17,-129.26 165.92,-118.84 177.23,-109.6"/>
<polygon fill="black" stroke="black" points="179.22,-112.49 184.75,-103.45 174.79,-107.07 179.22,-112.49"/>
</g>
<!-- UnwrappedData -->
<g id="node15" class="node">
<title>UnwrappedData</title>
<polygon fill="none" stroke="black" points="133,-33 0,-33 0,0 133,0 133,-33"/>
<text text-anchor="start" x="8" y="-16.7" font-family="Times,serif" font-size="14.00">UnwrappedData</text>
<text text-anchor="start" x="20.38" y="-5.55" font-family="Times,serif" font-size="11.00">via:</text>
<text text-anchor="start" x="40.62" y="-5.55" font-family="Times,serif" font-style="italic" font-size="11.00">unwrap_data</text>
</g>
<!-- DeltaFromWrapped&#45;&gt;UnwrappedData -->
<g id="edge15" class="edge">
<title>DeltaFromWrapped&#45;&gt;UnwrappedData</title>
<path fill="none" stroke="black" d="M172.56,-68.62C153.83,-59.59 130.14,-48.18 109.91,-38.42"/>
<polygon fill="black" stroke="black" points="111.58,-35.34 101.05,-34.15 108.54,-41.65 111.58,-35.34"/>
</g>
<!-- FrameBounds -->
<g id="node7" class="node">
<title>FrameBounds</title>
<polygon fill="none" stroke="black" points="583.38,-171 467.62,-171 467.62,-138 583.38,-138 583.38,-171"/>
<text text-anchor="start" x="475.62" y="-154.7" font-family="Times,serif" font-size="14.00">FrameBounds</text>
<text text-anchor="start" x="476.38" y="-143.55" font-family="Times,serif" font-size="11.00">via:</text>
<text text-anchor="start" x="496.62" y="-143.55" font-family="Times,serif" font-style="italic" font-size="11.00">frame_bounds</text>
</g>
<!-- FrameBounds&#45;&gt;DeltaFromWrapped -->
<g id="edge5" class="edge">
<title>FrameBounds&#45;&gt;DeltaFromWrapped</title>
<path fill="none" stroke="black" d="M467.18,-141.29C418.52,-131.1 348.45,-116.43 293.05,-104.83"/>
<polygon fill="black" stroke="black" points="293.81,-101.41 283.31,-102.79 292.38,-108.27 293.81,-101.41"/>
</g>
<!-- FramePeriod -->
<g id="node8" class="node">
<title>FramePeriod</title>
<polygon fill="none" stroke="black" points="342.75,-171 232.25,-171 232.25,-138 342.75,-138 342.75,-171"/>
<text text-anchor="start" x="241.38" y="-154.7" font-family="Times,serif" font-size="14.00">FramePeriod</text>
<text text-anchor="start" x="240.25" y="-143.55" font-family="Times,serif" font-size="11.00">via:</text>
<text text-anchor="start" x="260.5" y="-143.55" font-family="Times,serif" font-style="italic" font-size="11.00">frame_period</text>
</g>
<!-- FramePeriod&#45;&gt;DeltaFromWrapped -->
<g id="edge6" class="edge">
<title>FramePeriod&#45;&gt;DeltaFromWrapped</title>
<path fill="none" stroke="black" d="M268.07,-137.62C257.83,-129.26 245.08,-118.84 233.77,-109.6"/>
<polygon fill="black" stroke="black" points="236.21,-107.07 226.25,-103.45 231.78,-112.49 236.21,-107.07"/>
</g>
<!-- FrameAtDetector&#45;&gt;FrameBounds -->
<g id="edge9" class="edge">
<title>FrameAtDetector&#45;&gt;FrameBounds</title>
<path fill="none" stroke="black" d="M615.54,-206.62C599.93,-197.76 580.26,-186.59 563.3,-176.96"/>
<polygon fill="black" stroke="black" points="565.41,-174.14 554.99,-172.24 561.96,-180.22 565.41,-174.14"/>
</g>
<!-- Ltotal -->
<g id="node10" class="node">
<title>Ltotal</title>
<polygon fill="none" stroke="red" stroke-dasharray="5,2" points="606.5,-305.12 548.5,-305.12 548.5,-279.88 606.5,-279.88 606.5,-305.12"/>
<text text-anchor="middle" x="577.5" y="-287.82" font-family="Times,serif" font-size="14.00" fill="red">Ltotal</text>
</g>
<!-- Ltotal&#45;&gt;FrameAtDetector -->
<g id="edge8" class="edge">
<title>Ltotal&#45;&gt;FrameAtDetector</title>
<path fill="none" stroke="black" d="M589.3,-279.52C597.84,-270.85 609.67,-258.84 620.1,-248.25"/>
<polygon fill="black" stroke="black" points="622.49,-250.82 627.01,-241.24 617.5,-245.9 622.49,-250.82"/>
</g>
<!-- PulsePeriod -->
<g id="node11" class="node">
<title>PulsePeriod</title>
<polygon fill="none" stroke="red" stroke-dasharray="5,2" points="325.88,-236.12 225.12,-236.12 225.12,-210.88 325.88,-210.88 325.88,-236.12"/>
<text text-anchor="middle" x="275.5" y="-218.82" font-family="Times,serif" font-size="14.00" fill="red">PulsePeriod</text>
</g>
<!-- PulsePeriod&#45;&gt;FramePeriod -->
<g id="edge10" class="edge">
<title>PulsePeriod&#45;&gt;FramePeriod</title>
<path fill="none" stroke="black" d="M277.65,-210.52C279.04,-202.71 280.93,-192.19 282.68,-182.43"/>
<polygon fill="black" stroke="black" points="286.11,-183.11 284.43,-172.65 279.22,-181.87 286.11,-183.11"/>
</g>
<!-- Union[PulseStride, NoneType] -->
<g id="node12" class="node">
<title>Union[PulseStride, NoneType]</title>
<polygon fill="none" stroke="red" stroke-dasharray="5,2" points="566.25,-236.12 332.75,-236.12 332.75,-210.88 566.25,-210.88 566.25,-236.12"/>
<text text-anchor="middle" x="449.5" y="-218.82" font-family="Times,serif" font-size="14.00" fill="red">Union[PulseStride, NoneType]</text>
</g>
<!-- Union[PulseStride, NoneType]&#45;&gt;FramePeriod -->
<g id="edge11" class="edge">
<title>Union[PulseStride, NoneType]&#45;&gt;FramePeriod</title>
<path fill="none" stroke="black" d="M420.54,-210.52C397.24,-200.89 363.98,-187.13 336.54,-175.78"/>
<polygon fill="black" stroke="black" points="337.94,-172.57 327.36,-171.98 335.26,-179.04 337.94,-172.57"/>
</g>
<!-- PulseWrappedTimeOffset -->
<g id="node13" class="node">
<title>PulseWrappedTimeOffset</title>
<polygon fill="none" stroke="black" points="217.88,-240 21.12,-240 21.12,-207 217.88,-207 217.88,-240"/>
<text text-anchor="start" x="29.12" y="-223.7" font-family="Times,serif" font-size="14.00">PulseWrappedTimeOffset</text>
<text text-anchor="start" x="33.62" y="-212.55" font-family="Times,serif" font-size="11.00">via:</text>
<text text-anchor="start" x="53.88" y="-212.55" font-family="Times,serif" font-style="italic" font-size="11.00">pulse_wrapped_time_offset</text>
</g>
<!-- PulseWrappedTimeOffset&#45;&gt;FrameWrappedTimeOffset -->
<g id="edge12" class="edge">
<title>PulseWrappedTimeOffset&#45;&gt;FrameWrappedTimeOffset</title>
<path fill="none" stroke="black" d="M120.45,-206.62C120.88,-199.45 121.39,-190.76 121.88,-182.6"/>
<polygon fill="black" stroke="black" points="125.37,-182.97 122.47,-172.77 118.38,-182.55 125.37,-182.97"/>
</g>
<!-- RawData -->
<g id="node14" class="node">
<title>RawData</title>
<polygon fill="none" stroke="red" stroke-dasharray="5,2" points="105.75,-305.12 25.25,-305.12 25.25,-279.88 105.75,-279.88 105.75,-305.12"/>
<text text-anchor="middle" x="65.5" y="-287.82" font-family="Times,serif" font-size="14.00" fill="red">RawData</text>
</g>
<!-- RawData&#45;&gt;PulseWrappedTimeOffset -->
<g id="edge13" class="edge">
<title>RawData&#45;&gt;PulseWrappedTimeOffset</title>
<path fill="none" stroke="black" d="M75.15,-279.52C82.01,-271.02 91.44,-259.31 99.85,-248.88"/>
<polygon fill="black" stroke="black" points="102.38,-251.32 105.93,-241.34 96.93,-246.93 102.38,-251.32"/>
</g>
<!-- RawData&#45;&gt;UnwrappedData -->
<g id="edge14" class="edge">
<title>RawData&#45;&gt;UnwrappedData</title>
<path fill="none" stroke="black" d="M49.54,-279.49C38.49,-270.12 24.71,-256.03 18.5,-240 -7.98,-171.7 29.05,-85.66 51.51,-43.37"/>
<polygon fill="black" stroke="black" points="54.53,-45.14 56.26,-34.69 48.39,-41.78 54.53,-45.14"/>
</g>
</g>
</svg>
