<?xml version="1.0" encoding="UTF-8" standalone="no"?>
<!DOCTYPE svg PUBLIC "-//W3C//DTD SVG 1.1//EN"
 "http://www.w3.org/Graphics/SVG/1.1/DTD/svg11.dtd">
<!-- Generated by graphviz version 7.1.0 (20230122.1345)
 -->
<!-- Pages: 1 -->
<svg width="854pt" height="326pt"
 viewBox="0.00 0.00 853.50 326.00" xmlns="http://www.w3.org/2000/svg" xmlns:xlink="http://www.w3.org/1999/xlink">
<g id="graph0" class="graph" transform="scale(1 1) rotate(0) translate(4 322)">
<polygon fill="white" stroke="none" points="-4,4 -4,-322 849.5,-322 849.5,4 -4,4"/>
<!-- tof -->
<g id="node1" class="node">
<title>tof</title>
<polygon fill="none" stroke="black" points="500.5,-318 446.5,-318 446.5,-295 500.5,-295 500.5,-318"/>
<text text-anchor="middle" x="473.5" y="-302.8" font-family="Times,serif" font-size="14.00">tof</text>
</g>
<!-- dspacing -->
<g id="node2" class="node">
<title>dspacing</title>
<polygon fill="none" stroke="black" points="117.5,-259 37.5,-259 37.5,-236 117.5,-236 117.5,-259"/>
<text text-anchor="middle" x="77.5" y="-243.8" font-family="Times,serif" font-size="14.00">dspacing</text>
</g>
<!-- tof&#45;&gt;dspacing -->
<g id="edge1" class="edge">
<title>tof&#45;&gt;dspacing</title>
<path fill="none" stroke="black" d="M446.39,-302.6C389.52,-296.35 253.36,-280.58 129.05,-259.34"/>
<polygon fill="black" stroke="black" points="129.77,-255.91 119.32,-257.66 128.58,-262.81 129.77,-255.91"/>
</g>
<!-- energy -->
<g id="node5" class="node">
<title>energy</title>
<polygon fill="none" stroke="black" points="349.5,-259 283.5,-259 283.5,-236 349.5,-236 349.5,-259"/>
<text text-anchor="middle" x="316.5" y="-243.8" font-family="Times,serif" font-size="14.00">energy</text>
</g>
<!-- tof&#45;&gt;energy -->
<g id="edge4" class="edge">
<title>tof&#45;&gt;energy</title>
<path fill="none" stroke="black" d="M446.15,-295.57C421.64,-286.67 385.35,-273.5 357.39,-263.35"/>
<polygon fill="black" stroke="black" points="358.76,-260.12 348.17,-260 356.38,-266.7 358.76,-260.12"/>
</g>
<!-- wavelength -->
<g id="node15" class="node">
<title>wavelength</title>
<polygon fill="none" stroke="black" points="605,-259 506,-259 506,-236 605,-236 605,-259"/>
<text text-anchor="middle" x="555.5" y="-243.8" font-family="Times,serif" font-size="14.00">wavelength</text>
</g>
<!-- tof&#45;&gt;wavelength -->
<g id="edge28" class="edge">
<title>tof&#45;&gt;wavelength</title>
<path fill="none" stroke="black" d="M489.31,-294.51C500.99,-286.39 517.14,-275.17 530.55,-265.84"/>
<polygon fill="black" stroke="black" points="532.28,-268.9 538.5,-260.32 528.29,-263.15 532.28,-268.9"/>
</g>
<!-- time_at_sample -->
<g id="node23" class="node">
<title>time_at_sample</title>
<polygon fill="none" stroke="black" points="796.5,-200 668.5,-200 668.5,-177 796.5,-177 796.5,-200"/>
<text text-anchor="middle" x="732.5" y="-184.8" font-family="Times,serif" font-size="14.00">time_at_sample</text>
</g>
<!-- tof&#45;&gt;time_at_sample -->
<g id="edge31" class="edge">
<title>tof&#45;&gt;time_at_sample</title>
<path fill="none" stroke="black" d="M500.97,-298.21C529.67,-290.17 575.69,-276.09 613.5,-259 647.11,-243.8 683.4,-221.7 706.95,-206.52"/>
<polygon fill="black" stroke="black" points="708.79,-209.51 715.25,-201.11 704.96,-203.64 708.79,-209.51"/>
</g>
<!-- Ltotal -->
<g id="node3" class="node">
<title>Ltotal</title>
<polygon fill="none" stroke="black" points="346,-318 287,-318 287,-295 346,-295 346,-318"/>
<text text-anchor="middle" x="316.5" y="-302.8" font-family="Times,serif" font-size="14.00">Ltotal</text>
</g>
<!-- Ltotal&#45;&gt;dspacing -->
<g id="edge2" class="edge">
<title>Ltotal&#45;&gt;dspacing</title>
<path fill="none" stroke="black" d="M286.71,-298.4C247.21,-288.97 176.88,-272.2 128.76,-260.73"/>
<polygon fill="black" stroke="black" points="129.65,-257.34 119.12,-258.43 128.03,-264.15 129.65,-257.34"/>
</g>
<!-- Ltotal&#45;&gt;energy -->
<g id="edge5" class="edge">
<title>Ltotal&#45;&gt;energy</title>
<path fill="none" stroke="black" d="M316.5,-294.51C316.5,-287.81 316.5,-278.99 316.5,-270.88"/>
<polygon fill="black" stroke="black" points="320,-270.97 316.5,-260.97 313,-270.97 320,-270.97"/>
</g>
<!-- Ltotal&#45;&gt;wavelength -->
<g id="edge29" class="edge">
<title>Ltotal&#45;&gt;wavelength</title>
<path fill="none" stroke="black" d="M346.29,-298.4C384.28,-289.33 450.8,-273.47 498.64,-262.06"/>
<polygon fill="black" stroke="black" points="499.38,-265.48 508.29,-259.76 497.75,-258.67 499.38,-265.48"/>
</g>
<!-- two_theta -->
<g id="node4" class="node">
<title>two_theta</title>
<polygon fill="none" stroke="black" points="87,-318 0,-318 0,-295 87,-295 87,-318"/>
<text text-anchor="middle" x="43.5" y="-302.8" font-family="Times,serif" font-size="14.00">two_theta</text>
</g>
<!-- two_theta&#45;&gt;dspacing -->
<g id="edge3" class="edge">
<title>two_theta&#45;&gt;dspacing</title>
<path fill="none" stroke="black" d="M50.06,-294.51C54.34,-287.33 60.06,-277.74 65.17,-269.17"/>
<polygon fill="black" stroke="black" points="68.07,-271.14 70.19,-260.76 62.06,-267.55 68.07,-271.14"/>
</g>
<!-- Q -->
<g id="node16" class="node">
<title>Q</title>
<polygon fill="none" stroke="black" points="137.5,-200 83.5,-200 83.5,-177 137.5,-177 137.5,-200"/>
<text text-anchor="middle" x="110.5" y="-184.8" font-family="Times,serif" font-size="14.00">Q</text>
</g>
<!-- two_theta&#45;&gt;Q -->
<g id="edge15" class="edge">
<title>two_theta&#45;&gt;Q</title>
<path fill="none" stroke="black" d="M36.68,-294.64C28.63,-280.29 17.63,-254.67 28.5,-236 38.1,-219.53 55.94,-208.42 72.53,-201.2"/>
<polygon fill="black" stroke="black" points="73.74,-204.49 81.75,-197.56 71.16,-197.98 73.74,-204.49"/>
</g>
<!-- Q_vec -->
<g id="node6" class="node">
<title>Q_vec</title>
<polygon fill="none" stroke="black" points="418,-141 359,-141 359,-118 418,-118 418,-141"/>
<text text-anchor="middle" x="388.5" y="-125.8" font-family="Times,serif" font-size="14.00">Q_vec</text>
</g>
<!-- hkl_vec -->
<g id="node7" class="node">
<title>hkl_vec</title>
<polygon fill="none" stroke="black" points="547,-82 478,-82 478,-59 547,-59 547,-82"/>
<text text-anchor="middle" x="512.5" y="-66.8" font-family="Times,serif" font-size="14.00">hkl_vec</text>
</g>
<!-- Q_vec&#45;&gt;hkl_vec -->
<g id="edge6" class="edge">
<title>Q_vec&#45;&gt;hkl_vec</title>
<path fill="none" stroke="black" d="M412.41,-117.51C431.11,-108.91 457.35,-96.85 478.28,-87.23"/>
<polygon fill="black" stroke="black" points="479.67,-90.45 487.29,-83.09 476.74,-84.09 479.67,-90.45"/>
</g>
<!-- h -->
<g id="node10" class="node">
<title>h</title>
<polygon fill="none" stroke="black" points="467.5,-23 413.5,-23 413.5,0 467.5,0 467.5,-23"/>
<text text-anchor="middle" x="440.5" y="-7.8" font-family="Times,serif" font-size="14.00">h</text>
</g>
<!-- hkl_vec&#45;&gt;h -->
<g id="edge9" class="edge">
<title>hkl_vec&#45;&gt;h</title>
<path fill="none" stroke="black" d="M498.62,-58.51C488.56,-50.55 474.73,-39.6 463.09,-30.39"/>
<polygon fill="black" stroke="black" points="465.54,-27.86 455.53,-24.4 461.19,-33.35 465.54,-27.86"/>
</g>
<!-- k -->
<g id="node11" class="node">
<title>k</title>
<polygon fill="none" stroke="black" points="539.5,-23 485.5,-23 485.5,0 539.5,0 539.5,-23"/>
<text text-anchor="middle" x="512.5" y="-7.8" font-family="Times,serif" font-size="14.00">k</text>
</g>
<!-- hkl_vec&#45;&gt;k -->
<g id="edge10" class="edge">
<title>hkl_vec&#45;&gt;k</title>
<path fill="none" stroke="black" d="M512.5,-58.51C512.5,-51.81 512.5,-42.99 512.5,-34.88"/>
<polygon fill="black" stroke="black" points="516,-34.97 512.5,-24.97 509,-34.97 516,-34.97"/>
</g>
<!-- l -->
<g id="node12" class="node">
<title>l</title>
<polygon fill="none" stroke="black" points="611.5,-23 557.5,-23 557.5,0 611.5,0 611.5,-23"/>
<text text-anchor="middle" x="584.5" y="-7.8" font-family="Times,serif" font-size="14.00">l</text>
</g>
<!-- hkl_vec&#45;&gt;l -->
<g id="edge11" class="edge">
<title>hkl_vec&#45;&gt;l</title>
<path fill="none" stroke="black" d="M526.38,-58.51C536.44,-50.55 550.27,-39.6 561.91,-30.39"/>
<polygon fill="black" stroke="black" points="563.81,-33.35 569.47,-24.4 559.46,-27.86 563.81,-33.35"/>
</g>
<!-- ub_matrix -->
<g id="node8" class="node">
<title>ub_matrix</title>
<polygon fill="none" stroke="black" points="557,-141 468,-141 468,-118 557,-118 557,-141"/>
<text text-anchor="middle" x="512.5" y="-125.8" font-family="Times,serif" font-size="14.00">ub_matrix</text>
</g>
<!-- ub_matrix&#45;&gt;hkl_vec -->
<g id="edge7" class="edge">
<title>ub_matrix&#45;&gt;hkl_vec</title>
<path fill="none" stroke="black" d="M512.5,-117.51C512.5,-110.81 512.5,-101.99 512.5,-93.88"/>
<polygon fill="black" stroke="black" points="516,-93.97 512.5,-83.97 509,-93.97 516,-93.97"/>
</g>
<!-- sample_rotation -->
<g id="node9" class="node">
<title>sample_rotation</title>
<polygon fill="none" stroke="black" points="706,-141 575,-141 575,-118 706,-118 706,-141"/>
<text text-anchor="middle" x="640.5" y="-125.8" font-family="Times,serif" font-size="14.00">sample_rotation</text>
</g>
<!-- sample_rotation&#45;&gt;hkl_vec -->
<g id="edge8" class="edge">
<title>sample_rotation&#45;&gt;hkl_vec</title>
<path fill="none" stroke="black" d="M615.82,-117.51C596.43,-108.88 569.18,-96.74 547.53,-87.1"/>
<polygon fill="black" stroke="black" points="549.05,-83.94 538.49,-83.07 546.2,-90.34 549.05,-83.94"/>
</g>
<!-- u_matrix -->
<g id="node13" class="node">
<title>u_matrix</title>
<polygon fill="none" stroke="black" points="650.5,-200 570.5,-200 570.5,-177 650.5,-177 650.5,-200"/>
<text text-anchor="middle" x="610.5" y="-184.8" font-family="Times,serif" font-size="14.00">u_matrix</text>
</g>
<!-- u_matrix&#45;&gt;ub_matrix -->
<g id="edge12" class="edge">
<title>u_matrix&#45;&gt;ub_matrix</title>
<path fill="none" stroke="black" d="M591.6,-176.51C577.23,-168.15 557.22,-156.51 540.92,-147.03"/>
<polygon fill="black" stroke="black" points="543.05,-144.22 532.65,-142.22 539.53,-150.27 543.05,-144.22"/>
</g>
<!-- b_matrix -->
<g id="node14" class="node">
<title>b_matrix</title>
<polygon fill="none" stroke="black" points="552.5,-200 472.5,-200 472.5,-177 552.5,-177 552.5,-200"/>
<text text-anchor="middle" x="512.5" y="-184.8" font-family="Times,serif" font-size="14.00">b_matrix</text>
</g>
<!-- b_matrix&#45;&gt;ub_matrix -->
<g id="edge13" class="edge">
<title>b_matrix&#45;&gt;ub_matrix</title>
<path fill="none" stroke="black" d="M512.5,-176.51C512.5,-169.81 512.5,-160.99 512.5,-152.88"/>
<polygon fill="black" stroke="black" points="516,-152.97 512.5,-142.97 509,-152.97 516,-152.97"/>
</g>
<!-- wavelength&#45;&gt;Q -->
<g id="edge14" class="edge">
<title>wavelength&#45;&gt;Q</title>
<path fill="none" stroke="black" d="M505.64,-237.42C502.55,-236.92 499.48,-236.44 496.5,-236 369.65,-217.09 218.46,-200.63 148.94,-193.41"/>
<polygon fill="black" stroke="black" points="149.53,-189.95 139.22,-192.4 148.81,-196.91 149.53,-189.95"/>
</g>
<!-- Qx -->
<g id="node17" class="node">
<title>Qx</title>
<polygon fill="none" stroke="black" points="310.5,-200 256.5,-200 256.5,-177 310.5,-177 310.5,-200"/>
<text text-anchor="middle" x="283.5" y="-184.8" font-family="Times,serif" font-size="14.00">Qx</text>
</g>
<!-- wavelength&#45;&gt;Qx -->
<g id="edge19" class="edge">
<title>wavelength&#45;&gt;Qx</title>
<path fill="none" stroke="black" d="M505.68,-237.23C451.85,-227.12 368.44,-211.18 321.94,-200.4"/>
<polygon fill="black" stroke="black" points="322.96,-197.05 312.42,-198.13 321.34,-203.86 322.96,-197.05"/>
</g>
<!-- Qy -->
<g id="node18" class="node">
<title>Qy</title>
<polygon fill="none" stroke="black" points="382.5,-200 328.5,-200 328.5,-177 382.5,-177 382.5,-200"/>
<text text-anchor="middle" x="355.5" y="-184.8" font-family="Times,serif" font-size="14.00">Qy</text>
</g>
<!-- wavelength&#45;&gt;Qy -->
<g id="edge22" class="edge">
<title>wavelength&#45;&gt;Qy</title>
<path fill="none" stroke="black" d="M516.71,-235.59C485.8,-226.88 441.14,-214.24 393.48,-200.56"/>
<polygon fill="black" stroke="black" points="394.65,-197.25 384.08,-197.85 392.72,-203.98 394.65,-197.25"/>
</g>
<!-- Qz -->
<g id="node19" class="node">
<title>Qz</title>
<polygon fill="none" stroke="black" points="454.5,-200 400.5,-200 400.5,-177 454.5,-177 454.5,-200"/>
<text text-anchor="middle" x="427.5" y="-184.8" font-family="Times,serif" font-size="14.00">Qz</text>
</g>
<!-- wavelength&#45;&gt;Qz -->
<g id="edge25" class="edge">
<title>wavelength&#45;&gt;Qz</title>
<path fill="none" stroke="black" d="M530.82,-235.51C511.43,-226.88 484.18,-214.74 462.53,-205.1"/>
<polygon fill="black" stroke="black" points="464.05,-201.94 453.49,-201.07 461.2,-208.34 464.05,-201.94"/>
</g>
<!-- wavelength&#45;&gt;time_at_sample -->
<g id="edge33" class="edge">
<title>wavelength&#45;&gt;time_at_sample</title>
<path fill="none" stroke="black" d="M589.63,-235.51C617.54,-226.52 657.24,-213.74 687.71,-203.92"/>
<polygon fill="black" stroke="black" points="688.59,-207.32 697.04,-200.92 686.45,-200.65 688.59,-207.32"/>
</g>
<!-- Qx&#45;&gt;Q_vec -->
<g id="edge16" class="edge">
<title>Qx&#45;&gt;Q_vec</title>
<path fill="none" stroke="black" d="M303.75,-176.51C319.29,-168.07 340.99,-156.29 358.54,-146.76"/>
<polygon fill="black" stroke="black" points="359.87,-150.03 366.99,-142.18 356.53,-143.87 359.87,-150.03"/>
</g>
<!-- Qy&#45;&gt;Q_vec -->
<g id="edge17" class="edge">
<title>Qy&#45;&gt;Q_vec</title>
<path fill="none" stroke="black" d="M361.86,-176.51C366.02,-169.33 371.57,-159.74 376.53,-151.17"/>
<polygon fill="black" stroke="black" points="379.42,-153.17 381.4,-142.77 373.36,-149.67 379.42,-153.17"/>
</g>
<!-- Qz&#45;&gt;Q_vec -->
<g id="edge18" class="edge">
<title>Qz&#45;&gt;Q_vec</title>
<path fill="none" stroke="black" d="M419.98,-176.51C415.02,-169.26 408.36,-159.53 402.45,-150.89"/>
<polygon fill="black" stroke="black" points="405.39,-148.98 396.85,-142.71 399.61,-152.94 405.39,-148.98"/>
</g>
<!-- incident_beam -->
<g id="node20" class="node">
<title>incident_beam</title>
<polygon fill="none" stroke="black" points="487.5,-259 367.5,-259 367.5,-236 487.5,-236 487.5,-259"/>
<text text-anchor="middle" x="427.5" y="-243.8" font-family="Times,serif" font-size="14.00">incident_beam</text>
</g>
<!-- incident_beam&#45;&gt;Qx -->
<g id="edge20" class="edge">
<title>incident_beam&#45;&gt;Qx</title>
<path fill="none" stroke="black" d="M399.74,-235.51C377.38,-226.66 345.74,-214.14 321.11,-204.39"/>
<polygon fill="black" stroke="black" points="322.68,-201.25 312.1,-200.82 320.11,-207.76 322.68,-201.25"/>
</g>
<!-- incident_beam&#45;&gt;Qy -->
<g id="edge23" class="edge">
<title>incident_beam&#45;&gt;Qy</title>
<path fill="none" stroke="black" d="M413.62,-235.51C403.56,-227.55 389.73,-216.6 378.09,-207.39"/>
<polygon fill="black" stroke="black" points="380.54,-204.86 370.53,-201.4 376.19,-210.35 380.54,-204.86"/>
</g>
<!-- incident_beam&#45;&gt;Qz -->
<g id="edge26" class="edge">
<title>incident_beam&#45;&gt;Qz</title>
<path fill="none" stroke="black" d="M427.5,-235.51C427.5,-228.81 427.5,-219.99 427.5,-211.88"/>
<polygon fill="black" stroke="black" points="431,-211.97 427.5,-201.97 424,-211.97 431,-211.97"/>
</g>
<!-- scattered_beam -->
<g id="node21" class="node">
<title>scattered_beam</title>
<polygon fill="none" stroke="black" points="265.5,-259 135.5,-259 135.5,-236 265.5,-236 265.5,-259"/>
<text text-anchor="middle" x="200.5" y="-243.8" font-family="Times,serif" font-size="14.00">scattered_beam</text>
</g>
<!-- scattered_beam&#45;&gt;Qx -->
<g id="edge21" class="edge">
<title>scattered_beam&#45;&gt;Qx</title>
<path fill="none" stroke="black" d="M216.5,-235.51C228.33,-227.39 244.67,-216.17 258.25,-206.84"/>
<polygon fill="black" stroke="black" points="260.04,-209.86 266.3,-201.31 256.07,-204.09 260.04,-209.86"/>
</g>
<!-- scattered_beam&#45;&gt;Qy -->
<g id="edge24" class="edge">
<title>scattered_beam&#45;&gt;Qy</title>
<path fill="none" stroke="black" d="M230.39,-235.51C255.2,-226.38 290.66,-213.34 317.5,-203.48"/>
<polygon fill="black" stroke="black" points="318.45,-206.85 326.63,-200.12 316.03,-200.29 318.45,-206.85"/>
</g>
<!-- scattered_beam&#45;&gt;Qz -->
<g id="edge27" class="edge">
<title>scattered_beam&#45;&gt;Qz</title>
<path fill="none" stroke="black" d="M248.14,-235.53C284.37,-227.04 335.72,-214.72 388.99,-200.6"/>
<polygon fill="black" stroke="black" points="389.8,-204 398.56,-198.04 387.99,-197.24 389.8,-204"/>
</g>
<!-- pulse_time -->
<g id="node22" class="node">
<title>pulse_time</title>
<polygon fill="none" stroke="black" points="773.5,-259 679.5,-259 679.5,-236 773.5,-236 773.5,-259"/>
<text text-anchor="middle" x="726.5" y="-243.8" font-family="Times,serif" font-size="14.00">pulse_time</text>
</g>
<!-- pulse_time&#45;&gt;time_at_sample -->
<g id="edge30" class="edge">
<title>pulse_time&#45;&gt;time_at_sample</title>
<path fill="none" stroke="black" d="M727.66,-235.51C728.36,-228.81 729.29,-219.99 730.14,-211.88"/>
<polygon fill="black" stroke="black" points="733.62,-212.27 731.19,-201.96 726.66,-211.54 733.62,-212.27"/>
</g>
<!-- L2 -->
<g id="node24" class="node">
<title>L2</title>
<polygon fill="none" stroke="black" points="845.5,-259 791.5,-259 791.5,-236 845.5,-236 845.5,-259"/>
<text text-anchor="middle" x="818.5" y="-243.8" font-family="Times,serif" font-size="14.00">L2</text>
</g>
<!-- L2&#45;&gt;time_at_sample -->
<g id="edge32" class="edge">
<title>L2&#45;&gt;time_at_sample</title>
<path fill="none" stroke="black" d="M801.92,-235.51C789.55,-227.31 772.41,-215.95 758.26,-206.57"/>
<polygon fill="black" stroke="black" points="760.56,-203.9 750.29,-201.29 756.69,-209.73 760.56,-203.9"/>
</g>
</g>
</svg>
