<?xml version="1.0" encoding="UTF-8" standalone="no"?>
<!DOCTYPE svg PUBLIC "-//W3C//DTD SVG 1.1//EN"
 "http://www.w3.org/Graphics/SVG/1.1/DTD/svg11.dtd">
<!-- Generated by graphviz version 11.0.0 (20240519.1550)
 -->
<!-- Pages: 1 -->
<svg width="953pt" height="620pt"
 viewBox="0.00 0.00 953.06 620.00" xmlns="http://www.w3.org/2000/svg" xmlns:xlink="http://www.w3.org/1999/xlink">
<g id="graph0" class="graph" transform="scale(1 1) rotate(0) translate(4 616)">
<polygon fill="white" stroke="none" points="-4,4 -4,-616 949.06,-616 949.06,4 -4,4"/>
<!-- Choppers -->
<g id="node1" class="node">
<title>Choppers</title>
<polygon fill="none" stroke="red" stroke-dasharray="5,2" points="945.06,-612 860.81,-612 860.81,-576 945.06,-576 945.06,-612"/>
<text text-anchor="middle" x="902.94" y="-589.33" font-family="Times,serif" font-size="14.00" fill="red">Choppers</text>
</g>
<!-- scippneutron.tof.unwrap.frame_at_detector_FrameAtDetector -->
<g id="node7" class="node">
<title>scippneutron.tof.unwrap.frame_at_detector_FrameAtDetector</title>
<ellipse fill="none" stroke="black" cx="753.94" cy="-522" rx="102.24" ry="18"/>
<text text-anchor="middle" x="753.94" y="-517.33" font-family="Times,serif" font-size="14.00">frame_at_detector</text>
</g>
<!-- Choppers&#45;&gt;scippneutron.tof.unwrap.frame_at_detector_FrameAtDetector -->
<g id="edge7" class="edge">
<title>Choppers&#45;&gt;scippneutron.tof.unwrap.frame_at_detector_FrameAtDetector</title>
<path fill="none" stroke="black" d="M865.72,-575.52C845.42,-565.98 820.15,-554.11 798.78,-544.07"/>
<polygon fill="black" stroke="black" points="800.54,-541.03 790,-539.94 797.57,-547.36 800.54,-541.03"/>
</g>
<!-- scippneutron.tof.unwrap.offset_from_wrapped_DeltaFromWrapped -->
<g id="node2" class="node">
<title>scippneutron.tof.unwrap.offset_from_wrapped_DeltaFromWrapped</title>
<ellipse fill="none" stroke="black" cx="304.94" cy="-234" rx="115.92" ry="18"/>
<text text-anchor="middle" x="304.94" y="-229.32" font-family="Times,serif" font-size="14.00">offset_from_wrapped</text>
</g>
<!-- DeltaFromWrapped -->
<g id="node6" class="node">
<title>DeltaFromWrapped</title>
<polygon fill="none" stroke="black" points="242.06,-180 85.81,-180 85.81,-144 242.06,-144 242.06,-180"/>
<text text-anchor="middle" x="163.94" y="-157.32" font-family="Times,serif" font-size="14.00">DeltaFromWrapped</text>
</g>
<!-- scippneutron.tof.unwrap.offset_from_wrapped_DeltaFromWrapped&#45;&gt;DeltaFromWrapped -->
<g id="edge4" class="edge">
<title>scippneutron.tof.unwrap.offset_from_wrapped_DeltaFromWrapped&#45;&gt;DeltaFromWrapped</title>
<path fill="none" stroke="black" d="M271.52,-216.41C252.93,-207.18 229.54,-195.57 209.32,-185.53"/>
<polygon fill="black" stroke="black" points="210.95,-182.43 200.43,-181.12 207.83,-188.7 210.95,-182.43"/>
</g>
<!-- FrameWrappedTimeOffset -->
<g id="node3" class="node">
<title>FrameWrappedTimeOffset</title>
<polygon fill="none" stroke="black" points="320.06,-324 115.81,-324 115.81,-288 320.06,-288 320.06,-324"/>
<text text-anchor="middle" x="217.94" y="-301.32" font-family="Times,serif" font-size="14.00">FrameWrappedTimeOffset</text>
</g>
<!-- FrameWrappedTimeOffset&#45;&gt;scippneutron.tof.unwrap.offset_from_wrapped_DeltaFromWrapped -->
<g id="edge1" class="edge">
<title>FrameWrappedTimeOffset&#45;&gt;scippneutron.tof.unwrap.offset_from_wrapped_DeltaFromWrapped</title>
<path fill="none" stroke="black" d="M239.44,-287.7C250.08,-279.14 263.11,-268.66 274.73,-259.3"/>
<polygon fill="black" stroke="black" points="276.9,-262.05 282.5,-253.05 272.51,-256.6 276.9,-262.05"/>
</g>
<!-- FrameBounds -->
<g id="node4" class="node">
<title>FrameBounds</title>
<polygon fill="none" stroke="black" points="655.81,-324 540.06,-324 540.06,-288 655.81,-288 655.81,-324"/>
<text text-anchor="middle" x="597.94" y="-301.32" font-family="Times,serif" font-size="14.00">FrameBounds</text>
</g>
<!-- FrameBounds&#45;&gt;scippneutron.tof.unwrap.offset_from_wrapped_DeltaFromWrapped -->
<g id="edge2" class="edge">
<title>FrameBounds&#45;&gt;scippneutron.tof.unwrap.offset_from_wrapped_DeltaFromWrapped</title>
<path fill="none" stroke="black" d="M539.7,-291.09C493.07,-279.95 427.43,-264.27 377.41,-252.32"/>
<polygon fill="black" stroke="black" points="378.36,-248.94 367.82,-250.02 376.73,-255.75 378.36,-248.94"/>
</g>
<!-- FramePeriod -->
<g id="node5" class="node">
<title>FramePeriod</title>
<polygon fill="none" stroke="black" points="481.06,-324 372.81,-324 372.81,-288 481.06,-288 481.06,-324"/>
<text text-anchor="middle" x="426.94" y="-301.32" font-family="Times,serif" font-size="14.00">FramePeriod</text>
</g>
<!-- FramePeriod&#45;&gt;scippneutron.tof.unwrap.offset_from_wrapped_DeltaFromWrapped -->
<g id="edge3" class="edge">
<title>FramePeriod&#45;&gt;scippneutron.tof.unwrap.offset_from_wrapped_DeltaFromWrapped</title>
<path fill="none" stroke="black" d="M396.46,-287.52C380.53,-278.38 360.86,-267.09 343.84,-257.32"/>
<polygon fill="black" stroke="black" points="345.91,-254.47 335.49,-252.53 342.42,-260.54 345.91,-254.47"/>
</g>
<!-- scippneutron.tof.unwrap.unwrap_data_UnwrappedData -->
<g id="node20" class="node">
<title>scippneutron.tof.unwrap.unwrap_data_UnwrappedData</title>
<ellipse fill="none" stroke="black" cx="75.94" cy="-90" rx="75.94" ry="18"/>
<text text-anchor="middle" x="75.94" y="-85.33" font-family="Times,serif" font-size="14.00">unwrap_data</text>
</g>
<!-- DeltaFromWrapped&#45;&gt;scippneutron.tof.unwrap.unwrap_data_UnwrappedData -->
<g id="edge20" class="edge">
<title>DeltaFromWrapped&#45;&gt;scippneutron.tof.unwrap.unwrap_data_UnwrappedData</title>
<path fill="none" stroke="black" d="M142.18,-143.7C131.15,-134.92 117.59,-124.13 105.61,-114.61"/>
<polygon fill="black" stroke="black" points="108.02,-112.05 98.02,-108.56 103.66,-117.53 108.02,-112.05"/>
</g>
<!-- FrameAtDetector -->
<g id="node11" class="node">
<title>FrameAtDetector</title>
<polygon fill="none" stroke="black" points="824.19,-468 683.69,-468 683.69,-432 824.19,-432 824.19,-468"/>
<text text-anchor="middle" x="753.94" y="-445.32" font-family="Times,serif" font-size="14.00">FrameAtDetector</text>
</g>
<!-- scippneutron.tof.unwrap.frame_at_detector_FrameAtDetector&#45;&gt;FrameAtDetector -->
<g id="edge9" class="edge">
<title>scippneutron.tof.unwrap.frame_at_detector_FrameAtDetector&#45;&gt;FrameAtDetector</title>
<path fill="none" stroke="black" d="M753.94,-503.7C753.94,-496.41 753.94,-487.73 753.94,-479.54"/>
<polygon fill="black" stroke="black" points="757.44,-479.62 753.94,-469.62 750.44,-479.62 757.44,-479.62"/>
</g>
<!-- SourceWavelengthRange -->
<g id="node8" class="node">
<title>SourceWavelengthRange</title>
<polygon fill="none" stroke="red" stroke-dasharray="5,2" points="603.19,-612 408.69,-612 408.69,-576 603.19,-576 603.19,-612"/>
<text text-anchor="middle" x="505.94" y="-589.33" font-family="Times,serif" font-size="14.00" fill="red">SourceWavelengthRange</text>
</g>
<!-- SourceWavelengthRange&#45;&gt;scippneutron.tof.unwrap.frame_at_detector_FrameAtDetector -->
<g id="edge5" class="edge">
<title>SourceWavelengthRange&#45;&gt;scippneutron.tof.unwrap.frame_at_detector_FrameAtDetector</title>
<path fill="none" stroke="black" d="M567.88,-575.52C605.35,-564.94 653.02,-551.48 690.72,-540.84"/>
<polygon fill="black" stroke="black" points="691.45,-544.27 700.12,-538.19 689.55,-537.54 691.45,-544.27"/>
</g>
<!-- SourceTimeRange -->
<g id="node9" class="node">
<title>SourceTimeRange</title>
<polygon fill="none" stroke="red" stroke-dasharray="5,2" points="766.81,-612 621.06,-612 621.06,-576 766.81,-576 766.81,-612"/>
<text text-anchor="middle" x="693.94" y="-589.33" font-family="Times,serif" font-size="14.00" fill="red">SourceTimeRange</text>
</g>
<!-- SourceTimeRange&#45;&gt;scippneutron.tof.unwrap.frame_at_detector_FrameAtDetector -->
<g id="edge6" class="edge">
<title>SourceTimeRange&#45;&gt;scippneutron.tof.unwrap.frame_at_detector_FrameAtDetector</title>
<path fill="none" stroke="black" d="M708.77,-575.7C715.74,-567.56 724.2,-557.69 731.91,-548.7"/>
<polygon fill="black" stroke="black" points="734.44,-551.12 738.29,-541.25 729.12,-546.57 734.44,-551.12"/>
</g>
<!-- Ltotal -->
<g id="node10" class="node">
<title>Ltotal</title>
<polygon fill="none" stroke="red" stroke-dasharray="5,2" points="842.94,-612 784.94,-612 784.94,-576 842.94,-576 842.94,-612"/>
<text text-anchor="middle" x="813.94" y="-589.33" font-family="Times,serif" font-size="14.00" fill="red">Ltotal</text>
</g>
<!-- Ltotal&#45;&gt;scippneutron.tof.unwrap.frame_at_detector_FrameAtDetector -->
<g id="edge8" class="edge">
<title>Ltotal&#45;&gt;scippneutron.tof.unwrap.frame_at_detector_FrameAtDetector</title>
<path fill="none" stroke="black" d="M799.1,-575.7C792.13,-567.56 783.67,-557.69 775.96,-548.7"/>
<polygon fill="black" stroke="black" points="778.75,-546.57 769.58,-541.25 773.43,-551.12 778.75,-546.57"/>
</g>
<!-- scippneutron.tof.unwrap.frame_bounds_FrameBounds -->
<g id="node12" class="node">
<title>scippneutron.tof.unwrap.frame_bounds_FrameBounds</title>
<ellipse fill="none" stroke="black" cx="687.94" cy="-378" rx="81.72" ry="18"/>
<text text-anchor="middle" x="687.94" y="-373.32" font-family="Times,serif" font-size="14.00">frame_bounds</text>
</g>
<!-- FrameAtDetector&#45;&gt;scippneutron.tof.unwrap.frame_bounds_FrameBounds -->
<g id="edge10" class="edge">
<title>FrameAtDetector&#45;&gt;scippneutron.tof.unwrap.frame_bounds_FrameBounds</title>
<path fill="none" stroke="black" d="M737.62,-431.7C729.87,-423.47 720.45,-413.48 711.9,-404.42"/>
<polygon fill="black" stroke="black" points="714.51,-402.08 705.1,-397.21 709.41,-406.88 714.51,-402.08"/>
</g>
<!-- scippneutron.tof.unwrap.frame_bounds_FrameBounds&#45;&gt;FrameBounds -->
<g id="edge11" class="edge">
<title>scippneutron.tof.unwrap.frame_bounds_FrameBounds&#45;&gt;FrameBounds</title>
<path fill="none" stroke="black" d="M666.61,-360.41C655.51,-351.78 641.72,-341.05 629.42,-331.48"/>
<polygon fill="black" stroke="black" points="631.6,-328.75 621.56,-325.38 627.31,-334.28 631.6,-328.75"/>
</g>
<!-- scippneutron.tof.unwrap.frame_period_FramePeriod -->
<g id="node13" class="node">
<title>scippneutron.tof.unwrap.frame_period_FramePeriod</title>
<ellipse fill="none" stroke="black" cx="444.94" cy="-378" rx="77.51" ry="18"/>
<text text-anchor="middle" x="444.94" y="-373.32" font-family="Times,serif" font-size="14.00">frame_period</text>
</g>
<!-- scippneutron.tof.unwrap.frame_period_FramePeriod&#45;&gt;FramePeriod -->
<g id="edge14" class="edge">
<title>scippneutron.tof.unwrap.frame_period_FramePeriod&#45;&gt;FramePeriod</title>
<path fill="none" stroke="black" d="M440.49,-359.7C438.59,-352.32 436.33,-343.52 434.2,-335.25"/>
<polygon fill="black" stroke="black" points="437.59,-334.38 431.71,-325.57 430.81,-336.13 437.59,-334.38"/>
</g>
<!-- PulsePeriod -->
<g id="node14" class="node">
<title>PulsePeriod</title>
<polygon fill="none" stroke="red" stroke-dasharray="5,2" points="414.31,-468 313.56,-468 313.56,-432 414.31,-432 414.31,-468"/>
<text text-anchor="middle" x="363.94" y="-445.32" font-family="Times,serif" font-size="14.00" fill="red">PulsePeriod</text>
</g>
<!-- PulsePeriod&#45;&gt;scippneutron.tof.unwrap.frame_period_FramePeriod -->
<g id="edge12" class="edge">
<title>PulsePeriod&#45;&gt;scippneutron.tof.unwrap.frame_period_FramePeriod</title>
<path fill="none" stroke="black" d="M383.96,-431.7C393.84,-423.16 405.93,-412.71 416.73,-403.37"/>
<polygon fill="black" stroke="black" points="419,-406.04 424.28,-396.85 414.42,-400.74 419,-406.04"/>
</g>
<!-- Union[PulseStride, NoneType] -->
<g id="node15" class="node">
<title>Union[PulseStride, NoneType]</title>
<polygon fill="none" stroke="red" stroke-dasharray="5,2" points="665.69,-468 432.19,-468 432.19,-432 665.69,-432 665.69,-468"/>
<text text-anchor="middle" x="548.94" y="-445.32" font-family="Times,serif" font-size="14.00" fill="red">Union[PulseStride, NoneType]</text>
</g>
<!-- Union[PulseStride, NoneType]&#45;&gt;scippneutron.tof.unwrap.frame_period_FramePeriod -->
<g id="edge13" class="edge">
<title>Union[PulseStride, NoneType]&#45;&gt;scippneutron.tof.unwrap.frame_period_FramePeriod</title>
<path fill="none" stroke="black" d="M522.96,-431.52C509.66,-422.57 493.31,-411.56 479.01,-401.94"/>
<polygon fill="black" stroke="black" points="481.01,-399.06 470.76,-396.38 477.1,-404.87 481.01,-399.06"/>
</g>
<!-- scippneutron.tof.unwrap.frame_wrapped_time_offset_FrameWrappedTimeOffset -->
<g id="node16" class="node">
<title>scippneutron.tof.unwrap.frame_wrapped_time_offset_FrameWrappedTimeOffset</title>
<ellipse fill="none" stroke="black" cx="199.94" cy="-378" rx="149.06" ry="18"/>
<text text-anchor="middle" x="199.94" y="-373.32" font-family="Times,serif" font-size="14.00">frame_wrapped_time_offset</text>
</g>
<!-- scippneutron.tof.unwrap.frame_wrapped_time_offset_FrameWrappedTimeOffset&#45;&gt;FrameWrappedTimeOffset -->
<g id="edge16" class="edge">
<title>scippneutron.tof.unwrap.frame_wrapped_time_offset_FrameWrappedTimeOffset&#45;&gt;FrameWrappedTimeOffset</title>
<path fill="none" stroke="black" d="M204.38,-359.7C206.28,-352.32 208.54,-343.52 210.67,-335.25"/>
<polygon fill="black" stroke="black" points="214.06,-336.13 213.16,-325.57 207.28,-334.38 214.06,-336.13"/>
</g>
<!-- PulseWrappedTimeOffset -->
<g id="node17" class="node">
<title>PulseWrappedTimeOffset</title>
<polygon fill="none" stroke="black" points="295.31,-468 98.56,-468 98.56,-432 295.31,-432 295.31,-468"/>
<text text-anchor="middle" x="196.94" y="-445.32" font-family="Times,serif" font-size="14.00">PulseWrappedTimeOffset</text>
</g>
<!-- PulseWrappedTimeOffset&#45;&gt;scippneutron.tof.unwrap.frame_wrapped_time_offset_FrameWrappedTimeOffset -->
<g id="edge15" class="edge">
<title>PulseWrappedTimeOffset&#45;&gt;scippneutron.tof.unwrap.frame_wrapped_time_offset_FrameWrappedTimeOffset</title>
<path fill="none" stroke="black" d="M197.68,-431.7C197.99,-424.41 198.36,-415.73 198.71,-407.54"/>
<polygon fill="black" stroke="black" points="202.21,-407.76 199.14,-397.62 195.21,-407.46 202.21,-407.76"/>
</g>
<!-- scippneutron.tof.unwrap.pulse_wrapped_time_offset_PulseWrappedTimeOffset -->
<g id="node18" class="node">
<title>scippneutron.tof.unwrap.pulse_wrapped_time_offset_PulseWrappedTimeOffset</title>
<ellipse fill="none" stroke="black" cx="196.94" cy="-522" rx="146.43" ry="18"/>
<text text-anchor="middle" x="196.94" y="-517.33" font-family="Times,serif" font-size="14.00">pulse_wrapped_time_offset</text>
</g>
<!-- scippneutron.tof.unwrap.pulse_wrapped_time_offset_PulseWrappedTimeOffset&#45;&gt;PulseWrappedTimeOffset -->
<g id="edge18" class="edge">
<title>scippneutron.tof.unwrap.pulse_wrapped_time_offset_PulseWrappedTimeOffset&#45;&gt;PulseWrappedTimeOffset</title>
<path fill="none" stroke="black" d="M196.94,-503.7C196.94,-496.41 196.94,-487.73 196.94,-479.54"/>
<polygon fill="black" stroke="black" points="200.44,-479.62 196.94,-469.62 193.44,-479.62 200.44,-479.62"/>
</g>
<!-- RawData -->
<g id="node19" class="node">
<title>RawData</title>
<polygon fill="none" stroke="red" stroke-dasharray="5,2" points="150.19,-612 69.69,-612 69.69,-576 150.19,-576 150.19,-612"/>
<text text-anchor="middle" x="109.94" y="-589.33" font-family="Times,serif" font-size="14.00" fill="red">RawData</text>
</g>
<!-- RawData&#45;&gt;scippneutron.tof.unwrap.pulse_wrapped_time_offset_PulseWrappedTimeOffset -->
<g id="edge17" class="edge">
<title>RawData&#45;&gt;scippneutron.tof.unwrap.pulse_wrapped_time_offset_PulseWrappedTimeOffset</title>
<path fill="none" stroke="black" d="M131.44,-575.7C142.08,-567.14 155.11,-556.66 166.73,-547.3"/>
<polygon fill="black" stroke="black" points="168.9,-550.05 174.5,-541.05 164.51,-544.6 168.9,-550.05"/>
</g>
<!-- RawData&#45;&gt;scippneutron.tof.unwrap.unwrap_data_UnwrappedData -->
<g id="edge19" class="edge">
<title>RawData&#45;&gt;scippneutron.tof.unwrap.unwrap_data_UnwrappedData</title>
<path fill="none" stroke="black" d="M78.74,-575.52C65.47,-566.55 50.99,-554.46 41.94,-540 20.47,-505.72 22.94,-491.45 22.94,-451 22.94,-451 22.94,-451 22.94,-233 22.94,-190.77 43.77,-145.68 59.31,-117.91"/>
<polygon fill="black" stroke="black" points="62.22,-119.88 64.2,-109.47 56.16,-116.37 62.22,-119.88"/>
</g>
<!-- UnwrappedData -->
<g id="node21" class="node">
<title>UnwrappedData</title>
<polygon fill="none" stroke="black" points="142.44,-36 9.44,-36 9.44,0 142.44,0 142.44,-36"/>
<text text-anchor="middle" x="75.94" y="-13.32" font-family="Times,serif" font-size="14.00">UnwrappedData</text>
</g>
<!-- scippneutron.tof.unwrap.unwrap_data_UnwrappedData&#45;&gt;UnwrappedData -->
<g id="edge21" class="edge">
<title>scippneutron.tof.unwrap.unwrap_data_UnwrappedData&#45;&gt;UnwrappedData</title>
<path fill="none" stroke="black" d="M75.94,-71.7C75.94,-64.41 75.94,-55.73 75.94,-47.54"/>
<polygon fill="black" stroke="black" points="79.44,-47.62 75.94,-37.62 72.44,-47.62 79.44,-47.62"/>
</g>
</g>
</svg>
