<?xml version="1.0" encoding="UTF-8" standalone="no"?>
<!DOCTYPE svg PUBLIC "-//W3C//DTD SVG 1.1//EN"
 "http://www.w3.org/Graphics/SVG/1.1/DTD/svg11.dtd">
<!-- Generated by graphviz version 14.0.4 (20251117.0720)
 -->
<!-- Pages: 1 -->
<svg width="354pt" height="95pt"
 viewBox="0.00 0.00 354.00 95.00" xmlns="http://www.w3.org/2000/svg" xmlns:xlink="http://www.w3.org/1999/xlink">
<g id="graph0" class="graph" transform="scale(1 1) rotate(0) translate(4 90.5)">
<polygon fill="white" stroke="none" points="-4,4 -4,-90.5 350,-90.5 350,4 -4,4"/>
<!-- tof -->
<g id="node1" class="node">
<title>tof</title>
<polygon fill="none" stroke="black" points="54,-86.5 0,-86.5 0,-61.25 54,-61.25 54,-86.5"/>
<text xml:space="preserve" text-anchor="middle" x="27" y="-69.2" font-family="Times,serif" font-size="14.00">tof</text>
</g>
<!-- energy_transfer -->
<g id="node2" class="node">
<title>energy_transfer</title>
<polygon fill="none" stroke="black" points="200,-25.25 70,-25.25 70,0 200,0 200,-25.25"/>
<text xml:space="preserve" text-anchor="middle" x="135" y="-7.95" font-family="Times,serif" font-size="14.00">energy_transfer</text>
</g>
<!-- tof&#45;&gt;energy_transfer -->
<g id="edge1" class="edge">
<title>tof&#45;&gt;energy_transfer</title>
<path fill="none" stroke="black" d="M48.86,-60.88C64.52,-52.29 85.86,-40.59 103.37,-30.97"/>
<polygon fill="black" stroke="black" points="104.77,-34.2 111.85,-26.33 101.4,-28.07 104.77,-34.2"/>
</g>
<!-- L1 -->
<g id="node3" class="node">
<title>L1</title>
<polygon fill="none" stroke="black" points="126,-86.5 72,-86.5 72,-61.25 126,-61.25 126,-86.5"/>
<text xml:space="preserve" text-anchor="middle" x="99" y="-69.2" font-family="Times,serif" font-size="14.00">L1</text>
</g>
<!-- L1&#45;&gt;energy_transfer -->
<g id="edge2" class="edge">
<title>L1&#45;&gt;energy_transfer</title>
<path fill="none" stroke="black" d="M106.29,-60.88C110.73,-53.58 116.53,-44.02 121.76,-35.41"/>
<polygon fill="black" stroke="black" points="124.74,-37.25 126.94,-26.89 118.76,-33.62 124.74,-37.25"/>
</g>
<!-- L2 -->
<g id="node4" class="node">
<title>L2</title>
<polygon fill="none" stroke="black" points="198,-86.5 144,-86.5 144,-61.25 198,-61.25 198,-86.5"/>
<text xml:space="preserve" text-anchor="middle" x="171" y="-69.2" font-family="Times,serif" font-size="14.00">L2</text>
</g>
<!-- L2&#45;&gt;energy_transfer -->
<g id="edge3" class="edge">
<title>L2&#45;&gt;energy_transfer</title>
<path fill="none" stroke="black" d="M163.71,-60.88C159.27,-53.58 153.47,-44.02 148.24,-35.41"/>
<polygon fill="black" stroke="black" points="151.24,-33.62 143.06,-26.89 145.26,-37.25 151.24,-33.62"/>
</g>
<!-- incident_energy -->
<g id="node5" class="node">
<title>incident_energy</title>
<polygon fill="none" stroke="black" points="346,-86.5 216,-86.5 216,-61.25 346,-61.25 346,-86.5"/>
<text xml:space="preserve" text-anchor="middle" x="281" y="-69.2" font-family="Times,serif" font-size="14.00">incident_energy</text>
</g>
<!-- incident_energy&#45;&gt;energy_transfer -->
<g id="edge4" class="edge">
<title>incident_energy&#45;&gt;energy_transfer</title>
<path fill="none" stroke="black" d="M251.45,-60.88C229.56,-52 199.47,-39.79 175.36,-30"/>
<polygon fill="black" stroke="black" points="176.74,-26.79 166.15,-26.27 174.1,-33.27 176.74,-26.79"/>
</g>
</g>
</svg>
