<?xml version="1.0" encoding="utf-8" standalone="no"?>
<!DOCTYPE svg PUBLIC "-//W3C//DTD SVG 1.1//EN"
  "http://www.w3.org/Graphics/SVG/1.1/DTD/svg11.dtd">
<svg xmlns:xlink="http://www.w3.org/1999/xlink" width="872.39952pt" height="296.39952pt" viewBox="0 0 872.39952 296.39952" xmlns="http://www.w3.org/2000/svg" version="1.1">
 <metadata>
  <rdf:RDF xmlns:dc="http://purl.org/dc/elements/1.1/" xmlns:cc="http://creativecommons.org/ns#" xmlns:rdf="http://www.w3.org/1999/02/22-rdf-syntax-ns#">
   <cc:Work>
    <dc:type rdf:resource="http://purl.org/dc/dcmitype/StillImage"/>
    <dc:date>2024-12-12T12:31:57.126876</dc:date>
    <dc:format>image/svg+xml</dc:format>
    <dc:creator>
     <cc:Agent>
      <dc:title>Matplotlib v3.7.3, https://matplotlib.org/</dc:title>
     </cc:Agent>
    </dc:creator>
   </cc:Work>
  </rdf:RDF>
 </metadata>
 <defs>
  <style type="text/css">*{stroke-linejoin: round; stroke-linecap: butt}</style>
 </defs>
 <g id="figure_1">
  <g id="patch_1">
   <path d="M 0 296.39952 
L 872.39952 296.39952 
L 872.39952 0 
L 0 0 
z
" style="fill: #ffffff"/>
  </g>
  <g id="axes_1">
   <g id="patch_2">
    <path d="M 53.328125 257.158895 
L 431.87976 257.158895 
L 431.87976 7.2 
L 53.328125 7.2 
z
" style="fill: #ffffff"/>
   </g>
   <g id="matplotlib.axis_1">
    <g id="xtick_1">
     <g id="line2d_1">
      <defs>
       <path id="m5a853a6b92" d="M 0 0 
L 0 3.5 
" style="stroke: #000000; stroke-width: 0.8"/>
      </defs>
      <g>
       <use xlink:href="#m5a853a6b92" x="69.658298" y="257.158895" style="stroke: #000000; stroke-width: 0.8"/>
      </g>
     </g>
     <g id="text_1">
      <!-- 0 -->
      <g transform="translate(66.477048 271.757332) scale(0.1 -0.1)">
       <defs>
        <path id="DejaVuSans-30" d="M 2034 4250 
Q 1547 4250 1301 3770 
Q 1056 3291 1056 2328 
Q 1056 1369 1301 889 
Q 1547 409 2034 409 
Q 2525 409 2770 889 
Q 3016 1369 3016 2328 
Q 3016 3291 2770 3770 
Q 2525 4250 2034 4250 
z
M 2034 4750 
Q 2819 4750 3233 4129 
Q 3647 3509 3647 2328 
Q 3647 1150 3233 529 
Q 2819 -91 2034 -91 
Q 1250 -91 836 529 
Q 422 1150 422 2328 
Q 422 3509 836 4129 
Q 1250 4750 2034 4750 
z
" transform="scale(0.015625)"/>
       </defs>
       <use xlink:href="#DejaVuSans-30"/>
      </g>
     </g>
    </g>
    <g id="xtick_2">
     <g id="line2d_2">
      <g>
       <use xlink:href="#m5a853a6b92" x="138.848563" y="257.158895" style="stroke: #000000; stroke-width: 0.8"/>
      </g>
     </g>
     <g id="text_2">
      <!-- 1000 -->
      <g transform="translate(126.123563 271.757332) scale(0.1 -0.1)">
       <defs>
        <path id="DejaVuSans-31" d="M 794 531 
L 1825 531 
L 1825 4091 
L 703 3866 
L 703 4441 
L 1819 4666 
L 2450 4666 
L 2450 531 
L 3481 531 
L 3481 0 
L 794 0 
L 794 531 
z
" transform="scale(0.015625)"/>
       </defs>
       <use xlink:href="#DejaVuSans-31"/>
       <use xlink:href="#DejaVuSans-30" x="63.623047"/>
       <use xlink:href="#DejaVuSans-30" x="127.246094"/>
       <use xlink:href="#DejaVuSans-30" x="190.869141"/>
      </g>
     </g>
    </g>
    <g id="xtick_3">
     <g id="line2d_3">
      <g>
       <use xlink:href="#m5a853a6b92" x="208.038829" y="257.158895" style="stroke: #000000; stroke-width: 0.8"/>
      </g>
     </g>
     <g id="text_3">
      <!-- 2000 -->
      <g transform="translate(195.313829 271.757332) scale(0.1 -0.1)">
       <defs>
        <path id="DejaVuSans-32" d="M 1228 531 
L 3431 531 
L 3431 0 
L 469 0 
L 469 531 
Q 828 903 1448 1529 
Q 2069 2156 2228 2338 
Q 2531 2678 2651 2914 
Q 2772 3150 2772 3378 
Q 2772 3750 2511 3984 
Q 2250 4219 1831 4219 
Q 1534 4219 1204 4116 
Q 875 4013 500 3803 
L 500 4441 
Q 881 4594 1212 4672 
Q 1544 4750 1819 4750 
Q 2544 4750 2975 4387 
Q 3406 4025 3406 3419 
Q 3406 3131 3298 2873 
Q 3191 2616 2906 2266 
Q 2828 2175 2409 1742 
Q 1991 1309 1228 531 
z
" transform="scale(0.015625)"/>
       </defs>
       <use xlink:href="#DejaVuSans-32"/>
       <use xlink:href="#DejaVuSans-30" x="63.623047"/>
       <use xlink:href="#DejaVuSans-30" x="127.246094"/>
       <use xlink:href="#DejaVuSans-30" x="190.869141"/>
      </g>
     </g>
    </g>
    <g id="xtick_4">
     <g id="line2d_4">
      <g>
       <use xlink:href="#m5a853a6b92" x="277.229094" y="257.158895" style="stroke: #000000; stroke-width: 0.8"/>
      </g>
     </g>
     <g id="text_4">
      <!-- 3000 -->
      <g transform="translate(264.504094 271.757332) scale(0.1 -0.1)">
       <defs>
        <path id="DejaVuSans-33" d="M 2597 2516 
Q 3050 2419 3304 2112 
Q 3559 1806 3559 1356 
Q 3559 666 3084 287 
Q 2609 -91 1734 -91 
Q 1441 -91 1130 -33 
Q 819 25 488 141 
L 488 750 
Q 750 597 1062 519 
Q 1375 441 1716 441 
Q 2309 441 2620 675 
Q 2931 909 2931 1356 
Q 2931 1769 2642 2001 
Q 2353 2234 1838 2234 
L 1294 2234 
L 1294 2753 
L 1863 2753 
Q 2328 2753 2575 2939 
Q 2822 3125 2822 3475 
Q 2822 3834 2567 4026 
Q 2313 4219 1838 4219 
Q 1578 4219 1281 4162 
Q 984 4106 628 3988 
L 628 4550 
Q 988 4650 1302 4700 
Q 1616 4750 1894 4750 
Q 2613 4750 3031 4423 
Q 3450 4097 3450 3541 
Q 3450 3153 3228 2886 
Q 3006 2619 2597 2516 
z
" transform="scale(0.015625)"/>
       </defs>
       <use xlink:href="#DejaVuSans-33"/>
       <use xlink:href="#DejaVuSans-30" x="63.623047"/>
       <use xlink:href="#DejaVuSans-30" x="127.246094"/>
       <use xlink:href="#DejaVuSans-30" x="190.869141"/>
      </g>
     </g>
    </g>
    <g id="xtick_5">
     <g id="line2d_5">
      <g>
       <use xlink:href="#m5a853a6b92" x="346.419359" y="257.158895" style="stroke: #000000; stroke-width: 0.8"/>
      </g>
     </g>
     <g id="text_5">
      <!-- 4000 -->
      <g transform="translate(333.694359 271.757332) scale(0.1 -0.1)">
       <defs>
        <path id="DejaVuSans-34" d="M 2419 4116 
L 825 1625 
L 2419 1625 
L 2419 4116 
z
M 2253 4666 
L 3047 4666 
L 3047 1625 
L 3713 1625 
L 3713 1100 
L 3047 1100 
L 3047 0 
L 2419 0 
L 2419 1100 
L 313 1100 
L 313 1709 
L 2253 4666 
z
" transform="scale(0.015625)"/>
       </defs>
       <use xlink:href="#DejaVuSans-34"/>
       <use xlink:href="#DejaVuSans-30" x="63.623047"/>
       <use xlink:href="#DejaVuSans-30" x="127.246094"/>
       <use xlink:href="#DejaVuSans-30" x="190.869141"/>
      </g>
     </g>
    </g>
    <g id="xtick_6">
     <g id="line2d_6">
      <g>
       <use xlink:href="#m5a853a6b92" x="415.609624" y="257.158895" style="stroke: #000000; stroke-width: 0.8"/>
      </g>
     </g>
     <g id="text_6">
      <!-- 5000 -->
      <g transform="translate(402.884624 271.757332) scale(0.1 -0.1)">
       <defs>
        <path id="DejaVuSans-35" d="M 691 4666 
L 3169 4666 
L 3169 4134 
L 1269 4134 
L 1269 2991 
Q 1406 3038 1543 3061 
Q 1681 3084 1819 3084 
Q 2600 3084 3056 2656 
Q 3513 2228 3513 1497 
Q 3513 744 3044 326 
Q 2575 -91 1722 -91 
Q 1428 -91 1123 -41 
Q 819 9 494 109 
L 494 744 
Q 775 591 1075 516 
Q 1375 441 1709 441 
Q 2250 441 2565 725 
Q 2881 1009 2881 1497 
Q 2881 1984 2565 2268 
Q 2250 2553 1709 2553 
Q 1456 2553 1204 2497 
Q 953 2441 691 2322 
L 691 4666 
z
" transform="scale(0.015625)"/>
       </defs>
       <use xlink:href="#DejaVuSans-35"/>
       <use xlink:href="#DejaVuSans-30" x="63.623047"/>
       <use xlink:href="#DejaVuSans-30" x="127.246094"/>
       <use xlink:href="#DejaVuSans-30" x="190.869141"/>
      </g>
     </g>
    </g>
    <g id="text_7">
     <!-- time [µs] -->
     <g transform="translate(220.031286 285.435457) scale(0.1 -0.1)">
      <defs>
       <path id="DejaVuSans-74" d="M 1172 4494 
L 1172 3500 
L 2356 3500 
L 2356 3053 
L 1172 3053 
L 1172 1153 
Q 1172 725 1289 603 
Q 1406 481 1766 481 
L 2356 481 
L 2356 0 
L 1766 0 
Q 1100 0 847 248 
Q 594 497 594 1153 
L 594 3053 
L 172 3053 
L 172 3500 
L 594 3500 
L 594 4494 
L 1172 4494 
z
" transform="scale(0.015625)"/>
       <path id="DejaVuSans-69" d="M 603 3500 
L 1178 3500 
L 1178 0 
L 603 0 
L 603 3500 
z
M 603 4863 
L 1178 4863 
L 1178 4134 
L 603 4134 
L 603 4863 
z
" transform="scale(0.015625)"/>
       <path id="DejaVuSans-6d" d="M 3328 2828 
Q 3544 3216 3844 3400 
Q 4144 3584 4550 3584 
Q 5097 3584 5394 3201 
Q 5691 2819 5691 2113 
L 5691 0 
L 5113 0 
L 5113 2094 
Q 5113 2597 4934 2840 
Q 4756 3084 4391 3084 
Q 3944 3084 3684 2787 
Q 3425 2491 3425 1978 
L 3425 0 
L 2847 0 
L 2847 2094 
Q 2847 2600 2669 2842 
Q 2491 3084 2119 3084 
Q 1678 3084 1418 2786 
Q 1159 2488 1159 1978 
L 1159 0 
L 581 0 
L 581 3500 
L 1159 3500 
L 1159 2956 
Q 1356 3278 1631 3431 
Q 1906 3584 2284 3584 
Q 2666 3584 2933 3390 
Q 3200 3197 3328 2828 
z
" transform="scale(0.015625)"/>
       <path id="DejaVuSans-65" d="M 3597 1894 
L 3597 1613 
L 953 1613 
Q 991 1019 1311 708 
Q 1631 397 2203 397 
Q 2534 397 2845 478 
Q 3156 559 3463 722 
L 3463 178 
Q 3153 47 2828 -22 
Q 2503 -91 2169 -91 
Q 1331 -91 842 396 
Q 353 884 353 1716 
Q 353 2575 817 3079 
Q 1281 3584 2069 3584 
Q 2775 3584 3186 3129 
Q 3597 2675 3597 1894 
z
M 3022 2063 
Q 3016 2534 2758 2815 
Q 2500 3097 2075 3097 
Q 1594 3097 1305 2825 
Q 1016 2553 972 2059 
L 3022 2063 
z
" transform="scale(0.015625)"/>
       <path id="DejaVuSans-20" transform="scale(0.015625)"/>
       <path id="DejaVuSans-5b" d="M 550 4863 
L 1875 4863 
L 1875 4416 
L 1125 4416 
L 1125 -397 
L 1875 -397 
L 1875 -844 
L 550 -844 
L 550 4863 
z
" transform="scale(0.015625)"/>
       <path id="DejaVuSans-b5" d="M 544 -1331 
L 544 3500 
L 1119 3500 
L 1119 1325 
Q 1119 872 1334 640 
Q 1550 409 1972 409 
Q 2434 409 2667 671 
Q 2900 934 2900 1459 
L 2900 3500 
L 3475 3500 
L 3475 806 
Q 3475 619 3529 530 
Q 3584 441 3700 441 
Q 3728 441 3778 458 
Q 3828 475 3916 513 
L 3916 50 
Q 3788 -22 3673 -56 
Q 3559 -91 3450 -91 
Q 3234 -91 3106 31 
Q 2978 153 2931 403 
Q 2775 156 2548 32 
Q 2322 -91 2016 -91 
Q 1697 -91 1473 31 
Q 1250 153 1119 397 
L 1119 -1331 
L 544 -1331 
z
" transform="scale(0.015625)"/>
       <path id="DejaVuSans-73" d="M 2834 3397 
L 2834 2853 
Q 2591 2978 2328 3040 
Q 2066 3103 1784 3103 
Q 1356 3103 1142 2972 
Q 928 2841 928 2578 
Q 928 2378 1081 2264 
Q 1234 2150 1697 2047 
L 1894 2003 
Q 2506 1872 2764 1633 
Q 3022 1394 3022 966 
Q 3022 478 2636 193 
Q 2250 -91 1575 -91 
Q 1294 -91 989 -36 
Q 684 19 347 128 
L 347 722 
Q 666 556 975 473 
Q 1284 391 1588 391 
Q 1994 391 2212 530 
Q 2431 669 2431 922 
Q 2431 1156 2273 1281 
Q 2116 1406 1581 1522 
L 1381 1569 
Q 847 1681 609 1914 
Q 372 2147 372 2553 
Q 372 3047 722 3315 
Q 1072 3584 1716 3584 
Q 2034 3584 2315 3537 
Q 2597 3491 2834 3397 
z
" transform="scale(0.015625)"/>
       <path id="DejaVuSans-5d" d="M 1947 4863 
L 1947 -844 
L 622 -844 
L 622 -397 
L 1369 -397 
L 1369 4416 
L 622 4416 
L 622 4863 
L 1947 4863 
z
" transform="scale(0.015625)"/>
      </defs>
      <use xlink:href="#DejaVuSans-74"/>
      <use xlink:href="#DejaVuSans-69" x="39.208984"/>
      <use xlink:href="#DejaVuSans-6d" x="66.992188"/>
      <use xlink:href="#DejaVuSans-65" x="164.404297"/>
      <use xlink:href="#DejaVuSans-20" x="225.927734"/>
      <use xlink:href="#DejaVuSans-5b" x="257.714844"/>
      <use xlink:href="#DejaVuSans-b5" x="296.728516"/>
      <use xlink:href="#DejaVuSans-73" x="360.351562"/>
      <use xlink:href="#DejaVuSans-5d" x="412.451172"/>
     </g>
    </g>
   </g>
   <g id="matplotlib.axis_2">
    <g id="ytick_1">
     <g id="line2d_7">
      <defs>
       <path id="m6324e73df1" d="M 0 0 
L -3.5 0 
" style="stroke: #000000; stroke-width: 0.8"/>
      </defs>
      <g>
       <use xlink:href="#m6324e73df1" x="53.328125" y="245.797127" style="stroke: #000000; stroke-width: 0.8"/>
      </g>
     </g>
     <g id="text_8">
      <!-- 0 -->
      <g transform="translate(39.965625 249.596346) scale(0.1 -0.1)">
       <use xlink:href="#DejaVuSans-30"/>
      </g>
     </g>
    </g>
    <g id="ytick_2">
     <g id="line2d_8">
      <g>
       <use xlink:href="#m6324e73df1" x="53.328125" y="209.381204" style="stroke: #000000; stroke-width: 0.8"/>
      </g>
     </g>
     <g id="text_9">
      <!-- 200 -->
      <g transform="translate(27.240625 213.180423) scale(0.1 -0.1)">
       <use xlink:href="#DejaVuSans-32"/>
       <use xlink:href="#DejaVuSans-30" x="63.623047"/>
       <use xlink:href="#DejaVuSans-30" x="127.246094"/>
      </g>
     </g>
    </g>
    <g id="ytick_3">
     <g id="line2d_9">
      <g>
       <use xlink:href="#m6324e73df1" x="53.328125" y="172.965281" style="stroke: #000000; stroke-width: 0.8"/>
      </g>
     </g>
     <g id="text_10">
      <!-- 400 -->
      <g transform="translate(27.240625 176.7645) scale(0.1 -0.1)">
       <use xlink:href="#DejaVuSans-34"/>
       <use xlink:href="#DejaVuSans-30" x="63.623047"/>
       <use xlink:href="#DejaVuSans-30" x="127.246094"/>
      </g>
     </g>
    </g>
    <g id="ytick_4">
     <g id="line2d_10">
      <g>
       <use xlink:href="#m6324e73df1" x="53.328125" y="136.549358" style="stroke: #000000; stroke-width: 0.8"/>
      </g>
     </g>
     <g id="text_11">
      <!-- 600 -->
      <g transform="translate(27.240625 140.348577) scale(0.1 -0.1)">
       <defs>
        <path id="DejaVuSans-36" d="M 2113 2584 
Q 1688 2584 1439 2293 
Q 1191 2003 1191 1497 
Q 1191 994 1439 701 
Q 1688 409 2113 409 
Q 2538 409 2786 701 
Q 3034 994 3034 1497 
Q 3034 2003 2786 2293 
Q 2538 2584 2113 2584 
z
M 3366 4563 
L 3366 3988 
Q 3128 4100 2886 4159 
Q 2644 4219 2406 4219 
Q 1781 4219 1451 3797 
Q 1122 3375 1075 2522 
Q 1259 2794 1537 2939 
Q 1816 3084 2150 3084 
Q 2853 3084 3261 2657 
Q 3669 2231 3669 1497 
Q 3669 778 3244 343 
Q 2819 -91 2113 -91 
Q 1303 -91 875 529 
Q 447 1150 447 2328 
Q 447 3434 972 4092 
Q 1497 4750 2381 4750 
Q 2619 4750 2861 4703 
Q 3103 4656 3366 4563 
z
" transform="scale(0.015625)"/>
       </defs>
       <use xlink:href="#DejaVuSans-36"/>
       <use xlink:href="#DejaVuSans-30" x="63.623047"/>
       <use xlink:href="#DejaVuSans-30" x="127.246094"/>
      </g>
     </g>
    </g>
    <g id="ytick_5">
     <g id="line2d_11">
      <g>
       <use xlink:href="#m6324e73df1" x="53.328125" y="100.133435" style="stroke: #000000; stroke-width: 0.8"/>
      </g>
     </g>
     <g id="text_12">
      <!-- 800 -->
      <g transform="translate(27.240625 103.932654) scale(0.1 -0.1)">
       <defs>
        <path id="DejaVuSans-38" d="M 2034 2216 
Q 1584 2216 1326 1975 
Q 1069 1734 1069 1313 
Q 1069 891 1326 650 
Q 1584 409 2034 409 
Q 2484 409 2743 651 
Q 3003 894 3003 1313 
Q 3003 1734 2745 1975 
Q 2488 2216 2034 2216 
z
M 1403 2484 
Q 997 2584 770 2862 
Q 544 3141 544 3541 
Q 544 4100 942 4425 
Q 1341 4750 2034 4750 
Q 2731 4750 3128 4425 
Q 3525 4100 3525 3541 
Q 3525 3141 3298 2862 
Q 3072 2584 2669 2484 
Q 3125 2378 3379 2068 
Q 3634 1759 3634 1313 
Q 3634 634 3220 271 
Q 2806 -91 2034 -91 
Q 1263 -91 848 271 
Q 434 634 434 1313 
Q 434 1759 690 2068 
Q 947 2378 1403 2484 
z
M 1172 3481 
Q 1172 3119 1398 2916 
Q 1625 2713 2034 2713 
Q 2441 2713 2670 2916 
Q 2900 3119 2900 3481 
Q 2900 3844 2670 4047 
Q 2441 4250 2034 4250 
Q 1625 4250 1398 4047 
Q 1172 3844 1172 3481 
z
" transform="scale(0.015625)"/>
       </defs>
       <use xlink:href="#DejaVuSans-38"/>
       <use xlink:href="#DejaVuSans-30" x="63.623047"/>
       <use xlink:href="#DejaVuSans-30" x="127.246094"/>
      </g>
     </g>
    </g>
    <g id="ytick_6">
     <g id="line2d_12">
      <g>
       <use xlink:href="#m6324e73df1" x="53.328125" y="63.717512" style="stroke: #000000; stroke-width: 0.8"/>
      </g>
     </g>
     <g id="text_13">
      <!-- 1000 -->
      <g transform="translate(20.878125 67.516731) scale(0.1 -0.1)">
       <use xlink:href="#DejaVuSans-31"/>
       <use xlink:href="#DejaVuSans-30" x="63.623047"/>
       <use xlink:href="#DejaVuSans-30" x="127.246094"/>
       <use xlink:href="#DejaVuSans-30" x="190.869141"/>
      </g>
     </g>
    </g>
    <g id="ytick_7">
     <g id="line2d_13">
      <g>
       <use xlink:href="#m6324e73df1" x="53.328125" y="27.301589" style="stroke: #000000; stroke-width: 0.8"/>
      </g>
     </g>
     <g id="text_14">
      <!-- 1200 -->
      <g transform="translate(20.878125 31.100808) scale(0.1 -0.1)">
       <use xlink:href="#DejaVuSans-31"/>
       <use xlink:href="#DejaVuSans-32" x="63.623047"/>
       <use xlink:href="#DejaVuSans-30" x="127.246094"/>
       <use xlink:href="#DejaVuSans-30" x="190.869141"/>
      </g>
     </g>
    </g>
    <g id="text_15">
     <!-- [counts] -->
     <g transform="translate(14.798438 152.791947) rotate(-90) scale(0.1 -0.1)">
      <defs>
       <path id="DejaVuSans-63" d="M 3122 3366 
L 3122 2828 
Q 2878 2963 2633 3030 
Q 2388 3097 2138 3097 
Q 1578 3097 1268 2742 
Q 959 2388 959 1747 
Q 959 1106 1268 751 
Q 1578 397 2138 397 
Q 2388 397 2633 464 
Q 2878 531 3122 666 
L 3122 134 
Q 2881 22 2623 -34 
Q 2366 -91 2075 -91 
Q 1284 -91 818 406 
Q 353 903 353 1747 
Q 353 2603 823 3093 
Q 1294 3584 2113 3584 
Q 2378 3584 2631 3529 
Q 2884 3475 3122 3366 
z
" transform="scale(0.015625)"/>
       <path id="DejaVuSans-6f" d="M 1959 3097 
Q 1497 3097 1228 2736 
Q 959 2375 959 1747 
Q 959 1119 1226 758 
Q 1494 397 1959 397 
Q 2419 397 2687 759 
Q 2956 1122 2956 1747 
Q 2956 2369 2687 2733 
Q 2419 3097 1959 3097 
z
M 1959 3584 
Q 2709 3584 3137 3096 
Q 3566 2609 3566 1747 
Q 3566 888 3137 398 
Q 2709 -91 1959 -91 
Q 1206 -91 779 398 
Q 353 888 353 1747 
Q 353 2609 779 3096 
Q 1206 3584 1959 3584 
z
" transform="scale(0.015625)"/>
       <path id="DejaVuSans-75" d="M 544 1381 
L 544 3500 
L 1119 3500 
L 1119 1403 
Q 1119 906 1312 657 
Q 1506 409 1894 409 
Q 2359 409 2629 706 
Q 2900 1003 2900 1516 
L 2900 3500 
L 3475 3500 
L 3475 0 
L 2900 0 
L 2900 538 
Q 2691 219 2414 64 
Q 2138 -91 1772 -91 
Q 1169 -91 856 284 
Q 544 659 544 1381 
z
M 1991 3584 
L 1991 3584 
z
" transform="scale(0.015625)"/>
       <path id="DejaVuSans-6e" d="M 3513 2113 
L 3513 0 
L 2938 0 
L 2938 2094 
Q 2938 2591 2744 2837 
Q 2550 3084 2163 3084 
Q 1697 3084 1428 2787 
Q 1159 2491 1159 1978 
L 1159 0 
L 581 0 
L 581 3500 
L 1159 3500 
L 1159 2956 
Q 1366 3272 1645 3428 
Q 1925 3584 2291 3584 
Q 2894 3584 3203 3211 
Q 3513 2838 3513 2113 
z
" transform="scale(0.015625)"/>
      </defs>
      <use xlink:href="#DejaVuSans-5b"/>
      <use xlink:href="#DejaVuSans-63" x="39.013672"/>
      <use xlink:href="#DejaVuSans-6f" x="93.994141"/>
      <use xlink:href="#DejaVuSans-75" x="155.175781"/>
      <use xlink:href="#DejaVuSans-6e" x="218.554688"/>
      <use xlink:href="#DejaVuSans-74" x="281.933594"/>
      <use xlink:href="#DejaVuSans-73" x="321.142578"/>
      <use xlink:href="#DejaVuSans-5d" x="373.242188"/>
     </g>
    </g>
   </g>
   <g id="patch_3">
    <path d="M 53.328125 257.158895 
L 53.328125 7.2 
" style="fill: none; stroke: #000000; stroke-width: 0.8; stroke-linejoin: miter; stroke-linecap: square"/>
   </g>
   <g id="patch_4">
    <path d="M 431.87976 257.158895 
L 431.87976 7.2 
" style="fill: none; stroke: #000000; stroke-width: 0.8; stroke-linejoin: miter; stroke-linecap: square"/>
   </g>
   <g id="patch_5">
    <path d="M 53.328125 257.158895 
L 431.87976 257.158895 
" style="fill: none; stroke: #000000; stroke-width: 0.8; stroke-linejoin: miter; stroke-linecap: square"/>
   </g>
   <g id="patch_6">
    <path d="M 53.328125 7.2 
L 431.87976 7.2 
" style="fill: none; stroke: #000000; stroke-width: 0.8; stroke-linejoin: miter; stroke-linecap: square"/>
   </g>
   <g id="line2d_14">
    <path d="M 70.535017 233.597793 
L 71.682144 233.597793 
L 71.682144 227.953325 
L 72.82927 227.953325 
L 72.82927 220.305981 
L 73.976396 220.305981 
L 73.976396 209.381204 
L 75.123522 209.381204 
L 75.123522 208.288726 
L 76.270648 208.288726 
L 76.270648 194.086516 
L 77.417774 194.086516 
L 77.417774 185.528775 
L 78.564901 185.528775 
L 78.564901 180.066386 
L 79.712027 180.066386 
L 79.712027 168.77745 
L 80.859153 168.77745 
L 80.859153 162.040504 
L 82.006279 162.040504 
L 82.006279 161.312186 
L 83.153405 161.312186 
L 83.153405 149.477011 
L 84.300531 149.477011 
L 84.300531 147.474135 
L 85.447658 147.474135 
L 85.447658 136.185199 
L 86.594784 136.185199 
L 86.594784 138.370154 
L 87.74191 138.370154 
L 87.74191 130.176572 
L 88.889036 130.176572 
L 88.889036 122.347148 
L 90.036162 122.347148 
L 90.036162 112.33277 
L 91.183288 112.33277 
L 91.183288 111.422371 
L 92.330415 111.422371 
L 92.330415 109.237416 
L 93.477541 109.237416 
L 93.477541 105.231665 
L 94.624667 105.231665 
L 94.624667 99.951356 
L 95.771793 99.951356 
L 95.771793 94.306888 
L 96.918919 94.306888 
L 96.918919 88.48034 
L 98.066045 88.48034 
L 98.066045 90.483216 
L 99.213172 90.483216 
L 99.213172 76.463085 
L 100.360298 76.463085 
L 100.360298 76.827245 
L 101.507424 76.827245 
L 101.507424 77.555563 
L 102.65455 77.555563 
L 102.65455 80.832996 
L 103.801676 80.832996 
L 103.801676 67.723264 
L 104.948802 67.723264 
L 104.948802 74.09605 
L 106.095929 74.09605 
L 106.095929 64.80999 
L 107.243055 64.80999 
L 107.243055 66.084547 
L 108.390181 66.084547 
L 108.390181 65.902468 
L 109.537307 65.902468 
L 109.537307 59.165522 
L 110.684433 59.165522 
L 110.684433 62.807114 
L 111.831559 62.807114 
L 111.831559 50.971939 
L 112.978686 50.971939 
L 112.978686 66.994945 
L 114.125812 66.994945 
L 114.125812 58.801363 
L 115.272938 58.801363 
L 115.272938 67.723264 
L 116.420064 67.723264 
L 116.420064 52.428576 
L 117.56719 52.428576 
L 117.56719 64.445831 
L 118.714316 64.445831 
L 118.714316 56.980567 
L 119.861443 56.980567 
L 119.861443 48.969064 
L 121.008569 48.969064 
L 121.008569 59.347602 
L 122.155695 59.347602 
L 122.155695 51.700258 
L 123.302821 51.700258 
L 123.302821 40.411322 
L 124.449947 40.411322 
L 124.449947 61.168398 
L 125.597073 61.168398 
L 125.597073 44.052914 
L 126.7442 44.052914 
L 126.7442 50.425701 
L 127.891326 50.425701 
L 127.891326 35.677252 
L 129.038452 35.677252 
L 129.038452 48.240745 
L 130.185578 48.240745 
L 130.185578 45.327471 
L 131.332704 45.327471 
L 131.332704 38.408446 
L 132.47983 38.408446 
L 132.47983 46.419949 
L 133.626957 46.419949 
L 133.626957 45.691631 
L 134.774083 45.691631 
L 134.774083 37.862207 
L 135.921209 37.862207 
L 135.921209 41.503799 
L 137.068335 41.503799 
L 137.068335 45.509551 
L 138.215461 45.509551 
L 138.215461 35.495172 
L 139.362587 35.495172 
L 139.362587 46.419949 
L 140.509714 46.419949 
L 140.509714 45.327471 
L 141.65684 45.327471 
L 141.65684 41.13964 
L 142.803966 41.13964 
L 142.803966 40.047162 
L 143.951092 40.047162 
L 143.951092 42.960436 
L 145.098218 42.960436 
L 145.098218 38.954685 
L 146.245344 38.954685 
L 146.245344 40.047162 
L 147.392471 40.047162 
L 147.392471 32.581898 
L 148.539597 32.581898 
L 148.539597 44.417073 
L 149.686723 44.417073 
L 149.686723 34.402694 
L 150.833849 34.402694 
L 150.833849 35.859331 
L 151.980975 35.859331 
L 151.980975 38.590526 
L 153.128101 38.590526 
L 153.128101 38.044287 
L 154.275228 38.044287 
L 154.275228 40.593401 
L 155.422354 40.593401 
L 155.422354 50.425701 
L 156.56948 50.425701 
L 156.56948 36.40557 
L 157.716606 36.40557 
L 157.716606 48.058666 
L 158.863732 48.058666 
L 158.863732 45.509551 
L 160.010858 45.509551 
L 160.010858 36.58765 
L 161.157985 36.58765 
L 161.157985 25.116634 
L 162.305111 25.116634 
L 162.305111 37.862207 
L 163.452237 37.862207 
L 163.452237 30.943182 
L 165.746489 30.943182 
L 165.746489 45.509551 
L 166.893615 45.509551 
L 166.893615 36.769729 
L 168.040742 36.769729 
L 168.040742 29.850704 
L 169.187868 29.850704 
L 169.187868 38.044287 
L 170.334994 38.044287 
L 170.334994 34.948933 
L 171.48212 34.948933 
L 171.48212 26.93743 
L 172.629246 26.93743 
L 172.629246 36.223491 
L 173.776372 36.223491 
L 173.776372 33.856456 
L 174.923499 33.856456 
L 174.923499 33.128137 
L 176.070625 33.128137 
L 176.070625 37.862207 
L 177.217751 37.862207 
L 177.217751 45.327471 
L 178.364877 45.327471 
L 178.364877 31.6715 
L 179.512003 31.6715 
L 179.512003 36.223491 
L 180.659129 36.223491 
L 180.659129 41.13964 
L 181.806256 41.13964 
L 181.806256 40.775481 
L 182.953382 40.775481 
L 182.953382 36.041411 
L 184.100508 36.041411 
L 184.100508 38.772605 
L 185.247634 38.772605 
L 185.247634 42.960436 
L 186.39476 42.960436 
L 186.39476 35.859331 
L 187.541886 35.859331 
L 187.541886 29.486545 
L 188.689013 29.486545 
L 188.689013 32.035659 
L 189.836139 32.035659 
L 189.836139 37.133889 
L 190.983265 37.133889 
L 190.983265 34.038535 
L 192.130391 34.038535 
L 192.130391 39.500924 
L 193.277517 39.500924 
L 193.277517 28.940306 
L 194.424643 28.940306 
L 194.424643 32.399819 
L 195.57177 32.399819 
L 195.57177 40.411322 
L 196.718896 40.411322 
L 196.718896 37.862207 
L 197.866022 37.862207 
L 197.866022 37.498048 
L 199.013148 37.498048 
L 199.013148 32.217739 
L 200.160274 32.217739 
L 200.160274 25.480793 
L 201.3074 25.480793 
L 201.3074 33.674376 
L 202.454527 33.674376 
L 202.454527 42.596277 
L 203.601653 42.596277 
L 203.601653 27.301589 
L 204.748779 27.301589 
L 204.748779 44.052914 
L 205.895905 44.052914 
L 205.895905 43.142516 
L 207.043031 43.142516 
L 207.043031 36.40557 
L 208.190157 36.40557 
L 208.190157 39.683003 
L 209.337284 39.683003 
L 209.337284 29.304465 
L 210.48441 29.304465 
L 210.48441 33.856456 
L 211.631536 33.856456 
L 211.631536 30.396943 
L 212.778662 30.396943 
L 212.778662 46.05579 
L 213.925788 46.05579 
L 213.925788 29.304465 
L 215.072914 29.304465 
L 215.072914 39.683003 
L 216.220041 39.683003 
L 216.220041 34.402694 
L 217.367167 34.402694 
L 217.367167 30.214863 
L 218.514293 30.214863 
L 218.514293 35.313093 
L 219.661419 35.313093 
L 219.661419 32.035659 
L 220.808545 32.035659 
L 220.808545 39.136764 
L 221.955671 39.136764 
L 221.955671 30.579023 
L 223.102798 30.579023 
L 223.102798 37.680127 
L 224.249924 37.680127 
L 224.249924 40.593401 
L 225.39705 40.593401 
L 225.39705 41.32172 
L 226.544176 41.32172 
L 226.544176 41.13964 
L 227.691302 41.13964 
L 227.691302 27.483669 
L 228.838428 27.483669 
L 228.838428 30.214863 
L 229.985555 30.214863 
L 229.985555 39.136764 
L 231.132681 39.136764 
L 231.132681 35.859331 
L 232.279807 35.859331 
L 232.279807 36.40557 
L 233.426933 36.40557 
L 233.426933 29.486545 
L 234.574059 29.486545 
L 234.574059 34.584774 
L 235.721185 34.584774 
L 235.721185 41.685879 
L 236.868312 41.685879 
L 236.868312 36.041411 
L 238.015438 36.041411 
L 238.015438 37.315968 
L 239.162564 37.315968 
L 239.162564 32.581898 
L 240.30969 32.581898 
L 240.30969 44.052914 
L 241.456816 44.052914 
L 241.456816 38.044287 
L 242.603942 38.044287 
L 242.603942 34.948933 
L 243.751069 34.948933 
L 243.751069 45.691631 
L 244.898195 45.691631 
L 244.898195 24.752475 
L 246.045321 24.752475 
L 246.045321 36.041411 
L 247.192447 36.041411 
L 247.192447 25.298714 
L 248.339573 25.298714 
L 248.339573 38.044287 
L 249.486699 38.044287 
L 249.486699 33.856456 
L 250.633826 33.856456 
L 250.633826 23.659997 
L 251.780952 23.659997 
L 251.780952 45.327471 
L 252.928078 45.327471 
L 252.928078 43.688755 
L 254.075204 43.688755 
L 254.075204 34.038535 
L 255.22233 34.038535 
L 255.22233 46.602029 
L 256.369456 46.602029 
L 256.369456 34.038535 
L 257.516583 34.038535 
L 257.516583 29.304465 
L 258.663709 29.304465 
L 258.663709 18.561768 
L 259.810835 18.561768 
L 259.810835 44.234994 
L 260.957961 44.234994 
L 260.957961 38.226366 
L 262.105087 38.226366 
L 262.105087 40.775481 
L 263.252213 40.775481 
L 263.252213 41.503799 
L 264.39934 41.503799 
L 264.39934 30.214863 
L 265.546466 30.214863 
L 265.546466 31.6715 
L 266.693592 31.6715 
L 266.693592 50.425701 
L 267.840718 50.425701 
L 267.840718 42.960436 
L 268.987844 42.960436 
L 268.987844 44.234994 
L 270.13497 44.234994 
L 270.13497 54.067293 
L 271.282097 54.067293 
L 271.282097 66.084547 
L 272.429223 66.084547 
L 272.429223 77.737643 
L 273.576349 77.737643 
L 273.576349 79.922598 
L 274.723475 79.922598 
L 274.723475 82.107553 
L 275.870601 82.107553 
L 275.870601 95.399365 
L 277.017727 95.399365 
L 277.017727 108.327018 
L 278.164854 108.327018 
L 278.164854 119.980113 
L 279.31198 119.980113 
L 279.31198 122.165069 
L 280.459106 122.165069 
L 280.459106 123.439626 
L 281.606232 123.439626 
L 281.606232 131.269049 
L 282.753358 131.269049 
L 282.753358 144.378782 
L 283.900484 144.378782 
L 283.900484 151.844046 
L 285.047611 151.844046 
L 285.047611 150.933648 
L 286.194737 150.933648 
L 286.194737 162.950902 
L 287.341863 162.950902 
L 287.341863 160.219708 
L 288.488989 160.219708 
L 288.488989 162.222584 
L 289.636115 162.222584 
L 289.636115 170.598246 
L 290.783241 170.598246 
L 290.783241 180.066386 
L 291.930368 180.066386 
L 291.930368 172.054883 
L 293.077494 172.054883 
L 293.077494 187.349571 
L 294.22462 187.349571 
L 294.22462 175.514396 
L 295.371746 175.514396 
L 295.371746 190.444924 
L 296.518872 190.444924 
L 296.518872 192.4478 
L 297.665998 192.4478 
L 297.665998 193.176118 
L 298.813125 193.176118 
L 298.813125 194.996915 
L 299.960251 194.996915 
L 299.960251 206.103771 
L 301.107377 206.103771 
L 301.107377 199.184746 
L 302.254503 199.184746 
L 302.254503 205.739612 
L 303.401629 205.739612 
L 303.401629 213.386956 
L 304.548755 213.386956 
L 304.548755 211.748239 
L 305.695882 211.748239 
L 305.695882 208.288726 
L 306.843008 208.288726 
L 306.843008 212.476558 
L 307.990134 212.476558 
L 307.990134 213.933194 
L 309.13726 213.933194 
L 309.13726 217.210628 
L 310.284386 217.210628 
L 310.284386 216.846468 
L 311.431512 216.846468 
L 311.431512 218.485185 
L 312.578639 218.485185 
L 312.578639 221.944698 
L 313.725765 221.944698 
L 313.725765 224.493812 
L 314.872891 224.493812 
L 314.872891 225.222131 
L 316.020017 225.222131 
L 316.020017 227.407086 
L 317.167143 227.407086 
L 317.167143 225.768369 
L 318.314269 225.768369 
L 318.314269 226.678768 
L 319.461396 226.678768 
L 319.461396 225.768369 
L 320.608522 225.768369 
L 320.608522 225.040051 
L 321.755648 225.040051 
L 321.755648 228.863723 
L 322.902774 228.863723 
L 322.902774 230.32036 
L 324.0499 230.32036 
L 324.0499 233.051554 
L 325.197026 233.051554 
L 325.197026 230.866599 
L 326.344153 230.866599 
L 326.344153 230.684519 
L 327.491279 230.684519 
L 327.491279 232.505315 
L 328.638405 232.505315 
L 328.638405 234.87235 
L 329.785531 234.87235 
L 329.785531 235.418589 
L 330.932657 235.418589 
L 330.932657 236.511067 
L 332.079783 236.511067 
L 332.079783 236.328987 
L 333.22691 236.328987 
L 333.22691 237.239385 
L 334.374036 237.239385 
L 334.374036 237.603544 
L 336.668288 237.603544 
L 336.668288 237.967704 
L 337.815414 237.967704 
L 337.815414 235.600669 
L 338.96254 235.600669 
L 338.96254 238.513942 
L 340.109667 238.513942 
L 340.109667 238.878102 
L 341.256793 238.878102 
L 341.256793 239.242261 
L 342.403919 239.242261 
L 342.403919 240.334739 
L 343.551045 240.334739 
L 343.551045 239.7885 
L 344.698171 239.7885 
L 344.698171 239.970579 
L 346.992424 239.970579 
L 346.992424 241.427216 
L 348.13955 241.427216 
L 348.13955 239.7885 
L 349.286676 239.7885 
L 349.286676 239.424341 
L 350.433802 239.424341 
L 350.433802 241.427216 
L 351.580928 241.427216 
L 351.580928 242.701774 
L 352.728054 242.701774 
L 352.728054 243.065933 
L 353.875181 243.065933 
L 353.875181 241.791376 
L 355.022307 241.791376 
L 355.022307 243.065933 
L 357.316559 243.065933 
L 357.316559 243.612172 
L 358.463685 243.612172 
L 358.463685 242.883853 
L 359.610811 242.883853 
L 359.610811 243.430092 
L 360.757938 243.430092 
L 360.757938 242.883853 
L 363.05219 242.883853 
L 363.05219 244.158411 
L 365.346442 244.158411 
L 365.346442 243.065933 
L 366.493568 243.065933 
L 366.493568 244.158411 
L 367.640695 244.158411 
L 367.640695 243.248012 
L 368.787821 243.248012 
L 368.787821 244.158411 
L 369.934947 244.158411 
L 369.934947 243.612172 
L 371.082073 243.612172 
L 371.082073 244.52257 
L 373.376325 244.52257 
L 373.376325 245.250888 
L 374.523452 245.250888 
L 374.523452 244.34049 
L 377.96483 244.34049 
L 377.96483 244.704649 
L 379.111956 244.704649 
L 379.111956 244.886729 
L 380.259082 244.886729 
L 380.259082 244.704649 
L 383.700461 244.704649 
L 383.700461 245.068809 
L 384.847587 245.068809 
L 384.847587 244.704649 
L 385.994713 244.704649 
L 385.994713 245.250888 
L 387.141839 245.250888 
L 387.141839 245.068809 
L 388.288966 245.068809 
L 388.288966 245.250888 
L 391.730344 245.250888 
L 391.730344 245.797127 
L 394.024596 245.797127 
L 394.024596 245.432968 
L 395.171723 245.432968 
L 395.171723 245.068809 
L 396.318849 245.068809 
L 396.318849 245.615047 
L 397.465975 245.615047 
L 397.465975 244.886729 
L 398.613101 244.886729 
L 398.613101 245.797127 
L 399.760227 245.797127 
L 399.760227 245.068809 
L 400.907353 245.068809 
L 400.907353 245.432968 
L 402.05448 245.432968 
L 402.05448 245.250888 
L 403.201606 245.250888 
L 403.201606 245.615047 
L 405.495858 245.615047 
L 405.495858 245.432968 
L 406.642984 245.432968 
L 406.642984 245.615047 
L 407.79011 245.615047 
L 407.79011 245.432968 
L 410.084363 245.432968 
L 410.084363 244.886729 
L 411.231489 244.886729 
L 411.231489 245.432968 
L 413.525741 245.432968 
L 413.525741 245.068809 
L 414.672867 245.068809 
L 414.672867 245.068809 
" clip-path="url(#pd18e622fce)" style="fill: none; stroke: #1f77b4; stroke-width: 1.5; stroke-linecap: square"/>
   </g>
  </g>
  <g id="axes_2">
   <g id="patch_7">
    <path d="M 486.647885 257.158895 
L 865.19952 257.158895 
L 865.19952 7.2 
L 486.647885 7.2 
z
" style="fill: #ffffff"/>
   </g>
   <g id="matplotlib.axis_3">
    <g id="xtick_7">
     <g id="line2d_15">
      <g>
       <use xlink:href="#m5a853a6b92" x="500.382919" y="257.158895" style="stroke: #000000; stroke-width: 0.8"/>
      </g>
     </g>
     <g id="text_16">
      <!-- 0.0 -->
      <g transform="translate(492.431357 271.757332) scale(0.1 -0.1)">
       <defs>
        <path id="DejaVuSans-2e" d="M 684 794 
L 1344 794 
L 1344 0 
L 684 0 
L 684 794 
z
" transform="scale(0.015625)"/>
       </defs>
       <use xlink:href="#DejaVuSans-30"/>
       <use xlink:href="#DejaVuSans-2e" x="63.623047"/>
       <use xlink:href="#DejaVuSans-30" x="95.410156"/>
      </g>
     </g>
    </g>
    <g id="xtick_8">
     <g id="line2d_16">
      <g>
       <use xlink:href="#m5a853a6b92" x="544.104617" y="257.158895" style="stroke: #000000; stroke-width: 0.8"/>
      </g>
     </g>
     <g id="text_17">
      <!-- 2.5 -->
      <g transform="translate(536.153054 271.757332) scale(0.1 -0.1)">
       <use xlink:href="#DejaVuSans-32"/>
       <use xlink:href="#DejaVuSans-2e" x="63.623047"/>
       <use xlink:href="#DejaVuSans-35" x="95.410156"/>
      </g>
     </g>
    </g>
    <g id="xtick_9">
     <g id="line2d_17">
      <g>
       <use xlink:href="#m5a853a6b92" x="587.826314" y="257.158895" style="stroke: #000000; stroke-width: 0.8"/>
      </g>
     </g>
     <g id="text_18">
      <!-- 5.0 -->
      <g transform="translate(579.874751 271.757332) scale(0.1 -0.1)">
       <use xlink:href="#DejaVuSans-35"/>
       <use xlink:href="#DejaVuSans-2e" x="63.623047"/>
       <use xlink:href="#DejaVuSans-30" x="95.410156"/>
      </g>
     </g>
    </g>
    <g id="xtick_10">
     <g id="line2d_18">
      <g>
       <use xlink:href="#m5a853a6b92" x="631.548011" y="257.158895" style="stroke: #000000; stroke-width: 0.8"/>
      </g>
     </g>
     <g id="text_19">
      <!-- 7.5 -->
      <g transform="translate(623.596449 271.757332) scale(0.1 -0.1)">
       <defs>
        <path id="DejaVuSans-37" d="M 525 4666 
L 3525 4666 
L 3525 4397 
L 1831 0 
L 1172 0 
L 2766 4134 
L 525 4134 
L 525 4666 
z
" transform="scale(0.015625)"/>
       </defs>
       <use xlink:href="#DejaVuSans-37"/>
       <use xlink:href="#DejaVuSans-2e" x="63.623047"/>
       <use xlink:href="#DejaVuSans-35" x="95.410156"/>
      </g>
     </g>
    </g>
    <g id="xtick_11">
     <g id="line2d_19">
      <g>
       <use xlink:href="#m5a853a6b92" x="675.269709" y="257.158895" style="stroke: #000000; stroke-width: 0.8"/>
      </g>
     </g>
     <g id="text_20">
      <!-- 10.0 -->
      <g transform="translate(664.136896 271.757332) scale(0.1 -0.1)">
       <use xlink:href="#DejaVuSans-31"/>
       <use xlink:href="#DejaVuSans-30" x="63.623047"/>
       <use xlink:href="#DejaVuSans-2e" x="127.246094"/>
       <use xlink:href="#DejaVuSans-30" x="159.033203"/>
      </g>
     </g>
    </g>
    <g id="xtick_12">
     <g id="line2d_20">
      <g>
       <use xlink:href="#m5a853a6b92" x="718.991406" y="257.158895" style="stroke: #000000; stroke-width: 0.8"/>
      </g>
     </g>
     <g id="text_21">
      <!-- 12.5 -->
      <g transform="translate(707.858593 271.757332) scale(0.1 -0.1)">
       <use xlink:href="#DejaVuSans-31"/>
       <use xlink:href="#DejaVuSans-32" x="63.623047"/>
       <use xlink:href="#DejaVuSans-2e" x="127.246094"/>
       <use xlink:href="#DejaVuSans-35" x="159.033203"/>
      </g>
     </g>
    </g>
    <g id="xtick_13">
     <g id="line2d_21">
      <g>
       <use xlink:href="#m5a853a6b92" x="762.713103" y="257.158895" style="stroke: #000000; stroke-width: 0.8"/>
      </g>
     </g>
     <g id="text_22">
      <!-- 15.0 -->
      <g transform="translate(751.580291 271.757332) scale(0.1 -0.1)">
       <use xlink:href="#DejaVuSans-31"/>
       <use xlink:href="#DejaVuSans-35" x="63.623047"/>
       <use xlink:href="#DejaVuSans-2e" x="127.246094"/>
       <use xlink:href="#DejaVuSans-30" x="159.033203"/>
      </g>
     </g>
    </g>
    <g id="xtick_14">
     <g id="line2d_22">
      <g>
       <use xlink:href="#m5a853a6b92" x="806.434801" y="257.158895" style="stroke: #000000; stroke-width: 0.8"/>
      </g>
     </g>
     <g id="text_23">
      <!-- 17.5 -->
      <g transform="translate(795.301988 271.757332) scale(0.1 -0.1)">
       <use xlink:href="#DejaVuSans-31"/>
       <use xlink:href="#DejaVuSans-37" x="63.623047"/>
       <use xlink:href="#DejaVuSans-2e" x="127.246094"/>
       <use xlink:href="#DejaVuSans-35" x="159.033203"/>
      </g>
     </g>
    </g>
    <g id="xtick_15">
     <g id="line2d_23">
      <g>
       <use xlink:href="#m5a853a6b92" x="850.156498" y="257.158895" style="stroke: #000000; stroke-width: 0.8"/>
      </g>
     </g>
     <g id="text_24">
      <!-- 20.0 -->
      <g transform="translate(839.023685 271.757332) scale(0.1 -0.1)">
       <use xlink:href="#DejaVuSans-32"/>
       <use xlink:href="#DejaVuSans-30" x="63.623047"/>
       <use xlink:href="#DejaVuSans-2e" x="127.246094"/>
       <use xlink:href="#DejaVuSans-30" x="159.033203"/>
      </g>
     </g>
    </g>
    <g id="text_25">
     <!-- wavelength [Å] -->
     <g transform="translate(637.886202 287.119832) scale(0.1 -0.1)">
      <defs>
       <path id="DejaVuSans-77" d="M 269 3500 
L 844 3500 
L 1563 769 
L 2278 3500 
L 2956 3500 
L 3675 769 
L 4391 3500 
L 4966 3500 
L 4050 0 
L 3372 0 
L 2619 2869 
L 1863 0 
L 1184 0 
L 269 3500 
z
" transform="scale(0.015625)"/>
       <path id="DejaVuSans-61" d="M 2194 1759 
Q 1497 1759 1228 1600 
Q 959 1441 959 1056 
Q 959 750 1161 570 
Q 1363 391 1709 391 
Q 2188 391 2477 730 
Q 2766 1069 2766 1631 
L 2766 1759 
L 2194 1759 
z
M 3341 1997 
L 3341 0 
L 2766 0 
L 2766 531 
Q 2569 213 2275 61 
Q 1981 -91 1556 -91 
Q 1019 -91 701 211 
Q 384 513 384 1019 
Q 384 1609 779 1909 
Q 1175 2209 1959 2209 
L 2766 2209 
L 2766 2266 
Q 2766 2663 2505 2880 
Q 2244 3097 1772 3097 
Q 1472 3097 1187 3025 
Q 903 2953 641 2809 
L 641 3341 
Q 956 3463 1253 3523 
Q 1550 3584 1831 3584 
Q 2591 3584 2966 3190 
Q 3341 2797 3341 1997 
z
" transform="scale(0.015625)"/>
       <path id="DejaVuSans-76" d="M 191 3500 
L 800 3500 
L 1894 563 
L 2988 3500 
L 3597 3500 
L 2284 0 
L 1503 0 
L 191 3500 
z
" transform="scale(0.015625)"/>
       <path id="DejaVuSans-6c" d="M 603 4863 
L 1178 4863 
L 1178 0 
L 603 0 
L 603 4863 
z
" transform="scale(0.015625)"/>
       <path id="DejaVuSans-67" d="M 2906 1791 
Q 2906 2416 2648 2759 
Q 2391 3103 1925 3103 
Q 1463 3103 1205 2759 
Q 947 2416 947 1791 
Q 947 1169 1205 825 
Q 1463 481 1925 481 
Q 2391 481 2648 825 
Q 2906 1169 2906 1791 
z
M 3481 434 
Q 3481 -459 3084 -895 
Q 2688 -1331 1869 -1331 
Q 1566 -1331 1297 -1286 
Q 1028 -1241 775 -1147 
L 775 -588 
Q 1028 -725 1275 -790 
Q 1522 -856 1778 -856 
Q 2344 -856 2625 -561 
Q 2906 -266 2906 331 
L 2906 616 
Q 2728 306 2450 153 
Q 2172 0 1784 0 
Q 1141 0 747 490 
Q 353 981 353 1791 
Q 353 2603 747 3093 
Q 1141 3584 1784 3584 
Q 2172 3584 2450 3431 
Q 2728 3278 2906 2969 
L 2906 3500 
L 3481 3500 
L 3481 434 
z
" transform="scale(0.015625)"/>
       <path id="DejaVuSans-68" d="M 3513 2113 
L 3513 0 
L 2938 0 
L 2938 2094 
Q 2938 2591 2744 2837 
Q 2550 3084 2163 3084 
Q 1697 3084 1428 2787 
Q 1159 2491 1159 1978 
L 1159 0 
L 581 0 
L 581 4863 
L 1159 4863 
L 1159 2956 
Q 1366 3272 1645 3428 
Q 1925 3584 2291 3584 
Q 2894 3584 3203 3211 
Q 3513 2838 3513 2113 
z
" transform="scale(0.015625)"/>
       <path id="DejaVuSans-c5" d="M 2663 5081 
Q 2663 5278 2523 5417 
Q 2384 5556 2188 5556 
Q 1988 5556 1852 5420 
Q 1716 5284 1716 5081 
Q 1716 4884 1853 4746 
Q 1991 4609 2188 4609 
Q 2384 4609 2523 4746 
Q 2663 4884 2663 5081 
z
M 2188 4044 
L 1338 1722 
L 3041 1722 
L 2188 4044 
z
M 1716 4366 
Q 1525 4494 1428 4673 
Q 1331 4853 1331 5081 
Q 1331 5441 1579 5691 
Q 1828 5941 2188 5941 
Q 2544 5941 2795 5689 
Q 3047 5438 3047 5081 
Q 3047 4863 2948 4678 
Q 2850 4494 2663 4366 
L 4325 0 
L 3669 0 
L 3244 1197 
L 1141 1197 
L 716 0 
L 50 0 
L 1716 4366 
z
" transform="scale(0.015625)"/>
      </defs>
      <use xlink:href="#DejaVuSans-77"/>
      <use xlink:href="#DejaVuSans-61" x="81.787109"/>
      <use xlink:href="#DejaVuSans-76" x="143.066406"/>
      <use xlink:href="#DejaVuSans-65" x="202.246094"/>
      <use xlink:href="#DejaVuSans-6c" x="263.769531"/>
      <use xlink:href="#DejaVuSans-65" x="291.552734"/>
      <use xlink:href="#DejaVuSans-6e" x="353.076172"/>
      <use xlink:href="#DejaVuSans-67" x="416.455078"/>
      <use xlink:href="#DejaVuSans-74" x="479.931641"/>
      <use xlink:href="#DejaVuSans-68" x="519.140625"/>
      <use xlink:href="#DejaVuSans-20" x="582.519531"/>
      <use xlink:href="#DejaVuSans-5b" x="614.306641"/>
      <use xlink:href="#DejaVuSans-c5" x="653.320312"/>
      <use xlink:href="#DejaVuSans-5d" x="721.728516"/>
     </g>
    </g>
   </g>
   <g id="matplotlib.axis_4">
    <g id="ytick_8">
     <g id="line2d_24">
      <g>
       <use xlink:href="#m6324e73df1" x="486.647885" y="245.797127" style="stroke: #000000; stroke-width: 0.8"/>
      </g>
     </g>
     <g id="text_26">
      <!-- 0 -->
      <g transform="translate(473.285385 249.596346) scale(0.1 -0.1)">
       <use xlink:href="#DejaVuSans-30"/>
      </g>
     </g>
    </g>
    <g id="ytick_9">
     <g id="line2d_25">
      <g>
       <use xlink:href="#m6324e73df1" x="486.647885" y="193.893208" style="stroke: #000000; stroke-width: 0.8"/>
      </g>
     </g>
     <g id="text_27">
      <!-- 1000 -->
      <g transform="translate(454.197885 197.692426) scale(0.1 -0.1)">
       <use xlink:href="#DejaVuSans-31"/>
       <use xlink:href="#DejaVuSans-30" x="63.623047"/>
       <use xlink:href="#DejaVuSans-30" x="127.246094"/>
       <use xlink:href="#DejaVuSans-30" x="190.869141"/>
      </g>
     </g>
    </g>
    <g id="ytick_10">
     <g id="line2d_26">
      <g>
       <use xlink:href="#m6324e73df1" x="486.647885" y="141.989288" style="stroke: #000000; stroke-width: 0.8"/>
      </g>
     </g>
     <g id="text_28">
      <!-- 2000 -->
      <g transform="translate(454.197885 145.788507) scale(0.1 -0.1)">
       <use xlink:href="#DejaVuSans-32"/>
       <use xlink:href="#DejaVuSans-30" x="63.623047"/>
       <use xlink:href="#DejaVuSans-30" x="127.246094"/>
       <use xlink:href="#DejaVuSans-30" x="190.869141"/>
      </g>
     </g>
    </g>
    <g id="ytick_11">
     <g id="line2d_27">
      <g>
       <use xlink:href="#m6324e73df1" x="486.647885" y="90.085369" style="stroke: #000000; stroke-width: 0.8"/>
      </g>
     </g>
     <g id="text_29">
      <!-- 3000 -->
      <g transform="translate(454.197885 93.884588) scale(0.1 -0.1)">
       <use xlink:href="#DejaVuSans-33"/>
       <use xlink:href="#DejaVuSans-30" x="63.623047"/>
       <use xlink:href="#DejaVuSans-30" x="127.246094"/>
       <use xlink:href="#DejaVuSans-30" x="190.869141"/>
      </g>
     </g>
    </g>
    <g id="ytick_12">
     <g id="line2d_28">
      <g>
       <use xlink:href="#m6324e73df1" x="486.647885" y="38.181449" style="stroke: #000000; stroke-width: 0.8"/>
      </g>
     </g>
     <g id="text_30">
      <!-- 4000 -->
      <g transform="translate(454.197885 41.980668) scale(0.1 -0.1)">
       <use xlink:href="#DejaVuSans-34"/>
       <use xlink:href="#DejaVuSans-30" x="63.623047"/>
       <use xlink:href="#DejaVuSans-30" x="127.246094"/>
       <use xlink:href="#DejaVuSans-30" x="190.869141"/>
      </g>
     </g>
    </g>
    <g id="text_31">
     <!-- [counts] -->
     <g transform="translate(448.118197 152.791947) rotate(-90) scale(0.1 -0.1)">
      <use xlink:href="#DejaVuSans-5b"/>
      <use xlink:href="#DejaVuSans-63" x="39.013672"/>
      <use xlink:href="#DejaVuSans-6f" x="93.994141"/>
      <use xlink:href="#DejaVuSans-75" x="155.175781"/>
      <use xlink:href="#DejaVuSans-6e" x="218.554688"/>
      <use xlink:href="#DejaVuSans-74" x="281.933594"/>
      <use xlink:href="#DejaVuSans-73" x="321.142578"/>
      <use xlink:href="#DejaVuSans-5d" x="373.242188"/>
     </g>
    </g>
   </g>
   <g id="patch_8">
    <path d="M 486.647885 257.158895 
L 486.647885 7.2 
" style="fill: none; stroke: #000000; stroke-width: 0.8; stroke-linejoin: miter; stroke-linecap: square"/>
   </g>
   <g id="patch_9">
    <path d="M 865.19952 257.158895 
L 865.19952 7.2 
" style="fill: none; stroke: #000000; stroke-width: 0.8; stroke-linejoin: miter; stroke-linecap: square"/>
   </g>
   <g id="patch_10">
    <path d="M 486.647885 257.158895 
L 865.19952 257.158895 
" style="fill: none; stroke: #000000; stroke-width: 0.8; stroke-linejoin: miter; stroke-linecap: square"/>
   </g>
   <g id="patch_11">
    <path d="M 486.647885 7.2 
L 865.19952 7.2 
" style="fill: none; stroke: #000000; stroke-width: 0.8; stroke-linejoin: miter; stroke-linecap: square"/>
   </g>
   <g id="line2d_29">
    <path d="M 503.854777 155.017172 
L 505.001904 155.017172 
L 505.001904 143.234982 
L 506.14903 143.234982 
L 506.14903 137.473647 
L 507.296156 137.473647 
L 507.296156 142.40452 
L 508.443282 142.40452 
L 508.443282 148.996317 
L 509.590408 148.996317 
L 509.590408 153.460054 
L 510.737534 153.460054 
L 510.737534 150.293915 
L 511.884661 150.293915 
L 511.884661 129.324732 
L 513.031787 129.324732 
L 513.031787 109.549339 
L 514.178913 109.549339 
L 514.178913 86.971134 
L 515.326039 86.971134 
L 515.326039 61.693925 
L 516.473165 61.693925 
L 516.473165 44.254208 
L 517.620291 44.254208 
L 517.620291 22.610274 
L 518.767418 22.610274 
L 518.767418 25.309277 
L 519.914544 25.309277 
L 519.914544 18.561768 
L 521.06167 18.561768 
L 521.06167 27.904473 
L 522.208796 27.904473 
L 522.208796 43.164226 
L 523.355922 43.164226 
L 523.355922 45.967037 
L 524.503048 45.967037 
L 524.503048 54.012145 
L 525.650175 54.012145 
L 525.650175 59.202537 
L 526.797301 59.202537 
L 526.797301 73.060883 
L 527.944427 73.060883 
L 527.944427 80.950279 
L 529.091553 80.950279 
L 529.091553 90.241081 
L 530.238679 90.241081 
L 530.238679 88.632059 
L 531.385805 88.632059 
L 531.385805 87.334461 
L 532.532932 87.334461 
L 532.532932 97.040494 
L 533.680058 97.040494 
L 533.680058 98.493804 
L 534.827184 98.493804 
L 534.827184 93.1477 
L 535.97431 93.1477 
L 535.97431 93.459124 
L 537.121436 93.459124 
L 537.121436 91.382967 
L 538.268562 91.382967 
L 538.268562 80.950279 
L 539.415689 80.950279 
L 539.415689 73.839442 
L 540.562815 73.839442 
L 540.562815 61.330598 
L 541.709941 61.330598 
L 541.709941 53.077874 
L 542.857067 53.077874 
L 542.857067 49.70412 
L 544.004193 49.70412 
L 544.004193 44.358016 
L 545.151319 44.358016 
L 545.151319 37.454795 
L 546.298446 37.454795 
L 546.298446 53.077874 
L 547.445572 53.077874 
L 547.445572 55.984494 
L 548.592698 55.984494 
L 548.592698 66.157662 
L 549.739824 66.157662 
L 549.739824 72.126613 
L 550.88695 72.126613 
L 550.88695 90.76012 
L 552.034076 90.76012 
L 552.034076 91.69439 
L 553.181203 91.69439 
L 553.181203 94.445298 
L 554.328329 94.445298 
L 554.328329 107.161758 
L 555.475455 107.161758 
L 555.475455 114.532115 
L 556.622581 114.532115 
L 556.622581 114.324499 
L 557.769707 114.324499 
L 557.769707 125.58765 
L 558.916833 125.58765 
L 558.916833 129.480444 
L 560.06396 129.480444 
L 560.06396 138.771245 
L 561.211086 138.771245 
L 561.211086 145.778274 
L 562.358212 145.778274 
L 562.358212 148.996317 
L 563.505338 148.996317 
L 563.505338 149.203933 
L 564.652464 149.203933 
L 564.652464 157.664272 
L 565.79959 157.664272 
L 565.79959 161.660874 
L 566.946717 161.660874 
L 566.946717 167.370305 
L 568.093843 167.370305 
L 568.093843 172.716409 
L 569.240969 172.716409 
L 569.240969 171.782138 
L 570.388095 171.782138 
L 570.388095 175.674932 
L 571.535221 175.674932 
L 571.535221 179.982957 
L 572.682347 179.982957 
L 572.682347 186.055716 
L 573.829474 186.055716 
L 573.829474 185.225253 
L 574.9766 185.225253 
L 574.9766 190.415645 
L 576.123726 190.415645 
L 576.123726 192.284186 
L 577.270852 192.284186 
L 577.270852 194.72367 
L 578.417978 194.72367 
L 578.417978 198.045521 
L 579.565104 198.045521 
L 579.565104 197.163155 
L 580.712231 197.163155 
L 580.712231 202.872586 
L 581.859357 202.872586 
L 581.859357 204.896839 
L 583.006483 204.896839 
L 583.006483 205.986821 
L 584.153609 205.986821 
L 584.153609 207.232515 
L 585.300735 207.232515 
L 585.300735 208.685825 
L 586.447861 208.685825 
L 586.447861 205.519686 
L 587.594988 205.519686 
L 587.594988 211.903868 
L 588.742114 211.903868 
L 588.742114 213.772409 
L 589.88924 213.772409 
L 589.88924 215.225719 
L 591.036366 215.225719 
L 591.036366 215.848566 
L 592.183492 215.848566 
L 592.183492 217.146164 
L 593.330618 217.146164 
L 593.330618 216.056181 
L 594.477745 216.056181 
L 594.477745 217.976626 
L 595.624871 217.976626 
L 595.624871 221.090861 
L 597.919123 221.038957 
L 597.919123 222.596075 
L 599.066249 222.596075 
L 599.066249 224.568424 
L 600.213375 224.568424 
L 600.213375 223.634153 
L 601.360502 223.634153 
L 601.360502 226.021734 
L 602.507628 226.021734 
L 602.507628 226.800293 
L 603.654754 226.800293 
L 603.654754 228.253602 
L 604.80188 228.253602 
L 604.80188 226.800293 
L 605.949006 226.800293 
L 605.949006 229.343585 
L 607.096132 229.343585 
L 607.096132 229.499296 
L 608.243259 229.499296 
L 608.243259 228.409314 
L 609.390385 228.409314 
L 609.390385 230.433567 
L 610.537511 230.433567 
L 610.537511 228.61693 
L 611.684637 228.61693 
L 611.684637 231.783069 
L 612.831763 231.783069 
L 612.831763 231.938781 
L 613.978889 231.938781 
L 613.978889 230.018336 
L 615.126016 230.018336 
L 615.126016 233.859226 
L 616.273142 233.859226 
L 616.273142 232.354012 
L 617.420268 232.354012 
L 617.420268 233.963033 
L 618.567394 233.963033 
L 618.567394 236.610133 
L 619.71452 236.610133 
L 619.71452 233.340186 
L 620.861646 233.340186 
L 620.861646 234.637784 
L 622.008773 234.637784 
L 622.008773 235.001112 
L 623.155899 235.001112 
L 623.155899 235.779671 
L 624.303025 235.779671 
L 624.303025 236.142998 
L 626.597277 236.246806 
L 626.597277 237.077269 
L 627.744403 237.077269 
L 627.744403 239.153425 
L 628.89153 239.153425 
L 628.89153 238.063443 
L 630.038656 238.063443 
L 630.038656 236.558229 
L 631.185782 236.558229 
L 631.185782 237.336788 
L 632.332908 237.336788 
L 632.332908 238.478674 
L 633.480034 238.478674 
L 633.480034 238.790098 
L 634.62716 238.790098 
L 634.62716 238.271059 
L 635.774287 238.271059 
L 635.774287 239.205329 
L 636.921413 239.205329 
L 636.921413 238.634386 
L 639.215665 238.530578 
L 639.215665 239.309137 
L 640.362791 239.309137 
L 640.362791 239.724368 
L 641.509917 239.724368 
L 641.509917 240.710543 
L 642.657044 240.710543 
L 642.657044 240.191504 
L 643.80417 240.191504 
L 643.80417 240.399119 
L 644.951296 240.399119 
L 644.951296 241.33339 
L 647.245548 241.281486 
L 647.245548 240.866255 
L 648.392674 240.866255 
L 648.392674 241.644813 
L 649.539801 241.644813 
L 649.539801 240.762447 
L 650.686927 240.762447 
L 650.686927 241.177678 
L 651.834053 241.177678 
L 651.834053 241.956237 
L 652.981179 241.956237 
L 652.981179 241.800525 
L 654.128305 241.800525 
L 654.128305 241.956237 
L 655.275431 241.956237 
L 655.275431 241.125774 
L 657.569684 241.229582 
L 657.569684 242.630988 
L 658.71681 242.630988 
L 658.71681 242.163853 
L 659.863936 242.163853 
L 659.863936 241.956237 
L 661.011062 241.956237 
L 661.011062 241.800525 
L 662.158188 241.800525 
L 662.158188 242.423372 
L 663.305315 242.423372 
L 663.305315 242.942411 
L 665.599567 242.890508 
L 665.599567 242.163853 
L 666.746693 242.163853 
L 666.746693 242.890508 
L 667.893819 242.890508 
L 667.893819 243.461451 
L 669.040945 243.461451 
L 669.040945 243.305739 
L 670.188072 243.305739 
L 670.188072 242.942411 
L 671.335198 242.942411 
L 671.335198 243.305739 
L 672.482324 243.305739 
L 672.482324 242.423372 
L 673.62945 242.423372 
L 673.62945 243.150027 
L 674.776576 243.150027 
L 674.776576 242.890508 
L 677.070829 242.890508 
L 677.070829 243.098123 
L 678.217955 243.098123 
L 678.217955 243.617162 
L 679.365081 243.617162 
L 679.365081 242.734796 
L 680.512207 242.734796 
L 680.512207 243.928586 
L 681.659333 243.928586 
L 681.659333 244.136202 
L 682.806459 244.136202 
L 682.806459 243.253835 
L 683.953586 243.253835 
L 683.953586 244.707145 
L 685.100712 244.707145 
L 685.100712 243.513355 
L 686.247838 243.513355 
L 686.247838 243.928586 
L 687.394964 243.928586 
L 687.394964 243.72097 
L 689.689216 243.772874 
L 689.689216 244.291913 
L 690.836343 244.291913 
L 690.836343 243.513355 
L 691.983469 243.513355 
L 691.983469 243.772874 
L 693.130595 243.772874 
L 693.130595 243.305739 
L 694.277721 243.305739 
L 694.277721 244.291913 
L 696.571973 244.343817 
L 696.571973 244.447625 
L 697.7191 244.447625 
L 697.7191 244.291913 
L 701.160478 244.291913 
L 701.160478 243.98049 
L 702.307604 243.98049 
L 702.307604 244.343817 
L 703.45473 244.343817 
L 703.45473 244.759049 
L 704.601857 244.759049 
L 704.601857 244.240009 
L 705.748983 244.240009 
L 705.748983 244.707145 
L 706.896109 244.707145 
L 706.896109 244.551433 
L 708.043235 244.551433 
L 708.043235 244.707145 
L 710.337487 244.810953 
L 710.337487 244.91476 
L 711.484614 244.91476 
L 711.484614 244.032394 
L 712.63174 244.032394 
L 712.63174 244.966664 
L 714.925992 244.966664 
L 714.925992 244.499529 
L 717.220244 244.499529 
L 717.220244 244.810953 
L 719.514497 244.759049 
L 719.514497 244.966664 
L 720.661623 244.966664 
L 720.661623 244.759049 
L 722.955875 244.810953 
L 722.955875 244.343817 
L 724.103001 244.343817 
L 724.103001 244.966664 
L 725.250128 244.966664 
L 725.250128 245.122376 
L 728.691506 245.070472 
L 728.691506 244.966664 
L 732.132885 244.91476 
L 732.132885 244.810953 
L 733.280011 244.810953 
L 733.280011 244.966664 
L 735.574263 244.91476 
L 735.574263 245.278088 
L 736.721389 245.278088 
L 736.721389 245.018568 
L 739.015642 245.122376 
L 739.015642 245.226184 
L 740.162768 245.226184 
L 740.162768 245.381896 
L 741.309894 245.381896 
L 741.309894 244.655241 
L 742.45702 244.655241 
L 742.45702 245.4338 
L 743.604146 245.4338 
L 743.604146 245.17428 
L 744.751272 245.17428 
L 744.751272 245.018568 
L 745.898399 245.018568 
L 745.898399 245.226184 
L 749.339777 245.329992 
L 749.339777 245.485704 
L 750.486903 245.485704 
L 750.486903 245.278088 
L 753.928282 245.226184 
L 753.928282 245.537607 
L 755.075408 245.537607 
L 755.075408 245.745223 
L 756.222534 245.745223 
L 756.222534 245.070472 
L 757.36966 245.070472 
L 757.36966 245.381896 
L 758.516786 245.381896 
L 758.516786 245.018568 
L 759.663913 245.018568 
L 759.663913 245.226184 
L 761.958165 245.226184 
L 761.958165 245.4338 
L 765.399543 245.381896 
L 765.399543 245.278088 
L 766.54667 245.278088 
L 766.54667 245.4338 
L 771.135174 245.485704 
L 771.135174 245.17428 
L 772.2823 245.17428 
L 772.2823 245.537607 
L 773.429427 245.537607 
L 773.429427 245.329992 
L 778.017931 245.4338 
L 778.017931 245.641415 
L 781.45931 245.537607 
L 781.45931 245.485704 
L 788.342067 245.589511 
L 788.342067 245.641415 
L 789.489193 245.641415 
L 789.489193 245.4338 
L 791.783445 245.329992 
L 791.783445 245.589511 
L 795.224824 245.589511 
L 795.224824 245.381896 
L 796.37195 245.381896 
L 796.37195 245.797127 
L 797.519076 245.797127 
L 797.519076 245.641415 
L 800.960455 245.693319 
L 800.960455 245.485704 
L 803.254707 245.485704 
L 803.254707 245.641415 
L 813.578842 245.537607 
L 813.578842 245.485704 
L 814.725969 245.485704 
L 814.725969 245.745223 
L 819.314473 245.641415 
L 819.314473 245.589511 
L 822.755852 245.641415 
L 822.755852 245.745223 
L 823.902978 245.745223 
L 823.902978 245.537607 
L 825.050104 245.537607 
L 825.050104 245.745223 
L 829.638609 245.745223 
L 829.638609 245.589511 
L 834.227113 245.485704 
L 834.227113 245.745223 
L 847.992628 245.693319 
L 847.992628 245.693319 
" clip-path="url(#p2b2e93df72)" style="fill: none; stroke: #1f77b4; stroke-width: 1.5; stroke-linecap: square"/>
   </g>
  </g>
 </g>
 <defs>
  <clipPath id="pd18e622fce">
   <rect x="53.328125" y="7.2" width="378.551635" height="249.958895"/>
  </clipPath>
  <clipPath id="p2b2e93df72">
   <rect x="486.647885" y="7.2" width="378.551635" height="249.958895"/>
  </clipPath>
 </defs>
</svg>
