<?xml version="1.0" encoding="UTF-8" standalone="no"?>
<!DOCTYPE svg PUBLIC "-//W3C//DTD SVG 1.1//EN"
 "http://www.w3.org/Graphics/SVG/1.1/DTD/svg11.dtd">
<!-- Generated by graphviz version 14.0.4 (20251117.0720)
 -->
<!-- Pages: 1 -->
<svg width="375pt" height="401pt"
 viewBox="0.00 0.00 375.00 401.00" xmlns="http://www.w3.org/2000/svg" xmlns:xlink="http://www.w3.org/1999/xlink">
<g id="graph0" class="graph" transform="scale(1 1) rotate(0) translate(4 396.75)">
<polygon fill="white" stroke="none" points="-4,4 -4,-396.75 371,-396.75 371,4 -4,4"/>
<!-- source_position -->
<g id="node1" class="node">
<title>source_position</title>
<polygon fill="none" stroke="black" points="367,-392.75 240,-392.75 240,-367.5 367,-367.5 367,-392.75"/>
<text xml:space="preserve" text-anchor="middle" x="303.5" y="-375.45" font-family="Times,serif" font-size="14.00">source_position</text>
</g>
<!-- incident_beam -->
<g id="node2" class="node">
<title>incident_beam</title>
<polygon fill="none" stroke="black" points="312.25,-331.5 192.75,-331.5 192.75,-306.25 312.25,-306.25 312.25,-331.5"/>
<text xml:space="preserve" text-anchor="middle" x="252.5" y="-314.2" font-family="Times,serif" font-size="14.00">incident_beam</text>
</g>
<!-- source_position&#45;&gt;incident_beam -->
<g id="edge1" class="edge">
<title>source_position&#45;&gt;incident_beam</title>
<path fill="none" stroke="black" d="M293.18,-367.13C286.61,-359.51 277.93,-349.42 270.28,-340.53"/>
<polygon fill="black" stroke="black" points="272.97,-338.29 263.79,-332.99 267.66,-342.86 272.97,-338.29"/>
</g>
<!-- L1 -->
<g id="node6" class="node">
<title>L1</title>
<polygon fill="none" stroke="black" points="279.5,-270.25 225.5,-270.25 225.5,-245 279.5,-245 279.5,-270.25"/>
<text xml:space="preserve" text-anchor="middle" x="252.5" y="-252.95" font-family="Times,serif" font-size="14.00">L1</text>
</g>
<!-- incident_beam&#45;&gt;L1 -->
<g id="edge5" class="edge">
<title>incident_beam&#45;&gt;L1</title>
<path fill="none" stroke="black" d="M252.5,-305.88C252.5,-298.98 252.5,-290.06 252.5,-281.84"/>
<polygon fill="black" stroke="black" points="256,-282.11 252.5,-272.11 249,-282.11 256,-282.11"/>
</g>
<!-- two_theta -->
<g id="node11" class="node">
<title>two_theta</title>
<polygon fill="none" stroke="black" points="245.75,-86.5 159.25,-86.5 159.25,-61.25 245.75,-61.25 245.75,-86.5"/>
<text xml:space="preserve" text-anchor="middle" x="202.5" y="-69.2" font-family="Times,serif" font-size="14.00">two_theta</text>
</g>
<!-- incident_beam&#45;&gt;two_theta -->
<g id="edge13" class="edge">
<title>incident_beam&#45;&gt;two_theta</title>
<path fill="none" stroke="black" d="M264.83,-305.97C296.42,-274.03 374.8,-184.64 331.5,-122.5 314.71,-98.4 284.25,-86.46 257.15,-80.57"/>
<polygon fill="black" stroke="black" points="258.15,-77.2 247.67,-78.74 256.83,-84.07 258.15,-77.2"/>
</g>
<!-- phi -->
<g id="node14" class="node">
<title>phi</title>
<polygon fill="none" stroke="black" points="120.5,-86.5 66.5,-86.5 66.5,-61.25 120.5,-61.25 120.5,-86.5"/>
<text xml:space="preserve" text-anchor="middle" x="93.5" y="-69.2" font-family="Times,serif" font-size="14.00">phi</text>
</g>
<!-- incident_beam&#45;&gt;phi -->
<g id="edge17" class="edge">
<title>incident_beam&#45;&gt;phi</title>
<path fill="none" stroke="black" d="M240.14,-305.8C203.96,-270.31 100.38,-167.63 92.5,-147.75 86.27,-132.04 86.82,-112.88 88.76,-98.15"/>
<polygon fill="black" stroke="black" points="92.18,-98.92 90.36,-88.48 85.27,-97.78 92.18,-98.92"/>
</g>
<!-- sample_position -->
<g id="node3" class="node">
<title>sample_position</title>
<polygon fill="none" stroke="black" points="221.88,-392.75 91.12,-392.75 91.12,-367.5 221.88,-367.5 221.88,-392.75"/>
<text xml:space="preserve" text-anchor="middle" x="156.5" y="-375.45" font-family="Times,serif" font-size="14.00">sample_position</text>
</g>
<!-- sample_position&#45;&gt;incident_beam -->
<g id="edge2" class="edge">
<title>sample_position&#45;&gt;incident_beam</title>
<path fill="none" stroke="black" d="M175.93,-367.13C189.59,-358.7 208.11,-347.27 223.51,-337.77"/>
<polygon fill="black" stroke="black" points="225.14,-340.87 231.81,-332.64 221.47,-334.92 225.14,-340.87"/>
</g>
<!-- scattered_beam -->
<g id="node5" class="node">
<title>scattered_beam</title>
<polygon fill="none" stroke="black" points="152.12,-331.5 22.88,-331.5 22.88,-306.25 152.12,-306.25 152.12,-331.5"/>
<text xml:space="preserve" text-anchor="middle" x="87.5" y="-314.2" font-family="Times,serif" font-size="14.00">scattered_beam</text>
</g>
<!-- sample_position&#45;&gt;scattered_beam -->
<g id="edge4" class="edge">
<title>sample_position&#45;&gt;scattered_beam</title>
<path fill="none" stroke="black" d="M142.54,-367.13C133.18,-359.1 120.67,-348.35 109.93,-339.14"/>
<polygon fill="black" stroke="black" points="112.46,-336.69 102.59,-332.83 107.9,-342 112.46,-336.69"/>
</g>
<!-- position -->
<g id="node4" class="node">
<title>position</title>
<polygon fill="none" stroke="black" points="73,-392.75 0,-392.75 0,-367.5 73,-367.5 73,-392.75"/>
<text xml:space="preserve" text-anchor="middle" x="36.5" y="-375.45" font-family="Times,serif" font-size="14.00">position</text>
</g>
<!-- position&#45;&gt;scattered_beam -->
<g id="edge3" class="edge">
<title>position&#45;&gt;scattered_beam</title>
<path fill="none" stroke="black" d="M46.82,-367.13C53.39,-359.51 62.07,-349.42 69.72,-340.53"/>
<polygon fill="black" stroke="black" points="72.34,-342.86 76.21,-332.99 67.03,-338.29 72.34,-342.86"/>
</g>
<!-- L2 -->
<g id="node7" class="node">
<title>L2</title>
<polygon fill="none" stroke="black" points="169.5,-270.25 115.5,-270.25 115.5,-245 169.5,-245 169.5,-270.25"/>
<text xml:space="preserve" text-anchor="middle" x="142.5" y="-252.95" font-family="Times,serif" font-size="14.00">L2</text>
</g>
<!-- scattered_beam&#45;&gt;L2 -->
<g id="edge6" class="edge">
<title>scattered_beam&#45;&gt;L2</title>
<path fill="none" stroke="black" d="M98.63,-305.88C105.79,-298.18 115.27,-287.96 123.59,-279"/>
<polygon fill="black" stroke="black" points="126.12,-281.42 130.36,-271.71 120.99,-276.65 126.12,-281.42"/>
</g>
<!-- scattered_beam&#45;&gt;two_theta -->
<g id="edge14" class="edge">
<title>scattered_beam&#45;&gt;two_theta</title>
<path fill="none" stroke="black" d="M89.22,-305.79C91.66,-290.93 96.92,-265.2 106.5,-245 129.43,-196.65 152.76,-195.2 177.5,-147.75 185.84,-131.75 192.34,-112.37 196.61,-97.62"/>
<polygon fill="black" stroke="black" points="199.87,-98.96 199.16,-88.39 193.12,-97.1 199.87,-98.96"/>
</g>
<!-- scattered_beam&#45;&gt;phi -->
<g id="edge18" class="edge">
<title>scattered_beam&#45;&gt;phi</title>
<path fill="none" stroke="black" d="M82.09,-306.11C68.68,-275.23 36.49,-189.62 58.5,-122.5 61.68,-112.8 67.68,-103.44 73.82,-95.62"/>
<polygon fill="black" stroke="black" points="76.42,-97.98 80.23,-88.09 71.09,-93.44 76.42,-97.98"/>
</g>
<!-- Ltotal -->
<g id="node8" class="node">
<title>Ltotal</title>
<polygon fill="none" stroke="black" points="239.5,-209 181.5,-209 181.5,-183.75 239.5,-183.75 239.5,-209"/>
<text xml:space="preserve" text-anchor="middle" x="210.5" y="-191.7" font-family="Times,serif" font-size="14.00">Ltotal</text>
</g>
<!-- L1&#45;&gt;Ltotal -->
<g id="edge7" class="edge">
<title>L1&#45;&gt;Ltotal</title>
<path fill="none" stroke="black" d="M244,-244.63C238.71,-237.17 231.75,-227.35 225.54,-218.59"/>
<polygon fill="black" stroke="black" points="228.5,-216.72 219.86,-210.58 222.79,-220.76 228.5,-216.72"/>
</g>
<!-- L2&#45;&gt;Ltotal -->
<g id="edge8" class="edge">
<title>L2&#45;&gt;Ltotal</title>
<path fill="none" stroke="black" d="M156.26,-244.63C165.48,-236.6 177.81,-225.85 188.39,-216.64"/>
<polygon fill="black" stroke="black" points="190.38,-219.55 195.62,-210.34 185.78,-214.27 190.38,-219.55"/>
</g>
<!-- wavelength -->
<g id="node9" class="node">
<title>wavelength</title>
<polygon fill="none" stroke="black" points="322.75,-147.75 224.25,-147.75 224.25,-122.5 322.75,-122.5 322.75,-147.75"/>
<text xml:space="preserve" text-anchor="middle" x="273.5" y="-130.45" font-family="Times,serif" font-size="14.00">wavelength</text>
</g>
<!-- Ltotal&#45;&gt;wavelength -->
<g id="edge12" class="edge">
<title>Ltotal&#45;&gt;wavelength</title>
<path fill="none" stroke="black" d="M223.25,-183.38C231.62,-175.51 242.76,-165.03 252.43,-155.94"/>
<polygon fill="black" stroke="black" points="254.78,-158.53 259.67,-149.13 249.99,-153.44 254.78,-158.53"/>
</g>
<!-- Q -->
<g id="node10" class="node">
<title>Q</title>
<polygon fill="none" stroke="black" points="264.5,-25.25 210.5,-25.25 210.5,0 264.5,0 264.5,-25.25"/>
<text xml:space="preserve" text-anchor="middle" x="237.5" y="-7.95" font-family="Times,serif" font-size="14.00">Q</text>
</g>
<!-- wavelength&#45;&gt;Q -->
<g id="edge9" class="edge">
<title>wavelength&#45;&gt;Q</title>
<path fill="none" stroke="black" d="M270.72,-122.17C267.28,-107.66 261.05,-82.49 254.5,-61.25 251.96,-53.02 248.88,-44.1 246.03,-36.24"/>
<polygon fill="black" stroke="black" points="249.4,-35.25 242.65,-27.08 242.83,-37.68 249.4,-35.25"/>
</g>
<!-- wavelength&#45;&gt;two_theta -->
<g id="edge15" class="edge">
<title>wavelength&#45;&gt;two_theta</title>
<path fill="none" stroke="black" d="M259.13,-122.13C249.51,-114.1 236.63,-103.35 225.58,-94.14"/>
<polygon fill="black" stroke="black" points="227.93,-91.54 218.01,-87.82 223.44,-96.91 227.93,-91.54"/>
</g>
<!-- wavelength&#45;&gt;phi -->
<g id="edge19" class="edge">
<title>wavelength&#45;&gt;phi</title>
<path fill="none" stroke="black" d="M237.07,-122.13C206.42,-112.05 162.74,-97.67 131.62,-87.42"/>
<polygon fill="black" stroke="black" points="132.8,-84.13 122.21,-84.33 130.62,-90.78 132.8,-84.13"/>
</g>
<!-- two_theta&#45;&gt;Q -->
<g id="edge10" class="edge">
<title>two_theta&#45;&gt;Q</title>
<path fill="none" stroke="black" d="M209.58,-60.88C213.9,-53.58 219.55,-44.02 224.63,-35.41"/>
<polygon fill="black" stroke="black" points="227.59,-37.29 229.66,-26.9 221.56,-33.73 227.59,-37.29"/>
</g>
<!-- tof -->
<g id="node12" class="node">
<title>tof</title>
<polygon fill="none" stroke="black" points="311.5,-209 257.5,-209 257.5,-183.75 311.5,-183.75 311.5,-209"/>
<text xml:space="preserve" text-anchor="middle" x="284.5" y="-191.7" font-family="Times,serif" font-size="14.00">tof</text>
</g>
<!-- tof&#45;&gt;wavelength -->
<g id="edge11" class="edge">
<title>tof&#45;&gt;wavelength</title>
<path fill="none" stroke="black" d="M282.27,-183.38C280.99,-176.48 279.34,-167.56 277.81,-159.34"/>
<polygon fill="black" stroke="black" points="281.27,-158.78 276,-149.59 274.38,-160.06 281.27,-158.78"/>
</g>
<!-- gravity -->
<g id="node13" class="node">
<title>gravity</title>
<polygon fill="none" stroke="black" points="168,-147.75 101,-147.75 101,-122.5 168,-122.5 168,-147.75"/>
<text xml:space="preserve" text-anchor="middle" x="134.5" y="-130.45" font-family="Times,serif" font-size="14.00">gravity</text>
</g>
<!-- gravity&#45;&gt;two_theta -->
<g id="edge16" class="edge">
<title>gravity&#45;&gt;two_theta</title>
<path fill="none" stroke="black" d="M148.26,-122.13C157.48,-114.1 169.81,-103.35 180.39,-94.14"/>
<polygon fill="black" stroke="black" points="182.38,-97.05 187.62,-87.84 177.78,-91.77 182.38,-97.05"/>
</g>
<!-- gravity&#45;&gt;phi -->
<g id="edge20" class="edge">
<title>gravity&#45;&gt;phi</title>
<path fill="none" stroke="black" d="M126.2,-122.13C121.03,-114.67 114.24,-104.85 108.18,-96.09"/>
<polygon fill="black" stroke="black" points="111.21,-94.32 102.65,-88.09 105.46,-98.31 111.21,-94.32"/>
</g>
</g>
</svg>
