<?xml version="1.0" encoding="UTF-8" standalone="no"?>
<!DOCTYPE svg PUBLIC "-//W3C//DTD SVG 1.1//EN"
 "http://www.w3.org/Graphics/SVG/1.1/DTD/svg11.dtd">
<!-- Generated by graphviz version 11.0.0 (20240519.1550)
 -->
<!-- Pages: 1 -->
<svg width="302pt" height="240pt"
 viewBox="0.00 0.00 302.38 240.25" xmlns="http://www.w3.org/2000/svg" xmlns:xlink="http://www.w3.org/1999/xlink">
<g id="graph0" class="graph" transform="scale(1 1) rotate(0) translate(4 236.25)">
<polygon fill="white" stroke="none" points="-4,4 -4,-236.25 298.38,-236.25 298.38,4 -4,4"/>
<!-- ChopperCascadeFrames -->
<g id="node1" class="node">
<title>ChopperCascadeFrames</title>
<polygon fill="none" stroke="red" stroke-dasharray="5,2" points="190,-232.25 0,-232.25 0,-207 190,-207 190,-232.25"/>
<text text-anchor="middle" x="95" y="-214.95" font-family="Times,serif" font-size="14.00" fill="red">ChopperCascadeFrames</text>
</g>
<!-- FrameAtDetector -->
<g id="node2" class="node">
<title>FrameAtDetector</title>
<polygon fill="none" stroke="black" points="246.25,-171 105.75,-171 105.75,-138 246.25,-138 246.25,-171"/>
<text text-anchor="start" x="113.75" y="-154.7" font-family="Times,serif" font-size="14.00">FrameAtDetector</text>
<text text-anchor="start" x="114.88" y="-143.55" font-family="Times,serif" font-size="11.00">via:</text>
<text text-anchor="start" x="135.12" y="-143.55" font-family="Times,serif" font-style="italic" font-size="11.00">frame_at_detector</text>
</g>
<!-- ChopperCascadeFrames&#45;&gt;FrameAtDetector -->
<g id="edge4" class="edge">
<title>ChopperCascadeFrames&#45;&gt;FrameAtDetector</title>
<path fill="none" stroke="black" d="M110.24,-206.75C120.46,-198.78 134.26,-188.03 146.58,-178.42"/>
<polygon fill="black" stroke="black" points="148.7,-181.21 154.44,-172.3 144.4,-175.69 148.7,-181.21"/>
</g>
<!-- CleanFrameAtDetector -->
<g id="node3" class="node">
<title>CleanFrameAtDetector</title>
<polygon fill="none" stroke="black" points="294.38,-102 79.62,-102 79.62,-69 294.38,-69 294.38,-102"/>
<text text-anchor="start" x="104.5" y="-85.7" font-family="Times,serif" font-size="14.00">CleanFrameAtDetector</text>
<text text-anchor="start" x="87.62" y="-74.55" font-family="Times,serif" font-size="11.00">via:</text>
<text text-anchor="start" x="107.88" y="-74.55" font-family="Times,serif" font-style="italic" font-size="11.00">maybe_clip_detector_subframes</text>
</g>
<!-- ChopperCascadeFrames&#45;&gt;CleanFrameAtDetector -->
<g id="edge3" class="edge">
<title>ChopperCascadeFrames&#45;&gt;CleanFrameAtDetector</title>
<path fill="none" stroke="black" d="M93.07,-206.64C91.03,-189.91 89.7,-159.22 103,-138 110.89,-125.41 123.1,-115.43 135.78,-107.75"/>
<polygon fill="black" stroke="black" points="137.17,-110.98 144.19,-103.05 133.75,-104.87 137.17,-110.98"/>
</g>
<!-- TimeOfFlightOrigin -->
<g id="node5" class="node">
<title>TimeOfFlightOrigin</title>
<polygon fill="none" stroke="black" points="217.75,-33 38.25,-33 38.25,0 217.75,0 217.75,-33"/>
<text text-anchor="start" x="58.25" y="-16.7" font-family="Times,serif" font-size="14.00">TimeOfFlightOrigin</text>
<text text-anchor="start" x="46.25" y="-5.55" font-family="Times,serif" font-size="11.00">via:</text>
<text text-anchor="start" x="66.5" y="-5.55" font-family="Times,serif" font-style="italic" font-size="11.00">time_of_flight_origin_wfm</text>
</g>
<!-- ChopperCascadeFrames&#45;&gt;TimeOfFlightOrigin -->
<g id="edge6" class="edge">
<title>ChopperCascadeFrames&#45;&gt;TimeOfFlightOrigin</title>
<path fill="none" stroke="black" d="M89.77,-206.84C79.06,-180.86 57.19,-117.15 77,-69 81.33,-58.46 88.98,-48.94 97.06,-41.03"/>
<polygon fill="black" stroke="black" points="99.31,-43.71 104.39,-34.4 94.62,-38.51 99.31,-43.71"/>
</g>
<!-- FrameAtDetector&#45;&gt;CleanFrameAtDetector -->
<g id="edge1" class="edge">
<title>FrameAtDetector&#45;&gt;CleanFrameAtDetector</title>
<path fill="none" stroke="black" d="M178.61,-137.62C179.78,-130.45 181.21,-121.76 182.55,-113.6"/>
<polygon fill="black" stroke="black" points="186,-114.19 184.17,-103.76 179.09,-113.06 186,-114.19"/>
</g>
<!-- CleanFrameAtDetector&#45;&gt;TimeOfFlightOrigin -->
<g id="edge7" class="edge">
<title>CleanFrameAtDetector&#45;&gt;TimeOfFlightOrigin</title>
<path fill="none" stroke="black" d="M173.02,-68.62C165.96,-60.61 157.26,-50.72 149.38,-41.78"/>
<polygon fill="black" stroke="black" points="152.12,-39.59 142.88,-34.4 146.86,-44.22 152.12,-39.59"/>
</g>
<!-- Ltotal -->
<g id="node4" class="node">
<title>Ltotal</title>
<polygon fill="none" stroke="red" stroke-dasharray="5,2" points="270,-232.25 212,-232.25 212,-207 270,-207 270,-232.25"/>
<text text-anchor="middle" x="241" y="-214.95" font-family="Times,serif" font-size="14.00" fill="red">Ltotal</text>
</g>
<!-- Ltotal&#45;&gt;FrameAtDetector -->
<g id="edge5" class="edge">
<title>Ltotal&#45;&gt;FrameAtDetector</title>
<path fill="none" stroke="black" d="M228.77,-206.75C220.81,-199.02 210.14,-188.66 200.48,-179.27"/>
<polygon fill="black" stroke="black" points="203.04,-176.88 193.43,-172.43 198.17,-181.91 203.04,-176.88"/>
</g>
<!-- Ltotal&#45;&gt;CleanFrameAtDetector -->
<g id="edge2" class="edge">
<title>Ltotal&#45;&gt;CleanFrameAtDetector</title>
<path fill="none" stroke="black" d="M245.84,-206.77C251.7,-190.45 259.58,-160.54 249,-138 243.67,-126.65 234.48,-116.94 224.79,-109.11"/>
<polygon fill="black" stroke="black" points="227.16,-106.51 217.05,-103.36 222.99,-112.13 227.16,-106.51"/>
</g>
</g>
</svg>
