<?xml version="1.0" encoding="UTF-8" standalone="no"?>
<!DOCTYPE svg PUBLIC "-//W3C//DTD SVG 1.1//EN"
 "http://www.w3.org/Graphics/SVG/1.1/DTD/svg11.dtd">
<!-- Generated by graphviz version 14.0.4 (20251117.0720)
 -->
<!-- Pages: 1 -->
<svg width="310pt" height="217pt"
 viewBox="0.00 0.00 310.00 217.00" xmlns="http://www.w3.org/2000/svg" xmlns:xlink="http://www.w3.org/1999/xlink">
<g id="graph0" class="graph" transform="scale(1 1) rotate(0) translate(4 213)">
<polygon fill="white" stroke="none" points="-4,4 -4,-213 306,-213 306,4 -4,4"/>
<!-- source_position -->
<g id="node1" class="node">
<title>source_position</title>
<polygon fill="none" stroke="black" points="127,-209 0,-209 0,-183.75 127,-183.75 127,-209"/>
<text xml:space="preserve" text-anchor="middle" x="63.5" y="-191.7" font-family="Times,serif" font-size="14.00">source_position</text>
</g>
<!-- incident_beam -->
<g id="node2" class="node">
<title>incident_beam</title>
<polygon fill="none" stroke="black" points="211.25,-147.75 91.75,-147.75 91.75,-122.5 211.25,-122.5 211.25,-147.75"/>
<text xml:space="preserve" text-anchor="middle" x="151.5" y="-130.45" font-family="Times,serif" font-size="14.00">incident_beam</text>
</g>
<!-- source_position&#45;&gt;incident_beam -->
<g id="edge1" class="edge">
<title>source_position&#45;&gt;incident_beam</title>
<path fill="none" stroke="black" d="M81.31,-183.38C93.71,-175.03 110.48,-163.74 124.52,-154.29"/>
<polygon fill="black" stroke="black" points="126.12,-157.43 132.46,-148.94 122.21,-151.62 126.12,-157.43"/>
</g>
<!-- Ltotal -->
<g id="node6" class="node">
<title>Ltotal</title>
<polygon fill="none" stroke="black" points="180.5,-86.5 122.5,-86.5 122.5,-61.25 180.5,-61.25 180.5,-86.5"/>
<text xml:space="preserve" text-anchor="middle" x="151.5" y="-69.2" font-family="Times,serif" font-size="14.00">Ltotal</text>
</g>
<!-- source_position&#45;&gt;Ltotal -->
<g id="edge8" class="edge">
<title>source_position&#45;&gt;Ltotal</title>
<path fill="none" stroke="black" d="M64.08,-183.47C65.36,-168.11 69.45,-141.14 82.5,-122.5 91.06,-110.27 103.84,-100.19 116.08,-92.51"/>
<polygon fill="black" stroke="black" points="117.54,-95.71 124.39,-87.63 114,-89.68 117.54,-95.71"/>
</g>
<!-- incident_beam&#45;&gt;Ltotal -->
<g id="edge7" class="edge">
<title>incident_beam&#45;&gt;Ltotal</title>
<path fill="none" stroke="black" d="M151.5,-122.13C151.5,-115.23 151.5,-106.31 151.5,-98.09"/>
<polygon fill="black" stroke="black" points="155,-98.36 151.5,-88.36 148,-98.36 155,-98.36"/>
</g>
<!-- sample_position -->
<g id="node3" class="node">
<title>sample_position</title>
<polygon fill="none" stroke="black" points="275.88,-209 145.12,-209 145.12,-183.75 275.88,-183.75 275.88,-209"/>
<text xml:space="preserve" text-anchor="middle" x="210.5" y="-191.7" font-family="Times,serif" font-size="14.00">sample_position</text>
</g>
<!-- sample_position&#45;&gt;incident_beam -->
<g id="edge2" class="edge">
<title>sample_position&#45;&gt;incident_beam</title>
<path fill="none" stroke="black" d="M198.56,-183.38C190.8,-175.59 180.5,-165.25 171.51,-156.22"/>
<polygon fill="black" stroke="black" points="174.03,-153.79 164.49,-149.17 169.07,-158.73 174.03,-153.79"/>
</g>
<!-- tof -->
<g id="node4" class="node">
<title>tof</title>
<polygon fill="none" stroke="black" points="98.5,-86.5 44.5,-86.5 44.5,-61.25 98.5,-61.25 98.5,-86.5"/>
<text xml:space="preserve" text-anchor="middle" x="71.5" y="-69.2" font-family="Times,serif" font-size="14.00">tof</text>
</g>
<!-- wavelength -->
<g id="node5" class="node">
<title>wavelength</title>
<polygon fill="none" stroke="black" points="107.75,-25.25 9.25,-25.25 9.25,0 107.75,0 107.75,-25.25"/>
<text xml:space="preserve" text-anchor="middle" x="58.5" y="-7.95" font-family="Times,serif" font-size="14.00">wavelength</text>
</g>
<!-- tof&#45;&gt;wavelength -->
<g id="edge3" class="edge">
<title>tof&#45;&gt;wavelength</title>
<path fill="none" stroke="black" d="M68.87,-60.88C67.35,-53.98 65.4,-45.06 63.59,-36.84"/>
<polygon fill="black" stroke="black" points="67.01,-36.09 61.45,-27.08 60.18,-37.59 67.01,-36.09"/>
</g>
<!-- energy -->
<g id="node7" class="node">
<title>energy</title>
<polygon fill="none" stroke="black" points="191.25,-25.25 125.75,-25.25 125.75,0 191.25,0 191.25,-25.25"/>
<text xml:space="preserve" text-anchor="middle" x="158.5" y="-7.95" font-family="Times,serif" font-size="14.00">energy</text>
</g>
<!-- tof&#45;&gt;energy -->
<g id="edge5" class="edge">
<title>tof&#45;&gt;energy</title>
<path fill="none" stroke="black" d="M89.11,-60.88C101.25,-52.61 117.63,-41.46 131.43,-32.06"/>
<polygon fill="black" stroke="black" points="133.37,-34.97 139.67,-26.45 129.43,-29.19 133.37,-34.97"/>
</g>
<!-- Ltotal&#45;&gt;wavelength -->
<g id="edge4" class="edge">
<title>Ltotal&#45;&gt;wavelength</title>
<path fill="none" stroke="black" d="M132.68,-60.88C119.44,-52.45 101.5,-41.02 86.58,-31.52"/>
<polygon fill="black" stroke="black" points="88.88,-28.83 78.57,-26.41 85.12,-34.74 88.88,-28.83"/>
</g>
<!-- Ltotal&#45;&gt;energy -->
<g id="edge6" class="edge">
<title>Ltotal&#45;&gt;energy</title>
<path fill="none" stroke="black" d="M152.92,-60.88C153.73,-53.98 154.79,-45.06 155.76,-36.84"/>
<polygon fill="black" stroke="black" points="159.21,-37.44 156.91,-27.1 152.26,-36.62 159.21,-37.44"/>
</g>
<!-- position -->
<g id="node8" class="node">
<title>position</title>
<polygon fill="none" stroke="black" points="302,-147.75 229,-147.75 229,-122.5 302,-122.5 302,-147.75"/>
<text xml:space="preserve" text-anchor="middle" x="265.5" y="-130.45" font-family="Times,serif" font-size="14.00">position</text>
</g>
<!-- position&#45;&gt;Ltotal -->
<g id="edge9" class="edge">
<title>position&#45;&gt;Ltotal</title>
<path fill="none" stroke="black" d="M242.43,-122.13C225.82,-113.5 203.16,-101.73 184.62,-92.09"/>
<polygon fill="black" stroke="black" points="186.37,-89.05 175.88,-87.55 183.14,-95.26 186.37,-89.05"/>
</g>
</g>
</svg>
